# Exported from Godot Engine
mtllib Defrost_Rear.mtl
o Defrost_Rear
v -2.101595 1.335275 0.000000
vt 0.240112 0.500244
vn 0.608426 0.509639 -0.608347
v -2.213969 1.286711 0.000000
vt 0.066956 0.500244
vn 0.603781 0.520510 -0.603754
v -2.099194 1.334776 -0.090940
vt 0.243042 0.586182
vn 0.608426 0.509639 -0.608347
v -2.211203 1.286339 -0.088970
vt 0.070496 0.584473
vn 0.600532 0.528031 -0.600453
v -2.072924 1.324217 -0.365576
vt 0.273193 0.846558
vn 0.603781 0.520510 -0.603754
v -2.088932 1.330535 -0.240111
vt 0.254883 0.727539
vn 0.607077 0.512846 -0.606998
v -2.180182 1.277459 -0.357054
vt 0.107605 0.839111
vn 0.595762 0.538789 -0.595630
v -2.199080 1.282695 -0.234704
vt 0.084961 0.722900
vn 0.600532 0.528031 -0.600453
v -2.072850 1.306558 -0.480656
vt 0.264648 0.956390
vn 0.583931 0.553234 -0.594102
v -2.054080 1.317394 -0.470506
vt 0.294922 0.946442
vn 0.603781 0.520510 -0.603754
v -2.101385 1.294208 -0.474734
vt 0.220581 0.951019
vn 0.588794 0.542742 -0.598960
v -2.145905 1.276898 -0.462723
vt 0.152832 0.939728
vn 0.595762 0.538789 -0.595630
v -1.991756 1.378399 -0.092574
vt 0.406982 0.587646
vn 0.619274 0.482801 -0.619195
v -1.993738 1.379048 0.000000
vt 0.404785 0.500244
vn 0.619274 0.482801 -0.619195
v -1.861352 1.407746 -0.378279
vt 0.595215 0.857910
vn 0.626660 0.463421 -0.626529
v -1.849355 1.398316 -0.487519
vt 0.606934 0.961792
vn 0.626660 0.463421 -0.626529
v -1.736908 1.451279 -0.384350
vt 0.781738 0.863525
vn 0.639613 0.426409 -0.639587
v -1.728870 1.440527 -0.495593
vt 0.788086 0.969208
vn 0.636708 0.435091 -0.636630
v -1.871516 1.416060 -0.248142
vt 0.585449 0.734619
vn 0.629660 0.455071 -0.629634
v -1.743684 1.460614 -0.252051
vt 0.776855 0.738281
vn 0.642545 0.417659 -0.642415
v -1.998025 1.337220 -0.494094
vt 0.379150 0.968719
vn 0.607077 0.512846 -0.606998
v -1.951735 1.355531 -0.501609
vt 0.449951 0.975662
vn 0.618051 0.485991 -0.617920
v -1.953914 1.358604 -0.478178
vt 0.448486 0.953278
vn 0.614852 0.493975 -0.614773
v -1.835247 1.399321 -0.515185
vt 0.626465 0.988174
vn 0.626660 0.463421 -0.626529
v -1.726596 1.437301 -0.522725
vt 0.789551 0.995079
vn 0.632694 0.446648 -0.632616
v -1.983335 1.373559 -0.244519
vt 0.416260 0.731445
vn 0.619274 0.482801 -0.619195
v -1.970184 1.366206 -0.372532
vt 0.430420 0.852783
vn 0.614852 0.493975 -0.614773
v -1.748042 1.466656 -0.095378
vt 0.773438 0.590088
vn 0.642545 0.417659 -0.642415
v -1.749079 1.467618 0.000000
vt 0.772461 0.500244
vn 0.642545 0.417659 -0.642415
v -1.878019 1.421472 -0.093928
vt 0.579102 0.588867
vn 0.629660 0.455071 -0.629634
v -1.879575 1.422265 0.000000
vt 0.577148 0.500244
vn 0.629660 0.455071 -0.629634
v -1.606899 1.491812 -0.388049
vt 0.974609 0.866943
vn 0.649074 0.396955 -0.648945
v -1.610590 1.487119 -0.419595
vt 0.967285 0.896912
vn 0.646288 0.405945 -0.646158
v -1.598716 1.512275 -0.094933
vt 0.994141 0.589844
vn 0.649074 0.396955 -0.648945
v -1.598987 1.513477 0.000000
vt 0.994629 0.500244
vn 0.649074 0.396955 -0.648945
v -1.643903 1.466329 -0.506673
vt 0.913574 0.979691
vn 0.645383 0.408732 -0.645305
v -1.636475 1.469730 -0.498593
vt 0.925293 0.972000
vn 0.645383 0.408732 -0.645305
v -2.217710 1.260057 -0.354437
vt 0.049072 0.837036
vn 0.588794 0.542742 -0.598960
v -2.200272 1.255070 -0.439186
vt 0.069763 0.917847
vn 0.583931 0.553234 -0.594102
v -2.183763 1.261610 -0.447197
vt 0.094971 0.925293
vn 0.587248 0.546049 -0.597469
v -2.252788 1.269110 0.000000
vt 0.006706 0.500244
vn 0.595762 0.538789 -0.595630
v -2.249966 1.268752 -0.088340
vt 0.010262 0.583984
vn 0.595762 0.538789 -0.595630
v -2.237358 1.265180 -0.233046
vt 0.025375 0.721436
vn 0.592440 0.546063 -0.592308
v -1.601798 1.504411 -0.254181
vt 0.986816 0.740234
vn 0.649074 0.396955 -0.648945
v -2.211208 1.286349 0.088971
vt 0.070496 0.416016
vn 0.600532 0.528031 -0.600453
v -2.099196 1.334781 0.090940
vt 0.243042 0.414062
vn 0.608426 0.509639 -0.608347
v -2.199083 1.282702 0.234705
vt 0.084961 0.277832
vn 0.600532 0.528031 -0.600453
v -2.088934 1.330540 0.240112
vt 0.254883 0.272949
vn 0.607077 0.512846 -0.606998
v -2.180184 1.277463 0.357056
vt 0.107666 0.161133
vn 0.595762 0.538789 -0.595630
v -2.072933 1.324238 0.365579
vt 0.273193 0.153809
vn 0.603781 0.520510 -0.603754
v -2.101385 1.294208 0.474734
vt 0.220581 0.049316
vn 0.594180 0.553233 -0.583851
v -2.145905 1.276898 0.462723
vt 0.152832 0.060547
vn 0.595762 0.538789 -0.595630
v -2.054085 1.317404 0.470508
vt 0.294922 0.053711
vn 0.603781 0.520510 -0.603754
v -1.991757 1.378400 0.092575
vt 0.406982 0.412598
vn 0.619274 0.482801 -0.619195
v -1.728875 1.440544 0.495599
vt 0.788086 0.031250
vn 0.636708 0.435091 -0.636630
v -1.849360 1.398328 0.487521
vt 0.606934 0.038574
vn 0.626660 0.463421 -0.626529
v -1.736911 1.451288 0.384352
vt 0.781738 0.136719
vn 0.639613 0.426409 -0.639587
v -1.861359 1.407765 0.378282
vt 0.595215 0.142578
vn 0.626660 0.463421 -0.626529
v -1.743686 1.460618 0.252052
vt 0.776855 0.262207
vn 0.642545 0.417659 -0.642415
v -1.871518 1.416064 0.248143
vt 0.585449 0.265625
vn 0.629660 0.455071 -0.629634
v -1.998025 1.337220 0.494094
vt 0.379150 0.031738
vn 0.607077 0.512846 -0.606998
v -2.044316 1.318908 0.486579
vt 0.308594 0.038574
vn 0.607077 0.512846 -0.606998
v -1.953920 1.358618 0.478180
vt 0.448486 0.046875
vn 0.614852 0.493975 -0.614773
v -1.726596 1.437301 0.522725
vt 0.789551 0.005371
vn 0.632694 0.446648 -0.632616
v -1.835247 1.399321 0.515186
vt 0.626465 0.012207
vn 0.626660 0.463421 -0.626529
v -1.970195 1.366233 0.372536
vt 0.430420 0.147461
vn 0.614852 0.493975 -0.614773
v -1.983337 1.373563 0.244520
vt 0.416260 0.269043
vn 0.619274 0.482801 -0.619195
v -1.878020 1.421475 0.093929
vt 0.579102 0.411621
vn 0.629660 0.455071 -0.629634
v -1.748042 1.466657 0.095378
vt 0.773438 0.410156
vn 0.642545 0.417659 -0.642415
v -1.606899 1.491812 0.388050
vt 0.974609 0.133301
vn 0.649074 0.396955 -0.648945
v -1.610590 1.487118 0.419595
vt 0.967285 0.103516
vn 0.646288 0.405945 -0.646158
v -1.598716 1.512275 0.094933
vt 0.994629 0.410645
vn 0.649074 0.396955 -0.648945
v -1.654339 1.462022 0.513215
vt 0.897949 0.014648
vn 0.645383 0.408732 -0.645305
v -1.643903 1.466329 0.506673
vt 0.913574 0.020508
vn 0.645383 0.408732 -0.645305
v -1.951735 1.355531 0.501609
vt 0.449951 0.024902
vn 0.618051 0.485991 -0.617920
v -2.183763 1.261610 0.447197
vt 0.094971 0.075195
vn 0.594180 0.553233 -0.583851
v -2.249969 1.268759 0.088340
vt 0.010269 0.416504
vn 0.595762 0.538789 -0.595630
v -1.613673 1.483197 0.445946
vt 0.961426 0.078613
vn 0.646288 0.405945 -0.646158
v -2.237362 1.265186 0.233047
vt 0.025391 0.278809
vn 0.592440 0.546063 -0.592308
v -1.601798 1.504411 0.254181
vt 0.986816 0.260254
vn 0.649074 0.396955 -0.648945
v -2.217730 1.260097 0.354443
vt 0.049072 0.163574
vn 0.594180 0.553233 -0.583851
v -1.613673 1.483198 -0.445945
vt 0.961426 0.921936
vn 0.646288 0.405945 -0.646158
v -1.618878 1.478897 -0.468827
vt 0.952637 0.943695
vn 0.646288 0.405945 -0.646158
v -1.628507 1.473378 0.489927
vt 0.937500 0.036621
vn 0.645383 0.408732 -0.645305
v -1.636475 1.469730 0.498594
vt 0.925293 0.028320
vn 0.645383 0.408732 -0.645305
v -1.628507 1.473379 -0.489927
vt 0.937500 0.963745
vn 0.645383 0.408732 -0.645305
v -1.618878 1.478897 0.468827
vt 0.952637 0.056641
vn 0.646288 0.405945 -0.646158
v -1.654339 1.462022 -0.513215
vt 0.897949 0.985939
vn 0.645383 0.408732 -0.645305
v -1.663873 1.458403 -0.516989
vt 0.883301 0.989548
vn 0.645383 0.408732 -0.645305
v -1.685792 1.450581 0.522157
vt 0.850586 0.005859
vn 0.645383 0.408732 -0.645305
v -1.663873 1.458402 0.516989
vt 0.883301 0.010742
vn 0.645383 0.408732 -0.645305
v -1.685792 1.450581 -0.522156
vt 0.850586 0.994499
vn 0.645383 0.408732 -0.645305
v -2.200272 1.255070 0.439187
vt 0.069763 0.082520
vn 0.589225 0.563593 -0.578945
v -2.044316 1.318908 -0.486578
vt 0.308594 0.961761
vn 0.607077 0.512846 -0.606998
v -2.072850 1.306558 0.480656
vt 0.264648 0.043945
vn 0.589225 0.563593 -0.578945
usemtl Defrost_R.005
f 3/3/3 2/2/2 1/1/1
f 4/4/4 2/2/2 3/3/3
f 7/7/7 6/6/6 5/5/5
f 8/8/8 6/6/6 7/7/7
f 11/11/11 10/10/10 9/9/9
f 12/12/12 5/5/5 10/10/10
f 7/7/7 5/5/5 12/12/12
f 3/3/3 14/14/14 13/13/13
f 1/1/1 14/14/14 3/3/3
f 17/17/17 16/16/16 15/15/15
f 18/18/18 16/16/16 17/17/17
f 20/20/20 15/15/15 19/19/19
f 17/17/17 15/15/15 20/20/20
f 23/23/23 22/22/22 21/21/21
f 16/16/16 25/25/25 24/24/24
f 18/18/18 25/25/25 16/16/16
f 27/27/27 6/6/6 26/26/26
f 5/5/5 6/6/6 27/27/27
f 30/30/30 29/29/29 28/28/28
f 31/31/31 29/29/29 30/30/30
f 33/33/33 17/17/17 32/32/32
f 28/28/28 35/35/35 34/34/34
f 29/29/29 35/35/35 28/28/28
f 18/18/18 37/37/37 36/36/36
f 13/13/13 31/31/31 30/30/30
f 14/14/14 31/31/31 13/13/13
f 15/15/15 26/26/26 19/19/19
f 27/27/27 26/26/26 15/15/15
f 23/23/23 24/24/24 22/22/22
f 16/16/16 24/24/24 23/23/23
f 7/7/7 39/39/39 38/38/38
f 40/40/40 39/39/39 7/7/7
f 2/2/2 42/42/42 41/41/41
f 4/4/4 42/42/42 2/2/2
f 42/42/42 8/8/8 43/43/43
f 4/4/4 8/8/8 42/42/42
f 8/8/8 3/3/3 6/6/6
f 4/4/4 3/3/3 8/8/8
f 6/6/6 13/13/13 26/26/26
f 3/3/3 13/13/13 6/6/6
f 26/26/26 30/30/30 19/19/19
f 13/13/13 30/30/30 26/26/26
f 19/19/19 28/28/28 20/20/20
f 30/30/30 28/28/28 19/19/19
f 34/34/34 20/20/20 28/28/28
f 44/44/44 20/20/20 34/34/34
f 23/23/23 5/5/5 27/27/27
f 10/10/10 5/5/5 23/23/23
f 27/27/27 16/16/16 23/23/23
f 15/15/15 16/16/16 27/27/27
f 44/44/44 17/17/17 20/20/20
f 32/32/32 17/17/17 44/44/44
f 8/8/8 38/38/38 43/43/43
f 7/7/7 38/38/38 8/8/8
f 46/46/46 2/2/2 45/45/45
f 1/1/1 2/2/2 46/46/46
f 49/49/49 48/48/48 47/47/47
f 50/50/50 48/48/48 49/49/49
f 53/53/53 52/52/52 51/51/51
f 52/52/52 50/50/50 49/49/49
f 53/53/53 50/50/50 52/52/52
f 46/46/46 14/14/14 1/1/1
f 54/54/54 14/14/14 46/46/46
f 57/57/57 56/56/56 55/55/55
f 58/58/58 56/56/56 57/57/57
f 59/59/59 58/58/58 57/57/57
f 60/60/60 58/58/58 59/59/59
f 63/63/63 62/62/62 61/61/61
f 53/53/53 62/62/62 63/63/63
f 55/55/55 65/65/65 64/64/64
f 56/56/56 65/65/65 55/55/55
f 66/66/66 48/48/48 50/50/50
f 67/67/67 48/48/48 66/66/66
f 68/68/68 29/29/29 31/31/31
f 69/69/69 29/29/29 68/68/68
f 57/57/57 71/71/71 70/70/70
f 29/29/29 72/72/72 35/35/35
f 69/69/69 72/72/72 29/29/29
f 74/74/74 55/55/55 73/73/73
f 54/54/54 31/31/31 14/14/14
f 68/68/68 31/31/31 54/54/54
f 58/58/58 67/67/67 66/66/66
f 60/60/60 67/67/67 58/58/58
f 56/56/56 75/75/75 65/65/65
f 63/63/63 75/75/75 56/56/56
f 52/52/52 49/49/49 76/76/76
f 45/45/45 41/41/41 77/77/77
f 2/2/2 41/41/41 45/45/45
f 71/71/71 57/57/57 78/78/78
f 77/77/77 47/47/47 45/45/45
f 79/79/79 47/47/47 77/77/77
f 47/47/47 46/46/46 45/45/45
f 48/48/48 46/46/46 47/47/47
f 48/48/48 54/54/54 46/46/46
f 67/67/67 54/54/54 48/48/48
f 67/67/67 68/68/68 54/54/54
f 60/60/60 68/68/68 67/67/67
f 60/60/60 69/69/69 68/68/68
f 59/59/59 69/69/69 60/60/60
f 59/59/59 72/72/72 69/69/69
f 80/80/80 72/72/72 59/59/59
f 63/63/63 50/50/50 53/53/53
f 66/66/66 50/50/50 63/63/63
f 66/66/66 56/56/56 58/58/58
f 63/63/63 56/56/56 66/66/66
f 57/57/57 80/80/80 59/59/59
f 70/70/70 80/80/80 57/57/57
f 49/49/49 79/79/79 81/81/81
f 47/47/47 79/79/79 49/49/49
f 83/83/83 17/17/17 82/82/82
f 17/17/17 33/33/33 82/82/82
f 57/57/57 85/85/85 84/84/84
f 55/55/55 85/85/85 57/57/57
f 86/86/86 17/17/17 83/83/83
f 78/78/78 57/57/57 87/87/87
f 37/37/37 17/17/17 86/86/86
f 18/18/18 17/17/17 37/37/37
f 87/87/87 57/57/57 84/84/84
f 89/89/89 18/18/18 88/88/88
f 88/88/88 18/18/18 36/36/36
f 85/85/85 55/55/55 74/74/74
f 91/91/91 55/55/55 90/90/90
f 25/25/25 18/18/18 92/92/92
f 92/92/92 18/18/18 89/89/89
f 73/73/73 55/55/55 91/91/91
f 55/55/55 64/64/64 90/90/90
f 12/12/12 40/40/40 7/7/7
f 76/76/76 81/81/81 93/93/93
f 49/49/49 81/81/81 76/76/76
f 12/12/12 10/10/10 11/11/11
f 10/10/10 94/94/94 9/9/9
f 62/62/62 53/53/53 95/95/95
f 95/95/95 53/53/53 51/51/51
f 94/94/94 23/23/23 21/21/21
f 10/10/10 23/23/23 94/94/94
f 75/75/75 63/63/63 61/61/61
