# Exported from Godot Engine
mtllib Charger_Light.mtl
o Charger_Light
v 0.000583 1.209443 -0.247491
vt 0.603027 0.265137
vn 0.079087 0.000016 0.996868
v 0.001144 1.209343 -0.247499
vt 0.603516 0.265137
vn 0.071214 0.000016 0.997461
v 0.001869 1.208686 -0.247549
vt 0.604492 0.265625
vn 0.079087 0.000016 0.996868
v 0.001697 1.209062 -0.247520
vt 0.604004 0.265625
vn 0.071214 0.000016 0.997461
v 0.000000 1.195822 -0.248656
vt 0.627441 0.264648
vn 0.094780 0.000017 0.995498
v 0.000000 1.209471 -0.247489
vt 0.603027 0.264648
vn 0.079087 0.000016 0.996868
v 0.001115 1.117095 -0.260698
vt 0.768555 0.265137
vn 0.190019 0.000018 0.981780
v 0.001844 1.117599 -0.260601
vt 0.767578 0.265625
vn 0.182361 0.000018 0.983232
v 0.001543 1.117260 -0.260667
vt 0.768555 0.265625
vn -0.198425 0.003951 0.980108
v 0.001874 1.137786 -0.256790
vt 0.731445 0.265625
vn 0.173320 0.000018 0.984866
v 0.000000 1.137860 -0.256777
vt 0.731445 0.264648
vn 0.173320 0.000018 0.984866
v 0.000434 1.116988 -0.260718
vt 0.769043 0.264648
vn 0.182361 0.000018 0.983232
v 0.001874 1.157439 -0.253523
vt 0.696289 0.265625
vn 0.150238 0.000017 0.988650
v 0.000000 1.157376 -0.253543
vt 0.696289 0.264648
vn 0.150238 0.000017 0.988650
v 0.000000 1.176914 -0.250788
vt 0.661621 0.264648
vn 0.118200 0.000017 0.992990
v 0.001874 1.176793 -0.250797
vt 0.661621 0.265625
vn 0.126936 0.000017 0.991911
v 0.001872 1.195822 -0.248658
vt 0.627441 0.265625
vn 0.094780 0.000017 0.995498
v 0.000000 1.116970 -0.260718
vt 0.769043 0.264648
vn 0.182361 0.000018 0.983232
v -0.001869 1.208686 -0.247549
vt 0.604492 0.263184
vn 0.079087 0.000016 0.996868
v -0.001144 1.209343 -0.247499
vt 0.603516 0.263672
vn 0.071214 0.000016 0.997461
v -0.000583 1.209443 -0.247491
vt 0.603027 0.264160
vn 0.079087 0.000016 0.996868
v -0.001696 1.209062 -0.247520
vt 0.604004 0.263184
vn 0.071214 0.000016 0.997461
v -0.001544 1.117260 -0.260667
vt 0.768555 0.263672
vn -0.198425 0.003951 0.980108
v -0.001844 1.117599 -0.260601
vt 0.767578 0.263184
vn 0.182361 0.000018 0.983232
v -0.001115 1.117095 -0.260698
vt 0.768555 0.263672
vn 0.190019 0.000018 0.981780
v -0.000434 1.116988 -0.260718
vt 0.769043 0.264160
vn 0.182361 0.000018 0.983232
v -0.001873 1.137786 -0.256790
vt 0.731445 0.263184
vn 0.173320 0.000018 0.984866
v -0.001874 1.157439 -0.253523
vt 0.696289 0.263184
vn 0.150238 0.000017 0.988650
v -0.001874 1.176793 -0.250797
vt 0.661621 0.263184
vn 0.126936 0.000017 0.991911
v -0.001872 1.195822 -0.248658
vt 0.627441 0.263184
vn 0.094780 0.000017 0.995498
usemtl Home_Charger_Light.001
f 3/3/3 2/2/2 1/1/1
f 4/4/4 2/2/2 3/3/3
f 6/6/6 5/5/5 1/1/1
f 9/9/9 8/8/8 7/7/7
f 11/11/11 8/8/8 10/10/10
f 12/12/12 8/8/8 11/11/11
f 13/13/13 11/11/11 10/10/10
f 14/14/14 11/11/11 13/13/13
f 14/14/14 16/16/16 15/15/15
f 13/13/13 16/16/16 14/14/14
f 15/15/15 17/17/17 5/5/5
f 16/16/16 17/17/17 15/15/15
f 7/7/7 8/8/8 12/12/12
f 17/17/17 1/1/1 5/5/5
f 3/3/3 1/1/1 17/17/17
f 12/12/12 11/11/11 18/18/18
f 21/21/21 20/20/20 19/19/19
f 19/19/19 20/20/20 22/22/22
f 21/21/21 5/5/5 6/6/6
f 25/25/25 24/24/24 23/23/23
f 11/11/11 24/24/24 26/26/26
f 27/27/27 24/24/24 11/11/11
f 28/28/28 11/11/11 14/14/14
f 27/27/27 11/11/11 28/28/28
f 14/14/14 29/29/29 28/28/28
f 15/15/15 29/29/29 14/14/14
f 15/15/15 30/30/30 29/29/29
f 5/5/5 30/30/30 15/15/15
f 26/26/26 24/24/24 25/25/25
f 30/30/30 21/21/21 19/19/19
f 5/5/5 21/21/21 30/30/30
f 18/18/18 11/11/11 26/26/26
