# Exported from Godot Engine
mtllib Charger_Base.mtl
o Charger_Base
v 0.013516 1.337459 -0.255319
vt 0.237305 0.575928
vn -0.000016 0.080603 0.996746
v 0.014890 1.339074 -0.255630
vt 0.230225 0.582031
vn -0.000016 0.080603 0.996746
v 0.014890 1.338851 -0.255590
vt 0.231201 0.582031
vn -0.000016 0.077258 0.997011
v 0.014890 1.339660 -0.255735
vt 0.227661 0.582031
vn -0.000016 0.080603 0.996746
v 0.019836 1.337459 -0.255491
vt 0.237305 0.603760
vn -0.000016 0.077258 0.997011
v 0.014892 1.341472 -0.256059
vt 0.219604 0.582031
vn -0.000016 0.081204 0.996698
v 0.013525 1.344529 -0.256578
vt 0.206177 0.575928
vn -0.000016 0.080603 0.996746
v 0.021040 1.338851 -0.255770
vt 0.231201 0.609131
vn -0.000016 0.077258 0.997011
v 0.020295 1.337717 -0.255550
vt 0.236206 0.605957
vn -0.000016 0.077258 0.997011
v 0.020643 1.338043 -0.255617
vt 0.234741 0.607422
vn -0.000016 0.077258 0.997011
v 0.020888 1.338425 -0.255691
vt 0.233154 0.608398
vn -0.000016 0.077258 0.997011
v 0.013732 1.344530 -0.256583
vt 0.206177 0.576904
vn -0.000016 0.081204 0.996698
v 0.014205 1.344531 -0.256593
vt 0.206177 0.579102
vn -0.000016 0.081204 0.996698
v 0.014893 1.343383 -0.256402
vt 0.211182 0.582031
vn -0.000016 0.080603 0.996746
v 0.014894 1.344092 -0.256529
vt 0.208130 0.582031
vn -0.000016 0.081204 0.996698
v 0.014679 1.344532 -0.256604
vt 0.206177 0.581055
vn -0.000016 0.081204 0.996698
v 0.014891 1.344529 -0.256609
vt 0.206177 0.582031
vn -0.000016 0.081204 0.996698
v 0.037909 1.341729 -0.257125
vt 0.219238 0.692139
vn -0.000016 0.077258 0.997011
v 0.037909 1.337462 -0.256388
vt 0.238037 0.692139
vn -0.000016 0.077258 0.997011
v 0.036540 1.340307 -0.256784
vt 0.225464 0.686035
vn -0.000016 0.077258 0.997011
v 0.036540 1.337462 -0.256297
vt 0.238037 0.686035
vn -0.000016 0.077258 0.997011
v 0.037909 1.341729 -0.257125
vt 0.219238 0.692139
vn -0.000016 0.081204 0.996698
v 0.036540 1.340307 -0.256784
vt 0.225464 0.686035
vn -0.000016 0.081204 0.996698
v 0.030178 1.341737 -0.256667
vt 0.219116 0.657959
vn -0.000016 0.081204 0.996698
v 0.031550 1.340307 -0.256487
vt 0.225464 0.664062
vn -0.000016 0.077258 0.997011
v 0.030178 1.337462 -0.255925
vt 0.238037 0.657959
vn -0.000016 0.077258 0.997011
v 0.031550 1.337462 -0.255998
vt 0.238037 0.664062
vn -0.000016 0.077258 0.997011
v -0.001946 1.341742 -0.255929
vt 0.218506 0.499023
vn -0.000016 0.081204 0.996698
v -0.003311 1.340353 -0.255686
vt 0.224609 0.493164
vn -0.000016 0.080603 0.996746
v -0.003306 1.344525 -0.256443
vt 0.206177 0.493164
vn -0.000016 0.081204 0.996698
v 0.003019 1.340353 -0.255685
vt 0.224609 0.520996
vn -0.000016 0.077258 0.997011
v -0.001946 1.343140 -0.256182
vt 0.212280 0.499023
vn -0.000016 0.084535 0.996421
v 0.004380 1.341742 -0.255941
vt 0.218506 0.527100
vn -0.000016 0.077258 0.997011
v 0.003012 1.338887 -0.255428
vt 0.231079 0.520996
vn -0.000016 0.077258 0.997011
v 0.004380 1.337462 -0.255189
vt 0.237305 0.527100
vn -0.000016 0.077258 0.997011
v 0.002806 1.338886 -0.255427
vt 0.231079 0.520020
vn -0.000016 0.077258 0.997011
v 0.002243 1.338886 -0.255427
vt 0.231079 0.517578
vn -0.000016 0.077258 0.997011
v 0.000537 1.338885 -0.255425
vt 0.231079 0.510010
vn -0.000016 0.077258 0.997011
v -0.003311 1.337462 -0.255183
vt 0.237305 0.493164
vn -0.000016 0.077258 0.997011
v -0.001170 1.338883 -0.255423
vt 0.231079 0.502441
vn -0.000016 0.077258 0.997011
v -0.001732 1.338883 -0.255423
vt 0.231079 0.500000
vn -0.000016 0.077258 0.997011
v -0.002504 1.338666 -0.255387
vt 0.232056 0.496582
vn -0.000016 0.073861 0.997268
v -0.002998 1.338346 -0.255334
vt 0.233398 0.494629
vn -0.000016 0.077258 0.997011
v -0.003407 1.337938 -0.255265
vt 0.235229 0.492676
vn -0.000016 0.077258 0.997011
v -0.003713 1.337454 -0.255184
vt 0.237427 0.491211
vn -0.000016 0.077258 0.997011
v -0.001938 1.338883 -0.255423
vt 0.231079 0.499512
vn 0.007381 0.077823 0.996940
v -0.003155 1.344526 -0.256442
vt 0.206177 0.494141
vn -0.000016 0.084535 0.996421
v -0.002516 1.344527 -0.256441
vt 0.206177 0.496582
vn -0.000016 0.084535 0.996421
v -0.001511 1.344528 -0.256441
vt 0.206177 0.500977
vn -0.000016 0.084535 0.996421
v 0.001040 1.344532 -0.256445
vt 0.206177 0.512207
vn -0.000016 0.084535 0.996421
v 0.002923 1.343140 -0.256186
vt 0.212280 0.520508
vn -0.000016 0.084535 0.996421
v 0.003388 1.344535 -0.256449
vt 0.206055 0.522705
vn -0.000016 0.084535 0.996421
v 0.003445 1.343361 -0.256229
vt 0.211304 0.522949
vn -0.000016 0.084535 0.996421
v 0.003892 1.343686 -0.256291
vt 0.209839 0.524902
vn -0.000016 0.084535 0.996421
v 0.004139 1.344536 -0.256451
vt 0.206055 0.525879
vn -0.000016 0.084535 0.996421
v 0.004228 1.344087 -0.256367
vt 0.208130 0.526367
vn -0.000016 0.084535 0.996421
v 0.004423 1.344537 -0.256451
vt 0.206055 0.527100
vn -0.000016 0.084535 0.996421
v 0.029967 1.344537 -0.257164
vt 0.204712 0.656982
vn -0.000016 0.084535 0.996421
v 0.038099 1.344537 -0.257646
vt 0.204712 0.692871
vn -0.000016 0.084535 0.996421
v 0.037914 1.344072 -0.257548
vt 0.206665 0.692139
vn -0.000016 0.084535 0.996421
v 0.037601 1.343648 -0.257449
vt 0.208618 0.690674
vn -0.000016 0.084535 0.996421
v 0.031397 1.343120 -0.256979
vt 0.210938 0.663330
vn -0.000016 0.084535 0.996421
v 0.030467 1.343648 -0.257027
vt 0.208618 0.659180
vn -0.000016 0.084535 0.996421
v 0.030152 1.344072 -0.257088
vt 0.206665 0.657959
vn -0.000016 0.084535 0.996421
v 0.037179 1.343315 -0.257361
vt 0.210083 0.688965
vn -0.000016 0.084535 0.996421
v 0.031397 1.343120 -0.256979
vt 0.210938 0.663330
vn -0.000017 0.087884 0.996131
v 0.037179 1.343315 -0.257361
vt 0.210083 0.688965
vn -0.000017 0.087884 0.996131
v 0.036668 1.343120 -0.257292
vt 0.210938 0.686768
vn -0.000017 0.087884 0.996131
v 0.030889 1.343315 -0.256988
vt 0.210083 0.661133
vn -0.000016 0.081204 0.996698
v 0.030467 1.343648 -0.257027
vt 0.208618 0.659180
vn -0.000016 0.081204 0.996698
v 0.031397 1.343120 -0.256979
vt 0.210938 0.663330
vn -0.000016 0.081204 0.996698
v -0.019723 1.340859 -0.256078
vt 0.222290 0.412598
vn -0.000016 0.080603 0.996746
v -0.020037 1.341283 -0.256163
vt 0.220459 0.411133
vn -0.000016 0.081204 0.996698
v -0.020223 1.341747 -0.256252
vt 0.218384 0.410156
vn -0.000016 0.080603 0.996746
v -0.018792 1.340330 -0.255955
vt 0.224609 0.416504
vn -0.000016 0.081204 0.996698
v -0.019301 1.340525 -0.256005
vt 0.223755 0.414062
vn -0.000016 0.080603 0.996746
v -0.012276 1.341283 -0.255962
vt 0.220459 0.445312
vn -0.000016 0.081204 0.996698
v -0.012091 1.341747 -0.256042
vt 0.218384 0.446289
vn -0.000016 0.081204 0.996698
v -0.012589 1.340859 -0.255893
vt 0.222290 0.443848
vn -0.000016 0.081204 0.996698
v -0.013521 1.340330 -0.255818
vt 0.224609 0.439941
vn -0.000016 0.081204 0.996698
v -0.013010 1.340525 -0.255842
vt 0.223755 0.441895
vn -0.000016 0.080603 0.996746
v -0.037913 1.344067 -0.257547
vt 0.208130 0.323242
vn -0.000016 0.084535 0.996421
v -0.038099 1.344538 -0.257646
vt 0.206055 0.322266
vn -0.000016 0.084535 0.996421
v -0.037602 1.343649 -0.257450
vt 0.209961 0.324707
vn -0.000016 0.084535 0.996421
v -0.036672 1.343117 -0.257292
vt 0.212402 0.328613
vn -0.000016 0.084535 0.996421
v -0.034454 1.343117 -0.257153
vt 0.212402 0.338379
vn -0.000016 0.084535 0.996421
v -0.029187 1.344538 -0.257125
vt 0.206055 0.361816
vn -0.000016 0.084535 0.996421
v -0.037182 1.343318 -0.257362
vt 0.211426 0.326660
vn -0.000016 0.084535 0.996421
v -0.032830 1.343117 -0.257058
vt 0.212402 0.345703
vn -0.000016 0.084535 0.996421
v -0.030609 1.343117 -0.256937
vt 0.212402 0.355469
vn -0.000016 0.084535 0.996421
v -0.030096 1.343331 -0.256950
vt 0.211426 0.357910
vn -0.000016 0.084535 0.996421
v -0.029678 1.343661 -0.256989
vt 0.209961 0.359375
vn -0.000016 0.084535 0.996421
v -0.029371 1.344072 -0.257049
vt 0.208130 0.360840
vn -0.000016 0.084535 0.996421
v -0.032955 1.343073 -0.257057
vt 0.212524 0.345215
vn -0.000016 0.080603 0.996746
v -0.034340 1.343073 -0.257138
vt 0.212524 0.338867
vn 0.007323 0.084540 0.996393
v -0.034340 1.337476 -0.256161
vt 0.237305 0.338867
vn -0.000016 0.077258 0.997011
v -0.032955 1.337476 -0.256079
vt 0.237305 0.345215
vn -0.000016 0.077258 0.997011
v -0.019723 1.343654 -0.256581
vt 0.208496 0.412598
vn -0.000016 0.084535 0.996421
v -0.020038 1.344077 -0.256669
vt 0.206665 0.411133
vn -0.000016 0.084535 0.996421
v -0.020223 1.344542 -0.256761
vt 0.204590 0.410156
vn -0.000016 0.084535 0.996421
v -0.018792 1.343125 -0.256456
vt 0.210938 0.416504
vn -0.000016 0.084535 0.996421
v -0.019301 1.343320 -0.256507
vt 0.210083 0.414062
vn -0.000016 0.084535 0.996421
v -0.012276 1.344077 -0.256469
vt 0.206665 0.445312
vn -0.000016 0.084535 0.996421
v -0.012091 1.344542 -0.256551
vt 0.204590 0.446289
vn -0.000016 0.084535 0.996421
v -0.012589 1.343654 -0.256397
vt 0.208496 0.443848
vn -0.000016 0.084535 0.996421
v -0.013521 1.343125 -0.256320
vt 0.210938 0.439941
vn -0.000016 0.084535 0.996421
v -0.013010 1.343320 -0.256345
vt 0.210083 0.441895
vn -0.000016 0.084535 0.996421
v -0.019723 1.337989 -0.255578
vt 0.236450 0.412598
vn -0.000016 0.077258 0.997011
v -0.020038 1.338413 -0.255660
vt 0.234619 0.411133
vn -0.000016 0.077258 0.997011
v -0.020223 1.338878 -0.255747
vt 0.232544 0.410156
vn -0.000016 0.077258 0.997011
v -0.018792 1.337460 -0.255458
vt 0.238770 0.416504
vn -0.000016 0.077258 0.997011
v -0.019301 1.337655 -0.255507
vt 0.237915 0.414062
vn -0.000016 0.077258 0.997011
v -0.012276 1.338413 -0.255458
vt 0.234619 0.445312
vn -0.000016 0.080603 0.996746
v -0.012091 1.338878 -0.255535
vt 0.232544 0.446289
vn -0.000016 0.080603 0.996746
v -0.012589 1.337989 -0.255391
vt 0.236450 0.443848
vn -0.000016 0.080603 0.996746
v -0.013521 1.337460 -0.255320
vt 0.238770 0.439941
vn -0.000016 0.080603 0.996746
v -0.013010 1.337655 -0.255342
vt 0.237915 0.441895
vn -0.000016 0.077258 0.997011
v -0.024488 1.318871 -0.252669
vt 0.610352 0.753418
vn 0.748205 0.078188 -0.658844
v -0.023041 1.369460 -0.261777
vt 0.611328 0.848999
vn 0.743579 0.067115 -0.665271
v 0.000000 1.318805 -0.252114
vt 0.651855 0.753662
vn 0.707118 0.000000 -0.707096
v 0.000000 1.369111 -0.261268
vt 0.651855 0.848633
vn 0.707118 0.000000 -0.707096
v -0.020937 1.407701 -0.272082
vt 0.614746 0.925354
vn 0.743579 0.067115 -0.665271
v 0.000000 1.407249 -0.271511
vt 0.651855 0.924744
vn 0.707118 0.000000 -0.707096
v -0.024607 1.208836 -0.250795
vt 0.610840 0.555176
vn 0.790467 0.218073 -0.572369
v -0.024785 1.269373 -0.248797
vt 0.611328 0.664795
vn 0.781128 0.154035 -0.605071
v 0.000000 1.208877 -0.248105
vt 0.651855 0.554688
vn 0.707118 0.000000 -0.707096
v 0.000000 1.269297 -0.247859
vt 0.651855 0.665771
vn 0.707118 0.000000 -0.707096
v -0.023259 1.156483 -0.257723
vt 0.611816 0.461426
vn 0.832938 0.383686 -0.398747
v 0.000000 1.156442 -0.253909
vt 0.651855 0.462402
vn 0.707118 0.000000 -0.707096
v -0.045556 1.156945 -0.266251
vt 0.571289 0.459961
vn 0.813427 0.548205 -0.194441
v -0.048558 1.208762 -0.256376
vt 0.570312 0.555176
vn 0.819900 0.407389 -0.402242
v -0.049630 1.269401 -0.251635
vt 0.570312 0.664307
vn 0.811265 0.296969 -0.503646
v -0.048757 1.318968 -0.254409
vt 0.568848 0.752686
vn 0.804092 0.237446 -0.545027
v -0.045813 1.369734 -0.263278
vt 0.570801 0.848877
vn 0.784902 0.197615 -0.587263
v -0.041953 1.408126 -0.273683
vt 0.577637 0.925537
vn 0.783150 0.208134 -0.585966
v -0.019244 1.102283 -0.268547
vt 0.617676 0.361816
vn 0.849958 0.501507 -0.161436
v 0.000000 1.103141 -0.264120
vt 0.651855 0.366699
vn 0.707118 0.000000 -0.707096
v -0.040280 1.101798 -0.281726
vt 0.576660 0.349121
vn 0.797827 0.602135 -0.030092
v 0.000000 1.408424 -0.285631
vt 0.401855 0.142578
vn -0.000016 0.999406 0.034471
v -0.015676 1.407997 -0.285804
vt 0.401123 0.114746
vn -0.000016 0.999406 0.034471
v 0.000000 1.393137 -0.287090
vt 0.374512 0.142578
vn -0.000016 0.998195 0.060055
v -0.015958 1.391638 -0.287331
vt 0.371826 0.114258
vn -0.000016 0.998195 0.060055
v 0.000000 1.377776 -0.289574
vt 0.346680 0.142578
vn -0.000017 0.994144 0.108061
v -0.017034 1.375326 -0.290163
vt 0.342285 0.112305
vn -0.007156 0.994200 0.107305
v 0.000000 1.362912 -0.294448
vt 0.318359 0.142578
vn -0.000018 0.980850 0.194764
v -0.016984 1.360278 -0.295471
vt 0.313721 0.111816
vn -0.006960 0.980295 0.197418
v 0.000000 1.338457 -0.320616
vt 0.252686 0.142578
vn -0.000021 0.881000 0.473116
v -0.017805 1.337162 -0.321533
vt 0.249878 0.109863
vn 0.008165 0.881729 0.471686
v 0.000000 1.334220 -0.337149
vt 0.222168 0.142578
vn -0.000021 0.797100 0.603848
v -0.017302 1.332999 -0.338529
vt 0.218750 0.111816
vn 0.038453 0.812463 0.581743
v 0.000000 1.332918 -0.356146
vt 0.188721 0.142578
vn -0.000022 0.747985 0.663715
v -0.017266 1.331890 -0.356146
vt 0.187378 0.113281
vn 0.082832 0.787167 0.611152
v 0.000000 1.348545 -0.304419
vt 0.286865 0.142578
vn -0.000019 0.943574 0.331162
v -0.017215 1.346930 -0.305219
vt 0.283936 0.110840
vn -0.000020 0.941244 0.337727
v -0.031107 1.407314 -0.286280
vt 0.400391 0.087891
vn -0.007685 0.999611 0.026809
v -0.032143 1.389885 -0.287784
vt 0.369385 0.085938
vn -0.007477 0.998610 0.052174
v -0.033500 1.372618 -0.290700
vt 0.338379 0.083008
vn -0.014338 0.994864 0.100199
v -0.033978 1.357228 -0.296081
vt 0.309326 0.081543
vn -0.020621 0.982425 0.185516
v -0.034631 1.344384 -0.305253
vt 0.281006 0.079102
vn -0.007171 0.944281 0.329063
v -0.035045 1.334244 -0.321598
vt 0.246826 0.078613
vn 0.016130 0.887745 0.460054
v -0.034052 1.329959 -0.339307
vt 0.214355 0.082031
vn 0.075656 0.832524 0.548798
v -0.033231 1.329031 -0.356146
vt 0.184570 0.085938
vn 0.122101 0.808975 0.575022
v -0.046555 1.406627 -0.287136
vt 0.399658 0.060547
vn -0.007721 0.999704 0.023068
v -0.048354 1.388130 -0.288511
vt 0.366943 0.057129
vn -0.007485 0.998789 0.048628
v -0.049982 1.369869 -0.291190
vt 0.334717 0.053711
vn -0.021574 0.995717 0.089896
v -0.050913 1.353873 -0.296131
vt 0.305420 0.050781
vn -0.034224 0.984687 0.170938
v -0.051762 1.340771 -0.304222
vt 0.278564 0.047852
vn -0.021282 0.949876 0.311901
v -0.051688 1.329265 -0.320715
vt 0.243286 0.047363
vn 0.015970 0.894301 0.447181
v -0.050130 1.324708 -0.339722
vt 0.209106 0.052734
vn 0.082995 0.843755 0.530273
v -0.049577 1.323757 -0.356146
vt 0.180298 0.057129
vn 0.138252 0.824787 0.548282
v -0.054350 1.406188 -0.287808
vt 0.399170 0.046875
vn -0.007725 0.999784 0.019319
v -0.056648 1.387179 -0.289047
vt 0.365723 0.042480
vn -0.007572 0.999254 0.037860
v -0.058521 1.368446 -0.291451
vt 0.332764 0.038574
vn -0.021692 0.996603 0.079448
v -0.059784 1.352100 -0.295815
vt 0.303955 0.035156
vn -0.041343 0.988118 0.148034
v -0.060866 1.338584 -0.303053
vt 0.277832 0.031250
vn -0.027851 0.956965 0.288864
v -0.060295 1.325612 -0.319570
vt 0.241821 0.030762
vn -0.000020 0.899074 0.437797
v -0.058446 1.320799 -0.339583
vt 0.206421 0.036621
vn 0.072093 0.852021 0.518521
v -0.057466 1.320006 -0.356146
vt 0.177734 0.041992
vn 0.116262 0.828591 0.547649
v -0.019823 1.422999 -0.281147
vt 0.615234 0.962524
vn 0.756728 0.154668 -0.635169
v 0.000000 1.423320 -0.280990
vt 0.651855 0.963837
vn 0.707118 0.000000 -0.707096
v -0.020072 1.421543 -0.277892
vt 0.615234 0.955261
vn 0.752732 0.089241 -0.652251
v 0.000000 1.421911 -0.277714
vt 0.651855 0.956573
vn 0.707118 0.000000 -0.707096
v -0.040032 1.421638 -0.282250
vt 0.578125 0.958282
vn 0.780096 0.410574 -0.472102
v -0.040424 1.420196 -0.278989
vt 0.578613 0.951141
vn 0.784902 0.197615 -0.587263
v -0.054874 1.418531 -0.283303
vt 0.551758 0.949036
vn 0.668996 0.721088 -0.180212
v -0.054207 1.417176 -0.280011
vt 0.554688 0.943512
vn 0.812655 0.337730 -0.474900
v -0.059766 1.414451 -0.282771
vt 0.543945 0.941101
vn 0.359823 0.922960 0.136647
v -0.058258 1.413703 -0.279581
vt 0.548340 0.937256
vn 0.784987 0.435558 -0.440551
v -0.062333 1.407008 -0.281258
vt 0.538086 0.927368
vn 0.255926 0.922208 0.289886
v -0.060261 1.407673 -0.278367
vt 0.544434 0.926514
vn 0.766404 0.504469 -0.397663
v -0.067912 1.368656 -0.270858
vt 0.527832 0.848267
vn 0.105359 0.869271 0.482978
v -0.065831 1.369248 -0.268018
vt 0.534180 0.848267
vn 0.802390 0.448550 -0.393667
v -0.072432 1.318524 -0.262101
vt 0.525391 0.751221
vn -0.061890 0.783398 0.618432
v -0.070351 1.318790 -0.259214
vt 0.531250 0.751465
vn 0.822418 0.431265 -0.370998
v -0.073712 1.269398 -0.260954
vt 0.526855 0.663330
vn -0.094566 0.709145 0.698692
v -0.071718 1.269441 -0.257992
vt 0.532715 0.663574
vn 0.818824 0.488437 -0.301591
v -0.071217 1.209580 -0.268707
vt 0.526855 0.554688
vn -0.085254 0.629866 0.772010
v -0.069427 1.209119 -0.265654
vt 0.532715 0.554688
vn 0.800606 0.569337 -0.186778
v -0.066445 1.158804 -0.281346
vt 0.527344 0.458984
vn -0.062353 0.569946 0.819313
v -0.064856 1.158144 -0.278222
vt 0.533203 0.458984
vn 0.768191 0.638172 -0.051176
v -0.057747 1.102524 -0.296433
vt 0.534180 0.344727
vn -0.043782 0.547049 0.835955
v -0.056224 1.102019 -0.293240
vt 0.541016 0.345215
vn 0.751148 0.660091 -0.007556
v -0.055807 1.097215 -0.297581
vt 0.535156 0.333008
vn 0.273144 0.558338 0.783359
v -0.054831 1.098238 -0.293945
vt 0.542480 0.336426
vn 0.734118 0.678275 -0.031844
v -0.050048 1.094128 -0.295078
vt 0.548828 0.322754
vn 0.677836 0.681777 0.275171
v -0.050074 1.095613 -0.291688
vt 0.553223 0.330566
vn 0.753494 0.656900 -0.027000
v -0.037261 1.091723 -0.286613
vt 0.583984 0.319336
vn 0.797046 0.599733 -0.070974
v -0.038965 1.093533 -0.284046
vt 0.581543 0.328613
vn 0.787551 0.616152 0.010988
v -0.016259 1.088235 -0.273860
vt 0.623535 0.337891
vn 0.822610 0.245750 -0.512756
v -0.017577 1.090108 -0.271100
vt 0.622070 0.342773
vn 0.848076 0.526686 -0.058047
v 0.000000 1.087319 -0.270087
vt 0.651855 0.342773
vn 0.707118 0.000000 -0.707096
v 0.000000 1.089195 -0.266998
vt 0.651855 0.347168
vn 0.707118 0.000000 -0.707096
v -0.063391 1.267458 -0.356146
vt 0.320557 0.640869
vn -0.134919 0.716030 0.684907
v -0.073712 1.269398 -0.260954
vt 0.506348 0.664307
vn -0.089815 0.668442 0.738321
v -0.061581 1.209897 -0.356146
vt 0.337891 0.519287
vn -0.117742 0.666987 0.735707
v -0.071217 1.209580 -0.268707
vt 0.506348 0.550537
vn -0.084615 0.620173 0.779889
v -0.058048 1.162860 -0.356146
vt 0.360840 0.420410
vn -0.102615 0.624786 0.774024
v -0.066445 1.158804 -0.281346
vt 0.506836 0.450195
vn -0.063362 0.583462 0.809665
v -0.053431 1.117034 -0.356146
vt 0.387451 0.326660
vn -0.081482 0.592888 0.801152
v -0.057747 1.102524 -0.296433
vt 0.515137 0.330078
vn -0.053869 0.574438 0.816773
v -0.050455 1.112031 -0.356146
vt 0.389404 0.314941
vn -0.062891 0.579209 0.812749
v -0.055807 1.097215 -0.297581
vt 0.516113 0.317871
vn -0.054752 0.588074 0.806951
v -0.050455 1.112031 -0.356146
vt 0.190552 0.835205
vn 0.891209 0.342751 0.297101
v -0.055807 1.097215 -0.297581
vt 0.178711 0.943329
vn 0.903280 0.357522 0.237198
v -0.045362 1.109407 -0.356146
vt 0.200439 0.836548
vn 0.795191 0.075251 -0.601672
v -0.050048 1.094128 -0.295078
vt 0.189453 0.949371
vn 0.890432 0.195721 -0.410882
v -0.037261 1.091723 -0.286613
vt 0.211426 0.965912
vn 0.779935 0.121687 -0.613916
v 0.000000 1.109052 -0.356146
vt 0.280518 0.837280
vn 0.707118 0.000000 -0.707096
v -0.016259 1.088235 -0.273860
vt 0.251709 0.982971
vn 0.801287 0.174468 -0.572277
v 0.000000 1.087319 -0.270087
vt 0.280518 0.987625
vn 0.707118 0.000000 -0.707096
v -0.019785 1.420122 -0.285141
vt 0.608398 0.989281
vn 0.721605 0.187312 -0.666483
v 0.000000 1.420361 -0.284966
vt 0.651855 0.990738
vn 0.707118 0.000000 -0.707096
v -0.019838 1.422440 -0.283239
vt 0.608887 0.982712
vn 0.744216 0.207956 -0.634741
v 0.000000 1.422705 -0.283102
vt 0.651855 0.984177
vn 0.707118 0.000000 -0.707096
v -0.039661 1.418970 -0.286046
vt 0.563477 0.984055
vn 0.664275 0.513279 -0.543400
v -0.039974 1.421245 -0.284099
vt 0.564941 0.977509
vn 0.710740 0.547477 -0.441722
v -0.053621 1.415986 -0.287356
vt 0.530273 0.973740
vn 0.374613 0.902138 -0.214036
v -0.054673 1.418144 -0.285455
vt 0.532715 0.967651
vn 0.501041 0.858953 -0.105625
v -0.057406 1.412740 -0.287710
vt 0.517578 0.964325
vn -0.188367 0.982007 -0.013421
v -0.059402 1.414142 -0.285798
vt 0.521973 0.959564
vn 0.068356 0.967663 0.242808
v -0.059786 1.405110 -0.288341
vt 0.503906 0.947205
vn -0.447598 0.864790 -0.227583
v -0.062002 1.405992 -0.286428
vt 0.509766 0.944763
vn -0.219466 0.949814 0.222907
v -0.062292 1.386230 -0.289332
vt 0.485107 0.908752
vn -0.517598 0.815554 -0.258775
v -0.064535 1.385746 -0.287347
vt 0.489746 0.904602
vn -0.058330 0.936377 0.346116
v -0.064152 1.367461 -0.291364
vt 0.465820 0.869263
vn -0.548409 0.811240 -0.202822
v -0.066325 1.366838 -0.289368
vt 0.470703 0.865112
vn -0.148447 0.898857 0.412334
v -0.065378 1.351020 -0.294938
vt 0.447998 0.832520
vn -0.563636 0.821054 -0.090465
v -0.067388 1.350111 -0.292890
vt 0.452881 0.828369
vn -0.094499 0.876254 0.472493
v -0.065982 1.336866 -0.301590
vt 0.428223 0.800049
vn -0.549930 0.832074 0.072322
v -0.067781 1.335259 -0.299728
vt 0.432617 0.795166
vn -0.144148 0.808006 0.571269
v -0.062869 1.317948 -0.338980
vt 0.348145 0.751221
vn -0.351526 0.806368 0.475605
v -0.065031 1.322841 -0.318598
vt 0.389404 0.766235
vn -0.488047 0.834026 0.257315
v -0.064346 1.315368 -0.338554
vt 0.350098 0.745361
vn -0.155165 0.723936 0.672191
v -0.066598 1.320439 -0.317528
vt 0.392334 0.760376
vn -0.152256 0.761044 0.630579
v -0.061154 1.317165 -0.356146
vt 0.313721 0.746582
vn -0.240832 0.769473 0.591532
v -0.062500 1.314491 -0.356146
vt 0.314697 0.740479
vn -0.145079 0.720025 0.678614
v 0.000000 1.420361 -0.284966
vt 0.422852 0.142090
vn -0.000016 0.996418 0.084570
v -0.019785 1.420122 -0.285141
vt 0.422852 0.107910
vn -0.007319 0.996445 0.083932
v -0.039661 1.418970 -0.286046
vt 0.421387 0.073242
vn -0.014510 0.996416 0.083337
v -0.053621 1.415986 -0.287356
vt 0.416504 0.048340
vn -0.007259 0.995867 0.090533
v -0.057406 1.412740 -0.287710
vt 0.410645 0.041504
vn -0.000016 0.996746 0.080603
v -0.059786 1.405110 -0.288341
vt 0.397217 0.037109
vn -0.000016 0.998969 0.045403
v -0.062292 1.386230 -0.289332
vt 0.364014 0.032227
vn -0.000016 0.998618 0.052564
v -0.064152 1.367461 -0.291364
vt 0.331543 0.028320
vn -0.021582 0.996337 0.082750
v -0.065378 1.351020 -0.294938
vt 0.303467 0.024902
vn -0.048082 0.988389 0.144137
v -0.065982 1.336866 -0.301590
vt 0.277832 0.020996
vn -0.034705 0.961065 0.274133
v -0.065031 1.322841 -0.318598
vt 0.240845 0.020996
vn -0.015446 0.909210 0.416052
v -0.062869 1.317948 -0.338980
vt 0.205566 0.027344
vn 0.026382 0.854034 0.519547
v -0.061154 1.317165 -0.356146
vt 0.176270 0.033691
vn 0.065313 0.835255 0.545970
v 0.000000 1.423320 -0.280990
vt 0.651855 0.979416
vn 0.707118 0.000000 -0.707096
v -0.019823 1.422999 -0.281147
vt 0.609375 0.978043
vn 0.756728 0.154668 -0.635169
v -0.040032 1.421638 -0.282250
vt 0.565918 0.973572
vn 0.780649 0.418420 -0.464232
v -0.054874 1.418531 -0.283303
vt 0.535156 0.963898
vn 0.669154 0.717519 -0.193388
v -0.059766 1.414451 -0.282771
vt 0.525879 0.955597
vn 0.358109 0.922304 0.145302
v -0.062333 1.407008 -0.281258
vt 0.519531 0.941162
vn 0.251215 0.927401 0.277161
v -0.067912 1.368656 -0.270858
vt 0.507324 0.858276
vn 0.101738 0.846427 0.522696
v -0.072432 1.318524 -0.262101
vt 0.504395 0.756592
vn -0.077072 0.731972 0.676962
v 0.023041 1.369460 -0.261777
vt 0.692383 0.848999
vn 0.679643 0.010820 -0.733463
v 0.024488 1.318871 -0.252669
vt 0.693359 0.753418
vn 0.674269 0.010730 -0.738408
v 0.020937 1.407701 -0.272083
vt 0.688965 0.925354
vn 0.679643 0.010820 -0.733463
v 0.024785 1.269373 -0.248797
vt 0.692871 0.664795
vn 0.643106 0.020454 -0.765504
v 0.024607 1.208836 -0.250796
vt 0.692871 0.555176
vn 0.603861 0.000000 -0.797089
v 0.023259 1.156483 -0.257723
vt 0.691895 0.461426
vn 0.543840 0.044576 -0.838004
v 0.048557 1.208762 -0.256376
vt 0.733398 0.555176
vn 0.518295 0.008647 -0.855158
v 0.045556 1.156945 -0.266251
vt 0.732422 0.459961
vn 0.455919 0.064008 -0.887717
v 0.049630 1.269401 -0.251635
vt 0.733887 0.664307
vn 0.571604 0.009237 -0.820478
v 0.048757 1.318968 -0.254409
vt 0.734863 0.752686
vn 0.603760 0.019328 -0.796932
v 0.045813 1.369734 -0.263278
vt 0.732910 0.848877
vn 0.613287 0.000000 -0.789860
v 0.041953 1.408126 -0.273683
vt 0.726562 0.925537
vn 0.798223 0.009813 -0.602283
v 0.019244 1.102283 -0.268547
vt 0.686035 0.361816
vn 0.515270 0.190510 -0.835585
v 0.040280 1.101798 -0.281726
vt 0.727051 0.349121
vn 0.431133 0.172480 -0.885649
v 0.015958 1.391638 -0.287331
vt 0.371826 0.170410
vn -0.000016 0.998195 0.060055
v 0.015676 1.407997 -0.285804
vt 0.401123 0.169922
vn -0.000016 0.999406 0.034471
v 0.016984 1.360278 -0.295471
vt 0.313721 0.172852
vn 0.006923 0.980288 0.197453
v 0.017034 1.375326 -0.290163
vt 0.342285 0.172363
vn 0.007122 0.994197 0.107339
v 0.017302 1.332999 -0.338529
vt 0.218750 0.172852
vn -0.038498 0.812483 0.581713
v 0.017804 1.337162 -0.321533
vt 0.249878 0.174805
vn -0.008207 0.881746 0.471654
v 0.017266 1.331890 -0.356146
vt 0.187378 0.171387
vn -0.072637 0.783319 0.617361
v 0.017215 1.346930 -0.305219
vt 0.283936 0.173828
vn -0.000020 0.941244 0.337727
v 0.032143 1.389885 -0.287784
vt 0.369385 0.198730
vn 0.007444 0.998609 0.052206
v 0.031107 1.407314 -0.286280
vt 0.400391 0.196777
vn 0.007653 0.999610 0.026841
v 0.033500 1.372618 -0.290700
vt 0.338379 0.201660
vn 0.014304 0.994861 0.100233
v 0.033978 1.357228 -0.296081
vt 0.309326 0.203613
vn 0.020585 0.982419 0.185551
v 0.034631 1.344384 -0.305254
vt 0.281250 0.205566
vn 0.007132 0.944269 0.329098
v 0.035044 1.334244 -0.321598
vt 0.246826 0.206055
vn -0.016171 0.887761 0.460021
v 0.034052 1.329959 -0.339307
vt 0.214355 0.202637
vn -0.075702 0.832542 0.548766
v 0.033231 1.329031 -0.356146
vt 0.184570 0.198730
vn -0.122150 0.808992 0.574988
v 0.048354 1.388130 -0.288511
vt 0.366943 0.227539
vn 0.007453 0.998788 0.048661
v 0.046555 1.406627 -0.287136
vt 0.399658 0.224121
vn 0.007689 0.999704 0.023099
v 0.049982 1.369869 -0.291190
vt 0.334717 0.230957
vn 0.021541 0.995715 0.089930
v 0.050913 1.353873 -0.296131
vt 0.305420 0.233887
vn 0.034188 0.984682 0.170974
v 0.051762 1.340771 -0.304222
vt 0.278564 0.236816
vn 0.021242 0.949866 0.311936
v 0.051688 1.329265 -0.320715
vt 0.243286 0.237305
vn -0.015970 0.894301 0.447181
v 0.050130 1.324708 -0.339722
vt 0.209106 0.232422
vn -0.083041 0.843772 0.530239
v 0.049577 1.323757 -0.356146
vt 0.180420 0.228027
vn -0.138301 0.824802 0.548246
v 0.056648 1.387179 -0.289047
vt 0.365723 0.242188
vn 0.007540 0.999253 0.037891
v 0.054350 1.406188 -0.287808
vt 0.399170 0.237793
vn 0.007693 0.999783 0.019350
v 0.058521 1.368446 -0.291451
vt 0.332764 0.246094
vn 0.021658 0.996601 0.079481
v 0.059784 1.352100 -0.295815
vt 0.303955 0.250000
vn 0.041307 0.988114 0.148069
v 0.060866 1.338584 -0.303053
vt 0.277832 0.253418
vn 0.034674 0.958000 0.284665
v 0.060294 1.325612 -0.319570
vt 0.241821 0.253906
vn -0.000020 0.899074 0.437797
v 0.058446 1.320799 -0.339583
vt 0.206421 0.248535
vn -0.072139 0.852037 0.518487
v 0.057466 1.320006 -0.356146
vt 0.177856 0.243164
vn -0.116310 0.828607 0.547615
v 0.020072 1.421543 -0.277892
vt 0.688477 0.955261
vn 0.668954 0.010638 -0.743227
v 0.019823 1.422999 -0.281147
vt 0.688477 0.962524
vn 0.788478 0.030755 -0.614294
v 0.040425 1.420196 -0.278989
vt 0.725098 0.951141
vn 0.613287 0.000000 -0.789860
v 0.040032 1.421638 -0.282250
vt 0.725586 0.958282
vn 0.889214 0.088051 -0.448938
v 0.054207 1.417176 -0.280011
vt 0.749023 0.943512
vn 0.548493 0.000000 -0.836155
v 0.054874 1.418531 -0.283303
vt 0.752441 0.949036
vn 0.967055 0.196146 -0.162268
v 0.058258 1.413703 -0.279581
vt 0.755859 0.937256
vn 0.892614 0.077651 -0.444084
v 0.059766 1.414451 -0.282770
vt 0.760254 0.941101
vn 0.955850 0.173205 0.237383
v 0.060261 1.407673 -0.278368
vt 0.759766 0.926514
vn 0.915573 0.107264 -0.387583
v 0.062332 1.407008 -0.281258
vt 0.766113 0.927368
vn 0.968756 0.113572 0.220485
v 0.065831 1.369248 -0.268018
vt 0.769531 0.848267
vn 0.881891 0.033621 -0.470253
v 0.067912 1.368656 -0.270858
vt 0.775879 0.848267
vn 0.980737 0.043882 0.190341
v 0.070351 1.318790 -0.259214
vt 0.772461 0.751465
vn 0.509454 0.008582 -0.860455
v 0.072432 1.318524 -0.262101
vt 0.778809 0.751221
vn -0.998340 0.022664 0.052948
v 0.071718 1.269441 -0.257992
vt 0.771484 0.663574
vn 0.481358 0.024720 -0.876176
v 0.073712 1.269398 -0.260954
vt 0.777344 0.663330
vn -0.034427 0.061148 -0.997535
v 0.069427 1.209119 -0.265654
vt 0.770996 0.554688
vn 0.435854 0.039299 -0.899159
v 0.071217 1.209580 -0.268707
vt 0.776855 0.554688
vn -0.034434 0.183490 -0.982418
v 0.064856 1.158144 -0.278222
vt 0.770508 0.458984
vn 0.388354 0.074711 -0.918477
v 0.066445 1.158804 -0.281345
vt 0.776855 0.458984
vn -0.027069 0.270494 -0.962341
v 0.056224 1.102019 -0.293240
vt 0.763184 0.345215
vn 0.367676 0.080904 -0.926428
v 0.057747 1.102524 -0.296433
vt 0.769531 0.344727
vn -0.019505 0.296223 -0.954920
v 0.054831 1.098238 -0.293945
vt 0.761230 0.336426
vn 0.346317 0.021680 -0.937867
v 0.055807 1.097215 -0.297581
vt 0.768555 0.333008
vn 0.123307 0.449636 -0.884660
v 0.050074 1.095613 -0.291688
vt 0.750977 0.330566
vn 0.369980 0.065953 -0.926696
v 0.050048 1.094128 -0.295078
vt 0.754883 0.322754
vn 0.304591 0.243664 -0.920789
v 0.038965 1.093533 -0.284046
vt 0.722656 0.328613
vn 0.417055 0.193095 -0.888133
v 0.037261 1.091723 -0.286613
vt 0.719727 0.319336
vn 0.428137 0.124553 -0.895089
v 0.017577 1.090108 -0.271100
vt 0.681641 0.342773
vn 0.510478 0.296720 -0.807075
v 0.016259 1.088235 -0.273860
vt 0.680176 0.337891
vn 0.616985 0.059255 -0.784741
v 0.071217 1.209580 -0.268707
vt 0.797363 0.550537
vn -0.034590 0.199690 -0.979248
v 0.073712 1.269398 -0.260954
vt 0.797852 0.664307
vn -0.034501 0.122543 -0.991863
v 0.061581 1.209897 -0.356146
vt 0.966309 0.519287
vn -0.045642 0.144443 -0.988460
v 0.063391 1.267458 -0.356146
vt 0.983398 0.640869
vn -0.049259 0.075736 -0.995910
v 0.066445 1.158804 -0.281345
vt 0.796875 0.450195
vn -0.027039 0.246955 -0.968650
v 0.058048 1.162860 -0.356146
vt 0.942871 0.420410
vn -0.041874 0.205444 -0.977773
v 0.057747 1.102524 -0.296433
vt 0.788574 0.330078
vn -0.023215 0.255175 -0.966616
v 0.053431 1.117034 -0.356146
vt 0.916504 0.326660
vn -0.034480 0.245057 -0.968895
v 0.055807 1.097215 -0.297581
vt 0.788086 0.317871
vn -0.023184 0.231541 -0.972549
v 0.050455 1.112031 -0.356146
vt 0.914551 0.314941
vn -0.026964 0.254173 -0.966783
v 0.050048 1.094128 -0.295078
vt 0.371582 0.949371
vn 0.718408 0.313279 -0.621085
v 0.055807 1.097215 -0.297581
vt 0.382324 0.943329
vn 0.479766 0.831579 -0.279823
v 0.045362 1.109407 -0.356146
vt 0.360352 0.836548
vn 0.723715 0.122473 -0.679144
v 0.050455 1.112031 -0.356146
vt 0.370361 0.835205
vn 0.452208 0.858042 -0.243458
v 0.037261 1.091723 -0.286613
vt 0.349609 0.965912
vn 0.668402 0.042449 -0.742588
v 0.016259 1.088235 -0.273860
vt 0.309082 0.982971
vn 0.647408 0.051390 -0.760409
v 0.019837 1.422440 -0.283239
vt 0.694824 0.982712
vn 0.831701 0.091289 -0.547668
v 0.019785 1.420122 -0.285141
vt 0.695801 0.989281
vn 0.836584 0.125497 -0.533270
v 0.039974 1.421245 -0.284100
vt 0.738770 0.977509
vn 0.940042 0.233014 -0.249050
v 0.039661 1.418970 -0.286046
vt 0.740234 0.984055
vn 0.928788 0.326349 -0.175641
v 0.054673 1.418144 -0.285455
vt 0.770996 0.967651
vn 0.946096 0.286381 0.151288
v 0.053620 1.415986 -0.287356
vt 0.773926 0.973740
vn 0.813591 0.319582 0.485734
v 0.059402 1.414142 -0.285798
vt 0.782227 0.959564
vn 0.706552 0.038794 0.706597
v 0.057406 1.412740 -0.287710
vt 0.786133 0.964325
vn -0.466916 0.125053 0.875415
v 0.062002 1.405992 -0.286428
vt 0.794434 0.944763
vn -0.906291 0.112397 0.407436
v 0.059785 1.405110 -0.288341
vt 0.799805 0.947205
vn -0.890873 0.335934 0.305766
v 0.064535 1.385746 -0.287347
vt 0.814453 0.904602
vn -0.848877 0.030554 0.527706
v 0.062292 1.386230 -0.289332
vt 0.818848 0.908752
vn -0.925638 0.347079 0.150765
v 0.066325 1.366838 -0.289368
vt 0.833496 0.865112
vn -0.971402 0.064259 0.228580
v 0.064152 1.367461 -0.291364
vt 0.838379 0.869263
vn -0.943217 0.323004 0.077527
v 0.067388 1.350111 -0.292890
vt 0.851074 0.828369
vn -0.973532 0.040554 0.224926
v 0.065378 1.351020 -0.294938
vt 0.855957 0.832520
vn -0.960256 0.278553 0.017813
v 0.067781 1.335259 -0.299728
vt 0.871582 0.795166
vn -0.998632 0.050280 0.014359
v 0.065981 1.336866 -0.301590
vt 0.875977 0.800049
vn -0.983092 0.174880 -0.054291
v 0.066598 1.320439 -0.317527
vt 0.911621 0.760376
vn -0.052576 0.014998 -0.998504
v 0.065031 1.322841 -0.318598
vt 0.914551 0.766235
vn -0.991154 0.065824 -0.115246
v 0.064346 1.315368 -0.338554
vt 0.954102 0.745361
vn -0.056375 0.075121 -0.995580
v 0.062869 1.317948 -0.338980
vt 0.956055 0.751221
vn -0.121397 0.014254 -0.992502
v 0.062500 1.314491 -0.356146
vt 0.989258 0.740479
vn -0.052826 0.075431 -0.995751
v 0.061154 1.317165 -0.356146
vt 0.990234 0.746582
vn -0.084485 0.044043 -0.995451
v 0.019785 1.420122 -0.285141
vt 0.422852 0.176758
vn 0.007286 0.996442 0.083965
v 0.039661 1.418970 -0.286046
vt 0.421387 0.211426
vn 0.014477 0.996414 0.083370
v 0.053620 1.415986 -0.287356
vt 0.416504 0.236328
vn 0.014415 0.996132 0.086676
v 0.057406 1.412740 -0.287710
vt 0.410889 0.243164
vn -0.000016 0.996746 0.080603
v 0.062292 1.386230 -0.289332
vt 0.364258 0.252441
vn -0.000016 0.998618 0.052564
v 0.059785 1.405110 -0.288341
vt 0.397217 0.247559
vn -0.000016 0.998969 0.045403
v 0.064152 1.367461 -0.291364
vt 0.331787 0.256348
vn 0.021582 0.996337 0.082749
v 0.065378 1.351020 -0.294938
vt 0.303467 0.259766
vn 0.048046 0.988385 0.144173
v 0.065981 1.336866 -0.301590
vt 0.277832 0.263672
vn 0.034666 0.961056 0.274170
v 0.065031 1.322841 -0.318598
vt 0.240967 0.263672
vn 0.015404 0.909195 0.416086
v 0.062869 1.317948 -0.338980
vt 0.205688 0.257812
vn -0.026425 0.854052 0.519515
v 0.061154 1.317165 -0.356146
vt 0.176392 0.250977
vn -0.065359 0.835273 0.545937
v 0.019823 1.422999 -0.281147
vt 0.694336 0.978043
vn 0.788478 0.030755 -0.614294
v 0.040032 1.421638 -0.282250
vt 0.737793 0.973572
vn 0.891023 0.087386 -0.445468
v 0.054874 1.418531 -0.283303
vt 0.769043 0.963898
vn 0.966057 0.203398 -0.159259
v 0.059766 1.414451 -0.282770
vt 0.777832 0.955597
vn 0.958521 0.170445 0.228440
v 0.062332 1.407008 -0.281258
vt 0.784668 0.941162
vn 0.961768 0.114330 0.248858
v 0.072432 1.318524 -0.262101
vt 0.799316 0.756592
vn -0.027029 0.015422 -0.999516
v 0.067912 1.368656 -0.270858
vt 0.796387 0.858276
vn 0.989926 0.040297 0.135730
v -0.062500 1.314491 -0.356146
vt 0.988281 0.980499
vn -0.707118 0.000000 -0.707096
v -0.063391 1.267458 -0.356146
vt 0.988770 0.948669
vn -0.707118 0.000000 -0.707096
v 0.062500 1.314491 -0.356146
vt 0.903809 0.980499
vn -0.707118 0.000000 -0.707096
v 0.063391 1.267458 -0.356146
vt 0.902832 0.948669
vn -0.707118 0.000000 -0.707096
v -0.061581 1.209897 -0.356146
vt 0.987793 0.909729
vn -0.707118 0.000000 -0.707096
v 0.061581 1.209897 -0.356146
vt 0.904297 0.909729
vn -0.707118 0.000000 -0.707096
v -0.058048 1.162860 -0.356146
vt 0.985352 0.877869
vn -0.707118 0.000000 -0.707096
v 0.058048 1.162860 -0.356146
vt 0.906738 0.877869
vn -0.707118 0.000000 -0.707096
v -0.053431 1.117034 -0.356146
vt 0.981934 0.846802
vn -0.707118 0.000000 -0.707096
v 0.053431 1.117034 -0.356146
vt 0.909668 0.846802
vn -0.707118 0.000000 -0.707096
v -0.061154 1.317165 -0.356146
vt 0.987305 0.982315
vn -0.707118 0.000000 -0.707096
v 0.061154 1.317165 -0.356146
vt 0.904785 0.982315
vn -0.707118 0.000000 -0.707096
v -0.057466 1.320006 -0.356146
vt 0.984863 0.984238
vn -0.707118 0.000000 -0.707096
v 0.057466 1.320006 -0.356146
vt 0.907227 0.984238
vn -0.707118 0.000000 -0.707096
v -0.049577 1.323757 -0.356146
vt 0.979492 0.986771
vn -0.707118 0.000000 -0.707096
v 0.049577 1.323757 -0.356146
vt 0.912598 0.986771
vn -0.707118 0.000000 -0.707096
v -0.033231 1.329031 -0.356146
vt 0.968262 0.990341
vn -0.707118 0.000000 -0.707096
v 0.033231 1.329031 -0.356146
vt 0.923340 0.990341
vn -0.707118 0.000000 -0.707096
v -0.017266 1.331890 -0.356146
vt 0.957520 0.992271
vn -0.707118 0.000000 -0.707096
v 0.017266 1.331890 -0.356146
vt 0.934082 0.992271
vn -0.707118 0.000000 -0.707096
v 0.000000 1.332918 -0.356146
vt 0.945801 0.992970
vn -0.707118 0.000000 -0.707096
v -0.050455 1.112031 -0.356146
vt 0.979980 0.843506
vn -0.707118 0.000000 -0.707096
v 0.050455 1.112031 -0.356146
vt 0.911621 0.843506
vn -0.707118 0.000000 -0.707096
v -0.045362 1.109407 -0.356146
vt 0.976562 0.841675
vn -0.707118 0.000000 -0.707096
v 0.000000 1.109052 -0.356146
vt 0.945801 0.841431
vn -0.707118 0.000000 -0.707096
v 0.045362 1.109407 -0.356146
vt 0.915039 0.841675
vn -0.707118 0.000000 -0.707096
usemtl Home_Charger
f 3/3/3 2/2/2 1/1/1
f 1/1/1 2/2/2 4/4/4
f 5/5/5 3/3/3 1/1/1
f 6/6/6 1/1/1 4/4/4
f 7/7/7 1/1/1 6/6/6
f 8/8/8 3/3/3 5/5/5
f 9/9/9 8/8/8 5/5/5
f 10/10/10 8/8/8 9/9/9
f 8/8/8 10/10/10 11/11/11
f 12/12/12 7/7/7 6/6/6
f 13/13/13 12/12/12 6/6/6
f 14/14/14 13/13/13 6/6/6
f 15/15/15 13/13/13 14/14/14
f 13/13/13 15/15/15 16/16/16
f 16/16/16 15/15/15 17/17/17
f 20/20/20 19/19/19 18/18/18
f 19/19/19 20/20/20 21/21/21
f 24/24/24 23/23/23 22/22/22
f 25/25/25 23/23/23 24/24/24
f 26/26/26 25/25/25 24/24/24
f 27/27/27 25/25/25 26/26/26
f 30/30/30 29/29/29 28/28/28
f 28/28/28 29/29/29 31/31/31
f 32/32/32 30/30/30 28/28/28
f 33/33/33 28/28/28 31/31/31
f 34/34/34 33/33/33 31/31/31
f 35/35/35 33/33/33 34/34/34
f 36/36/36 35/35/35 34/34/34
f 37/37/37 35/35/35 36/36/36
f 35/35/35 37/37/37 38/38/38
f 39/39/39 35/35/35 38/38/38
f 40/40/40 39/39/39 38/38/38
f 41/41/41 39/39/39 40/40/40
f 42/42/42 39/39/39 41/41/41
f 39/39/39 42/42/42 43/43/43
f 44/44/44 39/39/39 43/43/43
f 45/45/45 39/39/39 44/44/44
f 46/46/46 42/42/42 41/41/41
f 47/47/47 30/30/30 32/32/32
f 48/48/48 47/47/47 32/32/32
f 49/49/49 48/48/48 32/32/32
f 50/50/50 49/49/49 32/32/32
f 51/51/51 50/50/50 32/32/32
f 52/52/52 50/50/50 51/51/51
f 53/53/53 52/52/52 51/51/51
f 54/54/54 52/52/52 53/53/53
f 55/55/55 52/52/52 54/54/54
f 56/56/56 55/55/55 54/54/54
f 57/57/57 55/55/55 56/56/56
f 60/60/60 59/59/59 58/58/58
f 61/61/61 60/60/60 58/58/58
f 62/62/62 61/61/61 58/58/58
f 58/58/58 64/64/64 63/63/63
f 62/62/62 58/58/58 63/63/63
f 65/65/65 61/61/61 62/62/62
f 68/68/68 67/67/67 66/66/66
f 71/71/71 70/70/70 69/69/69
f 74/74/74 73/73/73 72/72/72
f 75/75/75 74/74/74 72/72/72
f 75/75/75 72/72/72 76/76/76
f 77/77/77 74/74/74 75/75/75
f 74/74/74 77/77/77 78/78/78
f 79/79/79 77/77/77 75/75/75
f 80/80/80 79/79/79 75/75/75
f 81/81/81 79/79/79 80/80/80
f 84/84/84 83/83/83 82/82/82
f 85/85/85 83/83/83 84/84/84
f 83/83/83 85/85/85 86/86/86
f 87/87/87 83/83/83 86/86/86
f 88/88/88 85/85/85 84/84/84
f 89/89/89 87/87/87 86/86/86
f 90/90/90 87/87/87 89/89/89
f 87/87/87 90/90/90 91/91/91
f 92/92/92 87/87/87 91/91/91
f 93/93/93 87/87/87 92/92/92
f 94/94/94 89/89/89 86/86/86
f 95/95/95 94/94/94 86/86/86
f 96/96/96 94/94/94 95/95/95
f 94/94/94 96/96/96 97/97/97
f 100/100/100 99/99/99 98/98/98
f 101/101/101 100/100/100 98/98/98
f 101/101/101 98/98/98 102/102/102
f 103/103/103 100/100/100 101/101/101
f 100/100/100 103/103/103 104/104/104
f 105/105/105 103/103/103 101/101/101
f 106/106/106 105/105/105 101/101/101
f 107/107/107 105/105/105 106/106/106
f 110/110/110 109/109/109 108/108/108
f 111/111/111 110/110/110 108/108/108
f 111/111/111 108/108/108 112/112/112
f 113/113/113 110/110/110 111/111/111
f 110/110/110 113/113/113 114/114/114
f 115/115/115 113/113/113 111/111/111
f 116/116/116 115/115/115 111/111/111
f 117/117/117 115/115/115 116/116/116
f 120/120/120 119/119/119 118/118/118
f 121/121/121 119/119/119 120/120/120
f 121/121/121 122/122/122 119/119/119
f 123/123/123 122/122/122 121/121/121
f 126/126/126 125/125/125 124/124/124
f 127/127/127 125/125/125 126/126/126
f 127/127/127 118/118/118 125/125/125
f 120/120/120 118/118/118 127/127/127
f 129/129/129 124/124/124 128/128/128
f 126/126/126 124/124/124 129/129/129
f 128/128/128 131/131/131 130/130/130
f 124/124/124 131/131/131 128/128/128
f 124/124/124 132/132/132 131/131/131
f 125/125/125 132/132/132 124/124/124
f 125/125/125 133/133/133 132/132/132
f 118/118/118 133/133/133 125/125/125
f 118/118/118 134/134/134 133/133/133
f 119/119/119 134/134/134 118/118/118
f 119/119/119 135/135/135 134/134/134
f 122/122/122 135/135/135 119/119/119
f 137/137/137 128/128/128 136/136/136
f 129/129/129 128/128/128 137/137/137
f 130/130/130 136/136/136 128/128/128
f 138/138/138 136/136/136 130/130/130
f 141/141/141 140/140/140 139/139/139
f 142/142/142 140/140/140 141/141/141
f 145/145/145 144/144/144 143/143/143
f 146/146/146 144/144/144 145/145/145
f 149/149/149 148/148/148 147/147/147
f 150/150/150 148/148/148 149/149/149
f 151/151/151 150/150/150 149/149/149
f 152/152/152 150/150/150 151/151/151
f 147/147/147 154/154/154 153/153/153
f 148/148/148 154/154/154 147/147/147
f 153/153/153 146/146/146 145/145/145
f 154/154/154 146/146/146 153/153/153
f 143/143/143 142/142/142 141/141/141
f 144/144/144 142/142/142 143/143/143
f 142/142/142 155/155/155 140/140/140
f 156/156/156 155/155/155 142/142/142
f 144/144/144 156/156/156 142/142/142
f 157/157/157 156/156/156 144/144/144
f 146/146/146 157/157/157 144/144/144
f 158/158/158 157/157/157 146/146/146
f 154/154/154 158/158/158 146/146/146
f 159/159/159 158/158/158 154/154/154
f 148/148/148 159/159/159 154/154/154
f 160/160/160 159/159/159 148/148/148
f 150/150/150 160/160/160 148/148/148
f 161/161/161 160/160/160 150/150/150
f 152/152/152 161/161/161 150/150/150
f 162/162/162 161/161/161 152/152/152
f 156/156/156 163/163/163 155/155/155
f 164/164/164 163/163/163 156/156/156
f 157/157/157 164/164/164 156/156/156
f 165/165/165 164/164/164 157/157/157
f 158/158/158 165/165/165 157/157/157
f 166/166/166 165/165/165 158/158/158
f 159/159/159 166/166/166 158/158/158
f 167/167/167 166/166/166 159/159/159
f 160/160/160 167/167/167 159/159/159
f 168/168/168 167/167/167 160/160/160
f 161/161/161 168/168/168 160/160/160
f 169/169/169 168/168/168 161/161/161
f 162/162/162 169/169/169 161/161/161
f 170/170/170 169/169/169 162/162/162
f 164/164/164 171/171/171 163/163/163
f 172/172/172 171/171/171 164/164/164
f 165/165/165 172/172/172 164/164/164
f 173/173/173 172/172/172 165/165/165
f 166/166/166 173/173/173 165/165/165
f 174/174/174 173/173/173 166/166/166
f 167/167/167 174/174/174 166/166/166
f 175/175/175 174/174/174 167/167/167
f 168/168/168 175/175/175 167/167/167
f 176/176/176 175/175/175 168/168/168
f 169/169/169 176/176/176 168/168/168
f 177/177/177 176/176/176 169/169/169
f 170/170/170 177/177/177 169/169/169
f 178/178/178 177/177/177 170/170/170
f 181/181/181 180/180/180 179/179/179
f 182/182/182 180/180/180 181/181/181
f 184/184/184 179/179/179 183/183/183
f 181/181/181 179/179/179 184/184/184
f 186/186/186 183/183/183 185/185/185
f 184/184/184 183/183/183 186/186/186
f 188/188/188 185/185/185 187/187/187
f 186/186/186 185/185/185 188/188/188
f 190/190/190 187/187/187 189/189/189
f 188/188/188 187/187/187 190/190/190
f 192/192/192 189/189/189 191/191/191
f 190/190/190 189/189/189 192/192/192
f 194/194/194 191/191/191 193/193/193
f 192/192/192 191/191/191 194/194/194
f 196/196/196 193/193/193 195/195/195
f 194/194/194 193/193/193 196/196/196
f 198/198/198 195/195/195 197/197/197
f 196/196/196 195/195/195 198/198/198
f 200/200/200 197/197/197 199/199/199
f 198/198/198 197/197/197 200/200/200
f 202/202/202 199/199/199 201/201/201
f 200/200/200 199/199/199 202/202/202
f 204/204/204 201/201/201 203/203/203
f 202/202/202 201/201/201 204/204/204
f 206/206/206 203/203/203 205/205/205
f 204/204/204 203/203/203 206/206/206
f 208/208/208 205/205/205 207/207/207
f 206/206/206 205/205/205 208/208/208
f 210/210/210 207/207/207 209/209/209
f 208/208/208 207/207/207 210/210/210
f 212/212/212 209/209/209 211/211/211
f 210/210/210 209/209/209 212/212/212
f 123/123/123 181/181/181 122/122/122
f 182/182/182 181/181/181 123/123/123
f 210/210/210 137/137/137 136/136/136
f 212/212/212 137/137/137 210/210/210
f 138/138/138 200/200/200 202/202/202
f 130/130/130 200/200/200 138/138/138
f 206/206/206 202/202/202 204/204/204
f 208/208/208 202/202/202 206/206/206
f 138/138/138 202/202/202 208/208/208
f 130/130/130 198/198/198 200/200/200
f 131/131/131 198/198/198 130/130/130
f 131/131/131 196/196/196 198/198/198
f 132/132/132 196/196/196 131/131/131
f 132/132/132 194/194/194 196/196/196
f 133/133/133 194/194/194 132/132/132
f 133/133/133 192/192/192 194/194/194
f 134/134/134 192/192/192 133/133/133
f 134/134/134 190/190/190 192/192/192
f 135/135/135 190/190/190 134/134/134
f 188/188/188 184/184/184 186/186/186
f 190/190/190 184/184/184 188/188/188
f 135/135/135 184/184/184 190/190/190
f 135/135/135 181/181/181 184/184/184
f 122/122/122 181/181/181 135/135/135
f 138/138/138 210/210/210 136/136/136
f 208/208/208 210/210/210 138/138/138
f 215/215/215 214/214/214 213/213/213
f 216/216/216 214/214/214 215/215/215
f 217/217/217 216/216/216 215/215/215
f 218/218/218 216/216/216 217/217/217
f 219/219/219 218/218/218 217/217/217
f 220/220/220 218/218/218 219/219/219
f 221/221/221 220/220/220 219/219/219
f 222/222/222 220/220/220 221/221/221
f 225/225/225 224/224/224 223/223/223
f 226/226/226 224/224/224 225/225/225
f 227/227/227 226/226/226 225/225/225
f 230/230/230 229/229/229 228/228/228
f 228/228/228 227/227/227 225/225/225
f 229/229/229 227/227/227 228/228/228
f 233/233/233 232/232/232 231/231/231
f 234/234/234 232/232/232 233/233/233
f 236/236/236 231/231/231 235/235/235
f 233/233/233 231/231/231 236/236/236
f 238/238/238 235/235/235 237/237/237
f 236/236/236 235/235/235 238/238/238
f 240/240/240 237/237/237 239/239/239
f 238/238/238 237/237/237 240/240/240
f 242/242/242 239/239/239 241/241/241
f 240/240/240 239/239/239 242/242/242
f 244/244/244 241/241/241 243/243/243
f 242/242/242 241/241/241 244/244/244
f 246/246/246 243/243/243 245/245/245
f 244/244/244 243/243/243 246/246/246
f 248/248/248 245/245/245 247/247/247
f 246/246/246 245/245/245 248/248/248
f 250/250/250 247/247/247 249/249/249
f 248/248/248 247/247/247 250/250/250
f 253/253/253 252/252/252 251/251/251
f 254/254/254 252/252/252 253/253/253
f 249/249/249 254/254/254 250/250/250
f 252/252/252 254/254/254 249/249/249
f 256/256/256 251/251/251 255/255/255
f 253/253/253 251/251/251 256/256/256
f 213/213/213 254/254/254 253/253/253
f 140/140/140 257/257/257 139/139/139
f 258/258/258 257/257/257 140/140/140
f 155/155/155 258/258/258 140/140/140
f 259/259/259 258/258/258 155/155/155
f 163/163/163 259/259/259 155/155/155
f 260/260/260 259/259/259 163/163/163
f 260/260/260 171/171/171 261/261/261
f 163/163/163 171/171/171 260/260/260
f 172/172/172 262/262/262 171/171/171
f 263/263/263 262/262/262 172/172/172
f 173/173/173 263/263/263 172/172/172
f 264/264/264 263/263/263 173/173/173
f 174/174/174 264/264/264 173/173/173
f 265/265/265 264/264/264 174/174/174
f 175/175/175 265/265/265 174/174/174
f 266/266/266 265/265/265 175/175/175
f 176/176/176 266/266/266 175/175/175
f 267/267/267 266/266/266 176/176/176
f 177/177/177 267/267/267 176/176/176
f 268/268/268 267/267/267 177/177/177
f 178/178/178 268/268/268 177/177/177
f 269/269/269 268/268/268 178/178/178
f 261/261/261 171/171/171 262/262/262
f 233/233/233 270/270/270 234/234/234
f 271/271/271 270/270/270 233/233/233
f 236/236/236 271/271/271 233/233/233
f 272/272/272 271/271/271 236/236/236
f 238/238/238 272/272/272 236/236/236
f 273/273/273 272/272/272 238/238/238
f 274/274/274 238/238/238 240/240/240
f 273/273/273 238/238/238 274/274/274
f 242/242/242 274/274/274 240/240/240
f 275/275/275 274/274/274 242/242/242
f 244/244/244 275/275/275 242/242/242
f 250/250/250 276/276/276 248/248/248
f 277/277/277 276/276/276 250/250/250
f 213/213/213 277/277/277 254/254/254
f 214/214/214 277/277/277 213/213/213
f 277/277/277 250/250/250 254/254/254
f 248/248/248 276/276/276 246/246/246
f 246/246/246 275/275/275 244/244/244
f 276/276/276 275/275/275 246/246/246
f 120/120/120 278/278/278 121/121/121
f 279/279/279 278/278/278 120/120/120
f 121/121/121 280/280/280 123/123/123
f 278/278/278 280/280/280 121/121/121
f 126/126/126 281/281/281 127/127/127
f 282/282/282 281/281/281 126/126/126
f 127/127/127 279/279/279 120/120/120
f 281/281/281 279/279/279 127/127/127
f 129/129/129 282/282/282 126/126/126
f 283/283/283 282/282/282 129/129/129
f 283/283/283 284/284/284 282/282/282
f 285/285/285 284/284/284 283/283/283
f 282/282/282 286/286/286 281/281/281
f 284/284/284 286/286/286 282/282/282
f 281/281/281 287/287/287 279/279/279
f 286/286/286 287/287/287 281/281/281
f 279/279/279 288/288/288 278/278/278
f 287/287/287 288/288/288 279/279/279
f 278/278/278 289/289/289 280/280/280
f 288/288/288 289/289/289 278/278/278
f 137/137/137 283/283/283 129/129/129
f 290/290/290 283/283/283 137/137/137
f 285/285/285 290/290/290 291/291/291
f 283/283/283 290/290/290 285/285/285
f 141/141/141 293/293/293 292/292/292
f 139/139/139 293/293/293 141/141/141
f 145/145/145 295/295/295 294/294/294
f 143/143/143 295/295/295 145/145/145
f 149/149/149 297/297/297 296/296/296
f 147/147/147 297/297/297 149/149/149
f 151/151/151 296/296/296 298/298/298
f 149/149/149 296/296/296 151/151/151
f 147/147/147 299/299/299 297/297/297
f 153/153/153 299/299/299 147/147/147
f 153/153/153 294/294/294 299/299/299
f 145/145/145 294/294/294 153/153/153
f 143/143/143 292/292/292 295/295/295
f 141/141/141 292/292/292 143/143/143
f 292/292/292 301/301/301 300/300/300
f 293/293/293 301/301/301 292/292/292
f 295/295/295 300/300/300 302/302/302
f 292/292/292 300/300/300 295/295/295
f 294/294/294 302/302/302 303/303/303
f 295/295/295 302/302/302 294/294/294
f 299/299/299 303/303/303 304/304/304
f 294/294/294 303/303/303 299/299/299
f 297/297/297 304/304/304 305/305/305
f 299/299/299 304/304/304 297/297/297
f 296/296/296 305/305/305 306/306/306
f 297/297/297 305/305/305 296/296/296
f 298/298/298 306/306/306 307/307/307
f 296/296/296 306/306/306 298/298/298
f 300/300/300 309/309/309 308/308/308
f 301/301/301 309/309/309 300/300/300
f 302/302/302 308/308/308 310/310/310
f 300/300/300 308/308/308 302/302/302
f 303/303/303 310/310/310 311/311/311
f 302/302/302 310/310/310 303/303/303
f 304/304/304 311/311/311 312/312/312
f 303/303/303 311/311/311 304/304/304
f 305/305/305 312/312/312 313/313/313
f 304/304/304 312/312/312 305/305/305
f 306/306/306 313/313/313 314/314/314
f 305/305/305 313/313/313 306/306/306
f 307/307/307 314/314/314 315/315/315
f 306/306/306 314/314/314 307/307/307
f 308/308/308 317/317/317 316/316/316
f 309/309/309 317/317/317 308/308/308
f 310/310/310 316/316/316 318/318/318
f 308/308/308 316/316/316 310/310/310
f 311/311/311 318/318/318 319/319/319
f 310/310/310 318/318/318 311/311/311
f 312/312/312 319/319/319 320/320/320
f 311/311/311 319/319/319 312/312/312
f 313/313/313 320/320/320 321/321/321
f 312/312/312 320/320/320 313/313/313
f 314/314/314 321/321/321 322/322/322
f 313/313/313 321/321/321 314/314/314
f 315/315/315 322/322/322 323/323/323
f 314/314/314 322/322/322 315/315/315
f 324/324/324 180/180/180 182/182/182
f 325/325/325 180/180/180 324/324/324
f 326/326/326 325/325/325 324/324/324
f 327/327/327 325/325/325 326/326/326
f 328/328/328 327/327/327 326/326/326
f 329/329/329 327/327/327 328/328/328
f 330/330/330 329/329/329 328/328/328
f 331/331/331 329/329/329 330/330/330
f 332/332/332 331/331/331 330/330/330
f 333/333/333 331/331/331 332/332/332
f 334/334/334 333/333/333 332/332/332
f 335/335/335 333/333/333 334/334/334
f 336/336/336 335/335/335 334/334/334
f 337/337/337 335/335/335 336/336/336
f 338/338/338 337/337/337 336/336/336
f 339/339/339 337/337/337 338/338/338
f 340/340/340 339/339/339 338/338/338
f 341/341/341 339/339/339 340/340/340
f 342/342/342 341/341/341 340/340/340
f 343/343/343 341/341/341 342/342/342
f 344/344/344 343/343/343 342/342/342
f 345/345/345 343/343/343 344/344/344
f 346/346/346 345/345/345 344/344/344
f 347/347/347 345/345/345 346/346/346
f 348/348/348 347/347/347 346/346/346
f 349/349/349 347/347/347 348/348/348
f 350/350/350 349/349/349 348/348/348
f 351/351/351 349/349/349 350/350/350
f 352/352/352 351/351/351 350/350/350
f 353/353/353 351/351/351 352/352/352
f 212/212/212 353/353/353 352/352/352
f 211/211/211 353/353/353 212/212/212
f 123/123/123 324/324/324 182/182/182
f 280/280/280 324/324/324 123/123/123
f 352/352/352 137/137/137 212/212/212
f 290/290/290 137/137/137 352/352/352
f 291/291/291 342/342/342 285/285/285
f 344/344/344 342/342/342 291/291/291
f 350/350/350 344/344/344 291/291/291
f 348/348/348 344/344/344 350/350/350
f 346/346/346 344/344/344 348/348/348
f 285/285/285 340/340/340 284/284/284
f 342/342/342 340/340/340 285/285/285
f 284/284/284 338/338/338 286/286/286
f 340/340/340 338/338/338 284/284/284
f 286/286/286 336/336/336 287/287/287
f 338/338/338 336/336/336 286/286/286
f 287/287/287 334/334/334 288/288/288
f 336/336/336 334/334/334 287/287/287
f 288/288/288 332/332/332 289/289/289
f 334/334/334 332/332/332 288/288/288
f 332/332/332 326/326/326 289/289/289
f 330/330/330 326/326/326 332/332/332
f 328/328/328 326/326/326 330/330/330
f 289/289/289 324/324/324 280/280/280
f 326/326/326 324/324/324 289/289/289
f 291/291/291 352/352/352 350/350/350
f 290/290/290 352/352/352 291/291/291
f 356/356/356 355/355/355 354/354/354
f 357/357/357 355/355/355 356/356/356
f 359/359/359 354/354/354 358/358/358
f 356/356/356 354/354/354 359/359/359
f 361/361/361 358/358/358 360/360/360
f 359/359/359 358/358/358 361/361/361
f 363/363/363 360/360/360 362/362/362
f 361/361/361 360/360/360 363/363/363
f 366/366/366 365/365/365 364/364/364
f 367/367/367 365/365/365 366/366/366
f 366/366/366 364/364/364 368/368/368
f 228/228/228 369/369/369 230/230/230
f 228/228/228 368/368/368 369/369/369
f 366/366/366 368/368/368 228/228/228
f 370/370/370 232/232/232 234/234/234
f 371/371/371 232/232/232 370/370/370
f 372/372/372 371/371/371 370/370/370
f 373/373/373 371/371/371 372/372/372
f 374/374/374 373/373/373 372/372/372
f 375/375/375 373/373/373 374/374/374
f 376/376/376 375/375/375 374/374/374
f 377/377/377 375/375/375 376/376/376
f 378/378/378 377/377/377 376/376/376
f 379/379/379 377/377/377 378/378/378
f 380/380/380 379/379/379 378/378/378
f 381/381/381 379/379/379 380/380/380
f 382/382/382 381/381/381 380/380/380
f 383/383/383 381/381/381 382/382/382
f 384/384/384 383/383/383 382/382/382
f 385/385/385 383/383/383 384/384/384
f 386/386/386 385/385/385 384/384/384
f 387/387/387 385/385/385 386/386/386
f 390/390/390 389/389/389 388/388/388
f 391/391/391 389/389/389 390/390/390
f 387/387/387 388/388/388 389/389/389
f 386/386/386 388/388/388 387/387/387
f 392/392/392 391/391/391 390/390/390
f 393/393/393 391/391/391 392/392/392
f 392/392/392 390/390/390 357/357/357
f 293/293/293 257/257/257 394/394/394
f 139/139/139 257/257/257 293/293/293
f 301/301/301 394/394/394 395/395/395
f 293/293/293 394/394/394 301/301/301
f 309/309/309 395/395/395 396/396/396
f 301/301/301 395/395/395 309/309/309
f 396/396/396 317/317/317 309/309/309
f 397/397/397 317/317/317 396/396/396
f 316/316/316 399/399/399 398/398/398
f 317/317/317 399/399/399 316/316/316
f 318/318/318 398/398/398 400/400/400
f 316/316/316 398/398/398 318/318/318
f 319/319/319 400/400/400 401/401/401
f 318/318/318 400/400/400 319/319/319
f 320/320/320 401/401/401 402/402/402
f 319/319/319 401/401/401 320/320/320
f 321/321/321 402/402/402 403/403/403
f 320/320/320 402/402/402 321/321/321
f 322/322/322 403/403/403 404/404/404
f 321/321/321 403/403/403 322/322/322
f 323/323/323 404/404/404 405/405/405
f 322/322/322 404/404/404 323/323/323
f 399/399/399 317/317/317 397/397/397
f 370/370/370 270/270/270 406/406/406
f 234/234/234 270/270/270 370/370/370
f 372/372/372 406/406/406 407/407/407
f 370/370/370 406/406/406 372/372/372
f 374/374/374 407/407/407 408/408/408
f 372/372/372 407/407/407 374/374/374
f 409/409/409 374/374/374 408/408/408
f 376/376/376 374/374/374 409/409/409
f 378/378/378 409/409/409 410/410/410
f 376/376/376 409/409/409 378/378/378
f 378/378/378 410/410/410 380/380/380
f 386/386/386 412/412/412 411/411/411
f 384/384/384 412/412/412 386/386/386
f 357/357/357 411/411/411 355/355/355
f 388/388/388 411/411/411 357/357/357
f 388/388/388 386/386/386 411/411/411
f 382/382/382 412/412/412 384/384/384
f 382/382/382 410/410/410 412/412/412
f 380/380/380 410/410/410 382/382/382
f 415/415/415 414/414/414 413/413/413
f 416/416/416 414/414/414 415/415/415
f 416/416/416 417/417/417 414/414/414
f 418/418/418 417/417/417 416/416/416
f 418/418/418 419/419/419 417/417/417
f 420/420/420 419/419/419 418/418/418
f 420/420/420 421/421/421 419/419/419
f 422/422/422 421/421/421 420/420/420
f 424/424/424 413/413/413 423/423/423
f 415/415/415 413/413/413 424/424/424
f 426/426/426 423/423/423 425/425/425
f 424/424/424 423/423/423 426/426/426
f 428/428/428 425/425/425 427/427/427
f 426/426/426 425/425/425 428/428/428
f 430/430/430 427/427/427 429/429/429
f 428/428/428 427/427/427 430/430/430
f 432/432/432 429/429/429 431/431/431
f 430/430/430 429/429/429 432/432/432
f 433/433/433 432/432/432 431/431/431
f 422/422/422 434/434/434 421/421/421
f 435/435/435 434/434/434 422/422/422
f 437/437/437 436/436/436 434/434/434
f 435/435/435 437/437/437 434/434/434
f 438/438/438 437/437/437 435/435/435
f 256/256/256 213/213/213 253/253/253
f 390/390/390 388/388/388 357/357/357
