# Exported from Godot Engine
mtllib Cable.mtl
o Cable
v 0.012153 0.815540 -0.122922
vt 0.452637 0.078613
vn -0.000020 0.895207 0.445650
v 0.014383 0.806018 -0.118694
vt 0.452637 0.083008
vn -0.000020 0.897562 0.440887
v 0.012047 0.829523 -0.089339
vt 0.467041 0.078613
vn -0.000021 0.876473 0.481450
v 0.014280 0.819337 -0.086107
vt 0.467041 0.083008
vn -0.000021 0.876473 0.481450
v 0.067986 0.555407 -0.853680
vt 0.414795 0.036133
vn -0.064610 0.208083 0.975975
v 0.071889 0.550747 -0.862493
vt 0.414795 0.040527
vn -0.064610 0.208083 0.975975
v 0.065441 0.523385 -0.839577
vt 0.429199 0.036133
vn -0.064424 0.221784 0.972965
v 0.069310 0.518385 -0.848157
vt 0.429199 0.040527
vn -0.064424 0.221784 0.972965
v 0.102180 1.138627 -0.972485
vt 0.170776 0.036133
vn -0.007818 0.023424 0.999695
v 0.106335 1.137771 -0.982502
vt 0.170776 0.040527
vn -0.007818 0.023424 0.999695
v 0.101582 1.103306 -0.970674
vt 0.185059 0.036133
vn -0.015554 0.034969 0.999267
v 0.105732 1.102315 -0.980676
vt 0.185059 0.040527
vn -0.015554 0.034969 0.999267
v 0.103905 1.421476 -0.998829
vt 0.055908 0.009766
vn -0.000015 0.000015 1.000000
v 0.103993 1.519050 -0.999369
vt 0.016434 0.009766
vn -0.000015 0.000015 1.000000
v 0.093819 1.421456 -1.003007
vt 0.055908 0.014160
vn -0.000015 0.000015 1.000000
v 0.093907 1.519038 -1.003547
vt 0.016434 0.014160
vn -0.000015 0.000015 1.000000
v 0.108086 1.421616 -0.988750
vt 0.055908 0.005371
vn -0.000015 0.000015 1.000000
v 0.108172 1.519105 -0.989284
vt 0.016434 0.005371
vn -0.000015 0.000015 1.000000
v 0.083735 1.421567 -0.998835
vt 0.055908 0.018555
vn -0.000015 0.000015 1.000000
v 0.083821 1.519078 -0.999371
vt 0.016434 0.018555
vn -0.000015 0.000015 1.000000
v 0.079560 1.421746 -0.988759
vt 0.055908 0.022949
vn -0.000015 0.000015 1.000000
v 0.079644 1.519145 -0.989287
vt 0.016434 0.022949
vn -0.000015 0.000015 1.000000
v 0.083741 1.421887 -0.978679
vt 0.055908 0.027344
vn -0.000015 0.000015 1.000000
v 0.083823 1.519200 -0.979203
vt 0.016434 0.027344
vn -0.000015 0.000015 1.000000
v 0.093827 1.421907 -0.974502
vt 0.055908 0.031738
vn -0.000015 0.000015 1.000000
v 0.093909 1.519212 -0.975025
vt 0.016434 0.031738
vn -0.000015 0.000015 1.000000
v 0.103911 1.421795 -0.978673
vt 0.055908 0.036133
vn -0.000015 0.000015 1.000000
v 0.103995 1.519172 -0.979201
vt 0.016434 0.036133
vn -0.000015 0.000015 1.000000
v 0.108086 1.421616 -0.988750
vt 0.055908 0.040527
vn -0.000015 0.000015 1.000000
v 0.108172 1.519105 -0.989284
vt 0.016434 0.040527
vn -0.000015 0.000015 1.000000
v 0.103757 1.350440 -0.998130
vt 0.084595 0.009766
vn -0.000015 0.003937 0.999992
v 0.093671 1.350413 -1.002307
vt 0.084595 0.014160
vn -0.000015 0.003937 0.999992
v 0.107939 1.350664 -0.988057
vt 0.084595 0.005371
vn -0.000015 0.003937 0.999992
v 0.083588 1.350598 -0.998140
vt 0.084595 0.018555
vn -0.000015 0.003937 0.999992
v 0.079416 1.350888 -0.988072
vt 0.084595 0.022949
vn -0.000015 0.003937 0.999992
v 0.103477 1.279368 -0.997003
vt 0.113342 0.009766
vn -0.000015 0.007859 0.999969
v 0.093390 1.279332 -1.001179
vt 0.113342 0.014160
vn -0.000015 0.007859 0.999969
v 0.107662 1.279702 -0.986939
vt 0.113342 0.005371
vn -0.000015 0.007859 0.999969
v 0.083310 1.279615 -0.997020
vt 0.113342 0.018555
vn -0.000015 0.007859 0.999969
v 0.079142 1.280051 -0.986963
vt 0.113342 0.022949
vn -0.000015 0.007859 0.999969
v 0.083598 1.351112 -0.977998
vt 0.084595 0.027344
vn -0.000015 0.003937 0.999992
v 0.093685 1.351139 -0.973822
vt 0.084595 0.031738
vn -0.000015 0.003937 0.999992
v 0.103768 1.350954 -0.977988
vt 0.084595 0.036133
vn -0.000015 0.003937 0.999992
v 0.107939 1.350664 -0.988057
vt 0.084595 0.040527
vn -0.000015 0.003937 0.999992
v 0.083327 1.280384 -0.976899
vt 0.113342 0.027344
vn -0.000015 0.007859 0.999969
v 0.093414 1.280420 -0.972723
vt 0.113342 0.031738
vn -0.000015 0.007859 0.999969
v 0.103494 1.280137 -0.976882
vt 0.113342 0.036133
vn -0.000015 0.007859 0.999969
v 0.107662 1.279702 -0.986939
vt 0.113342 0.040527
vn -0.000015 0.007859 0.999969
v 0.077825 1.138473 -0.982554
vt 0.170776 0.022949
vn -0.007818 0.023424 0.999695
v 0.077225 1.103125 -0.980738
vt 0.185059 0.022949
vn -0.015554 0.034969 0.999267
v 0.081980 1.137617 -0.992571
vt 0.170776 0.018555
vn -0.007818 0.023424 0.999695
v 0.081375 1.102134 -0.990740
vt 0.185059 0.018555
vn -0.015554 0.034969 0.999267
v 0.102981 1.208257 -0.995241
vt 0.141968 0.009766
vn -0.007887 0.015726 0.999845
v 0.092894 1.208210 -0.999415
vt 0.141968 0.014160
vn -0.007887 0.015726 0.999845
v 0.107171 1.208731 -0.985189
vt 0.141968 0.005371
vn -0.007887 0.015726 0.999845
v 0.082817 1.208616 -0.995266
vt 0.141968 0.018555
vn -0.007887 0.015726 0.999845
v 0.078654 1.209239 -0.985226
vt 0.141968 0.022949
vn -0.007887 0.015726 0.999845
v 0.092052 1.137057 -0.996705
vt 0.170776 0.014160
vn -0.007818 0.023424 0.999695
v 0.091444 1.101486 -0.994865
vt 0.185059 0.014160
vn -0.015554 0.034969 0.999267
v 0.102140 1.137121 -0.992534
vt 0.170776 0.009766
vn -0.007818 0.023424 0.999695
v 0.101533 1.101561 -0.990696
vt 0.185059 0.009766
vn -0.015554 0.034969 0.999267
v 0.106335 1.137771 -0.982502
vt 0.170776 0.005371
vn -0.007818 0.023424 0.999695
v 0.105732 1.102315 -0.980676
vt 0.185059 0.005371
vn -0.015554 0.034969 0.999267
v 0.082844 1.209713 -0.975175
vt 0.141968 0.027344
vn -0.007887 0.015726 0.999845
v 0.092932 1.209761 -0.971001
vt 0.141968 0.031738
vn -0.007887 0.015726 0.999845
v 0.103008 1.209354 -0.975149
vt 0.141968 0.036133
vn -0.007887 0.015726 0.999845
v 0.107171 1.208731 -0.985189
vt 0.141968 0.040527
vn -0.007887 0.015726 0.999845
v 0.092109 1.139187 -0.968351
vt 0.170776 0.031738
vn -0.007818 0.023424 0.999695
v 0.091513 1.103953 -0.966549
vt 0.185059 0.031738
vn -0.015554 0.034969 0.999267
v 0.082020 1.139123 -0.972522
vt 0.170776 0.027344
vn -0.007818 0.023424 0.999695
v 0.081424 1.103879 -0.970718
vt 0.185059 0.027344
vn -0.015554 0.034969 0.999267
v 0.091521 0.857872 -0.943068
vt 0.285645 0.036133
vn -0.060572 0.113547 0.991684
v 0.095612 0.855651 -0.952865
vt 0.285645 0.040527
vn -0.060572 0.113547 0.991684
v 0.089171 0.823314 -0.936312
vt 0.300049 0.036133
vn -0.059838 0.123347 0.990558
v 0.093250 0.820875 -0.946054
vt 0.300049 0.040527
vn -0.059838 0.123347 0.990558
v 0.098681 0.997591 -0.962537
vt 0.228149 0.036133
vn -0.030712 0.061375 0.997642
v 0.102812 0.996130 -0.972477
vt 0.228149 0.040527
vn -0.030712 0.061375 0.997642
v 0.097252 0.962484 -0.958706
vt 0.242554 0.036133
vn -0.038504 0.073101 0.996581
v 0.101375 0.960847 -0.968619
vt 0.242554 0.040527
vn -0.038504 0.073101 0.996581
v 0.074316 0.997291 -0.972577
vt 0.228149 0.022949
vn -0.030712 0.061375 0.997642
v 0.072884 0.962126 -0.968734
vt 0.242554 0.022949
vn -0.038504 0.073101 0.996581
v 0.078448 0.995829 -0.982517
vt 0.228149 0.018555
vn -0.030712 0.061375 0.997642
v 0.077007 0.960489 -0.978646
vt 0.242554 0.018555
vn -0.038340 0.076630 0.996322
v 0.080607 1.066664 -0.988500
vt 0.199463 0.018555
vn -0.023350 0.042719 0.998814
v 0.076462 1.067802 -0.978516
vt 0.199463 0.022949
vn -0.023350 0.042719 0.998814
v 0.079642 1.031224 -0.985782
vt 0.213867 0.018555
vn -0.023140 0.050090 0.998477
v 0.075504 1.032519 -0.975818
vt 0.213867 0.022949
vn -0.023140 0.050090 0.998477
v 0.099795 1.030486 -0.985721
vt 0.213867 0.009766
vn -0.023140 0.050090 0.998477
v 0.100762 1.066010 -0.988448
vt 0.199463 0.009766
vn -0.023350 0.042719 0.998814
v 0.089704 1.030382 -0.989884
vt 0.213867 0.014160
vn -0.023140 0.050090 0.998477
v 0.090673 1.065922 -0.992614
vt 0.199463 0.014160
vn -0.023350 0.042719 0.998814
v 0.104966 1.066877 -0.978442
vt 0.199463 0.005371
vn -0.023350 0.042719 0.998814
v 0.104003 1.031476 -0.975732
vt 0.213867 0.005371
vn -0.023140 0.050090 0.998477
v 0.088506 0.994884 -0.986605
vt 0.228149 0.014160
vn -0.030712 0.061375 0.997642
v 0.087060 0.959437 -0.982718
vt 0.242554 0.014160
vn -0.038340 0.076630 0.996322
v 0.098597 0.995008 -0.982446
vt 0.228149 0.009766
vn -0.030712 0.061375 0.997642
v 0.097154 0.959585 -0.978565
vt 0.242554 0.009766
vn -0.038340 0.076630 0.996322
v 0.102812 0.996130 -0.972477
vt 0.228149 0.005371
vn -0.030712 0.061375 0.997642
v 0.101375 0.960847 -0.968619
vt 0.242554 0.005371
vn -0.038504 0.073101 0.996581
v 0.100821 1.068015 -0.968458
vt 0.199463 0.036133
vn -0.023350 0.042719 0.998814
v 0.104966 1.066877 -0.978442
vt 0.199463 0.040527
vn -0.023350 0.042719 0.998814
v 0.099865 1.032772 -0.965768
vt 0.213867 0.036133
vn -0.023140 0.050090 0.998477
v 0.104003 1.031476 -0.975732
vt 0.213867 0.040527
vn -0.023140 0.050090 0.998477
v 0.090755 1.068757 -0.964344
vt 0.199463 0.031738
vn -0.023350 0.042719 0.998814
v 0.089803 1.033614 -0.961666
vt 0.213867 0.031738
vn -0.023140 0.050090 0.998477
v 0.080666 1.068668 -0.968510
vt 0.199463 0.027344
vn -0.023350 0.042719 0.998814
v 0.079712 1.033509 -0.965829
vt 0.213867 0.027344
vn -0.023140 0.050090 0.998477
v 0.088623 0.998537 -0.958449
vt 0.228149 0.031738
vn -0.030712 0.061375 0.997642
v 0.087199 0.963537 -0.954634
vt 0.242554 0.031738
vn -0.038504 0.073101 0.996581
v 0.078531 0.998413 -0.962608
vt 0.228149 0.027344
vn -0.030712 0.061375 0.997642
v 0.077105 0.963388 -0.958788
vt 0.242554 0.027344
vn -0.038504 0.073101 0.996581
v 0.067137 0.857265 -0.953031
vt 0.285645 0.022949
vn -0.060572 0.113547 0.991684
v 0.064779 0.822592 -0.946240
vt 0.300049 0.022949
vn -0.059838 0.123347 0.990558
v 0.071228 0.855043 -0.962828
vt 0.285645 0.018555
vn -0.060572 0.113547 0.991684
v 0.068858 0.820153 -0.955983
vt 0.300049 0.018555
vn -0.059838 0.123347 0.990558
v 0.075320 0.925232 -0.974111
vt 0.256836 0.018555
vn -0.045754 0.087668 0.995098
v 0.071206 0.927053 -0.964231
vt 0.256836 0.022949
vn -0.045754 0.087668 0.995098
v 0.073389 0.890078 -0.968856
vt 0.271240 0.018555
vn -0.052896 0.101954 0.993382
v 0.069286 0.892093 -0.959015
vt 0.271240 0.022949
vn -0.052896 0.101954 0.993382
v 0.093529 0.889013 -0.968751
vt 0.271240 0.009766
vn -0.052896 0.101954 0.993382
v 0.095462 0.924247 -0.974019
vt 0.256836 0.009766
vn -0.045754 0.087668 0.995098
v 0.083431 0.888802 -0.972889
vt 0.271240 0.014160
vn -0.052896 0.101954 0.993382
v 0.085367 0.924070 -0.978165
vt 0.256836 0.014160
vn -0.045754 0.087668 0.995098
v 0.099692 0.925659 -0.964100
vt 0.256836 0.005371
vn -0.045754 0.087668 0.995098
v 0.097767 0.890587 -0.958866
vt 0.271240 0.005371
vn -0.052896 0.101954 0.993382
v 0.081264 0.853651 -0.966837
vt 0.285645 0.014160
vn -0.060572 0.113547 0.991684
v 0.078886 0.818639 -0.959964
vt 0.300049 0.014160
vn -0.059838 0.123347 0.990558
v 0.091364 0.853902 -0.962710
vt 0.285645 0.009766
vn -0.060572 0.113547 0.991684
v 0.088990 0.818938 -0.955851
vt 0.300049 0.009766
vn -0.059838 0.123347 0.990558
v 0.095612 0.855651 -0.952865
vt 0.285645 0.005371
vn -0.060572 0.113547 0.991684
v 0.093250 0.820875 -0.946054
vt 0.300049 0.005371
vn -0.059838 0.123347 0.990558
v 0.095578 0.927480 -0.954220
vt 0.256836 0.036133
vn -0.045754 0.087668 0.995098
v 0.099692 0.925659 -0.964100
vt 0.256836 0.040527
vn -0.045754 0.087668 0.995098
v 0.093663 0.892603 -0.949024
vt 0.271240 0.036133
vn -0.052896 0.101954 0.993382
v 0.097767 0.890587 -0.958866
vt 0.271240 0.040527
vn -0.052896 0.101954 0.993382
v 0.085530 0.928643 -0.950166
vt 0.256836 0.031738
vn -0.045754 0.087668 0.995098
v 0.083621 0.893879 -0.944991
vt 0.271240 0.031738
vn -0.052896 0.101954 0.993382
v 0.075435 0.928466 -0.954313
vt 0.256836 0.027344
vn -0.045754 0.087668 0.995098
v 0.073524 0.893667 -0.949129
vt 0.271240 0.027344
vn -0.052896 0.101954 0.993382
v 0.081485 0.859265 -0.939059
vt 0.285645 0.031738
vn -0.060572 0.113547 0.991684
v 0.079143 0.824827 -0.932331
vt 0.300049 0.031738
vn -0.059838 0.123347 0.990558
v 0.071385 0.859013 -0.943186
vt 0.285645 0.027344
vn -0.060572 0.113547 0.991684
v 0.069040 0.824528 -0.936443
vt 0.300049 0.027344
vn -0.059838 0.123347 0.990558
v 0.081261 0.720949 -0.911100
vt 0.343018 0.036133
vn -0.066422 0.158640 0.985100
v 0.085289 0.717777 -0.920615
vt 0.343018 0.040527
vn -0.066422 0.158640 0.985100
v 0.078509 0.687302 -0.901109
vt 0.357422 0.036133
vn -0.066088 0.168780 0.983436
v 0.082517 0.683859 -0.910523
vt 0.357422 0.040527
vn -0.066088 0.168780 0.983436
v 0.056835 0.719765 -0.920860
vt 0.343018 0.022949
vn -0.066422 0.158640 0.985100
v 0.054067 0.685922 -0.910786
vt 0.357422 0.022949
vn -0.066088 0.168780 0.983436
v 0.060863 0.716593 -0.930375
vt 0.343018 0.018555
vn -0.066422 0.158640 0.985100
v 0.058075 0.682478 -0.920200
vt 0.357422 0.018555
vn -0.066088 0.168780 0.983436
v 0.066311 0.785441 -0.948295
vt 0.314209 0.018555
vn -0.067132 0.137961 0.988160
v 0.062247 0.788111 -0.938617
vt 0.314209 0.022949
vn -0.067132 0.137961 0.988160
v 0.063628 0.750914 -0.939753
vt 0.328613 0.018555
vn -0.066769 0.148337 0.986680
v 0.059581 0.753828 -0.930150
vt 0.328613 0.022949
vn -0.066769 0.148337 0.986680
v 0.083752 0.749566 -0.939594
vt 0.328613 0.009766
vn -0.066769 0.148337 0.986680
v 0.086438 0.784158 -0.948150
vt 0.314209 0.009766
vn -0.067132 0.137961 0.988160
v 0.073640 0.749148 -0.943665
vt 0.328613 0.014160
vn -0.066769 0.148337 0.986680
v 0.076331 0.783804 -0.952244
vt 0.314209 0.014160
vn -0.067132 0.137961 0.988160
v 0.090712 0.786297 -0.938411
vt 0.314209 0.005371
vn -0.067132 0.137961 0.988160
v 0.088041 0.751922 -0.929925
vt 0.328613 0.005371
vn -0.066769 0.148337 0.986680
v 0.070866 0.714697 -0.934245
vt 0.343018 0.014160
vn -0.066422 0.158640 0.985100
v 0.068068 0.680448 -0.924022
vt 0.357422 0.014160
vn -0.066088 0.168780 0.983436
v 0.080983 0.715187 -0.930202
vt 0.343018 0.009766
vn -0.066422 0.158640 0.985100
v 0.078192 0.681020 -0.920013
vt 0.357422 0.009766
vn -0.066088 0.168780 0.983436
v 0.085289 0.717777 -0.920615
vt 0.343018 0.005371
vn -0.066422 0.158640 0.985100
v 0.082517 0.683859 -0.910523
vt 0.357422 0.005371
vn -0.066088 0.168780 0.983436
v 0.086649 0.788967 -0.928733
vt 0.314209 0.036133
vn -0.067132 0.137961 0.988160
v 0.090712 0.786297 -0.938411
vt 0.314209 0.040527
vn -0.067132 0.137961 0.988160
v 0.083994 0.754837 -0.920322
vt 0.328613 0.036133
vn -0.066769 0.148337 0.986680
v 0.088041 0.751922 -0.929925
vt 0.328613 0.040527
vn -0.066769 0.148337 0.986680
v 0.076628 0.790604 -0.924784
vt 0.314209 0.031738
vn -0.067132 0.137961 0.988160
v 0.073983 0.756602 -0.916410
vt 0.328613 0.031738
vn -0.066769 0.148337 0.986680
v 0.066521 0.790250 -0.928878
vt 0.314209 0.027344
vn -0.067132 0.137961 0.988160
v 0.063870 0.756184 -0.920481
vt 0.328613 0.027344
vn -0.066769 0.148337 0.986680
v 0.071259 0.722845 -0.907231
vt 0.343018 0.031738
vn -0.066422 0.158640 0.985100
v 0.068517 0.689333 -0.897287
vt 0.357422 0.031738
vn -0.066088 0.168780 0.983436
v 0.061141 0.722355 -0.911273
vt 0.343018 0.027344
vn -0.066422 0.158640 0.985100
v 0.058392 0.688761 -0.901295
vt 0.357422 0.027344
vn -0.066088 0.168780 0.983436
v 0.043457 0.553033 -0.862842
vt 0.414795 0.022949
vn -0.064610 0.208083 0.975975
v 0.040883 0.520718 -0.848542
vt 0.429199 0.022949
vn -0.064424 0.221784 0.972965
v 0.047361 0.548373 -0.871655
vt 0.414795 0.018555
vn -0.064610 0.208083 0.975975
v 0.044752 0.515719 -0.857122
vt 0.429199 0.018555
vn -0.064424 0.221784 0.972965
v 0.055324 0.648564 -0.909288
vt 0.371826 0.018555
vn -0.065239 0.177516 0.981953
v 0.051339 0.652291 -0.899990
vt 0.371826 0.022949
vn -0.065239 0.177516 0.981953
v 0.052631 0.614869 -0.897625
vt 0.386230 0.018555
vn -0.065165 0.184530 0.980664
v 0.048670 0.618894 -0.888461
vt 0.386230 0.022949
vn -0.065165 0.184530 0.980664
v 0.072742 0.613323 -0.897413
vt 0.386230 0.009766
vn -0.065165 0.184530 0.980664
v 0.075438 0.647058 -0.909089
vt 0.371826 0.009766
vn -0.065239 0.177516 0.981953
v 0.062602 0.612562 -0.901333
vt 0.386230 0.014160
vn -0.065165 0.184530 0.980664
v 0.065306 0.646396 -0.913056
vt 0.371826 0.014160
vn -0.065239 0.177516 0.981953
v 0.079784 0.650163 -0.899708
vt 0.371826 0.005371
vn -0.065239 0.177516 0.981953
v 0.077111 0.616708 -0.888161
vt 0.386230 0.005371
vn -0.065165 0.184530 0.980664
v 0.057305 0.545773 -0.875203
vt 0.414795 0.014160
vn -0.064610 0.208083 0.975975
v 0.054681 0.512965 -0.860564
vt 0.429199 0.014160
vn -0.064424 0.221784 0.972965
v 0.067466 0.546756 -0.871408
vt 0.414795 0.009766
vn -0.064610 0.208083 0.975975
v 0.064854 0.514069 -0.856851
vt 0.429199 0.009766
vn -0.064424 0.221784 0.972965
v 0.070090 0.579868 -0.884889
vt 0.400391 0.009766
vn -0.064992 0.198462 0.977951
v 0.059940 0.578999 -0.888752
vt 0.400391 0.014160
vn -0.064992 0.198462 0.977951
v 0.074485 0.583548 -0.875791
vt 0.400391 0.005371
vn -0.064810 0.194316 0.978796
v 0.071889 0.550747 -0.862493
vt 0.414795 0.005371
vn -0.064610 0.208083 0.975975
v 0.069310 0.518385 -0.848157
vt 0.429199 0.005371
vn -0.064424 0.221784 0.972965
v 0.049982 0.581451 -0.885117
vt 0.400391 0.018555
vn -0.064992 0.198462 0.977951
v 0.046048 0.585786 -0.876112
vt 0.400391 0.022949
vn -0.064810 0.194316 0.978796
v 0.075798 0.653890 -0.890411
vt 0.371826 0.036133
vn -0.065499 0.174634 0.982452
v 0.079784 0.650163 -0.899708
vt 0.371826 0.040527
vn -0.065499 0.174634 0.982452
v 0.073150 0.620733 -0.878998
vt 0.386230 0.036133
vn -0.065165 0.184530 0.980664
v 0.077111 0.616708 -0.888161
vt 0.386230 0.040527
vn -0.065165 0.184530 0.980664
v 0.065816 0.656058 -0.886642
vt 0.371826 0.031738
vn -0.065499 0.174634 0.982452
v 0.063179 0.623040 -0.875290
vt 0.386230 0.031738
vn -0.065165 0.184530 0.980664
v 0.055685 0.655396 -0.890610
vt 0.371826 0.027344
vn -0.065499 0.174634 0.982452
v 0.053040 0.622279 -0.879210
vt 0.386230 0.027344
vn -0.065165 0.184530 0.980664
v 0.058041 0.558007 -0.850132
vt 0.414795 0.031738
vn -0.064610 0.208083 0.975975
v 0.055511 0.526139 -0.836135
vt 0.429199 0.031738
vn -0.064249 0.217580 0.973926
v 0.047881 0.557023 -0.853927
vt 0.414795 0.027344
vn -0.064610 0.208083 0.975975
v 0.045339 0.525034 -0.839848
vt 0.429199 0.027344
vn -0.063956 0.220229 0.973349
v 0.050443 0.589466 -0.867014
vt 0.400391 0.027344
vn -0.064810 0.194316 0.978796
v 0.060592 0.590335 -0.863151
vt 0.400391 0.031738
vn -0.064810 0.194316 0.978796
v 0.070551 0.587884 -0.866786
vt 0.400391 0.036133
vn -0.064810 0.194316 0.978796
v 0.074485 0.583548 -0.875791
vt 0.400391 0.040527
vn -0.064810 0.194316 0.978796
v 0.021876 0.308015 -0.426100
vt 0.208862 0.078613
vn -0.049260 0.953008 0.298913
v 0.024415 0.300155 -0.421304
vt 0.208862 0.083008
vn -0.049485 0.950311 0.307343
v 0.020107 0.333304 -0.402379
vt 0.223267 0.078613
vn -0.041264 0.965360 0.257636
v 0.022579 0.325774 -0.396795
vt 0.223267 0.083008
vn -0.041608 0.963764 0.263492
v 0.047093 0.324018 -0.702439
vt 0.080139 0.078613
vn -0.073525 0.378577 0.922645
v 0.050548 0.316211 -0.707470
vt 0.080139 0.083008
vn -0.073189 0.380429 0.921909
v 0.044245 0.302025 -0.675825
vt 0.094482 0.078613
vn -0.075199 0.417123 0.905734
v 0.047610 0.293811 -0.679977
vt 0.094482 0.083008
vn -0.075336 0.421646 0.903625
v 0.057792 0.431153 -0.790083
vt 0.022736 0.078613
vn -0.078235 0.280880 0.956549
v 0.061529 0.425039 -0.797635
vt 0.022720 0.083008
vn -0.063667 0.279265 0.958101
v 0.055196 0.402208 -0.770751
vt 0.037079 0.078613
vn -0.063677 0.289989 0.954909
v 0.058874 0.395688 -0.777815
vt 0.037079 0.083008
vn -0.064123 0.291942 0.954284
v 0.033123 0.427526 -0.798211
vt 0.022736 0.065918
vn -0.063667 0.279265 0.958101
v 0.030480 0.398240 -0.778495
vt 0.037079 0.065918
vn -0.064123 0.291942 0.954284
v 0.036859 0.421412 -0.805763
vt 0.022736 0.061523
vn -0.078424 0.285139 0.955272
v 0.034159 0.391719 -0.785559
vt 0.037079 0.061523
vn -0.063827 0.294236 0.953599
v 0.042142 0.483586 -0.841391
vt 0.443604 0.018555
vn -0.063941 0.237825 0.969201
v 0.038311 0.488940 -0.833091
vt 0.443604 0.022949
vn -0.064206 0.235307 0.969798
v 0.039516 0.452099 -0.824321
vt 0.458008 0.018555
vn -0.064123 0.252873 0.965372
v 0.035729 0.457825 -0.816361
vt 0.458008 0.022949
vn -0.063689 0.251178 0.965843
v 0.059608 0.450380 -0.823972
vt 0.458008 0.009766
vn -0.063849 0.255335 0.964742
v 0.062239 0.481902 -0.841086
vt 0.443604 0.009766
vn -0.063941 0.237825 0.969201
v 0.049407 0.449015 -0.827474
vt 0.458008 0.014160
vn -0.063849 0.255335 0.964742
v 0.052054 0.480671 -0.844703
vt 0.443604 0.014160
vn -0.063941 0.237825 0.969201
v 0.066733 0.486560 -0.832660
vt 0.443604 0.005371
vn -0.064206 0.235307 0.969798
v 0.064144 0.455393 -0.815867
vt 0.458008 0.005371
vn -0.063689 0.251178 0.965843
v 0.046727 0.418151 -0.808722
vt 0.022736 0.057129
vn -0.063802 0.272758 0.959965
v 0.043999 0.388271 -0.788285
vt 0.037079 0.057129
vn -0.063827 0.294236 0.953599
v 0.056945 0.419653 -0.805355
vt 0.022736 0.052734
vn -0.049520 0.268737 0.961940
v 0.054236 0.389915 -0.785078
vt 0.037079 0.052734
vn -0.063827 0.294236 0.953599
v 0.056945 0.419653 -0.805355
vt 0.472168 0.009766
vn -0.078048 0.276683 0.957787
v 0.046727 0.418151 -0.808722
vt 0.472168 0.014160
vn -0.063802 0.272758 0.959965
v 0.061529 0.425039 -0.797635
vt 0.472168 0.005371
vn -0.063731 0.261983 0.962966
v 0.061529 0.425039 -0.797635
vt 0.022720 0.048340
vn -0.063819 0.283476 0.956853
v 0.058874 0.395688 -0.777815
vt 0.037079 0.048340
vn -0.064123 0.291942 0.954284
v 0.036859 0.421412 -0.805763
vt 0.472168 0.018555
vn -0.049277 0.260379 0.964248
v 0.033123 0.427526 -0.798211
vt 0.472168 0.022949
vn -0.063731 0.261983 0.962966
v 0.062902 0.491914 -0.824360
vt 0.443604 0.036133
vn -0.064206 0.235307 0.969798
v 0.066733 0.486560 -0.832660
vt 0.443604 0.040527
vn -0.064206 0.235307 0.969798
v 0.060357 0.461119 -0.807906
vt 0.458008 0.036133
vn -0.063689 0.251178 0.965843
v 0.064144 0.455393 -0.815867
vt 0.458008 0.040527
vn -0.063689 0.251178 0.965843
v 0.052991 0.494829 -0.821048
vt 0.443604 0.031738
vn -0.064206 0.235307 0.969798
v 0.050466 0.464203 -0.804754
vt 0.458008 0.031738
vn -0.063689 0.251178 0.965843
v 0.042805 0.493597 -0.824665
vt 0.443604 0.027344
vn -0.064206 0.235307 0.969798
v 0.040265 0.462838 -0.808256
vt 0.458008 0.027344
vn -0.063689 0.251178 0.965843
v 0.047925 0.434414 -0.787123
vt 0.022720 0.074219
vn -0.063646 0.268537 0.961164
v 0.045356 0.405656 -0.768024
vt 0.037079 0.074219
vn -0.063677 0.289989 0.954909
v 0.037707 0.432912 -0.790490
vt 0.022736 0.069824
vn -0.049399 0.264573 0.963100
v 0.035118 0.404012 -0.771232
vt 0.037079 0.069824
vn -0.063677 0.289989 0.954909
v 0.037707 0.432912 -0.790490
vt 0.472168 0.027344
vn -0.071160 0.270243 0.960159
v 0.047925 0.434414 -0.787123
vt 0.472168 0.031738
vn -0.063646 0.268537 0.961164
v 0.057792 0.431153 -0.790083
vt 0.472168 0.036133
vn -0.049155 0.256247 0.965361
v 0.061529 0.425039 -0.797635
vt 0.472168 0.040527
vn -0.063731 0.261983 0.962966
v 0.022205 0.319012 -0.708633
vt 0.080139 0.065918
vn -0.073189 0.380429 0.921909
v 0.019288 0.296700 -0.681362
vt 0.094482 0.065918
vn -0.075336 0.421646 0.903625
v 0.025661 0.311204 -0.713663
vt 0.080139 0.061523
vn -0.073673 0.383034 0.920791
v 0.022653 0.288486 -0.685514
vt 0.094482 0.061523
vn -0.075336 0.421646 0.903625
v 0.031400 0.363255 -0.763554
vt 0.051422 0.061523
vn -0.064299 0.317725 0.946000
v 0.027788 0.370199 -0.757071
vt 0.051422 0.065918
vn -0.064299 0.317725 0.946000
v 0.028572 0.336297 -0.739630
vt 0.065735 0.061523
vn -0.072149 0.349780 0.934050
v 0.025034 0.343675 -0.733823
vt 0.065735 0.065918
vn -0.064828 0.345631 0.936128
v 0.048628 0.334380 -0.738942
vt 0.065735 0.052734
vn -0.072149 0.349780 0.934050
v 0.051468 0.361398 -0.762981
vt 0.051422 0.052734
vn -0.064299 0.317725 0.946000
v 0.038345 0.332447 -0.741750
vt 0.065735 0.057129
vn -0.072149 0.349780 0.934050
v 0.041209 0.359609 -0.766002
vt 0.051422 0.057129
vn -0.063987 0.319811 0.945318
v 0.056168 0.367572 -0.756259
vt 0.051422 0.048340
vn -0.064299 0.317725 0.946000
v 0.053397 0.340963 -0.732851
vt 0.065735 0.048340
vn -0.072149 0.349780 0.934050
v 0.035394 0.307150 -0.715406
vt 0.080139 0.057129
vn -0.073335 0.384889 0.920045
v 0.032342 0.284237 -0.686828
vt 0.094482 0.057129
vn -0.075829 0.424560 0.902219
v 0.045703 0.309224 -0.712840
vt 0.080139 0.052734
vn -0.073335 0.384889 0.920045
v 0.042679 0.286443 -0.684534
vt 0.094482 0.052734
vn -0.075829 0.424560 0.902219
v 0.050548 0.316211 -0.707470
vt 0.080139 0.048340
vn -0.073189 0.380429 0.921909
v 0.047610 0.293811 -0.679977
vt 0.094482 0.048340
vn -0.075690 0.419980 0.904371
v 0.052555 0.374517 -0.749775
vt 0.051422 0.078613
vn -0.064153 0.313404 0.947450
v 0.056168 0.367572 -0.756259
vt 0.051422 0.083008
vn -0.064299 0.317725 0.946000
v 0.049859 0.348342 -0.727044
vt 0.065735 0.078613
vn -0.071997 0.345449 0.935672
v 0.053397 0.340963 -0.732851
vt 0.065735 0.083008
vn -0.072149 0.349780 0.934050
v 0.042746 0.378162 -0.747327
vt 0.051422 0.074219
vn -0.064153 0.313404 0.947450
v 0.040086 0.352192 -0.724924
vt 0.065735 0.074219
vn -0.064689 0.341283 0.937732
v 0.032487 0.376374 -0.750349
vt 0.051422 0.069824
vn -0.064153 0.313404 0.947450
v 0.029803 0.350259 -0.727732
vt 0.065735 0.069824
vn -0.064689 0.341283 0.937732
v 0.037360 0.328073 -0.700696
vt 0.080139 0.074219
vn -0.073044 0.376029 0.923724
v 0.034556 0.306274 -0.674511
vt 0.094482 0.074219
vn -0.075199 0.417123 0.905734
v 0.027051 0.325999 -0.703262
vt 0.080139 0.069824
vn -0.073044 0.376029 0.923724
v 0.024219 0.304068 -0.676805
vt 0.094482 0.069824
vn -0.075199 0.417123 0.905734
v 0.035193 0.258141 -0.583352
vt 0.137329 0.078613
vn -0.104166 0.639028 0.762098
v 0.038238 0.249116 -0.584251
vt 0.137329 0.083008
vn -0.104903 0.643651 0.758095
v 0.032107 0.254722 -0.549302
vt 0.151733 0.078613
vn -0.122102 0.760196 0.638117
v 0.035037 0.245692 -0.548956
vt 0.151733 0.083008
vn -0.121081 0.764793 0.632797
v 0.010000 0.252181 -0.586496
vt 0.137329 0.065918
vn -0.104166 0.639028 0.762098
v 0.006831 0.248746 -0.551544
vt 0.151733 0.065918
vn -0.121081 0.764793 0.632797
v 0.013045 0.243156 -0.587395
vt 0.137329 0.061523
vn -0.104903 0.643651 0.758095
v 0.009760 0.239715 -0.551198
vt 0.151733 0.061523
vn -0.121081 0.764793 0.632797
v 0.019542 0.268865 -0.655064
vt 0.108765 0.061523
vn -0.086986 0.478371 0.873839
v 0.016277 0.277440 -0.651895
vt 0.108765 0.065918
vn -0.086428 0.475125 0.875664
v 0.016330 0.253326 -0.622272
vt 0.123108 0.061523
vn -0.093681 0.549295 0.830361
v 0.013171 0.262185 -0.620191
vt 0.123108 0.065918
vn -0.093567 0.544360 0.833617
v 0.036318 0.251182 -0.620909
vt 0.123108 0.052734
vn -0.093681 0.549295 0.830361
v 0.039550 0.266765 -0.653905
vt 0.108765 0.052734
vn -0.086986 0.478371 0.873839
v 0.025917 0.248769 -0.622569
vt 0.123108 0.057129
vn -0.093681 0.549295 0.830361
v 0.029182 0.264443 -0.655896
vt 0.108765 0.057129
vn -0.086986 0.478371 0.873839
v 0.044573 0.274470 -0.650256
vt 0.108765 0.048340
vn -0.078464 0.470717 0.878789
v 0.041440 0.259152 -0.618265
vt 0.123108 0.048340
vn -0.093567 0.544360 0.833617
v 0.022577 0.238519 -0.587110
vt 0.137329 0.057129
vn -0.104903 0.643651 0.758095
v 0.019235 0.235080 -0.550297
vt 0.151733 0.057129
vn -0.121081 0.764793 0.632797
v 0.033012 0.240988 -0.585807
vt 0.137329 0.052734
vn -0.104903 0.643651 0.758095
v 0.029705 0.237555 -0.549368
vt 0.151733 0.052734
vn -0.121081 0.764793 0.632797
v 0.038238 0.249116 -0.584251
vt 0.137329 0.048340
vn -0.104166 0.639028 0.762098
v 0.035037 0.245692 -0.548956
vt 0.151733 0.048340
vn -0.121081 0.764793 0.632797
v 0.041308 0.283045 -0.647088
vt 0.108765 0.078613
vn -0.078885 0.469322 0.879497
v 0.044573 0.274470 -0.650256
vt 0.108765 0.083008
vn -0.079011 0.473999 0.876973
v 0.038281 0.268011 -0.616184
vt 0.123108 0.078613
vn -0.092954 0.540522 0.836179
v 0.041440 0.259152 -0.618265
vt 0.123108 0.083008
vn -0.093681 0.549295 0.830361
v 0.031667 0.287467 -0.646256
vt 0.108765 0.074219
vn -0.078337 0.466042 0.881288
v 0.028694 0.272569 -0.615887
vt 0.123108 0.074219
vn -0.092954 0.540522 0.836179
v 0.021299 0.285146 -0.648247
vt 0.108765 0.069824
vn -0.086849 0.473670 0.876410
v 0.018293 0.270156 -0.617547
vt 0.123108 0.069824
vn -0.092954 0.540522 0.836179
v 0.025661 0.262777 -0.583637
vt 0.137329 0.074219
vn -0.104103 0.633913 0.766366
v 0.022633 0.259358 -0.550203
vt 0.151733 0.074219
vn -0.122102 0.760196 0.638117
v 0.015226 0.260309 -0.584939
vt 0.137329 0.069824
vn -0.104166 0.639028 0.762098
v 0.012163 0.256882 -0.551132
vt 0.151733 0.069824
vn -0.122102 0.760196 0.638117
v -0.003681 0.302886 -0.425129
vt 0.208862 0.065918
vn -0.042448 0.950616 0.307452
v -0.005499 0.328439 -0.400827
vt 0.223267 0.065918
vn -0.034538 0.963389 0.265873
v -0.001142 0.295027 -0.420334
vt 0.208862 0.061523
vn -0.049485 0.950311 0.307343
v -0.003027 0.320910 -0.395243
vt 0.223267 0.061523
vn -0.034622 0.962239 0.269996
v 0.006594 0.243830 -0.515060
vt 0.166016 0.061523
vn -0.091181 0.852318 0.515014
v 0.003777 0.252690 -0.516658
vt 0.166016 0.065918
vn -0.091181 0.852318 0.515014
v 0.003675 0.255188 -0.480539
vt 0.180298 0.061523
vn -0.072073 0.900732 0.428355
v 0.000963 0.263754 -0.483326
vt 0.180298 0.065918
vn -0.071937 0.903000 0.423576
v 0.023577 0.253131 -0.478225
vt 0.180298 0.052734
vn -0.072073 0.900732 0.428355
v 0.026517 0.241712 -0.512983
vt 0.166016 0.052734
vn -0.091899 0.849786 0.519055
v 0.013042 0.250787 -0.478426
vt 0.180298 0.057129
vn -0.072073 0.900732 0.428355
v 0.016013 0.239283 -0.513538
vt 0.166016 0.057129
vn -0.091899 0.849786 0.519055
v 0.031952 0.249694 -0.513719
vt 0.166016 0.048340
vn -0.091181 0.852318 0.515014
v 0.029108 0.260845 -0.480054
vt 0.180298 0.048340
vn -0.071937 0.903000 0.423576
v 0.008139 0.290971 -0.417227
vt 0.208862 0.057129
vn -0.049485 0.950311 0.307343
v 0.006220 0.317010 -0.391749
vt 0.223267 0.057129
vn -0.041464 0.963140 0.265787
v 0.018725 0.293096 -0.417629
vt 0.208862 0.052734
vn -0.049485 0.950311 0.307343
v 0.016826 0.319025 -0.392392
vt 0.223267 0.052734
vn -0.041464 0.963140 0.265787
v 0.020971 0.270714 -0.446258
vt 0.194580 0.052734
vn -0.059363 0.931114 0.359864
v 0.010408 0.268477 -0.446137
vt 0.194580 0.057129
vn -0.059074 0.930363 0.361848
v 0.026587 0.278105 -0.449074
vt 0.194580 0.048340
vn -0.058825 0.933784 0.352969
v 0.024415 0.300155 -0.421304
vt 0.208862 0.048340
vn -0.049373 0.951664 0.303145
v 0.022579 0.325774 -0.396795
vt 0.223267 0.048340
vn -0.034455 0.964504 0.261812
v 0.001087 0.272705 -0.448783
vt 0.194580 0.061523
vn -0.059363 0.931114 0.359864
v -0.001532 0.280921 -0.452645
vt 0.194580 0.065918
vn -0.058949 0.932097 0.357379
v 0.029135 0.258554 -0.515317
vt 0.166016 0.078613
vn -0.091181 0.852318 0.515014
v 0.031952 0.249694 -0.513719
vt 0.166016 0.083008
vn -0.091899 0.849786 0.519055
v 0.026396 0.269411 -0.482841
vt 0.180298 0.078613
vn -0.071937 0.903000 0.423576
v 0.029108 0.260845 -0.480054
vt 0.180298 0.083008
vn -0.079897 0.902463 0.423294
v 0.019716 0.263101 -0.516839
vt 0.166016 0.074219
vn -0.091181 0.852318 0.515014
v 0.017029 0.273812 -0.484954
vt 0.180298 0.074219
vn -0.071937 0.903000 0.423576
v 0.009213 0.260672 -0.517395
vt 0.166016 0.069824
vn -0.091181 0.852318 0.515014
v 0.006494 0.271469 -0.485155
vt 0.180298 0.069824
vn -0.071937 0.903000 0.423576
v 0.012595 0.312070 -0.429207
vt 0.208862 0.074219
vn -0.049260 0.953008 0.298913
v 0.010860 0.337203 -0.405873
vt 0.223267 0.074219
vn -0.034604 0.965137 0.259446
v 0.002009 0.309946 -0.428804
vt 0.208862 0.069824
vn -0.042351 0.951976 0.303228
v 0.000253 0.335188 -0.405230
vt 0.223267 0.069824
vn -0.034455 0.964504 0.261812
v 0.004085 0.288312 -0.455461
vt 0.194580 0.069824
vn -0.058825 0.933784 0.352969
v 0.014647 0.290549 -0.455581
vt 0.194580 0.074219
vn -0.058825 0.933784 0.352969
v 0.023968 0.286321 -0.452935
vt 0.194580 0.078613
vn -0.058825 0.933784 0.352969
v 0.026587 0.278105 -0.449074
vt 0.194580 0.083008
vn -0.059363 0.931114 0.359864
v 0.013980 0.554702 -0.298132
vt 0.323486 0.078613
vn -0.007051 0.989498 0.144376
v 0.016231 0.548049 -0.290198
vt 0.323486 0.083008
vn -0.007051 0.989498 0.144376
v 0.013613 0.588109 -0.286226
vt 0.337891 0.078613
vn -0.007011 0.988629 0.150210
v 0.015854 0.581383 -0.278300
vt 0.337891 0.083008
vn -0.007031 0.989066 0.147307
v 0.016411 0.422410 -0.347557
vt 0.266113 0.078613
vn -0.020684 0.984849 0.172177
v 0.018744 0.415574 -0.340382
vt 0.266113 0.083008
vn -0.020672 0.983664 0.178823
v 0.015605 0.454784 -0.333738
vt 0.280518 0.078613
vn -0.013983 0.987495 0.157031
v 0.017909 0.448068 -0.326248
vt 0.280518 0.083008
vn -0.013905 0.987036 0.159898
v -0.009297 0.418179 -0.344774
vt 0.266113 0.065918
vn -0.020742 0.984150 0.176120
v -0.010124 0.450700 -0.330687
vt 0.280518 0.065918
vn -0.013983 0.987495 0.157031
v -0.006963 0.411343 -0.337599
vt 0.266113 0.061523
vn -0.020672 0.983664 0.178823
v -0.007820 0.443984 -0.323197
vt 0.280518 0.061523
vn -0.013905 0.987036 0.159898
v -0.004601 0.349370 -0.373300
vt 0.237549 0.061523
vn -0.027579 0.971761 0.234351
v -0.007017 0.356614 -0.379535
vt 0.237549 0.065918
vn -0.027508 0.972731 0.230297
v -0.005901 0.379686 -0.354193
vt 0.251709 0.061523
vn -0.027506 0.978872 0.202615
v -0.008271 0.386698 -0.360953
vt 0.251709 0.065918
vn -0.020640 0.979029 0.202675
v 0.013933 0.377847 -0.351145
vt 0.251709 0.052734
vn -0.027506 0.978872 0.202615
v 0.015242 0.347516 -0.370335
vt 0.237549 0.052734
vn -0.034376 0.972524 0.230252
v 0.003296 0.376020 -0.350130
vt 0.251709 0.057129
vn -0.027506 0.978872 0.202615
v 0.004619 0.345601 -0.369489
vt 0.237549 0.057129
vn -0.034236 0.971938 0.232734
v 0.021046 0.353993 -0.375343
vt 0.237549 0.048340
vn -0.034289 0.973469 0.226237
v 0.019779 0.384097 -0.356643
vt 0.251709 0.048340
vn -0.027433 0.979686 0.198653
v 0.002216 0.407748 -0.333341
vt 0.266113 0.057129
vn -0.020672 0.983664 0.178823
v 0.001345 0.440431 -0.318795
vt 0.280518 0.057129
vn -0.013905 0.987036 0.159898
v 0.012864 0.409501 -0.334494
vt 0.266113 0.052734
vn -0.020672 0.983664 0.178823
v 0.012003 0.442123 -0.320058
vt 0.280518 0.052734
vn -0.013905 0.987036 0.159898
v 0.018744 0.415574 -0.340382
vt 0.266113 0.048340
vn -0.020742 0.984150 0.176120
v 0.017909 0.448068 -0.326248
vt 0.280518 0.048340
vn -0.013983 0.987495 0.157031
v 0.018630 0.361237 -0.381577
vt 0.237549 0.078613
vn -0.034201 0.974392 0.222239
v 0.021046 0.353993 -0.375343
vt 0.237549 0.083008
vn -0.034149 0.972896 0.228709
v 0.017409 0.391110 -0.363403
vt 0.251709 0.078613
vn -0.027535 0.980208 0.196049
v 0.019779 0.384097 -0.356643
vt 0.251709 0.083008
vn -0.027330 0.979156 0.201264
v 0.009410 0.365006 -0.385388
vt 0.237549 0.074219
vn -0.027438 0.973670 0.226304
v 0.008212 0.394776 -0.367466
vt 0.251709 0.074219
vn -0.020585 0.979846 0.198692
v -0.001213 0.363091 -0.384542
vt 0.237549 0.069824
vn -0.027438 0.973670 0.226304
v -0.002425 0.392949 -0.366452
vt 0.251709 0.069824
vn -0.027359 0.980480 0.194709
v 0.007231 0.426005 -0.351815
vt 0.266113 0.074219
vn -0.020684 0.984849 0.172177
v 0.006440 0.458337 -0.338140
vt 0.280518 0.074219
vn -0.013942 0.988115 0.153085
v -0.003417 0.424252 -0.350662
vt 0.266113 0.069824
vn -0.020684 0.984849 0.172177
v -0.004218 0.456645 -0.336877
vt 0.280518 0.069824
vn -0.013983 0.987495 0.157031
v -0.011792 0.550883 -0.294596
vt 0.323486 0.065918
vn -0.007051 0.989498 0.144376
v -0.012168 0.584323 -0.282624
vt 0.337891 0.065918
vn -0.007011 0.988629 0.150210
v -0.009541 0.544230 -0.286662
vt 0.323486 0.061523
vn -0.007051 0.989498 0.144376
v -0.009927 0.577597 -0.274698
vt 0.337891 0.061523
vn -0.007011 0.988629 0.150210
v -0.008511 0.477235 -0.310376
vt 0.294922 0.061523
vn -0.014060 0.988994 0.147288
v -0.010793 0.483883 -0.318093
vt 0.294922 0.065918
vn -0.014018 0.989572 0.143353
v -0.009075 0.510706 -0.298398
vt 0.309082 0.061523
vn -0.007051 0.989498 0.144376
v -0.011340 0.517333 -0.306262
vt 0.309082 0.065918
vn -0.007051 0.989498 0.144376
v 0.010741 0.508764 -0.295258
vt 0.309082 0.052734
vn -0.007051 0.989498 0.144376
v 0.011308 0.475340 -0.307226
vt 0.294922 0.052734
vn -0.014060 0.988994 0.147288
v 0.000071 0.507157 -0.293840
vt 0.309082 0.057129
vn -0.007051 0.989498 0.144376
v 0.000644 0.473697 -0.305874
vt 0.294922 0.057129
vn -0.014060 0.988994 0.147288
v 0.017236 0.481203 -0.313638
vt 0.294922 0.048340
vn -0.014018 0.989572 0.143353
v 0.016685 0.514586 -0.301821
vt 0.309082 0.048340
vn -0.007051 0.989498 0.144376
v -0.000401 0.540644 -0.282088
vt 0.323486 0.057129
vn -0.007051 0.989498 0.144376
v -0.000792 0.573950 -0.270148
vt 0.337891 0.057129
vn -0.007031 0.989066 0.147307
v 0.010274 0.542226 -0.283553
vt 0.323486 0.052734
vn -0.007051 0.989498 0.144376
v 0.009887 0.575519 -0.271641
vt 0.337891 0.052734
vn -0.007031 0.989066 0.147307
v 0.016231 0.548049 -0.290198
vt 0.323486 0.048340
vn -0.007051 0.989498 0.144376
v 0.015854 0.581383 -0.278300
vt 0.337891 0.048340
vn -0.007011 0.988629 0.150210
v 0.014954 0.487850 -0.321355
vt 0.294922 0.078613
vn -0.014018 0.989572 0.143353
v 0.017236 0.481203 -0.313638
vt 0.294922 0.083008
vn -0.014018 0.989572 0.143353
v 0.014421 0.521213 -0.309685
vt 0.309082 0.078613
vn -0.007105 0.989924 0.141423
v 0.016685 0.514586 -0.301821
vt 0.309082 0.083008
vn -0.007051 0.989498 0.144376
v 0.005799 0.491389 -0.325856
vt 0.294922 0.074219
vn -0.014058 0.989992 0.140424
v 0.005275 0.524763 -0.314243
vt 0.309082 0.074219
vn -0.007105 0.989924 0.141423
v -0.004865 0.489745 -0.324505
vt 0.294922 0.069824
vn -0.014018 0.989572 0.143353
v -0.005396 0.523156 -0.312825
vt 0.309082 0.069824
vn -0.007105 0.989924 0.141423
v 0.004840 0.558288 -0.302706
vt 0.323486 0.074219
vn -0.007051 0.989498 0.144376
v 0.004478 0.591756 -0.290776
vt 0.337891 0.074219
vn -0.007011 0.988629 0.150210
v -0.005835 0.556706 -0.301242
vt 0.323486 0.069824
vn -0.007051 0.989498 0.144376
v -0.006201 0.590188 -0.289284
vt 0.337891 0.069824
vn -0.007011 0.988629 0.150210
v 0.012837 0.686037 -0.243851
vt 0.380859 0.078613
vn -0.000018 0.978656 0.205503
v 0.015061 0.678780 -0.236460
vt 0.380859 0.083008
vn -0.000018 0.979499 0.201450
v 0.012658 0.716948 -0.225915
vt 0.395264 0.078613
vn -0.000018 0.971756 0.235987
v 0.014880 0.709392 -0.218901
vt 0.395264 0.083008
vn -0.000018 0.972733 0.231929
v -0.012961 0.682168 -0.240346
vt 0.380859 0.065918
vn -0.000018 0.978954 0.204080
v -0.013143 0.712981 -0.222556
vt 0.395264 0.065918
vn -0.000018 0.972133 0.234431
v -0.010737 0.674911 -0.232954
vt 0.380859 0.061523
vn -0.000018 0.978954 0.204080
v -0.010920 0.705424 -0.215542
vt 0.395264 0.061523
vn -0.000018 0.972733 0.231929
v -0.010248 0.610653 -0.262055
vt 0.352295 0.061523
vn -0.007032 0.986931 0.160990
v -0.012481 0.617501 -0.269893
vt 0.352295 0.065918
vn -0.007032 0.986931 0.160990
v -0.010515 0.643182 -0.248296
vt 0.366699 0.061523
vn -0.000018 0.983420 0.181342
v -0.012743 0.650205 -0.255959
vt 0.366699 0.065918
vn -0.006971 0.984124 0.177348
v 0.009299 0.640909 -0.245417
vt 0.366699 0.052734
vn -0.000018 0.983420 0.181342
v 0.009565 0.608485 -0.259073
vt 0.352295 0.052734
vn -0.007032 0.986931 0.160990
v -0.001385 0.639331 -0.243929
vt 0.366699 0.057129
vn -0.000018 0.983420 0.181342
v -0.001116 0.606919 -0.257573
vt 0.352295 0.057129
vn -0.007032 0.986931 0.160990
v 0.015540 0.614435 -0.265677
vt 0.352295 0.048340
vn -0.000018 0.986297 0.164977
v 0.015279 0.646990 -0.251887
vt 0.366699 0.048340
vn -0.000018 0.983420 0.181342
v -0.001608 0.670913 -0.228754
vt 0.380859 0.057129
vn -0.000018 0.979499 0.201450
v -0.001792 0.701243 -0.211566
vt 0.395264 0.057129
vn -0.000018 0.972733 0.231929
v 0.009078 0.672515 -0.230206
vt 0.380859 0.052734
vn -0.000018 0.979499 0.201450
v 0.008895 0.702887 -0.212958
vt 0.395264 0.052734
vn -0.000018 0.972733 0.231929
v 0.015061 0.678780 -0.236460
vt 0.380859 0.048340
vn -0.000018 0.978954 0.204080
v 0.014880 0.709392 -0.218901
vt 0.395264 0.048340
vn -0.000018 0.971756 0.235987
v 0.013307 0.621283 -0.273515
vt 0.352295 0.078613
vn -0.000018 0.986297 0.164977
v 0.015540 0.614435 -0.265677
vt 0.352295 0.083008
vn -0.000018 0.986297 0.164977
v 0.013051 0.654013 -0.259550
vt 0.366699 0.078613
vn -0.000018 0.983420 0.181342
v 0.015279 0.646990 -0.251887
vt 0.366699 0.083008
vn -0.000018 0.983420 0.181342
v 0.004175 0.625017 -0.277996
vt 0.352295 0.074219
vn -0.000018 0.986297 0.164977
v 0.003922 0.657863 -0.263916
vt 0.366699 0.074219
vn -0.000018 0.982912 0.184075
v -0.006507 0.623451 -0.276496
vt 0.352295 0.069824
vn -0.007032 0.986931 0.160990
v -0.006763 0.656286 -0.262429
vt 0.366699 0.069824
vn -0.000018 0.982912 0.184075
v 0.003708 0.690035 -0.248052
vt 0.380859 0.074219
vn -0.000018 0.978107 0.208104
v 0.003529 0.721129 -0.229891
vt 0.395264 0.074219
vn -0.000018 0.971153 0.238455
v -0.006977 0.688432 -0.246600
vt 0.380859 0.069824
vn -0.000018 0.978107 0.208104
v -0.007158 0.719486 -0.228499
vt 0.395264 0.069824
vn -0.000018 0.971756 0.235987
v -0.013648 0.810708 -0.120867
vt 0.452637 0.065918
vn -0.000020 0.895207 0.445650
v -0.013753 0.824360 -0.087783
vt 0.467041 0.065918
vn -0.000021 0.876473 0.481450
v -0.011418 0.801186 -0.116640
vt 0.452637 0.061523
vn -0.000020 0.895207 0.445650
v -0.011519 0.814174 -0.084551
vt 0.467041 0.061523
vn -0.000021 0.874541 0.484952
v -0.011073 0.734175 -0.195534
vt 0.409668 0.061523
vn -0.000019 0.962817 0.270153
v -0.013296 0.742104 -0.202050
vt 0.409668 0.065918
vn -0.000019 0.962314 0.271941
v -0.011202 0.760364 -0.172486
vt 0.423828 0.061523
vn -0.000019 0.947974 0.318349
v -0.013427 0.768746 -0.178372
vt 0.423828 0.065918
vn -0.000019 0.947254 0.320484
v 0.008616 0.757479 -0.170345
vt 0.423828 0.052734
vn -0.000019 0.947974 0.318349
v 0.008743 0.731475 -0.193152
vt 0.409668 0.052734
vn -0.000019 0.962817 0.270153
v -0.002072 0.755697 -0.169161
vt 0.423828 0.057129
vn -0.000019 0.948687 0.316216
v -0.001944 0.729772 -0.191848
vt 0.409668 0.057129
vn -0.000019 0.963465 0.267833
v 0.014729 0.738285 -0.198680
vt 0.409668 0.048340
vn -0.000019 0.961653 0.274270
v 0.014600 0.764666 -0.175344
vt 0.423828 0.048340
vn -0.000019 0.947254 0.320484
v -0.002285 0.795868 -0.114252
vt 0.452637 0.057129
vn -0.000020 0.895207 0.445650
v -0.002384 0.808484 -0.082721
vt 0.467041 0.057129
vn -0.000021 0.874541 0.484952
v 0.008403 0.797870 -0.115103
vt 0.452637 0.052734
vn -0.000020 0.895207 0.445650
v 0.008303 0.810622 -0.083366
vt 0.467041 0.052734
vn -0.000021 0.874541 0.484952
v 0.008504 0.779939 -0.144281
vt 0.438232 0.052734
vn -0.000020 0.926944 0.375201
v -0.002183 0.778058 -0.143248
vt 0.438232 0.057129
vn -0.000020 0.926944 0.375201
v 0.014487 0.787574 -0.148632
vt 0.438232 0.048340
vn -0.000020 0.925890 0.377792
v 0.014383 0.806018 -0.118694
vt 0.452637 0.048340
vn -0.000020 0.893635 0.448794
v 0.014280 0.819337 -0.086107
vt 0.467041 0.048340
vn -0.000021 0.876473 0.481450
v -0.011315 0.783031 -0.146139
vt 0.438232 0.061523
vn -0.000020 0.925890 0.377792
v -0.013542 0.791946 -0.151259
vt 0.438232 0.065918
vn -0.000020 0.925890 0.377792
v 0.012506 0.746215 -0.205196
vt 0.409668 0.078613
vn -0.000019 0.961653 0.274270
v 0.014729 0.738285 -0.198680
vt 0.409668 0.083008
vn -0.000019 0.962817 0.270153
v 0.012376 0.773047 -0.181230
vt 0.423828 0.078613
vn -0.000019 0.947254 0.320484
v 0.014600 0.764666 -0.175344
vt 0.423828 0.083008
vn -0.000019 0.948687 0.316216
v 0.003377 0.750618 -0.208881
vt 0.409668 0.074219
vn -0.000019 0.961126 0.276110
v 0.003246 0.777714 -0.184555
vt 0.423828 0.074219
vn -0.000019 0.946528 0.322623
v -0.007310 0.748915 -0.207578
vt 0.409668 0.069824
vn -0.000019 0.961653 0.274270
v -0.007442 0.775933 -0.183371
vt 0.423828 0.069824
vn -0.000019 0.946528 0.322623
v 0.003019 0.820858 -0.125309
vt 0.452637 0.074219
vn -0.000020 0.896012 0.444029
v 0.002911 0.835214 -0.091169
vt 0.467041 0.074219
vn -0.000021 0.878361 0.477998
v -0.007668 0.818856 -0.124458
vt 0.452637 0.069824
vn -0.000020 0.897562 0.440887
v -0.007775 0.833075 -0.090524
vt 0.467041 0.069824
vn -0.000021 0.876473 0.481450
v -0.007559 0.799580 -0.155609
vt 0.438232 0.069824
vn -0.000020 0.925890 0.377792
v 0.003129 0.801462 -0.156642
vt 0.438232 0.074219
vn -0.000020 0.925890 0.377792
v 0.012260 0.796489 -0.153752
vt 0.438232 0.078613
vn -0.000020 0.925890 0.377792
v 0.014487 0.787574 -0.148632
vt 0.438232 0.083008
vn -0.000020 0.926944 0.375201
usemtl lambert1
f 3/3/3 2/2/2 1/1/1
f 4/4/4 2/2/2 3/3/3
f 7/7/7 6/6/6 5/5/5
f 8/8/8 6/6/6 7/7/7
f 11/11/11 10/10/10 9/9/9
f 12/12/12 10/10/10 11/11/11
f 15/15/15 14/14/14 13/13/13
f 16/16/16 14/14/14 15/15/15
f 14/14/14 17/17/17 13/13/13
f 18/18/18 17/17/17 14/14/14
f 21/21/21 20/20/20 19/19/19
f 22/22/22 20/20/20 21/21/21
f 19/19/19 16/16/16 15/15/15
f 20/20/20 16/16/16 19/19/19
f 25/25/25 24/24/24 23/23/23
f 26/26/26 24/24/24 25/25/25
f 23/23/23 22/22/22 21/21/21
f 24/24/24 22/22/22 23/23/23
f 29/29/29 28/28/28 27/27/27
f 30/30/30 28/28/28 29/29/29
f 27/27/27 26/26/26 25/25/25
f 28/28/28 26/26/26 27/27/27
f 32/32/32 13/13/13 31/31/31
f 15/15/15 13/13/13 32/32/32
f 31/31/31 17/17/17 33/33/33
f 13/13/13 17/17/17 31/31/31
f 35/35/35 19/19/19 34/34/34
f 21/21/21 19/19/19 35/35/35
f 34/34/34 15/15/15 32/32/32
f 19/19/19 15/15/15 34/34/34
f 37/37/37 31/31/31 36/36/36
f 32/32/32 31/31/31 37/37/37
f 31/31/31 38/38/38 36/36/36
f 33/33/33 38/38/38 31/31/31
f 40/40/40 34/34/34 39/39/39
f 35/35/35 34/34/34 40/40/40
f 39/39/39 32/32/32 37/37/37
f 34/34/34 32/32/32 39/39/39
f 42/42/42 23/23/23 41/41/41
f 25/25/25 23/23/23 42/42/42
f 41/41/41 21/21/21 35/35/35
f 23/23/23 21/21/21 41/41/41
f 44/44/44 27/27/27 43/43/43
f 29/29/29 27/27/27 44/44/44
f 43/43/43 25/25/25 42/42/42
f 27/27/27 25/25/25 43/43/43
f 46/46/46 41/41/41 45/45/45
f 42/42/42 41/41/41 46/46/46
f 45/45/45 35/35/35 40/40/40
f 41/41/41 35/35/35 45/45/45
f 48/48/48 43/43/43 47/47/47
f 44/44/44 43/43/43 48/48/48
f 47/47/47 42/42/42 46/46/46
f 43/43/43 42/42/42 47/47/47
f 51/51/51 50/50/50 49/49/49
f 52/52/52 50/50/50 51/51/51
f 54/54/54 36/36/36 53/53/53
f 37/37/37 36/36/36 54/54/54
f 53/53/53 38/38/38 55/55/55
f 36/36/36 38/38/38 53/53/53
f 57/57/57 39/39/39 56/56/56
f 40/40/40 39/39/39 57/57/57
f 56/56/56 37/37/37 54/54/54
f 39/39/39 37/37/37 56/56/56
f 60/60/60 59/59/59 58/58/58
f 61/61/61 59/59/59 60/60/60
f 58/58/58 53/53/53 60/60/60
f 54/54/54 53/53/53 58/58/58
f 53/53/53 62/62/62 60/60/60
f 55/55/55 62/62/62 53/53/53
f 62/62/62 61/61/61 60/60/60
f 63/63/63 61/61/61 62/62/62
f 49/49/49 56/56/56 51/51/51
f 57/57/57 56/56/56 49/49/49
f 51/51/51 54/54/54 58/58/58
f 56/56/56 54/54/54 51/51/51
f 58/58/58 52/52/52 51/51/51
f 59/59/59 52/52/52 58/58/58
f 65/65/65 45/45/45 64/64/64
f 46/46/46 45/45/45 65/65/65
f 64/64/64 40/40/40 57/57/57
f 45/45/45 40/40/40 64/64/64
f 67/67/67 47/47/47 66/66/66
f 48/48/48 47/47/47 67/67/67
f 66/66/66 46/46/46 65/65/65
f 47/47/47 46/46/46 66/66/66
f 70/70/70 69/69/69 68/68/68
f 71/71/71 69/69/69 70/70/70
f 68/68/68 64/64/64 70/70/70
f 65/65/65 64/64/64 68/68/68
f 70/70/70 57/57/57 49/49/49
f 64/64/64 57/57/57 70/70/70
f 49/49/49 71/71/71 70/70/70
f 50/50/50 71/71/71 49/49/49
f 10/10/10 66/66/66 9/9/9
f 67/67/67 66/66/66 10/10/10
f 9/9/9 65/65/65 68/68/68
f 66/66/66 65/65/65 9/9/9
f 68/68/68 11/11/11 9/9/9
f 69/69/69 11/11/11 68/68/68
f 74/74/74 73/73/73 72/72/72
f 75/75/75 73/73/73 74/74/74
f 78/78/78 77/77/77 76/76/76
f 79/79/79 77/77/77 78/78/78
f 82/82/82 81/81/81 80/80/80
f 83/83/83 81/81/81 82/82/82
f 86/86/86 85/85/85 84/84/84
f 87/87/87 85/85/85 86/86/86
f 90/90/90 89/89/89 88/88/88
f 91/91/91 89/89/89 90/90/90
f 91/91/91 61/61/61 89/89/89
f 59/59/59 61/61/61 91/91/91
f 61/61/61 92/92/92 89/89/89
f 63/63/63 92/92/92 61/61/61
f 89/89/89 93/93/93 88/88/88
f 92/92/92 93/93/93 89/89/89
f 85/85/85 52/52/52 84/84/84
f 50/50/50 52/52/52 85/85/85
f 84/84/84 59/59/59 91/91/91
f 52/52/52 59/59/59 84/84/84
f 91/91/91 86/86/86 84/84/84
f 90/90/90 86/86/86 91/91/91
f 96/96/96 95/95/95 94/94/94
f 97/97/97 95/95/95 96/96/96
f 94/94/94 88/88/88 96/96/96
f 90/90/90 88/88/88 94/94/94
f 88/88/88 98/98/98 96/96/96
f 93/93/93 98/98/98 88/88/88
f 98/98/98 97/97/97 96/96/96
f 99/99/99 97/97/97 98/98/98
f 80/80/80 86/86/86 82/82/82
f 87/87/87 86/86/86 80/80/80
f 86/86/86 94/94/94 82/82/82
f 90/90/90 94/94/94 86/86/86
f 94/94/94 83/83/83 82/82/82
f 95/95/95 83/83/83 94/94/94
f 102/102/102 101/101/101 100/100/100
f 103/103/103 101/101/101 102/102/102
f 106/106/106 105/105/105 104/104/104
f 107/107/107 105/105/105 106/106/106
f 104/104/104 71/71/71 106/106/106
f 69/69/69 71/71/71 104/104/104
f 71/71/71 85/85/85 106/106/106
f 50/50/50 85/85/85 71/71/71
f 85/85/85 107/107/107 106/106/106
f 87/87/87 107/107/107 85/85/85
f 100/100/100 12/12/12 11/11/11
f 101/101/101 12/12/12 100/100/100
f 69/69/69 100/100/100 11/11/11
f 104/104/104 100/100/100 69/69/69
f 104/104/104 102/102/102 100/100/100
f 105/105/105 102/102/102 104/104/104
f 110/110/110 109/109/109 108/108/108
f 111/111/111 109/109/109 110/110/110
f 108/108/108 107/107/107 110/110/110
f 105/105/105 107/107/107 108/108/108
f 107/107/107 80/80/80 110/110/110
f 87/87/87 80/80/80 107/107/107
f 80/80/80 111/111/111 110/110/110
f 81/81/81 111/111/111 80/80/80
f 76/76/76 103/103/103 102/102/102
f 77/77/77 103/103/103 76/76/76
f 105/105/105 76/76/76 102/102/102
f 108/108/108 76/76/76 105/105/105
f 108/108/108 78/78/78 76/76/76
f 109/109/109 78/78/78 108/108/108
f 114/114/114 113/113/113 112/112/112
f 115/115/115 113/113/113 114/114/114
f 118/118/118 117/117/117 116/116/116
f 119/119/119 117/117/117 118/118/118
f 122/122/122 121/121/121 120/120/120
f 123/123/123 121/121/121 122/122/122
f 123/123/123 97/97/97 121/121/121
f 95/95/95 97/97/97 123/123/123
f 97/97/97 124/124/124 121/121/121
f 99/99/99 124/124/124 97/97/97
f 121/121/121 125/125/125 120/120/120
f 124/124/124 125/125/125 121/121/121
f 117/117/117 83/83/83 116/116/116
f 81/81/81 83/83/83 117/117/117
f 116/116/116 95/95/95 123/123/123
f 83/83/83 95/95/95 116/116/116
f 123/123/123 118/118/118 116/116/116
f 122/122/122 118/118/118 123/123/123
f 128/128/128 127/127/127 126/126/126
f 129/129/129 127/127/127 128/128/128
f 126/126/126 120/120/120 128/128/128
f 122/122/122 120/120/120 126/126/126
f 120/120/120 130/130/130 128/128/128
f 125/125/125 130/130/130 120/120/120
f 130/130/130 129/129/129 128/128/128
f 131/131/131 129/129/129 130/130/130
f 112/112/112 118/118/118 114/114/114
f 119/119/119 118/118/118 112/112/112
f 118/118/118 126/126/126 114/114/114
f 122/122/122 126/126/126 118/118/118
f 126/126/126 115/115/115 114/114/114
f 127/127/127 115/115/115 126/126/126
f 134/134/134 133/133/133 132/132/132
f 135/135/135 133/133/133 134/134/134
f 138/138/138 137/137/137 136/136/136
f 139/139/139 137/137/137 138/138/138
f 136/136/136 111/111/111 138/138/138
f 109/109/109 111/111/111 136/136/136
f 111/111/111 117/117/117 138/138/138
f 81/81/81 117/117/117 111/111/111
f 117/117/117 139/139/139 138/138/138
f 119/119/119 139/139/139 117/117/117
f 132/132/132 79/79/79 78/78/78
f 133/133/133 79/79/79 132/132/132
f 109/109/109 132/132/132 78/78/78
f 136/136/136 132/132/132 109/109/109
f 136/136/136 134/134/134 132/132/132
f 137/137/137 134/134/134 136/136/136
f 142/142/142 141/141/141 140/140/140
f 143/143/143 141/141/141 142/142/142
f 140/140/140 139/139/139 142/142/142
f 137/137/137 139/139/139 140/140/140
f 139/139/139 112/112/112 142/142/142
f 119/119/119 112/112/112 139/139/139
f 112/112/112 143/143/143 142/142/142
f 113/113/113 143/143/143 112/112/112
f 72/72/72 135/135/135 134/134/134
f 73/73/73 135/135/135 72/72/72
f 137/137/137 72/72/72 134/134/134
f 140/140/140 72/72/72 137/137/137
f 140/140/140 74/74/74 72/72/72
f 141/141/141 74/74/74 140/140/140
f 146/146/146 145/145/145 144/144/144
f 147/147/147 145/145/145 146/146/146
f 150/150/150 149/149/149 148/148/148
f 151/151/151 149/149/149 150/150/150
f 154/154/154 153/153/153 152/152/152
f 155/155/155 153/153/153 154/154/154
f 158/158/158 157/157/157 156/156/156
f 159/159/159 157/157/157 158/158/158
f 159/159/159 129/129/129 157/157/157
f 127/127/127 129/129/129 159/159/159
f 129/129/129 160/160/160 157/157/157
f 131/131/131 160/160/160 129/129/129
f 157/157/157 161/161/161 156/156/156
f 160/160/160 161/161/161 157/157/157
f 153/153/153 115/115/115 152/152/152
f 113/113/113 115/115/115 153/153/153
f 152/152/152 127/127/127 159/159/159
f 115/115/115 127/127/127 152/152/152
f 159/159/159 154/154/154 152/152/152
f 158/158/158 154/154/154 159/159/159
f 164/164/164 163/163/163 162/162/162
f 165/165/165 163/163/163 164/164/164
f 162/162/162 156/156/156 164/164/164
f 158/158/158 156/156/156 162/162/162
f 156/156/156 166/166/166 164/164/164
f 161/161/161 166/166/166 156/156/156
f 166/166/166 165/165/165 164/164/164
f 167/167/167 165/165/165 166/166/166
f 148/148/148 154/154/154 150/150/150
f 155/155/155 154/154/154 148/148/148
f 154/154/154 162/162/162 150/150/150
f 158/158/158 162/162/162 154/154/154
f 162/162/162 151/151/151 150/150/150
f 163/163/163 151/151/151 162/162/162
f 170/170/170 169/169/169 168/168/168
f 171/171/171 169/169/169 170/170/170
f 174/174/174 173/173/173 172/172/172
f 175/175/175 173/173/173 174/174/174
f 172/172/172 143/143/143 174/174/174
f 141/141/141 143/143/143 172/172/172
f 143/143/143 153/153/153 174/174/174
f 113/113/113 153/153/153 143/143/143
f 153/153/153 175/175/175 174/174/174
f 155/155/155 175/175/175 153/153/153
f 168/168/168 75/75/75 74/74/74
f 169/169/169 75/75/75 168/168/168
f 141/141/141 168/168/168 74/74/74
f 172/172/172 168/168/168 141/141/141
f 172/172/172 170/170/170 168/168/168
f 173/173/173 170/170/170 172/172/172
f 178/178/178 177/177/177 176/176/176
f 179/179/179 177/177/177 178/178/178
f 176/176/176 175/175/175 178/178/178
f 173/173/173 175/175/175 176/176/176
f 175/175/175 148/148/148 178/178/178
f 155/155/155 148/148/148 175/175/175
f 148/148/148 179/179/179 178/178/178
f 149/149/149 179/179/179 148/148/148
f 144/144/144 171/171/171 170/170/170
f 145/145/145 171/171/171 144/144/144
f 173/173/173 144/144/144 170/170/170
f 176/176/176 144/144/144 173/173/173
f 176/176/176 146/146/146 144/144/144
f 177/177/177 146/146/146 176/176/176
f 182/182/182 181/181/181 180/180/180
f 183/183/183 181/181/181 182/182/182
f 186/186/186 185/185/185 184/184/184
f 187/187/187 185/185/185 186/186/186
f 190/190/190 189/189/189 188/188/188
f 191/191/191 189/189/189 190/190/190
f 191/191/191 165/165/165 189/189/189
f 163/163/163 165/165/165 191/191/191
f 165/165/165 192/192/192 189/189/189
f 167/167/167 192/192/192 165/165/165
f 189/189/189 193/193/193 188/188/188
f 192/192/192 193/193/193 189/189/189
f 185/185/185 151/151/151 184/184/184
f 149/149/149 151/151/151 185/185/185
f 184/184/184 163/163/163 191/191/191
f 151/151/151 163/163/163 184/184/184
f 191/191/191 186/186/186 184/184/184
f 190/190/190 186/186/186 191/191/191
f 196/196/196 195/195/195 194/194/194
f 197/197/197 195/195/195 196/196/196
f 199/199/199 188/188/188 198/198/198
f 190/190/190 188/188/188 199/199/199
f 188/188/188 200/200/200 198/198/198
f 193/193/193 200/200/200 188/188/188
f 194/194/194 198/198/198 196/196/196
f 199/199/199 198/198/198 194/194/194
f 198/198/198 201/201/201 196/196/196
f 200/200/200 201/201/201 198/198/198
f 201/201/201 197/197/197 196/196/196
f 202/202/202 197/197/197 201/201/201
f 204/204/204 186/186/186 203/203/203
f 187/187/187 186/186/186 204/204/204
f 186/186/186 199/199/199 203/203/203
f 190/190/190 199/199/199 186/186/186
f 180/180/180 203/203/203 182/182/182
f 204/204/204 203/203/203 180/180/180
f 203/203/203 194/194/194 182/182/182
f 199/199/199 194/194/194 203/203/203
f 194/194/194 183/183/183 182/182/182
f 195/195/195 183/183/183 194/194/194
f 207/207/207 206/206/206 205/205/205
f 208/208/208 206/206/206 207/207/207
f 211/211/211 210/210/210 209/209/209
f 212/212/212 210/210/210 211/211/211
f 209/209/209 179/179/179 211/211/211
f 177/177/177 179/179/179 209/209/209
f 179/179/179 185/185/185 211/211/211
f 149/149/149 185/185/185 179/179/179
f 185/185/185 212/212/212 211/211/211
f 187/187/187 212/212/212 185/185/185
f 205/205/205 147/147/147 146/146/146
f 206/206/206 147/147/147 205/205/205
f 177/177/177 205/205/205 146/146/146
f 209/209/209 205/205/205 177/177/177
f 209/209/209 207/207/207 205/205/205
f 210/210/210 207/207/207 209/209/209
f 215/215/215 214/214/214 213/213/213
f 216/216/216 214/214/214 215/215/215
f 218/218/218 212/212/212 217/217/217
f 210/210/210 212/212/212 218/218/218
f 212/212/212 204/204/204 217/217/217
f 187/187/187 204/204/204 212/212/212
f 213/213/213 217/217/217 215/215/215
f 218/218/218 217/217/217 213/213/213
f 217/217/217 180/180/180 215/215/215
f 204/204/204 180/180/180 217/217/217
f 180/180/180 216/216/216 215/215/215
f 181/181/181 216/216/216 180/180/180
f 219/219/219 208/208/208 207/207/207
f 220/220/220 208/208/208 219/219/219
f 210/210/210 219/219/219 207/207/207
f 218/218/218 219/219/219 210/210/210
f 5/5/5 220/220/220 219/219/219
f 6/6/6 220/220/220 5/5/5
f 218/218/218 5/5/5 219/219/219
f 213/213/213 5/5/5 218/218/218
f 213/213/213 7/7/7 5/5/5
f 214/214/214 7/7/7 213/213/213
f 223/223/223 222/222/222 221/221/221
f 224/224/224 222/222/222 223/223/223
f 227/227/227 226/226/226 225/225/225
f 228/228/228 226/226/226 227/227/227
f 231/231/231 230/230/230 229/229/229
f 232/232/232 230/230/230 231/231/231
f 235/235/235 234/234/234 233/233/233
f 236/236/236 234/234/234 235/235/235
f 239/239/239 238/238/238 237/237/237
f 240/240/240 238/238/238 239/239/239
f 243/243/243 242/242/242 241/241/241
f 244/244/244 242/242/242 243/243/243
f 244/244/244 197/197/197 242/242/242
f 195/195/195 197/197/197 244/244/244
f 197/197/197 245/245/245 242/242/242
f 202/202/202 245/245/245 197/197/197
f 242/242/242 246/246/246 241/241/241
f 245/245/245 246/246/246 242/242/242
f 238/238/238 183/183/183 237/237/237
f 181/181/181 183/183/183 238/238/238
f 237/237/237 195/195/195 244/244/244
f 183/183/183 195/195/195 237/237/237
f 244/244/244 239/239/239 237/237/237
f 243/243/243 239/239/239 244/244/244
f 249/249/249 248/248/248 247/247/247
f 250/250/250 248/248/248 249/249/249
f 252/252/252 241/241/241 251/251/251
f 243/243/243 241/241/241 252/252/252
f 241/241/241 253/253/253 251/251/251
f 246/246/246 253/253/253 241/241/241
f 254/254/254 250/250/250 249/249/249
f 255/255/255 250/250/250 254/254/254
f 257/257/257 239/239/239 256/256/256
f 240/240/240 239/239/239 257/257/257
f 239/239/239 252/252/252 256/256/256
f 243/243/243 252/252/252 239/239/239
f 247/247/247 236/236/236 235/235/235
f 248/248/248 236/236/236 247/247/247
f 260/260/260 259/259/259 258/258/258
f 261/261/261 259/259/259 260/260/260
f 264/264/264 263/263/263 262/262/262
f 265/265/265 263/263/263 264/264/264
f 262/262/262 216/216/216 264/264/264
f 214/214/214 216/216/216 262/262/262
f 216/216/216 238/238/238 264/264/264
f 181/181/181 238/238/238 216/216/216
f 238/238/238 265/265/265 264/264/264
f 240/240/240 265/265/265 238/238/238
f 258/258/258 8/8/8 7/7/7
f 259/259/259 8/8/8 258/258/258
f 214/214/214 258/258/258 7/7/7
f 262/262/262 258/258/258 214/214/214
f 262/262/262 260/260/260 258/258/258
f 263/263/263 260/260/260 262/262/262
f 268/268/268 267/267/267 266/266/266
f 269/269/269 267/267/267 268/268/268
f 271/271/271 265/265/265 270/270/270
f 263/263/263 265/265/265 271/271/271
f 265/265/265 257/257/257 270/270/270
f 240/240/240 257/257/257 265/265/265
f 233/233/233 269/269/269 268/268/268
f 234/234/234 269/269/269 233/233/233
f 272/272/272 261/261/261 260/260/260
f 273/273/273 261/261/261 272/272/272
f 263/263/263 272/272/272 260/260/260
f 271/271/271 272/272/272 263/263/263
f 266/266/266 231/231/231 229/229/229
f 267/267/267 231/231/231 266/266/266
f 276/276/276 275/275/275 274/274/274
f 277/277/277 275/275/275 276/276/276
f 280/280/280 279/279/279 278/278/278
f 281/281/281 279/279/279 280/280/280
f 284/284/284 283/283/283 282/282/282
f 285/285/285 283/283/283 284/284/284
f 285/285/285 250/250/250 283/283/283
f 248/248/248 250/250/250 285/285/285
f 250/250/250 286/286/286 283/283/283
f 255/255/255 286/286/286 250/250/250
f 283/283/283 287/287/287 282/282/282
f 286/286/286 287/287/287 283/283/283
f 279/279/279 236/236/236 278/278/278
f 234/234/234 236/236/236 279/279/279
f 278/278/278 248/248/248 285/285/285
f 236/236/236 248/248/248 278/278/278
f 285/285/285 280/280/280 278/278/278
f 284/284/284 280/280/280 285/285/285
f 290/290/290 289/289/289 288/288/288
f 291/291/291 289/289/289 290/290/290
f 288/288/288 282/282/282 290/290/290
f 284/284/284 282/282/282 288/288/288
f 282/282/282 292/292/292 290/290/290
f 287/287/287 292/292/292 282/282/282
f 292/292/292 291/291/291 290/290/290
f 293/293/293 291/291/291 292/292/292
f 274/274/274 280/280/280 276/276/276
f 281/281/281 280/280/280 274/274/274
f 280/280/280 288/288/288 276/276/276
f 284/284/284 288/288/288 280/280/280
f 288/288/288 277/277/277 276/276/276
f 289/289/289 277/277/277 288/288/288
f 296/296/296 295/295/295 294/294/294
f 297/297/297 295/295/295 296/296/296
f 300/300/300 299/299/299 298/298/298
f 301/301/301 299/299/299 300/300/300
f 298/298/298 269/269/269 300/300/300
f 267/267/267 269/269/269 298/298/298
f 269/269/269 279/279/279 300/300/300
f 234/234/234 279/279/279 269/269/269
f 279/279/279 301/301/301 300/300/300
f 281/281/281 301/301/301 279/279/279
f 294/294/294 232/232/232 231/231/231
f 295/295/295 232/232/232 294/294/294
f 267/267/267 294/294/294 231/231/231
f 298/298/298 294/294/294 267/267/267
f 298/298/298 296/296/296 294/294/294
f 299/299/299 296/296/296 298/298/298
f 304/304/304 303/303/303 302/302/302
f 305/305/305 303/303/303 304/304/304
f 302/302/302 301/301/301 304/304/304
f 299/299/299 301/301/301 302/302/302
f 301/301/301 274/274/274 304/304/304
f 281/281/281 274/274/274 301/301/301
f 274/274/274 305/305/305 304/304/304
f 275/275/275 305/305/305 274/274/274
f 225/225/225 297/297/297 296/296/296
f 226/226/226 297/297/297 225/225/225
f 299/299/299 225/225/225 296/296/296
f 302/302/302 225/225/225 299/299/299
f 302/302/302 227/227/227 225/225/225
f 303/303/303 227/227/227 302/302/302
f 308/308/308 307/307/307 306/306/306
f 309/309/309 307/307/307 308/308/308
f 312/312/312 311/311/311 310/310/310
f 313/313/313 311/311/311 312/312/312
f 316/316/316 315/315/315 314/314/314
f 317/317/317 315/315/315 316/316/316
f 320/320/320 319/319/319 318/318/318
f 321/321/321 319/319/319 320/320/320
f 321/321/321 291/291/291 319/319/319
f 289/289/289 291/291/291 321/321/321
f 291/291/291 322/322/322 319/319/319
f 293/293/293 322/322/322 291/291/291
f 319/319/319 323/323/323 318/318/318
f 322/322/322 323/323/323 319/319/319
f 315/315/315 277/277/277 314/314/314
f 275/275/275 277/277/277 315/315/315
f 314/314/314 289/289/289 321/321/321
f 277/277/277 289/289/289 314/314/314
f 321/321/321 316/316/316 314/314/314
f 320/320/320 316/316/316 321/321/321
f 326/326/326 325/325/325 324/324/324
f 327/327/327 325/325/325 326/326/326
f 324/324/324 318/318/318 326/326/326
f 320/320/320 318/318/318 324/324/324
f 318/318/318 328/328/328 326/326/326
f 323/323/323 328/328/328 318/318/318
f 328/328/328 327/327/327 326/326/326
f 329/329/329 327/327/327 328/328/328
f 310/310/310 316/316/316 312/312/312
f 317/317/317 316/316/316 310/310/310
f 316/316/316 324/324/324 312/312/312
f 320/320/320 324/324/324 316/316/316
f 324/324/324 313/313/313 312/312/312
f 325/325/325 313/313/313 324/324/324
f 332/332/332 331/331/331 330/330/330
f 333/333/333 331/331/331 332/332/332
f 336/336/336 335/335/335 334/334/334
f 337/337/337 335/335/335 336/336/336
f 334/334/334 305/305/305 336/336/336
f 303/303/303 305/305/305 334/334/334
f 305/305/305 315/315/315 336/336/336
f 275/275/275 315/315/315 305/305/305
f 315/315/315 337/337/337 336/336/336
f 317/317/317 337/337/337 315/315/315
f 330/330/330 228/228/228 227/227/227
f 331/331/331 228/228/228 330/330/330
f 303/303/303 330/330/330 227/227/227
f 334/334/334 330/330/330 303/303/303
f 334/334/334 332/332/332 330/330/330
f 335/335/335 332/332/332 334/334/334
f 340/340/340 339/339/339 338/338/338
f 341/341/341 339/339/339 340/340/340
f 338/338/338 337/337/337 340/340/340
f 335/335/335 337/337/337 338/338/338
f 337/337/337 310/310/310 340/340/340
f 317/317/317 310/310/310 337/337/337
f 310/310/310 341/341/341 340/340/340
f 311/311/311 341/341/341 310/310/310
f 306/306/306 333/333/333 332/332/332
f 307/307/307 333/333/333 306/306/306
f 335/335/335 306/306/306 332/332/332
f 338/338/338 306/306/306 335/335/335
f 338/338/338 308/308/308 306/306/306
f 339/339/339 308/308/308 338/338/338
f 344/344/344 343/343/343 342/342/342
f 345/345/345 343/343/343 344/344/344
f 348/348/348 347/347/347 346/346/346
f 349/349/349 347/347/347 348/348/348
f 352/352/352 351/351/351 350/350/350
f 353/353/353 351/351/351 352/352/352
f 353/353/353 327/327/327 351/351/351
f 325/325/325 327/327/327 353/353/353
f 327/327/327 354/354/354 351/351/351
f 329/329/329 354/354/354 327/327/327
f 351/351/351 355/355/355 350/350/350
f 354/354/354 355/355/355 351/351/351
f 347/347/347 313/313/313 346/346/346
f 311/311/311 313/313/313 347/347/347
f 346/346/346 325/325/325 353/353/353
f 313/313/313 325/325/325 346/346/346
f 353/353/353 348/348/348 346/346/346
f 352/352/352 348/348/348 353/353/353
f 358/358/358 357/357/357 356/356/356
f 359/359/359 357/357/357 358/358/358
f 361/361/361 350/350/350 360/360/360
f 352/352/352 350/350/350 361/361/361
f 350/350/350 362/362/362 360/360/360
f 355/355/355 362/362/362 350/350/350
f 356/356/356 360/360/360 358/358/358
f 361/361/361 360/360/360 356/356/356
f 360/360/360 363/363/363 358/358/358
f 362/362/362 363/363/363 360/360/360
f 363/363/363 359/359/359 358/358/358
f 364/364/364 359/359/359 363/363/363
f 366/366/366 348/348/348 365/365/365
f 349/349/349 348/348/348 366/366/366
f 348/348/348 361/361/361 365/365/365
f 352/352/352 361/361/361 348/348/348
f 342/342/342 365/365/365 344/344/344
f 366/366/366 365/365/365 342/342/342
f 365/365/365 356/356/356 344/344/344
f 361/361/361 356/356/356 365/365/365
f 356/356/356 345/345/345 344/344/344
f 357/357/357 345/345/345 356/356/356
f 369/369/369 368/368/368 367/367/367
f 370/370/370 368/368/368 369/369/369
f 373/373/373 372/372/372 371/371/371
f 374/374/374 372/372/372 373/373/373
f 371/371/371 341/341/341 373/373/373
f 339/339/339 341/341/341 371/371/371
f 341/341/341 347/347/347 373/373/373
f 311/311/311 347/347/347 341/341/341
f 347/347/347 374/374/374 373/373/373
f 349/349/349 374/374/374 347/347/347
f 367/367/367 309/309/309 308/308/308
f 368/368/368 309/309/309 367/367/367
f 339/339/339 367/367/367 308/308/308
f 371/371/371 367/367/367 339/339/339
f 371/371/371 369/369/369 367/367/367
f 372/372/372 369/369/369 371/371/371
f 377/377/377 376/376/376 375/375/375
f 378/378/378 376/376/376 377/377/377
f 380/380/380 374/374/374 379/379/379
f 372/372/372 374/374/374 380/380/380
f 374/374/374 366/366/366 379/379/379
f 349/349/349 366/366/366 374/374/374
f 375/375/375 379/379/379 377/377/377
f 380/380/380 379/379/379 375/375/375
f 379/379/379 342/342/342 377/377/377
f 366/366/366 342/342/342 379/379/379
f 342/342/342 378/378/378 377/377/377
f 343/343/343 378/378/378 342/342/342
f 381/381/381 370/370/370 369/369/369
f 382/382/382 370/370/370 381/381/381
f 372/372/372 381/381/381 369/369/369
f 380/380/380 381/381/381 372/372/372
f 221/221/221 382/382/382 381/381/381
f 222/222/222 382/382/382 221/221/221
f 380/380/380 221/221/221 381/381/381
f 375/375/375 221/221/221 380/380/380
f 375/375/375 223/223/223 221/221/221
f 376/376/376 223/223/223 375/375/375
f 385/385/385 384/384/384 383/383/383
f 386/386/386 384/384/384 385/385/385
f 389/389/389 388/388/388 387/387/387
f 390/390/390 388/388/388 389/389/389
f 393/393/393 392/392/392 391/391/391
f 394/394/394 392/392/392 393/393/393
f 397/397/397 396/396/396 395/395/395
f 398/398/398 396/396/396 397/397/397
f 401/401/401 400/400/400 399/399/399
f 402/402/402 400/400/400 401/401/401
f 402/402/402 359/359/359 400/400/400
f 357/357/357 359/359/359 402/402/402
f 359/359/359 403/403/403 400/400/400
f 364/364/364 403/403/403 359/359/359
f 400/400/400 404/404/404 399/399/399
f 403/403/403 404/404/404 400/400/400
f 396/396/396 345/345/345 395/395/395
f 343/343/343 345/345/345 396/396/396
f 395/395/395 357/357/357 402/402/402
f 345/345/345 357/357/357 395/395/395
f 402/402/402 397/397/397 395/395/395
f 401/401/401 397/397/397 402/402/402
f 407/407/407 406/406/406 405/405/405
f 408/408/408 406/406/406 407/407/407
f 405/405/405 399/399/399 407/407/407
f 401/401/401 399/399/399 405/405/405
f 399/399/399 409/409/409 407/407/407
f 404/404/404 409/409/409 399/399/399
f 409/409/409 408/408/408 407/407/407
f 410/410/410 408/408/408 409/409/409
f 391/391/391 397/397/397 393/393/393
f 398/398/398 397/397/397 391/391/391
f 397/397/397 405/405/405 393/393/393
f 401/401/401 405/405/405 397/397/397
f 405/405/405 394/394/394 393/393/393
f 406/406/406 394/394/394 405/405/405
f 413/413/413 412/412/412 411/411/411
f 414/414/414 412/412/412 413/413/413
f 417/417/417 416/416/416 415/415/415
f 418/418/418 416/416/416 417/417/417
f 415/415/415 378/378/378 417/417/417
f 376/376/376 378/378/378 415/415/415
f 378/378/378 396/396/396 417/417/417
f 343/343/343 396/396/396 378/378/378
f 396/396/396 418/418/418 417/417/417
f 398/398/398 418/418/418 396/396/396
f 411/411/411 224/224/224 223/223/223
f 412/412/412 224/224/224 411/411/411
f 376/376/376 411/411/411 223/223/223
f 415/415/415 411/411/411 376/376/376
f 415/415/415 413/413/413 411/411/411
f 416/416/416 413/413/413 415/415/415
f 421/421/421 420/420/420 419/419/419
f 422/422/422 420/420/420 421/421/421
f 419/419/419 418/418/418 421/421/421
f 416/416/416 418/418/418 419/419/419
f 418/418/418 391/391/391 421/421/421
f 398/398/398 391/391/391 418/418/418
f 391/391/391 422/422/422 421/421/421
f 392/392/392 422/422/422 391/391/391
f 387/387/387 414/414/414 413/413/413
f 388/388/388 414/414/414 387/387/387
f 416/416/416 387/387/387 413/413/413
f 419/419/419 387/387/387 416/416/416
f 419/419/419 389/389/389 387/387/387
f 420/420/420 389/389/389 419/419/419
f 425/425/425 424/424/424 423/423/423
f 426/426/426 424/424/424 425/425/425
f 429/429/429 428/428/428 427/427/427
f 430/430/430 428/428/428 429/429/429
f 433/433/433 432/432/432 431/431/431
f 434/434/434 432/432/432 433/433/433
f 434/434/434 408/408/408 432/432/432
f 406/406/406 408/408/408 434/434/434
f 408/408/408 435/435/435 432/432/432
f 410/410/410 435/435/435 408/408/408
f 432/432/432 436/436/436 431/431/431
f 435/435/435 436/436/436 432/432/432
f 428/428/428 394/394/394 427/427/427
f 392/392/392 394/394/394 428/428/428
f 427/427/427 406/406/406 434/434/434
f 394/394/394 406/406/406 427/427/427
f 434/434/434 429/429/429 427/427/427
f 433/433/433 429/429/429 434/434/434
f 439/439/439 438/438/438 437/437/437
f 440/440/440 438/438/438 439/439/439
f 437/437/437 431/431/431 439/439/439
f 433/433/433 431/431/431 437/437/437
f 431/431/431 441/441/441 439/439/439
f 436/436/436 441/441/441 431/431/431
f 441/441/441 440/440/440 439/439/439
f 442/442/442 440/440/440 441/441/441
f 423/423/423 429/429/429 425/425/425
f 430/430/430 429/429/429 423/423/423
f 429/429/429 437/437/437 425/425/425
f 433/433/433 437/437/437 429/429/429
f 437/437/437 426/426/426 425/425/425
f 438/438/438 426/426/426 437/437/437
f 445/445/445 444/444/444 443/443/443
f 446/446/446 444/444/444 445/445/445
f 449/449/449 448/448/448 447/447/447
f 450/450/450 448/448/448 449/449/449
f 447/447/447 422/422/422 449/449/449
f 420/420/420 422/422/422 447/447/447
f 422/422/422 428/428/428 449/449/449
f 392/392/392 428/428/428 422/422/422
f 428/428/428 450/450/450 449/449/449
f 430/430/430 450/450/450 428/428/428
f 443/443/443 390/390/390 389/389/389
f 444/444/444 390/390/390 443/443/443
f 420/420/420 443/443/443 389/389/389
f 447/447/447 443/443/443 420/420/420
f 447/447/447 445/445/445 443/443/443
f 448/448/448 445/445/445 447/447/447
f 453/453/453 452/452/452 451/451/451
f 454/454/454 452/452/452 453/453/453
f 451/451/451 450/450/450 453/453/453
f 448/448/448 450/450/450 451/451/451
f 450/450/450 423/423/423 453/453/453
f 430/430/430 423/423/423 450/450/450
f 423/423/423 454/454/454 453/453/453
f 424/424/424 454/454/454 423/423/423
f 383/383/383 446/446/446 445/445/445
f 384/384/384 446/446/446 383/383/383
f 448/448/448 383/383/383 445/445/445
f 451/451/451 383/383/383 448/448/448
f 451/451/451 385/385/385 383/383/383
f 452/452/452 385/385/385 451/451/451
f 457/457/457 456/456/456 455/455/455
f 458/458/458 456/456/456 457/457/457
f 461/461/461 460/460/460 459/459/459
f 462/462/462 460/460/460 461/461/461
f 465/465/465 464/464/464 463/463/463
f 466/466/466 464/464/464 465/465/465
f 469/469/469 468/468/468 467/467/467
f 470/470/470 468/468/468 469/469/469
f 470/470/470 440/440/440 468/468/468
f 438/438/438 440/440/440 470/470/470
f 440/440/440 471/471/471 468/468/468
f 442/442/442 471/471/471 440/440/440
f 468/468/468 472/472/472 467/467/467
f 471/471/471 472/472/472 468/468/468
f 464/464/464 426/426/426 463/463/463
f 424/424/424 426/426/426 464/464/464
f 463/463/463 438/438/438 470/470/470
f 426/426/426 438/438/438 463/463/463
f 470/470/470 465/465/465 463/463/463
f 469/469/469 465/465/465 470/470/470
f 475/475/475 474/474/474 473/473/473
f 476/476/476 474/474/474 475/475/475
f 473/473/473 467/467/467 475/475/475
f 469/469/469 467/467/467 473/473/473
f 467/467/467 477/477/477 475/475/475
f 472/472/472 477/477/477 467/467/467
f 477/477/477 476/476/476 475/475/475
f 478/478/478 476/476/476 477/477/477
f 459/459/459 465/465/465 461/461/461
f 466/466/466 465/465/465 459/459/459
f 465/465/465 473/473/473 461/461/461
f 469/469/469 473/473/473 465/465/465
f 473/473/473 462/462/462 461/461/461
f 474/474/474 462/462/462 473/473/473
f 481/481/481 480/480/480 479/479/479
f 482/482/482 480/480/480 481/481/481
f 485/485/485 484/484/484 483/483/483
f 486/486/486 484/484/484 485/485/485
f 483/483/483 454/454/454 485/485/485
f 452/452/452 454/454/454 483/483/483
f 454/454/454 464/464/464 485/485/485
f 424/424/424 464/464/464 454/454/454
f 464/464/464 486/486/486 485/485/485
f 466/466/466 486/486/486 464/464/464
f 479/479/479 386/386/386 385/385/385
f 480/480/480 386/386/386 479/479/479
f 452/452/452 479/479/479 385/385/385
f 483/483/483 479/479/479 452/452/452
f 483/483/483 481/481/481 479/479/479
f 484/484/484 481/481/481 483/483/483
f 489/489/489 488/488/488 487/487/487
f 490/490/490 488/488/488 489/489/489
f 487/487/487 486/486/486 489/489/489
f 484/484/484 486/486/486 487/487/487
f 486/486/486 459/459/459 489/489/489
f 466/466/466 459/459/459 486/486/486
f 459/459/459 490/490/490 489/489/489
f 460/460/460 490/490/490 459/459/459
f 455/455/455 482/482/482 481/481/481
f 456/456/456 482/482/482 455/455/455
f 484/484/484 455/455/455 481/481/481
f 487/487/487 455/455/455 484/484/484
f 487/487/487 457/457/457 455/455/455
f 488/488/488 457/457/457 487/487/487
f 493/493/493 492/492/492 491/491/491
f 494/494/494 492/492/492 493/493/493
f 497/497/497 496/496/496 495/495/495
f 498/498/498 496/496/496 497/497/497
f 501/501/501 500/500/500 499/499/499
f 502/502/502 500/500/500 501/501/501
f 502/502/502 476/476/476 500/500/500
f 474/474/474 476/476/476 502/502/502
f 476/476/476 503/503/503 500/500/500
f 478/478/478 503/503/503 476/476/476
f 500/500/500 504/504/504 499/499/499
f 503/503/503 504/504/504 500/500/500
f 496/496/496 462/462/462 495/495/495
f 460/460/460 462/462/462 496/496/496
f 495/495/495 474/474/474 502/502/502
f 462/462/462 474/474/474 495/495/495
f 502/502/502 497/497/497 495/495/495
f 501/501/501 497/497/497 502/502/502
f 507/507/507 506/506/506 505/505/505
f 508/508/508 506/506/506 507/507/507
f 510/510/510 499/499/499 509/509/509
f 501/501/501 499/499/499 510/510/510
f 499/499/499 511/511/511 509/509/509
f 504/504/504 511/511/511 499/499/499
f 505/505/505 509/509/509 507/507/507
f 510/510/510 509/509/509 505/505/505
f 509/509/509 512/512/512 507/507/507
f 511/511/511 512/512/512 509/509/509
f 512/512/512 508/508/508 507/507/507
f 513/513/513 508/508/508 512/512/512
f 515/515/515 497/497/497 514/514/514
f 498/498/498 497/497/497 515/515/515
f 497/497/497 510/510/510 514/514/514
f 501/501/501 510/510/510 497/497/497
f 491/491/491 514/514/514 493/493/493
f 515/515/515 514/514/514 491/491/491
f 514/514/514 505/505/505 493/493/493
f 510/510/510 505/505/505 514/514/514
f 505/505/505 494/494/494 493/493/493
f 506/506/506 494/494/494 505/505/505
f 518/518/518 517/517/517 516/516/516
f 519/519/519 517/517/517 518/518/518
f 522/522/522 521/521/521 520/520/520
f 523/523/523 521/521/521 522/522/522
f 520/520/520 490/490/490 522/522/522
f 488/488/488 490/490/490 520/520/520
f 490/490/490 496/496/496 522/522/522
f 460/460/460 496/496/496 490/490/490
f 496/496/496 523/523/523 522/522/522
f 498/498/498 523/523/523 496/496/496
f 516/516/516 458/458/458 457/457/457
f 517/517/517 458/458/458 516/516/516
f 488/488/488 516/516/516 457/457/457
f 520/520/520 516/516/516 488/488/488
f 520/520/520 518/518/518 516/516/516
f 521/521/521 518/518/518 520/520/520
f 526/526/526 525/525/525 524/524/524
f 527/527/527 525/525/525 526/526/526
f 529/529/529 523/523/523 528/528/528
f 521/521/521 523/523/523 529/529/529
f 523/523/523 515/515/515 528/528/528
f 498/498/498 515/515/515 523/523/523
f 524/524/524 528/528/528 526/526/526
f 529/529/529 528/528/528 524/524/524
f 528/528/528 491/491/491 526/526/526
f 515/515/515 491/491/491 528/528/528
f 491/491/491 527/527/527 526/526/526
f 492/492/492 527/527/527 491/491/491
f 530/530/530 519/519/519 518/518/518
f 531/531/531 519/519/519 530/530/530
f 521/521/521 530/530/530 518/518/518
f 529/529/529 530/530/530 521/521/521
f 1/1/1 531/531/531 530/530/530
f 2/2/2 531/531/531 1/1/1
f 529/529/529 1/1/1 530/530/530
f 524/524/524 1/1/1 529/529/529
f 524/524/524 3/3/3 1/1/1
f 525/525/525 3/3/3 524/524/524
