# Exported from Godot Engine
mtllib BrakeLights.mtl
o BrakeLights
v -2.145935 0.928256 -0.732465
vt -2.628906 0.565918
vn -0.766871 0.640244 0.044683
v -2.151577 0.927981 -0.723029
vt -2.619141 0.571777
vn -0.781316 0.622818 0.040540
v -2.150043 0.926441 -0.733386
vt -2.625000 0.562500
vn -0.769899 0.636620 0.044390
v -2.154863 0.926396 -0.724942
vt -2.617188 0.567871
vn -0.781316 0.622818 0.040540
v -2.207911 0.802912 -0.672317
vt -2.496094 0.394043
vn -0.533219 0.804429 0.261862
v -2.193201 0.802926 -0.700806
vt -2.535156 0.394531
vn -0.499159 0.834768 0.232383
v -2.201788 0.826441 -0.676150
vt -2.505859 0.418457
vn -0.513683 0.820029 0.252352
v -2.188380 0.826544 -0.702283
vt -2.537109 0.421875
vn -0.494310 0.839429 0.225867
v -2.177761 0.802826 -0.727639
vt -2.570312 0.398926
vn -0.506554 0.841475 0.187945
v -2.161228 0.802916 -0.753394
vt -2.603516 0.404785
vn -0.543081 0.826580 0.147747
v -2.174349 0.826973 -0.726916
vt -2.568359 0.426270
vn -0.510060 0.839067 0.189221
v -2.158977 0.827411 -0.751449
vt -2.599609 0.431152
vn -0.539530 0.829077 0.146762
v -2.143042 0.802920 -0.778198
vt -2.634766 0.409180
vn -0.666640 0.741599 0.074981
v -2.142384 0.827698 -0.775221
vt -2.632812 0.437500
vn -0.665713 0.736395 0.120614
v -2.135038 0.927233 -0.750409
vt -2.648438 0.555908
vn -0.765510 0.643014 -0.022957
v -2.140155 0.928012 -0.741938
vt -2.638672 0.560791
vn -0.763872 0.645197 0.014840
v -2.140259 0.925294 -0.750171
vt -2.642578 0.552490
vn -0.764520 0.644557 -0.007457
v -2.145165 0.926133 -0.741799
vt -2.634766 0.557373
vn -0.763770 0.645105 0.022253
v -2.124802 0.923357 -0.767528
vt -2.666016 0.544678
vn -0.786415 0.605532 -0.121998
v -2.129868 0.925823 -0.758944
vt -2.658203 0.550537
vn -0.775215 0.628072 -0.067579
v -2.130634 0.921317 -0.766634
vt -2.660156 0.541504
vn -0.783108 0.613194 -0.103610
v -2.135389 0.923728 -0.758466
vt -2.652344 0.547119
vn -0.771402 0.634307 -0.050921
v -2.115197 0.914858 -0.783927
vt -2.683594 0.529541
vn -0.816971 0.532568 -0.221200
v -2.119794 0.919988 -0.775885
vt -2.675781 0.537842
vn -0.801993 0.569680 -0.179644
v -2.121930 0.913100 -0.782018
vt -2.675781 0.527588
vn -0.812304 0.541520 -0.216603
v -2.126090 0.917868 -0.774559
vt -2.667969 0.535156
vn -0.796328 0.583049 -0.160981
v -2.107871 0.901213 -0.797080
vt -2.695312 0.510498
vn -0.831056 0.515494 -0.208832
v -2.111114 0.908615 -0.790829
vt -2.691406 0.520508
vn -0.826007 0.514529 -0.230157
v -2.115479 0.899570 -0.794450
vt -2.687500 0.509277
vn -0.828275 0.513143 -0.225044
v -2.118363 0.906922 -0.788702
vt -2.681641 0.518799
vn -0.822243 0.514439 -0.243452
v -2.096344 0.824320 -0.820390
vt -2.705078 0.422363
vn -0.835413 0.506535 -0.213326
v -2.098413 0.851881 -0.815463
vt -2.705078 0.452637
vn -0.833800 0.521072 -0.182378
v -2.107597 0.824400 -0.816054
vt -2.693359 0.424316
vn -0.835413 0.506535 -0.213326
v -2.109056 0.851719 -0.811027
vt -2.693359 0.454102
vn -0.833800 0.521072 -0.182378
v -2.095115 0.802957 -0.823511
vt -2.707031 0.398926
vn -0.835623 0.493119 -0.242006
v -2.106479 0.802822 -0.819272
vt -2.693359 0.399902
vn -0.836400 0.497276 -0.230546
v -2.102617 0.882838 -0.806886
vt -2.703125 0.487793
vn -0.831330 0.534387 -0.152712
v -2.105091 0.892943 -0.802182
vt -2.699219 0.500000
vn -0.831991 0.525889 -0.176725
v -2.111791 0.882424 -0.802882
vt -2.691406 0.488770
vn -0.831357 0.531348 -0.162831
v -2.113297 0.891327 -0.799189
vt -2.689453 0.499512
vn -0.831471 0.519091 -0.197991
v -2.101177 0.874584 -0.809699
vt -2.703125 0.478027
vn -0.831330 0.534387 -0.152712
v -2.110792 0.874166 -0.805591
vt -2.691406 0.479492
vn -0.831330 0.534387 -0.152712
v -2.160980 0.927058 -0.706770
vt -2.601562 0.582764
vn -0.773543 0.632170 0.044638
v -2.164066 0.925793 -0.708663
vt -2.599609 0.578857
vn -0.774574 0.630662 0.047963
v -2.170676 0.925153 -0.688748
vt -2.580078 0.593750
vn -0.779836 0.625291 0.029442
v -2.173605 0.924500 -0.690805
vt -2.580078 0.590332
vn -0.781717 0.623099 0.025825
v -2.178566 0.909150 -0.688940
vt -2.570312 0.577881
vn -0.494586 0.594287 0.634199
v -2.169348 0.909691 -0.707070
vt -2.585938 0.565674
vn -0.503109 0.594913 0.626866
v -2.173605 0.924500 -0.690805
vt -2.580078 0.590332
vn -0.494586 0.594287 0.634199
v -2.164066 0.925793 -0.708663
vt -2.599609 0.578857
vn -0.511584 0.595465 0.619438
v -2.157490 0.909483 -0.728788
vt -2.609375 0.549561
vn -0.528299 0.608289 0.592355
v -2.154863 0.926396 -0.724942
vt -2.617188 0.567871
vn -0.525778 0.609394 0.593462
v -2.150043 0.926441 -0.733386
vt -2.625000 0.562500
vn -0.549007 0.633738 0.544947
v -2.126090 0.917868 -0.774559
vt -2.667969 0.535156
vn -0.611693 0.702535 0.363698
v -2.143006 0.889377 -0.759872
vt -2.636719 0.510742
vn -0.613094 0.694802 0.375986
v -2.121930 0.913100 -0.782018
vt -2.675781 0.527588
vn -0.623640 0.705633 0.336385
v -2.141196 0.861822 -0.769852
vt -2.638672 0.477051
vn -0.649027 0.705791 0.283942
v -2.110792 0.874166 -0.805591
vt -2.691406 0.479492
vn -0.653388 0.710476 0.261360
v -2.109056 0.851719 -0.811027
vt -2.693359 0.454102
vn -0.660742 0.713705 0.232475
v -2.135389 0.923728 -0.758466
vt -2.652344 0.547119
vn -0.591027 0.689501 0.418658
v -2.146014 0.899308 -0.751926
vt -2.630859 0.525146
vn -0.593443 0.674660 0.438929
v -2.130634 0.921317 -0.766634
vt -2.660156 0.541504
vn -0.606058 0.696106 0.384878
v -2.115479 0.899570 -0.794450
vt -2.687500 0.509277
vn -0.637482 0.706905 0.306435
v -2.141264 0.873284 -0.766834
vt -2.638672 0.490723
vn -0.630302 0.703933 0.327410
v -2.113297 0.891327 -0.799189
vt -2.689453 0.499512
vn -0.639075 0.708629 0.299046
v -2.145165 0.926133 -0.741799
vt -2.634766 0.557373
vn -0.560322 0.657724 0.503426
v -2.151230 0.906553 -0.740794
vt -2.621094 0.538818
vn -0.564158 0.644740 0.515787
v -2.140259 0.925294 -0.750171
vt -2.642578 0.552490
vn -0.586014 0.675464 0.447588
v -2.111791 0.882424 -0.802882
vt -2.691406 0.488770
vn -0.644315 0.709500 0.285426
v -2.118363 0.906922 -0.788702
vt -2.681641 0.518799
vn -0.627025 0.709461 0.321723
v -2.107597 0.824400 -0.816054
vt -2.693359 0.424316
vn -0.670861 0.711191 0.210128
v -2.106479 0.802822 -0.819272
vt -2.693359 0.399902
vn -0.671961 0.712395 0.202390
v -2.141264 0.873284 -0.766834
vt -2.638672 0.490723
vn -0.142422 0.605218 0.783216
v -2.143006 0.889377 -0.759872
vt -2.636719 0.510742
vn -0.167511 0.608271 0.775852
v -2.141646 0.872150 -0.764080
vt -2.634766 0.490723
vn -0.142422 0.605218 0.783216
v -2.143322 0.887675 -0.757408
vt -2.632812 0.509766
vn -0.157723 0.600139 0.784192
v -2.142384 0.827698 -0.775221
vt -2.632812 0.437500
vn -0.390165 0.816225 0.426085
v -2.141196 0.861822 -0.769852
vt -2.638672 0.477051
vn -0.133567 0.601017 0.787997
v -2.142574 0.829763 -0.772317
vt -2.628906 0.440430
vn -0.390165 0.816225 0.426085
v -2.141571 0.861007 -0.767010
vt -2.634766 0.477539
vn -0.133567 0.601017 0.787997
v -2.169348 0.909691 -0.707070
vt -2.585938 0.565674
vn -0.266400 0.521020 0.810906
v -2.178566 0.909150 -0.688940
vt -2.570312 0.577881
vn -0.212081 0.450611 0.867163
v -2.168603 0.906515 -0.706870
vt -2.583984 0.562500
vn -0.266091 0.516470 0.813913
v -2.178468 0.906149 -0.688004
vt -2.568359 0.576172
vn -0.202845 0.439425 0.875077
v -2.157490 0.909483 -0.728788
vt -2.609375 0.549561
vn -0.268691 0.533392 0.802059
v -2.156854 0.906321 -0.728406
vt -2.605469 0.546631
vn -0.261053 0.529933 0.806859
v -2.151230 0.906553 -0.740794
vt -2.621094 0.538818
vn -0.234959 0.554942 0.798018
v -2.150955 0.903643 -0.739733
vt -2.617188 0.536133
vn -0.227066 0.551390 0.802752
v -2.146014 0.899308 -0.751926
vt -2.630859 0.525146
vn -0.194676 0.579681 0.791247
v -2.146168 0.896960 -0.749966
vt -2.626953 0.523438
vn -0.193374 0.575828 0.794373
v -2.174349 0.826973 -0.726916
vt -2.568359 0.426270
vn -0.477395 0.841860 0.251726
v -2.158977 0.827411 -0.751449
vt -2.599609 0.431152
vn -0.483901 0.846738 0.221078
v -2.173002 0.829278 -0.726246
vt -2.566406 0.429199
vn -0.477395 0.841860 0.251726
v -2.157644 0.829720 -0.750742
vt -2.599609 0.434082
vn -0.480482 0.849086 0.219522
v -2.201788 0.826441 -0.676150
vt -2.505859 0.418457
vn -0.447462 0.845689 0.290839
v -2.188380 0.826544 -0.702283
vt -2.537109 0.421875
vn -0.459351 0.843547 0.278255
v -2.200403 0.828672 -0.675877
vt -2.505859 0.420898
vn -0.447462 0.845689 0.290839
v -2.187015 0.828845 -0.701649
vt -2.537109 0.424805
vn -0.461660 0.843294 0.275183
v -2.178566 0.909150 -0.688940
vt -2.570312 0.577881
vn 0.661619 0.649788 0.374214
v -2.168591 0.904186 -0.679578
vt -2.556641 0.578125
vn 0.661619 0.649788 0.374214
v -2.178468 0.906149 -0.688004
vt -2.568359 0.576172
vn 0.661619 0.649788 0.374214
v -2.189243 0.830729 -0.667801
vt -2.498047 0.433105
vn 0.465094 0.601419 0.649602
v -2.195377 0.798212 -0.655270
vt -2.472656 0.400391
vn 0.482518 0.611203 0.627381
v -2.201788 0.826441 -0.676150
vt -2.505859 0.418457
vn 0.473846 0.606345 0.638605
v -2.207911 0.802912 -0.672317
vt -2.496094 0.394043
vn 0.491103 0.615936 0.615988
v -2.168603 0.906515 -0.706870
vt -2.583984 0.562500
vn 0.212878 0.734958 0.643832
v -2.157327 0.904375 -0.700995
vt -2.574219 0.552002
vn 0.359155 0.762005 0.538847
v -2.156854 0.906321 -0.728406
vt -2.605469 0.546631
vn 0.269192 0.776616 0.569564
v -2.145925 0.904164 -0.721900
vt -2.595703 0.535889
vn 0.259830 0.774375 0.576915
v -2.135489 0.895074 -0.742866
vt -2.615234 0.517090
vn 0.576700 0.811275 0.096181
v -2.146168 0.896960 -0.749966
vt -2.626953 0.523438
vn 0.556799 0.823749 0.106830
v -2.140072 0.901570 -0.732872
vt -2.607422 0.527100
vn 0.421056 0.851090 0.313620
v -2.150955 0.903643 -0.739733
vt -2.617188 0.536133
vn 0.411479 0.854295 0.317591
v -2.141646 0.872150 -0.764080
vt -2.634766 0.490723
vn 0.746934 0.663947 -0.035557
v -2.131618 0.870449 -0.756526
vt -2.621094 0.489746
vn 0.750619 0.660564 0.015038
v -2.141571 0.861007 -0.767010
vt -2.634766 0.477539
vn 0.745673 0.661947 0.076141
v -2.131635 0.859435 -0.759291
vt -2.621094 0.478516
vn 0.741794 0.653823 0.149189
v -2.142574 0.829763 -0.772317
vt -2.628906 0.440430
vn 0.220958 0.560625 0.798046
v -2.132851 0.832119 -0.763876
vt -2.619141 0.451172
vn 0.253625 0.531002 0.808524
v -2.178468 0.906149 -0.688004
vt -2.568359 0.576172
vn 0.688962 0.704981 0.168325
v -2.168591 0.904186 -0.679578
vt -2.556641 0.578125
vn 0.776560 0.630044 0.000064
v -2.200403 0.828672 -0.675877
vt -2.505859 0.420898
vn -0.404893 0.819856 0.404843
v -2.187015 0.828845 -0.701649
vt -2.537109 0.424805
vn -0.414995 0.819771 0.394657
v -2.189243 0.830729 -0.667801
vt -2.498047 0.433105
vn -0.389376 0.819695 0.420102
v -2.175250 0.831520 -0.695317
vt -2.533203 0.440430
vn -0.401571 0.823117 0.401521
v -2.173002 0.829278 -0.726246
vt -2.566406 0.429199
vn -0.478312 0.815022 0.327042
v -2.157644 0.829720 -0.750742
vt -2.599609 0.434082
vn -0.470797 0.821425 0.321886
v -2.161139 0.831811 -0.720460
vt -2.566406 0.443848
vn -0.484659 0.814137 0.319821
v -2.146537 0.832194 -0.743924
vt -2.595703 0.448242
vn -0.483227 0.819552 0.307937
v -2.200403 0.828672 -0.675877
vt -2.505859 0.420898
vn 0.421785 0.503790 0.753852
v -2.189243 0.830729 -0.667801
vt -2.498047 0.433105
vn 0.421785 0.503790 0.753852
v -2.201788 0.826441 -0.676150
vt -2.505859 0.418457
vn 0.421785 0.503790 0.753852
v -2.168591 0.904186 -0.679578
vt -2.556641 0.578125
vn 0.560274 0.624330 0.544340
v -2.173605 0.924500 -0.690805
vt -2.580078 0.590332
vn 0.560085 0.628128 0.540147
v -2.156540 0.931373 -0.676201
vt -2.566406 0.612061
vn 0.494340 0.586065 0.641993
v -2.170676 0.925153 -0.688748
vt -2.580078 0.593750
vn 0.082536 -0.967289 -0.239874
v -2.143322 0.887675 -0.757408
vt -2.632812 0.509766
vn 0.668372 0.743487 -0.022478
v -2.132966 0.886095 -0.749973
vt -2.619141 0.506592
vn 0.702601 0.710491 -0.039430
v -2.178566 0.909150 -0.688940
vt -2.570312 0.577881
vn 0.663535 0.651724 0.367392
v -2.182034 0.885421 -0.682958
vt -2.320312 0.572266
vn -0.393159 0.412778 0.821608
v -2.171795 0.885062 -0.703690
vt -2.332031 0.550293
vn -0.437930 0.488673 0.754597
v -2.178312 0.898436 -0.684672
vt -2.330078 0.578125
vn -0.414224 0.453257 0.789288
v -2.167946 0.899284 -0.704952
vt -2.347656 0.560791
vn -0.466644 0.545682 0.696042
v -2.169392 0.883942 -0.708517
vt -2.335938 0.544434
vn -0.475665 0.550915 0.685737
v -2.157892 0.897883 -0.724041
vt -2.363281 0.545410
vn -0.494657 0.598369 0.630293
v -2.148392 0.900032 -0.719629
vt -2.373047 0.553467
vn -0.833439 0.459805 -0.306528
v -2.157892 0.897883 -0.724041
vt -2.363281 0.545410
vn -0.834593 0.450810 -0.316584
v -2.142857 0.897730 -0.730276
vt -2.382812 0.543213
vn -0.811620 0.299000 -0.501868
v -2.153494 0.895240 -0.732656
vt -2.371094 0.537598
vn -0.815215 0.296424 -0.497551
v -2.167605 0.881785 -0.712559
vt -2.337891 0.538574
vn -0.494586 0.594287 0.634199
v -2.153494 0.895240 -0.732656
vt -2.371094 0.537598
vn -0.508194 0.617023 0.600851
v -2.138688 0.892619 -0.739282
vt -2.388672 0.531982
vn -0.812298 0.216578 -0.541540
v -2.150653 0.890354 -0.739365
vt -2.375000 0.529541
vn -0.817774 0.204408 -0.538017
v -2.166589 0.879182 -0.715310
vt -2.339844 0.533447
vn -0.514011 0.622404 0.590260
v -2.150653 0.890354 -0.739365
vt -2.375000 0.529541
vn -0.518799 0.632185 0.575492
v -2.136579 0.884432 -0.745513
vt -2.390625 0.520020
vn -0.843925 0.233482 -0.482988
v -2.149185 0.883618 -0.744072
vt -2.376953 0.520752
vn -0.860680 0.250320 -0.443361
v -2.166120 0.875798 -0.717235
vt -2.339844 0.528320
vn -0.528765 0.650700 0.544974
v -2.149185 0.883618 -0.744072
vt -2.376953 0.520752
vn -0.518671 0.636085 0.571294
v -2.136232 0.869650 -0.750397
vt -2.388672 0.502441
vn -0.879786 0.293215 -0.374168
v -2.148757 0.869571 -0.748953
vt -2.375000 0.505127
vn -0.898150 0.336175 -0.283396
v -2.148757 0.869571 -0.748953
vt -2.375000 0.505127
vn -0.540621 0.667554 0.511958
v -2.166351 0.864657 -0.720404
vt -2.335938 0.513672
vn -0.546555 0.683135 0.484359
v -2.136634 0.858469 -0.752602
vt -2.386719 0.489258
vn -0.902890 0.403219 -0.149009
v -2.149198 0.858585 -0.751208
vt -2.373047 0.494141
vn -0.901595 0.414105 -0.125071
v -2.166982 0.857255 -0.722614
vt -2.332031 0.503906
vn -0.570332 0.754527 0.324670
v -2.149198 0.858585 -0.751208
vt -2.373047 0.494141
vn -0.554015 0.686270 0.471277
v -2.137690 0.839125 -0.754970
vt -2.376953 0.465332
vn -0.888552 0.456252 0.048054
v -2.150224 0.840514 -0.753579
vt -2.369141 0.476074
vn -0.891119 0.453490 -0.015923
v -2.158438 0.900808 -0.700810
vt -2.355469 0.569336
vn -0.826591 0.524368 -0.204417
v -2.167946 0.899284 -0.704952
vt -2.347656 0.560791
vn -0.828882 0.516921 -0.213884
v -2.168322 0.840082 -0.724234
vt -2.332031 0.482910
vn -0.579977 0.783812 0.221959
v -2.181557 0.840114 -0.700485
vt -2.304688 0.478027
vn -0.460168 0.858605 0.225924
v -2.179376 0.857330 -0.699771
vt -2.300781 0.497070
vn -0.439141 0.870165 0.223535
v -2.194393 0.840221 -0.675738
vt -2.275391 0.474121
vn -0.425325 0.874622 0.232670
v -2.190160 0.857194 -0.678524
vt -2.275391 0.490723
vn -0.390679 0.892365 0.225952
v -2.169931 0.898811 -0.678141
vt -2.332031 0.588623
vn -0.829763 0.524003 -0.192131
v -2.178312 0.898436 -0.684672
vt -2.330078 0.578125
vn -0.831471 0.519091 -0.197991
v -2.150224 0.840514 -0.753579
vt -2.369141 0.476074
vn -0.561317 0.703677 0.435617
v -2.150224 0.840514 -0.753579
vt -2.369141 0.476074
vn -0.397737 0.795399 0.457324
v -2.168322 0.840082 -0.724234
vt -2.332031 0.482910
vn -0.593532 0.782343 0.188835
v -2.137690 0.839125 -0.754970
vt -2.376953 0.465332
vn -0.432608 0.796336 0.422728
v -2.159405 0.838367 -0.720091
vt -2.332031 0.471191
vn -0.589224 0.784108 0.194908
v -2.181557 0.840114 -0.700485
vt -2.304688 0.478027
vn -0.620653 0.773640 0.127558
v -2.172633 0.838549 -0.696377
vt -2.304688 0.466309
vn -0.614691 0.776846 0.136621
v -2.194393 0.840221 -0.675738
vt -2.275391 0.474121
vn -0.533139 0.808819 0.248141
v -2.186549 0.839863 -0.669533
vt -2.267578 0.467285
vn -0.515654 0.810921 0.276602
v -2.166982 0.857255 -0.722614
vt -2.332031 0.503906
vn 0.884233 0.446295 0.137668
v -2.166351 0.864657 -0.720404
vt -2.335938 0.513672
vn 0.885544 0.462510 0.043552
v -2.155935 0.858630 -0.720069
vt -2.326172 0.514648
vn 0.882709 0.441366 0.161311
v -2.155357 0.864661 -0.718422
vt -2.326172 0.519287
vn 0.887543 0.459636 -0.031665
v -2.166120 0.875798 -0.717235
vt -2.339844 0.528320
vn 0.874608 0.374846 -0.307493
v -2.155416 0.874515 -0.715075
vt -2.326172 0.528320
vn 0.815223 0.296476 -0.497507
v -2.166589 0.879182 -0.715310
vt -2.339844 0.533447
vn 0.829403 0.368662 -0.419737
v -2.155805 0.877860 -0.713271
vt -2.326172 0.531494
vn 0.770003 0.532349 -0.351711
v -2.167605 0.881785 -0.712559
vt -2.337891 0.538574
vn 0.814526 0.498326 -0.297015
v -2.156701 0.879907 -0.711126
vt -2.326172 0.533936
vn 0.718684 0.677404 -0.156898
v -2.169392 0.883942 -0.708517
vt -2.335938 0.544434
vn 0.765389 0.639879 -0.068806
v -2.158660 0.881910 -0.707051
vt -2.326172 0.538330
vn 0.701160 0.712908 -0.011727
v -2.171795 0.885062 -0.703690
vt -2.332031 0.550293
vn 0.694907 0.702899 0.151778
v -2.161397 0.882996 -0.701765
vt -2.322266 0.543701
vn 0.688365 0.708363 0.156127
v -2.182034 0.885421 -0.682958
vt -2.320312 0.572266
vn 0.797827 0.602135 -0.030092
v -2.174172 0.883820 -0.676284
vt -2.310547 0.575928
vn 0.826945 0.553972 -0.096318
v -2.166982 0.857255 -0.722614
vt -2.332031 0.503906
vn -0.273362 0.830126 0.485968
v -2.155935 0.858630 -0.720069
vt -2.326172 0.514648
vn -0.299514 0.833566 0.464175
v -2.179376 0.857330 -0.699771
vt -2.300781 0.497070
vn -0.227857 0.818023 0.528128
v -2.168692 0.859260 -0.697686
vt -2.300781 0.508789
vn -0.275666 0.826949 0.490065
v -2.181643 0.858888 -0.672401
vt -2.267578 0.497559
vn -0.146717 0.796332 0.586796
v -2.190160 0.857194 -0.678524
vt -2.275391 0.490723
vn -0.146717 0.796332 0.586796
v -2.190160 0.857194 -0.678524
vt -2.275391 0.490723
vn 0.589408 0.613304 0.525791
v -2.181643 0.858888 -0.672401
vt -2.267578 0.497559
vn 0.714872 0.676023 0.178748
v -2.194393 0.840221 -0.675738
vt -2.275391 0.474121
vn 0.707238 0.699215 -0.104463
v -2.186549 0.839863 -0.669533
vt -2.267578 0.467285
vn 0.601128 0.786622 -0.140963
v -2.178312 0.898436 -0.684672
vt -2.330078 0.578125
vn 0.050034 0.193099 0.979903
v -2.169931 0.898811 -0.678141
vt -2.332031 0.588623
vn 0.289674 0.392568 0.872914
v -2.182034 0.885421 -0.682958
vt -2.320312 0.572266
vn 0.404186 0.481911 0.777429
v -2.174172 0.883820 -0.676284
vt -2.310547 0.575928
vn 0.579406 0.607181 0.543709
v -2.154863 0.926396 0.724942
vt -2.617188 0.567871
vn -0.967313 -0.182610 -0.175954
v -2.151577 0.927981 0.723030
vt -2.619141 0.571777
vn -0.967313 -0.182610 -0.175954
v -2.150043 0.926441 0.733386
vt -2.625000 0.562500
vn -0.968735 -0.161442 -0.188383
v -2.145935 0.928256 0.732465
vt -2.628906 0.565918
vn -0.968936 -0.155268 -0.192497
v -2.188380 0.826544 0.702283
vt -2.537109 0.421875
vn -0.201836 -0.097419 -0.974562
v -2.193201 0.802926 0.700806
vt -2.535156 0.394531
vn -0.200749 -0.083052 -0.976116
v -2.201788 0.826441 0.676150
vt -2.505859 0.418457
vn -0.197273 -0.041529 -0.979469
v -2.207911 0.802911 0.672317
vt -2.496094 0.394043
vn -0.197429 -0.006905 -0.980293
v -2.158977 0.827410 0.751449
vt -2.599609 0.431152
vn -0.235696 -0.124799 -0.963780
v -2.161228 0.802916 0.753394
vt -2.603516 0.404785
vn -0.235903 -0.117931 -0.964594
v -2.174349 0.826972 0.726916
vt -2.568359 0.426270
vn -0.216131 -0.118490 -0.969148
v -2.177761 0.802826 0.727639
vt -2.570312 0.398926
vn -0.215946 -0.125379 -0.968322
v -2.142384 0.827698 0.775222
vt -2.632812 0.437500
vn -0.972065 -0.040773 -0.231143
v -2.143042 0.802920 0.778199
vt -2.634766 0.409180
vn -0.278374 0.000000 -0.960473
v -2.145165 0.926132 0.741799
vt -2.634766 0.557373
vn -0.966370 -0.129732 -0.222032
v -2.140155 0.928011 0.741939
vt -2.638672 0.560791
vn -0.965258 -0.123626 -0.230204
v -2.140259 0.925294 0.750171
vt -2.642578 0.552490
vn -0.959587 -0.098415 -0.263643
v -2.135038 0.927232 0.750409
vt -2.648438 0.555908
vn -0.957844 -0.091859 -0.272209
v -2.135389 0.923728 0.758467
vt -2.652344 0.547119
vn -0.951966 -0.078406 -0.295997
v -2.129868 0.925822 0.758945
vt -2.658203 0.550537
vn -0.948362 -0.071837 -0.308948
v -2.130634 0.921317 0.766635
vt -2.660156 0.541504
vn -0.940181 -0.058980 -0.335532
v -2.124802 0.923357 0.767528
vt -2.666016 0.544678
vn -0.935664 -0.051970 -0.349044
v -2.126090 0.917868 0.774560
vt -2.667969 0.535156
vn -0.926967 -0.045558 -0.372367
v -2.119794 0.919988 0.775885
vt -2.675781 0.537842
vn -0.923216 -0.045749 -0.381548
v -2.121930 0.913100 0.782019
vt -2.675781 0.527588
vn -0.915665 -0.046920 -0.399193
v -2.115197 0.914858 0.783927
vt -2.683594 0.529541
vn -0.916110 -0.055036 -0.397131
v -2.118363 0.906922 0.788702
vt -2.681641 0.518799
vn -0.911358 -0.055940 -0.407797
v -2.111114 0.908615 0.790830
vt -2.691406 0.520508
vn -0.916767 -0.071402 -0.392988
v -2.115479 0.899570 0.794451
vt -2.687500 0.509277
vn -0.919066 -0.079568 -0.385987
v -2.107871 0.901213 0.797080
vt -2.695312 0.510498
vn -0.924504 -0.095193 -0.369094
v -2.109056 0.851718 0.811027
vt -2.693359 0.454102
vn -0.932171 -0.117961 -0.342261
v -2.098413 0.851881 0.815463
vt -2.705078 0.452637
vn -0.932171 -0.117961 -0.342261
v -2.107597 0.824400 0.816054
vt -2.693359 0.424316
vn -0.924569 -0.103610 -0.366656
v -2.096344 0.824320 0.820390
vt -2.705078 0.422363
vn -0.924569 -0.103610 -0.366656
v -2.106479 0.802821 0.819272
vt -2.693359 0.399902
vn -0.920143 -0.096821 -0.379423
v -2.095115 0.802957 0.823512
vt -2.707031 0.398926
vn -0.916714 -0.089214 -0.389456
v -2.113297 0.891326 0.799189
vt -2.689453 0.499512
vn -0.927597 -0.102614 -0.359213
v -2.105091 0.892943 0.802183
vt -2.699219 0.500000
vn -0.933199 -0.117127 -0.339736
v -2.111791 0.882424 0.802882
vt -2.691406 0.488770
vn -0.936460 -0.124847 -0.327803
v -2.102617 0.882838 0.806886
vt -2.703125 0.487793
vn -0.938822 -0.131859 -0.318161
v -2.110792 0.874166 0.805591
vt -2.691406 0.479492
vn -0.938822 -0.131859 -0.318161
v -2.101177 0.874584 0.809700
vt -2.703125 0.478027
vn -0.938822 -0.131859 -0.318161
v -2.164066 0.925792 0.708664
vt -2.599609 0.578857
vn -0.968545 -0.174245 -0.177650
v -2.160980 0.927058 0.706771
vt -2.601562 0.582764
vn -0.968446 -0.169274 -0.182916
v -2.173605 0.924500 0.690805
vt -2.580078 0.590332
vn -0.966337 -0.171315 -0.191949
v -2.170676 0.925153 0.688748
vt -2.580078 0.593750
vn -0.966787 -0.170173 -0.190695
v -2.164066 0.925792 0.708664
vt -2.599609 0.578857
vn -0.952912 -0.204646 0.223784
v -2.169348 0.909691 0.707070
vt -2.585938 0.565674
vn -0.952845 -0.201470 0.226930
v -2.173605 0.924500 0.690805
vt -2.580078 0.590332
vn -0.952757 -0.198248 0.230112
v -2.178566 0.909150 0.688940
vt -2.570312 0.577881
vn -0.952757 -0.198248 0.230112
v -2.154863 0.926396 0.724942
vt -2.617188 0.567871
vn -0.958896 -0.206837 0.194261
v -2.157490 0.909482 0.728788
vt -2.609375 0.549561
vn -0.958395 -0.208079 0.195403
v -2.150043 0.926441 0.733386
vt -2.625000 0.562500
vn -0.967484 -0.209530 0.141679
v -2.121930 0.913100 0.782019
vt -2.675781 0.527588
vn -0.981954 -0.184460 -0.041718
v -2.143006 0.889377 0.759872
vt -2.636719 0.510742
vn -0.977894 -0.208918 -0.008738
v -2.126090 0.917868 0.774560
vt -2.667969 0.535156
vn -0.980762 -0.193783 -0.023528
v -2.109056 0.851718 0.811027
vt -2.693359 0.454102
vn -0.983548 -0.138251 -0.116279
v -2.110792 0.874166 0.805591
vt -2.691406 0.479492
vn -0.983602 -0.154635 -0.092815
v -2.141196 0.861822 0.769852
vt -2.638672 0.477051
vn -0.982772 -0.169866 -0.072835
v -2.130634 0.921317 0.766635
vt -2.660156 0.541504
vn -0.978042 -0.208328 -0.005803
v -2.146014 0.899308 0.751926
vt -2.630859 0.525146
vn -0.975720 -0.214544 0.044054
v -2.135389 0.923728 0.758467
vt -2.652344 0.547119
vn -0.977649 -0.209521 0.017406
v -2.113297 0.891326 0.799189
vt -2.689453 0.499512
vn -0.983192 -0.169915 -0.066808
v -2.141264 0.873284 0.766835
vt -2.638672 0.490723
vn -0.981720 -0.184978 -0.044830
v -2.115479 0.899570 0.794451
vt -2.687500 0.509277
vn -0.982749 -0.174836 -0.060304
v -2.140259 0.925294 0.750171
vt -2.642578 0.552490
vn -0.976201 -0.211710 0.047015
v -2.151230 0.906553 0.740795
vt -2.621094 0.538818
vn -0.970394 -0.212283 0.115202
v -2.145165 0.926132 0.741799
vt -2.634766 0.557373
vn -0.973813 -0.207387 0.093163
v -2.111791 0.882424 0.802882
vt -2.691406 0.488770
vn -0.983451 -0.164394 -0.076146
v -2.118363 0.906922 0.788702
vt -2.681641 0.518799
vn -0.983089 -0.174886 -0.054330
v -2.107597 0.824400 0.816054
vt -2.693359 0.424316
vn -0.982649 -0.132671 -0.129613
v -2.106479 0.802821 0.819272
vt -2.693359 0.399902
vn -0.982410 -0.127152 -0.136755
v -2.143322 0.887675 0.757408
vt -2.632812 0.509766
vn -0.974863 -0.064074 0.213394
v -2.143006 0.889377 0.759872
vt -2.636719 0.510742
vn -0.977126 -0.067294 0.201731
v -2.141646 0.872150 0.764080
vt -2.634766 0.490723
vn -0.977841 -0.057536 0.201290
v -2.141264 0.873284 0.766835
vt -2.638672 0.490723
vn -0.977841 -0.057536 0.201290
v -2.141571 0.861007 0.767010
vt -2.634766 0.477539
vn -0.976998 -0.054289 0.206223
v -2.141196 0.861822 0.769852
vt -2.638672 0.477051
vn -0.976998 -0.054289 0.206223
v -2.142574 0.829763 0.772317
vt -2.628906 0.440430
vn -0.134458 0.000000 -0.990919
v -2.142384 0.827698 0.775222
vt -2.632812 0.437500
vn -0.134458 0.000000 -0.990919
v -2.178468 0.906149 0.688005
vt -2.568359 0.576172
vn -0.849195 -0.098009 0.518904
v -2.178566 0.909150 0.688940
vt -2.570312 0.577881
vn -0.860683 -0.101274 0.498968
v -2.168603 0.906515 0.706871
vt -2.583984 0.562500
vn -0.916654 -0.118086 0.381840
v -2.169348 0.909691 0.707070
vt -2.585938 0.565674
vn -0.920129 -0.117646 0.373526
v -2.156854 0.906320 0.728406
vt -2.605469 0.546631
vn -0.927352 -0.114226 0.356329
v -2.157490 0.909482 0.728788
vt -2.609375 0.549561
vn -0.929058 -0.117009 0.350942
v -2.150955 0.903643 0.739733
vt -2.617188 0.536133
vn -0.944890 -0.097307 0.312593
v -2.151230 0.906553 0.740795
vt -2.621094 0.538818
vn -0.946317 -0.100170 0.307327
v -2.146168 0.896960 0.749966
vt -2.626953 0.523438
vn -0.961382 -0.080721 0.263115
v -2.146014 0.899308 0.751926
vt -2.630859 0.525146
vn -0.963145 -0.080869 0.256538
v -2.157644 0.829720 0.750742
vt -2.599609 0.434082
vn -0.201221 -0.124906 -0.971550
v -2.158977 0.827410 0.751449
vt -2.599609 0.431152
vn -0.201371 -0.118031 -0.972378
v -2.173002 0.829277 0.726246
vt -2.566406 0.429199
vn -0.191273 -0.090411 -0.977364
v -2.174349 0.826972 0.726916
vt -2.568359 0.426270
vn -0.191273 -0.090411 -0.977364
v -2.187015 0.828845 0.701650
vt -2.537109 0.424805
vn -0.181936 -0.083973 -0.979718
v -2.188380 0.826544 0.702283
vt -2.537109 0.421875
vn -0.180681 -0.083374 -0.980002
v -2.200403 0.828672 0.675878
vt -2.505859 0.420898
vn -0.175157 -0.084059 -0.980946
v -2.201788 0.826441 0.676150
vt -2.505859 0.418457
vn -0.175157 -0.084059 -0.980946
v -2.178468 0.906149 0.688005
vt -2.568359 0.576172
vn 0.968275 -0.246490 0.041066
v -2.168591 0.904186 0.679578
vt -2.556641 0.578125
vn 0.968275 -0.246490 0.041066
v -2.178566 0.909150 0.688940
vt -2.570312 0.577881
vn 0.968275 -0.246490 0.041066
v -2.207911 0.802911 0.672317
vt -2.496094 0.394043
vn 0.962475 -0.191887 0.191887
v -2.195377 0.798211 0.655270
vt -2.472656 0.400391
vn 0.960788 -0.189672 0.202264
v -2.201788 0.826441 0.676150
vt -2.505859 0.418457
vn 0.958971 -0.187373 0.212757
v -2.189243 0.830729 0.667802
vt -2.498047 0.433105
vn 0.957022 -0.185029 0.223322
v -2.145925 0.904164 0.721900
vt -2.595703 0.535889
vn 0.998077 -0.042045 -0.045540
v -2.157327 0.904375 0.700995
vt -2.574219 0.552002
vn 0.995382 -0.091390 -0.029379
v -2.156854 0.906320 0.728406
vt -2.605469 0.546631
vn 0.997927 -0.041896 -0.048856
v -2.168603 0.906515 0.706871
vt -2.583984 0.562500
vn 0.997335 -0.072223 0.010332
v -2.150955 0.903643 0.739733
vt -2.617188 0.536133
vn 0.161291 -0.098207 -0.982009
v -2.146168 0.896960 0.749966
vt -2.626953 0.523438
vn 0.253800 -0.146040 -0.956168
v -2.140072 0.901569 0.732872
vt -2.607422 0.527100
vn 0.164266 -0.090894 -0.982219
v -2.135489 0.895074 0.742866
vt -2.615234 0.517090
vn 0.261016 -0.125342 -0.957162
v -2.131635 0.859435 0.759291
vt -2.621094 0.478516
vn 0.974145 -0.196746 -0.111049
v -2.131618 0.870449 0.756526
vt -2.621094 0.489746
vn 0.963980 -0.096422 -0.247882
v -2.141571 0.861007 0.767010
vt -2.634766 0.477539
vn 0.972442 -0.139883 -0.186517
v -2.141646 0.872150 0.764080
vt -2.634766 0.490723
vn 0.949935 -0.042720 -0.309512
v -2.132851 0.832119 0.763876
vt -2.619141 0.451172
vn 0.928824 -0.110913 0.353531
v -2.142574 0.829763 0.772317
vt -2.628906 0.440430
vn 0.950895 -0.093722 0.294984
v -2.168591 0.904186 0.679578
vt -2.556641 0.578125
vn 0.963559 -0.138673 -0.228745
v -2.178468 0.906149 0.688005
vt -2.568359 0.576172
vn 0.980313 -0.122553 -0.154814
v -2.175250 0.831520 0.695317
vt -2.533203 0.440430
vn -0.141390 -0.014122 -0.989853
v -2.187015 0.828845 0.701650
vt -2.537109 0.424805
vn -0.145375 -0.007074 -0.989351
v -2.189243 0.830729 0.667802
vt -2.498047 0.433105
vn -0.135404 -0.007125 -0.990765
v -2.200403 0.828672 0.675878
vt -2.505859 0.420898
vn -0.141396 -0.007052 -0.989928
v -2.146537 0.832194 0.743925
vt -2.595703 0.448242
vn -0.177310 -0.020852 -0.983934
v -2.157644 0.829720 0.750742
vt -2.599609 0.434082
vn -0.171722 -0.021025 -0.984921
v -2.161139 0.831810 0.720460
vt -2.566406 0.443848
vn -0.174564 -0.006975 -0.984621
v -2.173002 0.829277 0.726246
vt -2.566406 0.429199
vn -0.171772 -0.006997 -0.985112
v -2.201788 0.826441 0.676150
vt -2.505859 0.418457
vn 0.893364 -0.187006 0.408570
v -2.189243 0.830729 0.667802
vt -2.498047 0.433105
vn 0.893364 -0.187006 0.408570
v -2.200403 0.828672 0.675878
vt -2.505859 0.420898
vn 0.893364 -0.187006 0.408570
v -2.170676 0.925153 0.688748
vt -2.580078 0.593750
vn 0.141906 0.989874 -0.003447
v -2.173605 0.924500 0.690805
vt -2.580078 0.590332
vn 0.955399 -0.208821 0.208821
v -2.156540 0.931373 0.676202
vt -2.566406 0.612061
vn 0.948597 -0.200082 0.245216
v -2.168591 0.904186 0.679578
vt -2.556641 0.578125
vn 0.943430 -0.203587 0.261711
v -2.132966 0.886095 0.749973
vt -2.619141 0.506592
vn 0.337348 -0.043091 -0.940393
v -2.143322 0.887675 0.757408
vt -2.632812 0.509766
vn 0.327638 -0.092632 -0.940251
v -2.168591 0.904186 0.679578
vt -2.556641 0.578125
vn 0.972883 -0.228611 0.035155
v -2.173605 0.924500 0.690805
vt -2.580078 0.590332
vn 0.973429 -0.225794 0.038120
v -2.178566 0.909150 0.688940
vt -2.570312 0.577881
vn 0.968491 -0.246544 0.035237
v -2.167946 0.899284 0.704952
vt -2.347656 0.560791
vn -0.924827 -0.197705 0.324974
v -2.171795 0.885062 0.703690
vt -2.332031 0.550293
vn -0.878364 -0.196752 0.435620
v -2.178312 0.898436 0.684672
vt -2.330078 0.578125
vn -0.841818 -0.192337 0.504330
v -2.182034 0.885421 0.682958
vt -2.320312 0.572266
vn -0.791953 -0.188560 0.580737
v -2.157892 0.897883 0.724041
vt -2.363281 0.545410
vn -0.954702 -0.197334 0.222717
v -2.169392 0.883942 0.708517
vt -2.335938 0.544434
vn -0.928114 -0.200332 0.313802
v -2.153494 0.895240 0.732656
vt -2.371094 0.537598
vn -0.831879 -0.018480 -0.554650
v -2.157892 0.897883 0.724041
vt -2.363281 0.545410
vn -0.894534 -0.058502 -0.443155
v -2.142857 0.897730 0.730277
vt -2.382812 0.543213
vn -0.828411 -0.009256 -0.560044
v -2.148392 0.900032 0.719629
vt -2.373047 0.553467
vn -0.897005 -0.058391 -0.438147
v -2.153494 0.895240 0.732656
vt -2.371094 0.537598
vn -0.962448 -0.198159 0.185547
v -2.167605 0.881784 0.712559
vt -2.337891 0.538574
vn -0.952757 -0.198248 0.230112
v -2.150653 0.890354 0.739366
vt -2.375000 0.529541
vn -0.823720 -0.070281 -0.562624
v -2.138688 0.892619 0.739282
vt -2.388672 0.531982
vn -0.819349 -0.049619 -0.571144
v -2.150653 0.890354 0.739366
vt -2.375000 0.529541
vn -0.967756 -0.198535 0.155026
v -2.166589 0.879182 0.715311
vt -2.339844 0.533447
vn -0.964375 -0.199113 0.174170
v -2.149185 0.883618 0.744073
vt -2.376953 0.520752
vn -0.869306 -0.160773 -0.467397
v -2.136579 0.884432 0.745513
vt -2.390625 0.520020
vn -0.852043 -0.120964 -0.509303
v -2.149185 0.883618 0.744073
vt -2.376953 0.520752
vn -0.969050 -0.197533 0.148065
v -2.166120 0.875798 0.717236
vt -2.339844 0.528320
vn -0.973073 -0.197660 0.118572
v -2.148757 0.869570 0.748953
vt -2.375000 0.505127
vn -0.911451 -0.273895 -0.306982
v -2.136232 0.869650 0.750398
vt -2.388672 0.502441
vn -0.892191 -0.205869 -0.402010
v -2.166351 0.864657 0.720404
vt -2.335938 0.513672
vn -0.979179 -0.195858 0.053365
v -2.148757 0.869570 0.748953
vt -2.375000 0.505127
vn -0.976663 -0.197736 0.083845
v -2.149198 0.858584 0.751209
vt -2.373047 0.494141
vn -0.920905 -0.359769 -0.149999
v -2.136634 0.858469 0.752602
vt -2.386719 0.489258
vn -0.921350 -0.347659 -0.173917
v -2.149198 0.858584 0.751209
vt -2.373047 0.494141
vn -0.979276 -0.197644 0.044217
v -2.166982 0.857255 0.722614
vt -2.332031 0.503906
vn -0.989248 -0.101765 -0.105031
v -2.150224 0.840513 0.753579
vt -2.369141 0.476074
vn -0.906325 -0.421380 -0.031844
v -2.137690 0.839125 0.754970
vt -2.376953 0.465332
vn -0.898533 -0.437474 0.035429
v -2.167946 0.899284 0.704952
vt -2.347656 0.560791
vn -0.922446 -0.087073 -0.376180
v -2.158438 0.900808 0.700810
vt -2.355469 0.569336
vn -0.924402 -0.086883 -0.371394
v -2.179376 0.857329 0.699772
vt -2.300781 0.497070
vn -0.191520 -0.181073 -0.964641
v -2.181557 0.840114 0.700485
vt -2.304688 0.478027
vn -0.195328 -0.146496 -0.969735
v -2.168322 0.840082 0.724234
vt -2.332031 0.482910
vn -0.978593 -0.013669 -0.205349
v -2.190160 0.857193 0.678524
vt -2.275391 0.490723
vn -0.178918 -0.252578 -0.950891
v -2.194393 0.840221 0.675738
vt -2.275391 0.474121
vn -0.185809 -0.189324 -0.964174
v -2.178312 0.898436 0.684672
vt -2.330078 0.578125
vn -0.927597 -0.102614 -0.359213
v -2.169931 0.898811 0.678141
vt -2.332031 0.588623
vn -0.928673 -0.101855 -0.356640
v -2.150224 0.840513 0.753579
vt -2.369141 0.476074
vn -0.980656 -0.195545 0.008733
v -2.159405 0.838367 0.720091
vt -2.332031 0.471191
vn -0.225334 0.000000 -0.974282
v -2.168322 0.840082 0.724234
vt -2.332031 0.482910
vn -0.227862 0.000000 -0.973693
v -2.137690 0.839125 0.754970
vt -2.376953 0.465332
vn -0.993217 -0.040809 -0.108875
v -2.150224 0.840513 0.753579
vt -2.369141 0.476074
vn -0.994599 -0.040862 -0.095408
v -2.172633 0.838549 0.696377
vt -2.304688 0.466309
vn -0.248981 -0.020742 -0.968286
v -2.181557 0.840114 0.700485
vt -2.304688 0.478027
vn -0.253043 -0.020793 -0.967232
v -2.186549 0.839863 0.669533
vt -2.267578 0.467285
vn -0.190731 -0.013864 -0.981545
v -2.194393 0.840221 0.675738
vt -2.275391 0.474121
vn -0.201377 -0.020827 -0.979292
v -2.155357 0.864660 0.718422
vt -2.326172 0.519287
vn 0.916478 -0.395054 -0.063248
v -2.166351 0.864657 0.720404
vt -2.335938 0.513672
vn 0.901751 -0.431636 0.023121
v -2.155935 0.858630 0.720069
vt -2.326172 0.514648
vn 0.882698 -0.441406 0.161263
v -2.166982 0.857255 0.722614
vt -2.332031 0.503906
vn 0.888148 -0.439939 0.132840
v -2.155416 0.874515 0.715075
vt -2.326172 0.528320
vn 0.831898 -0.018524 -0.554620
v -2.166120 0.875798 0.717236
vt -2.339844 0.528320
vn 0.909029 -0.180938 -0.375404
v -2.155805 0.877859 0.713271
vt -2.326172 0.531494
vn 0.494485 -0.100588 -0.863346
v -2.166589 0.879182 0.715311
vt -2.339844 0.533447
vn 0.861603 -0.035550 -0.506336
v -2.156701 0.879906 0.711126
vt -2.326172 0.533936
vn 0.398960 -0.105431 -0.910887
v -2.167605 0.881784 0.712559
vt -2.337891 0.538574
vn 0.891038 -0.016239 -0.453638
v -2.158660 0.881910 0.707051
vt -2.326172 0.538330
vn 0.322498 -0.021300 -0.946331
v -2.169392 0.883942 0.708517
vt -2.335938 0.544434
vn 0.945269 -0.050734 -0.322325
v -2.161397 0.882995 0.701765
vt -2.322266 0.543701
vn 0.979484 -0.110299 -0.168656
v -2.171795 0.885062 0.703690
vt -2.332031 0.550293
vn 0.979164 -0.117138 -0.165884
v -2.174172 0.883820 0.676284
vt -2.310547 0.575928
vn 0.949577 -0.165155 -0.266511
v -2.182034 0.885421 0.682958
vt -2.320312 0.572266
vn 0.959452 -0.156392 -0.234506
v -2.168692 0.859260 0.697686
vt -2.300781 0.508789
vn -0.098301 -0.043690 -0.994197
v -2.155935 0.858630 0.720069
vt -2.326172 0.514648
vn -0.107883 -0.050341 -0.992888
v -2.179376 0.857329 0.699772
vt -2.300781 0.497070
vn -0.081119 -0.044238 -0.995722
v -2.166982 0.857255 0.722614
vt -2.332031 0.503906
vn -0.098268 -0.050930 -0.993856
v -2.190160 0.857193 0.678524
vt -2.275391 0.490723
vn -0.052503 -0.044983 -0.997607
v -2.181643 0.858888 0.672401
vt -2.267578 0.497559
vn -0.052503 -0.044983 -0.997607
v -2.186549 0.839863 0.669533
vt -2.267578 0.467285
vn 0.383694 -0.337668 -0.859511
v -2.181643 0.858888 0.672401
vt -2.267578 0.497559
vn 0.977979 -0.175576 -0.112832
v -2.194393 0.840221 0.675738
vt -2.275391 0.474121
vn 0.371801 -0.088377 -0.924096
v -2.190160 0.857193 0.678524
vt -2.275391 0.490723
vn 0.959478 -0.230550 0.162014
v -2.174172 0.883820 0.676284
vt -2.310547 0.575928
vn 0.957110 -0.228347 0.178320
v -2.169931 0.898811 0.678141
vt -2.332031 0.588623
vn 0.774301 -0.142869 0.616478
v -2.182034 0.885421 0.682958
vt -2.320312 0.572266
vn 0.873582 -0.183192 0.450882
v -2.178312 0.898436 0.684672
vt -2.330078 0.578125
vn 0.429464 -0.027870 0.902654
v -2.167602 0.898853 0.704771
vt -1.042969 0.531738
vn -0.911640 -0.197297 0.360535
v -2.171348 0.885377 0.703494
vt -1.038086 0.528076
vn -0.860558 -0.197246 0.469610
v -2.177888 0.898046 0.684746
vt -1.037109 0.538818
vn -0.819981 -0.192089 0.539197
v -2.181512 0.885654 0.683063
vt -1.033203 0.536865
vn -0.776212 -0.190280 0.601073
v -2.157563 0.897467 0.723804
vt -1.049805 0.525391
vn -0.950723 -0.199164 0.237612
v -2.168923 0.884261 0.708395
vt -1.039062 0.525635
vn -0.920133 -0.201506 0.335784
v -2.153188 0.894856 0.732347
vt -1.052734 0.522461
vn -0.829019 -0.018630 -0.558910
v -2.157563 0.897467 0.723804
vt -1.049805 0.525391
vn -0.891140 -0.059404 -0.449822
v -2.142797 0.897217 0.730027
vt -1.056641 0.524414
vn -0.824807 -0.009268 -0.565338
v -2.148327 0.899470 0.719509
vt -1.052734 0.528564
vn -0.892839 -0.058931 -0.446505
v -2.153188 0.894856 0.732347
vt -1.052734 0.522461
vn -0.961278 -0.201069 0.188455
v -2.167107 0.882084 0.712542
vt -1.040039 0.523193
vn -0.948611 -0.200076 0.245166
v -2.150358 0.890048 0.738970
vt -1.054688 0.519287
vn -0.823720 -0.070281 -0.562624
v -2.138627 0.892215 0.738882
vt -1.059570 0.520020
vn -0.807631 -0.039875 -0.588338
v -2.150358 0.890048 0.738970
vt -1.054688 0.519287
vn -0.967756 -0.198535 0.155026
v -2.166061 0.879402 0.715409
vt -1.040039 0.520996
vn -0.962865 -0.200088 0.181259
v -2.148892 0.883412 0.743616
vt -1.054688 0.515869
vn -0.869306 -0.160773 -0.467397
v -2.136514 0.884175 0.745004
vt -1.060547 0.515381
vn -0.852043 -0.120964 -0.509303
v -2.148892 0.883412 0.743616
vt -1.054688 0.515869
vn -0.970100 -0.199576 0.138113
v -2.165581 0.875915 0.717418
vt -1.040039 0.518799
vn -0.973756 -0.197808 0.112571
v -2.148458 0.869436 0.748474
vt -1.054688 0.509521
vn -0.907237 -0.259204 -0.331261
v -2.136170 0.869500 0.749841
vt -1.059570 0.508545
vn -0.888324 -0.197390 -0.414629
v -2.165821 0.864691 0.720637
vt -1.039062 0.512695
vn -0.979475 -0.195902 0.047450
v -2.148458 0.869436 0.748474
vt -1.054688 0.509521
vn -0.977571 -0.197943 0.071933
v -2.148895 0.858483 0.750724
vt -1.053711 0.504883
vn -0.920031 -0.350460 -0.175274
v -2.136574 0.858367 0.752034
vt -1.058594 0.503174
vn -0.921371 -0.342222 -0.184279
v -2.148895 0.858483 0.750724
vt -1.053711 0.504883
vn -0.979954 -0.196603 0.032223
v -2.166480 0.856998 0.722474
vt -1.037109 0.508545
vn -0.989051 -0.096012 -0.112068
v -2.149946 0.840803 0.753160
vt -1.051758 0.498047
vn -0.906930 -0.419766 -0.035694
v -2.137623 0.839368 0.754660
vt -1.055664 0.493652
vn -0.898533 -0.437474 0.035429
v -2.167602 0.898853 0.704771
vt -1.042969 0.531738
vn -0.917997 -0.088560 -0.386573
v -2.158375 0.900233 0.700778
vt -1.046875 0.534912
vn -0.917997 -0.088560 -0.386573
v -2.179008 0.856925 0.699576
vt -1.024414 0.505859
vn -0.191244 -0.187802 -0.963409
v -2.181151 0.840468 0.700270
vt -1.026367 0.498535
vn -0.195115 -0.153311 -0.968724
v -2.167922 0.840431 0.724000
vt -1.037109 0.500977
vn -0.221320 0.000000 -0.975201
v -2.189717 0.856823 0.678585
vt -1.014648 0.503174
vn -0.175473 -0.266709 -0.947668
v -2.193888 0.840484 0.675850
vt -1.014648 0.497070
vn -0.182533 -0.203596 -0.961889
v -2.177888 0.898046 0.684746
vt -1.037109 0.538818
vn -0.918900 -0.097580 -0.382231
v -2.169727 0.898440 0.678359
vt -1.037109 0.542725
vn -0.920143 -0.096821 -0.379423
v -2.149946 0.840803 0.753160
vt -1.051758 0.498047
vn -0.980687 -0.195562 0.002897
v -2.159335 0.838942 0.720049
vt -1.038086 0.496582
vn -0.227862 0.000000 -0.973693
v -2.167922 0.840431 0.724000
vt -1.037109 0.500977
vn -0.231903 0.000000 -0.972739
v -2.137623 0.839368 0.754660
vt -1.055664 0.493652
vn -0.993380 -0.034221 -0.109656
v -2.149946 0.840803 0.753160
vt -1.051758 0.498047
vn -0.994880 -0.041009 -0.092364
v -2.172575 0.839126 0.696350
vt -1.026367 0.494141
vn -0.261258 -0.020896 -0.965043
v -2.181151 0.840468 0.700270
vt -1.026367 0.498535
vn -0.263620 -0.020809 -0.964402
v -2.186351 0.840069 0.669740
vt -1.011719 0.494141
vn -0.204045 -0.013805 -0.978864
v -2.193888 0.840484 0.675850
vt -1.014648 0.497070
vn -0.212075 -0.013879 -0.977155
v -2.155274 0.864792 0.718980
vt -1.035156 0.514893
vn 0.919484 -0.379371 -0.103089
v -2.165821 0.864691 0.720637
vt -1.039062 0.512695
vn 0.901264 -0.433252 -0.003901
v -2.155857 0.858390 0.720332
vt -1.035156 0.512695
vn 0.893842 -0.434751 0.109714
v -2.166480 0.856998 0.722474
vt -1.037109 0.508545
vn 0.893842 -0.434751 0.109714
v -2.155320 0.874745 0.715595
vt -1.036133 0.518555
vn 0.815607 -0.009510 -0.578528
v -2.165581 0.875915 0.717418
vt -1.040039 0.518799
vn 0.897954 -0.166654 -0.407314
v -2.155704 0.878222 0.713703
vt -1.036133 0.520020
vn 0.500793 -0.118865 -0.857366
v -2.166061 0.879402 0.715409
vt -1.040039 0.520996
vn 0.843521 -0.018052 -0.536792
v -2.156602 0.880388 0.711422
vt -1.036133 0.521240
vn 0.408365 -0.122150 -0.904609
v -2.167107 0.882084 0.712542
vt -1.040039 0.523193
vn 0.477964 0.000000 -0.878379
v -2.158559 0.882457 0.707197
vt -1.035156 0.523193
vn 0.328843 -0.035775 -0.943707
v -2.168923 0.884261 0.708395
vt -1.039062 0.525635
vn 0.938956 -0.036428 -0.342102
v -2.161302 0.883565 0.701780
vt -1.034180 0.525391
vn 0.978097 -0.104700 -0.179901
v -2.171348 0.885377 0.703494
vt -1.038086 0.528076
vn 0.979423 -0.116383 -0.164879
v -2.173952 0.884023 0.676480
vt -1.029297 0.538086
vn 0.950317 -0.163990 -0.264585
v -2.181512 0.885654 0.683063
vt -1.033203 0.536865
vn 0.959452 -0.156392 -0.234506
v -2.168610 0.858686 0.697644
vt -1.024414 0.510254
vn -0.095085 -0.036542 -0.994798
v -2.155857 0.858390 0.720332
vt -1.035156 0.512695
vn -0.104791 -0.036119 -0.993838
v -2.179008 0.856925 0.699576
vt -1.024414 0.505859
vn -0.077163 -0.044088 -0.996043
v -2.166480 0.856998 0.722474
vt -1.037109 0.508545
vn -0.094352 -0.043547 -0.994586
v -2.189717 0.856823 0.678585
vt -1.014648 0.503174
vn -0.048900 -0.052690 -0.997413
v -2.181426 0.858519 0.672596
vt -1.011719 0.505859
vn -0.048900 -0.052690 -0.997413
v -2.186351 0.840069 0.669740
vt -1.011719 0.494141
vn 0.381151 -0.335494 -0.861491
v -2.181426 0.858519 0.672596
vt -1.011719 0.505859
vn 0.978453 -0.175101 -0.109404
v -2.193888 0.840484 0.675850
vt -1.014648 0.497070
vn 0.371801 -0.088377 -0.924096
v -2.189717 0.856823 0.678585
vt -1.014648 0.503174
vn 0.959673 -0.227501 0.165142
v -2.173952 0.884023 0.676480
vt -1.029297 0.538086
vn 0.952220 -0.222222 0.209509
v -2.169727 0.898440 0.678359
vt -1.037109 0.542725
vn 0.748649 -0.128602 0.650374
v -2.181512 0.885654 0.683063
vt -1.033203 0.536865
vn 0.854226 -0.168700 0.491771
v -2.177888 0.898046 0.684746
vt -1.037109 0.538818
vn 0.380907 -0.011920 0.924537
v -2.181445 0.885684 -0.683076
vt -1.033203 0.536865
vn -0.396335 0.404220 0.824333
v -2.171291 0.885418 -0.703468
vt -1.038086 0.528076
vn -0.429696 0.472601 0.769422
v -2.177833 0.897996 -0.684755
vt -1.037109 0.538818
vn -0.410030 0.437538 0.800272
v -2.167557 0.898798 -0.704748
vt -1.042969 0.531738
vn -0.456668 0.527455 0.716412
v -2.168863 0.884303 -0.708379
vt -1.039062 0.525635
vn -0.472527 0.539439 0.696939
v -2.157521 0.897414 -0.723773
vt -1.049805 0.525391
vn -0.494499 0.590187 0.638083
v -2.148319 0.899398 -0.719493
vt -1.052734 0.528564
vn -0.835438 0.444262 -0.323533
v -2.157521 0.897414 -0.723773
vt -1.049805 0.525391
vn -0.836221 0.437524 -0.330616
v -2.142789 0.897151 -0.729995
vt -1.056641 0.524414
vn -0.809776 0.287666 -0.511382
v -2.153148 0.894807 -0.732307
vt -1.052734 0.522461
vn -0.815215 0.296424 -0.497551
v -2.167043 0.882122 -0.712540
vt -1.040039 0.523193
vn -0.500508 0.587841 0.635558
v -2.153148 0.894807 -0.732307
vt -1.052734 0.522461
vn -0.514110 0.614461 0.598438
v -2.138619 0.892164 -0.738830
vt -1.059570 0.520020
vn -0.802446 0.195143 -0.563914
v -2.150320 0.890009 -0.738919
vt -1.054688 0.519287
vn -0.817774 0.204408 -0.538017
v -2.165993 0.879431 -0.715421
vt -1.040039 0.520996
vn -0.514069 0.618417 0.594385
v -2.150320 0.890009 -0.738919
vt -1.054688 0.519287
vn -0.518799 0.632185 0.575492
v -2.136506 0.884142 -0.744938
vt -1.060547 0.515381
vn -0.843925 0.233482 -0.482988
v -2.148854 0.883386 -0.743557
vt -1.054688 0.515869
vn -0.860680 0.250320 -0.443361
v -2.165512 0.875931 -0.717442
vt -1.040039 0.518799
vn -0.531073 0.653602 0.539227
v -2.148854 0.883386 -0.743557
vt -1.054688 0.515869
vn -0.526755 0.640171 0.559205
v -2.136162 0.869481 -0.749769
vt -1.059570 0.508545
vn -0.876652 0.285408 -0.387330
v -2.148420 0.869419 -0.748412
vt -1.054688 0.509521
vn -0.894946 0.322730 -0.308086
v -2.148420 0.869419 -0.748412
vt -1.054688 0.509521
vn -0.545138 0.673119 0.499734
v -2.165752 0.864696 -0.720667
vt -1.039062 0.512695
vn -0.548708 0.685852 0.478045
v -2.136566 0.858354 -0.751961
vt -1.058594 0.503174
vn -0.903237 0.398446 -0.159383
v -2.148856 0.858470 -0.750661
vt -1.053711 0.504883
vn -0.904668 0.397137 -0.154459
v -2.166416 0.856965 -0.722456
vt -1.037109 0.508545
vn -0.571948 0.756681 0.316717
v -2.148856 0.858470 -0.750661
vt -1.053711 0.504883
vn -0.555619 0.692419 0.460266
v -2.137615 0.839399 -0.754620
vt -1.055664 0.493652
vn -0.890328 0.453178 0.044105
v -2.149910 0.840840 -0.753105
vt -1.051758 0.498047
vn -0.891884 0.451830 -0.019828
v -2.158367 0.900159 -0.700773
vt -1.046875 0.534912
vn -0.834143 0.498638 -0.235725
v -2.167557 0.898798 -0.704748
vt -1.042969 0.531738
vn -0.834143 0.498638 -0.235725
v -2.167870 0.840476 -0.723969
vt -1.037109 0.500977
vn -0.582211 0.786855 0.204668
v -2.181098 0.840514 -0.700242
vt -1.026367 0.498535
vn -0.460168 0.858605 0.225924
v -2.178960 0.856874 -0.699550
vt -1.024414 0.505859
vn -0.439141 0.870165 0.223535
v -2.193823 0.840518 -0.675865
vt -1.014648 0.497070
vn -0.413946 0.879497 0.234805
v -2.189660 0.856776 -0.678593
vt -1.014648 0.503174
vn -0.379925 0.896499 0.227918
v -2.169701 0.898392 -0.678387
vt -1.037109 0.542725
vn -0.836400 0.497276 -0.230546
v -2.177833 0.897996 -0.684755
vt -1.037109 0.538818
vn -0.836400 0.497276 -0.230546
v -2.149910 0.840840 -0.753105
vt -1.051758 0.498047
vn -0.563332 0.706232 0.428829
v -2.149910 0.840840 -0.753105
vt -1.051758 0.498047
vn -0.389958 0.794845 0.464924
v -2.167870 0.840476 -0.723969
vt -1.037109 0.500977
vn -0.600284 0.779454 0.179193
v -2.137615 0.839399 -0.754620
vt -1.055664 0.493652
vn -0.417215 0.799535 0.432059
v -2.159326 0.839016 -0.720043
vt -1.038086 0.496582
vn -0.593532 0.782343 0.188835
v -2.181098 0.840514 -0.700242
vt -1.026367 0.498535
vn -0.635460 0.765028 0.104513
v -2.172567 0.839200 -0.696346
vt -1.026367 0.494141
vn -0.632194 0.767018 0.109613
v -2.193823 0.840518 -0.675865
vt -1.014648 0.497070
vn -0.557409 0.799487 0.223866
v -2.186325 0.840096 -0.669767
vt -1.011719 0.494141
vn -0.542260 0.804135 0.243557
v -2.166416 0.856965 -0.722456
vt -1.037109 0.508545
vn 0.881613 0.453172 0.131885
v -2.165752 0.864696 -0.720667
vt -1.039062 0.512695
vn 0.887999 0.459693 0.011845
v -2.155846 0.858359 -0.720366
vt -1.035156 0.512695
vn 0.881613 0.453172 0.131885
v -2.155263 0.864809 -0.719051
vt -1.035156 0.514893
vn 0.894130 0.442977 -0.065603
v -2.165512 0.875931 -0.717442
vt -1.040039 0.518799
vn 0.871289 0.344570 -0.349466
v -2.155308 0.874775 -0.715662
vt -1.036133 0.518555
vn 0.804479 0.259170 -0.534458
v -2.165993 0.879431 -0.715421
vt -1.040039 0.520996
vn 0.819943 0.334232 -0.464738
v -2.155691 0.878269 -0.713758
vt -1.036133 0.520020
vn 0.763480 0.534426 -0.362610
v -2.167043 0.882122 -0.712540
vt -1.040039 0.523193
vn 0.812092 0.479453 -0.332614
v -2.156589 0.880450 -0.711460
vt -1.036133 0.521240
vn 0.716733 0.675039 -0.174976
v -2.168863 0.884303 -0.708379
vt -1.039062 0.525635
vn 0.767081 0.633708 -0.100007
v -2.158546 0.882528 -0.707215
vt -1.035156 0.523193
vn 0.695107 0.718526 -0.023397
v -2.171291 0.885418 -0.703468
vt -1.038086 0.528076
vn 0.692531 0.704470 0.155315
v -2.161289 0.883639 -0.701782
vt -1.034180 0.525391
vn 0.689187 0.709248 0.148288
v -2.181445 0.885684 -0.683076
vt -1.033203 0.536865
vn 0.798512 0.600781 -0.037963
v -2.173924 0.884050 -0.676505
vt -1.029297 0.538086
vn 0.824860 0.557870 -0.091584
v -2.166416 0.856965 -0.722456
vt -1.037109 0.508545
vn -0.266638 0.825527 0.497402
v -2.155846 0.858359 -0.720366
vt -1.035156 0.512695
vn -0.295857 0.826235 0.479378
v -2.178960 0.856874 -0.699550
vt -1.024414 0.505859
vn -0.216784 0.815399 0.536776
v -2.168600 0.858613 -0.697638
vt -1.024414 0.510254
vn -0.278031 0.823671 0.494232
v -2.181398 0.858472 -0.672621
vt -1.011719 0.505859
vn -0.135478 0.796967 0.588633
v -2.189660 0.856776 -0.678593
vt -1.014648 0.503174
vn -0.135478 0.796967 0.588633
v -2.189660 0.856776 -0.678593
vt -1.014648 0.503174
vn 0.581701 0.613576 0.533993
v -2.181398 0.858472 -0.672621
vt -1.011719 0.505859
vn 0.710029 0.678812 0.187278
v -2.193823 0.840518 -0.675865
vt -1.014648 0.497070
vn 0.707238 0.699215 -0.104463
v -2.186325 0.840096 -0.669767
vt -1.011719 0.494141
vn 0.600302 0.788089 -0.136210
v -2.177833 0.897996 -0.684755
vt -1.037109 0.538818
vn 0.021171 0.172911 0.984710
v -2.169701 0.898392 -0.678387
vt -1.037109 0.542725
vn 0.255887 0.372589 0.892020
v -2.181445 0.885684 -0.683076
vt -1.033203 0.536865
vn 0.364001 0.460805 0.809421
v -2.173924 0.884050 -0.676505
vt -1.029297 0.538086
vn 0.555932 0.595613 0.579814
usemtl Illumination
f 3/3/3 2/2/2 1/1/1
f 4/4/4 2/2/2 3/3/3
f 7/7/7 6/6/6 5/5/5
f 8/8/8 6/6/6 7/7/7
f 11/11/11 10/10/10 9/9/9
f 12/12/12 10/10/10 11/11/11
f 12/12/12 13/13/13 10/10/10
f 14/14/14 13/13/13 12/12/12
f 8/8/8 9/9/9 6/6/6
f 11/11/11 9/9/9 8/8/8
f 17/17/17 16/16/16 15/15/15
f 18/18/18 16/16/16 17/17/17
f 21/21/21 20/20/20 19/19/19
f 22/22/22 20/20/20 21/21/21
f 25/25/25 24/24/24 23/23/23
f 26/26/26 24/24/24 25/25/25
f 29/29/29 28/28/28 27/27/27
f 30/30/30 28/28/28 29/29/29
f 33/33/33 32/32/32 31/31/31
f 34/34/34 32/32/32 33/33/33
f 36/36/36 31/31/31 35/35/35
f 33/33/33 31/31/31 36/36/36
f 39/39/39 38/38/38 37/37/37
f 40/40/40 38/38/38 39/39/39
f 42/42/42 37/37/37 41/41/41
f 39/39/39 37/37/37 42/42/42
f 40/40/40 27/27/27 38/38/38
f 29/29/29 27/27/27 40/40/40
f 30/30/30 23/23/23 28/28/28
f 25/25/25 23/23/23 30/30/30
f 26/26/26 19/19/19 24/24/24
f 21/21/21 19/19/19 26/26/26
f 22/22/22 15/15/15 20/20/20
f 17/17/17 15/15/15 22/22/22
f 18/18/18 1/1/1 16/16/16
f 3/3/3 1/1/1 18/18/18
f 4/4/4 43/43/43 2/2/2
f 44/44/44 43/43/43 4/4/4
f 44/44/44 45/45/45 43/43/43
f 46/46/46 45/45/45 44/44/44
f 49/49/49 48/48/48 47/47/47
f 50/50/50 48/48/48 49/49/49
f 50/50/50 51/51/51 48/48/48
f 52/52/52 51/51/51 50/50/50
f 53/53/53 51/51/51 52/52/52
f 56/56/56 55/55/55 54/54/54
f 58/58/58 14/14/14 57/57/57
f 59/59/59 14/14/14 58/58/58
f 62/62/62 61/61/61 60/60/60
f 65/65/65 64/64/64 63/63/63
f 68/68/68 67/67/67 66/66/66
f 65/65/65 57/57/57 64/64/64
f 69/69/69 57/57/57 65/65/65
f 56/56/56 64/64/64 55/55/55
f 70/70/70 64/64/64 56/56/56
f 62/62/62 55/55/55 61/61/61
f 54/54/54 55/55/55 62/62/62
f 68/68/68 61/61/61 67/67/67
f 60/60/60 61/61/61 68/68/68
f 53/53/53 67/67/67 51/51/51
f 66/66/66 67/67/67 53/53/53
f 63/63/63 64/64/64 70/70/70
f 58/58/58 57/57/57 69/69/69
f 71/71/71 14/14/14 59/59/59
f 14/14/14 72/72/72 13/13/13
f 71/71/71 72/72/72 14/14/14
f 75/75/75 74/74/74 73/73/73
f 76/76/76 74/74/74 75/75/75
f 79/79/79 78/78/78 77/77/77
f 80/80/80 78/78/78 79/79/79
f 80/80/80 73/73/73 78/78/78
f 75/75/75 73/73/73 80/80/80
f 83/83/83 82/82/82 81/81/81
f 84/84/84 82/82/82 83/83/83
f 86/86/86 81/81/81 85/85/85
f 83/83/83 81/81/81 86/86/86
f 88/88/88 85/85/85 87/87/87
f 86/86/86 85/85/85 88/88/88
f 90/90/90 87/87/87 89/89/89
f 88/88/88 87/87/87 90/90/90
f 76/76/76 89/89/89 74/74/74
f 90/90/90 89/89/89 76/76/76
f 93/93/93 92/92/92 91/91/91
f 94/94/94 92/92/92 93/93/93
f 94/94/94 77/77/77 92/92/92
f 79/79/79 77/77/77 94/94/94
f 97/97/97 96/96/96 95/95/95
f 98/98/98 96/96/96 97/97/97
f 98/98/98 91/91/91 96/96/96
f 93/93/93 91/91/91 98/98/98
f 101/101/101 100/100/100 99/99/99
f 104/104/104 103/103/103 102/102/102
f 105/105/105 103/103/103 104/104/104
f 108/108/108 107/107/107 106/106/106
f 109/109/109 107/107/107 108/108/108
f 112/112/112 111/111/111 110/110/110
f 113/113/113 111/111/111 112/112/112
f 116/116/116 115/115/115 114/114/114
f 117/117/117 115/115/115 116/116/116
f 118/118/118 117/117/117 116/116/116
f 119/119/119 117/117/117 118/118/118
f 107/107/107 120/120/120 106/106/106
f 121/121/121 120/120/120 107/107/107
f 124/124/124 123/123/123 122/122/122
f 125/125/125 123/123/123 124/124/124
f 128/128/128 127/127/127 126/126/126
f 129/129/129 127/127/127 128/128/128
f 129/129/129 118/118/118 127/127/127
f 119/119/119 118/118/118 129/129/129
f 125/125/125 126/126/126 123/123/123
f 128/128/128 126/126/126 125/125/125
f 132/132/132 131/131/131 130/130/130
f 135/135/135 134/134/134 133/133/133
f 136/136/136 134/134/134 135/135/135
f 137/137/137 110/110/110 111/111/111
f 138/138/138 110/110/110 137/137/137
f 114/114/114 138/138/138 137/137/137
f 115/115/115 138/138/138 114/114/114
f 113/113/113 109/109/109 108/108/108
f 112/112/112 109/109/109 113/113/113
f 32/32/32 42/42/42 41/41/41
f 34/34/34 42/42/42 32/32/32
f 133/133/133 134/134/134 139/139/139
f 142/142/142 141/141/141 140/140/140
f 143/143/143 141/141/141 142/142/142
f 143/143/143 144/144/144 141/141/141
f 145/145/145 144/144/144 143/143/143
f 148/148/148 147/147/147 146/146/146
f 149/149/149 147/147/147 148/148/148
f 145/145/145 150/150/150 144/144/144
f 151/151/151 150/150/150 145/145/145
f 152/152/152 149/149/149 148/148/148
f 153/153/153 149/149/149 152/152/152
f 151/151/151 154/154/154 150/150/150
f 155/155/155 154/154/154 151/151/151
f 156/156/156 153/153/153 152/152/152
f 157/157/157 153/153/153 156/156/156
f 155/155/155 158/158/158 154/154/154
f 159/159/159 158/158/158 155/155/155
f 160/160/160 157/157/157 156/156/156
f 161/161/161 157/157/157 160/160/160
f 162/162/162 158/158/158 159/159/159
f 163/163/163 158/158/158 162/162/162
f 164/164/164 161/161/161 160/160/160
f 165/165/165 161/161/161 164/164/164
f 162/162/162 166/166/166 163/163/163
f 167/167/167 166/166/166 162/162/162
f 169/169/169 164/164/164 168/168/168
f 165/165/165 164/164/164 169/169/169
f 146/146/146 171/171/171 170/170/170
f 147/147/147 171/171/171 146/146/146
f 173/173/173 166/166/166 172/172/172
f 174/174/174 166/166/166 173/173/173
f 175/175/175 174/174/174 173/173/173
f 176/176/176 174/174/174 175/175/175
f 171/171/171 177/177/177 170/170/170
f 178/178/178 177/177/177 171/171/171
f 179/179/179 166/166/166 167/167/167
f 172/172/172 166/166/166 179/179/179
f 182/182/182 181/181/181 180/180/180
f 183/183/183 181/181/181 182/182/182
f 183/183/183 184/184/184 181/181/181
f 185/185/185 184/184/184 183/183/183
f 185/185/185 186/186/186 184/184/184
f 187/187/187 186/186/186 185/185/185
f 190/190/190 189/189/189 188/188/188
f 191/191/191 189/189/189 190/190/190
f 191/191/191 192/192/192 189/189/189
f 193/193/193 192/192/192 191/191/191
f 193/193/193 194/194/194 192/192/192
f 195/195/195 194/194/194 193/193/193
f 195/195/195 196/196/196 194/194/194
f 197/197/197 196/196/196 195/195/195
f 197/197/197 198/198/198 196/196/196
f 199/199/199 198/198/198 197/197/197
f 199/199/199 200/200/200 198/198/198
f 201/201/201 200/200/200 199/199/199
f 201/201/201 202/202/202 200/200/200
f 203/203/203 202/202/202 201/201/201
f 206/206/206 205/205/205 204/204/204
f 207/207/207 205/205/205 206/206/206
f 206/206/206 208/208/208 207/207/207
f 209/209/209 208/208/208 206/206/206
f 212/212/212 211/211/211 210/210/210
f 213/213/213 211/211/211 212/212/212
f 216/216/216 215/215/215 214/214/214
f 217/217/217 215/215/215 216/216/216
f 220/220/220 219/219/219 218/218/218
f 221/221/221 219/219/219 220/220/220
f 224/224/224 223/223/223 222/222/222
f 225/225/225 223/223/223 224/224/224
f 228/228/228 227/227/227 226/226/226
f 229/229/229 227/227/227 228/228/228
f 226/226/226 231/231/231 230/230/230
f 227/227/227 231/231/231 226/226/226
f 222/222/222 229/229/229 228/228/228
f 223/223/223 229/229/229 222/222/222
f 234/234/234 233/233/233 232/232/232
f 235/235/235 233/233/233 234/234/234
f 238/238/238 237/237/237 236/236/236
f 239/239/239 237/237/237 238/238/238
f 242/242/242 241/241/241 240/240/240
f 243/243/243 241/241/241 242/242/242
f 246/246/246 245/245/245 244/244/244
f 247/247/247 245/245/245 246/246/246
f 250/250/250 249/249/249 248/248/248
f 251/251/251 249/249/249 250/250/250
f 252/252/252 251/251/251 250/250/250
f 253/253/253 251/251/251 252/252/252
f 256/256/256 255/255/255 254/254/254
f 257/257/257 255/255/255 256/256/256
f 258/258/258 257/257/257 256/256/256
f 259/259/259 257/257/257 258/258/258
f 254/254/254 247/247/247 246/246/246
f 255/255/255 247/247/247 254/254/254
f 244/244/244 243/243/243 242/242/242
f 245/245/245 243/243/243 244/244/244
f 240/240/240 239/239/239 238/238/238
f 241/241/241 239/239/239 240/240/240
f 236/236/236 235/235/235 234/234/234
f 237/237/237 235/235/235 236/236/236
f 232/232/232 221/221/221 220/220/220
f 233/233/233 221/221/221 232/232/232
f 218/218/218 261/261/261 260/260/260
f 219/219/219 261/261/261 218/218/218
f 260/260/260 263/263/263 262/262/262
f 261/261/261 263/263/263 260/260/260
f 266/266/266 265/265/265 264/264/264
f 267/267/267 265/265/265 266/266/266
f 264/264/264 269/269/269 268/268/268
f 265/265/265 269/269/269 264/264/264
f 268/268/268 269/269/269 270/270/270
f 273/273/273 272/272/272 271/271/271
f 275/275/275 230/230/230 274/274/274
f 276/276/276 230/230/230 275/275/275
f 279/279/279 278/278/278 277/277/277
f 282/282/282 281/281/281 280/280/280
f 285/285/285 284/284/284 283/283/283
f 280/280/280 276/276/276 286/286/286
f 281/281/281 276/276/276 280/280/280
f 271/271/271 281/281/281 287/287/287
f 272/272/272 281/281/281 271/271/271
f 277/277/277 272/272/272 273/273/273
f 278/278/278 272/272/272 277/277/277
f 283/283/283 278/278/278 279/279/279
f 284/284/284 278/278/278 283/283/283
f 270/270/270 284/284/284 285/285/285
f 269/269/269 284/284/284 270/270/270
f 287/287/287 281/281/281 282/282/282
f 286/286/286 276/276/276 275/275/275
f 274/274/274 230/230/230 288/288/288
f 230/230/230 289/289/289 288/288/288
f 231/231/231 289/289/289 230/230/230
f 292/292/292 291/291/291 290/290/290
f 293/293/293 291/291/291 292/292/292
f 296/296/296 295/295/295 294/294/294
f 297/297/297 295/295/295 296/296/296
f 294/294/294 293/293/293 292/292/292
f 295/295/295 293/293/293 294/294/294
f 300/300/300 299/299/299 298/298/298
f 301/301/301 299/299/299 300/300/300
f 302/302/302 301/301/301 300/300/300
f 303/303/303 301/301/301 302/302/302
f 304/304/304 303/303/303 302/302/302
f 305/305/305 303/303/303 304/304/304
f 306/306/306 305/305/305 304/304/304
f 307/307/307 305/305/305 306/306/306
f 290/290/290 307/307/307 306/306/306
f 291/291/291 307/307/307 290/290/290
f 310/310/310 309/309/309 308/308/308
f 311/311/311 309/309/309 310/310/310
f 308/308/308 297/297/297 296/296/296
f 309/309/309 297/297/297 308/308/308
f 314/314/314 313/313/313 312/312/312
f 315/315/315 313/313/313 314/314/314
f 312/312/312 311/311/311 310/310/310
f 313/313/313 311/311/311 312/312/312
f 318/318/318 317/317/317 316/316/316
f 321/321/321 320/320/320 319/319/319
f 322/322/322 320/320/320 321/321/321
f 325/325/325 324/324/324 323/323/323
f 326/326/326 324/324/324 325/325/325
f 329/329/329 328/328/328 327/327/327
f 330/330/330 328/328/328 329/329/329
f 333/333/333 332/332/332 331/331/331
f 334/334/334 332/332/332 333/333/333
f 336/336/336 331/331/331 335/335/335
f 333/333/333 331/331/331 336/336/336
f 324/324/324 338/338/338 337/337/337
f 326/326/326 338/338/338 324/324/324
f 341/341/341 340/340/340 339/339/339
f 342/342/342 340/340/340 341/341/341
f 345/345/345 344/344/344 343/343/343
f 346/346/346 344/344/344 345/345/345
f 343/343/343 336/336/336 335/335/335
f 344/344/344 336/336/336 343/343/343
f 339/339/339 346/346/346 345/345/345
f 340/340/340 346/346/346 339/339/339
f 349/349/349 348/348/348 347/347/347
f 352/352/352 351/351/351 350/350/350
f 353/353/353 351/351/351 352/352/352
f 355/355/355 330/330/330 354/354/354
f 328/328/328 330/330/330 355/355/355
f 334/334/334 354/354/354 332/332/332
f 355/355/355 354/354/354 334/334/334
f 327/327/327 323/323/323 329/329/329
f 325/325/325 323/323/323 327/327/327
f 249/249/249 258/258/258 248/248/248
f 259/259/259 258/258/258 249/249/249
f 358/358/358 357/357/357 356/356/356
f 361/361/361 360/360/360 359/359/359
f 362/362/362 360/360/360 361/361/361
f 359/359/359 364/364/364 363/363/363
f 360/360/360 364/364/364 359/359/359
f 367/367/367 366/366/366 365/365/365
f 368/368/368 366/366/366 367/367/367
f 363/363/363 370/370/370 369/369/369
f 364/364/364 370/370/370 363/363/363
f 372/372/372 365/365/365 371/371/371
f 367/367/367 365/365/365 372/372/372
f 369/369/369 374/374/374 373/373/373
f 370/370/370 374/374/374 369/369/369
f 376/376/376 371/371/371 375/375/375
f 372/372/372 371/371/371 376/376/376
f 373/373/373 378/378/378 377/377/377
f 374/374/374 378/378/378 373/373/373
f 380/380/380 375/375/375 379/379/379
f 376/376/376 375/375/375 380/380/380
f 382/382/382 378/378/378 381/381/381
f 377/377/377 378/378/378 382/382/382
f 384/384/384 379/379/379 383/383/383
f 380/380/380 379/379/379 384/384/384
f 382/382/382 386/386/386 385/385/385
f 381/381/381 386/386/386 382/382/382
f 387/387/387 384/384/384 383/383/383
f 388/388/388 384/384/384 387/387/387
f 368/368/368 389/389/389 366/366/366
f 390/390/390 389/389/389 368/368/368
f 392/392/392 386/386/386 391/391/391
f 393/393/393 386/386/386 392/392/392
f 395/395/395 391/391/391 394/394/394
f 392/392/392 391/391/391 395/395/395
f 389/389/389 397/397/397 396/396/396
f 390/390/390 397/397/397 389/389/389
f 398/398/398 386/386/386 393/393/393
f 385/385/385 386/386/386 398/398/398
f 401/401/401 400/400/400 399/399/399
f 402/402/402 400/400/400 401/401/401
f 399/399/399 404/404/404 403/403/403
f 400/400/400 404/404/404 399/399/399
f 403/403/403 406/406/406 405/405/405
f 404/404/404 406/406/406 403/403/403
f 409/409/409 408/408/408 407/407/407
f 410/410/410 408/408/408 409/409/409
f 407/407/407 412/412/412 411/411/411
f 408/408/408 412/412/412 407/407/407
f 411/411/411 414/414/414 413/413/413
f 412/412/412 414/414/414 411/411/411
f 413/413/413 416/416/416 415/415/415
f 414/414/414 416/416/416 413/413/413
f 415/415/415 418/418/418 417/417/417
f 416/416/416 418/418/418 415/415/415
f 417/417/417 420/420/420 419/419/419
f 418/418/418 420/420/420 417/417/417
f 419/419/419 422/422/422 421/421/421
f 420/420/420 422/422/422 419/419/419
f 425/425/425 424/424/424 423/423/423
f 426/426/426 424/424/424 425/425/425
f 425/425/425 428/428/428 427/427/427
f 423/423/423 428/428/428 425/425/425
f 431/431/431 430/430/430 429/429/429
f 432/432/432 430/430/430 431/431/431
f 435/435/435 434/434/434 433/433/433
f 436/436/436 434/434/434 435/435/435
usemtl Light
f 439/439/439 438/438/438 437/437/437
f 440/440/440 438/438/438 439/439/439
f 437/437/437 442/442/442 441/441/441
f 438/438/438 442/442/442 437/437/437
f 445/445/445 444/444/444 443/443/443
f 446/446/446 444/444/444 445/445/445
f 441/441/441 448/448/448 447/447/447
f 442/442/442 448/448/448 441/441/441
f 450/450/450 443/443/443 449/449/449
f 445/445/445 443/443/443 450/450/450
f 447/447/447 452/452/452 451/451/451
f 448/448/448 452/452/452 447/447/447
f 454/454/454 449/449/449 453/453/453
f 450/450/450 449/449/449 454/454/454
f 451/451/451 456/456/456 455/455/455
f 452/452/452 456/456/456 451/451/451
f 458/458/458 453/453/453 457/457/457
f 454/454/454 453/453/453 458/458/458
f 460/460/460 456/456/456 459/459/459
f 455/455/455 456/456/456 460/460/460
f 462/462/462 457/457/457 461/461/461
f 458/458/458 457/457/457 462/462/462
f 460/460/460 464/464/464 463/463/463
f 459/459/459 464/464/464 460/460/460
f 465/465/465 462/462/462 461/461/461
f 466/466/466 462/462/462 465/465/465
f 446/446/446 467/467/467 444/444/444
f 468/468/468 467/467/467 446/446/446
f 470/470/470 464/464/464 469/469/469
f 471/471/471 464/464/464 470/470/470
f 473/473/473 469/469/469 472/472/472
f 470/470/470 469/469/469 473/473/473
f 467/467/467 475/475/475 474/474/474
f 468/468/468 475/475/475 467/467/467
f 476/476/476 464/464/464 471/471/471
f 463/463/463 464/464/464 476/476/476
f 479/479/479 478/478/478 477/477/477
f 480/480/480 478/478/478 479/479/479
f 477/477/477 482/482/482 481/481/481
f 478/478/478 482/482/482 477/477/477
f 481/481/481 484/484/484 483/483/483
f 482/482/482 484/484/484 481/481/481
f 487/487/487 486/486/486 485/485/485
f 488/488/488 486/486/486 487/487/487
f 485/485/485 490/490/490 489/489/489
f 486/486/486 490/490/490 485/485/485
f 489/489/489 492/492/492 491/491/491
f 490/490/490 492/492/492 489/489/489
f 491/491/491 494/494/494 493/493/493
f 492/492/492 494/494/494 491/491/491
f 493/493/493 496/496/496 495/495/495
f 494/494/494 496/496/496 493/493/493
f 495/495/495 498/498/498 497/497/497
f 496/496/496 498/498/498 495/495/495
f 497/497/497 500/500/500 499/499/499
f 498/498/498 500/500/500 497/497/497
f 503/503/503 502/502/502 501/501/501
f 504/504/504 502/502/502 503/503/503
f 503/503/503 506/506/506 505/505/505
f 501/501/501 506/506/506 503/503/503
f 509/509/509 508/508/508 507/507/507
f 510/510/510 508/508/508 509/509/509
f 513/513/513 512/512/512 511/511/511
f 514/514/514 512/512/512 513/513/513
f 517/517/517 516/516/516 515/515/515
f 518/518/518 516/516/516 517/517/517
f 518/518/518 519/519/519 516/516/516
f 520/520/520 519/519/519 518/518/518
f 523/523/523 522/522/522 521/521/521
f 524/524/524 522/522/522 523/523/523
f 520/520/520 525/525/525 519/519/519
f 526/526/526 525/525/525 520/520/520
f 527/527/527 524/524/524 523/523/523
f 528/528/528 524/524/524 527/527/527
f 526/526/526 529/529/529 525/525/525
f 530/530/530 529/529/529 526/526/526
f 531/531/531 528/528/528 527/527/527
f 532/532/532 528/528/528 531/531/531
f 530/530/530 533/533/533 529/529/529
f 534/534/534 533/533/533 530/530/530
f 535/535/535 532/532/532 531/531/531
f 536/536/536 532/532/532 535/535/535
f 537/537/537 533/533/533 534/534/534
f 538/538/538 533/533/533 537/537/537
f 539/539/539 536/536/536 535/535/535
f 540/540/540 536/536/536 539/539/539
f 537/537/537 541/541/541 538/538/538
f 542/542/542 541/541/541 537/537/537
f 544/544/544 539/539/539 543/543/543
f 540/540/540 539/539/539 544/544/544
f 521/521/521 546/546/546 545/545/545
f 522/522/522 546/546/546 521/521/521
f 548/548/548 541/541/541 547/547/547
f 549/549/549 541/541/541 548/548/548
f 550/550/550 549/549/549 548/548/548
f 551/551/551 549/549/549 550/550/550
f 546/546/546 552/552/552 545/545/545
f 553/553/553 552/552/552 546/546/546
f 554/554/554 541/541/541 542/542/542
f 547/547/547 541/541/541 554/554/554
f 557/557/557 556/556/556 555/555/555
f 558/558/558 556/556/556 557/557/557
f 558/558/558 559/559/559 556/556/556
f 560/560/560 559/559/559 558/558/558
f 560/560/560 561/561/561 559/559/559
f 562/562/562 561/561/561 560/560/560
f 565/565/565 564/564/564 563/563/563
f 566/566/566 564/564/564 565/565/565
f 566/566/566 567/567/567 564/564/564
f 568/568/568 567/567/567 566/566/566
f 568/568/568 569/569/569 567/567/567
f 570/570/570 569/569/569 568/568/568
f 570/570/570 571/571/571 569/569/569
f 572/572/572 571/571/571 570/570/570
f 572/572/572 573/573/573 571/571/571
f 574/574/574 573/573/573 572/572/572
f 574/574/574 575/575/575 573/573/573
f 576/576/576 575/575/575 574/574/574
f 576/576/576 577/577/577 575/575/575
f 578/578/578 577/577/577 576/576/576
f 581/581/581 580/580/580 579/579/579
f 582/582/582 580/580/580 581/581/581
f 581/581/581 583/583/583 582/582/582
f 584/584/584 583/583/583 581/581/581
f 587/587/587 586/586/586 585/585/585
f 588/588/588 586/586/586 587/587/587
f 591/591/591 590/590/590 589/589/589
f 592/592/592 590/590/590 591/591/591
