# Exported from Godot Engine
mtllib Caliper_Perf_RR.mtl
o Caliper_Perf_RR
v -1.235574 0.502925 0.904740
vt 1.258789 -0.332031
vn 0.210991 -0.103787 -0.971962
v -1.234175 0.511984 0.886626
vt 1.280273 -0.349609
vn 0.231906 -0.006951 -0.972713
v -1.233457 0.498849 0.900944
vt 1.264648 -0.327148
vn 0.993629 -0.109703 0.025828
v -1.232258 0.506539 0.885471
vt 1.284180 -0.342773
vn 0.988402 -0.119528 0.093675
v -1.186924 0.465828 0.886626
vt 1.283203 -0.234375
vn 0.007869 -0.512167 -0.858850
v -1.195943 0.464194 0.904740
vt 1.259766 -0.250977
vn 0.053136 -0.455710 -0.888541
v -1.192463 0.467669 0.885471
vt 1.287109 -0.241211
vn -0.080968 -0.250380 -0.964756
v -1.200120 0.466270 0.900946
vt 1.266602 -0.256836
vn -0.063442 -0.246405 -0.967088
v -1.225365 0.491240 0.902218
vt 1.265625 -0.309570
vn -0.972975 -0.064422 0.221739
v -1.225818 0.493719 0.906599
vt 1.258789 -0.311523
vn 0.998087 -0.043712 0.043712
v -1.232906 0.497436 0.902370
vt 1.263672 -0.324219
vn -0.954198 -0.044383 0.295865
v -1.234788 0.501055 0.906675
vt 1.255859 -0.329102
vn 0.997005 -0.061067 -0.047453
v -1.201548 0.466784 0.902371
vt 1.264648 -0.258789
vn -0.994355 -0.090674 -0.055097
v -1.197833 0.464931 0.906675
vt 1.257812 -0.254883
vn -0.019335 -0.201263 -0.979346
v -1.207940 0.474161 0.902218
vt 1.266602 -0.274414
vn -0.992675 -0.120158 0.012588
v -1.205400 0.473707 0.906599
vt 1.259766 -0.271484
vn -0.026985 -0.046251 -0.998565
v -1.232906 0.497436 0.902370
vt 1.263672 -0.324219
vn 0.988605 -0.070151 0.133190
v -1.234788 0.501055 0.906675
vt 1.255859 -0.329102
vn 0.161842 -0.056298 -0.985209
v -1.233457 0.498849 0.900944
vt 1.264648 -0.327148
vn 0.988605 -0.070151 0.133190
v -1.235574 0.502925 0.904740
vt 1.258789 -0.332031
vn 0.996086 -0.060795 -0.064165
v -1.200120 0.466270 0.900946
vt 1.266602 -0.256836
vn -0.095014 -0.131561 -0.986744
v -1.195943 0.464194 0.904740
vt 1.259766 -0.250977
vn -0.015530 -0.264391 -0.964290
v -1.201548 0.466784 0.902371
vt 1.264648 -0.258789
vn -0.091050 -0.131131 -0.987175
v -1.197833 0.464931 0.906675
vt 1.257812 -0.254883
vn 0.045780 -0.320500 -0.946141
v -1.216288 0.483074 0.902266
vt 1.266602 -0.291992
vn -0.988967 -0.094195 0.114332
v -1.215183 0.484150 0.906651
vt 1.260742 -0.291992
vn 0.999613 -0.003949 0.027550
v -1.232258 0.506539 0.885471
vt 1.284180 -0.342773
vn 0.939357 -0.068683 0.335993
v -1.234175 0.511984 0.886626
vt 1.280273 -0.349609
vn 0.978783 -0.123992 0.163127
v -1.232231 0.505941 0.865806
vt 1.309570 -0.356445
vn 0.937068 -0.068513 0.342358
v -1.234143 0.511282 0.863527
vt 1.308594 -0.364258
vn 0.980065 -0.123332 0.155764
v -1.193060 0.467680 0.865806
vt 1.311523 -0.229492
vn -0.188021 -0.118373 -0.975006
v -1.187626 0.465842 0.863527
vt 1.311523 -0.220703
vn -0.142399 -0.234989 -0.961511
v -1.192463 0.467669 0.885471
vt 1.287109 -0.241211
vn -0.178661 -0.112089 -0.977505
v -1.186924 0.465828 0.886626
vt 1.283203 -0.234375
vn -0.145424 -0.234094 -0.961276
v -1.275276 0.480326 0.908598
vt 1.200195 -0.343750
vn -0.075630 -0.922666 0.378110
v -1.275808 0.479622 0.895911
vt 1.184570 -0.352539
vn -0.088881 -0.933235 0.348100
v -1.277697 0.497602 0.905732
vt 1.208984 -0.363281
vn -0.112454 -0.952058 0.284500
v -1.278230 0.496898 0.893045
vt 1.195312 -0.374023
vn -0.118513 -0.955022 0.271822
v -1.249255 0.449208 0.912922
vt 1.199219 -0.290039
vn 0.453673 -0.887668 -0.078906
v -1.253229 0.445130 0.910034
vt 1.190430 -0.290039
vn 0.453673 -0.887668 -0.078906
v -1.259761 0.458280 0.912165
vt 1.197266 -0.308594
vn 0.438511 -0.896411 -0.064466
v -1.260700 0.452449 0.909778
vt 1.190430 -0.303711
vn 0.430744 -0.900375 -0.061520
v -1.281173 0.514634 0.883909
vt 1.203125 -0.401367
vn -0.055334 -0.961359 0.269680
v -1.280429 0.515616 0.901613
vt 1.219727 -0.383789
vn -0.109020 -0.964167 0.241860
v -1.279804 0.511124 0.890508
vt 1.205078 -0.390625
vn -0.130030 -0.961308 0.242857
v -1.245757 0.437809 0.909778
vt 1.190430 -0.276367
vn 0.474379 -0.875333 -0.093576
v -1.239972 0.438881 0.912165
vt 1.198242 -0.271484
vn 0.466717 -0.880148 -0.086689
v -1.272850 0.467372 0.909990
vt 1.194336 -0.329102
vn -0.079023 -0.864722 0.495994
v -1.273438 0.466806 0.897289
vt 1.177734 -0.333984
vn -0.109079 -0.889121 0.444483
v -1.253229 0.445130 0.910034
vt 1.190430 -0.290039
vn 0.089216 -0.747513 0.658228
v -1.254066 0.444292 0.895966
vt 1.170898 -0.290039
vn 0.032543 -0.743696 0.667725
v -1.260700 0.452449 0.909778
vt 1.190430 -0.303711
vn -0.000022 -0.757069 0.653335
v -1.261537 0.451611 0.895777
vt 1.170898 -0.305664
vn -0.039716 -0.798818 0.600261
v -1.280429 0.515616 0.901613
vt 1.219727 -0.383789
vn 0.421160 -0.842417 -0.336093
v -1.275751 0.519622 0.902414
vt 1.228516 -0.383789
vn 0.426580 -0.797546 -0.426555
v -1.277697 0.497602 0.905732
vt 1.208984 -0.363281
vn 0.425991 -0.834889 -0.348558
v -1.264890 0.508968 0.907050
vt 1.228516 -0.362305
vn 0.426580 -0.797546 -0.426555
v -1.275276 0.480326 0.908598
vt 1.200195 -0.343750
vn 0.430856 -0.826976 -0.361212
v -1.254440 0.498806 0.910411
vt 1.230469 -0.342773
vn 0.435462 -0.797692 -0.417204
v -1.281897 0.519283 0.883083
vt 1.207031 -0.406250
vn 0.219381 -0.964771 0.145220
v -1.281787 0.518861 0.863054
vt 1.190430 -0.427734
vn 0.219607 -0.965654 0.138869
v -1.280154 0.523788 0.883295
vt 1.212891 -0.410156
vn 0.220194 -0.964994 0.142481
v -1.280164 0.523308 0.862920
vt 1.195312 -0.431641
vn 0.219607 -0.965654 0.138869
v -1.259761 0.458280 0.912165
vt 1.197266 -0.308594
vn 0.422548 -0.827498 -0.369730
v -1.272850 0.467372 0.909990
vt 1.194336 -0.329102
vn 0.426629 -0.827211 -0.365664
v -1.235589 0.481446 0.913573
vt 1.233398 -0.307617
vn 0.425438 -0.824627 -0.372816
v -1.240887 0.489675 0.912431
vt 1.236328 -0.321289
vn 0.438136 -0.804018 -0.401984
v -1.281897 0.519283 0.883083
vt 1.207031 -0.406250
vn 0.075530 -0.965101 0.250749
v -1.281189 0.521470 0.900193
vt 1.224609 -0.390625
vn 0.088079 -0.969101 0.230403
v -1.279619 0.523640 0.900279
vt 1.228516 -0.392578
vn 0.294553 -0.952671 0.075207
v -1.280154 0.523788 0.883295
vt 1.212891 -0.410156
vn 0.281305 -0.952691 0.115095
v -1.281189 0.521470 0.900193
vt 1.224609 -0.390625
vn 0.502036 -0.791369 -0.348849
v -1.279619 0.523640 0.900279
vt 1.228516 -0.392578
vn 0.522213 -0.749874 -0.406180
v -1.272850 0.467372 0.909990
vt 1.194336 -0.329102
vn 0.438511 -0.896411 -0.064466
v -1.226641 0.472390 0.914117
vt 1.233398 -0.291016
vn 0.419445 -0.830256 -0.367070
v -1.249255 0.449208 0.912922
vt 1.199219 -0.290039
vn 0.422548 -0.827498 -0.369730
v -1.200179 0.421958 0.905732
vt 1.212891 -0.217773
vn 0.695707 -0.703761 0.143917
v -1.200869 0.421407 0.893045
vt 1.199219 -0.206055
vn 0.689168 -0.709276 0.148237
v -1.217524 0.423940 0.908598
vt 1.203125 -0.237305
vn 0.642480 -0.738525 0.204451
v -1.218214 0.423389 0.895912
vt 1.187500 -0.227539
vn 0.584070 -0.765506 0.269930
v -1.186596 0.420192 0.890508
vt 1.209961 -0.190430
vn 0.711598 -0.692053 0.121202
v -1.182089 0.419684 0.901613
vt 1.224609 -0.197266
vn 0.726479 -0.684040 0.065708
v -1.183051 0.418916 0.883909
vt 1.208008 -0.179688
vn 0.735375 -0.677650 -0.003827
v -1.230542 0.426033 0.909990
vt 1.195312 -0.250977
vn 0.440152 -0.763276 0.472945
v -1.231092 0.425431 0.897289
vt 1.179688 -0.246094
vn 0.349761 -0.779509 0.519647
v -1.245757 0.437809 0.909778
vt 1.190430 -0.276367
vn 0.218495 -0.754347 0.619048
v -1.246573 0.436950 0.895777
vt 1.171875 -0.273438
vn 0.152204 -0.761069 0.630561
v -1.200179 0.421958 0.905732
vt 1.212891 -0.217773
vn 0.418937 -0.837923 -0.349825
v -1.189139 0.435045 0.907050
vt 1.232422 -0.219727
vn 0.399092 -0.825488 -0.399117
v -1.182089 0.419684 0.901613
vt 1.224609 -0.197266
vn 0.424894 -0.832511 -0.355514
v -1.178207 0.424465 0.902415
vt 1.232422 -0.198242
vn 0.399092 -0.825488 -0.399117
v -1.217524 0.423940 0.908598
vt 1.203125 -0.237305
vn 0.408801 -0.843446 -0.348541
v -1.199570 0.445228 0.910411
vt 1.232422 -0.239258
vn 0.394549 -0.834026 -0.385657
v -1.178386 0.418313 0.883083
vt 1.212891 -0.174805
vn 0.600581 -0.796076 -0.074601
v -1.173927 0.420173 0.883295
vt 1.218750 -0.170898
vn 0.600581 -0.796076 -0.074601
v -1.178810 0.418412 0.863054
vt 1.197266 -0.152344
vn 0.604614 -0.791822 -0.086364
v -1.174407 0.420149 0.862920
vt 1.202148 -0.148438
vn 0.604614 -0.791822 -0.086364
v -1.209051 0.458538 0.912431
vt 1.237305 -0.260742
vn 0.397488 -0.839234 -0.371066
v -1.230542 0.426033 0.909990
vt 1.195312 -0.250977
vn 0.410492 -0.838593 -0.358132
v -1.217414 0.463620 0.913573
vt 1.234375 -0.274414
vn 0.413504 -0.835757 -0.361282
v -1.239972 0.438881 0.912165
vt 1.198242 -0.271484
vn 0.418238 -0.827674 -0.374209
v -1.176217 0.419077 0.900193
vt 1.229492 -0.191406
vn 0.681349 -0.727852 -0.077422
v -1.178386 0.418313 0.883083
vt 1.212891 -0.174805
vn 0.680475 -0.730496 -0.057707
v -1.178386 0.418313 0.883083
vt 1.212891 -0.174805
vn 0.689074 -0.720449 -0.078302
v -1.176217 0.419077 0.900193
vt 1.229492 -0.191406
vn 0.694643 -0.710616 -0.111785
v -1.173927 0.420173 0.883295
vt 1.218750 -0.170898
vn 0.556285 -0.829452 -0.050561
v -1.174089 0.420703 0.900279
vt 1.233398 -0.189453
vn 0.566702 -0.816666 -0.109109
v -1.174089 0.420703 0.900279
vt 1.233398 -0.189453
vn 0.333164 -0.912342 -0.237978
v -1.176217 0.419077 0.900193
vt 1.229492 -0.191406
vn 0.362079 -0.903396 -0.229728
v -1.230542 0.426033 0.909990
vt 1.195312 -0.250977
vn 0.466693 -0.880538 -0.082764
v -1.251471 0.521585 0.887086
vt 1.266602 -0.373047
vn 0.272258 -0.104752 -0.956505
v -1.240036 0.515664 0.886663
vt 1.276367 -0.358398
vn 0.264547 -0.083562 -0.960746
v -1.257762 0.514397 0.906194
vt 1.241211 -0.361328
vn 0.272258 -0.104752 -0.956505
v -1.245487 0.506059 0.909310
vt 1.246094 -0.341797
vn 0.264547 -0.083562 -0.960746
v -1.238523 0.500993 0.910548
vt 1.249023 -0.331055
vn 0.256149 -0.090016 -0.962437
v -1.257762 0.514397 0.906194
vt 1.241211 -0.361328
vn 0.420406 -0.725856 -0.544418
v -1.271868 0.522493 0.901865
vt 1.234375 -0.382812
vn 0.403168 -0.736283 -0.543455
v -1.226746 0.492802 0.909804
vt 1.253906 -0.311523
vn 0.158516 -0.190283 -0.968847
v -1.216091 0.483218 0.909889
vt 1.255859 -0.291992
vn 0.125556 -0.229636 -0.965144
v -1.235635 0.499635 0.909692
vt 1.251953 -0.327148
vn 0.192430 -0.153968 -0.969157
v -1.225122 0.473949 0.911971
vt 1.238281 -0.291016
vn 0.379377 -0.750288 -0.541425
v -1.233741 0.482709 0.911701
vt 1.237305 -0.307617
vn 0.392205 -0.732800 -0.556039
v -1.216091 0.483218 0.909889
vt 1.255859 -0.291992
vn 0.384592 -0.743572 -0.546982
v -1.226746 0.492802 0.909804
vt 1.253906 -0.311523
vn 0.400029 -0.722760 -0.563556
v -1.240112 0.515065 0.863285
vt 1.303711 -0.374023
vn 0.987280 -0.155414 0.033545
v -1.240036 0.515664 0.886663
vt 1.276367 -0.358398
vn 0.985904 -0.163331 0.036270
v -1.245487 0.506059 0.909310
vt 1.246094 -0.341797
vn 0.424491 -0.732847 -0.531735
v -1.238523 0.500993 0.910548
vt 1.249023 -0.331055
vn 0.431985 -0.728994 -0.530996
v -1.264058 0.526782 0.887555
vt 1.256836 -0.387695
vn 0.275498 -0.132539 -0.952121
v -1.271868 0.522493 0.901865
vt 1.234375 -0.382812
vn 0.279391 -0.139716 -0.949958
v -1.270342 0.528767 0.888192
vt 1.250977 -0.394531
vn 0.239916 -0.034800 -0.970170
v -1.280154 0.523788 0.883295
vt 1.246094 -0.410156
vn 0.226131 -0.215725 -0.949909
v -1.270510 0.528241 0.862446
vt 1.279297 -0.414062
vn 0.229070 -0.055561 -0.971823
v -1.280164 0.523308 0.862920
vt 1.270508 -0.426758
vn 0.226479 -0.209084 -0.951310
v -1.264058 0.526782 0.887555
vt 1.256836 -0.387695
vn 0.985878 -0.162809 -0.039207
v -1.264025 0.526189 0.862836
vt 1.285156 -0.406250
vn 0.987217 -0.156512 -0.030109
v -1.251668 0.521048 0.863146
vt 1.294922 -0.389648
vn 0.985886 -0.167312 0.005996
v -1.251471 0.521585 0.887086
vt 1.266602 -0.373047
vn 0.984244 -0.176815 -0.000018
v -1.226641 0.472390 0.914117
vt 1.233398 -0.291016
vn 0.239880 -0.458371 -0.855776
v -1.225122 0.473949 0.911971
vt 1.238281 -0.291016
vn 0.239880 -0.458371 -0.855776
v -1.217414 0.463620 0.913573
vt 1.234375 -0.274414
vn 0.237742 -0.482736 -0.842879
v -1.216200 0.465500 0.911701
vt 1.238281 -0.274414
vn 0.234200 -0.490117 -0.839604
v -1.235635 0.499635 0.909692
vt 1.251953 -0.327148
vn 0.233367 -0.167200 -0.957906
v -1.238523 0.500993 0.910548
vt 1.249023 -0.331055
vn 0.238876 -0.152341 -0.959026
v -1.240887 0.489675 0.912431
vt 1.236328 -0.321289
vn 0.337206 -0.581452 -0.740409
v -1.238523 0.500993 0.910548
vt 1.249023 -0.331055
vn 0.372028 -0.600116 -0.708135
v -1.238540 0.488953 0.911309
vt 1.238281 -0.318359
vn 0.312623 -0.542475 -0.779736
v -1.235635 0.499635 0.909692
vt 1.251953 -0.327148
vn 0.373831 -0.594951 -0.711536
v -1.270342 0.528767 0.888192
vt 1.250977 -0.394531
vn 0.286196 -0.233228 -0.929353
v -1.279619 0.523640 0.900279
vt 1.228516 -0.392578
vn 0.283400 -0.240932 -0.928243
v -1.238540 0.488953 0.911309
vt 1.238281 -0.318359
vn 0.404548 -0.722149 -0.561108
v -1.235635 0.499635 0.909692
vt 1.251953 -0.327148
vn 0.409704 -0.714891 -0.566633
v -1.280154 0.523788 0.883295
vt 1.246094 -0.410156
vn 0.281654 -0.306652 -0.909195
v -1.233741 0.482709 0.911701
vt 1.237305 -0.307617
vn 0.254949 -0.445353 -0.858290
v -1.235589 0.481446 0.913573
vt 1.233398 -0.307617
vn 0.251577 -0.452886 -0.855338
v -1.209051 0.458538 0.912431
vt 1.237305 -0.260742
vn 0.294651 -0.658256 -0.692733
v -1.209833 0.460866 0.911309
vt 1.240234 -0.263672
vn 0.282079 -0.609394 -0.740993
v -1.197798 0.461196 0.910548
vt 1.250977 -0.251953
vn 0.307879 -0.718486 -0.623690
v -1.199230 0.464047 0.909692
vt 1.252930 -0.255859
vn 0.306371 -0.714950 -0.628477
v -1.176876 0.448788 0.887085
vt 1.270508 -0.210938
vn 0.060591 -0.560683 -0.825811
v -1.183898 0.442312 0.906194
vt 1.244141 -0.220703
vn 0.060591 -0.560683 -0.825811
v -1.183092 0.460065 0.886663
vt 1.279297 -0.226562
vn 0.053256 -0.555695 -0.829679
v -1.192553 0.454366 0.909310
vt 1.248047 -0.240234
vn 0.053506 -0.550409 -0.833179
v -1.197798 0.461196 0.910548
vt 1.250977 -0.251953
vn 0.060281 -0.520195 -0.851918
v -1.175438 0.428421 0.901865
vt 1.238281 -0.199219
vn 0.370601 -0.766858 -0.524008
v -1.183898 0.442312 0.906194
vt 1.244141 -0.220703
vn 0.364733 -0.789610 -0.493443
v -1.206292 0.472756 0.909805
vt 1.254883 -0.271484
vn 0.108614 -0.296952 -0.948695
v -1.199230 0.464047 0.909692
vt 1.252930 -0.255859
vn 0.092244 -0.383790 -0.918802
v -1.216200 0.465500 0.911701
vt 1.238281 -0.274414
vn 0.360840 -0.772717 -0.522210
v -1.206292 0.472756 0.909805
vt 1.254883 -0.271484
vn 0.371343 -0.759858 -0.533592
v -1.183092 0.460065 0.886663
vt 1.279297 -0.226562
vn -0.115928 -0.355084 -0.927619
v -1.183689 0.459973 0.863285
vt 1.307617 -0.211914
vn -0.108831 -0.333857 -0.936320
v -1.192553 0.454366 0.909310
vt 1.248047 -0.240234
vn 0.362292 -0.802266 -0.474462
v -1.197798 0.461196 0.910548
vt 1.250977 -0.251953
vn 0.358175 -0.811445 -0.461809
v -1.171353 0.436340 0.887555
vt 1.260742 -0.195312
vn 0.071503 -0.572247 -0.816958
v -1.175438 0.428421 0.901865
vt 1.238281 -0.199219
vn 0.082295 -0.561427 -0.823424
v -1.169205 0.430111 0.888192
vt 1.255859 -0.188477
vn 0.007875 -0.497012 -0.867708
v -1.169727 0.429929 0.862446
vt 1.285156 -0.169922
vn 0.023258 -0.480920 -0.876456
v -1.173927 0.420173 0.883295
vt 1.251953 -0.172852
vn 0.099437 -0.449437 -0.887760
v -1.174407 0.420149 0.862920
vt 1.276367 -0.157227
vn 0.096091 -0.451079 -0.887296
v -1.171946 0.436358 0.862836
vt 1.290039 -0.178711
vn -0.095786 -0.427370 -0.898988
v -1.171353 0.436340 0.887555
vt 1.260742 -0.195312
vn -0.099435 -0.449385 -0.887787
v -1.176876 0.448788 0.887085
vt 1.270508 -0.210938
vn -0.109154 -0.400317 -0.909853
v -1.177408 0.448577 0.863146
vt 1.298828 -0.195312
vn -0.102414 -0.373185 -0.922087
v -1.199230 0.464047 0.909692
vt 1.252930 -0.255859
vn 0.095754 -0.471497 -0.876654
v -1.197798 0.461196 0.910548
vt 1.250977 -0.251953
vn 0.092666 -0.481996 -0.871259
v -1.169205 0.430111 0.888192
vt 1.255859 -0.188477
vn 0.117567 -0.566051 -0.815944
v -1.174089 0.420703 0.900279
vt 1.233398 -0.189453
vn 0.117567 -0.566051 -0.815944
v -1.199230 0.464047 0.909692
vt 1.252930 -0.255859
vn 0.360049 -0.779494 -0.512595
v -1.209833 0.460866 0.911309
vt 1.240234 -0.263672
vn 0.335899 -0.806187 -0.487068
v -1.173927 0.420173 0.883295
vt 1.251953 -0.172852
vn 0.142986 -0.557440 -0.817812
v -1.556505 0.377424 0.831461
vt 1.696289 -0.018555
vn -0.136738 -0.189935 0.972228
v -1.554245 0.363070 0.905374
vt 1.729492 -0.108398
vn -0.007316 -0.105657 0.994376
v -1.545111 0.308093 0.831461
vt 1.797852 -0.004883
vn -0.000015 -0.007890 0.999969
v -1.548277 0.341335 0.905909
vt 1.757812 -0.105469
vn -0.000016 -0.052564 0.998618
v -1.552347 0.394111 0.885994
vt 1.688477 -0.096680
vn -0.408759 -0.380696 0.829449
v -1.547808 0.392518 0.900468
vt 1.694336 -0.116211
vn -0.360986 -0.380626 0.851359
v -1.552404 0.376916 0.900661
vt 1.712891 -0.108398
vn -0.348210 -0.348210 0.870345
v -1.493196 0.381067 0.885994
vt 1.702148 -0.215820
vn 0.093825 -0.249130 0.963915
v -1.494691 0.385280 0.904969
vt 1.708984 -0.191406
vn 0.094328 -0.228654 0.968927
v -1.498443 0.399287 0.885994
vt 1.677734 -0.204102
vn 0.160741 -0.336159 0.927987
v -1.499662 0.398942 0.905024
vt 1.690430 -0.183594
vn 0.160393 -0.331785 0.929620
v -1.507758 0.412533 0.904140
vt 1.672852 -0.171875
vn 0.201086 -0.417118 0.886328
v -1.515420 0.424025 0.901277
vt 1.656250 -0.160156
vn 0.192324 -0.469383 0.861795
v -1.506825 0.413166 0.885994
vt 1.657227 -0.189453
vn 0.195557 -0.425020 0.883807
v -1.514082 0.426298 0.885994
vt 1.641602 -0.172852
vn 0.185468 -0.479224 0.857873
v -1.545432 0.308035 0.906138
vt 1.798828 -0.101562
vn -0.000015 -0.007890 0.999969
v -1.491911 0.372226 0.905154
vt 1.726562 -0.196289
vn -0.000017 -0.118312 0.992976
v -1.491877 0.378216 0.897555
vt 1.714844 -0.203125
vn 0.043119 -0.165425 0.985279
v -1.487082 0.349496 0.908155
vt 1.758789 -0.201172
vn -0.000017 -0.108061 0.994144
v -1.486145 0.349640 0.897555
vt 1.755859 -0.214844
vn -0.000017 -0.108061 0.994144
v -1.519238 0.430042 0.885994
vt 1.635742 -0.165039
vn 0.405889 -0.637921 0.654454
v -1.520145 0.428055 0.900051
vt 1.650391 -0.153320
vn 0.405889 -0.637921 0.654454
v -1.541101 0.420350 0.885994
vt 1.654297 -0.111328
vn -0.590363 -0.493323 0.638830
v -1.537187 0.418551 0.900266
vt 1.662109 -0.129883
vn -0.391264 -0.414707 0.821542
v -1.528466 0.431683 0.885994
vt 1.628906 -0.153320
vn 0.564512 -0.770658 0.295657
v -1.527616 0.428905 0.899975
vt 1.646484 -0.142578
vn 0.541002 -0.725681 0.425093
v -1.481126 0.319504 0.910324
vt 1.801758 -0.208008
vn 0.039648 -0.000048 0.999214
v -1.480107 0.319686 0.897555
vt 1.802734 -0.223633
vn 0.039648 -0.000048 0.999214
v -1.528466 0.431683 0.885994
vt 1.632812 -0.120117
vn -0.827251 -0.482161 -0.288404
v -1.527616 0.428905 0.899975
vt 1.646484 -0.142578
vn -0.712292 -0.700563 0.043031
v -1.535200 0.429511 0.885994
vt 1.641602 -0.116211
vn -0.766615 -0.567147 0.301073
v -1.532925 0.426694 0.899951
vt 1.651367 -0.135742
vn -0.572043 -0.576008 0.583936
v -1.527061 0.376165 0.927733
vt 1.234375 -0.910156
vn -0.042593 -0.820993 -0.569347
v -1.520544 0.373347 0.929192
vt 1.229492 -0.902344
vn -0.061391 -0.798443 -0.598932
v -1.526816 0.363535 0.935582
vt 1.215820 -0.911133
vn -0.070405 -0.954573 -0.289541
v -1.510465 0.366612 0.935488
vt 1.216797 -0.891602
vn -0.055307 -0.980271 -0.189761
v -1.528668 0.344271 0.935612
vt 1.191406 -0.918945
vn -0.083127 -0.981879 -0.170307
v -1.500099 0.346292 0.935452
vt 1.188477 -0.881836
vn -0.055374 -0.996926 -0.055424
v -1.489732 0.317970 0.930129
vt 1.148438 -0.869141
vn -0.084255 -0.996437 -0.003690
v -1.497139 0.316649 0.935466
vt 1.148438 -0.882812
vn -0.096910 -0.992560 -0.073712
v -1.492371 0.348508 0.929427
vt 1.191406 -0.869141
vn -0.023738 -0.997707 -0.063383
v -1.502951 0.371446 0.928901
vt 1.223633 -0.879883
vn -0.069852 -0.931460 -0.357076
v -1.517621 0.378803 0.927129
vt 1.236328 -0.897461
vn -0.065602 -0.864677 -0.498027
v -1.506922 0.379765 0.925709
vt 1.235352 -0.883789
vn -0.073191 -0.855513 -0.512582
v -1.532415 0.385856 0.921791
vt 1.250000 -0.915039
vn 0.015708 -0.777713 -0.628423
v -1.537098 0.365476 0.925654
vt 1.223633 -0.926758
vn 0.046437 -0.844041 -0.534265
v -1.540330 0.343580 0.926058
vt 1.196289 -0.937500
vn 0.000000 -0.971526 -0.236935
v -1.531923 0.310445 0.928102
vt 1.148438 -0.937500
vn -0.011845 -0.997096 -0.075222
v -1.526129 0.311478 0.935632
vt 1.148438 -0.923828
vn -0.083055 -0.988966 -0.122668
v -1.543585 0.342178 0.908649
vt 1.199219 -0.962891
vn 0.011810 -0.968669 -0.248073
v -1.534346 0.310013 0.910065
vt 1.149414 -0.963867
vn 0.000000 -0.999497 -0.031706
v -1.540407 0.363737 0.908355
vt 1.232422 -0.950195
vn 0.106053 -0.788165 -0.606258
v -1.538242 0.375739 0.904427
vt 1.250977 -0.944336
vn 0.079773 -0.699137 -0.710523
v -1.491485 0.348858 0.927038
vt 1.192383 -0.866211
vn -0.031552 -0.978227 -0.205126
v -1.488780 0.318139 0.927516
vt 1.148438 -0.865234
vn -0.000015 -0.999878 0.015604
v -1.501601 0.371662 0.925907
vt 1.224609 -0.875977
vn -0.069408 -0.879553 -0.470711
v -1.505264 0.380185 0.922326
vt 1.238281 -0.878906
vn -0.057886 -0.810499 -0.582873
v -1.513344 0.395240 0.916330
vt 1.261719 -0.888672
vn 0.000000 -0.832067 -0.554676
v -1.511837 0.396497 0.912153
vt 1.266602 -0.883789
vn -0.027170 -0.792159 -0.609710
v -1.509831 0.397007 0.908011
vt 1.269531 -0.877930
vn -0.038876 -0.816743 -0.575691
v -1.502215 0.380242 0.908245
vt 1.247070 -0.860352
vn -0.053924 -0.808852 -0.585534
v -1.498470 0.370955 0.908938
vt 1.232422 -0.853516
vn -0.073068 -0.869436 -0.488613
v -1.490488 0.349276 0.912626
vt 1.197266 -0.845703
vn -0.047038 -0.964768 -0.258865
v -1.487153 0.318430 0.923331
vt 1.148438 -0.858398
vn -0.000015 -0.999931 0.011748
v -1.536964 0.389713 0.903203
vt 1.268555 -0.932617
vn 0.027156 -0.753730 -0.656623
v -1.534551 0.390652 0.907489
vt 1.266602 -0.925781
vn 0.027190 -0.739137 -0.673006
v -1.533341 0.391347 0.919889
vt 1.256836 -0.912109
vn 0.007898 -0.711034 -0.703114
v -1.518216 0.394245 0.921565
vt 1.256836 -0.896484
vn -0.019631 -0.879663 -0.475192
v -1.530205 0.391730 0.927299
vt 1.183594 -0.602539
vn -0.962653 -0.175005 -0.206573
v -1.527061 0.376165 0.927733
vt 1.182617 -0.624023
vn -0.919818 -0.142771 -0.365447
v -1.533341 0.391347 0.919889
vt 1.194336 -0.601562
vn -0.990683 -0.136191 -0.000052
v -1.532415 0.385856 0.921791
vt 1.192383 -0.610352
vn -0.991768 -0.040455 -0.121489
v -1.522745 0.393256 0.928141
vt 1.173828 -0.602539
vn -0.842590 -0.426099 -0.329365
v -1.520544 0.373347 0.929192
vt 1.173828 -0.629883
vn -0.859657 -0.315363 -0.401916
v -1.518216 0.394245 0.921565
vt 1.163086 -0.600586
vn -0.701158 -0.712908 -0.011814
v -1.517621 0.378803 0.927129
vt 1.167969 -0.622070
vn -0.712810 -0.701086 0.019532
v -1.519199 0.398096 0.912641
vt 1.268555 -0.895508
vn -0.053893 -0.785695 -0.616262
v -1.528888 0.393843 0.914142
vt 1.204102 -0.595703
vn 0.187724 -0.368466 -0.910490
v -1.530561 0.394999 0.910702
vt 1.206055 -0.599609
vn 0.164405 -0.825993 -0.539171
v -1.522273 0.395189 0.914870
vt 1.211914 -0.589844
vn 0.433790 -0.337441 -0.835440
v -1.519199 0.398096 0.912641
vt 1.217773 -0.591797
vn 0.456558 -0.588347 -0.667384
v -1.533341 0.391347 0.919889
vt 1.194336 -0.601562
vn -0.121944 -0.071700 -0.989944
v -1.532793 0.393136 0.919989
vt 1.194336 -0.598633
vn -0.066919 -0.178475 -0.981666
v -1.530561 0.394999 0.910702
vt 1.268555 -0.916016
vn -0.007884 -0.828351 -0.560153
v -1.534346 0.310013 0.910065
vt 1.798828 -0.116211
vn 0.173826 -0.124217 0.976911
v -1.545432 0.308035 0.906138
vt 1.798828 -0.101562
vn 0.174652 -0.120596 0.977217
v -1.543585 0.342178 0.908649
vt 1.757812 -0.112305
vn 0.184079 -0.168079 0.968434
v -1.548277 0.341335 0.905909
vt 1.757812 -0.105469
vn 0.194147 -0.165882 0.966846
v -1.540407 0.363737 0.908355
vt 1.731445 -0.123047
vn 0.171634 -0.268688 0.947812
v -1.546113 0.363661 0.905532
vt 1.730469 -0.116211
vn 0.224195 -0.259060 0.939481
v -1.554245 0.363070 0.905374
vt 1.729492 -0.108398
vn 0.223990 -0.208065 0.952123
v -1.538242 0.375739 0.904427
vt 1.716797 -0.129883
vn 0.035427 -0.187833 0.981562
v -1.543343 0.375246 0.901053
vt 1.714844 -0.121094
vn 0.043764 -0.142335 0.988851
v -1.541465 0.390705 0.900663
vt 1.697266 -0.125000
vn -0.007539 -0.056531 0.998372
v -1.536964 0.389713 0.903203
vt 1.699219 -0.131836
vn -0.045406 -0.094568 0.994482
v -1.481126 0.319504 0.910324
vt 1.801758 -0.208008
vn 0.144744 -0.024156 0.989174
v -1.487153 0.318430 0.923331
vt 1.801758 -0.191406
vn 0.144744 -0.024156 0.989174
v -1.487082 0.349496 0.908155
vt 1.758789 -0.201172
vn -0.000016 -0.084570 0.996418
v -1.490488 0.349276 0.912626
vt 1.758789 -0.193359
vn -0.000016 -0.084570 0.996418
v -1.491911 0.372226 0.905154
vt 1.726562 -0.196289
vn 0.014921 -0.078433 0.996808
v -1.498470 0.370955 0.908938
vt 1.728516 -0.185547
vn 0.014978 -0.074991 0.997072
v -1.494691 0.385280 0.904969
vt 1.708984 -0.191406
vn -0.023049 -0.053759 0.998288
v -1.502215 0.380242 0.908245
vt 1.716797 -0.180664
vn -0.000016 -0.038167 0.999271
v -1.547808 0.392518 0.900468
vt 1.694336 -0.116211
vn -0.000016 -0.045436 0.998967
v -1.552404 0.376916 0.900661
vt 1.712891 -0.108398
vn -0.022284 -0.096562 0.995077
v -1.499662 0.398942 0.905024
vt 1.690430 -0.183594
vn -0.101490 -0.121024 0.987448
v -1.509831 0.397007 0.908011
vt 1.694336 -0.170898
vn -0.093053 -0.120190 0.988380
v -1.516289 0.412270 0.906289
vt 1.290039 -0.889648
vn -0.035212 -0.884274 -0.465640
v -1.516289 0.412270 0.906289
vt 1.672852 -0.160156
vn -0.073588 -0.172918 0.982183
v -1.507758 0.412533 0.904140
vt 1.672852 -0.171875
vn -0.106521 -0.159792 0.981387
v -1.515420 0.424025 0.901277
vt 1.656250 -0.160156
vn -0.050289 -0.190368 0.980424
v -1.532607 0.407441 0.905520
vt 1.677734 -0.138672
vn -0.045157 -0.105379 0.993406
v -1.537187 0.418551 0.900266
vt 1.662109 -0.129883
vn -0.044603 -0.115245 0.992335
v -1.532607 0.407441 0.905520
vt 1.287109 -0.914062
vn -0.111334 -0.852466 -0.510791
v -1.525183 0.412583 0.906139
vt 1.291992 -0.902344
vn -0.069670 -0.882744 -0.464660
v -1.519199 0.398096 0.912641
vt 1.268555 -0.895508
vn -0.050062 -0.817093 -0.574328
v -1.525183 0.412583 0.906139
vt 1.671875 -0.148438
vn -0.065167 -0.184573 0.980656
v -1.520145 0.428055 0.900051
vt 1.650391 -0.153320
vn -0.064536 -0.197126 0.978252
v -1.527616 0.428905 0.899975
vt 1.646484 -0.142578
vn -0.072855 -0.185794 0.979884
v -1.532925 0.426694 0.899951
vt 1.651367 -0.135742
vn -0.065501 -0.174676 0.982445
v -1.522307 0.405358 0.921409
vt 1.166992 -0.584961
vn -0.716771 -0.697298 0.003829
v -1.525667 0.404627 0.926248
vt 1.174805 -0.585938
vn -0.720600 -0.693339 -0.003959
v -1.524760 0.404921 0.915824
vt 1.165039 -0.576172
vn -0.720600 -0.693339 -0.003959
v -1.528466 0.431683 0.831892
vt 1.613281 -0.045898
vn -0.777810 -0.533213 0.332709
v -1.541101 0.420350 0.831892
vt 1.634766 -0.039062
vn -0.562859 -0.447024 0.695241
v -1.523398 0.394823 0.927296
vt 1.173828 -0.599609
vn -0.808445 -0.526396 -0.263296
v -1.522745 0.393256 0.928141
vt 1.173828 -0.602539
vn -0.813001 -0.516952 -0.267936
v -1.530016 0.393467 0.926548
vt 1.183594 -0.600586
vn -0.965560 -0.144304 -0.216496
v -1.530205 0.391730 0.927299
vt 1.183594 -0.602539
vn -0.964110 -0.145620 -0.222007
v -1.519388 0.395698 0.921477
vt 1.164062 -0.598633
vn -0.704424 -0.704424 0.087034
v -1.518216 0.394245 0.921565
vt 1.163086 -0.600586
vn -0.774255 -0.632830 -0.007490
v -1.528888 0.393843 0.914142
vt 1.204102 -0.595703
vn 0.953409 -0.301432 -0.012278
v -1.530313 0.403782 0.915213
vt 1.197266 -0.583984
vn 0.959330 -0.277732 -0.050513
v -1.532793 0.393136 0.919989
vt 1.194336 -0.598633
vn 0.981826 -0.029992 0.187399
v -1.533610 0.403240 0.920141
vt 1.190430 -0.585938
vn 0.987776 -0.033430 0.152253
v -1.524760 0.404921 0.915824
vt 1.202148 -0.579102
vn 0.688330 -0.561799 0.458895
v -1.522273 0.395189 0.914870
vt 1.211914 -0.589844
vn 0.667267 -0.534638 0.518571
v -1.519388 0.395698 0.921477
vt 1.216797 -0.581055
vn 0.042286 -0.243170 0.969062
v -1.522307 0.405358 0.921409
vt 1.207031 -0.573242
vn 0.035053 -0.273623 0.961198
v -1.522307 0.405358 0.921409
vt 1.166992 -0.584961
vn -0.123505 -0.840732 0.527178
v -1.519388 0.395698 0.921477
vt 1.164062 -0.598633
vn -0.134817 -0.837569 0.529436
v -1.525667 0.404627 0.926248
vt 1.174805 -0.585938
vn -0.810641 -0.534286 -0.239580
v -1.523398 0.394823 0.927296
vt 1.173828 -0.599609
vn -0.816170 -0.528914 -0.232631
v -1.531284 0.403464 0.925614
vt 1.182617 -0.586914
vn -0.972095 -0.152076 -0.178615
v -1.530016 0.393467 0.926548
vt 1.183594 -0.600586
vn -0.972583 -0.170834 -0.157789
v -1.531284 0.403464 0.925614
vt 1.180664 -0.580078
vn -0.722617 -0.691204 -0.007875
v -1.530313 0.403782 0.915213
vt 1.169922 -0.571289
vn -0.722617 -0.691204 -0.007875
v -1.533610 0.403240 0.920141
vt 1.177734 -0.573242
vn -0.714724 -0.698666 -0.032183
v -1.516289 0.412270 0.906289
vt 1.290039 -0.889648
vn -0.042835 -0.880755 -0.471631
v -1.536590 0.275806 0.905909
vt 1.839844 -0.103516
vn 0.063341 -0.000049 0.997992
v -1.534677 0.253348 0.905374
vt 1.868164 -0.105469
vn 0.190761 -0.004003 0.981628
v -1.531835 0.239098 0.831461
vt 1.899414 -0.015625
vn 0.406538 -0.073220 0.910695
v -1.528162 0.240991 0.900661
vt 1.884766 -0.104492
vn 0.659635 -0.183263 0.728901
v -1.518456 0.227941 0.900468
vt 1.903320 -0.111328
vn 0.720351 -0.212165 0.660364
v -1.522165 0.224876 0.885994
vt 1.909180 -0.091797
vn 0.734094 -0.205283 0.647275
v -1.471058 0.238556 0.905024
vt 1.912109 -0.176758
vn -0.776880 -0.067887 0.625979
v -1.471116 0.253094 0.904969
vt 1.894531 -0.186523
vn -0.581093 -0.043219 0.812689
v -1.469795 0.238654 0.885994
vt 1.928711 -0.195312
vn -0.783485 -0.067807 0.617701
v -1.471170 0.257565 0.885994
vt 1.903320 -0.209961
vn -0.637237 -0.046630 0.769256
v -1.475132 0.207902 0.885994
vt 1.961914 -0.153320
vn 0.985433 -0.015410 0.169366
v -1.477173 0.209573 0.901277
vt 1.943359 -0.150391
vn 0.969680 -0.000056 0.244379
v -1.472862 0.222733 0.885994
vt 1.948242 -0.176758
vn -0.915627 -0.051715 0.398689
v -1.473956 0.223004 0.904140
vt 1.929688 -0.164062
vn -0.886335 -0.069613 0.457783
v -1.475418 0.289492 0.897555
vt 1.848633 -0.212891
vn 0.332813 -0.000058 0.942993
v -1.470917 0.260696 0.897555
vt 1.889648 -0.199219
vn -0.444018 -0.015867 0.895877
v -1.476346 0.289303 0.908155
vt 1.844727 -0.198242
vn 0.332813 -0.000058 0.942993
v -1.473020 0.266305 0.905154
vt 1.877930 -0.192383
vn 0.371377 -0.003959 0.928474
v -1.480214 0.204158 0.900051
vt 1.947266 -0.142578
vn 0.131439 0.000000 -0.991324
v -1.478675 0.202607 0.885994
vt 1.964844 -0.140625
vn 0.997494 -0.056605 0.042450
v -1.499490 0.207184 0.900266
vt 1.933594 -0.124023
vn 0.768328 -0.223453 0.599785
v -1.502541 0.204143 0.885994
vt 1.942383 -0.107422
vn 0.889510 -0.252662 0.380701
v -1.486930 0.200778 0.899975
vt 1.947266 -0.133789
vn 0.977635 -0.066534 -0.199508
v -1.486767 0.197876 0.885994
vt 1.962891 -0.121094
vn 0.975159 -0.067051 -0.211115
v -1.492676 0.201016 0.899951
vt 1.943359 -0.127930
vn 0.939861 -0.238238 0.244752
v -1.493837 0.197586 0.885994
vt 1.955078 -0.115234
vn 0.962354 -0.257241 0.087755
v -1.492371 0.265158 0.935488
vt 1.082031 -0.892578
vn -0.175302 -0.984491 -0.006782
v -1.499501 0.255355 0.929192
vt 1.068359 -0.902344
vn -0.132115 -0.977395 0.165061
v -1.508777 0.262393 0.935582
vt 1.082031 -0.911133
vn -0.133508 -0.991023 -0.007062
v -1.504641 0.250457 0.927733
vt 1.063477 -0.910156
vn -0.131633 -0.983799 0.121703
v -1.489668 0.287809 0.935452
vt 1.109375 -0.881836
vn -0.135719 -0.987871 -0.075434
v -1.517174 0.279829 0.935612
vt 1.106445 -0.918945
vn -0.079466 -0.993658 -0.079554
v -1.481651 0.288401 0.929427
vt 1.106445 -0.869141
vn -0.110730 -0.993122 0.038037
v -1.483649 0.263220 0.928901
vt 1.074219 -0.880859
vn -0.061201 -0.985803 0.156353
v -1.484500 0.254041 0.925709
vt 1.062500 -0.883789
vn -0.061014 -0.975791 0.210021
v -1.494871 0.251245 0.927129
vt 1.061523 -0.897461
vn -0.112667 -0.980823 0.159033
v -1.517755 0.257018 0.925654
vt 1.074219 -0.926758
vn -0.145038 -0.985422 0.088921
v -1.506315 0.239513 0.921791
vt 1.047852 -0.914062
vn -0.067497 -0.978352 0.195632
v -1.528357 0.276446 0.926058
vt 1.101562 -0.937500
vn -0.044400 -0.998577 0.029540
v -1.531897 0.276636 0.908649
vt 1.098633 -0.962891
vn -0.028904 -0.996969 0.072235
v -1.521461 0.257506 0.908355
vt 1.065430 -0.950195
vn -0.192745 -0.976511 0.096305
v -1.515280 0.246992 0.904427
vt 1.045898 -0.944336
vn -0.158158 -0.971861 0.174561
v -1.480699 0.288380 0.927038
vt 1.105469 -0.866211
vn 0.042495 -0.995765 0.081521
v -1.482308 0.263484 0.925907
vt 1.073242 -0.876953
vn 0.106710 -0.983891 0.143429
v -1.482799 0.254221 0.922326
vt 1.059570 -0.878906
vn 0.074222 -0.972048 0.222743
v -1.483328 0.236642 0.912153
vt 1.032227 -0.883789
vn 0.013929 -0.959166 0.282502
v -1.485177 0.237301 0.916330
vt 1.037109 -0.888672
vn -0.101169 -0.971182 0.215803
v -1.479918 0.255222 0.908245
vt 1.050781 -0.861328
vn 0.074222 -0.972048 0.222743
v -1.481268 0.236856 0.908011
vt 1.029297 -0.877930
vn 0.041060 -0.969125 0.243128
v -1.479615 0.265230 0.908938
vt 1.065430 -0.853516
vn 0.112562 -0.983391 0.142379
v -1.479619 0.288331 0.912626
vt 1.100586 -0.846680
vn 0.076470 -0.994138 0.076434
v -1.505286 0.234041 0.919889
vt 1.040039 -0.912109
vn -0.041263 -0.965373 0.257591
v -1.506662 0.234275 0.907489
vt 1.030273 -0.924805
vn -0.080909 -0.973867 0.212220
v -1.509250 0.234322 0.903203
vt 1.028320 -0.931641
vn -0.080901 -0.977378 0.195414
v -1.490091 0.236550 0.921565
vt 1.041016 -0.896484
vn -0.144413 -0.977943 0.150903
v -1.506315 0.239513 0.921791
vt 1.213867 -0.645508
vn -0.994981 -0.090734 -0.042183
v -1.504641 0.250457 0.927733
vt 1.204102 -0.631836
vn -0.938509 -0.193336 -0.286044
v -1.505286 0.234041 0.919889
vt 1.215820 -0.654297
vn -0.992303 -0.007060 -0.123635
v -1.502211 0.234766 0.927299
vt 1.205078 -0.653320
vn -0.956533 -0.128960 -0.261559
v -1.499501 0.255355 0.929192
vt 1.195312 -0.626953
vn -0.890668 -0.404824 -0.206951
v -1.494683 0.235912 0.928141
vt 1.195312 -0.654297
vn -0.854021 -0.517803 -0.050279
v -1.494871 0.251245 0.927129
vt 1.189453 -0.633789
vn -0.698760 -0.671269 0.247250
v -1.490091 0.236550 0.921565
vt 1.184570 -0.656250
vn -0.696215 -0.672791 0.250274
v -1.489682 0.232597 0.912641
vt 1.029297 -0.895508
vn 0.112829 -0.979093 0.169254
v -1.489682 0.232597 0.912641
vt 1.173828 -0.658203
vn 0.258662 -0.962204 0.085198
v -1.501415 0.231575 0.910702
vt 1.165039 -0.667969
vn 0.604614 -0.791822 -0.086364
v -1.493572 0.234262 0.914870
vt 1.175781 -0.664062
vn 0.338799 -0.904816 0.257920
v -1.500244 0.233238 0.914142
vt 1.168945 -0.670898
vn 0.651473 -0.758234 -0.025781
v -1.504154 0.232552 0.919989
vt 1.164062 -0.679688
vn 0.894013 -0.391668 0.217568
v -1.505286 0.234041 0.919889
vt 1.162109 -0.678711
vn 0.393541 -0.169965 0.903459
v -1.489682 0.232597 0.912641
vt 1.029297 -0.895508
vn -0.107318 -0.972262 0.207819
v -1.501415 0.231575 0.910702
vt 1.028320 -0.915039
vn -0.174570 -0.979534 0.100195
v -1.536590 0.275806 0.905909
vt 1.839844 -0.103516
vn 0.152886 -0.076452 0.985282
v -1.531897 0.276636 0.908649
vt 1.840820 -0.111328
vn 0.152886 -0.076452 0.985282
v -1.526842 0.255604 0.905532
vt 1.868164 -0.113281
vn 0.375988 -0.073572 0.923699
v -1.521461 0.257506 0.908355
vt 1.867188 -0.120117
vn 0.383189 -0.065234 0.921363
v -1.534677 0.253348 0.905374
vt 1.868164 -0.105469
vn 0.379917 -0.086748 0.920944
v -1.520238 0.245690 0.901053
vt 1.882812 -0.117188
vn 0.551681 -0.178268 0.814781
v -1.515280 0.246992 0.904427
vt 1.882812 -0.125977
vn 0.509593 -0.146231 0.847899
v -1.509250 0.234322 0.903203
vt 1.899414 -0.125977
vn 0.389601 -0.208455 0.897083
v -1.513131 0.231834 0.900663
vt 1.900391 -0.119141
vn 0.416854 -0.208462 0.884747
v -1.479619 0.288331 0.912626
vt 1.843750 -0.191406
vn 0.527149 -0.071897 0.846726
v -1.476346 0.289303 0.908155
vt 1.844727 -0.198242
vn 0.523636 -0.071412 0.848944
v -1.479615 0.265230 0.908938
vt 1.874023 -0.181641
vn 0.602075 -0.136502 0.786684
v -1.473020 0.266305 0.905154
vt 1.877930 -0.192383
vn 0.605862 -0.137341 0.783625
v -1.479918 0.255222 0.908245
vt 1.885742 -0.176758
vn 0.604659 -0.193181 0.772702
v -1.471116 0.253094 0.904969
vt 1.894531 -0.186523
vn 0.638976 -0.210211 0.739947
v -1.528162 0.240991 0.900661
vt 1.884766 -0.104492
vn 0.633137 -0.226785 0.740072
v -1.518456 0.227941 0.900468
vt 1.903320 -0.111328
vn 0.415552 -0.203217 0.886577
v -1.481268 0.236856 0.908011
vt 1.907227 -0.165039
vn 0.752327 -0.246763 0.610828
v -1.471058 0.238556 0.905024
vt 1.912109 -0.176758
vn 0.761659 -0.255281 0.595573
v -1.482052 0.220303 0.906289
vt 1.008789 -0.888672
vn -0.162580 -0.981866 0.097502
v -1.473956 0.223004 0.904140
vt 1.929688 -0.164062
vn 0.824771 -0.262098 0.501056
v -1.482052 0.220303 0.906289
vt 1.926758 -0.153320
vn 0.844062 -0.262363 0.467680
v -1.477173 0.209573 0.901277
vt 1.943359 -0.150391
vn 0.866434 -0.266615 0.422147
v -1.499490 0.207184 0.900266
vt 1.933594 -0.124023
vn 0.518375 -0.231950 0.823096
v -1.499033 0.219192 0.905520
vt 1.919922 -0.132812
vn 0.503500 -0.228924 0.833115
v -1.499033 0.219192 0.905520
vt 1.009766 -0.913086
vn -0.041401 -0.990045 0.134522
v -1.489682 0.232597 0.912641
vt 1.029297 -0.895508
vn -0.150282 -0.979977 0.130619
v -1.490290 0.216934 0.906139
vt 1.005859 -0.900391
vn -0.081631 -0.989537 0.118968
v -1.480214 0.204158 0.900051
vt 1.947266 -0.142578
vn 0.848972 -0.262975 0.458356
v -1.490290 0.216934 0.906139
vt 1.926758 -0.141602
vn 0.791322 -0.263823 0.551550
v -1.486930 0.200778 0.899975
vt 1.947266 -0.133789
vn 0.781679 -0.265987 0.564118
v -1.492676 0.201016 0.899951
vt 1.943359 -0.127930
vn 0.722220 -0.256157 0.642482
v -1.492541 0.224270 0.915824
vt 1.186523 -0.678711
vn 0.822719 -0.324960 -0.466406
v -1.493494 0.224232 0.926248
vt 1.188477 -0.692383
vn 0.821411 -0.313968 -0.476140
v -1.490089 0.224707 0.921409
vt 1.191406 -0.685547
vn 0.819000 -0.325557 -0.472494
v -1.502541 0.204143 0.831892
vt 1.962891 -0.036133
vn 0.849112 -0.249542 0.465550
v -1.486767 0.197876 0.831892
vt 1.985352 -0.043945
vn 0.936187 -0.317677 0.150449
v -1.502211 0.234766 0.927299
vt 1.205078 -0.653320
vn -0.967118 -0.088501 -0.238433
v -1.494683 0.235912 0.928141
vt 1.195312 -0.654297
vn -0.856991 -0.506949 -0.092567
v -1.501433 0.233201 0.926548
vt 1.205078 -0.655273
vn -0.968538 -0.087734 -0.232889
v -1.494755 0.234216 0.927296
vt 1.195312 -0.656250
vn -0.851143 -0.520114 -0.070973
v -1.490091 0.236550 0.921565
vt 1.184570 -0.656250
vn -0.656534 -0.744836 -0.119089
v -1.490689 0.234781 0.921477
vt 1.185547 -0.659180
vn -0.437681 -0.882802 0.170572
v -1.505286 0.234041 0.919889
vt 1.215820 -0.654297
vn -0.134458 0.000000 -0.990919
v -1.504154 0.232552 0.919989
vt 1.214844 -0.656250
vn -0.171766 0.000000 -0.985138
v -1.501427 0.222788 0.920141
vt 1.175781 -0.686523
vn 0.596287 -0.062775 0.800313
v -1.498146 0.223418 0.915213
vt 1.178711 -0.679688
vn 0.883420 -0.327517 0.335113
v -1.504154 0.232552 0.919989
vt 1.164062 -0.679688
vn 0.596287 -0.062775 0.800313
v -1.500244 0.233238 0.914142
vt 1.168945 -0.670898
vn 0.846811 -0.316610 0.427399
v -1.493572 0.234262 0.914870
vt 1.175781 -0.664062
vn 0.632560 -0.593053 0.498152
v -1.492541 0.224270 0.915824
vt 1.183594 -0.674805
vn 0.673649 -0.626710 0.391703
v -1.490089 0.224707 0.921409
vt 1.190430 -0.671875
vn -0.134084 -0.548783 0.825142
v -1.490689 0.234781 0.921477
vt 1.185547 -0.659180
vn -0.140338 -0.540634 0.829470
v -1.494755 0.234216 0.927296
vt 1.195312 -0.656250
vn -0.818976 -0.571823 0.047924
v -1.493494 0.224232 0.926248
vt 1.198242 -0.669922
vn -0.813656 -0.579081 0.051274
v -1.501433 0.233201 0.926548
vt 1.205078 -0.655273
vn -0.969888 -0.120809 -0.211475
v -1.499166 0.223382 0.925614
vt 1.206055 -0.668945
vn -0.969764 -0.114477 -0.215527
v -1.504154 0.232552 0.919989
vt 1.214844 -0.656250
vn 0.041764 -0.030392 -0.998665
v -1.501427 0.222788 0.920141
vt 1.213867 -0.669922
vn 0.041764 -0.030392 -0.998665
v -1.498146 0.223418 0.915213
vt 1.178711 -0.679688
vn 0.813741 -0.287260 -0.505279
v -1.499166 0.223382 0.925614
vt 1.180664 -0.693359
vn 0.810470 -0.268383 -0.520682
v -1.501427 0.222788 0.920141
vt 1.175781 -0.686523
vn 0.757390 -0.186641 -0.625721
v -1.490290 0.216934 0.906139
vt 1.005859 -0.900391
vn -0.151181 -0.985863 0.072242
v -1.522273 0.395189 0.914870
vt 1.211914 -0.589844
vn 0.506249 -0.314294 -0.803076
v -1.519199 0.398096 0.912641
vt 1.217773 -0.591797
vn 0.473335 -0.189353 -0.860290
v -1.519388 0.395698 0.921477
vt 1.216797 -0.581055
vn 0.925441 -0.374696 -0.056233
v -1.518216 0.394245 0.921565
vt 1.219727 -0.580078
vn 0.868368 -0.404708 0.286616
v -1.545634 0.375818 0.903674
vt 1.937500 -0.281250
vn -0.899897 -0.187446 -0.393764
v -1.550107 0.381128 0.901137
vt 1.965820 -0.233398
vn -0.639571 -0.639571 -0.426494
v -1.543272 0.382347 0.901737
vt 1.910156 -0.233398
vn -0.881104 -0.165474 -0.443029
v -1.552469 0.374599 0.902043
vt 1.994141 -0.281250
vn -0.915008 -0.175088 -0.363461
v -1.547996 0.369289 0.904104
vt 1.965820 -0.330078
vn -0.913575 -0.187140 -0.361054
v -1.541160 0.370508 0.905252
vt 1.910156 -0.330078
vn -0.903301 -0.195527 -0.381858
v -1.538799 0.377037 0.904527
vt 1.881836 -0.281250
vn -0.890397 -0.195678 -0.410979
v -1.526416 0.419744 0.904129
vt 1.937500 -0.281250
vn -0.868294 -0.230109 -0.439450
v -1.530889 0.425054 0.901421
vt 1.965820 -0.233398
vn -0.871828 -0.196028 -0.448875
v -1.524054 0.426273 0.901380
vt 1.910156 -0.233398
vn -0.871625 -0.328709 -0.363622
v -1.533251 0.418525 0.902761
vt 1.994141 -0.281250
vn -0.901625 -0.174799 -0.395623
v -1.528778 0.413215 0.905799
vt 1.965820 -0.330078
vn -0.878970 -0.190841 -0.437025
v -1.521942 0.414434 0.905987
vt 1.910156 -0.330078
vn -0.877196 -0.310767 -0.365992
v -1.519580 0.420963 0.903358
vt 1.881836 -0.281250
vn -0.871410 -0.383043 -0.306468
v -1.517716 0.239053 0.901737
vt 1.910156 -0.330078
vn -0.907354 -0.171543 -0.383774
v -1.524551 0.237834 0.901137
vt 1.965820 -0.330078
vn -0.917024 -0.164375 -0.363384
v -1.522189 0.244363 0.903674
vt 1.937500 -0.281250
vn -0.918536 -0.173302 -0.355327
v -1.529024 0.243144 0.902043
vt 1.994141 -0.281250
vn -0.929827 -0.164565 -0.329152
v -1.526663 0.249673 0.904104
vt 1.965820 -0.233398
vn -0.925718 -0.177503 -0.333975
v -1.519827 0.250892 0.905252
vt 1.910156 -0.233398
vn -0.915045 -0.185645 -0.358089
v -1.515354 0.245582 0.904527
vt 1.881836 -0.281250
vn -0.912096 -0.177974 -0.369332
v -1.484497 0.204478 0.901380
vt 1.910156 -0.330078
vn -0.858882 -0.192021 -0.474816
v -1.491333 0.203259 0.901421
vt 1.965820 -0.330078
vn -0.904965 -0.171946 -0.389194
v -1.488971 0.209789 0.904129
vt 1.937500 -0.281250
vn -0.890463 -0.183870 -0.416254
v -1.495806 0.208570 0.902761
vt 1.994141 -0.281250
vn -0.924245 -0.158886 -0.347170
v -1.493444 0.215099 0.905799
vt 1.965820 -0.233398
vn -0.907354 -0.171543 -0.383774
v -1.486609 0.216318 0.905987
vt 1.910156 -0.233398
vn -0.871551 -0.208726 -0.443658
v -1.482135 0.211008 0.903358
vt 1.881836 -0.281250
vn -0.871294 -0.257768 -0.417616
usemtl Brakes
f 3/3/3 2/2/2 1/1/1
f 4/4/4 2/2/2 3/3/3
f 7/7/7 6/6/6 5/5/5
f 8/8/8 6/6/6 7/7/7
f 11/11/11 10/10/10 9/9/9
f 12/12/12 10/10/10 11/11/11
f 15/15/15 14/14/14 13/13/13
f 16/16/16 14/14/14 15/15/15
f 19/19/19 18/18/18 17/17/17
f 20/20/20 18/18/18 19/19/19
f 23/23/23 22/22/22 21/21/21
f 24/24/24 22/22/22 23/23/23
f 9/9/9 26/26/26 25/25/25
f 10/10/10 26/26/26 9/9/9
f 29/29/29 28/28/28 27/27/27
f 30/30/30 28/28/28 29/29/29
f 33/33/33 32/32/32 31/31/31
f 34/34/34 32/32/32 33/33/33
f 25/25/25 16/16/16 15/15/15
f 26/26/26 16/16/16 25/25/25
f 37/37/37 36/36/36 35/35/35
f 38/38/38 36/36/36 37/37/37
f 41/41/41 40/40/40 39/39/39
f 42/42/42 40/40/40 41/41/41
f 45/45/45 44/44/44 43/43/43
f 47/47/47 40/40/40 46/46/46
f 39/39/39 40/40/40 47/47/47
f 35/35/35 49/49/49 48/48/48
f 36/36/36 49/49/49 35/35/35
f 52/52/52 51/51/51 50/50/50
f 53/53/53 51/51/51 52/52/52
f 53/53/53 48/48/48 49/49/49
f 52/52/52 48/48/48 53/53/53
f 56/56/56 55/55/55 54/54/54
f 57/57/57 55/55/55 56/56/56
f 58/58/58 57/57/57 56/56/56
f 59/59/59 57/57/57 58/58/58
f 62/62/62 61/61/61 60/60/60
f 63/63/63 61/61/61 62/62/62
f 66/66/66 65/65/65 64/64/64
f 67/67/67 65/65/65 66/66/66
f 43/43/43 69/69/69 68/68/68
f 44/44/44 69/69/69 43/43/43
f 71/71/71 69/69/69 70/70/70
f 68/68/68 69/69/69 71/71/71
f 55/55/55 72/72/72 54/54/54
f 73/73/73 72/72/72 55/55/55
f 41/41/41 74/74/74 42/42/42
f 66/66/66 76/76/76 75/75/75
f 64/64/64 76/76/76 66/66/66
f 38/38/38 44/44/44 45/45/45
f 37/37/37 44/44/44 38/38/38
f 58/58/58 67/67/67 59/59/59
f 65/65/65 67/67/67 58/58/58
f 79/79/79 78/78/78 77/77/77
f 80/80/80 78/78/78 79/79/79
f 83/83/83 82/82/82 81/81/81
f 84/84/84 80/80/80 79/79/79
f 85/85/85 80/80/80 84/84/84
f 50/50/50 87/87/87 86/86/86
f 51/51/51 87/87/87 50/50/50
f 86/86/86 85/85/85 84/84/84
f 87/87/87 85/85/85 86/86/86
f 90/90/90 89/89/89 88/88/88
f 91/91/91 89/89/89 90/90/90
f 88/88/88 93/93/93 92/92/92
f 89/89/89 93/93/93 88/88/88
f 96/96/96 95/95/95 94/94/94
f 97/97/97 95/95/95 96/96/96
f 100/100/100 99/99/99 98/98/98
f 101/101/101 99/99/99 100/100/100
f 83/83/83 102/102/102 82/82/82
f 103/103/103 102/102/102 83/83/83
f 106/106/106 105/105/105 104/104/104
f 107/107/107 105/105/105 106/106/106
f 91/91/91 109/109/109 108/108/108
f 90/90/90 109/109/109 91/91/91
f 46/46/46 110/110/110 47/47/47
f 75/75/75 101/101/101 100/100/100
f 76/76/76 101/101/101 75/75/75
f 82/82/82 78/78/78 81/81/81
f 77/77/77 78/78/78 82/82/82
f 99/99/99 93/93/93 98/98/98
f 92/92/92 93/93/93 99/99/99
f 113/113/113 112/112/112 111/111/111
f 114/114/114 112/112/112 113/113/113
f 114/114/114 2/2/2 112/112/112
f 115/115/115 2/2/2 114/114/114
f 1/1/1 2/2/2 115/115/115
f 117/117/117 57/57/57 116/116/116
f 55/55/55 57/57/57 117/117/117
f 119/119/119 10/10/10 118/118/118
f 26/26/26 10/10/10 119/119/119
f 10/10/10 120/120/120 118/118/118
f 12/12/12 120/120/120 10/10/10
f 123/123/123 122/122/122 121/121/121
f 124/124/124 122/122/122 123/123/123
f 125/125/125 28/28/28 30/30/30
f 126/126/126 28/28/28 125/125/125
f 59/59/59 128/128/128 127/127/127
f 67/67/67 128/128/128 59/59/59
f 116/116/116 59/59/59 127/127/127
f 57/57/57 59/59/59 116/116/116
f 129/129/129 113/113/113 111/111/111
f 130/130/130 113/113/113 129/129/129
f 133/133/133 132/132/132 131/131/131
f 134/134/134 132/132/132 133/133/133
f 135/135/135 133/133/133 131/131/131
f 136/136/136 133/133/133 135/135/135
f 136/136/136 138/138/138 137/137/137
f 135/135/135 138/138/138 136/136/136
f 137/137/137 126/126/126 125/125/125
f 138/138/138 126/126/126 137/137/137
f 141/141/141 140/140/140 139/139/139
f 142/142/142 140/140/140 141/141/141
f 20/20/20 143/143/143 18/18/18
f 144/144/144 143/143/143 20/20/20
f 147/147/147 146/146/146 145/145/145
f 148/148/148 146/146/146 147/147/147
f 150/150/150 129/129/129 149/149/149
f 130/130/130 129/129/129 150/150/150
f 117/117/117 73/73/73 55/55/55
f 124/124/124 151/151/151 122/122/122
f 152/152/152 151/151/151 124/124/124
f 149/149/149 153/153/153 150/150/150
f 147/147/147 155/155/155 154/154/154
f 145/145/145 155/155/155 147/147/147
f 158/158/158 157/157/157 156/156/156
f 159/159/159 157/157/157 158/158/158
f 155/155/155 140/140/140 154/154/154
f 139/139/139 140/140/140 155/155/155
f 162/162/162 161/161/161 160/160/160
f 163/163/163 161/161/161 162/162/162
f 6/6/6 162/162/162 5/5/5
f 164/164/164 162/162/162 6/6/6
f 163/163/163 162/162/162 164/164/164
f 166/166/166 91/91/91 165/165/165
f 89/89/89 91/91/91 166/166/166
f 16/16/16 119/119/119 167/167/167
f 26/26/26 119/119/119 16/16/16
f 168/168/168 16/16/16 167/167/167
f 14/14/14 16/16/16 168/168/168
f 170/170/170 121/121/121 169/169/169
f 123/123/123 121/121/121 170/170/170
f 172/172/172 34/34/34 171/171/171
f 32/32/32 34/34/34 172/172/172
f 174/174/174 93/93/93 173/173/173
f 98/98/98 93/93/93 174/174/174
f 173/173/173 89/89/89 166/166/166
f 93/93/93 89/89/89 173/173/173
f 160/160/160 176/176/176 175/175/175
f 161/161/161 176/176/176 160/160/160
f 179/179/179 178/178/178 177/177/177
f 180/180/180 178/178/178 179/179/179
f 181/181/181 177/177/177 178/178/178
f 182/182/182 177/177/177 181/181/181
f 181/181/181 183/183/183 182/182/182
f 184/184/184 183/183/183 181/181/181
f 184/184/184 171/171/171 183/183/183
f 172/172/172 171/171/171 184/184/184
f 185/185/185 22/22/22 24/24/24
f 186/186/186 22/22/22 185/185/185
f 176/176/176 187/187/187 175/175/175
f 188/188/188 187/187/187 176/176/176
f 91/91/91 108/108/108 165/165/165
f 169/169/169 189/189/189 170/170/170
f 190/190/190 189/189/189 169/169/169
f 191/191/191 187/187/187 188/188/188
f 156/156/156 142/142/142 141/141/141
f 157/157/157 142/142/142 156/156/156
f 194/194/194 193/193/193 192/192/192
f 195/195/195 193/193/193 194/194/194
f 198/198/198 197/197/197 196/196/196
f 201/201/201 200/200/200 199/199/199
f 202/202/202 200/200/200 201/201/201
f 205/205/205 204/204/204 203/203/203
f 206/206/206 204/204/204 205/205/205
f 207/207/207 195/195/195 194/194/194
f 210/210/210 209/209/209 208/208/208
f 211/211/211 209/209/209 210/210/210
f 212/212/212 204/204/204 206/206/206
f 213/213/213 204/204/204 212/212/212
f 197/197/197 214/214/214 196/196/196
f 215/215/215 214/214/214 197/197/197
f 216/216/216 213/213/213 212/212/212
f 217/217/217 213/213/213 216/216/216
f 218/218/218 211/211/211 210/210/210
f 219/219/219 211/211/211 218/218/218
f 193/193/193 198/198/198 192/192/192
f 222/222/222 221/221/221 220/220/220
f 223/223/223 221/221/221 222/222/222
f 214/214/214 223/223/223 222/222/222
f 215/215/215 223/223/223 214/214/214
f 202/202/202 205/205/205 203/203/203
f 201/201/201 205/205/205 202/202/202
f 199/199/199 200/200/200 209/209/209
f 200/200/200 208/208/208 209/209/209
f 226/226/226 225/225/225 224/224/224
f 227/227/227 225/225/225 226/226/226
f 229/229/229 226/226/226 228/228/228
f 227/227/227 226/226/226 229/229/229
f 232/232/232 231/231/231 230/230/230
f 229/229/229 231/231/231 232/232/232
f 233/233/233 229/229/229 232/232/232
f 227/227/227 229/229/229 233/233/233
f 227/227/227 235/235/235 234/234/234
f 233/233/233 235/235/235 227/227/227
f 237/237/237 224/224/224 236/236/236
f 226/226/226 224/224/224 237/237/237
f 238/238/238 226/226/226 237/237/237
f 228/228/228 226/226/226 238/238/238
f 239/239/239 228/228/228 238/238/238
f 240/240/240 228/228/228 239/239/239
f 231/231/231 228/228/228 240/240/240
f 229/229/229 228/228/228 231/231/231
f 242/242/242 238/238/238 241/241/241
f 239/239/239 238/238/238 242/242/242
f 241/241/241 237/237/237 243/243/243
f 238/238/238 237/237/237 241/241/241
f 243/243/243 236/236/236 244/244/244
f 237/237/237 236/236/236 243/243/243
f 232/232/232 246/246/246 245/245/245
f 230/230/230 246/246/246 232/232/232
f 233/233/233 245/245/245 247/247/247
f 232/232/232 245/245/245 233/233/233
f 233/233/233 248/248/248 235/235/235
f 247/247/247 248/248/248 233/233/233
f 235/235/235 250/250/250 249/249/249
f 248/248/248 250/250/250 235/235/235
f 248/248/248 251/251/251 250/250/250
f 252/252/252 251/251/251 248/248/248
f 247/247/247 252/252/252 248/248/248
f 253/253/253 252/252/252 247/247/247
f 253/253/253 245/245/245 254/254/254
f 247/247/247 245/245/245 253/253/253
f 254/254/254 246/246/246 255/255/255
f 245/245/245 246/246/246 254/254/254
f 244/244/244 257/257/257 256/256/256
f 236/236/236 257/257/257 244/244/244
f 258/258/258 257/257/257 236/236/236
f 234/234/234 249/249/249 259/259/259
f 235/235/235 249/249/249 234/234/234
f 262/262/262 261/261/261 260/260/260
f 263/263/263 261/261/261 262/262/262
f 260/260/260 265/265/265 264/264/264
f 261/261/261 265/265/265 260/260/260
f 264/264/264 267/267/267 266/266/266
f 265/265/265 267/267/267 264/264/264
f 259/259/259 249/249/249 268/268/268
f 271/271/271 270/270/270 269/269/269
f 272/272/272 270/270/270 271/271/271
f 274/274/274 270/270/270 273/273/273
f 269/269/269 270/270/270 274/274/274
f 249/249/249 250/250/250 268/268/268
f 257/257/257 258/258/258 275/275/275
f 278/278/278 277/277/277 276/276/276
f 279/279/279 277/277/277 278/278/278
f 281/281/281 278/278/278 280/280/280
f 279/279/279 278/278/278 281/281/281
f 282/282/282 279/279/279 281/281/281
f 284/284/284 280/280/280 283/283/283
f 281/281/281 280/280/280 284/284/284
f 284/284/284 286/286/286 285/285/285
f 283/283/283 286/286/286 284/284/284
f 289/289/289 288/288/288 287/287/287
f 290/290/290 288/288/288 289/289/289
f 291/291/291 290/290/290 289/289/289
f 292/292/292 290/290/290 291/291/291
f 293/293/293 292/292/292 291/291/291
f 294/294/294 292/292/292 293/293/293
f 296/296/296 285/285/285 295/295/295
f 284/284/284 285/285/285 296/296/296
f 284/284/284 282/282/282 281/281/281
f 296/296/296 282/282/282 284/284/284
f 298/298/298 293/293/293 297/297/297
f 294/294/294 293/293/293 298/298/298
f 268/268/268 250/250/250 299/299/299
f 250/250/250 251/251/251 299/299/299
f 298/298/298 301/301/301 300/300/300
f 297/297/297 301/301/301 298/298/298
f 302/302/302 300/300/300 301/301/301
f 304/304/304 285/285/285 303/303/303
f 295/295/295 285/285/285 304/304/304
f 285/285/285 286/286/286 303/303/303
f 256/256/256 257/257/257 305/305/305
f 275/275/275 306/306/306 305/305/305
f 307/307/307 306/306/306 275/275/275
f 300/300/300 309/309/309 308/308/308
f 302/302/302 309/309/309 300/300/300
f 309/309/309 310/310/310 308/308/308
f 311/311/311 304/304/304 303/303/303
f 310/310/310 303/303/303 308/308/308
f 311/311/311 303/303/303 310/310/310
f 275/275/275 305/305/305 257/257/257
f 314/314/314 313/313/313 312/312/312
f 316/316/316 222/222/222 315/315/315
f 214/214/214 222/222/222 316/316/316
f 196/196/196 214/214/214 316/316/316
f 192/192/192 196/196/196 316/316/316
f 198/198/198 196/196/196 192/192/192
f 222/222/222 220/220/220 315/315/315
f 319/319/319 318/318/318 317/317/317
f 320/320/320 318/318/318 319/319/319
f 318/318/318 321/321/321 317/317/317
f 322/322/322 321/321/321 318/318/318
f 274/274/274 320/320/320 319/319/319
f 273/273/273 320/320/320 274/274/274
f 325/325/325 324/324/324 323/323/323
f 326/326/326 324/324/324 325/325/325
f 328/328/328 324/324/324 327/327/327
f 323/323/323 324/324/324 328/328/328
f 328/328/328 330/330/330 329/329/329
f 327/327/327 330/330/330 328/328/328
f 333/333/333 332/332/332 331/331/331
f 334/334/334 332/332/332 333/333/333
f 325/325/325 335/335/335 326/326/326
f 336/336/336 335/335/335 325/325/325
f 336/336/336 333/333/333 335/335/335
f 334/334/334 333/333/333 336/336/336
f 227/227/227 234/234/234 225/225/225
f 314/314/314 337/337/337 313/313/313
f 338/338/338 337/337/337 314/314/314
f 337/337/337 338/338/338 339/339/339
f 307/307/307 340/340/340 306/306/306
f 194/194/194 342/342/342 341/341/341
f 343/343/343 342/342/342 194/194/194
f 346/346/346 345/345/345 344/344/344
f 349/349/349 348/348/348 347/347/347
f 350/350/350 348/348/348 349/349/349
f 353/353/353 352/352/352 351/351/351
f 354/354/354 352/352/352 353/353/353
f 194/194/194 341/341/341 207/207/207
f 357/357/357 356/356/356 355/355/355
f 358/358/358 356/356/356 357/357/357
f 360/360/360 352/352/352 359/359/359
f 351/351/351 352/352/352 360/360/360
f 345/345/345 362/362/362 361/361/361
f 346/346/346 362/362/362 345/345/345
f 364/364/364 359/359/359 363/363/363
f 360/360/360 359/359/359 364/364/364
f 218/218/218 355/355/355 219/219/219
f 357/357/357 355/355/355 218/218/218
f 343/343/343 344/344/344 342/342/342
f 366/366/366 363/363/363 365/365/365
f 364/364/364 363/363/363 366/366/366
f 362/362/362 365/365/365 361/361/361
f 366/366/366 365/365/365 362/362/362
f 347/347/347 353/353/353 349/349/349
f 354/354/354 353/353/353 347/347/347
f 356/356/356 348/348/348 350/350/350
f 356/356/356 358/358/358 348/348/348
f 369/369/369 368/368/368 367/367/367
f 370/370/370 368/368/368 369/369/369
f 371/371/371 369/369/369 367/367/367
f 372/372/372 369/369/369 371/371/371
f 373/373/373 231/231/231 371/371/371
f 230/230/230 231/231/231 373/373/373
f 374/374/374 371/371/371 367/367/367
f 373/373/373 371/371/371 374/374/374
f 367/367/367 375/375/375 374/374/374
f 376/376/376 375/375/375 367/367/367
f 377/377/377 370/370/370 369/369/369
f 378/378/378 370/370/370 377/377/377
f 379/379/379 369/369/369 372/372/372
f 377/377/377 369/369/369 379/379/379
f 239/239/239 372/372/372 240/240/240
f 379/379/379 372/372/372 239/239/239
f 231/231/231 372/372/372 371/371/371
f 240/240/240 372/372/372 231/231/231
f 242/242/242 379/379/379 239/239/239
f 380/380/380 379/379/379 242/242/242
f 380/380/380 377/377/377 379/379/379
f 381/381/381 377/377/377 380/380/380
f 381/381/381 378/378/378 377/377/377
f 382/382/382 378/378/378 381/381/381
f 373/373/373 246/246/246 230/230/230
f 383/383/383 246/246/246 373/373/373
f 374/374/374 383/383/383 373/373/373
f 384/384/384 383/383/383 374/374/374
f 374/374/374 385/385/385 384/384/384
f 375/375/375 385/385/385 374/374/374
f 375/375/375 386/386/386 385/385/385
f 387/387/387 386/386/386 375/375/375
f 385/385/385 389/389/389 388/388/388
f 386/386/386 389/389/389 385/385/385
f 384/384/384 388/388/388 390/390/390
f 385/385/385 388/388/388 384/384/384
f 390/390/390 383/383/383 384/384/384
f 391/391/391 383/383/383 390/390/390
f 391/391/391 246/246/246 383/383/383
f 255/255/255 246/246/246 391/391/391
f 378/378/378 393/393/393 392/392/392
f 382/382/382 393/393/393 378/378/378
f 394/394/394 393/393/393 382/382/382
f 376/376/376 387/387/387 375/375/375
f 395/395/395 387/387/387 376/376/376
f 398/398/398 397/397/397 396/396/396
f 399/399/399 397/397/397 398/398/398
f 399/399/399 400/400/400 397/397/397
f 401/401/401 400/400/400 399/399/399
f 401/401/401 402/402/402 400/400/400
f 403/403/403 402/402/402 401/401/401
f 404/404/404 387/387/387 395/395/395
f 407/407/407 406/406/406 405/405/405
f 408/408/408 406/406/406 407/407/407
f 409/409/409 406/406/406 408/408/408
f 410/410/410 406/406/406 409/409/409
f 411/411/411 386/386/386 387/387/387
f 412/412/412 392/392/392 393/393/393
f 414/414/414 277/277/277 413/413/413
f 276/276/276 277/277/277 414/414/414
f 415/415/415 414/414/414 413/413/413
f 416/416/416 414/414/414 415/415/415
f 415/415/415 413/413/413 417/417/417
f 418/418/418 416/416/416 415/415/415
f 419/419/419 416/416/416 418/418/418
f 418/418/418 420/420/420 419/419/419
f 421/421/421 420/420/420 418/418/418
f 423/423/423 288/288/288 422/422/422
f 287/287/287 288/288/288 423/423/423
f 425/425/425 422/422/422 424/424/424
f 423/423/423 422/422/422 425/425/425
f 427/427/427 424/424/424 426/426/426
f 425/425/425 424/424/424 427/427/427
f 428/428/428 421/421/421 418/418/418
f 429/429/429 421/421/421 428/428/428
f 418/418/418 417/417/417 428/428/428
f 415/415/415 417/417/417 418/418/418
f 430/430/430 427/427/427 426/426/426
f 431/431/431 427/427/427 430/430/430
f 432/432/432 386/386/386 411/411/411
f 432/432/432 389/389/389 386/386/386
f 430/430/430 433/433/433 431/431/431
f 434/434/434 433/433/433 430/430/430
f 433/433/433 434/434/434 435/435/435
f 436/436/436 421/421/421 429/429/429
f 437/437/437 421/421/421 436/436/436
f 437/437/437 420/420/420 421/421/421
f 438/438/438 393/393/393 394/394/394
f 412/412/412 440/440/440 439/439/439
f 438/438/438 440/440/440 412/412/412
f 434/434/434 441/441/441 435/435/435
f 442/442/442 441/441/441 434/434/434
f 442/442/442 443/443/443 441/441/441
f 437/437/437 436/436/436 444/444/444
f 443/443/443 437/437/437 444/444/444
f 442/442/442 437/437/437 443/443/443
f 393/393/393 438/438/438 412/412/412
f 447/447/447 446/446/446 445/445/445
f 448/448/448 366/366/366 362/362/362
f 449/449/449 366/366/366 448/448/448
f 448/448/448 362/362/362 346/346/346
f 343/343/343 346/346/346 344/344/344
f 448/448/448 346/346/346 343/343/343
f 449/449/449 364/364/364 366/366/366
f 452/452/452 451/451/451 450/450/450
f 453/453/453 451/451/451 452/452/452
f 451/451/451 455/455/455 454/454/454
f 453/453/453 455/455/455 451/451/451
f 457/457/457 450/450/450 456/456/456
f 452/452/452 450/450/450 457/457/457
f 460/460/460 459/459/459 458/458/458
f 461/461/461 459/459/459 460/460/460
f 462/462/462 459/459/459 461/461/461
f 463/463/463 459/459/459 462/462/462
f 462/462/462 464/464/464 463/463/463
f 465/465/465 464/464/464 462/462/462
f 467/467/467 465/465/465 466/466/466
f 464/464/464 465/465/465 467/467/467
f 470/470/470 469/469/469 468/468/468
f 471/471/471 469/469/469 470/470/470
f 468/468/468 467/467/467 466/466/466
f 469/469/469 467/467/467 468/468/468
f 368/368/368 376/376/376 367/367/367
f 445/445/445 473/473/473 472/472/472
f 446/446/446 473/473/473 445/445/445
f 474/474/474 472/472/472 473/473/473
f 475/475/475 432/432/432 411/411/411
f 405/405/405 455/455/455 407/407/407
f 454/454/454 455/455/455 405/405/405
f 478/478/478 477/477/477 476/476/476
f 479/479/479 477/477/477 478/478/478
f 482/482/482 481/481/481 480/480/480
f 481/481/481 483/483/483 480/480/480
f 483/483/483 484/484/484 480/480/480
f 484/484/484 485/485/485 480/480/480
f 485/485/485 486/486/486 480/480/480
f 486/486/486 482/482/482 480/480/480
f 489/489/489 488/488/488 487/487/487
f 488/488/488 490/490/490 487/487/487
f 490/490/490 491/491/491 487/487/487
f 491/491/491 492/492/492 487/487/487
f 492/492/492 493/493/493 487/487/487
f 493/493/493 489/489/489 487/487/487
f 496/496/496 495/495/495 494/494/494
f 496/496/496 497/497/497 495/495/495
f 496/496/496 498/498/498 497/497/497
f 496/496/496 499/499/499 498/498/498
f 496/496/496 500/500/500 499/499/499
f 496/496/496 494/494/494 500/500/500
f 503/503/503 502/502/502 501/501/501
f 503/503/503 504/504/504 502/502/502
f 503/503/503 505/505/505 504/504/504
f 503/503/503 506/506/506 505/505/505
f 503/503/503 507/507/507 506/506/506
f 503/503/503 501/501/501 507/507/507
