# Exported from Godot Engine
mtllib Caliper_Perf_LR.mtl
o Caliper_Perf_LR
v -1.232258 0.506539 -0.885471
vt 1.284180 -0.342773
vn 0.331193 0.684822 0.649099
v -1.234175 0.511984 -0.886626
vt 1.280273 -0.349609
vn 0.596091 0.782932 0.178027
v -1.233457 0.498849 -0.900944
vt 1.264648 -0.327148
vn 0.321501 0.728182 0.605299
v -1.235574 0.502925 -0.904740
vt 1.258789 -0.332031
vn 0.507929 0.836874 0.204084
v -1.200120 0.466270 -0.900946
vt 1.266602 -0.256836
vn -0.146917 0.881255 0.449228
v -1.195943 0.464194 -0.904740
vt 1.259766 -0.250977
vn 0.106155 0.925282 0.364120
v -1.192463 0.467669 -0.885471
vt 1.287109 -0.241211
vn -0.186562 0.890276 0.415456
v -1.186924 0.465829 -0.886626
vt 1.283203 -0.234375
vn 0.015204 0.914618 0.404034
v -1.234788 0.501055 -0.906675
vt 1.255859 -0.329102
vn 0.322099 0.775064 0.543624
v -1.225818 0.493719 -0.906599
vt 1.258789 -0.311523
vn 0.122908 0.701699 0.701792
v -1.232906 0.497436 -0.902370
vt 1.263672 -0.324219
vn -0.101423 0.544974 0.832296
v -1.225365 0.491240 -0.902218
vt 1.265625 -0.309570
vn -0.157593 0.595271 0.787919
v -1.205400 0.473708 -0.906599
vt 1.259766 -0.271484
vn -0.074444 0.770850 0.632652
v -1.197833 0.464932 -0.906675
vt 1.257812 -0.254883
vn -0.046138 0.834688 0.548787
v -1.207940 0.474161 -0.902218
vt 1.266602 -0.274414
vn -0.356094 0.735577 0.576301
v -1.201548 0.466784 -0.902371
vt 1.264648 -0.258789
vn -0.427420 0.769265 0.474914
v -1.235574 0.502925 -0.904740
vt 1.258789 -0.332031
vn 0.368501 0.781782 0.503015
v -1.234788 0.501055 -0.906675
vt 1.255859 -0.329102
vn 0.431086 0.838721 0.332735
v -1.233457 0.498849 -0.900944
vt 1.264648 -0.327148
vn 0.184948 0.652010 0.735308
v -1.232906 0.497436 -0.902370
vt 1.263672 -0.324219
vn 0.184948 0.652010 0.735308
v -1.197833 0.464932 -0.906675
vt 1.257812 -0.254883
vn 0.099968 0.891572 0.441707
v -1.195943 0.464194 -0.904740
vt 1.259766 -0.250977
vn -0.035224 0.853820 0.519375
v -1.201548 0.466784 -0.902371
vt 1.264648 -0.258789
vn -0.233263 0.858259 0.457144
v -1.200120 0.466270 -0.900946
vt 1.266602 -0.256836
vn -0.243059 0.859978 0.448731
v -1.215183 0.484151 -0.906651
vt 1.260742 -0.291992
vn 0.010847 0.690507 0.723244
v -1.216288 0.483074 -0.902266
vt 1.266602 -0.291992
vn -0.255198 0.669842 0.697270
v -1.234143 0.511282 -0.863527
vt 1.308594 -0.364258
vn 0.325504 0.646773 0.689734
v -1.234175 0.511984 -0.886626
vt 1.280273 -0.349609
vn 0.325438 0.642383 0.693855
v -1.232231 0.505941 -0.865806
vt 1.309570 -0.356445
vn 0.154093 0.527278 0.835604
v -1.232258 0.506539 -0.885471
vt 1.284180 -0.342773
vn 0.155148 0.530860 0.833136
v -1.186924 0.465829 -0.886626
vt 1.283203 -0.234375
vn -0.330717 0.895287 0.298476
v -1.187626 0.465842 -0.863527
vt 1.311523 -0.220703
vn -0.324300 0.895784 0.303975
v -1.192463 0.467669 -0.885471
vt 1.287109 -0.241211
vn -0.442337 0.854230 0.273182
v -1.193060 0.467681 -0.865806
vt 1.311523 -0.229492
vn -0.458298 0.852814 0.250343
v -1.278230 0.496899 -0.893045
vt 1.195312 -0.374023
vn -0.064580 0.615033 -0.785853
v -1.275808 0.479622 -0.895911
vt 1.184570 -0.352539
vn -0.045937 0.512824 -0.857264
v -1.277697 0.497602 -0.905732
vt 1.208984 -0.363281
vn -0.060802 0.600096 -0.797614
v -1.275276 0.480326 -0.908598
vt 1.200195 -0.343750
vn -0.038277 0.474194 -0.879588
v -1.260700 0.452450 -0.909778
vt 1.190430 -0.303711
vn 0.289837 0.625412 -0.724468
v -1.253229 0.445130 -0.910033
vt 1.190430 -0.290039
vn 0.308542 0.594235 -0.742756
v -1.259761 0.458280 -0.912165
vt 1.197266 -0.308594
vn 0.294941 0.612516 -0.733372
v -1.249255 0.449208 -0.912922
vt 1.199219 -0.290039
vn 0.308542 0.594235 -0.742756
v -1.279804 0.511125 -0.890508
vt 1.205078 -0.390625
vn -0.072077 0.652215 -0.754599
v -1.280429 0.515616 -0.901613
vt 1.219727 -0.383789
vn -0.061054 0.686470 -0.724590
v -1.281173 0.514634 -0.883909
vt 1.203125 -0.401367
vn -0.031079 0.714470 -0.698975
v -1.239972 0.438881 -0.912165
vt 1.198242 -0.271484
vn 0.317836 0.574416 -0.754339
v -1.245757 0.437809 -0.909778
vt 1.190430 -0.276367
vn 0.324264 0.564546 -0.759039
v -1.273438 0.466807 -0.897289
vt 1.177734 -0.333984
vn -0.049315 0.303296 -0.951620
v -1.272850 0.467372 -0.909990
vt 1.194336 -0.329102
vn -0.034436 0.252260 -0.967047
v -1.261537 0.451612 -0.895777
vt 1.170898 -0.305664
vn -0.015624 0.124953 -0.992040
v -1.254066 0.444292 -0.895966
vt 1.170898 -0.290039
vn 0.011772 0.031372 -0.999438
v -1.260700 0.452450 -0.909778
vt 1.190430 -0.303711
vn 0.000000 0.079138 -0.996864
v -1.253229 0.445130 -0.910033
vt 1.190430 -0.290039
vn 0.030783 0.000000 -0.999526
v -1.264890 0.508969 -0.907050
vt 1.228516 -0.362305
vn 0.426631 0.797546 -0.426505
v -1.275751 0.519622 -0.902414
vt 1.228516 -0.383789
vn 0.426631 0.797546 -0.426505
v -1.277697 0.497602 -0.905732
vt 1.208984 -0.363281
vn 0.399587 0.781338 -0.479418
v -1.280429 0.515616 -0.901613
vt 1.219727 -0.383789
vn 0.392275 0.784499 -0.480293
v -1.254440 0.498806 -0.910411
vt 1.230469 -0.342773
vn 0.429169 0.784519 -0.447598
v -1.275276 0.480326 -0.908598
vt 1.200195 -0.343750
vn 0.406954 0.778116 -0.478460
v -1.280164 0.523308 -0.862919
vt 1.195312 -0.431641
vn 0.126883 0.701450 -0.701333
v -1.281787 0.518861 -0.863054
vt 1.190430 -0.427734
vn 0.126883 0.701450 -0.701333
v -1.280154 0.523788 -0.883295
vt 1.212891 -0.410156
vn 0.126876 0.693943 -0.708764
v -1.281897 0.519283 -0.883083
vt 1.207031 -0.406250
vn 0.126217 0.690294 -0.712435
v -1.240887 0.489675 -0.912431
vt 1.236328 -0.321289
vn 0.425596 0.777988 -0.462172
v -1.272850 0.467372 -0.909990
vt 1.194336 -0.329102
vn 0.405836 0.784890 -0.468235
v -1.235589 0.481447 -0.913573
vt 1.233398 -0.307617
vn 0.407559 0.788166 -0.461184
v -1.259761 0.458280 -0.912165
vt 1.197266 -0.308594
vn 0.404608 0.791243 -0.458504
v -1.281189 0.521471 -0.900193
vt 1.224609 -0.390625
vn 0.050017 0.723354 -0.688663
v -1.281897 0.519283 -0.883083
vt 1.207031 -0.406250
vn 0.042597 0.712293 -0.700589
v -1.281897 0.519283 -0.883083
vt 1.207031 -0.406250
vn 0.046053 0.729018 -0.682943
v -1.281189 0.521471 -0.900193
vt 1.224609 -0.390625
vn 0.050209 0.749266 -0.660363
v -1.280154 0.523788 -0.883295
vt 1.212891 -0.410156
vn 0.161961 0.640402 -0.750769
v -1.279619 0.523640 -0.900279
vt 1.228516 -0.392578
vn 0.174550 0.690694 -0.701765
v -1.279619 0.523640 -0.900279
vt 1.228516 -0.392578
vn 0.475323 0.648955 -0.594076
v -1.281189 0.521471 -0.900193
vt 1.224609 -0.390625
vn 0.442825 0.664263 -0.602213
v -1.272850 0.467372 -0.909990
vt 1.194336 -0.329102
vn 0.294941 0.612516 -0.733372
v -1.249255 0.449208 -0.912922
vt 1.199219 -0.290039
vn 0.404608 0.791243 -0.458504
v -1.226641 0.472390 -0.914117
vt 1.233398 -0.291016
vn 0.401764 0.794556 -0.455267
v -1.218214 0.423389 -0.895911
vt 1.187500 -0.227539
vn 0.986313 0.065769 -0.151202
v -1.200869 0.421407 -0.893045
vt 1.199219 -0.206055
vn 0.978806 0.104426 -0.176164
v -1.217524 0.423940 -0.908598
vt 1.203125 -0.237305
vn 0.982619 0.084317 -0.165381
v -1.200179 0.421958 -0.905731
vt 1.212891 -0.217773
vn 0.978545 0.111297 -0.173384
v -1.183051 0.418916 -0.883909
vt 1.208008 -0.179688
vn 0.956289 0.049236 -0.288249
v -1.182089 0.419684 -0.901613
vt 1.224609 -0.197266
vn 0.970393 0.094349 -0.222340
v -1.186596 0.420193 -0.890508
vt 1.209961 -0.190430
vn 0.976679 0.117604 -0.179633
v -1.231092 0.425431 -0.897289
vt 1.179688 -0.246094
vn 0.996498 0.060825 -0.057372
v -1.230542 0.426033 -0.909990
vt 1.195312 -0.250977
vn 0.993606 0.102237 -0.047907
v -1.246573 0.436951 -0.895777
vt 1.171875 -0.273438
vn 0.999207 0.014818 -0.036965
v -1.245757 0.437809 -0.909778
vt 1.190430 -0.276367
vn 0.998274 0.056065 -0.017483
v -1.178207 0.424465 -0.902414
vt 1.232422 -0.198242
vn 0.399142 0.825488 -0.399068
v -1.189139 0.435046 -0.907050
vt 1.232422 -0.219727
vn 0.399142 0.825488 -0.399068
v -1.182089 0.419684 -0.901613
vt 1.224609 -0.197266
vn 0.401261 0.784656 -0.472550
v -1.200179 0.421958 -0.905731
vt 1.212891 -0.217773
vn 0.395554 0.791108 -0.466567
v -1.199570 0.445228 -0.910411
vt 1.232422 -0.239258
vn 0.391654 0.828313 -0.400630
v -1.217524 0.423940 -0.908598
vt 1.203125 -0.237305
vn 0.388660 0.803792 -0.450403
v -1.174407 0.420150 -0.862919
vt 1.202148 -0.148438
vn 0.356362 0.282112 -0.890741
v -1.173927 0.420173 -0.883295
vt 1.218750 -0.170898
vn 0.349638 0.279710 -0.894156
v -1.178810 0.418412 -0.863054
vt 1.197266 -0.152344
vn 0.356362 0.282112 -0.890741
v -1.178386 0.418313 -0.883083
vt 1.212891 -0.174805
vn 0.349638 0.279710 -0.894156
v -1.239972 0.438881 -0.912165
vt 1.198242 -0.271484
vn 0.403372 0.797784 -0.448143
v -1.230542 0.426033 -0.909990
vt 1.195312 -0.250977
vn 0.392995 0.803843 -0.446532
v -1.217414 0.463620 -0.913573
vt 1.234375 -0.274414
vn 0.395963 0.800817 -0.449339
v -1.209051 0.458539 -0.912431
vt 1.237305 -0.260742
vn 0.388797 0.822272 -0.415579
v -1.178386 0.418313 -0.883083
vt 1.212891 -0.174805
vn 0.353721 0.102120 -0.929760
v -1.176217 0.419077 -0.900193
vt 1.229492 -0.191406
vn 0.366349 0.117237 -0.923062
v -1.174089 0.420704 -0.900279
vt 1.233398 -0.189453
vn 0.361111 0.383644 -0.849950
v -1.173927 0.420173 -0.883295
vt 1.218750 -0.170898
vn 0.328840 0.350785 -0.876820
v -1.176217 0.419077 -0.900193
vt 1.229492 -0.191406
vn 0.318144 0.828763 -0.460366
v -1.174089 0.420704 -0.900279
vt 1.233398 -0.189453
vn 0.302046 0.864103 -0.402608
v -1.230542 0.426033 -0.909990
vt 1.195312 -0.250977
vn 0.316022 0.571108 -0.757605
v -1.245487 0.506059 -0.909309
vt 1.246094 -0.341797
vn 0.602311 0.792570 0.095152
v -1.240036 0.515664 -0.886663
vt 1.276367 -0.358398
vn 0.602311 0.792570 0.095152
v -1.257762 0.514397 -0.906194
vt 1.241211 -0.361328
vn 0.601896 0.794828 0.077258
v -1.251471 0.521585 -0.887085
vt 1.266602 -0.373047
vn 0.601896 0.794828 0.077258
v -1.238523 0.500993 -0.910548
vt 1.249023 -0.331055
vn 0.587357 0.801661 0.111135
v -1.271868 0.522493 -0.901865
vt 1.234375 -0.382812
vn 0.450626 0.834509 -0.317066
v -1.257762 0.514397 -0.906194
vt 1.241211 -0.361328
vn 0.463490 0.816437 -0.344395
v -1.216091 0.483218 -0.909889
vt 1.255859 -0.291992
vn 0.289943 0.894719 0.339721
v -1.226746 0.492803 -0.909804
vt 1.253906 -0.311523
vn 0.371142 0.882535 0.288765
v -1.235635 0.499635 -0.909692
vt 1.251953 -0.327148
vn 0.451554 0.862101 0.229958
v -1.226746 0.492803 -0.909804
vt 1.253906 -0.311523
vn 0.455545 0.837818 -0.300899
v -1.233741 0.482709 -0.911701
vt 1.237305 -0.307617
vn 0.447076 0.845299 -0.292561
v -1.216091 0.483218 -0.909889
vt 1.255859 -0.291992
vn 0.438247 0.852350 -0.285375
v -1.225122 0.473950 -0.911970
vt 1.238281 -0.291016
vn 0.432487 0.856974 -0.280269
v -1.240036 0.515664 -0.886663
vt 1.276367 -0.358398
vn 0.469669 0.708835 0.526274
v -1.240112 0.515065 -0.863285
vt 1.303711 -0.374023
vn 0.449314 0.713605 0.537480
v -1.238523 0.500993 -0.910548
vt 1.249023 -0.331055
vn 0.466854 0.802839 -0.370805
v -1.245487 0.506059 -0.909309
vt 1.246094 -0.341797
vn 0.461832 0.811443 -0.358149
v -1.271868 0.522493 -0.901865
vt 1.234375 -0.382812
vn 0.594147 0.802155 0.059466
v -1.264058 0.526783 -0.887555
vt 1.256836 -0.387695
vn 0.592608 0.802652 0.067567
v -1.280164 0.523308 -0.862919
vt 1.270508 -0.426758
vn 0.488342 0.860261 0.146537
v -1.280154 0.523788 -0.883295
vt 1.246094 -0.410156
vn 0.485192 0.862192 0.145646
v -1.270510 0.528241 -0.862446
vt 1.279297 -0.414062
vn 0.563717 0.807180 0.175166
v -1.270342 0.528767 -0.888192
vt 1.250977 -0.394531
vn 0.592779 0.790365 0.154713
v -1.264025 0.526189 -0.862836
vt 1.285156 -0.406250
vn 0.536836 0.731679 0.420064
v -1.264058 0.526783 -0.887555
vt 1.256836 -0.387695
vn 0.571579 0.725149 0.384002
v -1.251471 0.521585 -0.887085
vt 1.266602 -0.373047
vn 0.517634 0.720393 0.461615
v -1.251668 0.521048 -0.863146
vt 1.294922 -0.389648
vn 0.490721 0.722942 0.486363
v -1.216200 0.465501 -0.911701
vt 1.238281 -0.274414
vn 0.414225 0.908156 0.060586
v -1.225122 0.473950 -0.911970
vt 1.238281 -0.291016
vn 0.429614 0.900952 0.060961
v -1.217414 0.463620 -0.913573
vt 1.234375 -0.274414
vn 0.416654 0.907022 0.060910
v -1.226641 0.472390 -0.914117
vt 1.233398 -0.291016
vn 0.429614 0.900952 0.060961
v -1.238523 0.500993 -0.910548
vt 1.249023 -0.331055
vn 0.531728 0.836103 0.134898
v -1.235635 0.499635 -0.909692
vt 1.251953 -0.327148
vn 0.516595 0.844259 0.142679
v -1.235635 0.499635 -0.909692
vt 1.251953 -0.327148
vn 0.494108 0.849131 -0.186639
v -1.238523 0.500993 -0.910548
vt 1.249023 -0.331055
vn 0.491060 0.851161 -0.185435
v -1.238540 0.488953 -0.911309
vt 1.238281 -0.318359
vn 0.474734 0.877443 -0.068708
v -1.240887 0.489675 -0.912431
vt 1.236328 -0.321289
vn 0.476587 0.870906 -0.119953
v -1.279619 0.523640 -0.900279
vt 1.228516 -0.392578
vn 0.555883 0.830379 0.038279
v -1.270342 0.528767 -0.888192
vt 1.250977 -0.394531
vn 0.562343 0.826173 0.034770
v -1.235635 0.499635 -0.909692
vt 1.251953 -0.327148
vn 0.463786 0.828186 -0.314658
v -1.238540 0.488953 -0.911309
vt 1.238281 -0.318359
vn 0.457980 0.833401 -0.309350
v -1.280154 0.523788 -0.883295
vt 1.246094 -0.410156
vn 0.529447 0.847806 0.030174
v -1.235589 0.481447 -0.913573
vt 1.233398 -0.307617
vn 0.446757 0.893536 0.044741
v -1.233741 0.482709 -0.911701
vt 1.237305 -0.307617
vn 0.453183 0.890450 0.041533
v -1.199230 0.464047 -0.909692
vt 1.252930 -0.255859
vn 0.407655 0.904305 -0.126687
v -1.209833 0.460866 -0.911309
vt 1.240234 -0.263672
vn 0.431498 0.901023 -0.044352
v -1.197798 0.461197 -0.910548
vt 1.250977 -0.251953
vn 0.407135 0.903919 -0.131039
v -1.209051 0.458539 -0.912431
vt 1.237305 -0.260742
vn 0.422021 0.902896 -0.081713
v -1.192553 0.454366 -0.909310
vt 1.248047 -0.240234
vn 0.101457 0.942306 0.319009
v -1.183898 0.442312 -0.906194
vt 1.244141 -0.220703
vn 0.114217 0.945965 0.303489
v -1.183092 0.460066 -0.886663
vt 1.279297 -0.226562
vn 0.100763 0.943117 0.316822
v -1.176876 0.448788 -0.887085
vt 1.270508 -0.210938
vn 0.114217 0.945965 0.303489
v -1.197798 0.461197 -0.910548
vt 1.250977 -0.251953
vn 0.116019 0.939322 0.322823
v -1.183898 0.442312 -0.906194
vt 1.244141 -0.220703
vn 0.405926 0.868646 -0.284039
v -1.175438 0.428422 -0.901865
vt 1.238281 -0.199219
vn 0.420229 0.864415 -0.276033
v -1.206292 0.472756 -0.909804
vt 1.254883 -0.271484
vn 0.239071 0.908508 0.342723
v -1.199230 0.464047 -0.909692
vt 1.252930 -0.255859
vn 0.191497 0.923151 0.333347
v -1.206292 0.472756 -0.909804
vt 1.254883 -0.271484
vn 0.423979 0.863903 -0.271871
v -1.216200 0.465501 -0.911701
vt 1.238281 -0.274414
vn 0.412468 0.872566 -0.261723
v -1.183689 0.459974 -0.863285
vt 1.307617 -0.211914
vn -0.232966 0.916174 0.326117
v -1.183092 0.460066 -0.886663
vt 1.279297 -0.226562
vn -0.243569 0.920863 0.304444
v -1.197798 0.461197 -0.910548
vt 1.250977 -0.251953
vn 0.391106 0.872724 -0.292214
v -1.192553 0.454366 -0.909310
vt 1.248047 -0.240234
vn 0.398044 0.869892 -0.291288
v -1.175438 0.428422 -0.901865
vt 1.238281 -0.199219
vn 0.154291 0.950393 0.270088
v -1.171353 0.436341 -0.887555
vt 1.260742 -0.195312
vn 0.133703 0.950172 0.281595
v -1.174407 0.420150 -0.862919
vt 1.276367 -0.157227
vn 0.190786 0.935552 0.297225
v -1.169727 0.429929 -0.862446
vt 1.285156 -0.169922
vn 0.045830 0.916570 0.397238
v -1.173927 0.420173 -0.883295
vt 1.251953 -0.172852
vn 0.197353 0.935694 0.292452
v -1.169205 0.430111 -0.888192
vt 1.255859 -0.188477
vn 0.015375 0.911301 0.411454
v -1.171353 0.436341 -0.887555
vt 1.260742 -0.195312
vn -0.197398 0.935698 0.292410
v -1.171946 0.436358 -0.862836
vt 1.290039 -0.178711
vn -0.193013 0.931572 0.308090
v -1.177408 0.448578 -0.863146
vt 1.298828 -0.195312
vn -0.213612 0.922896 0.320363
v -1.176876 0.448788 -0.887085
vt 1.270508 -0.210938
vn -0.222852 0.928472 0.297114
v -1.197798 0.461197 -0.910548
vt 1.250977 -0.251953
vn 0.180758 0.940022 0.289286
v -1.199230 0.464047 -0.909692
vt 1.252930 -0.255859
vn 0.187747 0.938779 0.288867
v -1.174089 0.420704 -0.900279
vt 1.233398 -0.189453
vn 0.216929 0.952533 0.213595
v -1.169205 0.430111 -0.888192
vt 1.255859 -0.188477
vn 0.216929 0.952533 0.213595
v -1.209833 0.460866 -0.911309
vt 1.240234 -0.263672
vn 0.383136 0.891346 -0.242301
v -1.199230 0.464047 -0.909692
vt 1.252930 -0.255859
vn 0.408741 0.873074 -0.265842
v -1.173927 0.420173 -0.883295
vt 1.251953 -0.172852
vn 0.261484 0.948708 0.177704
v -1.548277 0.341335 -0.905909
vt 1.757812 -0.105469
vn 0.110424 0.000017 0.993885
v -1.554245 0.363070 -0.905374
vt 1.729492 -0.108398
vn -0.230398 0.003961 0.973088
v -1.545111 0.308093 -0.831461
vt 1.797852 -0.004883
vn 0.015856 0.000015 0.999874
v -1.556505 0.377424 -0.831461
vt 1.696289 -0.018555
vn -0.406575 0.073176 0.910682
v -1.552404 0.376917 -0.900661
vt 1.712891 -0.108398
vn -0.696313 0.174060 0.696313
v -1.547808 0.392518 -0.900468
vt 1.694336 -0.116211
vn -0.747775 0.177303 0.639841
v -1.552347 0.394111 -0.885994
vt 1.688477 -0.096680
vn -0.743685 0.199572 0.638047
v -1.499662 0.398943 -0.905024
vt 1.690430 -0.183594
vn 0.696875 0.084196 0.712233
v -1.494691 0.385281 -0.904969
vt 1.708984 -0.191406
vn 0.501411 0.051735 0.863661
v -1.498443 0.399288 -0.885993
vt 1.677734 -0.204102
vn 0.704573 0.084201 0.704619
v -1.493196 0.381067 -0.885993
vt 1.702148 -0.215820
vn 0.546576 0.051483 0.835825
v -1.514082 0.426299 -0.885993
vt 1.641602 -0.172852
vn 0.893914 0.086490 0.439816
v -1.515420 0.424025 -0.901277
vt 1.656250 -0.160156
vn 0.883379 0.090506 0.459837
v -1.506825 0.413166 -0.885993
vt 1.657227 -0.189453
vn 0.832719 0.095783 0.545348
v -1.507758 0.412534 -0.904140
vt 1.672852 -0.171875
vn 0.821670 0.099026 0.561295
v -1.545432 0.308036 -0.906138
vt 1.798828 -0.101562
vn 0.015856 0.000015 0.999874
v -1.486145 0.349640 -0.897555
vt 1.755859 -0.214844
vn 0.236939 0.000018 0.971525
v -1.491877 0.378217 -0.897555
vt 1.714844 -0.203125
vn 0.365753 0.023828 0.930407
v -1.487082 0.349496 -0.908155
vt 1.758789 -0.201172
vn 0.236939 0.000018 0.971525
v -1.491911 0.372226 -0.905154
vt 1.726562 -0.196289
vn 0.261077 0.000019 0.965318
v -1.520145 0.428055 -0.900051
vt 1.650391 -0.153320
vn 0.973620 0.154870 0.167567
v -1.519238 0.430042 -0.885994
vt 1.635742 -0.165039
vn 0.973620 0.154870 0.167567
v -1.537187 0.418551 -0.900265
vt 1.662109 -0.129883
vn -0.794740 0.187388 0.577299
v -1.541101 0.420350 -0.885993
vt 1.654297 -0.111328
vn -0.880773 0.263479 0.393470
v -1.527616 0.428905 -0.899975
vt 1.646484 -0.142578
vn 0.985772 0.166796 -0.020787
v -1.528466 0.431684 -0.885994
vt 1.628906 -0.153320
vn 0.987821 0.065655 -0.141063
v -1.480107 0.319687 -0.897555
vt 1.802734 -0.223633
vn -0.000016 0.019425 0.999811
v -1.481126 0.319505 -0.910324
vt 1.801758 -0.208008
vn -0.000016 0.019425 0.999811
v -1.532925 0.426695 -0.899951
vt 1.651367 -0.135742
vn -0.942084 0.233862 0.240389
v -1.527616 0.428905 -0.899975
vt 1.646484 -0.142578
vn -0.963336 0.047988 -0.263972
v -1.535200 0.429512 -0.885994
vt 1.641602 -0.116211
vn -0.942859 0.318586 0.097569
v -1.528466 0.431684 -0.885994
vt 1.632812 -0.120117
vn -0.899793 0.049065 -0.433549
v -1.510465 0.366613 -0.935488
vt 1.216797 -0.891602
vn -0.099881 0.994942 0.010678
v -1.520544 0.373347 -0.929192
vt 1.229492 -0.902344
vn -0.106450 0.977958 0.179629
v -1.526816 0.363535 -0.935582
vt 1.215820 -0.911133
vn -0.123148 0.991798 0.034211
v -1.527061 0.376165 -0.927733
vt 1.234375 -0.910156
vn -0.073996 0.978656 0.191721
v -1.500099 0.346292 -0.935452
vt 1.188477 -0.881836
vn -0.055407 0.996926 -0.055391
v -1.528668 0.344272 -0.935612
vt 1.191406 -0.918945
vn -0.117625 0.992377 -0.036764
v -1.497139 0.316649 -0.935466
vt 1.148438 -0.882812
vn -0.087123 0.990007 -0.110889
v -1.492371 0.348509 -0.929427
vt 1.191406 -0.869141
vn -0.041964 0.999112 -0.003811
v -1.489732 0.317970 -0.930129
vt 1.148438 -0.869141
vn -0.047530 0.989760 -0.134597
v -1.502951 0.371447 -0.928901
vt 1.223633 -0.879883
vn -0.120896 0.990611 0.063829
v -1.506922 0.379765 -0.925709
vt 1.235352 -0.883789
vn -0.125501 0.984124 0.125501
v -1.517621 0.378804 -0.927129
vt 1.236328 -0.897461
vn -0.112796 0.985162 0.129351
v -1.537098 0.365476 -0.925654
vt 1.223633 -0.926758
vn 0.080419 0.981987 0.170982
v -1.532415 0.385857 -0.921791
vt 1.250000 -0.915039
vn 0.027588 0.966425 0.255462
v -1.540330 0.343581 -0.926058
vt 1.196289 -0.937500
vn -0.000017 0.994144 0.108061
v -1.526129 0.311478 -0.935632
vt 1.148438 -0.923828
vn -0.099353 0.993175 -0.061101
v -1.531923 0.310445 -0.928102
vt 1.148438 -0.937500
vn -0.022835 0.999559 0.018989
v -1.534346 0.310013 -0.910064
vt 1.149414 -0.963867
vn -0.000015 0.999878 0.015635
v -1.543585 0.342178 -0.908649
vt 1.199219 -0.962891
vn 0.021379 0.995120 0.096332
v -1.540407 0.363737 -0.908355
vt 1.232422 -0.950195
vn 0.180937 0.975794 0.122831
v -1.538242 0.375739 -0.904427
vt 1.250977 -0.944336
vn 0.141130 0.967810 0.208389
v -1.488780 0.318140 -0.927516
vt 1.148438 -0.865234
vn 0.000000 0.999497 -0.031706
v -1.491485 0.348858 -0.927038
vt 1.192383 -0.866211
vn -0.057397 0.997088 0.050216
v -1.501601 0.371663 -0.925907
vt 1.224609 -0.875977
vn -0.119208 0.986473 0.112516
v -1.505264 0.380185 -0.922326
vt 1.238281 -0.878906
vn -0.100252 0.979068 0.177132
v -1.511837 0.396497 -0.912153
vt 1.266602 -0.883789
vn -0.047605 0.971778 0.231043
v -1.513344 0.395240 -0.916330
vt 1.261719 -0.888672
vn -0.000019 0.970141 0.242540
v -1.502215 0.380242 -0.908245
vt 1.247070 -0.860352
vn -0.093527 0.978522 0.183702
v -1.509831 0.397008 -0.908011
vt 1.269531 -0.877930
vn -0.067677 0.977543 0.199573
v -1.498470 0.370955 -0.908938
vt 1.232422 -0.853516
vn -0.125249 0.985394 0.115371
v -1.490488 0.349277 -0.912626
vt 1.197266 -0.845703
vn -0.083810 0.995104 0.052392
v -1.487153 0.318430 -0.923331
vt 1.148438 -0.858398
vn 0.000000 0.999717 -0.023786
v -1.533341 0.391347 -0.919889
vt 1.256836 -0.912109
vn 0.014092 0.952730 0.303491
v -1.534551 0.390652 -0.907489
vt 1.266602 -0.925781
vn 0.048185 0.963950 0.261683
v -1.536964 0.389713 -0.903203
vt 1.268555 -0.932617
vn 0.047951 0.966128 0.253568
v -1.518216 0.394245 -0.921565
vt 1.256836 -0.896484
vn -0.034255 0.982791 0.181517
v -1.532415 0.385857 -0.921791
vt 1.192383 -0.610352
vn -0.462975 0.795667 0.390598
v -1.527061 0.376165 -0.927733
vt 1.182617 -0.624023
vn -0.857157 0.449148 -0.252087
v -1.533341 0.391347 -0.919889
vt 1.194336 -0.601562
vn -0.406821 0.739569 0.536223
v -1.530205 0.391730 -0.927298
vt 1.183594 -0.602539
vn -0.794266 0.607559 -0.003624
v -1.520544 0.373347 -0.929192
vt 1.173828 -0.629883
vn -0.880781 0.132558 -0.454591
v -1.522745 0.393257 -0.928141
vt 1.173828 -0.602539
vn -0.894325 0.077009 -0.440741
v -1.517621 0.378804 -0.927129
vt 1.167969 -0.622070
vn -0.956981 0.027830 -0.288812
v -1.518216 0.394245 -0.921565
vt 1.163086 -0.600586
vn -0.322533 0.021261 -0.946319
v -1.519199 0.398096 -0.912641
vt 1.268555 -0.895508
vn -0.093896 0.975729 0.197830
v -1.519199 0.398096 -0.912641
vt 1.217773 -0.591797
vn 0.541362 0.769736 -0.338282
v -1.530561 0.394999 -0.910702
vt 1.206055 -0.599609
vn 0.268873 0.962992 0.018797
v -1.522273 0.395189 -0.914870
vt 1.211914 -0.589844
vn 0.633619 0.737885 -0.232492
v -1.528888 0.393843 -0.914142
vt 1.204102 -0.595703
vn 0.373098 0.911609 0.172529
v -1.532793 0.393136 -0.919989
vt 1.194336 -0.598633
vn -0.164288 0.862286 0.479033
v -1.533341 0.391347 -0.919889
vt 1.194336 -0.601562
vn -0.328643 0.845712 0.420435
v -1.530561 0.394999 -0.910702
vt 1.268555 -0.916016
vn -0.013797 0.972041 0.234403
v -1.548277 0.341335 -0.905909
vt 1.757812 -0.105469
vn 0.344700 0.100887 0.933276
v -1.545432 0.308036 -0.906138
vt 1.798828 -0.101562
vn 0.246548 0.089262 0.965011
v -1.543585 0.342178 -0.908649
vt 1.757812 -0.112305
vn 0.350853 0.096058 0.931491
v -1.534346 0.310013 -0.910064
vt 1.798828 -0.116211
vn 0.254483 0.089054 0.962968
v -1.546113 0.363661 -0.905532
vt 1.730469 -0.116211
vn 0.543323 0.117553 0.831253
v -1.540407 0.363737 -0.908355
vt 1.731445 -0.123047
vn 0.572350 0.091402 0.814900
v -1.554245 0.363070 -0.905374
vt 1.729492 -0.108398
vn 0.434063 0.116862 0.893271
v -1.543343 0.375247 -0.901053
vt 1.714844 -0.121094
vn 0.311297 0.023946 0.950011
v -1.538242 0.375739 -0.904427
vt 1.716797 -0.129883
vn 0.419963 0.019795 0.907326
v -1.536964 0.389713 -0.903203
vt 1.699219 -0.131836
vn -0.200693 0.024051 0.979359
v -1.541465 0.390706 -0.900663
vt 1.697266 -0.125000
vn -0.118696 0.003932 0.992923
v -1.490488 0.349277 -0.912626
vt 1.758789 -0.193359
vn 0.182361 0.000018 0.983232
v -1.487153 0.318430 -0.923331
vt 1.801758 -0.191406
vn 0.046319 0.069505 0.996506
v -1.487082 0.349496 -0.908155
vt 1.758789 -0.201172
vn 0.182361 0.000018 0.983232
v -1.481126 0.319505 -0.910324
vt 1.801758 -0.208008
vn 0.046319 0.069505 0.996506
v -1.498470 0.370955 -0.908938
vt 1.728516 -0.185547
vn 0.159219 0.007944 0.987211
v -1.491911 0.372226 -0.905154
vt 1.726562 -0.196289
vn 0.166941 0.007918 0.985935
v -1.502215 0.380242 -0.908245
vt 1.716797 -0.180664
vn 0.079087 0.000016 0.996868
v -1.494691 0.385281 -0.904969
vt 1.708984 -0.191406
vn -0.111763 0.011952 0.993663
v -1.552404 0.376917 -0.900661
vt 1.712891 -0.108398
vn -0.207638 0.011971 0.978133
v -1.547808 0.392518 -0.900468
vt 1.694336 -0.116211
vn 0.094780 0.000017 0.995498
v -1.509831 0.397008 -0.908011
vt 1.694336 -0.170898
vn -0.253775 0.049082 0.966017
v -1.499662 0.398943 -0.905024
vt 1.690430 -0.183594
vn -0.254731 0.053387 0.965537
v -1.516289 0.412270 -0.906289
vt 1.290039 -0.889648
vn -0.061203 0.985797 0.156394
v -1.507758 0.412534 -0.904140
vt 1.672852 -0.171875
vn -0.342534 0.057079 0.937770
v -1.516289 0.412270 -0.906289
vt 1.672852 -0.160156
vn -0.378031 0.040191 0.924920
v -1.515420 0.424025 -0.901277
vt 1.656250 -0.160156
vn -0.422974 0.027925 0.905711
v -1.537187 0.418551 -0.900265
vt 1.662109 -0.129883
vn -0.248105 0.023983 0.968436
v -1.532607 0.407442 -0.905520
vt 1.677734 -0.138672
vn -0.225397 0.024140 0.973968
v -1.532607 0.407442 -0.905520
vt 1.287109 -0.914062
vn -0.187495 0.979448 0.074343
v -1.519199 0.398096 -0.912641
vt 1.268555 -0.895508
vn -0.086906 0.979117 0.183786
v -1.525183 0.412583 -0.906139
vt 1.291992 -0.902344
vn -0.119625 0.986746 0.109643
v -1.520145 0.428055 -0.900051
vt 1.650391 -0.153320
vn -0.435793 0.035621 0.899342
v -1.525183 0.412583 -0.906139
vt 1.671875 -0.148438
vn -0.406616 0.035841 0.912896
v -1.527616 0.428905 -0.899975
vt 1.646484 -0.142578
vn -0.408048 0.039993 0.912084
v -1.532925 0.426695 -0.899951
vt 1.651367 -0.135742
vn -0.383530 0.035946 0.922828
v -1.524760 0.404922 -0.915824
vt 1.165039 -0.576172
vn -0.951932 0.021071 -0.305585
v -1.525667 0.404628 -0.926248
vt 1.174805 -0.585938
vn -0.951932 0.021071 -0.305585
v -1.522307 0.405359 -0.921409
vt 1.166992 -0.584961
vn -0.953270 0.021023 -0.301386
v -1.541101 0.420350 -0.831892
vt 1.634766 -0.039062
vn -0.830384 0.261376 0.492082
v -1.528466 0.431684 -0.831892
vt 1.613281 -0.045898
vn -0.926814 0.337929 0.163766
v -1.530205 0.391730 -0.927298
vt 1.183594 -0.602539
vn -0.778358 0.627810 0.003679
v -1.522745 0.393257 -0.928141
vt 1.173828 -0.602539
vn -0.899709 0.023981 -0.435831
v -1.530016 0.393467 -0.926548
vt 1.183594 -0.600586
vn -0.773568 0.633542 0.014731
v -1.523398 0.394823 -0.927296
vt 1.173828 -0.599609
vn -0.899035 0.015891 -0.437589
v -1.518216 0.394245 -0.921565
vt 1.163086 -0.600586
vn -0.962216 0.125947 -0.241406
v -1.519388 0.395699 -0.921477
vt 1.164062 -0.598633
vn -0.971502 0.073949 -0.225202
v -1.533610 0.403240 -0.920141
vt 1.190430 -0.585938
vn 0.084629 0.625273 0.775804
v -1.530313 0.403783 -0.915213
vt 1.197266 -0.583984
vn 0.783570 0.602741 0.150738
v -1.532793 0.393136 -0.919989
vt 1.194336 -0.598633
vn 0.073490 0.601994 0.795112
v -1.528888 0.393843 -0.914142
vt 1.204102 -0.595703
vn 0.777367 0.598268 0.194360
v -1.522273 0.395189 -0.914870
vt 1.211914 -0.589844
vn 0.918405 0.286532 0.272822
v -1.524760 0.404922 -0.915824
vt 1.202148 -0.579102
vn 0.936596 0.286894 0.201198
v -1.522307 0.405359 -0.921409
vt 1.207031 -0.573242
vn 0.612989 0.019644 0.789847
v -1.519388 0.395699 -0.921477
vt 1.216797 -0.581055
vn 0.545351 0.023679 0.837873
v -1.523398 0.394823 -0.927296
vt 1.173828 -0.599609
vn -0.912299 0.047373 -0.406775
v -1.519388 0.395699 -0.921477
vt 1.164062 -0.598633
vn -0.052887 0.135904 -0.989309
v -1.525667 0.404628 -0.926248
vt 1.174805 -0.585938
vn -0.907749 0.031572 -0.418325
v -1.522307 0.405359 -0.921409
vt 1.166992 -0.584961
vn -0.049188 0.151298 -0.987264
v -1.530016 0.393467 -0.926548
vt 1.183594 -0.600586
vn -0.755089 0.649327 0.090636
v -1.531284 0.403465 -0.925613
vt 1.182617 -0.586914
vn -0.752319 0.654489 0.075239
v -1.530313 0.403783 -0.915213
vt 1.169922 -0.571289
vn -0.951270 0.021213 -0.307629
v -1.531284 0.403465 -0.925613
vt 1.180664 -0.580078
vn -0.951270 0.021213 -0.307629
v -1.533610 0.403240 -0.920141
vt 1.177734 -0.573242
vn -0.333350 0.014334 -0.942694
v -1.516289 0.412270 -0.906289
vt 1.290039 -0.889648
vn -0.074327 0.986106 0.148563
v -1.531835 0.239098 -0.831461
vt 1.899414 -0.015625
vn 0.136689 0.189883 0.972245
v -1.534677 0.253348 -0.905374
vt 1.868164 -0.105469
vn 0.007348 0.088523 0.996047
v -1.536590 0.275806 -0.905909
vt 1.839844 -0.103516
vn -0.000016 0.030735 0.999528
v -1.522165 0.224877 -0.885994
vt 1.909180 -0.091797
vn 0.419364 0.375035 0.826730
v -1.518456 0.227941 -0.900468
vt 1.903320 -0.111328
vn 0.432207 0.366978 0.823726
v -1.528162 0.240992 -0.900661
vt 1.884766 -0.104492
vn 0.364701 0.328229 0.871354
v -1.471170 0.257565 -0.885993
vt 1.903320 -0.209961
vn -0.085353 0.291483 0.952761
v -1.471116 0.253095 -0.904969
vt 1.894531 -0.186523
vn -0.078378 0.263492 0.961472
v -1.469795 0.238654 -0.885993
vt 1.928711 -0.195312
vn -0.131832 0.380725 0.915243
v -1.471058 0.238557 -0.905024
vt 1.912109 -0.176758
vn -0.131573 0.376324 0.917098
v -1.473956 0.223005 -0.904140
vt 1.929688 -0.164062
vn -0.146172 0.465337 0.872980
v -1.477173 0.209573 -0.901277
vt 1.943359 -0.150391
vn -0.000021 0.553660 0.832743
v -1.472862 0.222734 -0.885993
vt 1.948242 -0.176758
vn -0.110993 0.491379 0.863845
v -1.475132 0.207902 -0.885993
vt 1.961914 -0.153320
vn 0.037814 0.605576 0.794888
v -1.473020 0.266305 -0.905154
vt 1.877930 -0.192383
vn 0.007016 0.164948 0.986277
v -1.470917 0.260696 -0.897555
vt 1.889648 -0.199219
vn -0.028199 0.197354 0.979927
v -1.476346 0.289303 -0.908155
vt 1.844727 -0.198242
vn -0.000017 0.148323 0.988939
v -1.475418 0.289492 -0.897555
vt 1.848633 -0.212891
vn -0.000017 0.148323 0.988939
v -1.478675 0.202607 -0.885994
vt 1.964844 -0.140625
vn 0.160607 0.707854 0.687858
v -1.480214 0.204158 -0.900051
vt 1.947266 -0.142578
vn 0.382111 0.815942 0.433856
v -1.502541 0.204143 -0.885993
vt 1.942383 -0.107422
vn 0.571569 0.503163 0.648179
v -1.499490 0.207185 -0.900265
vt 1.933594 -0.124023
vn 0.464469 0.399245 0.790488
v -1.486767 0.197877 -0.885994
vt 1.962891 -0.121094
vn 0.678555 0.723532 0.126743
v -1.486930 0.200778 -0.899975
vt 1.947266 -0.133789
vn 0.662644 0.733081 0.153281
v -1.493837 0.197587 -0.885994
vt 1.955078 -0.115234
vn 0.667875 0.624626 0.404703
v -1.492676 0.201017 -0.899951
vt 1.943359 -0.127930
vn 0.579981 0.571999 0.580034
v -1.504641 0.250458 -0.927733
vt 1.063477 -0.910156
vn -0.076903 0.853570 -0.515270
v -1.499501 0.255355 -0.929192
vt 1.068359 -0.902344
vn -0.076462 0.787445 -0.611624
v -1.508777 0.262394 -0.935582
vt 1.082031 -0.911133
vn -0.079056 0.972004 -0.221266
v -1.492371 0.265159 -0.935488
vt 1.082031 -0.892578
vn -0.105723 0.947580 -0.301520
v -1.517174 0.279830 -0.935612
vt 1.106445 -0.918945
vn -0.079501 0.993658 -0.079519
v -1.489668 0.287810 -0.935452
vt 1.109375 -0.881836
vn -0.111379 0.978255 -0.174961
v -1.481651 0.288402 -0.929427
vt 1.106445 -0.869141
vn -0.062917 0.959323 -0.275210
v -1.483649 0.263220 -0.928901
vt 1.074219 -0.880859
vn -0.035255 0.884290 -0.465606
v -1.494871 0.251245 -0.927129
vt 1.061523 -0.897461
vn -0.065355 0.822479 -0.565028
v -1.484500 0.254042 -0.925709
vt 1.062500 -0.883789
vn -0.035022 0.808730 -0.587137
v -1.506315 0.239513 -0.921791
vt 1.047852 -0.914062
vn -0.038845 0.822946 -0.566789
v -1.517755 0.257018 -0.925654
vt 1.074219 -0.926758
vn -0.085109 0.881696 -0.464079
v -1.528357 0.276446 -0.926058
vt 1.101562 -0.937500
vn -0.023777 0.990594 -0.134753
v -1.531897 0.276637 -0.908649
vt 1.098633 -0.962891
vn -0.015815 0.978597 -0.205176
v -1.521461 0.257506 -0.908355
vt 1.065430 -0.950195
vn -0.114048 0.813509 -0.570260
v -1.515280 0.246992 -0.904427
vt 1.045898 -0.944336
vn -0.090784 0.733765 -0.673311
v -1.480699 0.288380 -0.927038
vt 1.105469 -0.866211
vn 0.023630 0.967523 -0.251676
v -1.482308 0.263484 -0.925907
vt 1.073242 -0.876953
vn 0.061994 0.852426 -0.519160
v -1.482799 0.254221 -0.922326
vt 1.059570 -0.878906
vn 0.042404 0.770707 -0.635778
v -1.485177 0.237301 -0.916330
vt 1.037109 -0.888672
vn -0.057626 0.745110 -0.664447
v -1.483328 0.236642 -0.912153
vt 1.032227 -0.883789
vn 0.007927 0.749146 -0.662358
v -1.481268 0.236857 -0.908011
vt 1.029297 -0.877930
vn 0.023456 0.780682 -0.624489
v -1.479918 0.255222 -0.908245
vt 1.050781 -0.861328
vn 0.042404 0.770707 -0.635778
v -1.479615 0.265231 -0.908938
vt 1.065430 -0.853516
vn 0.065478 0.847086 -0.527407
v -1.479619 0.288332 -0.912626
vt 1.100586 -0.846680
vn 0.043304 0.952048 -0.302869
v -1.509250 0.234322 -0.903203
vt 1.028320 -0.931641
vn -0.046574 0.806513 -0.589379
v -1.506662 0.234275 -0.907489
vt 1.030273 -0.924805
vn -0.046304 0.779251 -0.624999
v -1.505286 0.234041 -0.919889
vt 1.040039 -0.912109
vn -0.023407 0.755748 -0.654444
v -1.490091 0.236550 -0.921565
vt 1.041016 -0.896484
vn -0.083930 0.793498 -0.602758
v -1.502211 0.234766 -0.927298
vt 1.205078 -0.653320
vn -0.792653 0.607923 -0.046160
v -1.504641 0.250458 -0.927733
vt 1.204102 -0.631836
vn -0.857182 0.488582 -0.162868
v -1.505286 0.234041 -0.919889
vt 1.215820 -0.654297
vn -0.380454 0.812271 0.442120
v -1.506315 0.239513 -0.921791
vt 1.213867 -0.645508
vn -0.392912 0.766614 0.507862
v -1.494683 0.235912 -0.928141
vt 1.195312 -0.654297
vn -0.946495 0.279036 -0.162132
v -1.499501 0.255355 -0.929192
vt 1.195312 -0.626953
vn -0.926241 0.270849 -0.262143
v -1.490091 0.236550 -0.921565
vt 1.184570 -0.656250
vn -0.975994 0.210193 -0.057044
v -1.494871 0.251245 -0.927129
vt 1.189453 -0.633789
vn -0.975707 0.211435 -0.057369
v -1.489682 0.232597 -0.912641
vt 1.029297 -0.895508
vn 0.065293 0.806537 -0.587566
v -1.500244 0.233238 -0.914142
vt 1.168945 -0.670898
vn 0.328578 0.128583 -0.935683
v -1.501415 0.231575 -0.910702
vt 1.165039 -0.667969
vn 0.356362 0.282112 -0.890741
v -1.493572 0.234262 -0.914870
vt 1.175781 -0.664062
vn 0.156463 0.284486 -0.945826
v -1.489682 0.232597 -0.912641
vt 1.173828 -0.658203
vn 0.153457 0.733434 -0.662213
v -1.505286 0.234041 -0.919889
vt 1.162109 -0.678711
vn 0.336560 0.194869 0.921278
v -1.504154 0.232552 -0.919989
vt 1.164062 -0.679688
vn 0.831274 0.474391 0.289718
v -1.489682 0.232597 -0.912641
vt 1.029297 -0.895508
vn -0.061274 0.750225 -0.658337
v -1.501415 0.231575 -0.910702
vt 1.028320 -0.915039
vn -0.103048 0.831702 -0.545576
v -1.531897 0.276637 -0.908649
vt 1.840820 -0.111328
vn 0.152881 0.076413 0.985286
v -1.536590 0.275806 -0.905909
vt 1.839844 -0.103516
vn 0.152881 0.076413 0.985286
v -1.521461 0.257506 -0.908355
vt 1.867188 -0.120117
vn 0.121564 0.178558 0.976391
v -1.526842 0.255605 -0.905532
vt 1.868164 -0.113281
vn 0.138111 0.176470 0.974568
v -1.534677 0.253348 -0.905374
vt 1.868164 -0.105469
vn 0.164230 0.179870 0.969884
v -1.515280 0.246992 -0.904427
vt 1.882812 -0.125977
vn 0.283221 0.246810 0.926753
v -1.520238 0.245691 -0.901053
vt 1.882812 -0.117188
vn 0.350265 0.271008 0.896588
v -1.513131 0.231834 -0.900663
vt 1.900391 -0.119141
vn 0.416841 0.208409 0.884765
v -1.509250 0.234322 -0.903203
vt 1.899414 -0.125977
vn 0.418410 0.195566 0.886954
v -1.476346 0.289303 -0.908155
vt 1.844727 -0.198242
vn 0.132061 0.242094 0.961223
v -1.479619 0.288332 -0.912626
vt 1.843750 -0.191406
vn 0.133003 0.243822 0.960656
v -1.473020 0.266305 -0.905154
vt 1.877930 -0.192383
vn 0.265734 0.293053 0.918426
v -1.479615 0.265231 -0.908938
vt 1.874023 -0.181641
vn 0.263841 0.290975 0.919631
v -1.471116 0.253095 -0.904969
vt 1.894531 -0.186523
vn 0.420390 0.319469 0.849242
v -1.479918 0.255222 -0.908245
vt 1.885742 -0.176758
vn 0.382781 0.299571 0.873920
v -1.518456 0.227941 -0.900468
vt 1.903320 -0.111328
vn 0.405789 0.207494 0.890102
v -1.528162 0.240992 -0.900661
vt 1.884766 -0.104492
vn 0.454647 0.317369 0.832210
v -1.471058 0.238557 -0.905024
vt 1.912109 -0.176758
vn 0.530562 0.395792 0.749568
v -1.481268 0.236857 -0.908011
vt 1.907227 -0.165039
vn 0.510854 0.389442 0.766396
v -1.482052 0.220303 -0.906289
vt 1.008789 -0.888672
vn -0.096041 0.844940 -0.526168
v -1.482052 0.220303 -0.906289
vt 1.926758 -0.153320
vn 0.570115 0.458519 0.681711
v -1.473956 0.223005 -0.904140
vt 1.929688 -0.164062
vn 0.562205 0.442336 0.698760
v -1.477173 0.209573 -0.901277
vt 1.943359 -0.150391
vn 0.589316 0.478792 0.650742
v -1.499033 0.219193 -0.905520
vt 1.919922 -0.132812
vn 0.456426 0.251045 0.853611
v -1.499490 0.207185 -0.900265
vt 1.933594 -0.124023
vn 0.462553 0.258464 0.848081
v -1.499033 0.219193 -0.905520
vt 1.009766 -0.913086
vn -0.023557 0.926041 -0.376686
v -1.490290 0.216935 -0.906139
vt 1.005859 -0.900391
vn -0.047017 0.908558 -0.415105
v -1.489682 0.232597 -0.912641
vt 1.029297 -0.895508
vn -0.087887 0.817491 -0.569197
v -1.490290 0.216935 -0.906139
vt 1.926758 -0.141602
vn 0.555439 0.416612 0.719668
v -1.480214 0.204158 -0.900051
vt 1.947266 -0.142578
vn 0.573472 0.462849 0.675944
v -1.486930 0.200778 -0.899975
vt 1.947266 -0.133789
vn 0.557384 0.409591 0.722190
v -1.492676 0.201017 -0.899951
vt 1.943359 -0.127930
vn 0.525175 0.370207 0.766249
v -1.490089 0.224708 -0.921409
vt 1.191406 -0.685547
vn 0.840907 0.018201 -0.540873
v -1.493494 0.224232 -0.926248
vt 1.188477 -0.692383
vn 0.841488 0.027468 -0.539578
v -1.492541 0.224270 -0.915824
vt 1.186523 -0.678711
vn 0.844865 0.027429 -0.534276
v -1.486767 0.197877 -0.831892
vt 1.985352 -0.043945
vn 0.752193 0.554230 0.356419
v -1.502541 0.204143 -0.831892
vt 1.962891 -0.036133
vn 0.544571 0.463304 0.699136
v -1.494755 0.234216 -0.927296
vt 1.195312 -0.656250
vn -0.948222 0.251294 -0.194234
v -1.494683 0.235912 -0.928141
vt 1.195312 -0.654297
vn -0.945858 0.248081 -0.209303
v -1.501433 0.233201 -0.926548
vt 1.205078 -0.655273
vn -0.728738 0.682685 0.053677
v -1.502211 0.234766 -0.927298
vt 1.205078 -0.653320
vn -0.734604 0.677190 0.042084
v -1.490689 0.234781 -0.921477
vt 1.185547 -0.659180
vn -0.206936 0.259466 -0.943321
v -1.490091 0.236550 -0.921565
vt 1.184570 -0.656250
vn -0.378550 0.202364 -0.903188
v -1.504154 0.232552 -0.919989
vt 1.214844 -0.656250
vn -0.482149 0.811724 0.329600
v -1.505286 0.234041 -0.919889
vt 1.215820 -0.654297
vn -0.390165 0.816225 0.426085
v -1.500244 0.233238 -0.914142
vt 1.168945 -0.670898
vn 0.680534 0.455107 0.574239
v -1.498146 0.223419 -0.915213
vt 1.178711 -0.679688
vn 0.720643 0.485992 0.494454
v -1.504154 0.232552 -0.919989
vt 1.164062 -0.679688
vn 0.115687 0.274738 0.954534
v -1.501427 0.222789 -0.920141
vt 1.175781 -0.686523
vn 0.115687 0.274738 0.954534
v -1.492541 0.224270 -0.915824
vt 1.183594 -0.674805
vn 0.962773 0.258727 0.078283
v -1.493572 0.234262 -0.914870
vt 1.175781 -0.664062
vn 0.950884 0.253542 0.177583
v -1.490689 0.234781 -0.921477
vt 1.185547 -0.659180
vn -0.947262 0.061441 0.314515
v -1.490089 0.224708 -0.921409
vt 1.190430 -0.671875
vn -0.952727 0.058148 0.298213
v -1.493494 0.224232 -0.926248
vt 1.198242 -0.669922
vn -0.958031 0.264001 -0.111710
v -1.494755 0.234216 -0.927296
vt 1.195312 -0.656250
vn -0.955835 0.274045 -0.106197
v -1.501427 0.222789 -0.920141
vt 1.213867 -0.669922
vn 0.118004 0.778003 0.617078
v -1.499166 0.223382 -0.925613
vt 1.206055 -0.668945
vn -0.743004 0.667179 0.053073
v -1.504154 0.232552 -0.919989
vt 1.214844 -0.656250
vn 0.118004 0.778003 0.617078
v -1.501433 0.233201 -0.926548
vt 1.205078 -0.655273
vn -0.746390 0.663416 0.052735
v -1.499166 0.223382 -0.925613
vt 1.180664 -0.693359
vn 0.823079 0.018928 -0.567612
v -1.498146 0.223419 -0.915213
vt 1.178711 -0.679688
vn 0.829071 0.018673 -0.558831
v -1.501427 0.222789 -0.920141
vt 1.175781 -0.686523
vn 0.642408 0.050994 -0.764665
v -1.490290 0.216935 -0.906139
vt 1.005859 -0.900391
vn -0.088779 0.895460 -0.436199
v -1.518216 0.394245 -0.921565
vt 1.219727 -0.580078
vn 0.833221 0.446980 0.325502
v -1.519199 0.398096 -0.912641
vt 1.217773 -0.591797
vn 0.721119 0.623207 -0.302657
v -1.519388 0.395699 -0.921477
vt 1.216797 -0.581055
vn 0.868933 0.494914 0.003819
v -1.522273 0.395189 -0.914870
vt 1.211914 -0.589844
vn 0.678862 0.633598 -0.371080
v -1.543272 0.382347 -0.901737
vt 1.910156 -0.233398
vn -0.867142 0.285602 -0.408040
v -1.550107 0.381128 -0.901137
vt 1.965820 -0.233398
vn -0.527048 0.421587 -0.737893
v -1.545634 0.375818 -0.903674
vt 1.937500 -0.281250
vn -0.876867 0.334965 -0.344823
v -1.552469 0.374599 -0.902043
vt 1.994141 -0.281250
vn -0.871113 0.402720 -0.281031
v -1.547996 0.369289 -0.904104
vt 1.965820 -0.330078
vn -0.875325 0.387933 -0.288641
v -1.541160 0.370508 -0.905252
vt 1.910156 -0.330078
vn -0.879115 0.341825 -0.332133
v -1.538799 0.377037 -0.904527
vt 1.881836 -0.281250
vn -0.876955 0.293959 -0.380183
v -1.524054 0.426273 -0.901380
vt 1.910156 -0.233398
vn -0.894284 0.169403 -0.414195
v -1.530889 0.425054 -0.901421
vt 1.965820 -0.233398
vn -0.868323 0.230104 -0.439394
v -1.526416 0.419744 -0.904129
vt 1.937500 -0.281250
vn -0.871858 0.196024 -0.448820
v -1.533251 0.418525 -0.902761
vt 1.994141 -0.281250
vn -0.873594 0.351344 -0.336736
v -1.528778 0.413215 -0.905799
vt 1.965820 -0.330078
vn -0.871322 0.257762 -0.417560
v -1.521942 0.414434 -0.905986
vt 1.910156 -0.330078
vn -0.894367 0.192329 -0.403878
v -1.519580 0.420963 -0.903358
vt 1.881836 -0.281250
vn -0.908965 0.170122 -0.380580
v -1.522189 0.244363 -0.903674
vt 1.937500 -0.281250
vn -0.868900 0.418158 -0.264871
v -1.524551 0.237834 -0.901137
vt 1.965820 -0.330078
vn -0.866673 0.419326 -0.270265
v -1.517716 0.239053 -0.901737
vt 1.910156 -0.330078
vn -0.872168 0.375815 -0.313187
v -1.529024 0.243144 -0.902043
vt 1.994141 -0.281250
vn -0.857204 0.470763 -0.208767
v -1.526663 0.249673 -0.904104
vt 1.965820 -0.233398
vn -0.865642 0.444107 -0.231153
v -1.519827 0.250892 -0.905252
vt 1.910156 -0.233398
vn -0.874372 0.394838 -0.282092
v -1.515354 0.245582 -0.904527
vt 1.881836 -0.281250
vn -0.872998 0.389007 -0.294189
v -1.488971 0.209789 -0.904129
vt 1.937500 -0.281250
vn -0.874318 0.303204 -0.378993
v -1.491333 0.203260 -0.901421
vt 1.965820 -0.330078
vn -0.872614 0.366378 -0.322976
v -1.484497 0.204479 -0.901380
vt 1.910156 -0.330078
vn -0.858913 0.192018 -0.474760
v -1.495806 0.208570 -0.902761
vt 1.994141 -0.281250
vn -0.860074 0.452643 -0.235345
v -1.493444 0.215099 -0.905799
vt 1.965820 -0.233398
vn -0.872168 0.375815 -0.313187
v -1.486609 0.216318 -0.905986
vt 1.910156 -0.233398
vn -0.870389 0.220202 -0.440380
v -1.482135 0.211008 -0.903358
vt 1.881836 -0.281250
vn -0.878999 0.190837 -0.436970
usemtl Brakes
f 3/3/3 2/2/2 1/1/1
f 4/4/4 2/2/2 3/3/3
f 7/7/7 6/6/6 5/5/5
f 8/8/8 6/6/6 7/7/7
f 11/11/11 10/10/10 9/9/9
f 12/12/12 10/10/10 11/11/11
f 15/15/15 14/14/14 13/13/13
f 16/16/16 14/14/14 15/15/15
f 19/19/19 18/18/18 17/17/17
f 20/20/20 18/18/18 19/19/19
f 23/23/23 22/22/22 21/21/21
f 24/24/24 22/22/22 23/23/23
f 12/12/12 25/25/25 10/10/10
f 26/26/26 25/25/25 12/12/12
f 29/29/29 28/28/28 27/27/27
f 30/30/30 28/28/28 29/29/29
f 33/33/33 32/32/32 31/31/31
f 34/34/34 32/32/32 33/33/33
f 26/26/26 13/13/13 25/25/25
f 15/15/15 13/13/13 26/26/26
f 37/37/37 36/36/36 35/35/35
f 38/38/38 36/36/36 37/37/37
f 41/41/41 40/40/40 39/39/39
f 42/42/42 40/40/40 41/41/41
f 45/45/45 44/44/44 43/43/43
f 46/46/46 40/40/40 42/42/42
f 47/47/47 40/40/40 46/46/46
f 38/38/38 48/48/48 36/36/36
f 49/49/49 48/48/48 38/38/38
f 52/52/52 51/51/51 50/50/50
f 53/53/53 51/51/51 52/52/52
f 50/50/50 49/49/49 52/52/52
f 48/48/48 49/49/49 50/50/50
f 56/56/56 55/55/55 54/54/54
f 57/57/57 55/55/55 56/56/56
f 59/59/59 54/54/54 58/58/58
f 56/56/56 54/54/54 59/59/59
f 62/62/62 61/61/61 60/60/60
f 63/63/63 61/61/61 62/62/62
f 66/66/66 65/65/65 64/64/64
f 67/67/67 65/65/65 66/66/66
f 45/45/45 68/68/68 44/44/44
f 69/69/69 68/68/68 45/45/45
f 72/72/72 71/71/71 70/70/70
f 73/73/73 71/71/71 72/72/72
f 55/55/55 75/75/75 74/74/74
f 57/57/57 75/75/75 55/55/55
f 39/39/39 76/76/76 41/41/41
f 66/66/66 77/77/77 67/67/67
f 78/78/78 77/77/77 66/66/66
f 35/35/35 44/44/44 37/37/37
f 43/43/43 44/44/44 35/35/35
f 59/59/59 64/64/64 65/65/65
f 58/58/58 64/64/64 59/59/59
f 81/81/81 80/80/80 79/79/79
f 82/82/82 80/80/80 81/81/81
f 85/85/85 84/84/84 83/83/83
f 87/87/87 79/79/79 86/86/86
f 81/81/81 79/79/79 87/87/87
f 53/53/53 88/88/88 51/51/51
f 89/89/89 88/88/88 53/53/53
f 89/89/89 86/86/86 88/88/88
f 87/87/87 86/86/86 89/89/89
f 92/92/92 91/91/91 90/90/90
f 93/93/93 91/91/91 92/92/92
f 93/93/93 94/94/94 91/91/91
f 95/95/95 94/94/94 93/93/93
f 98/98/98 97/97/97 96/96/96
f 99/99/99 97/97/97 98/98/98
f 102/102/102 101/101/101 100/100/100
f 103/103/103 101/101/101 102/102/102
f 83/83/83 105/105/105 104/104/104
f 84/84/84 105/105/105 83/83/83
f 107/107/107 105/105/105 106/106/106
f 104/104/104 105/105/105 107/107/107
f 90/90/90 108/108/108 92/92/92
f 109/109/109 108/108/108 90/90/90
f 46/46/46 110/110/110 47/47/47
f 78/78/78 100/100/100 77/77/77
f 102/102/102 100/100/100 78/78/78
f 84/84/84 80/80/80 82/82/82
f 85/85/85 80/80/80 84/84/84
f 101/101/101 94/94/94 95/95/95
f 103/103/103 94/94/94 101/101/101
f 113/113/113 112/112/112 111/111/111
f 114/114/114 112/112/112 113/113/113
f 115/115/115 2/2/2 4/4/4
f 111/111/111 2/2/2 115/115/115
f 112/112/112 2/2/2 111/111/111
f 116/116/116 54/54/54 55/55/55
f 117/117/117 54/54/54 116/116/116
f 118/118/118 10/10/10 25/25/25
f 119/119/119 10/10/10 118/118/118
f 10/10/10 120/120/120 9/9/9
f 119/119/119 120/120/120 10/10/10
f 123/123/123 122/122/122 121/121/121
f 124/124/124 122/122/122 123/123/123
f 126/126/126 28/28/28 125/125/125
f 27/27/27 28/28/28 126/126/126
f 58/58/58 127/127/127 64/64/64
f 128/128/128 127/127/127 58/58/58
f 117/117/117 58/58/58 54/54/54
f 128/128/128 58/58/58 117/117/117
f 130/130/130 113/113/113 129/129/129
f 114/114/114 113/113/113 130/130/130
f 133/133/133 132/132/132 131/131/131
f 134/134/134 132/132/132 133/133/133
f 136/136/136 133/133/133 135/135/135
f 134/134/134 133/133/133 136/136/136
f 135/135/135 137/137/137 136/136/136
f 138/138/138 137/137/137 135/135/135
f 138/138/138 125/125/125 137/137/137
f 126/126/126 125/125/125 138/138/138
f 141/141/141 140/140/140 139/139/139
f 142/142/142 140/140/140 141/141/141
f 17/17/17 144/144/144 143/143/143
f 18/18/18 144/144/144 17/17/17
f 147/147/147 146/146/146 145/145/145
f 148/148/148 146/146/146 147/147/147
f 149/149/149 130/130/130 129/129/129
f 150/150/150 130/130/130 149/149/149
f 55/55/55 74/74/74 116/116/116
f 121/121/121 152/152/152 151/151/151
f 122/122/122 152/152/152 121/121/121
f 149/149/149 153/153/153 150/150/150
f 147/147/147 154/154/154 148/148/148
f 155/155/155 154/154/154 147/147/147
f 158/158/158 157/157/157 156/156/156
f 159/159/159 157/157/157 158/158/158
f 154/154/154 140/140/140 142/142/142
f 155/155/155 140/140/140 154/154/154
f 162/162/162 161/161/161 160/160/160
f 163/163/163 161/161/161 162/162/162
f 164/164/164 162/162/162 160/160/160
f 6/6/6 162/162/162 164/164/164
f 8/8/8 162/162/162 6/6/6
f 165/165/165 90/90/90 91/91/91
f 166/166/166 90/90/90 165/165/165
f 13/13/13 118/118/118 25/25/25
f 167/167/167 118/118/118 13/13/13
f 168/168/168 13/13/13 14/14/14
f 167/167/167 13/13/13 168/168/168
f 169/169/169 124/124/124 123/123/123
f 170/170/170 124/124/124 169/169/169
f 171/171/171 31/31/31 32/32/32
f 172/172/172 31/31/31 171/171/171
f 173/173/173 94/94/94 103/103/103
f 174/174/174 94/94/94 173/173/173
f 174/174/174 91/91/91 94/94/94
f 165/165/165 91/91/91 174/174/174
f 163/163/163 175/175/175 161/161/161
f 176/176/176 175/175/175 163/163/163
f 179/179/179 178/178/178 177/177/177
f 180/180/180 178/178/178 179/179/179
f 182/182/182 180/180/180 181/181/181
f 178/178/178 180/180/180 182/182/182
f 182/182/182 184/184/184 183/183/183
f 181/181/181 184/184/184 182/182/182
f 183/183/183 172/172/172 171/171/171
f 184/184/184 172/172/172 183/183/183
f 186/186/186 22/22/22 185/185/185
f 21/21/21 22/22/22 186/186/186
f 175/175/175 188/188/188 187/187/187
f 176/176/176 188/188/188 175/175/175
f 166/166/166 109/109/109 90/90/90
f 170/170/170 190/190/190 189/189/189
f 169/169/169 190/190/190 170/170/170
f 187/187/187 188/188/188 191/191/191
f 159/159/159 139/139/139 157/157/157
f 141/141/141 139/139/139 159/159/159
f 194/194/194 193/193/193 192/192/192
f 195/195/195 193/193/193 194/194/194
f 198/198/198 197/197/197 196/196/196
f 201/201/201 200/200/200 199/199/199
f 202/202/202 200/200/200 201/201/201
f 205/205/205 204/204/204 203/203/203
f 206/206/206 204/204/204 205/205/205
f 194/194/194 192/192/192 207/207/207
f 210/210/210 209/209/209 208/208/208
f 211/211/211 209/209/209 210/210/210
f 213/213/213 204/204/204 212/212/212
f 203/203/203 204/204/204 213/213/213
f 197/197/197 215/215/215 214/214/214
f 198/198/198 215/215/215 197/197/197
f 217/217/217 212/212/212 216/216/216
f 213/213/213 212/212/212 217/217/217
f 219/219/219 208/208/208 218/218/218
f 210/210/210 208/208/208 219/219/219
f 195/195/195 196/196/196 193/193/193
f 222/222/222 221/221/221 220/220/220
f 223/223/223 221/221/221 222/222/222
f 215/215/215 220/220/220 214/214/214
f 222/222/222 220/220/220 215/215/215
f 199/199/199 205/205/205 201/201/201
f 206/206/206 205/205/205 199/199/199
f 209/209/209 200/200/200 202/202/202
f 209/209/209 211/211/211 200/200/200
f 226/226/226 225/225/225 224/224/224
f 227/227/227 225/225/225 226/226/226
f 228/228/228 226/226/226 224/224/224
f 229/229/229 226/226/226 228/228/228
f 231/231/231 230/230/230 228/228/228
f 232/232/232 230/230/230 231/231/231
f 233/233/233 228/228/228 224/224/224
f 231/231/231 228/228/228 233/233/233
f 224/224/224 234/234/234 233/233/233
f 235/235/235 234/234/234 224/224/224
f 236/236/236 227/227/227 226/226/226
f 237/237/237 227/227/227 236/236/236
f 238/238/238 226/226/226 229/229/229
f 236/236/236 226/226/226 238/238/238
f 240/240/240 229/229/229 239/239/239
f 238/238/238 229/229/229 240/240/240
f 230/230/230 229/229/229 228/228/228
f 239/239/239 229/229/229 230/230/230
f 241/241/241 238/238/238 240/240/240
f 242/242/242 238/238/238 241/241/241
f 242/242/242 236/236/236 238/238/238
f 243/243/243 236/236/236 242/242/242
f 243/243/243 237/237/237 236/236/236
f 244/244/244 237/237/237 243/243/243
f 231/231/231 245/245/245 232/232/232
f 246/246/246 245/245/245 231/231/231
f 233/233/233 246/246/246 231/231/231
f 247/247/247 246/246/246 233/233/233
f 233/233/233 248/248/248 247/247/247
f 234/234/234 248/248/248 233/233/233
f 234/234/234 249/249/249 248/248/248
f 250/250/250 249/249/249 234/234/234
f 248/248/248 252/252/252 251/251/251
f 249/249/249 252/252/252 248/248/248
f 247/247/247 251/251/251 253/253/253
f 248/248/248 251/251/251 247/247/247
f 253/253/253 246/246/246 247/247/247
f 254/254/254 246/246/246 253/253/253
f 254/254/254 245/245/245 246/246/246
f 255/255/255 245/245/245 254/254/254
f 237/237/237 257/257/257 256/256/256
f 244/244/244 257/257/257 237/237/237
f 258/258/258 257/257/257 244/244/244
f 235/235/235 250/250/250 234/234/234
f 259/259/259 250/250/250 235/235/235
f 262/262/262 261/261/261 260/260/260
f 263/263/263 261/261/261 262/262/262
f 263/263/263 264/264/264 261/261/261
f 265/265/265 264/264/264 263/263/263
f 265/265/265 266/266/266 264/264/264
f 267/267/267 266/266/266 265/265/265
f 268/268/268 250/250/250 259/259/259
f 271/271/271 270/270/270 269/269/269
f 272/272/272 270/270/270 271/271/271
f 273/273/273 270/270/270 272/272/272
f 274/274/274 270/270/270 273/273/273
f 268/268/268 249/249/249 250/250/250
f 275/275/275 256/256/256 257/257/257
f 278/278/278 277/277/277 276/276/276
f 279/279/279 277/277/277 278/278/278
f 280/280/280 278/278/278 276/276/276
f 281/281/281 278/278/278 280/280/280
f 280/280/280 276/276/276 282/282/282
f 283/283/283 281/281/281 280/280/280
f 284/284/284 281/281/281 283/283/283
f 283/283/283 285/285/285 284/284/284
f 286/286/286 285/285/285 283/283/283
f 289/289/289 288/288/288 287/287/287
f 290/290/290 288/288/288 289/289/289
f 292/292/292 287/287/287 291/291/291
f 289/289/289 287/287/287 292/292/292
f 294/294/294 291/291/291 293/293/293
f 292/292/292 291/291/291 294/294/294
f 295/295/295 286/286/286 283/283/283
f 296/296/296 286/286/286 295/295/295
f 283/283/283 282/282/282 295/295/295
f 280/280/280 282/282/282 283/283/283
f 297/297/297 294/294/294 293/293/293
f 298/298/298 294/294/294 297/297/297
f 299/299/299 249/249/249 268/268/268
f 299/299/299 252/252/252 249/249/249
f 297/297/297 300/300/300 298/298/298
f 301/301/301 300/300/300 297/297/297
f 300/300/300 301/301/301 302/302/302
f 303/303/303 286/286/286 296/296/296
f 304/304/304 286/286/286 303/303/303
f 304/304/304 285/285/285 286/286/286
f 305/305/305 257/257/257 258/258/258
f 275/275/275 307/307/307 306/306/306
f 305/305/305 307/307/307 275/275/275
f 301/301/301 308/308/308 302/302/302
f 309/309/309 308/308/308 301/301/301
f 309/309/309 310/310/310 308/308/308
f 304/304/304 303/303/303 311/311/311
f 310/310/310 304/304/304 311/311/311
f 309/309/309 304/304/304 310/310/310
f 257/257/257 305/305/305 275/275/275
f 314/314/314 313/313/313 312/312/312
f 315/315/315 222/222/222 215/215/215
f 316/316/316 222/222/222 315/315/315
f 315/315/315 215/215/215 198/198/198
f 195/195/195 198/198/198 196/196/196
f 315/315/315 198/198/198 195/195/195
f 316/316/316 223/223/223 222/222/222
f 319/319/319 318/318/318 317/317/317
f 320/320/320 318/318/318 319/319/319
f 318/318/318 322/322/322 321/321/321
f 320/320/320 322/322/322 318/318/318
f 273/273/273 317/317/317 274/274/274
f 319/319/319 317/317/317 273/273/273
f 325/325/325 324/324/324 323/323/323
f 326/326/326 324/324/324 325/325/325
f 327/327/327 324/324/324 326/326/326
f 328/328/328 324/324/324 327/327/327
f 327/327/327 329/329/329 328/328/328
f 330/330/330 329/329/329 327/327/327
f 333/333/333 332/332/332 331/331/331
f 334/334/334 332/332/332 333/333/333
f 325/325/325 336/336/336 335/335/335
f 323/323/323 336/336/336 325/325/325
f 335/335/335 333/333/333 331/331/331
f 336/336/336 333/333/333 335/335/335
f 225/225/225 235/235/235 224/224/224
f 312/312/312 338/338/338 337/337/337
f 313/313/313 338/338/338 312/312/312
f 339/339/339 337/337/337 338/338/338
f 307/307/307 340/340/340 306/306/306
f 194/194/194 342/342/342 341/341/341
f 343/343/343 342/342/342 194/194/194
f 346/346/346 345/345/345 344/344/344
f 349/349/349 348/348/348 347/347/347
f 350/350/350 348/348/348 349/349/349
f 353/353/353 352/352/352 351/351/351
f 354/354/354 352/352/352 353/353/353
f 207/207/207 343/343/343 194/194/194
f 357/357/357 356/356/356 355/355/355
f 358/358/358 356/356/356 357/357/357
f 359/359/359 352/352/352 354/354/354
f 360/360/360 352/352/352 359/359/359
f 345/345/345 361/361/361 344/344/344
f 362/362/362 361/361/361 345/345/345
f 363/363/363 360/360/360 359/359/359
f 364/364/364 360/360/360 363/363/363
f 219/219/219 358/358/358 357/357/357
f 218/218/218 358/358/358 219/219/219
f 342/342/342 346/346/346 341/341/341
f 365/365/365 364/364/364 363/363/363
f 366/366/366 364/364/364 365/365/365
f 361/361/361 366/366/366 365/365/365
f 362/362/362 366/366/366 361/361/361
f 350/350/350 353/353/353 351/351/351
f 349/349/349 353/353/353 350/350/350
f 347/347/347 348/348/348 356/356/356
f 348/348/348 355/355/355 356/356/356
f 369/369/369 368/368/368 367/367/367
f 370/370/370 368/368/368 369/369/369
f 372/372/372 369/369/369 371/371/371
f 370/370/370 369/369/369 372/372/372
f 373/373/373 230/230/230 232/232/232
f 372/372/372 230/230/230 373/373/373
f 374/374/374 372/372/372 373/373/373
f 370/370/370 372/372/372 374/374/374
f 370/370/370 376/376/376 375/375/375
f 374/374/374 376/376/376 370/370/370
f 378/378/378 367/367/367 377/377/377
f 369/369/369 367/367/367 378/378/378
f 379/379/379 369/369/369 378/378/378
f 371/371/371 369/369/369 379/379/379
f 240/240/240 371/371/371 379/379/379
f 239/239/239 371/371/371 240/240/240
f 230/230/230 371/371/371 239/239/239
f 372/372/372 371/371/371 230/230/230
f 241/241/241 379/379/379 380/380/380
f 240/240/240 379/379/379 241/241/241
f 380/380/380 378/378/378 381/381/381
f 379/379/379 378/378/378 380/380/380
f 381/381/381 377/377/377 382/382/382
f 378/378/378 377/377/377 381/381/381
f 373/373/373 245/245/245 383/383/383
f 232/232/232 245/245/245 373/373/373
f 374/374/374 383/383/383 384/384/384
f 373/373/373 383/383/383 374/374/374
f 374/374/374 385/385/385 376/376/376
f 384/384/384 385/385/385 374/374/374
f 376/376/376 387/387/387 386/386/386
f 385/385/385 387/387/387 376/376/376
f 385/385/385 388/388/388 387/387/387
f 389/389/389 388/388/388 385/385/385
f 384/384/384 389/389/389 385/385/385
f 390/390/390 389/389/389 384/384/384
f 390/390/390 383/383/383 391/391/391
f 384/384/384 383/383/383 390/390/390
f 391/391/391 245/245/245 255/255/255
f 383/383/383 245/245/245 391/391/391
f 382/382/382 393/393/393 392/392/392
f 377/377/377 393/393/393 382/382/382
f 394/394/394 393/393/393 377/377/377
f 375/375/375 386/386/386 395/395/395
f 376/376/376 386/386/386 375/375/375
f 398/398/398 397/397/397 396/396/396
f 399/399/399 397/397/397 398/398/398
f 396/396/396 401/401/401 400/400/400
f 397/397/397 401/401/401 396/396/396
f 400/400/400 403/403/403 402/402/402
f 401/401/401 403/403/403 400/400/400
f 395/395/395 386/386/386 404/404/404
f 407/407/407 406/406/406 405/405/405
f 408/408/408 406/406/406 407/407/407
f 410/410/410 406/406/406 409/409/409
f 405/405/405 406/406/406 410/410/410
f 386/386/386 387/387/387 411/411/411
f 393/393/393 394/394/394 412/412/412
f 413/413/413 277/277/277 279/279/279
f 414/414/414 277/277/277 413/413/413
f 416/416/416 413/413/413 415/415/415
f 414/414/414 413/413/413 416/416/416
f 417/417/417 414/414/414 416/416/416
f 419/419/419 415/415/415 418/418/418
f 416/416/416 415/415/415 419/419/419
f 419/419/419 421/421/421 420/420/420
f 418/418/418 421/421/421 419/419/419
f 422/422/422 288/288/288 290/290/290
f 423/423/423 288/288/288 422/422/422
f 424/424/424 423/423/423 422/422/422
f 425/425/425 423/423/423 424/424/424
f 426/426/426 425/425/425 424/424/424
f 427/427/427 425/425/425 426/426/426
f 429/429/429 420/420/420 428/428/428
f 419/419/419 420/420/420 429/429/429
f 419/419/419 417/417/417 416/416/416
f 429/429/429 417/417/417 419/419/419
f 431/431/431 426/426/426 430/430/430
f 427/427/427 426/426/426 431/431/431
f 411/411/411 387/387/387 432/432/432
f 387/387/387 388/388/388 432/432/432
f 431/431/431 434/434/434 433/433/433
f 430/430/430 434/434/434 431/431/431
f 435/435/435 433/433/433 434/434/434
f 437/437/437 420/420/420 436/436/436
f 428/428/428 420/420/420 437/437/437
f 420/420/420 421/421/421 436/436/436
f 392/392/392 393/393/393 438/438/438
f 412/412/412 439/439/439 438/438/438
f 440/440/440 439/439/439 412/412/412
f 433/433/433 442/442/442 441/441/441
f 435/435/435 442/442/442 433/433/433
f 442/442/442 443/443/443 441/441/441
f 444/444/444 437/437/437 436/436/436
f 443/443/443 436/436/436 441/441/441
f 444/444/444 436/436/436 443/443/443
f 412/412/412 438/438/438 393/393/393
f 447/447/447 446/446/446 445/445/445
f 449/449/449 365/365/365 448/448/448
f 361/361/361 365/365/365 449/449/449
f 344/344/344 361/361/361 449/449/449
f 341/341/341 344/344/344 449/449/449
f 346/346/346 344/344/344 341/341/341
f 365/365/365 363/363/363 448/448/448
f 452/452/452 451/451/451 450/450/450
f 453/453/453 451/451/451 452/452/452
f 451/451/451 454/454/454 450/450/450
f 455/455/455 454/454/454 451/451/451
f 456/456/456 453/453/453 452/452/452
f 457/457/457 453/453/453 456/456/456
f 460/460/460 459/459/459 458/458/458
f 461/461/461 459/459/459 460/460/460
f 463/463/463 459/459/459 462/462/462
f 458/458/458 459/459/459 463/463/463
f 463/463/463 465/465/465 464/464/464
f 462/462/462 465/465/465 463/463/463
f 466/466/466 464/464/464 465/465/465
f 467/467/467 464/464/464 466/466/466
f 470/470/470 469/469/469 468/468/468
f 471/471/471 469/469/469 470/470/470
f 471/471/471 466/466/466 469/469/469
f 467/467/467 466/466/466 471/471/471
f 370/370/370 375/375/375 368/368/368
f 447/447/447 472/472/472 446/446/446
f 473/473/473 472/472/472 447/447/447
f 472/472/472 473/473/473 474/474/474
f 411/411/411 432/432/432 475/475/475
f 408/408/408 454/454/454 455/455/455
f 407/407/407 454/454/454 408/408/408
f 478/478/478 477/477/477 476/476/476
f 479/479/479 477/477/477 478/478/478
f 482/482/482 481/481/481 480/480/480
f 482/482/482 483/483/483 481/481/481
f 482/482/482 484/484/484 483/483/483
f 482/482/482 485/485/485 484/484/484
f 482/482/482 486/486/486 485/485/485
f 482/482/482 480/480/480 486/486/486
f 489/489/489 488/488/488 487/487/487
f 489/489/489 490/490/490 488/488/488
f 489/489/489 491/491/491 490/490/490
f 489/489/489 492/492/492 491/491/491
f 489/489/489 493/493/493 492/492/492
f 489/489/489 487/487/487 493/493/493
f 496/496/496 495/495/495 494/494/494
f 495/495/495 497/497/497 494/494/494
f 497/497/497 498/498/498 494/494/494
f 498/498/498 499/499/499 494/494/494
f 499/499/499 500/500/500 494/494/494
f 500/500/500 496/496/496 494/494/494
f 503/503/503 502/502/502 501/501/501
f 502/502/502 504/504/504 501/501/501
f 504/504/504 505/505/505 501/501/501
f 505/505/505 506/506/506 501/501/501
f 506/506/506 507/507/507 501/501/501
f 507/507/507 503/503/503 501/501/501
