# Exported from Godot Engine
mtllib Defrost_Rear.mtl
o Defrost_Rear
v -1.560155 1.252145 0.000000
vt 0.766602 0.500000
vn 0.651769 0.387851 -0.651743
v -1.466434 1.279174 0.000000
vt 0.913086 0.500000
vn 0.660462 0.357324 -0.660386
v -1.559398 1.250348 0.112412
vt 0.767090 0.387207
vn 0.651769 0.387851 -0.651743
v -1.465948 1.277314 0.113245
vt 0.913086 0.386230
vn 0.660462 0.357324 -0.660386
v -1.640123 1.227488 0.000000
vt 0.641113 0.500000
vn 0.645383 0.408732 -0.645305
v -1.638963 1.225810 0.111724
vt 0.642090 0.387695
vn 0.645383 0.408732 -0.645305
v -1.464045 1.271823 0.227046
vt 0.914062 0.271973
vn 0.660462 0.357324 -0.660386
v -1.557234 1.244885 0.225433
vt 0.768555 0.273438
vn 0.651769 0.387851 -0.651743
v -1.636597 1.220370 0.223916
vt 0.644043 0.274414
vn 0.645383 0.408732 -0.645305
v -1.461023 1.262453 0.340620
vt 0.915527 0.157715
vn 0.660602 0.375950 -0.649820
v -1.553878 1.235491 0.338257
vt 0.770508 0.159180
vn 0.651769 0.387851 -0.651743
v -1.632975 1.210952 0.335945
vt 0.645996 0.161133
vn 0.642545 0.417659 -0.642415
v -1.706163 1.170925 0.444679
vt 0.524902 0.049805
vn 0.635697 0.438039 -0.635619
v -1.711440 1.184686 0.334717
vt 0.521973 0.162109
vn 0.636708 0.435091 -0.636630
v -1.627917 1.197302 0.447359
vt 0.648926 0.047852
vn 0.642545 0.417659 -0.642415
v -1.717929 1.199642 0.111491
vt 0.517578 0.387695
vn 0.639613 0.426409 -0.639587
v -1.801261 1.170640 0.109106
vt 0.385010 0.390137
vn 0.632694 0.446648 -0.632616
v -1.719245 1.201296 0.000000
vt 0.516113 0.500000
vn 0.639613 0.426409 -0.639587
v -1.804590 1.171523 0.000000
vt 0.380615 0.500244
vn 0.632694 0.446648 -0.632616
v -1.890172 1.137813 0.108108
vt 0.242920 0.390625
vn 0.622387 0.474727 -0.622309
v -1.892145 1.139165 0.000000
vt 0.240601 0.500244
vn 0.622387 0.474727 -0.622309
v -1.846412 1.154125 0.108271
vt 0.312988 0.390625
vn 0.626660 0.463421 -0.626529
v -1.847933 1.155633 0.000000
vt 0.311279 0.500244
vn 0.626660 0.463421 -0.626529
v -1.715356 1.194189 0.223167
vt 0.519531 0.274902
vn 0.636708 0.435091 -0.636630
v -1.795796 1.166126 0.220881
vt 0.391602 0.276855
vn 0.632694 0.446648 -0.632616
v -1.884208 1.133398 0.219643
vt 0.250000 0.277832
vn 0.622387 0.474727 -0.622309
v -1.842064 1.149224 0.219357
vt 0.317627 0.278320
vn 0.626660 0.463421 -0.626529
v -1.788201 1.157819 0.331483
vt 0.399902 0.164551
vn 0.629660 0.455071 -0.629634
v -1.778478 1.145658 0.438990
vt 0.409668 0.055176
vn 0.631881 0.463407 -0.621273
v -1.873066 1.126954 0.324409
vt 0.264160 0.170898
vn 0.624509 0.482788 -0.613925
v -1.834005 1.141362 0.327018
vt 0.326660 0.168945
vn 0.627669 0.474714 -0.616991
v -1.937876 1.099192 0.340624
vt 0.158691 0.153809
vn 0.621338 0.490782 -0.610796
v -1.966715 1.100176 0.231536
vt 0.116760 0.264648
vn 0.621338 0.490782 -0.610796
v -1.984862 1.103404 0.000000
vt 0.091370 0.500488
vn 0.619274 0.482801 -0.619195
v -1.981575 1.102253 0.112646
vt 0.095703 0.385742
vn 0.619274 0.482801 -0.619195
v -1.868157 1.115874 0.411755
vt 0.267090 0.082031
vn 0.624509 0.482788 -0.613925
v -1.918407 1.101294 0.379491
vt 0.188110 0.114258
vn 0.616839 0.501863 -0.606336
v -1.456649 1.249052 0.453448
vt 0.917969 0.042969
vn 0.657933 0.385165 -0.647126
v -1.549144 1.221984 0.450347
vt 0.772949 0.045410
vn 0.651608 0.405933 -0.640801
v -1.828944 1.128497 0.427541
vt 0.329346 0.066406
vn 0.624509 0.482788 -0.613925
v -1.413146 1.292523 0.000000
vt 0.995117 0.500000
vn 0.668496 0.326077 -0.668421
v -1.412842 1.290634 0.113841
vt 0.995117 0.385742
vn 0.668496 0.326077 -0.668421
v -1.412068 1.284896 0.227905
vt 0.994629 0.271484
vn 0.666088 0.335792 -0.666011
v -1.410026 1.275357 0.341728
vt 0.994629 0.156738
vn 0.666088 0.335792 -0.666011
v -1.425551 1.258459 0.442223
vt 0.966797 0.054688
vn 0.668992 0.345291 -0.658197
v -1.417680 1.262984 0.422445
vt 0.979980 0.075195
vn 0.668992 0.345291 -0.658197
v -1.437848 1.252805 0.459650
vt 0.947266 0.037109
vn 0.668496 0.326077 -0.668421
v -1.455583 1.245524 0.474929
vt 0.918457 0.021484
vn 0.660602 0.375950 -0.649820
v -1.494283 1.231348 0.489053
vt 0.856934 0.006348
vn 0.654383 0.396944 -0.643598
v -1.546821 1.215246 0.491362
vt 0.774414 0.003418
vn 0.648743 0.414805 -0.638020
v -1.625400 1.190487 0.488176
vt 0.649902 0.005859
vn 0.644955 0.426396 -0.634207
v -1.703502 1.164266 0.483641
vt 0.525879 0.009766
vn 0.634978 0.455058 -0.624279
v -1.773895 1.139476 0.478429
vt 0.413818 0.014648
vn 0.628815 0.471624 -0.618194
v -1.817728 1.123944 0.471405
vt 0.343750 0.020996
vn 0.624509 0.482788 -0.613925
v -1.852895 1.112031 0.461402
vt 0.287842 0.030762
vn 0.620095 0.493961 -0.609496
v -1.879236 1.103814 0.449529
vt 0.246216 0.042969
vn 0.616839 0.501863 -0.606336
v -1.896018 1.098546 0.441967
vt 0.219604 0.050293
vn 0.618738 0.509583 -0.597903
v -1.938342 1.087498 0.409038
vt 0.153442 0.083496
vn 0.615469 0.517205 -0.594725
v -1.969295 1.081930 0.366634
vt 0.106018 0.126465
vn 0.612196 0.524740 -0.591493
v -1.990138 1.080243 0.320718
vt 0.074890 0.173340
vn 0.616839 0.501863 -0.606336
v -2.011055 1.079648 0.254505
vt 0.044006 0.240723
vn 0.616839 0.501863 -0.606336
v -2.026016 1.079873 0.181898
vt 0.022079 0.314941
vn 0.614852 0.493975 -0.614773
v -2.035147 1.081107 0.099611
vt 0.009155 0.398926
vn 0.614852 0.493975 -0.614773
v -2.039117 1.081556 0.000000
vt 0.003635 0.500488
vn 0.614852 0.493975 -0.614773
v -1.472359 1.238946 0.483418
vt 0.891602 0.012207
vn 0.654383 0.396944 -0.643598
v -1.410512 1.271595 0.369963
vt 0.992676 0.128418
vn 0.666088 0.335792 -0.666011
v -1.465948 1.277314 -0.113245
vt 0.913574 0.613281
vn 0.660462 0.357324 -0.660386
v -1.559398 1.250348 -0.112412
vt 0.767578 0.612793
vn 0.651769 0.387851 -0.651743
v -1.638963 1.225810 -0.111724
vt 0.642578 0.612549
vn 0.645383 0.408732 -0.645305
v -1.557234 1.244885 -0.225432
vt 0.769043 0.726562
vn 0.651769 0.387851 -0.651743
v -1.464045 1.271823 -0.227046
vt 0.915039 0.727539
vn 0.660462 0.357324 -0.660386
v -1.636597 1.220370 -0.223916
vt 0.644531 0.725586
vn 0.645383 0.408732 -0.645305
v -1.553878 1.235491 -0.338257
vt 0.771484 0.840576
vn 0.647256 0.385166 -0.657805
v -1.461023 1.262453 -0.340620
vt 0.916992 0.842041
vn 0.653244 0.364128 -0.663839
v -1.632975 1.210952 -0.335945
vt 0.647461 0.838867
vn 0.638098 0.414805 -0.648666
v -1.711440 1.184686 -0.334717
vt 0.522949 0.838257
vn 0.632439 0.432186 -0.642835
v -1.627917 1.197302 -0.447359
vt 0.650391 0.952148
vn 0.638098 0.414805 -0.648666
v -1.706163 1.170925 -0.444679
vt 0.526367 0.950226
vn 0.631373 0.435079 -0.641930
v -1.801261 1.170640 -0.109106
vt 0.385498 0.610596
vn 0.632694 0.446648 -0.632616
v -1.717929 1.199642 -0.111490
vt 0.517578 0.612549
vn 0.639613 0.426409 -0.639587
v -1.846412 1.154125 -0.108270
vt 0.313232 0.609863
vn 0.626660 0.463421 -0.626529
v -1.890172 1.137813 -0.108108
vt 0.243286 0.609863
vn 0.622387 0.474727 -0.622309
v -1.795796 1.166126 -0.220880
vt 0.392334 0.723633
vn 0.632694 0.446648 -0.632616
v -1.715356 1.194189 -0.223167
vt 0.520020 0.725342
vn 0.636708 0.435091 -0.636630
v -1.842064 1.149224 -0.219356
vt 0.318359 0.722412
vn 0.626660 0.463421 -0.626529
v -1.884208 1.133398 -0.219643
vt 0.250732 0.723145
vn 0.618325 0.471625 -0.628684
v -1.788201 1.157819 -0.331482
vt 0.400879 0.835693
vn 0.625517 0.452065 -0.635897
v -1.778478 1.145658 -0.438989
vt 0.411133 0.945251
vn 0.625517 0.452065 -0.635897
v -1.834005 1.141362 -0.327017
vt 0.327637 0.831665
vn 0.622528 0.460364 -0.632870
v -1.873066 1.126954 -0.324409
vt 0.265137 0.829590
vn 0.618325 0.471625 -0.628684
v -1.966715 1.100176 -0.231536
vt 0.117554 0.736084
vn 0.615229 0.479707 -0.625599
v -1.937876 1.099192 -0.340624
vt 0.159912 0.847046
vn 0.615229 0.479707 -0.625599
v -1.981575 1.102253 -0.112646
vt 0.096069 0.614990
vn 0.619274 0.482801 -0.619195
v -1.918407 1.101294 -0.379491
vt 0.189331 0.886475
vn 0.609981 0.479669 -0.630746
v -1.868157 1.115874 -0.411754
vt 0.268555 0.918701
vn 0.618325 0.471625 -0.628684
v -1.549144 1.221984 -0.450346
vt 0.774902 0.954376
vn 0.644564 0.394213 -0.655083
v -1.456649 1.249052 -0.453448
vt 0.919434 0.956390
vn 0.650649 0.373335 -0.661269
v -1.828944 1.128497 -0.427541
vt 0.330811 0.934265
vn 0.618325 0.471625 -0.628684
v -1.412842 1.290634 -0.113841
vt 0.995605 0.613770
vn 0.668496 0.326077 -0.668421
v -1.412068 1.284896 -0.227905
vt 0.995117 0.728027
vn 0.666088 0.335792 -0.666011
v -1.410026 1.275357 -0.341727
vt 0.996094 0.842651
vn 0.661313 0.333352 -0.671968
v -1.417680 1.262984 -0.422445
vt 0.980957 0.924500
vn 0.661313 0.333352 -0.671968
v -1.425551 1.258459 -0.442223
vt 0.968262 0.944672
vn 0.661313 0.333352 -0.671968
v -1.455583 1.245524 -0.474929
vt 0.920410 0.978317
vn 0.653244 0.364128 -0.663839
v -1.437848 1.252805 -0.459649
vt 0.948730 0.962524
vn 0.663638 0.323756 -0.674364
v -1.546821 1.215246 -0.491362
vt 0.775879 0.996353
vn 0.644564 0.394213 -0.655083
v -1.494283 1.231348 -0.489053
vt 0.858398 0.993336
vn 0.647256 0.385166 -0.657805
v -1.625400 1.190488 -0.488176
vt 0.651855 0.993988
vn 0.638098 0.414805 -0.648666
v -1.703502 1.164266 -0.483640
vt 0.527832 0.990211
vn 0.628431 0.443636 -0.638953
v -1.773895 1.139476 -0.478429
vt 0.415283 0.985725
vn 0.622528 0.460364 -0.632870
v -1.817728 1.123944 -0.471405
vt 0.345215 0.979202
vn 0.618325 0.471625 -0.628684
v -1.852895 1.112031 -0.461402
vt 0.289307 0.969528
vn 0.611253 0.476585 -0.631852
v -1.879236 1.103815 -0.449529
vt 0.247681 0.957825
vn 0.606918 0.487616 -0.627599
v -1.896018 1.098546 -0.441967
vt 0.221069 0.950348
vn 0.606918 0.487616 -0.627599
v -1.938342 1.087498 -0.409038
vt 0.154907 0.917358
vn 0.603849 0.495483 -0.624391
v -1.969295 1.081930 -0.366634
vt 0.107239 0.874390
vn 0.600770 0.503212 -0.621171
v -1.990138 1.080243 -0.320718
vt 0.075989 0.827637
vn 0.610875 0.490782 -0.621260
v -2.011055 1.079648 -0.254505
vt 0.044861 0.760132
vn 0.610875 0.490782 -0.621260
v -2.026016 1.079873 -0.181898
vt 0.022690 0.686035
vn 0.610875 0.490782 -0.621260
v -2.035147 1.081107 -0.099611
vt 0.009491 0.602051
vn 0.614852 0.493975 -0.614773
v -1.472359 1.238946 -0.483418
vt 0.893555 0.987259
vn 0.647256 0.385166 -0.657805
v -1.410512 1.271595 -0.369963
vt 0.994141 0.871216
vn 0.661313 0.333352 -0.671968
usemtl Defrost_R.001
f 3/3/3 2/2/2 1/1/1
f 4/4/4 2/2/2 3/3/3
f 6/6/6 1/1/1 5/5/5
f 3/3/3 1/1/1 6/6/6
f 4/4/4 8/8/8 7/7/7
f 3/3/3 8/8/8 4/4/4
f 8/8/8 6/6/6 9/9/9
f 3/3/3 6/6/6 8/8/8
f 7/7/7 11/11/11 10/10/10
f 8/8/8 11/11/11 7/7/7
f 11/11/11 9/9/9 12/12/12
f 8/8/8 9/9/9 11/11/11
f 15/15/15 14/14/14 13/13/13
f 12/12/12 14/14/14 15/15/15
f 18/18/18 17/17/17 16/16/16
f 19/19/19 17/17/17 18/18/18
f 22/22/22 21/21/21 20/20/20
f 23/23/23 21/21/21 22/22/22
f 16/16/16 25/25/25 24/24/24
f 17/17/17 25/25/25 16/16/16
f 27/27/27 20/20/20 26/26/26
f 22/22/22 20/20/20 27/27/27
f 24/24/24 28/28/28 14/14/14
f 25/25/25 28/28/28 24/24/24
f 29/29/29 14/14/14 28/28/28
f 13/13/13 14/14/14 29/29/29
f 31/31/31 26/26/26 30/30/30
f 27/27/27 26/26/26 31/31/31
f 26/26/26 32/32/32 30/30/30
f 33/33/33 32/32/32 26/26/26
f 34/34/34 20/20/20 21/21/21
f 35/35/35 20/20/20 34/34/34
f 33/33/33 20/20/20 35/35/35
f 26/26/26 20/20/20 33/33/33
f 30/30/30 37/37/37 36/36/36
f 32/32/32 37/37/37 30/30/30
f 10/10/10 39/39/39 38/38/38
f 11/11/11 39/39/39 10/10/10
f 39/39/39 12/12/12 15/15/15
f 11/11/11 12/12/12 39/39/39
f 16/16/16 5/5/5 18/18/18
f 6/6/6 5/5/5 16/16/16
f 24/24/24 6/6/6 16/16/16
f 9/9/9 6/6/6 24/24/24
f 9/9/9 14/14/14 12/12/12
f 24/24/24 14/14/14 9/9/9
f 28/28/28 40/40/40 29/29/29
f 31/31/31 40/40/40 28/28/28
f 25/25/25 31/31/31 28/28/28
f 27/27/27 31/31/31 25/25/25
f 17/17/17 27/27/27 25/25/25
f 22/22/22 27/27/27 17/17/17
f 19/19/19 22/22/22 17/17/17
f 23/23/23 22/22/22 19/19/19
f 40/40/40 30/30/30 36/36/36
f 31/31/31 30/30/30 40/40/40
f 2/2/2 42/42/42 41/41/41
f 4/4/4 42/42/42 2/2/2
f 43/43/43 4/4/4 7/7/7
f 42/42/42 4/4/4 43/43/43
f 44/44/44 7/7/7 10/10/10
f 43/43/43 7/7/7 44/44/44
f 45/45/45 10/10/10 38/38/38
f 46/46/46 10/10/10 45/45/45
f 38/38/38 48/48/48 47/47/47
f 50/50/50 49/49/49 39/39/39
f 51/51/51 39/39/39 15/15/15
f 50/50/50 39/39/39 51/51/51
f 15/15/15 52/52/52 51/51/51
f 13/13/13 52/52/52 15/15/15
f 13/13/13 53/53/53 52/52/52
f 29/29/29 53/53/53 13/13/13
f 29/29/29 54/54/54 53/53/53
f 40/40/40 54/54/54 29/29/29
f 40/40/40 55/55/55 54/54/54
f 36/36/36 55/55/55 40/40/40
f 36/36/36 56/56/56 55/55/55
f 36/36/36 57/57/57 56/56/56
f 57/57/57 37/37/37 58/58/58
f 36/36/36 37/37/37 57/57/57
f 37/37/37 59/59/59 58/58/58
f 32/32/32 59/59/59 37/37/37
f 32/32/32 60/60/60 59/59/59
f 60/60/60 33/33/33 61/61/61
f 32/32/32 33/33/33 60/60/60
f 33/33/33 62/62/62 61/61/61
f 62/62/62 35/35/35 63/63/63
f 33/33/33 35/35/35 62/62/62
f 35/35/35 64/64/64 63/63/63
f 34/34/34 64/64/64 35/35/35
f 49/49/49 38/38/38 39/39/39
f 65/65/65 38/38/38 49/49/49
f 48/48/48 38/38/38 65/65/65
f 47/47/47 45/45/45 38/38/38
f 44/44/44 10/10/10 66/66/66
f 66/66/66 10/10/10 46/46/46
f 68/68/68 2/2/2 67/67/67
f 1/1/1 2/2/2 68/68/68
f 69/69/69 1/1/1 68/68/68
f 5/5/5 1/1/1 69/69/69
f 67/67/67 70/70/70 68/68/68
f 71/71/71 70/70/70 67/67/67
f 70/70/70 69/69/69 68/68/68
f 72/72/72 69/69/69 70/70/70
f 71/71/71 73/73/73 70/70/70
f 74/74/74 73/73/73 71/71/71
f 73/73/73 72/72/72 70/70/70
f 75/75/75 72/72/72 73/73/73
f 77/77/77 76/76/76 75/75/75
f 78/78/78 76/76/76 77/77/77
f 18/18/18 79/79/79 19/19/19
f 80/80/80 79/79/79 18/18/18
f 81/81/81 21/21/21 23/23/23
f 82/82/82 21/21/21 81/81/81
f 80/80/80 83/83/83 79/79/79
f 84/84/84 83/83/83 80/80/80
f 85/85/85 82/82/82 81/81/81
f 86/86/86 82/82/82 85/85/85
f 84/84/84 87/87/87 83/83/83
f 76/76/76 87/87/87 84/84/84
f 88/88/88 76/76/76 78/78/78
f 87/87/87 76/76/76 88/88/88
f 89/89/89 86/86/86 85/85/85
f 90/90/90 86/86/86 89/89/89
f 86/86/86 92/92/92 91/91/91
f 90/90/90 92/92/92 86/86/86
f 34/34/34 82/82/82 93/93/93
f 21/21/21 82/82/82 34/34/34
f 91/91/91 82/82/82 86/86/86
f 93/93/93 82/82/82 91/91/91
f 90/90/90 94/94/94 92/92/92
f 95/95/95 94/94/94 90/90/90
f 74/74/74 96/96/96 73/73/73
f 97/97/97 96/96/96 74/74/74
f 96/96/96 75/75/75 73/73/73
f 77/77/77 75/75/75 96/96/96
f 80/80/80 5/5/5 69/69/69
f 18/18/18 5/5/5 80/80/80
f 84/84/84 69/69/69 72/72/72
f 80/80/80 69/69/69 84/84/84
f 72/72/72 76/76/76 84/84/84
f 75/75/75 76/76/76 72/72/72
f 87/87/87 98/98/98 89/89/89
f 88/88/88 98/98/98 87/87/87
f 83/83/83 89/89/89 85/85/85
f 87/87/87 89/89/89 83/83/83
f 79/79/79 85/85/85 81/81/81
f 83/83/83 85/85/85 79/79/79
f 19/19/19 81/81/81 23/23/23
f 79/79/79 81/81/81 19/19/19
f 98/98/98 90/90/90 89/89/89
f 95/95/95 90/90/90 98/98/98
f 2/2/2 99/99/99 67/67/67
f 41/41/41 99/99/99 2/2/2
f 100/100/100 67/67/67 99/99/99
f 71/71/71 67/67/67 100/100/100
f 101/101/101 71/71/71 100/100/100
f 74/74/74 71/71/71 101/101/101
f 103/103/103 74/74/74 102/102/102
f 97/97/97 74/74/74 103/103/103
f 105/105/105 104/104/104 97/97/97
f 96/96/96 107/107/107 106/106/106
f 108/108/108 96/96/96 106/106/106
f 77/77/77 96/96/96 108/108/108
f 77/77/77 109/109/109 78/78/78
f 108/108/108 109/109/109 77/77/77
f 78/78/78 110/110/110 88/88/88
f 109/109/109 110/110/110 78/78/78
f 88/88/88 111/111/111 98/98/98
f 110/110/110 111/111/111 88/88/88
f 98/98/98 112/112/112 95/95/95
f 111/111/111 112/112/112 98/98/98
f 112/112/112 113/113/113 95/95/95
f 113/113/113 114/114/114 95/95/95
f 114/114/114 94/94/94 95/95/95
f 115/115/115 94/94/94 114/114/114
f 94/94/94 116/116/116 92/92/92
f 115/115/115 116/116/116 94/94/94
f 116/116/116 117/117/117 92/92/92
f 117/117/117 91/91/91 92/92/92
f 118/118/118 91/91/91 117/117/117
f 118/118/118 119/119/119 91/91/91
f 119/119/119 93/93/93 91/91/91
f 120/120/120 93/93/93 119/119/119
f 93/93/93 64/64/64 34/34/34
f 120/120/120 64/64/64 93/93/93
f 107/107/107 97/97/97 121/121/121
f 96/96/96 97/97/97 107/107/107
f 121/121/121 97/97/97 104/104/104
f 97/97/97 103/103/103 105/105/105
f 122/122/122 74/74/74 101/101/101
f 102/102/102 74/74/74 122/122/122
