# Exported from Godot Engine
mtllib Defrost_Front.mtl
o Defrost_Front
v 0.432705 1.312736 0.000000
vt 0.109680 0.500244
vn 0.912875 0.365150 -0.182553
v 0.427584 1.311130 -0.137226
vt 0.105225 0.595947
vn 0.912875 0.365150 -0.182553
v 0.559249 1.268612 0.000000
vt 0.256836 0.500244
vn 0.910839 0.394143 -0.122573
v 0.553543 1.267466 -0.140736
vt 0.251465 0.597900
vn 0.910839 0.394143 -0.122573
v 0.412669 1.306934 -0.273735
vt 0.092041 0.691162
vn 0.912875 0.365150 -0.182553
v 0.538313 1.263121 -0.281038
vt 0.238159 0.695801
vn 0.910839 0.394143 -0.122573
v 0.386842 1.300192 -0.408491
vt 0.068909 0.785767
vn 0.914388 0.362117 -0.181014
v 0.512544 1.255871 -0.419654
vt 0.215332 0.792725
vn 0.910839 0.394143 -0.122573
v 0.348638 1.291475 -0.540134
vt 0.034027 0.878784
vn 0.914318 0.356620 -0.191949
v 0.474860 1.246397 -0.555326
vt 0.181274 0.888428
vn 0.911471 0.389368 -0.132713
v 0.866823 1.117408 -0.301828
vt 0.631836 0.710449
vn 0.898961 0.437356 -0.024270
v 0.836167 1.110414 -0.450223
vt 0.604004 0.814331
vn 0.898961 0.437356 -0.024270
v 1.011967 1.045606 -0.308188
vt 0.809570 0.715332
vn 0.895215 0.445617 -0.003961
v 0.978921 1.039677 -0.459267
vt 0.778809 0.821167
vn 0.895215 0.445617 -0.003961
v 0.884466 1.121937 -0.151180
vt 0.647949 0.605225
vn 0.898961 0.437356 -0.024270
v 1.030272 1.049885 -0.154395
vt 0.826172 0.607666
vn 0.895215 0.445617 -0.003961
v 0.890960 1.122750 0.000000
vt 0.653809 0.500244
vn 0.898961 0.437356 -0.024270
v 1.036838 1.050742 0.000000
vt 0.832520 0.500244
vn 0.894432 0.447185 0.004004
v 0.792507 1.100900 -0.595220
vt 0.564453 0.916809
vn 0.901039 0.432188 -0.036643
v 0.753623 1.090841 -0.697461
vt 0.529785 0.989990
vn 0.901039 0.432188 -0.036643
v 0.931579 1.031626 -0.606524
vt 0.734863 0.925354
vn 0.897497 0.440731 -0.016015
v 0.892967 1.022474 -0.705826
vt 0.700195 0.996479
vn 0.898961 0.437356 -0.024270
v 0.720462 1.198099 -0.145978
vt 0.449707 0.601562
vn 0.904236 0.423073 -0.058026
v 0.726644 1.199359 0.000000
vt 0.455322 0.500244
vn 0.904236 0.423073 -0.058026
v 0.704078 1.193586 -0.291525
vt 0.435059 0.702881
vn 0.905424 0.419182 -0.067039
v 0.677346 1.185602 -0.435397
vt 0.411621 0.803589
vn 0.905424 0.419182 -0.067039
v 0.639746 1.174388 -0.576580
vt 0.378662 0.903259
vn 0.905424 0.419182 -0.067039
v 0.605459 1.163379 -0.676144
vt 0.348877 0.974442
vn 0.906559 0.415140 -0.076215
v 0.440408 1.237165 -0.650286
vt 0.150024 0.956177
vn 0.912150 0.382669 -0.146790
v 1.163784 0.981942 -0.155026
vt 0.990723 0.608398
vn 0.894317 0.447148 0.016012
v 1.170618 0.982874 0.000000
vt 0.997070 0.500244
vn 0.894317 0.447148 0.016012
v 1.141241 0.980283 -0.309062
vt 0.968750 0.716309
vn 0.894317 0.447148 0.016012
v 1.101976 0.978119 -0.459932
vt 0.930176 0.822266
vn 0.892822 0.450339 0.007979
v 1.046493 0.974442 -0.607065
vt 0.875977 0.926514
vn 0.892843 0.450367 0.000020
v 1.038586 0.973950 -0.628636
vt 0.868164 0.941711
vn 0.897497 0.440731 -0.016015
v 0.315217 1.282807 -0.628100
vt 0.003504 0.941620
vn 0.914318 0.356620 -0.191949
v 0.553543 1.267466 0.140737
vt 0.251465 0.402344
vn 0.910839 0.394143 -0.122573
v 0.427584 1.311130 0.137227
vt 0.105225 0.404785
vn 0.912875 0.365150 -0.182553
v 0.538313 1.263121 0.281038
vt 0.238159 0.304688
vn 0.910839 0.394143 -0.122573
v 0.412669 1.306934 0.273735
vt 0.092041 0.309082
vn 0.912875 0.365150 -0.182553
v 0.512544 1.255871 0.419654
vt 0.215332 0.207520
vn 0.910839 0.394143 -0.122573
v 0.386842 1.300192 0.408491
vt 0.068909 0.214355
vn 0.911331 0.371794 -0.176764
v 0.474860 1.246397 0.555327
vt 0.181274 0.111816
vn 0.911471 0.389368 -0.132713
v 0.348638 1.291475 0.540134
vt 0.034027 0.121582
vn 0.911340 0.366361 -0.187720
v 0.978921 1.039677 0.459267
vt 0.778809 0.179199
vn 0.895215 0.445617 -0.003961
v 0.836167 1.110414 0.450223
vt 0.604004 0.186035
vn 0.898961 0.437356 -0.024270
v 1.011967 1.045606 0.308188
vt 0.809570 0.285156
vn 0.895215 0.445617 -0.003961
v 0.866823 1.117408 0.301828
vt 0.631836 0.290039
vn 0.898961 0.437356 -0.024270
v 1.030272 1.049885 0.154395
vt 0.826172 0.392578
vn 0.895215 0.445617 -0.003961
v 0.884466 1.121937 0.151181
vt 0.647949 0.395020
vn 0.898961 0.437356 -0.024270
v 0.892967 1.022474 0.705826
vt 0.700195 0.003906
vn 0.898961 0.437356 -0.024270
v 0.753623 1.090841 0.697461
vt 0.529785 0.010254
vn 0.901039 0.432188 -0.036643
v 0.931579 1.031625 0.606524
vt 0.734863 0.074707
vn 0.897497 0.440731 -0.016015
v 0.792507 1.100899 0.595221
vt 0.564453 0.083496
vn 0.901039 0.432188 -0.036643
v 0.720462 1.198099 0.145978
vt 0.449707 0.398926
vn 0.904236 0.423073 -0.058026
v 0.704078 1.193586 0.291525
vt 0.435059 0.297363
vn 0.905424 0.419182 -0.067039
v 0.677346 1.185602 0.435397
vt 0.411621 0.196777
vn 0.905424 0.419182 -0.067039
v 0.639746 1.174388 0.576580
vt 0.378662 0.097168
vn 0.905424 0.419182 -0.067039
v 0.440408 1.237165 0.650287
vt 0.150024 0.043945
vn 0.912150 0.382669 -0.146790
v 0.605459 1.163379 0.676144
vt 0.348877 0.025879
vn 0.906559 0.415140 -0.076215
v 1.163784 0.981942 0.155026
vt 0.990723 0.392090
vn 0.894317 0.447148 0.016012
v 1.141241 0.980282 0.309063
vt 0.968750 0.284180
vn 0.894317 0.447148 0.016012
v 1.101976 0.978119 0.459933
vt 0.930176 0.178223
vn 0.895986 0.444065 0.003958
v 1.046493 0.974441 0.607065
vt 0.875977 0.073730
vn 0.896785 0.442449 -0.003915
v 1.027068 0.974021 0.648782
vt 0.856445 0.043945
vn 0.897497 0.440731 -0.016015
v 1.038586 0.973949 0.628636
vt 0.868164 0.058594
vn 0.897497 0.440731 -0.016015
v 0.315217 1.282807 0.628100
vt 0.003504 0.058594
vn 0.911340 0.366361 -0.187720
v 1.013071 0.975907 -0.667274
vt 0.841797 0.969284
vn 0.897497 0.440731 -0.016015
v 1.027068 0.974021 -0.648782
vt 0.856445 0.956116
vn 0.897497 0.440731 -0.016015
v 0.995863 0.980357 0.682235
vt 0.822266 0.020508
vn 0.898322 0.439174 -0.011964
v 1.013071 0.975906 0.667274
vt 0.841797 0.031250
vn 0.897497 0.440731 -0.016015
v 0.976155 0.987217 -0.692315
vt 0.799316 0.987015
vn 0.898961 0.437356 -0.024270
v 0.995863 0.980358 -0.682234
vt 0.822266 0.979904
vn 0.894399 0.447199 -0.007970
v 0.955360 0.995494 0.698297
vt 0.774902 0.009277
vn 0.901039 0.432188 -0.036643
v 0.976155 0.987217 0.692315
vt 0.799316 0.013184
vn 0.898961 0.437356 -0.024270
v 0.955360 0.995495 -0.698296
vt 0.774902 0.991226
vn 0.901039 0.432188 -0.036643
usemtl Defrost_F.002
f 3/3/3 2/2/2 1/1/1
f 4/4/4 2/2/2 3/3/3
f 4/4/4 5/5/5 2/2/2
f 6/6/6 5/5/5 4/4/4
f 6/6/6 7/7/7 5/5/5
f 8/8/8 7/7/7 6/6/6
f 8/8/8 9/9/9 7/7/7
f 10/10/10 9/9/9 8/8/8
f 13/13/13 12/12/12 11/11/11
f 14/14/14 12/12/12 13/13/13
f 15/15/15 13/13/13 11/11/11
f 16/16/16 13/13/13 15/15/15
f 17/17/17 16/16/16 15/15/15
f 18/18/18 16/16/16 17/17/17
f 21/21/21 20/20/20 19/19/19
f 22/22/22 20/20/20 21/21/21
f 12/12/12 21/21/21 19/19/19
f 14/14/14 21/21/21 12/12/12
f 3/3/3 23/23/23 4/4/4
f 24/24/24 23/23/23 3/3/3
f 4/4/4 25/25/25 6/6/6
f 23/23/23 25/25/25 4/4/4
f 25/25/25 8/8/8 6/6/6
f 26/26/26 8/8/8 25/25/25
f 8/8/8 27/27/27 10/10/10
f 26/26/26 27/27/27 8/8/8
f 28/28/28 10/10/10 27/27/27
f 29/29/29 10/10/10 28/28/28
f 24/24/24 15/15/15 23/23/23
f 17/17/17 15/15/15 24/24/24
f 23/23/23 11/11/11 25/25/25
f 15/15/15 11/11/11 23/23/23
f 11/11/11 26/26/26 25/25/25
f 12/12/12 26/26/26 11/11/11
f 26/26/26 19/19/19 27/27/27
f 12/12/12 19/19/19 26/26/26
f 19/19/19 28/28/28 27/27/27
f 20/20/20 28/28/28 19/19/19
f 18/18/18 30/30/30 16/16/16
f 31/31/31 30/30/30 18/18/18
f 13/13/13 30/30/30 32/32/32
f 16/16/16 30/30/30 13/13/13
f 32/32/32 14/14/14 13/13/13
f 33/33/33 14/14/14 32/32/32
f 21/21/21 33/33/33 34/34/34
f 14/14/14 33/33/33 21/21/21
f 34/34/34 35/35/35 21/21/21
f 36/36/36 10/10/10 29/29/29
f 9/9/9 10/10/10 36/36/36
f 3/3/3 38/38/38 37/37/37
f 1/1/1 38/38/38 3/3/3
f 37/37/37 40/40/40 39/39/39
f 38/38/38 40/40/40 37/37/37
f 39/39/39 42/42/42 41/41/41
f 40/40/40 42/42/42 39/39/39
f 41/41/41 44/44/44 43/43/43
f 42/42/42 44/44/44 41/41/41
f 47/47/47 46/46/46 45/45/45
f 48/48/48 46/46/46 47/47/47
f 50/50/50 47/47/47 49/49/49
f 48/48/48 47/47/47 50/50/50
f 17/17/17 49/49/49 18/18/18
f 50/50/50 49/49/49 17/17/17
f 53/53/53 52/52/52 51/51/51
f 54/54/54 52/52/52 53/53/53
f 46/46/46 53/53/53 45/45/45
f 54/54/54 53/53/53 46/46/46
f 3/3/3 55/55/55 24/24/24
f 37/37/37 55/55/55 3/3/3
f 37/37/37 56/56/56 55/55/55
f 39/39/39 56/56/56 37/37/37
f 56/56/56 41/41/41 57/57/57
f 39/39/39 41/41/41 56/56/56
f 41/41/41 58/58/58 57/57/57
f 43/43/43 58/58/58 41/41/41
f 60/60/60 43/43/43 59/59/59
f 58/58/58 43/43/43 60/60/60
f 24/24/24 50/50/50 17/17/17
f 55/55/55 50/50/50 24/24/24
f 55/55/55 48/48/48 50/50/50
f 56/56/56 48/48/48 55/55/55
f 48/48/48 57/57/57 46/46/46
f 56/56/56 57/57/57 48/48/48
f 57/57/57 54/54/54 46/46/46
f 58/58/58 54/54/54 57/57/57
f 54/54/54 60/60/60 52/52/52
f 58/58/58 60/60/60 54/54/54
f 18/18/18 61/61/61 31/31/31
f 49/49/49 61/61/61 18/18/18
f 47/47/47 61/61/61 49/49/49
f 62/62/62 61/61/61 47/47/47
f 62/62/62 45/45/45 63/63/63
f 47/47/47 45/45/45 62/62/62
f 53/53/53 63/63/63 45/45/45
f 64/64/64 63/63/63 53/53/53
f 66/66/66 53/53/53 65/65/65
f 67/67/67 43/43/43 44/44/44
f 59/59/59 43/43/43 67/67/67
f 69/69/69 68/68/68 21/21/21
f 35/35/35 69/69/69 21/21/21
f 64/64/64 53/53/53 66/66/66
f 71/71/71 53/53/53 70/70/70
f 73/73/73 72/72/72 21/21/21
f 68/68/68 73/73/73 21/21/21
f 65/65/65 53/53/53 71/71/71
f 75/75/75 53/53/53 74/74/74
f 76/76/76 22/22/22 21/21/21
f 72/72/72 76/76/76 21/21/21
f 70/70/70 53/53/53 75/75/75
f 53/53/53 51/51/51 74/74/74
