# Exported from Godot Engine
mtllib Door_LF_Mirror.mtl
o Door_LF_Mirror
v 0.593724 1.009108 -1.073974
vt 0.520508 0.267578
vn 0.433441 0.900921 0.021706
v 0.601958 0.990153 -1.075185
vt 0.519531 0.270996
vn 0.432259 0.901559 0.018552
v 0.607594 1.017153 -1.059955
vt 0.524414 0.268066
vn 0.425915 0.901042 0.081975
v 0.621240 0.990521 -1.060063
vt 0.523438 0.272949
vn 0.423636 0.902719 0.075036
v 0.586975 1.016030 -1.074731
vt 0.520508 0.265625
vn 0.444754 0.895632 -0.006144
v 0.598471 1.027398 -1.061130
vt 0.523926 0.265625
vn 0.433294 0.898925 0.064737
v 0.577911 1.019911 -1.076909
vt 0.520020 0.264160
vn 0.431924 0.901368 -0.031253
v 0.588877 1.034501 -1.062831
vt 0.523926 0.263672
vn 0.430779 0.900159 0.064362
v 0.591171 0.991710 -1.080754
vt 0.518066 0.269043
vn 0.428830 0.902130 -0.047603
v 0.568364 1.022738 -1.078612
vt 0.519043 0.262695
vn 0.421570 0.906013 -0.037686
v 0.580240 0.993444 -1.085053
vt 0.516602 0.267578
vn 0.411161 0.907848 -0.082211
v 0.568894 0.994861 -1.087320
vt 0.515625 0.265625
vn 0.391856 0.913135 -0.112401
v 0.577957 1.039204 -1.064688
vt 0.522949 0.262207
vn 0.428465 0.901719 0.057621
v 0.605153 0.980297 -1.075799
vt 0.519043 0.272461
vn 0.487760 0.871430 -0.051959
v 0.594773 0.980920 -1.081997
vt 0.517090 0.270996
vn 0.468449 0.875355 -0.119624
v 0.625283 0.978880 -1.060088
vt 0.522949 0.274902
vn 0.507017 0.861936 0.000063
v 0.583157 0.981476 -1.086828
vt 0.515625 0.269531
vn 0.442727 0.878118 -0.181386
v 0.570940 0.981939 -1.089787
vt 0.514160 0.267578
vn 0.415722 0.877636 -0.238601
v 0.558539 1.024774 -1.079772
vt 0.518555 0.261230
vn 0.419036 0.907309 -0.034619
v 0.566355 1.042297 -1.065614
vt 0.522461 0.260254
vn 0.430176 0.901495 0.047498
v 0.546287 1.026279 -1.080400
vt 0.517578 0.259277
vn 0.403026 0.913951 -0.047578
v 0.553807 1.043963 -1.065808
vt 0.521484 0.258301
vn 0.430953 0.900512 0.057942
v 0.557192 1.011672 -1.084434
vt 0.516602 0.262207
vn 0.390271 0.911795 -0.127741
v 0.558487 0.982333 -1.091435
vt 0.512695 0.265625
vn 0.382913 0.885487 -0.263230
v 0.570881 0.980206 -1.088278
vt 0.513672 0.268066
vn 0.349255 0.572902 -0.741488
v 0.558459 0.980617 -1.089927
vt 0.512207 0.266113
vn 0.289299 0.578598 -0.762582
v 0.517321 1.027548 -1.078903
vt 0.515137 0.255371
vn 0.327448 0.943030 -0.058929
v 0.520491 1.037649 -1.072670
vt 0.517090 0.254395
vn 0.386032 0.922235 0.021488
v 0.544299 1.013252 -1.085037
vt 0.515625 0.260254
vn 0.364447 0.919863 -0.145015
v 0.542422 0.982770 -1.092319
vt 0.510742 0.263184
vn 0.359123 0.895702 -0.262201
v 0.542237 0.981081 -1.090805
vt 0.510742 0.263672
vn 0.245035 0.623649 -0.742307
v 0.557362 0.996002 -1.088591
vt 0.514160 0.264160
vn 0.366137 0.920575 -0.135961
v 0.543107 0.997159 -1.089255
vt 0.513184 0.261719
vn 0.346667 0.924444 -0.158823
v 0.514690 1.015050 -1.083673
vt 0.513184 0.255859
vn 0.300588 0.949614 -0.088775
v 0.512151 0.998902 -1.088573
vt 0.510254 0.257324
vn 0.280625 0.954036 -0.105188
v 0.509635 0.983564 -1.092178
vt 0.507812 0.258301
vn 0.099124 0.994917 0.017728
v 0.573244 1.047832 -1.053955
vt 0.524414 0.260254
vn 0.427124 0.887461 0.173143
v 0.585401 1.044446 -1.053719
vt 0.525391 0.262207
vn 0.416720 0.891935 0.175488
v 0.581356 1.052404 -1.038718
vt 0.527344 0.260254
vn 0.413902 0.879505 0.234853
v 0.594759 1.048788 -1.038618
vt 0.528320 0.262207
vn 0.399812 0.885890 0.235264
v 0.596607 1.038763 -1.052665
vt 0.525879 0.264160
vn 0.409195 0.897372 0.165174
v 0.607166 1.042664 -1.037671
vt 0.528809 0.264648
vn 0.400432 0.891559 0.211607
v 0.606331 1.030771 -1.051546
vt 0.526367 0.266113
vn 0.415564 0.898027 0.144410
v 0.617790 1.033699 -1.037053
vt 0.529297 0.267090
vn 0.406378 0.896228 0.177854
v 0.628217 1.020336 -1.037114
vt 0.529297 0.270020
vn 0.430946 0.893169 0.128590
v 0.644465 0.989592 -1.037348
vt 0.528809 0.275879
vn 0.433089 0.893737 0.116914
v 0.649032 0.976971 -1.037658
vt 0.528320 0.278320
vn 0.507043 0.860654 0.046727
v 0.567605 1.054157 -1.038276
vt 0.526855 0.257812
vn 0.430701 0.873389 0.227350
v 0.560119 1.049727 -1.053629
vt 0.523926 0.258301
vn 0.442475 0.881290 0.165965
v 0.524533 1.044907 -1.064206
vt 0.519043 0.253906
vn 0.407665 0.910903 0.063764
v 0.530251 1.050462 -1.051748
vt 0.521484 0.253418
vn 0.451164 0.880485 0.145594
v 0.537115 1.054829 -1.036603
vt 0.524902 0.253418
vn 0.447210 0.870846 0.204037
v 0.668426 0.987410 -1.011083
vt 0.534180 0.278809
vn 0.445418 0.883712 0.143723
v 0.673982 0.974793 -1.010876
vt 0.534180 0.281250
vn 0.514721 0.853169 0.084645
v 0.696640 0.984653 -0.977681
vt 0.541992 0.281738
vn 0.497971 0.854225 0.149417
v 0.701862 0.972202 -0.978266
vt 0.541992 0.283691
vn 0.546070 0.830481 0.110040
v 0.724195 0.981774 -0.943693
vt 0.549805 0.283203
vn 0.579399 0.803839 0.134687
v 0.731707 0.969341 -0.941871
vt 0.550781 0.285645
vn 0.619437 0.778398 0.101954
v 0.747237 0.979525 -0.914555
vt 0.556641 0.284180
vn 0.640802 0.756187 0.132492
v 0.755773 0.967002 -0.911895
vt 0.558105 0.286133
vn 0.654059 0.742064 0.146793
v 0.648567 1.021112 -1.012508
vt 0.534180 0.271973
vn 0.435663 0.885815 0.159777
v 0.715249 1.020687 -0.922829
vt 0.552246 0.276367
vn 0.578549 0.800752 0.155168
v 0.696029 1.021262 -0.949805
vt 0.546875 0.275879
vn 0.510969 0.842276 0.171704
v 0.672656 1.021424 -0.981376
vt 0.540527 0.273926
vn 0.463257 0.869585 0.170925
v 0.752231 0.979538 -0.907755
vt 0.558105 0.283691
vn 0.605397 0.752433 0.259498
v 0.719634 1.020720 -0.916093
vt 0.553711 0.276367
vn 0.596068 0.774017 0.213543
v 0.635878 1.036398 -1.013271
vt 0.533691 0.268555
vn 0.415330 0.887372 0.200178
v 0.657296 1.039083 -0.983284
vt 0.539551 0.270020
vn 0.430820 0.877292 0.211549
v 0.678004 1.041215 -0.952756
vt 0.545410 0.271484
vn 0.460892 0.861181 0.214352
v 0.694777 1.042404 -0.926518
vt 0.550293 0.271973
vn 0.503044 0.838438 0.209686
v 0.660318 1.063495 -0.930735
vt 0.548340 0.266113
vn 0.392285 0.860350 0.325439
v 0.678602 1.054571 -0.929277
vt 0.549316 0.269043
vn 0.435816 0.858818 0.269250
v 0.663428 1.063765 -0.924012
vt 0.549316 0.266113
vn 0.369578 0.829062 0.419605
v 0.682051 1.054989 -0.922518
vt 0.550293 0.269043
vn 0.435521 0.833146 0.340867
v 0.609851 1.053232 -1.015194
vt 0.532715 0.263184
vn 0.398876 0.879199 0.260588
v 0.623766 1.046235 -1.014372
vt 0.533203 0.265625
vn 0.399812 0.885890 0.235264
v 0.627979 1.057830 -0.985902
vt 0.538086 0.264160
vn 0.399725 0.874451 0.274875
v 0.643552 1.049857 -0.985081
vt 0.539062 0.267090
vn 0.409318 0.878921 0.244861
v 0.645819 1.061461 -0.956185
vt 0.543945 0.265137
vn 0.388952 0.868643 0.306879
v 0.662876 1.052791 -0.955195
vt 0.544434 0.268555
vn 0.414494 0.870505 0.265360
v 0.698513 1.042721 -0.919866
vt 0.551758 0.271973
vn 0.525214 0.810894 0.258070
v 0.588015 1.071340 -0.922618
vt 0.547363 0.253906
vn 0.315115 0.777710 0.543940
v 0.585170 1.071520 -0.929086
vt 0.545898 0.253906
vn 0.360570 0.838107 0.409349
v 0.624052 1.070703 -0.924291
vt 0.547852 0.260254
vn 0.295302 0.773972 0.560147
v 0.621231 1.070742 -0.930941
vt 0.546875 0.259766
vn 0.342029 0.840459 0.420291
v 0.640523 1.068409 -0.931233
vt 0.547363 0.262695
vn 0.355815 0.852047 0.383942
v 0.643326 1.068518 -0.924550
vt 0.548828 0.263184
vn 0.336006 0.808535 0.483085
v 0.579755 1.059318 -1.014851
vt 0.531250 0.258301
vn 0.408619 0.871515 0.271095
v 0.594794 1.057353 -1.015287
vt 0.532227 0.260742
vn 0.405684 0.873480 0.269172
v 0.594411 1.064656 -0.985655
vt 0.536621 0.258789
vn 0.398251 0.865775 0.303034
v 0.611080 1.062475 -0.985999
vt 0.537598 0.261230
vn 0.392358 0.870009 0.298562
v 0.609102 1.068802 -0.956082
vt 0.542480 0.259277
vn 0.376616 0.854279 0.358284
v 0.627315 1.066442 -0.956440
vt 0.542969 0.262207
vn 0.373882 0.863542 0.338391
v 0.548030 1.060197 -1.012281
vt 0.529297 0.252930
vn 0.422267 0.869366 0.256696
v 0.561022 1.065669 -0.983320
vt 0.535156 0.252930
vn 0.412699 0.864106 0.288099
v 0.574140 1.069893 -0.953949
vt 0.541016 0.253418
vn 0.392568 0.853615 0.342391
v 0.664493 1.056809 -0.906137
vt 0.552734 0.266113
vn -0.000019 0.267788 0.963478
v 0.682368 1.049216 -0.904369
vt 0.553711 0.268555
vn -0.049673 0.294454 0.954374
v 0.663418 1.050501 -0.902763
vt 0.553711 0.265625
vn -0.057622 0.194395 0.979229
v 0.679671 1.043313 -0.901190
vt 0.554688 0.268555
vn -0.189136 0.264730 0.945593
v 0.698593 1.038417 -0.902631
vt 0.554688 0.271484
vn -0.108177 0.320811 0.940945
v 0.694544 1.033535 -0.899584
vt 0.555664 0.270996
vn -0.182055 0.246468 0.951898
v 0.717029 1.018958 -0.899044
vt 0.556641 0.274902
vn -0.200044 0.340742 0.918628
v 0.710823 1.016262 -0.896799
vt 0.557617 0.274414
vn -0.265011 0.248910 0.931565
v 0.595298 1.055411 -0.904431
vt 0.552246 0.254883
vn 0.064857 0.187350 0.980150
v 0.594265 1.061995 -0.907384
vt 0.550781 0.254395
vn 0.115231 0.309769 0.943803
v 0.628985 1.055452 -0.903977
vt 0.552734 0.260254
vn 0.014149 0.159214 0.987143
v 0.628178 1.061957 -0.907210
vt 0.551270 0.260254
vn 0.078567 0.289354 0.953992
v 0.645350 1.060534 -0.906928
vt 0.551758 0.262695
vn 0.042357 0.286102 0.957263
v 0.645926 1.053969 -0.903560
vt 0.553223 0.263184
vn -0.007073 0.162075 0.986753
v 0.741840 0.977842 -0.892226
vt 0.561523 0.281250
vn -0.350320 0.271014 0.896564
v 0.747869 0.979264 -0.893314
vt 0.560547 0.282227
vn -0.264250 0.369885 0.890706
v 0.750957 0.965886 -0.891008
vt 0.562500 0.283691
vn -0.611819 0.260874 0.746741
v 0.757136 0.965752 -0.891621
vt 0.562012 0.284668
vn -0.479682 0.459657 0.747409
v 0.753926 0.980511 -0.902971
vt 0.559082 0.283691
vn 0.375448 0.681031 0.628678
v 0.763605 0.966107 -0.900144
vt 0.560547 0.286133
vn 0.272887 0.622553 0.733458
v 0.760816 0.966486 -0.905480
vt 0.559570 0.286133
vn 0.598145 0.743456 0.299160
v 0.752684 0.980730 -0.897177
vt 0.560059 0.283203
vn -0.014757 0.379600 0.925033
v 0.762585 0.965823 -0.895116
vt 0.561523 0.285645
vn -0.161174 0.464205 0.870940
v 0.722024 1.021237 -0.910413
vt 0.554688 0.276367
vn 0.398922 0.720818 0.566818
v 0.721705 1.021204 -0.904185
vt 0.555664 0.275879
vn 0.014903 0.395661 0.918276
v 0.644519 1.068077 -0.918157
vt 0.549805 0.263184
vn 0.233827 0.682775 0.692202
v 0.664850 1.063724 -0.917631
vt 0.550293 0.266113
vn 0.268281 0.713867 0.646853
v 0.645018 1.065837 -0.912219
vt 0.550781 0.263184
vn 0.116211 0.461132 0.879689
v 0.665156 1.061869 -0.911587
vt 0.551270 0.266113
vn 0.101054 0.466516 0.878721
v 0.625884 1.069920 -0.917964
vt 0.549316 0.260254
vn 0.216103 0.643882 0.733972
v 0.627164 1.067405 -0.912268
vt 0.550293 0.260254
vn 0.129053 0.440419 0.888469
v 0.590494 1.070205 -0.916896
vt 0.548340 0.254395
vn 0.234846 0.654923 0.718278
v 0.592562 1.067537 -0.911886
vt 0.549316 0.254395
vn 0.168835 0.468170 0.867359
v 0.700577 1.043081 -0.914130
vt 0.552734 0.271973
vn 0.391166 0.745060 0.540255
v 0.700940 1.042257 -0.908117
vt 0.553711 0.271973
vn 0.069784 0.453803 0.888366
v 0.683850 1.055323 -0.916286
vt 0.551270 0.269043
vn 0.327032 0.740689 0.586881
v 0.684095 1.053979 -0.909957
vt 0.552246 0.269043
vn 0.085502 0.462564 0.882454
v 0.716597 0.965058 -0.892090
vt 0.565430 0.277832
vn -0.923678 0.133405 0.359197
v 0.715711 0.966581 -0.890015
vt 0.565430 0.277344
vn -0.492709 0.201508 0.846541
v 0.752166 0.964206 -0.892966
vt 0.562988 0.284180
vn -0.931690 0.172996 0.319415
v 0.710317 0.978711 -0.890490
vt 0.563477 0.275879
vn -0.275553 0.204515 0.939279
v 0.676897 0.979598 -0.890015
vt 0.564941 0.270020
vn -0.182535 0.128577 0.974756
v 0.689490 1.015092 -0.894075
vt 0.559082 0.270996
vn -0.209758 0.185521 0.959991
v 0.664417 1.016989 -0.893480
vt 0.559082 0.266602
vn -0.144134 0.132089 0.980703
v 0.596867 1.038956 -0.899260
vt 0.555176 0.254883
vn -0.000017 0.115138 0.993349
v 0.634960 1.037013 -0.897795
vt 0.556152 0.261230
vn -0.051686 0.140178 0.988776
v 0.597693 0.981974 -0.891922
vt 0.565918 0.255859
vn -0.071374 0.067394 0.995170
v 0.597728 1.020995 -0.895517
vt 0.558594 0.255371
vn -0.061899 0.088944 0.994111
v 0.645618 0.980455 -0.890361
vt 0.565430 0.264160
vn -0.113581 0.089202 0.989516
v 0.639395 1.018666 -0.893906
vt 0.559082 0.262207
vn -0.110625 0.110588 0.987691
v 0.656239 1.034117 -0.897032
vt 0.556641 0.264648
vn -0.089344 0.163738 0.982450
v 0.673704 1.030222 -0.896531
vt 0.557129 0.267578
vn -0.152936 0.202589 0.967248
v 0.646734 0.968194 -0.890258
vt 0.567383 0.264648
vn -0.245678 0.084701 0.965644
v 0.679498 0.967393 -0.889841
vt 0.566895 0.270996
vn -0.373334 0.114530 0.920600
v 0.536283 1.052304 -1.035591
vt 0.524414 0.252930
vn 0.363814 0.897914 0.247771
v 0.536151 1.053758 -1.035898
vt 0.524414 0.252930
vn 0.405903 0.888400 0.214451
v 0.546922 1.057458 -1.011973
vt 0.529297 0.252441
vn 0.410519 0.874387 0.258691
v 0.546922 1.059006 -1.011930
vt 0.529297 0.252930
vn 0.419231 0.871360 0.254906
v 0.512215 0.997329 -1.086151
vt 0.510254 0.256836
vn -0.071380 0.983444 -0.166560
v 0.511582 0.998165 -1.087255
vt 0.510254 0.256836
vn 0.059257 0.979315 -0.193468
v 0.514596 1.012932 -1.081443
vt 0.512695 0.255859
vn -0.047513 0.997332 -0.055420
v 0.514039 1.014037 -1.082456
vt 0.512695 0.255859
vn 0.071197 0.988372 -0.134359
v 0.559584 1.062718 -0.983911
vt 0.534668 0.252441
vn 0.448088 0.853122 0.267206
v 0.559740 1.064352 -0.983425
vt 0.535156 0.252930
vn 0.437459 0.853073 0.284422
v 0.591140 1.065492 -0.913041
vt 0.549316 0.253906
vn 0.306444 0.463514 0.831413
v 0.591325 1.066622 -0.912164
vt 0.549316 0.254395
vn 0.217823 0.431899 0.875224
v 0.592896 1.059391 -0.908485
vt 0.550781 0.253906
vn 0.170511 0.278002 0.945326
v 0.593067 1.060744 -0.907600
vt 0.550781 0.254395
vn 0.138885 0.277832 0.950537
v 0.529582 1.048166 -1.050446
vt 0.521484 0.252930
vn 0.300530 0.926728 0.225514
v 0.529364 1.049509 -1.050913
vt 0.521484 0.253418
vn 0.377160 0.911475 0.164205
v 0.593923 1.052626 -0.905662
vt 0.552734 0.254395
vn 0.097266 0.172089 0.980268
v 0.594098 1.054035 -0.904707
vt 0.552246 0.254395
vn 0.081082 0.176967 0.980871
v 0.595449 1.036306 -0.900814
vt 0.555664 0.254395
vn 0.068932 0.103406 0.992248
v 0.595635 1.037631 -0.899713
vt 0.555664 0.254395
vn 0.022360 0.093185 0.995398
v 0.572434 1.066906 -0.955401
vt 0.540527 0.252930
vn 0.502206 0.818473 0.279090
v 0.572718 1.068543 -0.954490
vt 0.540527 0.252930
vn 0.458141 0.825628 0.329311
v 0.588667 1.068102 -0.918770
vt 0.547852 0.253906
vn 0.421807 0.632776 0.649364
v 0.589031 1.069297 -0.917595
vt 0.548340 0.253906
vn 0.288540 0.589510 0.754468
v 0.596355 1.018742 -0.897282
vt 0.559082 0.254883
vn 0.015710 0.023605 0.999598
v 0.596512 1.019862 -0.896089
vt 0.559082 0.254883
vn -0.015511 0.038721 0.999130
v 0.586070 1.068776 -0.924781
vt 0.546875 0.253418
vn 0.492264 0.729606 0.474711
v 0.586478 1.070203 -0.923500
vt 0.546875 0.253906
vn 0.370181 0.708764 0.600516
v 0.517014 1.025189 -1.077029
vt 0.514648 0.254883
vn -0.007503 0.998398 0.056085
v 0.516566 1.026441 -1.077868
vt 0.515137 0.254883
vn 0.139184 0.988938 -0.051272
v 0.523979 1.042738 -1.062735
vt 0.519043 0.253418
vn 0.217770 0.960199 0.174914
v 0.523687 1.043995 -1.063318
vt 0.519043 0.253906
vn 0.326031 0.939806 0.102317
v 0.596308 0.980718 -0.893991
vt 0.565918 0.255371
vn 0.087640 0.007946 0.996121
v 0.596461 0.981345 -0.892666
vt 0.565918 0.255371
vn -0.048710 0.024347 0.998516
v 0.509124 0.983283 -1.090808
vt 0.507812 0.258301
vn 0.000000 0.738179 -0.674605
v 0.509762 0.983410 -1.089583
vt 0.507812 0.257812
vn -0.220599 0.695291 -0.684037
v 0.595942 0.969628 -0.893781
vt 0.567871 0.255371
vn 0.805373 0.121881 0.580103
v 0.596133 0.969577 -0.892482
vt 0.567871 0.255859
vn -0.553530 0.104284 0.826275
v 0.597709 0.968067 -0.893340
vt 0.568359 0.255859
vn 0.950799 0.172564 0.257298
v 0.583179 1.068754 -0.931285
vt 0.545410 0.253418
vn 0.518100 0.781762 0.347017
v 0.583603 1.070279 -0.930002
vt 0.545410 0.253418
vn 0.428923 0.789643 0.438735
v 0.520070 1.035389 -1.070977
vt 0.517090 0.253906
vn 0.100473 0.988007 0.117252
v 0.519690 1.036642 -1.071707
vt 0.517090 0.254395
vn 0.246137 0.968818 0.028441
v 0.596767 1.016663 -0.899813
vt 0.559570 0.254395
vn 0.015849 0.015849 0.999749
v 0.596588 0.979780 -0.896652
vt 0.565918 0.254883
vn 0.178077 0.028309 0.983609
v 0.592077 1.062859 -0.914223
vt 0.549805 0.253418
vn 0.279658 0.423295 0.861750
v 0.593614 1.056209 -0.910029
vt 0.551270 0.253418
vn 0.156879 0.246512 0.956358
v 0.526008 1.040449 -1.061065
vt 0.519043 0.252930
vn 0.201596 0.957764 0.205052
v 0.531501 1.045610 -1.049220
vt 0.521973 0.252441
vn 0.300219 0.922738 0.241708
v 0.589285 1.065726 -0.920437
vt 0.547852 0.253418
vn 0.461843 0.647439 0.606237
v 0.584111 1.066161 -0.932409
vt 0.545410 0.252930
vn 0.535147 0.784316 0.313791
v 0.586861 1.066214 -0.926231
vt 0.546875 0.252930
vn 0.512194 0.741843 0.432813
v 0.519138 1.023609 -1.075049
vt 0.514648 0.254395
vn -0.036455 0.998035 0.050964
v 0.522180 1.033692 -1.069084
vt 0.517090 0.253418
vn 0.087425 0.985607 0.144692
v 0.573702 1.064253 -0.956035
vt 0.540527 0.252441
vn 0.515936 0.815384 0.262601
v 0.538177 1.049793 -1.034536
vt 0.524902 0.252441
vn 0.363961 0.894059 0.261131
v 0.548850 1.055026 -1.011012
vt 0.529785 0.251953
vn 0.416445 0.870457 0.262445
v 0.516775 1.011489 -1.079371
vt 0.512207 0.255371
vn -0.063769 0.995929 -0.063718
v 0.598346 0.968172 -0.895518
vt 0.568359 0.255371
vn 0.908821 0.187889 0.372482
v 0.561222 1.060181 -0.983717
vt 0.535156 0.251953
vn 0.457120 0.849588 0.263138
v 0.514419 0.996171 -1.083931
vt 0.509766 0.256348
vn -0.094763 0.978807 -0.181539
v 0.594494 1.049639 -0.907599
vt 0.553223 0.253906
vn 0.098204 0.158680 0.982434
v 0.595985 1.033784 -0.903040
vt 0.556152 0.253906
vn 0.069806 0.093092 0.993207
v 0.597312 0.969468 -0.891658
vt 0.567871 0.255859
vn 0.102628 0.000017 0.994720
v 0.511583 0.982113 -1.088054
vt 0.507812 0.257812
vn -0.226076 0.766217 -0.601499
v 0.594506 0.979147 -1.080417
vt 0.517090 0.271484
vn 0.517345 0.598007 -0.612162
v 0.604660 0.978528 -1.074227
vt 0.519043 0.272949
vn 0.592766 0.654426 -0.469419
v 0.624640 0.977105 -1.058540
vt 0.522949 0.275391
vn 0.630072 0.702950 -0.329957
v 0.583000 0.979724 -1.085309
vt 0.515137 0.269531
vn 0.425031 0.580733 -0.694332
v 0.511802 0.981521 -1.090909
vt 0.507812 0.258789
vn 0.087208 0.743118 -0.663454
v 0.648310 0.975206 -1.036296
vt 0.527832 0.278320
vn 0.635775 0.739121 -0.222463
v 0.673354 0.973007 -1.009516
vt 0.534180 0.281250
vn 0.634171 0.762476 -0.128282
v 0.694835 0.971003 -0.984679
vt 0.540039 0.283691
vn 0.635492 0.765569 -0.100272
v 0.700938 0.970433 -0.977621
vt 0.541992 0.284180
vn 0.637181 0.769011 -0.051215
v 0.731300 0.967501 -0.940367
vt 0.550781 0.286133
vn 0.674835 0.737592 0.023600
v 0.755459 0.965134 -0.910314
vt 0.558105 0.286621
vn 0.645638 0.742059 0.180281
v 0.757635 0.964082 -0.893225
vt 0.562500 0.285156
vn -0.888730 0.297446 0.348835
v 0.760388 0.964652 -0.904193
vt 0.559570 0.286621
vn 0.527032 0.737855 0.421672
v 0.763083 0.964320 -0.899676
vt 0.560547 0.286133
vn -0.015821 0.450298 0.892738
v 0.762351 0.964114 -0.895837
vt 0.561523 0.285645
vn -0.634529 0.504323 0.585689
v 0.642393 0.966995 -0.892516
vt 0.567871 0.263672
vn -0.846925 0.023070 0.531212
v 0.648000 0.966820 -0.892421
vt 0.567871 0.265137
vn -0.895998 0.055505 0.440575
v 0.679981 0.965981 -0.891961
vt 0.567383 0.270996
vn -0.900626 0.072616 0.428486
v 0.511802 0.981521 -1.090909
vt 0.507812 0.258789
vn -0.338029 0.493664 -0.801269
v 0.509762 0.983410 -1.089583
vt 0.507812 0.257812
vn -0.338029 0.493664 -0.801269
v 0.511583 0.982113 -1.088054
vt 0.507812 0.257812
vn -0.338029 0.493664 -0.801269
v 0.642393 0.966995 -0.892516
vt 0.567871 0.263672
vn -0.879216 0.055847 0.473139
v 0.694835 0.971003 -0.984679
vt 0.481201 0.573730
vn -0.279779 -0.055924 -0.958434
v 0.695948 0.970433 -0.979570
vt 0.480713 0.573975
vn -0.279779 -0.055924 -0.958434
v 0.700938 0.970433 -0.977621
vt 0.480225 0.573730
vn -0.279779 -0.055924 -0.958434
v 0.731300 0.967501 -0.940367
vt 0.475830 0.573730
vn -0.279909 -0.048964 -0.958777
v 0.700938 0.970433 -0.977621
vt 0.480225 0.573730
vn -0.279909 -0.048964 -0.958777
v 0.679981 0.965981 -0.891961
vt 0.473389 0.579590
vn -0.279909 -0.048964 -0.958777
v 0.648000 0.966820 -0.892421
vt 0.474609 0.581543
vn -0.279909 -0.048964 -0.958777
v 0.716597 0.965058 -0.892090
vt 0.472168 0.577148
vn -0.279909 -0.048964 -0.958777
v 0.755459 0.965134 -0.910314
vt 0.472168 0.573730
vn -0.279909 -0.048964 -0.958777
v 0.752166 0.964206 -0.892966
vt 0.470703 0.574951
vn -0.279909 -0.048964 -0.958777
v 0.760388 0.964652 -0.904193
vt 0.471436 0.573730
vn -0.279909 -0.048964 -0.958777
v 0.757635 0.964082 -0.893225
vt 0.470703 0.574463
vn -0.279909 -0.048964 -0.958777
v 0.763083 0.964320 -0.899676
vt 0.470947 0.573975
vn -0.279909 -0.048964 -0.958777
v 0.762351 0.964114 -0.895837
vt 0.470703 0.574219
vn -0.279909 -0.048964 -0.958777
v 0.668712 0.968685 -0.935297
vt 0.477783 0.578125
vn -0.282402 -0.027888 -0.958891
v 0.635268 0.967630 -0.911699
vt 0.476807 0.581299
vn -0.282484 -0.013948 -0.959171
v 0.644264 0.967115 -0.895557
vt 0.475098 0.581787
vn -0.282402 -0.027888 -0.958891
v 0.635268 0.967630 -0.911699
vt 0.476807 0.581299
vn -0.280175 -0.021010 -0.959719
v 0.639368 0.967313 -0.901014
vt 0.475830 0.581787
vn -0.280175 -0.021010 -0.959719
v 0.644264 0.967115 -0.895557
vt 0.475098 0.581787
vn -0.280175 -0.021010 -0.959719
v 0.633521 0.967988 -0.922185
vt 0.478027 0.581055
vn -0.282437 -0.020920 -0.959058
v 0.633930 0.968505 -0.935714
vt 0.479004 0.580322
vn -0.282437 -0.020920 -0.959058
v 0.637727 0.969111 -0.949772
vt 0.480225 0.579346
vn -0.282437 -0.020920 -0.959058
v 0.680965 0.971223 -0.982356
vt 0.481445 0.574707
vn -0.280005 -0.041989 -0.959080
v 0.656282 0.970331 -0.972088
vt 0.481445 0.576904
vn -0.280065 -0.035003 -0.959343
v 0.695948 0.970433 -0.979570
vt 0.480713 0.573975
vn -0.280065 -0.035003 -0.959343
v 0.645507 0.969727 -0.961908
vt 0.480957 0.578125
vn -0.282437 -0.020920 -0.959058
v 0.648000 0.966820 -0.892421
vt 0.474609 0.581543
vn -0.275651 -0.055792 -0.959637
v 0.644264 0.967115 -0.895557
vt 0.475098 0.581787
vn -0.275651 -0.055792 -0.959637
v 0.642393 0.966995 -0.892516
vt 0.475098 0.582031
vn -0.275651 -0.055792 -0.959637
v 0.578577 0.935160 -0.956556
vt 0.957031 0.759277
vn 0.475626 0.800786 0.364035
v 0.588054 0.934984 -0.952918
vt 0.958496 0.757812
vn 0.489955 0.802236 0.341117
v 0.563775 0.936978 -0.990122
vt 0.949707 0.759399
vn 0.466911 0.786096 0.405027
v 0.575744 0.936532 -0.985106
vt 0.951660 0.757568
vn 0.470453 0.792102 0.388907
v 0.592086 0.935113 -0.926740
vt 0.963867 0.759277
vn 0.502206 0.818473 0.279090
v 0.599000 0.935056 -0.925927
vt 0.964844 0.758057
vn 0.508292 0.821397 0.258739
v 0.597987 0.937252 -0.911500
vt 0.967285 0.759644
vn 0.485005 0.856603 0.176073
v 0.614126 0.936846 -0.910718
vt 0.968750 0.756714
vn 0.481569 0.856540 0.185555
v 0.595142 0.935784 -0.919121
vt 0.965332 0.759399
vn 0.495850 0.840447 0.218588
v 0.635292 0.937804 -0.911622
vt 0.971191 0.752563
vn 0.388503 0.902981 0.183549
v 0.632243 0.935354 -0.910998
vt 0.970703 0.753296
vn 0.381655 0.902791 0.198260
v 0.637269 0.939728 -0.905494
vt 0.972656 0.752930
vn 0.380577 0.923398 0.049977
v 0.634229 0.937799 -0.904008
vt 0.972168 0.753662
vn 0.379181 0.922703 0.069583
v 0.599952 0.940770 -0.904332
vt 0.968750 0.760132
vn 0.422826 0.901809 0.089208
v 0.616316 0.939887 -0.903920
vt 0.970215 0.757080
vn 0.429628 0.898905 0.085969
v 0.600201 0.945486 -0.899587
vt 0.969727 0.760742
vn 0.402722 0.915322 0.000060
v 0.617900 0.944684 -0.899197
vt 0.971680 0.757568
vn 0.412399 0.910921 -0.012248
v 0.599982 0.950873 -0.896744
vt 0.970703 0.761475
vn 0.371582 0.925633 -0.071622
v 0.619297 0.950029 -0.896146
vt 0.972656 0.758057
vn 0.385810 0.917871 -0.093075
v 0.601071 0.957042 -0.894313
vt 0.972168 0.762085
vn 0.362438 0.921862 -0.137145
v 0.620517 0.956279 -0.893768
vt 0.974121 0.758667
vn 0.383154 0.909524 -0.161119
v 0.622690 0.966327 -0.891246
vt 0.976074 0.759644
vn 0.439380 0.807048 -0.394485
v 0.603022 0.966839 -0.891820
vt 0.974121 0.762939
vn 0.438586 0.815733 -0.377122
v 0.596255 0.957197 -0.894376
vt 0.971680 0.762939
vn 0.353544 0.931764 -0.082594
v 0.595311 0.951091 -0.896728
vt 0.970215 0.762329
vn 0.367370 0.929434 -0.034515
v 0.597569 0.966983 -0.892002
vt 0.973145 0.763794
vn 0.485903 0.828393 -0.278683
v 0.597919 0.945932 -0.899458
vt 0.969727 0.761230
vn 0.376602 0.926370 0.003089
v 0.593828 0.946202 -0.899578
vt 0.969238 0.762085
vn 0.363659 0.930795 0.037038
v 0.594977 0.941442 -0.903904
vt 0.968262 0.761230
vn 0.345107 0.931208 0.117275
v 0.591846 0.941554 -0.903924
vt 0.968262 0.761841
vn 0.335653 0.929794 0.151064
v 0.591602 0.937585 -0.910612
vt 0.966797 0.761230
vn 0.311842 0.916992 0.248757
v 0.588794 0.938093 -0.910805
vt 0.966309 0.761841
vn 0.313835 0.910894 0.267918
v 0.588043 0.935883 -0.918194
vt 0.964844 0.761597
vn 0.325175 0.881496 0.342382
v 0.585639 0.936229 -0.918299
vt 0.964844 0.761963
vn 0.345746 0.877316 0.332831
v 0.584420 0.935107 -0.926112
vt 0.963379 0.761719
vn 0.415887 0.831799 0.367626
v 0.582312 0.935350 -0.926163
vt 0.962891 0.762085
vn 0.425311 0.831334 0.357764
v 0.552639 0.937434 -0.993247
vt 0.948242 0.762451
vn 0.465078 0.783072 0.412916
v 0.568980 0.935188 -0.956761
vt 0.956543 0.762207
vn 0.474609 0.803920 0.358411
v 0.554805 0.937057 -0.993362
vt 0.948242 0.761963
vn 0.466911 0.786096 0.405027
v 0.571144 0.934868 -0.956772
vt 0.956543 0.761841
vn 0.469687 0.807333 0.357222
v 0.538271 0.941680 -1.030136
vt 0.940430 0.762207
vn 0.463064 0.764032 0.449252
v 0.536190 0.942101 -1.030031
vt 0.939941 0.762573
vn 0.468337 0.757602 0.454643
v 0.527668 0.946073 -1.050018
vt 0.935547 0.762451
vn 0.479822 0.719746 0.501733
v 0.529697 0.945546 -1.050166
vt 0.935547 0.762085
vn 0.479282 0.732285 0.483784
v 0.519629 0.951253 -1.069289
vt 0.931152 0.761963
vn 0.459557 0.680865 0.570289
v 0.521723 0.950854 -1.069533
vt 0.931152 0.761597
vn 0.476485 0.693470 0.540427
v 0.516010 0.955313 -1.077874
vt 0.929199 0.761963
vn 0.313669 0.529386 0.788266
v 0.519157 0.955108 -1.078084
vt 0.929199 0.761353
vn 0.372183 0.554335 0.744442
v 0.513233 0.962898 -1.085994
vt 0.631836 0.725586
vn 0.921206 0.354671 -0.159961
v 0.516010 0.955313 -1.077874
vt 0.632812 0.727783
vn 0.922500 0.351847 -0.158736
v 0.519083 0.962355 -1.085873
vt 0.633301 0.725586
vn 0.879478 0.334128 -0.338936
v 0.519157 0.955108 -1.078084
vt 0.633301 0.727783
vn 0.882549 0.317330 -0.347001
v 0.510339 0.977248 -1.093763
vt 0.630371 0.722656
vn 0.919897 0.380926 -0.093190
v 0.511633 0.969849 -1.090247
vt 0.631348 0.724121
vn 0.918457 0.380630 -0.107509
v 0.516275 0.976984 -1.093900
vt 0.631836 0.722412
vn 0.890340 0.380255 -0.250401
v 0.517716 0.969622 -1.090334
vt 0.632324 0.723877
vn 0.887006 0.362432 -0.286117
v 0.536600 0.962434 -1.086012
vt 0.636719 0.724609
vn 0.879838 0.385806 -0.277557
v 0.535695 0.976036 -1.093781
vt 0.635742 0.721680
vn 0.883911 0.370697 -0.285106
v 0.548333 0.961973 -1.085143
vt 0.639160 0.724365
vn 0.874032 0.421039 -0.242474
v 0.548384 0.975664 -1.093143
vt 0.638184 0.721191
vn 0.877737 0.399390 -0.264700
v 0.559994 0.961449 -1.083685
vt 0.641602 0.723877
vn 0.862675 0.455902 -0.218965
v 0.571743 0.960833 -1.081320
vt 0.644043 0.723633
vn 0.846141 0.497237 -0.191834
v 0.561010 0.975144 -1.091886
vt 0.640625 0.720703
vn 0.867241 0.435882 -0.240625
v 0.573537 0.974486 -1.089690
vt 0.643066 0.720215
vn 0.851962 0.483089 -0.201956
v 0.585724 0.973772 -1.086080
vt 0.645996 0.719971
vn 0.827469 0.534416 -0.172325
v 0.583142 0.960136 -1.077649
vt 0.646484 0.723389
vn 0.822954 0.545779 -0.157710
v 0.593784 0.959433 -1.072689
vt 0.648926 0.723145
vn 0.796616 0.592267 -0.120928
v 0.597349 0.973111 -1.080896
vt 0.648438 0.719971
vn 0.799710 0.586195 -0.129769
v 0.606680 0.972563 -1.075244
vt 0.650391 0.719971
vn 0.767087 0.635101 -0.090686
v 0.603679 0.958792 -1.066636
vt 0.651367 0.723145
vn 0.765641 0.637375 -0.086867
v 0.621100 0.957776 -1.053425
vt 0.655762 0.723145
vn 0.739932 0.671212 -0.044444
v 0.625727 0.971223 -1.060794
vt 0.655273 0.719971
vn 0.739932 0.671212 -0.044444
v 0.641330 0.955888 -1.034139
vt 0.661621 0.723633
vn 0.716814 0.697254 -0.003873
v 0.649929 0.969087 -1.037791
vt 0.662109 0.720215
vn 0.712941 0.701213 0.003960
v 0.665248 0.953560 -1.008730
vt 0.668945 0.724121
vn 0.702899 0.710885 0.023979
v 0.674876 0.966929 -1.010939
vt 0.669922 0.720703
vn 0.698825 0.714885 0.024156
v 0.637225 0.951032 -1.031827
vt 0.947754 0.741943
vn 0.456844 0.734573 0.501694
v 0.619105 0.952863 -1.049156
vt 0.942871 0.743896
vn 0.442216 0.716434 0.539599
v 0.591893 0.939860 -1.017431
vt 0.946777 0.751831
vn 0.449048 0.746921 0.490373
v 0.548296 0.955940 -1.079407
vt 0.931152 0.755249
vn 0.393341 0.666936 0.632834
v 0.537959 0.956447 -1.079379
vt 0.930176 0.757324
vn 0.379773 0.645627 0.662523
v 0.560045 0.955545 -1.078108
vt 0.932129 0.753174
vn 0.394378 0.688013 0.609183
v 0.557403 0.941461 -1.030675
vt 0.941406 0.757324
vn 0.424996 0.727919 0.538063
v 0.548296 0.955940 -1.079407
vt 0.639648 0.726074
vn 0.853368 0.392352 -0.343253
v 0.537959 0.956447 -1.079379
vt 0.637207 0.726562
vn 0.838907 0.355910 -0.411780
v 0.591997 0.954340 -1.067893
vt 0.648926 0.724609
vn 0.789447 0.597458 -0.140775
v 0.581852 0.954535 -1.072221
vt 0.646484 0.724854
vn 0.813809 0.551331 -0.183706
v 0.637225 0.951032 -1.031827
vt 0.661133 0.724854
vn 0.726147 0.687496 0.007787
v 0.619105 0.952863 -1.049156
vt 0.656250 0.724609
vn 0.743207 0.668495 -0.027517
v 0.571524 0.954844 -1.075401
vt 0.644531 0.725342
vn 0.827385 0.492744 -0.269513
v 0.560045 0.955545 -1.078108
vt 0.642090 0.725586
vn 0.839018 0.436481 -0.324858
v 0.601768 0.953978 -1.062207
vt 0.651367 0.724609
vn 0.766855 0.637701 -0.072601
v 0.524116 0.955458 -1.078941
vt 0.634277 0.727295
vn 0.864527 0.378861 -0.330237
v 0.524116 0.955458 -1.078941
vt 0.929199 0.760254
vn 0.336404 0.524123 0.782386
v 0.528643 0.951244 -1.070401
vt 0.931641 0.760010
vn 0.377510 0.684775 0.623353
v 0.661321 0.949035 -1.007094
vt 0.954102 0.739502
vn 0.465933 0.734809 0.492913
v 0.637370 0.939322 -0.989468
vt 0.956055 0.745605
vn 0.474771 0.757854 0.447493
v 0.661321 0.949035 -1.007094
vt 0.668457 0.725342
vn 0.710245 0.702358 0.047385
v 0.537021 0.945586 -1.050307
vt 0.936035 0.759766
vn 0.379430 0.692685 0.613368
v 0.545386 0.941594 -1.030769
vt 0.940430 0.759644
vn 0.427223 0.752276 0.501560
v 0.609440 0.934814 -0.930294
vt 0.964844 0.755737
vn 0.511713 0.814125 0.274501
v 0.604559 0.934835 -0.947133
vt 0.961426 0.755127
vn 0.500373 0.803530 0.322439
v 0.596432 0.935932 -0.974593
vt 0.955566 0.754517
vn 0.478656 0.794611 0.373472
v 0.566759 0.938513 -1.008442
vt 0.946777 0.757324
vn 0.461380 0.776851 0.428521
v 0.554213 0.938970 -1.011484
vt 0.944824 0.759399
vn 0.450878 0.770277 0.450980
v 0.601768 0.953978 -1.062207
vt 0.938477 0.746338
vn 0.431159 0.708353 0.558872
v 0.581852 0.954535 -1.072221
vt 0.935059 0.749268
vn 0.414837 0.706136 0.573831
v 0.571524 0.954844 -1.075401
vt 0.933594 0.751099
vn 0.447165 0.710215 0.543726
v 0.591997 0.954340 -1.067893
vt 0.937012 0.747803
vn 0.431159 0.708353 0.558872
v 0.619332 0.934715 -0.940930
vt 0.963867 0.752930
vn 0.507557 0.799655 0.320841
v 0.619206 0.935642 -0.963026
vt 0.959473 0.751099
vn 0.487718 0.793737 0.363473
v 0.620907 0.934727 -0.923341
vt 0.967285 0.754272
vn 0.517467 0.817063 0.254236
v 0.642099 0.965848 -0.890814
vt 0.978027 0.756592
vn 0.396029 0.828457 -0.396005
v 0.639912 0.956346 -0.893227
vt 0.976562 0.755493
vn 0.405411 0.892634 -0.197093
v 0.639405 0.944361 -0.900937
vt 0.974121 0.753418
vn 0.336931 0.935090 -0.109927
v 0.636343 0.943084 -0.898742
vt 0.973633 0.754150
vn 0.340985 0.936044 -0.086890
v 0.641117 0.950108 -0.898334
vt 0.975586 0.754028
vn 0.294105 0.919482 -0.260874
v 0.638071 0.949206 -0.895812
vt 0.975098 0.754761
vn 0.297727 0.921678 -0.248733
v 0.643060 0.957163 -0.895796
vt 0.977051 0.754883
vn 0.253783 0.861933 -0.438937
v 0.639912 0.956346 -0.893227
vt 0.976562 0.755493
vn 0.254250 0.893973 -0.369012
v 0.592172 0.937476 -0.996758
vt 0.950684 0.753418
vn 0.471637 0.782938 0.405669
v 0.633533 0.937121 -0.922112
vt 0.968750 0.751831
vn 0.334437 0.902231 0.272270
v 0.630825 0.934428 -0.922291
vt 0.968262 0.752563
vn 0.328310 0.902880 0.277524
v 0.633926 0.937253 -0.935652
vt 0.966309 0.750610
vn 0.262638 0.915375 0.305140
v 0.631200 0.934522 -0.936705
vt 0.965820 0.751221
vn 0.260796 0.916614 0.302993
v 0.637708 0.938050 -0.949727
vt 0.963867 0.748779
vn 0.215729 0.929979 0.297659
v 0.635258 0.935329 -0.951690
vt 0.963379 0.749268
vn 0.207658 0.930917 0.300454
v 0.680917 0.948597 -0.982417
vt 0.960449 0.737549
vn 0.217068 0.918831 0.329593
v 0.679123 0.946739 -0.986719
vt 0.959473 0.737793
vn 0.215066 0.921752 0.322677
v 0.656240 0.941308 -0.972095
vt 0.960938 0.743408
vn 0.207658 0.930917 0.300454
v 0.653983 0.938710 -0.974903
vt 0.959961 0.743652
vn 0.206247 0.931891 0.298399
v 0.626502 0.937018 -0.976714
vt 0.957520 0.748779
vn 0.482493 0.785274 0.388001
v 0.645475 0.939329 -0.961886
vt 0.961914 0.746338
vn 0.187747 0.938779 0.288867
v 0.643032 0.936631 -0.964138
vt 0.961426 0.746582
vn 0.194236 0.938869 0.284249
v 0.675209 0.968240 -1.010852
vt 0.669922 0.720459
vn 0.680905 0.730113 0.057476
v 0.649981 0.970558 -1.037715
vt 0.662109 0.719971
vn 0.698825 0.714885 0.024156
v 0.648310 0.975206 -1.036296
vt 0.662109 0.718994
vn 0.696749 0.716766 0.028046
v 0.673354 0.973007 -1.009516
vt 0.669922 0.719482
vn 0.676124 0.733825 0.066011
v 0.625910 0.972556 -1.060875
vt 0.655273 0.719727
vn 0.728133 0.685337 -0.011634
v 0.624640 0.977105 -1.058540
vt 0.655762 0.718506
vn 0.726336 0.687295 -0.007787
v 0.606550 0.973913 -1.075558
vt 0.650391 0.719482
vn 0.761597 0.645976 -0.051820
v 0.604660 0.978528 -1.074227
vt 0.650391 0.718506
vn 0.764936 0.642046 -0.051475
v 0.597530 0.974462 -1.081075
vt 0.648438 0.719727
vn 0.804679 0.575987 -0.143985
v 0.585841 0.975123 -1.086318
vt 0.645996 0.719727
vn 0.841273 0.498515 -0.209148
v 0.583000 0.979724 -1.085309
vt 0.645020 0.718750
vn 0.853587 0.456498 -0.250998
v 0.594506 0.979147 -1.080417
vt 0.647949 0.718506
vn 0.816301 0.555577 -0.158073
v 0.573614 0.975783 -1.089912
vt 0.643066 0.719971
vn 0.871108 0.402765 -0.280982
v 0.561034 0.976371 -1.092070
vt 0.640625 0.720459
vn 0.879789 0.293263 -0.374122
v 0.558459 0.980617 -1.089927
vt 0.640137 0.719482
vn 0.878889 0.237842 -0.413503
v 0.570881 0.980206 -1.088278
vt 0.642578 0.719238
vn 0.878683 0.349529 -0.325186
v 0.548335 0.976844 -1.093307
vt 0.638184 0.720947
vn 0.880256 0.226504 -0.416947
v 0.535584 0.977205 -1.093954
vt 0.635742 0.721436
vn 0.899124 0.222391 -0.376986
v 0.525977 0.981504 -1.090986
vt 0.633301 0.720703
vn 0.928260 0.240653 -0.283584
v 0.542237 0.981081 -1.090805
vt 0.636719 0.720215
vn 0.900953 0.220481 -0.373728
v 0.516171 0.977935 -1.094015
vt 0.631836 0.722168
vn 0.936198 0.279215 -0.213478
v 0.511802 0.981521 -1.090909
vt 0.629883 0.721924
vn 0.943814 0.278525 -0.177871
v 0.510301 0.978199 -1.093854
vt 0.630371 0.722412
vn 0.956351 0.285030 0.064418
v 0.511802 0.981521 -1.090909
vt 0.629883 0.721924
vn 0.948703 0.307136 -0.075038
v 0.584491 0.939331 -0.918367
vt 0.964844 0.762939
vn 0.447210 0.870846 0.204037
v 0.581038 0.938559 -0.926157
vt 0.962891 0.763062
vn 0.504840 0.828120 0.243627
v 0.586007 0.940453 -0.918873
vt 0.964844 0.763306
vn 0.467121 0.864207 0.186936
v 0.582596 0.939749 -0.926673
vt 0.963379 0.763428
vn 0.513804 0.823871 0.239252
v 0.587804 0.941198 -0.910908
vt 0.966797 0.762695
vn 0.390055 0.902902 0.180625
v 0.589269 0.942136 -0.911401
vt 0.966797 0.763062
vn 0.395102 0.901605 0.176078
v 0.587011 0.939562 -0.910463
vt 0.966309 0.762329
vn 0.346553 0.910654 0.224966
v 0.589835 0.942973 -0.904220
vt 0.967773 0.762329
vn 0.319768 0.932095 0.170137
v 0.591557 0.947046 -0.900561
vt 0.969238 0.762573
vn 0.291250 0.948276 0.126274
v 0.592896 0.951554 -0.897901
vt 0.970215 0.762817
vn 0.260486 0.959411 0.108065
v 0.594042 0.957514 -0.895733
vt 0.971191 0.763428
vn 0.229399 0.968622 0.095640
v 0.595324 0.967131 -0.893568
vt 0.973145 0.764160
vn 0.293594 0.952730 0.078153
v 0.567910 0.938557 -0.955691
vt 0.956543 0.763306
vn 0.507877 0.804977 0.306713
v 0.569610 0.939779 -0.955935
vt 0.956543 0.763672
vn 0.510590 0.804452 0.303568
v 0.551687 0.940676 -0.992216
vt 0.948242 0.763428
vn 0.488784 0.784917 0.380782
v 0.553351 0.941887 -0.992436
vt 0.948242 0.763794
vn 0.488784 0.784917 0.380782
v 0.537299 0.946428 -1.028870
vt 0.940430 0.763916
vn 0.461116 0.760842 0.456608
v 0.535571 0.945282 -1.028765
vt 0.939941 0.763550
vn 0.452482 0.757214 0.471050
v 0.526931 0.949286 -1.048702
vt 0.935547 0.763428
vn 0.400316 0.707240 0.582717
v 0.528723 0.950525 -1.048787
vt 0.935547 0.763916
vn 0.392769 0.709714 0.584841
v 0.518936 0.954235 -1.067086
vt 0.931152 0.763062
vn 0.350259 0.649336 0.675042
v 0.520841 0.955428 -1.066888
vt 0.931152 0.763550
vn 0.344756 0.659378 0.668105
v 0.515078 0.957894 -1.075570
vt 0.929199 0.762939
vn 0.417291 0.626002 0.658779
v 0.516804 0.958876 -1.075242
vt 0.929199 0.763306
vn 0.398949 0.610660 0.684057
v 0.515078 0.957894 -1.075570
vt 0.631836 0.728027
vn -0.672979 0.336426 0.658724
v 0.512128 0.964449 -1.082695
vt 0.630859 0.726318
vn -0.730667 0.300048 0.613267
v 0.516804 0.958876 -1.075242
vt 0.631348 0.728271
vn -0.758893 0.468910 0.451891
v 0.513887 0.965168 -1.082127
vt 0.630859 0.726318
vn -0.791736 0.422834 0.440869
v 0.510521 0.970827 -1.086677
vt 0.630371 0.724854
vn -0.818702 0.275518 0.503803
v 0.512300 0.971247 -1.085913
vt 0.629883 0.725098
vn -0.846340 0.372341 0.380883
v 0.509494 0.976601 -1.089327
vt 0.629883 0.723633
vn -0.857395 0.241817 0.454311
v 0.511427 0.976398 -1.087911
vt 0.629395 0.723877
vn -0.867972 0.314907 0.384004
v 0.509415 0.977634 -1.089599
vt 0.629395 0.723389
vn -0.869170 0.242627 0.430901
v 0.511583 0.982113 -1.088054
vt 0.628906 0.723145
vn -0.872970 0.250923 0.418283
v 0.508148 0.977744 -1.091718
vt 0.629883 0.722900
vn -0.869876 0.084045 0.486058
v 0.511802 0.981521 -1.090909
vt 0.629883 0.721924
vn 0.962310 0.096221 0.254366
v 0.508198 0.976647 -1.091460
vt 0.629883 0.723145
vn 0.863082 0.222964 0.453184
v 0.509335 0.970153 -1.088164
vt 0.630859 0.724609
vn 0.779696 0.191080 0.596291
v 0.510944 0.963361 -1.083953
vt 0.631348 0.726074
vn 0.758113 0.225036 0.612065
v 0.513944 0.956415 -1.076487
vt 0.632324 0.728027
vn 0.724135 0.227780 0.650956
v 0.517626 0.952447 -1.067770
vt 0.931152 0.762573
vn 0.423779 0.665344 0.614597
v 0.513944 0.956415 -1.076487
vt 0.929199 0.762451
vn 0.277033 0.574531 0.770174
v 0.525739 0.947411 -1.049038
vt 0.935547 0.762939
vn 0.440432 0.709096 0.550638
v 0.534449 0.943487 -1.029049
vt 0.939941 0.763062
vn 0.466353 0.754438 0.461886
v 0.550648 0.938807 -0.992337
vt 0.948242 0.762939
vn 0.482493 0.785274 0.388001
v 0.566841 0.936667 -0.955759
vt 0.956543 0.762817
vn 0.486903 0.808263 0.331112
v 0.580126 0.936693 -0.925901
vt 0.962891 0.762573
vn 0.440606 0.839948 0.316787
v 0.596151 0.967288 -0.894991
vt 0.973145 0.764404
vn 0.159964 0.986559 0.033361
v 0.594754 0.957895 -0.897178
vt 0.971191 0.763672
vn -0.080346 0.980843 0.177457
v 0.593599 0.952157 -0.899404
vt 0.969727 0.763184
vn -0.000019 0.959253 0.282548
v 0.592263 0.947907 -0.901919
vt 0.968750 0.762939
vn 0.123839 0.959969 0.251243
v 0.590659 0.944414 -0.905116
vt 0.967773 0.762695
vn 0.283525 0.937004 0.204052
v 0.583638 0.937524 -0.918045
vt 0.964844 0.762451
vn 0.385186 0.881041 0.274589
v 0.592159 0.945186 -0.905826
vt 0.968262 0.763062
vn 0.255344 0.942074 0.217475
v 0.593649 0.948208 -0.902872
vt 0.968750 0.763184
vn 0.082441 0.961783 0.261106
v 0.594985 0.952324 -0.900372
vt 0.969727 0.763550
vn -0.054602 0.972012 0.228500
v 0.596132 0.957962 -0.897991
vt 0.971191 0.764038
vn -0.113314 0.986289 0.119976
v 0.598346 0.968172 -0.895518
vt 0.973145 0.764771
vn 0.133533 0.988316 0.073488
v 0.511802 0.981521 -1.090909
vt 0.628906 0.722656
vn -0.880074 0.243236 0.407807
v 0.600092 0.968109 -0.893649
vt 0.974121 0.763794
vn 0.331321 0.368123 -0.868742
v 0.597709 0.968067 -0.893340
vt 0.973633 0.764160
vn 0.555566 0.268540 -0.786913
v 0.613972 0.967728 -0.893147
vt 0.975586 0.761353
vn 0.273309 0.409939 -0.870202
v 0.642393 0.966995 -0.892516
vt 0.978516 0.756714
vn 0.235910 0.428907 -0.872001
v 0.585856 0.932140 -0.925675
vt 0.963379 0.761108
vn 0.421099 0.846791 0.324993
v 0.572297 0.931871 -0.956207
vt 0.957031 0.761230
vn 0.480510 0.809064 0.338416
v 0.584420 0.935107 -0.926112
vt 0.963379 0.761719
vn 0.436195 0.845139 0.308989
v 0.571144 0.934868 -0.956772
vt 0.956543 0.761841
vn 0.486903 0.808263 0.331112
v 0.522557 0.950308 -1.069584
vt 0.931152 0.761353
vn 0.424101 0.644489 0.636217
v 0.520086 0.954841 -1.077955
vt 0.929199 0.761108
vn 0.330686 0.543276 0.771685
v 0.521723 0.950854 -1.069533
vt 0.931152 0.761597
vn 0.428594 0.638817 0.638921
v 0.519157 0.955108 -1.078084
vt 0.929199 0.761353
vn 0.339119 0.536257 0.772934
v 0.528643 0.951244 -1.070401
vt 0.931641 0.760010
vn 0.372494 0.647681 0.664649
v 0.524116 0.955458 -1.078941
vt 0.929199 0.760254
vn 0.375168 0.570746 0.730410
v 0.526989 0.949960 -1.070537
vt 0.931641 0.760376
vn 0.379773 0.645627 0.662523
v 0.523207 0.954893 -1.078559
vt 0.929688 0.760376
vn 0.358668 0.561936 0.745376
v 0.524854 0.949271 -1.070599
vt 0.931641 0.760864
vn 0.403299 0.647025 0.647077
v 0.521600 0.954571 -1.078309
vt 0.929199 0.760742
vn 0.337688 0.541826 0.769669
v 0.520086 0.954841 -1.077955
vt 0.633789 0.727783
vn 0.917341 0.386707 -0.094564
v 0.519083 0.962355 -1.085873
vt 0.633301 0.725586
vn 0.888260 0.345710 -0.302456
v 0.519157 0.955108 -1.078084
vt 0.633301 0.727783
vn 0.912078 0.346139 -0.219776
v 0.523207 0.954893 -1.078559
vt 0.634277 0.727539
vn 0.799171 0.442324 -0.407032
v 0.524116 0.955458 -1.078941
vt 0.634277 0.727295
vn 0.769314 0.553561 -0.318944
v 0.521600 0.954571 -1.078309
vt 0.633789 0.727539
vn 0.895217 0.344725 -0.282401
v 0.529697 0.945546 -1.050166
vt 0.935547 0.762085
vn 0.436414 0.698268 0.567419
v 0.530725 0.943252 -1.050539
vt 0.936035 0.761597
vn 0.427167 0.697418 0.575444
v 0.535771 0.942869 -1.050884
vt 0.936035 0.760376
vn 0.422094 0.703524 0.571744
v 0.537021 0.945586 -1.050307
vt 0.936035 0.759766
vn 0.423974 0.711022 0.560976
v 0.544488 0.938654 -1.030983
vt 0.940430 0.760254
vn 0.441707 0.749970 0.492382
v 0.545386 0.941594 -1.030769
vt 0.940430 0.759644
vn 0.446523 0.747258 0.492161
v 0.563775 0.936978 -0.990122
vt 0.949707 0.759399
vn 0.472467 0.779595 0.411103
v 0.562385 0.933984 -0.990441
vt 0.949707 0.760132
vn 0.463254 0.779978 0.420750
v 0.577235 0.932106 -0.956901
vt 0.957031 0.760010
vn 0.482072 0.800201 0.356770
v 0.578577 0.935160 -0.956556
vt 0.957031 0.759277
vn 0.488356 0.799585 0.349532
v 0.590675 0.932535 -0.926813
vt 0.963867 0.759766
vn 0.480582 0.827191 0.291199
v 0.592086 0.935113 -0.926740
vt 0.963867 0.759277
vn 0.474399 0.836888 0.273064
v 0.594212 0.934287 -0.919078
vt 0.965332 0.759766
vn 0.389513 0.886321 0.250430
v 0.595142 0.935784 -0.919121
vt 0.965332 0.759399
vn 0.399812 0.885890 0.235264
v 0.597087 0.936187 -0.911094
vt 0.966797 0.759888
vn 0.362322 0.916278 0.170756
v 0.599043 0.940294 -0.904314
vt 0.968750 0.760254
vn 0.358526 0.930949 0.069226
v 0.597987 0.937252 -0.911500
vt 0.967285 0.759644
vn 0.350812 0.921772 0.165128
v 0.599952 0.940770 -0.904332
vt 0.968750 0.760132
vn 0.359085 0.931817 0.052669
v 0.599272 0.945433 -0.899672
vt 0.969727 0.760986
vn 0.384974 0.922744 0.018394
v 0.600201 0.945486 -0.899587
vt 0.969727 0.760742
vn 0.385503 0.922702 -0.002981
v 0.599982 0.950873 -0.896744
vt 0.970703 0.761475
vn 0.372237 0.927367 -0.037815
v 0.597919 0.945932 -0.899458
vt 0.969727 0.761230
vn 0.376528 0.925889 0.030904
v 0.596516 0.940478 -0.904099
vt 0.968262 0.760864
vn 0.344187 0.931992 0.113697
v 0.594977 0.941442 -0.903904
vt 0.968262 0.761230
vn 0.346027 0.930406 0.120872
v 0.597632 0.939987 -0.904261
vt 0.968262 0.760620
vn 0.358815 0.929085 0.089741
v 0.595327 0.935382 -0.910376
vt 0.966797 0.760376
vn 0.349352 0.916237 0.196121
v 0.593376 0.936106 -0.910083
vt 0.966797 0.760742
vn 0.334094 0.920500 0.202636
v 0.591602 0.937585 -0.910612
vt 0.966797 0.761230
vn 0.337113 0.918179 0.208092
v 0.589636 0.933452 -0.917426
vt 0.965332 0.760986
vn 0.358872 0.897169 0.257485
v 0.588043 0.935883 -0.918194
vt 0.964844 0.761597
vn 0.376045 0.888166 0.264106
v 0.574787 0.930255 -0.956479
vt 0.957031 0.760620
vn 0.477269 0.803589 0.355611
v 0.588139 0.930496 -0.926253
vt 0.963379 0.760498
vn 0.467074 0.824539 0.319339
v 0.556059 0.934043 -0.992845
vt 0.948730 0.761353
vn 0.466911 0.786096 0.405027
v 0.554805 0.937057 -0.993362
vt 0.948242 0.761963
vn 0.473425 0.785906 0.397770
v 0.538271 0.941680 -1.030136
vt 0.940430 0.762207
vn 0.459783 0.754064 0.469027
v 0.539621 0.939048 -1.029996
vt 0.940430 0.761597
vn 0.461116 0.760842 0.456608
v 0.533619 0.941207 -1.050408
vt 0.936035 0.760986
vn 0.433316 0.711830 0.552753
v 0.542173 0.936959 -1.030699
vt 0.940430 0.760864
vn 0.445104 0.760383 0.472970
v 0.559162 0.932261 -0.991895
vt 0.949219 0.760742
vn 0.465078 0.783072 0.412916
v 0.591340 0.931746 -0.918909
vt 0.964844 0.760376
vn 0.390186 0.882004 0.264242
v 0.695948 0.970433 -0.979570
vt 0.677246 0.720215
vn 0.062668 0.854996 0.514834
v 0.694835 0.971003 -0.984679
vt 0.676758 0.719727
vn 0.093430 0.841098 0.532753
v 0.697577 0.965606 -0.981148
vt 0.677246 0.721191
vn 0.220789 0.864844 0.450886
v 0.696613 0.966149 -0.986213
vt 0.676270 0.720947
vn 0.158391 0.826810 0.539720
v 0.685786 0.952740 -0.982202
vt 0.675781 0.724609
vn 0.328309 0.896889 0.296316
v 0.684400 0.951468 -0.987159
vt 0.674805 0.724365
vn 0.319577 0.898916 0.299700
v 0.696101 0.964885 -0.986320
vt 0.676270 0.721191
vn 0.280627 0.869061 0.407409
v 0.680917 0.948597 -0.982417
vt 0.675293 0.725586
vn 0.261688 0.923501 0.280474
v 0.679123 0.946739 -0.986719
vt 0.674316 0.725830
vn 0.266705 0.926128 0.266749
v 0.638071 0.949206 -0.895812
vt 0.975098 0.754761
vn 0.404959 0.905960 -0.123466
v 0.636343 0.943084 -0.898742
vt 0.973633 0.754150
vn 0.419269 0.907325 -0.031223
v 0.634229 0.937799 -0.904008
vt 0.972168 0.753662
vn 0.432659 0.898116 0.078695
v 0.632243 0.935354 -0.910998
vt 0.970703 0.753296
vn 0.473047 0.857925 0.200478
v 0.630825 0.934428 -0.922291
vt 0.968262 0.752563
vn 0.515936 0.815384 0.262601
v 0.631200 0.934522 -0.936705
vt 0.965820 0.751221
vn 0.513452 0.798673 0.313827
v 0.635258 0.935329 -0.951690
vt 0.963379 0.749268
vn 0.493920 0.793175 0.356253
v 0.643032 0.936631 -0.964138
vt 0.961426 0.746582
vn 0.490552 0.787710 0.372656
v 0.653983 0.938710 -0.974903
vt 0.959961 0.743652
vn 0.483737 0.757602 0.438221
v 0.679123 0.946739 -0.986719
vt 0.959473 0.737793
vn 0.481351 0.735400 0.476957
v 0.684400 0.951468 -0.987159
vt 0.674805 0.724365
vn 0.696749 0.716766 0.028046
v 0.679123 0.946739 -0.986719
vt 0.674316 0.725830
vn 0.706302 0.706302 0.047708
v 0.696101 0.964885 -0.986320
vt 0.676270 0.721191
vn 0.692415 0.720588 0.036245
v 0.696613 0.966149 -0.986213
vt 0.676270 0.720947
vn 0.671220 0.737493 0.074625
v 0.673354 0.973007 -1.009516
vt 0.674316 0.720459
vn -0.346513 -0.653203 -0.673242
v 0.675209 0.968240 -1.010852
vt 0.669922 0.720459
vn -0.312374 -0.663806 -0.679547
v 0.694835 0.971003 -0.984679
vt 0.676758 0.719727
vn -0.340297 -0.656894 -0.672821
v 0.694835 0.971003 -0.984679
vt 0.676758 0.719727
vn 0.666190 0.741113 0.083316
v 0.642393 0.966995 -0.892516
vt 0.978516 0.756714
vn 0.245774 0.498761 -0.831164
v 0.642099 0.965848 -0.890814
vt 0.978027 0.756592
vn 0.262704 0.238165 -0.935021
v 0.573702 1.064253 -0.956035
vt 0.686035 0.832397
vn 0.522626 0.823115 0.222137
v 0.601064 1.057463 -0.971920
vt 0.685059 0.825562
vn 0.534221 0.822536 0.195044
v 0.561222 1.060181 -0.983717
vt 0.679199 0.831543
vn 0.672296 0.740282 0.000065
v 0.511427 0.976398 -1.087911
vt 0.655762 0.806396
vn 0.858611 0.458517 -0.229235
v 0.553774 0.975437 -1.077470
vt 0.663574 0.807983
vn 0.853576 0.495096 -0.162135
v 0.512300 0.971247 -1.085913
vt 0.656250 0.805176
vn 0.848189 0.499444 -0.176442
v 0.589269 0.942136 -0.911401
vt 0.699219 0.799438
vn -0.407416 0.859020 0.309994
v 0.622796 0.950369 -0.914000
vt 0.698242 0.805542
vn -0.416342 0.900869 0.122857
v 0.592159 0.945186 -0.905826
vt 0.700684 0.800659
vn -0.516795 0.848918 0.110730
v 0.625523 1.037750 -0.912757
vt 0.697754 0.822266
vn -0.813721 0.571088 0.108239
v 0.624086 1.051499 -0.917131
vt 0.696777 0.824829
vn -0.661084 0.586266 0.468253
v 0.594494 1.049639 -0.907599
vt 0.701172 0.827881
vn -0.790292 0.581296 0.193733
v 0.593614 1.056209 -0.910029
vt 0.699707 0.829346
vn -0.683518 0.604905 0.408526
v 0.511583 0.982113 -1.088054
vt 0.655762 0.807983
vn 0.862076 0.433344 -0.262750
v 0.593649 0.948208 -0.902872
vt 0.701660 0.801514
vn -0.560753 0.827740 -0.020053
v 0.589285 1.065726 -0.920437
vt 0.695801 0.831787
vn -0.216841 0.714449 0.665239
v 0.619183 1.061607 -0.924660
vt 0.695312 0.826660
vn -0.181362 0.715209 0.674970
v 0.586861 1.066214 -0.926231
vt 0.693848 0.832275
vn 0.151704 0.780214 0.606838
v 0.594985 0.952324 -0.900372
vt 0.702637 0.802734
vn -0.589907 0.800787 -0.103684
v 0.592077 1.062859 -0.914223
vt 0.697754 0.830933
vn -0.524679 0.629526 0.573070
v 0.596132 0.957962 -0.897991
vt 0.703613 0.804199
vn -0.675786 0.712147 -0.190161
v 0.626719 0.968495 -0.906056
vt 0.699707 0.808960
vn -0.669528 0.669477 -0.321764
v 0.598346 0.968172 -0.895518
vt 0.705078 0.806885
vn -0.699727 0.642464 -0.312446
v 0.522180 1.033692 -1.069084
vt 0.661133 0.819458
vn 0.807584 0.299542 -0.508018
v 0.560464 1.026133 -1.065720
vt 0.665527 0.818237
vn 0.770486 0.484024 -0.414816
v 0.519138 1.023609 -1.075049
vt 0.660645 0.818481
vn 0.815223 0.296476 -0.497507
v 0.596088 0.945278 -0.975469
vt 0.685547 0.803467
vn 0.439686 0.796344 0.415345
v 0.615812 0.944753 -0.928832
vt 0.695312 0.804199
vn 0.180867 0.798125 0.574702
v 0.569610 0.939779 -0.955935
vt 0.687988 0.796875
vn 0.408871 0.802852 0.433881
v 0.582596 0.939749 -0.926673
vt 0.695312 0.797729
vn 0.211233 0.765802 0.607395
v 0.584111 1.066161 -0.932409
vt 0.692383 0.832520
vn 0.434213 0.840743 0.323434
v 0.556076 1.002674 -1.072036
vt 0.664062 0.813477
vn 0.831893 0.349222 -0.431275
v 0.516775 1.011489 -1.079371
vt 0.659668 0.813965
vn 0.871108 0.402765 -0.280982
v 0.553351 0.941887 -0.992436
vt 0.679199 0.796387
vn 0.510614 0.779827 0.362137
v 0.627114 1.005107 -0.906667
vt 0.699219 0.816040
vn -0.841863 0.432897 -0.322284
v 0.596588 0.979780 -0.896652
vt 0.705566 0.810181
vn -0.767290 0.475171 -0.430672
v 0.596767 1.016663 -0.899813
vt 0.705078 0.819702
vn -0.846578 0.517790 -0.123284
v 0.514419 0.996171 -1.083931
vt 0.655762 0.811279
vn 0.862083 0.421681 -0.281065
v 0.571470 0.950660 -1.034133
vt 0.672852 0.803711
vn 0.554821 0.765131 0.326722
v 0.537299 0.946428 -1.028870
vt 0.669922 0.797119
vn 0.575315 0.765638 0.287770
v 0.595985 1.033784 -0.903040
vt 0.703125 0.823975
vn -0.822451 0.566791 0.048189
v 0.567434 1.041631 -1.050059
vt 0.668457 0.821655
vn 0.690087 0.713883 -0.118957
v 0.526008 1.040449 -1.061065
vt 0.659668 0.823120
vn 0.811396 0.326708 -0.484663
v 0.580257 1.048412 -1.020405
vt 0.674805 0.823364
vn 0.615967 0.785357 0.061635
v 0.538177 1.049793 -1.034536
vt 0.666016 0.827759
vn 0.619698 0.783951 0.037358
v 0.531501 1.045610 -1.049220
vt 0.662598 0.825439
vn 0.788542 0.538268 -0.297438
v 0.528723 0.950525 -1.048787
vt 0.665039 0.798096
vn 0.693380 0.705318 0.147481
v 0.559302 0.958431 -1.065731
vt 0.666504 0.804810
vn 0.714872 0.676023 0.178748
v 0.520841 0.955428 -1.066888
vt 0.660645 0.800537
vn 0.757149 0.653243 0.000022
v 0.516804 0.958876 -1.075242
vt 0.658691 0.801880
vn 0.819856 0.569655 -0.057703
v 0.548850 1.055026 -1.011012
vt 0.671875 0.826782
vn 0.591130 0.801148 0.093425
v 0.513887 0.965168 -1.082127
vt 0.657227 0.803711
vn 0.831534 0.546326 -0.100400
v 0.586007 0.940453 -0.918873
vt 0.697266 0.798462
vn -0.155678 0.836558 0.525295
v 0.607577 0.961414 -0.902412
vt 0.759277 0.687500
vn 0.464706 0.810741 0.356017
v 0.598726 0.975966 -0.925678
vt 0.753906 0.690430
vn 0.464706 0.810741 0.356017
v 0.608303 0.967958 -0.901226
vt 0.759277 0.688721
vn 0.464706 0.810741 0.356017
v 0.555520 0.950182 -1.030216
vt 0.730469 0.684814
vn 0.464706 0.810741 0.356017
v 0.558308 0.981454 -1.026229
vt 0.731445 0.691406
vn 0.464706 0.810741 0.356017
v 0.569452 0.945983 -0.995341
vt 0.738281 0.684082
vn 0.464706 0.810741 0.356017
v 0.571698 0.979636 -0.992919
vt 0.738770 0.690918
vn 0.464706 0.810741 0.356017
v 0.547475 1.004469 -1.055189
vt 0.725098 0.696045
vn 0.464706 0.810741 0.356017
v 0.548706 1.014915 -1.053117
vt 0.725586 0.698242
vn 0.464706 0.810741 0.356017
v 0.560378 1.005099 -1.023311
vt 0.732422 0.696289
vn 0.464706 0.810741 0.356017
v 0.561401 1.016791 -1.021869
vt 0.732422 0.698730
vn 0.464706 0.810741 0.356017
v 0.562395 1.028149 -1.020468
vt 0.732910 0.700928
vn 0.464706 0.810741 0.356017
v 0.549885 1.024925 -1.051132
vt 0.726074 0.700195
vn 0.464706 0.810741 0.356017
v 0.564233 1.050599 -1.018013
vt 0.733398 0.705566
vn 0.464706 0.810741 0.356017
v 0.551855 1.043195 -1.047959
vt 0.726562 0.704102
vn 0.464706 0.810741 0.356017
v 0.603465 1.062556 -0.922021
vt 0.754883 0.708252
vn 0.464706 0.810741 0.356017
v 0.604280 1.061689 -0.919923
vt 0.755371 0.708252
vn 0.464706 0.810741 0.356017
v 0.600802 1.038045 -0.926326
vt 0.753906 0.703369
vn 0.464706 0.810741 0.356017
v 0.542309 0.958789 -1.063717
vt 0.723145 0.686523
vn 0.464706 0.810741 0.356017
v 0.540575 0.960929 -1.068209
vt 0.722168 0.687012
vn 0.464706 0.810741 0.356017
v 0.544977 0.983264 -1.059396
vt 0.724121 0.691650
vn 0.464706 0.810741 0.356017
v 0.548673 0.953669 -1.047487
vt 0.726562 0.685547
vn 0.464706 0.810741 0.356017
v 0.606640 0.955869 -0.904214
vt 0.758789 0.686279
vn 0.464706 0.810741 0.356017
v 0.605649 0.952054 -0.906311
vt 0.758301 0.685547
vn 0.464706 0.810741 0.356017
v 0.546106 1.034743 -1.061400
vt 0.723633 0.702148
vn 0.464706 0.810741 0.356017
v 0.547301 1.037467 -1.058697
vt 0.724121 0.702881
vn 0.464706 0.810741 0.356017
v 0.538159 0.994482 -1.077316
vt 0.720215 0.693848
vn 0.464706 0.810741 0.356017
v 0.539485 1.004391 -1.074960
vt 0.720703 0.696045
vn 0.464706 0.810741 0.356017
v 0.546232 0.993921 -1.057282
vt 0.724609 0.693848
vn 0.464706 0.810741 0.356017
v 0.606137 1.055931 -0.914790
vt 0.756348 0.707031
vn 0.464706 0.810741 0.356017
v 0.606579 1.053042 -0.913427
vt 0.756836 0.706543
vn 0.464706 0.810741 0.356017
v 0.602589 1.063034 -0.924235
vt 0.754395 0.708496
vn 0.464706 0.810741 0.356017
v 0.602309 0.945987 -0.914014
vt 0.756836 0.684326
vn 0.464706 0.810741 0.356017
v 0.601044 0.945051 -0.917058
vt 0.755859 0.684082
vn 0.464706 0.810741 0.356017
v 0.576681 1.056496 -0.987752
vt 0.740234 0.707031
vn 0.464706 0.810741 0.356017
v 0.575109 1.031425 -0.989305
vt 0.739746 0.701660
vn 0.464706 0.810741 0.356017
v 0.542780 1.023626 -1.068598
vt 0.722168 0.699951
vn 0.464706 0.810741 0.356017
v 0.544316 1.029474 -1.065342
vt 0.722656 0.701172
vn 0.464706 0.810741 0.356017
v 0.605552 1.058618 -0.916488
vt 0.755859 0.707520
vn 0.464706 0.810741 0.356017
v 0.548621 1.039758 -1.055643
vt 0.725098 0.703369
vn 0.464706 0.810741 0.356017
v 0.538262 0.967168 -1.074516
vt 0.720703 0.688232
vn 0.464706 0.810741 0.356017
v 0.537459 0.971084 -1.076870
vt 0.720215 0.688965
vn 0.464706 0.810741 0.356017
v 0.607857 1.040041 -0.909050
vt 0.757812 0.703857
vn 0.464706 0.810741 0.356017
v 0.608697 1.023920 -0.905467
vt 0.758301 0.700439
vn 0.464706 0.810741 0.356017
v 0.600283 1.022533 -0.926164
vt 0.753906 0.699951
vn 0.464706 0.810741 0.356017
v 0.537060 0.984420 -1.079100
vt 0.719727 0.691895
vn 0.464706 0.810741 0.356017
v 0.608743 0.974631 -0.900759
vt 0.759766 0.690186
vn 0.464706 0.810741 0.356017
v 0.573417 1.005736 -0.991098
vt 0.739258 0.696533
vn 0.464706 0.810741 0.356017
v 0.574270 1.018691 -0.990194
vt 0.739746 0.699219
vn 0.464706 0.810741 0.356017
v 0.607146 1.048009 -0.911554
vt 0.757324 0.705322
vn 0.464706 0.810741 0.356017
v 0.601654 1.063225 -0.926566
vt 0.753906 0.708496
vn 0.464706 0.810741 0.356017
v 0.550009 1.041529 -1.052374
vt 0.725586 0.703613
vn 0.464706 0.810741 0.356017
v 0.589164 1.061000 -0.957274
vt 0.747070 0.708008
vn 0.464706 0.810741 0.356017
v 0.587925 1.034727 -0.957891
vt 0.747070 0.702393
vn 0.464706 0.810741 0.356017
v 0.609093 0.991157 -0.901434
vt 0.759277 0.693604
vn 0.464706 0.810741 0.356017
v 0.599246 0.991533 -0.925840
vt 0.753906 0.693604
vn 0.464706 0.810741 0.356017
v 0.599440 0.944317 -0.920958
vt 0.754883 0.683838
vn 0.464706 0.810741 0.356017
v 0.597676 0.943873 -0.925284
vt 0.753906 0.683838
vn 0.464706 0.810741 0.356017
v 0.583521 0.943915 -0.960324
vt 0.746094 0.683594
vn 0.464706 0.810741 0.356017
v 0.585167 0.977807 -0.959409
vt 0.746582 0.690674
vn 0.464706 0.810741 0.356017
v 0.539310 0.963730 -1.071601
vt 0.721191 0.687500
vn 0.464706 0.810741 0.356017
v 0.604997 1.060328 -0.918021
vt 0.755859 0.708008
vn 0.464706 0.810741 0.356017
v 0.536981 0.975339 -1.078449
vt 0.719727 0.689941
vn 0.464706 0.810741 0.356017
v 0.536814 0.979811 -1.079280
vt 0.719727 0.690918
vn 0.464706 0.810741 0.356017
v 0.604596 0.949332 -0.908663
vt 0.757812 0.685059
vn 0.464706 0.810741 0.356017
v 0.540956 1.014194 -1.072231
vt 0.721191 0.697998
vn 0.464706 0.810741 0.356017
v 0.603438 0.947304 -0.911340
vt 0.757324 0.684570
vn 0.464706 0.810741 0.356017
v 0.609023 1.007581 -0.903139
vt 0.759277 0.697021
vn 0.464706 0.810741 0.356017
v 0.599765 1.007022 -0.926002
vt 0.753906 0.696777
vn 0.464706 0.810741 0.356017
v 0.587241 1.020607 -0.958267
vt 0.746582 0.699707
vn 0.464706 0.810741 0.356017
v 0.586551 1.006377 -0.958647
vt 0.746582 0.696533
vn 0.464706 0.810741 0.356017
v 0.585861 0.992136 -0.959027
vt 0.746582 0.693604
vn 0.464706 0.810741 0.356017
v 0.572560 0.992735 -0.992005
vt 0.739258 0.693848
vn 0.464706 0.810741 0.356017
v 0.559348 0.993330 -1.024764
vt 0.731934 0.693848
vn 0.464706 0.810741 0.356017
v 0.635292 0.937804 -0.911622
vt 0.471436 0.568604
vn -0.996765 0.007245 -0.080045
v 0.637269 0.939728 -0.905494
vt 0.470947 0.568848
vn -0.154179 0.000000 -0.988043
v 0.635268 0.967630 -0.911699
vt 0.471436 0.571533
vn -0.108024 0.028774 -0.993732
v 0.639405 0.944361 -0.900937
vt 0.470459 0.569336
vn -0.167814 0.006978 -0.985794
v 0.639368 0.967313 -0.901014
vt 0.470459 0.571533
vn -0.191920 0.041838 -0.980518
v 0.641117 0.950108 -0.898334
vt 0.470215 0.569824
vn -0.253138 0.013862 -0.967331
v 0.643060 0.957163 -0.895796
vt 0.470215 0.570557
vn -0.275871 0.041890 -0.960282
v 0.644264 0.967115 -0.895557
vt 0.470215 0.571533
vn -0.275698 0.055794 -0.959624
v 0.633533 0.937121 -0.922112
vt 0.472168 0.568604
vn -0.999852 0.007679 -0.015374
v 0.633521 0.967988 -0.922185
vt 0.472168 0.571533
vn -0.023270 0.023238 -0.999459
v 0.633926 0.937253 -0.935652
vt 0.473389 0.568604
vn 0.067038 0.000000 -0.997750
v 0.633930 0.968505 -0.935714
vt 0.473389 0.571533
vn 0.070460 0.007417 -0.997487
v 0.637708 0.938050 -0.949727
vt 0.474609 0.568848
vn 0.174587 0.000000 -0.984642
v 0.637727 0.969111 -0.949772
vt 0.474609 0.571533
vn 0.177379 0.000000 -0.984143
v 0.680917 0.948597 -0.982417
vt 0.479492 0.569824
vn 0.484968 0.000000 -0.874532
v 0.656240 0.941308 -0.972095
vt 0.477295 0.569092
vn 0.917974 0.007586 -0.396568
v 0.680965 0.971223 -0.982356
vt 0.479492 0.572021
vn 0.886354 0.051142 -0.460175
v 0.656282 0.970331 -0.972088
vt 0.477295 0.571777
vn 0.927575 0.037576 -0.371744
v 0.645475 0.939329 -0.961886
vt 0.476074 0.568848
vn 0.278419 0.000000 -0.960460
v 0.645507 0.969727 -0.961908
vt 0.476074 0.571533
vn 0.963881 0.013854 -0.265974
v 0.697577 0.965606 -0.981148
vt 0.480469 0.571533
vn 0.817787 0.204459 -0.537978
v 0.685786 0.952740 -0.982202
vt 0.479736 0.570068
vn 0.795105 0.153548 -0.586712
v 0.695948 0.970433 -0.979570
vt 0.480225 0.572021
vn 0.830132 0.223539 -0.510794
v 0.644264 0.967115 -0.895557
vt 0.978027 0.755859
vn 0.161125 0.851660 -0.498712
usemtl Paint
f 3/3/3 2/2/2 1/1/1
f 4/4/4 2/2/2 3/3/3
f 6/6/6 1/1/1 5/5/5
f 3/3/3 1/1/1 6/6/6
f 8/8/8 5/5/5 7/7/7
f 6/6/6 5/5/5 8/8/8
f 9/9/9 1/1/1 2/2/2
f 5/5/5 1/1/1 9/9/9
f 11/11/11 10/10/10 7/7/7
f 12/12/12 10/10/10 11/11/11
f 9/9/9 7/7/7 5/5/5
f 11/11/11 7/7/7 9/9/9
f 13/13/13 7/7/7 10/10/10
f 8/8/8 7/7/7 13/13/13
f 14/14/14 9/9/9 2/2/2
f 15/15/15 9/9/9 14/14/14
f 4/4/4 14/14/14 2/2/2
f 16/16/16 14/14/14 4/4/4
f 17/17/17 12/12/12 11/11/11
f 18/18/18 12/12/12 17/17/17
f 15/15/15 11/11/11 9/9/9
f 17/17/17 11/11/11 15/15/15
f 20/20/20 10/10/10 19/19/19
f 13/13/13 10/10/10 20/20/20
f 22/22/22 19/19/19 21/21/21
f 20/20/20 19/19/19 22/22/22
f 10/10/10 23/23/23 19/19/19
f 25/25/25 24/24/24 18/18/18
f 26/26/26 24/24/24 25/25/25
f 28/28/28 21/21/21 27/27/27
f 19/19/19 29/29/29 21/21/21
f 23/23/23 29/29/29 19/19/19
f 26/26/26 30/30/30 24/24/24
f 31/31/31 30/30/30 26/26/26
f 32/32/32 29/29/29 23/23/23
f 33/33/33 29/29/29 32/32/32
f 34/34/34 21/21/21 29/29/29
f 27/27/27 21/21/21 34/34/34
f 35/35/35 29/29/29 33/33/33
f 34/34/34 29/29/29 35/35/35
f 30/30/30 35/35/35 33/33/33
f 36/36/36 35/35/35 30/30/30
f 39/39/39 38/38/38 37/37/37
f 40/40/40 38/38/38 39/39/39
f 40/40/40 41/41/41 38/38/38
f 42/42/42 41/41/41 40/40/40
f 42/42/42 43/43/43 41/41/41
f 44/44/44 43/43/43 42/42/42
f 44/44/44 3/3/3 43/43/43
f 45/45/45 3/3/3 44/44/44
f 46/46/46 3/3/3 45/45/45
f 4/4/4 3/3/3 46/46/46
f 47/47/47 4/4/4 46/46/46
f 16/16/16 4/4/4 47/47/47
f 43/43/43 3/3/3 6/6/6
f 41/41/41 6/6/6 8/8/8
f 43/43/43 6/6/6 41/41/41
f 38/38/38 8/8/8 13/13/13
f 41/41/41 8/8/8 38/38/38
f 37/37/37 48/48/48 39/39/39
f 49/49/49 48/48/48 37/37/37
f 20/20/20 49/49/49 37/37/37
f 22/22/22 49/49/49 20/20/20
f 37/37/37 13/13/13 20/20/20
f 38/38/38 13/13/13 37/37/37
f 28/28/28 22/22/22 21/21/21
f 50/50/50 22/22/22 28/28/28
f 51/51/51 48/48/48 49/49/49
f 52/52/52 48/48/48 51/51/51
f 50/50/50 49/49/49 22/22/22
f 51/51/51 49/49/49 50/50/50
f 54/54/54 46/46/46 53/53/53
f 47/47/47 46/46/46 54/54/54
f 56/56/56 53/53/53 55/55/55
f 54/54/54 53/53/53 56/56/56
f 58/58/58 55/55/55 57/57/57
f 56/56/56 55/55/55 58/58/58
f 60/60/60 57/57/57 59/59/59
f 58/58/58 57/57/57 60/60/60
f 61/61/61 46/46/46 45/45/45
f 53/53/53 46/46/46 61/61/61
f 59/59/59 63/63/63 62/62/62
f 57/57/57 63/63/63 59/59/59
f 57/57/57 64/64/64 63/63/63
f 55/55/55 64/64/64 57/57/57
f 55/55/55 61/61/61 64/64/64
f 53/53/53 61/61/61 55/55/55
f 62/62/62 65/65/65 59/59/59
f 66/66/66 65/65/65 62/62/62
f 45/45/45 67/67/67 61/61/61
f 44/44/44 67/67/67 45/45/45
f 67/67/67 64/64/64 61/61/61
f 68/68/68 64/64/64 67/67/67
f 68/68/68 63/63/63 64/64/64
f 69/69/69 63/63/63 68/68/68
f 69/69/69 62/62/62 63/63/63
f 70/70/70 62/62/62 69/69/69
f 73/73/73 72/72/72 71/71/71
f 74/74/74 72/72/72 73/73/73
f 75/75/75 42/42/42 40/40/40
f 76/76/76 42/42/42 75/75/75
f 77/77/77 76/76/76 75/75/75
f 78/78/78 76/76/76 77/77/77
f 79/79/79 78/78/78 77/77/77
f 80/80/80 78/78/78 79/79/79
f 81/81/81 72/72/72 74/74/74
f 70/70/70 72/72/72 81/81/81
f 69/69/69 78/78/78 80/80/80
f 68/68/68 78/78/78 69/69/69
f 68/68/68 76/76/76 78/78/78
f 67/67/67 76/76/76 68/68/68
f 67/67/67 42/42/42 76/76/76
f 44/44/44 42/42/42 67/67/67
f 84/84/84 83/83/83 82/82/82
f 85/85/85 83/83/83 84/84/84
f 84/84/84 86/86/86 85/85/85
f 87/87/87 86/86/86 84/84/84
f 88/88/88 39/39/39 48/48/48
f 89/89/89 39/39/39 88/88/88
f 90/90/90 89/89/89 88/88/88
f 91/91/91 89/89/89 90/90/90
f 92/92/92 91/91/91 90/90/90
f 93/93/93 91/91/91 92/92/92
f 94/94/94 48/48/48 52/52/52
f 88/88/88 48/48/48 94/94/94
f 90/90/90 94/94/94 95/95/95
f 88/88/88 94/94/94 90/90/90
f 92/92/92 95/95/95 96/96/96
f 90/90/90 95/95/95 92/92/92
f 87/87/87 71/71/71 86/86/86
f 73/73/73 71/71/71 87/87/87
f 79/79/79 91/91/91 93/93/93
f 77/77/77 91/91/91 79/79/79
f 91/91/91 75/75/75 89/89/89
f 77/77/77 75/75/75 91/91/91
f 75/75/75 39/39/39 89/89/89
f 40/40/40 39/39/39 75/75/75
f 99/99/99 98/98/98 97/97/97
f 100/100/100 98/98/98 99/99/99
f 100/100/100 101/101/101 98/98/98
f 102/102/102 101/101/101 100/100/100
f 102/102/102 103/103/103 101/101/101
f 104/104/104 103/103/103 102/102/102
f 107/107/107 106/106/106 105/105/105
f 108/108/108 106/106/106 107/107/107
f 107/107/107 109/109/109 108/108/108
f 110/110/110 109/109/109 107/107/107
f 110/110/110 97/97/97 109/109/109
f 99/99/99 97/97/97 110/110/110
f 111/111/111 103/103/103 104/104/104
f 112/112/112 103/103/103 111/111/111
f 113/113/113 112/112/112 111/111/111
f 114/114/114 112/112/112 113/113/113
f 116/116/116 65/65/65 115/115/115
f 117/117/117 65/65/65 116/116/116
f 114/114/114 118/118/118 112/112/112
f 119/119/119 118/118/118 114/114/114
f 66/66/66 115/115/115 65/65/65
f 120/120/120 115/115/115 66/66/66
f 118/118/118 103/103/103 112/112/112
f 121/121/121 103/103/103 118/118/118
f 122/122/122 73/73/73 87/87/87
f 123/123/123 73/73/73 122/122/122
f 109/109/109 125/125/125 124/124/124
f 97/97/97 125/125/125 109/109/109
f 126/126/126 87/87/87 84/84/84
f 122/122/122 87/87/87 126/126/126
f 108/108/108 124/124/124 127/127/127
f 109/109/109 124/124/124 108/108/108
f 126/126/126 82/82/82 128/128/128
f 84/84/84 82/82/82 126/126/126
f 108/108/108 129/129/129 106/106/106
f 127/127/127 129/129/129 108/108/108
f 130/130/130 66/66/66 81/81/81
f 120/120/120 66/66/66 130/130/130
f 101/101/101 121/121/121 131/131/131
f 103/103/103 121/121/121 101/101/101
f 132/132/132 81/81/81 74/74/74
f 130/130/130 81/81/81 132/132/132
f 98/98/98 131/131/131 133/133/133
f 101/101/101 131/131/131 98/98/98
f 123/123/123 74/74/74 73/73/73
f 132/132/132 74/74/74 123/123/123
f 97/97/97 133/133/133 125/125/125
f 98/98/98 133/133/133 97/97/97
f 125/125/125 132/132/132 123/123/123
f 133/133/133 132/132/132 125/125/125
f 133/133/133 130/130/130 132/132/132
f 131/131/131 130/130/130 133/133/133
f 131/131/131 120/120/120 130/130/130
f 121/121/121 120/120/120 131/131/131
f 127/127/127 128/128/128 129/129/129
f 126/126/126 128/128/128 127/127/127
f 127/127/127 122/122/122 126/126/126
f 124/124/124 122/122/122 127/127/127
f 124/124/124 123/123/123 122/122/122
f 125/125/125 123/123/123 124/124/124
f 121/121/121 115/115/115 120/120/120
f 118/118/118 115/115/115 121/121/121
f 119/119/119 115/115/115 118/118/118
f 116/116/116 115/115/115 119/119/119
f 86/86/86 79/79/79 93/93/93
f 71/71/71 79/79/79 86/86/86
f 85/85/85 93/93/93 92/92/92
f 86/86/86 93/93/93 85/85/85
f 85/85/85 96/96/96 83/83/83
f 92/92/92 96/96/96 85/85/85
f 70/70/70 80/80/80 72/72/72
f 69/69/69 80/80/80 70/70/70
f 71/71/71 80/80/80 79/79/79
f 72/72/72 80/80/80 71/71/71
f 70/70/70 66/66/66 62/62/62
f 81/81/81 66/66/66 70/70/70
f 117/117/117 59/59/59 65/65/65
f 60/60/60 59/59/59 117/117/117
f 136/136/136 135/135/135 134/134/134
f 113/113/113 135/135/135 136/136/136
f 139/139/139 138/138/138 137/137/137
f 140/140/140 138/138/138 139/139/139
f 142/142/142 105/105/105 141/141/141
f 107/107/107 105/105/105 142/142/142
f 145/145/145 144/144/144 143/143/143
f 146/146/146 144/144/144 145/145/145
f 146/146/146 141/141/141 144/144/144
f 142/142/142 141/141/141 146/146/146
f 146/146/146 147/147/147 142/142/142
f 140/140/140 147/147/147 146/146/146
f 104/104/104 137/137/137 111/111/111
f 139/139/139 137/137/137 104/104/104
f 104/104/104 148/148/148 139/139/139
f 102/102/102 148/148/148 104/104/104
f 142/142/142 110/110/110 107/107/107
f 147/147/147 110/110/110 142/142/142
f 147/147/147 99/99/99 110/110/110
f 148/148/148 99/99/99 147/147/147
f 102/102/102 99/99/99 148/148/148
f 100/100/100 99/99/99 102/102/102
f 140/140/140 145/145/145 138/138/138
f 146/146/146 145/145/145 140/140/140
f 149/149/149 138/138/138 145/145/145
f 150/150/150 138/138/138 149/149/149
f 150/150/150 137/137/137 138/138/138
f 135/135/135 137/137/137 150/150/150
f 147/147/147 139/139/139 148/148/148
f 140/140/140 139/139/139 147/147/147
f 153/153/153 152/152/152 151/151/151
f 154/154/154 152/152/152 153/153/153
f 157/157/157 156/156/156 155/155/155
f 158/158/158 156/156/156 157/157/157
f 159/159/159 154/154/154 153/153/153
f 160/160/160 154/154/154 159/159/159
f 163/163/163 162/162/162 161/161/161
f 164/164/164 162/162/162 163/163/163
f 151/151/151 166/166/166 165/165/165
f 152/152/152 166/166/166 151/151/151
f 169/169/169 168/168/168 167/167/167
f 170/170/170 168/168/168 169/169/169
f 171/171/171 160/160/160 159/159/159
f 172/172/172 160/160/160 171/171/171
f 161/161/161 174/174/174 173/173/173
f 162/162/162 174/174/174 161/161/161
f 175/175/175 170/170/170 169/169/169
f 176/176/176 170/170/170 175/175/175
f 173/173/173 178/178/178 177/177/177
f 174/174/174 178/178/178 173/173/173
f 179/179/179 158/158/158 157/157/157
f 180/180/180 158/158/158 179/179/179
f 167/167/167 164/164/164 163/163/163
f 168/168/168 164/164/164 167/167/167
f 165/165/165 182/182/182 181/181/181
f 166/166/166 182/182/182 165/165/165
f 183/183/183 176/176/176 175/175/175
f 184/184/184 176/176/176 183/183/183
f 185/185/185 155/155/155 156/156/156
f 186/186/186 155/155/155 185/185/185
f 189/189/189 188/188/188 187/187/187
f 177/177/177 191/191/191 190/190/190
f 178/178/178 191/191/191 177/177/177
f 190/190/190 172/172/172 171/171/171
f 191/191/191 172/172/172 190/190/190
f 181/181/181 193/193/193 192/192/192
f 182/182/182 193/193/193 181/181/181
f 194/194/194 183/183/183 175/175/175
f 195/195/195 183/183/183 194/194/194
f 196/196/196 163/163/163 161/161/161
f 197/197/197 163/163/163 196/196/196
f 198/198/198 165/165/165 181/181/181
f 199/199/199 165/165/165 198/198/198
f 200/200/200 161/161/161 173/173/173
f 196/196/196 161/161/161 200/200/200
f 201/201/201 177/177/177 190/190/190
f 202/202/202 177/177/177 201/201/201
f 203/203/203 192/192/192 179/179/179
f 204/204/204 192/192/192 203/203/203
f 205/205/205 190/190/190 171/171/171
f 201/201/201 190/190/190 205/205/205
f 206/206/206 153/153/153 151/151/151
f 207/207/207 153/153/153 206/206/206
f 208/208/208 179/179/179 157/157/157
f 203/203/203 179/179/179 208/208/208
f 209/209/209 183/183/183 195/195/195
f 187/187/187 183/183/183 209/209/209
f 207/207/207 159/159/159 153/153/153
f 210/210/210 159/159/159 207/207/207
f 211/211/211 157/157/157 155/155/155
f 208/208/208 157/157/157 211/211/211
f 210/210/210 171/171/171 159/159/159
f 205/205/205 171/171/171 210/210/210
f 212/212/212 169/169/169 167/167/167
f 213/213/213 169/169/169 212/212/212
f 197/197/197 167/167/167 163/163/163
f 212/212/212 167/167/167 197/197/197
f 204/204/204 181/181/181 192/192/192
f 198/198/198 181/181/181 204/204/204
f 213/213/213 175/175/175 169/169/169
f 194/194/194 175/175/175 213/213/213
f 202/202/202 173/173/173 177/177/177
f 200/200/200 173/173/173 202/202/202
f 192/192/192 180/180/180 179/179/179
f 193/193/193 180/180/180 192/192/192
f 199/199/199 151/151/151 165/165/165
f 206/206/206 151/151/151 199/199/199
f 214/214/214 145/145/145 143/143/143
f 149/149/149 145/145/145 214/214/214
f 155/155/155 215/215/215 211/211/211
f 186/186/186 215/215/215 155/155/155
f 187/187/187 184/184/184 183/183/183
f 188/188/188 184/184/184 187/187/187
f 135/135/135 111/111/111 137/137/137
f 113/113/113 111/111/111 135/135/135
f 32/32/32 30/30/30 33/33/33
f 24/24/24 30/30/30 32/32/32
f 18/18/18 32/32/32 12/12/12
f 24/24/24 32/32/32 18/18/18
f 14/14/14 216/216/216 15/15/15
f 217/217/217 216/216/216 14/14/14
f 14/14/14 218/218/218 217/217/217
f 16/16/16 218/218/218 14/14/14
f 17/17/17 25/25/25 18/18/18
f 219/219/219 25/25/25 17/17/17
f 15/15/15 219/219/219 17/17/17
f 216/216/216 219/219/219 15/15/15
f 30/30/30 220/220/220 36/36/36
f 31/31/31 220/220/220 30/30/30
f 16/16/16 221/221/221 218/218/218
f 47/47/47 221/221/221 16/16/16
f 47/47/47 222/222/222 221/221/221
f 54/54/54 222/222/222 47/47/47
f 54/54/54 223/223/223 222/222/222
f 56/56/56 223/223/223 54/54/54
f 56/56/56 225/225/225 224/224/224
f 58/58/58 225/225/225 56/56/56
f 58/58/58 226/226/226 225/225/225
f 60/60/60 226/226/226 58/58/58
f 113/113/113 227/227/227 114/114/114
f 136/136/136 227/227/227 113/113/113
f 116/116/116 228/228/228 117/117/117
f 229/229/229 228/228/228 116/116/116
f 114/114/114 230/230/230 119/119/119
f 227/227/227 230/230/230 114/114/114
f 119/119/119 229/229/229 116/116/116
f 230/230/230 229/229/229 119/119/119
f 60/60/60 228/228/228 226/226/226
f 117/117/117 228/228/228 60/60/60
f 149/149/149 189/189/189 231/231/231
f 214/214/214 189/189/189 149/149/149
f 233/233/233 149/149/149 232/232/232
f 150/150/150 149/149/149 233/233/233
f 150/150/150 134/134/134 135/135/135
f 233/233/233 134/134/134 150/150/150
f 185/185/185 220/220/220 186/186/186
f 36/36/36 220/220/220 185/185/185
f 209/209/209 189/189/189 187/187/187
f 214/214/214 184/184/184 188/188/188
f 143/143/143 184/184/184 214/214/214
f 185/185/185 35/35/35 36/36/36
f 156/156/156 35/35/35 185/185/185
f 193/193/193 27/27/27 180/180/180
f 28/28/28 27/27/27 193/193/193
f 143/143/143 176/176/176 184/184/184
f 144/144/144 176/176/176 143/143/143
f 182/182/182 28/28/28 193/193/193
f 50/50/50 28/28/28 182/182/182
f 191/191/191 96/96/96 172/172/172
f 83/83/83 96/96/96 191/191/191
f 178/178/178 83/83/83 191/191/191
f 82/82/82 83/83/83 178/178/178
f 189/189/189 214/214/214 188/188/188
f 166/166/166 50/50/50 182/182/182
f 51/51/51 50/50/50 166/166/166
f 168/168/168 106/106/106 164/164/164
f 105/105/105 106/106/106 168/168/168
f 180/180/180 34/34/34 158/158/158
f 27/27/27 34/34/34 180/180/180
f 174/174/174 82/82/82 178/178/178
f 128/128/128 82/82/82 174/174/174
f 176/176/176 141/141/141 170/170/170
f 144/144/144 141/141/141 176/176/176
f 162/162/162 128/128/128 174/174/174
f 129/129/129 128/128/128 162/162/162
f 172/172/172 95/95/95 160/160/160
f 96/96/96 95/95/95 172/172/172
f 170/170/170 105/105/105 168/168/168
f 141/141/141 105/105/105 170/170/170
f 152/152/152 51/51/51 166/166/166
f 52/52/52 51/51/51 152/152/152
f 164/164/164 129/129/129 162/162/162
f 106/106/106 129/129/129 164/164/164
f 160/160/160 94/94/94 154/154/154
f 95/95/95 94/94/94 160/160/160
f 158/158/158 35/35/35 156/156/156
f 34/34/34 35/35/35 158/158/158
f 154/154/154 52/52/52 152/152/152
f 94/94/94 52/52/52 154/154/154
f 223/223/223 56/56/56 224/224/224
f 12/12/12 23/23/23 10/10/10
f 32/32/32 23/23/23 12/12/12
f 236/236/236 235/235/235 234/234/234
f 149/149/149 237/237/237 232/232/232
f 240/240/240 239/239/239 238/238/238
f 243/243/243 242/242/242 241/241/241
f 244/244/244 242/242/242 243/243/243
f 241/241/241 245/245/245 243/243/243
f 246/246/246 245/245/245 241/241/241
f 246/246/246 247/247/247 245/245/245
f 248/248/248 247/247/247 246/246/246
f 248/248/248 249/249/249 247/247/247
f 250/250/250 249/249/249 248/248/248
f 251/251/251 249/249/249 250/250/250
f 254/254/254 253/253/253 252/252/252
f 257/257/257 256/256/256 255/255/255
f 252/252/252 253/253/253 258/258/258
f 252/252/252 258/258/258 259/259/259
f 252/252/252 259/259/259 260/260/260
f 263/263/263 262/262/262 261/261/261
f 252/252/252 262/262/262 263/263/263
f 252/252/252 260/260/260 264/264/264
f 252/252/252 264/264/264 262/262/262
f 244/244/244 254/254/254 252/252/252
f 242/242/242 252/252/252 263/263/263
f 244/244/244 252/252/252 242/242/242
f 267/267/267 266/266/266 265/265/265
usemtl Exterior
f 270/270/270 269/269/269 268/268/268
f 271/271/271 269/269/269 270/270/270
f 268/268/268 273/273/273 272/272/272
f 269/269/269 273/273/273 268/268/268
f 276/276/276 275/275/275 274/274/274
f 272/272/272 275/275/275 276/276/276
f 273/273/273 275/275/275 272/272/272
f 279/279/279 278/278/278 277/277/277
f 280/280/280 278/278/278 279/279/279
f 274/274/274 282/282/282 281/281/281
f 275/275/275 282/282/282 274/274/274
f 281/281/281 284/284/284 283/283/283
f 282/282/282 284/284/284 281/281/281
f 283/283/283 286/286/286 285/285/285
f 284/284/284 286/286/286 283/283/283
f 285/285/285 288/288/288 287/287/287
f 286/286/286 288/288/288 285/285/285
f 289/289/289 287/287/287 288/288/288
f 290/290/290 287/287/287 289/289/289
f 292/292/292 287/287/287 291/291/291
f 285/285/285 287/287/287 292/292/292
f 290/290/290 291/291/291 287/287/287
f 293/293/293 291/291/291 290/290/290
f 285/285/285 295/295/295 294/294/294
f 292/292/292 295/295/295 285/285/285
f 294/294/294 297/297/297 296/296/296
f 295/295/295 297/297/297 294/294/294
f 296/296/296 299/299/299 298/298/298
f 297/297/297 299/299/299 296/296/296
f 298/298/298 301/301/301 300/300/300
f 299/299/299 301/301/301 298/298/298
f 300/300/300 303/303/303 302/302/302
f 301/301/301 303/303/303 300/300/300
f 306/306/306 305/305/305 304/304/304
f 307/307/307 305/305/305 306/306/306
f 306/306/306 309/309/309 308/308/308
f 304/304/304 309/309/309 306/306/306
f 311/311/311 309/309/309 310/310/310
f 308/308/308 309/309/309 311/311/311
f 313/313/313 310/310/310 312/312/312
f 311/311/311 310/310/310 313/313/313
f 315/315/315 312/312/312 314/314/314
f 313/313/313 312/312/312 315/315/315
f 318/318/318 317/317/317 316/316/316
f 319/319/319 317/317/317 318/318/318
f 322/322/322 321/321/321 320/320/320
f 323/323/323 321/321/321 322/322/322
f 323/323/323 316/316/316 321/321/321
f 318/318/318 316/316/316 323/323/323
f 323/323/323 324/324/324 318/318/318
f 322/322/322 324/324/324 323/323/323
f 325/325/325 324/324/324 322/322/322
f 325/325/325 326/326/326 324/324/324
f 327/327/327 326/326/326 325/325/325
f 330/330/330 329/329/329 328/328/328
f 331/331/331 329/329/329 330/330/330
f 332/332/332 329/329/329 331/331/331
f 333/333/333 329/329/329 332/332/332
f 332/332/332 334/334/334 333/333/333
f 335/335/335 334/334/334 332/332/332
f 336/336/336 334/334/334 335/335/335
f 337/337/337 334/334/334 336/336/336
f 337/337/337 339/339/339 338/338/338
f 336/336/336 339/339/339 337/337/337
f 339/339/339 340/340/340 338/338/338
f 341/341/341 340/340/340 339/339/339
f 341/341/341 342/342/342 340/340/340
f 343/343/343 342/342/342 341/341/341
f 346/346/346 345/345/345 344/344/344
f 349/349/349 348/348/348 347/347/347
f 350/350/350 348/348/348 349/349/349
f 352/352/352 326/326/326 351/351/351
f 324/324/324 326/326/326 352/352/352
f 354/354/354 334/334/334 353/353/353
f 333/333/333 334/334/334 354/354/354
f 356/356/356 340/340/340 355/355/355
f 338/338/338 340/340/340 356/356/356
f 358/358/358 329/329/329 357/357/357
f 328/328/328 329/329/329 358/358/358
f 338/338/338 359/359/359 337/337/337
f 356/356/356 359/359/359 338/338/338
f 318/318/318 352/352/352 360/360/360
f 324/324/324 352/352/352 318/318/318
f 348/348/348 362/362/362 361/361/361
f 363/363/363 346/346/346 344/344/344
f 364/364/364 346/346/346 363/363/363
f 365/365/365 340/340/340 342/342/342
f 355/355/355 340/340/340 365/365/365
f 362/362/362 350/350/350 366/366/366
f 348/348/348 350/350/350 362/362/362
f 366/366/366 350/350/350 367/367/367
f 269/269/269 368/368/368 273/273/273
f 369/369/369 368/368/368 269/269/269
f 271/271/271 369/369/369 269/269/269
f 370/370/370 369/369/369 271/271/271
f 270/270/270 371/371/371 271/271/271
f 372/372/372 371/371/371 270/270/270
f 373/373/373 345/345/345 346/346/346
f 350/350/350 374/374/374 346/346/346
f 349/349/349 374/374/374 350/350/350
f 375/375/375 374/374/374 349/349/349
f 374/374/374 373/373/373 346/346/346
f 376/376/376 373/373/373 374/374/374
f 370/370/370 377/377/377 369/369/369
f 378/378/378 377/377/377 370/370/370
f 369/369/369 379/379/379 368/368/368
f 377/377/377 379/379/379 369/369/369
f 288/288/288 380/380/380 289/289/289
f 381/381/381 380/380/380 288/288/288
f 368/368/368 275/275/275 273/273/273
f 379/379/379 275/275/275 368/368/368
f 382/382/382 280/280/280 279/279/279
f 383/383/383 280/280/280 382/382/382
f 384/384/384 383/383/383 382/382/382
f 385/385/385 383/383/383 384/384/384
f 386/386/386 385/385/385 384/384/384
f 387/387/387 385/385/385 386/386/386
f 271/271/271 388/388/388 370/370/370
f 371/371/371 388/388/388 271/271/271
f 277/277/277 390/390/390 389/389/389
f 278/278/278 390/390/390 277/277/277
f 389/389/389 392/392/392 391/391/391
f 390/390/390 392/392/392 389/389/389
f 391/391/391 394/394/394 393/393/393
f 392/392/392 394/394/394 391/391/391
f 397/397/397 396/396/396 395/395/395
f 398/398/398 396/396/396 397/397/397
f 371/371/371 346/346/346 388/388/388
f 350/350/350 346/346/346 371/371/371
f 372/372/372 350/350/350 371/371/371
f 367/367/367 350/350/350 372/372/372
f 370/370/370 399/399/399 378/378/378
f 388/388/388 399/399/399 370/370/370
f 393/393/393 401/401/401 400/400/400
f 394/394/394 401/401/401 393/393/393
f 400/400/400 398/398/398 397/397/397
f 401/401/401 398/398/398 400/400/400
f 399/399/399 346/346/346 364/364/364
f 388/388/388 346/346/346 399/399/399
f 343/343/343 403/403/403 402/402/402
f 341/341/341 403/403/403 343/343/343
f 404/404/404 402/402/402 403/403/403
f 405/405/405 402/402/402 404/404/404
f 341/341/341 406/406/406 403/403/403
f 339/339/339 406/406/406 341/341/341
f 407/407/407 403/403/403 406/406/406
f 404/404/404 403/403/403 407/407/407
f 336/336/336 406/406/406 339/339/339
f 408/408/408 406/406/406 336/336/336
f 409/409/409 406/406/406 408/408/408
f 407/407/407 406/406/406 409/409/409
f 336/336/336 410/410/410 408/408/408
f 335/335/335 410/410/410 336/336/336
f 412/412/412 410/410/410 411/411/411
f 413/413/413 410/410/410 412/412/412
f 332/332/332 414/414/414 411/411/411
f 331/331/331 414/414/414 332/332/332
f 416/416/416 414/414/414 415/415/415
f 417/417/417 414/414/414 416/416/416
f 330/330/330 418/418/418 415/415/415
f 327/327/327 418/418/418 330/330/330
f 420/420/420 418/418/418 419/419/419
f 421/421/421 418/418/418 420/420/420
f 325/325/325 422/422/422 419/419/419
f 322/322/322 422/422/422 325/325/325
f 423/423/423 419/419/419 422/422/422
f 420/420/420 419/419/419 423/423/423
f 322/322/322 424/424/424 422/422/422
f 320/320/320 424/424/424 322/322/322
f 425/425/425 422/422/422 424/424/424
f 302/302/302 305/305/305 307/307/307
f 303/303/303 305/305/305 302/302/302
f 428/428/428 427/427/427 426/426/426
f 429/429/429 427/427/427 428/428/428
f 431/431/431 426/426/426 430/430/430
f 428/428/428 426/426/426 431/431/431
f 299/299/299 433/433/433 432/432/432
f 297/297/297 433/433/433 299/299/299
f 297/297/297 434/434/434 433/433/433
f 295/295/295 434/434/434 297/297/297
f 295/295/295 435/435/435 434/434/434
f 292/292/292 435/435/435 295/295/295
f 292/292/292 436/436/436 435/435/435
f 291/291/291 436/436/436 292/292/292
f 293/293/293 436/436/436 291/291/291
f 437/437/437 436/436/436 293/293/293
f 429/429/429 438/438/438 427/427/427
f 439/439/439 438/438/438 429/429/429
f 439/439/439 440/440/440 438/438/438
f 441/441/441 440/440/440 439/439/439
f 442/442/442 440/440/440 441/441/441
f 443/443/443 440/440/440 442/442/442
f 442/442/442 444/444/444 443/443/443
f 445/445/445 444/444/444 442/442/442
f 445/445/445 446/446/446 444/444/444
f 447/447/447 446/446/446 445/445/445
f 447/447/447 448/448/448 446/446/446
f 449/449/449 448/448/448 447/447/447
f 452/452/452 451/451/451 450/450/450
f 453/453/453 451/451/451 452/452/452
f 453/453/453 454/454/454 451/451/451
f 455/455/455 454/454/454 453/453/453
f 455/455/455 456/456/456 454/454/454
f 457/457/457 456/456/456 455/455/455
f 457/457/457 458/458/458 456/456/456
f 457/457/457 459/459/459 458/458/458
f 461/461/461 424/424/424 460/460/460
f 462/462/462 424/424/424 320/320/320
f 460/460/460 424/424/424 462/462/462
f 463/463/463 320/320/320 321/321/321
f 462/462/462 320/320/320 463/463/463
f 464/464/464 321/321/321 316/316/316
f 463/463/463 321/321/321 464/464/464
f 465/465/465 316/316/316 317/317/317
f 464/464/464 316/316/316 465/465/465
f 466/466/466 314/314/314 312/312/312
f 467/467/467 314/314/314 466/466/466
f 468/468/468 312/312/312 310/310/310
f 466/466/466 312/312/312 468/468/468
f 469/469/469 310/310/310 309/309/309
f 468/468/468 310/310/310 469/469/469
f 304/304/304 469/469/469 309/309/309
f 470/470/470 469/469/469 304/304/304
f 471/471/471 304/304/304 305/305/305
f 470/470/470 304/304/304 471/471/471
f 472/472/472 305/305/305 303/303/303
f 471/471/471 305/305/305 472/472/472
f 473/473/473 436/436/436 437/437/437
f 474/474/474 436/436/436 473/473/473
f 435/435/435 474/474/474 475/475/475
f 436/436/436 474/474/474 435/435/435
f 434/434/434 475/475/475 476/476/476
f 435/435/435 475/475/475 434/434/434
f 433/433/433 476/476/476 477/477/477
f 434/434/434 476/476/476 433/433/433
f 432/432/432 477/477/477 430/430/430
f 433/433/433 477/477/477 432/432/432
f 432/432/432 301/301/301 299/299/299
f 478/478/478 301/301/301 432/432/432
f 478/478/478 303/303/303 301/301/301
f 472/472/472 303/303/303 478/478/478
f 412/412/412 414/414/414 417/417/417
f 411/411/411 414/414/414 412/412/412
f 421/421/421 415/415/415 418/418/418
f 416/416/416 415/415/415 421/421/421
f 327/327/327 419/419/419 418/418/418
f 325/325/325 419/419/419 327/327/327
f 331/331/331 415/415/415 414/414/414
f 330/330/330 415/415/415 331/331/331
f 413/413/413 408/408/408 410/410/410
f 409/409/409 408/408/408 413/413/413
f 335/335/335 411/411/411 410/410/410
f 332/332/332 411/411/411 335/335/335
f 357/357/357 333/333/333 354/354/354
f 329/329/329 333/333/333 357/357/357
f 353/353/353 337/337/337 359/359/359
f 334/334/334 337/337/337 353/353/353
f 351/351/351 328/328/328 358/358/358
f 326/326/326 328/328/328 351/351/351
f 330/330/330 326/326/326 327/327/327
f 328/328/328 326/326/326 330/330/330
f 430/430/430 479/479/479 431/431/431
f 477/477/477 479/479/479 430/430/430
f 477/477/477 480/480/480 479/479/479
f 476/476/476 480/480/480 477/477/477
f 476/476/476 481/481/481 480/480/480
f 475/475/475 481/481/481 476/476/476
f 475/475/475 482/482/482 481/481/481
f 474/474/474 482/482/482 475/475/475
f 474/474/474 483/483/483 482/482/482
f 473/473/473 483/483/483 474/474/474
f 458/458/458 484/484/484 460/460/460
f 459/459/459 484/484/484 458/458/458
f 456/456/456 460/460/460 462/462/462
f 458/458/458 460/460/460 456/456/456
f 454/454/454 462/462/462 463/463/463
f 456/456/456 462/462/462 454/454/454
f 451/451/451 463/463/463 464/464/464
f 454/454/454 463/463/463 451/451/451
f 450/450/450 464/464/464 465/465/465
f 451/451/451 464/464/464 450/450/450
f 446/446/446 467/467/467 466/466/466
f 448/448/448 467/467/467 446/446/446
f 444/444/444 466/466/466 468/468/468
f 446/446/446 466/466/466 444/444/444
f 443/443/443 468/468/468 469/469/469
f 444/444/444 468/468/468 443/443/443
f 469/469/469 440/440/440 443/443/443
f 470/470/470 440/440/440 469/469/469
f 438/438/438 470/470/470 471/471/471
f 440/440/440 470/470/470 438/438/438
f 427/427/427 471/471/471 472/472/472
f 438/438/438 471/471/471 427/427/427
f 430/430/430 478/478/478 432/432/432
f 426/426/426 478/478/478 430/430/430
f 426/426/426 472/472/472 478/478/478
f 427/427/427 472/472/472 426/426/426
f 485/485/485 293/293/293 290/290/290
f 486/486/486 293/293/293 485/485/485
f 437/437/437 293/293/293 486/486/486
f 437/437/437 486/486/486 473/473/473
f 473/473/473 486/486/486 483/483/483
f 290/290/290 487/487/487 485/485/485
f 289/289/289 487/487/487 290/290/290
f 289/289/289 488/488/488 487/487/487
f 380/380/380 488/488/488 289/289/289
f 491/491/491 490/490/490 489/489/489
f 492/492/492 490/490/490 491/491/491
f 495/495/495 494/494/494 493/493/493
f 496/496/496 494/494/494 495/495/495
f 499/499/499 498/498/498 497/497/497
f 500/500/500 498/498/498 499/499/499
f 494/494/494 501/501/501 493/493/493
f 502/502/502 501/501/501 494/494/494
f 501/501/501 500/500/500 499/499/499
f 502/502/502 500/500/500 501/501/501
f 505/505/505 504/504/504 503/503/503
f 504/504/504 507/507/507 506/506/506
f 504/504/504 506/506/506 508/508/508
f 508/508/508 503/503/503 504/504/504
f 493/493/493 509/509/509 495/495/495
f 510/510/510 509/509/509 493/493/493
f 497/497/497 511/511/511 499/499/499
f 512/512/512 511/511/511 497/497/497
f 512/512/512 513/513/513 511/511/511
f 514/514/514 513/513/513 512/512/512
f 515/515/515 513/513/513 514/514/514
f 516/516/516 513/513/513 515/515/515
f 515/515/515 517/517/517 516/516/516
f 518/518/518 517/517/517 515/515/515
f 518/518/518 519/519/519 517/517/517
f 520/520/520 519/519/519 518/518/518
f 520/520/520 521/521/521 519/519/519
f 522/522/522 521/521/521 520/520/520
f 525/525/525 524/524/524 523/523/523
f 526/526/526 524/524/524 525/525/525
f 526/526/526 527/527/527 524/524/524
f 528/528/528 527/527/527 526/526/526
f 528/528/528 529/529/529 527/527/527
f 529/529/529 530/530/530 527/527/527
f 530/530/530 531/531/531 527/527/527
f 532/532/532 531/531/531 530/530/530
f 531/531/531 524/524/524 527/527/527
f 533/533/533 524/524/524 531/531/531
f 533/533/533 523/523/523 524/524/524
f 534/534/534 523/523/523 533/533/533
f 533/533/533 535/535/535 534/534/534
f 531/531/531 535/535/535 533/533/533
f 532/532/532 535/535/535 531/531/531
f 536/536/536 535/535/535 532/532/532
f 536/536/536 537/537/537 535/535/535
f 538/538/538 537/537/537 536/536/536
f 538/538/538 489/489/489 537/537/537
f 491/491/491 489/489/489 538/538/538
f 517/517/517 540/540/540 539/539/539
f 519/519/519 540/540/540 517/517/517
f 492/492/492 541/541/541 490/490/490
f 542/542/542 541/541/541 492/492/492
f 543/543/543 541/541/541 542/542/542
f 544/544/544 541/541/541 543/543/543
f 509/509/509 544/544/544 543/543/543
f 510/510/510 544/544/544 509/509/509
f 511/511/511 546/546/546 545/545/545
f 513/513/513 546/546/546 511/511/511
f 516/516/516 546/546/546 513/513/513
f 547/547/547 546/546/546 516/516/516
f 516/516/516 539/539/539 547/547/547
f 517/517/517 539/539/539 516/516/516
f 522/522/522 523/523/523 521/521/521
f 525/525/525 523/523/523 522/522/522
f 519/519/519 548/548/548 540/540/540
f 521/521/521 548/548/548 519/519/519
f 540/540/540 537/537/537 489/489/489
f 548/548/548 537/537/537 540/540/540
f 547/547/547 490/490/490 541/541/541
f 539/539/539 490/490/490 547/547/547
f 541/541/541 546/546/546 547/547/547
f 544/544/544 546/546/546 541/541/541
f 545/545/545 544/544/544 510/510/510
f 546/546/546 544/544/544 545/545/545
f 539/539/539 489/489/489 490/490/490
f 540/540/540 489/489/489 539/539/539
f 537/537/537 534/534/534 535/535/535
f 548/548/548 534/534/534 537/537/537
f 548/548/548 523/523/523 534/534/534
f 521/521/521 523/523/523 548/548/548
f 511/511/511 501/501/501 499/499/499
f 545/545/545 501/501/501 511/511/511
f 545/545/545 493/493/493 501/501/501
f 510/510/510 493/493/493 545/545/545
f 551/551/551 550/550/550 549/549/549
f 552/552/552 550/550/550 551/551/551
f 554/554/554 551/551/551 553/553/553
f 555/555/555 551/551/551 554/554/554
f 556/556/556 554/554/554 553/553/553
f 557/557/557 554/554/554 556/556/556
f 558/558/558 288/288/288 286/286/286
f 381/381/381 288/288/288 558/558/558
f 559/559/559 286/286/286 284/284/284
f 558/558/558 286/286/286 559/559/559
f 560/560/560 284/284/284 282/282/282
f 559/559/559 284/284/284 560/560/560
f 561/561/561 282/282/282 275/275/275
f 560/560/560 282/282/282 561/561/561
f 562/562/562 275/275/275 379/379/379
f 561/561/561 275/275/275 562/562/562
f 563/563/563 379/379/379 377/377/377
f 562/562/562 379/379/379 563/563/563
f 564/564/564 377/377/377 378/378/378
f 563/563/563 377/377/377 564/564/564
f 565/565/565 378/378/378 399/399/399
f 564/564/564 378/378/378 565/565/565
f 566/566/566 399/399/399 364/364/364
f 565/565/565 399/399/399 566/566/566
f 567/567/567 364/364/364 363/363/363
f 566/566/566 364/364/364 567/567/567
f 568/568/568 365/365/365 342/342/342
f 569/569/569 365/365/365 568/568/568
f 570/570/570 342/342/342 343/343/343
f 568/568/568 342/342/342 570/570/570
f 571/571/571 343/343/343 402/402/402
f 570/570/570 343/343/343 571/571/571
f 574/574/574 573/573/573 572/572/572
f 571/571/571 402/402/402 575/575/575
f 551/551/551 555/555/555 552/552/552
f 577/577/577 386/386/386 576/576/576
f 387/387/387 386/386/386 577/577/577
f 580/580/580 579/579/579 578/578/578
f 583/583/583 582/582/582 581/581/581
f 586/586/586 585/585/585 584/584/584
f 589/589/589 588/588/588 587/587/587
f 590/590/590 588/588/588 589/589/589
f 581/581/581 582/582/582 591/591/591
f 592/592/592 585/585/585 586/586/586
f 595/595/595 594/594/594 593/593/593
f 596/596/596 585/585/585 592/592/592
f 590/590/590 594/594/594 588/588/588
f 597/597/597 594/594/594 590/590/590
f 600/600/600 599/599/599 598/598/598
f 596/596/596 599/599/599 585/585/585
f 598/598/598 599/599/599 596/596/596
f 593/593/593 594/594/594 597/597/597
f 603/603/603 602/602/602 601/601/601
f 606/606/606 605/605/605 604/604/604
f 607/607/607 605/605/605 606/606/606
f 608/608/608 579/579/579 594/594/594
f 578/578/578 579/579/579 608/608/608
f 603/603/603 609/609/609 602/602/602
f 610/610/610 609/609/609 603/603/603
f 606/606/606 604/604/604 611/611/611
f 613/613/613 612/612/612 599/599/599
f 614/614/614 612/612/612 613/613/613
f 615/615/615 609/609/609 610/610/610
f 617/617/617 604/604/604 616/616/616
f 611/611/611 604/604/604 617/617/617
f 589/589/589 587/587/587 618/618/618
f 620/620/620 602/602/602 619/619/619
f 601/601/601 602/602/602 620/620/620
f 614/614/614 587/587/587 612/612/612
f 618/618/618 587/587/587 614/614/614
f 622/622/622 619/619/619 621/621/621
f 623/623/623 619/619/619 622/622/622
f 617/617/617 616/616/616 624/624/624
f 620/620/620 619/619/619 623/623/623
f 626/626/626 616/616/616 625/625/625
f 624/624/624 616/616/616 626/626/626
f 615/615/615 582/582/582 609/609/609
f 591/591/591 582/582/582 615/615/615
f 608/608/608 594/594/594 595/595/595
f 626/626/626 625/625/625 627/627/627
f 613/613/613 599/599/599 600/600/600
f 622/622/622 621/621/621 628/628/628
f 629/629/629 625/625/625 582/582/582
f 627/627/627 625/625/625 629/629/629
f 630/630/630 585/585/585 605/605/605
f 584/584/584 585/585/585 630/630/630
f 580/580/580 621/621/621 579/579/579
f 628/628/628 621/621/621 580/580/580
f 629/629/629 582/582/582 583/583/583
f 630/630/630 605/605/605 607/607/607
f 633/633/633 632/632/632 631/631/631
f 636/636/636 635/635/635 634/634/634
f 637/637/637 635/635/635 636/636/636
f 640/640/640 639/639/639 638/638/638
f 641/641/641 639/639/639 640/640/640
f 644/644/644 643/643/643 642/642/642
f 645/645/645 643/643/643 644/644/644
f 648/648/648 647/647/647 646/646/646
f 651/651/651 650/650/650 649/649/649
f 635/635/635 649/649/649 652/652/652
f 651/651/651 649/649/649 635/635/635
f 632/632/632 654/654/654 653/653/653
f 643/643/643 656/656/656 655/655/655
f 632/632/632 653/653/653 631/631/631
f 659/659/659 658/658/658 657/657/657
f 638/638/638 658/658/658 659/659/659
f 648/648/648 661/661/661 660/660/660
f 648/648/648 646/646/646 662/662/662
f 632/632/632 664/664/664 663/663/663
f 642/642/642 665/665/665 644/644/644
f 666/666/666 665/665/665 642/642/642
f 643/643/643 668/668/668 667/667/667
f 648/648/648 660/660/660 669/669/669
f 634/634/634 635/635/635 652/652/652
f 643/643/643 670/670/670 656/656/656
f 651/651/651 672/672/672 671/671/671
f 648/648/648 674/674/674 673/673/673
f 675/675/675 674/674/674 648/648/648
f 651/651/651 657/657/657 676/676/676
f 659/659/659 657/657/657 651/651/651
f 677/677/677 632/632/632 633/633/633
f 678/678/678 641/641/641 640/640/640
f 679/679/679 641/641/641 678/678/678
f 648/648/648 680/680/680 661/661/661
f 648/648/648 662/662/662 681/681/681
f 682/682/682 643/643/643 645/645/645
f 648/648/648 673/673/673 680/680/680
f 641/641/641 643/643/643 639/639/639
f 642/642/642 643/643/643 641/641/641
f 683/683/683 648/648/648 681/681/681
f 684/684/684 648/648/648 683/683/683
f 686/686/686 677/677/677 685/685/685
f 632/632/632 677/677/677 686/686/686
f 643/643/643 682/682/682 670/670/670
f 632/632/632 688/688/688 687/687/687
f 689/689/689 637/637/637 636/636/636
f 690/690/690 637/637/637 689/689/689
f 651/651/651 691/691/691 650/650/650
f 648/648/648 692/692/692 647/647/647
f 651/651/651 671/671/671 691/691/691
f 651/651/651 694/694/694 693/693/693
f 651/651/651 693/693/693 672/672/672
f 632/632/632 695/695/695 654/654/654
f 639/639/639 667/667/667 696/696/696
f 643/643/643 667/667/667 639/639/639
f 632/632/632 687/687/687 664/664/664
f 632/632/632 663/663/663 697/697/697
f 666/666/666 683/683/683 665/665/665
f 684/684/684 683/683/683 666/666/666
f 651/651/651 676/676/676 694/694/694
f 638/638/638 696/696/696 658/658/658
f 639/639/639 696/696/696 638/638/638
f 632/632/632 697/697/697 695/695/695
f 648/648/648 669/669/669 692/692/692
f 632/632/632 689/689/689 688/688/688
f 690/690/690 689/689/689 632/632/632
f 699/699/699 685/685/685 698/698/698
f 686/686/686 685/685/685 699/699/699
f 643/643/643 655/655/655 668/668/668
f 684/684/684 675/675/675 648/648/648
f 700/700/700 675/675/675 684/684/684
f 679/679/679 642/642/642 641/641/641
f 666/666/666 642/642/642 679/679/679
f 700/700/700 666/666/666 679/679/679
f 684/684/684 666/666/666 700/700/700
f 675/675/675 698/698/698 674/674/674
f 699/699/699 698/698/698 675/675/675
f 678/678/678 700/700/700 679/679/679
f 701/701/701 700/700/700 678/678/678
f 700/700/700 699/699/699 675/675/675
f 701/701/701 699/699/699 700/700/700
f 701/701/701 686/686/686 699/699/699
f 702/702/702 686/686/686 701/701/701
f 678/678/678 702/702/702 701/701/701
f 703/703/703 702/702/702 678/678/678
f 640/640/640 703/703/703 678/678/678
f 704/704/704 703/703/703 640/640/640
f 638/638/638 704/704/704 640/640/640
f 659/659/659 704/704/704 638/638/638
f 686/686/686 690/690/690 632/632/632
f 702/702/702 690/690/690 686/686/686
f 702/702/702 637/637/637 690/690/690
f 703/703/703 637/637/637 702/702/702
f 703/703/703 635/635/635 637/637/637
f 704/704/704 635/635/635 703/703/703
f 659/659/659 635/635/635 704/704/704
f 651/651/651 635/635/635 659/659/659
f 707/707/707 706/706/706 705/705/705
f 707/707/707 708/708/708 706/706/706
f 709/709/709 708/708/708 707/707/707
f 709/709/709 710/710/710 708/708/708
f 709/709/709 711/711/711 710/710/710
f 712/712/712 711/711/711 709/709/709
f 714/714/714 705/705/705 713/713/713
f 707/707/707 705/705/705 714/714/714
f 716/716/716 713/713/713 715/715/715
f 714/714/714 713/713/713 716/716/716
f 718/718/718 715/715/715 717/717/717
f 716/716/716 715/715/715 718/718/718
f 721/721/721 720/720/720 719/719/719
f 722/722/722 720/720/720 721/721/721
f 724/724/724 717/717/717 723/723/723
f 718/718/718 717/717/717 724/724/724
f 722/722/722 723/723/723 720/720/720
f 724/724/724 723/723/723 722/722/722
f 727/727/727 726/726/726 725/725/725
f 721/721/721 726/726/726 727/727/727
f 721/721/721 719/719/719 726/726/726
f 728/728/728 576/576/576 386/386/386
