# Exported from Godot Engine
mtllib Door_RF_Mirror.mtl
o Door_RF_Mirror
v 0.621240 0.990521 1.060064
vt 0.523438 0.272949
vn 0.233205 -0.444939 -0.864665
v 0.601958 0.990153 1.075185
vt 0.519531 0.270996
vn 0.254713 -0.531365 -0.807944
v 0.607594 1.017152 1.059956
vt 0.524414 0.268066
vn 0.231764 -0.427919 -0.873596
v 0.593724 1.009108 1.073974
vt 0.520508 0.267578
vn 0.254187 -0.522985 -0.813557
v 0.598471 1.027398 1.061131
vt 0.523926 0.265625
vn 0.239930 -0.444161 -0.863223
v 0.586975 1.016030 1.074731
vt 0.520508 0.265625
vn 0.269325 -0.546063 -0.793271
v 0.588877 1.034501 1.062831
vt 0.523926 0.263672
vn 0.239188 -0.449908 -0.860448
v 0.577911 1.019911 1.076909
vt 0.520020 0.264160
vn 0.275987 -0.596788 -0.753442
v 0.591171 0.991710 1.080754
vt 0.518066 0.269043
vn 0.282343 -0.617493 -0.734156
v 0.568894 0.994860 1.087320
vt 0.515625 0.265625
vn 0.291537 -0.732894 -0.614713
v 0.568364 1.022738 1.078612
vt 0.519043 0.262695
vn 0.274106 -0.623417 -0.732269
v 0.580240 0.993443 1.085053
vt 0.516602 0.267578
vn 0.289211 -0.678804 -0.674968
v 0.577957 1.039203 1.064689
vt 0.522949 0.262207
vn 0.240553 -0.466839 -0.850997
v 0.594773 0.980920 1.081998
vt 0.517090 0.270996
vn 0.333599 -0.597428 -0.729241
v 0.605153 0.980297 1.075799
vt 0.519043 0.272461
vn 0.309435 -0.499659 -0.809068
v 0.625283 0.978880 1.060089
vt 0.522949 0.274902
vn 0.289159 -0.404861 -0.867453
v 0.570940 0.981939 1.089787
vt 0.514160 0.267578
vn 0.354436 -0.758963 -0.546215
v 0.583157 0.981476 1.086828
vt 0.515625 0.269531
vn 0.347420 -0.686877 -0.638357
v 0.566355 1.042297 1.065614
vt 0.522461 0.260254
vn 0.244494 -0.481859 -0.841448
v 0.558539 1.024774 1.079773
vt 0.518555 0.261230
vn 0.271394 -0.625781 -0.731262
v 0.553807 1.043963 1.065808
vt 0.521484 0.258301
vn 0.241332 -0.461147 -0.853875
v 0.546287 1.026279 1.080400
vt 0.517578 0.259277
vn 0.269282 -0.667580 -0.694135
v 0.557192 1.011672 1.084434
vt 0.516602 0.262207
vn 0.296990 -0.744476 -0.597957
v 0.558459 0.980617 1.089927
vt 0.512207 0.266113
vn 0.446751 -0.893543 -0.044654
v 0.558487 0.982332 1.091435
vt 0.512695 0.265625
vn 0.343019 -0.813199 -0.470155
v 0.570881 0.980205 1.088278
vt 0.513672 0.268066
vn 0.484359 -0.864244 -0.135938
v 0.520491 1.037649 1.072671
vt 0.517090 0.254395
vn 0.232504 -0.620125 -0.749258
v 0.517321 1.027547 1.078904
vt 0.515137 0.255371
vn 0.229969 -0.803079 -0.549708
v 0.544299 1.013252 1.085037
vt 0.515625 0.260254
vn 0.288318 -0.793010 -0.536664
v 0.542237 0.981080 1.090806
vt 0.510742 0.263672
vn 0.401583 -0.915818 0.003042
v 0.542422 0.982770 1.092319
vt 0.510742 0.263184
vn 0.327313 -0.841746 -0.429336
v 0.543107 0.997159 1.089256
vt 0.513184 0.261719
vn 0.282481 -0.823302 -0.492318
v 0.557362 0.996001 1.088592
vt 0.514160 0.264160
vn 0.285849 -0.786160 -0.547944
v 0.514690 1.015050 1.083674
vt 0.513184 0.255859
vn 0.225161 -0.853383 -0.470150
v 0.512151 0.998902 1.088574
vt 0.510254 0.257324
vn 0.218506 -0.882130 -0.417255
v 0.509635 0.983564 1.092179
vt 0.507812 0.258301
vn 0.055128 -0.977230 -0.204897
v 0.594759 1.048788 1.038618
vt 0.528320 0.262207
vn 0.178943 -0.224562 -0.957889
v 0.585401 1.044446 1.053719
vt 0.525391 0.262207
vn 0.199942 -0.287699 -0.936618
v 0.581356 1.052404 1.038719
vt 0.527344 0.260254
vn 0.182539 -0.203644 -0.961878
v 0.573244 1.047832 1.053956
vt 0.524414 0.260254
vn 0.203441 -0.273634 -0.940072
v 0.607166 1.042664 1.037672
vt 0.528809 0.264648
vn 0.185372 -0.258875 -0.947956
v 0.596607 1.038763 1.052665
vt 0.525879 0.264160
vn 0.200853 -0.317175 -0.926854
v 0.617790 1.033699 1.037053
vt 0.529297 0.267090
vn 0.196391 -0.301639 -0.932976
v 0.606331 1.030771 1.051546
vt 0.526367 0.266113
vn 0.208851 -0.339915 -0.916973
v 0.628217 1.020336 1.037114
vt 0.529297 0.270020
vn 0.218294 -0.338041 -0.915465
v 0.644465 0.989592 1.037348
vt 0.528809 0.275879
vn 0.222708 -0.353524 -0.908527
v 0.649032 0.976971 1.037659
vt 0.528320 0.278320
vn 0.269056 -0.325725 -0.906373
v 0.560119 1.049727 1.053629
vt 0.523926 0.258301
vn 0.209537 -0.258455 -0.943025
v 0.567605 1.054157 1.038276
vt 0.526855 0.257812
vn 0.188524 -0.188565 -0.963796
v 0.524533 1.044907 1.064206
vt 0.519043 0.253906
vn 0.230693 -0.497480 -0.836238
v 0.537115 1.054829 1.036603
vt 0.524902 0.253418
vn 0.199007 -0.195576 -0.960284
v 0.530251 1.050461 1.051749
vt 0.521484 0.253418
vn 0.218231 -0.274632 -0.936457
v 0.673982 0.974793 1.010876
vt 0.534180 0.281250
vn 0.255194 -0.251765 -0.933536
v 0.668426 0.987410 1.011083
vt 0.534180 0.278809
vn 0.217410 -0.287569 -0.932757
v 0.701862 0.972201 0.978267
vt 0.541992 0.283691
vn 0.250842 -0.160309 -0.954662
v 0.696640 0.984653 0.977682
vt 0.541992 0.281738
vn 0.227430 -0.188960 -0.955285
v 0.731707 0.969340 0.941871
vt 0.550781 0.285645
vn 0.263389 -0.048536 -0.963468
v 0.724195 0.981774 0.943694
vt 0.549805 0.283203
vn 0.245904 -0.076201 -0.966294
v 0.755773 0.967001 0.911896
vt 0.558105 0.286133
vn 0.975420 -0.047105 -0.215259
v 0.747237 0.979525 0.914555
vt 0.556641 0.284180
vn 0.969848 -0.013742 -0.243323
v 0.648567 1.021112 1.012509
vt 0.534180 0.271973
vn 0.209717 -0.279666 -0.936913
v 0.696029 1.021261 0.949805
vt 0.546875 0.275879
vn 0.222141 -0.138893 -0.965071
v 0.715249 1.020687 0.922829
vt 0.552246 0.276367
vn 0.238087 -0.055234 -0.969672
v 0.672656 1.021424 0.981377
vt 0.540527 0.273926
vn 0.212879 -0.216422 -0.952809
v 0.719634 1.020720 0.916093
vt 0.553711 0.276367
vn 0.979429 -0.027137 -0.199955
v 0.752231 0.979538 0.907755
vt 0.558105 0.283691
vn 0.986158 -0.084346 -0.142755
v 0.635878 1.036397 1.013271
vt 0.533691 0.268555
vn 0.192472 -0.251982 -0.948398
v 0.657296 1.039083 0.983284
vt 0.539551 0.270020
vn 0.193030 -0.210654 -0.958313
v 0.678004 1.041214 0.952757
vt 0.545410 0.271484
vn 0.198935 -0.160565 -0.966770
v 0.694777 1.042404 0.926518
vt 0.550293 0.271973
vn 0.208360 -0.104200 -0.972486
v 0.682051 1.054988 0.922519
vt 0.550293 0.269043
vn 0.160843 -0.041980 -0.986087
v 0.678602 1.054571 0.929277
vt 0.549316 0.269043
vn 0.178348 -0.125957 -0.975872
v 0.663428 1.063764 0.924012
vt 0.549316 0.266113
vn 0.131379 -0.028446 -0.990924
v 0.660318 1.063495 0.930735
vt 0.548340 0.266113
vn 0.155298 -0.113003 -0.981383
v 0.623766 1.046235 1.014372
vt 0.533203 0.265625
vn 0.178943 -0.224562 -0.957889
v 0.609851 1.053232 1.015194
vt 0.532715 0.263184
vn 0.172206 -0.189844 -0.966594
v 0.643552 1.049857 0.985081
vt 0.539062 0.267090
vn 0.178765 -0.196339 -0.964103
v 0.627979 1.057830 0.985903
vt 0.538086 0.264160
vn 0.168882 -0.168922 -0.971053
v 0.662876 1.052791 0.955195
vt 0.544434 0.268555
vn 0.174688 -0.160768 -0.971410
v 0.645819 1.061460 0.956185
vt 0.543945 0.265137
vn 0.158736 -0.141120 -0.977184
v 0.698513 1.042721 0.919867
vt 0.551758 0.271973
vn 0.197406 -0.020808 -0.980101
v 0.621231 1.070742 0.930941
vt 0.546875 0.259766
vn 0.125133 -0.057233 -0.990488
v 0.585170 1.071520 0.929086
vt 0.545898 0.253906
vn 0.131270 -0.049713 -0.990099
v 0.624052 1.070703 0.924292
vt 0.547852 0.260254
vn 0.997498 -0.054868 -0.044574
v 0.588015 1.071340 0.922618
vt 0.547363 0.253906
vn 0.997170 -0.054856 -0.051404
v 0.643326 1.068518 0.924550
vt 0.548828 0.263184
vn 0.994204 -0.007173 -0.107270
v 0.640523 1.068408 0.931233
vt 0.547363 0.262695
vn 0.134928 -0.085224 -0.987184
v 0.594794 1.057352 1.015288
vt 0.532227 0.260742
vn 0.171709 -0.168229 -0.970678
v 0.579755 1.059317 1.014851
vt 0.531250 0.258301
vn 0.171901 -0.161387 -0.971805
v 0.611080 1.062475 0.985999
vt 0.537598 0.261230
vn 0.161454 -0.147457 -0.975802
v 0.594411 1.064656 0.985655
vt 0.536621 0.258789
vn 0.161749 -0.133657 -0.977739
v 0.627315 1.066442 0.956440
vt 0.542969 0.262207
vn 0.148279 -0.120088 -0.981627
v 0.609102 1.068802 0.956083
vt 0.542480 0.259277
vn 0.144745 -0.091836 -0.985198
v 0.548030 1.060197 1.012281
vt 0.529297 0.252930
vn 0.178695 -0.161218 -0.970606
v 0.561022 1.065669 0.983320
vt 0.535156 0.252930
vn 0.168579 -0.133497 -0.976606
v 0.574140 1.069893 0.953950
vt 0.541016 0.253418
vn 0.151650 -0.091747 -0.984167
v 0.679671 1.043313 0.901190
vt 0.554688 0.268555
vn -0.561183 -0.100225 0.821601
v 0.682368 1.049215 0.904370
vt 0.553711 0.268555
vn -0.651889 -0.027523 0.757815
v 0.663418 1.050501 0.902763
vt 0.553711 0.265625
vn -0.430997 -0.031923 0.901789
v 0.664493 1.056809 0.906138
vt 0.552734 0.266113
vn 0.610111 -0.000064 0.792316
v 0.694544 1.033535 0.899584
vt 0.555664 0.270996
vn -0.523930 -0.096719 0.846252
v 0.698593 1.038417 0.902631
vt 0.554688 0.271484
vn -0.688325 -0.058005 0.723079
v 0.710823 1.016262 0.896799
vt 0.557617 0.274414
vn -0.516398 -0.137454 0.845245
v 0.717029 1.018958 0.899044
vt 0.556641 0.274902
vn -0.705266 -0.103485 0.701349
v 0.628178 1.061956 0.907211
vt 0.551270 0.260254
vn 0.634557 -0.043103 0.771673
v 0.594265 1.061995 0.907384
vt 0.550781 0.254395
vn 0.665978 -0.061989 0.743391
v 0.628985 1.055452 0.903978
vt 0.552734 0.260254
vn 0.356295 -0.007946 0.934340
v 0.595298 1.055411 0.904431
vt 0.552246 0.254883
vn 0.416223 -0.036026 0.908548
v 0.645926 1.053969 0.903560
vt 0.553223 0.263184
vn -0.364583 -0.003986 0.931162
v 0.645350 1.060534 0.906928
vt 0.551758 0.262695
vn 0.636876 -0.023606 0.770605
v 0.747869 0.979264 0.893315
vt 0.560547 0.282227
vn -0.743127 -0.132732 0.655854
v 0.741840 0.977842 0.892227
vt 0.561523 0.281250
vn -0.551735 -0.178270 0.814744
v 0.757136 0.965752 0.891621
vt 0.562012 0.284668
vn -0.845952 -0.220707 0.485441
v 0.750957 0.965886 0.891008
vt 0.562500 0.283691
vn -0.523741 -0.307022 0.794627
v 0.760816 0.966486 0.905481
vt 0.559570 0.286133
vn 0.987791 -0.113253 -0.106967
v 0.763605 0.966107 0.900144
vt 0.560547 0.286133
vn 0.975214 -0.106899 0.193727
v 0.753926 0.980511 0.902971
vt 0.559082 0.283691
vn 0.985871 -0.135883 0.097952
v 0.762585 0.965823 0.895116
vt 0.561523 0.285645
vn -0.882895 -0.076616 0.463277
v 0.752684 0.980730 0.897178
vt 0.560059 0.283203
vn -0.808397 -0.007867 0.588585
v 0.722024 1.021237 0.910414
vt 0.554688 0.276367
vn 0.990079 -0.137022 0.031123
v 0.721705 1.021204 0.904186
vt 0.555664 0.275879
vn 0.830801 -0.007856 0.556514
v 0.664850 1.063723 0.917631
vt 0.550293 0.266113
vn 0.994527 -0.093446 0.046732
v 0.644519 1.068076 0.918157
vt 0.549805 0.263184
vn 0.992150 -0.084952 0.091765
v 0.665156 1.061869 0.911587
vt 0.551270 0.266113
vn 0.894848 -0.048490 0.443730
v 0.645018 1.065837 0.912219
vt 0.550781 0.263184
vn 0.886974 -0.055916 0.458423
v 0.625884 1.069920 0.917964
vt 0.549316 0.260254
vn 0.984988 -0.082695 0.151529
v 0.627164 1.067405 0.912268
vt 0.550293 0.260254
vn 0.862589 -0.063246 0.501937
v 0.590494 1.070205 0.916896
vt 0.548340 0.254395
vn 0.986737 -0.088480 0.136093
v 0.592562 1.067536 0.911886
vt 0.549316 0.254395
vn 0.885679 -0.079881 0.457376
v 0.700577 1.043081 0.914131
vt 0.552734 0.271973
vn 0.992161 -0.124809 -0.006256
v 0.700940 1.042257 0.908118
vt 0.553711 0.271973
vn 0.887750 -0.034158 0.459057
v 0.683850 1.055323 0.916286
vt 0.551270 0.269043
vn 0.993938 -0.109752 0.006454
v 0.684095 1.053979 0.909957
vt 0.552246 0.269043
vn 0.893651 -0.041306 0.446857
v 0.715711 0.966581 0.890016
vt 0.565430 0.277344
vn -0.399641 -0.244232 0.883537
v 0.752166 0.964206 0.892966
vt 0.562988 0.284180
vn -0.410244 -0.552238 0.725764
v 0.716597 0.965058 0.892091
vt 0.565430 0.277832
vn -0.306680 -0.530735 0.790106
v 0.664417 1.016988 0.893481
vt 0.559082 0.266602
vn -0.275052 -0.075018 0.958498
v 0.676897 0.979598 0.890015
vt 0.564941 0.270020
vn -0.263404 -0.093468 0.960147
v 0.689490 1.015092 0.894076
vt 0.559082 0.270996
vn -0.386522 -0.109269 0.915784
v 0.710317 0.978711 0.890491
vt 0.563477 0.275879
vn -0.420314 -0.141529 0.896273
v 0.634960 1.037012 0.897795
vt 0.556152 0.261230
vn -0.305256 -0.028143 0.951854
v 0.596867 1.038956 0.899260
vt 0.555176 0.254883
vn 0.253712 -0.000056 0.967280
v 0.639395 1.018666 0.893907
vt 0.559082 0.262207
vn -0.230534 -0.057638 0.971356
v 0.597728 1.020995 0.895517
vt 0.558594 0.255371
vn -0.186657 -0.032493 0.981888
v 0.645618 0.980455 0.890361
vt 0.565430 0.264160
vn -0.182995 -0.058225 0.981388
v 0.597693 0.981974 0.891922
vt 0.565918 0.255859
vn -0.138479 -0.036668 0.989686
v 0.656239 1.034117 0.897033
vt 0.556641 0.264648
vn -0.354249 -0.048311 0.933903
v 0.673704 1.030221 0.896531
vt 0.557129 0.267578
vn -0.432667 -0.081646 0.897849
v 0.679498 0.967392 0.889842
vt 0.566895 0.270996
vn -0.221225 -0.180262 0.958418
v 0.646734 0.968194 0.890258
vt 0.567383 0.264648
vn -0.165232 -0.119792 0.978953
v 0.546922 1.059005 1.011930
vt 0.529297 0.252930
vn 0.178480 -0.168037 -0.969489
v 0.536151 1.053758 1.035898
vt 0.524414 0.252930
vn 0.186014 -0.245739 -0.951321
v 0.546922 1.057458 1.011973
vt 0.529297 0.252441
vn 0.175478 -0.175518 -0.968711
v 0.536283 1.052303 1.035591
vt 0.524414 0.252930
vn 0.166082 -0.261575 -0.950787
v 0.514039 1.014037 1.082456
vt 0.512695 0.255859
vn 0.097209 -0.994562 -0.037371
v 0.511582 0.998165 1.087255
vt 0.510254 0.256836
vn 0.106520 -0.994285 0.007083
v 0.514596 1.012932 1.081443
vt 0.512695 0.255859
vn -0.051058 -0.997759 -0.043242
v 0.512215 0.997329 1.086151
vt 0.510254 0.256836
vn -0.109583 -0.993735 -0.021961
v 0.559740 1.064351 0.983426
vt 0.535156 0.252930
vn 0.174821 -0.104908 -0.978995
v 0.559584 1.062718 0.983911
vt 0.534668 0.252441
vn 0.181449 -0.111676 -0.977039
v 0.593067 1.060743 0.907600
vt 0.550781 0.254395
vn 0.597671 -0.074751 0.798249
v 0.591325 1.066622 0.912165
vt 0.549316 0.254395
vn 0.837892 -0.105693 0.535506
v 0.592896 1.059391 0.908485
vt 0.550781 0.253906
vn 0.591797 -0.090751 0.800962
v 0.591140 1.065492 0.913042
vt 0.549316 0.253906
vn 0.862863 -0.142662 0.484887
v 0.529364 1.049509 1.050913
vt 0.521484 0.253418
vn 0.191271 -0.375526 -0.906861
v 0.529582 1.048166 1.050446
vt 0.521484 0.252930
vn 0.150531 -0.401535 -0.903388
v 0.595635 1.037631 0.899714
vt 0.555664 0.254395
vn 0.199933 -0.012020 0.979736
v 0.594098 1.054035 0.904707
vt 0.552246 0.254395
vn 0.386216 -0.044288 0.921345
v 0.595449 1.036306 0.900815
vt 0.555664 0.254395
vn 0.218501 -0.036433 0.975156
v 0.593923 1.052626 0.905662
vt 0.552734 0.254395
vn 0.372259 -0.052608 0.926637
v 0.572718 1.068543 0.954491
vt 0.540527 0.252930
vn 0.167721 -0.027972 -0.985438
v 0.572434 1.066905 0.955402
vt 0.540527 0.252930
vn 0.187975 -0.027887 -0.981778
v 0.589031 1.069296 0.917595
vt 0.548340 0.253906
vn 0.960577 -0.117573 0.251931
v 0.588667 1.068102 0.918771
vt 0.547852 0.253906
vn 0.971243 -0.161890 0.174581
v 0.596512 1.019862 0.896090
vt 0.559082 0.254883
vn -0.079749 -0.007993 0.996783
v 0.596355 1.018742 0.897282
vt 0.559082 0.254883
vn 0.047912 -0.007999 0.998819
v 0.586478 1.070203 0.923500
vt 0.546875 0.253906
vn 0.990157 -0.129289 0.053610
v 0.586070 1.068776 0.924781
vt 0.546875 0.253418
vn 0.986851 -0.161522 -0.005971
v 0.516566 1.026441 1.077868
vt 0.515137 0.254883
vn 0.102989 -0.974750 -0.198131
v 0.517014 1.025188 1.077029
vt 0.514648 0.254883
vn -0.003953 -0.991388 -0.130901
v 0.523687 1.043994 1.063319
vt 0.519043 0.253906
vn 0.185839 -0.583127 -0.790839
v 0.523979 1.042738 1.062736
vt 0.519043 0.253418
vn 0.122373 -0.637946 -0.760296
v 0.596461 0.981345 0.892667
vt 0.565918 0.255371
vn -0.048712 -0.024380 0.998515
v 0.596308 0.980718 0.893991
vt 0.565918 0.255371
vn 0.015400 -0.042427 0.998981
v 0.509762 0.983409 1.089583
vt 0.507812 0.257812
vn -0.358767 -0.933383 0.009074
v 0.509124 0.983283 1.090809
vt 0.507812 0.258301
vn -0.000019 -0.954182 0.299228
v 0.597709 0.968067 0.893341
vt 0.568359 0.255859
vn 0.591391 -0.623422 0.511471
v 0.596133 0.969577 0.892482
vt 0.567871 0.255859
vn -0.197317 -0.261839 0.944725
v 0.595942 0.969628 0.893781
vt 0.567871 0.255371
vn 0.248520 -0.410465 0.877358
v 0.583603 1.070278 0.930003
vt 0.545410 0.253418
vn 0.994117 -0.053736 -0.094038
v 0.583179 1.068754 0.931285
vt 0.545410 0.253418
vn 0.989709 -0.053176 -0.132850
v 0.519690 1.036641 1.071707
vt 0.517090 0.254395
vn 0.149373 -0.842765 -0.517142
v 0.520070 1.035388 1.070977
vt 0.517090 0.253906
vn 0.058219 -0.892910 -0.446455
v 0.596588 0.979779 0.896653
vt 0.565918 0.254883
vn 0.053958 -0.084856 0.994931
v 0.596767 1.016663 0.899813
vt 0.559570 0.254395
vn 0.031959 -0.008010 0.999457
v 0.593614 1.056209 0.910029
vt 0.551270 0.253418
vn 0.528472 -0.084080 0.844777
v 0.592077 1.062859 0.914224
vt 0.549805 0.253418
vn 0.818155 -0.135148 0.558889
v 0.531501 1.045610 1.049221
vt 0.521973 0.252441
vn 0.147224 -0.373541 -0.915856
v 0.526008 1.040448 1.061065
vt 0.519043 0.252930
vn 0.111222 -0.608115 -0.786019
v 0.589285 1.065725 0.920437
vt 0.547852 0.253418
vn 0.974379 -0.173799 0.142754
v 0.586861 1.066214 0.926231
vt 0.546875 0.252930
vn 0.989405 -0.140479 -0.036651
v 0.584111 1.066161 0.932409
vt 0.545410 0.252930
vn 0.988046 -0.046737 -0.146902
v 0.522180 1.033692 1.069084
vt 0.517090 0.253418
vn 0.050581 -0.872133 -0.486647
v 0.519138 1.023609 1.075050
vt 0.514648 0.254395
vn -0.019679 -0.985329 -0.169527
v 0.573702 1.064252 0.956036
vt 0.540527 0.252441
vn 0.194688 -0.027828 -0.980470
v 0.548850 1.055026 1.011012
vt 0.529785 0.251953
vn 0.175898 -0.161839 -0.971014
v 0.538177 1.049793 1.034536
vt 0.524902 0.252441
vn 0.162991 -0.240978 -0.956747
v 0.516775 1.011489 1.079371
vt 0.512207 0.255371
vn -0.063735 -0.995929 -0.063752
v 0.598346 0.968172 0.895518
vt 0.568359 0.255371
vn 0.432212 -0.522660 0.734860
v 0.561222 1.060181 0.983718
vt 0.535156 0.251953
vn 0.184331 -0.104355 -0.977309
v 0.514419 0.996170 1.083932
vt 0.509766 0.256348
vn -0.128393 -0.990574 -0.047729
v 0.595985 1.033784 0.903040
vt 0.556152 0.253906
vn 0.195188 -0.036634 0.980081
v 0.594494 1.049639 0.907599
vt 0.553223 0.253906
vn 0.341267 -0.052848 0.938479
v 0.597312 0.969468 0.891658
vt 0.567871 0.255859
vn -0.000016 -0.049005 0.998799
v 0.511583 0.982112 1.088054
vt 0.507812 0.257812
vn -0.340537 -0.939700 -0.031608
v 0.604660 0.978527 1.074227
vt 0.519043 0.272949
vn 0.533143 -0.533195 -0.656857
v 0.594506 0.979146 1.080417
vt 0.517090 0.271484
vn 0.559218 -0.686180 -0.465223
v 0.624640 0.977104 1.058540
vt 0.522949 0.275391
vn 0.479704 -0.402661 -0.779582
v 0.583000 0.979724 1.085309
vt 0.515137 0.269531
vn 0.528803 -0.803180 -0.274353
v 0.511802 0.981520 1.090909
vt 0.507812 0.258789
vn 0.151691 -0.972855 0.174768
v 0.648310 0.975205 1.036296
vt 0.527832 0.278320
vn 0.429142 -0.325842 -0.842416
v 0.673354 0.973007 1.009516
vt 0.534180 0.281250
vn 0.381567 -0.256956 -0.887908
v 0.694835 0.971002 0.984679
vt 0.540039 0.283691
vn 0.367153 -0.229968 -0.901284
v 0.731300 0.967501 0.940367
vt 0.550781 0.286133
vn 0.303292 -0.035297 -0.952244
v 0.700938 0.970433 0.977622
vt 0.541992 0.284180
vn 0.341309 -0.181570 -0.922248
v 0.755459 0.965134 0.910314
vt 0.558105 0.286621
vn 0.979938 -0.066017 -0.188053
v 0.757635 0.964082 0.893225
vt 0.562500 0.285156
vn -0.666329 -0.497694 0.555253
v 0.763083 0.964320 0.899676
vt 0.560547 0.286133
vn -0.894428 -0.007886 0.447142
v 0.760388 0.964652 0.904193
vt 0.559570 0.286621
vn 0.988539 -0.146455 -0.036632
v 0.762351 0.964114 0.895838
vt 0.561523 0.285645
vn -0.890899 -0.278885 0.358500
v 0.597709 0.968067 0.893341
vt 0.568359 0.255859
vn 0.083777 -0.438041 0.895043
v 0.642393 0.966995 0.892516
vt 0.567871 0.263672
vn -0.060608 -0.420491 0.905270
v 0.679981 0.965981 0.891962
vt 0.567383 0.270996
vn -0.155440 -0.481744 0.862416
v 0.648000 0.966820 0.892421
vt 0.567871 0.265137
vn -0.116633 -0.470436 0.874692
v 0.511583 0.982112 1.088054
vt 0.507812 0.257812
vn -0.509155 -0.855407 -0.095082
v 0.509762 0.983409 1.089583
vt 0.507812 0.257812
vn -0.509155 -0.855407 -0.095082
v 0.511802 0.981520 1.090909
vt 0.507812 0.258789
vn -0.509155 -0.855407 -0.095082
v 0.700938 0.970433 0.977622
vt 0.480225 0.573730
vn -0.636795 0.768059 0.067654
v 0.695948 0.970433 0.979571
vt 0.480713 0.573975
vn -0.636795 0.768059 0.067654
v 0.694835 0.971002 0.984679
vt 0.481201 0.573730
vn -0.636795 0.768059 0.067654
v 0.648000 0.966820 0.892421
vt 0.474609 0.581543
vn -0.640699 0.764769 0.068061
v 0.700938 0.970433 0.977622
vt 0.480225 0.573730
vn -0.640699 0.764769 0.068061
v 0.679981 0.965981 0.891962
vt 0.473389 0.579590
vn -0.640699 0.764769 0.068061
v 0.731300 0.967501 0.940367
vt 0.475830 0.573730
vn -0.640699 0.764769 0.068061
v 0.755459 0.965134 0.910314
vt 0.472168 0.573730
vn -0.640699 0.764769 0.068061
v 0.716597 0.965058 0.892091
vt 0.472168 0.577148
vn -0.640699 0.764769 0.068061
v 0.760388 0.964652 0.904193
vt 0.471436 0.573730
vn -0.640699 0.764769 0.068061
v 0.752166 0.964206 0.892966
vt 0.470703 0.574951
vn -0.640699 0.764769 0.068061
v 0.763083 0.964320 0.899676
vt 0.470947 0.573975
vn -0.640699 0.764769 0.068061
v 0.757635 0.964082 0.893225
vt 0.470703 0.574463
vn -0.640699 0.764769 0.068061
v 0.762351 0.964114 0.895838
vt 0.470703 0.574219
vn -0.640699 0.764769 0.068061
v 0.644264 0.967115 0.895557
vt 0.475098 0.581787
vn -0.655415 0.752490 0.064739
v 0.635268 0.967630 0.911699
vt 0.476807 0.581299
vn -0.663454 0.745342 0.065533
v 0.668712 0.968684 0.935298
vt 0.477783 0.578125
vn -0.655415 0.752490 0.064739
v 0.644264 0.967115 0.895557
vt 0.475098 0.581787
vn -0.656621 0.750987 0.069772
v 0.639368 0.967313 0.901014
vt 0.475830 0.581787
vn -0.656621 0.750987 0.069772
v 0.635268 0.967630 0.911699
vt 0.476807 0.581299
vn -0.656621 0.750987 0.069772
v 0.633521 0.967988 0.922186
vt 0.478027 0.581055
vn -0.659441 0.748929 0.065137
v 0.633930 0.968505 0.935714
vt 0.479004 0.580322
vn -0.659441 0.748929 0.065137
v 0.637727 0.969111 0.949772
vt 0.480225 0.579346
vn -0.659441 0.748929 0.065137
v 0.656282 0.970330 0.972089
vt 0.481445 0.576904
vn -0.648589 0.758012 0.068918
v 0.695948 0.970433 0.979571
vt 0.480713 0.573975
vn -0.648589 0.758012 0.068918
v 0.680965 0.971222 0.982356
vt 0.481445 0.574707
vn -0.644640 0.761414 0.068467
v 0.645507 0.969727 0.961908
vt 0.480957 0.578125
vn -0.659441 0.748929 0.065137
v 0.642393 0.966995 0.892516
vt 0.475098 0.582031
vn -0.631667 0.771511 0.075948
v 0.644264 0.967115 0.895557
vt 0.475098 0.581787
vn -0.631667 0.771511 0.075948
v 0.648000 0.966820 0.892421
vt 0.474609 0.581543
vn -0.631667 0.771511 0.075948
v 0.575744 0.936531 0.985106
vt 0.951660 0.757568
vn 0.991935 -0.047090 -0.117673
v 0.588054 0.934984 0.952919
vt 0.958496 0.757812
vn 0.987887 -0.020537 -0.153812
v 0.563775 0.936977 0.990122
vt 0.949707 0.759399
vn 0.992887 -0.059779 -0.102964
v 0.578577 0.935160 0.956557
vt 0.957031 0.759277
vn 0.989715 -0.027413 -0.140401
v 0.599000 0.935055 0.925928
vt 0.964844 0.758057
vn 0.194578 -0.041722 -0.979999
v 0.592086 0.935112 0.926740
vt 0.963867 0.759277
vn 0.187975 -0.027887 -0.981778
v 0.614126 0.936846 0.910719
vt 0.968750 0.756714
vn 0.212037 -0.166870 -0.962910
v 0.595142 0.935784 0.919122
vt 0.965332 0.759399
vn 0.204369 -0.103925 -0.973362
v 0.597987 0.937252 0.911501
vt 0.967285 0.759644
vn 0.215831 -0.174074 -0.960789
v 0.634229 0.937799 0.904008
vt 0.972168 0.753662
vn 0.217247 -0.543166 -0.811033
v 0.632243 0.935354 0.910998
vt 0.970703 0.753296
vn 0.183655 -0.310869 -0.932540
v 0.637269 0.939728 0.905494
vt 0.972656 0.752930
vn 0.222845 -0.577316 -0.785523
v 0.635292 0.937804 0.911622
vt 0.971191 0.752563
vn 0.189613 -0.323111 -0.927171
v 0.616316 0.939887 0.903920
vt 0.970215 0.757080
vn 0.231695 -0.413522 -0.880521
v 0.599952 0.940769 0.904332
vt 0.968750 0.760132
vn 0.228335 -0.421107 -0.877800
v 0.617900 0.944684 0.899197
vt 0.971680 0.757568
vn 0.257263 -0.619033 -0.742034
v 0.600201 0.945486 0.899587
vt 0.969727 0.760742
vn 0.246329 -0.627043 -0.739013
v 0.619297 0.950028 0.896146
vt 0.972656 0.758057
vn 0.279972 -0.731106 -0.622173
v 0.599982 0.950872 0.896744
vt 0.970703 0.761475
vn 0.262522 -0.741297 -0.617706
v 0.620517 0.956279 0.893768
vt 0.974121 0.758667
vn 0.305960 -0.773057 -0.555672
v 0.601071 0.957042 0.894313
vt 0.972168 0.762085
vn 0.284032 -0.792211 -0.540119
v 0.603022 0.966839 0.891820
vt 0.974121 0.762939
vn 0.417189 -0.771680 -0.480065
v 0.622690 0.966327 0.891246
vt 0.976074 0.759644
vn 0.423779 -0.774671 -0.469358
v 0.595311 0.951091 0.896728
vt 0.970215 0.762329
vn 0.243472 -0.722835 -0.646707
v 0.596255 0.957197 0.894376
vt 0.971680 0.762939
vn 0.256357 -0.776972 -0.574974
v 0.597569 0.966982 0.892002
vt 0.973145 0.763794
vn 0.407647 -0.662479 -0.628447
v 0.593828 0.946202 0.899578
vt 0.969238 0.762085
vn 0.217666 -0.634611 -0.741546
v 0.597919 0.945932 0.899458
vt 0.969727 0.761230
vn 0.231691 -0.672757 -0.702650
v 0.591846 0.941553 0.903924
vt 0.968262 0.761841
vn 0.179558 -0.474103 -0.861966
v 0.594977 0.941442 0.903904
vt 0.968262 0.761230
vn 0.191082 -0.519270 -0.832975
v 0.588794 0.938093 0.910806
vt 0.966309 0.761841
vn 0.146537 -0.307454 -0.940212
v 0.591602 0.937584 0.910612
vt 0.966797 0.761230
vn 0.149787 -0.342469 -0.927512
v 0.585639 0.936229 0.918299
vt 0.964844 0.761963
vn 0.142465 -0.163874 -0.976140
v 0.588043 0.935882 0.918194
vt 0.964844 0.761597
vn 0.135151 -0.177870 -0.974729
v 0.582312 0.935349 0.926164
vt 0.962891 0.762085
vn 0.155119 -0.035294 -0.987265
v 0.584420 0.935106 0.926112
vt 0.963379 0.761719
vn 0.151152 -0.035190 -0.987884
v 0.571144 0.934868 0.956772
vt 0.956543 0.761841
vn 0.988278 -0.013843 -0.152039
v 0.568980 0.935188 0.956761
vt 0.956543 0.762207
vn 0.988903 -0.020543 -0.147134
v 0.554805 0.937056 0.993363
vt 0.948242 0.761963
vn 0.992887 -0.059779 -0.102964
v 0.552639 0.937433 0.993247
vt 0.948242 0.762451
vn 0.993221 -0.066015 -0.095674
v 0.536190 0.942101 1.030032
vt 0.939941 0.762573
vn 0.992419 -0.113456 -0.047244
v 0.538271 0.941680 1.030136
vt 0.940430 0.762207
vn 0.993145 -0.101878 -0.057304
v 0.529697 0.945546 1.050166
vt 0.935547 0.762085
vn 0.987644 -0.156598 -0.006020
v 0.527668 0.946073 1.050018
vt 0.935547 0.762451
vn 0.986280 -0.164401 0.014959
v 0.521723 0.950854 1.069534
vt 0.931152 0.761597
vn 0.983764 -0.169023 0.060327
v 0.519629 0.951253 1.069289
vt 0.931152 0.761963
vn 0.982406 -0.165815 0.085930
v 0.519157 0.955108 1.078085
vt 0.929199 0.761353
vn 0.935220 -0.156992 0.317361
v 0.516010 0.955312 1.077875
vt 0.929199 0.761963
vn 0.922098 -0.136646 0.362027
v 0.519157 0.955108 1.078085
vt 0.633301 0.727783
vn 0.899526 -0.210576 -0.382768
v 0.516010 0.955312 1.077875
vt 0.632812 0.727783
vn 0.900262 -0.415543 -0.129816
v 0.519083 0.962354 1.085873
vt 0.633301 0.725586
vn 0.901575 -0.197261 -0.385034
v 0.513233 0.962898 1.085994
vt 0.631836 0.725586
vn 0.902159 -0.409703 -0.135103
v 0.517716 0.969621 1.090334
vt 0.632324 0.723877
vn 0.913737 -0.229630 -0.335195
v 0.511633 0.969849 1.090247
vt 0.631348 0.724121
vn 0.897883 -0.432314 -0.083137
v 0.516275 0.976984 1.093900
vt 0.631836 0.722412
vn 0.920549 -0.252720 -0.297863
v 0.510339 0.977248 1.093763
vt 0.630371 0.722656
vn 0.891932 -0.448019 -0.061123
v 0.535695 0.976035 1.093782
vt 0.635742 0.721680
vn 0.914279 -0.218371 -0.341185
v 0.536600 0.962433 1.086012
vt 0.636719 0.724609
vn 0.916135 -0.205604 -0.344127
v 0.548384 0.975664 1.093143
vt 0.638184 0.721191
vn 0.918940 -0.202303 -0.338560
v 0.548333 0.961973 1.085143
vt 0.639160 0.724365
vn 0.923571 -0.198575 -0.328001
v 0.573537 0.974485 1.089690
vt 0.643066 0.720215
vn 0.930709 -0.153793 -0.331856
v 0.571743 0.960833 1.081320
vt 0.644043 0.723633
vn 0.932184 -0.144067 -0.332082
v 0.561010 0.975144 1.091886
vt 0.640625 0.720703
vn 0.923782 -0.177994 -0.339036
v 0.559994 0.961449 1.083686
vt 0.641602 0.723877
vn 0.928076 -0.174814 -0.328809
v 0.583142 0.960136 1.077649
vt 0.646484 0.723389
vn 0.935977 -0.107860 -0.335131
v 0.585724 0.973771 1.086080
vt 0.645996 0.719971
vn 0.933293 -0.108919 -0.342200
v 0.597349 0.973111 1.080896
vt 0.648438 0.719971
vn 0.937501 -0.074728 -0.339865
v 0.593784 0.959432 1.072689
vt 0.648926 0.723145
vn 0.939120 -0.074561 -0.335403
v 0.603679 0.958791 1.066636
vt 0.651367 0.723145
vn 0.939700 -0.036597 -0.340035
v 0.606680 0.972562 1.075244
vt 0.650391 0.719971
vn 0.938956 -0.036428 -0.342102
v 0.625727 0.971222 1.060794
vt 0.655273 0.719971
vn 0.944811 -0.021590 -0.326903
v 0.621100 0.957776 1.053426
vt 0.655762 0.723145
vn 0.944811 -0.021590 -0.326903
v 0.649929 0.969087 1.037791
vt 0.662109 0.720215
vn 0.952049 -0.014089 -0.305622
v 0.641330 0.955887 1.034139
vt 0.661621 0.723633
vn 0.950678 -0.014121 -0.309858
v 0.674876 0.966928 1.010939
vt 0.669922 0.720703
vn 0.954146 -0.007078 -0.299257
v 0.665248 0.953560 1.008731
vt 0.668945 0.724121
vn 0.955380 -0.014085 -0.295042
v 0.591893 0.939859 1.017431
vt 0.946777 0.751831
vn 0.991208 -0.130514 -0.021758
v 0.619105 0.952862 1.049156
vt 0.942871 0.743896
vn 0.987838 -0.152477 0.030460
v 0.637225 0.951031 1.031827
vt 0.947754 0.741943
vn 0.988503 -0.151173 -0.003017
v 0.557403 0.941460 1.030675
vt 0.941406 0.757324
vn 0.989395 -0.144438 0.015343
v 0.537959 0.956447 1.079379
vt 0.930176 0.757324
vn 0.977167 -0.143711 0.156497
v 0.560045 0.955545 1.078108
vt 0.932129 0.753174
vn 0.986315 -0.141373 0.084831
v 0.548296 0.955939 1.079407
vt 0.931152 0.755249
vn 0.982199 -0.144820 0.119634
v 0.537959 0.956447 1.079379
vt 0.637207 0.726562
vn 0.869002 -0.063049 -0.490776
v 0.548296 0.955939 1.079407
vt 0.639648 0.726074
vn 0.894618 -0.106326 -0.433997
v 0.581852 0.954535 1.072221
vt 0.646484 0.724854
vn 0.926239 -0.069504 -0.370474
v 0.591997 0.954340 1.067893
vt 0.648926 0.724609
vn 0.930848 -0.044888 -0.362639
v 0.619105 0.952862 1.049156
vt 0.656250 0.724609
vn 0.951308 -0.042623 -0.305281
v 0.637225 0.951031 1.031827
vt 0.661133 0.724854
vn 0.957173 -0.041940 -0.286462
v 0.560045 0.955545 1.078108
vt 0.642090 0.725586
vn 0.894049 -0.068130 -0.442758
v 0.571524 0.954844 1.075402
vt 0.644531 0.725342
vn 0.905546 -0.056626 -0.420452
v 0.601768 0.953977 1.062207
vt 0.651367 0.724609
vn 0.944548 -0.050497 -0.324467
v 0.524116 0.955457 1.078941
vt 0.634277 0.727295
vn 0.901537 -0.143567 -0.408191
v 0.528643 0.951244 1.070401
vt 0.931641 0.760010
vn 0.986462 -0.135963 0.091686
v 0.524116 0.955457 1.078941
vt 0.929199 0.760254
vn 0.916252 -0.147045 0.372640
v 0.637370 0.939321 0.989468
vt 0.956055 0.745605
vn 0.992316 -0.113067 -0.050238
v 0.661321 0.949034 1.007095
vt 0.954102 0.739502
vn 0.988419 -0.151626 -0.006069
v 0.661321 0.949034 1.007095
vt 0.668457 0.725342
vn 0.963331 -0.048028 -0.263981
v 0.537021 0.945585 1.050307
vt 0.936035 0.759766
vn 0.987685 -0.135257 0.078639
v 0.545386 0.941594 1.030770
vt 0.940430 0.759644
vn 0.992532 -0.119369 -0.025140
v 0.604559 0.934834 0.947133
vt 0.961426 0.755127
vn 0.986112 -0.013800 -0.165508
v 0.609440 0.934814 0.930295
vt 0.964844 0.755737
vn 0.190697 -0.020824 -0.981428
v 0.596432 0.935931 0.974594
vt 0.955566 0.754517
vn 0.990938 -0.040481 -0.128078
v 0.554213 0.938970 1.011484
vt 0.944824 0.759399
vn 0.993815 -0.090376 -0.064521
v 0.566759 0.938513 1.008442
vt 0.946777 0.757324
vn 0.993604 -0.078204 -0.081460
v 0.601768 0.953977 1.062207
vt 0.938477 0.746338
vn 0.987569 -0.150315 0.045974
v 0.571524 0.954844 1.075402
vt 0.933594 0.751099
vn 0.987060 -0.155386 0.039591
v 0.581852 0.954535 1.072221
vt 0.935059 0.749268
vn 0.988016 -0.145151 0.052485
v 0.591997 0.954340 1.067893
vt 0.937012 0.747803
vn 0.987569 -0.150315 0.045974
v 0.619206 0.935641 0.963026
vt 0.959473 0.751099
vn 0.990442 -0.040599 -0.131821
v 0.619332 0.934715 0.940930
vt 0.963867 0.752930
vn 0.986644 -0.020654 -0.161575
v 0.620907 0.934727 0.923342
vt 0.967285 0.754272
vn 0.197317 -0.034649 -0.979727
v 0.639912 0.956346 0.893228
vt 0.976562 0.755493
vn 0.332922 -0.756362 -0.563098
v 0.642099 0.965848 0.890814
vt 0.978027 0.756592
vn 0.395980 -0.828457 -0.396054
v 0.636343 0.943084 0.898742
vt 0.973633 0.754150
vn 0.250375 -0.798239 -0.547839
v 0.639405 0.944360 0.900937
vt 0.974121 0.753418
vn 0.257279 -0.815445 -0.518515
v 0.638071 0.949205 0.895812
vt 0.975098 0.754761
vn 0.281784 -0.900109 -0.332267
v 0.641117 0.950108 0.898335
vt 0.975586 0.754028
vn 0.283307 -0.905056 -0.317192
v 0.639912 0.956346 0.893228
vt 0.976562 0.755493
vn 0.290151 -0.939263 -0.183296
v 0.643060 0.957163 0.895796
vt 0.977051 0.754883
vn 0.310711 -0.939453 -0.144523
v 0.592172 0.937475 0.996759
vt 0.950684 0.753418
vn 0.992949 -0.065766 -0.098631
v 0.630825 0.934428 0.922292
vt 0.968262 0.752563
vn 0.149070 -0.269790 -0.951310
v 0.633533 0.937121 0.922113
vt 0.968750 0.751831
vn 0.152023 -0.268751 -0.951137
v 0.631200 0.934522 0.936706
vt 0.965820 0.751221
vn 0.122341 -0.331076 -0.935640
v 0.633926 0.937253 0.935652
vt 0.966309 0.750610
vn 0.122629 -0.324644 -0.937853
v 0.635258 0.935329 0.951691
vt 0.963379 0.749268
vn 0.102694 -0.418250 -0.902508
v 0.637708 0.938050 0.949727
vt 0.963867 0.748779
vn 0.106319 -0.410645 -0.905576
v 0.653983 0.938709 0.974903
vt 0.959961 0.743652
vn 0.102385 -0.424295 -0.899717
v 0.679123 0.946739 0.986719
vt 0.959473 0.737793
vn 0.102712 -0.366938 -0.924558
v 0.656240 0.941308 0.972095
vt 0.960938 0.743408
vn 0.102694 -0.418250 -0.902508
v 0.680917 0.948597 0.982417
vt 0.960449 0.737549
vn 0.102563 -0.351681 -0.930484
v 0.626502 0.937018 0.976715
vt 0.957520 0.748779
vn 0.992188 -0.059761 -0.109508
v 0.643032 0.936631 0.964138
vt 0.961426 0.746582
vn 0.099076 -0.469825 -0.877182
v 0.645475 0.939329 0.961887
vt 0.961914 0.746338
vn 0.095754 -0.471497 -0.876654
v 0.649981 0.970557 1.037715
vt 0.662109 0.719971
vn 0.954146 -0.007078 -0.299257
v 0.675209 0.968240 1.010852
vt 0.669922 0.720459
vn 0.959233 -0.007012 -0.282530
v 0.673354 0.973007 1.009516
vt 0.669922 0.719482
vn 0.960451 -0.006996 -0.278361
v 0.648310 0.975205 1.036296
vt 0.662109 0.718994
vn 0.954768 -0.007032 -0.297270
v 0.625910 0.972555 1.060875
vt 0.655273 0.719727
vn 0.951766 -0.028127 -0.305532
v 0.624640 0.977104 1.058540
vt 0.655762 0.718506
vn 0.952454 -0.028254 -0.303370
v 0.606550 0.973913 1.075558
vt 0.650391 0.719482
vn 0.949243 -0.057553 -0.309232
v 0.604660 0.978527 1.074227
vt 0.650391 0.718506
vn 0.950230 -0.064554 -0.304790
v 0.597530 0.974462 1.081075
vt 0.648438 0.719727
vn 0.934901 -0.075420 -0.346803
v 0.594506 0.979146 1.080417
vt 0.647949 0.718506
vn 0.934242 -0.091906 -0.344594
v 0.583000 0.979724 1.085309
vt 0.645020 0.718750
vn 0.919344 -0.133121 -0.370251
v 0.585841 0.975123 1.086318
vt 0.645996 0.719727
vn 0.927106 -0.120940 -0.354750
v 0.573614 0.975782 1.089912
vt 0.643066 0.719971
vn 0.915016 -0.175134 -0.363420
v 0.570881 0.980205 1.088278
vt 0.642578 0.719238
vn 0.905005 -0.193943 -0.378619
v 0.558459 0.980617 1.089927
vt 0.640137 0.719482
vn 0.880228 -0.226509 -0.417003
v 0.561034 0.976370 1.092070
vt 0.640625 0.720459
vn 0.892199 -0.205917 -0.401968
v 0.548335 0.976844 1.093307
vt 0.638184 0.720947
vn 0.878862 -0.237847 -0.413559
v 0.542237 0.981080 1.090806
vt 0.636719 0.720215
vn 0.885113 -0.316492 -0.341187
v 0.525977 0.981504 1.090987
vt 0.633301 0.720703
vn 0.882295 -0.421005 -0.210502
v 0.535584 0.977204 1.093955
vt 0.635742 0.721436
vn 0.885255 -0.308385 -0.348169
v 0.516171 0.977935 1.094015
vt 0.631836 0.722168
vn 0.879325 -0.456611 -0.135255
v 0.511802 0.981520 1.090909
vt 0.629883 0.721924
vn 0.862303 -0.500735 -0.075488
v 0.510301 0.978199 1.093855
vt 0.630371 0.722412
vn 0.724053 -0.607295 0.327017
v 0.511802 0.981520 1.090909
vt 0.629883 0.721924
vn 0.829764 -0.555698 0.051870
v 0.582596 0.939748 0.926674
vt 0.963379 0.763428
vn 0.201126 -0.055500 -0.977992
v 0.581038 0.938558 0.926158
vt 0.962891 0.763062
vn 0.198388 -0.062663 -0.978118
v 0.586007 0.940452 0.918873
vt 0.964844 0.763306
vn 0.208650 -0.187830 -0.959784
v 0.584491 0.939330 0.918367
vt 0.964844 0.762939
vn 0.199007 -0.195576 -0.960284
v 0.589269 0.942136 0.911402
vt 0.966797 0.763062
vn 0.193629 -0.323948 -0.926048
v 0.587804 0.941198 0.910909
vt 0.966797 0.762695
vn 0.190848 -0.325224 -0.926178
v 0.589835 0.942972 0.904220
vt 0.967773 0.762329
vn 0.169148 -0.467913 -0.867437
v 0.587011 0.939562 0.910464
vt 0.966309 0.762329
vn 0.166337 -0.325641 -0.930747
v 0.591557 0.947046 0.900562
vt 0.969238 0.762573
vn 0.165092 -0.601733 -0.781449
v 0.592896 0.951554 0.897901
vt 0.970215 0.762817
vn 0.151998 -0.689572 -0.708087
v 0.594042 0.957514 0.895734
vt 0.971191 0.763428
vn 0.135728 -0.761759 -0.633483
v 0.595324 0.967130 0.893568
vt 0.973145 0.764160
vn 0.173602 -0.687096 -0.705522
v 0.569610 0.939779 0.955936
vt 0.956543 0.763672
vn 0.984123 -0.006989 -0.177351
v 0.567910 0.938556 0.955692
vt 0.956543 0.763306
vn 0.984338 -0.006912 -0.176158
v 0.553351 0.941887 0.992437
vt 0.948242 0.763794
vn 0.991875 -0.059528 -0.112432
v 0.551687 0.940676 0.992216
vt 0.948242 0.763428
vn 0.991875 -0.059528 -0.112432
v 0.535571 0.945282 1.028765
vt 0.939941 0.763550
vn 0.992697 -0.113462 -0.040977
v 0.537299 0.946427 1.028870
vt 0.940430 0.763916
vn 0.992914 -0.107525 -0.050601
v 0.528723 0.950525 1.048787
vt 0.935547 0.763916
vn 0.989332 -0.136903 0.049798
v 0.526931 0.949286 1.048702
vt 0.935547 0.763428
vn 0.988749 -0.139926 0.052880
v 0.520841 0.955427 1.066888
vt 0.931152 0.763550
vn 0.982501 -0.128451 0.134877
v 0.518936 0.954234 1.067086
vt 0.931152 0.763062
vn 0.979596 -0.132128 0.151441
v 0.516804 0.958875 1.075242
vt 0.929199 0.763306
vn 0.963780 -0.157459 0.215254
v 0.515078 0.957893 1.075570
vt 0.929199 0.762939
vn 0.969020 -0.161520 0.186849
v 0.513887 0.965168 1.082127
vt 0.630859 0.726318
vn -0.828028 -0.387614 0.405123
v 0.512128 0.964448 1.082695
vt 0.630859 0.726318
vn -0.614531 -0.374081 0.694561
v 0.516804 0.958875 1.075242
vt 0.631348 0.728271
vn -0.872750 -0.353083 0.337104
v 0.515078 0.957893 1.075570
vt 0.631836 0.728027
vn -0.672990 -0.336482 0.658684
v 0.512300 0.971247 1.085914
vt 0.629883 0.725098
vn -0.776480 -0.441205 0.449908
v 0.510521 0.970826 1.086677
vt 0.630371 0.724854
vn -0.588178 -0.436963 0.680521
v 0.511427 0.976398 1.087912
vt 0.629395 0.723877
vn -0.687984 -0.474038 0.549515
v 0.509494 0.976600 1.089327
vt 0.629883 0.723633
vn -0.531269 -0.470911 0.704270
v 0.509415 0.977634 1.089600
vt 0.629395 0.723389
vn -0.538439 -0.482179 0.691077
v 0.511583 0.982112 1.088054
vt 0.628906 0.723145
vn -0.558783 -0.485906 0.672054
v 0.511802 0.981520 1.090909
vt 0.629883 0.721924
vn 0.233873 -0.584719 0.776793
v 0.508148 0.977744 1.091719
vt 0.629883 0.722900
vn -0.175524 -0.454005 0.873539
v 0.508198 0.976647 1.091460
vt 0.629883 0.723145
vn 0.491519 -0.475726 0.729447
v 0.509335 0.970152 1.088165
vt 0.630859 0.724609
vn 0.396286 -0.404269 0.824333
v 0.510944 0.963360 1.083953
vt 0.631348 0.726074
vn 0.465950 -0.392420 0.793030
v 0.513944 0.956414 1.076487
vt 0.632324 0.728027
vn 0.466206 -0.370507 0.803353
v 0.513944 0.956414 1.076487
vt 0.929199 0.762451
vn 0.953849 -0.115017 0.277385
v 0.517626 0.952447 1.067770
vt 0.931152 0.762573
vn 0.980578 -0.156179 0.118633
v 0.525739 0.947410 1.049038
vt 0.935547 0.762939
vn 0.987247 -0.153300 0.042925
v 0.534449 0.943487 1.029049
vt 0.939941 0.763062
vn 0.992068 -0.118938 -0.040683
v 0.550648 0.938807 0.992338
vt 0.948242 0.762939
vn 0.992188 -0.059761 -0.109508
v 0.566841 0.936666 0.955760
vt 0.956543 0.762817
vn 0.985516 -0.006950 -0.169441
v 0.580126 0.936692 0.925901
vt 0.962891 0.762573
vn 0.167441 -0.062804 -0.983880
v 0.594754 0.957895 0.897178
vt 0.971191 0.763672
vn -0.046340 -0.834687 -0.548771
v 0.596151 0.967288 0.894991
vt 0.973145 0.764404
vn 0.093620 -0.928651 -0.358946
v 0.593599 0.952156 0.899404
vt 0.969727 0.763184
vn 0.000000 -0.767594 -0.640937
v 0.592263 0.947907 0.901919
vt 0.968750 0.762939
vn 0.068407 -0.646133 -0.760153
v 0.590659 0.944414 0.905116
vt 0.967773 0.762695
vn 0.148039 -0.469546 -0.870409
v 0.583638 0.937523 0.918045
vt 0.964844 0.762451
vn 0.165354 -0.190026 -0.967754
v 0.592159 0.945186 0.905826
vt 0.968262 0.763062
vn 0.134181 -0.493254 -0.859474
v 0.593649 0.948207 0.902872
vt 0.968750 0.763184
vn 0.046021 -0.690847 -0.721535
v 0.594985 0.952324 0.900373
vt 0.969727 0.763550
vn -0.031165 -0.787261 -0.615832
v 0.596132 0.957962 0.897992
vt 0.971191 0.764038
vn -0.065883 -0.876401 -0.477054
v 0.598346 0.968172 0.895518
vt 0.973145 0.764771
vn 0.077841 -0.911033 -0.404920
v 0.511802 0.981520 1.090909
vt 0.628906 0.722656
vn -0.545397 -0.493280 0.677655
v 0.597709 0.968067 0.893341
vt 0.973633 0.764160
vn 0.709942 -0.528829 -0.465105
v 0.600092 0.968109 0.893649
vt 0.974121 0.763794
vn 0.551395 -0.832260 -0.057506
v 0.613972 0.967727 0.893147
vt 0.975586 0.761353
vn 0.486305 -0.873501 0.022420
v 0.642393 0.966995 0.892516
vt 0.978516 0.756714
vn 0.431485 -0.898982 0.075178
v 0.571144 0.934868 0.956772
vt 0.956543 0.761841
vn 0.985995 -0.006972 -0.166627
v 0.572297 0.931870 0.956208
vt 0.957031 0.761230
vn 0.986465 -0.006993 -0.163822
v 0.584420 0.935106 0.926112
vt 0.963379 0.761719
vn 0.168426 -0.077222 -0.982685
v 0.585856 0.932139 0.925675
vt 0.963379 0.761108
vn 0.161616 -0.077319 -0.983820
v 0.519157 0.955108 1.078085
vt 0.929199 0.761353
vn 0.925125 -0.146287 0.350347
v 0.520086 0.954840 1.077955
vt 0.929199 0.761108
vn 0.930705 -0.141635 0.337235
v 0.521723 0.950854 1.069534
vt 0.931152 0.761597
vn 0.972992 -0.163246 0.163206
v 0.522557 0.950307 1.069584
vt 0.931152 0.761353
vn 0.974941 -0.160421 0.154124
v 0.523207 0.954892 1.078559
vt 0.929688 0.760376
vn 0.940881 -0.150184 0.303625
v 0.524116 0.955457 1.078941
vt 0.929199 0.760254
vn 0.945099 -0.155346 0.287501
v 0.526989 0.949960 1.070538
vt 0.931641 0.760376
vn 0.977167 -0.143711 0.156497
v 0.528643 0.951244 1.070401
vt 0.931641 0.760010
vn 0.978096 -0.140682 0.153417
v 0.521600 0.954571 1.078309
vt 0.929199 0.760742
vn 0.929201 -0.144801 0.340027
v 0.524854 0.949270 1.070600
vt 0.931641 0.760864
vn 0.976558 -0.152208 0.152208
v 0.519157 0.955108 1.078085
vt 0.633301 0.727783
vn 0.912061 -0.346150 -0.219828
v 0.519083 0.962354 1.085873
vt 0.633301 0.725586
vn 0.909984 -0.232143 -0.343568
v 0.520086 0.954840 1.077955
vt 0.633789 0.727783
vn 0.896304 -0.437845 -0.070224
v 0.524116 0.955457 1.078941
vt 0.634277 0.727295
vn 0.478036 -0.090677 -0.873647
v 0.523207 0.954892 1.078559
vt 0.634277 0.727539
vn 0.517831 -0.043196 -0.854392
v 0.521600 0.954571 1.078309
vt 0.633789 0.727539
vn 0.912667 -0.262131 -0.313571
v 0.530725 0.943252 1.050539
vt 0.936035 0.761597
vn 0.986401 -0.151067 0.064738
v 0.529697 0.945546 1.050166
vt 0.935547 0.762085
vn 0.986130 -0.154106 0.061639
v 0.537021 0.945585 1.050307
vt 0.936035 0.759766
vn 0.988155 -0.147325 0.042959
v 0.535771 0.942868 1.050885
vt 0.936035 0.760376
vn 0.987406 -0.148141 0.055523
v 0.545386 0.941594 1.030770
vt 0.940430 0.759644
vn 0.989395 -0.144438 0.015343
v 0.544488 0.938653 1.030983
vt 0.940430 0.760254
vn 0.991870 -0.124794 -0.024927
v 0.562385 0.933984 0.990441
vt 0.949707 0.760132
vn 0.993458 -0.072134 -0.088529
v 0.563775 0.936977 0.990122
vt 0.949707 0.759399
vn 0.993120 -0.072348 -0.092077
v 0.545386 0.941594 1.030770
vt 0.940430 0.759644
vn 0.993145 -0.101878 -0.057304
v 0.578577 0.935160 0.956557
vt 0.957031 0.759277
vn 0.988894 -0.027204 -0.146112
v 0.577235 0.932106 0.956901
vt 0.957031 0.760010
vn 0.989302 -0.027292 -0.143309
v 0.592086 0.935112 0.926740
vt 0.963867 0.759277
vn 0.184860 -0.069798 -0.980283
v 0.590675 0.932535 0.926813
vt 0.963867 0.759766
vn 0.181160 -0.041832 -0.982564
v 0.595142 0.935784 0.919122
vt 0.965332 0.759399
vn 0.178943 -0.224562 -0.957889
v 0.594212 0.934287 0.919079
vt 0.965332 0.759766
vn 0.172399 -0.218168 -0.960563
v 0.599952 0.940769 0.904332
vt 0.968750 0.760132
vn 0.211993 -0.614097 -0.760226
v 0.599043 0.940294 0.904315
vt 0.968750 0.760254
vn 0.208007 -0.583989 -0.784659
v 0.597987 0.937252 0.911501
vt 0.967285 0.759644
vn 0.181951 -0.421123 -0.888566
v 0.597087 0.936187 0.911095
vt 0.966797 0.759888
vn 0.184588 -0.390588 -0.901869
v 0.600201 0.945486 0.899587
vt 0.969727 0.760742
vn 0.238689 -0.663943 -0.708666
v 0.599272 0.945432 0.899673
vt 0.969727 0.760986
vn 0.232713 -0.628071 -0.742544
v 0.599982 0.950872 0.896744
vt 0.970703 0.761475
vn 0.247775 -0.716687 -0.651895
v 0.597919 0.945932 0.899458
vt 0.969727 0.761230
vn 0.225485 -0.621131 -0.750568
v 0.594977 0.941442 0.903904
vt 0.968262 0.761230
vn 0.190642 -0.510883 -0.838245
v 0.596516 0.940477 0.904099
vt 0.968262 0.760864
vn 0.191505 -0.527643 -0.827598
v 0.597632 0.939987 0.904261
vt 0.968262 0.760620
vn 0.203365 -0.544801 -0.813532
v 0.595327 0.935382 0.910376
vt 0.966797 0.760376
vn 0.174037 -0.369406 -0.912826
v 0.593376 0.936106 0.910083
vt 0.966797 0.760742
vn 0.167315 -0.384522 -0.907826
v 0.591602 0.937584 0.910612
vt 0.966797 0.761230
vn 0.167108 -0.369861 -0.913936
v 0.588043 0.935882 0.918194
vt 0.964844 0.761597
vn 0.165545 -0.218440 -0.961706
v 0.589636 0.933452 0.917427
vt 0.965332 0.760986
vn 0.162396 -0.254255 -0.953405
v 0.588139 0.930496 0.926253
vt 0.963379 0.760498
vn 0.171707 -0.028051 -0.984749
v 0.574787 0.930254 0.956479
vt 0.957031 0.760620
vn 0.988749 -0.020702 -0.148146
v 0.554805 0.937056 0.993363
vt 0.948242 0.761963
vn 0.992594 -0.059585 -0.105865
v 0.556059 0.934042 0.992846
vt 0.948730 0.761353
vn 0.992887 -0.059779 -0.102964
v 0.539621 0.939047 1.029996
vt 0.940430 0.761597
vn 0.992914 -0.107525 -0.050601
v 0.538271 0.941680 1.030136
vt 0.940430 0.762207
vn 0.992139 -0.119340 -0.037647
v 0.542173 0.936958 1.030699
vt 0.940430 0.760864
vn 0.993211 -0.107561 -0.044293
v 0.533619 0.941206 1.050408
vt 0.936035 0.760986
vn 0.987830 -0.150333 0.039889
v 0.559162 0.932261 0.991895
vt 0.949219 0.760742
vn 0.993221 -0.066015 -0.095674
v 0.591340 0.931746 0.918909
vt 0.964844 0.760376
vn 0.169120 -0.197374 -0.965630
v 0.696613 0.966148 0.986213
vt 0.676270 0.720947
vn 0.059752 -0.097141 -0.993475
v 0.694835 0.971002 0.984679
vt 0.676758 0.719727
vn 0.038110 -0.175423 -0.983755
v 0.697577 0.965605 0.981148
vt 0.677246 0.721191
vn 0.088107 -0.154244 -0.984097
v 0.695948 0.970433 0.979571
vt 0.677246 0.720215
vn 0.027034 -0.239723 -0.970465
v 0.696101 0.964885 0.986320
vt 0.676270 0.721191
vn 0.111617 -0.144097 -0.983249
v 0.684400 0.951468 0.987159
vt 0.674805 0.724365
vn 0.141949 -0.248462 -0.958184
v 0.685786 0.952739 0.982202
vt 0.675781 0.724609
vn 0.145169 -0.240812 -0.959654
v 0.679123 0.946739 0.986719
vt 0.674316 0.725830
vn 0.130509 -0.384418 -0.913887
v 0.680917 0.948597 0.982417
vt 0.675293 0.725586
vn 0.126386 -0.368442 -0.921019
v 0.638071 0.949205 0.895812
vt 0.975098 0.754761
vn 0.303570 -0.717585 -0.626831
v 0.636343 0.943084 0.898742
vt 0.973633 0.754150
vn 0.269911 -0.622345 -0.734734
v 0.634229 0.937799 0.904008
vt 0.972168 0.753662
vn 0.235103 -0.420418 -0.876342
v 0.632243 0.935354 0.910998
vt 0.970703 0.753296
vn 0.205585 -0.160324 -0.965418
v 0.630825 0.934428 0.922292
vt 0.968262 0.752563
vn 0.194688 -0.027828 -0.980470
v 0.631200 0.934522 0.936706
vt 0.965820 0.751221
vn 0.986182 -0.020551 -0.164387
v 0.635258 0.935329 0.951691
vt 0.963379 0.749268
vn 0.990059 -0.040432 -0.134719
v 0.643032 0.936631 0.964138
vt 0.961426 0.746582
vn 0.991374 -0.053231 -0.119769
v 0.653983 0.938709 0.974903
vt 0.959961 0.743652
vn 0.992106 -0.113402 -0.053535
v 0.679123 0.946739 0.986719
vt 0.959473 0.737793
vn 0.988367 -0.151607 -0.012112
v 0.679123 0.946739 0.986719
vt 0.674316 0.725830
vn 0.963129 -0.041445 -0.265828
v 0.684400 0.951468 0.987159
vt 0.674805 0.724365
vn 0.954768 -0.007032 -0.297270
v 0.696101 0.964885 0.986320
vt 0.676270 0.721191
vn 0.956057 -0.007015 -0.293096
v 0.696613 0.966148 0.986213
vt 0.676270 0.720947
vn 0.961633 -0.006979 -0.274251
v 0.694835 0.971002 0.984679
vt 0.676758 0.719727
vn 0.962804 -0.006962 -0.270111
v 0.694835 0.971002 0.984679
vt 0.676758 0.719727
vn -0.450249 0.879387 -0.154772
v 0.675209 0.968240 1.010852
vt 0.669922 0.720459
vn -0.430797 0.895479 -0.111946
v 0.673354 0.973007 1.009516
vt 0.674316 0.720459
vn -0.455392 0.875125 -0.163630
v 0.642099 0.965848 0.890814
vt 0.978027 0.756592
vn 0.530096 -0.844683 0.074225
v 0.642393 0.966995 0.892516
vt 0.978516 0.756714
vn 0.427843 -0.902926 0.040919
v 0.561222 1.060181 0.983718
vt 0.679199 0.831543
vn 0.315564 -0.063866 -0.946753
v 0.601064 1.057463 0.971921
vt 0.685059 0.825562
vn 0.218122 -0.076188 -0.972943
v 0.573702 1.064252 0.956036
vt 0.686035 0.832397
vn 0.207697 -0.062336 -0.976205
v 0.512300 0.971247 1.085914
vt 0.656250 0.805176
vn 0.935767 -0.159302 -0.314583
v 0.553774 0.975436 1.077470
vt 0.663574 0.807983
vn 0.938717 -0.183756 -0.291623
v 0.511427 0.976398 1.087912
vt 0.655762 0.806396
vn 0.925451 -0.157720 -0.344479
v 0.592159 0.945186 0.905826
vt 0.700684 0.800659
vn -0.245333 -0.210292 -0.946356
v 0.622796 0.950369 0.914001
vt 0.698242 0.805542
vn -0.215660 -0.374764 -0.901689
v 0.589269 0.942136 0.911402
vt 0.699219 0.799438
vn -0.162203 -0.112822 -0.980286
v 0.593614 1.056209 0.910029
vt 0.699707 0.829346
vn -0.955979 -0.270047 0.114799
v 0.624086 1.051498 0.917131
vt 0.696777 0.824829
vn -0.948182 -0.267289 0.171779
v 0.594494 1.049639 0.907599
vt 0.701172 0.827881
vn -0.946793 -0.321783 0.006166
v 0.625523 1.037750 0.912757
vt 0.697754 0.822266
vn -0.950444 -0.307006 -0.049021
v 0.511583 0.982112 1.088054
vt 0.655762 0.807983
vn 0.918132 -0.153066 -0.365521
v 0.593649 0.948207 0.902872
vt 0.701660 0.801514
vn -0.313568 -0.309947 -0.897557
v 0.586861 1.066214 0.926231
vt 0.693848 0.832275
vn 0.052544 -0.015031 -0.998506
v 0.619183 1.061607 0.924660
vt 0.695312 0.826660
vn -0.997383 -0.063215 0.035094
v 0.589285 1.065725 0.920437
vt 0.695801 0.831787
vn -0.996287 -0.075597 0.041187
v 0.594985 0.952324 0.900373
vt 0.702637 0.802734
vn -0.362850 -0.329204 -0.871760
v 0.592077 1.062859 0.914224
vt 0.697754 0.830933
vn -0.966689 -0.201391 0.157968
v 0.598346 0.968172 0.895518
vt 0.705078 0.806885
vn -0.478283 -0.241218 -0.844429
v 0.626719 0.968495 0.906057
vt 0.699707 0.808960
vn -0.481222 -0.312366 -0.819056
v 0.596132 0.957962 0.897992
vt 0.703613 0.804199
vn -0.416133 -0.217787 -0.882837
v 0.519138 1.023609 1.075050
vt 0.660645 0.818481
vn 0.831898 -0.018524 -0.554620
v 0.560464 1.026133 1.065721
vt 0.665527 0.818237
vn 0.526523 -0.114103 -0.842469
v 0.522180 1.033692 1.069084
vt 0.661133 0.819458
vn 0.566299 0.000000 -0.824200
v 0.582596 0.939748 0.926674
vt 0.695312 0.797729
vn 0.998727 -0.035693 -0.035644
v 0.615812 0.944753 0.928832
vt 0.695312 0.804199
vn 0.063489 -0.029897 -0.997535
v 0.569610 0.939779 0.955936
vt 0.687988 0.796875
vn 0.993168 -0.027515 -0.113400
v 0.596088 0.945278 0.975470
vt 0.685547 0.803467
vn 0.992893 -0.040689 -0.111842
v 0.584111 1.066161 0.932409
vt 0.692383 0.832520
vn 0.164639 -0.063066 -0.984336
v 0.516775 1.011489 1.079371
vt 0.659668 0.813965
vn 0.915016 -0.175134 -0.363420
v 0.556076 1.002674 1.072036
vt 0.664062 0.813477
vn 0.859768 -0.045035 -0.508696
v 0.553351 0.941887 0.992437
vt 0.679199 0.796387
vn 0.991151 -0.065862 -0.115250
v 0.596767 1.016663 0.899813
vt 0.705078 0.819702
vn -0.945047 -0.193622 -0.263433
v 0.627114 1.005106 0.906667
vt 0.699219 0.816040
vn -0.896006 -0.076413 -0.437418
v 0.596588 0.979779 0.896653
vt 0.705566 0.810181
vn -0.535004 -0.123785 -0.835732
v 0.514419 0.996170 1.083932
vt 0.655762 0.811279
vn 0.913615 -0.146544 -0.379253
v 0.537299 0.946427 1.028870
vt 0.669922 0.797119
vn 0.987527 -0.071706 -0.140173
v 0.571470 0.950660 1.034133
vt 0.672852 0.803711
vn 0.989630 -0.084122 -0.116430
v 0.595985 1.033784 0.903040
vt 0.703125 0.823975
vn -0.954071 -0.282432 -0.099902
v 0.526008 1.040448 1.061065
vt 0.659668 0.823120
vn 0.553626 0.000000 -0.832766
v 0.567434 1.041630 1.050059
vt 0.668457 0.821655
vn 0.379518 -0.133963 -0.915434
v 0.531501 1.045610 1.049221
vt 0.662598 0.825439
vn 0.464529 -0.040414 -0.884635
v 0.538177 1.049793 1.034536
vt 0.666016 0.827759
vn 0.292672 -0.119935 -0.948661
v 0.580257 1.048412 1.020405
vt 0.674805 0.823364
vn 0.280785 -0.098303 -0.954723
v 0.528723 0.950525 1.048787
vt 0.665039 0.798096
vn 0.978812 -0.110588 -0.172332
v 0.520841 0.955427 1.066888
vt 0.660645 0.800537
vn 0.961809 -0.096895 -0.256000
v 0.559302 0.958430 1.065731
vt 0.666504 0.804810
vn 0.977979 -0.175576 -0.112832
v 0.516804 0.958875 1.075242
vt 0.658691 0.801880
vn 0.955154 -0.182313 -0.233329
v 0.548850 1.055026 1.011012
vt 0.671875 0.826782
vn 0.264032 -0.104252 -0.958863
v 0.513887 0.965168 1.082127
vt 0.657227 0.803711
vn 0.948943 -0.173227 -0.263626
v 0.586007 0.940452 0.918873
vt 0.697266 0.798462
vn -0.060041 -0.120082 -0.990947
v 0.608303 0.967957 0.901227
vt 0.759277 0.688721
vn 0.987567 -0.006994 -0.157044
v 0.598726 0.975965 0.925678
vt 0.753906 0.690430
vn 0.987567 -0.006994 -0.157044
v 0.607577 0.961414 0.902412
vt 0.759277 0.687500
vn 0.987567 -0.006994 -0.157044
v 0.571698 0.979635 0.992919
vt 0.738770 0.690918
vn 0.987567 -0.006994 -0.157044
v 0.558308 0.981453 1.026229
vt 0.731445 0.691406
vn 0.987567 -0.006994 -0.157044
v 0.569452 0.945983 0.995341
vt 0.738281 0.684082
vn 0.987567 -0.006994 -0.157044
v 0.555520 0.950182 1.030216
vt 0.730469 0.684814
vn 0.987567 -0.006994 -0.157044
v 0.561401 1.016790 1.021869
vt 0.732422 0.698730
vn 0.987567 -0.006994 -0.157044
v 0.548706 1.014915 1.053118
vt 0.725586 0.698242
vn 0.987567 -0.006994 -0.157044
v 0.560378 1.005099 1.023312
vt 0.732422 0.696289
vn 0.987567 -0.006994 -0.157044
v 0.547475 1.004469 1.055189
vt 0.725098 0.696045
vn 0.987567 -0.006994 -0.157044
v 0.551855 1.043195 1.047959
vt 0.726562 0.704102
vn 0.987567 -0.006994 -0.157044
v 0.549885 1.024925 1.051132
vt 0.726074 0.700195
vn 0.987567 -0.006994 -0.157044
v 0.564233 1.050599 1.018013
vt 0.733398 0.705566
vn 0.987567 -0.006994 -0.157044
v 0.562395 1.028149 1.020468
vt 0.732910 0.700928
vn 0.987567 -0.006994 -0.157044
v 0.600802 1.038045 0.926327
vt 0.753906 0.703369
vn 0.987567 -0.006994 -0.157044
v 0.604280 1.061688 0.919923
vt 0.755371 0.708252
vn 0.987567 -0.006994 -0.157044
v 0.603465 1.062556 0.922021
vt 0.754883 0.708252
vn 0.987567 -0.006994 -0.157044
v 0.544977 0.983263 1.059396
vt 0.724121 0.691650
vn 0.987567 -0.006994 -0.157044
v 0.540575 0.960928 1.068209
vt 0.722168 0.687012
vn 0.987567 -0.006994 -0.157044
v 0.542309 0.958788 1.063717
vt 0.723145 0.686523
vn 0.987567 -0.006994 -0.157044
v 0.548673 0.953668 1.047488
vt 0.726562 0.685547
vn 0.987567 -0.006994 -0.157044
v 0.605649 0.952054 0.906312
vt 0.758301 0.685547
vn 0.987567 -0.006994 -0.157044
v 0.606640 0.955868 0.904214
vt 0.758789 0.686279
vn 0.987567 -0.006994 -0.157044
v 0.547301 1.037467 1.058697
vt 0.724121 0.702881
vn 0.987567 -0.006994 -0.157044
v 0.546106 1.034743 1.061400
vt 0.723633 0.702148
vn 0.987567 -0.006994 -0.157044
v 0.539485 1.004390 1.074960
vt 0.720703 0.696045
vn 0.987567 -0.006994 -0.157044
v 0.546232 0.993921 1.057282
vt 0.724609 0.693848
vn 0.987567 -0.006994 -0.157044
v 0.538159 0.994482 1.077316
vt 0.720215 0.693848
vn 0.987567 -0.006994 -0.157044
v 0.606579 1.053042 0.913428
vt 0.756836 0.706543
vn 0.987567 -0.006994 -0.157044
v 0.606137 1.055931 0.914790
vt 0.756348 0.707031
vn 0.987567 -0.006994 -0.157044
v 0.602589 1.063034 0.924235
vt 0.754395 0.708496
vn 0.987567 -0.006994 -0.157044
v 0.601044 0.945050 0.917058
vt 0.755859 0.684082
vn 0.987567 -0.006994 -0.157044
v 0.602309 0.945987 0.914014
vt 0.756836 0.684326
vn 0.987567 -0.006994 -0.157044
v 0.575109 1.031424 0.989306
vt 0.739746 0.701660
vn 0.987567 -0.006994 -0.157044
v 0.576681 1.056495 0.987752
vt 0.740234 0.707031
vn 0.987567 -0.006994 -0.157044
v 0.544316 1.029474 1.065342
vt 0.722656 0.701172
vn 0.987567 -0.006994 -0.157044
v 0.542780 1.023626 1.068599
vt 0.722168 0.699951
vn 0.987567 -0.006994 -0.157044
v 0.605552 1.058618 0.916489
vt 0.755859 0.707520
vn 0.987567 -0.006994 -0.157044
v 0.548621 1.039758 1.055644
vt 0.725098 0.703369
vn 0.987567 -0.006994 -0.157044
v 0.537459 0.971084 1.076870
vt 0.720215 0.688965
vn 0.987567 -0.006994 -0.157044
v 0.538262 0.967167 1.074516
vt 0.720703 0.688232
vn 0.987567 -0.006994 -0.157044
v 0.600283 1.022533 0.926165
vt 0.753906 0.699951
vn 0.987567 -0.006994 -0.157044
v 0.608697 1.023920 0.905468
vt 0.758301 0.700439
vn 0.987567 -0.006994 -0.157044
v 0.607857 1.040040 0.909051
vt 0.757812 0.703857
vn 0.987567 -0.006994 -0.157044
v 0.537060 0.984420 1.079100
vt 0.719727 0.691895
vn 0.987567 -0.006994 -0.157044
v 0.608743 0.974631 0.900759
vt 0.759766 0.690186
vn 0.987567 -0.006994 -0.157044
v 0.574270 1.018691 0.990194
vt 0.739746 0.699219
vn 0.987567 -0.006994 -0.157044
v 0.573417 1.005735 0.991098
vt 0.739258 0.696533
vn 0.987567 -0.006994 -0.157044
v 0.607146 1.048009 0.911555
vt 0.757324 0.705322
vn 0.987567 -0.006994 -0.157044
v 0.601654 1.063224 0.926566
vt 0.753906 0.708496
vn 0.987567 -0.006994 -0.157044
v 0.550009 1.041529 1.052374
vt 0.725586 0.703613
vn 0.987567 -0.006994 -0.157044
v 0.587925 1.034727 0.957891
vt 0.747070 0.702393
vn 0.987567 -0.006994 -0.157044
v 0.589164 1.060999 0.957274
vt 0.747070 0.708008
vn 0.987567 -0.006994 -0.157044
v 0.599246 0.991533 0.925841
vt 0.753906 0.693604
vn 0.987567 -0.006994 -0.157044
v 0.609093 0.991157 0.901434
vt 0.759277 0.693604
vn 0.987567 -0.006994 -0.157044
v 0.597676 0.943873 0.925285
vt 0.753906 0.683838
vn 0.987567 -0.006994 -0.157044
v 0.599440 0.944317 0.920959
vt 0.754883 0.683838
vn 0.987567 -0.006994 -0.157044
v 0.585167 0.977807 0.959410
vt 0.746582 0.690674
vn 0.987567 -0.006994 -0.157044
v 0.583521 0.943915 0.960325
vt 0.746094 0.683594
vn 0.987567 -0.006994 -0.157044
v 0.539310 0.963730 1.071601
vt 0.721191 0.687500
vn 0.987567 -0.006994 -0.157044
v 0.604997 1.060328 0.918022
vt 0.755859 0.708008
vn 0.987567 -0.006994 -0.157044
v 0.536814 0.979810 1.079280
vt 0.719727 0.690918
vn 0.987567 -0.006994 -0.157044
v 0.536981 0.975339 1.078449
vt 0.719727 0.689941
vn 0.987567 -0.006994 -0.157044
v 0.604596 0.949332 0.908664
vt 0.757812 0.685059
vn 0.987567 -0.006994 -0.157044
v 0.540956 1.014194 1.072231
vt 0.721191 0.697998
vn 0.987567 -0.006994 -0.157044
v 0.603438 0.947304 0.911341
vt 0.757324 0.684570
vn 0.987567 -0.006994 -0.157044
v 0.599765 1.007022 0.926003
vt 0.753906 0.696777
vn 0.987567 -0.006994 -0.157044
v 0.609023 1.007580 0.903139
vt 0.759277 0.697021
vn 0.987567 -0.006994 -0.157044
v 0.587241 1.020607 0.958268
vt 0.746582 0.699707
vn 0.987567 -0.006994 -0.157044
v 0.586551 1.006377 0.958647
vt 0.746582 0.696533
vn 0.987567 -0.006994 -0.157044
v 0.585861 0.992136 0.959027
vt 0.746582 0.693604
vn 0.987567 -0.006994 -0.157044
v 0.572560 0.992735 0.992005
vt 0.739258 0.693848
vn 0.987567 -0.006994 -0.157044
v 0.559348 0.993330 1.024764
vt 0.731934 0.693848
vn 0.987567 -0.006994 -0.157044
v 0.635268 0.967630 0.911699
vt 0.471436 0.571533
vn -0.307116 -0.824084 0.475989
v 0.637269 0.939728 0.905494
vt 0.470947 0.568848
vn -0.440348 -0.815656 0.375233
v 0.635292 0.937804 0.911622
vt 0.471436 0.568604
vn -0.258030 -0.795549 0.548200
v 0.639368 0.967313 0.901014
vt 0.470459 0.571533
vn -0.502822 -0.822762 0.265015
v 0.639405 0.944360 0.900937
vt 0.470459 0.569336
vn -0.469207 -0.816178 0.337192
v 0.641117 0.950108 0.898335
vt 0.470215 0.569824
vn -0.624723 -0.770229 0.128329
v 0.644264 0.967115 0.895557
vt 0.470215 0.571533
vn -0.631647 -0.771532 0.075901
v 0.643060 0.957163 0.895796
vt 0.470215 0.570557
vn -0.639499 -0.764944 0.076827
v 0.633521 0.967988 0.922186
vt 0.472168 0.571533
vn -0.065485 -0.753017 0.654734
v 0.633533 0.937121 0.922113
vt 0.472168 0.568604
vn -0.066626 -0.732791 0.677184
v 0.633930 0.968505 0.935714
vt 0.473389 0.571533
vn 0.206086 -0.791871 0.574865
v 0.633926 0.937253 0.935652
vt 0.473389 0.568604
vn 0.197588 -0.784914 0.587255
v 0.637727 0.969111 0.949772
vt 0.474609 0.571533
vn 0.494643 -0.809922 0.315205
v 0.637708 0.938050 0.949727
vt 0.474609 0.568848
vn 0.488443 -0.810871 0.322354
v 0.656282 0.970330 0.972089
vt 0.477295 0.571777
vn 0.789238 -0.595244 -0.150955
v 0.656240 0.941308 0.972095
vt 0.477295 0.569092
vn 0.779967 -0.602738 -0.168400
v 0.680965 0.971222 0.982356
vt 0.479492 0.572021
vn 0.834048 -0.431782 -0.343407
v 0.680917 0.948597 0.982417
vt 0.479492 0.569824
vn 0.813573 -0.466353 -0.347294
v 0.645507 0.969727 0.961908
vt 0.476074 0.571533
vn 0.670735 -0.737060 0.082815
v 0.645475 0.939329 0.961887
vt 0.476074 0.568848
vn 0.666593 -0.741642 0.074981
v 0.685786 0.952739 0.982202
vt 0.479736 0.570068
vn 0.797691 -0.051831 -0.600835
v 0.695948 0.970433 0.979571
vt 0.480225 0.572021
vn 0.837787 -0.089801 -0.538562
v 0.697577 0.965605 0.981148
vt 0.480469 0.571533
vn 0.823738 -0.070327 -0.562592
v 0.644264 0.967115 0.895557
vt 0.978027 0.755859
vn 0.263093 -0.964750 0.006271
usemtl Paint
f 3/3/3 2/2/2 1/1/1
f 4/4/4 2/2/2 3/3/3
f 5/5/5 4/4/4 3/3/3
f 6/6/6 4/4/4 5/5/5
f 7/7/7 6/6/6 5/5/5
f 8/8/8 6/6/6 7/7/7
f 9/9/9 4/4/4 6/6/6
f 2/2/2 4/4/4 9/9/9
f 12/12/12 11/11/11 10/10/10
f 8/8/8 11/11/11 12/12/12
f 9/9/9 8/8/8 12/12/12
f 6/6/6 8/8/8 9/9/9
f 13/13/13 8/8/8 7/7/7
f 11/11/11 8/8/8 13/13/13
f 15/15/15 9/9/9 14/14/14
f 2/2/2 9/9/9 15/15/15
f 1/1/1 15/15/15 16/16/16
f 2/2/2 15/15/15 1/1/1
f 18/18/18 10/10/10 17/17/17
f 12/12/12 10/10/10 18/18/18
f 14/14/14 12/12/12 18/18/18
f 9/9/9 12/12/12 14/14/14
f 19/19/19 11/11/11 13/13/13
f 20/20/20 11/11/11 19/19/19
f 21/21/21 20/20/20 19/19/19
f 22/22/22 20/20/20 21/21/21
f 20/20/20 23/23/23 11/11/11
f 26/26/26 25/25/25 24/24/24
f 17/17/17 25/25/25 26/26/26
f 28/28/28 22/22/22 27/27/27
f 20/20/20 29/29/29 23/23/23
f 22/22/22 29/29/29 20/20/20
f 24/24/24 31/31/31 30/30/30
f 25/25/25 31/31/31 24/24/24
f 33/33/33 29/29/29 32/32/32
f 23/23/23 29/29/29 33/33/33
f 34/34/34 22/22/22 28/28/28
f 29/29/29 22/22/22 34/34/34
f 35/35/35 29/29/29 34/34/34
f 32/32/32 29/29/29 35/35/35
f 31/31/31 35/35/35 36/36/36
f 32/32/32 35/35/35 31/31/31
f 39/39/39 38/38/38 37/37/37
f 40/40/40 38/38/38 39/39/39
f 37/37/37 42/42/42 41/41/41
f 38/38/38 42/42/42 37/37/37
f 41/41/41 44/44/44 43/43/43
f 42/42/42 44/44/44 41/41/41
f 43/43/43 3/3/3 45/45/45
f 44/44/44 3/3/3 43/43/43
f 46/46/46 3/3/3 1/1/1
f 45/45/45 3/3/3 46/46/46
f 47/47/47 1/1/1 16/16/16
f 46/46/46 1/1/1 47/47/47
f 5/5/5 3/3/3 44/44/44
f 42/42/42 5/5/5 44/44/44
f 7/7/7 5/5/5 42/42/42
f 38/38/38 7/7/7 42/42/42
f 13/13/13 7/7/7 38/38/38
f 40/40/40 49/49/49 48/48/48
f 39/39/39 49/49/49 40/40/40
f 19/19/19 48/48/48 21/21/21
f 40/40/40 48/48/48 19/19/19
f 40/40/40 13/13/13 38/38/38
f 19/19/19 13/13/13 40/40/40
f 27/27/27 21/21/21 50/50/50
f 22/22/22 21/21/21 27/27/27
f 52/52/52 49/49/49 51/51/51
f 48/48/48 49/49/49 52/52/52
f 50/50/50 48/48/48 52/52/52
f 21/21/21 48/48/48 50/50/50
f 53/53/53 46/46/46 47/47/47
f 54/54/54 46/46/46 53/53/53
f 55/55/55 54/54/54 53/53/53
f 56/56/56 54/54/54 55/55/55
f 57/57/57 56/56/56 55/55/55
f 58/58/58 56/56/56 57/57/57
f 59/59/59 58/58/58 57/57/57
f 60/60/60 58/58/58 59/59/59
f 61/61/61 46/46/46 54/54/54
f 45/45/45 46/46/46 61/61/61
f 60/60/60 62/62/62 58/58/58
f 63/63/63 62/62/62 60/60/60
f 58/58/58 64/64/64 56/56/56
f 62/62/62 64/64/64 58/58/58
f 56/56/56 61/61/61 54/54/54
f 64/64/64 61/61/61 56/56/56
f 63/63/63 66/66/66 65/65/65
f 60/60/60 66/66/66 63/63/63
f 45/45/45 67/67/67 43/43/43
f 61/61/61 67/67/67 45/45/45
f 67/67/67 64/64/64 68/68/68
f 61/61/61 64/64/64 67/67/67
f 68/68/68 62/62/62 69/69/69
f 64/64/64 62/62/62 68/68/68
f 69/69/69 63/63/63 70/70/70
f 62/62/62 63/63/63 69/69/69
f 73/73/73 72/72/72 71/71/71
f 74/74/74 72/72/72 73/73/73
f 76/76/76 41/41/41 75/75/75
f 37/37/37 41/41/41 76/76/76
f 78/78/78 75/75/75 77/77/77
f 76/76/76 75/75/75 78/78/78
f 80/80/80 77/77/77 79/79/79
f 78/78/78 77/77/77 80/80/80
f 81/81/81 72/72/72 70/70/70
f 71/71/71 72/72/72 81/81/81
f 69/69/69 77/77/77 68/68/68
f 79/79/79 77/77/77 69/69/69
f 68/68/68 75/75/75 67/67/67
f 77/77/77 75/75/75 68/68/68
f 67/67/67 41/41/41 43/43/43
f 75/75/75 41/41/41 67/67/67
f 84/84/84 83/83/83 82/82/82
f 85/85/85 83/83/83 84/84/84
f 84/84/84 87/87/87 86/86/86
f 82/82/82 87/87/87 84/84/84
f 89/89/89 39/39/39 88/88/88
f 49/49/49 39/39/39 89/89/89
f 91/91/91 88/88/88 90/90/90
f 89/89/89 88/88/88 91/91/91
f 93/93/93 90/90/90 92/92/92
f 91/91/91 90/90/90 93/93/93
f 94/94/94 49/49/49 89/89/89
f 51/51/51 49/49/49 94/94/94
f 91/91/91 94/94/94 89/89/89
f 95/95/95 94/94/94 91/91/91
f 93/93/93 95/95/95 91/91/91
f 96/96/96 95/95/95 93/93/93
f 86/86/86 74/74/74 73/73/73
f 87/87/87 74/74/74 86/86/86
f 80/80/80 90/90/90 78/78/78
f 92/92/92 90/90/90 80/80/80
f 90/90/90 76/76/76 78/78/78
f 88/88/88 76/76/76 90/90/90
f 76/76/76 39/39/39 37/37/37
f 88/88/88 39/39/39 76/76/76
f 99/99/99 98/98/98 97/97/97
f 100/100/100 98/98/98 99/99/99
f 97/97/97 102/102/102 101/101/101
f 98/98/98 102/102/102 97/97/97
f 101/101/101 104/104/104 103/103/103
f 102/102/102 104/104/104 101/101/101
f 107/107/107 106/106/106 105/105/105
f 108/108/108 106/106/106 107/107/107
f 107/107/107 110/110/110 109/109/109
f 105/105/105 110/110/110 107/107/107
f 109/109/109 100/100/100 99/99/99
f 110/110/110 100/100/100 109/109/109
f 112/112/112 104/104/104 111/111/111
f 103/103/103 104/104/104 112/112/112
f 114/114/114 111/111/111 113/113/113
f 112/112/112 111/111/111 114/114/114
f 116/116/116 66/66/66 115/115/115
f 117/117/117 66/66/66 116/116/116
f 113/113/113 119/119/119 118/118/118
f 111/111/111 119/119/119 113/113/113
f 65/65/65 117/117/117 120/120/120
f 66/66/66 117/117/117 65/65/65
f 119/119/119 104/104/104 121/121/121
f 111/111/111 104/104/104 119/119/119
f 123/123/123 73/73/73 122/122/122
f 86/86/86 73/73/73 123/123/123
f 110/110/110 124/124/124 100/100/100
f 125/125/125 124/124/124 110/110/110
f 126/126/126 86/86/86 123/123/123
f 84/84/84 86/86/86 126/126/126
f 105/105/105 125/125/125 110/110/110
f 127/127/127 125/125/125 105/105/105
f 126/126/126 85/85/85 84/84/84
f 128/128/128 85/85/85 126/126/126
f 105/105/105 129/129/129 127/127/127
f 106/106/106 129/129/129 105/105/105
f 130/130/130 65/65/65 120/120/120
f 81/81/81 65/65/65 130/130/130
f 102/102/102 121/121/121 104/104/104
f 131/131/131 121/121/121 102/102/102
f 132/132/132 81/81/81 130/130/130
f 71/71/71 81/81/81 132/132/132
f 98/98/98 131/131/131 102/102/102
f 133/133/133 131/131/131 98/98/98
f 122/122/122 71/71/71 132/132/132
f 73/73/73 71/71/71 122/122/122
f 100/100/100 133/133/133 98/98/98
f 124/124/124 133/133/133 100/100/100
f 124/124/124 132/132/132 133/133/133
f 122/122/122 132/132/132 124/124/124
f 133/133/133 130/130/130 131/131/131
f 132/132/132 130/130/130 133/133/133
f 131/131/131 120/120/120 121/121/121
f 130/130/130 120/120/120 131/131/131
f 127/127/127 128/128/128 126/126/126
f 129/129/129 128/128/128 127/127/127
f 127/127/127 123/123/123 125/125/125
f 126/126/126 123/123/123 127/127/127
f 125/125/125 122/122/122 124/124/124
f 123/123/123 122/122/122 125/125/125
f 121/121/121 117/117/117 119/119/119
f 120/120/120 117/117/117 121/121/121
f 118/118/118 117/117/117 116/116/116
f 119/119/119 117/117/117 118/118/118
f 87/87/87 80/80/80 74/74/74
f 92/92/92 80/80/80 87/87/87
f 82/82/82 92/92/92 87/87/87
f 93/93/93 92/92/92 82/82/82
f 82/82/82 96/96/96 93/93/93
f 83/83/83 96/96/96 82/82/82
f 70/70/70 79/79/79 69/69/69
f 72/72/72 79/79/79 70/70/70
f 74/74/74 79/79/79 72/72/72
f 80/80/80 79/79/79 74/74/74
f 70/70/70 65/65/65 81/81/81
f 63/63/63 65/65/65 70/70/70
f 115/115/115 60/60/60 59/59/59
f 66/66/66 60/60/60 115/115/115
f 135/135/135 134/134/134 114/114/114
f 136/136/136 134/134/134 135/135/135
f 139/139/139 138/138/138 137/137/137
f 140/140/140 138/138/138 139/139/139
f 141/141/141 108/108/108 107/107/107
f 142/142/142 108/108/108 141/141/141
f 145/145/145 144/144/144 143/143/143
f 146/146/146 144/144/144 145/145/145
f 143/143/143 142/142/142 141/141/141
f 144/144/144 142/142/142 143/143/143
f 143/143/143 147/147/147 137/137/137
f 141/141/141 147/147/147 143/143/143
f 103/103/103 140/140/140 139/139/139
f 112/112/112 140/140/140 103/103/103
f 103/103/103 148/148/148 101/101/101
f 139/139/139 148/148/148 103/103/103
f 141/141/141 109/109/109 147/147/147
f 107/107/107 109/109/109 141/141/141
f 147/147/147 99/99/99 148/148/148
f 109/109/109 99/99/99 147/147/147
f 101/101/101 99/99/99 97/97/97
f 148/148/148 99/99/99 101/101/101
f 137/137/137 145/145/145 143/143/143
f 138/138/138 145/145/145 137/137/137
f 150/150/150 138/138/138 149/149/149
f 145/145/145 138/138/138 150/150/150
f 149/149/149 140/140/140 134/134/134
f 138/138/138 140/140/140 149/149/149
f 147/147/147 139/139/139 137/137/137
f 148/148/148 139/139/139 147/147/147
f 153/153/153 152/152/152 151/151/151
f 154/154/154 152/152/152 153/153/153
f 157/157/157 156/156/156 155/155/155
f 158/158/158 156/156/156 157/157/157
f 160/160/160 151/151/151 159/159/159
f 153/153/153 151/151/151 160/160/160
f 163/163/163 162/162/162 161/161/161
f 164/164/164 162/162/162 163/163/163
f 154/154/154 165/165/165 152/152/152
f 166/166/166 165/165/165 154/154/154
f 169/169/169 168/168/168 167/167/167
f 170/170/170 168/168/168 169/169/169
f 172/172/172 159/159/159 171/171/171
f 160/160/160 159/159/159 172/172/172
f 164/164/164 173/173/173 162/162/162
f 174/174/174 173/173/173 164/164/164
f 176/176/176 167/167/167 175/175/175
f 169/169/169 167/167/167 176/176/176
f 174/174/174 177/177/177 173/173/173
f 178/178/178 177/177/177 174/174/174
f 180/180/180 155/155/155 179/179/179
f 157/157/157 155/155/155 180/180/180
f 170/170/170 161/161/161 168/168/168
f 163/163/163 161/161/161 170/170/170
f 166/166/166 181/181/181 165/165/165
f 182/182/182 181/181/181 166/166/166
f 184/184/184 175/175/175 183/183/183
f 176/176/176 175/175/175 184/184/184
f 186/186/186 158/158/158 185/185/185
f 156/156/156 158/158/158 186/186/186
f 189/189/189 188/188/188 187/187/187
f 178/178/178 190/190/190 177/177/177
f 191/191/191 190/190/190 178/178/178
f 191/191/191 171/171/171 190/190/190
f 172/172/172 171/171/171 191/191/191
f 182/182/182 192/192/192 181/181/181
f 193/193/193 192/192/192 182/182/182
f 195/195/195 184/184/184 194/194/194
f 176/176/176 184/184/184 195/195/195
f 197/197/197 163/163/163 196/196/196
f 164/164/164 163/163/163 197/197/197
f 199/199/199 166/166/166 198/198/198
f 182/182/182 166/166/166 199/199/199
f 200/200/200 164/164/164 197/197/197
f 174/174/174 164/164/164 200/200/200
f 202/202/202 178/178/178 201/201/201
f 191/191/191 178/178/178 202/202/202
f 204/204/204 193/193/193 203/203/203
f 180/180/180 193/193/193 204/204/204
f 205/205/205 191/191/191 202/202/202
f 172/172/172 191/191/191 205/205/205
f 207/207/207 153/153/153 206/206/206
f 154/154/154 153/153/153 207/207/207
f 208/208/208 180/180/180 204/204/204
f 157/157/157 180/180/180 208/208/208
f 209/209/209 184/184/184 189/189/189
f 194/194/194 184/184/184 209/209/209
f 206/206/206 160/160/160 210/210/210
f 153/153/153 160/160/160 206/206/206
f 211/211/211 157/157/157 208/208/208
f 158/158/158 157/157/157 211/211/211
f 210/210/210 172/172/172 205/205/205
f 160/160/160 172/172/172 210/210/210
f 213/213/213 169/169/169 212/212/212
f 170/170/170 169/169/169 213/213/213
f 196/196/196 170/170/170 213/213/213
f 163/163/163 170/170/170 196/196/196
f 203/203/203 182/182/182 199/199/199
f 193/193/193 182/182/182 203/203/203
f 212/212/212 176/176/176 195/195/195
f 169/169/169 176/176/176 212/212/212
f 201/201/201 174/174/174 200/200/200
f 178/178/178 174/174/174 201/201/201
f 193/193/193 179/179/179 192/192/192
f 180/180/180 179/179/179 193/193/193
f 198/198/198 154/154/154 207/207/207
f 166/166/166 154/154/154 198/198/198
f 214/214/214 145/145/145 150/150/150
f 146/146/146 145/145/145 214/214/214
f 158/158/158 215/215/215 185/185/185
f 211/211/211 215/215/215 158/158/158
f 189/189/189 183/183/183 188/188/188
f 184/184/184 183/183/183 189/189/189
f 134/134/134 112/112/112 114/114/114
f 140/140/140 112/112/112 134/134/134
f 33/33/33 31/31/31 25/25/25
f 32/32/32 31/31/31 33/33/33
f 17/17/17 33/33/33 25/25/25
f 10/10/10 33/33/33 17/17/17
f 15/15/15 217/217/217 216/216/216
f 14/14/14 217/217/217 15/15/15
f 15/15/15 218/218/218 16/16/16
f 216/216/216 218/218/218 15/15/15
f 18/18/18 26/26/26 219/219/219
f 17/17/17 26/26/26 18/18/18
f 14/14/14 219/219/219 217/217/217
f 18/18/18 219/219/219 14/14/14
f 31/31/31 220/220/220 30/30/30
f 36/36/36 220/220/220 31/31/31
f 16/16/16 221/221/221 47/47/47
f 218/218/218 221/221/221 16/16/16
f 47/47/47 222/222/222 53/53/53
f 221/221/221 222/222/222 47/47/47
f 53/53/53 223/223/223 55/55/55
f 222/222/222 223/223/223 53/53/53
f 55/55/55 224/224/224 57/57/57
f 225/225/225 224/224/224 55/55/55
f 57/57/57 226/226/226 59/59/59
f 224/224/224 226/226/226 57/57/57
f 114/114/114 227/227/227 135/135/135
f 113/113/113 227/227/227 114/114/114
f 116/116/116 229/229/229 228/228/228
f 115/115/115 229/229/229 116/116/116
f 113/113/113 230/230/230 227/227/227
f 118/118/118 230/230/230 113/113/113
f 118/118/118 228/228/228 230/230/230
f 116/116/116 228/228/228 118/118/118
f 59/59/59 229/229/229 115/115/115
f 226/226/226 229/229/229 59/59/59
f 150/150/150 231/231/231 214/214/214
f 232/232/232 231/231/231 150/150/150
f 233/233/233 150/150/150 149/149/149
f 234/234/234 150/150/150 233/233/233
f 149/149/149 136/136/136 233/233/233
f 134/134/134 136/136/136 149/149/149
f 186/186/186 220/220/220 36/36/36
f 185/185/185 220/220/220 186/186/186
f 189/189/189 187/187/187 209/209/209
f 214/214/214 183/183/183 146/146/146
f 188/188/188 183/183/183 214/214/214
f 186/186/186 35/35/35 156/156/156
f 36/36/36 35/35/35 186/186/186
f 192/192/192 28/28/28 27/27/27
f 179/179/179 28/28/28 192/192/192
f 146/146/146 175/175/175 144/144/144
f 183/183/183 175/175/175 146/146/146
f 181/181/181 27/27/27 50/50/50
f 192/192/192 27/27/27 181/181/181
f 190/190/190 96/96/96 83/83/83
f 171/171/171 96/96/96 190/190/190
f 177/177/177 83/83/83 85/85/85
f 190/190/190 83/83/83 177/177/177
f 188/188/188 214/214/214 187/187/187
f 165/165/165 50/50/50 52/52/52
f 181/181/181 50/50/50 165/165/165
f 168/168/168 106/106/106 108/108/108
f 161/161/161 106/106/106 168/168/168
f 179/179/179 34/34/34 28/28/28
f 155/155/155 34/34/34 179/179/179
f 173/173/173 85/85/85 128/128/128
f 177/177/177 85/85/85 173/173/173
f 175/175/175 142/142/142 144/144/144
f 167/167/167 142/142/142 175/175/175
f 162/162/162 128/128/128 129/129/129
f 173/173/173 128/128/128 162/162/162
f 171/171/171 95/95/95 96/96/96
f 159/159/159 95/95/95 171/171/171
f 167/167/167 108/108/108 142/142/142
f 168/168/168 108/108/108 167/167/167
f 152/152/152 52/52/52 51/51/51
f 165/165/165 52/52/52 152/152/152
f 161/161/161 129/129/129 106/106/106
f 162/162/162 129/129/129 161/161/161
f 159/159/159 94/94/94 95/95/95
f 151/151/151 94/94/94 159/159/159
f 155/155/155 35/35/35 34/34/34
f 156/156/156 35/35/35 155/155/155
f 151/151/151 51/51/51 94/94/94
f 152/152/152 51/51/51 151/151/151
f 225/225/225 55/55/55 223/223/223
f 10/10/10 23/23/23 33/33/33
f 11/11/11 23/23/23 10/10/10
f 237/237/237 236/236/236 235/235/235
f 234/234/234 232/232/232 150/150/150
f 240/240/240 239/239/239 238/238/238
f 243/243/243 242/242/242 241/241/241
f 244/244/244 242/242/242 243/243/243
f 244/244/244 246/246/246 245/245/245
f 243/243/243 246/246/246 244/244/244
f 245/245/245 248/248/248 247/247/247
f 246/246/246 248/248/248 245/245/245
f 247/247/247 250/250/250 249/249/249
f 248/248/248 250/250/250 247/247/247
f 249/249/249 250/250/250 251/251/251
f 254/254/254 253/253/253 252/252/252
f 257/257/257 256/256/256 255/255/255
f 258/258/258 253/253/253 254/254/254
f 259/259/259 258/258/258 254/254/254
f 260/260/260 259/259/259 254/254/254
f 262/262/262 261/261/261 254/254/254
f 263/263/263 261/261/261 262/262/262
f 264/264/264 260/260/260 254/254/254
f 261/261/261 264/264/264 254/254/254
f 254/254/254 252/252/252 241/241/241
f 242/242/242 254/254/254 241/241/241
f 262/262/262 254/254/254 242/242/242
f 267/267/267 266/266/266 265/265/265
usemtl Exterior
f 270/270/270 269/269/269 268/268/268
f 271/271/271 269/269/269 270/270/270
f 271/271/271 272/272/272 269/269/269
f 273/273/273 272/272/272 271/271/271
f 273/273/273 274/274/274 272/272/272
f 275/275/275 274/274/274 273/273/273
f 276/276/276 274/274/274 275/275/275
f 279/279/279 278/278/278 277/277/277
f 280/280/280 278/278/278 279/279/279
f 276/276/276 281/281/281 274/274/274
f 282/282/282 281/281/281 276/276/276
f 282/282/282 283/283/283 281/281/281
f 284/284/284 283/283/283 282/282/282
f 284/284/284 285/285/285 283/283/283
f 286/286/286 285/285/285 284/284/284
f 286/286/286 287/287/287 285/285/285
f 288/288/288 287/287/287 286/286/286
f 290/290/290 288/288/288 289/289/289
f 287/287/287 288/288/288 290/290/290
f 291/291/291 288/288/288 286/286/286
f 292/292/292 288/288/288 291/291/291
f 289/289/289 292/292/292 293/293/293
f 288/288/288 292/292/292 289/289/289
f 286/286/286 294/294/294 291/291/291
f 295/295/295 294/294/294 286/286/286
f 295/295/295 296/296/296 294/294/294
f 297/297/297 296/296/296 295/295/295
f 297/297/297 298/298/298 296/296/296
f 299/299/299 298/298/298 297/297/297
f 299/299/299 300/300/300 298/298/298
f 301/301/301 300/300/300 299/299/299
f 301/301/301 302/302/302 300/300/300
f 303/303/303 302/302/302 301/301/301
f 306/306/306 305/305/305 304/304/304
f 307/307/307 305/305/305 306/306/306
f 306/306/306 308/308/308 307/307/307
f 309/309/309 308/308/308 306/306/306
f 310/310/310 308/308/308 309/309/309
f 311/311/311 308/308/308 310/310/310
f 312/312/312 311/311/311 310/310/310
f 313/313/313 311/311/311 312/312/312
f 314/314/314 313/313/313 312/312/312
f 315/315/315 313/313/313 314/314/314
f 318/318/318 317/317/317 316/316/316
f 319/319/319 317/317/317 318/318/318
f 322/322/322 321/321/321 320/320/320
f 323/323/323 321/321/321 322/322/322
f 320/320/320 319/319/319 318/318/318
f 321/321/321 319/319/319 320/320/320
f 322/322/322 325/325/325 324/324/324
f 320/320/320 325/325/325 322/322/322
f 318/318/318 325/325/325 320/320/320
f 324/324/324 327/327/327 326/326/326
f 325/325/325 327/327/327 324/324/324
f 330/330/330 329/329/329 328/328/328
f 331/331/331 329/329/329 330/330/330
f 333/333/333 329/329/329 332/332/332
f 328/328/328 329/329/329 333/333/333
f 333/333/333 335/335/335 334/334/334
f 332/332/332 335/335/335 333/333/333
f 337/337/337 335/335/335 336/336/336
f 334/334/334 335/335/335 337/337/337
f 336/336/336 338/338/338 337/337/337
f 339/339/339 338/338/338 336/336/336
f 338/338/338 341/341/341 340/340/340
f 339/339/339 341/341/341 338/338/338
f 340/340/340 343/343/343 342/342/342
f 341/341/341 343/343/343 340/340/340
f 346/346/346 345/345/345 344/344/344
f 349/349/349 348/348/348 347/347/347
f 350/350/350 348/348/348 349/349/349
f 351/351/351 327/327/327 325/325/325
f 352/352/352 327/327/327 351/351/351
f 353/353/353 335/335/335 332/332/332
f 354/354/354 335/335/335 353/353/353
f 355/355/355 341/341/341 339/339/339
f 356/356/356 341/341/341 355/355/355
f 357/357/357 329/329/329 331/331/331
f 358/358/358 329/329/329 357/357/357
f 339/339/339 359/359/359 355/355/355
f 336/336/336 359/359/359 339/339/339
f 318/318/318 351/351/351 325/325/325
f 360/360/360 351/351/351 318/318/318
f 362/362/362 361/361/361 348/348/348
f 364/364/364 344/344/344 363/363/363
f 346/346/346 344/344/344 364/364/364
f 365/365/365 341/341/341 356/356/356
f 343/343/343 341/341/341 365/365/365
f 361/361/361 347/347/347 348/348/348
f 366/366/366 347/347/347 361/361/361
f 367/367/367 347/347/347 366/366/366
f 269/269/269 369/369/369 368/368/368
f 272/272/272 369/369/369 269/269/269
f 268/268/268 368/368/368 370/370/370
f 269/269/269 368/368/368 268/268/268
f 270/270/270 372/372/372 371/371/371
f 268/268/268 372/372/372 270/270/270
f 344/344/344 345/345/345 373/373/373
f 349/349/349 375/375/375 374/374/374
f 347/347/347 375/375/375 349/349/349
f 344/344/344 375/375/375 347/347/347
f 375/375/375 373/373/373 376/376/376
f 344/344/344 373/373/373 375/375/375
f 370/370/370 378/378/378 377/377/377
f 368/368/368 378/378/378 370/370/370
f 368/368/368 379/379/379 378/378/378
f 369/369/369 379/379/379 368/368/368
f 287/287/287 381/381/381 380/380/380
f 290/290/290 381/381/381 287/287/287
f 369/369/369 274/274/274 379/379/379
f 272/272/272 274/274/274 369/369/369
f 383/383/383 277/277/277 382/382/382
f 279/279/279 277/277/277 383/383/383
f 385/385/385 382/382/382 384/384/384
f 383/383/383 382/382/382 385/385/385
f 387/387/387 384/384/384 386/386/386
f 385/385/385 384/384/384 387/387/387
f 268/268/268 388/388/388 372/372/372
f 370/370/370 388/388/388 268/268/268
f 280/280/280 389/389/389 278/278/278
f 390/390/390 389/389/389 280/280/280
f 390/390/390 391/391/391 389/389/389
f 392/392/392 391/391/391 390/390/390
f 392/392/392 393/393/393 391/391/391
f 394/394/394 393/393/393 392/392/392
f 397/397/397 396/396/396 395/395/395
f 398/398/398 396/396/396 397/397/397
f 372/372/372 344/344/344 347/347/347
f 388/388/388 344/344/344 372/372/372
f 371/371/371 347/347/347 367/367/367
f 372/372/372 347/347/347 371/371/371
f 370/370/370 399/399/399 388/388/388
f 377/377/377 399/399/399 370/370/370
f 394/394/394 400/400/400 393/393/393
f 401/401/401 400/400/400 394/394/394
f 401/401/401 395/395/395 400/400/400
f 397/397/397 395/395/395 401/401/401
f 399/399/399 344/344/344 388/388/388
f 363/363/363 344/344/344 399/399/399
f 342/342/342 402/402/402 340/340/340
f 403/403/403 402/402/402 342/342/342
f 405/405/405 403/403/403 404/404/404
f 402/402/402 403/403/403 405/405/405
f 340/340/340 406/406/406 338/338/338
f 402/402/402 406/406/406 340/340/340
f 407/407/407 402/402/402 405/405/405
f 406/406/406 402/402/402 407/407/407
f 337/337/337 406/406/406 408/408/408
f 338/338/338 406/406/406 337/337/337
f 409/409/409 406/406/406 407/407/407
f 408/408/408 406/406/406 409/409/409
f 337/337/337 410/410/410 334/334/334
f 408/408/408 410/410/410 337/337/337
f 412/412/412 410/410/410 411/411/411
f 413/413/413 410/410/410 412/412/412
f 333/333/333 414/414/414 328/328/328
f 413/413/413 414/414/414 333/333/333
f 416/416/416 414/414/414 415/415/415
f 417/417/417 414/414/414 416/416/416
f 330/330/330 418/418/418 326/326/326
f 417/417/417 418/418/418 330/330/330
f 420/420/420 418/418/418 419/419/419
f 421/421/421 418/418/418 420/420/420
f 324/324/324 422/422/422 322/322/322
f 421/421/421 422/422/422 324/324/324
f 423/423/423 421/421/421 420/420/420
f 422/422/422 421/421/421 423/423/423
f 322/322/322 424/424/424 323/323/323
f 422/422/422 424/424/424 322/322/322
f 424/424/424 422/422/422 425/425/425
f 303/303/303 305/305/305 302/302/302
f 304/304/304 305/305/305 303/303/303
f 428/428/428 427/427/427 426/426/426
f 429/429/429 427/427/427 428/428/428
f 430/430/430 429/429/429 428/428/428
f 431/431/431 429/429/429 430/430/430
f 298/298/298 432/432/432 296/296/296
f 433/433/433 432/432/432 298/298/298
f 296/296/296 434/434/434 294/294/294
f 432/432/432 434/434/434 296/296/296
f 294/294/294 435/435/435 291/291/291
f 434/434/434 435/435/435 294/294/294
f 291/291/291 436/436/436 292/292/292
f 435/435/435 436/436/436 291/291/291
f 293/293/293 436/436/436 437/437/437
f 292/292/292 436/436/436 293/293/293
f 426/426/426 439/439/439 438/438/438
f 427/427/427 439/439/439 426/426/426
f 438/438/438 441/441/441 440/440/440
f 439/439/439 441/441/441 438/438/438
f 443/443/443 441/441/441 442/442/442
f 440/440/440 441/441/441 443/443/443
f 443/443/443 445/445/445 444/444/444
f 442/442/442 445/445/445 443/443/443
f 444/444/444 447/447/447 446/446/446
f 445/445/445 447/447/447 444/444/444
f 446/446/446 449/449/449 448/448/448
f 447/447/447 449/449/449 446/446/446
f 452/452/452 451/451/451 450/450/450
f 453/453/453 451/451/451 452/452/452
f 450/450/450 455/455/455 454/454/454
f 451/451/451 455/455/455 450/450/450
f 454/454/454 457/457/457 456/456/456
f 455/455/455 457/457/457 454/454/454
f 457/457/457 458/458/458 456/456/456
f 458/458/458 459/459/459 456/456/456
f 461/461/461 424/424/424 460/460/460
f 462/462/462 424/424/424 461/461/461
f 323/323/323 424/424/424 462/462/462
f 463/463/463 323/323/323 462/462/462
f 321/321/321 323/323/323 463/463/463
f 464/464/464 321/321/321 463/463/463
f 319/319/319 321/321/321 464/464/464
f 465/465/465 319/319/319 464/464/464
f 317/317/317 319/319/319 465/465/465
f 467/467/467 315/315/315 466/466/466
f 313/313/313 315/315/315 467/467/467
f 468/468/468 313/313/313 467/467/467
f 311/311/311 313/313/313 468/468/468
f 469/469/469 311/311/311 468/468/468
f 308/308/308 311/311/311 469/469/469
f 307/307/307 469/469/469 470/470/470
f 308/308/308 469/469/469 307/307/307
f 471/471/471 307/307/307 470/470/470
f 305/305/305 307/307/307 471/471/471
f 472/472/472 305/305/305 471/471/471
f 302/302/302 305/305/305 472/472/472
f 474/474/474 436/436/436 473/473/473
f 437/437/437 436/436/436 474/474/474
f 435/435/435 473/473/473 436/436/436
f 475/475/475 473/473/473 435/435/435
f 434/434/434 475/475/475 435/435/435
f 476/476/476 475/475/475 434/434/434
f 432/432/432 476/476/476 434/434/434
f 477/477/477 476/476/476 432/432/432
f 433/433/433 477/477/477 432/432/432
f 431/431/431 477/477/477 433/433/433
f 433/433/433 300/300/300 478/478/478
f 298/298/298 300/300/300 433/433/433
f 478/478/478 302/302/302 472/472/472
f 300/300/300 302/302/302 478/478/478
f 412/412/412 414/414/414 413/413/413
f 415/415/415 414/414/414 412/412/412
f 419/419/419 417/417/417 416/416/416
f 418/418/418 417/417/417 419/419/419
f 326/326/326 421/421/421 324/324/324
f 418/418/418 421/421/421 326/326/326
f 328/328/328 417/417/417 330/330/330
f 414/414/414 417/417/417 328/328/328
f 411/411/411 408/408/408 409/409/409
f 410/410/410 408/408/408 411/411/411
f 334/334/334 413/413/413 333/333/333
f 410/410/410 413/413/413 334/334/334
f 358/358/358 332/332/332 329/329/329
f 353/353/353 332/332/332 358/358/358
f 354/354/354 336/336/336 335/335/335
f 359/359/359 336/336/336 354/354/354
f 352/352/352 331/331/331 327/327/327
f 357/357/357 331/331/331 352/352/352
f 330/330/330 327/327/327 331/331/331
f 326/326/326 327/327/327 330/330/330
f 431/431/431 479/479/479 477/477/477
f 430/430/430 479/479/479 431/431/431
f 477/477/477 480/480/480 476/476/476
f 479/479/479 480/480/480 477/477/477
f 476/476/476 481/481/481 475/475/475
f 480/480/480 481/481/481 476/476/476
f 475/475/475 482/482/482 473/473/473
f 481/481/481 482/482/482 475/475/475
f 473/473/473 483/483/483 474/474/474
f 482/482/482 483/483/483 473/473/473
f 458/458/458 484/484/484 459/459/459
f 461/461/461 484/484/484 458/458/458
f 457/457/457 461/461/461 458/458/458
f 462/462/462 461/461/461 457/457/457
f 455/455/455 462/462/462 457/457/457
f 463/463/463 462/462/462 455/455/455
f 451/451/451 463/463/463 455/455/455
f 464/464/464 463/463/463 451/451/451
f 453/453/453 464/464/464 451/451/451
f 465/465/465 464/464/464 453/453/453
f 447/447/447 466/466/466 449/449/449
f 467/467/467 466/466/466 447/447/447
f 445/445/445 467/467/467 447/447/447
f 468/468/468 467/467/467 445/445/445
f 442/442/442 468/468/468 445/445/445
f 469/469/469 468/468/468 442/442/442
f 469/469/469 441/441/441 470/470/470
f 442/442/442 441/441/441 469/469/469
f 439/439/439 470/470/470 441/441/441
f 471/471/471 470/470/470 439/439/439
f 427/427/427 471/471/471 439/439/439
f 472/472/472 471/471/471 427/427/427
f 431/431/431 478/478/478 429/429/429
f 433/433/433 478/478/478 431/431/431
f 429/429/429 472/472/472 427/427/427
f 478/478/478 472/472/472 429/429/429
f 486/486/486 293/293/293 485/485/485
f 289/289/289 293/293/293 486/486/486
f 485/485/485 293/293/293 437/437/437
f 474/474/474 485/485/485 437/437/437
f 483/483/483 485/485/485 474/474/474
f 289/289/289 487/487/487 290/290/290
f 486/486/486 487/487/487 289/289/289
f 290/290/290 488/488/488 381/381/381
f 487/487/487 488/488/488 290/290/290
f 491/491/491 490/490/490 489/489/489
f 492/492/492 490/490/490 491/491/491
f 495/495/495 494/494/494 493/493/493
f 496/496/496 494/494/494 495/495/495
f 499/499/499 498/498/498 497/497/497
f 500/500/500 498/498/498 499/499/499
f 494/494/494 502/502/502 501/501/501
f 496/496/496 502/502/502 494/494/494
f 502/502/502 497/497/497 501/501/501
f 499/499/499 497/497/497 502/502/502
f 505/505/505 504/504/504 503/503/503
f 507/507/507 506/506/506 504/504/504
f 508/508/508 507/507/507 504/504/504
f 504/504/504 505/505/505 508/508/508
f 496/496/496 510/510/510 509/509/509
f 495/495/495 510/510/510 496/496/496
f 500/500/500 512/512/512 511/511/511
f 499/499/499 512/512/512 500/500/500
f 511/511/511 514/514/514 513/513/513
f 512/512/512 514/514/514 511/511/511
f 516/516/516 514/514/514 515/515/515
f 517/517/517 514/514/514 516/516/516
f 516/516/516 519/519/519 518/518/518
f 515/515/515 519/519/519 516/516/516
f 518/518/518 521/521/521 520/520/520
f 519/519/519 521/521/521 518/518/518
f 520/520/520 523/523/523 522/522/522
f 521/521/521 523/523/523 520/520/520
f 526/526/526 525/525/525 524/524/524
f 527/527/527 525/525/525 526/526/526
f 524/524/524 529/529/529 528/528/528
f 525/525/525 529/529/529 524/524/524
f 529/529/529 530/530/530 528/528/528
f 529/529/529 531/531/531 530/530/530
f 531/531/531 533/533/533 532/532/532
f 529/529/529 533/533/533 531/531/531
f 533/533/533 525/525/525 534/534/534
f 529/529/529 525/525/525 533/533/533
f 534/534/534 527/527/527 535/535/535
f 525/525/525 527/527/527 534/534/534
f 534/534/534 536/536/536 533/533/533
f 535/535/535 536/536/536 534/534/534
f 532/532/532 536/536/536 537/537/537
f 533/533/533 536/536/536 532/532/532
f 537/537/537 539/539/539 538/538/538
f 536/536/536 539/539/539 537/537/537
f 538/538/538 492/492/492 491/491/491
f 539/539/539 492/492/492 538/538/538
f 519/519/519 540/540/540 521/521/521
f 541/541/541 540/540/540 519/519/519
f 489/489/489 543/543/543 542/542/542
f 490/490/490 543/543/543 489/489/489
f 545/545/545 543/543/543 544/544/544
f 542/542/542 543/543/543 545/545/545
f 510/510/510 544/544/544 509/509/509
f 545/545/545 544/544/544 510/510/510
f 512/512/512 546/546/546 514/514/514
f 547/547/547 546/546/546 512/512/512
f 515/515/515 546/546/546 548/548/548
f 514/514/514 546/546/546 515/515/515
f 515/515/515 541/541/541 519/519/519
f 548/548/548 541/541/541 515/515/515
f 522/522/522 527/527/527 526/526/526
f 523/523/523 527/527/527 522/522/522
f 521/521/521 549/549/549 523/523/523
f 540/540/540 549/549/549 521/521/521
f 540/540/540 539/539/539 549/549/549
f 492/492/492 539/539/539 540/540/540
f 548/548/548 490/490/490 541/541/541
f 543/543/543 490/490/490 548/548/548
f 543/543/543 546/546/546 544/544/544
f 548/548/548 546/546/546 543/543/543
f 547/547/547 544/544/544 546/546/546
f 509/509/509 544/544/544 547/547/547
f 541/541/541 492/492/492 540/540/540
f 490/490/490 492/492/492 541/541/541
f 539/539/539 535/535/535 549/549/549
f 536/536/536 535/535/535 539/539/539
f 549/549/549 527/527/527 523/523/523
f 535/535/535 527/527/527 549/549/549
f 512/512/512 502/502/502 547/547/547
f 499/499/499 502/502/502 512/512/512
f 547/547/547 496/496/496 509/509/509
f 502/502/502 496/496/496 547/547/547
f 552/552/552 551/551/551 550/550/550
f 553/553/553 551/551/551 552/552/552
f 555/555/555 552/552/552 554/554/554
f 556/556/556 552/552/552 555/555/555
f 558/558/558 555/555/555 557/557/557
f 556/556/556 555/555/555 558/558/558
f 559/559/559 287/287/287 380/380/380
f 285/285/285 287/287/287 559/559/559
f 560/560/560 285/285/285 559/559/559
f 283/283/283 285/285/285 560/560/560
f 561/561/561 283/283/283 560/560/560
f 281/281/281 283/283/283 561/561/561
f 562/562/562 281/281/281 561/561/561
f 274/274/274 281/281/281 562/562/562
f 563/563/563 274/274/274 562/562/562
f 379/379/379 274/274/274 563/563/563
f 564/564/564 379/379/379 563/563/563
f 378/378/378 379/379/379 564/564/564
f 565/565/565 378/378/378 564/564/564
f 377/377/377 378/378/378 565/565/565
f 566/566/566 377/377/377 565/565/565
f 399/399/399 377/377/377 566/566/566
f 567/567/567 399/399/399 566/566/566
f 363/363/363 399/399/399 567/567/567
f 568/568/568 363/363/363 567/567/567
f 364/364/364 363/363/363 568/568/568
f 570/570/570 365/365/365 569/569/569
f 343/343/343 365/365/365 570/570/570
f 571/571/571 343/343/343 570/570/570
f 342/342/342 343/343/343 571/571/571
f 572/572/572 342/342/342 571/571/571
f 403/403/403 342/342/342 572/572/572
f 573/573/573 403/403/403 572/572/572
f 576/576/576 575/575/575 574/574/574
f 550/550/550 554/554/554 552/552/552
f 577/577/577 387/387/387 386/386/386
f 578/578/578 387/387/387 577/577/577
f 581/581/581 580/580/580 579/579/579
f 584/584/584 583/583/583 582/582/582
f 587/587/587 586/586/586 585/585/585
f 590/590/590 589/589/589 588/588/588
f 591/591/591 589/589/589 590/590/590
f 592/592/592 583/583/583 584/584/584
f 585/585/585 586/586/586 593/593/593
f 596/596/596 595/595/595 594/594/594
f 593/593/593 586/586/586 597/597/597
f 588/588/588 595/595/595 598/598/598
f 589/589/589 595/595/595 588/588/588
f 601/601/601 600/600/600 599/599/599
f 597/597/597 600/600/600 601/601/601
f 586/586/586 600/600/600 597/597/597
f 598/598/598 595/595/595 596/596/596
f 604/604/604 603/603/603 602/602/602
f 607/607/607 606/606/606 605/605/605
f 608/608/608 606/606/606 607/607/607
f 609/609/609 580/580/580 581/581/581
f 595/595/595 580/580/580 609/609/609
f 602/602/602 611/611/611 610/610/610
f 603/603/603 611/611/611 602/602/602
f 612/612/612 608/608/608 607/607/607
f 615/615/615 614/614/614 613/613/613
f 600/600/600 614/614/614 615/615/615
f 610/610/610 611/611/611 616/616/616
f 617/617/617 608/608/608 612/612/612
f 618/618/618 608/608/608 617/617/617
f 619/619/619 591/591/591 590/590/590
f 620/620/620 603/603/603 604/604/604
f 621/621/621 603/603/603 620/620/620
f 613/613/613 591/591/591 619/619/619
f 614/614/614 591/591/591 613/613/613
f 623/623/623 621/621/621 622/622/622
f 624/624/624 621/621/621 623/623/623
f 625/625/625 618/618/618 617/617/617
f 622/622/622 621/621/621 620/620/620
f 626/626/626 618/618/618 625/625/625
f 627/627/627 618/618/618 626/626/626
f 616/616/616 583/583/583 592/592/592
f 611/611/611 583/583/583 616/616/616
f 594/594/594 595/595/595 609/609/609
f 628/628/628 627/627/627 626/626/626
f 599/599/599 600/600/600 615/615/615
f 629/629/629 624/624/624 623/623/623
f 630/630/630 627/627/627 628/628/628
f 583/583/583 627/627/627 630/630/630
f 631/631/631 586/586/586 587/587/587
f 606/606/606 586/586/586 631/631/631
f 579/579/579 624/624/624 629/629/629
f 580/580/580 624/624/624 579/579/579
f 582/582/582 583/583/583 630/630/630
f 605/605/605 606/606/606 631/631/631
f 634/634/634 633/633/633 632/632/632
f 637/637/637 636/636/636 635/635/635
f 638/638/638 636/636/636 637/637/637
f 641/641/641 640/640/640 639/639/639
f 642/642/642 640/640/640 641/641/641
f 645/645/645 644/644/644 643/643/643
f 646/646/646 644/644/644 645/645/645
f 649/649/649 648/648/648 647/647/647
f 652/652/652 651/651/651 650/650/650
f 636/636/636 652/652/652 650/650/650
f 653/653/653 652/652/652 636/636/636
f 655/655/655 654/654/654 633/633/633
f 657/657/657 656/656/656 644/644/644
f 634/634/634 655/655/655 633/633/633
f 659/659/659 658/658/658 642/642/642
f 660/660/660 658/658/658 659/659/659
f 662/662/662 661/661/661 647/647/647
f 663/663/663 649/649/649 647/647/647
f 665/665/665 664/664/664 633/633/633
f 646/646/646 667/667/667 666/666/666
f 645/645/645 667/667/667 646/646/646
f 669/669/669 668/668/668 644/644/644
f 670/670/670 662/662/662 647/647/647
f 653/653/653 636/636/636 638/638/638
f 656/656/656 671/671/671 644/644/644
f 673/673/673 672/672/672 650/650/650
f 647/647/647 675/675/675 674/674/674
f 676/676/676 675/675/675 647/647/647
f 650/650/650 660/660/660 659/659/659
f 677/677/677 660/660/660 650/650/650
f 632/632/632 633/633/633 678/678/678
f 680/680/680 639/639/639 679/679/679
f 641/641/641 639/639/639 680/680/680
f 661/661/661 681/681/681 647/647/647
f 682/682/682 663/663/663 647/647/647
f 643/643/643 644/644/644 683/683/683
f 681/681/681 676/676/676 647/647/647
f 639/639/639 644/644/644 646/646/646
f 640/640/640 644/644/644 639/639/639
f 685/685/685 647/647/647 684/684/684
f 682/682/682 647/647/647 685/685/685
f 686/686/686 678/678/678 633/633/633
f 687/687/687 678/678/678 686/686/686
f 671/671/671 683/683/683 644/644/644
f 689/689/689 688/688/688 633/633/633
f 691/691/691 635/635/635 690/690/690
f 637/637/637 635/635/635 691/691/691
f 651/651/651 692/692/692 650/650/650
f 648/648/648 693/693/693 647/647/647
f 692/692/692 673/673/673 650/650/650
f 695/695/695 694/694/694 650/650/650
f 672/672/672 695/695/695 650/650/650
f 654/654/654 696/696/696 633/633/633
f 640/640/640 669/669/669 644/644/644
f 697/697/697 669/669/669 640/640/640
f 664/664/664 689/689/689 633/633/633
f 698/698/698 665/665/665 633/633/633
f 666/666/666 685/685/685 684/684/684
f 667/667/667 685/685/685 666/666/666
f 694/694/694 677/677/677 650/650/650
f 642/642/642 697/697/697 640/640/640
f 658/658/658 697/697/697 642/642/642
f 696/696/696 698/698/698 633/633/633
f 693/693/693 670/670/670 647/647/647
f 633/633/633 691/691/691 690/690/690
f 688/688/688 691/691/691 633/633/633
f 699/699/699 687/687/687 686/686/686
f 700/700/700 687/687/687 699/699/699
f 668/668/668 657/657/657 644/644/644
f 684/684/684 674/674/674 701/701/701
f 647/647/647 674/674/674 684/684/684
f 679/679/679 646/646/646 666/666/666
f 639/639/639 646/646/646 679/679/679
f 701/701/701 666/666/666 684/684/684
f 679/679/679 666/666/666 701/701/701
f 674/674/674 700/700/700 699/699/699
f 675/675/675 700/700/700 674/674/674
f 680/680/680 701/701/701 702/702/702
f 679/679/679 701/701/701 680/680/680
f 701/701/701 699/699/699 702/702/702
f 674/674/674 699/699/699 701/701/701
f 702/702/702 686/686/686 703/703/703
f 699/699/699 686/686/686 702/702/702
f 680/680/680 703/703/703 704/704/704
f 702/702/702 703/703/703 680/680/680
f 641/641/641 704/704/704 705/705/705
f 680/680/680 704/704/704 641/641/641
f 642/642/642 705/705/705 659/659/659
f 641/641/641 705/705/705 642/642/642
f 686/686/686 690/690/690 703/703/703
f 633/633/633 690/690/690 686/686/686
f 703/703/703 635/635/635 704/704/704
f 690/690/690 635/635/635 703/703/703
f 704/704/704 636/636/636 705/705/705
f 635/635/635 636/636/636 704/704/704
f 659/659/659 636/636/636 650/650/650
f 705/705/705 636/636/636 659/659/659
f 708/708/708 707/707/707 706/706/706
f 706/706/706 710/710/710 709/709/709
f 707/707/707 710/710/710 706/706/706
f 710/710/710 711/711/711 709/709/709
f 709/709/709 713/713/713 712/712/712
f 711/711/711 713/713/713 709/709/709
f 714/714/714 708/708/708 706/706/706
f 715/715/715 708/708/708 714/714/714
f 716/716/716 715/715/715 714/714/714
f 717/717/717 715/715/715 716/716/716
f 718/718/718 717/717/717 716/716/716
f 719/719/719 717/717/717 718/718/718
f 722/722/722 721/721/721 720/720/720
f 723/723/723 721/721/721 722/722/722
f 724/724/724 719/719/719 718/718/718
f 725/725/725 719/719/719 724/724/724
f 720/720/720 725/725/725 724/724/724
f 721/721/721 725/725/725 720/720/720
f 727/727/727 726/726/726 722/722/722
f 728/728/728 726/726/726 727/727/727
f 726/726/726 723/723/723 722/722/722
f 387/387/387 578/578/578 729/729/729
