# Exported from Godot Engine
mtllib DRL.mtl
o DRL
v 2.010772 0.730995 -0.852092
vt -2.355469 0.936523
vn -0.974294 0.150871 -0.167300
v 2.038936 0.710857 -0.850279
vt -2.375000 0.904541
vn -0.977787 0.186219 -0.096206
v 2.053256 0.722631 -0.832300
vt -2.400391 0.912476
vn -0.977093 0.182210 -0.109949
v 2.070187 0.708917 -0.830928
vt -2.412109 0.890137
vn -0.976899 0.205017 -0.060296
v 2.059166 0.695818 -0.847702
vt -2.386719 0.880737
vn -0.977211 0.204447 -0.057104
v 2.088573 0.693982 -0.828138
vt -2.423828 0.865601
vn -0.974519 0.223069 -0.023496
v 2.079102 0.680626 -0.844032
vt -2.398438 0.856445
vn -0.974730 0.222445 -0.020494
v 2.106881 0.679333 -0.823879
vt -2.433594 0.841187
vn -0.973107 0.230283 0.005775
v 2.098980 0.665801 -0.838915
vt -2.412109 0.832031
vn -0.973361 0.228818 0.014500
v 2.125533 0.665870 -0.817497
vt -2.447266 0.817505
vn -0.974477 0.220131 0.044019
v 2.119196 0.653060 -0.830730
vt -2.427734 0.809082
vn -0.974477 0.220131 0.044019
v 2.144518 0.655534 -0.807297
vt -2.462891 0.796143
vn -0.974666 0.210959 0.074306
v 2.139789 0.643433 -0.818808
vt -2.445312 0.788086
vn -0.974761 0.209269 0.077766
v 2.163019 0.648099 -0.793963
vt -2.482422 0.777100
vn -0.974440 0.199713 0.102867
v 2.160593 0.637019 -0.802828
vt -2.468750 0.769043
vn -0.974718 0.196729 0.105937
v 2.180524 0.642794 -0.778155
vt -2.501953 0.760010
vn -0.973550 0.186746 0.131627
v 2.179132 0.632132 -0.785914
vt -2.490234 0.751831
vn -0.974496 0.183839 0.128693
v 2.196659 0.638680 -0.760892
vt -2.523438 0.744141
vn -0.974388 0.173754 0.142750
v 2.196535 0.628131 -0.767497
vt -2.513672 0.735352
vn -0.975117 0.168758 0.143765
v 2.211854 0.635185 -0.742682
vt -2.544922 0.729248
vn -0.977061 0.159688 0.140895
v 2.212906 0.624385 -0.748657
vt -2.535156 0.719482
vn -0.977061 0.159688 0.140895
v 2.233938 0.629930 -0.714590
vt -2.578125 0.707520
vn -0.978087 0.161945 0.130840
v 2.222599 0.622240 -0.736768
vt -2.550781 0.709717
vn -0.978865 0.162091 0.124702
v 2.010772 0.730995 -0.852092
vt -2.355469 0.936523
vn -0.911481 0.389329 -0.132759
v 1.978584 0.752606 -0.852008
vt -2.332031 0.970184
vn -0.963403 0.187805 -0.191267
v 2.005492 0.729552 -0.852054
vt -2.349609 0.937073
vn -0.914160 0.391167 -0.106300
v 1.973992 0.751243 -0.852447
vt -2.328125 0.973251
vn -0.959267 0.262703 0.103888
v 2.038936 0.710857 -0.850279
vt -2.375000 0.904541
vn -0.893287 0.448609 -0.028075
v 2.033882 0.709432 -0.850194
vt -2.369141 0.905396
vn -0.896923 0.440303 -0.040771
v 2.059166 0.695818 -0.847702
vt -2.386719 0.880737
vn -0.890984 0.453405 -0.023906
v 2.054277 0.694400 -0.847601
vt -2.380859 0.881531
vn -0.890984 0.453405 -0.023906
v 2.079102 0.680626 -0.844032
vt -2.398438 0.856445
vn -0.886358 0.462734 -0.015681
v 2.074397 0.679203 -0.843920
vt -2.394531 0.857178
vn -0.888672 0.458119 -0.019747
v 2.098980 0.665801 -0.838915
vt -2.412109 0.832031
vn -0.890785 0.451393 -0.052413
v 2.094502 0.664326 -0.838759
vt -2.406250 0.832520
vn -0.891130 0.451576 -0.044341
v 2.119196 0.653060 -0.830730
vt -2.427734 0.809082
vn -0.906609 0.385970 -0.170547
v 2.114987 0.651488 -0.830468
vt -2.421875 0.808838
vn -0.904668 0.397137 -0.154459
v 2.139789 0.643433 -0.818808
vt -2.445312 0.788086
vn -0.918214 0.284627 -0.275446
v 2.135850 0.641765 -0.818398
vt -2.441406 0.787109
vn -0.913718 0.292006 -0.282582
v 2.160593 0.637019 -0.802828
vt -2.468750 0.769043
vn -0.929593 0.231316 -0.286968
v 2.156878 0.635295 -0.802310
vt -2.462891 0.767456
vn -0.926628 0.233810 -0.294438
v 2.179132 0.632132 -0.785914
vt -2.490234 0.751831
vn -0.940625 0.208120 -0.268160
v 2.175581 0.630409 -0.785379
vt -2.486328 0.750000
vn -0.938175 0.210250 -0.274997
v 2.196535 0.628131 -0.767497
vt -2.513672 0.735352
vn -0.948412 0.198038 -0.247579
v 2.193152 0.626395 -0.766985
vt -2.509766 0.733154
vn -0.947647 0.199493 -0.249335
v 2.212906 0.624385 -0.748657
vt -2.535156 0.719482
vn -0.951544 0.179067 -0.249999
v 2.209698 0.622620 -0.748190
vt -2.533203 0.717041
vn -0.950824 0.180390 -0.251782
v 2.222599 0.622240 -0.736768
vt -2.550781 0.709717
vn -0.950414 0.196106 -0.241362
v 2.222513 0.620564 -0.733003
vt -2.552734 0.705566
vn -0.951138 0.194710 -0.239634
v 2.233938 0.629930 -0.714590
vt -2.578125 0.707520
vn 0.094463 0.029086 -0.995103
v 2.235069 0.629384 -0.708627
vt -2.585938 0.705811
vn 0.077226 0.036800 -0.996334
v 2.211854 0.635185 -0.742682
vt -2.544922 0.729248
vn -0.038053 0.068461 -0.996928
v 2.208728 0.635558 -0.741878
vt -2.546875 0.732910
vn -0.045659 0.068437 -0.996610
v 2.196659 0.638680 -0.760892
vt -2.523438 0.744141
vn -0.049258 0.068192 -0.996455
v 2.180524 0.642794 -0.778155
vt -2.501953 0.760010
vn -0.056289 0.090020 -0.994348
v 2.177168 0.643209 -0.777187
vt -2.501953 0.763916
vn -0.056173 0.112311 -0.992084
v 2.163019 0.648099 -0.793963
vt -2.482422 0.777100
vn -0.056292 0.195050 -0.979176
v 2.159586 0.648484 -0.792872
vt -2.482422 0.781128
vn -0.052708 0.233311 -0.970973
v 2.144518 0.655534 -0.807297
vt -2.462891 0.796143
vn -0.038200 0.320576 -0.946452
v 2.141042 0.655858 -0.806061
vt -2.462891 0.800171
vn -0.023291 0.403151 -0.914837
v 2.125533 0.665870 -0.817497
vt -2.447266 0.817505
vn 0.011810 0.510444 -0.859830
v 2.122041 0.666086 -0.816132
vt -2.447266 0.821533
vn 0.038484 0.577180 -0.815710
v 2.106881 0.679333 -0.823879
vt -2.433594 0.841187
vn 0.071949 0.635967 -0.768355
v 2.103331 0.679439 -0.822533
vt -2.435547 0.845093
vn 0.086365 0.675780 -0.732026
v 2.088573 0.693982 -0.828138
vt -2.423828 0.865601
vn 0.093858 0.713329 -0.694516
v 2.084907 0.694036 -0.826800
vt -2.423828 0.869629
vn 0.098243 0.740469 -0.664871
v 2.070187 0.708917 -0.830928
vt -2.412109 0.890137
vn 0.090876 0.772443 -0.628549
v 2.066395 0.708917 -0.829593
vt -2.414062 0.894348
vn 0.087808 0.801480 -0.591540
v 2.053256 0.722631 -0.832300
vt -2.400391 0.912476
vn 0.113735 0.780992 -0.614097
v 2.049328 0.722585 -0.830982
vt -2.402344 0.916565
vn 0.027414 0.853372 -0.520581
v 2.033979 0.736922 -0.833634
vt -2.390625 0.937317
vn 0.060137 -0.263277 -0.962844
v 2.031840 0.735147 -0.831769
vt -2.392578 0.934814
vn -0.084292 0.080616 -0.993175
v 1.978584 0.752606 -0.852008
vt -2.332031 0.970184
vn -0.967700 0.108627 -0.227501
v 2.033979 0.736922 -0.833634
vt -2.390625 0.937317
vn -0.966433 0.102432 -0.235617
v 2.310239 0.677101 -0.518977
vt -2.861328 0.970535
vn -0.291623 0.270267 -0.917558
v 2.314213 0.670224 -0.527124
vt -2.859375 0.958008
vn -0.291623 0.270267 -0.917558
v 2.355557 0.652295 -0.479418
vt -2.931641 0.962677
vn -0.294695 0.284001 -0.912413
v 2.355278 0.647406 -0.489544
vt -2.925781 0.951843
vn -0.294695 0.284001 -0.912413
v 2.267560 0.697112 -0.563834
vt -2.789062 0.971954
vn -0.286664 0.254742 -0.923542
v 2.275294 0.688349 -0.569199
vt -2.792969 0.958313
vn -0.286664 0.254742 -0.923542
v 2.227854 0.713033 -0.613007
vt -2.716797 0.967926
vn -0.283904 0.234193 -0.929813
v 2.239016 0.702567 -0.614995
vt -2.726562 0.953705
vn -0.283444 0.240888 -0.928242
v 2.189384 0.725844 -0.664079
vt -2.644531 0.960968
vn -0.285719 0.211601 -0.934660
v 2.203887 0.713906 -0.662558
vt -2.660156 0.946289
vn -0.285290 0.218330 -0.933243
v 2.375165 0.640540 -0.463335
vt -2.962891 0.957794
vn -0.285929 0.412505 -0.864919
v 2.373360 0.636293 -0.473512
vt -2.955078 0.948120
vn -0.286883 0.276221 -0.917279
v 2.057539 0.750034 -0.805078
vt -2.431641 0.952637
vn -0.944427 0.035901 -0.326756
v 2.085784 0.735160 -0.796884
vt -2.460938 0.932251
vn -0.348598 0.029043 -0.936822
v 2.146536 0.736514 -0.714253
vt -2.572266 0.957581
vn -0.307593 0.120182 -0.943898
v 2.150354 0.736659 -0.715186
vt -2.574219 0.953796
vn -0.305112 0.127708 -0.943714
v 2.185963 0.725646 -0.663183
vt -2.644531 0.964478
vn -0.300341 0.141294 -0.943309
v 2.189384 0.725844 -0.664079
vt -2.644531 0.960968
vn -0.297787 0.148851 -0.942956
v 2.103588 0.745103 -0.762884
vt -2.500000 0.953674
vn -0.328102 0.078447 -0.941379
v 2.107800 0.745130 -0.763915
vt -2.501953 0.949646
vn -0.319175 0.092185 -0.943202
v 2.052952 0.750119 -0.803930
vt -2.427734 0.956970
vn -0.345837 0.057619 -0.936524
v 1.973992 0.751243 -0.852447
vt -2.328125 0.973251
vn -0.953994 0.294003 -0.058805
v 2.057539 0.750034 -0.805078
vt -2.431641 0.952637
vn -0.341350 0.064670 -0.937709
v 1.978584 0.752606 -0.852008
vt -2.332031 0.970184
vn -0.973448 0.196552 -0.117330
v 2.310239 0.677101 -0.518977
vt -2.861328 0.970535
vn -0.281612 0.327871 -0.901773
v 2.355557 0.652295 -0.479418
vt -2.931641 0.962677
vn -0.271254 0.378266 -0.885063
v 2.308079 0.676900 -0.518118
vt -2.859375 0.973007
vn -0.284033 0.305295 -0.908912
v 2.353891 0.652189 -0.478451
vt -2.931641 0.964783
vn -0.271981 0.372145 -0.887432
v 2.264944 0.696885 -0.563002
vt -2.787109 0.974777
vn -0.290435 0.233713 -0.927915
v 2.267560 0.697112 -0.563834
vt -2.789062 0.971954
vn -0.289469 0.247059 -0.924754
v 2.224834 0.712807 -0.612139
vt -2.714844 0.971100
vn -0.294184 0.177182 -0.939182
v 2.227854 0.713033 -0.613007
vt -2.716797 0.967926
vn -0.293815 0.184023 -0.937981
v 2.239016 0.702567 -0.614995
vt -2.726562 0.953705
vn -0.238455 0.245406 -0.939636
v 2.203887 0.713906 -0.662558
vt -2.660156 0.946289
vn -0.223640 0.216596 -0.950301
v 2.236854 0.701248 -0.615256
vt -2.724609 0.951111
vn -0.230693 0.237631 -0.943564
v 2.201356 0.712590 -0.662799
vt -2.658203 0.943390
vn -0.223942 0.209903 -0.951730
v 2.273484 0.687028 -0.569483
vt -2.792969 0.956055
vn -0.263031 0.259443 -0.929249
v 2.275294 0.688349 -0.569199
vt -2.792969 0.958313
vn -0.275434 0.261248 -0.925141
v 2.312720 0.668929 -0.527447
vt -2.859375 0.956024
vn -0.309148 0.265957 -0.913069
v 2.314213 0.670224 -0.527124
vt -2.859375 0.958008
vn -0.317100 0.273826 -0.908002
v 2.355278 0.647406 -0.489544
vt -2.925781 0.951843
vn -0.338638 0.276697 -0.899312
v 2.354079 0.646170 -0.489836
vt -2.925781 0.950043
vn -0.336500 0.277952 -0.899728
v 2.165214 0.722104 -0.710288
vt -2.591797 0.935547
vn -0.244064 0.167325 -0.955215
v 2.168139 0.723430 -0.710083
vt -2.593750 0.938690
vn -0.232853 0.180667 -0.955583
v 2.126611 0.729688 -0.756296
vt -2.525391 0.929688
vn -0.306442 0.091567 -0.947475
v 2.130003 0.731053 -0.756174
vt -2.527344 0.932922
vn -0.271666 0.125359 -0.954192
v 2.081976 0.733850 -0.796792
vt -2.457031 0.929260
vn -0.389414 0.000000 -0.921063
v 2.085784 0.735160 -0.796884
vt -2.460938 0.932251
vn -0.350436 0.043328 -0.935584
v 2.375398 0.639433 -0.461282
vt -2.964844 0.958862
vn -0.166852 0.558566 -0.812505
v 2.373270 0.634802 -0.472789
vt -2.957031 0.946594
vn -0.184955 0.369866 -0.910489
v 2.107800 0.745130 -0.763915
vt -2.501953 0.949646
vn -0.332531 0.071471 -0.940380
v 2.130003 0.731053 -0.756174
vt -2.527344 0.932922
vn -0.309076 0.134962 -0.941413
v 2.150354 0.736659 -0.715186
vt -2.574219 0.953796
vn -0.296774 0.169542 -0.939777
v 2.168139 0.723430 -0.710083
vt -2.593750 0.938690
vn -0.292995 0.197680 -0.935455
v 2.222513 0.620564 -0.733003
vt -2.552734 0.705566
vn -0.983892 0.167012 0.063739
v 2.235069 0.629384 -0.708627
vt -2.585938 0.705811
vn -0.975353 0.185898 0.118860
v 2.222599 0.622240 -0.736768
vt -2.550781 0.709717
vn -0.983195 0.169925 0.066730
v 2.233938 0.629930 -0.714590
vt -2.578125 0.707520
vn -0.972264 0.190728 0.135374
v 2.126611 0.729688 -0.756296
vt -2.525391 0.929688
vn -0.332357 0.078616 -0.939871
v 2.081976 0.733850 -0.796792
vt -2.457031 0.929260
vn -0.337013 0.064530 -0.939286
v 2.129981 0.728400 -0.754886
vt -2.529297 0.927917
vn -0.313328 0.135264 -0.939962
v 2.086297 0.732470 -0.795312
vt -2.462891 0.926941
vn -0.337013 0.064530 -0.939286
v 2.201356 0.712590 -0.662799
vt -2.658203 0.943390
vn -0.297600 0.191286 -0.935331
v 2.203460 0.711580 -0.662310
vt -2.660156 0.941925
vn -0.296796 0.204912 -0.932697
v 2.236854 0.701248 -0.615256
vt -2.724609 0.951111
vn -0.293629 0.219319 -0.930420
v 2.238442 0.700410 -0.615279
vt -2.726562 0.949646
vn -0.293189 0.226013 -0.928955
v 2.165214 0.722104 -0.710288
vt -2.591797 0.935547
vn -0.308107 0.155787 -0.938510
v 2.167848 0.720934 -0.709267
vt -2.595703 0.934021
vn -0.300652 0.176790 -0.937205
v 2.224834 0.712807 -0.612139
vt -2.714844 0.971100
vn -0.283444 0.240888 -0.928242
v 2.223433 0.714135 -0.612078
vt -2.714844 0.972763
vn -0.282058 0.232652 -0.930761
v 2.185963 0.725646 -0.663183
vt -2.644531 0.964478
vn -0.285290 0.218330 -0.933243
v 2.184072 0.727177 -0.663627
vt -2.640625 0.966217
vn -0.285719 0.211601 -0.934660
v 2.264944 0.696885 -0.563002
vt -2.787109 0.974777
vn -0.286664 0.254742 -0.923542
v 2.264032 0.697980 -0.562479
vt -2.787109 0.976349
vn -0.287171 0.248127 -0.925184
v 2.308079 0.676900 -0.518118
vt -2.859375 0.973007
vn -0.296429 0.264215 -0.917780
v 2.307700 0.677728 -0.517230
vt -2.859375 0.974396
vn -0.296429 0.264215 -0.917780
v 2.375670 0.640089 -0.459700
vt -2.966797 0.960388
vn -0.311370 0.311324 -0.897845
v 2.375398 0.639433 -0.461282
vt -2.964844 0.958862
vn -0.305781 0.302139 -0.902890
v 2.378383 0.638490 -0.457495
vt -2.970703 0.960114
vn -0.311221 0.332852 -0.890141
v 2.353891 0.652189 -0.478451
vt -2.931641 0.964783
vn -0.300656 0.264798 -0.916236
v 2.354127 0.652723 -0.477311
vt -2.933594 0.965912
vn -0.300656 0.264798 -0.916236
v 2.312720 0.668929 -0.527447
vt -2.859375 0.956024
vn -0.290506 0.283377 -0.913949
v 2.313274 0.668449 -0.528361
vt -2.859375 0.954742
vn -0.290506 0.283377 -0.913949
v 2.354079 0.646170 -0.489836
vt -2.925781 0.950043
vn -0.288239 0.305974 -0.907358
v 2.354091 0.645878 -0.491182
vt -2.923828 0.948822
vn -0.288866 0.299516 -0.909311
v 2.039196 0.733823 -0.829703
vt -2.398438 0.931091
vn -0.952493 0.071338 -0.296088
v 2.031840 0.735147 -0.831769
vt -2.392578 0.934814
vn -0.965263 0.109886 -0.237051
v 2.055228 0.721146 -0.829133
vt -2.408203 0.912476
vn -0.963628 0.261938 -0.053008
v 2.049328 0.722585 -0.830982
vt -2.402344 0.916565
vn -0.956183 0.280669 0.083296
v 2.222513 0.620564 -0.733003
vt -2.552734 0.705566
vn -0.984573 0.164080 0.060771
v 2.226121 0.620527 -0.728960
vt -2.558594 0.703125
vn -0.984573 0.164080 0.060771
v 2.235069 0.629384 -0.708627
vt -2.585938 0.705811
vn -0.979860 0.161226 0.117812
v 2.238101 0.628740 -0.704647
vt -2.589844 0.703125
vn -0.978915 0.150571 0.138038
v 2.146536 0.736514 -0.714253
vt -2.572266 0.957581
vn -0.289197 0.190419 -0.938139
v 2.144149 0.738219 -0.715243
vt -2.568359 0.959351
vn -0.299389 0.161992 -0.940279
v 2.103588 0.745103 -0.762884
vt -2.500000 0.953674
vn -0.309386 0.127998 -0.942283
v 2.100514 0.746892 -0.764305
vt -2.496094 0.955688
vn -0.337384 0.043050 -0.940382
v 2.052952 0.750119 -0.803930
vt -2.427734 0.956970
vn -0.359499 0.000000 -0.933146
v 2.048971 0.752006 -0.805485
vt -2.423828 0.959717
vn -0.962424 0.089976 -0.256211
v 1.973992 0.751243 -0.852447
vt -2.328125 0.973251
vn -0.963986 0.096379 -0.247874
v 1.956900 0.755008 -0.858209
vt -2.310547 0.982224
vn -0.963986 0.096379 -0.247874
v 2.373270 0.634802 -0.472789
vt -2.957031 0.946594
vn -0.301448 0.322947 -0.897125
v 2.375132 0.632957 -0.472408
vt -2.958984 0.944946
vn -0.317990 0.350857 -0.880785
v 2.273484 0.687028 -0.569483
vt -2.792969 0.956055
vn -0.291344 0.248683 -0.923729
v 2.274573 0.686365 -0.569987
vt -2.792969 0.954651
vn -0.290847 0.255314 -0.922075
v 2.374349 0.633448 -0.473078
vt -2.957031 0.944977
vn -0.308624 0.355774 -0.882143
v 2.236724 0.630743 -0.705130
vt -2.589844 0.705322
vn -0.972653 0.161027 0.167380
v 2.208728 0.635558 -0.741878
vt -2.546875 0.732910
vn -0.968694 0.208425 0.134873
v 2.211113 0.636083 -0.738641
vt -2.550781 0.731445
vn -0.973298 0.168411 0.155976
v 2.177168 0.643209 -0.777187
vt -2.501953 0.763916
vn -0.967402 0.232771 0.099753
v 2.180200 0.643507 -0.774038
vt -2.507812 0.761963
vn -0.969427 0.215051 0.118170
v 2.163053 0.648629 -0.789800
vt -2.486328 0.778809
vn -0.965404 0.236753 0.109282
v 2.159586 0.648484 -0.792872
vt -2.482422 0.781128
vn -0.963566 0.243911 0.109765
v 2.144753 0.655726 -0.803317
vt -2.468750 0.797607
vn -0.964192 0.247049 0.096437
v 2.141042 0.655858 -0.806061
vt -2.462891 0.800171
vn -0.961853 0.255637 0.097411
v 2.125845 0.665679 -0.813834
vt -2.453125 0.818848
vn -0.962779 0.258718 0.078240
v 2.122041 0.666086 -0.816132
vt -2.447266 0.821533
vn -0.962334 0.260245 0.078647
v 2.107228 0.678900 -0.820511
vt -2.439453 0.842407
vn -0.962619 0.266050 0.050820
v 2.103331 0.679439 -0.822533
vt -2.435547 0.845093
vn -0.961252 0.270313 0.054086
v 2.088984 0.693450 -0.824918
vt -2.429688 0.866821
vn -0.961102 0.274576 0.029835
v 2.084907 0.694036 -0.826800
vt -2.423828 0.869629
vn -0.960395 0.277345 0.026841
v 2.070728 0.708386 -0.827785
vt -2.417969 0.891602
vn -0.959280 0.282458 0.000019
v 2.066395 0.708917 -0.829593
vt -2.414062 0.894348
vn -0.958562 0.284868 -0.002986
v 2.081976 0.733850 -0.796792
vt -2.457031 0.929260
vn -0.941164 0.014365 -0.337644
v 2.086297 0.732470 -0.795312
vt -2.462891 0.926941
vn -0.941164 0.014365 -0.337644
v 2.168272 0.327474 -0.826978
vt -2.117188 0.540527
vn -0.904732 0.425966 0.003767
v 2.160527 0.323620 -0.827383
vt -2.107422 0.540527
vn -0.934397 0.338333 -0.111503
v 2.175421 0.320434 -0.818291
vt -2.119141 0.530518
vn -0.942528 0.273731 -0.191603
v 2.167733 0.316509 -0.818925
vt -2.111328 0.526123
vn -0.936879 0.167409 -0.306974
v 2.168272 0.327474 -0.826978
vt -2.117188 0.540527
vn -0.904134 0.427232 -0.003810
v 2.161165 0.336885 -0.835259
vt -2.117188 0.556641
vn -0.922303 0.378343 -0.078830
v 2.160527 0.323620 -0.827383
vt -2.107422 0.540527
vn -0.913633 0.404287 -0.042750
v 2.152933 0.333709 -0.836280
vt -2.107422 0.556641
vn -0.928538 0.355592 -0.106639
v 2.161165 0.336885 -0.835259
vt -2.117188 0.556641
vn -0.928253 0.352053 -0.120022
v 2.155525 0.347481 -0.842257
vt -2.117188 0.572021
vn -0.932233 0.320284 -0.168403
v 2.152933 0.333709 -0.836280
vt -2.107422 0.556641
vn -0.930787 0.334718 -0.146970
v 2.146468 0.344737 -0.843460
vt -2.107422 0.572021
vn -0.934125 0.303137 -0.188465
v 2.155525 0.347481 -0.842257
vt -2.117188 0.572021
vn -0.930212 0.298671 -0.213308
v 2.151315 0.359034 -0.847495
vt -2.117188 0.587402
vn -0.929935 0.297216 -0.216524
v 2.146468 0.344737 -0.843460
vt -2.107422 0.572021
vn -0.929935 0.297216 -0.216524
v 2.142585 0.356538 -0.848433
vt -2.107422 0.587402
vn -0.929935 0.297216 -0.216524
v 2.151315 0.359034 -0.847495
vt -2.117188 0.587402
vn -0.925721 0.298306 -0.232497
v 2.148408 0.370460 -0.851219
vt -2.117188 0.601807
vn -0.922227 0.259640 -0.286504
v 2.142585 0.356538 -0.848433
vt -2.107422 0.587402
vn -0.923697 0.275311 -0.266434
v 2.140137 0.368740 -0.852042
vt -2.107422 0.601807
vn -0.916040 0.236941 -0.323620
v 2.144914 0.391487 -0.855742
vt -2.117188 0.625488
vn -0.915221 0.248340 -0.317329
v 2.136631 0.389643 -0.856446
vt -2.107422 0.625488
vn -0.915221 0.248340 -0.317329
v 2.148408 0.370460 -0.851219
vt -2.117188 0.601807
vn -0.913044 0.240968 -0.329068
v 2.140137 0.368740 -0.852042
vt -2.107422 0.601807
vn -0.910654 0.233487 -0.340872
v 2.136631 0.389643 -0.856446
vt -2.107422 0.625488
vn -0.910578 0.254738 -0.325509
v 2.144914 0.391487 -0.855742
vt -2.117188 0.625488
vn -0.910578 0.254738 -0.325509
v 2.131577 0.435196 -0.862963
vt -2.107422 0.677002
vn -0.908229 0.247243 -0.337624
v 2.140339 0.437011 -0.862454
vt -2.117188 0.677002
vn -0.905017 0.238122 -0.352481
v 2.160527 0.323620 -0.827383
vt -2.107422 0.540527
vn -0.931991 0.259598 0.252985
v 2.155145 0.318204 -0.831900
vt -2.099609 0.540527
vn -0.934393 0.258421 0.245211
v 2.167733 0.316509 -0.818925
vt -2.111328 0.526123
vn -0.935181 0.260100 0.240384
v 2.159881 0.311661 -0.825540
vt -2.099609 0.528809
vn -0.935181 0.260100 0.240384
v 2.159881 0.311661 -0.825540
vt -2.099609 0.528809
vn 0.967570 0.050898 0.247422
v 2.155145 0.318204 -0.831900
vt -2.099609 0.540527
vn 0.946462 0.078251 0.313187
v 2.162010 0.305969 -0.830556
vt -2.091797 0.524170
vn 0.950540 0.074470 0.301544
v 2.158372 0.312189 -0.842704
vt -2.087891 0.540527
vn 0.936095 0.094293 0.338873
v 2.144407 0.337388 -0.857840
vt -2.087891 0.572021
vn 0.976525 0.092168 0.194688
v 2.149916 0.324742 -0.851710
vt -2.087891 0.556641
vn 0.975208 0.092037 0.201243
v 2.141720 0.340773 -0.848141
vt -2.099609 0.572021
vn 0.975208 0.092037 0.201243
v 2.147825 0.328921 -0.841242
vt -2.099609 0.556641
vn 0.973496 0.092522 0.209153
v 2.140461 0.351191 -0.862315
vt -2.087891 0.587402
vn 0.989521 0.122055 0.077144
v 2.144407 0.337388 -0.857840
vt -2.087891 0.572021
vn 0.987775 0.125070 0.093053
v 2.136680 0.353390 -0.853218
vt -2.099609 0.587402
vn 0.988346 0.125134 0.086677
v 2.141720 0.340773 -0.848141
vt -2.099609 0.572021
vn 0.985782 0.128001 0.108860
v 2.137891 0.364343 -0.865502
vt -2.087891 0.601807
vn 0.989189 0.146515 0.006151
v 2.140461 0.351191 -0.862315
vt -2.087891 0.587402
vn 0.989132 0.146519 0.012244
v 2.134175 0.366222 -0.856801
vt -2.099609 0.601807
vn 0.989189 0.146515 0.006151
v 2.136680 0.353390 -0.853218
vt -2.099609 0.587402
vn 0.989038 0.146513 0.018365
v 2.135113 0.386003 -0.869008
vt -2.087891 0.625488
vn 0.990493 0.135345 -0.024594
v 2.137891 0.364343 -0.865502
vt -2.087891 0.601807
vn 0.989783 0.140966 -0.021431
v 2.131012 0.387556 -0.861032
vt -2.099609 0.625488
vn 0.990493 0.135345 -0.024594
v 2.134175 0.366222 -0.856801
vt -2.099609 0.601807
vn 0.989783 0.140966 -0.021431
v 2.130552 0.434410 -0.874483
vt -2.087891 0.677002
vn 0.978932 0.006936 -0.204070
v 2.135113 0.386003 -0.869008
vt -2.087891 0.625488
vn 0.989952 0.113145 -0.084813
v 2.126022 0.434459 -0.867401
vt -2.099609 0.677002
vn 0.982742 0.027120 -0.182981
v 2.131012 0.387556 -0.861032
vt -2.099609 0.625488
vn 0.989701 0.124128 -0.071305
v 2.131577 0.435196 -0.862963
vt -2.107422 0.677002
vn -0.965649 0.089314 -0.244019
v 2.126022 0.434459 -0.867401
vt -2.099609 0.677002
vn -0.968390 0.101921 -0.227669
v 2.136631 0.389643 -0.856446
vt -2.107422 0.625488
vn -0.974491 0.205458 -0.090305
v 2.131012 0.387556 -0.861032
vt -2.099609 0.625488
vn -0.973596 0.214977 -0.076789
v 2.140137 0.368740 -0.852042
vt -2.107422 0.601807
vn -0.970729 0.235853 -0.045371
v 2.136631 0.389643 -0.856446
vt -2.107422 0.625488
vn -0.973105 0.220307 -0.067312
v 2.134175 0.366222 -0.856801
vt -2.099609 0.601807
vn -0.971487 0.230713 -0.054638
v 2.131012 0.387556 -0.861032
vt -2.099609 0.625488
vn -0.973662 0.215667 -0.073964
v 2.146468 0.344737 -0.843460
vt -2.107422 0.572021
vn -0.956438 0.254619 0.142814
v 2.142585 0.356538 -0.848433
vt -2.107422 0.587402
vn -0.964965 0.254721 0.062922
v 2.141720 0.340773 -0.848141
vt -2.099609 0.572021
vn -0.961259 0.255499 0.103445
v 2.136680 0.353390 -0.853218
vt -2.099609 0.587402
vn -0.966629 0.254819 0.026371
v 2.142585 0.356538 -0.848433
vt -2.107422 0.587402
vn -0.963500 0.267306 0.014691
v 2.140137 0.368740 -0.852042
vt -2.107422 0.601807
vn -0.968215 0.248695 -0.026661
v 2.136680 0.353390 -0.853218
vt -2.099609 0.587402
vn -0.964751 0.263100 -0.005855
v 2.134175 0.366222 -0.856801
vt -2.099609 0.601807
vn -0.970729 0.235853 -0.045371
v 2.152933 0.333709 -0.836280
vt -2.107422 0.556641
vn -0.948133 0.240224 0.208174
v 2.146468 0.344737 -0.843460
vt -2.107422 0.572021
vn -0.954820 0.241824 0.172743
v 2.147825 0.328921 -0.841242
vt -2.099609 0.556641
vn -0.950491 0.240783 0.196442
v 2.141720 0.340773 -0.848141
vt -2.099609 0.572021
vn -0.957346 0.240896 0.159554
v 2.152933 0.333709 -0.836280
vt -2.107422 0.556641
vn -0.947900 0.246557 0.201732
v 2.147825 0.328921 -0.841242
vt -2.099609 0.556641
vn -0.942004 0.246852 0.227360
v 2.160527 0.323620 -0.827383
vt -2.107422 0.540527
vn -0.937602 0.245867 0.245867
v 2.155145 0.318204 -0.831900
vt -2.099609 0.540527
vn -0.931908 0.246262 0.266275
v 2.147825 0.328921 -0.841242
vt -2.099609 0.556641
vn 0.966983 0.080564 0.241770
v 2.149916 0.324742 -0.851710
vt -2.087891 0.556641
vn 0.959519 0.093169 0.265788
v 2.155145 0.318204 -0.831900
vt -2.099609 0.540527
vn 0.954082 0.096774 0.283482
v 2.158372 0.312189 -0.842704
vt -2.087891 0.540527
vn 0.949590 0.109294 0.293825
v 2.175088 0.309433 -0.826090
vt -2.103516 0.512939
vn -0.957867 0.196643 0.209338
v 2.177853 0.311611 -0.823452
vt -2.109375 0.512207
vn -0.957867 0.196643 0.209338
v 2.170468 0.309678 -0.822562
vt -2.105469 0.518799
vn -0.957867 0.196643 0.209338
v 2.163339 0.308395 -0.829239
vt -2.095703 0.523682
vn -0.991481 0.130100 -0.006212
v 2.169654 0.308772 -0.827704
vt -2.099609 0.517578
vn -0.991481 0.130100 -0.006212
v 2.170468 0.309678 -0.822562
vt -2.105469 0.518799
vn -0.991481 0.130100 -0.006212
v 2.162111 0.311625 -0.826286
vt -2.099609 0.526611
vn -0.961479 0.147122 0.232191
v 2.163339 0.308395 -0.829239
vt -2.095703 0.523682
vn -0.961479 0.147122 0.232191
v 2.170468 0.309678 -0.822562
vt -2.105469 0.518799
vn -0.961479 0.147122 0.232191
v 2.173223 0.314712 -0.821229
vt -2.111328 0.518799
vn -0.728964 0.248476 0.637865
v 2.168555 0.315629 -0.821182
vt -2.109375 0.523926
vn -0.728964 0.248476 0.637865
v 2.170468 0.309678 -0.822562
vt -2.105469 0.518799
vn -0.728964 0.248476 0.637865
v 2.177853 0.311611 -0.823452
vt -2.109375 0.512207
vn -0.845942 0.220657 0.485483
v 2.177153 0.313331 -0.821886
vt -2.111328 0.514160
vn -0.845942 0.220657 0.485483
v 2.170468 0.309678 -0.822562
vt -2.105469 0.518799
vn -0.845942 0.220657 0.485483
v 2.169654 0.308772 -0.827704
vt -2.099609 0.517578
vn -0.990662 0.136203 -0.006172
v 2.175088 0.309433 -0.826090
vt -2.103516 0.512939
vn -0.990662 0.136203 -0.006172
v 2.170468 0.309678 -0.822562
vt -2.105469 0.518799
vn -0.990662 0.136203 -0.006172
v 2.168555 0.315629 -0.821182
vt -2.109375 0.523926
vn -0.916125 0.223913 0.332534
v 2.162111 0.311625 -0.826286
vt -2.099609 0.526611
vn -0.916125 0.223913 0.332534
v 2.170468 0.309678 -0.822562
vt -2.105469 0.518799
vn -0.916125 0.223913 0.332534
v 2.177153 0.313331 -0.821886
vt -2.111328 0.514160
vn -0.728964 0.248476 0.637865
v 2.169654 0.308772 -0.827704
vt -2.099609 0.517578
vn -0.837536 0.196597 0.509787
v 2.163339 0.308395 -0.829239
vt -2.095703 0.523682
vn -0.762328 0.147146 0.630241
v 2.170236 0.306244 -0.829156
vt -2.097656 0.515625
vn -0.814252 0.181320 0.551467
v 2.162010 0.305969 -0.830556
vt -2.091797 0.524170
vn -0.739679 0.133426 0.659600
v 2.175088 0.309433 -0.826090
vt -2.103516 0.512939
vn -0.890796 0.208748 0.403618
v 2.169654 0.308772 -0.827704
vt -2.099609 0.517578
vn -0.879089 0.200421 0.432473
v 2.176652 0.307121 -0.827133
vt -2.103516 0.510010
vn -0.883980 0.203439 0.420942
v 2.170236 0.306244 -0.829156
vt -2.097656 0.515625
vn -0.876737 0.197927 0.438357
v 2.177853 0.311611 -0.823452
vt -2.109375 0.512207
vn -0.936385 0.209521 0.281575
v 2.175088 0.309433 -0.826090
vt -2.103516 0.512939
vn -0.932427 0.204975 0.297598
v 2.180669 0.310496 -0.823085
vt -2.109375 0.509033
vn -0.935337 0.207482 0.286523
v 2.176652 0.307121 -0.827133
vt -2.103516 0.510010
vn -0.932427 0.204975 0.297598
v 2.177153 0.313331 -0.821886
vt -2.111328 0.514160
vn -0.960782 0.161196 0.225642
v 2.177853 0.311611 -0.823452
vt -2.109375 0.512207
vn -0.961450 0.163429 0.221143
v 2.179226 0.314082 -0.819818
vt -2.113281 0.512939
vn -0.961450 0.163429 0.221143
v 2.180669 0.310496 -0.823085
vt -2.109375 0.509033
vn -0.961450 0.163429 0.221143
v 2.173223 0.314712 -0.821229
vt -2.111328 0.518799
vn -0.970681 0.153234 0.185195
v 2.177153 0.313331 -0.821886
vt -2.111328 0.514160
vn -0.970681 0.153234 0.185195
v 2.173843 0.316145 -0.818763
vt -2.113281 0.519531
vn -0.970681 0.153234 0.185195
v 2.179226 0.314082 -0.819818
vt -2.113281 0.512939
vn -0.970681 0.153234 0.185195
v 2.168555 0.315629 -0.821182
vt -2.109375 0.523926
vn -0.980814 0.175542 0.084788
v 2.173223 0.314712 -0.821229
vt -2.111328 0.518799
vn -0.979671 0.153837 0.128760
v 2.167733 0.316509 -0.818925
vt -2.111328 0.526123
vn -0.980458 0.166463 0.104844
v 2.173843 0.316145 -0.818763
vt -2.113281 0.519531
vn -0.978418 0.146095 0.146133
v 2.162111 0.311625 -0.826286
vt -2.099609 0.526611
vn -0.965128 0.194256 0.175476
v 2.168555 0.315629 -0.821182
vt -2.109375 0.523926
vn -0.965298 0.202365 0.165069
v 2.159881 0.311661 -0.825540
vt -2.099609 0.528809
vn -0.965485 0.196181 0.171325
v 2.167733 0.316509 -0.818925
vt -2.111328 0.526123
vn -0.965599 0.204223 0.160970
v 2.163339 0.308395 -0.829239
vt -2.095703 0.523682
vn -0.767702 0.142979 0.624652
v 2.162111 0.311625 -0.826286
vt -2.099609 0.526611
vn -0.782700 0.158028 0.602003
v 2.162010 0.305969 -0.830556
vt -2.091797 0.524170
vn -0.773503 0.150172 0.615744
v 2.159881 0.311661 -0.825540
vt -2.099609 0.528809
vn -0.786861 0.161094 0.595734
v 2.135532 0.435081 -0.863424
vt -2.185547 0.302246
vn 0.959246 0.007012 -0.282484
v 2.139145 0.435003 -0.867482
vt -2.179688 0.302246
vn 0.960918 0.013862 -0.276487
v 2.140413 0.388833 -0.856990
vt -2.185547 0.250000
vn 0.970241 0.047499 -0.237437
v 2.144325 0.388437 -0.861395
vt -2.179688 0.250000
vn 0.971831 0.054014 -0.229406
v 2.146134 0.355459 -0.849313
vt -2.185547 0.210938
vn 0.977644 0.066532 -0.199464
v 2.143720 0.367813 -0.852788
vt -2.185547 0.225586
vn 0.978744 0.072772 -0.191738
v 2.149863 0.354955 -0.853910
vt -2.179688 0.210938
vn 0.977644 0.066532 -0.199464
v 2.147485 0.367289 -0.857304
vt -2.179688 0.225586
vn 0.978744 0.072772 -0.191738
v 2.143720 0.367813 -0.852788
vt -2.185547 0.225586
vn 0.976016 0.066876 -0.207171
v 2.140413 0.388833 -0.856990
vt -2.185547 0.250000
vn 0.975060 0.060141 -0.213637
v 2.147485 0.367289 -0.857304
vt -2.179688 0.225586
vn 0.976016 0.066876 -0.207171
v 2.144325 0.388437 -0.861395
vt -2.179688 0.250000
vn 0.975060 0.060141 -0.213637
v 2.141205 0.365100 -0.861005
vt -2.171875 0.225586
vn -0.966787 0.233548 -0.103819
v 2.143776 0.352115 -0.857346
vt -2.171875 0.210938
vn -0.960721 0.273565 -0.046656
v 2.147485 0.367289 -0.857304
vt -2.179688 0.225586
vn -0.964275 0.253717 -0.076167
v 2.149863 0.354955 -0.853910
vt -2.179688 0.210938
vn -0.957211 0.288346 -0.024555
v 2.148481 0.339125 -0.852043
vt -2.171875 0.195312
vn -0.943958 0.320015 0.080830
v 2.154581 0.327139 -0.844838
vt -2.171875 0.179199
vn -0.937643 0.322501 0.129683
v 2.154330 0.342888 -0.849108
vt -2.179688 0.195312
vn -0.942132 0.320550 0.098157
v 2.160387 0.331289 -0.842360
vt -2.179688 0.179199
vn -0.934834 0.322807 0.147924
v 2.156854 0.332050 -0.837655
vt -2.185547 0.179199
vn 0.983096 0.090867 -0.158952
v 2.150691 0.343443 -0.844451
vt -2.185547 0.195312
vn 0.983036 0.084636 -0.162719
v 2.160387 0.331289 -0.842360
vt -2.179688 0.179199
vn 0.983496 0.091212 -0.156259
v 2.154330 0.342888 -0.849108
vt -2.179688 0.195312
vn 0.983036 0.084636 -0.162719
v 2.149863 0.354955 -0.853910
vt -2.179688 0.210938
vn -0.956343 0.290919 -0.027843
v 2.143776 0.352115 -0.857346
vt -2.171875 0.210938
vn -0.950776 0.309744 0.009203
v 2.154330 0.342888 -0.849108
vt -2.179688 0.195312
vn -0.948893 0.311047 0.053408
v 2.148481 0.339125 -0.852043
vt -2.171875 0.195312
vn -0.945513 0.311942 0.093263
v 2.160387 0.331289 -0.842360
vt -2.179688 0.179199
vn 0.986219 0.113829 -0.120066
v 2.167696 0.320655 -0.833300
vt -2.179688 0.162109
vn 0.985694 0.131015 -0.106032
v 2.156854 0.332050 -0.837655
vt -2.185547 0.179199
vn 0.986042 0.114510 -0.120865
v 2.164183 0.321761 -0.828677
vt -2.185547 0.162109
vn 0.985275 0.131373 -0.109427
v 2.150691 0.343443 -0.844451
vt -2.185547 0.195312
vn 0.979966 0.072853 -0.185364
v 2.146134 0.355459 -0.849313
vt -2.185547 0.210938
vn 0.979966 0.072853 -0.185364
v 2.154330 0.342888 -0.849108
vt -2.179688 0.195312
vn 0.979966 0.072853 -0.185364
v 2.149863 0.354955 -0.853910
vt -2.179688 0.210938
vn 0.979966 0.072853 -0.185364
v 2.154581 0.327139 -0.844838
vt -2.171875 0.179199
vn -0.933697 0.331520 0.135296
v 2.162075 0.315913 -0.835184
vt -2.171875 0.162109
vn -0.918195 0.337102 0.208040
v 2.160387 0.331289 -0.842360
vt -2.179688 0.179199
vn -0.928741 0.333613 0.161689
v 2.167696 0.320655 -0.833300
vt -2.179688 0.162109
vn -0.910612 0.338716 0.236763
v 2.172481 0.302932 -0.822088
vt -2.171875 0.139648
vn -0.903720 0.340705 0.259251
v 2.177789 0.307642 -0.820306
vt -2.179688 0.139648
vn -0.903720 0.340705 0.259251
v 2.162075 0.315913 -0.835184
vt -2.171875 0.162109
vn -0.907757 0.340366 0.245209
v 2.177789 0.307642 -0.820306
vt -2.179688 0.139648
vn 0.986195 0.152685 -0.064081
v 2.174795 0.308943 -0.815794
vt -2.185547 0.139648
vn 0.985800 0.157732 -0.057605
v 2.167696 0.320655 -0.833300
vt -2.179688 0.162109
vn 0.985097 0.163180 -0.054375
v 2.164183 0.321761 -0.828677
vt -2.185547 0.162109
vn 0.985097 0.163180 -0.054375
v 2.141205 0.365100 -0.861005
vt -2.171875 0.225586
vn -0.967207 0.232093 -0.103168
v 2.147485 0.367289 -0.857304
vt -2.179688 0.225586
vn -0.967971 0.225832 -0.109694
v 2.138150 0.386617 -0.865251
vt -2.171875 0.250000
vn -0.968409 0.204898 -0.142132
v 2.144325 0.388437 -0.861395
vt -2.179688 0.250000
vn -0.968769 0.198348 -0.148811
v 2.144325 0.388437 -0.861395
vt -2.179688 0.250000
vn -0.970096 0.197270 -0.141412
v 2.139145 0.435003 -0.867482
vt -2.179688 0.302246
vn -0.960477 0.111747 -0.254943
v 2.138150 0.386617 -0.865251
vt -2.171875 0.250000
vn -0.970410 0.190782 -0.148011
v 2.133538 0.434215 -0.871315
vt -2.171875 0.302246
vn -0.957208 0.098894 -0.271980
v 2.070187 0.708916 0.830928
vt -2.412109 0.890137
vn -0.692175 -0.676451 0.251608
v 2.038936 0.710857 0.850279
vt -2.375000 0.904541
vn -0.710301 -0.675196 0.198954
v 2.053256 0.722631 0.832300
vt -2.400391 0.912476
vn -0.721005 -0.670633 0.174367
v 2.010772 0.730995 0.852093
vt -2.355469 0.936523
vn -0.740755 -0.664405 0.099237
v 2.088573 0.693982 0.828138
vt -2.423828 0.865601
vn -0.668232 -0.676211 0.310169
v 2.059166 0.695818 0.847702
vt -2.386719 0.880737
vn -0.686653 -0.678765 0.260357
v 2.106881 0.679333 0.823879
vt -2.433594 0.841187
vn -0.640319 -0.676327 0.364105
v 2.079102 0.680626 0.844032
vt -2.398438 0.856445
vn -0.662106 -0.678107 0.319039
v 2.125533 0.665870 0.817497
vt -2.447266 0.817505
vn -0.605890 -0.670550 0.428089
v 2.098980 0.665800 0.838915
vt -2.412109 0.832031
vn -0.634445 -0.674588 0.377373
v 2.144518 0.655533 0.807297
vt -2.462891 0.796143
vn -0.575039 -0.664115 0.477789
v 2.119196 0.653060 0.830730
vt -2.427734 0.809082
vn -0.605890 -0.670550 0.428089
v 2.163019 0.648098 0.793963
vt -2.482422 0.777100
vn -0.539000 -0.657364 0.526643
v 2.139789 0.643433 0.818809
vt -2.445312 0.788086
vn -0.570016 -0.663660 0.484394
v 2.180524 0.642794 0.778155
vt -2.501953 0.760010
vn -0.497895 -0.648890 0.575363
v 2.160593 0.637019 0.802829
vt -2.468750 0.769043
vn -0.530815 -0.657386 0.534864
v 2.196659 0.638679 0.760892
vt -2.523438 0.744141
vn -0.461898 -0.647495 0.606135
v 2.179132 0.632132 0.785914
vt -2.490234 0.751831
vn -0.491714 -0.651531 0.577689
v 2.211854 0.635185 0.742682
vt -2.544922 0.729248
vn -0.426369 -0.652084 0.626894
v 2.196535 0.628131 0.767497
vt -2.513672 0.735352
vn -0.448871 -0.648317 0.614980
v 2.222599 0.622240 0.736769
vt -2.550781 0.709717
vn -0.437618 -0.660584 0.610016
v 2.212906 0.624385 0.748657
vt -2.535156 0.719482
vn -0.426369 -0.652084 0.626894
v 2.233938 0.629930 0.714590
vt -2.578125 0.707520
vn -0.435381 -0.657203 0.615246
v 1.973992 0.751243 0.852447
vt -2.328125 0.973251
vn -0.715831 -0.610800 0.338391
v 1.978584 0.752606 0.852008
vt -2.332031 0.970184
vn -0.774169 -0.629019 0.070686
v 2.005492 0.729552 0.852054
vt -2.349609 0.937073
vn -0.903703 -0.417752 -0.093834
v 2.010772 0.730995 0.852093
vt -2.355469 0.936523
vn -0.911469 -0.389342 -0.132807
v 2.033882 0.709431 0.850195
vt -2.369141 0.905396
vn -0.908109 -0.415366 -0.052992
v 2.038936 0.710857 0.850279
vt -2.375000 0.904541
vn -0.908251 -0.416102 -0.044037
v 2.054277 0.694400 0.847602
vt -2.380859 0.881531
vn -0.909637 -0.413096 -0.043724
v 2.059166 0.695818 0.847702
vt -2.386719 0.880737
vn -0.909637 -0.413096 -0.043724
v 2.074397 0.679203 0.843920
vt -2.394531 0.857178
vn -0.910987 -0.410144 -0.043413
v 2.079102 0.680626 0.844032
vt -2.398438 0.856445
vn -0.912323 -0.407196 -0.043102
v 2.094502 0.664325 0.838760
vt -2.406250 0.832520
vn -0.916323 -0.393837 -0.072426
v 2.098980 0.665800 0.838915
vt -2.412109 0.832031
vn -0.918965 -0.385222 -0.084303
v 2.114987 0.651487 0.830468
vt -2.421875 0.808838
vn -0.920031 -0.350460 -0.175274
v 2.119196 0.653060 0.830730
vt -2.427734 0.809082
vn -0.918643 -0.347846 -0.187345
v 2.135850 0.641765 0.818398
vt -2.441406 0.787109
vn -0.901734 -0.343522 -0.262427
v 2.139789 0.643433 0.818809
vt -2.445312 0.788086
vn -0.898605 -0.365044 -0.243416
v 2.156878 0.635295 0.802310
vt -2.462891 0.767456
vn -0.881895 -0.416089 -0.221656
v 2.160593 0.637019 0.802829
vt -2.468750 0.769043
vn -0.878757 -0.430383 -0.206289
v 2.175581 0.630409 0.785379
vt -2.486328 0.750000
vn -0.862963 -0.478476 -0.162345
v 2.179132 0.632132 0.785914
vt -2.490234 0.751831
vn -0.858673 -0.490664 -0.148086
v 2.193152 0.626395 0.766986
vt -2.509766 0.733154
vn -0.843280 -0.527028 -0.105455
v 2.196535 0.628131 0.767497
vt -2.513672 0.735352
vn -0.841202 -0.531264 -0.100683
v 2.209698 0.622620 0.748191
vt -2.533203 0.717041
vn -0.830064 -0.550702 -0.087869
v 2.212906 0.624385 0.748657
vt -2.535156 0.719482
vn -0.827951 -0.554591 -0.083224
v 2.222513 0.620564 0.733003
vt -2.552734 0.705566
vn -0.834013 -0.545460 -0.083040
v 2.222599 0.622240 0.736769
vt -2.550781 0.709717
vn -0.836128 -0.541484 -0.087669
v 2.208728 0.635558 0.741878
vt -2.546875 0.732910
vn -0.124164 -0.801843 0.584493
v 2.235069 0.629384 0.708627
vt -2.585938 0.705811
vn 0.218566 -0.811929 0.541294
v 2.211854 0.635185 0.742682
vt -2.544922 0.729248
vn -0.103212 -0.794534 0.598383
v 2.233938 0.629930 0.714590
vt -2.578125 0.707520
vn 0.269311 -0.818401 0.507633
v 2.177168 0.643208 0.777187
vt -2.501953 0.763916
vn -0.146581 -0.830519 0.537357
v 2.180524 0.642794 0.778155
vt -2.501953 0.760010
vn -0.150237 -0.821092 0.550669
v 2.196659 0.638679 0.760892
vt -2.523438 0.744141
vn -0.134196 -0.805016 0.577875
v 2.159586 0.648484 0.792872
vt -2.482422 0.781128
vn -0.123225 -0.871228 0.475160
v 2.163019 0.648098 0.793963
vt -2.482422 0.777100
vn -0.136015 -0.861307 0.489541
v 2.141042 0.655857 0.806062
vt -2.462891 0.800171
vn -0.047945 -0.898926 0.435468
v 2.144518 0.655533 0.807297
vt -2.462891 0.796143
vn -0.082703 -0.888897 0.450579
v 2.122041 0.666086 0.816133
vt -2.447266 0.821533
vn 0.072159 -0.941795 0.328351
v 2.125533 0.665870 0.817497
vt -2.447266 0.817505
vn 0.022816 -0.916548 0.399273
v 2.103331 0.679439 0.822533
vt -2.435547 0.845093
vn 0.153641 -0.965448 0.210488
v 2.106881 0.679333 0.823879
vt -2.433594 0.841187
vn 0.130626 -0.959143 0.250961
v 2.084907 0.694036 0.826800
vt -2.423828 0.869629
vn 0.170199 -0.972265 0.160417
v 2.088573 0.693982 0.828138
vt -2.423828 0.865601
vn 0.164335 -0.969696 0.180786
v 2.066395 0.708917 0.829593
vt -2.414062 0.894348
vn 0.150531 -0.978538 0.140727
v 2.070187 0.708916 0.830928
vt -2.412109 0.890137
vn 0.156608 -0.975683 0.153351
v 2.049328 0.722585 0.830982
vt -2.402344 0.916565
vn 0.047629 -0.980495 0.190683
v 2.053256 0.722631 0.832300
vt -2.400391 0.912476
vn 0.193531 -0.974199 0.116111
v 2.031840 0.735147 0.831769
vt -2.392578 0.934814
vn -0.227544 -0.835886 0.499519
v 2.033979 0.736922 0.833634
vt -2.390625 0.937317
vn 0.137336 0.884203 0.446458
v 2.033979 0.736922 0.833634
vt -2.390625 0.937317
vn -0.747066 -0.664066 0.030152
v 1.978584 0.752606 0.852008
vt -2.332031 0.970184
vn -0.746892 -0.663877 0.037684
v 2.355278 0.647406 0.489544
vt -2.925781 0.951843
vn -0.553127 -0.832990 0.013303
v 2.314213 0.670223 0.527124
vt -2.859375 0.958008
vn -0.554591 -0.831877 0.020241
v 2.355557 0.652295 0.479418
vt -2.931641 0.962677
vn -0.553127 -0.832990 0.013303
v 2.310239 0.677101 0.518978
vt -2.861328 0.970535
vn -0.554591 -0.831877 0.020241
v 2.275294 0.688349 0.569200
vt -2.792969 0.958313
vn -0.554443 -0.831653 0.030765
v 2.267560 0.697112 0.563835
vt -2.789062 0.971954
vn -0.554443 -0.831653 0.030765
v 2.239016 0.702567 0.614995
vt -2.726562 0.953705
vn -0.555895 -0.830375 0.038190
v 2.227854 0.713033 0.613008
vt -2.716797 0.967926
vn -0.559126 -0.828193 0.038398
v 2.203887 0.713906 0.662558
vt -2.660156 0.946289
vn -0.567174 -0.822699 0.038468
v 2.189384 0.725844 0.664079
vt -2.644531 0.960968
vn -0.570444 -0.820426 0.038675
v 2.373360 0.636292 0.473512
vt -2.955078 0.948120
vn -0.546681 -0.836907 0.026969
v 2.375165 0.640540 0.463335
vt -2.962891 0.957794
vn -0.500907 -0.865495 0.003156
v 2.085784 0.735160 0.796884
vt -2.460938 0.932251
vn -0.719866 -0.691424 -0.061041
v 2.057539 0.750033 0.805078
vt -2.431641 0.952637
vn -0.754426 -0.653585 -0.060572
v 2.189384 0.725844 0.664079
vt -2.644531 0.960968
vn -0.611975 -0.790467 0.025471
v 2.150354 0.736658 0.715186
vt -2.574219 0.953796
vn -0.629979 -0.776475 0.014593
v 2.185963 0.725646 0.663184
vt -2.644531 0.964478
vn -0.618300 -0.785640 0.021777
v 2.146536 0.736513 0.714253
vt -2.572266 0.957581
vn -0.636201 -0.771446 0.010931
v 2.107800 0.745130 0.763915
vt -2.501953 0.949646
vn -0.661103 -0.750258 -0.007469
v 2.103588 0.745103 0.762884
vt -2.500000 0.953674
vn -0.675892 -0.736648 -0.022800
v 2.057539 0.750033 0.805078
vt -2.431641 0.952637
vn -0.694542 -0.717924 -0.046874
v 2.052952 0.750119 0.803930
vt -2.427734 0.956970
vn -0.702076 -0.709957 -0.055234
v 2.353891 0.652189 0.478451
vt -2.931641 0.964783
vn -0.495878 -0.867781 0.032576
v 2.355557 0.652295 0.479418
vt -2.931641 0.962677
vn -0.493082 -0.869380 0.032373
v 2.308079 0.676900 0.518118
vt -2.859375 0.973007
vn -0.532809 -0.845818 0.026567
v 2.310239 0.677101 0.518978
vt -2.861328 0.970535
vn -0.522086 -0.852486 0.026358
v 2.267560 0.697112 0.563835
vt -2.789062 0.971954
vn -0.560783 -0.827512 0.027325
v 2.264944 0.696885 0.563003
vt -2.787109 0.974777
vn -0.567200 -0.823116 0.027630
v 2.227854 0.713033 0.613008
vt -2.716797 0.967926
vn -0.591753 -0.805618 0.028436
v 2.224834 0.712806 0.612140
vt -2.714844 0.971100
vn -0.595163 -0.803095 0.028631
v 2.201356 0.712590 0.662799
vt -2.658203 0.943390
vn -0.483937 -0.861950 0.151155
v 2.203887 0.713906 0.662558
vt -2.660156 0.946289
vn -0.480768 -0.863887 0.150205
v 2.236854 0.701248 0.615256
vt -2.724609 0.951111
vn -0.483893 -0.865122 0.131950
v 2.239016 0.702567 0.614995
vt -2.726562 0.953705
vn -0.492784 -0.862399 0.115895
v 2.275294 0.688349 0.569200
vt -2.792969 0.958313
vn -0.538039 -0.841537 0.048259
v 2.273484 0.687028 0.569484
vt -2.792969 0.956055
vn -0.522438 -0.849829 0.069636
v 2.314213 0.670223 0.527124
vt -2.859375 0.958008
vn -0.577887 -0.815861 -0.020435
v 2.312720 0.668929 0.527447
vt -2.859375 0.956024
vn -0.574822 -0.818250 -0.006814
v 2.354079 0.646169 0.489836
vt -2.925781 0.950043
vn -0.591307 -0.804736 -0.052495
v 2.355278 0.647406 0.489544
vt -2.925781 0.951843
vn -0.593459 -0.802920 -0.055911
v 2.168139 0.723430 0.710084
vt -2.593750 0.938690
vn -0.509931 -0.848619 0.140769
v 2.165214 0.722104 0.710289
vt -2.591797 0.935547
vn -0.532897 -0.837378 0.121733
v 2.130003 0.731053 0.756175
vt -2.527344 0.932922
vn -0.590994 -0.803116 0.075694
v 2.126611 0.729688 0.756296
vt -2.525391 0.929688
vn -0.648887 -0.760740 0.014846
v 2.085784 0.735160 0.796884
vt -2.460938 0.932251
vn -0.713618 -0.697589 -0.064185
v 2.081976 0.733850 0.796793
vt -2.457031 0.929260
vn -0.768313 -0.623449 -0.144935
v 2.375398 0.639433 0.461282
vt -2.964844 0.958862
vn -0.300359 -0.943444 0.140348
v 2.373270 0.634802 0.472790
vt -2.957031 0.946594
vn -0.367975 -0.912853 0.176903
v 2.130003 0.731053 0.756175
vt -2.527344 0.932922
vn -0.630845 -0.775875 0.007228
v 2.107800 0.745130 0.763915
vt -2.501953 0.949646
vn -0.683357 -0.729437 -0.030727
v 2.168139 0.723430 0.710084
vt -2.593750 0.938690
vn -0.585004 -0.810542 0.028133
v 2.150354 0.736658 0.715186
vt -2.574219 0.953796
vn -0.601540 -0.798452 0.024984
v 2.233938 0.629930 0.714590
vt -2.578125 0.707520
vn -0.506488 -0.645360 0.571821
v 2.235069 0.629384 0.708627
vt -2.585938 0.705811
vn -0.500049 -0.655814 0.565560
v 2.222599 0.622240 0.736769
vt -2.550781 0.709717
vn -0.476835 -0.689726 0.544891
v 2.222513 0.620564 0.733003
vt -2.552734 0.705566
vn -0.470227 -0.692517 0.547089
v 2.086297 0.732470 0.795312
vt -2.462891 0.926941
vn -0.690875 -0.721930 -0.038830
v 2.081976 0.733850 0.796793
vt -2.457031 0.929260
vn -0.690875 -0.721930 -0.038830
v 2.129981 0.728400 0.754886
vt -2.529297 0.927917
vn -0.635194 -0.772353 -0.000021
v 2.126611 0.729688 0.756296
vt -2.525391 0.929688
vn -0.679560 -0.732982 -0.030587
v 2.238442 0.700410 0.615279
vt -2.726562 0.949646
vn -0.573540 -0.818821 0.024143
v 2.203460 0.711580 0.662311
vt -2.660156 0.941925
vn -0.586392 -0.809757 0.020909
v 2.236854 0.701248 0.615256
vt -2.724609 0.951111
vn -0.576803 -0.816522 0.024292
v 2.201356 0.712590 0.662799
vt -2.658203 0.943390
vn -0.595963 -0.802822 0.017483
v 2.167848 0.720934 0.709267
vt -2.595703 0.934021
vn -0.602731 -0.797748 0.017680
v 2.165214 0.722104 0.710289
vt -2.591797 0.935547
vn -0.620332 -0.784307 0.007087
v 2.184072 0.727177 0.663627
vt -2.640625 0.966217
vn -0.570444 -0.820426 0.038675
v 2.223433 0.714135 0.612078
vt -2.714844 0.972763
vn -0.557426 -0.829175 0.041782
v 2.185963 0.725646 0.663184
vt -2.644531 0.964478
vn -0.567174 -0.822699 0.038468
v 2.224834 0.712806 0.612140
vt -2.714844 0.971100
vn -0.555895 -0.830375 0.038190
v 2.264032 0.697979 0.562479
vt -2.787109 0.976349
vn -0.557611 -0.829525 0.030965
v 2.264944 0.696885 0.563003
vt -2.787109 0.974777
vn -0.554443 -0.831653 0.030765
v 2.307700 0.677728 0.517230
vt -2.859375 0.974396
vn -0.562464 -0.826712 0.013506
v 2.308079 0.676900 0.518118
vt -2.859375 0.973007
vn -0.562464 -0.826712 0.013506
v 2.378383 0.638490 0.457496
vt -2.970703 0.960114
vn -0.549971 -0.834946 -0.019914
v 2.375398 0.639433 0.461282
vt -2.964844 0.958862
vn -0.557728 -0.829996 -0.006703
v 2.375670 0.640089 0.459701
vt -2.966797 0.960388
vn -0.558454 -0.829365 -0.016782
v 2.354127 0.652723 0.477312
vt -2.933594 0.965912
vn -0.567100 -0.823622 0.006717
v 2.353891 0.652189 0.478451
vt -2.931641 0.964783
vn -0.567100 -0.823622 0.006717
v 2.354091 0.645877 0.491182
vt -2.923828 0.948822
vn -0.540649 -0.841012 0.019954
v 2.313274 0.668448 0.528361
vt -2.859375 0.954742
vn -0.548417 -0.835965 0.020037
v 2.354079 0.646169 0.489836
vt -2.925781 0.950043
vn -0.537627 -0.842949 0.019852
v 2.312720 0.668929 0.527447
vt -2.859375 0.956024
vn -0.548417 -0.835965 0.020037
v 2.049328 0.722585 0.830982
vt -2.402344 0.916565
vn -0.711531 -0.605985 0.355676
v 2.031840 0.735147 0.831769
vt -2.392578 0.934814
vn -0.755679 -0.654675 0.018688
v 2.055228 0.721145 0.829133
vt -2.408203 0.912476
vn -0.766799 -0.618754 0.170772
v 2.039196 0.733823 0.829703
vt -2.398438 0.931091
vn -0.764619 -0.643034 -0.043192
v 2.238101 0.628740 0.704648
vt -2.589844 0.703125
vn -0.403328 -0.655430 0.638544
v 2.226121 0.620527 0.728960
vt -2.558594 0.703125
vn -0.463547 -0.695308 0.549246
v 2.235069 0.629384 0.708627
vt -2.585938 0.705811
vn -0.437516 -0.664653 0.605653
v 2.222513 0.620564 0.733003
vt -2.552734 0.705566
vn -0.463547 -0.695308 0.549246
v 2.144149 0.738218 0.715243
vt -2.568359 0.959351
vn -0.607847 -0.793765 0.021432
v 2.146536 0.736513 0.714253
vt -2.572266 0.957581
vn -0.583561 -0.811293 0.035511
v 2.100514 0.746892 0.764306
vt -2.496094 0.955688
vn -0.702598 -0.710489 -0.039521
v 2.103588 0.745103 0.762884
vt -2.500000 0.953674
vn -0.634419 -0.772955 0.007231
v 1.956900 0.755008 0.858209
vt -2.310547 0.982224
vn -0.750617 -0.660568 0.014950
v 2.048971 0.752006 0.805485
vt -2.423828 0.959717
vn -0.750682 -0.660622 0.007469
v 1.973992 0.751243 0.852447
vt -2.328125 0.973251
vn -0.750617 -0.660568 0.014950
v 2.052952 0.750119 0.803930
vt -2.427734 0.956970
vn -0.745246 -0.661501 -0.083813
v 2.375132 0.632956 0.472408
vt -2.958984 0.944946
vn -0.545143 -0.837681 -0.033299
v 2.373270 0.634802 0.472790
vt -2.957031 0.946594
vn -0.546366 -0.837540 -0.003281
v 2.274573 0.686364 0.569987
vt -2.792969 0.954651
vn -0.559251 -0.828655 0.023847
v 2.273484 0.687028 0.569484
vt -2.792969 0.956055
vn -0.562431 -0.826496 0.023996
v 2.374349 0.633448 0.473078
vt -2.957031 0.944977
vn -0.539305 -0.841878 -0.019774
v 2.236724 0.630743 0.705131
vt -2.589844 0.705322
vn -0.421886 -0.636976 0.645193
v 2.211113 0.636083 0.738641
vt -2.550781 0.731445
vn -0.444268 -0.641715 0.625161
v 2.208728 0.635558 0.741878
vt -2.546875 0.732910
vn -0.548800 -0.637557 0.540684
v 2.180200 0.643507 0.774038
vt -2.507812 0.761963
vn -0.569633 -0.641854 0.513362
v 2.177168 0.643208 0.777187
vt -2.501953 0.763916
vn -0.614666 -0.638655 0.462931
v 2.159586 0.648484 0.792872
vt -2.482422 0.781128
vn -0.634658 -0.626710 0.452154
v 2.163053 0.648629 0.789800
vt -2.486328 0.778809
vn -0.620051 -0.631945 0.464953
v 2.141042 0.655857 0.806062
vt -2.462891 0.800171
vn -0.661914 -0.622491 0.417582
v 2.144753 0.655726 0.803317
vt -2.468750 0.797607
vn -0.648016 -0.628222 0.430596
v 2.122041 0.666086 0.816133
vt -2.447266 0.821533
vn -0.676399 -0.625260 0.389275
v 2.125845 0.665678 0.813835
vt -2.453125 0.818848
vn -0.673691 -0.626701 0.391646
v 2.103331 0.679439 0.822533
vt -2.435547 0.845093
vn -0.702032 -0.624042 0.343107
v 2.107228 0.678900 0.820511
vt -2.439453 0.842407
vn -0.695396 -0.628961 0.347609
v 2.084907 0.694036 0.826800
vt -2.423828 0.869629
vn -0.721571 -0.624589 0.298703
v 2.088984 0.693450 0.824918
vt -2.429688 0.866821
vn -0.716143 -0.626603 0.307422
v 2.066395 0.708917 0.829593
vt -2.414062 0.894348
vn -0.744080 -0.621374 0.245438
v 2.070728 0.708386 0.827785
vt -2.417969 0.891602
vn -0.736700 -0.625467 0.257031
v 2.086297 0.732470 0.795312
vt -2.462891 0.926941
vn -0.741669 -0.668330 -0.057108
v 2.081976 0.733850 0.796793
vt -2.457031 0.929260
vn -0.741669 -0.668330 -0.057108
v 2.167733 0.316509 0.818925
vt -2.111328 0.526123
vn -0.850006 -0.497982 -0.171768
v 2.160527 0.323620 0.827383
vt -2.107422 0.540527
vn -0.870919 -0.489881 -0.038937
v 2.175421 0.320434 0.818292
vt -2.119141 0.530518
vn -0.865994 -0.491389 -0.092689
v 2.168272 0.327474 0.826978
vt -2.117188 0.540527
vn -0.882773 -0.468763 0.031206
v 2.152933 0.333708 0.836280
vt -2.107422 0.556641
vn -0.880947 -0.470363 -0.051880
v 2.161165 0.336885 0.835259
vt -2.117188 0.556641
vn -0.883322 -0.467407 -0.035689
v 2.160527 0.323620 0.827383
vt -2.107422 0.540527
vn -0.884021 -0.467301 -0.011710
v 2.168272 0.327474 0.826978
vt -2.117188 0.540527
vn -0.884655 -0.465836 0.019547
v 2.146468 0.344737 0.843460
vt -2.107422 0.572021
vn -0.883574 -0.452261 -0.121482
v 2.155525 0.347481 0.842257
vt -2.117188 0.572021
vn -0.885764 -0.451242 -0.108641
v 2.152933 0.333708 0.836280
vt -2.107422 0.556641
vn -0.885688 -0.455256 -0.091099
v 2.161165 0.336885 0.835259
vt -2.117188 0.556641
vn -0.884934 -0.460616 -0.068734
v 2.142585 0.356538 0.848433
vt -2.107422 0.587402
vn -0.890474 -0.425675 -0.160800
v 2.151315 0.359033 0.847495
vt -2.117188 0.587402
vn -0.890474 -0.425675 -0.160800
v 2.146468 0.344737 0.843460
vt -2.107422 0.572021
vn -0.890474 -0.425675 -0.160800
v 2.155525 0.347481 0.842257
vt -2.117188 0.572021
vn -0.890187 -0.427628 -0.157165
v 2.140137 0.368740 0.852042
vt -2.107422 0.601807
vn -0.888293 -0.368530 -0.274084
v 2.148408 0.370460 0.851219
vt -2.117188 0.601807
vn -0.891122 -0.387832 -0.235560
v 2.142585 0.356538 0.848433
vt -2.107422 0.587402
vn -0.893521 -0.392055 -0.218892
v 2.151315 0.359033 0.847495
vt -2.117188 0.587402
vn -0.895645 -0.403015 -0.188145
v 2.140137 0.368740 0.852042
vt -2.107422 0.601807
vn -0.888508 -0.347689 -0.299442
v 2.136631 0.389643 0.856446
vt -2.107422 0.625488
vn -0.891362 -0.360300 -0.275059
v 2.148408 0.370460 0.851219
vt -2.117188 0.601807
vn -0.890043 -0.354082 -0.287140
v 2.144914 0.391487 0.855742
vt -2.117188 0.625488
vn -0.891362 -0.360300 -0.275059
v 2.140339 0.437011 0.862454
vt -2.117188 0.677002
vn -0.889793 -0.322663 -0.322733
v 2.144914 0.391487 0.855742
vt -2.117188 0.625488
vn -0.893741 -0.338152 -0.294753
v 2.131577 0.435196 0.862963
vt -2.107422 0.677002
vn -0.892056 -0.331485 -0.307170
v 2.136631 0.389643 0.856446
vt -2.107422 0.625488
vn -0.893741 -0.338152 -0.294753
v 2.159881 0.311661 0.825540
vt -2.099609 0.528809
vn -0.626394 -0.562987 0.539144
v 2.155145 0.318204 0.831900
vt -2.099609 0.540527
vn -0.621604 -0.561863 0.545820
v 2.167733 0.316509 0.818925
vt -2.111328 0.526123
vn -0.626394 -0.562987 0.539144
v 2.160527 0.323620 0.827383
vt -2.107422 0.540527
vn -0.621634 -0.557879 0.549857
v 2.158372 0.312188 0.842704
vt -2.087891 0.540527
vn 0.216001 -0.536066 0.816074
v 2.155145 0.318204 0.831900
vt -2.099609 0.540527
vn 0.180749 -0.546537 0.817696
v 2.162010 0.305969 0.830556
vt -2.091797 0.524170
vn 0.173009 -0.552035 0.815675
v 2.159881 0.311661 0.825540
vt -2.099609 0.528809
vn 0.121073 -0.575319 0.808919
v 2.147825 0.328921 0.841242
vt -2.099609 0.556641
vn 0.232256 -0.610778 0.756972
v 2.149916 0.324742 0.851710
vt -2.087891 0.556641
vn 0.232397 -0.615451 0.753135
v 2.141720 0.340772 0.848141
vt -2.099609 0.572021
vn 0.232397 -0.615451 0.753135
v 2.144407 0.337388 0.857840
vt -2.087891 0.572021
vn 0.233871 -0.619440 0.749398
v 2.141720 0.340772 0.848141
vt -2.099609 0.572021
vn 0.350710 -0.675225 0.648902
v 2.144407 0.337388 0.857840
vt -2.087891 0.572021
vn 0.346971 -0.685085 0.640523
v 2.136680 0.353389 0.853218
vt -2.099609 0.587402
vn 0.348931 -0.689003 0.635234
v 2.140461 0.351191 0.862316
vt -2.087891 0.587402
vn 0.343004 -0.695054 0.631861
v 2.136680 0.353389 0.853218
vt -2.099609 0.587402
vn 0.429904 -0.725514 0.537413
v 2.140461 0.351191 0.862316
vt -2.087891 0.587402
vn 0.431956 -0.729014 0.530992
v 2.134175 0.366222 0.856801
vt -2.099609 0.601807
vn 0.434034 -0.732472 0.524499
v 2.137891 0.364343 0.865502
vt -2.087891 0.601807
vn 0.434034 -0.732472 0.524499
v 2.134175 0.366222 0.856801
vt -2.099609 0.601807
vn 0.476493 -0.741731 0.472006
v 2.137891 0.364343 0.865502
vt -2.087891 0.601807
vn 0.476493 -0.741731 0.472006
v 2.131012 0.387556 0.861032
vt -2.099609 0.625488
vn 0.469490 -0.744903 0.474024
v 2.135113 0.386003 0.869009
vt -2.087891 0.625488
vn 0.469490 -0.744903 0.474024
v 2.131012 0.387556 0.861032
vt -2.099609 0.625488
vn 0.550706 -0.747447 0.371545
v 2.135113 0.386003 0.869009
vt -2.087891 0.625488
vn 0.554264 -0.752221 0.356307
v 2.126022 0.434458 0.867401
vt -2.099609 0.677002
vn 0.566681 -0.786109 0.246790
v 2.130552 0.434410 0.874483
vt -2.087891 0.677002
vn 0.564370 -0.791080 0.235962
v 2.131012 0.387556 0.861032
vt -2.099609 0.625488
vn -0.728929 -0.656044 0.195624
v 2.126022 0.434458 0.867401
vt -2.099609 0.677002
vn -0.739855 -0.671211 0.045725
v 2.136631 0.389643 0.856446
vt -2.107422 0.625488
vn -0.731042 -0.657936 0.180826
v 2.131577 0.435196 0.862963
vt -2.107422 0.677002
vn -0.740278 -0.671609 0.030483
v 2.131012 0.387556 0.861032
vt -2.099609 0.625488
vn -0.726586 -0.657049 0.200899
v 2.136631 0.389643 0.856446
vt -2.107422 0.625488
vn -0.725437 -0.656011 0.208304
v 2.134175 0.366222 0.856801
vt -2.099609 0.601807
vn -0.725486 -0.652160 0.219905
v 2.140137 0.368740 0.852042
vt -2.107422 0.601807
vn -0.721731 -0.651874 0.232733
v 2.136680 0.353389 0.853218
vt -2.099609 0.587402
vn -0.682131 -0.646864 0.340976
v 2.142585 0.356538 0.848433
vt -2.107422 0.587402
vn -0.670792 -0.635282 0.382695
v 2.141720 0.340772 0.848141
vt -2.099609 0.572021
vn -0.659713 -0.620446 0.424059
v 2.146468 0.344737 0.843460
vt -2.107422 0.572021
vn -0.645571 -0.606236 0.464452
v 2.134175 0.366222 0.856801
vt -2.099609 0.601807
vn -0.721731 -0.651874 0.232733
v 2.140137 0.368740 0.852042
vt -2.107422 0.601807
vn -0.717638 -0.648206 0.254609
v 2.136680 0.353389 0.853218
vt -2.099609 0.587402
vn -0.713004 -0.643288 0.278938
v 2.142585 0.356538 0.848433
vt -2.107422 0.587402
vn -0.707881 -0.637875 0.303349
v 2.141720 0.340772 0.848141
vt -2.099609 0.572021
vn -0.612331 -0.608381 0.504900
v 2.146468 0.344737 0.843460
vt -2.107422 0.572021
vn -0.610104 -0.602198 0.514908
v 2.147825 0.328921 0.841242
vt -2.099609 0.556641
vn -0.600369 -0.592503 0.537120
v 2.152933 0.333708 0.836280
vt -2.107422 0.556641
vn -0.595514 -0.587591 0.547814
v 2.155145 0.318204 0.831900
vt -2.099609 0.540527
vn -0.590508 -0.558590 0.582476
v 2.147825 0.328921 0.841242
vt -2.099609 0.556641
vn -0.603481 -0.575643 0.551767
v 2.160527 0.323620 0.827383
vt -2.107422 0.540527
vn -0.595750 -0.567953 0.567900
v 2.152933 0.333708 0.836280
vt -2.107422 0.556641
vn -0.610797 -0.586997 0.531377
v 2.158372 0.312188 0.842704
vt -2.087891 0.540527
vn 0.259829 -0.564381 0.783558
v 2.149916 0.324742 0.851710
vt -2.087891 0.556641
vn 0.224274 -0.577380 0.785069
v 2.155145 0.318204 0.831900
vt -2.099609 0.540527
vn 0.230446 -0.567958 0.790138
v 2.147825 0.328921 0.841242
vt -2.099609 0.556641
vn 0.196094 -0.588378 0.784448
v 2.170468 0.309677 0.822562
vt -2.105469 0.518799
vn -0.497202 -0.605487 0.621430
v 2.177853 0.311611 0.823452
vt -2.109375 0.512207
vn -0.497202 -0.605487 0.621430
v 2.175088 0.309433 0.826090
vt -2.103516 0.512939
vn -0.497202 -0.605487 0.621430
v 2.170468 0.309677 0.822562
vt -2.105469 0.518799
vn -0.406426 -0.743519 0.531034
v 2.169654 0.308772 0.827704
vt -2.099609 0.517578
vn -0.406426 -0.743519 0.531034
v 2.163339 0.308394 0.829239
vt -2.095703 0.523682
vn -0.406426 -0.743519 0.531034
v 2.170468 0.309677 0.822562
vt -2.105469 0.518799
vn -0.368574 -0.601959 0.708378
v 2.163339 0.308394 0.829239
vt -2.095703 0.523682
vn -0.368574 -0.601959 0.708378
v 2.162111 0.311625 0.826286
vt -2.099609 0.526611
vn -0.368574 -0.601959 0.708378
v 2.170468 0.309677 0.822562
vt -2.105469 0.518799
vn -0.510459 -0.374370 0.774131
v 2.168555 0.315628 0.821182
vt -2.109375 0.523926
vn -0.510459 -0.374370 0.774131
v 2.173223 0.314712 0.821229
vt -2.111328 0.518799
vn -0.510459 -0.374370 0.774131
v 2.170468 0.309677 0.822562
vt -2.105469 0.518799
vn -0.479689 -0.459716 0.747369
v 2.177153 0.313331 0.821887
vt -2.111328 0.514160
vn -0.479689 -0.459716 0.747369
v 2.177853 0.311611 0.823452
vt -2.109375 0.512207
vn -0.479689 -0.459716 0.747369
v 2.170468 0.309677 0.822562
vt -2.105469 0.518799
vn -0.423715 -0.741444 0.520314
v 2.175088 0.309433 0.826090
vt -2.103516 0.512939
vn -0.423715 -0.741444 0.520314
v 2.169654 0.308772 0.827704
vt -2.099609 0.517578
vn -0.423715 -0.741444 0.520314
v 2.170468 0.309677 0.822562
vt -2.105469 0.518799
vn -0.523692 -0.535620 0.662464
v 2.162111 0.311625 0.826286
vt -2.099609 0.526611
vn -0.523692 -0.535620 0.662464
v 2.168555 0.315628 0.821182
vt -2.109375 0.523926
vn -0.523692 -0.535620 0.662464
v 2.177153 0.313331 0.821887
vt -2.111328 0.514160
vn -0.510459 -0.374370 0.774131
v 2.162010 0.305969 0.830556
vt -2.091797 0.524170
vn -0.265505 -0.367910 0.891150
v 2.163339 0.308394 0.829239
vt -2.095703 0.523682
vn -0.297546 -0.385320 0.873496
v 2.170236 0.306244 0.829156
vt -2.097656 0.515625
vn -0.382045 -0.428841 0.818619
v 2.169654 0.308772 0.827704
vt -2.099609 0.517578
vn -0.422673 -0.450070 0.786629
v 2.170236 0.306244 0.829156
vt -2.097656 0.515625
vn -0.440081 -0.487191 0.754303
v 2.169654 0.308772 0.827704
vt -2.099609 0.517578
vn -0.446812 -0.489912 0.748562
v 2.176652 0.307120 0.827133
vt -2.103516 0.510010
vn -0.456185 -0.495505 0.739168
v 2.175088 0.309433 0.826090
vt -2.103516 0.512939
vn -0.472015 -0.503491 0.723670
v 2.176652 0.307120 0.827133
vt -2.103516 0.510010
vn -0.490874 -0.558194 0.668926
v 2.175088 0.309433 0.826090
vt -2.103516 0.512939
vn -0.490874 -0.558194 0.668926
v 2.180669 0.310495 0.823085
vt -2.109375 0.509033
vn -0.499659 -0.563105 0.658220
v 2.177853 0.311611 0.823452
vt -2.109375 0.512207
vn -0.505775 -0.565024 0.651874
v 2.180669 0.310495 0.823085
vt -2.109375 0.509033
vn -0.412594 -0.606746 0.679430
v 2.177853 0.311611 0.823452
vt -2.109375 0.512207
vn -0.412594 -0.606746 0.679430
v 2.179226 0.314082 0.819818
vt -2.113281 0.512939
vn -0.412594 -0.606746 0.679430
v 2.177153 0.313331 0.821887
vt -2.111328 0.514160
vn -0.405703 -0.604479 0.685573
v 2.179226 0.314082 0.819818
vt -2.113281 0.512939
vn -0.396701 -0.628129 0.669389
v 2.177153 0.313331 0.821887
vt -2.111328 0.514160
vn -0.396701 -0.628129 0.669389
v 2.173843 0.316145 0.818763
vt -2.113281 0.519531
vn -0.396701 -0.628129 0.669389
v 2.173223 0.314712 0.821229
vt -2.111328 0.518799
vn -0.396701 -0.628129 0.669389
v 2.173843 0.316145 0.818763
vt -2.113281 0.519531
vn -0.389188 -0.651383 0.651331
v 2.173223 0.314712 0.821229
vt -2.111328 0.518799
vn -0.414726 -0.660182 0.626229
v 2.167733 0.316509 0.818925
vt -2.111328 0.526123
vn -0.455303 -0.670352 0.585941
v 2.168555 0.315628 0.821182
vt -2.109375 0.523926
vn -0.485379 -0.677824 0.552233
v 2.167733 0.316509 0.818925
vt -2.111328 0.526123
vn -0.530483 -0.626935 0.570561
v 2.168555 0.315628 0.821182
vt -2.109375 0.523926
vn -0.524788 -0.625702 0.577143
v 2.159881 0.311661 0.825540
vt -2.099609 0.528809
vn -0.508094 -0.625012 0.592622
v 2.162111 0.311625 0.826286
vt -2.099609 0.526611
vn -0.502107 -0.623600 0.599175
v 2.159881 0.311661 0.825540
vt -2.099609 0.528809
vn -0.331642 -0.404899 0.852098
v 2.162111 0.311625 0.826286
vt -2.099609 0.526611
vn -0.324157 -0.401364 0.856638
v 2.162010 0.305969 0.830556
vt -2.091797 0.524170
vn -0.305631 -0.393480 0.867043
v 2.163339 0.308394 0.829239
vt -2.095703 0.523682
vn -0.289205 -0.388126 0.875054
v 2.144325 0.388437 0.861395
vt -2.179688 0.250000
vn 0.682515 -0.723196 0.105646
v 2.139145 0.435003 0.867482
vt -2.179688 0.302246
vn 0.683044 -0.727827 0.060976
v 2.140413 0.388832 0.856990
vt -2.185547 0.250000
vn 0.683074 -0.723799 0.097589
v 2.135532 0.435081 0.863424
vt -2.185547 0.302246
vn 0.680885 -0.730136 0.057429
v 2.147485 0.367288 0.857304
vt -2.179688 0.225586
vn 0.661791 -0.732130 0.161301
v 2.143720 0.367812 0.852788
vt -2.185547 0.225586
vn 0.661791 -0.732130 0.161301
v 2.149863 0.354955 0.853910
vt -2.179688 0.210938
vn 0.662626 -0.733108 0.153230
v 2.146134 0.355459 0.849313
vt -2.185547 0.210938
vn 0.662626 -0.733108 0.153230
v 2.144325 0.388437 0.861395
vt -2.179688 0.250000
vn 0.671738 -0.729102 0.131066
v 2.140413 0.388832 0.856990
vt -2.185547 0.250000
vn 0.671738 -0.729102 0.131066
v 2.147485 0.367288 0.857304
vt -2.179688 0.225586
vn 0.673367 -0.726792 0.135461
v 2.143720 0.367812 0.852788
vt -2.185547 0.225586
vn 0.673367 -0.726792 0.135461
v 2.149863 0.354955 0.853910
vt -2.179688 0.210938
vn -0.772610 -0.605997 0.189319
v 2.143776 0.352115 0.857346
vt -2.171875 0.210938
vn -0.776164 -0.610367 0.158184
v 2.147485 0.367288 0.857304
vt -2.179688 0.225586
vn -0.778123 -0.613513 0.134636
v 2.141205 0.365100 0.861006
vt -2.171875 0.225586
vn -0.778803 -0.617801 0.108567
v 2.160387 0.331289 0.842361
vt -2.179688 0.179199
vn -0.760422 -0.550506 0.344530
v 2.154581 0.327138 0.844838
vt -2.171875 0.179199
vn -0.764449 -0.555600 0.326996
v 2.154330 0.342888 0.849108
vt -2.179688 0.195312
vn -0.767409 -0.563788 0.305330
v 2.148481 0.339124 0.852043
vt -2.171875 0.195312
vn -0.772457 -0.569592 0.280846
v 2.154330 0.342888 0.849108
vt -2.179688 0.195312
vn 0.638976 -0.739947 0.210211
v 2.150691 0.343443 0.844451
vt -2.185547 0.195312
vn 0.638976 -0.739947 0.210211
v 2.160387 0.331289 0.842361
vt -2.179688 0.179199
vn 0.640397 -0.737364 0.214908
v 2.156854 0.332049 0.837655
vt -2.185547 0.179199
vn 0.643902 -0.735988 0.209073
v 2.148481 0.339124 0.852043
vt -2.171875 0.195312
vn -0.758094 -0.574475 0.308662
v 2.143776 0.352115 0.857346
vt -2.171875 0.210938
vn -0.774198 -0.594067 0.218408
v 2.154330 0.342888 0.849108
vt -2.179688 0.195312
vn -0.766276 -0.584402 0.267011
v 2.149863 0.354955 0.853910
vt -2.179688 0.210938
vn -0.779025 -0.601297 0.177657
v 2.164183 0.321761 0.828677
vt -2.185547 0.162109
vn 0.637729 -0.724725 0.260913
v 2.167696 0.320654 0.833300
vt -2.179688 0.162109
vn 0.631384 -0.726945 0.270011
v 2.156854 0.332049 0.837655
vt -2.185547 0.179199
vn 0.625245 -0.735159 0.261936
v 2.160387 0.331289 0.842361
vt -2.179688 0.179199
vn 0.622633 -0.736271 0.265016
v 2.149863 0.354955 0.853910
vt -2.179688 0.210938
vn 0.652961 -0.736710 0.175787
v 2.146134 0.355459 0.849313
vt -2.185547 0.210938
vn 0.652961 -0.736710 0.175787
v 2.154330 0.342888 0.849108
vt -2.179688 0.195312
vn 0.652961 -0.736710 0.175787
v 2.150691 0.343443 0.844451
vt -2.185547 0.195312
vn 0.652961 -0.736710 0.175787
v 2.167696 0.320654 0.833300
vt -2.179688 0.162109
vn -0.761706 -0.511908 0.397182
v 2.162075 0.315913 0.835185
vt -2.171875 0.162109
vn -0.766305 -0.521739 0.374919
v 2.160387 0.331289 0.842361
vt -2.179688 0.179199
vn -0.772407 -0.537498 0.338354
v 2.154581 0.327138 0.844838
vt -2.171875 0.179199
vn -0.775619 -0.546086 0.316552
v 2.177789 0.307641 0.820306
vt -2.179688 0.139648
vn -0.759198 -0.503380 0.412586
v 2.162075 0.315913 0.835185
vt -2.171875 0.162109
vn -0.764558 -0.509714 0.394515
v 2.172481 0.302932 0.822089
vt -2.171875 0.139648
vn -0.759198 -0.503380 0.412586
v 2.164183 0.321761 0.828677
vt -2.185547 0.162109
vn 0.602906 -0.720176 0.343294
v 2.174795 0.308942 0.815794
vt -2.185547 0.139648
vn 0.597525 -0.723799 0.345079
v 2.167696 0.320654 0.833300
vt -2.179688 0.162109
vn 0.602906 -0.720176 0.343294
v 2.177789 0.307641 0.820306
vt -2.179688 0.139648
vn 0.599253 -0.725908 0.337570
v 2.144325 0.388437 0.861395
vt -2.179688 0.250000
vn -0.777117 -0.625420 0.070275
v 2.147485 0.367288 0.857304
vt -2.179688 0.225586
vn -0.775195 -0.622412 0.108051
v 2.138150 0.386617 0.865251
vt -2.171875 0.250000
vn -0.777354 -0.624155 0.078429
v 2.141205 0.365100 0.861006
vt -2.171875 0.225586
vn -0.776673 -0.619870 0.111986
v 2.133538 0.434215 0.871315
vt -2.171875 0.302246
vn -0.772226 -0.634609 -0.030642
v 2.139145 0.435003 0.867482
vt -2.179688 0.302246
vn -0.771190 -0.636428 -0.015000
v 2.138150 0.386617 0.865251
vt -2.171875 0.250000
vn -0.768681 -0.634347 0.082055
v 2.144325 0.388437 0.861395
vt -2.179688 0.250000
vn -0.770253 -0.631920 0.085947
usemtl Lighting
f 3/3/3 2/2/2 1/1/1
f 4/4/4 2/2/2 3/3/3
f 4/4/4 5/5/5 2/2/2
f 6/6/6 5/5/5 4/4/4
f 6/6/6 7/7/7 5/5/5
f 8/8/8 7/7/7 6/6/6
f 8/8/8 9/9/9 7/7/7
f 10/10/10 9/9/9 8/8/8
f 10/10/10 11/11/11 9/9/9
f 12/12/12 11/11/11 10/10/10
f 12/12/12 13/13/13 11/11/11
f 14/14/14 13/13/13 12/12/12
f 14/14/14 15/15/15 13/13/13
f 16/16/16 15/15/15 14/14/14
f 16/16/16 17/17/17 15/15/15
f 18/18/18 17/17/17 16/16/16
f 18/18/18 19/19/19 17/17/17
f 20/20/20 19/19/19 18/18/18
f 20/20/20 21/21/21 19/19/19
f 22/22/22 21/21/21 20/20/20
f 23/23/23 21/21/21 22/22/22
f 26/26/26 25/25/25 24/24/24
f 27/27/27 25/25/25 26/26/26
f 29/29/29 24/24/24 28/28/28
f 26/26/26 24/24/24 29/29/29
f 31/31/31 28/28/28 30/30/30
f 29/29/29 28/28/28 31/31/31
f 33/33/33 30/30/30 32/32/32
f 31/31/31 30/30/30 33/33/33
f 35/35/35 32/32/32 34/34/34
f 33/33/33 32/32/32 35/35/35
f 37/37/37 34/34/34 36/36/36
f 35/35/35 34/34/34 37/37/37
f 39/39/39 36/36/36 38/38/38
f 37/37/37 36/36/36 39/39/39
f 41/41/41 38/38/38 40/40/40
f 39/39/39 38/38/38 41/41/41
f 43/43/43 40/40/40 42/42/42
f 41/41/41 40/40/40 43/43/43
f 45/45/45 42/42/42 44/44/44
f 43/43/43 42/42/42 45/45/45
f 47/47/47 44/44/44 46/46/46
f 45/45/45 44/44/44 47/47/47
f 49/49/49 46/46/46 48/48/48
f 47/47/47 46/46/46 49/49/49
f 52/52/52 51/51/51 50/50/50
f 53/53/53 51/51/51 52/52/52
f 54/54/54 53/53/53 52/52/52
f 55/55/55 53/53/53 54/54/54
f 56/56/56 53/53/53 55/55/55
f 58/58/58 55/55/55 57/57/57
f 56/56/56 55/55/55 58/58/58
f 60/60/60 57/57/57 59/59/59
f 58/58/58 57/57/57 60/60/60
f 62/62/62 59/59/59 61/61/61
f 60/60/60 59/59/59 62/62/62
f 64/64/64 61/61/61 63/63/63
f 62/62/62 61/61/61 64/64/64
f 66/66/66 63/63/63 65/65/65
f 64/64/64 63/63/63 66/66/66
f 68/68/68 65/65/65 67/67/67
f 66/66/66 65/65/65 68/68/68
f 70/70/70 67/67/67 69/69/69
f 68/68/68 67/67/67 70/70/70
f 72/72/72 69/69/69 71/71/71
f 70/70/70 69/69/69 72/72/72
f 74/74/74 1/1/1 73/73/73
f 3/3/3 1/1/1 74/74/74
f 77/77/77 76/76/76 75/75/75
f 78/78/78 76/76/76 77/77/77
f 76/76/76 79/79/79 75/75/75
f 80/80/80 79/79/79 76/76/76
f 80/80/80 81/81/81 79/79/79
f 82/82/82 81/81/81 80/80/80
f 81/81/81 84/84/84 83/83/83
f 82/82/82 84/84/84 81/81/81
f 86/86/86 77/77/77 85/85/85
f 78/78/78 77/77/77 86/86/86
f 87/87/87 74/74/74 73/73/73
f 88/88/88 74/74/74 87/87/87
f 91/91/91 90/90/90 89/89/89
f 92/92/92 90/90/90 91/91/91
f 89/89/89 94/94/94 93/93/93
f 90/90/90 94/94/94 89/89/89
f 97/97/97 96/96/96 95/95/95
f 98/98/98 96/96/96 97/97/97
f 93/93/93 97/97/97 95/95/95
f 94/94/94 97/97/97 93/93/93
f 101/101/101 100/100/100 99/99/99
f 102/102/102 100/100/100 101/101/101
f 99/99/99 103/103/103 101/101/101
f 104/104/104 103/103/103 99/99/99
f 104/104/104 105/105/105 103/103/103
f 106/106/106 105/105/105 104/104/104
f 106/106/106 91/91/91 105/105/105
f 92/92/92 91/91/91 106/106/106
f 109/109/109 108/108/108 107/107/107
f 110/110/110 108/108/108 109/109/109
f 107/107/107 111/111/111 109/109/109
f 112/112/112 111/111/111 107/107/107
f 112/112/112 113/113/113 111/111/111
f 114/114/114 113/113/113 112/112/112
f 116/116/116 114/114/114 115/115/115
f 113/113/113 114/114/114 116/116/116
f 118/118/118 110/110/110 117/117/117
f 108/108/108 110/110/110 118/118/118
f 120/120/120 117/117/117 119/119/119
f 118/118/118 117/117/117 120/120/120
f 72/72/72 122/122/122 121/121/121
f 71/71/71 122/122/122 72/72/72
f 122/122/122 119/119/119 121/121/121
f 120/120/120 119/119/119 122/122/122
f 102/102/102 85/85/85 100/100/100
f 123/123/123 85/85/85 102/102/102
f 124/124/124 115/115/115 86/86/86
f 116/116/116 115/115/115 124/124/124
f 126/126/126 87/87/87 125/125/125
f 88/88/88 87/87/87 126/126/126
f 84/84/84 127/127/127 83/83/83
f 128/128/128 127/127/127 84/84/84
f 128/128/128 125/125/125 127/127/127
f 126/126/126 125/125/125 128/128/128
f 131/131/131 130/130/130 129/129/129
f 132/132/132 130/130/130 131/131/131
f 123/123/123 86/86/86 85/85/85
f 124/124/124 86/86/86 123/123/123
f 135/135/135 134/134/134 133/133/133
f 136/136/136 134/134/134 135/135/135
f 139/139/139 138/138/138 137/137/137
f 140/140/140 138/138/138 139/139/139
f 138/138/138 141/141/141 137/137/137
f 142/142/142 141/141/141 138/138/138
f 142/142/142 133/133/133 141/141/141
f 135/135/135 133/133/133 142/142/142
f 145/145/145 144/144/144 143/143/143
f 146/146/146 144/144/144 145/145/145
f 144/144/144 147/147/147 143/143/143
f 148/148/148 147/147/147 144/144/144
f 148/148/148 149/149/149 147/147/147
f 150/150/150 149/149/149 148/148/148
f 153/153/153 152/152/152 151/151/151
f 149/149/149 155/155/155 154/154/154
f 150/150/150 155/155/155 149/149/149
f 158/158/158 157/157/157 156/156/156
f 159/159/159 157/157/157 158/158/158
f 162/162/162 161/161/161 160/160/160
f 163/163/163 161/161/161 162/162/162
f 166/166/166 165/165/165 164/164/164
f 167/167/167 165/165/165 166/166/166
f 169/169/169 145/145/145 168/168/168
f 146/146/146 145/145/145 169/169/169
f 171/171/171 168/168/168 170/170/170
f 169/169/169 168/168/168 171/171/171
f 174/174/174 173/173/173 172/172/172
f 175/175/175 173/173/173 174/174/174
f 173/173/173 170/170/170 172/172/172
f 171/171/171 170/170/170 173/173/173
f 153/153/153 176/176/176 152/152/152
f 177/177/177 176/176/176 153/153/153
f 178/178/178 140/140/140 139/139/139
f 179/179/179 140/140/140 178/178/178
f 156/156/156 179/179/179 178/178/178
f 157/157/157 179/179/179 156/156/156
f 177/177/177 180/180/180 176/176/176
f 166/166/166 181/181/181 167/167/167
f 183/183/183 166/166/166 182/182/182
f 181/181/181 166/166/166 183/183/183
f 184/184/184 183/183/183 182/182/182
f 185/185/185 183/183/183 184/184/184
f 184/184/184 186/186/186 185/185/185
f 187/187/187 186/186/186 184/184/184
f 187/187/187 188/188/188 186/186/186
f 189/189/189 188/188/188 187/187/187
f 189/189/189 190/190/190 188/188/188
f 191/191/191 190/190/190 189/189/189
f 191/191/191 192/192/192 190/190/190
f 193/193/193 192/192/192 191/191/191
f 193/193/193 194/194/194 192/192/192
f 195/195/195 194/194/194 193/193/193
f 195/195/195 196/196/196 194/194/194
f 197/197/197 196/196/196 195/195/195
f 197/197/197 162/162/162 196/196/196
f 163/163/163 162/162/162 197/197/197
f 198/198/198 160/160/160 161/161/161
f 199/199/199 160/160/160 198/198/198
f 176/176/176 159/159/159 158/158/158
f 180/180/180 159/159/159 176/176/176
f 151/151/151 154/154/154 155/155/155
f 152/152/152 154/154/154 151/151/151
f 202/202/202 201/201/201 200/200/200
f 203/203/203 201/201/201 202/202/202
f 206/206/206 205/205/205 204/204/204
f 207/207/207 205/205/205 206/206/206
f 210/210/210 209/209/209 208/208/208
f 211/211/211 209/209/209 210/210/210
f 214/214/214 213/213/213 212/212/212
f 215/215/215 213/213/213 214/214/214
f 218/218/218 217/217/217 216/216/216
f 219/219/219 217/217/217 218/218/218
f 222/222/222 221/221/221 220/220/220
f 223/223/223 221/221/221 222/222/222
f 226/226/226 225/225/225 224/224/224
f 227/227/227 225/225/225 226/226/226
f 230/230/230 229/229/229 228/228/228
f 231/231/231 229/229/229 230/230/230
f 234/234/234 233/233/233 232/232/232
f 235/235/235 233/233/233 234/234/234
f 238/238/238 237/237/237 236/236/236
f 239/239/239 237/237/237 238/238/238
f 242/242/242 241/241/241 240/240/240
f 243/243/243 241/241/241 242/242/242
f 246/246/246 245/245/245 244/244/244
f 247/247/247 245/245/245 246/246/246
f 250/250/250 249/249/249 248/248/248
f 251/251/251 249/249/249 250/250/250
f 254/254/254 253/253/253 252/252/252
f 255/255/255 253/253/253 254/254/254
f 258/258/258 257/257/257 256/256/256
f 259/259/259 257/257/257 258/258/258
f 262/262/262 261/261/261 260/260/260
f 263/263/263 261/261/261 262/262/262
f 266/266/266 265/265/265 264/264/264
f 267/267/267 265/265/265 266/266/266
f 270/270/270 269/269/269 268/268/268
f 271/271/271 269/269/269 270/270/270
f 274/274/274 273/273/273 272/272/272
f 275/275/275 273/273/273 274/274/274
f 278/278/278 277/277/277 276/276/276
f 279/279/279 277/277/277 278/278/278
f 282/282/282 281/281/281 280/280/280
f 283/283/283 281/281/281 282/282/282
f 286/286/286 285/285/285 284/284/284
f 289/289/289 288/288/288 287/287/287
f 292/292/292 291/291/291 290/290/290
f 295/295/295 294/294/294 293/293/293
f 298/298/298 297/297/297 296/296/296
f 301/301/301 300/300/300 299/299/299
f 304/304/304 303/303/303 302/302/302
f 295/295/295 293/293/293 305/305/305
f 308/308/308 307/307/307 306/306/306
f 309/309/309 307/307/307 308/308/308
f 312/312/312 311/311/311 310/310/310
f 313/313/313 311/311/311 312/312/312
f 316/316/316 315/315/315 314/314/314
f 317/317/317 315/315/315 316/316/316
f 320/320/320 319/319/319 318/318/318
f 321/321/321 319/319/319 320/320/320
f 324/324/324 323/323/323 322/322/322
f 325/325/325 323/323/323 324/324/324
f 328/328/328 327/327/327 326/326/326
f 329/329/329 327/327/327 328/328/328
f 332/332/332 331/331/331 330/330/330
f 333/333/333 331/331/331 332/332/332
f 336/336/336 335/335/335 334/334/334
f 337/337/337 335/335/335 336/336/336
f 340/340/340 339/339/339 338/338/338
f 341/341/341 339/339/339 340/340/340
f 344/344/344 343/343/343 342/342/342
f 345/345/345 343/343/343 344/344/344
f 348/348/348 347/347/347 346/346/346
f 349/349/349 347/347/347 348/348/348
f 352/352/352 351/351/351 350/350/350
f 353/353/353 351/351/351 352/352/352
f 356/356/356 355/355/355 354/354/354
f 357/357/357 355/355/355 356/356/356
f 360/360/360 359/359/359 358/358/358
f 361/361/361 359/359/359 360/360/360
f 364/364/364 363/363/363 362/362/362
f 365/365/365 363/363/363 364/364/364
f 368/368/368 367/367/367 366/366/366
f 369/369/369 367/367/367 368/368/368
f 372/372/372 371/371/371 370/370/370
f 373/373/373 371/371/371 372/372/372
f 376/376/376 375/375/375 374/374/374
f 377/377/377 375/375/375 376/376/376
f 380/380/380 379/379/379 378/378/378
f 377/377/377 379/379/379 380/380/380
f 383/383/383 382/382/382 381/381/381
f 384/384/384 382/382/382 383/383/383
f 387/387/387 386/386/386 385/385/385
f 388/388/388 386/386/386 387/387/387
f 391/391/391 390/390/390 389/389/389
f 392/392/392 390/390/390 391/391/391
f 395/395/395 394/394/394 393/393/393
f 396/396/396 394/394/394 395/395/395
f 393/393/393 398/398/398 397/397/397
f 394/394/394 398/398/398 393/393/393
f 397/397/397 400/400/400 399/399/399
f 398/398/398 400/400/400 397/397/397
f 399/399/399 402/402/402 401/401/401
f 400/400/400 402/402/402 399/399/399
f 401/401/401 404/404/404 403/403/403
f 402/402/402 404/404/404 401/401/401
f 403/403/403 406/406/406 405/405/405
f 404/404/404 406/406/406 403/403/403
f 405/405/405 408/408/408 407/407/407
f 406/406/406 408/408/408 405/405/405
f 407/407/407 410/410/410 409/409/409
f 408/408/408 410/410/410 407/407/407
f 409/409/409 412/412/412 411/411/411
f 410/410/410 412/412/412 409/409/409
f 415/415/415 414/414/414 413/413/413
f 411/411/411 414/414/414 415/415/415
f 412/412/412 414/414/414 411/411/411
f 418/418/418 417/417/417 416/416/416
f 419/419/419 417/417/417 418/418/418
f 420/420/420 419/419/419 418/418/418
f 421/421/421 419/419/419 420/420/420
f 422/422/422 421/421/421 420/420/420
f 423/423/423 421/421/421 422/422/422
f 424/424/424 423/423/423 422/422/422
f 425/425/425 423/423/423 424/424/424
f 426/426/426 425/425/425 424/424/424
f 427/427/427 425/425/425 426/426/426
f 428/428/428 427/427/427 426/426/426
f 429/429/429 427/427/427 428/428/428
f 430/430/430 429/429/429 428/428/428
f 431/431/431 429/429/429 430/430/430
f 432/432/432 431/431/431 430/430/430
f 433/433/433 431/431/431 432/432/432
f 434/434/434 433/433/433 432/432/432
f 435/435/435 433/433/433 434/434/434
f 436/436/436 435/435/435 434/434/434
f 437/437/437 435/435/435 436/436/436
f 438/438/438 437/437/437 436/436/436
f 439/439/439 437/437/437 438/438/438
f 440/440/440 439/439/439 438/438/438
f 441/441/441 439/439/439 440/440/440
f 444/444/444 443/443/443 442/442/442
f 445/445/445 443/443/443 444/444/444
f 447/447/447 442/442/442 446/446/446
f 448/448/448 442/442/442 447/447/447
f 444/444/444 442/442/442 448/448/448
f 449/449/449 447/447/447 446/446/446
f 450/450/450 447/447/447 449/449/449
f 451/451/451 450/450/450 449/449/449
f 452/452/452 450/450/450 451/451/451
f 453/453/453 452/452/452 451/451/451
f 454/454/454 452/452/452 453/453/453
f 455/455/455 454/454/454 453/453/453
f 456/456/456 454/454/454 455/455/455
f 457/457/457 456/456/456 455/455/455
f 458/458/458 456/456/456 457/457/457
f 459/459/459 458/458/458 457/457/457
f 460/460/460 458/458/458 459/459/459
f 461/461/461 460/460/460 459/459/459
f 462/462/462 460/460/460 461/461/461
f 463/463/463 462/462/462 461/461/461
f 464/464/464 462/462/462 463/463/463
f 465/465/465 396/396/396 395/395/395
f 466/466/466 396/396/396 465/465/465
f 469/469/469 468/468/468 467/467/467
f 470/470/470 468/468/468 469/469/469
f 468/468/468 472/472/472 471/471/471
f 470/470/470 472/472/472 468/468/468
f 471/471/471 474/474/474 473/473/473
f 472/472/472 474/474/474 471/471/471
f 474/474/474 475/475/475 473/473/473
f 476/476/476 475/475/475 474/474/474
f 477/477/477 469/469/469 467/467/467
f 478/478/478 469/469/469 477/477/477
f 480/480/480 465/465/465 479/479/479
f 466/466/466 465/465/465 480/480/480
f 483/483/483 482/482/482 481/481/481
f 484/484/484 482/482/482 483/483/483
f 484/484/484 485/485/485 482/482/482
f 486/486/486 485/485/485 484/484/484
f 487/487/487 416/416/416 417/417/417
f 488/488/488 416/416/416 487/487/487
f 486/486/486 487/487/487 485/485/485
f 488/488/488 487/487/487 486/486/486
f 491/491/491 490/490/490 489/489/489
f 492/492/492 490/490/490 491/491/491
f 492/492/492 494/494/494 493/493/493
f 491/491/491 494/494/494 492/492/492
f 493/493/493 496/496/496 495/495/495
f 494/494/494 496/496/496 493/493/493
f 495/495/495 483/483/483 481/481/481
f 496/496/496 483/483/483 495/495/495
f 499/499/499 498/498/498 497/497/497
f 500/500/500 498/498/498 499/499/499
f 500/500/500 502/502/502 501/501/501
f 499/499/499 502/502/502 500/500/500
f 501/501/501 504/504/504 503/503/503
f 502/502/502 504/504/504 501/501/501
f 505/505/505 503/503/503 504/504/504
f 506/506/506 503/503/503 505/505/505
f 507/507/507 497/497/497 498/498/498
f 508/508/508 497/497/497 507/507/507
f 509/509/509 508/508/508 507/507/507
f 510/510/510 508/508/508 509/509/509
f 463/463/463 511/511/511 464/464/464
f 512/512/512 511/511/511 463/463/463
f 511/511/511 510/510/510 509/509/509
f 512/512/512 510/510/510 511/511/511
f 489/489/489 478/478/478 513/513/513
f 490/490/490 478/478/478 489/489/489
f 514/514/514 506/506/506 505/505/505
f 477/477/477 506/506/506 514/514/514
f 515/515/515 480/480/480 479/479/479
f 516/516/516 480/480/480 515/515/515
f 475/475/475 518/518/518 517/517/517
f 476/476/476 518/518/518 475/475/475
f 517/517/517 516/516/516 515/515/515
f 518/518/518 516/516/516 517/517/517
f 521/521/521 520/520/520 519/519/519
f 522/522/522 520/520/520 521/521/521
f 513/513/513 477/477/477 514/514/514
f 478/478/478 477/477/477 513/513/513
f 525/525/525 524/524/524 523/523/523
f 526/526/526 524/524/524 525/525/525
f 529/529/529 528/528/528 527/527/527
f 530/530/530 528/528/528 529/529/529
f 528/528/528 532/532/532 531/531/531
f 530/530/530 532/532/532 528/528/528
f 531/531/531 526/526/526 525/525/525
f 532/532/532 526/526/526 531/531/531
f 535/535/535 534/534/534 533/533/533
f 536/536/536 534/534/534 535/535/535
f 534/534/534 538/538/538 537/537/537
f 536/536/536 538/538/538 534/534/534
f 537/537/537 540/540/540 539/539/539
f 538/538/538 540/540/540 537/537/537
f 543/543/543 542/542/542 541/541/541
f 540/540/540 544/544/544 539/539/539
f 545/545/545 544/544/544 540/540/540
f 548/548/548 547/547/547 546/546/546
f 549/549/549 547/547/547 548/548/548
f 552/552/552 551/551/551 550/550/550
f 553/553/553 551/551/551 552/552/552
f 556/556/556 555/555/555 554/554/554
f 557/557/557 555/555/555 556/556/556
f 558/558/558 535/535/535 533/533/533
f 559/559/559 535/535/535 558/558/558
f 560/560/560 559/559/559 558/558/558
f 561/561/561 559/559/559 560/560/560
f 564/564/564 563/563/563 562/562/562
f 565/565/565 563/563/563 564/564/564
f 563/563/563 561/561/561 560/560/560
f 565/565/565 561/561/561 563/563/563
f 541/541/541 567/567/567 566/566/566
f 542/542/542 567/567/567 541/541/541
f 569/569/569 527/527/527 568/568/568
f 529/529/529 527/527/527 569/569/569
f 549/549/549 568/568/568 547/547/547
f 569/569/569 568/568/568 549/549/549
f 567/567/567 570/570/570 566/566/566
f 554/554/554 571/571/571 556/556/556
f 572/572/572 556/556/556 571/571/571
f 573/573/573 556/556/556 572/572/572
f 575/575/575 572/572/572 574/574/574
f 573/573/573 572/572/572 575/575/575
f 575/575/575 577/577/577 576/576/576
f 574/574/574 577/577/577 575/575/575
f 576/576/576 579/579/579 578/578/578
f 577/577/577 579/579/579 576/576/576
f 578/578/578 581/581/581 580/580/580
f 579/579/579 581/581/581 578/578/578
f 580/580/580 583/583/583 582/582/582
f 581/581/581 583/583/583 580/580/580
f 582/582/582 585/585/585 584/584/584
f 583/583/583 585/585/585 582/582/582
f 584/584/584 587/587/587 586/586/586
f 585/585/585 587/587/587 584/584/584
f 586/586/586 552/552/552 550/550/550
f 587/587/587 552/552/552 586/586/586
f 589/589/589 553/553/553 588/588/588
f 551/551/551 553/553/553 589/589/589
f 567/567/567 546/546/546 570/570/570
f 548/548/548 546/546/546 567/567/567
f 543/543/543 545/545/545 542/542/542
f 544/544/544 545/545/545 543/543/543
f 592/592/592 591/591/591 590/590/590
f 593/593/593 591/591/591 592/592/592
f 596/596/596 595/595/595 594/594/594
f 597/597/597 595/595/595 596/596/596
f 600/600/600 599/599/599 598/598/598
f 601/601/601 599/599/599 600/600/600
f 604/604/604 603/603/603 602/602/602
f 605/605/605 603/603/603 604/604/604
f 608/608/608 607/607/607 606/606/606
f 609/609/609 607/607/607 608/608/608
f 612/612/612 611/611/611 610/610/610
f 613/613/613 611/611/611 612/612/612
f 616/616/616 615/615/615 614/614/614
f 617/617/617 615/615/615 616/616/616
f 620/620/620 619/619/619 618/618/618
f 621/621/621 619/619/619 620/620/620
f 624/624/624 623/623/623 622/622/622
f 625/625/625 623/623/623 624/624/624
f 628/628/628 627/627/627 626/626/626
f 629/629/629 627/627/627 628/628/628
f 632/632/632 631/631/631 630/630/630
f 633/633/633 631/631/631 632/632/632
f 636/636/636 635/635/635 634/634/634
f 637/637/637 635/635/635 636/636/636
f 640/640/640 639/639/639 638/638/638
f 641/641/641 639/639/639 640/640/640
f 644/644/644 643/643/643 642/642/642
f 645/645/645 643/643/643 644/644/644
f 648/648/648 647/647/647 646/646/646
f 649/649/649 647/647/647 648/648/648
f 652/652/652 651/651/651 650/650/650
f 653/653/653 651/651/651 652/652/652
f 656/656/656 655/655/655 654/654/654
f 657/657/657 655/655/655 656/656/656
f 660/660/660 659/659/659 658/658/658
f 661/661/661 659/659/659 660/660/660
f 664/664/664 663/663/663 662/662/662
f 665/665/665 663/663/663 664/664/664
f 668/668/668 667/667/667 666/666/666
f 669/669/669 667/667/667 668/668/668
f 672/672/672 671/671/671 670/670/670
f 673/673/673 671/671/671 672/672/672
f 676/676/676 675/675/675 674/674/674
f 679/679/679 678/678/678 677/677/677
f 682/682/682 681/681/681 680/680/680
f 685/685/685 684/684/684 683/683/683
f 688/688/688 687/687/687 686/686/686
f 691/691/691 690/690/690 689/689/689
f 694/694/694 693/693/693 692/692/692
f 695/695/695 685/685/685 683/683/683
f 698/698/698 697/697/697 696/696/696
f 699/699/699 697/697/697 698/698/698
f 702/702/702 701/701/701 700/700/700
f 703/703/703 701/701/701 702/702/702
f 706/706/706 705/705/705 704/704/704
f 707/707/707 705/705/705 706/706/706
f 710/710/710 709/709/709 708/708/708
f 711/711/711 709/709/709 710/710/710
f 714/714/714 713/713/713 712/712/712
f 715/715/715 713/713/713 714/714/714
f 718/718/718 717/717/717 716/716/716
f 719/719/719 717/717/717 718/718/718
f 722/722/722 721/721/721 720/720/720
f 723/723/723 721/721/721 722/722/722
f 726/726/726 725/725/725 724/724/724
f 727/727/727 725/725/725 726/726/726
f 730/730/730 729/729/729 728/728/728
f 731/731/731 729/729/729 730/730/730
f 734/734/734 733/733/733 732/732/732
f 735/735/735 733/733/733 734/734/734
f 738/738/738 737/737/737 736/736/736
f 739/739/739 737/737/737 738/738/738
f 742/742/742 741/741/741 740/740/740
f 743/743/743 741/741/741 742/742/742
f 746/746/746 745/745/745 744/744/744
f 747/747/747 745/745/745 746/746/746
f 750/750/750 749/749/749 748/748/748
f 751/751/751 749/749/749 750/750/750
f 754/754/754 753/753/753 752/752/752
f 755/755/755 753/753/753 754/754/754
f 758/758/758 757/757/757 756/756/756
f 759/759/759 757/757/757 758/758/758
f 762/762/762 761/761/761 760/760/760
f 763/763/763 761/761/761 762/762/762
f 766/766/766 765/765/765 764/764/764
f 767/767/767 765/765/765 766/766/766
f 769/769/769 768/768/768 764/764/764
f 770/770/770 768/768/768 769/769/769
f 773/773/773 772/772/772 771/771/771
f 774/774/774 772/772/772 773/773/773
f 777/777/777 776/776/776 775/775/775
f 778/778/778 776/776/776 777/777/777
f 781/781/781 780/780/780 779/779/779
f 782/782/782 780/780/780 781/781/781
