# Exported from Godot Engine
mtllib DRL_Original.mtl
o DRL_Original
v 2.213722 0.619709 -0.747955
vt -2.673828 0.185547
vn 0.651057 0.729354 0.210159
v 2.222557 0.617673 -0.737489
vt -2.658203 0.186035
vn 0.657924 0.727849 0.193317
v 2.217897 0.632942 -0.728346
vt -2.656250 0.166016
vn 0.647670 0.730676 0.215955
v 2.237103 0.628963 -0.703754
vt -2.621094 0.165527
vn 0.696319 0.712306 0.088088
v 2.200264 0.622912 -0.763404
vt -2.695312 0.184570
vn 0.670945 0.724131 0.159582
v 2.199869 0.637145 -0.750842
vt -2.687500 0.165527
vn 0.664556 0.726107 0.176451
v 2.179369 0.627566 -0.784881
vt -2.728516 0.182129
vn 0.700869 0.708823 0.079703
v 2.179383 0.642326 -0.773121
vt -2.720703 0.163086
vn 0.695810 0.711779 0.096019
v 2.129247 0.641039 -0.823915
vt -2.800781 0.169434
vn 0.734118 0.678275 -0.031844
v 2.144888 0.653357 -0.801617
vt -2.771484 0.153320
vn 0.730176 0.683079 -0.015677
v 2.110531 0.649405 -0.833826
vt -2.822266 0.159668
vn 0.745341 0.662510 -0.074484
v 2.132894 0.659030 -0.808884
vt -2.787109 0.146973
vn 0.741671 0.668336 -0.057015
v 2.147557 0.635282 -0.811368
vt -2.775391 0.175781
vn 0.718546 0.695082 0.023486
v 2.156605 0.649184 -0.792814
vt -2.755859 0.157227
vn 0.714362 0.698672 0.039292
v 2.083593 0.666466 -0.843792
vt -2.853516 0.138672
vn 0.754332 0.647794 -0.106515
v 2.109264 0.674138 -0.819284
vt -2.814453 0.128906
vn 0.750825 0.653260 -0.097542
v 2.057158 0.686385 -0.849300
vt -2.880859 0.113281
vn 0.754760 0.643270 -0.128612
v 2.085443 0.693210 -0.824334
vt -2.839844 0.105469
vn 0.755578 0.643948 -0.120140
v 2.026089 0.709248 -0.853092
vt -2.910156 0.083008
vn 0.754799 0.638361 -0.150908
v 2.059024 0.714682 -0.827747
vt -2.865234 0.077637
vn 0.755758 0.639166 -0.142467
v 1.995249 0.730191 -0.855362
vt -2.939453 0.053711
vn 0.754437 0.633064 -0.173366
v 2.036543 0.733062 -0.828449
vt -2.884766 0.052734
vn 0.757141 0.636684 -0.146188
v 2.076181 0.747505 -0.785719
vt -2.822266 0.032227
vn 0.750988 0.656624 -0.069725
v 2.090800 0.731933 -0.789070
vt -2.810547 0.053711
vn 0.735395 0.677629 -0.003783
v 2.115682 0.741676 -0.747085
vt -2.759766 0.031738
vn 0.701462 0.701462 0.126107
v 2.125111 0.728228 -0.756753
vt -2.757812 0.052734
vn 0.699015 0.702992 0.131073
v 1.958435 0.752874 -0.855754
vt -2.972656 0.019531
vn 0.754437 0.633064 -0.173366
v 2.014723 0.751428 -0.825506
vt -2.902344 0.026367
vn 0.757935 0.632354 -0.160194
v 2.143093 0.736347 -0.714617
vt -2.712891 0.028809
vn 0.675212 0.707368 0.209090
v 2.152407 0.723256 -0.724222
vt -2.710938 0.049316
vn 0.672176 0.708595 0.214645
v 2.164106 0.730914 -0.688592
vt -2.675781 0.026855
vn 0.659379 0.708174 0.252406
v 2.174852 0.718449 -0.695684
vt -2.671875 0.045898
vn 0.656783 0.709492 0.255453
v 2.189601 0.723272 -0.656208
vt -2.628906 0.024414
vn 0.646881 0.708308 0.282568
v 2.198784 0.711840 -0.664609
vt -2.626953 0.042969
vn 0.646881 0.708308 0.282568
v 2.214494 0.715079 -0.623653
vt -2.583984 0.022461
vn 0.637442 0.706917 0.306491
v 2.223549 0.704280 -0.631622
vt -2.582031 0.040039
vn 0.637442 0.706917 0.306491
v 2.239726 0.705837 -0.590488
vt -2.537109 0.020508
vn 0.631952 0.705820 0.320087
v 2.247958 0.695798 -0.599223
vt -2.535156 0.038086
vn 0.631952 0.705820 0.320087
v 2.264568 0.695773 -0.559784
vt -2.492188 0.020996
vn 0.629278 0.706947 0.322854
v 2.271676 0.686764 -0.569298
vt -2.492188 0.037598
vn 0.629278 0.706947 0.322854
v 2.290552 0.684029 -0.532301
vt -2.447266 0.025391
vn 0.631952 0.705820 0.320087
v 2.295059 0.676338 -0.543139
vt -2.453125 0.040039
vn 0.631952 0.705820 0.320087
v 2.313866 0.672384 -0.510930
vt -2.412109 0.031738
vn 0.633596 0.707644 0.312722
v 2.316579 0.665431 -0.521959
vt -2.417969 0.045410
vn 0.633596 0.707644 0.312722
v 2.354994 0.649982 -0.476101
vt -2.349609 0.046875
vn 0.631952 0.705820 0.320087
v 2.355369 0.643900 -0.486895
vt -2.355469 0.058594
vn 0.631952 0.705820 0.320087
v 2.375275 0.637966 -0.459200
vt -2.318359 0.055176
vn 0.668501 0.704731 0.237614
v 2.372321 0.633232 -0.472261
vt -2.330078 0.065918
vn 0.637442 0.706917 0.306491
v 2.334945 0.661469 -0.492969
vt -2.378906 0.039062
vn 0.633596 0.707644 0.312722
v 2.337471 0.654254 -0.502877
vt -2.384766 0.052246
vn 0.633596 0.707644 0.312722
v 2.214245 0.620073 -0.748315
vt -2.955078 0.873779
vn -0.698759 0.600574 0.388646
v 2.223080 0.618045 -0.737843
vt -2.955078 0.888428
vn -0.703318 0.593855 0.390743
v 2.213722 0.619709 -0.747955
vt -2.953125 0.873657
vn -0.698759 0.600574 0.388646
v 2.222557 0.617673 -0.737489
vt -2.955078 0.888367
vn -0.325405 0.937610 -0.122471
v 2.237625 0.629335 -0.704108
vt -2.933594 0.591797
vn -0.697672 -0.591844 0.403701
v 2.218421 0.633306 -0.728706
vt -2.933594 0.625488
vn -0.713542 0.595868 0.368510
v 2.237103 0.628963 -0.703754
vt -2.931641 0.591797
vn -0.323647 -0.142237 -0.935426
v 2.217897 0.632942 -0.728346
vt -2.931641 0.625488
vn -0.713542 0.595868 0.368510
v 2.237625 0.629335 -0.704108
vt -2.955078 0.921814
vn -0.700408 0.590218 0.401336
v 2.237103 0.628963 -0.703754
vt -2.955078 0.921814
vn -0.310878 0.084755 -0.946663
v 2.179858 0.627903 -0.785309
vt -2.955078 0.817871
vn -0.648520 0.624696 0.434944
v 2.200780 0.623262 -0.763787
vt -2.955078 0.851074
vn -0.685118 0.610300 0.397678
v 2.179369 0.627566 -0.784881
vt -2.955078 0.817871
vn -0.652538 0.624996 0.428456
v 2.200264 0.622912 -0.763404
vt -2.955078 0.851074
vn -0.688711 0.610402 0.391261
v 2.200385 0.637495 -0.751226
vt -2.933594 0.658447
vn -0.703621 0.605856 0.371290
v 2.179872 0.642663 -0.773548
vt -2.933594 0.692383
vn -0.677024 0.621860 0.393611
v 2.199869 0.637145 -0.750842
vt -2.931641 0.658447
vn -0.703621 0.605856 0.371290
v 2.179383 0.642326 -0.773121
vt -2.931641 0.692383
vn -0.674903 0.619914 0.400266
v 2.129688 0.641360 -0.824404
vt -2.955078 0.747070
vn -0.592906 0.636906 0.492761
v 2.129247 0.641039 -0.823915
vt -2.955078 0.747070
vn -0.592906 0.636906 0.492761
v 2.110956 0.649727 -0.834328
vt -2.955078 0.721924
vn -0.562311 0.634573 0.530212
v 2.110531 0.649405 -0.833826
vt -2.955078 0.721924
vn -0.562311 0.634573 0.530212
v 2.145329 0.653679 -0.802106
vt -2.931641 0.743408
vn -0.628478 0.640379 0.441508
v 2.133319 0.659352 -0.809385
vt -2.933594 0.758423
vn -0.597367 0.641099 0.481815
v 2.144888 0.653357 -0.801617
vt -2.931641 0.743408
vn -0.628478 0.640379 0.441508
v 2.132894 0.659030 -0.808884
vt -2.931641 0.758423
vn -0.597367 0.641099 0.481815
v 2.148012 0.635608 -0.811839
vt -2.955078 0.771973
vn -0.620057 0.631899 0.465010
v 2.147557 0.635282 -0.811368
vt -2.955078 0.771973
vn -0.620057 0.631899 0.465010
v 2.157059 0.649510 -0.793286
vt -2.933594 0.728271
vn -0.650181 0.630307 0.424237
v 2.156605 0.649184 -0.792814
vt -2.931641 0.728271
vn -0.650181 0.630307 0.424237
v 2.057526 0.686747 -0.849819
vt -2.955078 0.643799
vn -0.497225 0.609462 0.617513
v 2.083989 0.666803 -0.844307
vt -2.955078 0.683594
vn -0.538639 0.627045 0.562745
v 2.057158 0.686385 -0.849300
vt -2.955078 0.643799
vn -0.497225 0.609462 0.617513
v 2.083593 0.666466 -0.843792
vt -2.955078 0.683594
vn -0.538639 0.627045 0.562745
v 2.109660 0.674474 -0.819799
vt -2.933594 0.793091
vn -0.562311 0.634573 0.530212
v 2.085810 0.693572 -0.824853
vt -2.933594 0.827148
vn -0.514069 0.618417 0.594385
v 2.109264 0.674138 -0.819284
vt -2.931641 0.793091
vn -0.562311 0.634573 0.530212
v 2.085443 0.693210 -0.824334
vt -2.931641 0.827148
vn -0.514069 0.618417 0.594385
v 1.995555 0.730611 -0.855877
vt -2.955078 0.555908
vn -0.401335 0.550779 0.731828
v 2.026428 0.709633 -0.853614
vt -2.955078 0.598877
vn -0.453606 0.584871 0.672434
v 1.995249 0.730191 -0.855362
vt -2.955078 0.555908
vn -0.401335 0.550779 0.731828
v 2.026089 0.709248 -0.853092
vt -2.955078 0.598877
vn -0.453606 0.584871 0.672434
v 2.059363 0.715067 -0.828270
vt -2.933594 0.864502
vn -0.480005 0.599999 0.639997
v 2.036810 0.733515 -0.828960
vt -2.933594 0.897217
vn -0.357692 -0.505437 0.785232
v 2.059024 0.714682 -0.827747
vt -2.931641 0.864502
vn -0.480005 0.599999 0.639997
v 2.036543 0.733062 -0.828449
vt -2.931641 0.897095
vn -0.357692 -0.505437 0.785232
v 1.958724 0.753317 -0.856260
vt -2.955078 0.506348
vn -0.368114 -0.524794 0.767518
v 1.958435 0.752874 -0.855754
vt -2.955078 0.506348
vn -0.368114 -0.524794 0.767518
v 2.015415 0.751867 -0.825774
vt -2.980469 0.397949
vn 0.192602 0.574181 -0.795752
v 1.958724 0.753317 -0.856260
vt -2.980469 0.324219
vn 0.167152 0.566859 -0.806679
v 2.014723 0.751428 -0.825506
vt -2.982422 0.397461
vn 0.192281 0.565941 -0.801710
v 1.958435 0.752874 -0.855754
vt -2.982422 0.324219
vn 0.167152 0.566859 -0.806679
v 2.116127 0.742210 -0.747423
vt -2.980469 0.545410
vn 0.280387 0.651738 -0.704713
v 2.076575 0.748006 -0.786153
vt -2.980469 0.481445
vn 0.234869 0.601870 -0.763275
v 2.115682 0.741676 -0.747085
vt -2.982422 0.545410
vn 0.280387 0.651738 -0.704713
v 2.076181 0.747505 -0.785719
vt -2.982422 0.481445
vn 0.234869 0.601870 -0.763275
v 2.091193 0.732434 -0.789504
vt -2.968750 0.460449
vn -0.491660 0.531283 0.689934
v 2.125555 0.728761 -0.757092
vt -2.968750 0.512695
vn -0.578205 0.517926 0.630422
v 2.090800 0.731933 -0.789070
vt -2.966797 0.460449
vn -0.491660 0.531283 0.689934
v 2.125111 0.728228 -0.756753
vt -2.966797 0.512695
vn -0.578205 0.517926 0.630422
v 2.036810 0.733515 -0.828960
vt -2.968750 0.386719
vn -0.406432 0.504077 0.762050
v 2.036543 0.733062 -0.828449
vt -2.968750 0.386719
vn -0.406432 0.504077 0.762050
v 2.164581 0.731468 -0.688852
vt -2.980469 0.631592
vn 0.308146 0.711080 -0.631990
v 2.143559 0.736894 -0.714905
vt -2.980469 0.594482
vn 0.295058 0.691030 -0.659862
v 2.164106 0.730914 -0.688592
vt -2.982422 0.631592
vn 0.306616 0.707545 -0.636684
v 2.143093 0.736347 -0.714617
vt -2.982422 0.594482
vn 0.295058 0.691030 -0.659862
v 2.152873 0.723802 -0.724510
vt -2.968750 0.560059
vn -0.615572 0.502118 0.607412
v 2.175327 0.719002 -0.695944
vt -2.968750 0.600586
vn -0.634548 0.490320 0.597440
v 2.152407 0.723256 -0.724222
vt -2.966797 0.560059
vn -0.618339 0.500330 0.606075
v 2.174852 0.718449 -0.695684
vt -2.966797 0.600586
vn -0.634548 0.490320 0.597440
v 2.214974 0.715644 -0.623873
vt -2.980469 0.723389
vn 0.316560 0.737246 -0.596874
v 2.190080 0.723832 -0.656446
vt -2.980469 0.677490
vn 0.310968 0.725592 -0.613852
v 2.214494 0.715079 -0.623653
vt -2.982422 0.723389
vn 0.316560 0.737246 -0.596874
v 2.189601 0.723272 -0.656208
vt -2.982422 0.677490
vn 0.310968 0.725592 -0.613852
v 2.199262 0.712400 -0.664847
vt -2.968750 0.644531
vn -0.645158 0.483822 0.591344
v 2.224030 0.704845 -0.631842
vt -2.968750 0.690674
vn -0.650606 0.475416 0.592192
v 2.198784 0.711840 -0.664609
vt -2.966797 0.644531
vn -0.645158 0.483822 0.591344
v 2.223549 0.704280 -0.631622
vt -2.966797 0.690674
vn -0.650606 0.475416 0.592192
v 2.265044 0.696349 -0.559984
vt -2.980469 0.812256
vn 0.312849 0.754071 -0.577497
v 2.240205 0.706409 -0.590693
vt -2.980469 0.769165
vn 0.317638 0.747862 -0.582931
v 2.264568 0.695773 -0.559784
vt -2.982422 0.812256
vn 0.312849 0.754071 -0.577497
v 2.239726 0.705837 -0.590488
vt -2.982422 0.769165
vn 0.317638 0.747862 -0.582931
v 2.248437 0.696370 -0.599429
vt -2.968750 0.736328
vn -0.653201 0.468900 0.594526
v 2.272152 0.687340 -0.569499
vt -2.968750 0.779541
vn -0.652846 0.464456 0.598392
v 2.247958 0.695798 -0.599223
vt -2.966797 0.736328
vn -0.653201 0.468900 0.594526
v 2.271676 0.686764 -0.569298
vt -2.966797 0.779541
vn -0.652846 0.464456 0.598392
v 2.314359 0.672935 -0.511158
vt -2.980469 0.887756
vn 0.318414 0.716406 -0.620786
v 2.291034 0.684598 -0.532509
vt -2.980469 0.852661
vn 0.313274 0.747053 -0.586320
v 2.313866 0.672384 -0.510930
vt -2.982422 0.887756
vn 0.318414 0.716406 -0.620786
v 2.290552 0.684029 -0.532301
vt -2.982422 0.852661
vn 0.313274 0.747053 -0.586320
v 2.295541 0.676906 -0.543347
vt -2.968750 0.820068
vn -0.664410 0.470943 0.580321
v 2.317072 0.665982 -0.522188
vt -2.968750 0.855591
vn -0.674878 0.487361 0.554092
v 2.295059 0.676338 -0.543139
vt -2.966797 0.820068
vn -0.664410 0.470943 0.580321
v 2.316579 0.665431 -0.521959
vt -2.966797 0.855591
vn -0.674878 0.487361 0.554092
v 2.375808 0.638453 -0.459479
vt -2.980469 0.983322
vn 0.340183 0.640785 -0.688237
v 2.355520 0.650482 -0.476369
vt -2.980469 0.949310
vn 0.337707 0.651532 -0.679309
v 2.375275 0.637966 -0.459200
vt -2.982422 0.983307
vn 0.112154 0.930870 0.347710
v 2.354994 0.649982 -0.476101
vt -2.982422 0.949310
vn 0.337707 0.651532 -0.679309
v 2.372854 0.633719 -0.472539
vt -2.968750 0.945038
vn -0.696947 0.530792 0.482209
v 2.375808 0.638453 -0.459479
vt -2.968750 0.960846
vn -0.703810 -0.529882 0.473156
v 2.372321 0.633232 -0.472261
vt -2.966797 0.945038
vn -0.340911 0.938947 0.046446
v 2.375275 0.637966 -0.459200
vt -2.966797 0.960815
vn -0.952805 -0.087601 0.290669
v 2.355895 0.644401 -0.487163
vt -2.968750 0.918152
vn -0.700064 0.520920 0.488419
v 2.355369 0.643900 -0.486895
vt -2.966797 0.918152
vn -0.700064 0.520920 0.488419
v 2.335453 0.661996 -0.493219
vt -2.980469 0.918274
vn 0.324427 0.688405 -0.648726
v 2.334945 0.661469 -0.492969
vt -2.982422 0.918274
vn 0.324427 0.688405 -0.648726
v 2.337980 0.654782 -0.503126
vt -2.968750 0.889221
vn -0.688873 0.504291 0.520715
v 2.337471 0.654254 -0.502877
vt -2.966797 0.889221
vn -0.685971 0.506256 0.522636
v 2.167909 0.328041 -0.826102
vt -2.482422 0.360840
vn 0.547823 0.591509 0.591614
v 2.159927 0.323972 -0.826523
vt -2.482422 0.371582
vn 0.547823 0.591509 0.591614
v 2.175025 0.321021 -0.817442
vt -2.470703 0.360840
vn 0.547823 0.591509 0.591614
v 2.167449 0.316333 -0.818222
vt -2.466797 0.371582
vn 0.547823 0.591509 0.591614
v 2.167909 0.328041 -0.826102
vt -2.482422 0.360840
vn 0.489252 0.532682 0.690566
v 2.160856 0.337392 -0.834329
vt -2.500000 0.360840
vn 0.489252 0.532682 0.690566
v 2.159927 0.323972 -0.826523
vt -2.482422 0.371582
vn 0.489252 0.532682 0.690566
v 2.152344 0.334000 -0.835391
vt -2.500000 0.371582
vn 0.489252 0.532682 0.690566
v 2.160856 0.337392 -0.834329
vt -2.500000 0.360840
vn 0.397491 0.444269 0.802886
v 2.155262 0.347896 -0.841269
vt -2.517578 0.360840
vn 0.423703 0.459039 0.780871
v 2.152344 0.334000 -0.835391
vt -2.500000 0.371582
vn 0.414166 0.453249 0.789324
v 2.145902 0.344960 -0.842537
vt -2.517578 0.371582
vn 0.430660 0.461965 0.775320
v 2.155262 0.347896 -0.841269
vt -2.517578 0.360840
vn 0.311086 0.342197 0.886638
v 2.151104 0.359357 -0.846460
vt -2.533203 0.360840
vn 0.285892 0.328368 0.900244
v 2.145902 0.344960 -0.842537
vt -2.517578 0.371582
vn 0.295645 0.334553 0.894801
v 2.142071 0.356738 -0.847475
vt -2.533203 0.371582
vn 0.278120 0.324516 0.904068
v 2.151104 0.359357 -0.846460
vt -2.533203 0.360840
vn 0.225270 0.256332 0.939972
v 2.148240 0.370704 -0.850155
vt -2.546875 0.360840
vn 0.200764 0.239369 0.949945
v 2.142071 0.356738 -0.847475
vt -2.533203 0.371582
vn 0.208736 0.243544 0.947162
v 2.139663 0.368904 -0.851057
vt -2.546875 0.371582
vn 0.175607 0.225259 0.958342
v 2.144779 0.391662 -0.854659
vt -2.572266 0.360840
vn 0.155425 0.178736 0.971543
v 2.136172 0.389758 -0.855447
vt -2.572266 0.371582
vn 0.155425 0.178736 0.971543
v 2.148240 0.370704 -0.850155
vt -2.546875 0.360840
vn 0.155425 0.178736 0.971543
v 2.139663 0.368904 -0.851057
vt -2.546875 0.371582
vn 0.155425 0.178736 0.971543
v 2.136172 0.389758 -0.855447
vt -2.572266 0.371582
vn 0.101447 0.120979 0.987458
v 2.144779 0.391662 -0.854659
vt -2.572266 0.360840
vn 0.101447 0.120979 0.987458
v 2.131152 0.435289 -0.862004
vt -2.623047 0.371582
vn 0.092697 0.115866 0.988930
v 2.140220 0.437158 -0.861364
vt -2.623047 0.360840
vn 0.092697 0.115866 0.988930
v 2.159927 0.323972 -0.826523
vt -2.482422 0.371582
vn 0.542206 0.586089 0.602090
v 2.154176 0.317949 -0.831433
vt -2.482422 0.380371
vn 0.566301 0.606183 0.558430
v 2.167449 0.316333 -0.818222
vt -2.466797 0.371582
vn 0.571424 0.611133 0.547715
v 2.159222 0.311137 -0.824823
vt -2.472656 0.383301
vn 0.598373 0.630245 0.494713
v 2.159222 0.311137 -0.824823
vt -2.472656 0.383301
vn 0.354731 0.584545 0.729707
v 2.154176 0.317949 -0.831433
vt -2.482422 0.380371
vn 0.330195 0.602635 0.726500
v 2.161439 0.305425 -0.830042
vt -2.468750 0.391602
vn 0.337524 0.600975 0.724505
v 2.157426 0.311622 -0.842633
vt -2.482422 0.391602
vn 0.317443 0.614013 0.722646
v 2.143410 0.336935 -0.857963
vt -2.517578 0.391602
vn 0.386350 0.398190 0.831973
v 2.148954 0.324203 -0.851700
vt -2.500000 0.391602
vn 0.376568 0.407938 0.831735
v 2.140703 0.340526 -0.847786
vt -2.517578 0.380371
vn 0.385132 0.404800 0.829343
v 2.146840 0.328635 -0.840830
vt -2.500000 0.380371
vn 0.375355 0.414484 0.829042
v 2.139453 0.350840 -0.862587
vt -2.533203 0.391602
vn 0.307931 0.307931 0.900198
v 2.143410 0.336935 -0.857963
vt -2.517578 0.391602
vn 0.297910 0.313564 0.901625
v 2.135629 0.353214 -0.852924
vt -2.533203 0.380371
vn 0.299301 0.311117 0.902012
v 2.140703 0.340526 -0.847786
vt -2.517578 0.380371
vn 0.296460 0.316001 0.901252
v 2.136881 0.364094 -0.865873
vt -2.546875 0.391602
vn 0.187207 0.210610 0.959478
v 2.139453 0.350840 -0.862587
vt -2.533203 0.391602
vn 0.177518 0.212226 0.960962
v 2.133106 0.366111 -0.856539
vt -2.546875 0.380371
vn 0.178292 0.209335 0.961452
v 2.135629 0.353214 -0.852924
vt -2.533203 0.380371
vn 0.168737 0.210936 0.962826
v 2.134121 0.385819 -0.869457
vt -2.572266 0.391602
vn 0.133236 0.148911 0.979833
v 2.136881 0.364094 -0.865873
vt -2.546875 0.391602
vn 0.124004 0.151138 0.980704
v 2.129933 0.387469 -0.860808
vt -2.572266 0.380371
vn 0.133236 0.148911 0.979833
v 2.133106 0.366111 -0.856539
vt -2.546875 0.380371
vn 0.124004 0.151138 0.980704
v 2.129576 0.434253 -0.874978
vt -2.623047 0.391602
vn 0.094290 0.102149 0.990290
v 2.134121 0.385819 -0.869457
vt -2.572266 0.391602
vn 0.085446 0.104875 0.990808
v 2.125169 0.434400 -0.867233
vt -2.623047 0.380371
vn 0.093891 0.105616 0.989965
v 2.129933 0.387469 -0.860808
vt -2.572266 0.380371
vn 0.085446 0.104875 0.990808
v 2.131152 0.435289 -0.862004
vt -2.623047 0.371582
vn 0.101447 0.120979 0.987458
v 2.125169 0.434400 -0.867233
vt -2.623047 0.380371
vn 0.101894 0.117589 0.987821
v 2.136172 0.389758 -0.855447
vt -2.572266 0.371582
vn 0.093074 0.112473 0.989286
v 2.129933 0.387469 -0.860808
vt -2.572266 0.380371
vn 0.093074 0.112473 0.989286
v 2.136172 0.389758 -0.855447
vt -2.572266 0.371582
vn 0.139525 0.162750 0.976752
v 2.133106 0.366111 -0.856539
vt -2.546875 0.380371
vn 0.148005 0.171412 0.974019
v 2.129933 0.387469 -0.860808
vt -2.572266 0.380371
vn 0.139525 0.162750 0.976752
v 2.145902 0.344960 -0.842537
vt -2.517578 0.371582
vn 0.304971 0.324516 0.895367
v 2.142071 0.356738 -0.847475
vt -2.533203 0.371582
vn 0.314052 0.337630 0.887343
v 2.140703 0.340526 -0.847786
vt -2.517578 0.380371
vn 0.313368 0.332958 0.889348
v 2.135629 0.353214 -0.852924
vt -2.533203 0.380371
vn 0.320253 0.343713 0.882779
v 2.142071 0.356738 -0.847475
vt -2.533203 0.371582
vn 0.185175 0.223773 0.956888
v 2.139663 0.368904 -0.851057
vt -2.546875 0.371582
vn 0.177198 0.219578 0.959368
v 2.135629 0.353214 -0.852924
vt -2.533203 0.380371
vn 0.177198 0.219578 0.959368
v 2.133106 0.366111 -0.856539
vt -2.546875 0.380371
vn 0.175906 0.217966 0.959973
v 2.152344 0.334000 -0.835391
vt -2.500000 0.371582
vn 0.432763 0.460306 0.775135
v 2.145902 0.344960 -0.842537
vt -2.517578 0.371582
vn 0.417076 0.440680 0.794889
v 2.146840 0.328635 -0.840830
vt -2.500000 0.380371
vn 0.422608 0.450003 0.786702
v 2.140703 0.340526 -0.847786
vt -2.517578 0.380371
vn 0.399641 0.427082 0.811103
v 2.152344 0.334000 -0.835391
vt -2.500000 0.371582
vn 0.480568 0.531805 0.697308
v 2.146840 0.328635 -0.840830
vt -2.500000 0.380371
vn 0.471525 0.526539 0.707404
v 2.159927 0.323972 -0.826523
vt -2.482422 0.371582
vn 0.471185 0.522259 0.710796
v 2.154176 0.317949 -0.831433
vt -2.482422 0.380371
vn 0.464671 0.519811 0.716853
v 2.146840 0.328635 -0.840830
vt -2.500000 0.380371
vn 0.455902 0.518755 0.723220
v 2.148954 0.324203 -0.851700
vt -2.500000 0.391602
vn 0.463531 0.506779 0.726852
v 2.154176 0.317949 -0.831433
vt -2.482422 0.380371
vn 0.465395 0.500902 0.729730
v 2.157426 0.311622 -0.842633
vt -2.482422 0.391602
vn 0.473359 0.493084 0.729931
v 2.175007 0.308617 -0.825349
vt -2.455078 0.381348
vn 0.466414 0.089252 -0.880052
v 2.177704 0.310851 -0.822663
vt -2.453125 0.376465
vn 0.466414 0.089252 -0.880052
v 2.170380 0.308884 -0.821797
vt -2.460938 0.379395
vn 0.466414 0.089252 -0.880052
v 2.163224 0.307667 -0.828416
vt -2.466797 0.388184
vn 0.841199 0.047299 -0.538653
v 2.169552 0.307882 -0.827056
vt -2.460938 0.385254
vn 0.841199 0.047299 -0.538653
v 2.170380 0.308884 -0.821797
vt -2.460938 0.379395
vn 0.841199 0.047299 -0.538653
v 2.162009 0.310839 -0.825516
vt -2.468750 0.383301
vn 0.870285 0.489534 0.054402
v 2.163224 0.307667 -0.828416
vt -2.466797 0.388184
vn 0.870285 0.489534 0.054402
v 2.170380 0.308884 -0.821797
vt -2.460938 0.379395
vn 0.870285 0.489534 0.054402
v 2.173113 0.314020 -0.820373
vt -2.458984 0.373047
vn 0.918249 0.365555 -0.152274
v 2.168404 0.314874 -0.820388
vt -2.464844 0.374023
vn 0.918249 0.365555 -0.152274
v 2.170380 0.308884 -0.821797
vt -2.460938 0.379395
vn 0.918249 0.365555 -0.152274
v 2.177704 0.310851 -0.822663
vt -2.453125 0.376465
vn 0.871246 0.016957 -0.490554
v 2.177014 0.312555 -0.821112
vt -2.455078 0.374023
vn 0.871246 0.016957 -0.490554
v 2.170380 0.308884 -0.821797
vt -2.460938 0.379395
vn 0.871246 0.016957 -0.490554
v 2.169552 0.307882 -0.827056
vt -2.460938 0.385254
vn 0.493455 0.008371 -0.869731
v 2.175007 0.308617 -0.825349
vt -2.455078 0.381348
vn 0.493455 0.008371 -0.869731
v 2.170380 0.308884 -0.821797
vt -2.460938 0.379395
vn 0.493455 0.008371 -0.869731
v 2.168404 0.314874 -0.820388
vt -2.464844 0.374023
vn 0.820213 0.521586 0.234941
v 2.162009 0.310839 -0.825516
vt -2.468750 0.383301
vn 0.820213 0.521586 0.234941
v 2.170380 0.308884 -0.821797
vt -2.460938 0.379395
vn 0.820213 0.521586 0.234941
v 2.177014 0.312555 -0.821112
vt -2.455078 0.374023
vn 0.910424 0.201317 -0.361387
v 2.173113 0.314020 -0.820373
vt -2.458984 0.373047
vn 0.910424 0.201317 -0.361387
v 2.170380 0.308884 -0.821797
vt -2.460938 0.379395
vn 0.910424 0.201317 -0.361387
v 2.169552 0.307882 -0.827056
vt -2.460938 0.385254
vn 0.911133 0.358971 -0.202427
v 2.163224 0.307667 -0.828416
vt -2.466797 0.388184
vn 0.911133 0.358971 -0.202427
v 2.170034 0.305701 -0.828215
vt -2.458984 0.387695
vn 0.911133 0.358971 -0.202427
v 2.161439 0.305425 -0.830042
vt -2.468750 0.391602
vn 0.911133 0.358971 -0.202427
v 2.175007 0.308617 -0.825349
vt -2.455078 0.381348
vn 0.906924 0.419786 -0.035609
v 2.169552 0.307882 -0.827056
vt -2.460938 0.385254
vn 0.906836 0.419148 -0.044307
v 2.176364 0.306548 -0.826236
vt -2.451172 0.383301
vn 0.906836 0.419148 -0.044307
v 2.170034 0.305701 -0.828215
vt -2.458984 0.387695
vn 0.906836 0.419148 -0.044307
v 2.177704 0.310851 -0.822663
vt -2.453125 0.376465
vn 0.884312 0.465823 0.031648
v 2.175007 0.308617 -0.825349
vt -2.455078 0.381348
vn 0.887299 0.459485 0.039667
v 2.180289 0.309807 -0.822319
vt -2.449219 0.375977
vn 0.885808 0.462683 0.035630
v 2.176364 0.306548 -0.826236
vt -2.451172 0.383301
vn 0.886748 0.459320 0.051989
v 2.177014 0.312555 -0.821112
vt -2.455078 0.374023
vn 0.883107 0.468912 -0.015589
v 2.177704 0.310851 -0.822663
vt -2.453125 0.376465
vn 0.887260 0.461253 -0.003859
v 2.178904 0.313233 -0.819199
vt -2.453125 0.371094
vn 0.886410 0.462835 -0.007765
v 2.180289 0.309807 -0.822319
vt -2.449219 0.375977
vn 0.889617 0.456638 0.007914
v 2.173113 0.314020 -0.820373
vt -2.458984 0.373047
vn 0.913231 0.310690 -0.263592
v 2.177014 0.312555 -0.821112
vt -2.455078 0.374023
vn 0.915803 0.314557 -0.249717
v 2.173637 0.315215 -0.818202
vt -2.458984 0.370117
vn 0.914304 0.317202 -0.251856
v 2.178904 0.313233 -0.819199
vt -2.453125 0.371094
vn 0.915803 0.314557 -0.249717
v 2.168404 0.314874 -0.820388
vt -2.464844 0.374023
vn 0.931246 0.272134 -0.242331
v 2.173113 0.314020 -0.820373
vt -2.458984 0.373047
vn 0.931246 0.272134 -0.242331
v 2.167449 0.316333 -0.818222
vt -2.466797 0.371582
vn 0.931246 0.272134 -0.242331
v 2.173637 0.315215 -0.818202
vt -2.458984 0.370117
vn 0.932359 0.269999 -0.240432
v 2.162009 0.310839 -0.825516
vt -2.468750 0.383301
vn 0.902185 0.112784 -0.416344
v 2.168404 0.314874 -0.820388
vt -2.464844 0.374023
vn 0.916176 0.125531 -0.380608
v 2.159222 0.311137 -0.824823
vt -2.472656 0.383301
vn 0.907587 0.119868 -0.402390
v 2.167449 0.316333 -0.818222
vt -2.466797 0.371582
vn 0.919365 0.133118 -0.370199
v 2.163224 0.307667 -0.828416
vt -2.466797 0.388184
vn 0.884594 0.088936 -0.457804
v 2.162009 0.310839 -0.825516
vt -2.468750 0.383301
vn 0.898081 0.104645 -0.427200
v 2.161439 0.305425 -0.830042
vt -2.468750 0.391602
vn 0.891150 0.096605 -0.443304
v 2.159222 0.311137 -0.824823
vt -2.472656 0.383301
vn 0.902185 0.112784 -0.416344
v 2.134796 0.434896 -0.864227
vt -2.708984 0.921936
vn -0.047169 0.982390 -0.180791
v 2.138509 0.434946 -0.867402
vt -2.708984 0.916138
vn -0.047169 0.982390 -0.180791
v 2.139660 0.388607 -0.857765
vt -2.757812 0.921936
vn -0.051148 0.982894 -0.176929
v 2.143240 0.388326 -0.861220
vt -2.757812 0.916138
vn -0.051148 0.982894 -0.176929
v 2.145379 0.355020 -0.849984
vt -2.794922 0.921936
vn -0.089535 0.933846 -0.346289
v 2.142947 0.367506 -0.853515
vt -2.781250 0.921936
vn -0.089535 0.933846 -0.346289
v 2.148808 0.354750 -0.853651
vt -2.794922 0.916138
vn -0.089535 0.933846 -0.346289
v 2.146408 0.367152 -0.857095
vt -2.781250 0.916138
vn -0.089535 0.933846 -0.346289
v 2.142947 0.367506 -0.853515
vt -2.781250 0.921936
vn -0.070524 0.963436 -0.258490
v 2.139660 0.388607 -0.857765
vt -2.757812 0.921936
vn -0.070524 0.963436 -0.258490
v 2.146408 0.367152 -0.857095
vt -2.781250 0.916138
vn -0.070524 0.963436 -0.258490
v 2.143240 0.388326 -0.861220
vt -2.757812 0.916138
vn -0.070524 0.963436 -0.258490
v 2.140663 0.365235 -0.860051
vt -2.781250 0.909363
vn -0.089535 0.933846 -0.346289
v 2.143238 0.352288 -0.856396
vt -2.794922 0.909363
vn -0.089535 0.933846 -0.346289
v 2.147943 0.339354 -0.851106
vt -2.812500 0.909363
vn -0.192263 0.746402 -0.637118
v 2.154036 0.327464 -0.843935
vt -2.830078 0.909363
vn -0.192263 0.746402 -0.637118
v 2.153312 0.342600 -0.848786
vt -2.812500 0.916138
vn -0.192263 0.746402 -0.637118
v 2.159397 0.330977 -0.841980
vt -2.830078 0.916138
vn -0.192263 0.746402 -0.637118
v 2.156197 0.331306 -0.838135
vt -2.830078 0.921936
vn -0.196392 0.747656 -0.634382
v 2.149981 0.342837 -0.845036
vt -2.812500 0.921936
vn -0.196392 0.747656 -0.634382
v 2.159397 0.330977 -0.841980
vt -2.830078 0.916138
vn -0.196392 0.747656 -0.634382
v 2.153312 0.342600 -0.848786
vt -2.812500 0.916138
vn -0.196392 0.747656 -0.634382
v 2.148808 0.354750 -0.853651
vt -2.794922 0.916138
vn -0.157094 0.850517 -0.501939
v 2.143238 0.352288 -0.856396
vt -2.794922 0.909363
vn -0.153656 0.852688 -0.499312
v 2.153312 0.342600 -0.848786
vt -2.812500 0.916138
vn -0.153656 0.852688 -0.499312
v 2.147943 0.339354 -0.851106
vt -2.812500 0.909363
vn -0.153656 0.852688 -0.499312
v 2.159397 0.330977 -0.841980
vt -2.830078 0.916138
vn -0.217328 0.618675 -0.754990
v 2.166728 0.320318 -0.832886
vt -2.849609 0.916138
vn -0.217328 0.618675 -0.754990
v 2.156197 0.331306 -0.838135
vt -2.830078 0.921936
vn -0.217328 0.618675 -0.754990
v 2.163562 0.320933 -0.829064
vt -2.849609 0.921936
vn -0.217328 0.618675 -0.754990
v 2.149981 0.342837 -0.845036
vt -2.812500 0.921936
vn -0.157724 0.853815 -0.496107
v 2.145379 0.355020 -0.849984
vt -2.794922 0.921936
vn -0.157724 0.853815 -0.496107
v 2.153312 0.342600 -0.848786
vt -2.812500 0.916138
vn -0.157724 0.853815 -0.496107
v 2.148808 0.354750 -0.853651
vt -2.794922 0.916138
vn -0.157724 0.853815 -0.496107
v 2.154036 0.327464 -0.843935
vt -2.830078 0.909363
vn -0.210472 0.627637 -0.749516
v 2.161527 0.316316 -0.834313
vt -2.849609 0.909363
vn -0.213420 0.625418 -0.750536
v 2.159397 0.330977 -0.841980
vt -2.830078 0.916138
vn -0.213420 0.625418 -0.750536
v 2.166728 0.320318 -0.832886
vt -2.849609 0.916138
vn -0.213420 0.625418 -0.750536
v 2.171938 0.303359 -0.821225
vt -2.875000 0.909363
vn -0.225358 0.566975 -0.792309
v 2.177212 0.307429 -0.820049
vt -2.875000 0.916138
vn -0.226315 0.562018 -0.795560
v 2.161527 0.316316 -0.834313
vt -2.849609 0.909363
vn -0.229070 0.559880 -0.796280
v 2.166728 0.320318 -0.832886
vt -2.849609 0.916138
vn -0.229070 0.559880 -0.796280
v 2.177212 0.307429 -0.820049
vt -2.875000 0.916138
vn -0.230414 0.563175 -0.793564
v 2.174183 0.308091 -0.816144
vt -2.875000 0.921936
vn -0.230414 0.563175 -0.793564
v 2.166728 0.320318 -0.832886
vt -2.849609 0.916138
vn -0.230414 0.563175 -0.793564
v 2.163562 0.320933 -0.829064
vt -2.849609 0.921936
vn -0.230414 0.563175 -0.793564
v 2.140663 0.365235 -0.860051
vt -2.781250 0.909363
vn -0.066693 0.964666 -0.254896
v 2.146408 0.367152 -0.857095
vt -2.781250 0.916138
vn -0.066693 0.964666 -0.254896
v 2.137612 0.386708 -0.864290
vt -2.757812 0.909363
vn -0.070524 0.963436 -0.258490
v 2.143240 0.388326 -0.861220
vt -2.757812 0.916138
vn -0.047222 0.983758 -0.173177
v 2.138509 0.434946 -0.867402
vt -2.708984 0.916138
vn -0.047222 0.983758 -0.173177
v 2.137612 0.386708 -0.864290
vt -2.757812 0.909363
vn -0.047222 0.983758 -0.173177
v 2.133003 0.434288 -0.870351
vt -2.708984 0.909363
vn -0.047222 0.983758 -0.173177
v 2.237103 0.628963 0.703754
vt -2.621094 0.165527
vn 0.970497 -0.060905 -0.233294
v 2.222557 0.617673 0.737489
vt -2.658203 0.186035
vn 0.982091 -0.096922 -0.161568
v 2.217897 0.632942 0.728346
vt -2.656250 0.166016
vn 0.983640 -0.102881 -0.147879
v 2.213722 0.619709 0.747956
vt -2.673828 0.185547
vn 0.983640 -0.102881 -0.147879
v 2.179383 0.642326 0.773121
vt -2.720703 0.163086
vn 0.971951 -0.067267 -0.225360
v 2.199869 0.637145 0.750842
vt -2.687500 0.165527
vn 0.980740 -0.091240 -0.172700
v 2.179369 0.627566 0.784881
vt -2.728516 0.182129
vn 0.969520 -0.061057 -0.237282
v 2.200264 0.622911 0.763404
vt -2.695312 0.184570
vn 0.979199 -0.085436 -0.184038
v 2.132894 0.659030 0.808884
vt -2.787109 0.146973
vn 0.941159 -0.014405 -0.337656
v 2.144888 0.653357 0.801618
vt -2.771484 0.153320
vn 0.951095 -0.028319 -0.307599
v 2.110531 0.649405 0.833827
vt -2.822266 0.159668
vn 0.936463 -0.007269 -0.350690
v 2.129247 0.641038 0.823915
vt -2.800781 0.169434
vn 0.947031 -0.021397 -0.320430
v 2.156605 0.649184 0.792814
vt -2.755859 0.157227
vn 0.962832 -0.048321 -0.265745
v 2.147557 0.635282 0.811368
vt -2.775391 0.175781
vn 0.959626 -0.041743 -0.278165
v 2.085443 0.693209 0.824334
vt -2.839844 0.105469
vn 0.377746 -0.007442 -0.925879
v 2.109264 0.674137 0.819284
vt -2.814453 0.128906
vn 0.366315 0.000000 -0.930491
v 2.057158 0.686385 0.849300
vt -2.880859 0.113281
vn 0.382188 -0.014876 -0.923965
v 2.083593 0.666466 0.843792
vt -2.853516 0.138672
vn 0.370714 0.000000 -0.928747
v 2.036543 0.733062 0.828449
vt -2.884766 0.052734
vn 0.391105 -0.022384 -0.920074
v 2.059024 0.714682 0.827747
vt -2.865234 0.077637
vn 0.389282 -0.022490 -0.920844
v 1.995249 0.730191 0.855362
vt -2.939453 0.053711
vn 0.405366 -0.045494 -0.913022
v 2.026089 0.709248 0.853092
vt -2.910156 0.083008
vn 0.393724 -0.030031 -0.918738
v 2.125111 0.728227 0.756754
vt -2.757812 0.052734
vn 0.977370 -0.104974 -0.183655
v 2.090800 0.731933 0.789071
vt -2.810547 0.053711
vn 0.956275 -0.049237 -0.288296
v 2.115682 0.741676 0.747085
vt -2.759766 0.031738
vn 0.976925 -0.104575 -0.186227
v 2.076181 0.747505 0.785719
vt -2.822266 0.032227
vn 0.940207 -0.021732 -0.339909
v 2.014723 0.751428 0.825506
vt -2.902344 0.026367
vn 0.398277 -0.030090 -0.916772
v 1.958435 0.752874 0.855754
vt -2.972656 0.019531
vn 0.405366 -0.045494 -0.913022
v 2.174852 0.718449 0.695684
vt -2.671875 0.045898
vn 0.983416 -0.154143 -0.095568
v 2.152407 0.723255 0.724223
vt -2.710938 0.049316
vn 0.982590 -0.139046 -0.123223
v 2.164106 0.730914 0.688593
vt -2.675781 0.026855
vn 0.983207 -0.155102 -0.096162
v 2.143093 0.736347 0.714618
vt -2.712891 0.028809
vn 0.982313 -0.138542 -0.125966
v 2.223549 0.704279 0.631622
vt -2.582031 0.040039
vn 0.982745 -0.174873 -0.060267
v 2.198784 0.711840 0.664610
vt -2.626953 0.042969
vn 0.983243 -0.165426 -0.076599
v 2.214494 0.715079 0.623653
vt -2.583984 0.022461
vn 0.982745 -0.174873 -0.060267
v 2.189601 0.723272 0.656208
vt -2.628906 0.024414
vn 0.983243 -0.165426 -0.076599
v 2.271676 0.686764 0.569299
vt -2.492188 0.037598
vn 0.982500 -0.179205 -0.050786
v 2.247958 0.695797 0.599223
vt -2.535156 0.038086
vn 0.982293 -0.180259 -0.051055
v 2.264568 0.695773 0.559784
vt -2.492188 0.020996
vn 0.982500 -0.179205 -0.050786
v 2.239726 0.705836 0.590488
vt -2.537109 0.020508
vn 0.982293 -0.180259 -0.051055
v 2.316579 0.665431 0.521959
vt -2.417969 0.045410
vn 0.982818 -0.175409 -0.057450
v 2.295059 0.676338 0.543139
vt -2.453125 0.040039
vn 0.982293 -0.180259 -0.051055
v 2.313866 0.672384 0.510930
vt -2.412109 0.031738
vn 0.982818 -0.175409 -0.057450
v 2.290552 0.684029 0.532301
vt -2.447266 0.025391
vn 0.982293 -0.180259 -0.051055
v 2.372321 0.633232 0.472261
vt -2.330078 0.065918
vn 0.982745 -0.174873 -0.060267
v 2.355369 0.643900 0.486895
vt -2.355469 0.058594
vn 0.982293 -0.180259 -0.051055
v 2.375275 0.637965 0.459200
vt -2.318359 0.055176
vn 0.982606 -0.154989 -0.102298
v 2.354994 0.649982 0.476101
vt -2.349609 0.046875
vn 0.982293 -0.180259 -0.051055
v 2.337471 0.654254 0.502877
vt -2.384766 0.052246
vn 0.982818 -0.175409 -0.057450
v 2.334945 0.661469 0.492969
vt -2.378906 0.039062
vn 0.982818 -0.175409 -0.057450
v 2.222557 0.617673 0.737489
vt -2.955078 0.888367
vn -0.254785 -0.836098 -0.485823
v 2.223080 0.618044 0.737843
vt -2.955078 0.888428
vn -0.952049 -0.281884 0.118926
v 2.213722 0.619709 0.747956
vt -2.953125 0.873657
vn -0.954471 -0.277621 0.109145
v 2.214245 0.620073 0.748316
vt -2.955078 0.873779
vn -0.954471 -0.277621 0.109145
v 2.217897 0.632942 0.728346
vt -2.931641 0.625488
vn -0.952860 -0.285250 0.103394
v 2.218421 0.633306 0.728706
vt -2.933594 0.625488
vn -0.952860 -0.285250 0.103394
v 2.237103 0.628963 0.703754
vt -2.931641 0.591797
vn -0.640812 0.767485 -0.018087
v 2.237625 0.629335 0.704108
vt -2.933594 0.591797
vn -0.951189 0.280301 0.129116
v 2.237103 0.628963 0.703754
vt -2.955078 0.921814
vn -0.656903 -0.753939 0.007379
v 2.237625 0.629335 0.704108
vt -2.955078 0.921814
vn -0.950579 -0.282016 0.129875
v 2.200264 0.622911 0.763404
vt -2.955078 0.851074
vn -0.957783 -0.268825 0.101907
v 2.200780 0.623261 0.763788
vt -2.955078 0.851074
vn -0.957783 -0.268825 0.101907
v 2.179369 0.627566 0.784881
vt -2.955078 0.817871
vn -0.962739 -0.251316 0.099865
v 2.179858 0.627903 0.785309
vt -2.955078 0.817871
vn -0.962735 -0.249846 0.103525
v 2.179383 0.642326 0.773121
vt -2.931641 0.692383
vn -0.960884 -0.261513 0.091180
v 2.179872 0.642663 0.773548
vt -2.933594 0.692383
vn -0.961392 -0.261682 0.085138
v 2.199869 0.637145 0.750842
vt -2.931641 0.658447
vn -0.956227 -0.277617 0.092512
v 2.200385 0.637495 0.751226
vt -2.933594 0.658447
vn -0.956227 -0.277617 0.092512
v 2.110531 0.649405 0.833827
vt -2.955078 0.721924
vn -0.967434 -0.214314 0.134687
v 2.129247 0.641038 0.823915
vt -2.955078 0.747070
vn -0.967832 -0.223830 0.114896
v 2.110956 0.649727 0.834328
vt -2.955078 0.721924
vn -0.967434 -0.214314 0.134687
v 2.129688 0.641360 0.824404
vt -2.955078 0.747070
vn -0.967450 -0.225140 0.115554
v 2.132894 0.659030 0.808884
vt -2.931641 0.758423
vn -0.968489 -0.223977 0.108921
v 2.133319 0.659352 0.809386
vt -2.933594 0.758423
vn -0.968519 -0.225609 0.105221
v 2.144888 0.653357 0.801618
vt -2.931641 0.743408
vn -0.967507 -0.237377 0.087077
v 2.145329 0.653678 0.802106
vt -2.931641 0.743408
vn -0.967507 -0.237377 0.087077
v 2.147557 0.635282 0.811368
vt -2.955078 0.771973
vn -0.965399 -0.236792 0.109241
v 2.148012 0.635608 0.811840
vt -2.955078 0.771973
vn -0.965399 -0.236792 0.109241
v 2.156605 0.649184 0.792814
vt -2.931641 0.728271
vn -0.964310 -0.248683 0.090906
v 2.157059 0.649510 0.793286
vt -2.933594 0.728271
vn -0.964310 -0.248683 0.090906
v 2.083593 0.666466 0.843792
vt -2.955078 0.683594
vn -0.965457 -0.207361 0.157779
v 2.083989 0.666803 0.844307
vt -2.955078 0.683594
vn -0.965457 -0.207361 0.157779
v 2.057158 0.686385 0.849300
vt -2.955078 0.643799
vn -0.959633 -0.195746 0.201959
v 2.057526 0.686747 0.849819
vt -2.955078 0.643799
vn -0.959633 -0.195746 0.201959
v 2.085443 0.693209 0.824334
vt -2.931641 0.827148
vn -0.962865 -0.200088 0.181259
v 2.085810 0.693572 0.824853
vt -2.933594 0.827148
vn -0.962865 -0.200088 0.181259
v 2.109264 0.674137 0.819284
vt -2.931641 0.793091
vn -0.967434 -0.214314 0.134687
v 2.109660 0.674474 0.819800
vt -2.933594 0.793091
vn -0.967434 -0.214314 0.134687
v 2.026089 0.709248 0.853092
vt -2.955078 0.598877
vn -0.949259 -0.184073 0.254999
v 2.026428 0.709633 0.853614
vt -2.955078 0.598877
vn -0.949259 -0.184073 0.254999
v 1.995249 0.730191 0.855362
vt -2.955078 0.555908
vn -0.931236 -0.169653 0.322517
v 1.995555 0.730610 0.855877
vt -2.955078 0.555908
vn -0.931236 -0.169653 0.322517
v 2.036543 0.733062 0.828449
vt -2.931641 0.897095
vn -0.899015 0.159034 0.408021
v 2.036810 0.733514 0.828960
vt -2.933594 0.897217
vn -0.899015 0.159034 0.408021
v 2.059024 0.714682 0.827747
vt -2.931641 0.864502
vn -0.955885 -0.191185 0.223004
v 2.059363 0.715067 0.828270
vt -2.933594 0.864502
vn -0.955885 -0.191185 0.223004
v 1.958435 0.752874 0.855754
vt -2.955078 0.506348
vn -0.914345 0.160311 0.371852
v 1.958724 0.753317 0.856260
vt -2.955078 0.506348
vn -0.914345 0.160311 0.371852
v 1.958435 0.752874 0.855754
vt -2.982422 0.324219
vn 0.299524 -0.944240 0.136733
v 1.958724 0.753317 0.856260
vt -2.980469 0.324219
vn 0.299524 -0.944240 0.136733
v 2.014723 0.751428 0.825506
vt -2.982422 0.397461
vn 0.338512 -0.935743 0.098966
v 2.015415 0.751867 0.825774
vt -2.980469 0.397949
vn 0.337610 -0.936426 0.095525
v 2.076181 0.747505 0.785719
vt -2.982422 0.481445
vn 0.392309 -0.919506 0.024531
v 2.076575 0.748005 0.786153
vt -2.980469 0.481445
vn 0.392309 -0.919506 0.024531
v 2.115682 0.741676 0.747085
vt -2.982422 0.545410
vn 0.415497 -0.907773 -0.057542
v 2.116127 0.742210 0.747423
vt -2.980469 0.545410
vn 0.415497 -0.907773 -0.057542
v 2.125111 0.728227 0.756754
vt -2.966797 0.512695
vn -0.902389 -0.251856 0.349661
v 2.125555 0.728761 0.757092
vt -2.968750 0.512695
vn -0.902389 -0.251856 0.349661
v 2.090800 0.731933 0.789071
vt -2.966797 0.460449
vn -0.913505 -0.211362 0.347612
v 2.091193 0.732434 0.789504
vt -2.968750 0.460449
vn -0.913505 -0.211362 0.347612
v 2.036543 0.733062 0.828449
vt -2.968750 0.386719
vn -0.894504 -0.180305 0.409088
v 2.036810 0.733514 0.828960
vt -2.968750 0.386719
vn -0.894504 -0.180305 0.409088
v 2.143093 0.736347 0.714618
vt -2.982422 0.594482
vn 0.410075 -0.906911 -0.096705
v 2.143559 0.736893 0.714905
vt -2.980469 0.594482
vn 0.410075 -0.906911 -0.096705
v 2.164106 0.730914 0.688593
vt -2.982422 0.631592
vn 0.410136 -0.903064 -0.127530
v 2.164581 0.731467 0.688852
vt -2.980469 0.631592
vn 0.410136 -0.903064 -0.127530
v 2.174852 0.718449 0.695684
vt -2.966797 0.600586
vn -0.879794 -0.284651 0.380706
v 2.175327 0.719002 0.695944
vt -2.968750 0.600586
vn -0.879794 -0.284651 0.380706
v 2.152407 0.723255 0.724223
vt -2.966797 0.560059
vn -0.888282 -0.274430 0.368297
v 2.152873 0.723802 0.724510
vt -2.968750 0.560059
vn -0.888282 -0.274430 0.368297
v 2.189601 0.723272 0.656208
vt -2.982422 0.677490
vn 0.406013 -0.903082 -0.139988
v 2.190080 0.723831 0.656446
vt -2.980469 0.677490
vn 0.406013 -0.903082 -0.139988
v 2.214494 0.715079 0.623653
vt -2.982422 0.723389
vn 0.404410 -0.901157 -0.156103
v 2.214974 0.715644 0.623873
vt -2.980469 0.723389
vn 0.404410 -0.901157 -0.156103
v 2.223549 0.704279 0.631622
vt -2.966797 0.690674
vn -0.866080 -0.296335 0.402604
v 2.224030 0.704845 0.631842
vt -2.968750 0.690674
vn -0.866080 -0.296335 0.402604
v 2.198784 0.711840 0.664610
vt -2.966797 0.644531
vn -0.874181 -0.291409 0.388443
v 2.199262 0.712400 0.664847
vt -2.968750 0.644531
vn -0.874181 -0.291409 0.388443
v 2.239726 0.705836 0.590488
vt -2.982422 0.769165
vn 0.397795 -0.903184 -0.161300
v 2.240205 0.706408 0.590694
vt -2.980469 0.769165
vn 0.397795 -0.903184 -0.161300
v 2.264568 0.695773 0.559784
vt -2.982422 0.812256
vn 0.395256 -0.904486 -0.160245
v 2.265044 0.696348 0.559985
vt -2.980469 0.812256
vn 0.395256 -0.904486 -0.160245
v 2.271676 0.686764 0.569299
vt -2.966797 0.779541
vn -0.854687 -0.300327 0.423454
v 2.272152 0.687339 0.569499
vt -2.968750 0.779541
vn -0.854687 -0.300327 0.423454
v 2.247958 0.695797 0.599223
vt -2.966797 0.736328
vn -0.859492 -0.299316 0.414347
v 2.248437 0.696369 0.599429
vt -2.968750 0.736328
vn -0.859492 -0.299316 0.414347
v 2.290552 0.684029 0.532301
vt -2.982422 0.852661
vn 0.399115 -0.904238 -0.151861
v 2.291034 0.684598 0.532510
vt -2.980469 0.852661
vn 0.399115 -0.904238 -0.151861
v 2.313866 0.672384 0.510930
vt -2.982422 0.887756
vn 0.414007 -0.898263 -0.147379
v 2.314359 0.672935 0.511158
vt -2.980469 0.887756
vn 0.414007 -0.898263 -0.147379
v 2.316579 0.665431 0.521959
vt -2.966797 0.855591
vn -0.879908 -0.304586 0.364676
v 2.317072 0.665982 0.522188
vt -2.968750 0.855591
vn -0.879908 -0.304586 0.364676
v 2.295059 0.676338 0.543139
vt -2.966797 0.820068
vn -0.862565 -0.304239 0.404253
v 2.295541 0.676906 0.543347
vt -2.968750 0.820068
vn -0.862565 -0.304239 0.404253
v 2.354994 0.649982 0.476101
vt -2.982422 0.949310
vn 0.450707 -0.880337 -0.147881
v 2.355520 0.650482 0.476369
vt -2.980469 0.949310
vn 0.450707 -0.880337 -0.147881
v 2.375275 0.637965 0.459200
vt -2.982422 0.983307
vn 0.053105 -0.485607 -0.872563
v 2.375808 0.638453 0.459479
vt -2.980469 0.983322
vn 0.456287 -0.877541 -0.147387
v 2.375275 0.637965 0.459200
vt -2.966797 0.960815
vn -0.197072 0.554176 0.808734
v 2.375808 0.638453 0.459479
vt -2.968750 0.960846
vn -0.917524 0.304623 0.255646
v 2.372321 0.633232 0.472261
vt -2.966797 0.945038
vn -0.203894 -0.659968 -0.723097
v 2.372854 0.633719 0.472539
vt -2.968750 0.945038
vn -0.917667 -0.301243 0.259114
v 2.355369 0.643900 0.486895
vt -2.966797 0.918152
vn -0.910732 -0.305979 0.277389
v 2.355895 0.644401 0.487163
vt -2.968750 0.918152
vn -0.910732 -0.305979 0.277389
v 2.334945 0.661469 0.492969
vt -2.982422 0.918274
vn 0.428617 -0.892119 -0.142865
v 2.335453 0.661996 0.493219
vt -2.980469 0.918274
vn 0.428617 -0.892119 -0.142865
v 2.337471 0.654254 0.502877
vt -2.966797 0.889221
vn -0.896385 -0.306108 0.320611
v 2.337980 0.654781 0.503126
vt -2.968750 0.889221
vn -0.896385 -0.306108 0.320611
v 2.167449 0.316333 0.818222
vt -2.466797 0.371582
vn 0.950338 -0.220086 0.220043
v 2.159927 0.323971 0.826523
vt -2.482422 0.371582
vn 0.950338 -0.220086 0.220043
v 2.175025 0.321021 0.817443
vt -2.470703 0.360840
vn 0.950338 -0.220086 0.220043
v 2.167909 0.328041 0.826103
vt -2.482422 0.360840
vn 0.950338 -0.220086 0.220043
v 2.152344 0.333999 0.835391
vt -2.500000 0.371582
vn 0.914593 -0.210045 0.345544
v 2.160856 0.337392 0.834329
vt -2.500000 0.360840
vn 0.914593 -0.210045 0.345544
v 2.159927 0.323971 0.826523
vt -2.482422 0.371582
vn 0.914593 -0.210045 0.345544
v 2.167909 0.328041 0.826103
vt -2.482422 0.360840
vn 0.914593 -0.210045 0.345544
v 2.145902 0.344960 0.842537
vt -2.517578 0.371582
vn 0.850782 -0.198324 0.486660
v 2.155262 0.347895 0.841269
vt -2.517578 0.360840
vn 0.847859 -0.195678 0.492793
v 2.152344 0.333999 0.835391
vt -2.500000 0.371582
vn 0.841784 -0.192340 0.504385
v 2.160856 0.337392 0.834329
vt -2.500000 0.360840
vn 0.832346 -0.186207 0.522041
v 2.142071 0.356738 0.847475
vt -2.533203 0.371582
vn 0.663456 -0.142215 0.734575
v 2.151104 0.359357 0.846460
vt -2.533203 0.360840
vn 0.669374 -0.145727 0.728493
v 2.145902 0.344960 0.842537
vt -2.517578 0.371582
vn 0.679081 -0.150033 0.718567
v 2.155262 0.347895 0.841269
vt -2.517578 0.360840
vn 0.690428 -0.156955 0.706169
v 2.139663 0.368904 0.851057
vt -2.546875 0.371582
vn 0.479009 -0.093394 0.872828
v 2.148240 0.370704 0.850155
vt -2.546875 0.360840
vn 0.505600 -0.106057 0.856225
v 2.142071 0.356738 0.847475
vt -2.533203 0.371582
vn 0.513140 -0.109989 0.851228
v 2.151104 0.359357 0.846460
vt -2.533203 0.360840
vn 0.537578 -0.118115 0.834900
v 2.139663 0.368904 0.851057
vt -2.546875 0.371582
vn 0.378602 -0.082312 0.921892
v 2.136172 0.389758 0.855447
vt -2.572266 0.371582
vn 0.378602 -0.082312 0.921892
v 2.148240 0.370704 0.850155
vt -2.546875 0.360840
vn 0.378602 -0.082312 0.921892
v 2.144779 0.391662 0.854659
vt -2.572266 0.360840
vn 0.378602 -0.082312 0.921892
v 2.140220 0.437157 0.861364
vt -2.623047 0.360840
vn 0.244135 -0.048835 0.968511
v 2.144779 0.391662 0.854659
vt -2.572266 0.360840
vn 0.254740 -0.053428 0.965532
v 2.131152 0.435289 0.862004
vt -2.623047 0.371582
vn 0.244135 -0.048835 0.968511
v 2.136172 0.389758 0.855447
vt -2.572266 0.371582
vn 0.254740 -0.053428 0.965532
v 2.159222 0.311137 0.824823
vt -2.472656 0.383301
vn 0.965186 -0.227486 0.129102
v 2.154176 0.317949 0.831433
vt -2.482422 0.380371
vn 0.956845 -0.223520 0.185707
v 2.167449 0.316333 0.818222
vt -2.466797 0.371582
vn 0.958834 -0.224159 0.174328
v 2.159927 0.323971 0.826523
vt -2.482422 0.371582
vn 0.947666 -0.219214 0.232108
v 2.157426 0.311621 0.842633
vt -2.482422 0.391602
vn 0.969407 -0.125308 0.211065
v 2.154176 0.317949 0.831433
vt -2.482422 0.380371
vn 0.963924 -0.132051 0.231114
v 2.161439 0.305425 0.830042
vt -2.468750 0.391602
vn 0.962758 -0.135191 0.234139
v 2.159222 0.311137 0.824823
vt -2.472656 0.383301
vn 0.953840 -0.144764 0.263119
v 2.146840 0.328635 0.840830
vt -2.500000 0.380371
vn 0.795790 -0.180207 0.578138
v 2.148954 0.324202 0.851700
vt -2.500000 0.391602
vn 0.786707 -0.181595 0.590012
v 2.140703 0.340526 0.847786
vt -2.517578 0.380371
vn 0.781477 -0.185907 0.595594
v 2.143410 0.336935 0.857963
vt -2.517578 0.391602
vn 0.771867 -0.187259 0.607582
v 2.140703 0.340526 0.847786
vt -2.517578 0.380371
vn 0.645226 -0.151373 0.748845
v 2.143410 0.336935 0.857963
vt -2.517578 0.391602
vn 0.640542 -0.152171 0.752695
v 2.135629 0.353213 0.852924
vt -2.533203 0.380371
vn 0.635783 -0.152962 0.756559
v 2.139453 0.350839 0.862588
vt -2.533203 0.391602
vn 0.628649 -0.157192 0.761637
v 2.135629 0.353213 0.852924
vt -2.533203 0.380371
vn 0.448638 -0.089771 0.889194
v 2.139453 0.350839 0.862588
vt -2.533203 0.391602
vn 0.450091 -0.094127 0.888008
v 2.133106 0.366111 0.856539
vt -2.546875 0.380371
vn 0.443545 -0.094502 0.891256
v 2.136881 0.364093 0.865873
vt -2.546875 0.391602
vn 0.444994 -0.098924 0.890053
v 2.133106 0.366111 0.856539
vt -2.546875 0.380371
vn 0.320426 -0.065751 0.944989
v 2.136881 0.364093 0.865873
vt -2.546875 0.391602
vn 0.320426 -0.065751 0.944989
v 2.129933 0.387468 0.860808
vt -2.572266 0.380371
vn 0.314190 -0.070305 0.946753
v 2.134121 0.385818 0.869457
vt -2.572266 0.391602
vn 0.314190 -0.070305 0.946753
v 2.129933 0.387468 0.860808
vt -2.572266 0.380371
vn 0.220169 -0.044881 0.974429
v 2.134121 0.385818 0.869457
vt -2.572266 0.391602
vn 0.220169 -0.044881 0.974429
v 2.125169 0.434399 0.867233
vt -2.623047 0.380371
vn 0.220998 -0.049113 0.974037
v 2.129576 0.434252 0.874978
vt -2.623047 0.391602
vn 0.213171 -0.049217 0.975774
v 2.129933 0.387468 0.860808
vt -2.572266 0.380371
vn 0.236492 -0.048962 0.970399
v 2.125169 0.434399 0.867233
vt -2.623047 0.380371
vn 0.246997 -0.053540 0.967536
v 2.136172 0.389758 0.855447
vt -2.572266 0.371582
vn 0.236492 -0.048962 0.970399
v 2.131152 0.435289 0.862004
vt -2.623047 0.371582
vn 0.254740 -0.053428 0.965532
v 2.129933 0.387468 0.860808
vt -2.572266 0.380371
vn 0.344747 -0.073885 0.935783
v 2.136172 0.389758 0.855447
vt -2.572266 0.371582
vn 0.344747 -0.073885 0.935783
v 2.133106 0.366111 0.856539
vt -2.546875 0.380371
vn 0.363082 -0.078411 0.928452
v 2.135629 0.353213 0.852924
vt -2.533203 0.380371
vn 0.691914 -0.161237 0.703745
v 2.142071 0.356738 0.847475
vt -2.533203 0.371582
vn 0.682122 -0.158676 0.713815
v 2.140703 0.340526 0.847786
vt -2.517578 0.380371
vn 0.673939 -0.158625 0.721557
v 2.145902 0.344960 0.842537
vt -2.517578 0.371582
vn 0.659759 -0.155047 0.735308
v 2.133106 0.366111 0.856539
vt -2.546875 0.380371
vn 0.463009 -0.093444 0.881414
v 2.139663 0.368904 0.851057
vt -2.546875 0.371582
vn 0.466346 -0.094113 0.879582
v 2.135629 0.353213 0.852924
vt -2.533203 0.380371
vn 0.466346 -0.094113 0.879582
v 2.142071 0.356738 0.847475
vt -2.533203 0.371582
vn 0.474218 -0.098165 0.874918
v 2.140703 0.340526 0.847786
vt -2.517578 0.380371
vn 0.810584 -0.189667 0.554058
v 2.145902 0.344960 0.842537
vt -2.517578 0.371582
vn 0.826597 -0.195611 0.527706
v 2.146840 0.328635 0.840830
vt -2.500000 0.380371
vn 0.837514 -0.196651 0.509803
v 2.152344 0.333999 0.835391
vt -2.500000 0.371582
vn 0.848771 -0.199549 0.489662
v 2.154176 0.317949 0.831433
vt -2.482422 0.380371
vn 0.905204 -0.202314 0.373731
v 2.146840 0.328635 0.840830
vt -2.500000 0.380371
vn 0.910370 -0.203842 0.360103
v 2.159927 0.323971 0.826523
vt -2.482422 0.371582
vn 0.906931 -0.204599 0.368260
v 2.152344 0.333999 0.835391
vt -2.500000 0.371582
vn 0.914166 -0.206584 0.348746
v 2.157426 0.311621 0.842633
vt -2.482422 0.391602
vn 0.881126 -0.211488 0.422953
v 2.148954 0.324202 0.851700
vt -2.500000 0.391602
vn 0.894055 -0.204479 0.398564
v 2.154176 0.317949 0.831433
vt -2.482422 0.380371
vn 0.888709 -0.206457 0.409356
v 2.146840 0.328635 0.840830
vt -2.500000 0.380371
vn 0.904661 -0.198759 0.376940
v 2.170380 0.308884 0.821797
vt -2.460938 0.379395
vn 0.765454 -0.571811 -0.295147
v 2.177704 0.310851 0.822664
vt -2.453125 0.376465
vn 0.765454 -0.571811 -0.295147
v 2.175007 0.308616 0.825349
vt -2.455078 0.381348
vn 0.765454 -0.571811 -0.295147
v 2.170380 0.308884 0.821797
vt -2.460938 0.379395
vn 0.825453 -0.285782 -0.486781
v 2.169552 0.307882 0.827056
vt -2.460938 0.385254
vn 0.825453 -0.285782 -0.486781
v 2.163224 0.307666 0.828416
vt -2.466797 0.388184
vn 0.825453 -0.285782 -0.486781
v 2.170380 0.308884 0.821797
vt -2.460938 0.379395
vn 0.913804 -0.406155 0.000020
v 2.163224 0.307666 0.828416
vt -2.466797 0.388184
vn 0.913804 -0.406155 0.000020
v 2.162009 0.310838 0.825516
vt -2.468750 0.383301
vn 0.913804 -0.406155 0.000020
v 2.170380 0.308884 0.821797
vt -2.460938 0.379395
vn 0.905362 -0.402422 -0.135558
v 2.168404 0.314874 0.820388
vt -2.464844 0.374023
vn 0.905362 -0.402422 -0.135558
v 2.173113 0.314020 0.820373
vt -2.458984 0.373047
vn 0.905362 -0.402422 -0.135558
v 2.170380 0.308884 0.821797
vt -2.460938 0.379395
vn 0.822449 -0.428731 -0.373856
v 2.177014 0.312555 0.821112
vt -2.455078 0.374023
vn 0.822449 -0.428731 -0.373856
v 2.177704 0.310851 0.822664
vt -2.453125 0.376465
vn 0.822449 -0.428731 -0.373856
v 2.170380 0.308884 0.821797
vt -2.460938 0.379395
vn 0.811310 -0.457947 -0.363403
v 2.175007 0.308616 0.825349
vt -2.455078 0.381348
vn 0.811310 -0.457947 -0.363403
v 2.169552 0.307882 0.827056
vt -2.460938 0.385254
vn 0.811310 -0.457947 -0.363403
v 2.170380 0.308884 0.821797
vt -2.460938 0.379395
vn 0.925067 -0.363699 0.109427
v 2.162009 0.310838 0.825516
vt -2.468750 0.383301
vn 0.925067 -0.363699 0.109427
v 2.168404 0.314874 0.820388
vt -2.464844 0.374023
vn 0.925067 -0.363699 0.109427
v 2.170380 0.308884 0.821797
vt -2.460938 0.379395
vn 0.881632 -0.371757 -0.290728
v 2.173113 0.314020 0.820373
vt -2.458984 0.373047
vn 0.881632 -0.371757 -0.290728
v 2.177014 0.312555 0.821112
vt -2.455078 0.374023
vn 0.881632 -0.371757 -0.290728
v 2.161439 0.305425 0.830042
vt -2.468750 0.391602
vn 0.914009 -0.349106 -0.206669
v 2.163224 0.307666 0.828416
vt -2.466797 0.388184
vn 0.914009 -0.349106 -0.206669
v 2.170034 0.305701 0.828215
vt -2.458984 0.387695
vn 0.914009 -0.349106 -0.206669
v 2.169552 0.307882 0.827056
vt -2.460938 0.385254
vn 0.914009 -0.349106 -0.206669
v 2.170034 0.305701 0.828215
vt -2.458984 0.387695
vn 0.895555 -0.443780 -0.032252
v 2.169552 0.307882 0.827056
vt -2.460938 0.385254
vn 0.895555 -0.443780 -0.032252
v 2.176364 0.306547 0.826236
vt -2.451172 0.383301
vn 0.895555 -0.443780 -0.032252
v 2.175007 0.308616 0.825349
vt -2.455078 0.381348
vn 0.891858 -0.451880 -0.019829
v 2.176364 0.306547 0.826236
vt -2.451172 0.383301
vn 0.900034 -0.434395 0.035216
v 2.175007 0.308616 0.825349
vt -2.455078 0.381348
vn 0.900288 -0.434672 0.023275
v 2.180289 0.309806 0.822319
vt -2.449219 0.375977
vn 0.901875 -0.431722 0.015418
v 2.177704 0.310851 0.822664
vt -2.453125 0.376465
vn 0.903384 -0.428765 0.007626
v 2.180289 0.309806 0.822319
vt -2.449219 0.375977
vn 0.899793 -0.436299 -0.003905
v 2.177704 0.310851 0.822664
vt -2.453125 0.376465
vn 0.906316 -0.421952 -0.023410
v 2.178904 0.313233 0.819199
vt -2.453125 0.371094
vn 0.909104 -0.415388 -0.031343
v 2.177014 0.312555 0.821112
vt -2.455078 0.374023
vn 0.916131 -0.397666 -0.050656
v 2.178904 0.313233 0.819199
vt -2.453125 0.371094
vn 0.905387 -0.354726 -0.233332
v 2.177014 0.312555 0.821112
vt -2.455078 0.374023
vn 0.905387 -0.354726 -0.233332
v 2.173637 0.315215 0.818202
vt -2.458984 0.370117
vn 0.906526 -0.347622 -0.239520
v 2.173113 0.314020 0.820373
vt -2.458984 0.373047
vn 0.905675 -0.341463 -0.251307
v 2.173637 0.315215 0.818202
vt -2.458984 0.370117
vn 0.884009 -0.435528 -0.169834
v 2.173113 0.314020 0.820373
vt -2.458984 0.373047
vn 0.885745 -0.429746 -0.175425
v 2.167449 0.316333 0.818222
vt -2.466797 0.371582
vn 0.885745 -0.429746 -0.175425
v 2.168404 0.314874 0.820388
vt -2.464844 0.374023
vn 0.885745 -0.429746 -0.175425
v 2.167449 0.316333 0.818222
vt -2.466797 0.371582
vn 0.853564 -0.456511 -0.251052
v 2.168404 0.314874 0.820388
vt -2.464844 0.374023
vn 0.852623 -0.451681 -0.262712
v 2.159222 0.311137 0.824823
vt -2.472656 0.383301
vn 0.854850 -0.425090 -0.297539
v 2.162009 0.310838 0.825516
vt -2.468750 0.383301
vn 0.854055 -0.412676 -0.316683
v 2.159222 0.311137 0.824823
vt -2.472656 0.383301
vn 0.854055 -0.412676 -0.316683
v 2.162009 0.310838 0.825516
vt -2.468750 0.383301
vn 0.852147 -0.406735 -0.329261
v 2.161439 0.305425 0.830042
vt -2.468750 0.391602
vn 0.850439 -0.391059 -0.351890
v 2.163224 0.307666 0.828416
vt -2.466797 0.388184
vn 0.848209 -0.376993 -0.372045
v 2.143240 0.388325 0.861220
vt -2.757812 0.916138
vn -0.092796 -0.995628 0.010683
v 2.138509 0.434946 0.867402
vt -2.708984 0.916138
vn -0.085697 -0.996162 0.017837
v 2.139660 0.388607 0.857766
vt -2.757812 0.921936
vn -0.092796 -0.995628 0.010683
v 2.134796 0.434895 0.864227
vt -2.708984 0.921936
vn -0.085697 -0.996162 0.017837
v 2.146408 0.367151 0.857095
vt -2.781250 0.916138
vn -0.153490 -0.987587 0.033350
v 2.142947 0.367505 0.853515
vt -2.781250 0.921936
vn -0.153490 -0.987587 0.033350
v 2.148808 0.354749 0.853651
vt -2.794922 0.916138
vn -0.153490 -0.987587 0.033350
v 2.145379 0.355020 0.849984
vt -2.794922 0.921936
vn -0.153490 -0.987587 0.033350
v 2.143240 0.388325 0.861220
vt -2.757812 0.916138
vn -0.124036 -0.992063 0.020623
v 2.139660 0.388607 0.857766
vt -2.757812 0.921936
vn -0.124036 -0.992063 0.020623
v 2.146408 0.367151 0.857095
vt -2.781250 0.916138
vn -0.124036 -0.992063 0.020623
v 2.142947 0.367505 0.853515
vt -2.781250 0.921936
vn -0.124036 -0.992063 0.020623
v 2.143238 0.352288 0.856396
vt -2.794922 0.909363
vn -0.153490 -0.987587 0.033350
v 2.140663 0.365234 0.860051
vt -2.781250 0.909363
vn -0.153490 -0.987587 0.033350
v 2.159397 0.330977 0.841980
vt -2.830078 0.916138
vn -0.314304 -0.949003 0.024625
v 2.154036 0.327464 0.843935
vt -2.830078 0.909363
vn -0.314304 -0.949003 0.024625
v 2.153312 0.342600 0.848786
vt -2.812500 0.916138
vn -0.314304 -0.949003 0.024625
v 2.147943 0.339353 0.851106
vt -2.812500 0.909363
vn -0.314304 -0.949003 0.024625
v 2.153312 0.342600 0.848786
vt -2.812500 0.916138
vn -0.319891 -0.947275 0.018420
v 2.149981 0.342837 0.845037
vt -2.812500 0.921936
vn -0.319891 -0.947275 0.018420
v 2.159397 0.330977 0.841980
vt -2.830078 0.916138
vn -0.319891 -0.947275 0.018420
v 2.156197 0.331306 0.838136
vt -2.830078 0.921936
vn -0.319891 -0.947275 0.018420
v 2.147943 0.339353 0.851106
vt -2.812500 0.909363
vn -0.252141 -0.967562 0.015741
v 2.143238 0.352288 0.856396
vt -2.794922 0.909363
vn -0.252141 -0.967562 0.015741
v 2.153312 0.342600 0.848786
vt -2.812500 0.916138
vn -0.252141 -0.967562 0.015741
v 2.148808 0.354749 0.853651
vt -2.794922 0.916138
vn -0.257280 -0.966256 0.012505
v 2.163562 0.320933 0.829064
vt -2.849609 0.921936
vn -0.365692 -0.929725 0.043370
v 2.166728 0.320317 0.832886
vt -2.849609 0.916138
vn -0.365692 -0.929725 0.043370
v 2.156197 0.331306 0.838136
vt -2.830078 0.921936
vn -0.365692 -0.929725 0.043370
v 2.159397 0.330977 0.841980
vt -2.830078 0.916138
vn -0.365692 -0.929725 0.043370
v 2.148808 0.354749 0.853651
vt -2.794922 0.916138
vn -0.258044 -0.966087 0.009430
v 2.145379 0.355020 0.849984
vt -2.794922 0.921936
vn -0.258044 -0.966087 0.009430
v 2.153312 0.342600 0.848786
vt -2.812500 0.916138
vn -0.258044 -0.966087 0.009430
v 2.149981 0.342837 0.845037
vt -2.812500 0.921936
vn -0.258044 -0.966087 0.009430
v 2.166728 0.320317 0.832886
vt -2.849609 0.916138
vn -0.359238 -0.932092 0.046397
v 2.161527 0.316316 0.834313
vt -2.849609 0.909363
vn -0.359238 -0.932092 0.046397
v 2.159397 0.330977 0.841980
vt -2.830078 0.916138
vn -0.359238 -0.932092 0.046397
v 2.154036 0.327464 0.843935
vt -2.830078 0.909363
vn -0.354782 -0.933624 0.049761
v 2.166728 0.320317 0.832886
vt -2.849609 0.916138
vn -0.392385 -0.918618 0.046632
v 2.177212 0.307429 0.820049
vt -2.875000 0.916138
vn -0.388140 -0.920240 0.050059
v 2.161527 0.316316 0.834313
vt -2.849609 0.909363
vn -0.392385 -0.918618 0.046632
v 2.171938 0.303358 0.821225
vt -2.875000 0.909363
vn -0.385907 -0.921195 0.049752
v 2.163562 0.320933 0.829064
vt -2.849609 0.921936
vn -0.393553 -0.918263 0.043705
v 2.174183 0.308091 0.816144
vt -2.875000 0.921936
vn -0.393553 -0.918263 0.043705
v 2.166728 0.320317 0.832886
vt -2.849609 0.916138
vn -0.393553 -0.918263 0.043705
v 2.177212 0.307429 0.820049
vt -2.875000 0.916138
vn -0.393553 -0.918263 0.043705
v 2.146408 0.367151 0.857095
vt -2.781250 0.916138
vn -0.117636 -0.992763 0.024150
v 2.137612 0.386708 0.864290
vt -2.757812 0.909363
vn -0.124036 -0.992063 0.020623
v 2.140663 0.365234 0.860051
vt -2.781250 0.909363
vn -0.117636 -0.992763 0.024150
v 2.133003 0.434287 0.870351
vt -2.708984 0.909363
vn -0.086018 -0.996191 0.014306
v 2.138509 0.434946 0.867402
vt -2.708984 0.916138
vn -0.086018 -0.996191 0.014306
v 2.137612 0.386708 0.864290
vt -2.757812 0.909363
vn -0.086018 -0.996191 0.014306
v 2.143240 0.388325 0.861220
vt -2.757812 0.916138
vn -0.086018 -0.996191 0.014306
usemtl Lighting_Original
f 3/3/3 2/2/2 1/1/1
f 4/4/4 2/2/2 3/3/3
f 7/7/7 6/6/6 5/5/5
f 8/8/8 6/6/6 7/7/7
f 5/5/5 3/3/3 1/1/1
f 6/6/6 3/3/3 5/5/5
f 11/11/11 10/10/10 9/9/9
f 12/12/12 10/10/10 11/11/11
f 13/13/13 8/8/8 7/7/7
f 14/14/14 8/8/8 13/13/13
f 17/17/17 16/16/16 15/15/15
f 18/18/18 16/16/16 17/17/17
f 15/15/15 12/12/12 11/11/11
f 16/16/16 12/12/12 15/15/15
f 21/21/21 20/20/20 19/19/19
f 22/22/22 20/20/20 21/21/21
f 19/19/19 18/18/18 17/17/17
f 20/20/20 18/18/18 19/19/19
f 25/25/25 24/24/24 23/23/23
f 26/26/26 24/24/24 25/25/25
f 27/27/27 22/22/22 21/21/21
f 28/28/28 22/22/22 27/27/27
f 23/23/23 22/22/22 28/28/28
f 24/24/24 22/22/22 23/23/23
f 31/31/31 30/30/30 29/29/29
f 32/32/32 30/30/30 31/31/31
f 29/29/29 26/26/26 25/25/25
f 30/30/30 26/26/26 29/29/29
f 35/35/35 34/34/34 33/33/33
f 36/36/36 34/34/34 35/35/35
f 33/33/33 32/32/32 31/31/31
f 34/34/34 32/32/32 33/33/33
f 39/39/39 38/38/38 37/37/37
f 40/40/40 38/38/38 39/39/39
f 37/37/37 36/36/36 35/35/35
f 38/38/38 36/36/36 37/37/37
f 43/43/43 42/42/42 41/41/41
f 44/44/44 42/42/42 43/43/43
f 41/41/41 40/40/40 39/39/39
f 42/42/42 40/40/40 41/41/41
f 47/47/47 46/46/46 45/45/45
f 48/48/48 46/46/46 47/47/47
f 49/49/49 44/44/44 43/43/43
f 50/50/50 44/44/44 49/49/49
f 45/45/45 50/50/50 49/49/49
f 46/46/46 50/50/50 45/45/45
f 53/53/53 52/52/52 51/51/51
f 54/54/54 52/52/52 53/53/53
f 57/57/57 56/56/56 55/55/55
f 58/58/58 56/56/56 57/57/57
f 54/54/54 59/59/59 52/52/52
f 60/60/60 59/59/59 54/54/54
f 63/63/63 62/62/62 61/61/61
f 64/64/64 62/62/62 63/63/63
f 67/67/67 66/66/66 65/65/65
f 68/68/68 66/66/66 67/67/67
f 64/64/64 51/51/51 62/62/62
f 53/53/53 51/51/51 64/64/64
f 58/58/58 65/65/65 56/56/56
f 67/67/67 65/65/65 58/58/58
f 71/71/71 70/70/70 69/69/69
f 72/72/72 70/70/70 71/71/71
f 75/75/75 74/74/74 73/73/73
f 76/76/76 74/74/74 75/75/75
f 78/78/78 61/61/61 77/77/77
f 63/63/63 61/61/61 78/78/78
f 68/68/68 79/79/79 66/66/66
f 80/80/80 79/79/79 68/68/68
f 83/83/83 82/82/82 81/81/81
f 84/84/84 82/82/82 83/83/83
f 87/87/87 86/86/86 85/85/85
f 88/88/88 86/86/86 87/87/87
f 84/84/84 71/71/71 82/82/82
f 72/72/72 71/71/71 84/84/84
f 76/76/76 85/85/85 74/74/74
f 87/87/87 85/85/85 76/76/76
f 91/91/91 90/90/90 89/89/89
f 92/92/92 90/90/90 91/91/91
f 95/95/95 94/94/94 93/93/93
f 96/96/96 94/94/94 95/95/95
f 92/92/92 81/81/81 90/90/90
f 83/83/83 81/81/81 92/92/92
f 88/88/88 93/93/93 86/86/86
f 95/95/95 93/93/93 88/88/88
f 98/98/98 89/89/89 97/97/97
f 91/91/91 89/89/89 98/98/98
f 101/101/101 100/100/100 99/99/99
f 102/102/102 100/100/100 101/101/101
f 105/105/105 104/104/104 103/103/103
f 106/106/106 104/104/104 105/105/105
f 109/109/109 108/108/108 107/107/107
f 110/110/110 108/108/108 109/109/109
f 106/106/106 99/99/99 104/104/104
f 101/101/101 99/99/99 106/106/106
f 112/112/112 107/107/107 111/111/111
f 109/109/109 107/107/107 112/112/112
f 115/115/115 114/114/114 113/113/113
f 116/116/116 114/114/114 115/115/115
f 119/119/119 118/118/118 117/117/117
f 120/120/120 118/118/118 119/119/119
f 116/116/116 103/103/103 114/114/114
f 105/105/105 103/103/103 116/116/116
f 110/110/110 117/117/117 108/108/108
f 119/119/119 117/117/117 110/110/110
f 123/123/123 122/122/122 121/121/121
f 124/124/124 122/122/122 123/123/123
f 127/127/127 126/126/126 125/125/125
f 128/128/128 126/126/126 127/127/127
f 124/124/124 113/113/113 122/122/122
f 115/115/115 113/113/113 124/124/124
f 120/120/120 125/125/125 118/118/118
f 127/127/127 125/125/125 120/120/120
f 131/131/131 130/130/130 129/129/129
f 132/132/132 130/130/130 131/131/131
f 135/135/135 134/134/134 133/133/133
f 136/136/136 134/134/134 135/135/135
f 132/132/132 121/121/121 130/130/130
f 123/123/123 121/121/121 132/132/132
f 128/128/128 133/133/133 126/126/126
f 135/135/135 133/133/133 128/128/128
f 139/139/139 138/138/138 137/137/137
f 140/140/140 138/138/138 139/139/139
f 143/143/143 142/142/142 141/141/141
f 144/144/144 142/142/142 143/143/143
f 140/140/140 129/129/129 138/138/138
f 131/131/131 129/129/129 140/140/140
f 136/136/136 141/141/141 134/134/134
f 143/143/143 141/141/141 136/136/136
f 147/147/147 146/146/146 145/145/145
f 148/148/148 146/146/146 147/147/147
f 151/151/151 150/150/150 149/149/149
f 152/152/152 150/150/150 151/151/151
f 154/154/154 149/149/149 153/153/153
f 151/151/151 149/149/149 154/154/154
f 156/156/156 137/137/137 155/155/155
f 139/139/139 137/137/137 156/156/156
f 144/144/144 157/157/157 142/142/142
f 158/158/158 157/157/157 144/144/144
f 148/148/148 155/155/155 146/146/146
f 156/156/156 155/155/155 148/148/148
f 158/158/158 153/153/153 157/157/157
f 154/154/154 153/153/153 158/158/158
f 79/79/79 75/75/75 73/73/73
f 80/80/80 75/75/75 79/79/79
f 9/9/9 14/14/14 13/13/13
f 10/10/10 14/14/14 9/9/9
f 70/70/70 77/77/77 69/69/69
f 78/78/78 77/77/77 70/70/70
f 161/161/161 160/160/160 159/159/159
f 162/162/162 160/160/160 161/161/161
f 165/165/165 164/164/164 163/163/163
f 166/166/166 164/164/164 165/165/165
f 169/169/169 168/168/168 167/167/167
f 170/170/170 168/168/168 169/169/169
f 173/173/173 172/172/172 171/171/171
f 174/174/174 172/172/172 173/173/173
f 177/177/177 176/176/176 175/175/175
f 178/178/178 176/176/176 177/177/177
f 181/181/181 180/180/180 179/179/179
f 182/182/182 180/180/180 181/181/181
f 185/185/185 184/184/184 183/183/183
f 186/186/186 184/184/184 185/185/185
f 189/189/189 188/188/188 187/187/187
f 190/190/190 188/188/188 189/189/189
f 193/193/193 192/192/192 191/191/191
f 194/194/194 192/192/192 193/193/193
f 197/197/197 196/196/196 195/195/195
f 198/198/198 196/196/196 197/197/197
f 201/201/201 200/200/200 199/199/199
f 202/202/202 200/200/200 201/201/201
f 205/205/205 204/204/204 203/203/203
f 206/206/206 204/204/204 205/205/205
f 209/209/209 208/208/208 207/207/207
f 210/210/210 208/208/208 209/209/209
f 213/213/213 212/212/212 211/211/211
f 214/214/214 212/212/212 213/213/213
f 217/217/217 216/216/216 215/215/215
f 218/218/218 216/216/216 217/217/217
f 220/220/220 219/219/219 182/182/182
f 221/221/221 219/219/219 220/220/220
f 224/224/224 223/223/223 222/222/222
f 225/225/225 223/223/223 224/224/224
f 228/228/228 227/227/227 226/226/226
f 229/229/229 227/227/227 228/228/228
f 232/232/232 231/231/231 230/230/230
f 233/233/233 231/231/231 232/232/232
f 236/236/236 235/235/235 234/234/234
f 237/237/237 235/235/235 236/236/236
f 240/240/240 239/239/239 238/238/238
f 241/241/241 239/239/239 240/240/240
f 244/244/244 243/243/243 242/242/242
f 247/247/247 246/246/246 245/245/245
f 250/250/250 249/249/249 248/248/248
f 253/253/253 252/252/252 251/251/251
f 256/256/256 255/255/255 254/254/254
f 259/259/259 258/258/258 257/257/257
f 262/262/262 261/261/261 260/260/260
f 265/265/265 264/264/264 263/263/263
f 268/268/268 267/267/267 266/266/266
f 269/269/269 267/267/267 268/268/268
f 272/272/272 271/271/271 270/270/270
f 273/273/273 271/271/271 272/272/272
f 276/276/276 275/275/275 274/274/274
f 277/277/277 275/275/275 276/276/276
f 280/280/280 279/279/279 278/278/278
f 281/281/281 279/279/279 280/280/280
f 284/284/284 283/283/283 282/282/282
f 285/285/285 283/283/283 284/284/284
f 288/288/288 287/287/287 286/286/286
f 289/289/289 287/287/287 288/288/288
f 292/292/292 291/291/291 290/290/290
f 293/293/293 291/291/291 292/292/292
f 296/296/296 295/295/295 294/294/294
f 297/297/297 295/295/295 296/296/296
f 300/300/300 299/299/299 298/298/298
f 301/301/301 299/299/299 300/300/300
f 304/304/304 303/303/303 302/302/302
f 305/305/305 303/303/303 304/304/304
f 308/308/308 307/307/307 306/306/306
f 309/309/309 307/307/307 308/308/308
f 305/305/305 311/311/311 310/310/310
f 304/304/304 311/311/311 305/305/305
f 314/314/314 313/313/313 312/312/312
f 315/315/315 313/313/313 314/314/314
f 318/318/318 317/317/317 316/316/316
f 319/319/319 317/317/317 318/318/318
f 322/322/322 321/321/321 320/320/320
f 323/323/323 321/321/321 322/322/322
f 326/326/326 325/325/325 324/324/324
f 327/327/327 325/325/325 326/326/326
f 330/330/330 329/329/329 328/328/328
f 331/331/331 329/329/329 330/330/330
f 334/334/334 333/333/333 332/332/332
f 335/335/335 333/333/333 334/334/334
f 338/338/338 337/337/337 336/336/336
f 339/339/339 337/337/337 338/338/338
f 342/342/342 341/341/341 340/340/340
f 343/343/343 341/341/341 342/342/342
f 346/346/346 345/345/345 344/344/344
f 309/309/309 345/345/345 346/346/346
f 349/349/349 348/348/348 347/347/347
f 350/350/350 348/348/348 349/349/349
f 353/353/353 352/352/352 351/351/351
f 354/354/354 352/352/352 353/353/353
f 357/357/357 356/356/356 355/355/355
f 358/358/358 356/356/356 357/357/357
f 358/358/358 353/353/353 356/356/356
f 354/354/354 353/353/353 358/358/358
f 361/361/361 360/360/360 359/359/359
f 362/362/362 360/360/360 361/361/361
f 364/364/364 355/355/355 363/363/363
f 357/357/357 355/355/355 364/364/364
f 367/367/367 366/366/366 365/365/365
f 368/368/368 366/366/366 367/367/367
f 368/368/368 359/359/359 366/366/366
f 361/361/361 359/359/359 368/368/368
f 371/371/371 370/370/370 369/369/369
f 372/372/372 370/370/370 371/371/371
f 372/372/372 365/365/365 370/370/370
f 367/367/367 365/365/365 372/372/372
f 375/375/375 374/374/374 373/373/373
f 376/376/376 374/374/374 375/375/375
f 378/378/378 369/369/369 377/377/377
f 371/371/371 369/369/369 378/378/378
f 376/376/376 369/369/369 374/374/374
f 377/377/377 369/369/369 376/376/376
f 381/381/381 380/380/380 379/379/379
f 382/382/382 380/380/380 381/381/381
f 382/382/382 373/373/373 380/380/380
f 375/375/375 373/373/373 382/382/382
f 385/385/385 384/384/384 383/383/383
f 386/386/386 384/384/384 385/385/385
f 386/386/386 379/379/379 384/384/384
f 381/381/381 379/379/379 386/386/386
f 389/389/389 388/388/388 387/387/387
f 390/390/390 388/388/388 389/389/389
f 390/390/390 383/383/383 388/388/388
f 385/385/385 383/383/383 390/390/390
f 393/393/393 392/392/392 391/391/391
f 394/394/394 392/392/392 393/393/393
f 394/394/394 387/387/387 392/392/392
f 389/389/389 387/387/387 394/394/394
f 397/397/397 396/396/396 395/395/395
f 398/398/398 396/396/396 397/397/397
f 400/400/400 391/391/391 399/399/399
f 393/393/393 391/391/391 400/400/400
f 398/398/398 399/399/399 396/396/396
f 400/400/400 399/399/399 398/398/398
f 403/403/403 402/402/402 401/401/401
f 404/404/404 402/402/402 403/403/403
f 407/407/407 406/406/406 405/405/405
f 408/408/408 406/406/406 407/407/407
f 401/401/401 410/410/410 409/409/409
f 402/402/402 410/410/410 401/401/401
f 413/413/413 412/412/412 411/411/411
f 414/414/414 412/412/412 413/413/413
f 417/417/417 416/416/416 415/415/415
f 418/418/418 416/416/416 417/417/417
f 411/411/411 404/404/404 403/403/403
f 412/412/412 404/404/404 411/411/411
f 405/405/405 418/418/418 417/417/417
f 406/406/406 418/418/418 405/405/405
f 421/421/421 420/420/420 419/419/419
f 422/422/422 420/420/420 421/421/421
f 425/425/425 424/424/424 423/423/423
f 426/426/426 424/424/424 425/425/425
f 427/427/427 414/414/414 413/413/413
f 428/428/428 414/414/414 427/427/427
f 415/415/415 430/430/430 429/429/429
f 416/416/416 430/430/430 415/415/415
f 433/433/433 432/432/432 431/431/431
f 434/434/434 432/432/432 433/433/433
f 437/437/437 436/436/436 435/435/435
f 438/438/438 436/436/436 437/437/437
f 431/431/431 421/421/421 419/419/419
f 432/432/432 421/421/421 431/431/431
f 423/423/423 438/438/438 437/437/437
f 424/424/424 438/438/438 423/423/423
f 441/441/441 440/440/440 439/439/439
f 442/442/442 440/440/440 441/441/441
f 445/445/445 444/444/444 443/443/443
f 446/446/446 444/444/444 445/445/445
f 439/439/439 434/434/434 433/433/433
f 440/440/440 434/434/434 439/439/439
f 435/435/435 446/446/446 445/445/445
f 436/436/436 446/446/446 435/435/435
f 447/447/447 442/442/442 441/441/441
f 448/448/448 442/442/442 447/447/447
f 451/451/451 450/450/450 449/449/449
f 452/452/452 450/450/450 451/451/451
f 455/455/455 454/454/454 453/453/453
f 456/456/456 454/454/454 455/455/455
f 459/459/459 458/458/458 457/457/457
f 460/460/460 458/458/458 459/459/459
f 453/453/453 452/452/452 451/451/451
f 454/454/454 452/452/452 453/453/453
f 461/461/461 460/460/460 459/459/459
f 462/462/462 460/460/460 461/461/461
f 465/465/465 464/464/464 463/463/463
f 466/466/466 464/464/464 465/465/465
f 469/469/469 468/468/468 467/467/467
f 470/470/470 468/468/468 469/469/469
f 463/463/463 456/456/456 455/455/455
f 464/464/464 456/456/456 463/463/463
f 457/457/457 470/470/470 469/469/469
f 458/458/458 470/470/470 457/457/457
f 473/473/473 472/472/472 471/471/471
f 474/474/474 472/472/472 473/473/473
f 477/477/477 476/476/476 475/475/475
f 478/478/478 476/476/476 477/477/477
f 471/471/471 466/466/466 465/465/465
f 472/472/472 466/466/466 471/471/471
f 467/467/467 478/478/478 477/477/477
f 468/468/468 478/478/478 467/467/467
f 481/481/481 480/480/480 479/479/479
f 482/482/482 480/480/480 481/481/481
f 485/485/485 484/484/484 483/483/483
f 486/486/486 484/484/484 485/485/485
f 479/479/479 474/474/474 473/473/473
f 480/480/480 474/474/474 479/479/479
f 475/475/475 486/486/486 485/485/485
f 476/476/476 486/486/486 475/475/475
f 489/489/489 488/488/488 487/487/487
f 490/490/490 488/488/488 489/489/489
f 493/493/493 492/492/492 491/491/491
f 494/494/494 492/492/492 493/493/493
f 487/487/487 482/482/482 481/481/481
f 488/488/488 482/482/482 487/487/487
f 483/483/483 494/494/494 493/493/493
f 484/484/484 494/494/494 483/483/483
f 497/497/497 496/496/496 495/495/495
f 498/498/498 496/496/496 497/497/497
f 501/501/501 500/500/500 499/499/499
f 502/502/502 500/500/500 501/501/501
f 503/503/503 502/502/502 501/501/501
f 504/504/504 502/502/502 503/503/503
f 505/505/505 490/490/490 489/489/489
f 506/506/506 490/490/490 505/505/505
f 491/491/491 508/508/508 507/507/507
f 492/492/492 508/508/508 491/491/491
f 495/495/495 506/506/506 505/505/505
f 496/496/496 506/506/506 495/495/495
f 507/507/507 504/504/504 503/503/503
f 508/508/508 504/504/504 507/507/507
f 430/430/430 425/425/425 429/429/429
f 426/426/426 425/425/425 430/430/430
f 362/362/362 363/363/363 360/360/360
f 364/364/364 363/363/363 362/362/362
f 420/420/420 428/428/428 427/427/427
f 422/422/422 428/428/428 420/420/420
f 511/511/511 510/510/510 509/509/509
f 512/512/512 510/510/510 511/511/511
f 515/515/515 514/514/514 513/513/513
f 516/516/516 514/514/514 515/515/515
f 519/519/519 518/518/518 517/517/517
f 520/520/520 518/518/518 519/519/519
f 523/523/523 522/522/522 521/521/521
f 524/524/524 522/522/522 523/523/523
f 527/527/527 526/526/526 525/525/525
f 528/528/528 526/526/526 527/527/527
f 531/531/531 530/530/530 529/529/529
f 532/532/532 530/530/530 531/531/531
f 535/535/535 534/534/534 533/533/533
f 536/536/536 534/534/534 535/535/535
f 539/539/539 538/538/538 537/537/537
f 540/540/540 538/538/538 539/539/539
f 543/543/543 542/542/542 541/541/541
f 544/544/544 542/542/542 543/543/543
f 547/547/547 546/546/546 545/545/545
f 548/548/548 546/546/546 547/547/547
f 551/551/551 550/550/550 549/549/549
f 552/552/552 550/550/550 551/551/551
f 555/555/555 554/554/554 553/553/553
f 556/556/556 554/554/554 555/555/555
f 559/559/559 558/558/558 557/557/557
f 560/560/560 558/558/558 559/559/559
f 563/563/563 562/562/562 561/561/561
f 564/564/564 562/562/562 563/563/563
f 567/567/567 566/566/566 565/565/565
f 568/568/568 566/566/566 567/567/567
f 571/571/571 570/570/570 569/569/569
f 529/529/529 570/570/570 571/571/571
f 574/574/574 573/573/573 572/572/572
f 575/575/575 573/573/573 574/574/574
f 578/578/578 577/577/577 576/576/576
f 579/579/579 577/577/577 578/578/578
f 582/582/582 581/581/581 580/580/580
f 583/583/583 581/581/581 582/582/582
f 586/586/586 585/585/585 584/584/584
f 587/587/587 585/585/585 586/586/586
f 590/590/590 589/589/589 588/588/588
f 591/591/591 589/589/589 590/590/590
f 594/594/594 593/593/593 592/592/592
f 597/597/597 596/596/596 595/595/595
f 600/600/600 599/599/599 598/598/598
f 603/603/603 602/602/602 601/601/601
f 606/606/606 605/605/605 604/604/604
f 609/609/609 608/608/608 607/607/607
f 612/612/612 611/611/611 610/610/610
f 615/615/615 614/614/614 613/613/613
f 618/618/618 617/617/617 616/616/616
f 619/619/619 617/617/617 618/618/618
f 622/622/622 621/621/621 620/620/620
f 623/623/623 621/621/621 622/622/622
f 626/626/626 625/625/625 624/624/624
f 627/627/627 625/625/625 626/626/626
f 630/630/630 629/629/629 628/628/628
f 631/631/631 629/629/629 630/630/630
f 634/634/634 633/633/633 632/632/632
f 635/635/635 633/633/633 634/634/634
f 638/638/638 637/637/637 636/636/636
f 639/639/639 637/637/637 638/638/638
f 642/642/642 641/641/641 640/640/640
f 643/643/643 641/641/641 642/642/642
f 646/646/646 645/645/645 644/644/644
f 647/647/647 645/645/645 646/646/646
f 650/650/650 649/649/649 648/648/648
f 651/651/651 649/649/649 650/650/650
f 654/654/654 653/653/653 652/652/652
f 655/655/655 653/653/653 654/654/654
f 658/658/658 657/657/657 656/656/656
f 659/659/659 657/657/657 658/658/658
f 652/652/652 660/660/660 654/654/654
f 661/661/661 660/660/660 652/652/652
f 664/664/664 663/663/663 662/662/662
f 665/665/665 663/663/663 664/664/664
f 668/668/668 667/667/667 666/666/666
f 669/669/669 667/667/667 668/668/668
f 672/672/672 671/671/671 670/670/670
f 673/673/673 671/671/671 672/672/672
f 676/676/676 675/675/675 674/674/674
f 677/677/677 675/675/675 676/676/676
f 680/680/680 679/679/679 678/678/678
f 681/681/681 679/679/679 680/680/680
f 684/684/684 683/683/683 682/682/682
f 685/685/685 683/683/683 684/684/684
f 688/688/688 687/687/687 686/686/686
f 689/689/689 687/687/687 688/688/688
f 692/692/692 691/691/691 690/690/690
f 693/693/693 691/691/691 692/692/692
f 695/695/695 694/694/694 656/656/656
f 696/696/696 694/694/694 695/695/695
f 699/699/699 698/698/698 697/697/697
f 700/700/700 698/698/698 699/699/699
