# Exported from Godot Engine
mtllib Left_Turn_Signal_Original.mtl
o Left_Turn_Signal_Original
v 2.226315 0.665094 -0.630921
vt -2.763672 1.423340
vn -0.273991 0.196680 -0.941406
v 2.230847 0.655026 -0.637900
vt -2.763672 1.416748
vn -0.272555 0.188662 -0.943462
v 2.234502 0.662364 -0.620392
vt -2.771484 1.423340
vn -0.254117 0.139216 -0.957102
v 2.240513 0.652315 -0.624984
vt -2.773438 1.416504
vn -0.250432 0.125175 -0.960008
v 2.248138 0.659182 -0.599963
vt -2.785156 1.423584
vn -0.234935 0.096717 -0.967188
v 2.254876 0.649477 -0.603291
vt -2.787109 1.416504
vn -0.232565 0.090236 -0.968386
v 2.278105 0.653354 -0.550681
vt -2.818359 1.423584
vn -0.228761 0.076215 -0.970494
v 2.285712 0.644077 -0.553331
vt -2.820312 1.416504
vn -0.228761 0.076215 -0.970494
v 2.308983 0.647179 -0.498060
vt -2.853516 1.423828
vn -0.228761 0.076215 -0.970494
v 2.327820 0.637560 -0.487011
vt -2.865234 1.416260
vn -0.228761 0.076215 -0.970494
v 2.211964 0.672386 -0.644847
vt -2.751953 1.423828
vn -0.323837 0.375315 -0.868486
v 2.214202 0.663023 -0.655057
vt -2.751953 1.416748
vn -0.323837 0.375315 -0.868486
v 2.218685 0.668438 -0.639267
vt -2.757812 1.423584
vn -0.297197 0.279242 -0.913070
v 2.222627 0.658371 -0.647318
vt -2.757812 1.416748
vn -0.295847 0.270869 -0.916026
v 2.201177 0.679816 -0.651483
vt -2.744141 1.424805
vn -0.358318 0.485387 -0.797501
v 2.198031 0.674665 -0.665341
vt -2.740234 1.417236
vn -0.371004 0.536759 -0.757790
v 2.206752 0.668067 -0.660430
vt -2.746094 1.416992
vn -0.344518 0.454297 -0.821536
v 2.170861 0.702513 -0.662422
vt -2.720703 1.427002
vn -0.407308 0.598413 -0.689929
v 2.171962 0.695467 -0.675176
vt -2.720703 1.417969
vn -0.409922 0.610633 -0.677563
v 2.186952 0.690485 -0.657703
vt -2.732422 1.425781
vn -0.382926 0.550411 -0.741900
v 2.186249 0.684127 -0.670403
vt -2.730469 1.417725
vn -0.388504 0.574639 -0.720315
v 2.151971 0.710239 -0.680960
vt -2.707031 1.417480
vn -0.424078 0.642491 -0.638250
v 1.155695 0.750887 -0.944390
vt -2.566406 1.270752
vn -0.765431 0.329514 -0.552753
v 1.164499 0.753584 -0.944798
vt -2.570312 1.272705
vn -0.750038 0.280580 -0.598931
v 1.157709 0.756849 -0.943234
vt -2.566406 1.274414
vn -0.765431 0.329514 -0.552753
v 1.161336 0.755653 -0.943963
vt -2.568359 1.273926
vn -0.759413 0.299450 -0.577600
v 1.145012 0.758363 -0.941032
vt -2.558594 1.274658
vn -0.773008 0.347025 -0.531068
v 1.144587 0.751789 -0.942459
vt -2.558594 1.270752
vn -0.773008 0.347025 -0.531068
v 1.131218 0.759476 -0.938494
vt -2.550781 1.274414
vn -0.780893 0.374811 -0.499722
v 1.130962 0.753000 -0.939497
vt -2.550781 1.270752
vn -0.780893 0.374811 -0.499722
v 1.111828 0.760990 -0.934158
vt -2.539062 1.274414
vn -0.783961 0.409865 -0.466278
v 1.111416 0.754476 -0.934517
vt -2.539062 1.270752
vn -0.783961 0.409865 -0.466278
v 1.096504 0.762218 -0.930249
vt -2.529297 1.274658
vn -0.784987 0.435507 -0.440602
v 1.096179 0.755708 -0.929974
vt -2.531250 1.270752
vn -0.784987 0.435507 -0.440602
v 1.083537 0.759517 -0.926278
vt -2.523438 1.272461
vn -0.784886 0.466901 -0.407380
v 1.089637 0.756886 -0.927926
vt -2.525391 1.271240
vn -0.785275 0.450104 -0.425146
v 1.166740 0.750189 -0.945442
vt -2.572266 1.270996
vn -0.744740 0.260869 -0.614256
v 1.079896 0.763260 -0.924930
vt -2.519531 1.274414
vn -0.784886 0.466901 -0.407380
usemtl Illumination_Original
f 3/3/3 2/2/2 1/1/1
f 4/4/4 2/2/2 3/3/3
f 7/7/7 6/6/6 5/5/5
f 8/8/8 6/6/6 7/7/7
f 9/9/9 8/8/8 7/7/7
f 10/10/10 8/8/8 9/9/9
f 5/5/5 4/4/4 3/3/3
f 6/6/6 4/4/4 5/5/5
f 13/13/13 12/12/12 11/11/11
f 14/14/14 12/12/12 13/13/13
f 1/1/1 14/14/14 13/13/13
f 2/2/2 14/14/14 1/1/1
f 17/17/17 16/16/16 15/15/15
f 11/11/11 17/17/17 15/15/15
f 12/12/12 17/17/17 11/11/11
f 20/20/20 19/19/19 18/18/18
f 21/21/21 19/19/19 20/20/20
f 15/15/15 21/21/21 20/20/20
f 16/16/16 21/21/21 15/15/15
f 19/19/19 22/22/22 18/18/18
f 25/25/25 24/24/24 23/23/23
f 26/26/26 24/24/24 25/25/25
f 23/23/23 27/27/27 25/25/25
f 28/28/28 27/27/27 23/23/23
f 28/28/28 29/29/29 27/27/27
f 30/30/30 29/29/29 28/28/28
f 30/30/30 31/31/31 29/29/29
f 32/32/32 31/31/31 30/30/30
f 32/32/32 33/33/33 31/31/31
f 34/34/34 33/33/33 32/32/32
f 33/33/33 36/36/36 35/35/35
f 34/34/34 36/36/36 33/33/33
f 24/24/24 37/37/37 23/23/23
f 38/38/38 33/33/33 35/35/35
