# Exported from Godot Engine
mtllib Spoiler.mtl
o Spoiler
v -2.272552 1.024424 -0.413412
vt 0.961426 0.106445
vn 0.993269 0.059600 -0.099316
v -2.259466 1.022072 -0.417493
vt 0.962891 0.104492
vn 0.992891 0.059777 -0.102925
v -2.292408 1.028186 -0.371586
vt 0.953613 0.106934
vn 0.993821 0.060044 -0.093357
v -2.282621 1.026630 -0.367531
vt 0.953613 0.104980
vn 0.993821 0.060044 -0.093357
v -2.317884 1.036731 0.000000
vt 0.891602 0.093262
vn 0.996953 0.021456 -0.074996
v -2.351820 1.039958 0.000000
vt 0.890137 0.098633
vn 0.996953 0.021456 -0.074996
v -2.315949 1.036328 -0.054927
vt 0.900879 0.094727
vn 0.996445 0.021302 -0.081502
v -2.350071 1.039639 -0.056325
vt 0.899414 0.100586
vn 0.997096 0.028299 -0.070698
v -2.305790 1.034176 -0.165320
vt 0.919434 0.097656
vn 0.995952 0.034594 -0.082968
v -2.338349 1.037369 -0.169536
vt 0.918457 0.103516
vn 0.995952 0.034594 -0.082968
v -2.296242 1.032133 -0.219715
vt 0.928711 0.099121
vn 0.995493 0.041057 -0.085486
v -2.327653 1.035296 -0.225224
vt 0.928223 0.104492
vn 0.995493 0.041057 -0.085486
v -2.268200 1.026054 -0.326378
vt 0.947754 0.100098
vn 0.994121 0.053734 -0.094000
v -2.296042 1.029201 -0.333943
vt 0.947266 0.104980
vn 0.994121 0.053734 -0.094000
v -2.256714 1.023564 -0.359677
vt 0.954102 0.100586
vn 0.993821 0.060044 -0.093357
v -2.235006 1.018892 -0.416426
vt 0.964355 0.100586
vn 0.993225 0.066013 -0.095636
v -2.251050 1.020697 -0.445011
vt 0.967773 0.105469
vn 0.990777 0.046887 -0.127135
v -2.224778 1.016733 -0.467160
vt 0.973145 0.103027
vn 0.989392 0.046964 -0.137470
v -2.248050 1.020047 -0.435473
vt 0.966309 0.104004
vn 0.992192 0.059759 -0.109470
v -2.221797 1.016117 -0.446453
vt 0.970215 0.101074
vn 0.990917 0.053384 -0.123428
v -2.231739 1.018102 -0.415209
vt 0.964355 0.100098
vn 0.993225 0.066013 -0.095636
v -2.216705 1.014814 -0.446779
vt 0.970703 0.100098
vn 0.991126 0.059496 -0.118867
v -2.230138 1.016819 -0.414570
vt 0.964355 0.099609
vn 0.992952 0.065764 -0.098592
v -2.214729 1.013809 -0.446527
vt 0.970703 0.099609
vn 0.990668 0.059669 -0.122540
v -2.253993 1.022645 -0.358847
vt 0.954102 0.100098
vn 0.993573 0.065819 -0.092087
v -2.208647 1.014232 -0.476598
vt 0.975586 0.101074
vn 0.990326 0.059425 -0.125396
v -2.198715 1.011724 -0.481458
vt 0.977539 0.100098
vn 0.990326 0.059425 -0.125396
v -2.314626 1.036055 0.000000
vt 0.891602 0.092285
vn 0.997500 0.068558 -0.017107
v -2.312404 1.035407 -0.054773
vt 0.900879 0.094238
vn 0.997395 0.068082 -0.023819
v -2.311573 1.034163 0.000000
vt 0.891602 0.091797
vn 0.996628 0.078501 0.023897
v -2.309859 1.033614 -0.054673
vt 0.900879 0.093750
vn 0.996594 0.081330 0.013608
v -2.302547 1.033364 -0.164897
vt 0.919434 0.097168
vn 0.996791 0.067126 -0.043619
v -2.293023 1.031251 -0.219141
vt 0.929199 0.098145
vn 0.996617 0.067341 -0.047115
v -2.299850 1.031591 -0.164527
vt 0.919434 0.096680
vn 0.996022 0.086043 -0.023155
v -2.290538 1.029490 -0.218680
vt 0.929199 0.097656
vn 0.996022 0.086043 -0.023155
v -2.265286 1.025092 -0.325578
vt 0.947754 0.099609
vn 0.994392 0.066104 -0.082552
v -2.253993 1.022645 -0.358847
vt 0.954102 0.100098
vn 0.994530 0.072226 -0.075450
v -2.263202 1.023485 -0.324962
vt 0.947754 0.099121
vn 0.994736 0.072481 -0.072429
v -2.251950 1.021188 -0.358168
vt 0.954102 0.099609
vn 0.994736 0.072481 -0.072429
v -2.251950 1.021188 -0.358168
vt 0.954102 0.099609
vn 0.993831 0.066061 -0.089081
v -2.195872 1.010842 -0.482502
vt 0.977539 0.099609
vn 0.989346 0.052951 -0.135612
v -2.363584 1.042470 -0.057153
vt 0.899414 0.102539
vn 0.997383 0.035144 -0.063183
v -2.365091 1.042724 0.000000
vt 0.889648 0.101074
vn 0.997770 0.035385 -0.056586
v -2.358840 1.041490 -0.114459
vt 0.908691 0.104492
vn 0.996951 0.041700 -0.065954
v -2.345770 1.038803 -0.113140
vt 0.909180 0.102051
vn 0.996320 0.028169 -0.080949
v -2.312217 1.035540 -0.110293
vt 0.910156 0.096191
vn 0.996320 0.028169 -0.080949
v -2.308775 1.034666 -0.109997
vt 0.910156 0.095703
vn 0.997120 0.067841 -0.033887
v -2.306165 1.032893 -0.109765
vt 0.910156 0.095215
vn 0.996195 0.086890 0.006735
v -2.309859 1.033614 -0.054673
vt 0.900879 0.093750
vn 0.996195 0.086890 0.006735
v -2.350996 1.039857 -0.171558
vt 0.918457 0.105469
vn 0.996288 0.041239 -0.075565
v -2.299850 1.031591 -0.164527
vt 0.919434 0.096680
vn 0.996177 0.086345 -0.013259
v -2.306165 1.032893 -0.109765
vt 0.910156 0.095215
vn 0.996177 0.086345 -0.013259
v -2.339861 1.037557 -0.227924
vt 0.928223 0.106445
vn 0.995806 0.047610 -0.078124
v -2.293023 1.031251 -0.219141
vt 0.929199 0.098145
vn 0.995915 0.073040 -0.053093
v -2.280436 1.028423 -0.273283
vt 0.938477 0.099121
vn 0.995915 0.073040 -0.053093
v -2.290538 1.029490 -0.218680
vt 0.929199 0.097656
vn 0.995688 0.085446 -0.036125
v -2.278223 1.026698 -0.272753
vt 0.938477 0.098633
vn 0.995688 0.085446 -0.036125
v -2.283596 1.029398 -0.274002
vt 0.938477 0.099609
vn 0.994660 0.047543 -0.091608
v -2.313600 1.032575 -0.280710
vt 0.937988 0.104980
vn 0.994660 0.047543 -0.091608
v -2.325333 1.034604 -0.283428
vt 0.937500 0.106934
vn 0.994927 0.047709 -0.088566
v -2.306719 1.030937 -0.337592
vt 0.947266 0.106934
vn 0.994121 0.053734 -0.094000
v -2.265286 1.025092 -0.325578
vt 0.947754 0.099609
vn 0.995189 0.072511 -0.065886
v -2.280436 1.028423 -0.273283
vt 0.938477 0.099121
vn 0.995189 0.072511 -0.065886
v -2.263202 1.023485 -0.324962
vt 0.947754 0.099121
vn 0.995324 0.078866 -0.055778
v -2.278223 1.026698 -0.272753
vt 0.938477 0.098633
vn 0.995324 0.078866 -0.055778
v -2.247331 1.012484 -0.497733
vt 0.976074 0.108887
vn 0.987052 0.151871 -0.051611
v -2.246630 1.008672 -0.496542
vt 0.976074 0.109375
vn 0.986416 0.157837 -0.045514
v -2.235630 1.009737 -0.514825
vt 0.979492 0.108398
vn 0.981952 0.184489 -0.041643
v -2.234812 1.005900 -0.513807
vt 0.979492 0.109375
vn 0.981088 0.189693 -0.038511
v -2.318819 1.029415 -0.340920
vt 0.947266 0.109375
vn 0.993711 0.034385 -0.106567
v -2.317733 1.024961 -0.340529
vt 0.947266 0.110352
vn 0.994109 0.034281 -0.102825
v -2.305343 1.026774 -0.376792
vt 0.953613 0.109375
vn 0.994166 0.059862 -0.089723
v -2.303359 1.021664 -0.379640
vt 0.954102 0.110352
vn 0.993821 0.060044 -0.093357
v -2.269567 1.010523 -0.410988
vt 0.961426 0.113770
vn 0.992598 0.071832 -0.097923
v -2.252007 1.006693 -0.449416
vt 0.968750 0.113281
vn 0.989875 0.095507 -0.105007
v -2.285241 1.017507 -0.423576
vt 0.961914 0.110352
vn 0.992472 0.078105 -0.094334
v -2.266793 1.013309 -0.461287
vt 0.969238 0.109863
vn 0.989475 0.095774 -0.108470
v -2.301080 1.017491 -0.330289
vt 0.946289 0.113770
vn 0.996039 0.047767 -0.074997
v -2.285434 1.014016 -0.372589
vt 0.954102 0.113770
vn 0.994418 0.060079 -0.086740
v -2.317733 1.024961 -0.340529
vt 0.947266 0.110352
vn 0.995806 0.047610 -0.078124
v -2.303359 1.021664 -0.379640
vt 0.954102 0.110352
vn 0.994418 0.060079 -0.086740
v -2.246630 1.008672 -0.496542
vt 0.976074 0.109375
vn 0.985947 0.119728 -0.116502
v -2.232901 1.002591 -0.486756
vt 0.976074 0.112793
vn 0.985635 0.125563 -0.112954
v -2.234812 1.005900 -0.513807
vt 0.979492 0.109375
vn 0.980932 0.145119 -0.129278
v -2.272552 1.024424 -0.413412
vt 0.961426 0.106445
vn 0.993488 0.066261 -0.092691
v -2.282247 1.024295 -0.423190
vt 0.961914 0.108887
vn 0.993462 0.072131 -0.088491
v -2.251050 1.020697 -0.445011
vt 0.967773 0.105469
vn 0.992816 0.077878 -0.090834
v -2.263316 1.020478 -0.460433
vt 0.969238 0.108398
vn 0.992472 0.078105 -0.094334
v -2.223424 1.007831 -0.528939
vt 0.982422 0.107910
vn 0.983229 0.178246 -0.038583
v -2.223724 1.006939 -0.529127
vt 0.982422 0.107910
vn 0.980070 0.191236 -0.053782
v -2.215961 1.006218 -0.537117
vt 0.983887 0.107910
vn 0.976694 0.214460 -0.008660
v -2.216237 1.005336 -0.537345
vt 0.984375 0.107910
vn 0.974339 0.221164 -0.041820
v -2.233062 1.013382 -0.513224
vt 0.979004 0.107910
vn 0.988025 0.146382 -0.048764
v -2.231098 1.014486 -0.511371
vt 0.979004 0.107422
vn 0.989249 0.078109 -0.123634
v -2.245522 1.015499 -0.496639
vt 0.976074 0.108398
vn 0.990620 0.124610 -0.056067
v -2.243084 1.016525 -0.494874
vt 0.975586 0.107910
vn 0.991430 0.083979 -0.100069
v -2.221438 1.011378 -0.527317
vt 0.981934 0.107422
vn 0.986053 0.157287 -0.054409
v -2.219193 1.012684 -0.525010
vt 0.981934 0.106934
vn 0.987218 0.077718 -0.139139
v -2.140915 1.003178 -0.570430
vt 0.996094 0.100586
vn 0.975212 0.220583 0.017458
v -2.139753 1.004081 -0.568161
vt 0.995605 0.100098
vn 0.983096 0.090867 -0.158952
v -2.148632 1.003669 -0.568360
vt 0.994629 0.101074
vn 0.969635 0.231992 0.077383
v -2.147929 1.004898 -0.565472
vt 0.994629 0.101074
vn 0.983036 0.084636 -0.162719
v -2.185735 0.998333 -0.562035
vt 0.990723 0.106445
vn 0.951910 0.298625 0.068492
v -2.174548 0.996029 -0.568407
vt 0.992676 0.105469
vn 0.961650 0.251128 0.110291
v -2.185340 0.999313 -0.561605
vt 0.990723 0.105957
vn 0.967339 0.244813 0.065732
v -2.171299 0.996691 -0.568704
vt 0.993164 0.104980
vn 0.962892 0.243755 0.115854
v -2.194257 1.007875 -0.549161
vt 0.987793 0.105469
vn 0.972747 0.231576 0.011634
v -2.181230 1.006675 -0.556136
vt 0.989746 0.104492
vn 0.970770 0.235345 0.047100
v -2.192741 1.009339 -0.546411
vt 0.987305 0.104980
vn 0.984096 0.090965 -0.152577
v -2.180135 1.007991 -0.553142
vt 0.989746 0.104004
vn 0.983702 0.090625 -0.155301
v -2.235395 1.010468 -0.514689
vt 0.979492 0.108398
vn 0.985286 0.167713 -0.032917
v -2.247051 1.013148 -0.497581
vt 0.976074 0.108887
vn 0.988679 0.145578 -0.036350
v -2.223082 1.003172 -0.528039
vt 0.982422 0.108887
vn 0.978965 0.197591 -0.050849
v -2.215668 1.001466 -0.536008
vt 0.984375 0.108398
vn 0.973033 0.226860 -0.041738
v -2.284963 1.023154 -0.424445
vt 0.962402 0.109375
vn 0.993383 0.077944 -0.084345
v -2.286404 1.021594 -0.424282
vt 0.961914 0.109375
vn 0.993170 0.084119 -0.080850
v -2.266177 1.019499 -0.461910
vt 0.969238 0.108887
vn 0.992343 0.101781 -0.069968
v -2.267410 1.017618 -0.462514
vt 0.969238 0.109375
vn 0.991613 0.113001 -0.062717
v -2.167202 1.006692 -0.558917
vt 0.991699 0.103027
vn 0.983036 0.084636 -0.162719
v -2.167828 1.005262 -0.561909
vt 0.992188 0.103516
vn 0.968370 0.236096 0.080738
v -2.199699 1.010141 -0.541872
vt 0.985840 0.105469
vn 0.985730 0.096328 -0.138050
v -2.211830 1.011666 -0.532174
vt 0.983398 0.106445
vn 0.985798 0.084038 -0.145398
v -2.201422 1.008611 -0.544588
vt 0.986328 0.105957
vn 0.976847 0.213860 -0.005751
v -2.213930 1.010203 -0.534742
vt 0.983887 0.106934
vn 0.981491 0.189222 -0.029504
v -2.179392 1.008519 -0.509897
vt 0.983398 0.099609
vn 0.982253 0.059362 -0.177920
v -2.180978 1.009194 -0.510607
vt 0.983398 0.100098
vn 0.982705 0.059566 -0.175335
v -2.194363 1.011426 -0.514676
vt 0.982910 0.102051
vn 0.985465 0.072051 -0.153844
v -2.186834 1.010859 -0.510204
vt 0.982910 0.100586
vn 0.984697 0.065871 -0.161348
v -2.200966 1.012500 -0.503922
vt 0.980469 0.102051
vn 0.987821 0.065655 -0.141063
v -2.213125 1.014440 -0.484122
vt 0.976562 0.102539
vn 0.990060 0.071907 -0.120874
v -2.224778 1.016733 -0.467160
vt 0.973145 0.103027
vn 0.991843 0.078063 -0.100767
v -2.198715 1.011724 -0.481458
vt 0.977539 0.100098
vn 0.986465 0.046829 -0.157145
v -2.189115 1.010448 -0.497708
vt 0.980469 0.100098
vn 0.986135 0.059387 -0.154953
v -2.195872 1.010842 -0.482502
vt 0.977539 0.099609
vn 0.986465 0.046829 -0.157145
v -2.187151 1.009617 -0.497413
vt 0.980957 0.099609
vn 0.985717 0.059160 -0.157680
v -2.208647 1.014232 -0.476598
vt 0.975586 0.101074
vn 0.990046 0.065585 -0.124526
v -2.194982 1.012132 -0.497820
vt 0.979980 0.100586
vn 0.987682 0.059284 -0.144810
v -2.188161 0.994904 -0.558983
vt 0.990234 0.107422
vn 0.950673 0.308648 0.030930
v -2.197540 1.001995 -0.553569
vt 0.988281 0.106934
vn 0.970416 0.239659 0.029255
v -2.204178 1.003539 -0.548308
vt 0.986816 0.106934
vn 0.973955 0.226068 0.017444
v -2.197791 1.001038 -0.553878
vt 0.988281 0.106934
vn 0.957496 0.288432 0.002992
v -2.156901 0.999550 -0.569946
vt 0.994629 0.103027
vn 0.960064 0.243072 0.138538
v -2.208254 0.997751 -0.529517
vt 0.984863 0.110352
vn 0.974094 0.175337 -0.142821
v -2.223082 1.003172 -0.528039
vt 0.982422 0.108887
vn 0.979226 0.152611 -0.133515
v -2.215668 1.001466 -0.536008
vt 0.984375 0.108398
vn 0.973607 0.169354 -0.153000
v -2.267614 1.017154 -0.462601
vt 0.969238 0.109375
vn 0.990602 0.118404 -0.068473
v -2.199337 0.997686 -0.550379
vt 0.987793 0.107910
vn 0.955898 0.293684 -0.002962
v -2.355915 1.030016 -0.055848
vt 0.897949 0.107910
vn -0.048936 0.052692 -0.997411
v -2.371639 1.037259 -0.057504
vt 0.898926 0.104980
vn -0.045346 0.052871 -0.997571
v -2.357464 1.030369 0.000000
vt 0.888672 0.105957
vn -0.066930 0.059463 -0.995984
v -2.373212 1.037573 0.000000
vt 0.889160 0.103027
vn -0.066930 0.059463 -0.995984
v -2.372948 1.040784 -0.057670
vt 0.898926 0.104492
vn 0.049149 0.098299 -0.993942
v -2.374563 1.041175 0.000000
vt 0.889160 0.102539
vn 0.027023 0.123537 -0.991972
v -2.371639 1.037259 -0.057504
vt 0.898926 0.104980
vn 0.000000 0.142546 -0.989788
v -2.373212 1.037573 0.000000
vt 0.889160 0.103027
vn -0.026952 0.146216 -0.988885
v -2.369152 1.042816 -0.057464
vt 0.898926 0.103516
vn 0.098440 0.014609 -0.995036
v -2.370906 1.043131 0.000000
vt 0.889648 0.102051
vn 0.091189 0.029182 -0.995406
v -2.363584 1.042470 -0.057153
vt 0.899414 0.102539
vn 0.996196 0.014356 -0.085950
v -2.365091 1.042724 0.000000
vt 0.889648 0.101074
vn 0.995930 0.007205 -0.089843
v -2.350835 1.028800 -0.111805
vt 0.907715 0.109375
vn -0.015629 0.039008 -0.999117
v -2.366918 1.036216 -0.115169
vt 0.908203 0.106445
vn -0.011772 0.031339 -0.999439
v -2.366918 1.036216 -0.115169
vt 0.908203 0.106445
vn 0.027085 0.108305 -0.993749
v -2.368170 1.039690 -0.115496
vt 0.908691 0.105957
vn 0.070316 0.066619 -0.995298
v -2.364442 1.041788 -0.115095
vt 0.908691 0.105469
vn 0.108078 0.000000 -0.994142
v -2.358840 1.041490 -0.114459
vt 0.908691 0.104492
vn 0.995843 0.021292 -0.088560
v -2.359363 1.034527 -0.172666
vt 0.917969 0.107910
vn 0.023278 0.007770 -0.999699
v -2.342651 1.026875 -0.167520
vt 0.917480 0.110840
vn 0.019452 0.015568 -0.999690
v -2.359363 1.034527 -0.172666
vt 0.917969 0.107910
vn 0.052841 0.067943 -0.996289
v -2.360555 1.038059 -0.173157
vt 0.917969 0.107422
vn 0.087836 0.043918 -0.995166
v -2.357015 1.040138 -0.172575
vt 0.918457 0.106445
vn 0.993863 0.007157 -0.110386
v -2.350996 1.039857 -0.171558
vt 0.918457 0.105469
vn 0.995952 0.034594 -0.082968
v -2.348653 1.032088 -0.229470
vt 0.927734 0.108887
vn 0.998612 0.007460 -0.052140
v -2.331584 1.024341 -0.222552
vt 0.926758 0.112305
vn 0.998807 0.007434 -0.048256
v -2.348653 1.032088 -0.229470
vt 0.927734 0.108887
vn 0.084550 0.029437 -0.995984
v -2.349894 1.035870 -0.230152
vt 0.927734 0.108398
vn 0.108070 0.007211 -0.994117
v -2.346298 1.037837 -0.229347
vt 0.927734 0.107422
vn 0.994253 0.021026 -0.104974
v -2.339861 1.037557 -0.227924
vt 0.928223 0.106445
vn 0.995493 0.041057 -0.085486
v -2.332350 1.034891 -0.285329
vt 0.937500 0.108398
vn 0.994605 0.040895 -0.095336
v -2.325333 1.034604 -0.283428
vt 0.937500 0.106934
vn 0.994660 0.047543 -0.091608
v -2.336063 1.032941 -0.286372
vt 0.937500 0.108887
vn 0.993527 0.014121 -0.112711
v -2.334789 1.028889 -0.285494
vt 0.937500 0.109863
vn 0.112033 0.000000 -0.993704
v -2.317821 1.021236 -0.276889
vt 0.936523 0.113281
vn 0.997572 0.028329 -0.063624
v -2.334789 1.028889 -0.285494
vt 0.937500 0.109863
vn 0.997323 0.028422 -0.067370
v -2.315051 1.031232 -0.340268
vt 0.947266 0.108398
vn 0.994121 0.053734 -0.094000
v -2.302121 1.028488 -0.375029
vt 0.953613 0.108887
vn 0.993821 0.060044 -0.093357
v -2.285241 1.017507 -0.423576
vt 0.961914 0.110352
vn 0.993170 0.084119 -0.080850
v -2.266793 1.013309 -0.461287
vt 0.969238 0.109863
vn 0.990602 0.118404 -0.068473
v -2.204420 1.002634 -0.548577
vt 0.986816 0.107422
vn 0.963267 0.268546 0.000019
v -2.205007 0.998961 -0.545851
vt 0.986816 0.107910
vn 0.961306 0.275481 0.000019
v -2.205007 0.998961 -0.545851
vt 0.986816 0.107910
vn 0.963554 0.207244 -0.169153
v -2.199337 0.997686 -0.550379
vt 0.987793 0.107910
vn 0.960851 0.228938 -0.156055
v -2.188161 0.994904 -0.558983
vt 0.990234 0.107422
vn 0.960308 0.230482 -0.157117
v -2.282621 1.026630 0.367531
vt 0.953613 0.104980
vn 0.443855 -0.786478 0.429470
v -2.259466 1.022071 0.417494
vt 0.962891 0.104492
vn 0.466902 -0.786131 0.404969
v -2.292408 1.028185 0.371587
vt 0.953613 0.106934
vn 0.443855 -0.786478 0.429470
v -2.272552 1.024424 0.413412
vt 0.961426 0.106445
vn 0.457568 -0.786525 0.414740
v -2.350071 1.039639 0.056325
vt 0.899414 0.100586
vn 0.292889 -0.789887 0.538790
v -2.351820 1.039958 0.000000
vt 0.890137 0.098633
vn 0.285316 -0.792593 0.538880
v -2.315949 1.036328 0.054927
vt 0.900879 0.094727
vn 0.303705 -0.795985 0.523614
v -2.317884 1.036731 0.000000
vt 0.891602 0.093262
vn 0.285316 -0.792593 0.538880
v -2.327653 1.035296 0.225224
vt 0.928223 0.104492
vn 0.371592 -0.793424 0.482076
v -2.338349 1.037369 0.169536
vt 0.918457 0.103516
vn 0.346251 -0.794409 0.499023
v -2.296242 1.032133 0.219715
vt 0.928711 0.099121
vn 0.371592 -0.793424 0.482076
v -2.305790 1.034176 0.165320
vt 0.919434 0.097656
vn 0.346251 -0.794409 0.499023
v -2.296042 1.029201 0.333944
vt 0.947266 0.104980
vn 0.428916 -0.789679 0.438677
v -2.256714 1.023564 0.359677
vt 0.954102 0.100586
vn 0.443855 -0.786478 0.429470
v -2.268200 1.026054 0.326378
vt 0.947754 0.100098
vn 0.428916 -0.789679 0.438677
v -2.235006 1.018892 0.416426
vt 0.964355 0.100586
vn 0.465070 -0.783109 0.412857
v -2.221797 1.016117 0.446453
vt 0.970215 0.101074
vn 0.499364 -0.786800 0.362742
v -2.224778 1.016733 0.467160
vt 0.973145 0.103027
vn 0.515602 -0.787536 0.337551
v -2.248050 1.020047 0.435474
vt 0.966309 0.104004
vn 0.482484 -0.785309 0.387943
v -2.251050 1.020697 0.445011
vt 0.967773 0.105469
vn 0.492253 -0.790496 0.364421
v -2.214729 1.013809 0.446528
vt 0.970703 0.099609
vn 0.512289 -0.782485 0.353946
v -2.216705 1.014814 0.446779
vt 0.970703 0.100098
vn 0.503680 -0.783572 0.363759
v -2.230138 1.016819 0.414571
vt 0.964355 0.099609
vn 0.471628 -0.782973 0.405610
v -2.231739 1.018102 0.415210
vt 0.964355 0.100098
vn 0.465070 -0.783109 0.412857
v -2.253993 1.022645 0.358847
vt 0.954102 0.100098
vn 0.455775 -0.783426 0.422508
v -2.198715 1.011724 0.481458
vt 0.977539 0.100098
vn 0.518089 -0.781795 0.346959
v -2.208647 1.014232 0.476599
vt 0.975586 0.101074
vn 0.519725 -0.784288 0.338788
v -2.309859 1.033614 0.054673
vt 0.900879 0.093750
vn 0.239868 -0.734632 0.634648
v -2.312404 1.035407 0.054773
vt 0.900879 0.094238
vn 0.273887 -0.760836 0.588316
v -2.311573 1.034163 0.000000
vt 0.891602 0.091797
vn 0.229021 -0.726989 0.647330
v -2.314626 1.036055 0.000000
vt 0.891602 0.092285
vn 0.255381 -0.755996 0.602703
v -2.290538 1.029490 0.218680
vt 0.929199 0.097656
vn 0.325652 -0.759923 0.562555
v -2.293023 1.031251 0.219141
vt 0.929199 0.098145
vn 0.339550 -0.774077 0.534333
v -2.299850 1.031591 0.164527
vt 0.919434 0.096680
vn 0.325652 -0.759923 0.562555
v -2.302547 1.033364 0.164897
vt 0.919434 0.097168
vn 0.328922 -0.772503 0.543184
v -2.251950 1.021188 0.358169
vt 0.954102 0.099609
vn 0.423345 -0.779405 0.461852
v -2.253993 1.022645 0.358847
vt 0.954102 0.100098
vn 0.430510 -0.779807 0.454491
v -2.263202 1.023485 0.324962
vt 0.947754 0.099121
vn 0.423345 -0.779405 0.461852
v -2.265286 1.025092 0.325578
vt 0.947754 0.099609
vn 0.432374 -0.783194 0.446833
v -2.251950 1.021188 0.358169
vt 0.954102 0.099609
vn 0.448958 -0.783349 0.429884
v -2.195872 1.010842 0.482503
vt 0.977539 0.099609
vn 0.525374 -0.783492 0.331848
v -2.365091 1.042724 0.000000
vt 0.889648 0.101074
vn 0.272689 -0.781487 0.561177
v -2.363584 1.042470 0.057153
vt 0.899414 0.102539
vn 0.291232 -0.785442 0.546137
v -2.345770 1.038803 0.113141
vt 0.909180 0.102051
vn 0.322060 -0.794832 0.514315
v -2.358840 1.041490 0.114459
vt 0.908691 0.104492
vn 0.318625 -0.786302 0.529347
v -2.312217 1.035540 0.110294
vt 0.910156 0.096191
vn 0.322060 -0.794832 0.514315
v -2.308775 1.034666 0.109997
vt 0.910156 0.095703
vn 0.302830 -0.767245 0.565358
v -2.309859 1.033614 0.054673
vt 0.900879 0.093750
vn 0.258281 -0.740152 0.620858
v -2.306165 1.032893 0.109765
vt 0.910156 0.095215
vn 0.258281 -0.740152 0.620858
v -2.350996 1.039857 0.171559
vt 0.918457 0.105469
vn 0.344472 -0.790360 0.506627
v -2.306165 1.032893 0.109765
vt 0.910156 0.095215
vn 0.297658 -0.754127 0.585399
v -2.299850 1.031591 0.164527
vt 0.919434 0.096680
vn 0.297658 -0.754127 0.585399
v -2.339861 1.037557 0.227924
vt 0.928223 0.106445
vn 0.369773 -0.789596 0.489701
v -2.278223 1.026698 0.272754
vt 0.938477 0.098633
vn 0.361041 -0.766051 0.531803
v -2.280436 1.028423 0.273283
vt 0.938477 0.099121
vn 0.372799 -0.775073 0.510179
v -2.290538 1.029490 0.218680
vt 0.929199 0.097656
vn 0.361041 -0.766051 0.531803
v -2.293023 1.031251 0.219141
vt 0.929199 0.098145
vn 0.372799 -0.775073 0.510179
v -2.283596 1.029398 0.274002
vt 0.938477 0.099609
vn 0.406006 -0.792252 0.455517
v -2.313600 1.032575 0.280711
vt 0.937988 0.104980
vn 0.406006 -0.792252 0.455517
v -2.325333 1.034604 0.283428
vt 0.937500 0.106934
vn 0.398341 -0.791764 0.463071
v -2.306719 1.030937 0.337593
vt 0.947266 0.106934
vn 0.428916 -0.789679 0.438677
v -2.280436 1.028423 0.273283
vt 0.938477 0.099121
vn 0.406085 -0.778442 0.478668
v -2.265286 1.025092 0.325578
vt 0.947754 0.099609
vn 0.406085 -0.778442 0.478668
v -2.278223 1.026698 0.272754
vt 0.938477 0.098633
vn 0.396672 -0.774071 0.493422
v -2.263202 1.023485 0.324962
vt 0.947754 0.099121
vn 0.396672 -0.774071 0.493422
v -2.234812 1.005900 0.513807
vt 0.979492 0.109375
vn 0.628542 -0.702082 0.334689
v -2.246630 1.008672 0.496542
vt 0.976074 0.109375
vn 0.573437 -0.727542 0.376634
v -2.235630 1.009737 0.514825
vt 0.979492 0.108398
vn 0.623587 -0.705681 0.336384
v -2.247331 1.012484 0.497734
vt 0.976074 0.108887
vn 0.572563 -0.730727 0.371766
v -2.303359 1.021664 0.379640
vt 0.954102 0.110352
vn 0.443855 -0.786478 0.429470
v -2.317733 1.024961 0.340529
vt 0.947266 0.110352
vn 0.399492 -0.799010 0.449432
v -2.305343 1.026774 0.376792
vt 0.953613 0.109375
vn 0.434251 -0.786515 0.439114
v -2.318819 1.029415 0.340921
vt 0.947266 0.109375
vn 0.409613 -0.799328 0.439649
v -2.266793 1.013309 0.461287
vt 0.969238 0.109863
vn 0.564329 -0.758368 0.326208
v -2.252007 1.006693 0.449416
vt 0.968750 0.113281
vn 0.556603 -0.759912 0.335747
v -2.285241 1.017507 0.423577
vt 0.961914 0.110352
vn 0.492328 -0.775702 0.394842
v -2.269567 1.010523 0.410988
vt 0.961426 0.113770
vn 0.483437 -0.776338 0.404460
v -2.303359 1.021664 0.379640
vt 0.954102 0.110352
vn 0.427057 -0.786261 0.446560
v -2.285434 1.014015 0.372590
vt 0.954102 0.113770
vn 0.427057 -0.786261 0.446560
v -2.317733 1.024961 0.340529
vt 0.947266 0.110352
vn 0.369773 -0.789596 0.489701
v -2.301080 1.017491 0.330289
vt 0.946289 0.113770
vn 0.361639 -0.788616 0.497294
v -2.234812 1.005900 0.513807
vt 0.979492 0.109375
vn 0.690157 -0.698154 0.190432
v -2.232901 1.002591 0.486757
vt 0.976074 0.112793
vn 0.632777 -0.728557 0.262292
v -2.246630 1.008672 0.496542
vt 0.976074 0.109375
vn 0.627745 -0.732406 0.263661
v -2.263316 1.020478 0.460433
vt 0.969238 0.108398
vn 0.492328 -0.775702 0.394842
v -2.282247 1.024294 0.423190
vt 0.961914 0.108887
vn 0.463246 -0.780014 0.420691
v -2.251050 1.020697 0.445011
vt 0.967773 0.105469
vn 0.483437 -0.776338 0.404460
v -2.272552 1.024424 0.413412
vt 0.961426 0.106445
vn 0.458369 -0.783136 0.420233
v -2.216237 1.005336 0.537346
vt 0.984375 0.107910
vn 0.692973 -0.669392 0.267772
v -2.223724 1.006938 0.529128
vt 0.982422 0.107910
vn 0.657801 -0.693938 0.292827
v -2.215961 1.006218 0.537117
vt 0.983887 0.107910
vn 0.624966 -0.689931 0.365258
v -2.223424 1.007830 0.528940
vt 0.982422 0.107910
vn 0.604671 -0.712415 0.356144
v -2.243084 1.016525 0.494874
vt 0.975586 0.107910
vn 0.519658 -0.770435 0.369303
v -2.231098 1.014486 0.511371
vt 0.979004 0.107422
vn 0.556447 -0.767368 0.318611
v -2.245522 1.015499 0.496640
vt 0.976074 0.108398
vn 0.517986 -0.750269 0.410838
v -2.233062 1.013381 0.513224
vt 0.979004 0.107910
vn 0.553969 -0.735798 0.389513
v -2.219193 1.012684 0.525011
vt 0.981934 0.106934
vn 0.585739 -0.760679 0.279780
v -2.221438 1.011378 0.527317
vt 0.981934 0.107422
vn 0.590300 -0.725294 0.354251
v -2.147929 1.004897 0.565472
vt 0.994629 0.101074
vn 0.638976 -0.739947 0.210211
v -2.139753 1.004081 0.568162
vt 0.995605 0.100098
vn 0.643902 -0.735988 0.209073
v -2.148632 1.003669 0.568360
vt 0.994629 0.101074
vn 0.620393 -0.648262 0.441438
v -2.140915 1.003178 0.570430
vt 0.996094 0.100586
vn 0.615724 -0.680632 0.397020
v -2.171299 0.996691 0.568705
vt 0.993164 0.104980
vn 0.632323 -0.624471 0.458479
v -2.174548 0.996029 0.568408
vt 0.992676 0.105469
vn 0.648940 -0.621291 0.439174
v -2.185340 0.999313 0.561605
vt 0.990723 0.105957
vn 0.650570 -0.642694 0.404602
v -2.185735 0.998332 0.562035
vt 0.990723 0.106445
vn 0.744441 -0.593270 0.306331
v -2.180135 1.007991 0.553142
vt 0.989746 0.104004
vn 0.637834 -0.738620 0.218192
v -2.181230 1.006675 0.556136
vt 0.989746 0.104492
vn 0.637293 -0.657282 0.402292
v -2.192741 1.009338 0.546411
vt 0.987305 0.104980
vn 0.634217 -0.739964 0.224104
v -2.194257 1.007875 0.549161
vt 0.987793 0.105469
vn 0.641068 -0.673166 0.368617
v -2.247051 1.013148 0.497582
vt 0.976074 0.108887
vn 0.524358 -0.738497 0.423877
v -2.235395 1.010468 0.514690
vt 0.979492 0.108398
vn 0.569694 -0.722811 0.391143
v -2.215668 1.001466 0.536008
vt 0.984375 0.108398
vn 0.702443 -0.663500 0.257567
v -2.223082 1.003171 0.528039
vt 0.982422 0.108887
vn 0.664922 -0.688980 0.288418
v -2.267410 1.017618 0.462514
vt 0.969238 0.109375
vn 0.504720 -0.757170 0.414669
v -2.286404 1.021594 0.424282
vt 0.961914 0.109375
vn 0.475238 -0.773499 0.419343
v -2.266177 1.019499 0.461910
vt 0.969238 0.108887
vn 0.493774 -0.763578 0.416096
v -2.284963 1.023154 0.424445
vt 0.962402 0.109375
vn 0.467961 -0.776901 0.421233
v -2.167828 1.005262 0.561910
vt 0.992188 0.103516
vn 0.627920 -0.643880 0.437190
v -2.167202 1.006692 0.558918
vt 0.991699 0.103027
vn 0.638976 -0.739947 0.210211
v -2.213930 1.010203 0.534743
vt 0.983887 0.106934
vn 0.610771 -0.705727 0.359038
v -2.211830 1.011666 0.532174
vt 0.983398 0.106445
vn 0.609521 -0.751231 0.253251
v -2.201422 1.008611 0.544589
vt 0.986328 0.105957
vn 0.618125 -0.691342 0.374122
v -2.199699 1.010141 0.541872
vt 0.985840 0.105469
vn 0.620164 -0.743364 0.250612
v -2.180978 1.009194 0.510607
vt 0.983398 0.100098
vn 0.614532 -0.757381 0.220738
v -2.179392 1.008519 0.509897
vt 0.983398 0.099609
vn 0.618442 -0.755928 0.214715
v -2.186834 1.010859 0.510204
vt 0.982910 0.100586
vn 0.602519 -0.759726 0.244514
v -2.194363 1.011425 0.514676
vt 0.982910 0.102051
vn 0.601180 -0.758110 0.252687
v -2.200966 1.012500 0.503923
vt 0.980469 0.102051
vn 0.564512 -0.770658 0.295657
v -2.213125 1.014440 0.484122
vt 0.976562 0.102539
vn 0.536886 -0.773546 0.336719
v -2.224778 1.016733 0.467160
vt 0.973145 0.103027
vn 0.507086 -0.774570 0.378029
v -2.187151 1.009616 0.497414
vt 0.980957 0.099609
vn 0.582775 -0.768248 0.264893
v -2.189115 1.010448 0.497708
vt 0.980469 0.100098
vn 0.578186 -0.769490 0.271269
v -2.195872 1.010842 0.482503
vt 0.977539 0.099609
vn 0.556272 -0.779752 0.287313
v -2.198715 1.011724 0.481458
vt 0.977539 0.100098
vn 0.556272 -0.779752 0.287313
v -2.194982 1.012132 0.497820
vt 0.979980 0.100586
vn 0.558341 -0.774544 0.297216
v -2.208647 1.014232 0.476599
vt 0.975586 0.101074
vn 0.530342 -0.777340 0.338349
v -2.188161 0.994903 0.558983
vt 0.990234 0.107422
vn 0.768003 -0.591402 0.245795
v -2.197540 1.001994 0.553569
vt 0.988281 0.106934
vn 0.651866 -0.659890 0.373652
v -2.204178 1.003538 0.548309
vt 0.986816 0.106934
vn 0.627629 -0.675949 0.386231
v -2.197791 1.001038 0.553879
vt 0.988281 0.106934
vn 0.745113 -0.618437 0.249684
v -2.156901 0.999550 0.569946
vt 0.994629 0.103027
vn 0.623606 -0.615781 0.481590
v -2.223082 1.003171 0.528039
vt 0.982422 0.108887
vn 0.706663 -0.687111 0.168839
v -2.208254 0.997751 0.529517
vt 0.984863 0.110352
vn 0.746682 -0.655293 0.114271
v -2.215668 1.001466 0.536008
vt 0.984375 0.108398
vn 0.749080 -0.654552 0.102180
v -2.267614 1.017154 0.462601
vt 0.969238 0.109375
vn 0.531091 -0.752482 0.389504
v -2.199337 0.997686 0.550379
vt 0.987793 0.107910
vn 0.757009 -0.611807 0.229412
v -2.373212 1.037573 0.000000
vt 0.889160 0.103027
vn -0.184633 -0.815407 0.548654
v -2.371639 1.037259 0.057505
vt 0.898926 0.104980
vn -0.125354 -0.793737 0.595204
v -2.357464 1.030369 0.000000
vt 0.888672 0.105957
vn -0.184633 -0.815407 0.548654
v -2.355915 1.030016 0.055849
vt 0.897949 0.107910
vn -0.135476 -0.797006 0.588581
v -2.373212 1.037573 0.000000
vt 0.889160 0.103027
vn -0.067520 -0.819639 0.568888
v -2.374563 1.041175 0.000000
vt 0.889160 0.102539
vn 0.069113 -0.809794 0.582630
v -2.371639 1.037259 0.057505
vt 0.898926 0.104980
vn -0.000021 -0.789908 0.613226
v -2.372948 1.040784 0.057670
vt 0.898926 0.104492
vn 0.129785 -0.818813 0.559197
v -2.370906 1.043131 0.000000
vt 0.889648 0.102051
vn 0.260077 -0.816765 0.515029
v -2.369152 1.042816 0.057464
vt 0.898926 0.103516
vn 0.285205 -0.813376 0.507028
v -2.365091 1.042724 0.000000
vt 0.889648 0.101074
vn 0.286525 -0.801242 0.525276
v -2.363584 1.042470 0.057153
vt 0.899414 0.102539
vn 0.296213 -0.798786 0.523641
v -2.366918 1.036216 0.115169
vt 0.908203 0.106445
vn -0.032588 -0.743717 0.667700
v -2.350835 1.028800 0.111805
vt 0.907715 0.109375
vn -0.043068 -0.753262 0.656309
v -2.368170 1.039690 0.115497
vt 0.908691 0.105957
vn 0.192572 -0.821147 0.537247
v -2.366918 1.036216 0.115169
vt 0.908203 0.106445
vn 0.070221 -0.802831 0.592057
v -2.364442 1.041788 0.115096
vt 0.908691 0.105469
vn 0.317711 -0.810263 0.492478
v -2.358840 1.041490 0.114459
vt 0.908691 0.104492
vn 0.323749 -0.799091 0.506596
v -2.342651 1.026875 0.167520
vt 0.917480 0.110840
vn 0.055060 -0.743542 0.666418
v -2.359363 1.034527 0.172667
vt 0.917969 0.107910
vn 0.066530 -0.743308 0.665633
v -2.360555 1.038059 0.173158
vt 0.917969 0.107422
vn 0.246539 -0.821835 0.513620
v -2.359363 1.034527 0.172667
vt 0.917969 0.107910
vn 0.144097 -0.808027 0.571251
v -2.357015 1.040138 0.172575
vt 0.918457 0.106445
vn 0.344687 -0.809540 0.475222
v -2.350996 1.039857 0.171559
vt 0.918457 0.105469
vn 0.346251 -0.794409 0.499023
v -2.331584 1.024341 0.222552
vt 0.926758 0.112305
vn 0.163742 -0.769782 0.616947
v -2.348653 1.032088 0.229470
vt 0.927734 0.108887
vn 0.175522 -0.773531 0.608968
v -2.349894 1.035870 0.230152
vt 0.927734 0.108398
vn 0.314989 -0.813838 0.488313
v -2.348653 1.032088 0.229470
vt 0.927734 0.108887
vn 0.241265 -0.813090 0.529788
v -2.346298 1.037837 0.229347
vt 0.927734 0.107422
vn 0.368784 -0.804221 0.466076
v -2.339861 1.037557 0.227924
vt 0.928223 0.106445
vn 0.371592 -0.793424 0.482076
v -2.325333 1.034604 0.283428
vt 0.937500 0.106934
vn 0.406006 -0.792252 0.455517
v -2.332350 1.034891 0.285329
vt 0.937500 0.108398
vn 0.397679 -0.795434 0.457315
v -2.336063 1.032941 0.286373
vt 0.937500 0.108887
vn 0.370519 -0.808041 0.458024
v -2.334789 1.028889 0.285495
vt 0.937500 0.109863
vn 0.328866 -0.811674 0.482734
v -2.334789 1.028889 0.285495
vt 0.937500 0.109863
vn 0.283667 -0.788042 0.546373
v -2.317821 1.021236 0.276889
vt 0.936523 0.113281
vn 0.272368 -0.785787 0.555297
v -2.315051 1.031232 0.340269
vt 0.947266 0.108398
vn 0.428916 -0.789679 0.438677
v -2.302121 1.028488 0.375029
vt 0.953613 0.108887
vn 0.443855 -0.786478 0.429470
v -2.285241 1.017507 0.423577
vt 0.961914 0.110352
vn 0.475238 -0.773499 0.419343
v -2.266793 1.013309 0.461287
vt 0.969238 0.109863
vn 0.531091 -0.752482 0.389504
v -2.204420 1.002634 0.548577
vt 0.986816 0.107422
vn 0.713972 -0.640308 0.283285
v -2.205007 0.998961 0.545851
vt 0.986816 0.107910
vn 0.725536 -0.632939 0.270159
v -2.205007 0.998961 0.545851
vt 0.986816 0.107910
vn 0.798918 -0.601038 0.021979
v -2.199337 0.997686 0.550379
vt 0.987793 0.107910
vn 0.809362 -0.587027 0.018240
v -2.188161 0.994903 0.558983
vt 0.990234 0.107422
vn 0.811167 -0.584632 0.014613
usemtl Spoiler1
f 3/3/3 2/2/2 1/1/1
f 4/4/4 2/2/2 3/3/3
f 7/7/7 6/6/6 5/5/5
f 8/8/8 6/6/6 7/7/7
f 11/11/11 10/10/10 9/9/9
f 12/12/12 10/10/10 11/11/11
f 15/15/15 14/14/14 13/13/13
f 4/4/4 14/14/14 15/15/15
f 4/4/4 16/16/16 2/2/2
f 15/15/15 16/16/16 4/4/4
f 19/19/19 18/18/18 17/17/17
f 20/20/20 18/18/18 19/19/19
f 16/16/16 19/19/19 2/2/2
f 20/20/20 19/19/19 16/16/16
f 23/23/23 22/22/22 21/21/21
f 24/24/24 22/22/22 23/23/23
f 15/15/15 21/21/21 16/16/16
f 25/25/25 21/21/21 15/15/15
f 20/20/20 27/27/27 26/26/26
f 22/22/22 27/27/27 20/20/20
f 30/30/30 29/29/29 28/28/28
f 31/31/31 29/29/29 30/30/30
f 34/34/34 33/33/33 32/32/32
f 35/35/35 33/33/33 34/34/34
f 38/38/38 37/37/37 36/36/36
f 39/39/39 37/37/37 38/38/38
f 21/21/21 40/40/40 23/23/23
f 25/25/25 40/40/40 21/21/21
f 21/21/21 20/20/20 16/16/16
f 22/22/22 20/20/20 21/21/21
f 24/24/24 27/27/27 22/22/22
f 41/41/41 27/27/27 24/24/24
f 26/26/26 18/18/18 20/20/20
f 43/43/43 8/8/8 42/42/42
f 6/6/6 8/8/8 43/43/43
f 5/5/5 29/29/29 7/7/7
f 28/28/28 29/29/29 5/5/5
f 42/42/42 45/45/45 44/44/44
f 8/8/8 45/45/45 42/42/42
f 46/46/46 8/8/8 7/7/7
f 45/45/45 8/8/8 46/46/46
f 7/7/7 47/47/47 46/46/46
f 29/29/29 47/47/47 7/7/7
f 47/47/47 49/49/49 48/48/48
f 29/29/29 49/49/49 47/47/47
f 45/45/45 50/50/50 44/44/44
f 10/10/10 50/50/50 45/45/45
f 9/9/9 45/45/45 46/46/46
f 10/10/10 45/45/45 9/9/9
f 46/46/46 32/32/32 9/9/9
f 47/47/47 32/32/32 46/46/46
f 32/32/32 52/52/52 51/51/51
f 47/47/47 52/52/52 32/32/32
f 50/50/50 12/12/12 53/53/53
f 10/10/10 12/12/12 50/50/50
f 9/9/9 33/33/33 11/11/11
f 32/32/32 33/33/33 9/9/9
f 56/56/56 55/55/55 54/54/54
f 57/57/57 55/55/55 56/56/56
f 55/55/55 11/11/11 54/54/54
f 58/58/58 11/11/11 55/55/55
f 59/59/59 11/11/11 58/58/58
f 12/12/12 11/11/11 59/59/59
f 12/12/12 60/60/60 53/53/53
f 59/59/59 60/60/60 12/12/12
f 59/59/59 61/61/61 60/60/60
f 14/14/14 61/61/61 59/59/59
f 13/13/13 59/59/59 58/58/58
f 14/14/14 59/59/59 13/13/13
f 58/58/58 62/62/62 13/13/13
f 63/63/63 62/62/62 58/58/58
f 62/62/62 65/65/65 64/64/64
f 63/63/63 65/65/65 62/62/62
f 14/14/14 3/3/3 61/61/61
f 4/4/4 3/3/3 14/14/14
f 13/13/13 37/37/37 15/15/15
f 36/36/36 37/37/37 13/13/13
f 2/2/2 17/17/17 1/1/1
f 19/19/19 17/17/17 2/2/2
f 68/68/68 67/67/67 66/66/66
f 69/69/69 67/67/67 68/68/68
f 72/72/72 71/71/71 70/70/70
f 73/73/73 71/71/71 72/72/72
f 76/76/76 75/75/75 74/74/74
f 77/77/77 75/75/75 76/76/76
f 80/80/80 79/79/79 78/78/78
f 81/81/81 79/79/79 80/80/80
f 84/84/84 83/83/83 82/82/82
f 87/87/87 86/86/86 85/85/85
f 88/88/88 86/86/86 87/87/87
f 91/91/91 90/90/90 89/89/89
f 92/92/92 90/90/90 91/91/91
f 95/95/95 94/94/94 93/93/93
f 96/96/96 94/94/94 95/95/95
f 94/94/94 97/97/97 93/93/93
f 98/98/98 97/97/97 94/94/94
f 101/101/101 100/100/100 99/99/99
f 102/102/102 100/100/100 101/101/101
f 105/105/105 104/104/104 103/103/103
f 106/106/106 104/104/104 105/105/105
f 109/109/109 108/108/108 107/107/107
f 110/110/110 108/108/108 109/109/109
f 66/66/66 111/111/111 68/68/68
f 112/112/112 111/111/111 66/66/66
f 92/92/92 113/113/113 90/90/90
f 114/114/114 113/113/113 92/92/92
f 90/90/90 69/69/69 68/68/68
f 113/113/113 69/69/69 90/90/90
f 117/117/117 116/116/116 115/115/115
f 118/118/118 116/116/116 117/117/117
f 101/101/101 119/119/119 102/102/102
f 120/120/120 119/119/119 101/101/101
f 119/119/119 108/108/108 110/110/110
f 120/120/120 108/108/108 119/119/119
f 123/123/123 122/122/122 121/121/121
f 124/124/124 122/122/122 123/123/123
f 122/122/122 97/97/97 98/98/98
f 124/124/124 97/97/97 122/122/122
f 126/126/126 125/125/125 100/100/100
f 127/127/127 102/102/102 119/119/119
f 128/128/128 102/102/102 127/127/127
f 122/122/122 127/127/127 121/121/121
f 98/98/98 127/127/127 122/122/122
f 129/129/129 127/127/127 98/98/98
f 130/130/130 98/98/98 94/94/94
f 129/129/129 98/98/98 130/130/130
f 131/131/131 94/94/94 96/96/96
f 130/130/130 94/94/94 131/131/131
f 134/134/134 133/133/133 132/132/132
f 135/135/135 133/133/133 134/134/134
f 128/128/128 100/100/100 102/102/102
f 126/126/126 100/100/100 128/128/128
f 133/133/133 136/136/136 132/132/132
f 137/137/137 136/136/136 133/133/133
f 126/126/126 137/137/137 133/133/133
f 128/128/128 137/137/137 126/126/126
f 125/125/125 133/133/133 135/135/135
f 126/126/126 133/133/133 125/125/125
f 127/127/127 137/137/137 128/128/128
f 129/129/129 137/137/137 127/127/127
f 129/129/129 136/136/136 137/137/137
f 130/130/130 136/136/136 129/129/129
f 103/103/103 104/104/104 138/138/138
f 105/105/105 107/107/107 108/108/108
f 139/139/139 107/107/107 105/105/105
f 140/140/140 124/124/124 123/123/123
f 91/91/91 124/124/124 140/140/140
f 103/103/103 139/139/139 105/105/105
f 141/141/141 139/139/139 103/103/103
f 108/108/108 106/106/106 105/105/105
f 120/120/120 106/106/106 108/108/108
f 89/89/89 124/124/124 91/91/91
f 97/97/97 124/124/124 89/89/89
f 101/101/101 99/99/99 142/142/142
f 120/120/120 142/142/142 106/106/106
f 101/101/101 142/142/142 120/120/120
f 84/84/84 143/143/143 83/83/83
f 144/144/144 143/143/143 84/84/84
f 144/144/144 145/145/145 143/143/143
f 95/95/95 111/111/111 112/112/112
f 93/93/93 111/111/111 95/95/95
f 68/68/68 89/89/89 90/90/90
f 111/111/111 89/89/89 68/68/68
f 93/93/93 89/89/89 111/111/111
f 97/97/97 89/89/89 93/93/93
f 118/118/118 146/146/146 116/116/116
f 141/141/141 138/138/138 147/147/147
f 103/103/103 138/138/138 141/141/141
f 136/136/136 130/130/130 131/131/131
f 110/110/110 127/127/127 119/119/119
f 109/109/109 127/127/127 110/110/110
f 150/150/150 149/149/149 148/148/148
f 151/151/151 149/149/149 150/150/150
f 154/154/154 153/153/153 152/152/152
f 155/155/155 153/153/153 154/154/154
f 153/153/153 156/156/156 152/152/152
f 157/157/157 156/156/156 153/153/153
f 157/157/157 158/158/158 156/156/156
f 159/159/159 158/158/158 157/157/157
f 148/148/148 161/161/161 160/160/160
f 149/149/149 161/161/161 148/148/148
f 154/154/154 163/163/163 162/162/162
f 152/152/152 163/163/163 154/154/154
f 156/156/156 163/163/163 152/152/152
f 164/164/164 163/163/163 156/156/156
f 158/158/158 164/164/164 156/156/156
f 165/165/165 164/164/164 158/158/158
f 167/167/167 161/161/161 166/166/166
f 160/160/160 161/161/161 167/167/167
f 162/162/162 169/169/169 168/168/168
f 163/163/163 169/169/169 162/162/162
f 164/164/164 169/169/169 163/163/163
f 170/170/170 169/169/169 164/164/164
f 165/165/165 170/170/170 164/164/164
f 171/171/171 170/170/170 165/165/165
f 173/173/173 166/166/166 172/172/172
f 167/167/167 166/166/166 173/173/173
f 168/168/168 175/175/175 174/174/174
f 169/169/169 175/175/175 168/168/168
f 169/169/169 176/176/176 175/175/175
f 170/170/170 176/176/176 169/169/169
f 170/170/170 177/177/177 176/176/176
f 171/171/171 177/177/177 170/170/170
f 177/177/177 178/178/178 176/176/176
f 179/179/179 178/178/178 177/177/177
f 176/176/176 180/180/180 175/175/175
f 178/178/178 180/180/180 176/176/176
f 180/180/180 174/174/174 175/175/175
f 181/181/181 174/174/174 180/180/180
f 172/172/172 182/182/182 173/173/173
f 183/183/183 182/182/182 172/172/172
f 78/78/78 183/183/183 80/80/80
f 182/182/182 183/183/183 78/78/78
f 181/181/181 70/70/70 71/71/71
f 180/180/180 70/70/70 181/181/181
f 180/180/180 184/184/184 70/70/70
f 178/178/178 184/184/184 180/180/180
f 178/178/178 61/61/61 184/184/184
f 179/179/179 61/61/61 178/178/178
f 184/184/184 72/72/72 70/70/70
f 185/185/185 72/72/72 184/184/184
f 61/61/61 185/185/185 184/184/184
f 3/3/3 185/185/185 61/61/61
f 74/74/74 81/81/81 76/76/76
f 79/79/79 81/81/81 74/74/74
f 73/73/73 116/116/116 186/186/186
f 72/72/72 116/116/116 73/73/73
f 116/116/116 72/72/72 115/115/115
f 72/72/72 86/86/86 115/115/115
f 185/185/185 86/86/86 72/72/72
f 3/3/3 86/86/86 185/185/185
f 85/85/85 86/86/86 3/3/3
f 187/187/187 116/116/116 146/146/146
f 186/186/186 116/116/116 187/187/187
f 115/115/115 88/88/88 117/117/117
f 86/86/86 88/88/88 115/115/115
f 83/83/83 77/77/77 82/82/82
f 75/75/75 77/77/77 83/83/83
f 187/187/187 66/66/66 67/67/67
f 146/146/146 66/66/66 187/187/187
f 66/66/66 118/118/118 112/112/112
f 146/146/146 118/118/118 66/66/66
f 112/112/112 117/117/117 95/95/95
f 118/118/118 117/117/117 112/112/112
f 88/88/88 95/95/95 117/117/117
f 96/96/96 95/95/95 88/88/88
f 131/131/131 88/88/88 87/87/87
f 96/96/96 88/88/88 131/131/131
f 140/140/140 92/92/92 91/91/91
f 188/188/188 92/92/92 140/140/140
f 188/188/188 114/114/114 92/92/92
f 189/189/189 114/114/114 188/188/188
f 145/145/145 190/190/190 143/143/143
f 109/109/109 121/121/121 127/127/127
f 123/123/123 109/109/109 107/107/107
f 121/121/121 109/109/109 123/123/123
f 107/107/107 140/140/140 123/123/123
f 139/139/139 140/140/140 107/107/107
f 139/139/139 188/188/188 140/140/140
f 141/141/141 188/188/188 139/139/139
f 188/188/188 147/147/147 189/189/189
f 141/141/141 147/147/147 188/188/188
f 190/190/190 191/191/191 143/143/143
f 191/191/191 192/192/192 143/143/143
f 195/195/195 194/194/194 193/193/193
f 196/196/196 194/194/194 195/195/195
f 199/199/199 198/198/198 197/197/197
f 200/200/200 198/198/198 199/199/199
f 203/203/203 202/202/202 201/201/201
f 204/204/204 202/202/202 203/203/203
f 206/206/206 205/205/205 193/193/193
f 207/207/207 205/205/205 206/206/206
f 193/193/193 208/208/208 206/206/206
f 194/194/194 208/208/208 193/193/193
f 211/211/211 210/210/210 209/209/209
f 212/212/212 210/210/210 211/211/211
f 208/208/208 211/211/211 209/209/209
f 194/194/194 211/211/211 208/208/208
f 215/215/215 214/214/214 213/213/213
f 216/216/216 214/214/214 215/215/215
f 206/206/206 216/216/216 217/217/217
f 208/208/208 216/216/216 206/206/206
f 209/209/209 218/218/218 214/214/214
f 219/219/219 218/218/218 209/209/209
f 222/222/222 221/221/221 220/220/220
f 223/223/223 221/221/221 222/222/222
f 226/226/226 225/225/225 224/224/224
f 227/227/227 225/225/225 226/226/226
f 230/230/230 229/229/229 228/228/228
f 231/231/231 229/229/229 230/230/230
f 216/216/216 232/232/232 217/217/217
f 215/215/215 232/232/232 216/216/216
f 216/216/216 209/209/209 214/214/214
f 208/208/208 209/209/209 216/216/216
f 213/213/213 218/218/218 233/233/233
f 214/214/214 218/218/218 213/213/213
f 209/209/209 210/210/210 219/219/219
f 234/234/234 197/197/197 198/198/198
f 235/235/235 197/197/197 234/234/234
f 200/200/200 221/221/221 223/223/223
f 199/199/199 221/221/221 200/200/200
f 235/235/235 236/236/236 197/197/197
f 237/237/237 236/236/236 235/235/235
f 238/238/238 197/197/197 236/236/236
f 199/199/199 197/197/197 238/238/238
f 199/199/199 239/239/239 221/221/221
f 238/238/238 239/239/239 199/199/199
f 239/239/239 240/240/240 221/221/221
f 241/241/241 240/240/240 239/239/239
f 236/236/236 242/242/242 202/202/202
f 237/237/237 242/242/242 236/236/236
f 204/204/204 236/236/236 202/202/202
f 238/238/238 236/236/236 204/204/204
f 238/238/238 227/227/227 239/239/239
f 204/204/204 227/227/227 238/238/238
f 227/227/227 243/243/243 239/239/239
f 244/244/244 243/243/243 227/227/227
f 242/242/242 201/201/201 202/202/202
f 245/245/245 201/201/201 242/242/242
f 204/204/204 225/225/225 227/227/227
f 203/203/203 225/225/225 204/204/204
f 248/248/248 247/247/247 246/246/246
f 249/249/249 247/247/247 248/248/248
f 247/247/247 203/203/203 250/250/250
f 249/249/249 203/203/203 247/247/247
f 251/251/251 203/203/203 201/201/201
f 250/250/250 203/203/203 251/251/251
f 201/201/201 252/252/252 251/251/251
f 245/245/245 252/252/252 201/201/201
f 251/251/251 253/253/253 205/205/205
f 252/252/252 253/253/253 251/251/251
f 207/207/207 251/251/251 205/205/205
f 250/250/250 251/251/251 207/207/207
f 250/250/250 255/255/255 254/254/254
f 207/207/207 255/255/255 250/250/250
f 255/255/255 256/256/256 254/254/254
f 257/257/257 256/256/256 255/255/255
f 205/205/205 195/195/195 193/193/193
f 253/253/253 195/195/195 205/205/205
f 207/207/207 229/229/229 231/231/231
f 206/206/206 229/229/229 207/207/207
f 194/194/194 212/212/212 211/211/211
f 196/196/196 212/212/212 194/194/194
f 260/260/260 259/259/259 258/258/258
f 261/261/261 259/259/259 260/260/260
f 264/264/264 263/263/263 262/262/262
f 265/265/265 263/263/263 264/264/264
f 268/268/268 267/267/267 266/266/266
f 269/269/269 267/267/267 268/268/268
f 272/272/272 271/271/271 270/270/270
f 273/273/273 271/271/271 272/272/272
f 276/276/276 275/275/275 274/274/274
f 279/279/279 278/278/278 277/277/277
f 280/280/280 278/278/278 279/279/279
f 283/283/283 282/282/282 281/281/281
f 284/284/284 282/282/282 283/283/283
f 287/287/287 286/286/286 285/285/285
f 288/288/288 286/286/286 287/287/287
f 286/286/286 290/290/290 289/289/289
f 288/288/288 290/290/290 286/286/286
f 293/293/293 292/292/292 291/291/291
f 294/294/294 292/292/292 293/293/293
f 297/297/297 296/296/296 295/295/295
f 298/298/298 296/296/296 297/297/297
f 301/301/301 300/300/300 299/299/299
f 302/302/302 300/300/300 301/301/301
f 261/261/261 304/304/304 303/303/303
f 260/260/260 304/304/304 261/261/261
f 281/281/281 306/306/306 305/305/305
f 282/282/282 306/306/306 281/281/281
f 282/282/282 258/258/258 306/306/306
f 260/260/260 258/258/258 282/282/282
f 309/309/309 308/308/308 307/307/307
f 310/310/310 308/308/308 309/309/309
f 293/293/293 312/312/312 311/311/311
f 291/291/291 312/312/312 293/293/293
f 312/312/312 300/300/300 311/311/311
f 299/299/299 300/300/300 312/312/312
f 315/315/315 314/314/314 313/313/313
f 316/316/316 314/314/314 315/315/315
f 314/314/314 290/290/290 313/313/313
f 289/289/289 290/290/290 314/314/314
f 292/292/292 318/318/318 317/317/317
f 320/320/320 291/291/291 319/319/319
f 312/312/312 291/291/291 320/320/320
f 316/316/316 320/320/320 314/314/314
f 289/289/289 320/320/320 321/321/321
f 314/314/314 320/320/320 289/289/289
f 322/322/322 289/289/289 321/321/321
f 286/286/286 289/289/289 322/322/322
f 323/323/323 286/286/286 322/322/322
f 285/285/285 286/286/286 323/323/323
f 326/326/326 325/325/325 324/324/324
f 327/327/327 325/325/325 326/326/326
f 319/319/319 292/292/292 317/317/317
f 291/291/291 292/292/292 319/319/319
f 325/325/325 329/329/329 328/328/328
f 327/327/327 329/329/329 325/325/325
f 317/317/317 328/328/328 319/319/319
f 325/325/325 328/328/328 317/317/317
f 318/318/318 325/325/325 317/317/317
f 324/324/324 325/325/325 318/318/318
f 320/320/320 328/328/328 321/321/321
f 319/319/319 328/328/328 320/320/320
f 321/321/321 329/329/329 322/322/322
f 328/328/328 329/329/329 321/321/321
f 330/330/330 296/296/296 298/298/298
f 297/297/297 302/302/302 331/331/331
f 300/300/300 302/302/302 297/297/297
f 332/332/332 313/313/313 283/283/283
f 315/315/315 313/313/313 332/332/332
f 298/298/298 331/331/331 333/333/333
f 297/297/297 331/331/331 298/298/298
f 300/300/300 295/295/295 311/311/311
f 297/297/297 295/295/295 300/300/300
f 284/284/284 313/313/313 290/290/290
f 283/283/283 313/313/313 284/284/284
f 334/334/334 294/294/294 293/293/293
f 311/311/311 334/334/334 293/293/293
f 295/295/295 334/334/334 311/311/311
f 274/274/274 336/336/336 335/335/335
f 275/275/275 336/336/336 274/274/274
f 336/336/336 337/337/337 335/335/335
f 287/287/287 304/304/304 288/288/288
f 303/303/303 304/304/304 287/287/287
f 260/260/260 284/284/284 304/304/304
f 282/282/282 284/284/284 260/260/260
f 288/288/288 284/284/284 290/290/290
f 304/304/304 284/284/284 288/288/288
f 308/308/308 338/338/338 307/307/307
f 333/333/333 330/330/330 298/298/298
f 339/339/339 330/330/330 333/333/333
f 323/323/323 322/322/322 329/329/329
f 299/299/299 320/320/320 301/301/301
f 312/312/312 320/320/320 299/299/299
f 342/342/342 341/341/341 340/340/340
f 343/343/343 341/341/341 342/342/342
f 346/346/346 345/345/345 344/344/344
f 347/347/347 345/345/345 346/346/346
f 345/345/345 349/349/349 348/348/348
f 347/347/347 349/349/349 345/345/345
f 348/348/348 351/351/351 350/350/350
f 349/349/349 351/351/351 348/348/348
f 343/343/343 352/352/352 341/341/341
f 353/353/353 352/352/352 343/343/343
f 346/346/346 354/354/354 347/347/347
f 355/355/355 354/354/354 346/346/346
f 349/349/349 354/354/354 356/356/356
f 347/347/347 354/354/354 349/349/349
f 351/351/351 356/356/356 357/357/357
f 349/349/349 356/356/356 351/351/351
f 358/358/358 352/352/352 353/353/353
f 359/359/359 352/352/352 358/358/358
f 355/355/355 360/360/360 354/354/354
f 361/361/361 360/360/360 355/355/355
f 356/356/356 360/360/360 362/362/362
f 354/354/354 360/360/360 356/356/356
f 357/357/357 362/362/362 363/363/363
f 356/356/356 362/362/362 357/357/357
f 364/364/364 359/359/359 358/358/358
f 365/365/365 359/359/359 364/364/364
f 361/361/361 366/366/366 360/360/360
f 367/367/367 366/366/366 361/361/361
f 360/360/360 368/368/368 362/362/362
f 366/366/366 368/368/368 360/360/360
f 362/362/362 369/369/369 363/363/363
f 368/368/368 369/369/369 362/362/362
f 369/369/369 371/371/371 370/370/370
f 368/368/368 371/371/371 369/369/369
f 368/368/368 372/372/372 371/371/371
f 366/366/366 372/372/372 368/368/368
f 372/372/372 367/367/367 373/373/373
f 366/366/366 367/367/367 372/372/372
f 365/365/365 375/375/375 374/374/374
f 364/364/364 375/375/375 365/365/365
f 273/273/273 374/374/374 375/375/375
f 272/272/272 374/374/374 273/273/273
f 373/373/373 265/265/265 372/372/372
f 263/263/263 265/265/265 373/373/373
f 372/372/372 376/376/376 371/371/371
f 265/265/265 376/376/376 372/372/372
f 371/371/371 253/253/253 370/370/370
f 376/376/376 253/253/253 371/371/371
f 376/376/376 264/264/264 377/377/377
f 265/265/265 264/264/264 376/376/376
f 253/253/253 377/377/377 195/195/195
f 376/376/376 377/377/377 253/253/253
f 269/269/269 270/270/270 271/271/271
f 268/268/268 270/270/270 269/269/269
f 262/262/262 308/308/308 264/264/264
f 378/378/378 308/308/308 262/262/262
f 310/310/310 264/264/264 308/308/308
f 264/264/264 278/278/278 377/377/377
f 310/310/310 278/278/278 264/264/264
f 195/195/195 278/278/278 280/280/280
f 377/377/377 278/278/278 195/195/195
f 379/379/379 308/308/308 378/378/378
f 338/338/338 308/308/308 379/379/379
f 310/310/310 277/277/277 278/278/278
f 309/309/309 277/277/277 310/310/310
f 275/275/275 266/266/266 267/267/267
f 276/276/276 266/266/266 275/275/275
f 379/379/379 261/261/261 338/338/338
f 259/259/259 261/261/261 379/379/379
f 261/261/261 307/307/307 338/338/338
f 303/303/303 307/307/307 261/261/261
f 303/303/303 309/309/309 307/307/307
f 287/287/287 309/309/309 303/303/303
f 277/277/277 287/287/287 285/285/285
f 309/309/309 287/287/287 277/277/277
f 323/323/323 277/277/277 285/285/285
f 279/279/279 277/277/277 323/323/323
f 332/332/332 281/281/281 380/380/380
f 283/283/283 281/281/281 332/332/332
f 380/380/380 305/305/305 381/381/381
f 281/281/281 305/305/305 380/380/380
f 336/336/336 382/382/382 337/337/337
f 320/320/320 316/316/316 301/301/301
f 315/315/315 301/301/301 316/316/316
f 302/302/302 301/301/301 315/315/315
f 302/302/302 332/332/332 331/331/331
f 315/315/315 332/332/332 302/302/302
f 331/331/331 380/380/380 333/333/333
f 332/332/332 380/380/380 331/331/331
f 380/380/380 339/339/339 333/333/333
f 381/381/381 339/339/339 380/380/380
f 336/336/336 383/383/383 382/382/382
f 336/336/336 384/384/384 383/383/383
