# Exported from Godot Engine
mtllib Windows_Top.mtl
o Windows_Top
v 0.250530 1.303365 -0.653422
vt 0.596680 2.491211
vn -0.554073 -0.277036 -0.785019
v 0.255404 1.300117 -0.662924
vt 0.595215 2.486328
vn -0.542216 -0.271084 -0.795308
v 0.249865 1.302871 -0.656667
vt 0.597168 2.489258
vn -0.552439 -0.237404 -0.799031
v 0.252714 1.301046 -0.661882
vt 0.596191 2.486328
vn -0.536480 -0.223525 -0.813773
v 0.555416 1.272393 -0.140976
vt 0.402344 2.690430
vn -0.502693 -0.367185 -0.782608
v 0.409279 1.323054 -0.136896
vt 0.471436 2.710938
vn -0.510451 -0.334439 -0.792206
v 0.561128 1.273542 0.000000
vt 0.382812 2.752930
vn -0.496136 -0.374247 -0.783446
v 0.414313 1.324737 0.000000
vt 0.452637 2.771484
vn -0.508967 -0.342199 -0.789843
v 0.540173 1.268035 -0.281519
vt 0.425537 2.628906
vn -0.504300 -0.359617 -0.785084
v 0.394399 1.318872 -0.273025
vt 0.493896 2.650391
vn -0.518469 -0.319085 -0.793332
v 0.514384 1.260762 -0.420383
vt 0.452393 2.569336
vn -0.512478 -0.344595 -0.786524
v 0.368535 1.312194 -0.407397
vt 0.520020 2.592773
vn -0.525030 -0.311469 -0.792042
v 0.476663 1.251256 -0.556320
vt 0.482666 2.510742
vn -0.520620 -0.329305 -0.787727
v 0.330215 1.303567 -0.538651
vt 0.550293 2.536133
vn -0.536778 -0.297703 -0.789457
v 1.160990 0.993004 0.000000
vt 0.083618 2.664062
vn -0.437553 -0.454044 -0.776139
v 1.262692 0.938780 0.000000
vt 0.032654 2.646484
vn -0.428428 -0.456983 -0.779498
v 1.154450 0.991910 -0.154928
vt 0.108948 2.596680
vn -0.445604 -0.441435 -0.778828
v 1.256359 0.937860 -0.153333
vt 0.058289 2.580078
vn -0.436366 -0.444589 -0.782256
v 1.135842 0.988117 -0.309097
vt 0.137207 2.531250
vn -0.455530 -0.426241 -0.781544
v 1.237686 0.934888 -0.305790
vt 0.086548 2.515625
vn -0.449110 -0.432459 -0.781843
v 1.101824 0.983399 -0.460254
vt 0.170166 2.468750
vn -0.463576 -0.413002 -0.783918
v 1.203053 0.931654 -0.455291
vt 0.119812 2.454102
vn -0.457128 -0.419367 -0.784325
v 0.981230 1.044347 -0.460106
vt 0.229492 2.487305
vn -0.473178 -0.409198 -0.780166
v 0.838388 1.115129 -0.451049
vt 0.298584 2.511719
vn -0.482911 -0.405296 -0.776229
v 1.014315 1.050299 -0.308740
vt 0.197144 2.550781
vn -0.464996 -0.422705 -0.777882
v 0.869076 1.122149 -0.302372
vt 0.267822 2.575195
vn -0.476340 -0.411957 -0.776783
v 1.032640 1.054593 -0.154665
vt 0.169434 2.617188
vn -0.456860 -0.435885 -0.775425
v 0.886740 1.126691 -0.151447
vt 0.241455 2.640625
vn -0.468033 -0.425526 -0.774514
v 1.039212 1.055454 0.000000
vt 0.144897 2.683594
vn -0.446831 -0.451011 -0.772613
v 0.893242 1.127508 0.000000
vt 0.218506 2.707031
vn -0.462845 -0.441605 -0.768609
v 1.052230 0.977663 -0.607350
vt 0.208374 2.409180
vn -0.479695 -0.402603 -0.779618
v 1.151873 0.928694 -0.600129
vt 0.158691 2.396484
vn -0.465394 -0.394105 -0.792521
v 0.992356 0.966894 -0.754025
vt 0.248535 2.347656
vn -0.489542 -0.398558 -0.775564
v 1.091240 0.921574 -0.742528
vt 0.199829 2.339844
vn -0.481336 -0.395367 -0.782304
v 0.877106 1.022799 -0.753613
vt 0.304443 2.364258
vn -0.491257 -0.391262 -0.778191
v 0.740256 1.091477 -0.739526
vt 0.369873 2.389648
vn -0.499543 -0.376856 -0.780024
v 0.933834 1.036260 -0.607659
vt 0.266113 2.425781
vn -0.486261 -0.395873 -0.778996
v 0.794683 1.105574 -0.596340
vt 0.333008 2.450195
vn -0.491257 -0.391262 -0.778191
v 1.292770 0.918112 -0.149910
vt 0.039795 2.575195
vn -0.432819 -0.453403 -0.779162
v 1.306804 0.915000 0.000000
vt 0.010864 2.637695
vn -0.423752 -0.456325 -0.782434
v 1.265558 0.920175 -0.303222
vt 0.072510 2.512695
vn -0.445604 -0.441435 -0.778828
v 1.223889 0.920782 -0.453241
vt 0.109314 2.452148
vn -0.453666 -0.428485 -0.781401
v 1.169537 0.920030 -0.598130
vt 0.149902 2.394531
vn -0.455707 -0.409727 -0.790224
v 1.121630 0.920078 -0.693920
vt 0.181519 2.357422
vn -0.469789 -0.307626 -0.827445
v 0.728769 1.204190 0.000000
vt 0.300781 2.730469
vn -0.477804 -0.421837 -0.770556
v 0.722580 1.202925 -0.146235
vt 0.321777 2.666016
vn -0.482911 -0.405296 -0.776229
v 0.706181 1.198397 -0.292045
vt 0.346680 2.602539
vn -0.491257 -0.391262 -0.778191
v 0.679426 1.190387 -0.436186
vt 0.374268 2.541016
vn -0.494481 -0.381708 -0.780889
v 0.641791 1.179133 -0.577651
vt 0.405273 2.480469
vn -0.502693 -0.367185 -0.782608
v 0.427922 1.238181 -0.690718
vt 0.516113 2.454102
vn -0.525857 -0.323593 -0.786614
v 0.593618 1.163647 -0.717616
vt 0.439209 2.419922
vn -0.507810 -0.362095 -0.781675
v 0.298180 1.313386 -0.535271
vt 0.564941 2.541016
vn -0.546108 -0.273030 -0.791973
v 0.336037 1.322246 -0.404803
vt 0.535156 2.597656
vn -0.535698 -0.279088 -0.796955
v 0.361714 1.328986 -0.271278
vt 0.508789 2.655273
vn -0.524131 -0.293152 -0.799593
v 0.376299 1.333190 -0.135982
vt 0.486572 2.714844
vn -0.517649 -0.300833 -0.800961
v 0.381291 1.334851 0.000000
vt 0.468018 2.775391
vn -0.516252 -0.308849 -0.798809
v 0.281096 1.290877 -0.667035
vt 0.583008 2.481445
vn -0.534370 -0.287388 -0.794894
v 0.281096 1.290877 0.667035
vt 0.583008 2.481445
vn -0.698590 0.575797 -0.424770
v 0.330215 1.303567 0.538651
vt 0.550293 2.536133
vn -0.694754 0.576530 -0.430035
v 0.255404 1.300117 0.662924
vt 0.595215 2.486328
vn -0.707001 0.554111 -0.439443
v 0.250530 1.303365 0.653423
vt 0.596680 2.491211
vn -0.706307 0.535765 -0.462695
v 0.298180 1.313385 0.535271
vt 0.564941 2.541016
vn -0.706820 0.548127 -0.447171
v 0.414313 1.324737 0.000000
vt 0.452637 2.771484
vn -0.667760 0.640673 -0.378991
v 0.409279 1.323054 0.136896
vt 0.471436 2.710938
vn -0.671645 0.635273 -0.381210
v 0.561128 1.273542 0.000000
vt 0.382812 2.752930
vn -0.649202 0.671225 -0.357763
v 0.555416 1.272393 0.140976
vt 0.402344 2.690430
vn -0.654786 0.659205 -0.369734
v 0.394399 1.318872 0.273025
vt 0.493896 2.650391
vn -0.680858 0.616384 -0.395605
v 0.540173 1.268035 0.281519
vt 0.425537 2.628906
vn -0.658648 0.654124 -0.371894
v 0.368535 1.312194 0.407397
vt 0.520020 2.592773
vn -0.686016 0.602510 -0.407877
v 0.514384 1.260762 0.420384
vt 0.452393 2.569336
vn -0.667978 0.636098 -0.386245
v 0.476663 1.251256 0.556320
vt 0.482666 2.510742
vn -0.677135 0.617181 -0.400720
v 1.256359 0.937860 0.153333
vt 0.058289 2.580078
vn -0.590296 0.765752 -0.255292
v 1.262692 0.938780 0.000000
vt 0.032654 2.646484
vn -0.580761 0.776872 -0.243283
v 1.154450 0.991910 0.154928
vt 0.108948 2.596680
vn -0.596734 0.754949 -0.271957
v 1.160990 0.993004 0.000000
vt 0.083618 2.664062
vn -0.587088 0.766764 -0.259617
v 1.237686 0.934888 0.305790
vt 0.086548 2.515625
vn -0.602285 0.748783 -0.276726
v 1.135842 0.988117 0.309097
vt 0.137207 2.531250
vn -0.608266 0.739754 -0.287710
v 1.203053 0.931654 0.455291
vt 0.119812 2.454102
vn -0.612001 0.735981 -0.289460
v 1.101824 0.983399 0.460254
vt 0.170166 2.468750
vn -0.617962 0.726453 -0.300647
v 0.869076 1.122149 0.302373
vt 0.267822 2.575195
vn -0.624588 0.710089 -0.325058
v 0.838388 1.115128 0.451049
vt 0.298584 2.511719
vn -0.630370 0.699439 -0.336776
v 1.014315 1.050299 0.308740
vt 0.197144 2.550781
vn -0.614598 0.727403 -0.305213
v 0.981230 1.044347 0.460106
vt 0.229492 2.487305
vn -0.624226 0.713380 -0.318481
v 0.886740 1.126691 0.151447
vt 0.241455 2.640625
vn -0.614941 0.724376 -0.311652
v 1.032640 1.054593 0.154666
vt 0.169434 2.617188
vn -0.604957 0.740714 -0.292182
v 0.893242 1.127508 0.000000
vt 0.218506 2.707031
vn -0.605628 0.735039 -0.304848
v 1.039212 1.055454 0.000000
vt 0.144897 2.683594
vn -0.593445 0.755934 -0.276380
v 1.151873 0.928694 0.600129
vt 0.158691 2.396484
vn -0.626819 0.718719 -0.300898
v 1.052230 0.977663 0.607350
vt 0.208374 2.409180
vn -0.630083 0.702912 -0.330014
v 1.091240 0.921574 0.742528
vt 0.199829 2.339844
vn -0.633878 0.698540 -0.332025
v 0.992356 0.966894 0.754026
vt 0.248535 2.347656
vn -0.636134 0.688366 -0.348548
v 0.794683 1.105574 0.596340
vt 0.333008 2.450195
vn -0.639950 0.683741 -0.350659
v 0.740256 1.091476 0.739527
vt 0.369873 2.389648
vn -0.649476 0.667180 -0.364763
v 0.933834 1.036259 0.607659
vt 0.266113 2.425781
vn -0.635846 0.692047 -0.341718
v 0.877106 1.022798 0.753613
vt 0.304443 2.364258
vn -0.639950 0.683741 -0.350659
v 1.306804 0.915000 0.000000
vt 0.010864 2.637695
vn -0.578303 0.781417 -0.234420
v 1.292770 0.918112 0.149910
vt 0.039795 2.575195
vn -0.584690 0.771577 -0.250613
v 1.265558 0.920175 0.303223
vt 0.072510 2.512695
vn -0.596734 0.754949 -0.271957
v 1.223889 0.920782 0.453241
vt 0.109314 2.452148
vn -0.606389 0.742483 -0.284625
v 1.169537 0.920030 0.598130
vt 0.149902 2.394531
vn -0.615316 0.734985 -0.284927
v 1.121630 0.920077 0.693921
vt 0.181519 2.357422
vn -0.666192 0.683245 -0.298939
v 0.722580 1.202925 0.146235
vt 0.321777 2.666016
vn -0.630370 0.699439 -0.336776
v 0.728769 1.204190 0.000000
vt 0.300781 2.730469
vn -0.621073 0.710993 -0.329783
v 0.706181 1.198397 0.292045
vt 0.346680 2.602539
vn -0.639950 0.683741 -0.350659
v 0.679426 1.190387 0.436187
vt 0.374268 2.541016
vn -0.645377 0.676033 -0.355623
v 0.641791 1.179133 0.577652
vt 0.405273 2.480469
vn -0.654786 0.659205 -0.369734
v 0.593618 1.163647 0.717616
vt 0.439209 2.419922
vn -0.658856 0.649791 -0.379053
v 0.427922 1.238181 0.690718
vt 0.516113 2.454102
vn -0.681071 0.606353 -0.410462
v 0.336037 1.322246 0.404803
vt 0.535156 2.597656
vn -0.702376 0.569439 -0.427092
v 0.361714 1.328986 0.271278
vt 0.508789 2.655273
vn -0.693599 0.595769 -0.404944
v 0.376299 1.333190 0.135982
vt 0.486572 2.714844
vn -0.688400 0.609807 -0.392734
v 0.381291 1.334851 0.000000
vt 0.468018 2.775391
vn -0.684545 0.615564 -0.390487
v 0.250688 1.302035 -0.659679
vt 0.596680 2.488281
vn -0.552439 -0.237404 -0.799031
v 0.252714 1.301046 0.661882
vt 0.596191 2.486328
vn -0.725796 0.526060 -0.443263
v 0.249865 1.302871 0.656668
vt 0.597168 2.489258
vn -0.722053 0.510810 -0.466596
v 0.250688 1.302035 0.659680
vt 0.596680 2.488281
vn -0.722391 0.517327 -0.458829
v 0.253482 1.303604 -0.662416
vt 0.596191 2.486328
vn -0.544453 0.226791 -0.807550
v 0.250633 1.305429 -0.657201
vt 0.597168 2.489258
vn -0.556549 0.239132 -0.795656
v 0.251456 1.304593 -0.660213
vt 0.596680 2.488281
vn -0.552494 0.237407 -0.798992
v 0.415160 1.327325 0.000000
vt 0.452637 2.771484
vn -0.509024 0.342204 -0.789804
v 0.410123 1.325641 -0.137012
vt 0.471436 2.710938
vn -0.510508 0.334443 -0.792167
v 0.562098 1.276087 0.000000
vt 0.382812 2.752930
vn -0.496194 0.374253 -0.783407
v 0.556383 1.274935 -0.141099
vt 0.402344 2.690430
vn -0.502750 0.367191 -0.782568
v 0.395235 1.321454 -0.273255
vt 0.493896 2.650391
vn -0.518526 0.319089 -0.793293
v 0.541134 1.270571 -0.281767
vt 0.425537 2.628906
vn -0.504357 0.359622 -0.785045
v 0.369357 1.314767 -0.407745
vt 0.520020 2.592773
vn -0.525086 0.311473 -0.792003
v 0.515334 1.263286 -0.420760
vt 0.452393 2.569336
vn -0.512536 0.344600 -0.786485
v 0.331019 1.306125 -0.539126
vt 0.550293 2.536133
vn -0.536834 0.297707 -0.789417
v 0.477593 1.253764 -0.556832
vt 0.482666 2.510742
vn -0.520677 0.329309 -0.787687
v 1.257645 0.940256 -0.153471
vt 0.058289 2.580078
vn -0.436425 0.444597 -0.782219
v 1.263980 0.941179 0.000000
vt 0.032654 2.646484
vn -0.428486 0.456991 -0.779461
v 1.155709 0.994321 -0.155067
vt 0.108948 2.596680
vn -0.445662 0.441442 -0.778790
v 1.162252 0.995417 0.000000
vt 0.083618 2.664062
vn -0.437612 0.454051 -0.776101
v 1.238962 0.937278 -0.306067
vt 0.086548 2.515625
vn -0.449169 0.432467 -0.781806
v 1.137089 0.990522 -0.309379
vt 0.137207 2.531250
vn -0.455589 0.426248 -0.781506
v 1.204306 0.934035 -0.455711
vt 0.119812 2.454102
vn -0.457186 0.419374 -0.784287
v 1.103049 0.985793 -0.460681
vt 0.170166 2.468750
vn -0.463634 0.413009 -0.783880
v 0.870239 1.124595 -0.302653
vt 0.267822 2.575195
vn -0.476398 0.411963 -0.776744
v 0.839534 1.117562 -0.451476
vt 0.298584 2.511719
vn -0.482969 0.405302 -0.776190
v 1.015527 1.052722 -0.309025
vt 0.197144 2.550781
vn -0.465054 0.422712 -0.777843
v 0.982421 1.046757 -0.460538
vt 0.229492 2.487305
vn -0.473236 0.409205 -0.780127
v 0.887913 1.129144 -0.151584
vt 0.241455 2.640625
vn -0.468091 0.425533 -0.774476
v 1.033863 1.057022 -0.154805
vt 0.169434 2.617188
vn -0.456918 0.435892 -0.775386
v 0.894419 1.129964 0.000000
vt 0.218506 2.707031
vn -0.462903 0.441612 -0.768570
v 1.040438 1.057886 0.000000
vt 0.144897 2.683594
vn -0.446890 0.451019 -0.772575
v 1.153092 0.931065 -0.600685
vt 0.158691 2.396484
vn -0.463675 0.396204 -0.792483
v 1.053422 0.980043 -0.607926
vt 0.208374 2.409180
vn -0.479753 0.402609 -0.779579
v 1.092333 0.923994 -0.743123
vt 0.199829 2.339844
vn -0.481394 0.395373 -0.782266
v 0.993530 0.969264 -0.754675
vt 0.248535 2.347656
vn -0.489599 0.398564 -0.775525
v 0.795806 1.107987 -0.596918
vt 0.333008 2.450195
vn -0.491315 0.391268 -0.778151
v 0.741365 1.093876 -0.740180
vt 0.369873 2.389648
vn -0.499600 0.376861 -0.779984
v 0.934997 1.038651 -0.608245
vt 0.266113 2.425781
vn -0.486319 0.395879 -0.778957
v 0.878253 1.025178 -0.754274
vt 0.304443 2.364258
vn -0.491315 0.391268 -0.778151
v 1.308101 0.917393 0.000000
vt 0.010864 2.637695
vn -0.423810 0.456333 -0.782397
v 1.294067 0.920501 -0.150046
vt 0.039795 2.575195
vn -0.432878 0.453411 -0.779124
v 1.266848 0.922557 -0.303497
vt 0.072510 2.512695
vn -0.445662 0.441442 -0.778790
v 1.225156 0.923155 -0.453658
vt 0.109314 2.452148
vn -0.453724 0.428492 -0.781363
v 1.170775 0.922392 -0.598679
vt 0.149902 2.394531
vn -0.455765 0.409734 -0.790187
v 1.122742 0.922491 -0.694501
vt 0.181519 2.357422
vn -0.469846 0.307631 -0.827410
v 0.723674 1.205415 -0.146367
vt 0.321777 2.666016
vn -0.482969 0.405302 -0.776190
v 0.729865 1.206682 0.000000
vt 0.300781 2.730469
vn -0.477862 0.421843 -0.770517
v 0.707267 1.200880 -0.292313
vt 0.346680 2.602539
vn -0.489599 0.398564 -0.775525
v 0.680500 1.192856 -0.436594
vt 0.374268 2.541016
vn -0.494539 0.381714 -0.780850
v 0.642846 1.181582 -0.578204
vt 0.405273 2.480469
vn -0.502750 0.367191 -0.782568
v 0.594662 1.166082 -0.718244
vt 0.439209 2.419922
vn -0.507868 0.362100 -0.781636
v 0.428837 1.240677 -0.691301
vt 0.516113 2.454102
vn -0.527303 0.321722 -0.786413
v 0.336809 1.324835 -0.405140
vt 0.535156 2.597656
vn -0.535754 0.279092 -0.796916
v 0.298944 1.315957 -0.535735
vt 0.564941 2.541016
vn -0.546164 0.273033 -0.791933
v 0.362503 1.331582 -0.271501
vt 0.508789 2.655273
vn -0.524187 0.293156 -0.799555
v 0.377095 1.335791 -0.136096
vt 0.486572 2.714844
vn -0.517705 0.300837 -0.800923
v 0.382088 1.337454 0.000000
vt 0.468018 2.775391
vn -0.516308 0.308853 -0.798771
v 0.281895 1.293423 -0.667580
vt 0.583008 2.481445
vn -0.534426 0.287392 -0.794855
v 0.298944 1.315957 0.535735
vt 0.564941 2.541016
vn -0.706778 -0.548134 -0.447229
v 0.331019 1.306125 0.539127
vt 0.550293 2.536133
vn -0.694712 -0.576538 -0.430093
v 0.251297 1.305922 0.653957
vt 0.596680 2.491211
vn -0.706264 -0.535772 -0.462752
v 0.256171 1.302675 0.663458
vt 0.595215 2.486328
vn -0.706959 -0.554119 -0.439501
v 0.281895 1.293423 0.667580
vt 0.583008 2.481445
vn -0.698548 -0.575806 -0.424828
v 0.556383 1.274935 0.141099
vt 0.402344 2.690430
vn -0.654745 -0.659215 -0.369790
v 0.410123 1.325641 0.137012
vt 0.471436 2.710938
vn -0.671604 -0.635282 -0.381267
v 0.562098 1.276087 0.000000
vt 0.382812 2.752930
vn -0.649161 -0.671235 -0.357819
v 0.415160 1.327325 0.000000
vt 0.452637 2.771484
vn -0.667719 -0.640682 -0.379048
v 0.541134 1.270571 0.281767
vt 0.425537 2.628906
vn -0.658606 -0.654133 -0.371951
v 0.395235 1.321454 0.273255
vt 0.493896 2.650391
vn -0.680817 -0.616393 -0.395662
v 0.515334 1.263286 0.420760
vt 0.452393 2.569336
vn -0.667936 -0.636107 -0.386302
v 0.369357 1.314767 0.407745
vt 0.520020 2.592773
vn -0.685974 -0.602518 -0.407935
v 0.477593 1.253764 0.556832
vt 0.482666 2.510742
vn -0.677093 -0.617189 -0.400777
v 1.162252 0.995417 0.000000
vt 0.083618 2.664062
vn -0.587048 -0.766776 -0.259671
v 1.263980 0.941179 0.000000
vt 0.032654 2.646484
vn -0.580722 -0.776885 -0.243335
v 1.155709 0.994321 0.155067
vt 0.108948 2.596680
vn -0.596694 -0.754961 -0.272011
v 1.257645 0.940256 0.153472
vt 0.058289 2.580078
vn -0.590257 -0.765765 -0.255345
v 1.137089 0.990522 0.309379
vt 0.137207 2.531250
vn -0.608226 -0.739765 -0.287764
v 1.238962 0.937278 0.306068
vt 0.086548 2.515625
vn -0.602245 -0.748795 -0.276780
v 1.103049 0.985793 0.460681
vt 0.170166 2.468750
vn -0.617922 -0.726465 -0.300702
v 1.204306 0.934035 0.455711
vt 0.119812 2.454102
vn -0.611961 -0.735992 -0.289515
v 0.982421 1.046757 0.460539
vt 0.229492 2.487305
vn -0.624186 -0.713391 -0.318537
v 0.839534 1.117561 0.451476
vt 0.298584 2.511719
vn -0.630329 -0.699450 -0.336831
v 1.015527 1.052722 0.309025
vt 0.197144 2.550781
vn -0.614557 -0.727414 -0.305268
v 0.870239 1.124595 0.302654
vt 0.267822 2.575195
vn -0.624547 -0.710100 -0.325114
v 1.033863 1.057022 0.154805
vt 0.169434 2.617188
vn -0.603004 -0.743472 -0.289197
v 0.887913 1.129144 0.151585
vt 0.241455 2.640625
vn -0.614900 -0.724387 -0.311708
v 1.040438 1.057886 0.000000
vt 0.144897 2.683594
vn -0.593405 -0.755946 -0.276434
v 0.894419 1.129964 0.000000
vt 0.218506 2.707031
vn -0.605587 -0.735050 -0.304903
v 1.053422 0.980043 0.607926
vt 0.208374 2.409180
vn -0.630042 -0.702923 -0.330069
v 1.153092 0.931064 0.600685
vt 0.158691 2.396484
vn -0.625015 -0.721522 -0.297928
v 0.993530 0.969264 0.754676
vt 0.248535 2.347656
vn -0.636092 -0.688376 -0.348605
v 1.092333 0.923993 0.743123
vt 0.199829 2.339844
vn -0.633837 -0.698551 -0.332081
v 0.878253 1.025178 0.754275
vt 0.304443 2.364258
vn -0.639909 -0.683751 -0.350716
v 0.741365 1.093876 0.740181
vt 0.369873 2.389648
vn -0.649435 -0.667189 -0.364819
v 0.934997 1.038651 0.608245
vt 0.266113 2.425781
vn -0.635804 -0.692057 -0.341774
v 0.795806 1.107987 0.596918
vt 0.333008 2.450195
vn -0.639909 -0.683751 -0.350716
v 1.294067 0.920501 0.150046
vt 0.039795 2.575195
vn -0.584650 -0.771590 -0.250666
v 1.308101 0.917393 0.000000
vt 0.010864 2.637695
vn -0.578264 -0.781430 -0.234473
v 1.266848 0.922556 0.303497
vt 0.072510 2.512695
vn -0.596694 -0.754961 -0.272011
v 1.225156 0.923155 0.453658
vt 0.109314 2.452148
vn -0.606349 -0.742495 -0.284680
v 1.170775 0.922391 0.598679
vt 0.149902 2.394531
vn -0.615276 -0.734997 -0.284981
v 1.122742 0.922491 0.694501
vt 0.181519 2.357422
vn -0.666154 -0.683258 -0.298994
v 0.729865 1.206682 0.000000
vt 0.300781 2.730469
vn -0.621031 -0.711004 -0.329839
v 0.723674 1.205415 0.146367
vt 0.321777 2.666016
vn -0.630329 -0.699450 -0.336831
v 0.707267 1.200880 0.292314
vt 0.346680 2.602539
vn -0.636092 -0.688376 -0.348605
v 0.680500 1.192856 0.436594
vt 0.374268 2.541016
vn -0.645335 -0.676044 -0.355679
v 0.642846 1.181582 0.578205
vt 0.405273 2.480469
vn -0.654745 -0.659215 -0.369790
v 0.428837 1.240676 0.691301
vt 0.516113 2.454102
vn -0.682184 -0.603287 -0.413121
v 0.594662 1.166082 0.718244
vt 0.439209 2.419922
vn -0.658814 -0.649800 -0.379110
v 0.336809 1.324835 0.405141
vt 0.535156 2.597656
vn -0.702334 -0.569447 -0.427150
v 0.362503 1.331582 0.271502
vt 0.508789 2.655273
vn -0.693558 -0.595778 -0.405002
v 0.377095 1.335791 0.136096
vt 0.486572 2.714844
vn -0.688359 -0.609816 -0.392792
v 0.382088 1.337454 0.000000
vt 0.468018 2.775391
vn -0.684503 -0.615573 -0.390544
v 0.281096 1.290877 -0.667035
vt 0.583008 2.481445
vn 0.707118 0.000000 -0.707096
v 0.281895 1.293423 -0.667580
vt 0.583008 2.481445
vn 0.707118 0.000000 -0.707096
v 0.255404 1.300117 -0.662924
vt 0.595215 2.486328
vn 0.707118 0.000000 -0.707096
v 0.256171 1.302675 -0.663457
vt 0.595215 2.486328
vn 0.707118 0.000000 -0.707096
v 0.252714 1.301046 -0.661882
vt 0.596191 2.486328
vn 0.707118 0.000000 -0.707096
v 0.253482 1.303604 -0.662416
vt 0.596191 2.486328
vn 0.707118 0.000000 -0.707096
v 0.250688 1.302035 -0.659679
vt 0.596680 2.488281
vn 0.707118 0.000000 -0.707096
v 0.251456 1.304593 -0.660213
vt 0.596680 2.488281
vn 0.707118 0.000000 -0.707096
v 0.249865 1.302871 -0.656667
vt 0.597168 2.489258
vn 0.707118 0.000000 -0.707096
v 0.250633 1.305429 -0.657201
vt 0.597168 2.489258
vn 0.707118 0.000000 -0.707096
v 0.250530 1.303365 -0.653422
vt 0.596680 2.491211
vn 0.707074 0.000000 -0.707139
v 0.251297 1.305923 -0.653956
vt 0.596680 2.491211
vn 0.707074 0.000000 -0.707139
v 0.298180 1.313386 -0.535271
vt 0.564941 2.541016
vn 0.707074 0.000000 -0.707139
v 0.298944 1.315957 -0.535735
vt 0.564941 2.541016
vn 0.707074 0.000000 -0.707139
v 1.091240 0.921574 -0.742528
vt 0.199829 2.339844
vn 0.707118 0.000000 -0.707096
v 1.092333 0.923994 -0.743123
vt 0.199829 2.339844
vn 0.707118 0.000000 -0.707096
v 0.992356 0.966894 -0.754025
vt 0.248535 2.347656
vn 0.707118 0.000000 -0.707096
v 0.993530 0.969264 -0.754675
vt 0.248535 2.347656
vn 0.707118 0.000000 -0.707096
v 0.877106 1.022799 -0.753613
vt 0.304443 2.364258
vn 0.707118 0.000000 -0.707096
v 0.878253 1.025178 -0.754274
vt 0.304443 2.364258
vn 0.707118 0.000000 -0.707096
v 0.740256 1.091477 -0.739526
vt 0.369873 2.389648
vn 0.707118 0.000000 -0.707096
v 0.741365 1.093876 -0.740180
vt 0.369873 2.389648
vn 0.707118 0.000000 -0.707096
v 1.306804 0.915000 0.000000
vt 0.010864 2.637695
vn 0.707118 0.000000 -0.707096
v 1.308101 0.917393 0.000000
vt 0.010864 2.637695
vn 0.707118 0.000000 -0.707096
v 1.292770 0.918112 -0.149910
vt 0.039795 2.575195
vn 0.707118 0.000000 -0.707096
v 1.294067 0.920501 -0.150046
vt 0.039795 2.575195
vn 0.707118 0.000000 -0.707096
v 1.265558 0.920175 -0.303222
vt 0.072510 2.512695
vn 0.707118 0.000000 -0.707096
v 1.266848 0.922557 -0.303497
vt 0.072510 2.512695
vn 0.707118 0.000000 -0.707096
v 1.223889 0.920782 -0.453241
vt 0.109314 2.452148
vn 0.707118 0.000000 -0.707096
v 1.225156 0.923155 -0.453658
vt 0.109314 2.452148
vn 0.707118 0.000000 -0.707096
v 1.169537 0.920030 -0.598130
vt 0.149902 2.394531
vn 0.707118 0.000000 -0.707096
v 1.170775 0.922392 -0.598679
vt 0.149902 2.394531
vn 0.707118 0.000000 -0.707096
v 1.121630 0.920078 -0.693920
vt 0.181519 2.357422
vn 0.707118 0.000000 -0.707096
v 1.122742 0.922491 -0.694501
vt 0.181519 2.357422
vn 0.707118 0.000000 -0.707096
v 0.593618 1.163647 -0.717616
vt 0.439209 2.419922
vn 0.707118 0.000000 -0.707096
v 0.594662 1.166082 -0.718244
vt 0.439209 2.419922
vn 0.707118 0.000000 -0.707096
v 0.427922 1.238181 -0.690718
vt 0.516113 2.454102
vn 0.707118 0.000000 -0.707096
v 0.428837 1.240677 -0.691301
vt 0.516113 2.454102
vn 0.707118 0.000000 -0.707096
v 0.336037 1.322246 -0.404803
vt 0.535156 2.597656
vn 0.707074 0.000000 -0.707139
v 0.336809 1.324835 -0.405140
vt 0.535156 2.597656
vn 0.707074 0.000000 -0.707139
v 0.361714 1.328986 -0.271278
vt 0.508789 2.655273
vn 0.707074 0.000000 -0.707139
v 0.362503 1.331582 -0.271501
vt 0.508789 2.655273
vn 0.707074 0.000000 -0.707139
v 0.376299 1.333190 -0.135982
vt 0.486572 2.714844
vn 0.707074 0.000000 -0.707139
v 0.377095 1.335791 -0.136096
vt 0.486572 2.714844
vn 0.707074 0.000000 -0.707139
v 0.381291 1.334851 0.000000
vt 0.468018 2.775391
vn 0.707118 0.000000 -0.707096
v 0.382088 1.337454 0.000000
vt 0.468018 2.775391
vn 0.707118 0.000000 -0.707096
v 0.298180 1.313385 0.535271
vt 0.564941 2.541016
vn 0.707118 0.000000 -0.707096
v 0.298944 1.315957 0.535735
vt 0.564941 2.541016
vn 0.707118 0.000000 -0.707096
v 0.250530 1.303365 0.653423
vt 0.596680 2.491211
vn 0.707118 0.000000 -0.707096
v 0.251297 1.305922 0.653957
vt 0.596680 2.491211
vn 0.707118 0.000000 -0.707096
v 0.249865 1.302871 0.656668
vt 0.597168 2.489258
vn 0.707074 0.000000 -0.707139
v 0.250633 1.305429 0.657201
vt 0.597168 2.489258
vn 0.707074 0.000000 -0.707139
v 0.250688 1.302035 0.659680
vt 0.596680 2.488281
vn 0.707074 0.000000 -0.707139
v 0.251456 1.304592 0.660213
vt 0.596680 2.488281
vn 0.707074 0.000000 -0.707139
v 0.252714 1.301046 0.661882
vt 0.596191 2.486328
vn 0.707074 0.000000 -0.707139
v 0.253482 1.303604 0.662416
vt 0.596191 2.486328
vn 0.707074 0.000000 -0.707139
v 0.255404 1.300117 0.662924
vt 0.595215 2.486328
vn 0.707074 0.000000 -0.707139
v 0.256171 1.302675 0.663458
vt 0.595215 2.486328
vn 0.707074 0.000000 -0.707139
v 0.281096 1.290877 0.667035
vt 0.583008 2.481445
vn 0.707074 0.000000 -0.707139
v 0.281895 1.293423 0.667580
vt 0.583008 2.481445
vn 0.707074 0.000000 -0.707139
v 0.992356 0.966894 0.754026
vt 0.248535 2.347656
vn 0.707074 0.000000 -0.707139
v 0.993530 0.969264 0.754676
vt 0.248535 2.347656
vn 0.707074 0.000000 -0.707139
v 1.091240 0.921574 0.742528
vt 0.199829 2.339844
vn 0.707074 0.000000 -0.707139
v 1.092333 0.923993 0.743123
vt 0.199829 2.339844
vn 0.707074 0.000000 -0.707139
v 0.740256 1.091476 0.739527
vt 0.369873 2.389648
vn 0.707074 0.000000 -0.707139
v 0.741365 1.093876 0.740181
vt 0.369873 2.389648
vn 0.707074 0.000000 -0.707139
v 0.877106 1.022798 0.753613
vt 0.304443 2.364258
vn 0.707074 0.000000 -0.707139
v 0.878253 1.025178 0.754275
vt 0.304443 2.364258
vn 0.707074 0.000000 -0.707139
v 1.292770 0.918112 0.149910
vt 0.039795 2.575195
vn 0.707074 0.000000 -0.707139
v 1.294067 0.920501 0.150046
vt 0.039795 2.575195
vn 0.707074 0.000000 -0.707139
v 1.265558 0.920175 0.303223
vt 0.072510 2.512695
vn 0.707074 0.000000 -0.707139
v 1.266848 0.922556 0.303497
vt 0.072510 2.512695
vn 0.707074 0.000000 -0.707139
v 1.223889 0.920782 0.453241
vt 0.109314 2.452148
vn 0.707074 0.000000 -0.707139
v 1.225156 0.923155 0.453658
vt 0.109314 2.452148
vn 0.707074 0.000000 -0.707139
v 1.169537 0.920030 0.598130
vt 0.149902 2.394531
vn 0.707074 0.000000 -0.707139
v 1.170775 0.922391 0.598679
vt 0.149902 2.394531
vn 0.707074 0.000000 -0.707139
v 1.121630 0.920077 0.693921
vt 0.181519 2.357422
vn 0.707074 0.000000 -0.707139
v 1.122742 0.922491 0.694501
vt 0.181519 2.357422
vn 0.707074 0.000000 -0.707139
v 0.427922 1.238181 0.690718
vt 0.516113 2.454102
vn 0.707074 0.000000 -0.707139
v 0.428837 1.240676 0.691301
vt 0.516113 2.454102
vn 0.707074 0.000000 -0.707139
v 0.593618 1.163647 0.717616
vt 0.439209 2.419922
vn 0.707074 0.000000 -0.707139
v 0.594662 1.166082 0.718244
vt 0.439209 2.419922
vn 0.707074 0.000000 -0.707139
v 0.336037 1.322246 0.404803
vt 0.535156 2.597656
vn 0.707118 0.000000 -0.707096
v 0.336809 1.324835 0.405141
vt 0.535156 2.597656
vn 0.707118 0.000000 -0.707096
v 0.361714 1.328986 0.271278
vt 0.508789 2.655273
vn 0.707118 0.000000 -0.707096
v 0.362503 1.331582 0.271502
vt 0.508789 2.655273
vn 0.707118 0.000000 -0.707096
v 0.376299 1.333190 0.135982
vt 0.486572 2.714844
vn 0.707118 0.000000 -0.707096
v 0.377095 1.335791 0.136096
vt 0.486572 2.714844
vn 0.707118 0.000000 -0.707096
v 0.256171 1.302675 -0.663457
vt 0.595215 2.486328
vn -0.542272 0.271087 -0.795269
v 0.251297 1.305923 -0.653956
vt 0.596680 2.491211
vn -0.554128 0.277040 -0.784978
v 0.250633 1.305429 0.657201
vt 0.597168 2.489258
vn -0.722349 -0.517334 -0.458887
v 0.253482 1.303604 0.662416
vt 0.596191 2.486328
vn -0.725924 -0.538452 -0.427906
v 0.251456 1.304592 0.660213
vt 0.596680 2.488281
vn -0.722349 -0.517334 -0.458887
v -0.655378 1.426043 0.000000
vt 0.490723 2.358398
vn -0.827775 0.080718 -0.555223
v -0.656406 1.424268 -0.119543
vt 0.496094 2.302734
vn -0.834787 0.090474 -0.543089
v -0.461228 1.435480 0.000000
vt 0.400635 2.349609
vn -0.783708 0.020350 -0.620796
v -0.462776 1.433747 -0.121440
vt 0.406738 2.293945
vn -0.792263 0.030463 -0.609418
v -1.229167 1.343779 0.000000
vt 0.759277 2.378906
vn -0.910578 0.254738 -0.325509
v -1.228761 1.341965 -0.115405
vt 0.762695 2.325195
vn -0.913712 0.250430 -0.320023
v -1.042187 1.381411 0.000000
vt 0.670898 2.373047
vn -0.894187 0.204088 -0.398470
v -1.042275 1.379552 -0.116508
vt 0.675293 2.319336
vn -0.894187 0.204088 -0.398470
v 0.376721 1.341450 0.000000
vt 0.009766 2.304688
vn -0.371401 0.759822 -0.533603
v 0.373566 1.344675 0.000000
vt 0.011818 2.305664
vn -0.570415 0.332709 -0.750954
v 0.371576 1.340101 -0.135735
vt 0.020096 2.243164
vn -0.374884 0.749718 -0.545330
v 0.368448 1.343325 -0.135651
vt 0.022141 2.244141
vn -0.572175 0.324174 -0.753344
v 0.312530 1.359013 0.000000
vt 0.040558 2.309570
vn -0.601226 0.254145 -0.757587
v 0.119348 1.398935 0.000000
vt 0.131348 2.321289
vn -0.614733 0.198256 -0.763412
v 0.307860 1.357580 -0.133965
vt 0.050507 2.248047
vn -0.602675 0.244984 -0.759450
v 0.115749 1.397318 -0.129445
vt 0.140137 2.261719
vn -0.614733 0.198256 -0.763412
v -0.477980 1.419756 -0.363381
vt 0.424561 2.183594
vn -0.796873 0.040839 -0.602765
v -0.494053 1.406986 -0.483017
vt 0.437256 2.128906
vn -0.805025 0.050916 -0.591051
v -0.285577 1.419176 -0.369714
vt 0.336670 2.171875
vn -0.643085 0.020410 -0.765522
v -0.306389 1.406858 -0.490935
vt 0.351807 2.117188
vn -0.643168 0.010177 -0.765657
v -0.854883 1.391959 -0.353192
vt 0.597656 2.203125
vn -0.874125 0.158030 -0.459274
v -0.861482 1.378296 -0.470088
vt 0.605469 2.149414
vn -0.878928 0.166903 -0.446798
v -0.666833 1.409840 -0.357939
vt 0.510742 2.193359
vn -0.838537 0.101008 -0.535400
v -0.678199 1.396574 -0.476166
vt 0.521484 2.139648
vn -0.845843 0.111389 -0.521673
v -1.043423 1.364609 -0.349021
vt 0.685059 2.211914
vn -0.897688 0.212311 -0.386109
v -1.045196 1.350911 -0.464674
vt 0.690430 2.158203
vn -0.900946 0.220434 -0.373771
v 0.331706 1.328990 -0.404146
vt 0.052338 2.122070
vn -0.371930 0.710333 -0.597575
v 0.328755 1.332175 -0.403904
vt 0.054260 2.123047
vn -0.572626 0.302852 -0.761827
v 0.293999 1.320091 -0.534281
vt 0.075928 2.064453
vn -0.373398 0.680382 -0.630598
v 0.291203 1.323230 -0.533983
vt 0.077759 2.064453
vn -0.571616 0.283428 -0.770015
v -1.225441 1.327348 -0.345391
vt 0.770020 2.219727
vn -0.914224 0.259860 -0.310912
v -1.222360 1.314100 -0.459805
vt 0.773926 2.166016
vn -0.914579 0.269255 -0.301739
v -0.467900 1.428557 -0.242664
vt 0.414551 2.238281
vn -0.788458 0.030711 -0.614322
v -0.272267 1.427762 -0.247034
vt 0.324951 2.227539
vn -0.642896 0.030606 -0.765341
v -0.850981 1.401324 -0.235714
vt 0.590820 2.256836
vn -0.869055 0.148942 -0.471763
v -0.659864 1.418928 -0.238929
vt 0.502441 2.248047
vn -0.834787 0.090474 -0.543089
v -1.042567 1.374036 -0.232895
vt 0.679688 2.265625
vn -0.897688 0.212311 -0.386109
v 0.357148 1.335776 -0.270792
vt 0.033936 2.182617
vn -0.371968 0.735407 -0.566407
v 0.354086 1.338981 -0.270622
vt 0.035950 2.182617
vn -0.573923 0.315605 -0.755649
v -1.227538 1.336518 -0.230529
vt 0.766602 2.272461
vn -0.915724 0.257656 -0.308324
v -0.696079 1.379293 -0.592084
vt 0.534668 2.087891
vn -0.836569 0.125449 -0.533306
v -0.518641 1.390468 -0.599674
vt 0.453613 2.077148
vn -0.781842 0.053519 -0.621175
v -1.218430 1.297310 -0.572048
vt 0.776855 2.115234
vn -0.892600 0.323652 -0.313869
v -1.048821 1.333226 -0.578894
vt 0.697266 2.106445
vn -0.891311 0.230327 -0.390531
v 0.244930 1.310458 -0.656030
vt 0.104065 2.010742
vn -0.332524 0.376809 -0.864548
v 0.241655 1.313350 -0.658117
vt 0.106018 2.010742
vn -0.574202 0.244712 -0.781286
v 0.236294 1.336202 -0.528072
vt 0.103210 2.071289
vn -0.611432 0.218681 -0.760480
v 0.055468 1.373615 -0.511741
vt 0.186646 2.088867
vn -0.618074 0.169433 -0.767644
v 0.188621 1.325588 -0.651172
vt 0.130493 2.017578
vn -0.660324 0.234291 -0.713498
v 0.012949 1.360919 -0.631921
vt 0.211426 2.036133
vn -0.669383 0.171306 -0.722898
v -0.265365 1.432884 -0.123661
vt 0.315918 2.284180
vn -0.637904 0.030364 -0.769517
v -0.849130 1.406839 -0.117941
vt 0.585449 2.311523
vn -0.863681 0.139747 -0.484280
v 0.187197 1.323249 -0.652152
vt 0.131226 2.015625
vn -0.734951 0.165727 -0.657557
v 0.011660 1.358540 -0.632829
vt 0.212036 2.034180
vn -0.731647 0.089349 -0.675803
v -0.696637 1.376747 -0.592909
vt 0.535156 2.085938
vn -0.870389 0.220202 -0.440380
v -0.519404 1.387976 -0.600516
vt 0.454346 2.075195
vn -0.845094 0.181828 -0.502747
v -1.221938 1.294826 -0.567962
vt 0.778809 2.116211
vn -0.689062 0.582113 0.431668
v -1.225048 1.311216 -0.459670
vt 0.775879 2.166016
vn -0.787499 0.407444 0.462424
v -1.227552 1.324586 -0.345290
vt 0.771973 2.219727
vn -0.727818 0.363845 0.581290
v -1.229331 1.333819 -0.230460
vt 0.768066 2.272461
vn -0.677056 0.329068 0.658262
v -1.230405 1.339297 -0.115371
vt 0.764160 2.325195
vn -0.654870 0.304346 0.691751
v -1.230766 1.341119 0.000000
vt 0.760742 2.378906
vn -0.653683 0.299168 0.695124
v -1.217736 1.294718 -0.573983
vt 0.776855 2.112305
vn -0.907172 0.302375 -0.292588
v -1.048935 1.330687 -0.579690
vt 0.697754 2.104492
vn -0.904459 0.311162 -0.291772
v -0.848588 1.408676 0.000000
vt 0.580566 2.365234
vn -0.863681 0.139747 -0.484280
v -0.872362 1.360506 -0.585209
vt 0.615723 2.097656
vn -0.864408 0.175963 -0.470994
v -0.872704 1.357947 -0.586020
vt 0.616211 2.095703
vn -0.890071 0.264437 -0.371278
v -0.263248 1.434603 0.000000
vt 0.309082 2.340820
vn -0.637701 0.040461 -0.769221
v -0.337421 1.391409 -0.608421
vt 0.371094 2.064453
vn -0.679649 0.000000 -0.733537
v -0.338377 1.388936 -0.609273
vt 0.371826 2.063477
vn -0.803285 0.120992 -0.583176
v -0.075560 1.423485 0.000000
vt 0.222046 2.331055
vn -0.628826 0.110623 -0.769637
v -0.078274 1.421777 -0.126206
vt 0.229858 2.273438
vn -0.628826 0.110623 -0.769637
v -0.086994 1.416713 -0.252012
vt 0.240112 2.216797
vn -0.629478 0.100707 -0.770464
v 0.105007 1.392412 -0.258436
vt 0.151733 2.203125
vn -0.615926 0.188720 -0.764866
v -0.103480 1.408400 -0.376891
vt 0.253418 2.160156
vn -0.635009 0.091432 -0.767075
v 0.085311 1.384544 -0.386253
vt 0.167114 2.145508
vn -0.617052 0.179093 -0.766272
v -0.128760 1.396616 -0.499907
vt 0.270752 2.104492
vn -0.635589 0.081329 -0.767732
v -0.165566 1.382299 -0.618422
vt 0.292969 2.051758
vn -0.671833 0.085289 -0.735776
v -0.166693 1.379847 -0.619290
vt 0.293457 2.049805
vn -0.744065 0.055915 -0.665763
v 0.294666 1.353024 -0.267288
vt 0.063660 2.187500
vn -0.604122 0.235707 -0.761235
v 0.271229 1.345838 -0.399117
vt 0.080994 2.128906
vn -0.610044 0.228139 -0.758814
v 0.240203 1.311038 -0.659131
vt 0.106628 2.009766
vn -0.691356 0.210134 -0.691282
v -0.462776 1.433747 0.121440
vt 0.406738 2.293945
vn -0.789087 -0.164354 -0.591886
v -0.656406 1.424268 0.119543
vt 0.496094 2.302734
vn -0.828074 -0.213672 -0.518302
v -0.461228 1.435480 0.000000
vt 0.400635 2.349609
vn -0.781071 -0.153986 -0.605157
v -0.655378 1.426043 0.000000
vt 0.490723 2.358398
vn -0.821859 -0.204098 -0.531876
v -1.042275 1.379552 0.116508
vt 0.675293 2.319336
vn -0.879895 -0.301680 -0.367115
v -1.228761 1.341965 0.115405
vt 0.762695 2.325195
vn -0.892229 -0.353061 -0.281559
v -1.042187 1.381411 0.000000
vt 0.670898 2.373047
vn -0.879895 -0.301680 -0.367115
v -1.229167 1.343779 0.000000
vt 0.759277 2.378906
vn -0.893741 -0.338152 -0.294753
v 0.368448 1.343325 0.135651
vt 0.022141 2.244141
vn -0.688470 -0.525022 -0.500361
v 0.373566 1.344675 0.000000
vt 0.011818 2.305664
vn -0.684913 -0.532158 -0.497697
v 0.371576 1.340101 0.135735
vt 0.020096 2.243164
vn -0.430446 -0.860939 -0.271109
v 0.376721 1.341450 0.000000
vt 0.009766 2.304688
vn -0.423946 -0.863886 -0.271976
v 0.115749 1.397318 0.129445
vt 0.140137 2.261719
vn -0.731511 -0.368360 -0.573762
v 0.119348 1.398935 0.000000
vt 0.131348 2.321289
vn -0.731511 -0.368360 -0.573762
v 0.307860 1.357580 0.133965
vt 0.050507 2.248047
vn -0.717836 -0.423433 -0.552645
v 0.312530 1.359013 0.000000
vt 0.040558 2.309570
vn -0.714686 -0.431857 -0.550203
v -0.306389 1.406858 0.490936
vt 0.351807 2.117188
vn -0.762908 -0.143717 -0.630331
v -0.494053 1.406986 0.483017
vt 0.437256 2.128906
vn -0.801233 -0.174419 -0.572367
v -0.285577 1.419176 0.369714
vt 0.336670 2.171875
vn -0.761657 -0.154510 -0.629290
v -0.477980 1.419756 0.363381
vt 0.424561 2.183594
vn -0.793678 -0.164172 -0.585766
v -0.678199 1.396574 0.476167
vt 0.521484 2.139648
vn -0.838452 -0.224295 -0.496680
v -0.861482 1.378296 0.470088
vt 0.605469 2.149414
vn -0.866511 -0.276850 -0.415346
v -0.666833 1.409840 0.357939
vt 0.510742 2.193359
vn -0.832010 -0.213314 -0.512110
v -0.854883 1.391959 0.353192
vt 0.597656 2.203125
vn -0.862568 -0.268591 -0.428761
v -1.045196 1.350910 0.464675
vt 0.690430 2.158203
vn -0.885112 -0.316444 -0.341233
v -1.043423 1.364609 0.349021
vt 0.685059 2.211914
vn -0.882636 -0.309152 -0.354088
v 0.291203 1.323230 0.533984
vt 0.077759 2.064453
vn -0.705007 -0.506369 -0.496544
v 0.328755 1.332175 0.403904
vt 0.054260 2.123047
vn -0.697207 -0.514251 -0.499448
v 0.293999 1.320091 0.534281
vt 0.075928 2.064453
vn -0.459951 -0.859141 -0.224323
v 0.331706 1.328990 0.404147
vt 0.052338 2.122070
vn -0.446557 -0.862321 -0.238723
v -1.222360 1.314099 0.459805
vt 0.773926 2.166016
vn -0.896485 -0.350988 -0.270409
v -1.225441 1.327348 0.345391
vt 0.770020 2.219727
vn -0.894369 -0.352033 -0.276000
v -0.272267 1.427762 0.247035
vt 0.324951 2.227539
vn -0.760335 -0.165249 -0.628159
v -0.467900 1.428557 0.242665
vt 0.414551 2.238281
vn -0.785787 -0.153833 -0.599061
v -0.659864 1.418928 0.238929
vt 0.502441 2.248047
vn -0.828074 -0.213672 -0.518302
v -0.850981 1.401324 0.235714
vt 0.590820 2.256836
vn -0.858369 -0.260102 -0.442211
v -1.042567 1.374036 0.232896
vt 0.679688 2.265625
vn -0.882636 -0.309152 -0.354088
v 0.354086 1.338981 0.270623
vt 0.035950 2.182617
vn -0.692066 -0.517795 -0.502924
v 0.357148 1.335776 0.270792
vt 0.033936 2.182617
vn -0.436215 -0.864624 -0.249283
v -1.227538 1.336518 0.230529
vt 0.766602 2.272461
vn -0.892229 -0.353061 -0.281559
v -0.518641 1.390468 0.599675
vt 0.453613 2.077148
vn -0.780892 -0.110748 -0.614770
v -0.696079 1.379292 0.592085
vt 0.534668 2.087891
vn -0.833379 -0.182791 -0.521601
v -1.048821 1.333226 0.578894
vt 0.697266 2.106445
vn -0.884850 -0.274609 -0.376339
v -1.218430 1.297310 0.572049
vt 0.776855 2.115234
vn -0.929827 -0.164565 -0.329152
v 0.241655 1.313349 0.658118
vt 0.106018 2.010742
vn -0.735835 -0.550684 -0.394074
v 0.244930 1.310458 0.656031
vt 0.104065 2.010742
vn -0.543930 -0.834753 -0.085598
v 0.012949 1.360919 0.631922
vt 0.211426 2.036133
vn -0.714919 -0.230972 -0.659957
v 0.055468 1.373614 0.511741
vt 0.186646 2.088867
vn -0.739823 -0.340619 -0.580207
v 0.188621 1.325588 0.651173
vt 0.130493 2.017578
vn -0.702485 -0.294074 -0.648102
v 0.236294 1.336202 0.528072
vt 0.103210 2.071289
vn -0.725424 -0.388998 -0.567838
v -0.265365 1.432884 0.123661
vt 0.315918 2.284180
vn -0.763824 -0.175846 -0.621009
v -0.849130 1.406839 0.117942
vt 0.585449 2.311523
vn -0.853846 -0.251395 -0.455793
v 0.011660 1.358540 0.632829
vt 0.212036 2.034180
vn -0.679227 -0.032319 -0.733217
v 0.187197 1.323249 0.652153
vt 0.131226 2.015625
vn -0.666523 -0.084636 -0.740665
v -0.519404 1.387976 0.600516
vt 0.454346 2.075195
vn -0.846603 -0.158735 -0.508003
v -0.696637 1.376746 0.592910
vt 0.535156 2.085938
vn -0.871551 -0.208726 -0.443658
v -1.217736 1.294717 0.573983
vt 0.776855 2.112305
vn -0.902389 -0.252265 -0.349366
v -1.221938 1.294826 0.567962
vt 0.778809 2.116211
vn -0.941346 -0.287647 0.176431
v -1.220956 1.294389 0.571760
vt 0.778320 2.114258
vn -0.898678 -0.394637 0.191417
v 0.243106 1.310440 0.658405
vt 0.105103 2.009766
vn -0.610667 -0.702910 -0.364695
v 0.240203 1.311038 0.659131
vt 0.106628 2.009766
vn -0.713075 -0.210031 -0.668888
v -1.225048 1.311215 0.459671
vt 0.775879 2.166016
vn -0.806740 -0.389814 0.444089
v -1.227552 1.324586 0.345290
vt 0.771973 2.219727
vn -0.727826 -0.363900 0.581245
v -1.229331 1.333819 0.230461
vt 0.768066 2.272461
vn -0.660389 -0.339660 0.669714
v -1.230405 1.339297 0.115371
vt 0.764160 2.325195
vn -0.612246 -0.329344 0.718810
v -1.230766 1.341119 0.000000
vt 0.760742 2.378906
vn -0.602327 -0.328990 0.727302
v -1.048935 1.330687 0.579690
vt 0.697754 2.104492
vn -0.906717 -0.300603 -0.295809
v -0.848588 1.408676 0.000000
vt 0.580566 2.365234
vn -0.853846 -0.251395 -0.455793
v -0.872362 1.360506 0.585209
vt 0.615723 2.097656
vn -0.860242 -0.221657 -0.459186
v -0.872704 1.357947 0.586020
vt 0.616211 2.095703
vn -0.891743 -0.253333 -0.374989
v -0.263248 1.434603 0.000000
vt 0.309082 2.340820
vn -0.762307 -0.186448 -0.619778
v -0.337421 1.391409 0.608421
vt 0.371094 2.064453
vn -0.733390 -0.055957 -0.677501
v -0.338377 1.388935 0.609273
vt 0.371826 2.063477
vn -0.803901 -0.097745 -0.586676
v -0.078274 1.421777 0.126206
vt 0.229858 2.273438
vn -0.752249 -0.270586 -0.600754
v -0.075560 1.423485 0.000000
vt 0.222046 2.331055
vn -0.752249 -0.270586 -0.600754
v 0.105007 1.392412 0.258437
vt 0.151733 2.203125
vn -0.734344 -0.359249 -0.575915
v -0.086994 1.416713 0.252012
vt 0.240112 2.216797
vn -0.754413 -0.260471 -0.602508
v 0.085311 1.384544 0.386253
vt 0.167114 2.145508
vn -0.737114 -0.349983 -0.578079
v -0.103480 1.408400 0.376892
vt 0.253418 2.160156
vn -0.753662 -0.240260 -0.611775
v -0.128760 1.396616 0.499908
vt 0.270752 2.104492
vn -0.755643 -0.229972 -0.613283
v -0.165566 1.382299 0.618422
vt 0.292969 2.051758
vn -0.730953 -0.155021 -0.664587
v -0.166693 1.379847 0.619290
vt 0.293457 2.049805
vn -0.744194 -0.021876 -0.667605
v 0.294666 1.353024 0.267288
vt 0.063660 2.187500
vn -0.720953 -0.414944 -0.555022
v 0.271229 1.345838 0.399117
vt 0.080994 2.128906
vn -0.722468 -0.397838 -0.565478
v -1.220956 1.294389 -0.571759
vt 0.778320 2.114258
vn -0.838807 0.477464 0.261593
v -1.217736 1.294718 -0.573983
vt 0.776855 2.112305
vn -0.868833 0.329533 -0.369510
v -1.221938 1.294826 -0.567962
vt 0.778809 2.116211
vn -0.743674 0.529451 0.408204
v -1.218430 1.297310 -0.572048
vt 0.776855 2.115234
vn -0.763143 0.643830 -0.055639
v 0.241655 1.313350 -0.658117
vt 0.106018 2.010742
vn -0.443617 0.126729 -0.887211
v 0.240203 1.311038 -0.659131
vt 0.106628 2.009766
vn -0.636619 0.070730 -0.767928
v 0.244930 1.310458 -0.656030
vt 0.104065 2.010742
vn -0.370332 0.527872 -0.764333
v 0.243106 1.310440 -0.658405
vt 0.105103 2.009766
vn -0.491416 0.460348 -0.739317
v -0.462714 1.430995 -0.121363
vt 0.406738 2.293945
vn -0.792226 -0.030463 -0.609467
v -0.656213 1.421521 -0.119464
vt 0.496094 2.302734
vn -0.834753 -0.090475 -0.543141
v -0.461167 1.432726 0.000000
vt 0.400635 2.349609
vn -0.783670 -0.020351 -0.620844
v -0.655188 1.423295 0.000000
vt 0.490723 2.358398
vn -0.827741 -0.080719 -0.555274
v -1.041809 1.376839 -0.116423
vt 0.675293 2.319336
vn -0.894161 -0.204093 -0.398524
v -1.230405 1.339297 -0.115371
vt 0.762695 2.325195
vn -0.904994 -0.238127 -0.352535
v -1.041723 1.378697 0.000000
vt 0.670898 2.373047
vn -0.894161 -0.204093 -0.398524
v -1.230766 1.341119 0.000000
vt 0.759277 2.378906
vn -0.902166 -0.230339 -0.364746
v 0.115298 1.394603 -0.129352
vt 0.140137 2.261719
vn -0.614680 -0.198254 -0.763455
v 0.118895 1.396218 0.000000
vt 0.131348 2.321289
vn -0.614680 -0.198254 -0.763455
v 0.307268 1.354892 -0.133865
vt 0.050507 2.248047
vn -0.607151 -0.246780 -0.755293
v 0.311936 1.356324 0.000000
vt 0.040558 2.309570
vn -0.601172 -0.254143 -0.757630
v -0.306453 1.404125 -0.490602
vt 0.351807 2.117188
vn -0.643122 -0.010177 -0.765696
v -0.493964 1.404252 -0.482693
vt 0.437256 2.128906
vn -0.804989 -0.050916 -0.591101
v -0.285654 1.416434 -0.369468
vt 0.336670 2.171875
vn -0.643038 -0.020410 -0.765562
v -0.477905 1.417013 -0.363142
vt 0.424561 2.183594
vn -0.796836 -0.040840 -0.602814
v -0.677975 1.393848 -0.475839
vt 0.521484 2.139648
vn -0.848639 -0.110433 -0.517316
v -0.861134 1.375586 -0.469747
vt 0.605469 2.149414
vn -0.878900 -0.166906 -0.446852
v -0.666624 1.407105 -0.357697
vt 0.510742 2.193359
vn -0.838503 -0.101009 -0.535453
v -0.854550 1.389236 -0.352940
vt 0.597656 2.203125
vn -0.874096 -0.158033 -0.459328
v -1.044706 1.348224 -0.464320
vt 0.690430 2.158203
vn -0.900922 -0.220439 -0.373825
v -1.042945 1.361909 -0.348758
vt 0.685059 2.211914
vn -0.897663 -0.212316 -0.386164
v -1.225048 1.311216 -0.459670
vt 0.773926 2.166016
vn -0.908207 -0.247250 -0.337679
v -1.227552 1.324586 -0.345290
vt 0.770020 2.219727
vn -0.908207 -0.247250 -0.337679
v -0.272351 1.425013 -0.246874
vt 0.324951 2.227539
vn -0.642849 -0.030606 -0.765381
v -0.467834 1.425808 -0.242508
vt 0.414551 2.238281
vn -0.788420 -0.030711 -0.614370
v -0.659666 1.416185 -0.238771
vt 0.502441 2.248047
vn -0.834753 -0.090475 -0.543141
v -0.850658 1.398594 -0.235550
vt 0.590820 2.256836
vn -0.869025 -0.148945 -0.471817
v -1.042097 1.371328 -0.232724
vt 0.679688 2.265625
vn -0.897663 -0.212316 -0.386164
v -1.229331 1.333819 -0.230460
vt 0.766602 2.272461
vn -0.904994 -0.238127 -0.352535
v -0.519404 1.387976 -0.600516
vt 0.453613 2.077148
vn -0.816279 -0.060454 -0.574486
v -0.696637 1.376747 -0.592909
vt 0.534668 2.087891
vn -0.854768 -0.119936 -0.504963
v -1.221938 1.294826 -0.567962
vt 0.776855 2.118164
vn -0.913692 -0.250436 -0.320077
v 0.011660 1.358540 -0.632829
vt 0.211426 2.036133
vn -0.620710 -0.148976 -0.769757
v 0.055050 1.370919 -0.511360
vt 0.186646 2.088867
vn -0.618022 -0.169432 -0.767686
v 0.187197 1.323249 -0.652152
vt 0.130493 2.017578
vn -0.613437 -0.207748 -0.761929
v 0.235744 1.333533 -0.527673
vt 0.103210 2.071289
vn -0.616771 -0.218835 -0.756112
v -0.265452 1.430133 -0.123581
vt 0.315918 2.284180
vn -0.637856 -0.030364 -0.769557
v -0.848813 1.404104 -0.117860
vt 0.585449 2.311523
vn -0.863650 -0.139749 -0.484333
v -0.848272 1.405940 0.000000
vt 0.580566 2.365234
vn -0.863650 -0.139749 -0.484333
v -0.872704 1.357947 -0.586020
vt 0.615723 2.097656
vn -0.883408 -0.175661 -0.434434
v -1.048935 1.330687 -0.579690
vt 0.697266 2.106445
vn -0.900922 -0.220439 -0.373825
v -0.263336 1.431850 0.000000
vt 0.309082 2.340820
vn -0.637653 -0.040461 -0.769260
v -0.338377 1.388936 -0.609273
vt 0.371094 2.064453
vn -0.638168 0.000000 -0.769897
v -0.078528 1.419036 -0.126120
vt 0.229858 2.273438
vn -0.628776 -0.110622 -0.769678
v -0.075814 1.420743 0.000000
vt 0.222046 2.331055
vn -0.628776 -0.110622 -0.769678
v 0.104561 1.389701 -0.258249
vt 0.151733 2.203125
vn -0.615874 -0.188718 -0.764909
v -0.087244 1.413976 -0.251840
vt 0.240112 2.216797
vn -0.629429 -0.100707 -0.770505
v 0.084875 1.381840 -0.385968
vt 0.167114 2.145508
vn -0.616999 -0.179092 -0.766314
v -0.103723 1.405669 -0.376629
vt 0.253418 2.160156
vn -0.634960 -0.091431 -0.767116
v -0.128989 1.393894 -0.499555
vt 0.270752 2.104492
vn -0.630579 -0.080707 -0.771917
v -0.166693 1.379847 -0.619290
vt 0.292969 2.051758
vn -0.631094 -0.070681 -0.772479
v 0.294081 1.350341 -0.267087
vt 0.063660 2.187500
vn -0.608593 -0.237488 -0.757109
v 0.270657 1.343161 -0.398814
vt 0.080994 2.128906
vn -0.609991 -0.228137 -0.758858
v 0.376721 1.341450 0.000000
vt 0.011818 2.305664
vn -0.601596 -0.276116 -0.749561
v 0.371576 1.340101 -0.135735
vt 0.022141 2.244141
vn -0.604086 -0.265169 -0.751509
v 0.357148 1.335776 -0.270792
vt 0.035950 2.182617
vn -0.610162 -0.257923 -0.749118
v 0.331706 1.328990 -0.404146
vt 0.054260 2.123047
vn -0.611683 -0.248627 -0.751019
v 0.293999 1.320091 -0.534281
vt 0.077759 2.064453
vn -0.613158 -0.239267 -0.752853
v 0.244930 1.310458 -0.656030
vt 0.104553 2.013672
vn -0.703162 -0.601359 -0.379382
v -0.655188 1.423295 0.000000
vt 0.490723 2.358398
vn -0.821895 0.204095 -0.531821
v -0.656213 1.421521 0.119465
vt 0.496094 2.302734
vn -0.828110 0.213669 -0.518247
v -0.461167 1.432726 0.000000
vt 0.400635 2.349609
vn -0.781112 0.153985 -0.605106
v -0.462714 1.430995 0.121363
vt 0.406738 2.293945
vn -0.789127 0.164352 -0.591834
v -1.230766 1.341119 0.000000
vt 0.759277 2.378906
vn -0.887674 0.315581 -0.335325
v -1.230405 1.339297 0.115371
vt 0.762695 2.325195
vn -0.889817 0.322654 -0.322677
v -1.041723 1.378697 0.000000
vt 0.670898 2.373047
vn -0.879921 0.301672 -0.367059
v -1.041809 1.376839 0.116423
vt 0.675293 2.319336
vn -0.879921 0.301672 -0.367059
v 0.311936 1.356324 0.000000
vt 0.040558 2.309570
vn -0.714732 0.431853 -0.550146
v 0.118895 1.396218 0.000000
vt 0.131348 2.321289
vn -0.731556 0.368357 -0.573707
v 0.307268 1.354892 0.133865
vt 0.050507 2.248047
vn -0.716387 0.415289 -0.560647
v 0.115298 1.394603 0.129352
vt 0.140137 2.261719
vn -0.731556 0.368357 -0.573707
v -0.477905 1.417013 0.363142
vt 0.424561 2.183594
vn -0.793718 0.164170 -0.585714
v -0.493964 1.404252 0.482693
vt 0.437256 2.128906
vn -0.801272 0.174417 -0.572313
v -0.285654 1.416433 0.369468
vt 0.336670 2.171875
vn -0.761699 0.154509 -0.629239
v -0.306453 1.404125 0.490603
vt 0.351807 2.117188
vn -0.762950 0.143716 -0.630280
v -0.854550 1.389236 0.352940
vt 0.597656 2.203125
vn -0.862598 0.268586 -0.428704
v -0.861134 1.375585 0.469748
vt 0.605469 2.149414
vn -0.866540 0.276844 -0.415290
v -0.666624 1.407105 0.357697
vt 0.510742 2.193359
vn -0.832045 0.213311 -0.512055
v -0.677975 1.393848 0.475839
vt 0.521484 2.139648
vn -0.840186 0.233926 -0.489250
v -1.042945 1.361909 0.348758
vt 0.685059 2.211914
vn -0.882662 0.309144 -0.354032
v -1.044706 1.348223 0.464320
vt 0.690430 2.158203
vn -0.885136 0.316436 -0.341178
v -1.227552 1.324586 0.345290
vt 0.770020 2.219727
vn -0.892079 0.331476 -0.307115
v -1.225048 1.311215 0.459671
vt 0.773926 2.166016
vn -0.892079 0.331476 -0.307115
v -0.467834 1.425808 0.242509
vt 0.414551 2.238281
vn -0.785827 0.153832 -0.599009
v -0.272351 1.425013 0.246874
vt 0.324951 2.227539
vn -0.760377 0.165248 -0.628108
v -0.850658 1.398594 0.235550
vt 0.590820 2.256836
vn -0.858399 0.260096 -0.442154
v -0.659666 1.416185 0.238772
vt 0.502441 2.248047
vn -0.828110 0.213669 -0.518247
v -1.042097 1.371328 0.232725
vt 0.679688 2.265625
vn -0.882662 0.309144 -0.354032
v -1.229331 1.333819 0.230461
vt 0.766602 2.272461
vn -0.889817 0.322654 -0.322677
v -0.696637 1.376746 0.592910
vt 0.534668 2.087891
vn -0.845463 0.243047 -0.475522
v -0.519404 1.387976 0.600516
vt 0.453613 2.077148
vn -0.811117 0.194617 -0.551556
v -1.217736 1.294717 0.573983
vt 0.773438 2.114258
vn -0.923765 0.188141 -0.333558
v -1.048935 1.330687 0.579690
vt 0.697266 2.106445
vn -0.885136 0.316436 -0.341178
v 0.235744 1.333533 0.527673
vt 0.103210 2.071289
vn -0.725790 0.386370 -0.569164
v 0.055050 1.370919 0.511360
vt 0.186646 2.088867
vn -0.739868 0.340616 -0.580152
v 0.187197 1.323249 0.652153
vt 0.130493 2.017578
vn -0.724975 0.359809 -0.587323
v 0.011660 1.358540 0.632829
vt 0.211426 2.036133
vn -0.745178 0.319341 -0.585432
v -0.265452 1.430133 0.123581
vt 0.315918 2.284180
vn -0.763866 0.175844 -0.620957
v -0.848813 1.404104 0.117860
vt 0.585449 2.311523
vn -0.853878 0.251390 -0.455737
v -0.848272 1.405940 0.000000
vt 0.580566 2.365234
vn -0.853878 0.251390 -0.455737
v -0.872704 1.357947 0.586020
vt 0.615723 2.097656
vn -0.870182 0.284929 -0.401993
v -0.263336 1.431850 0.000000
vt 0.309082 2.340820
vn -0.762350 0.186447 -0.619726
v -0.338377 1.388935 0.609273
vt 0.371094 2.064453
vn -0.767897 0.143606 -0.624268
v -0.075814 1.420743 0.000000
vt 0.222046 2.331055
vn -0.752293 0.270584 -0.600700
v -0.078528 1.419036 0.126121
vt 0.229858 2.273438
vn -0.752293 0.270584 -0.600700
v -0.087244 1.413976 0.251841
vt 0.240112 2.216797
vn -0.754457 0.260469 -0.602455
v 0.104561 1.389701 0.258249
vt 0.151733 2.203125
vn -0.734389 0.359247 -0.575859
v -0.103723 1.405669 0.376630
vt 0.253418 2.160156
vn -0.753706 0.240259 -0.611722
v 0.084875 1.381839 0.385968
vt 0.167114 2.145508
vn -0.737159 0.349980 -0.578023
v -0.128989 1.393894 0.499556
vt 0.270752 2.104492
vn -0.758581 0.240065 -0.605743
v -0.166693 1.379847 0.619290
vt 0.292969 2.051758
vn -0.760537 0.229785 -0.607274
v 0.294081 1.350341 0.267088
vt 0.063660 2.187500
vn -0.719472 0.406620 -0.563046
v 0.270657 1.343161 0.398815
vt 0.080994 2.128906
vn -0.722513 0.397835 -0.565422
v 0.371576 1.340101 0.135735
vt 0.022141 2.244141
vn -0.710141 0.432210 -0.555783
v 0.376721 1.341450 0.000000
vt 0.011818 2.305664
vn -0.706415 0.443404 -0.551698
v 0.357148 1.335776 0.270792
vt 0.035950 2.182617
vn -0.711776 0.415612 -0.566252
v 0.331706 1.328990 0.404147
vt 0.054260 2.123047
vn -0.714828 0.406940 -0.568700
v 0.293999 1.320091 0.534281
vt 0.077759 2.064453
vn -0.717838 0.398152 -0.571125
v 0.244930 1.310458 0.656031
vt 0.106018 2.010742
vn -0.638208 0.758913 0.129393
v 0.243106 1.310440 0.658405
vt 0.107788 2.011719
vn -0.689473 0.724301 0.003872
v 0.240203 1.311038 -0.659131
vt 0.106018 2.010742
vn -0.704786 -0.588095 -0.396764
v 0.243106 1.310440 -0.658405
vt 0.105286 2.012695
vn -0.643410 -0.753829 -0.133283
v 0.240203 1.311038 0.659131
vt 0.110535 2.012695
vn -0.747107 0.581038 -0.322841
v -1.221938 1.294826 0.567962
vt 0.776855 2.117188
vn -0.892250 0.353051 -0.281504
v -1.220956 1.294389 0.571760
vt 0.776855 2.115234
vn -0.902728 0.218534 -0.370575
v -1.217736 1.294718 -0.573983
vt 0.776855 2.115234
vn -0.931330 -0.246622 -0.267957
v -1.220956 1.294389 -0.571759
vt 0.776855 2.116211
vn -0.927306 -0.251322 -0.277383
v -1.027427 1.259735 -0.662824
vt 0.838379 2.132812
vn -0.807147 -0.163570 -0.567237
v -0.919615 1.282811 -0.660031
vt 0.788086 2.141602
vn -0.799596 -0.153320 -0.580637
v -1.054694 1.208099 -0.687250
vt 0.851562 2.106445
vn -0.807147 -0.163570 -0.567237
v -0.949741 1.223752 -0.689367
vt 0.802734 2.111328
vn -0.799596 -0.153320 -0.580637
v -0.916943 1.279136 -0.662380
vt 0.787109 2.139648
vn -0.799596 -0.153320 -0.580637
v -0.917208 1.281857 -0.660796
vt 0.787109 2.140625
vn -0.799596 -0.153320 -0.580637
v -1.215533 1.069617 -0.730078
vt 0.927734 2.041992
vn -0.812738 -0.184208 -0.552742
v -1.193609 1.110547 -0.716715
vt 0.916992 2.061523
vn -0.812738 -0.184208 -0.552742
v -1.137006 1.053000 -0.744276
vt 0.891602 2.031250
vn -0.810029 -0.173965 -0.559990
v -1.108945 1.104787 -0.727865
vt 0.877930 2.055664
vn -0.810029 -0.173965 -0.559990
v -1.282602 1.089323 -0.715120
vt 0.958496 2.053711
vn -0.819482 -0.194054 -0.539252
v -1.267296 1.118929 -0.705012
vt 0.950684 2.067383
vn -0.819482 -0.194054 -0.539252
v -1.134354 1.234504 -0.665428
vt 0.888184 2.122070
vn -0.810029 -0.173965 -0.559990
v -1.153522 1.193574 -0.684126
vt 0.897461 2.101562
vn -0.810029 -0.173965 -0.559990
v -1.227406 1.209385 -0.668012
vt 0.931152 2.112305
vn -0.812738 -0.184208 -0.552742
v -1.239985 1.179219 -0.681385
vt 0.937500 2.097656
vn -0.812738 -0.184208 -0.552742
v -1.081455 1.157004 -0.708730
vt 0.864258 2.081055
vn -0.810029 -0.173965 -0.559990
v -1.172892 1.152268 -0.701287
vt 0.906738 2.081055
vn -0.810029 -0.173965 -0.559990
v -1.253066 1.149058 -0.693736
vt 0.943848 2.082031
vn -0.812738 -0.184208 -0.552742
v -0.984321 1.163578 -0.715076
vt 0.819336 2.082031
vn -0.807147 -0.163570 -0.567237
v -1.018597 1.102011 -0.737713
vt 0.835938 2.051758
vn -0.810029 -0.173965 -0.559990
v -1.052493 1.039115 -0.757226
vt 0.852539 2.021484
vn -0.810029 -0.173965 -0.559990
v -0.917208 1.281857 0.660797
vt 0.787109 2.140625
vn -0.802197 0.062491 -0.593781
v -0.919615 1.282811 0.660031
vt 0.788086 2.141602
vn -0.802197 0.062491 -0.593781
v -0.916943 1.279136 0.662381
vt 0.787109 2.139648
vn -0.802197 0.062491 -0.593781
v -0.949741 1.223752 0.689367
vt 0.802734 2.111328
vn -0.802197 0.062491 -0.593781
v -1.054694 1.208099 0.687251
vt 0.851562 2.106445
vn -0.810171 0.072673 -0.581672
v -1.027427 1.259735 0.662824
vt 0.838379 2.132812
vn -0.810171 0.072673 -0.581672
v -1.108945 1.104786 0.727866
vt 0.877930 2.055664
vn -0.813700 0.072086 -0.576798
v -1.193609 1.110546 0.716715
vt 0.916992 2.061523
vn -0.817154 0.071499 -0.571968
v -1.137006 1.053000 0.744276
vt 0.891602 2.031250
vn -0.813700 0.072086 -0.576798
v -1.215533 1.069617 0.730079
vt 0.927734 2.041992
vn -0.817154 0.071499 -0.571968
v -1.267296 1.118929 0.705012
vt 0.950684 2.067383
vn -0.824561 0.081418 -0.559884
v -1.282602 1.089323 0.715121
vt 0.958496 2.053711
vn -0.824561 0.081418 -0.559884
v -1.239985 1.179218 0.681385
vt 0.937500 2.097656
vn -0.817154 0.071499 -0.571968
v -1.153522 1.193574 0.684127
vt 0.897461 2.101562
vn -0.813700 0.072086 -0.576798
v -1.227406 1.209384 0.668012
vt 0.931152 2.112305
vn -0.817154 0.071499 -0.571968
v -1.134354 1.234504 0.665428
vt 0.888184 2.122070
vn -0.813700 0.072086 -0.576798
v -1.172892 1.152268 0.701288
vt 0.906738 2.081055
vn -0.813700 0.072086 -0.576798
v -1.081455 1.157004 0.708730
vt 0.864258 2.081055
vn -0.813700 0.072086 -0.576798
v -1.253066 1.149058 0.693736
vt 0.943848 2.082031
vn -0.817154 0.071499 -0.571968
v -0.984321 1.163578 0.715076
vt 0.819336 2.082031
vn -0.810171 0.072673 -0.581672
v -1.018597 1.102011 0.737713
vt 0.835938 2.051758
vn -0.813700 0.072086 -0.576798
v -1.052493 1.039115 0.757227
vt 0.852539 2.021484
vn -0.813700 0.072086 -0.576798
v -0.917456 1.283260 -0.663419
vt 0.787109 2.140625
vn -0.799634 0.153319 -0.580584
v -0.919863 1.284214 -0.662653
vt 0.788086 2.141602
vn -0.799634 0.153319 -0.580584
v -0.917191 1.280539 -0.665003
vt 0.787109 2.139648
vn -0.799634 0.153319 -0.580584
v -0.949991 1.225093 -0.692021
vt 0.802734 2.111328
vn -0.799634 0.153319 -0.580584
v -1.054956 1.209425 -0.689912
vt 0.851562 2.106445
vn -0.807185 0.163568 -0.567184
v -1.027686 1.261120 -0.665455
vt 0.838379 2.132812
vn -0.807185 0.163568 -0.567184
v -1.109220 1.105876 -0.730630
vt 0.877930 2.055664
vn -0.810067 0.173963 -0.559937
v -1.193904 1.111656 -0.719470
vt 0.916992 2.061523
vn -0.812775 0.184206 -0.552688
v -1.137283 1.054034 -0.747062
vt 0.891602 2.031250
vn -0.810067 0.173963 -0.559937
v -1.215831 1.070683 -0.732850
vt 0.927734 2.041992
vn -0.812775 0.184206 -0.552688
v -1.267610 1.120064 -0.707754
vt 0.950684 2.067383
vn -0.819518 0.194051 -0.539198
v -1.333001 1.132771 -0.694604
vt 0.980957 2.076172
vn -0.821895 0.204095 -0.531821
v -1.282918 1.090427 -0.717875
vt 0.958496 2.053711
vn -0.821895 0.204095 -0.531821
v -1.340222 1.115239 -0.701148
vt 0.984375 2.067383
vn -0.821895 0.204095 -0.531821
v -1.318475 1.167552 -0.680820
vt 0.974121 2.093750
vn -0.821895 0.204095 -0.531821
v -1.240293 1.180495 -0.684065
vt 0.937500 2.097656
vn -0.812775 0.184206 -0.552688
v -1.311031 1.185075 -0.673427
vt 0.970215 2.101562
vn -0.821895 0.204095 -0.531821
v -1.227712 1.210698 -0.670675
vt 0.931152 2.112305
vn -0.812775 0.184206 -0.552688
v -1.153807 1.194875 -0.686798
vt 0.897461 2.101562
vn -0.810067 0.173963 -0.559937
v -1.134637 1.235852 -0.668076
vt 0.888184 2.122070
vn -0.810067 0.173963 -0.559937
v -1.173182 1.153473 -0.704002
vt 0.906738 2.081055
vn -0.810067 0.173963 -0.559937
v -1.081723 1.158213 -0.711446
vt 0.864258 2.081055
vn -0.810067 0.173963 -0.559937
v -1.253376 1.150262 -0.696449
vt 0.943848 2.082031
vn -0.819518 0.194051 -0.539198
v -1.325754 1.150216 -0.687838
vt 0.977539 2.084961
vn -0.821895 0.204095 -0.531821
v -0.984578 1.164791 -0.717790
vt 0.819336 2.082031
vn -0.807185 0.163568 -0.567184
v -1.018860 1.103095 -0.740480
vt 0.835938 2.051758
vn -0.810067 0.173963 -0.559937
v -1.052760 1.040134 -0.760019
vt 0.852539 2.021484
vn -0.810067 0.173963 -0.559937
v -1.346171 1.150325 -0.685296
vt 0.986816 2.085938
vn -0.821895 0.204095 -0.531821
v -1.335339 1.165247 -0.679829
vt 0.981934 2.092773
vn -0.821895 0.204095 -0.531821
v -1.351814 1.136427 -0.690738
vt 0.989746 2.079102
vn -0.821895 0.204095 -0.531821
v -1.317006 1.182987 -0.673707
vt 0.973145 2.101562
vn -0.821895 0.204095 -0.531821
v -1.321984 1.180000 -0.674528
vt 0.975586 2.099609
vn -0.821895 0.204095 -0.531821
v -1.349468 1.124817 -0.696008
vt 0.988770 2.073242
vn -0.821895 0.204095 -0.531821
v -1.345881 1.119740 -0.698584
vt 0.987305 2.070312
vn -0.821895 0.204095 -0.531821
v -1.027686 1.261119 0.665456
vt 0.838379 2.132812
vn -0.810134 -0.072673 -0.581722
v -0.919863 1.284214 0.662654
vt 0.788086 2.141602
vn -0.802160 -0.062492 -0.593830
v -1.054956 1.209425 0.689912
vt 0.851562 2.106445
vn -0.810134 -0.072673 -0.581722
v -0.949991 1.225093 0.692021
vt 0.802734 2.111328
vn -0.802160 -0.062492 -0.593830
v -0.917191 1.280539 0.665003
vt 0.787109 2.139648
vn -0.802160 -0.062492 -0.593830
v -0.917456 1.283260 0.663419
vt 0.787109 2.140625
vn -0.802160 -0.062492 -0.593830
v -1.215831 1.070682 0.732851
vt 0.927734 2.041992
vn -0.817118 -0.071500 -0.572019
v -1.193904 1.111656 0.719470
vt 0.916992 2.061523
vn -0.817118 -0.071500 -0.572019
v -1.137283 1.054033 0.747062
vt 0.891602 2.031250
vn -0.813664 -0.072087 -0.576849
v -1.109220 1.105876 0.730631
vt 0.877930 2.055664
vn -0.813664 -0.072087 -0.576849
v -1.340222 1.115239 0.701148
vt 0.984375 2.067383
vn -0.827741 -0.080719 -0.555274
v -1.333001 1.132771 0.694604
vt 0.980957 2.076172
vn -0.827741 -0.080719 -0.555274
v -1.282918 1.090427 0.717876
vt 0.958496 2.053711
vn -0.827741 -0.080719 -0.555274
v -1.267610 1.120064 0.707755
vt 0.950684 2.067383
vn -0.824526 -0.081419 -0.559936
v -1.227712 1.210697 0.670675
vt 0.931152 2.112305
vn -0.817118 -0.071500 -0.572019
v -1.240293 1.180494 0.684066
vt 0.937500 2.097656
vn -0.824526 -0.081419 -0.559936
v -1.311031 1.185075 0.673427
vt 0.970215 2.101562
vn -0.827741 -0.080719 -0.555274
v -1.318475 1.167551 0.680821
vt 0.974121 2.093750
vn -0.827741 -0.080719 -0.555274
v -1.134637 1.235852 0.668076
vt 0.888184 2.122070
vn -0.813664 -0.072087 -0.576849
v -1.153807 1.194874 0.686798
vt 0.897461 2.101562
vn -0.813664 -0.072087 -0.576849
v -1.081723 1.158213 0.711446
vt 0.864258 2.081055
vn -0.813664 -0.072087 -0.576849
v -1.173182 1.153473 0.704003
vt 0.906738 2.081055
vn -0.813664 -0.072087 -0.576849
v -1.253376 1.150262 0.696450
vt 0.943848 2.082031
vn -0.824526 -0.081419 -0.559936
v -1.325754 1.150216 0.687838
vt 0.977539 2.084961
vn -0.827741 -0.080719 -0.555274
v -0.984578 1.164791 0.717790
vt 0.819336 2.082031
vn -0.810134 -0.072673 -0.581722
v -1.018860 1.103094 0.740481
vt 0.835938 2.051758
vn -0.813664 -0.072087 -0.576849
v -1.052760 1.040134 0.760019
vt 0.852539 2.021484
vn -0.813664 -0.072087 -0.576849
v -1.335339 1.165247 0.679829
vt 0.981934 2.092773
vn -0.827741 -0.080719 -0.555274
v -1.346171 1.150324 0.685296
vt 0.986816 2.085938
vn -0.827741 -0.080719 -0.555274
v -1.351814 1.136426 0.690738
vt 0.989746 2.079102
vn -0.827741 -0.080719 -0.555274
v -1.321984 1.179999 0.674528
vt 0.975586 2.099609
vn -0.827741 -0.080719 -0.555274
v -1.317006 1.182986 0.673708
vt 0.973145 2.101562
vn -0.827741 -0.080719 -0.555274
v -1.345881 1.119740 0.698584
vt 0.987305 2.070312
vn -0.827741 -0.080719 -0.555274
v -1.349468 1.124817 0.696008
vt 0.988770 2.073242
vn -0.827741 -0.080719 -0.555274
usemtl Glass_Interior_Fade
f 3/3/3 2/2/2 1/1/1
f 4/4/4 2/2/2 3/3/3
f 7/7/7 6/6/6 5/5/5
f 8/8/8 6/6/6 7/7/7
f 5/5/5 10/10/10 9/9/9
f 6/6/6 10/10/10 5/5/5
f 9/9/9 12/12/12 11/11/11
f 10/10/10 12/12/12 9/9/9
f 11/11/11 14/14/14 13/13/13
f 12/12/12 14/14/14 11/11/11
f 17/17/17 16/16/16 15/15/15
f 18/18/18 16/16/16 17/17/17
f 20/20/20 17/17/17 19/19/19
f 18/18/18 17/17/17 20/20/20
f 22/22/22 19/19/19 21/21/21
f 20/20/20 19/19/19 22/22/22
f 25/25/25 24/24/24 23/23/23
f 26/26/26 24/24/24 25/25/25
f 28/28/28 25/25/25 27/27/27
f 26/26/26 25/25/25 28/28/28
f 30/30/30 27/27/27 29/29/29
f 28/28/28 27/27/27 30/30/30
f 32/32/32 21/21/21 31/31/31
f 22/22/22 21/21/21 32/32/32
f 34/34/34 31/31/31 33/33/33
f 32/32/32 31/31/31 34/34/34
f 37/37/37 36/36/36 35/35/35
f 38/38/38 36/36/36 37/37/37
f 24/24/24 37/37/37 23/23/23
f 38/38/38 37/37/37 24/24/24
f 39/39/39 16/16/16 18/18/18
f 40/40/40 16/16/16 39/39/39
f 39/39/39 20/20/20 41/41/41
f 18/18/18 20/20/20 39/39/39
f 41/41/41 22/22/22 42/42/42
f 20/20/20 22/22/22 41/41/41
f 42/42/42 32/32/32 43/43/43
f 22/22/22 32/32/32 42/42/42
f 43/43/43 32/32/32 44/44/44
f 7/7/7 46/46/46 45/45/45
f 5/5/5 46/46/46 7/7/7
f 5/5/5 47/47/47 46/46/46
f 9/9/9 47/47/47 5/5/5
f 47/47/47 11/11/11 48/48/48
f 9/9/9 11/11/11 47/47/47
f 11/11/11 49/49/49 48/48/48
f 13/13/13 49/49/49 11/11/11
f 51/51/51 13/13/13 50/50/50
f 49/49/49 13/13/13 51/51/51
f 45/45/45 28/28/28 30/30/30
f 46/46/46 28/28/28 45/45/45
f 46/46/46 26/26/26 28/28/28
f 47/47/47 26/26/26 46/46/46
f 26/26/26 48/48/48 24/24/24
f 47/47/47 48/48/48 26/26/26
f 48/48/48 38/38/38 24/24/24
f 49/49/49 38/38/38 48/48/48
f 38/38/38 51/51/51 36/36/36
f 49/49/49 51/51/51 38/38/38
f 29/29/29 17/17/17 15/15/15
f 27/27/27 17/17/17 29/29/29
f 25/25/25 17/17/17 27/27/27
f 19/19/19 17/17/17 25/25/25
f 19/19/19 23/23/23 21/21/21
f 25/25/25 23/23/23 19/19/19
f 37/37/37 21/21/21 23/23/23
f 31/31/31 21/21/21 37/37/37
f 31/31/31 35/35/35 33/33/33
f 37/37/37 35/35/35 31/31/31
f 12/12/12 52/52/52 14/14/14
f 53/53/53 52/52/52 12/12/12
f 10/10/10 53/53/53 12/12/12
f 54/54/54 53/53/53 10/10/10
f 6/6/6 54/54/54 10/10/10
f 55/55/55 54/54/54 6/6/6
f 8/8/8 55/55/55 6/6/6
f 56/56/56 55/55/55 8/8/8
f 57/57/57 13/13/13 14/14/14
f 50/50/50 13/13/13 57/57/57
f 34/34/34 44/44/44 32/32/32
f 60/60/60 59/59/59 58/58/58
f 61/61/61 59/59/59 60/60/60
f 62/62/62 59/59/59 61/61/61
f 65/65/65 64/64/64 63/63/63
f 66/66/66 64/64/64 65/65/65
f 66/66/66 67/67/67 64/64/64
f 68/68/68 67/67/67 66/66/66
f 68/68/68 69/69/69 67/67/67
f 70/70/70 69/69/69 68/68/68
f 70/70/70 59/59/59 69/69/69
f 71/71/71 59/59/59 70/70/70
f 74/74/74 73/73/73 72/72/72
f 75/75/75 73/73/73 74/74/74
f 76/76/76 74/74/74 72/72/72
f 77/77/77 74/74/74 76/76/76
f 78/78/78 77/77/77 76/76/76
f 79/79/79 77/77/77 78/78/78
f 82/82/82 81/81/81 80/80/80
f 83/83/83 81/81/81 82/82/82
f 84/84/84 82/82/82 80/80/80
f 85/85/85 82/82/82 84/84/84
f 86/86/86 85/85/85 84/84/84
f 87/87/87 85/85/85 86/86/86
f 88/88/88 79/79/79 78/78/78
f 89/89/89 79/79/79 88/88/88
f 90/90/90 89/89/89 88/88/88
f 91/91/91 89/89/89 90/90/90
f 94/94/94 93/93/93 92/92/92
f 95/95/95 93/93/93 94/94/94
f 81/81/81 94/94/94 92/92/92
f 83/83/83 94/94/94 81/81/81
f 97/97/97 73/73/73 96/96/96
f 72/72/72 73/73/73 97/97/97
f 97/97/97 76/76/76 72/72/72
f 98/98/98 76/76/76 97/97/97
f 98/98/98 78/78/78 76/76/76
f 99/99/99 78/78/78 98/98/98
f 99/99/99 88/88/88 78/78/78
f 100/100/100 88/88/88 99/99/99
f 101/101/101 88/88/88 100/100/100
f 65/65/65 102/102/102 66/66/66
f 103/103/103 102/102/102 65/65/65
f 66/66/66 104/104/104 68/68/68
f 102/102/102 104/104/104 66/66/66
f 104/104/104 70/70/70 68/68/68
f 105/105/105 70/70/70 104/104/104
f 70/70/70 106/106/106 71/71/71
f 105/105/105 106/106/106 70/70/70
f 107/107/107 71/71/71 106/106/106
f 108/108/108 71/71/71 107/107/107
f 103/103/103 84/84/84 102/102/102
f 86/86/86 84/84/84 103/103/103
f 102/102/102 80/80/80 104/104/104
f 84/84/84 80/80/80 102/102/102
f 80/80/80 105/105/105 104/104/104
f 81/81/81 105/105/105 80/80/80
f 105/105/105 92/92/92 106/106/106
f 81/81/81 92/92/92 105/105/105
f 92/92/92 107/107/107 106/106/106
f 93/93/93 107/107/107 92/92/92
f 87/87/87 74/74/74 85/85/85
f 75/75/75 74/74/74 87/87/87
f 82/82/82 74/74/74 77/77/77
f 85/85/85 74/74/74 82/82/82
f 77/77/77 83/83/83 82/82/82
f 79/79/79 83/83/83 77/77/77
f 94/94/94 79/79/79 89/89/89
f 83/83/83 79/79/79 94/94/94
f 89/89/89 95/95/95 94/94/94
f 91/91/91 95/95/95 89/89/89
f 69/69/69 62/62/62 109/109/109
f 59/59/59 62/62/62 69/69/69
f 67/67/67 109/109/109 110/110/110
f 69/69/69 109/109/109 67/67/67
f 64/64/64 110/110/110 111/111/111
f 67/67/67 110/110/110 64/64/64
f 63/63/63 111/111/111 112/112/112
f 64/64/64 111/111/111 63/63/63
f 58/58/58 71/71/71 108/108/108
f 59/59/59 71/71/71 58/58/58
f 88/88/88 101/101/101 90/90/90
f 1/1/1 14/14/14 52/52/52
f 2/2/2 14/14/14 1/1/1
f 57/57/57 14/14/14 2/2/2
f 113/113/113 4/4/4 3/3/3
f 116/116/116 115/115/115 114/114/114
f 114/114/114 61/61/61 60/60/60
f 115/115/115 61/61/61 114/114/114
usemtl Glass_Fade
f 119/119/119 118/118/118 117/117/117
f 122/122/122 121/121/121 120/120/120
f 123/123/123 121/121/121 122/122/122
f 123/123/123 124/124/124 121/121/121
f 125/125/125 124/124/124 123/123/123
f 125/125/125 126/126/126 124/124/124
f 127/127/127 126/126/126 125/125/125
f 127/127/127 128/128/128 126/126/126
f 129/129/129 128/128/128 127/127/127
f 132/132/132 131/131/131 130/130/130
f 133/133/133 131/131/131 132/132/132
f 134/134/134 132/132/132 130/130/130
f 135/135/135 132/132/132 134/134/134
f 136/136/136 135/135/135 134/134/134
f 137/137/137 135/135/135 136/136/136
f 140/140/140 139/139/139 138/138/138
f 141/141/141 139/139/139 140/140/140
f 142/142/142 140/140/140 138/138/138
f 143/143/143 140/140/140 142/142/142
f 144/144/144 143/143/143 142/142/142
f 145/145/145 143/143/143 144/144/144
f 146/146/146 137/137/137 136/136/136
f 147/147/147 137/137/137 146/146/146
f 148/148/148 147/147/147 146/146/146
f 149/149/149 147/147/147 148/148/148
f 152/152/152 151/151/151 150/150/150
f 153/153/153 151/151/151 152/152/152
f 139/139/139 152/152/152 150/150/150
f 141/141/141 152/152/152 139/139/139
f 155/155/155 131/131/131 154/154/154
f 130/130/130 131/131/131 155/155/155
f 155/155/155 134/134/134 130/130/130
f 156/156/156 134/134/134 155/155/155
f 156/156/156 136/136/136 134/134/134
f 157/157/157 136/136/136 156/156/156
f 157/157/157 146/146/146 136/136/136
f 158/158/158 146/146/146 157/157/157
f 159/159/159 146/146/146 158/158/158
f 122/122/122 160/160/160 123/123/123
f 161/161/161 160/160/160 122/122/122
f 123/123/123 162/162/162 125/125/125
f 160/160/160 162/162/162 123/123/123
f 162/162/162 127/127/127 125/125/125
f 163/163/163 127/127/127 162/162/162
f 127/127/127 164/164/164 129/129/129
f 163/163/163 164/164/164 127/127/127
f 165/165/165 129/129/129 164/164/164
f 166/166/166 129/129/129 165/165/165
f 161/161/161 142/142/142 160/160/160
f 144/144/144 142/142/142 161/161/161
f 160/160/160 138/138/138 162/162/162
f 142/142/142 138/138/138 160/160/160
f 138/138/138 163/163/163 162/162/162
f 139/139/139 163/163/163 138/138/138
f 163/163/163 150/150/150 164/164/164
f 139/139/139 150/150/150 163/163/163
f 150/150/150 165/165/165 164/164/164
f 151/151/151 165/165/165 150/150/150
f 145/145/145 132/132/132 143/143/143
f 133/133/133 132/132/132 145/145/145
f 140/140/140 132/132/132 135/135/135
f 143/143/143 132/132/132 140/140/140
f 135/135/135 141/141/141 140/140/140
f 137/137/137 141/141/141 135/135/135
f 152/152/152 137/137/137 147/147/147
f 141/141/141 137/137/137 152/152/152
f 147/147/147 153/153/153 152/152/152
f 149/149/149 153/153/153 147/147/147
f 126/126/126 168/168/168 167/167/167
f 128/128/128 168/168/168 126/126/126
f 124/124/124 167/167/167 169/169/169
f 126/126/126 167/167/167 124/124/124
f 121/121/121 169/169/169 170/170/170
f 124/124/124 169/169/169 121/121/121
f 120/120/120 170/170/170 171/171/171
f 121/121/121 170/170/170 120/120/120
f 172/172/172 129/129/129 166/166/166
f 128/128/128 129/129/129 172/172/172
f 146/146/146 159/159/159 148/148/148
f 175/175/175 174/174/174 173/173/173
f 176/176/176 174/174/174 175/175/175
f 177/177/177 174/174/174 176/176/176
f 180/180/180 179/179/179 178/178/178
f 181/181/181 179/179/179 180/180/180
f 178/178/178 183/183/183 182/182/182
f 179/179/179 183/183/183 178/178/178
f 182/182/182 185/185/185 184/184/184
f 183/183/183 185/185/185 182/182/182
f 184/184/184 174/174/174 186/186/186
f 185/185/185 174/174/174 184/184/184
f 189/189/189 188/188/188 187/187/187
f 190/190/190 188/188/188 189/189/189
f 192/192/192 189/189/189 191/191/191
f 190/190/190 189/189/189 192/192/192
f 194/194/194 191/191/191 193/193/193
f 192/192/192 191/191/191 194/194/194
f 197/197/197 196/196/196 195/195/195
f 198/198/198 196/196/196 197/197/197
f 200/200/200 197/197/197 199/199/199
f 198/198/198 197/197/197 200/200/200
f 202/202/202 199/199/199 201/201/201
f 200/200/200 199/199/199 202/202/202
f 204/204/204 193/193/193 203/203/203
f 194/194/194 193/193/193 204/204/204
f 206/206/206 203/203/203 205/205/205
f 204/204/204 203/203/203 206/206/206
f 209/209/209 208/208/208 207/207/207
f 210/210/210 208/208/208 209/209/209
f 196/196/196 209/209/209 195/195/195
f 210/210/210 209/209/209 196/196/196
f 211/211/211 188/188/188 190/190/190
f 212/212/212 188/188/188 211/211/211
f 211/211/211 192/192/192 213/213/213
f 190/190/190 192/192/192 211/211/211
f 213/213/213 194/194/194 214/214/214
f 192/192/192 194/194/194 213/213/213
f 214/214/214 204/204/204 215/215/215
f 194/194/194 204/204/204 214/214/214
f 215/215/215 204/204/204 216/216/216
f 180/180/180 218/218/218 217/217/217
f 178/178/178 218/218/218 180/180/180
f 178/178/178 219/219/219 218/218/218
f 182/182/182 219/219/219 178/178/178
f 219/219/219 184/184/184 220/220/220
f 182/182/182 184/184/184 219/219/219
f 184/184/184 221/221/221 220/220/220
f 186/186/186 221/221/221 184/184/184
f 223/223/223 186/186/186 222/222/222
f 221/221/221 186/186/186 223/223/223
f 217/217/217 200/200/200 202/202/202
f 218/218/218 200/200/200 217/217/217
f 218/218/218 198/198/198 200/200/200
f 219/219/219 198/198/198 218/218/218
f 198/198/198 220/220/220 196/196/196
f 219/219/219 220/220/220 198/198/198
f 220/220/220 210/210/210 196/196/196
f 221/221/221 210/210/210 220/220/220
f 210/210/210 223/223/223 208/208/208
f 221/221/221 223/223/223 210/210/210
f 201/201/201 189/189/189 187/187/187
f 199/199/199 189/189/189 201/201/201
f 197/197/197 189/189/189 199/199/199
f 191/191/191 189/189/189 197/197/197
f 191/191/191 195/195/195 193/193/193
f 197/197/197 195/195/195 191/191/191
f 209/209/209 193/193/193 195/195/195
f 203/203/203 193/193/193 209/209/209
f 203/203/203 207/207/207 205/205/205
f 209/209/209 207/207/207 203/203/203
f 185/185/185 173/173/173 174/174/174
f 224/224/224 173/173/173 185/185/185
f 183/183/183 224/224/224 185/185/185
f 225/225/225 224/224/224 183/183/183
f 179/179/179 225/225/225 183/183/183
f 226/226/226 225/225/225 179/179/179
f 181/181/181 226/226/226 179/179/179
f 227/227/227 226/226/226 181/181/181
f 177/177/177 186/186/186 174/174/174
f 222/222/222 186/186/186 177/177/177
f 206/206/206 216/216/216 204/204/204
f 230/230/230 229/229/229 228/228/228
f 231/231/231 229/229/229 230/230/230
f 232/232/232 231/231/231 230/230/230
f 233/233/233 231/231/231 232/232/232
f 234/234/234 233/233/233 232/232/232
f 235/235/235 233/233/233 234/234/234
f 236/236/236 235/235/235 234/234/234
f 237/237/237 235/235/235 236/236/236
f 238/238/238 237/237/237 236/236/236
f 239/239/239 237/237/237 238/238/238
f 240/240/240 239/239/239 238/238/238
f 241/241/241 239/239/239 240/240/240
f 244/244/244 243/243/243 242/242/242
f 245/245/245 243/243/243 244/244/244
f 248/248/248 247/247/247 246/246/246
f 249/249/249 247/247/247 248/248/248
f 252/252/252 251/251/251 250/250/250
f 253/253/253 251/251/251 252/252/252
f 254/254/254 253/253/253 252/252/252
f 255/255/255 253/253/253 254/254/254
f 256/256/256 255/255/255 254/254/254
f 257/257/257 255/255/255 256/256/256
f 258/258/258 257/257/257 256/256/256
f 259/259/259 257/257/257 258/258/258
f 260/260/260 259/259/259 258/258/258
f 261/261/261 259/259/259 260/260/260
f 264/264/264 263/263/263 262/262/262
f 265/265/265 263/263/263 264/264/264
f 262/262/262 249/249/249 248/248/248
f 263/263/263 249/249/249 262/262/262
f 246/246/246 245/245/245 244/244/244
f 247/247/247 245/245/245 246/246/246
f 266/266/266 241/241/241 240/240/240
f 267/267/267 241/241/241 266/266/266
f 268/268/268 267/267/267 266/266/266
f 269/269/269 267/267/267 268/268/268
f 270/270/270 269/269/269 268/268/268
f 271/271/271 269/269/269 270/270/270
f 272/272/272 271/271/271 270/270/270
f 273/273/273 271/271/271 272/272/272
f 228/228/228 265/265/265 264/264/264
f 229/229/229 265/265/265 228/228/228
f 242/242/242 261/261/261 260/260/260
f 243/243/243 261/261/261 242/242/242
f 276/276/276 275/275/275 274/274/274
f 277/277/277 275/275/275 276/276/276
f 278/278/278 277/277/277 276/276/276
f 279/279/279 277/277/277 278/278/278
f 280/280/280 279/279/279 278/278/278
f 281/281/281 279/279/279 280/280/280
f 282/282/282 281/281/281 280/280/280
f 283/283/283 281/281/281 282/282/282
f 284/284/284 283/283/283 282/282/282
f 285/285/285 283/283/283 284/284/284
f 286/286/286 285/285/285 284/284/284
f 287/287/287 285/285/285 286/286/286
f 290/290/290 289/289/289 288/288/288
f 291/291/291 289/289/289 290/290/290
f 294/294/294 293/293/293 292/292/292
f 295/295/295 293/293/293 294/294/294
f 250/250/250 297/297/297 296/296/296
f 251/251/251 297/297/297 250/250/250
f 296/296/296 299/299/299 298/298/298
f 297/297/297 299/299/299 296/296/296
f 298/298/298 301/301/301 300/300/300
f 299/299/299 301/301/301 298/298/298
f 300/300/300 303/303/303 302/302/302
f 301/301/301 303/303/303 300/300/300
f 302/302/302 305/305/305 304/304/304
f 303/303/303 305/305/305 302/302/302
f 308/308/308 307/307/307 306/306/306
f 309/309/309 307/307/307 308/308/308
f 292/292/292 309/309/309 308/308/308
f 293/293/293 309/309/309 292/292/292
f 288/288/288 295/295/295 294/294/294
f 289/289/289 295/295/295 288/288/288
f 274/274/274 311/311/311 310/310/310
f 275/275/275 311/311/311 274/274/274
f 310/310/310 313/313/313 312/312/312
f 311/311/311 313/313/313 310/310/310
f 312/312/312 315/315/315 314/314/314
f 313/313/313 315/315/315 312/312/312
f 314/314/314 273/273/273 272/272/272
f 315/315/315 273/273/273 314/314/314
f 306/306/306 287/287/287 286/286/286
f 307/307/307 287/287/287 306/306/306
f 304/304/304 291/291/291 290/290/290
f 305/305/305 291/291/291 304/304/304
f 316/316/316 128/128/128 172/172/172
f 317/317/317 128/128/128 316/316/316
f 168/168/168 128/128/128 317/317/317
f 117/117/117 317/317/317 316/316/316
f 118/118/118 317/317/317 117/117/117
f 320/320/320 319/319/319 318/318/318
f 318/318/318 176/176/176 175/175/175
f 319/319/319 176/176/176 318/318/318
usemtl Glass_Tinted_Fade
f 323/323/323 322/322/322 321/321/321
f 324/324/324 322/322/322 323/323/323
f 327/327/327 326/326/326 325/325/325
f 328/328/328 326/326/326 327/327/327
f 331/331/331 330/330/330 329/329/329
f 332/332/332 330/330/330 331/331/331
f 335/335/335 334/334/334 333/333/333
f 336/336/336 334/334/334 335/335/335
f 339/339/339 338/338/338 337/337/337
f 340/340/340 338/338/338 339/339/339
f 343/343/343 342/342/342 341/341/341
f 344/344/344 342/342/342 343/343/343
f 341/341/341 346/346/346 345/345/345
f 342/342/342 346/346/346 341/341/341
f 349/349/349 348/348/348 347/347/347
f 350/350/350 348/348/348 349/349/349
f 345/345/345 352/352/352 351/351/351
f 346/346/346 352/352/352 345/345/345
f 354/354/354 337/337/337 353/353/353
f 339/339/339 337/337/337 354/354/354
f 356/356/356 341/341/341 355/355/355
f 343/343/343 341/341/341 356/356/356
f 355/355/355 345/345/345 357/357/357
f 341/341/341 345/345/345 355/355/355
f 347/347/347 359/359/359 358/358/358
f 348/348/348 359/359/359 347/347/347
f 357/357/357 351/351/351 360/360/360
f 345/345/345 351/351/351 357/357/357
f 338/338/338 361/361/361 344/344/344
f 362/362/362 361/361/361 338/338/338
f 346/346/346 363/363/363 352/352/352
f 364/364/364 363/363/363 346/346/346
f 365/365/365 350/350/350 349/349/349
f 366/366/366 350/350/350 365/365/365
f 369/369/369 368/368/368 367/367/367
f 370/370/370 368/368/368 369/369/369
f 371/371/371 353/353/353 324/324/324
f 354/354/354 353/353/353 371/371/371
f 322/322/322 355/355/355 372/372/372
f 356/356/356 355/355/355 322/322/322
f 372/372/372 357/357/357 328/328/328
f 355/355/355 357/357/357 372/372/372
f 358/358/358 332/332/332 331/331/331
f 359/359/359 332/332/332 358/358/358
f 328/328/328 360/360/360 326/326/326
f 357/357/357 360/360/360 328/328/328
f 373/373/373 370/370/370 369/369/369
f 374/374/374 370/370/370 373/373/373
f 361/361/361 376/376/376 375/375/375
f 362/362/362 376/376/376 361/361/361
f 378/378/378 363/363/363 377/377/377
f 352/352/352 363/363/363 378/378/378
f 379/379/379 352/352/352 378/378/378
f 351/351/351 352/352/352 379/379/379
f 380/380/380 351/351/351 379/379/379
f 360/360/360 351/351/351 380/380/380
f 381/381/381 360/360/360 380/380/380
f 326/326/326 360/360/360 381/381/381
f 382/382/382 326/326/326 381/381/381
f 325/325/325 326/326/326 382/382/382
f 363/363/363 384/384/384 383/383/383
f 364/364/364 384/384/384 363/363/363
f 385/385/385 328/328/328 327/327/327
f 372/372/372 328/328/328 385/385/385
f 342/342/342 364/364/364 346/346/346
f 386/386/386 364/364/364 342/342/342
f 364/364/364 387/387/387 384/384/384
f 386/386/386 387/387/387 364/364/364
f 321/321/321 372/372/372 385/385/385
f 322/322/322 372/372/372 321/321/321
f 344/344/344 386/386/386 342/342/342
f 361/361/361 386/386/386 344/344/344
f 386/386/386 375/375/375 387/387/387
f 361/361/361 375/375/375 386/386/386
f 324/324/324 356/356/356 322/322/322
f 353/353/353 356/356/356 324/324/324
f 353/353/353 343/343/343 356/356/356
f 337/337/337 343/343/343 353/353/353
f 337/337/337 344/344/344 343/343/343
f 338/338/338 344/344/344 337/337/337
f 388/388/388 324/324/324 323/323/323
f 371/371/371 324/324/324 388/388/388
f 340/340/340 362/362/362 338/338/338
f 389/389/389 362/362/362 340/340/340
f 362/362/362 390/390/390 376/376/376
f 389/389/389 390/390/390 362/362/362
f 334/334/334 392/392/392 391/391/391
f 336/336/336 392/392/392 334/334/334
f 336/336/336 393/393/393 392/392/392
f 394/394/394 393/393/393 336/336/336
f 394/394/394 395/395/395 393/393/393
f 396/396/396 395/395/395 394/394/394
f 396/396/396 397/397/397 395/395/395
f 368/368/368 397/397/397 396/396/396
f 368/368/368 398/398/398 397/397/397
f 370/370/370 398/398/398 368/368/368
f 399/399/399 370/370/370 374/374/374
f 398/398/398 370/370/370 399/399/399
f 400/400/400 336/336/336 335/335/335
f 394/394/394 336/336/336 400/400/400
f 401/401/401 394/394/394 400/400/400
f 396/396/396 394/394/394 401/401/401
f 367/367/367 396/396/396 401/401/401
f 368/368/368 396/396/396 367/367/367
f 335/335/335 330/330/330 332/332/332
f 333/333/333 330/330/330 335/335/335
f 400/400/400 332/332/332 359/359/359
f 335/335/335 332/332/332 400/400/400
f 401/401/401 359/359/359 348/348/348
f 400/400/400 359/359/359 401/401/401
f 367/367/367 348/348/348 350/350/350
f 401/401/401 348/348/348 367/367/367
f 366/366/366 367/367/367 350/350/350
f 369/369/369 367/367/367 366/366/366
f 366/366/366 373/373/373 369/369/369
f 402/402/402 373/373/373 366/366/366
f 391/391/391 371/371/371 388/388/388
f 392/392/392 371/371/371 391/391/391
f 392/392/392 354/354/354 371/371/371
f 393/393/393 354/354/354 392/392/392
f 393/393/393 339/339/339 354/354/354
f 395/395/395 339/339/339 393/393/393
f 395/395/395 340/340/340 339/339/339
f 397/397/397 340/340/340 395/395/395
f 397/397/397 389/389/389 340/340/340
f 398/398/398 389/389/389 397/397/397
f 399/399/399 389/389/389 398/398/398
f 390/390/390 389/389/389 399/399/399
f 405/405/405 404/404/404 403/403/403
f 406/406/406 404/404/404 405/405/405
f 409/409/409 408/408/408 407/407/407
f 410/410/410 408/408/408 409/409/409
f 413/413/413 412/412/412 411/411/411
f 414/414/414 412/412/412 413/413/413
f 417/417/417 416/416/416 415/415/415
f 418/418/418 416/416/416 417/417/417
f 421/421/421 420/420/420 419/419/419
f 422/422/422 420/420/420 421/421/421
f 425/425/425 424/424/424 423/423/423
f 426/426/426 424/424/424 425/425/425
f 426/426/426 427/427/427 424/424/424
f 428/428/428 427/427/427 426/426/426
f 431/431/431 430/430/430 429/429/429
f 432/432/432 430/430/430 431/431/431
f 428/428/428 433/433/433 427/427/427
f 434/434/434 433/433/433 428/428/428
f 435/435/435 422/422/422 421/421/421
f 436/436/436 422/422/422 435/435/435
f 437/437/437 426/426/426 425/425/425
f 438/438/438 426/426/426 437/437/437
f 438/438/438 428/428/428 426/426/426
f 439/439/439 428/428/428 438/438/438
f 432/432/432 440/440/440 430/430/430
f 441/441/441 440/440/440 432/432/432
f 439/439/439 434/434/434 428/428/428
f 442/442/442 434/434/434 439/439/439
f 420/420/420 444/444/444 443/443/443
f 423/423/423 444/444/444 420/420/420
f 427/427/427 446/446/446 445/445/445
f 433/433/433 446/446/446 427/427/427
f 448/448/448 429/429/429 447/447/447
f 431/431/431 429/429/429 448/448/448
f 451/451/451 450/450/450 449/449/449
f 452/452/452 450/450/450 451/451/451
f 453/453/453 436/436/436 435/435/435
f 403/403/403 436/436/436 453/453/453
f 404/404/404 438/438/438 437/437/437
f 454/454/454 438/438/438 404/404/404
f 454/454/454 439/439/439 438/438/438
f 407/407/407 439/439/439 454/454/454
f 441/441/441 411/411/411 440/440/440
f 413/413/413 411/411/411 441/441/441
f 407/407/407 442/442/442 439/439/439
f 408/408/408 442/442/442 407/407/407
f 456/456/456 449/449/449 455/455/455
f 451/451/451 449/449/449 456/456/456
f 444/444/444 457/457/457 443/443/443
f 458/458/458 457/457/457 444/444/444
f 460/460/460 459/459/459 446/446/446
f 461/461/461 459/459/459 460/460/460
f 448/448/448 463/463/463 462/462/462
f 447/447/447 463/463/463 448/448/448
f 464/464/464 446/446/446 433/433/433
f 460/460/460 446/446/446 464/464/464
f 465/465/465 433/433/433 434/434/434
f 464/464/464 433/433/433 465/465/465
f 466/466/466 434/434/434 442/442/442
f 465/465/465 434/434/434 466/466/466
f 467/467/467 442/442/442 408/408/408
f 466/466/466 442/442/442 467/467/467
f 468/468/468 408/408/408 410/410/410
f 467/467/467 408/408/408 468/468/468
f 446/446/446 469/469/469 445/445/445
f 459/459/459 469/469/469 446/446/446
f 470/470/470 407/407/407 454/454/454
f 409/409/409 407/407/407 470/470/470
f 424/424/424 445/445/445 471/471/471
f 427/427/427 445/445/445 424/424/424
f 445/445/445 472/472/472 471/471/471
f 469/469/469 472/472/472 445/445/445
f 406/406/406 454/454/454 404/404/404
f 470/470/470 454/454/454 406/406/406
f 423/423/423 471/471/471 444/444/444
f 424/424/424 471/471/471 423/423/423
f 471/471/471 458/458/458 444/444/444
f 472/472/472 458/458/458 471/471/471
f 403/403/403 437/437/437 436/436/436
f 404/404/404 437/437/437 403/403/403
f 436/436/436 425/425/425 422/422/422
f 437/437/437 425/425/425 436/436/436
f 422/422/422 423/423/423 420/420/420
f 425/425/425 423/423/423 422/422/422
f 473/473/473 403/403/403 453/453/453
f 405/405/405 403/403/403 473/473/473
f 419/419/419 443/443/443 474/474/474
f 420/420/420 443/443/443 419/419/419
f 443/443/443 475/475/475 474/474/474
f 457/457/457 475/475/475 443/443/443
f 416/416/416 476/476/476 415/415/415
f 477/477/477 476/476/476 416/416/416
f 415/415/415 479/479/479 478/478/478
f 476/476/476 479/479/479 415/415/415
f 478/478/478 481/481/481 480/480/480
f 479/479/479 481/481/481 478/478/478
f 480/480/480 482/482/482 450/450/450
f 481/481/481 482/482/482 480/480/480
f 450/450/450 483/483/483 449/449/449
f 482/482/482 483/483/483 450/450/450
f 484/484/484 449/449/449 483/483/483
f 455/455/455 449/449/449 484/484/484
f 485/485/485 415/415/415 478/478/478
f 417/417/417 415/415/415 485/485/485
f 486/486/486 478/478/478 480/480/480
f 485/485/485 478/478/478 486/486/486
f 452/452/452 480/480/480 450/450/450
f 486/486/486 480/480/480 452/452/452
f 417/417/417 412/412/412 418/418/418
f 411/411/411 412/412/412 417/417/417
f 485/485/485 411/411/411 417/417/417
f 440/440/440 411/411/411 485/485/485
f 486/486/486 440/440/440 485/485/485
f 430/430/430 440/440/440 486/486/486
f 452/452/452 430/430/430 486/486/486
f 429/429/429 430/430/430 452/452/452
f 447/447/447 452/452/452 451/451/451
f 429/429/429 452/452/452 447/447/447
f 447/447/447 456/456/456 463/463/463
f 451/451/451 456/456/456 447/447/447
f 477/477/477 453/453/453 476/476/476
f 473/473/473 453/453/453 477/477/477
f 476/476/476 435/435/435 479/479/479
f 453/453/453 435/435/435 476/476/476
f 479/479/479 421/421/421 481/481/481
f 435/435/435 421/421/421 479/479/479
f 481/481/481 419/419/419 482/482/482
f 421/421/421 419/419/419 481/481/481
f 482/482/482 474/474/474 483/483/483
f 419/419/419 474/474/474 482/482/482
f 484/484/484 474/474/474 475/475/475
f 483/483/483 474/474/474 484/484/484
usemtl Glass_Interior_Tinted_Fade
f 489/489/489 488/488/488 487/487/487
f 490/490/490 488/488/488 489/489/489
f 493/493/493 492/492/492 491/491/491
f 494/494/494 492/492/492 493/493/493
f 497/497/497 496/496/496 495/495/495
f 498/498/498 496/496/496 497/497/497
f 501/501/501 500/500/500 499/499/499
f 502/502/502 500/500/500 501/501/501
f 505/505/505 504/504/504 503/503/503
f 506/506/506 504/504/504 505/505/505
f 509/509/509 508/508/508 507/507/507
f 510/510/510 508/508/508 509/509/509
f 513/513/513 512/512/512 511/511/511
f 514/514/514 512/512/512 513/513/513
f 514/514/514 515/515/515 512/512/512
f 516/516/516 515/515/515 514/514/514
f 516/516/516 517/517/517 515/515/515
f 518/518/518 517/517/517 516/516/516
f 519/519/519 510/510/510 509/509/509
f 520/520/520 510/510/510 519/519/519
f 521/521/521 514/514/514 513/513/513
f 522/522/522 514/514/514 521/521/521
f 522/522/522 516/516/516 514/514/514
f 523/523/523 516/516/516 522/522/522
f 523/523/523 518/518/518 516/516/516
f 524/524/524 518/518/518 523/523/523
f 508/508/508 526/526/526 525/525/525
f 511/511/511 526/526/526 508/508/508
f 517/517/517 527/527/527 515/515/515
f 530/530/530 529/529/529 528/528/528
f 531/531/531 529/529/529 530/530/530
f 532/532/532 520/520/520 519/519/519
f 495/495/495 520/520/520 532/532/532
f 496/496/496 522/522/522 521/521/521
f 533/533/533 522/522/522 496/496/496
f 533/533/533 523/523/523 522/522/522
f 499/499/499 523/523/523 533/533/533
f 499/499/499 524/524/524 523/523/523
f 500/500/500 524/524/524 499/499/499
f 534/534/534 499/499/499 533/533/533
f 501/501/501 499/499/499 534/534/534
f 512/512/512 536/536/536 535/535/535
f 515/515/515 536/536/536 512/512/512
f 498/498/498 533/533/533 496/496/496
f 534/534/534 533/533/533 498/498/498
f 511/511/511 535/535/535 526/526/526
f 512/512/512 535/535/535 511/511/511
f 495/495/495 521/521/521 520/520/520
f 496/496/496 521/521/521 495/495/495
f 520/520/520 513/513/513 510/510/510
f 521/521/521 513/513/513 520/520/520
f 510/510/510 511/511/511 508/508/508
f 513/513/513 511/511/511 510/510/510
f 537/537/537 495/495/495 532/532/532
f 497/497/497 495/495/495 537/537/537
f 507/507/507 525/525/525 538/538/538
f 508/508/508 525/525/525 507/507/507
f 504/504/504 539/539/539 503/503/503
f 540/540/540 539/539/539 504/504/504
f 503/503/503 542/542/542 541/541/541
f 539/539/539 542/542/542 503/503/503
f 541/541/541 544/544/544 543/543/543
f 542/542/542 544/544/544 541/541/541
f 543/543/543 545/545/545 529/529/529
f 544/544/544 545/545/545 543/543/543
f 529/529/529 546/546/546 528/528/528
f 545/545/545 546/546/546 529/529/529
f 547/547/547 503/503/503 541/541/541
f 505/505/505 503/503/503 547/547/547
f 548/548/548 541/541/541 543/543/543
f 547/547/547 541/541/541 548/548/548
f 531/531/531 543/543/543 529/529/529
f 548/548/548 543/543/543 531/531/531
f 505/505/505 549/549/549 506/506/506
f 550/550/550 549/549/549 505/505/505
f 547/547/547 550/550/550 505/505/505
f 551/551/551 550/550/550 547/547/547
f 548/548/548 551/551/551 547/547/547
f 552/552/552 551/551/551 548/548/548
f 531/531/531 552/552/552 548/548/548
f 553/553/553 552/552/552 531/531/531
f 553/553/553 531/531/531 554/554/554
f 540/540/540 532/532/532 539/539/539
f 537/537/537 532/532/532 540/540/540
f 539/539/539 519/519/519 542/542/542
f 532/532/532 519/519/519 539/539/539
f 542/542/542 509/509/509 544/544/544
f 519/519/519 509/509/509 542/542/542
f 544/544/544 507/507/507 545/545/545
f 509/509/509 507/507/507 544/544/544
f 545/545/545 538/538/538 546/546/546
f 507/507/507 538/538/538 545/545/545
f 557/557/557 556/556/556 555/555/555
f 558/558/558 556/556/556 557/557/557
f 561/561/561 560/560/560 559/559/559
f 562/562/562 560/560/560 561/561/561
f 565/565/565 564/564/564 563/563/563
f 566/566/566 564/564/564 565/565/565
f 569/569/569 568/568/568 567/567/567
f 570/570/570 568/568/568 569/569/569
f 573/573/573 572/572/572 571/571/571
f 574/574/574 572/572/572 573/573/573
f 571/571/571 576/576/576 575/575/575
f 572/572/572 576/576/576 571/571/571
f 575/575/575 578/578/578 577/577/577
f 576/576/576 578/578/578 575/575/575
f 580/580/580 567/567/567 579/579/579
f 569/569/569 567/567/567 580/580/580
f 582/582/582 571/571/571 581/581/581
f 573/573/573 571/571/571 582/582/582
f 581/581/581 575/575/575 583/583/583
f 571/571/571 575/575/575 581/581/581
f 583/583/583 577/577/577 584/584/584
f 575/575/575 577/577/577 583/583/583
f 568/568/568 585/585/585 574/574/574
f 586/586/586 585/585/585 568/568/568
f 588/588/588 587/587/587 576/576/576
f 591/591/591 590/590/590 589/589/589
f 592/592/592 590/590/590 591/591/591
f 593/593/593 579/579/579 558/558/558
f 580/580/580 579/579/579 593/593/593
f 556/556/556 581/581/581 594/594/594
f 582/582/582 581/581/581 556/556/556
f 594/594/594 583/583/583 562/562/562
f 581/581/581 583/583/583 594/594/594
f 562/562/562 584/584/584 560/560/560
f 583/583/583 584/584/584 562/562/562
f 595/595/595 562/562/562 561/561/561
f 594/594/594 562/562/562 595/595/595
f 572/572/572 588/588/588 576/576/576
f 596/596/596 588/588/588 572/572/572
f 555/555/555 594/594/594 595/595/595
f 556/556/556 594/594/594 555/555/555
f 574/574/574 596/596/596 572/572/572
f 585/585/585 596/596/596 574/574/574
f 558/558/558 582/582/582 556/556/556
f 579/579/579 582/582/582 558/558/558
f 579/579/579 573/573/573 582/582/582
f 567/567/567 573/573/573 579/579/579
f 567/567/567 574/574/574 573/573/573
f 568/568/568 574/574/574 567/567/567
f 597/597/597 558/558/558 557/557/557
f 593/593/593 558/558/558 597/597/597
f 570/570/570 586/586/586 568/568/568
f 598/598/598 586/586/586 570/570/570
f 564/564/564 600/600/600 599/599/599
f 566/566/566 600/600/600 564/564/564
f 566/566/566 601/601/601 600/600/600
f 602/602/602 601/601/601 566/566/566
f 602/602/602 603/603/603 601/601/601
f 604/604/604 603/603/603 602/602/602
f 604/604/604 605/605/605 603/603/603
f 590/590/590 605/605/605 604/604/604
f 590/590/590 606/606/606 605/605/605
f 592/592/592 606/606/606 590/590/590
f 607/607/607 566/566/566 565/565/565
f 602/602/602 566/566/566 607/607/607
f 608/608/608 602/602/602 607/607/607
f 604/604/604 602/602/602 608/608/608
f 589/589/589 604/604/604 608/608/608
f 590/590/590 604/604/604 589/589/589
f 565/565/565 610/610/610 609/609/609
f 563/563/563 610/610/610 565/565/565
f 607/607/607 609/609/609 611/611/611
f 565/565/565 609/609/609 607/607/607
f 608/608/608 611/611/611 612/612/612
f 607/607/607 611/611/611 608/608/608
f 589/589/589 612/612/612 613/613/613
f 608/608/608 612/612/612 589/589/589
f 614/614/614 589/589/589 613/613/613
f 615/615/615 589/589/589 614/614/614
f 599/599/599 593/593/593 597/597/597
f 600/600/600 593/593/593 599/599/599
f 600/600/600 580/580/580 593/593/593
f 601/601/601 580/580/580 600/600/600
f 601/601/601 569/569/569 580/580/580
f 603/603/603 569/569/569 601/601/601
f 603/603/603 570/570/570 569/569/569
f 605/605/605 570/570/570 603/603/603
f 605/605/605 598/598/598 570/570/570
f 606/606/606 598/598/598 605/605/605
f 616/616/616 531/531/531 530/530/530
f 617/617/617 531/531/531 616/616/616
f 554/554/554 531/531/531 617/617/617
f 591/591/591 589/589/589 618/618/618
f 618/618/618 589/589/589 615/615/615
f 578/578/578 576/576/576 619/619/619
f 576/576/576 620/620/620 619/619/619
f 587/587/587 620/620/620 576/576/576
f 515/515/515 621/621/621 536/536/536
f 622/622/622 621/621/621 515/515/515
f 527/527/527 622/622/622 515/515/515
usemtl Glass_Interior
f 625/625/625 624/624/624 623/623/623
f 626/626/626 624/624/624 625/625/625
f 627/627/627 624/624/624 626/626/626
f 628/628/628 624/624/624 627/627/627
f 631/631/631 630/630/630 629/629/629
f 632/632/632 630/630/630 631/631/631
f 629/629/629 634/634/634 633/633/633
f 630/630/630 634/634/634 629/629/629
f 637/637/637 636/636/636 635/635/635
f 638/638/638 636/636/636 637/637/637
f 635/635/635 625/625/625 623/623/623
f 636/636/636 625/625/625 635/635/635
f 639/639/639 630/630/630 632/632/632
f 640/640/640 630/630/630 639/639/639
f 634/634/634 640/640/640 641/641/641
f 630/630/630 640/640/640 634/634/634
f 638/638/638 640/640/640 636/636/636
f 641/641/641 640/640/640 638/638/638
f 625/625/625 640/640/640 639/639/639
f 636/636/636 640/640/640 625/625/625
f 626/626/626 639/639/639 642/642/642
f 625/625/625 639/639/639 626/626/626
f 642/642/642 632/632/632 643/643/643
f 639/639/639 632/632/632 642/642/642
f 644/644/644 632/632/632 631/631/631
f 643/643/643 632/632/632 644/644/644
f 647/647/647 646/646/646 645/645/645
f 648/648/648 646/646/646 647/647/647
f 649/649/649 646/646/646 648/648/648
f 650/650/650 646/646/646 649/649/649
f 653/653/653 652/652/652 651/651/651
f 654/654/654 652/652/652 653/653/653
f 654/654/654 655/655/655 652/652/652
f 656/656/656 655/655/655 654/654/654
f 659/659/659 658/658/658 657/657/657
f 660/660/660 658/658/658 659/659/659
f 660/660/660 649/649/649 658/658/658
f 650/650/650 649/649/649 660/660/660
f 662/662/662 652/652/652 661/661/661
f 651/651/651 652/652/652 662/662/662
f 655/655/655 661/661/661 652/652/652
f 663/663/663 661/661/661 655/655/655
f 657/657/657 661/661/661 663/663/663
f 658/658/658 661/661/661 657/657/657
f 649/649/649 661/661/661 658/658/658
f 662/662/662 661/661/661 649/649/649
f 648/648/648 662/662/662 649/649/649
f 664/664/664 662/662/662 648/648/648
f 664/664/664 651/651/651 662/662/662
f 665/665/665 651/651/651 664/664/664
f 666/666/666 651/651/651 665/665/665
f 653/653/653 651/651/651 666/666/666
usemtl Glass
f 669/669/669 668/668/668 667/667/667
f 670/670/670 668/668/668 669/669/669
f 671/671/671 668/668/668 670/670/670
f 672/672/672 668/668/668 671/671/671
f 675/675/675 674/674/674 673/673/673
f 676/676/676 674/674/674 675/675/675
f 679/679/679 678/678/678 677/677/677
f 680/680/680 678/678/678 679/679/679
f 676/676/676 677/677/677 674/674/674
f 679/679/679 677/677/677 676/676/676
f 683/683/683 682/682/682 681/681/681
f 684/684/684 682/682/682 683/683/683
f 684/684/684 685/685/685 682/682/682
f 686/686/686 685/685/685 684/684/684
f 686/686/686 671/671/671 685/685/685
f 672/672/672 671/671/671 686/686/686
f 688/688/688 674/674/674 687/687/687
f 673/673/673 674/674/674 688/688/688
f 677/677/677 687/687/687 674/674/674
f 689/689/689 687/687/687 677/677/677
f 678/678/678 689/689/689 677/677/677
f 690/690/690 689/689/689 678/678/678
f 682/682/682 687/687/687 689/689/689
f 685/685/685 687/687/687 682/682/682
f 681/681/681 689/689/689 690/690/690
f 682/682/682 689/689/689 681/681/681
f 671/671/671 687/687/687 685/685/685
f 688/688/688 687/687/687 671/671/671
f 670/670/670 688/688/688 671/671/671
f 691/691/691 688/688/688 670/670/670
f 691/691/691 673/673/673 688/688/688
f 692/692/692 673/673/673 691/691/691
f 693/693/693 673/673/673 692/692/692
f 675/675/675 673/673/673 693/693/693
f 694/694/694 681/681/681 690/690/690
f 695/695/695 681/681/681 694/694/694
f 696/696/696 690/690/690 678/678/678
f 694/694/694 690/690/690 696/696/696
f 683/683/683 698/698/698 697/697/697
f 681/681/681 698/698/698 683/683/683
f 695/695/695 698/698/698 681/681/681
f 696/696/696 700/700/700 699/699/699
f 678/678/678 700/700/700 696/696/696
f 680/680/680 700/700/700 678/678/678
f 703/703/703 702/702/702 701/701/701
f 704/704/704 702/702/702 703/703/703
f 705/705/705 702/702/702 704/704/704
f 706/706/706 702/702/702 705/705/705
f 709/709/709 708/708/708 707/707/707
f 710/710/710 708/708/708 709/709/709
f 713/713/713 712/712/712 711/711/711
f 714/714/714 712/712/712 713/713/713
f 707/707/707 714/714/714 713/713/713
f 708/708/708 714/714/714 707/707/707
f 717/717/717 716/716/716 715/715/715
f 718/718/718 716/716/716 717/717/717
f 715/715/715 720/720/720 719/719/719
f 716/716/716 720/720/720 715/715/715
f 719/719/719 703/703/703 701/701/701
f 720/720/720 703/703/703 719/719/719
f 721/721/721 708/708/708 710/710/710
f 722/722/722 708/708/708 721/721/721
f 714/714/714 722/722/722 723/723/723
f 708/708/708 722/722/722 714/714/714
f 712/712/712 723/723/723 724/724/724
f 714/714/714 723/723/723 712/712/712
f 716/716/716 722/722/722 720/720/720
f 723/723/723 722/722/722 716/716/716
f 718/718/718 723/723/723 716/716/716
f 724/724/724 723/723/723 718/718/718
f 703/703/703 722/722/722 721/721/721
f 720/720/720 722/722/722 703/703/703
f 704/704/704 721/721/721 725/725/725
f 703/703/703 721/721/721 704/704/704
f 725/725/725 710/710/710 726/726/726
f 721/721/721 710/710/710 725/725/725
f 727/727/727 710/710/710 709/709/709
f 726/726/726 710/710/710 727/727/727
f 729/729/729 718/718/718 728/728/728
f 724/724/724 718/718/718 729/729/729
f 730/730/730 724/724/724 729/729/729
f 712/712/712 724/724/724 730/730/730
f 718/718/718 731/731/731 728/728/728
f 717/717/717 731/731/731 718/718/718
f 732/732/732 731/731/731 717/717/717
f 712/712/712 733/733/733 711/711/711
f 730/730/730 733/733/733 712/712/712
f 734/734/734 733/733/733 730/730/730
