# Exported from Godot Engine
o Defrost_Front
v 1.178655 1.105786 -0.126959
vt 0.863770 0.622070
vn 0.780952 0.568319 0.259090
v 1.183339 1.106536 -0.000059
vt 0.869141 0.500000
vn 0.869689 0.471398 0.146374
v 1.094948 1.156753 -0.176709
vt 0.779297 0.621826
vn 0.839477 0.517807 0.164783
v 1.100315 1.158180 -0.000159
vt 0.782715 0.500000
vn 0.900328 0.426446 0.086911
v 0.859895 1.291877 -0.174057
vt 0.555176 0.619629
vn 0.893842 0.446911 0.036288
v 0.863782 1.294494 0.000178
vt 0.557129 0.500000
vn 0.893842 0.446911 0.036288
v 0.661403 1.391055 -0.173484
vt 0.372070 0.619141
vn 0.901039 0.432188 -0.036643
v 0.663706 1.390303 -0.000132
vt 0.374268 0.500000
vn 0.901039 0.432188 -0.036643
v 0.468521 1.472787 -0.172463
vt 0.199097 0.618652
vn 0.912150 0.382669 -0.146790
v 0.471089 1.471674 0.000243
vt 0.201172 0.500000
vn 0.912150 0.382669 -0.146790
v 1.101682 1.100709 -0.545417
vt 0.818359 0.890686
vn 0.829121 0.527956 0.183902
v 1.132456 1.102679 -0.428232
vt 0.846680 0.753418
vn 0.951376 0.269531 0.149117
v 1.032080 1.141274 -0.563958
vt 0.738770 0.890076
vn 0.880680 0.460728 0.110149
v 1.073743 1.151312 -0.364548
vt 0.765625 0.751465
vn 0.930461 0.351488 0.103436
v 0.428292 1.460462 -0.512938
vt 0.172729 0.853638
vn 0.914586 0.381427 -0.134337
v 0.623204 1.375076 -0.528096
vt 0.348877 0.864014
vn 0.898961 0.437356 -0.024270
v 0.453024 1.470461 -0.335331
vt 0.188232 0.730713
vn 0.912150 0.382669 -0.146790
v 0.648268 1.386963 -0.343132
vt 0.363770 0.735840
vn 0.898961 0.437356 -0.024270
v 0.810951 1.274838 -0.544006
vt 0.524902 0.875305
vn 0.893376 0.446656 0.048762
v 0.844675 1.285289 -0.352161
vt 0.545898 0.742188
vn 0.893551 0.446765 0.044349
v 1.161922 1.104874 -0.275199
vt 0.854980 0.689209
vn 0.954272 0.274426 0.118557
v 1.178707 1.105752 0.127031
vt 0.863770 0.377441
vn 0.931802 0.353658 0.081671
v 1.094692 1.156911 0.176722
vt 0.779297 0.377441
vn 0.929984 0.362403 0.061589
v 0.859869 1.291894 0.174007
vt 0.555176 0.379883
vn 0.893842 0.446911 0.036288
v 0.661477 1.391021 0.173592
vt 0.372070 0.380371
vn 0.901039 0.432188 -0.036643
v 0.468457 1.472813 0.172301
vt 0.199097 0.380859
vn 0.912150 0.382669 -0.146790
v 1.132457 1.102678 0.428232
vt 0.846680 0.246094
vn 0.604314 0.616268 0.504994
v 1.101683 1.100708 0.545418
vt 0.818359 0.108887
vn 0.909867 0.405629 0.087222
v 1.073976 1.151153 0.364636
vt 0.765625 0.248047
vn 0.830580 0.515087 0.211715
v 1.031875 1.141437 0.563835
vt 0.738281 0.109375
vn 0.912458 0.404276 0.063102
v 0.648326 1.386930 0.343246
vt 0.363770 0.263672
vn 0.898961 0.437356 -0.024270
v 0.623204 1.375076 0.528098
vt 0.348877 0.135254
vn 0.898961 0.437356 -0.024270
v 0.452976 1.470481 0.335329
vt 0.188110 0.268555
vn 0.912150 0.382669 -0.146790
v 0.428292 1.460481 0.512761
vt 0.172729 0.145996
vn 0.907952 0.399704 -0.125936
v 0.844775 1.285215 0.352281
vt 0.545898 0.256836
vn 0.893551 0.446765 0.044349
v 0.810954 1.274838 0.544003
vt 0.524414 0.124023
vn 0.893376 0.446656 0.048762
v 1.161922 1.104874 0.275200
vt 0.854980 0.310059
vn 0.690356 0.600115 0.404067
v 0.907761 1.186914 0.674048
vt 0.637695 0.034668
vn 0.897102 0.436541 0.068126
v 1.001253 1.131238 0.675256
vt 0.712891 0.030762
vn 0.895528 0.439677 0.068656
v 0.740055 1.288238 0.656237
vt 0.501953 0.041992
vn 0.897300 0.440785 0.023667
v 0.626766 1.351197 0.642061
vt 0.334961 0.058105
vn 0.896785 0.442449 -0.003915
v 0.429861 1.443812 0.610438
vt 0.183228 0.078125
vn 0.889813 0.454913 -0.035877
v 0.401016 1.456259 0.602660
vt 0.160645 0.081055
vn 0.910359 0.388923 -0.141372
v 1.030199 1.113929 0.671514
vt 0.744141 0.032715
vn 0.927780 0.370395 0.045072
v 0.390528 1.489388 0.333357
vt 0.134033 0.269531
vn 0.910817 0.353197 -0.213690
v 0.366426 1.479815 0.508378
vt 0.118835 0.148438
vn 0.910328 0.347261 -0.225195
v 0.405810 1.493497 0.172186
vt 0.144165 0.380859
vn 0.912598 0.353859 -0.204813
v 0.407843 1.494933 0.066041
vt 0.145386 0.452148
vn 0.890207 0.447190 -0.086913
v 0.407982 1.494893 -0.065975
vt 0.145386 0.547363
vn 0.926546 0.352576 -0.131162
v 0.409671 1.495605 -0.000034
vt 0.146240 0.500000
vn 0.911471 0.389368 -0.132713
v 0.405810 1.493497 -0.172185
vt 0.144165 0.618896
vn 0.912598 0.353859 -0.204813
v 0.390528 1.489388 -0.333357
vt 0.134155 0.729980
vn 0.913631 0.343219 -0.217899
v 0.366426 1.479815 -0.508377
vt 0.118896 0.850952
vn 0.913076 0.337171 -0.229364
v 0.377190 1.467092 -0.577006
vt 0.134521 0.901978
vn 0.938489 0.302233 -0.167012
v 0.482472 1.419632 -0.619498
vt 0.223755 0.926697
vn 0.908368 0.412925 -0.066027
v 0.626766 1.351198 -0.642061
vt 0.335205 0.941162
vn 0.886336 0.462776 0.015724
v 0.740055 1.288239 -0.656237
vt 0.501953 0.957367
vn 0.894067 0.447044 0.028229
v 0.907761 1.186915 -0.674048
vt 0.637695 0.964630
vn 0.886520 0.455477 0.081382
v 1.055069 1.103505 -0.651429
vt 0.794922 0.963379
vn 0.803495 0.566265 0.183682
v 1.030199 1.113929 -0.671513
vt 0.744629 0.966644
vn 0.837109 0.524175 0.156490
v 0.482472 1.419631 0.619499
vt 0.223633 0.072754
vn 0.903249 0.424557 -0.062387
v 0.429861 1.443812 -0.610436
vt 0.183350 0.921448
vn 0.913896 0.400855 -0.064109
v 0.401016 1.456259 -0.602659
vt 0.160767 0.918518
vn 0.913625 0.379598 -0.145582
v 0.387244 1.461616 -0.594620
vt 0.149414 0.911377
vn 0.916624 0.337477 -0.214267
v 0.377190 1.467092 0.577007
vt 0.134399 0.097656
vn 0.873454 0.479386 -0.085252
v 0.387244 1.461616 0.594620
vt 0.149292 0.087891
vn 0.908105 0.366911 -0.201798
v 1.001253 1.131238 -0.675256
vt 0.712891 0.968689
vn 0.888457 0.452377 0.077456
v 1.055069 1.103505 0.651430
vt 0.794922 0.036133
vn 0.942350 0.334247 0.015956
v 1.075303 1.099362 0.618708
vt 0.803711 0.062500
vn 0.909867 0.405629 0.087222
v 1.075303 1.099362 -0.618708
vt 0.803711 0.936768
vn 0.862989 0.483896 0.145239
f 3/3/3 2/2/2 1/1/1
f 4/4/4 2/2/2 3/3/3
f 5/5/5 4/4/4 3/3/3
f 6/6/6 4/4/4 5/5/5
f 7/7/7 6/6/6 5/5/5
f 8/8/8 6/6/6 7/7/7
f 9/9/9 8/8/8 7/7/7
f 10/10/10 8/8/8 9/9/9
f 13/13/13 12/12/12 11/11/11
f 14/14/14 12/12/12 13/13/13
f 17/17/17 16/16/16 15/15/15
f 18/18/18 16/16/16 17/17/17
f 18/18/18 19/19/19 16/16/16
f 20/20/20 19/19/19 18/18/18
f 20/20/20 13/13/13 19/19/19
f 14/14/14 13/13/13 20/20/20
f 9/9/9 18/18/18 17/17/17
f 7/7/7 18/18/18 9/9/9
f 7/7/7 20/20/20 18/18/18
f 5/5/5 20/20/20 7/7/7
f 5/5/5 14/14/14 20/20/20
f 3/3/3 14/14/14 5/5/5
f 12/12/12 14/14/14 21/21/21
f 4/4/4 22/22/22 2/2/2
f 23/23/23 22/22/22 4/4/4
f 24/24/24 4/4/4 6/6/6
f 23/23/23 4/4/4 24/24/24
f 25/25/25 6/6/6 8/8/8
f 24/24/24 6/6/6 25/25/25
f 26/26/26 8/8/8 10/10/10
f 25/25/25 8/8/8 26/26/26
f 29/29/29 28/28/28 27/27/27
f 30/30/30 28/28/28 29/29/29
f 33/33/33 32/32/32 31/31/31
f 34/34/34 32/32/32 33/33/33
f 31/31/31 36/36/36 35/35/35
f 32/32/32 36/36/36 31/31/31
f 35/35/35 30/30/30 29/29/29
f 36/36/36 30/30/30 35/35/35
f 26/26/26 31/31/31 25/25/25
f 33/33/33 31/31/31 26/26/26
f 25/25/25 35/35/35 24/24/24
f 31/31/31 35/35/35 25/25/25
f 24/24/24 29/29/29 23/23/23
f 35/35/35 29/29/29 24/24/24
f 22/22/22 29/29/29 37/37/37
f 23/23/23 29/29/29 22/22/22
f 39/39/39 36/36/36 38/38/38
f 30/30/30 36/36/36 39/39/39
f 36/36/36 41/41/41 40/40/40
f 32/32/32 41/41/41 36/36/36
f 34/34/34 43/43/43 42/42/42
f 44/44/44 30/30/30 39/39/39
f 45/45/45 34/34/34 33/33/33
f 46/46/46 34/34/34 45/45/45
f 33/33/33 47/47/47 45/45/45
f 26/26/26 47/47/47 33/33/33
f 47/47/47 26/26/26 48/48/48
f 50/50/50 9/9/9 49/49/49
f 10/10/10 9/9/9 50/50/50
f 9/9/9 52/52/52 51/51/51
f 17/17/17 52/52/52 9/9/9
f 52/52/52 15/15/15 53/53/53
f 17/17/17 15/15/15 52/52/52
f 15/15/15 54/54/54 53/53/53
f 16/16/16 56/56/56 55/55/55
f 16/16/16 57/57/57 56/56/56
f 19/19/19 57/57/57 16/16/16
f 57/57/57 19/19/19 58/58/58
f 60/60/60 13/13/13 59/59/59
f 61/61/61 34/34/34 42/42/42
f 32/32/32 34/34/34 61/61/61
f 63/63/63 15/15/15 62/62/62
f 15/15/15 63/63/63 64/64/64
f 66/66/66 34/34/34 65/65/65
f 34/34/34 46/46/46 65/65/65
f 43/43/43 34/34/34 66/66/66
f 54/54/54 15/15/15 64/64/64
f 41/41/41 32/32/32 61/61/61
f 62/62/62 16/16/16 55/55/55
f 15/15/15 16/16/16 62/62/62
f 38/38/38 36/36/36 40/40/40
f 67/67/67 19/19/19 13/13/13
f 58/58/58 19/19/19 67/67/67
f 69/69/69 30/30/30 68/68/68
f 68/68/68 30/30/30 44/44/44
f 67/67/67 13/13/13 60/60/60
f 70/70/70 13/13/13 11/11/11
f 28/28/28 30/30/30 69/69/69
f 59/59/59 13/13/13 70/70/70
f 29/29/29 27/27/27 37/37/37
f 14/14/14 1/1/1 21/21/21
f 3/3/3 1/1/1 14/14/14
f 26/26/26 50/50/50 48/48/48
f 10/10/10 50/50/50 26/26/26
f 9/9/9 51/51/51 49/49/49
