# Exported from Godot Engine
o Defrost_Rear
v -1.685357 1.391341 -0.138306
vt 0.774414 0.652832
vn 0.649846 0.375951 -0.660576
v -1.685695 1.394210 -0.000717
vt 0.775391 0.499512
vn 0.649846 0.375951 -0.660576
v -1.789721 1.360179 -0.137737
vt 0.586426 0.653320
vn 0.641833 0.403146 -0.652322
v -1.792209 1.362532 0.000759
vt 0.583496 0.499023
vn 0.641833 0.403146 -0.652322
v -1.902826 1.322021 -0.138009
vt 0.380371 0.655273
vn 0.635277 0.423500 -0.645811
v -1.904253 1.325010 0.000752
vt 0.379395 0.500244
vn 0.635277 0.423500 -0.645811
v -1.999907 1.289173 -0.137830
vt 0.203491 0.656250
vn 0.622528 0.460364 -0.632870
v -2.001082 1.292468 0.000625
vt 0.203125 0.501465
vn 0.622528 0.460364 -0.632870
v -1.680387 1.384446 -0.267837
vt 0.779297 0.797607
vn 0.647256 0.385166 -0.657805
v -1.782161 1.353719 -0.266448
vt 0.595703 0.797119
vn 0.640931 0.405934 -0.651479
v -1.889331 1.317071 -0.266419
vt 0.400146 0.798584
vn 0.632439 0.432186 -0.642835
v -1.981097 1.285630 -0.266035
vt 0.232788 0.799438
vn 0.622528 0.460364 -0.632870
v -1.863227 1.310694 -0.391949
vt 0.439941 0.939301
vn 0.631373 0.435079 -0.641930
v -1.945256 1.282400 -0.389610
vt 0.290039 0.937805
vn 0.625517 0.452065 -0.635897
v -1.767146 1.343960 -0.393265
vt 0.615234 0.939331
vn 0.638098 0.414805 -0.648666
v -1.671920 1.373544 -0.396546
vt 0.787598 0.941925
vn 0.644564 0.394213 -0.655083
v -1.561172 1.426239 -0.180086
vt 0.997070 0.698242
vn 0.649846 0.375951 -0.660576
v -1.564321 1.430548 0.000000
vt 0.994141 0.497070
vn 0.649846 0.375951 -0.660576
v -1.558419 1.414859 -0.333375
vt 0.996094 0.869873
vn 0.647256 0.385166 -0.657805
v -1.556783 1.409973 -0.382459
vt 0.996094 0.924927
vn 0.647256 0.385166 -0.657805
v -1.790248 1.360029 0.137370
vt 0.584961 0.346680
vn 0.640931 0.405934 -0.651479
v -1.685482 1.391287 0.138573
vt 0.773926 0.343750
vn 0.647256 0.385166 -0.657805
v -1.999735 1.289279 0.137263
vt 0.203369 0.349121
vn 0.621352 0.463408 -0.631803
v -1.902843 1.322073 0.137262
vt 0.379883 0.348145
vn 0.635277 0.423500 -0.645811
v -1.782230 1.353694 0.266458
vt 0.594727 0.202148
vn 0.638098 0.414805 -0.648666
v -1.680379 1.384442 0.267895
vt 0.778320 0.199219
vn 0.647256 0.385166 -0.657805
v -1.981065 1.285634 0.266105
vt 0.231812 0.204590
vn 0.625478 0.466462 -0.625452
v -1.889331 1.317072 0.266417
vt 0.399170 0.203613
vn 0.632439 0.432186 -0.642835
v -1.945225 1.282405 0.389663
vt 0.288574 0.065430
vn 0.626660 0.463421 -0.626529
v -1.863214 1.310699 0.391939
vt 0.438477 0.062012
vn 0.635697 0.438039 -0.635619
v -1.671933 1.373538 0.396561
vt 0.786133 0.055176
vn 0.644564 0.394213 -0.655083
v -1.767082 1.343984 0.393250
vt 0.614258 0.060059
vn 0.638098 0.414805 -0.648666
v -1.561172 1.426239 0.180087
vt 0.996582 0.295898
vn 0.649846 0.375951 -0.660576
v -1.558419 1.414859 0.333375
vt 0.994629 0.124512
vn 0.647256 0.385166 -0.657805
v -1.556783 1.409973 0.382460
vt 0.994629 0.069336
vn 0.647256 0.385166 -0.657805
v -1.592959 1.392068 0.438204
vt 0.925781 0.007324
vn 0.644564 0.394213 -0.655083
v -1.567983 1.401699 0.421538
vt 0.972168 0.025391
vn 0.647256 0.385166 -0.657805
v -1.759829 1.339572 0.435387
vt 0.623535 0.012207
vn 0.638098 0.414805 -0.648666
v -1.649404 1.372277 0.444123
vt 0.822754 0.000977
vn 0.640931 0.405934 -0.651479
v -1.887954 1.298928 0.425250
vt 0.391602 0.024902
vn 0.635277 0.423500 -0.645811
v -1.941256 1.282324 0.412246
vt 0.295166 0.040039
vn 0.635277 0.423500 -0.645811
v -1.979281 1.271567 0.396591
vt 0.226929 0.058105
vn 0.644564 0.394213 -0.655083
v -2.018063 1.261600 0.366717
vt 0.158081 0.092285
vn 0.638098 0.414805 -0.648666
v -2.044686 1.258050 0.321519
vt 0.112549 0.143066
vn 0.635277 0.423500 -0.645811
v -2.079287 1.256729 0.219662
vt 0.055237 0.257812
vn 0.635277 0.423500 -0.645811
v -2.101699 1.256079 0.109438
vt 0.018311 0.381348
vn 0.635277 0.423500 -0.645811
v -2.109279 1.255804 0.000000
vt 0.005932 0.503662
vn 0.635277 0.423500 -0.645811
v -2.101699 1.256079 -0.109438
vt 0.018707 0.625732
vn 0.635277 0.423500 -0.645811
v -2.079287 1.256729 -0.219661
vt 0.056061 0.748779
vn 0.635277 0.423500 -0.645811
v -2.044686 1.258050 -0.321518
vt 0.113708 0.862549
vn 0.638098 0.414805 -0.648666
v -2.018063 1.261600 -0.366717
vt 0.159424 0.912903
vn 0.638098 0.414805 -0.648666
v -1.979281 1.271567 -0.396591
vt 0.228394 0.945953
vn 0.644564 0.394213 -0.655083
v -1.941256 1.282324 -0.412246
vt 0.296631 0.963074
vn 0.635277 0.423500 -0.645811
v -1.887954 1.298929 -0.425249
vt 0.393066 0.976959
vn 0.635277 0.423500 -0.645811
v -1.759829 1.339572 -0.435387
vt 0.625000 0.986801
vn 0.640931 0.405934 -0.651479
v -1.649404 1.372278 -0.444123
vt 0.824219 0.995502
vn 0.641833 0.403146 -0.652322
v -1.592959 1.392068 -0.438203
vt 0.927246 0.987946
vn 0.647256 0.385166 -0.657805
v -1.567983 1.401700 -0.421538
vt 0.973633 0.968948
vn 0.647256 0.385166 -0.657805
f 3/3/3 2/2/2 1/1/1
f 4/4/4 2/2/2 3/3/3
f 7/7/7 6/6/6 5/5/5
f 8/8/8 6/6/6 7/7/7
f 10/10/10 1/1/1 9/9/9
f 3/3/3 1/1/1 10/10/10
f 11/11/11 7/7/7 5/5/5
f 12/12/12 7/7/7 11/11/11
f 13/13/13 12/12/12 11/11/11
f 14/14/14 12/12/12 13/13/13
f 9/9/9 15/15/15 10/10/10
f 16/16/16 15/15/15 9/9/9
f 5/5/5 4/4/4 3/3/3
f 6/6/6 4/4/4 5/5/5
f 3/3/3 11/11/11 5/5/5
f 10/10/10 11/11/11 3/3/3
f 10/10/10 13/13/13 11/11/11
f 15/15/15 13/13/13 10/10/10
f 1/1/1 18/18/18 17/17/17
f 2/2/2 18/18/18 1/1/1
f 1/1/1 19/19/19 9/9/9
f 17/17/17 19/19/19 1/1/1
f 19/19/19 16/16/16 9/9/9
f 20/20/20 16/16/16 19/19/19
f 21/21/21 2/2/2 4/4/4
f 22/22/22 2/2/2 21/21/21
f 23/23/23 6/6/6 8/8/8
f 24/24/24 6/6/6 23/23/23
f 25/25/25 22/22/22 21/21/21
f 26/26/26 22/22/22 25/25/25
f 28/28/28 23/23/23 27/27/27
f 24/24/24 23/23/23 28/28/28
f 30/30/30 27/27/27 29/29/29
f 28/28/28 27/27/27 30/30/30
f 26/26/26 32/32/32 31/31/31
f 25/25/25 32/32/32 26/26/26
f 24/24/24 4/4/4 6/6/6
f 21/21/21 4/4/4 24/24/24
f 21/21/21 28/28/28 25/25/25
f 24/24/24 28/28/28 21/21/21
f 25/25/25 30/30/30 32/32/32
f 28/28/28 30/30/30 25/25/25
f 22/22/22 18/18/18 2/2/2
f 33/33/33 18/18/18 22/22/22
f 22/22/22 34/34/34 33/33/33
f 26/26/26 34/34/34 22/22/22
f 34/34/34 31/31/31 35/35/35
f 26/26/26 31/31/31 34/34/34
f 36/36/36 35/35/35 31/31/31
f 37/37/37 35/35/35 36/36/36
f 38/38/38 31/31/31 32/32/32
f 39/39/39 31/31/31 38/38/38
f 40/40/40 32/32/32 30/30/30
f 38/38/38 32/32/32 40/40/40
f 40/40/40 29/29/29 41/41/41
f 30/30/30 29/29/29 40/40/40
f 29/29/29 42/42/42 41/41/41
f 42/42/42 29/29/29 43/43/43
f 44/44/44 29/29/29 27/27/27
f 43/43/43 29/29/29 44/44/44
f 44/44/44 27/27/27 45/45/45
f 45/45/45 23/23/23 46/46/46
f 27/27/27 23/23/23 45/45/45
f 23/23/23 47/47/47 46/46/46
f 8/8/8 47/47/47 23/23/23
f 8/8/8 48/48/48 47/47/47
f 7/7/7 48/48/48 8/8/8
f 49/49/49 7/7/7 12/12/12
f 48/48/48 7/7/7 49/49/49
f 49/49/49 12/12/12 50/50/50
f 50/50/50 14/14/14 51/51/51
f 12/12/12 14/14/14 50/50/50
f 51/51/51 14/14/14 52/52/52
f 14/14/14 53/53/53 52/52/52
f 54/54/54 14/14/14 13/13/13
f 53/53/53 14/14/14 54/54/54
f 54/54/54 15/15/15 55/55/55
f 13/13/13 15/15/15 54/54/54
f 55/55/55 16/16/16 56/56/56
f 15/15/15 16/16/16 55/55/55
f 56/56/56 16/16/16 57/57/57
f 57/57/57 20/20/20 58/58/58
f 16/16/16 20/20/20 57/57/57
f 39/39/39 36/36/36 31/31/31
