# Exported from Godot Engine
mtllib Defrost_Front.mtl
o Defrost_Front
v 0.382800 1.316004 0.154099
vt 0.032776 0.388184
vn 0.912814 0.370552 -0.171644
v 0.389284 1.315672 0.000000
vt 0.040833 0.500732
vn 0.912814 0.370552 -0.171644
v 0.578389 1.242917 0.205858
vt 0.262451 0.351074
vn 0.908013 0.409271 -0.089492
v 0.585138 1.244801 0.000141
vt 0.270020 0.500732
vn 0.908013 0.409271 -0.089492
v 0.766891 1.157320 0.215092
vt 0.490479 0.344238
vn 0.897497 0.440731 -0.016015
v 0.774879 1.159356 0.000134
vt 0.499268 0.500732
vn 0.897497 0.440731 -0.016015
v 0.959096 1.058630 0.224525
vt 0.728027 0.336914
vn 0.894174 0.447077 0.023978
v 0.972706 1.058733 0.000129
vt 0.743652 0.500732
vn 0.894174 0.447077 0.023978
v 1.079786 0.992104 0.230058
vt 0.879883 0.333008
vn 0.892984 0.446481 0.056867
v 1.090852 0.994291 0.000126
vt 0.892090 0.500732
vn 0.893376 0.446656 0.048762
v 1.025448 0.968484 0.598297
vt 0.834473 0.062012
vn 0.892984 0.446481 0.056867
v 0.910356 1.036644 0.585122
vt 0.687500 0.072266
vn 0.893842 0.446911 0.036288
v 1.054081 0.983183 0.438275
vt 0.856934 0.180176
vn 0.892984 0.446481 0.056867
v 0.937497 1.049410 0.429129
vt 0.709473 0.187500
vn 0.894174 0.447077 0.023978
v 0.725403 1.138466 0.563447
vt 0.455078 0.088867
vn 0.895215 0.445617 -0.003961
v 0.748054 1.149614 0.413744
vt 0.473633 0.199219
vn 0.897497 0.440731 -0.016015
v 0.541191 1.227226 0.541824
vt 0.229858 0.104980
vn 0.908013 0.409271 -0.089492
v 0.561562 1.236470 0.398644
vt 0.247192 0.209961
vn 0.908013 0.409271 -0.089492
v 0.348713 1.301741 0.507645
vt 0.002365 0.128906
vn 0.911331 0.371794 -0.176764
v 0.367427 1.310391 0.358675
vt 0.018372 0.238281
vn 0.911331 0.371794 -0.176764
v 1.122283 0.940866 0.442215
vt 0.945312 0.176758
vn 0.892252 0.446137 0.069633
v 1.100712 0.938990 0.523513
vt 0.924316 0.116699
vn 0.893385 0.442606 0.077222
v 1.145098 0.942853 0.331516
vt 0.967773 0.258301
vn 0.891714 0.445868 0.077770
v 1.169802 0.945017 0.115504
vt 0.993164 0.416504
vn 0.892252 0.446137 0.069633
v 1.159628 0.944122 0.232482
vt 0.982422 0.330566
vn 0.892252 0.446137 0.069633
v 0.528646 1.214528 0.627387
vt 0.222290 0.041504
vn 0.902382 0.428554 -0.045253
v 0.708426 1.126402 0.649375
vt 0.443115 0.024902
vn 0.895215 0.445617 -0.003961
v 0.886679 1.026802 0.669744
vt 0.668457 0.009277
vn 0.894174 0.447077 0.023978
v 0.965180 0.979793 0.674460
vt 0.769043 0.004883
vn 0.893376 0.446656 0.048762
v 0.983691 0.969640 0.675046
vt 0.792480 0.004395
vn 0.893551 0.446765 0.044349
v 1.054381 0.937640 0.644927
vt 0.878418 0.026367
vn 0.891733 0.441770 0.098246
v 1.065234 0.936466 0.624623
vt 0.889648 0.041504
vn 0.890515 0.441107 0.111394
v 0.578383 1.242910 -0.205998
vt 0.266113 0.650879
vn 0.908013 0.409271 -0.089492
v 0.382800 1.316004 -0.154099
vt 0.035553 0.613525
vn 0.912814 0.370552 -0.171644
v 0.766884 1.157312 -0.215226
vt 0.494385 0.657471
vn 0.897497 0.440731 -0.016015
v 0.959088 1.058622 -0.224654
vt 0.732422 0.664551
vn 0.894174 0.447077 0.023978
v 1.079911 0.992026 -0.230128
vt 0.884277 0.668701
vn 0.892984 0.446481 0.056867
v 0.937497 1.049410 -0.429128
vt 0.717285 0.814087
vn 0.894174 0.447077 0.023978
v 0.910356 1.036644 -0.585122
vt 0.697754 0.929077
vn 0.893842 0.446911 0.036288
v 1.054081 0.983183 -0.438275
vt 0.864746 0.821289
vn 0.892984 0.446481 0.056867
v 1.025448 0.968485 -0.598296
vt 0.845215 0.939545
vn 0.892984 0.446481 0.056867
v 0.748054 1.149614 -0.413744
vt 0.480957 0.802490
vn 0.897497 0.440731 -0.016015
v 0.725403 1.138466 -0.563446
vt 0.465088 0.912476
vn 0.895215 0.445617 -0.003961
v 0.561562 1.236470 -0.398643
vt 0.254150 0.791504
vn 0.908013 0.409271 -0.089492
v 0.541191 1.227226 -0.541824
vt 0.239502 0.896545
vn 0.908013 0.409271 -0.089492
v 0.367427 1.310391 -0.358675
vt 0.024796 0.763306
vn 0.914388 0.362117 -0.181014
v 0.348713 1.301741 -0.507645
vt 0.011467 0.872681
vn 0.914388 0.362117 -0.181014
v 1.145098 0.942853 -0.331516
vt 0.973633 0.743408
vn 0.891714 0.445868 0.077770
v 1.159628 0.944122 -0.232482
vt 0.986816 0.670898
vn 0.892252 0.446137 0.069633
v 1.169802 0.945017 -0.115504
vt 0.995117 0.585205
vn 0.892252 0.446137 0.069633
v 1.173144 0.945312 0.000000
vt 0.997559 0.500732
vn 0.892252 0.446137 0.069633
v 0.708426 1.126403 -0.649375
vt 0.454834 0.976456
vn 0.895215 0.445617 -0.003961
v 0.528646 1.214529 -0.627386
vt 0.233521 0.960114
vn 0.902382 0.428554 -0.045253
v 0.886679 1.026802 -0.669744
vt 0.680176 0.992401
vn 0.894174 0.447077 0.023978
v 0.965180 0.979793 -0.674459
vt 0.781250 0.996641
vn 0.893376 0.446656 0.048762
v 1.065234 0.936466 -0.624623
vt 0.900879 0.959839
vn 0.886725 0.447489 0.116072
v 1.082194 0.937380 -0.581354
vt 0.916504 0.927612
vn 0.889801 0.448986 0.081648
v 1.100712 0.938990 -0.523513
vt 0.933594 0.884766
vn 0.889801 0.448986 0.081648
v 0.369760 1.283772 0.583990
vt 0.031097 0.072754
vn 0.910359 0.388923 -0.141372
v 0.389523 1.274178 0.600092
vt 0.055237 0.061035
vn 0.912150 0.382669 -0.146790
v 0.448889 1.248856 -0.617513
vt 0.137329 0.953003
vn 0.910132 0.398714 -0.112639
v 0.419584 1.261094 -0.611938
vt 0.102295 0.949005
vn 0.911471 0.389368 -0.132713
v 0.389523 1.274178 -0.600092
vt 0.065979 0.940430
vn 0.913625 0.379598 -0.145582
v 0.419584 1.261094 0.611938
vt 0.091309 0.052734
vn 0.911471 0.389368 -0.132713
v 0.448889 1.248856 0.617513
vt 0.126343 0.048340
vn 0.910132 0.398714 -0.112639
v 0.369760 1.283773 -0.583989
vt 0.041565 0.928711
vn 0.913625 0.379598 -0.145582
v 0.356630 1.291420 -0.563677
vt 0.024689 0.913879
vn 0.913625 0.379598 -0.145582
v 0.349369 1.297406 0.539135
vt 0.004745 0.105469
vn 0.910359 0.388923 -0.141372
v 0.356630 1.291419 0.563677
vt 0.014572 0.087891
vn 0.910359 0.388923 -0.141372
v 0.349369 1.297407 -0.539135
vt 0.014412 0.895874
vn 0.913625 0.379598 -0.145582
v 1.054381 0.937640 -0.644926
vt 0.890137 0.974915
vn 0.888033 0.448134 0.102828
v 1.047692 0.939174 -0.654385
vt 0.882812 0.981934
vn 0.888033 0.448134 0.102828
v 1.082194 0.937379 0.581354
vt 0.906250 0.073730
vn 0.893385 0.442606 0.077222
v 1.039591 0.941846 0.662933
vt 0.861328 0.013184
vn 0.892430 0.442096 0.090106
v 1.047692 0.939174 0.654386
vt 0.871094 0.019531
vn 0.891733 0.441770 0.098246
v 1.039591 0.941846 -0.662933
vt 0.873535 0.988243
vn 0.888761 0.448477 0.094721
v 1.029436 0.946133 -0.669553
vt 0.861328 0.993099
vn 0.890370 0.449250 0.073599
v 1.016665 0.952330 0.673452
vt 0.833496 0.005371
vn 0.893551 0.446765 0.044349
v 1.029436 0.946133 0.669553
vt 0.849121 0.008301
vn 0.893910 0.442889 0.069099
v 1.016665 0.952330 -0.673452
vt 0.845703 0.995949
vn 0.893551 0.446765 0.044349
v 1.001189 0.960389 -0.674744
vt 0.826660 0.996887
vn 0.893842 0.446911 0.036288
v 1.001189 0.960389 0.674744
vt 0.814453 0.004395
vn 0.893842 0.446911 0.036288
v 0.983691 0.969640 -0.675045
vt 0.804688 0.997107
vn 0.893551 0.446765 0.044349
v 1.122283 0.940866 -0.442214
vt 0.953125 0.824829
vn 0.892252 0.446137 0.069633
usemtl Defrost_F
f 3/3/3 2/2/2 1/1/1
f 4/4/4 2/2/2 3/3/3
f 6/6/6 3/3/3 5/5/5
f 4/4/4 3/3/3 6/6/6
f 8/8/8 5/5/5 7/7/7
f 6/6/6 5/5/5 8/8/8
f 10/10/10 7/7/7 9/9/9
f 8/8/8 7/7/7 10/10/10
f 13/13/13 12/12/12 11/11/11
f 14/14/14 12/12/12 13/13/13
f 14/14/14 15/15/15 12/12/12
f 16/16/16 15/15/15 14/14/14
f 16/16/16 17/17/17 15/15/15
f 18/18/18 17/17/17 16/16/16
f 17/17/17 20/20/20 19/19/19
f 18/18/18 20/20/20 17/17/17
f 9/9/9 14/14/14 13/13/13
f 7/7/7 14/14/14 9/9/9
f 7/7/7 16/16/16 14/14/14
f 5/5/5 16/16/16 7/7/7
f 5/5/5 18/18/18 16/16/16
f 3/3/3 18/18/18 5/5/5
f 18/18/18 1/1/1 20/20/20
f 3/3/3 1/1/1 18/18/18
f 22/22/22 21/21/21 13/13/13
f 9/9/9 21/21/21 23/23/23
f 13/13/13 21/21/21 9/9/9
f 9/9/9 25/25/25 24/24/24
f 26/26/26 15/15/15 17/17/17
f 27/27/27 15/15/15 26/26/26
f 27/27/27 12/12/12 15/15/15
f 28/28/28 12/12/12 27/27/27
f 29/29/29 11/11/11 12/12/12
f 30/30/30 11/11/11 29/29/29
f 32/32/32 11/11/11 31/31/31
f 33/33/33 2/2/2 4/4/4
f 34/34/34 2/2/2 33/33/33
f 6/6/6 33/33/33 4/4/4
f 35/35/35 33/33/33 6/6/6
f 8/8/8 35/35/35 6/6/6
f 36/36/36 35/35/35 8/8/8
f 10/10/10 36/36/36 8/8/8
f 37/37/37 36/36/36 10/10/10
f 40/40/40 39/39/39 38/38/38
f 41/41/41 39/39/39 40/40/40
f 38/38/38 43/43/43 42/42/42
f 39/39/39 43/43/43 38/38/38
f 42/42/42 45/45/45 44/44/44
f 43/43/43 45/45/45 42/42/42
f 45/45/45 46/46/46 44/44/44
f 47/47/47 46/46/46 45/45/45
f 37/37/37 38/38/38 36/36/36
f 40/40/40 38/38/38 37/37/37
f 36/36/36 42/42/42 35/35/35
f 38/38/38 42/42/42 36/36/36
f 35/35/35 44/44/44 33/33/33
f 42/42/42 44/44/44 35/35/35
f 44/44/44 34/34/34 33/33/33
f 46/46/46 34/34/34 44/44/44
f 49/49/49 48/48/48 37/37/37
f 10/10/10 50/50/50 37/37/37
f 51/51/51 50/50/50 10/10/10
f 53/53/53 43/43/43 52/52/52
f 45/45/45 43/43/43 53/53/53
f 52/52/52 39/39/39 54/54/54
f 43/43/43 39/39/39 52/52/52
f 54/54/54 39/39/39 55/55/55
f 41/41/41 57/57/57 56/56/56
f 57/57/57 40/40/40 58/58/58
f 41/41/41 40/40/40 57/57/57
f 60/60/60 17/17/17 59/59/59
f 61/61/61 45/45/45 53/53/53
f 63/63/63 45/45/45 62/62/62
f 65/65/65 17/17/17 64/64/64
f 67/67/67 45/45/45 66/66/66
f 66/66/66 45/45/45 63/63/63
f 64/64/64 17/17/17 60/60/60
f 69/69/69 17/17/17 68/68/68
f 47/47/47 45/45/45 70/70/70
f 70/70/70 45/45/45 67/67/67
f 59/59/59 17/17/17 69/69/69
f 68/68/68 17/17/17 19/19/19
f 62/62/62 45/45/45 61/61/61
f 26/26/26 17/17/17 65/65/65
f 72/72/72 41/41/41 71/71/71
f 71/71/71 41/41/41 56/56/56
f 73/73/73 11/11/11 32/32/32
f 75/75/75 11/11/11 74/74/74
f 77/77/77 41/41/41 76/76/76
f 76/76/76 41/41/41 72/72/72
f 31/31/31 11/11/11 75/75/75
f 79/79/79 11/11/11 78/78/78
f 81/81/81 41/41/41 80/80/80
f 80/80/80 41/41/41 77/77/77
f 74/74/74 11/11/11 79/79/79
f 11/11/11 82/82/82 78/78/78
f 83/83/83 41/41/41 81/81/81
f 28/28/28 29/29/29 12/12/12
f 55/55/55 41/41/41 83/83/83
f 39/39/39 41/41/41 55/55/55
f 82/82/82 11/11/11 30/30/30
f 40/40/40 84/84/84 58/58/58
f 11/11/11 22/22/22 13/13/13
f 73/73/73 22/22/22 11/11/11
f 37/37/37 84/84/84 40/40/40
f 48/48/48 84/84/84 37/37/37
f 25/25/25 9/9/9 23/23/23
f 50/50/50 49/49/49 37/37/37
f 51/51/51 9/9/9 24/24/24
f 10/10/10 9/9/9 51/51/51
