# Exported from Godot Engine
mtllib Defrost_Rear.mtl
o Defrost_Rear
v -1.742985 1.187227 -0.394883
vt 0.146118 0.873169
vn 0.629660 0.455071 -0.629634
v -1.774529 1.169785 -0.425268
vt 0.109192 0.902283
vn 0.625478 0.466462 -0.625452
v -1.752132 1.175608 -0.439190
vt 0.133301 0.915466
vn 0.629660 0.455071 -0.629634
v -1.365395 1.335275 0.000000
vt 0.566895 0.500488
vn 0.663001 0.347795 -0.662924
v -1.571464 1.274570 0.000000
vt 0.343262 0.500488
vn 0.649074 0.396955 -0.648945
v -1.366109 1.331855 -0.156655
vt 0.565430 0.647705
vn 0.663001 0.347795 -0.662924
v -1.570726 1.271475 -0.149756
vt 0.343262 0.641357
vn 0.649074 0.396955 -0.648945
v -1.169419 1.380213 0.000000
vt 0.776367 0.500488
vn 0.682028 0.264027 -0.682003
v -1.168725 1.377247 -0.160012
vt 0.776367 0.650879
vn 0.682028 0.264027 -0.682003
v -0.961102 1.413545 0.000000
vt 0.996582 0.500488
vn 0.695830 0.178161 -0.695758
v -0.961645 1.410481 -0.163869
vt 0.995117 0.655029
vn 0.695830 0.178161 -0.695758
v -1.679717 1.238203 0.000000
vt 0.224487 0.500732
vn 0.636708 0.435091 -0.636630
v -1.744516 1.215312 0.000000
vt 0.152832 0.500732
vn 0.632694 0.446648 -0.632616
v -1.676851 1.235831 -0.146948
vt 0.226685 0.638916
vn 0.636708 0.435091 -0.636630
v -1.743888 1.212147 -0.144887
vt 0.152588 0.636963
vn 0.629660 0.455071 -0.629634
v -1.801491 1.194503 0.000000
vt 0.089844 0.500732
vn 0.629660 0.455071 -0.629634
v -1.800099 1.191642 -0.143152
vt 0.090393 0.635498
vn 0.626660 0.463421 -0.626529
v -1.168573 1.366929 -0.322220
vt 0.773926 0.803589
vn 0.682028 0.264027 -0.682003
v -1.168027 1.354367 -0.431855
vt 0.771484 0.907227
vn 0.677939 0.284310 -0.677914
v -0.960846 1.400828 -0.328920
vt 0.993164 0.810913
vn 0.695830 0.178161 -0.695758
v -0.960361 1.388910 -0.441646
vt 0.990723 0.917542
vn 0.696843 0.210181 -0.685736
v -1.366843 1.320728 -0.315334
vt 0.562012 0.796997
vn 0.663001 0.347795 -0.662924
v -1.367320 1.307366 -0.420825
vt 0.557617 0.896729
vn 0.660462 0.357324 -0.660386
v -1.570110 1.260224 -0.304940
vt 0.340820 0.787476
vn 0.646288 0.405945 -0.646158
v -1.569853 1.246809 -0.406507
vt 0.337158 0.883545
vn 0.645383 0.408732 -0.645305
v -1.673844 1.225185 -0.300414
vt 0.226685 0.783447
vn 0.635697 0.438039 -0.635619
v -1.743287 1.200556 -0.296857
vt 0.149780 0.780273
vn 0.629660 0.455071 -0.629634
v -1.671915 1.212283 -0.400140
vt 0.224731 0.877808
vn 0.632694 0.446648 -0.632616
v -1.798599 1.180365 -0.293875
vt 0.088501 0.777710
vn 0.626660 0.463421 -0.626529
v -1.797817 1.167737 -0.387885
vt 0.085510 0.866699
vn 0.621352 0.463408 -0.631803
v -1.810702 1.163106 -0.385864
vt 0.071350 0.864990
vn 0.618325 0.471625 -0.628684
v -1.794315 1.165581 -0.407547
vt 0.088257 0.885315
vn 0.625478 0.466462 -0.625452
v -1.823032 1.161702 -0.361921
vt 0.058441 0.842407
vn 0.618325 0.471625 -0.628684
v -1.850816 1.163451 -0.257784
vt 0.031235 0.744141
vn 0.625478 0.466462 -0.625452
v -1.845707 1.163306 -0.284255
vt 0.036377 0.769043
vn 0.622387 0.474727 -0.622309
v -1.874825 1.166992 0.000000
vt 0.008430 0.500732
vn 0.625478 0.466462 -0.625452
v -1.873687 1.165691 -0.070931
vt 0.009117 0.567627
vn 0.625478 0.466462 -0.625452
v -1.601589 1.221747 -0.472621
vt 0.297852 0.947052
vn 0.636708 0.435091 -0.636630
v -1.652524 1.205433 -0.465741
vt 0.241943 0.940613
vn 0.635697 0.438039 -0.635619
v -1.494428 1.254085 -0.483626
vt 0.415039 0.957367
vn 0.646288 0.405945 -0.646158
v -1.278446 1.312415 -0.502231
vt 0.648926 0.974777
vn 0.666088 0.335792 -0.666011
v -1.387053 1.285923 -0.493427
vt 0.532227 0.966400
vn 0.655269 0.375961 -0.655191
v -1.024379 1.363062 -0.520807
vt 0.919922 0.992886
vn 0.686183 0.241533 -0.686159
v -1.153280 1.340982 -0.514097
vt 0.783203 0.985947
vn 0.682028 0.264027 -0.682003
v -1.688405 1.194107 -0.459732
vt 0.202515 0.934937
vn 0.635697 0.438039 -0.635619
v -1.703317 1.189416 -0.457217
vt 0.186157 0.932617
vn 0.635697 0.438039 -0.635619
v -0.963426 1.373663 -0.524603
vt 0.984375 0.996698
vn 0.684003 0.253736 -0.683929
v -1.728239 1.182241 -0.449817
vt 0.159180 0.925537
vn 0.629660 0.455071 -0.629634
v -1.839678 1.162446 -0.310654
vt 0.042114 0.793945
vn 0.622387 0.474727 -0.622309
v -1.832299 1.161659 -0.336678
vt 0.049103 0.818481
vn 0.622387 0.474727 -0.622309
v -1.864396 1.164718 -0.176640
vt 0.018112 0.667480
vn 0.622387 0.474727 -0.622309
v -1.752132 1.175607 0.439190
vt 0.132690 0.085938
vn 0.629660 0.455071 -0.629634
v -1.774529 1.169785 0.425268
vt 0.108704 0.099121
vn 0.625478 0.466462 -0.625452
v -1.742985 1.187227 0.394883
vt 0.145630 0.128418
vn 0.629660 0.455071 -0.629634
v -1.570726 1.271475 0.149757
vt 0.343262 0.359863
vn 0.649074 0.396955 -0.648945
v -1.366109 1.331855 0.156656
vt 0.565430 0.353516
vn 0.663001 0.347795 -0.662924
v -1.168725 1.377247 0.160013
vt 0.776367 0.350098
vn 0.682028 0.264027 -0.682003
v -0.961645 1.410481 0.163870
vt 0.994629 0.345703
vn 0.695830 0.178161 -0.695758
v -1.743888 1.212147 0.144887
vt 0.152466 0.364258
vn 0.629660 0.455071 -0.629634
v -1.676851 1.235831 0.146949
vt 0.226562 0.362793
vn 0.636708 0.435091 -0.636630
v -1.800099 1.191642 0.143152
vt 0.090271 0.366211
vn 0.626660 0.463421 -0.626529
v -0.960361 1.388910 0.441647
vt 0.990723 0.083496
vn 0.687631 0.198027 -0.698533
v -1.168027 1.354367 0.431856
vt 0.770996 0.093750
vn 0.677939 0.284310 -0.677914
v -0.960846 1.400828 0.328921
vt 0.993164 0.189941
vn 0.695830 0.178161 -0.695758
v -1.168573 1.366929 0.322221
vt 0.773438 0.197266
vn 0.682028 0.264027 -0.682003
v -1.367320 1.307366 0.420825
vt 0.557617 0.104004
vn 0.657863 0.366695 -0.657838
v -1.366843 1.320728 0.315335
vt 0.561523 0.204102
vn 0.663001 0.347795 -0.662924
v -1.569853 1.246809 0.406507
vt 0.336914 0.117676
vn 0.645383 0.408732 -0.645305
v -1.570110 1.260224 0.304940
vt 0.340576 0.213867
vn 0.646288 0.405945 -0.646158
v -1.743287 1.200556 0.296857
vt 0.149536 0.221191
vn 0.629660 0.455071 -0.629634
v -1.671915 1.212283 0.400141
vt 0.224365 0.123535
vn 0.632694 0.446648 -0.632616
v -1.673844 1.225185 0.300414
vt 0.226440 0.217773
vn 0.635697 0.438039 -0.635619
v -1.797817 1.167737 0.387885
vt 0.085083 0.134766
vn 0.625478 0.466462 -0.625452
v -1.798599 1.180365 0.293876
vt 0.088257 0.223633
vn 0.625478 0.466462 -0.625452
v -1.794315 1.165580 0.407547
vt 0.087769 0.116211
vn 0.625478 0.466462 -0.625452
v -1.810702 1.163106 0.385865
vt 0.070923 0.136719
vn 0.624509 0.482788 -0.613925
v -1.823032 1.161702 0.361922
vt 0.058044 0.159180
vn 0.622387 0.474727 -0.622309
v -1.845707 1.163306 0.284255
vt 0.036072 0.232422
vn 0.622387 0.474727 -0.622309
v -1.850816 1.163450 0.257784
vt 0.030975 0.257324
vn 0.625478 0.466462 -0.625452
v -1.873687 1.165691 0.070931
vt 0.009056 0.434082
vn 0.625478 0.466462 -0.625452
v -1.652523 1.205433 0.465741
vt 0.241333 0.060547
vn 0.635697 0.438039 -0.635619
v -1.601589 1.221746 0.472621
vt 0.297363 0.054199
vn 0.636708 0.435091 -0.636630
v -1.494428 1.254085 0.483627
vt 0.414551 0.043945
vn 0.646288 0.405945 -0.646158
v -1.387053 1.285923 0.493428
vt 0.531738 0.034668
vn 0.655269 0.375961 -0.655191
v -1.278446 1.312415 0.502232
vt 0.648926 0.026367
vn 0.666088 0.335792 -0.666011
v -1.153280 1.340982 0.514098
vt 0.783203 0.015137
vn 0.682028 0.264027 -0.682003
v -1.024379 1.363062 0.520808
vt 0.919922 0.007812
vn 0.686183 0.241533 -0.686159
v -1.703317 1.189416 0.457217
vt 0.185669 0.068848
vn 0.635697 0.438039 -0.635619
v -1.688405 1.194107 0.459733
vt 0.202026 0.066406
vn 0.635697 0.438039 -0.635619
v -0.963426 1.373663 0.524603
vt 0.984375 0.004395
vn 0.684003 0.253736 -0.683929
v -1.728239 1.182241 0.449818
vt 0.158569 0.075684
vn 0.629660 0.455071 -0.629634
v -1.832299 1.161659 0.336679
vt 0.048737 0.183105
vn 0.622387 0.474727 -0.622309
v -1.839678 1.162446 0.310654
vt 0.041809 0.207520
vn 0.622387 0.474727 -0.622309
v -1.864396 1.164718 0.176641
vt 0.017944 0.334473
vn 0.622387 0.474727 -0.622309
usemtl Defrost_R.001
f 3/3/3 2/2/2 1/1/1
f 6/6/6 5/5/5 4/4/4
f 7/7/7 5/5/5 6/6/6
f 8/8/8 6/6/6 4/4/4
f 9/9/9 6/6/6 8/8/8
f 10/10/10 9/9/9 8/8/8
f 11/11/11 9/9/9 10/10/10
f 14/14/14 13/13/13 12/12/12
f 15/15/15 13/13/13 14/14/14
f 13/13/13 17/17/17 16/16/16
f 15/15/15 17/17/17 13/13/13
f 20/20/20 19/19/19 18/18/18
f 21/21/21 19/19/19 20/20/20
f 18/18/18 23/23/23 22/22/22
f 19/19/19 23/23/23 18/18/18
f 23/23/23 24/24/24 22/22/22
f 25/25/25 24/24/24 23/23/23
f 28/28/28 27/27/27 26/26/26
f 1/1/1 27/27/27 28/28/28
f 27/27/27 30/30/30 29/29/29
f 1/1/1 30/30/30 27/27/27
f 11/11/11 18/18/18 9/9/9
f 20/20/20 18/18/18 11/11/11
f 9/9/9 22/22/22 6/6/6
f 18/18/18 22/22/22 9/9/9
f 22/22/22 7/7/7 6/6/6
f 24/24/24 7/7/7 22/22/22
f 26/26/26 15/15/15 14/14/14
f 27/27/27 15/15/15 26/26/26
f 15/15/15 29/29/29 17/17/17
f 27/27/27 29/29/29 15/15/15
f 25/25/25 26/26/26 24/24/24
f 28/28/28 26/26/26 25/25/25
f 24/24/24 14/14/14 7/7/7
f 26/26/26 14/14/14 24/24/24
f 7/7/7 12/12/12 5/5/5
f 14/14/14 12/12/12 7/7/7
f 30/30/30 32/32/32 31/31/31
f 30/30/30 33/33/33 29/29/29
f 31/31/31 33/33/33 30/30/30
f 29/29/29 34/34/34 17/17/17
f 35/35/35 34/34/34 29/29/29
f 17/17/17 36/36/36 16/16/16
f 37/37/37 36/36/36 17/17/17
f 38/38/38 28/28/28 25/25/25
f 39/39/39 28/28/28 38/38/38
f 38/38/38 25/25/25 40/40/40
f 42/42/42 19/19/19 41/41/41
f 23/23/23 19/19/19 42/42/42
f 44/44/44 21/21/21 43/43/43
f 19/19/19 21/21/21 44/44/44
f 46/46/46 28/28/28 45/45/45
f 43/43/43 21/21/21 47/47/47
f 41/41/41 19/19/19 44/44/44
f 40/40/40 23/23/23 42/42/42
f 25/25/25 23/23/23 40/40/40
f 45/45/45 28/28/28 39/39/39
f 3/3/3 28/28/28 48/48/48
f 1/1/1 28/28/28 3/3/3
f 48/48/48 28/28/28 46/46/46
f 32/32/32 30/30/30 1/1/1
f 2/2/2 32/32/32 1/1/1
f 50/50/50 49/49/49 29/29/29
f 33/33/33 50/50/50 29/29/29
f 49/49/49 35/35/35 29/29/29
f 51/51/51 37/37/37 17/17/17
f 34/34/34 51/51/51 17/17/17
f 54/54/54 53/53/53 52/52/52
f 56/56/56 5/5/5 55/55/55
f 4/4/4 5/5/5 56/56/56
f 8/8/8 56/56/56 57/57/57
f 4/4/4 56/56/56 8/8/8
f 10/10/10 57/57/57 58/58/58
f 8/8/8 57/57/57 10/10/10
f 60/60/60 13/13/13 59/59/59
f 12/12/12 13/13/13 60/60/60
f 13/13/13 61/61/61 59/59/59
f 16/16/16 61/61/61 13/13/13
f 64/64/64 63/63/63 62/62/62
f 65/65/65 63/63/63 64/64/64
f 65/65/65 66/66/66 63/63/63
f 67/67/67 66/66/66 65/65/65
f 66/66/66 69/69/69 68/68/68
f 67/67/67 69/69/69 66/66/66
f 71/71/71 70/70/70 54/54/54
f 72/72/72 70/70/70 71/71/71
f 70/70/70 73/73/73 54/54/54
f 74/74/74 73/73/73 70/70/70
f 58/58/58 65/65/65 64/64/64
f 57/57/57 65/65/65 58/58/58
f 57/57/57 67/67/67 65/65/65
f 56/56/56 67/67/67 57/57/57
f 67/67/67 55/55/55 69/69/69
f 56/56/56 55/55/55 67/67/67
f 72/72/72 59/59/59 70/70/70
f 60/60/60 59/59/59 72/72/72
f 59/59/59 74/74/74 70/70/70
f 61/61/61 74/74/74 59/59/59
f 68/68/68 72/72/72 71/71/71
f 69/69/69 72/72/72 68/68/68
f 69/69/69 60/60/60 72/72/72
f 55/55/55 60/60/60 69/69/69
f 55/55/55 12/12/12 60/60/60
f 5/5/5 12/12/12 55/55/55
f 76/76/76 75/75/75 73/73/73
f 73/73/73 77/77/77 76/76/76
f 74/74/74 77/77/77 73/73/73
f 74/74/74 79/79/79 78/78/78
f 61/61/61 79/79/79 74/74/74
f 61/61/61 36/36/36 80/80/80
f 16/16/16 36/36/36 61/61/61
f 82/82/82 71/71/71 81/81/81
f 68/68/68 71/71/71 82/82/82
f 83/83/83 68/68/68 82/82/82
f 84/84/84 63/63/63 66/66/66
f 85/85/85 63/63/63 84/84/84
f 86/86/86 62/62/62 63/63/63
f 87/87/87 62/62/62 86/86/86
f 89/89/89 71/71/71 88/88/88
f 90/90/90 62/62/62 87/87/87
f 86/86/86 63/63/63 85/85/85
f 83/83/83 66/66/66 68/68/68
f 84/84/84 66/66/66 83/83/83
f 81/81/81 71/71/71 89/89/89
f 52/52/52 71/71/71 54/54/54
f 91/91/91 71/71/71 52/52/52
f 88/88/88 71/71/71 91/91/91
f 54/54/54 73/73/73 75/75/75
f 54/54/54 75/75/75 53/53/53
f 74/74/74 93/93/93 92/92/92
f 74/74/74 92/92/92 77/77/77
f 74/74/74 78/78/78 93/93/93
f 61/61/61 80/80/80 94/94/94
f 61/61/61 94/94/94 79/79/79
