# Exported from Godot Engine
mtllib Charging_Animation_Geo_CCS2_V2.mtl
o Charging_Animation_Geo_CCS2_V2
v 0.000000 0.764646 0.582904
vt -0.012817 0.459961
vn -0.000020 0.893635 0.448794
v 0.000000 0.784317 0.616803
vt -0.002123 0.459961
vn -0.000021 0.878361 0.477998
v 0.008348 0.767623 0.581167
vt -0.012817 0.457031
vn 0.067593 0.924242 0.375778
v 0.008336 0.787382 0.615285
vt -0.002123 0.457031
vn 0.062463 0.909895 0.410110
v 0.000000 0.744378 0.557910
vt -0.022644 0.459961
vn -0.000020 0.921070 0.389397
v 0.008347 0.746923 0.555672
vt -0.022644 0.457031
vn 0.064258 0.945991 0.317762
v 0.000000 0.723475 0.538402
vt -0.031891 0.459961
vn -0.000019 0.942782 0.333410
v 0.008347 0.725839 0.535938
vt -0.031891 0.457031
vn 0.062051 0.962090 0.265580
v 0.000000 0.701067 0.522440
vt -0.040771 0.459961
vn -0.000019 0.959253 0.282548
v 0.008347 0.703156 0.519724
vt -0.040771 0.457031
vn 0.047567 0.971771 0.231080
v 0.000000 0.682014 0.511187
vt -0.049561 0.459961
vn -0.000018 0.972133 0.234431
v 0.008346 0.683674 0.508228
vt -0.049561 0.457031
vn 0.034243 0.979468 0.198669
v 0.000000 0.659694 0.501002
vt -0.058380 0.459961
vn -0.000018 0.981637 0.190760
v 0.008344 0.661379 0.498015
vt -0.058380 0.457031
vn 0.020648 0.984843 0.172212
v 0.000000 0.639877 0.493010
vt -0.067383 0.459961
vn -0.000017 0.987416 0.158145
v 0.008343 0.641395 0.489922
vt -0.067383 0.457031
vn -0.000017 0.987879 0.155224
v 0.000000 0.618633 0.485717
vt -0.076660 0.459961
vn -0.000017 0.991720 0.128416
v 0.008342 0.619920 0.482516
vt -0.076660 0.457031
vn -0.007099 0.991811 0.127519
v 0.000000 0.594708 0.478266
vt -0.086243 0.459961
vn -0.000017 0.994487 0.104862
v 0.008340 0.595831 0.474977
vt -0.086243 0.457031
vn -0.021398 0.994413 0.103371
v 0.000000 0.570354 0.471555
vt -0.096130 0.459961
vn -0.000016 0.996698 0.081204
v 0.008340 0.571177 0.468152
vt -0.096130 0.457031
vn -0.028595 0.996213 0.082104
v 0.000000 0.522581 0.460711
vt -0.116821 0.459961
vn -0.000016 0.997515 0.070449
v 0.008338 0.523525 0.457203
vt -0.116821 0.457031
vn -0.036016 0.997009 0.068385
v 0.000000 0.473198 0.448895
vt -0.138428 0.459961
vn -0.000016 0.997979 0.063545
v 0.008337 0.474207 0.445244
vt -0.138428 0.457031
vn -0.050047 0.996899 0.060729
v 0.000000 0.427050 0.435856
vt -0.160400 0.459961
vn -0.000016 0.997979 0.063545
v 0.008336 0.427954 0.432216
vt -0.160400 0.457031
vn -0.056962 0.996319 0.064055
v 0.000000 0.378727 0.421815
vt -0.182373 0.459961
vn -0.000016 0.997752 0.067022
v 0.008335 0.379630 0.418239
vt -0.182373 0.457031
vn -0.056733 0.996114 0.067365
v 0.000000 0.330401 0.407830
vt -0.203735 0.459961
vn -0.000016 0.996746 0.080603
v 0.008333 0.331322 0.404343
vt -0.203735 0.457031
vn -0.049466 0.995751 0.077669
v 0.000000 0.282221 0.392960
vt -0.223999 0.459961
vn -0.000017 0.995143 0.098438
v 0.008332 0.283248 0.389593
vt -0.223999 0.457031
vn -0.035284 0.994486 0.098758
v 0.000000 0.236392 0.377579
vt -0.242798 0.459961
vn -0.000017 0.992976 0.118312
v 0.008332 0.237407 0.374112
vt -0.242798 0.457031
vn -0.028082 0.992878 0.115782
v 0.000000 0.213447 0.369286
vt -0.251465 0.459961
vn -0.000017 0.989952 0.141407
v 0.008333 0.214470 0.365996
vt -0.251465 0.457031
vn -0.014058 0.989992 0.140424
v 0.000000 0.191807 0.360881
vt -0.260010 0.459961
vn -0.000017 0.987879 0.155224
v 0.008333 0.192952 0.357632
vt -0.260010 0.457031
vn -0.007032 0.988021 0.154157
v 0.000000 0.171448 0.352632
vt -0.268066 0.459961
vn -0.000018 0.985134 0.171789
v 0.008333 0.172718 0.349432
vt -0.268066 0.457031
vn -0.000018 0.985134 0.171789
v 0.000000 0.152244 0.344204
vt -0.275635 0.459961
vn -0.000018 0.982152 0.188088
v 0.008333 0.153643 0.341061
vt -0.275635 0.457031
vn -0.000018 0.982152 0.188088
v 0.000000 0.134558 0.335261
vt -0.282715 0.459961
vn -0.000018 0.978954 0.204080
v 0.008332 0.136093 0.332184
vt -0.282715 0.457031
vn -0.000018 0.978107 0.208104
v 0.000000 0.118390 0.325841
vt -0.289795 0.459961
vn -0.000018 0.975195 0.221346
v 0.008332 0.120064 0.322839
vt -0.289795 0.457031
vn -0.000018 0.974621 0.223863
v 0.000000 0.102751 0.316229
vt -0.296143 0.459961
vn -0.000019 0.970141 0.242540
v 0.008332 0.104570 0.313316
vt -0.296143 0.457031
vn -0.000019 0.970141 0.242540
v 0.000000 0.089344 0.306573
vt -0.302246 0.459961
vn -0.000019 0.962314 0.271941
v 0.008329 0.091317 0.303769
vt -0.302246 0.457031
vn -0.000019 0.961653 0.274270
v 0.000000 0.065383 0.285467
vt -0.313721 0.459961
vn -0.000019 0.951477 0.307718
v 0.008325 0.067664 0.282920
vt -0.313721 0.457031
vn -0.014163 0.951383 0.307685
v 0.000035 0.046987 0.263091
vt -0.323730 0.459961
vn -0.000020 0.933152 0.359481
v 0.008358 0.049616 0.260921
vt -0.323730 0.457031
vn -0.036564 0.935706 0.350882
v 0.001391 0.019883 0.198520
vt -0.348633 0.459961
vn -0.037277 0.828602 0.558596
v 0.009699 0.023407 0.197656
vt -0.348633 0.457031
vn -0.009289 0.824800 0.565348
v 0.003404 0.012194 0.153714
vt -0.364502 0.459961
vn -0.069160 0.809776 0.582649
v 0.011668 0.015776 0.153911
vt -0.364502 0.457031
vn -0.059358 0.806222 0.588629
v 0.006727 0.007448 0.104995
vt -0.382812 0.459961
vn -0.093074 0.790912 0.604810
v 0.014931 0.011129 0.105665
vt -0.382812 0.457031
vn -0.093074 0.790912 0.604810
v 0.011668 0.004338 0.047290
vt -0.403809 0.459961
vn -0.117073 0.782200 0.611929
v 0.019813 0.008067 0.048654
vt -0.403809 0.457031
vn -0.117073 0.782200 0.611929
v 0.018348 0.002232 -0.018102
vt -0.427734 0.459961
vn -0.140073 0.780989 0.608634
v 0.026445 0.005979 -0.016282
vt -0.427734 0.457031
vn -0.140073 0.780989 0.608634
v 0.026350 0.000877 -0.089658
vt -0.454102 0.459961
vn -0.153049 0.775920 0.611984
v 0.034416 0.004631 -0.087573
vt -0.454102 0.457031
vn -0.153049 0.775920 0.611984
v 0.035162 0.000104 -0.165298
vt -0.481934 0.459961
vn -0.154342 0.771519 0.617201
v 0.043211 0.003861 -0.163073
vt -0.481934 0.457031
vn -0.154342 0.771519 0.617201
v 0.044270 -0.000251 -0.242903
vt -0.510254 0.459961
vn -0.154342 0.771519 0.617201
v 0.052312 0.003508 -0.240634
vt -0.510254 0.457031
vn -0.154342 0.771519 0.617201
v 0.053157 -0.000350 -0.320336
vt -0.539062 0.459961
vn -0.154342 0.771519 0.617201
v 0.061204 0.003409 -0.318108
vt -0.539062 0.457031
vn -0.154342 0.771519 0.617201
v 0.061311 -0.000355 -0.395498
vt -0.566895 0.459961
vn -0.132899 0.764116 0.631240
v 0.069373 0.003405 -0.393405
vt -0.566895 0.457031
vn -0.132899 0.764116 0.631240
v 0.068317 -0.000355 -0.467866
vt -0.593750 0.459961
vn -0.111200 0.756108 0.644931
v 0.076405 0.003406 -0.466032
vt -0.593750 0.457031
vn -0.122102 0.760196 0.638117
v 0.073872 -0.000355 -0.538764
vt -0.619629 0.459961
vn -0.089264 0.747490 0.658248
v 0.081992 0.003408 -0.537323
vt -0.619629 0.457031
vn -0.089264 0.747490 0.658248
v 0.077675 -0.000355 -0.609602
vt -0.645508 0.459961
vn -0.044840 0.728449 0.683631
v 0.085826 0.003409 -0.608675
vt -0.645508 0.457031
vn -0.044840 0.728449 0.683631
v 0.079427 -0.000355 -0.681790
vt -0.672363 0.459961
vn -0.000022 0.707107 0.707107
v 0.087597 0.003410 -0.681468
vt -0.672363 0.457031
vn -0.011244 0.712651 0.701429
v 0.078828 -0.000355 -0.756739
vt -0.699707 0.459961
vn 0.033619 0.723306 0.689709
v 0.086998 0.003410 -0.757070
vt -0.699707 0.457031
vn 0.033619 0.723306 0.689709
v 0.075511 -0.000355 -0.836282
vt -0.729004 0.459961
vn 0.078201 0.742946 0.664767
v 0.083657 0.003409 -0.837294
vt -0.729004 0.457031
vn 0.078201 0.742946 0.664767
v 0.068418 -0.000355 -0.926412
vt -0.762207 0.459961
vn 0.122052 0.760178 0.638148
v 0.076511 0.003407 -0.928156
vt -0.762207 0.457031
vn 0.132849 0.764098 0.631272
v 0.056101 -0.000355 -1.035472
vt -0.802246 0.459961
vn 0.164870 0.774966 0.610120
v 0.064129 0.003405 -1.037839
vt -0.802246 0.457031
vn 0.176688 0.778686 0.602022
v 0.037113 -0.000355 -1.171837
vt -0.853027 0.459961
vn 0.197590 0.784874 0.587308
v 0.045080 0.003402 -1.174656
vt -0.853027 0.457031
vn 0.197590 0.784874 0.587308
v 0.010001 -0.000355 -1.343887
vt -0.916992 0.459961
vn 0.218048 0.790440 0.572416
v 0.017922 0.003400 -1.347009
vt -0.916992 0.457031
vn 0.218048 0.790440 0.572416
v -0.026592 -0.000348 -1.560017
vt -0.997559 0.459961
vn 0.228094 0.792992 0.564922
v -0.018749 0.003449 -1.563323
vt -0.997559 0.457031
vn 0.228094 0.792992 0.564922
v 0.000000 0.784902 0.571108
vt -0.012817 0.446777
vn -0.000020 0.893635 0.448794
v 0.000000 0.805248 0.606434
vt -0.002123 0.446777
vn -0.000021 0.878361 0.477998
v -0.008326 0.781933 0.572827
vt -0.012817 0.443359
vn 0.068068 0.923129 0.378418
v -0.008337 0.802183 0.607953
vt -0.002123 0.443359
vn 0.062463 0.909895 0.410110
v 0.000000 0.761877 0.542575
vt -0.022644 0.446777
vn -0.000020 0.919137 0.393939
v -0.008324 0.759366 0.544811
vt -0.022644 0.443359
vn 0.071330 0.945539 0.317596
v 0.000000 0.739561 0.521609
vt -0.031891 0.446777
vn -0.000020 0.941244 0.337727
v -0.008324 0.737295 0.524059
vt -0.031891 0.443359
vn 0.062198 0.960949 0.269645
v 0.000000 0.715259 0.503944
vt -0.040771 0.446777
vn -0.000019 0.958018 0.286708
v -0.008324 0.713190 0.506647
vt -0.040771 0.443359
vn 0.047852 0.971383 0.232650
v 0.000000 0.693279 0.491014
vt -0.049561 0.446777
vn -0.000018 0.971756 0.235987
v -0.008325 0.691640 0.493962
vt -0.049561 0.443359
vn 0.034076 0.978932 0.201323
v 0.000000 0.671154 0.480643
vt -0.058380 0.446777
vn -0.000018 0.980850 0.194764
v -0.008327 0.669483 0.483618
vt -0.058380 0.443359
vn 0.013899 0.984050 0.177348
v 0.000000 0.650215 0.471959
vt -0.067383 0.446777
vn -0.000017 0.987416 0.158145
v -0.008329 0.648706 0.475036
vt -0.067383 0.443359
vn -0.000017 0.987416 0.158145
v 0.000000 0.627403 0.463881
vt -0.076660 0.446777
vn -0.000017 0.991720 0.128416
v -0.008330 0.626120 0.467076
vt -0.076660 0.443359
vn -0.014085 0.991851 0.126623
v 0.000000 0.602386 0.455809
vt -0.086243 0.446777
vn -0.000017 0.994487 0.104862
v -0.008332 0.601258 0.459097
vt -0.086243 0.443359
vn -0.021314 0.994081 0.106535
v 0.000000 0.576028 0.448291
vt -0.096130 0.446777
vn -0.000016 0.996698 0.081204
v -0.008333 0.575188 0.451702
vt -0.096130 0.443359
vn -0.028784 0.996156 0.082736
v 0.000000 0.529121 0.436745
vt -0.116821 0.446777
vn -0.000016 0.997515 0.070449
v -0.008334 0.528147 0.440260
vt -0.116821 0.443359
vn -0.035877 0.996781 0.071703
v 0.000000 0.480162 0.424033
vt -0.138428 0.446777
vn -0.000016 0.997979 0.063545
v -0.008336 0.479131 0.427665
vt -0.138428 0.443359
vn -0.049841 0.996700 0.064076
v 0.000000 0.433284 0.411047
vt -0.160400 0.446777
vn -0.000016 0.997979 0.063545
v -0.008337 0.432363 0.414674
vt -0.160400 0.443359
vn -0.056772 0.996566 0.060273
v 0.000000 0.384931 0.397428
vt -0.182373 0.446777
vn -0.000016 0.997752 0.067022
v -0.008338 0.384017 0.400995
vt -0.182373 0.443359
vn -0.050006 0.996441 0.067860
v 0.000000 0.336713 0.384029
vt -0.203735 0.446777
vn -0.000016 0.996746 0.080603
v -0.008339 0.335786 0.387513
vt -0.203735 0.443359
vn -0.042696 0.996016 0.078284
v 0.000000 0.289241 0.369953
vt -0.223999 0.446777
vn -0.000017 0.995143 0.098438
v -0.008341 0.288211 0.373324
vt -0.223999 0.443359
vn -0.035284 0.994486 0.098758
v 0.000000 0.242674 0.354705
vt -0.242798 0.446777
vn -0.000017 0.992976 0.118312
v -0.008341 0.241769 0.358038
vt -0.242798 0.443359
vn -0.021151 0.992589 0.119661
v 0.000000 0.220441 0.346801
vt -0.251465 0.446777
vn -0.000017 0.989952 0.141407
v -0.008339 0.219415 0.350097
vt -0.251465 0.443359
vn -0.014058 0.989992 0.140424
v 0.000000 0.199630 0.338679
vt -0.260010 0.446777
vn -0.000017 0.987879 0.155224
v -0.008340 0.198483 0.341933
vt -0.260010 0.443359
vn -0.007032 0.988021 0.154157
v 0.000000 0.180129 0.330761
vt -0.268066 0.446777
vn -0.000018 0.985134 0.171789
v -0.008340 0.178856 0.333967
vt -0.268066 0.443359
vn -0.000018 0.985134 0.171789
v 0.000000 0.161813 0.322718
vt -0.275635 0.446777
vn -0.000018 0.982152 0.188088
v -0.008340 0.160410 0.325868
vt -0.275635 0.443359
vn -0.000018 0.982152 0.188088
v 0.000000 0.145050 0.314223
vt -0.282715 0.446777
vn -0.000018 0.978954 0.204080
v -0.008340 0.143512 0.317308
vt -0.282715 0.443359
vn -0.000018 0.978107 0.208104
v 0.000000 0.129839 0.305323
vt -0.289795 0.446777
vn -0.000018 0.975195 0.221346
v -0.008340 0.128160 0.308332
vt -0.289795 0.443359
vn -0.000018 0.974621 0.223863
v 0.000000 0.115193 0.296316
vt -0.296143 0.446777
vn -0.000019 0.970141 0.242540
v -0.008341 0.113368 0.299236
vt -0.296143 0.443359
vn -0.000019 0.970141 0.242540
v 0.000000 0.102850 0.287388
vt -0.302246 0.446777
vn -0.000019 0.961653 0.274270
v -0.008344 0.100866 0.290203
vt -0.302246 0.443359
vn -0.000019 0.961653 0.274270
v 0.000000 0.081021 0.268029
vt -0.313721 0.446777
vn -0.000019 0.950774 0.309884
v -0.008348 0.078721 0.270589
vt -0.313721 0.443359
vn -0.014163 0.951383 0.307685
v 0.000032 0.064915 0.248094
vt -0.323730 0.446777
vn -0.000020 0.933152 0.359481
v -0.008316 0.062259 0.250278
vt -0.323730 0.443359
vn -0.036392 0.934949 0.352912
v 0.001224 0.043233 0.189168
vt -0.348633 0.446777
vn -0.037844 0.822606 0.567351
v -0.007090 0.039692 0.190009
vt -0.348633 0.443359
vn -0.018697 0.821695 0.569620
v 0.003046 0.035676 0.148621
vt -0.364502 0.446777
vn -0.059872 0.802734 0.593325
v -0.005224 0.032079 0.148416
vt -0.364502 0.443359
vn -0.049194 0.806038 0.589816
v 0.006162 0.030483 0.100224
vt -0.382812 0.446777
vn -0.093074 0.790912 0.604810
v -0.002044 0.026791 0.099552
vt -0.382812 0.443359
vn -0.093074 0.790912 0.604810
v 0.010941 0.027494 0.044414
vt -0.403809 0.446777
vn -0.117073 0.782200 0.611929
v 0.002796 0.023759 0.043050
vt -0.403809 0.443359
vn -0.117073 0.782200 0.611929
v 0.017513 0.025426 -0.019956
vt -0.427734 0.446777
vn -0.140073 0.780989 0.608634
v 0.009416 0.021674 -0.021777
vt -0.427734 0.443359
vn -0.140073 0.780989 0.608634
v 0.025439 0.024085 -0.090859
vt -0.454102 0.446777
vn -0.153049 0.775920 0.611984
v 0.017373 0.020328 -0.092944
vt -0.454102 0.443359
vn -0.153049 0.775920 0.611984
v 0.034198 0.023317 -0.166066
vt -0.481934 0.446777
vn -0.154342 0.771519 0.617201
v 0.026149 0.019559 -0.168291
vt -0.481934 0.443359
vn -0.154342 0.771519 0.617201
v 0.043270 0.022964 -0.243390
vt -0.510254 0.446777
vn -0.154342 0.771519 0.617201
v 0.035227 0.019206 -0.245660
vt -0.510254 0.443359
vn -0.154342 0.771519 0.617201
v 0.052138 0.022865 -0.320661
vt -0.539062 0.446777
vn -0.154342 0.771519 0.617201
v 0.044089 0.019106 -0.322889
vt -0.539062 0.443359
vn -0.154342 0.771519 0.617201
v 0.060285 0.022860 -0.395764
vt -0.566895 0.446777
vn -0.132899 0.764116 0.631240
v 0.052221 0.019101 -0.397857
vt -0.566895 0.443359
vn -0.132899 0.764116 0.631240
v 0.067288 0.022860 -0.468100
vt -0.593750 0.446777
vn -0.122102 0.760196 0.638117
v 0.059197 0.019101 -0.469933
vt -0.593750 0.443359
vn -0.122102 0.760196 0.638117
v 0.072838 0.022860 -0.538948
vt -0.619629 0.446777
vn -0.089264 0.747490 0.658248
v 0.064713 0.019101 -0.540388
vt -0.619629 0.443359
vn -0.089264 0.747490 0.658248
v 0.076637 0.022860 -0.609719
vt -0.645508 0.446777
vn -0.044840 0.728449 0.683631
v 0.068480 0.019100 -0.610646
vt -0.645508 0.443359
vn -0.044840 0.728449 0.683631
v 0.078386 0.022860 -0.681831
vt -0.672363 0.446777
vn -0.011244 0.712651 0.701429
v 0.070210 0.019100 -0.682153
vt -0.672363 0.443359
vn -0.000022 0.707107 0.707107
v 0.077788 0.022860 -0.756696
vt -0.699707 0.446777
vn 0.033619 0.723306 0.689709
v 0.069612 0.019100 -0.756365
vt -0.699707 0.443359
vn 0.033619 0.723306 0.689709
v 0.074474 0.022860 -0.836152
vt -0.729004 0.446777
vn 0.078201 0.742946 0.664767
v 0.066321 0.019101 -0.835140
vt -0.729004 0.443359
vn 0.078201 0.742946 0.664767
v 0.067387 0.022860 -0.926190
vt -0.762207 0.446777
vn 0.132849 0.764098 0.631272
v 0.059287 0.019103 -0.924448
vt -0.762207 0.443359
vn 0.132849 0.764098 0.631272
v 0.055079 0.022860 -1.035172
vt -0.802246 0.446777
vn 0.164870 0.774966 0.610120
v 0.047046 0.019104 -1.032806
vt -0.802246 0.443359
vn 0.166140 0.775373 0.609257
v 0.036099 0.022860 -1.171478
vt -0.853027 0.446777
vn 0.197590 0.784874 0.587308
v 0.028128 0.019105 -1.168661
vt -0.853027 0.443359
vn 0.197590 0.784874 0.587308
v 0.008994 0.022860 -1.343489
vt -0.916992 0.446777
vn 0.218048 0.790440 0.572416
v 0.001071 0.019106 -1.340369
vt -0.916992 0.443359
vn 0.218048 0.790440 0.572416
v -0.027595 0.022861 -1.559596
vt -0.997559 0.446777
vn 0.228094 0.792992 0.564922
v -0.035533 0.019150 -1.556273
vt -0.997559 0.443359
vn 0.228094 0.792992 0.564922
v -0.011789 0.774793 0.576988
vt -0.012817 0.439941
vn -0.000020 0.921070 0.389397
v -0.011789 0.794782 0.611619
vt -0.002123 0.439941
vn -0.000020 0.907168 0.420768
v -0.008348 0.767634 0.581166
vt -0.012817 0.437012
vn -0.067635 0.924253 0.375741
v -0.008336 0.787382 0.615285
vt -0.002123 0.437012
vn -0.062506 0.909908 0.410074
v -0.011789 0.753159 0.550239
vt -0.022644 0.439941
vn -0.000019 0.943574 0.331162
v -0.008347 0.746923 0.555672
vt -0.022644 0.437012
vn -0.064299 0.946000 0.317725
v -0.011789 0.731615 0.529989
vt -0.031891 0.439941
vn -0.000019 0.960465 0.278402
v -0.008347 0.725839 0.535938
vt -0.031891 0.437012
vn -0.062090 0.962098 0.265543
v -0.011789 0.708180 0.513179
vt -0.040771 0.439941
vn -0.000018 0.971153 0.238455
v -0.008347 0.703156 0.519724
vt -0.040771 0.437012
vn -0.047605 0.971778 0.231043
v -0.011789 0.687666 0.501092
vt -0.049561 0.439941
vn -0.000018 0.979499 0.201450
v -0.008346 0.683674 0.508227
vt -0.049561 0.437012
vn -0.034280 0.979474 0.198633
v -0.011789 0.665437 0.490810
vt -0.058380 0.439941
vn -0.000018 0.984645 0.174570
v -0.008344 0.661379 0.498015
vt -0.058380 0.437012
vn -0.020684 0.984849 0.172177
v -0.011789 0.645055 0.482474
vt -0.067383 0.439941
vn -0.000017 0.987879 0.155224
v -0.008343 0.641394 0.489924
vt -0.067383 0.437012
vn -0.000017 0.987879 0.155224
v -0.011789 0.623022 0.474794
vt -0.076660 0.439941
vn -0.000017 0.989952 0.141407
v -0.008342 0.619920 0.482516
vt -0.076660 0.437012
vn 0.007064 0.991807 0.127553
v -0.011789 0.598542 0.467036
vt -0.086243 0.439941
vn -0.000017 0.991720 0.128416
v -0.008340 0.595831 0.474977
vt -0.086243 0.437012
vn 0.021364 0.994410 0.103405
v -0.011789 0.573175 0.459930
vt -0.096130 0.439941
vn -0.000017 0.993706 0.112017
v -0.008340 0.571177 0.468152
vt -0.096130 0.437012
vn 0.028750 0.996154 0.082769
v -0.011789 0.525821 0.448734
vt -0.116821 0.439941
vn -0.000017 0.994144 0.108061
v -0.008338 0.523525 0.457203
vt -0.116821 0.437012
vn 0.035983 0.997008 0.068419
v -0.011789 0.476658 0.436445
vt -0.138428 0.439941
vn -0.000017 0.993345 0.115176
v -0.008337 0.474207 0.445244
vt -0.138428 0.437012
vn 0.050013 0.996898 0.060763
v -0.011789 0.430151 0.423437
vt -0.160400 0.439941
vn -0.000017 0.992605 0.121388
v -0.008336 0.427954 0.432216
vt -0.160400 0.437012
vn 0.056928 0.996319 0.064089
v -0.011789 0.381818 0.409612
vt -0.182373 0.439941
vn -0.000017 0.992605 0.121388
v -0.008335 0.379630 0.418239
vt -0.182373 0.437012
vn 0.056699 0.996114 0.067399
v -0.011789 0.333551 0.395926
vt -0.203735 0.439941
vn -0.000017 0.992113 0.125346
v -0.008333 0.331322 0.404343
vt -0.203735 0.437012
vn 0.049432 0.995750 0.077703
v -0.011789 0.285728 0.381461
vt -0.223999 0.439941
vn -0.000017 0.990916 0.134479
v -0.008332 0.283248 0.389593
vt -0.223999 0.437012
vn 0.035250 0.994484 0.098792
v -0.011789 0.239587 0.366079
vt -0.242798 0.439941
vn -0.000017 0.989521 0.144390
v -0.008332 0.237407 0.374112
vt -0.242798 0.437012
vn 0.028048 0.992875 0.115816
v -0.011789 0.216941 0.358049
vt -0.251465 0.439941
vn -0.000017 0.988046 0.154161
v -0.008333 0.214470 0.365996
vt -0.251465 0.437012
vn 0.014023 0.989987 0.140459
v -0.011789 0.195716 0.349786
vt -0.260010 0.439941
vn -0.000018 0.986955 0.160998
v -0.008333 0.192952 0.357632
vt -0.260010 0.437012
vn 0.006997 0.988016 0.154192
v -0.011789 0.175785 0.341702
vt -0.268066 0.439941
vn -0.000018 0.985134 0.171789
v -0.008333 0.172718 0.349432
vt -0.268066 0.437012
vn -0.000018 0.985134 0.171789
v -0.011789 0.157025 0.333467
vt -0.275635 0.439941
vn -0.000018 0.982152 0.188088
v -0.008333 0.153643 0.341061
vt -0.275635 0.437012
vn -0.000018 0.982152 0.188088
v -0.011789 0.139800 0.324749
vt -0.282715 0.439941
vn -0.000018 0.978107 0.208104
v -0.008332 0.136093 0.332184
vt -0.282715 0.437012
vn -0.000018 0.978107 0.208104
v -0.011789 0.124109 0.315589
vt -0.289795 0.439941
vn -0.000018 0.974276 0.225359
v -0.008332 0.120064 0.322839
vt -0.289795 0.437012
vn -0.000018 0.974621 0.223863
v -0.011789 0.108966 0.306279
vt -0.296143 0.439941
vn -0.000019 0.970141 0.242540
v -0.008332 0.104570 0.313316
vt -0.296143 0.437012
vn -0.000019 0.970141 0.242540
v -0.011789 0.096086 0.296991
vt -0.302246 0.439941
vn -0.000019 0.961653 0.274270
v -0.008329 0.091317 0.303769
vt -0.302246 0.437012
vn -0.000019 0.961653 0.274270
v -0.011789 0.073183 0.276761
vt -0.313721 0.439941
vn -0.000019 0.946528 0.322623
v -0.008325 0.067664 0.282919
vt -0.313721 0.437012
vn 0.014124 0.951372 0.307721
v -0.011754 0.055903 0.255579
vt -0.323730 0.439941
vn -0.000020 0.921070 0.389397
v -0.008287 0.049585 0.260882
vt -0.323730 0.437012
vn 0.022006 0.932714 0.359946
v -0.010465 0.031388 0.193091
vt -0.348633 0.439941
vn -0.036664 0.837764 0.544801
v -0.006955 0.023195 0.196622
vt -0.348633 0.437012
vn -0.055173 0.841214 0.537880
v -0.008524 0.023711 0.149822
vt -0.364502 0.439941
vn -0.068582 0.813122 0.578039
v -0.004952 0.015487 0.152019
vt -0.364502 0.437012
vn -0.069160 0.809776 0.582649
v -0.005267 0.018510 0.100671
vt -0.382812 0.439941
vn -0.093074 0.790912 0.604810
v -0.001631 0.010506 0.102926
vt -0.382812 0.437012
vn -0.093074 0.790912 0.604810
v -0.000360 0.015425 0.043327
vt -0.403809 0.439941
vn -0.117073 0.782200 0.611929
v 0.003319 0.007385 0.045085
vt -0.403809 0.437012
vn -0.117073 0.782200 0.611929
v 0.006307 0.013321 -0.021988
vt -0.427734 0.439941
vn -0.140073 0.780989 0.608634
v 0.010012 0.005270 -0.020465
vt -0.427734 0.437012
vn -0.140073 0.780989 0.608634
v 0.014297 0.011968 -0.093457
vt -0.454102 0.439941
vn -0.153049 0.775920 0.611984
v 0.018021 0.003911 -0.092095
vt -0.454102 0.437012
vn -0.153049 0.775920 0.611984
v 0.023094 0.011197 -0.168988
vt -0.481934 0.439941
vn -0.154342 0.771519 0.617201
v 0.026834 0.003137 -0.167748
vt -0.481934 0.437012
vn -0.154342 0.771519 0.617201
v 0.032184 0.010843 -0.246457
vt -0.510254 0.439941
vn -0.154342 0.771519 0.617201
v 0.035936 0.002782 -0.245315
vt -0.510254 0.437012
vn -0.154342 0.771519 0.617201
v 0.041050 0.010744 -0.323717
vt -0.539062 0.439941
vn -0.154342 0.771519 0.617201
v 0.044811 0.002683 -0.322659
vt -0.539062 0.437012
vn -0.154342 0.771519 0.617201
v 0.049177 0.010739 -0.398646
vt -0.566895 0.439941
vn -0.132899 0.764116 0.631240
v 0.052948 0.002678 -0.397669
vt -0.566895 0.437012
vn -0.132899 0.764116 0.631240
v 0.056143 0.010739 -0.470625
vt -0.593750 0.439941
vn -0.122102 0.760196 0.638117
v 0.059926 0.002678 -0.469769
vt -0.593750 0.437012
vn -0.122102 0.760196 0.638117
v 0.061647 0.010739 -0.540930
vt -0.619629 0.439941
vn -0.089264 0.747490 0.658248
v 0.065445 0.002678 -0.540258
vt -0.619629 0.437012
vn -0.089264 0.747490 0.658248
v 0.065404 0.010739 -0.610995
vt -0.645508 0.439941
vn -0.044840 0.728449 0.683631
v 0.069215 0.002679 -0.610562
vt -0.645508 0.437012
vn -0.044840 0.728449 0.683631
v 0.067127 0.010739 -0.682274
vt -0.672363 0.439941
vn -0.000022 0.707107 0.707107
v 0.070946 0.002679 -0.682124
vt -0.672363 0.437012
vn -0.000022 0.707107 0.707107
v 0.066529 0.010739 -0.756240
vt -0.699707 0.439941
vn 0.033619 0.723306 0.689709
v 0.070348 0.002679 -0.756395
vt -0.699707 0.437012
vn 0.033619 0.723306 0.689709
v 0.063246 0.010739 -0.834759
vt -0.729004 0.439941
vn 0.078201 0.742946 0.664767
v 0.067056 0.002678 -0.835231
vt -0.729004 0.437012
vn 0.078201 0.742946 0.664767
v 0.056228 0.010739 -0.923791
vt -0.762207 0.439941
vn 0.132849 0.764098 0.631272
v 0.060016 0.002676 -0.924604
vt -0.762207 0.437012
vn 0.132849 0.764098 0.631272
v 0.044011 0.010739 -1.031914
vt -0.802246 0.439941
vn 0.176688 0.778686 0.602022
v 0.047770 0.002675 -1.033019
vt -0.802246 0.437012
vn 0.166140 0.775373 0.609257
v 0.025114 0.010738 -1.167598
vt -0.853027 0.439941
vn 0.197590 0.784874 0.587308
v 0.028847 0.002674 -1.168914
vt -0.853027 0.437012
vn 0.197590 0.784874 0.587308
v -0.001925 0.010738 -1.339190
vt -0.916992 0.439941
vn 0.218048 0.790440 0.572416
v 0.001786 0.002674 -1.340649
vt -0.916992 0.437012
vn 0.218048 0.790440 0.572416
v -0.038559 0.010734 -1.555016
vt -0.997559 0.439941
vn 0.228094 0.792992 0.564922
v -0.034813 0.002631 -1.556574
vt -0.997559 0.437012
vn 0.228094 0.792992 0.564922
v 0.000000 0.764646 0.582904
vt -0.012817 0.433594
vn -0.000020 0.893635 0.448794
v 0.000000 0.784317 0.616803
vt -0.002123 0.433594
vn -0.000021 0.878361 0.477998
v 0.000000 0.744378 0.557910
vt -0.022644 0.433594
vn -0.000020 0.921070 0.389397
v 0.000000 0.723475 0.538402
vt -0.031891 0.433594
vn -0.000019 0.942782 0.333410
v 0.000000 0.701067 0.522440
vt -0.040771 0.433594
vn -0.000019 0.959253 0.282548
v 0.000000 0.682014 0.511187
vt -0.049561 0.433594
vn -0.000018 0.972133 0.234431
v 0.000000 0.659694 0.501002
vt -0.058380 0.433594
vn -0.000018 0.981637 0.190760
v 0.000000 0.639877 0.493010
vt -0.067383 0.433594
vn -0.000017 0.987416 0.158145
v 0.000000 0.618633 0.485717
vt -0.076660 0.433594
vn -0.000017 0.991720 0.128416
v 0.000000 0.594708 0.478266
vt -0.086243 0.433594
vn -0.000017 0.994487 0.104862
v 0.000000 0.570354 0.471555
vt -0.096130 0.433594
vn -0.000016 0.996698 0.081204
v 0.000000 0.522581 0.460711
vt -0.116821 0.433594
vn -0.000016 0.997515 0.070449
v 0.000000 0.473198 0.448895
vt -0.138428 0.433594
vn -0.000016 0.997979 0.063545
v 0.000000 0.427050 0.435856
vt -0.160400 0.433594
vn -0.000016 0.997979 0.063545
v 0.000000 0.378727 0.421815
vt -0.182373 0.433594
vn -0.000016 0.997752 0.067022
v 0.000000 0.330401 0.407830
vt -0.203735 0.433594
vn -0.000016 0.996746 0.080603
v 0.000000 0.282221 0.392960
vt -0.223999 0.433594
vn -0.000017 0.995143 0.098438
v 0.000000 0.236392 0.377579
vt -0.242798 0.433594
vn -0.000017 0.992976 0.118312
v 0.000000 0.213447 0.369286
vt -0.251465 0.433594
vn -0.000017 0.989952 0.141407
v 0.000000 0.191807 0.360881
vt -0.260010 0.433594
vn -0.000017 0.987879 0.155224
v 0.000000 0.171448 0.352632
vt -0.268066 0.433594
vn -0.000018 0.985134 0.171789
v 0.000000 0.152244 0.344204
vt -0.275635 0.433594
vn -0.000018 0.982152 0.188088
v 0.000000 0.134558 0.335261
vt -0.282715 0.433594
vn -0.000018 0.978954 0.204080
v 0.000000 0.118390 0.325841
vt -0.289795 0.433594
vn -0.000018 0.975195 0.221346
v 0.000000 0.102751 0.316229
vt -0.296143 0.433594
vn -0.000019 0.970141 0.242540
v 0.000000 0.089344 0.306573
vt -0.302246 0.433594
vn -0.000019 0.962314 0.271941
v 0.000000 0.065383 0.285467
vt -0.313721 0.433594
vn -0.000019 0.951477 0.307718
v 0.000035 0.046987 0.263091
vt -0.323730 0.433594
vn -0.000020 0.933152 0.359481
v 0.001391 0.019883 0.198520
vt -0.348633 0.433594
vn -0.037277 0.828602 0.558596
v 0.003404 0.012194 0.153714
vt -0.364502 0.433594
vn -0.069160 0.809776 0.582649
v 0.006727 0.007448 0.104995
vt -0.382812 0.433594
vn -0.093074 0.790912 0.604810
v 0.011668 0.004338 0.047290
vt -0.403809 0.433594
vn -0.117073 0.782200 0.611929
v 0.018348 0.002232 -0.018102
vt -0.427734 0.433594
vn -0.140073 0.780989 0.608634
v 0.026350 0.000877 -0.089658
vt -0.454102 0.433594
vn -0.153049 0.775920 0.611984
v 0.035162 0.000104 -0.165298
vt -0.481934 0.433594
vn -0.154342 0.771519 0.617201
v 0.044270 -0.000251 -0.242903
vt -0.510254 0.433594
vn -0.154342 0.771519 0.617201
v 0.053157 -0.000350 -0.320336
vt -0.539062 0.433594
vn -0.154342 0.771519 0.617201
v 0.061311 -0.000355 -0.395498
vt -0.566895 0.433594
vn -0.143681 0.767903 0.624245
v 0.068317 -0.000355 -0.467866
vt -0.593750 0.433594
vn -0.122102 0.760196 0.638117
v 0.073872 -0.000355 -0.538764
vt -0.619629 0.433594
vn -0.089264 0.747490 0.658248
v 0.077675 -0.000355 -0.609602
vt -0.645508 0.433594
vn -0.056026 0.733442 0.677439
v 0.079427 -0.000355 -0.681790
vt -0.672363 0.433594
vn -0.011244 0.712651 0.701429
v 0.078828 -0.000355 -0.756739
vt -0.699707 0.433594
vn 0.033619 0.723306 0.689709
v 0.075511 -0.000355 -0.836282
vt -0.729004 0.433594
vn 0.078201 0.742946 0.664767
v 0.068418 -0.000355 -0.926412
vt -0.762207 0.433594
vn 0.132849 0.764098 0.631272
v 0.056101 -0.000355 -1.035472
vt -0.802246 0.433594
vn 0.176688 0.778686 0.602022
v 0.037113 -0.000355 -1.171837
vt -0.853027 0.433594
vn 0.197590 0.784874 0.587308
v 0.010001 -0.000355 -1.343887
vt -0.916992 0.433594
vn 0.218048 0.790440 0.572416
v -0.026592 -0.000348 -1.560017
vt -0.997559 0.433594
vn 0.228094 0.792992 0.564922
v 0.011789 0.774793 0.576988
vt -0.012817 0.453613
vn -0.000020 0.921070 0.389397
v 0.011789 0.794782 0.611619
vt -0.002123 0.453613
vn -0.000020 0.906374 0.422477
v 0.008326 0.781945 0.572827
vt -0.012817 0.450195
vn -0.068111 0.923141 0.378381
v 0.008337 0.802183 0.607953
vt -0.002123 0.450195
vn -0.054816 0.908189 0.414954
v 0.011789 0.753159 0.550239
vt -0.022644 0.453613
vn -0.000019 0.943574 0.331162
v 0.008324 0.759366 0.544811
vt -0.022644 0.450195
vn -0.071372 0.945549 0.317559
v 0.011789 0.731615 0.529989
vt -0.031891 0.453613
vn -0.000019 0.960465 0.278402
v 0.008324 0.737295 0.524059
vt -0.031891 0.450195
vn -0.062238 0.960957 0.269608
v 0.011789 0.708180 0.513179
vt -0.040771 0.453613
vn -0.000018 0.971153 0.238455
v 0.008324 0.713190 0.506647
vt -0.040771 0.450195
vn -0.047890 0.971389 0.232613
v 0.011789 0.687666 0.501090
vt -0.049561 0.453613
vn -0.000018 0.978954 0.204080
v 0.008325 0.691641 0.493960
vt -0.049561 0.450195
vn -0.034113 0.978938 0.201287
v 0.011789 0.665437 0.490810
vt -0.058380 0.453613
vn -0.000018 0.984645 0.174570
v 0.008327 0.669483 0.483618
vt -0.058380 0.450195
vn -0.013935 0.984056 0.177313
v 0.011789 0.645055 0.482474
vt -0.067383 0.453613
vn -0.000017 0.987879 0.155224
v 0.008329 0.648706 0.475036
vt -0.067383 0.450195
vn -0.000017 0.987416 0.158145
v 0.011789 0.623022 0.474794
vt -0.076660 0.453613
vn -0.000017 0.989952 0.141407
v 0.008330 0.626121 0.467076
vt -0.076660 0.450195
vn 0.014050 0.991847 0.126657
v 0.011789 0.598542 0.467036
vt -0.086243 0.453613
vn -0.000017 0.991720 0.128416
v 0.008332 0.601258 0.459097
vt -0.086243 0.450195
vn 0.021279 0.994078 0.106569
v 0.011789 0.573175 0.459930
vt -0.096130 0.453613
vn -0.000017 0.993706 0.112017
v 0.008333 0.575188 0.451701
vt -0.096130 0.450195
vn 0.028750 0.996154 0.082769
v 0.011789 0.525821 0.448734
vt -0.116821 0.453613
vn -0.000017 0.994144 0.108061
v 0.008334 0.528147 0.440260
vt -0.116821 0.450195
vn 0.035843 0.996779 0.071737
v 0.011789 0.476658 0.436445
vt -0.138428 0.453613
vn -0.000017 0.993345 0.115176
v 0.008336 0.479131 0.427665
vt -0.138428 0.450195
vn 0.049807 0.996699 0.064110
v 0.011789 0.430151 0.423437
vt -0.160400 0.453613
vn -0.000017 0.992605 0.121388
v 0.008337 0.432363 0.414674
vt -0.160400 0.450195
vn 0.056738 0.996566 0.060307
v 0.011789 0.381818 0.409612
vt -0.182373 0.453613
vn -0.000017 0.992605 0.121388
v 0.008338 0.384017 0.400995
vt -0.182373 0.450195
vn 0.049973 0.996440 0.067894
v 0.011789 0.333551 0.395926
vt -0.203735 0.453613
vn -0.000017 0.992113 0.125346
v 0.008339 0.335786 0.387513
vt -0.203735 0.450195
vn 0.042662 0.996015 0.078318
v 0.011789 0.285728 0.381460
vt -0.223999 0.453613
vn -0.000017 0.990916 0.134479
v 0.008341 0.288211 0.373324
vt -0.223999 0.450195
vn 0.035250 0.994484 0.098792
v 0.011789 0.239587 0.366079
vt -0.242798 0.453613
vn -0.000017 0.989521 0.144390
v 0.008341 0.241769 0.358038
vt -0.242798 0.450195
vn 0.021117 0.992586 0.119696
v 0.011789 0.216941 0.358049
vt -0.251465 0.453613
vn -0.000017 0.988046 0.154161
v 0.008339 0.219415 0.350097
vt -0.251465 0.450195
vn 0.014023 0.989987 0.140459
v 0.011789 0.195716 0.349786
vt -0.260010 0.453613
vn -0.000018 0.986955 0.160998
v 0.008340 0.198483 0.341933
vt -0.260010 0.450195
vn 0.006997 0.988016 0.154192
v 0.011789 0.175785 0.341702
vt -0.268066 0.453613
vn -0.000018 0.985336 0.170623
v 0.008340 0.178856 0.333967
vt -0.268066 0.450195
vn -0.000018 0.985134 0.171789
v 0.011789 0.157025 0.333467
vt -0.275635 0.453613
vn -0.000018 0.982152 0.188088
v 0.008340 0.160410 0.325868
vt -0.275635 0.450195
vn -0.000018 0.982152 0.188088
v 0.011789 0.139800 0.324749
vt -0.282715 0.453613
vn -0.000018 0.978107 0.208104
v 0.008340 0.143512 0.317308
vt -0.282715 0.450195
vn -0.000018 0.978107 0.208104
v 0.011789 0.124109 0.315589
vt -0.289795 0.453613
vn -0.000018 0.974276 0.225359
v 0.008340 0.128160 0.308331
vt -0.289795 0.450195
vn -0.000018 0.974621 0.223863
v 0.011789 0.108966 0.306279
vt -0.296143 0.453613
vn -0.000019 0.970141 0.242540
v 0.008341 0.113368 0.299236
vt -0.296143 0.450195
vn -0.000019 0.970141 0.242540
v 0.011789 0.096086 0.296991
vt -0.302246 0.453613
vn -0.000019 0.961653 0.274270
v 0.008344 0.100866 0.290203
vt -0.302246 0.450195
vn -0.000019 0.961653 0.274270
v 0.011789 0.073185 0.276762
vt -0.313721 0.453613
vn -0.000019 0.946528 0.322623
v 0.008348 0.078723 0.270590
vt -0.313721 0.450195
vn 0.014124 0.951372 0.307721
v 0.011825 0.055950 0.255632
vt -0.323730 0.453613
vn -0.000020 0.921070 0.389397
v 0.008383 0.062295 0.250315
vt -0.323730 0.450195
vn 0.029146 0.933501 0.357387
v 0.013091 0.031703 0.194555
vt -0.348633 0.453613
vn -0.036664 0.837764 0.544801
v 0.009586 0.039914 0.191047
vt -0.348633 0.450195
vn -0.055672 0.834992 0.547438
v 0.014984 0.024136 0.152500
vt -0.364502 0.453613
vn -0.058888 0.809656 0.583943
v 0.011417 0.032376 0.150311
vt -0.364502 0.450195
vn -0.078864 0.813175 0.576652
v 0.018164 0.019407 0.104543
vt -0.382812 0.453613
vn -0.093074 0.790912 0.604810
v 0.014531 0.027421 0.102290
vt -0.382812 0.450195
vn -0.093074 0.790912 0.604810
v 0.022976 0.016400 0.048375
vt -0.403809 0.453613
vn -0.117073 0.782200 0.611929
v 0.019297 0.024447 0.046618
vt -0.403809 0.450195
vn -0.117073 0.782200 0.611929
v 0.029558 0.014332 -0.016072
vt -0.427734 0.453613
vn -0.140073 0.780989 0.608634
v 0.025853 0.022387 -0.017594
vt -0.427734 0.450195
vn -0.140073 0.780989 0.608634
v 0.037495 0.012991 -0.087061
vt -0.454102 0.453613
vn -0.153049 0.775920 0.611984
v 0.033771 0.021050 -0.088423
vt -0.454102 0.450195
vn -0.153049 0.775920 0.611984
v 0.046267 0.012223 -0.162376
vt -0.481934 0.453613
vn -0.154342 0.771519 0.617201
v 0.042528 0.020283 -0.163617
vt -0.481934 0.450195
vn -0.154342 0.771519 0.617201
v 0.055356 0.011870 -0.239836
vt -0.510254 0.453613
vn -0.154342 0.771519 0.617201
v 0.051605 0.019930 -0.240979
vt -0.510254 0.450195
vn -0.154342 0.771519 0.617201
v 0.064243 0.011770 -0.317280
vt -0.539062 0.453613
vn -0.154342 0.771519 0.617201
v 0.060483 0.019831 -0.318338
vt -0.539062 0.450195
vn -0.154342 0.771519 0.617201
v 0.072415 0.011765 -0.392616
vt -0.566895 0.453613
vn -0.143681 0.767903 0.624245
v 0.068647 0.019825 -0.393594
vt -0.566895 0.450195
vn -0.132899 0.764116 0.631240
v 0.079455 0.011765 -0.465340
vt -0.593750 0.453613
vn -0.122102 0.760196 0.638117
v 0.075676 0.019823 -0.466197
vt -0.593750 0.450195
vn -0.122102 0.760196 0.638117
v 0.085053 0.011765 -0.536779
vt -0.619629 0.453613
vn -0.089264 0.747490 0.658248
v 0.081261 0.019822 -0.537453
vt -0.619629 0.450195
vn -0.089264 0.747490 0.658248
v 0.088898 0.011765 -0.608325
vt -0.645508 0.453613
vn -0.044840 0.728449 0.683631
v 0.085092 0.019821 -0.608758
vt -0.645508 0.450195
vn -0.044840 0.728449 0.683631
v 0.090675 0.011765 -0.681346
vt -0.672363 0.453613
vn -0.011244 0.712651 0.701429
v 0.086861 0.019820 -0.681497
vt -0.672363 0.450195
vn -0.011244 0.712651 0.701429
v 0.090076 0.011765 -0.757195
vt -0.699707 0.453613
vn 0.033619 0.723306 0.689709
v 0.086263 0.019820 -0.757040
vt -0.699707 0.450195
vn 0.033619 0.723306 0.689709
v 0.086727 0.011765 -0.837676
vt -0.729004 0.453613
vn 0.078201 0.742946 0.664767
v 0.082924 0.019821 -0.837204
vt -0.729004 0.450195
vn 0.078201 0.742946 0.664767
v 0.079564 0.011765 -0.928813
vt -0.762207 0.453613
vn 0.132849 0.764098 0.631272
v 0.075783 0.019823 -0.927998
vt -0.762207 0.450195
vn 0.132849 0.764098 0.631272
v 0.067160 0.011766 -1.038732
vt -0.802246 0.453613
vn 0.176688 0.778686 0.602022
v 0.063406 0.019825 -1.037626
vt -0.802246 0.450195
vn 0.166140 0.775373 0.609257
v 0.048090 0.011766 -1.175719
vt -0.853027 0.453613
vn 0.197590 0.784874 0.587308
v 0.044362 0.019827 -1.174401
vt -0.853027 0.450195
vn 0.197590 0.784874 0.587308
v 0.020917 0.011766 -1.348186
vt -0.916992 0.453613
vn 0.218048 0.790440 0.572416
v 0.017208 0.019830 -1.346727
vt -0.916992 0.450195
vn 0.218048 0.790440 0.572416
v -0.015809 0.011762 -1.564566
vt -0.997559 0.453613
vn 0.228094 0.792992 0.564922
v -0.019453 0.019781 -1.563026
vt -0.997559 0.450195
vn 0.228094 0.792992 0.564922
v 0.000260 0.037837 0.247327
vt -0.329590 0.433594
vn -0.007880 0.902117 0.431419
v 0.000611 0.029877 0.230116
vt -0.336426 0.433594
vn -0.017242 0.861121 0.508108
v -0.008068 0.040706 0.245524
vt -0.329590 0.437012
vn -0.007844 0.901322 0.433078
v -0.007725 0.032809 0.228293
vt -0.336426 0.437012
vn -0.042459 0.874168 0.483764
v 0.000611 0.029877 0.230116
vt -0.336426 0.459961
vn -0.017242 0.861121 0.508108
v 0.000260 0.037837 0.247327
vt -0.329590 0.459961
vn -0.007880 0.902117 0.431419
v 0.008928 0.032976 0.228538
vt -0.336426 0.457031
vn -0.000021 0.862699 0.505717
v 0.008577 0.040869 0.245760
vt -0.329590 0.457031
vn -0.015707 0.902031 0.431386
v 0.012367 0.040266 0.224340
vt -0.336426 0.453613
vn -0.016858 0.870427 0.492008
v 0.012028 0.047928 0.241560
vt -0.329590 0.453613
vn -0.015736 0.899739 0.436144
v 0.000216 0.057936 0.235600
vt -0.329590 0.446777
vn -0.007909 0.897528 0.440886
v 0.000534 0.050566 0.218650
vt -0.336426 0.446777
vn -0.017695 0.847852 0.529937
v 0.008572 0.055082 0.237471
vt -0.329590 0.450195
vn -0.007909 0.897528 0.440886
v 0.008898 0.047600 0.220422
vt -0.336426 0.450195
vn -0.043159 0.867153 0.496169
v -0.007807 0.047425 0.220182
vt -0.336426 0.443359
vn -0.000021 0.852841 0.522170
v -0.008128 0.054919 0.237239
vt -0.329590 0.443359
vn -0.015736 0.899739 0.436144
v -0.011209 0.040022 0.223998
vt -0.336426 0.439941
vn -0.016963 0.868363 0.495639
v -0.011547 0.047698 0.241230
vt -0.329590 0.439941
vn -0.007909 0.897528 0.440886
usemtl Charging.007
f 3/3/3 2/2/2 1/1/1
f 4/4/4 2/2/2 3/3/3
f 6/6/6 1/1/1 5/5/5
f 3/3/3 1/1/1 6/6/6
f 8/8/8 5/5/5 7/7/7
f 6/6/6 5/5/5 8/8/8
f 10/10/10 7/7/7 9/9/9
f 8/8/8 7/7/7 10/10/10
f 12/12/12 9/9/9 11/11/11
f 10/10/10 9/9/9 12/12/12
f 14/14/14 11/11/11 13/13/13
f 12/12/12 11/11/11 14/14/14
f 16/16/16 13/13/13 15/15/15
f 14/14/14 13/13/13 16/16/16
f 18/18/18 15/15/15 17/17/17
f 16/16/16 15/15/15 18/18/18
f 20/20/20 17/17/17 19/19/19
f 18/18/18 17/17/17 20/20/20
f 22/22/22 19/19/19 21/21/21
f 20/20/20 19/19/19 22/22/22
f 23/23/23 22/22/22 21/21/21
f 24/24/24 22/22/22 23/23/23
f 25/25/25 24/24/24 23/23/23
f 26/26/26 24/24/24 25/25/25
f 27/27/27 26/26/26 25/25/25
f 28/28/28 26/26/26 27/27/27
f 29/29/29 28/28/28 27/27/27
f 30/30/30 28/28/28 29/29/29
f 31/31/31 30/30/30 29/29/29
f 32/32/32 30/30/30 31/31/31
f 33/33/33 32/32/32 31/31/31
f 34/34/34 32/32/32 33/33/33
f 35/35/35 34/34/34 33/33/33
f 36/36/36 34/34/34 35/35/35
f 38/38/38 35/35/35 37/37/37
f 36/36/36 35/35/35 38/38/38
f 40/40/40 37/37/37 39/39/39
f 38/38/38 37/37/37 40/40/40
f 42/42/42 39/39/39 41/41/41
f 40/40/40 39/39/39 42/42/42
f 44/44/44 41/41/41 43/43/43
f 42/42/42 41/41/41 44/44/44
f 46/46/46 43/43/43 45/45/45
f 44/44/44 43/43/43 46/46/46
f 48/48/48 45/45/45 47/47/47
f 46/46/46 45/45/45 48/48/48
f 50/50/50 47/47/47 49/49/49
f 48/48/48 47/47/47 50/50/50
f 52/52/52 49/49/49 51/51/51
f 50/50/50 49/49/49 52/52/52
f 53/53/53 52/52/52 51/51/51
f 54/54/54 52/52/52 53/53/53
f 55/55/55 54/54/54 53/53/53
f 56/56/56 54/54/54 55/55/55
f 59/59/59 58/58/58 57/57/57
f 60/60/60 58/58/58 59/59/59
f 61/61/61 60/60/60 59/59/59
f 62/62/62 60/60/60 61/61/61
f 63/63/63 62/62/62 61/61/61
f 64/64/64 62/62/62 63/63/63
f 65/65/65 64/64/64 63/63/63
f 66/66/66 64/64/64 65/65/65
f 67/67/67 66/66/66 65/65/65
f 68/68/68 66/66/66 67/67/67
f 69/69/69 68/68/68 67/67/67
f 70/70/70 68/68/68 69/69/69
f 71/71/71 70/70/70 69/69/69
f 72/72/72 70/70/70 71/71/71
f 73/73/73 72/72/72 71/71/71
f 74/74/74 72/72/72 73/73/73
f 75/75/75 74/74/74 73/73/73
f 76/76/76 74/74/74 75/75/75
f 77/77/77 76/76/76 75/75/75
f 78/78/78 76/76/76 77/77/77
f 79/79/79 78/78/78 77/77/77
f 80/80/80 78/78/78 79/79/79
f 81/81/81 80/80/80 79/79/79
f 82/82/82 80/80/80 81/81/81
f 83/83/83 82/82/82 81/81/81
f 84/84/84 82/82/82 83/83/83
f 85/85/85 84/84/84 83/83/83
f 86/86/86 84/84/84 85/85/85
f 87/87/87 86/86/86 85/85/85
f 88/88/88 86/86/86 87/87/87
f 89/89/89 88/88/88 87/87/87
f 90/90/90 88/88/88 89/89/89
f 91/91/91 90/90/90 89/89/89
f 92/92/92 90/90/90 91/91/91
f 93/93/93 92/92/92 91/91/91
f 94/94/94 92/92/92 93/93/93
f 95/95/95 94/94/94 93/93/93
f 96/96/96 94/94/94 95/95/95
f 97/97/97 96/96/96 95/95/95
f 98/98/98 96/96/96 97/97/97
f 101/101/101 100/100/100 99/99/99
f 102/102/102 100/100/100 101/101/101
f 104/104/104 99/99/99 103/103/103
f 101/101/101 99/99/99 104/104/104
f 106/106/106 103/103/103 105/105/105
f 104/104/104 103/103/103 106/106/106
f 108/108/108 105/105/105 107/107/107
f 106/106/106 105/105/105 108/108/108
f 110/110/110 107/107/107 109/109/109
f 108/108/108 107/107/107 110/110/110
f 112/112/112 109/109/109 111/111/111
f 110/110/110 109/109/109 112/112/112
f 114/114/114 111/111/111 113/113/113
f 112/112/112 111/111/111 114/114/114
f 116/116/116 113/113/113 115/115/115
f 114/114/114 113/113/113 116/116/116
f 118/118/118 115/115/115 117/117/117
f 116/116/116 115/115/115 118/118/118
f 120/120/120 117/117/117 119/119/119
f 118/118/118 117/117/117 120/120/120
f 121/121/121 120/120/120 119/119/119
f 122/122/122 120/120/120 121/121/121
f 123/123/123 122/122/122 121/121/121
f 124/124/124 122/122/122 123/123/123
f 125/125/125 124/124/124 123/123/123
f 126/126/126 124/124/124 125/125/125
f 127/127/127 126/126/126 125/125/125
f 128/128/128 126/126/126 127/127/127
f 129/129/129 128/128/128 127/127/127
f 130/130/130 128/128/128 129/129/129
f 131/131/131 130/130/130 129/129/129
f 132/132/132 130/130/130 131/131/131
f 133/133/133 132/132/132 131/131/131
f 134/134/134 132/132/132 133/133/133
f 136/136/136 133/133/133 135/135/135
f 134/134/134 133/133/133 136/136/136
f 138/138/138 135/135/135 137/137/137
f 136/136/136 135/135/135 138/138/138
f 140/140/140 137/137/137 139/139/139
f 138/138/138 137/137/137 140/140/140
f 142/142/142 139/139/139 141/141/141
f 140/140/140 139/139/139 142/142/142
f 144/144/144 141/141/141 143/143/143
f 142/142/142 141/141/141 144/144/144
f 146/146/146 143/143/143 145/145/145
f 144/144/144 143/143/143 146/146/146
f 148/148/148 145/145/145 147/147/147
f 146/146/146 145/145/145 148/148/148
f 150/150/150 147/147/147 149/149/149
f 148/148/148 147/147/147 150/150/150
f 151/151/151 150/150/150 149/149/149
f 152/152/152 150/150/150 151/151/151
f 153/153/153 152/152/152 151/151/151
f 154/154/154 152/152/152 153/153/153
f 157/157/157 156/156/156 155/155/155
f 158/158/158 156/156/156 157/157/157
f 159/159/159 158/158/158 157/157/157
f 160/160/160 158/158/158 159/159/159
f 161/161/161 160/160/160 159/159/159
f 162/162/162 160/160/160 161/161/161
f 163/163/163 162/162/162 161/161/161
f 164/164/164 162/162/162 163/163/163
f 165/165/165 164/164/164 163/163/163
f 166/166/166 164/164/164 165/165/165
f 167/167/167 166/166/166 165/165/165
f 168/168/168 166/166/166 167/167/167
f 169/169/169 168/168/168 167/167/167
f 170/170/170 168/168/168 169/169/169
f 171/171/171 170/170/170 169/169/169
f 172/172/172 170/170/170 171/171/171
f 173/173/173 172/172/172 171/171/171
f 174/174/174 172/172/172 173/173/173
f 175/175/175 174/174/174 173/173/173
f 176/176/176 174/174/174 175/175/175
f 177/177/177 176/176/176 175/175/175
f 178/178/178 176/176/176 177/177/177
f 179/179/179 178/178/178 177/177/177
f 180/180/180 178/178/178 179/179/179
f 181/181/181 180/180/180 179/179/179
f 182/182/182 180/180/180 181/181/181
f 183/183/183 182/182/182 181/181/181
f 184/184/184 182/182/182 183/183/183
f 185/185/185 184/184/184 183/183/183
f 186/186/186 184/184/184 185/185/185
f 187/187/187 186/186/186 185/185/185
f 188/188/188 186/186/186 187/187/187
f 189/189/189 188/188/188 187/187/187
f 190/190/190 188/188/188 189/189/189
f 191/191/191 190/190/190 189/189/189
f 192/192/192 190/190/190 191/191/191
f 193/193/193 192/192/192 191/191/191
f 194/194/194 192/192/192 193/193/193
f 195/195/195 194/194/194 193/193/193
f 196/196/196 194/194/194 195/195/195
f 199/199/199 198/198/198 197/197/197
f 200/200/200 198/198/198 199/199/199
f 202/202/202 197/197/197 201/201/201
f 199/199/199 197/197/197 202/202/202
f 204/204/204 201/201/201 203/203/203
f 202/202/202 201/201/201 204/204/204
f 206/206/206 203/203/203 205/205/205
f 204/204/204 203/203/203 206/206/206
f 208/208/208 205/205/205 207/207/207
f 206/206/206 205/205/205 208/208/208
f 210/210/210 207/207/207 209/209/209
f 208/208/208 207/207/207 210/210/210
f 212/212/212 209/209/209 211/211/211
f 210/210/210 209/209/209 212/212/212
f 214/214/214 211/211/211 213/213/213
f 212/212/212 211/211/211 214/214/214
f 216/216/216 213/213/213 215/215/215
f 214/214/214 213/213/213 216/216/216
f 218/218/218 215/215/215 217/217/217
f 216/216/216 215/215/215 218/218/218
f 219/219/219 218/218/218 217/217/217
f 220/220/220 218/218/218 219/219/219
f 221/221/221 220/220/220 219/219/219
f 222/222/222 220/220/220 221/221/221
f 223/223/223 222/222/222 221/221/221
f 224/224/224 222/222/222 223/223/223
f 225/225/225 224/224/224 223/223/223
f 226/226/226 224/224/224 225/225/225
f 227/227/227 226/226/226 225/225/225
f 228/228/228 226/226/226 227/227/227
f 229/229/229 228/228/228 227/227/227
f 230/230/230 228/228/228 229/229/229
f 231/231/231 230/230/230 229/229/229
f 232/232/232 230/230/230 231/231/231
f 234/234/234 231/231/231 233/233/233
f 232/232/232 231/231/231 234/234/234
f 236/236/236 233/233/233 235/235/235
f 234/234/234 233/233/233 236/236/236
f 238/238/238 235/235/235 237/237/237
f 236/236/236 235/235/235 238/238/238
f 240/240/240 237/237/237 239/239/239
f 238/238/238 237/237/237 240/240/240
f 242/242/242 239/239/239 241/241/241
f 240/240/240 239/239/239 242/242/242
f 244/244/244 241/241/241 243/243/243
f 242/242/242 241/241/241 244/244/244
f 246/246/246 243/243/243 245/245/245
f 244/244/244 243/243/243 246/246/246
f 248/248/248 245/245/245 247/247/247
f 246/246/246 245/245/245 248/248/248
f 249/249/249 248/248/248 247/247/247
f 250/250/250 248/248/248 249/249/249
f 251/251/251 250/250/250 249/249/249
f 252/252/252 250/250/250 251/251/251
f 255/255/255 254/254/254 253/253/253
f 256/256/256 254/254/254 255/255/255
f 257/257/257 256/256/256 255/255/255
f 258/258/258 256/256/256 257/257/257
f 259/259/259 258/258/258 257/257/257
f 260/260/260 258/258/258 259/259/259
f 261/261/261 260/260/260 259/259/259
f 262/262/262 260/260/260 261/261/261
f 263/263/263 262/262/262 261/261/261
f 264/264/264 262/262/262 263/263/263
f 265/265/265 264/264/264 263/263/263
f 266/266/266 264/264/264 265/265/265
f 267/267/267 266/266/266 265/265/265
f 268/268/268 266/266/266 267/267/267
f 269/269/269 268/268/268 267/267/267
f 270/270/270 268/268/268 269/269/269
f 271/271/271 270/270/270 269/269/269
f 272/272/272 270/270/270 271/271/271
f 273/273/273 272/272/272 271/271/271
f 274/274/274 272/272/272 273/273/273
f 275/275/275 274/274/274 273/273/273
f 276/276/276 274/274/274 275/275/275
f 277/277/277 276/276/276 275/275/275
f 278/278/278 276/276/276 277/277/277
f 279/279/279 278/278/278 277/277/277
f 280/280/280 278/278/278 279/279/279
f 281/281/281 280/280/280 279/279/279
f 282/282/282 280/280/280 281/281/281
f 283/283/283 282/282/282 281/281/281
f 284/284/284 282/282/282 283/283/283
f 285/285/285 284/284/284 283/283/283
f 286/286/286 284/284/284 285/285/285
f 287/287/287 286/286/286 285/285/285
f 288/288/288 286/286/286 287/287/287
f 289/289/289 288/288/288 287/287/287
f 290/290/290 288/288/288 289/289/289
f 291/291/291 290/290/290 289/289/289
f 292/292/292 290/290/290 291/291/291
f 293/293/293 292/292/292 291/291/291
f 294/294/294 292/292/292 293/293/293
f 295/295/295 200/200/200 199/199/199
f 296/296/296 200/200/200 295/295/295
f 297/297/297 199/199/199 202/202/202
f 295/295/295 199/199/199 297/297/297
f 298/298/298 202/202/202 204/204/204
f 297/297/297 202/202/202 298/298/298
f 299/299/299 204/204/204 206/206/206
f 298/298/298 204/204/204 299/299/299
f 300/300/300 206/206/206 208/208/208
f 299/299/299 206/206/206 300/300/300
f 301/301/301 208/208/208 210/210/210
f 300/300/300 208/208/208 301/301/301
f 302/302/302 210/210/210 212/212/212
f 301/301/301 210/210/210 302/302/302
f 303/303/303 212/212/212 214/214/214
f 302/302/302 212/212/212 303/303/303
f 304/304/304 214/214/214 216/216/216
f 303/303/303 214/214/214 304/304/304
f 305/305/305 216/216/216 218/218/218
f 304/304/304 216/216/216 305/305/305
f 218/218/218 306/306/306 305/305/305
f 220/220/220 306/306/306 218/218/218
f 220/220/220 307/307/307 306/306/306
f 222/222/222 307/307/307 220/220/220
f 222/222/222 308/308/308 307/307/307
f 224/224/224 308/308/308 222/222/222
f 224/224/224 309/309/309 308/308/308
f 226/226/226 309/309/309 224/224/224
f 226/226/226 310/310/310 309/309/309
f 228/228/228 310/310/310 226/226/226
f 228/228/228 311/311/311 310/310/310
f 230/230/230 311/311/311 228/228/228
f 230/230/230 312/312/312 311/311/311
f 232/232/232 312/312/312 230/230/230
f 313/313/313 232/232/232 234/234/234
f 312/312/312 232/232/232 313/313/313
f 314/314/314 234/234/234 236/236/236
f 313/313/313 234/234/234 314/314/314
f 315/315/315 236/236/236 238/238/238
f 314/314/314 236/236/236 315/315/315
f 316/316/316 238/238/238 240/240/240
f 315/315/315 238/238/238 316/316/316
f 317/317/317 240/240/240 242/242/242
f 316/316/316 240/240/240 317/317/317
f 318/318/318 242/242/242 244/244/244
f 317/317/317 242/242/242 318/318/318
f 319/319/319 244/244/244 246/246/246
f 318/318/318 244/244/244 319/319/319
f 320/320/320 246/246/246 248/248/248
f 319/319/319 246/246/246 320/320/320
f 248/248/248 321/321/321 320/320/320
f 250/250/250 321/321/321 248/248/248
f 250/250/250 322/322/322 321/321/321
f 252/252/252 322/322/322 250/250/250
f 254/254/254 324/324/324 323/323/323
f 256/256/256 324/324/324 254/254/254
f 256/256/256 325/325/325 324/324/324
f 258/258/258 325/325/325 256/256/256
f 258/258/258 326/326/326 325/325/325
f 260/260/260 326/326/326 258/258/258
f 260/260/260 327/327/327 326/326/326
f 262/262/262 327/327/327 260/260/260
f 262/262/262 328/328/328 327/327/327
f 264/264/264 328/328/328 262/262/262
f 264/264/264 329/329/329 328/328/328
f 266/266/266 329/329/329 264/264/264
f 266/266/266 330/330/330 329/329/329
f 268/268/268 330/330/330 266/266/266
f 268/268/268 331/331/331 330/330/330
f 270/270/270 331/331/331 268/268/268
f 270/270/270 332/332/332 331/331/331
f 272/272/272 332/332/332 270/270/270
f 272/272/272 333/333/333 332/332/332
f 274/274/274 333/333/333 272/272/272
f 274/274/274 334/334/334 333/333/333
f 276/276/276 334/334/334 274/274/274
f 276/276/276 335/335/335 334/334/334
f 278/278/278 335/335/335 276/276/276
f 278/278/278 336/336/336 335/335/335
f 280/280/280 336/336/336 278/278/278
f 280/280/280 337/337/337 336/336/336
f 282/282/282 337/337/337 280/280/280
f 282/282/282 338/338/338 337/337/337
f 284/284/284 338/338/338 282/282/282
f 284/284/284 339/339/339 338/338/338
f 286/286/286 339/339/339 284/284/284
f 286/286/286 340/340/340 339/339/339
f 288/288/288 340/340/340 286/286/286
f 288/288/288 341/341/341 340/340/340
f 290/290/290 341/341/341 288/288/288
f 290/290/290 342/342/342 341/341/341
f 292/292/292 342/342/342 290/290/290
f 292/292/292 343/343/343 342/342/342
f 294/294/294 343/343/343 292/292/292
f 197/197/197 102/102/102 101/101/101
f 198/198/198 102/102/102 197/197/197
f 201/201/201 101/101/101 104/104/104
f 197/197/197 101/101/101 201/201/201
f 203/203/203 104/104/104 106/106/106
f 201/201/201 104/104/104 203/203/203
f 205/205/205 106/106/106 108/108/108
f 203/203/203 106/106/106 205/205/205
f 207/207/207 108/108/108 110/110/110
f 205/205/205 108/108/108 207/207/207
f 209/209/209 110/110/110 112/112/112
f 207/207/207 110/110/110 209/209/209
f 211/211/211 112/112/112 114/114/114
f 209/209/209 112/112/112 211/211/211
f 213/213/213 114/114/114 116/116/116
f 211/211/211 114/114/114 213/213/213
f 215/215/215 116/116/116 118/118/118
f 213/213/213 116/116/116 215/215/215
f 217/217/217 118/118/118 120/120/120
f 215/215/215 118/118/118 217/217/217
f 120/120/120 219/219/219 217/217/217
f 122/122/122 219/219/219 120/120/120
f 122/122/122 221/221/221 219/219/219
f 124/124/124 221/221/221 122/122/122
f 124/124/124 223/223/223 221/221/221
f 126/126/126 223/223/223 124/124/124
f 126/126/126 225/225/225 223/223/223
f 128/128/128 225/225/225 126/126/126
f 128/128/128 227/227/227 225/225/225
f 130/130/130 227/227/227 128/128/128
f 130/130/130 229/229/229 227/227/227
f 132/132/132 229/229/229 130/130/130
f 132/132/132 231/231/231 229/229/229
f 134/134/134 231/231/231 132/132/132
f 233/233/233 134/134/134 136/136/136
f 231/231/231 134/134/134 233/233/233
f 235/235/235 136/136/136 138/138/138
f 233/233/233 136/136/136 235/235/235
f 237/237/237 138/138/138 140/140/140
f 235/235/235 138/138/138 237/237/237
f 239/239/239 140/140/140 142/142/142
f 237/237/237 140/140/140 239/239/239
f 241/241/241 142/142/142 144/144/144
f 239/239/239 142/142/142 241/241/241
f 243/243/243 144/144/144 146/146/146
f 241/241/241 144/144/144 243/243/243
f 245/245/245 146/146/146 148/148/148
f 243/243/243 146/146/146 245/245/245
f 247/247/247 148/148/148 150/150/150
f 245/245/245 148/148/148 247/247/247
f 150/150/150 249/249/249 247/247/247
f 152/152/152 249/249/249 150/150/150
f 152/152/152 251/251/251 249/249/249
f 154/154/154 251/251/251 152/152/152
f 156/156/156 255/255/255 253/253/253
f 158/158/158 255/255/255 156/156/156
f 158/158/158 257/257/257 255/255/255
f 160/160/160 257/257/257 158/158/158
f 160/160/160 259/259/259 257/257/257
f 162/162/162 259/259/259 160/160/160
f 162/162/162 261/261/261 259/259/259
f 164/164/164 261/261/261 162/162/162
f 164/164/164 263/263/263 261/261/261
f 166/166/166 263/263/263 164/164/164
f 166/166/166 265/265/265 263/263/263
f 168/168/168 265/265/265 166/166/166
f 168/168/168 267/267/267 265/265/265
f 170/170/170 267/267/267 168/168/168
f 170/170/170 269/269/269 267/267/267
f 172/172/172 269/269/269 170/170/170
f 172/172/172 271/271/271 269/269/269
f 174/174/174 271/271/271 172/172/172
f 174/174/174 273/273/273 271/271/271
f 176/176/176 273/273/273 174/174/174
f 176/176/176 275/275/275 273/273/273
f 178/178/178 275/275/275 176/176/176
f 178/178/178 277/277/277 275/275/275
f 180/180/180 277/277/277 178/178/178
f 180/180/180 279/279/279 277/277/277
f 182/182/182 279/279/279 180/180/180
f 182/182/182 281/281/281 279/279/279
f 184/184/184 281/281/281 182/182/182
f 184/184/184 283/283/283 281/281/281
f 186/186/186 283/283/283 184/184/184
f 186/186/186 285/285/285 283/283/283
f 188/188/188 285/285/285 186/186/186
f 188/188/188 287/287/287 285/285/285
f 190/190/190 287/287/287 188/188/188
f 190/190/190 289/289/289 287/287/287
f 192/192/192 289/289/289 190/190/190
f 192/192/192 291/291/291 289/289/289
f 194/194/194 291/291/291 192/192/192
f 194/194/194 293/293/293 291/291/291
f 196/196/196 293/293/293 194/194/194
f 346/346/346 345/345/345 344/344/344
f 347/347/347 345/345/345 346/346/346
f 349/349/349 344/344/344 348/348/348
f 346/346/346 344/344/344 349/349/349
f 351/351/351 348/348/348 350/350/350
f 349/349/349 348/348/348 351/351/351
f 353/353/353 350/350/350 352/352/352
f 351/351/351 350/350/350 353/353/353
f 355/355/355 352/352/352 354/354/354
f 353/353/353 352/352/352 355/355/355
f 357/357/357 354/354/354 356/356/356
f 355/355/355 354/354/354 357/357/357
f 359/359/359 356/356/356 358/358/358
f 357/357/357 356/356/356 359/359/359
f 361/361/361 358/358/358 360/360/360
f 359/359/359 358/358/358 361/361/361
f 363/363/363 360/360/360 362/362/362
f 361/361/361 360/360/360 363/363/363
f 365/365/365 362/362/362 364/364/364
f 363/363/363 362/362/362 365/365/365
f 366/366/366 365/365/365 364/364/364
f 367/367/367 365/365/365 366/366/366
f 368/368/368 367/367/367 366/366/366
f 369/369/369 367/367/367 368/368/368
f 370/370/370 369/369/369 368/368/368
f 371/371/371 369/369/369 370/370/370
f 372/372/372 371/371/371 370/370/370
f 373/373/373 371/371/371 372/372/372
f 374/374/374 373/373/373 372/372/372
f 375/375/375 373/373/373 374/374/374
f 376/376/376 375/375/375 374/374/374
f 377/377/377 375/375/375 376/376/376
f 378/378/378 377/377/377 376/376/376
f 379/379/379 377/377/377 378/378/378
f 381/381/381 378/378/378 380/380/380
f 379/379/379 378/378/378 381/381/381
f 383/383/383 380/380/380 382/382/382
f 381/381/381 380/380/380 383/383/383
f 385/385/385 382/382/382 384/384/384
f 383/383/383 382/382/382 385/385/385
f 387/387/387 384/384/384 386/386/386
f 385/385/385 384/384/384 387/387/387
f 389/389/389 386/386/386 388/388/388
f 387/387/387 386/386/386 389/389/389
f 391/391/391 388/388/388 390/390/390
f 389/389/389 388/388/388 391/391/391
f 393/393/393 390/390/390 392/392/392
f 391/391/391 390/390/390 393/393/393
f 395/395/395 392/392/392 394/394/394
f 393/393/393 392/392/392 395/395/395
f 396/396/396 395/395/395 394/394/394
f 397/397/397 395/395/395 396/396/396
f 398/398/398 397/397/397 396/396/396
f 399/399/399 397/397/397 398/398/398
f 402/402/402 401/401/401 400/400/400
f 403/403/403 401/401/401 402/402/402
f 404/404/404 403/403/403 402/402/402
f 405/405/405 403/403/403 404/404/404
f 406/406/406 405/405/405 404/404/404
f 407/407/407 405/405/405 406/406/406
f 408/408/408 407/407/407 406/406/406
f 409/409/409 407/407/407 408/408/408
f 410/410/410 409/409/409 408/408/408
f 411/411/411 409/409/409 410/410/410
f 412/412/412 411/411/411 410/410/410
f 413/413/413 411/411/411 412/412/412
f 414/414/414 413/413/413 412/412/412
f 415/415/415 413/413/413 414/414/414
f 416/416/416 415/415/415 414/414/414
f 417/417/417 415/415/415 416/416/416
f 418/418/418 417/417/417 416/416/416
f 419/419/419 417/417/417 418/418/418
f 420/420/420 419/419/419 418/418/418
f 421/421/421 419/419/419 420/420/420
f 422/422/422 421/421/421 420/420/420
f 423/423/423 421/421/421 422/422/422
f 424/424/424 423/423/423 422/422/422
f 425/425/425 423/423/423 424/424/424
f 426/426/426 425/425/425 424/424/424
f 427/427/427 425/425/425 426/426/426
f 428/428/428 427/427/427 426/426/426
f 429/429/429 427/427/427 428/428/428
f 430/430/430 429/429/429 428/428/428
f 431/431/431 429/429/429 430/430/430
f 432/432/432 431/431/431 430/430/430
f 433/433/433 431/431/431 432/432/432
f 434/434/434 433/433/433 432/432/432
f 435/435/435 433/433/433 434/434/434
f 436/436/436 435/435/435 434/434/434
f 437/437/437 435/435/435 436/436/436
f 438/438/438 437/437/437 436/436/436
f 439/439/439 437/437/437 438/438/438
f 440/440/440 439/439/439 438/438/438
f 441/441/441 439/439/439 440/440/440
f 99/99/99 347/347/347 346/346/346
f 100/100/100 347/347/347 99/99/99
f 103/103/103 346/346/346 349/349/349
f 99/99/99 346/346/346 103/103/103
f 105/105/105 349/349/349 351/351/351
f 103/103/103 349/349/349 105/105/105
f 107/107/107 351/351/351 353/353/353
f 105/105/105 351/351/351 107/107/107
f 109/109/109 353/353/353 355/355/355
f 107/107/107 353/353/353 109/109/109
f 111/111/111 355/355/355 357/357/357
f 109/109/109 355/355/355 111/111/111
f 113/113/113 357/357/357 359/359/359
f 111/111/111 357/357/357 113/113/113
f 115/115/115 359/359/359 361/361/361
f 113/113/113 359/359/359 115/115/115
f 117/117/117 361/361/361 363/363/363
f 115/115/115 361/361/361 117/117/117
f 119/119/119 363/363/363 365/365/365
f 117/117/117 363/363/363 119/119/119
f 365/365/365 121/121/121 119/119/119
f 367/367/367 121/121/121 365/365/365
f 367/367/367 123/123/123 121/121/121
f 369/369/369 123/123/123 367/367/367
f 369/369/369 125/125/125 123/123/123
f 371/371/371 125/125/125 369/369/369
f 371/371/371 127/127/127 125/125/125
f 373/373/373 127/127/127 371/371/371
f 373/373/373 129/129/129 127/127/127
f 375/375/375 129/129/129 373/373/373
f 375/375/375 131/131/131 129/129/129
f 377/377/377 131/131/131 375/375/375
f 377/377/377 133/133/133 131/131/131
f 379/379/379 133/133/133 377/377/377
f 135/135/135 379/379/379 381/381/381
f 133/133/133 379/379/379 135/135/135
f 137/137/137 381/381/381 383/383/383
f 135/135/135 381/381/381 137/137/137
f 139/139/139 383/383/383 385/385/385
f 137/137/137 383/383/383 139/139/139
f 141/141/141 385/385/385 387/387/387
f 139/139/139 385/385/385 141/141/141
f 143/143/143 387/387/387 389/389/389
f 141/141/141 387/387/387 143/143/143
f 145/145/145 389/389/389 391/391/391
f 143/143/143 389/389/389 145/145/145
f 147/147/147 391/391/391 393/393/393
f 145/145/145 391/391/391 147/147/147
f 149/149/149 393/393/393 395/395/395
f 147/147/147 393/393/393 149/149/149
f 395/395/395 151/151/151 149/149/149
f 397/397/397 151/151/151 395/395/395
f 397/397/397 153/153/153 151/151/151
f 399/399/399 153/153/153 397/397/397
f 401/401/401 157/157/157 155/155/155
f 403/403/403 157/157/157 401/401/401
f 403/403/403 159/159/159 157/157/157
f 405/405/405 159/159/159 403/403/403
f 405/405/405 161/161/161 159/159/159
f 407/407/407 161/161/161 405/405/405
f 407/407/407 163/163/163 161/161/161
f 409/409/409 163/163/163 407/407/407
f 409/409/409 165/165/165 163/163/163
f 411/411/411 165/165/165 409/409/409
f 411/411/411 167/167/167 165/165/165
f 413/413/413 167/167/167 411/411/411
f 413/413/413 169/169/169 167/167/167
f 415/415/415 169/169/169 413/413/413
f 415/415/415 171/171/171 169/169/169
f 417/417/417 171/171/171 415/415/415
f 417/417/417 173/173/173 171/171/171
f 419/419/419 173/173/173 417/417/417
f 419/419/419 175/175/175 173/173/173
f 421/421/421 175/175/175 419/419/419
f 421/421/421 177/177/177 175/175/175
f 423/423/423 177/177/177 421/421/421
f 423/423/423 179/179/179 177/177/177
f 425/425/425 179/179/179 423/423/423
f 425/425/425 181/181/181 179/179/179
f 427/427/427 181/181/181 425/425/425
f 427/427/427 183/183/183 181/181/181
f 429/429/429 183/183/183 427/427/427
f 429/429/429 185/185/185 183/183/183
f 431/431/431 185/185/185 429/429/429
f 431/431/431 187/187/187 185/185/185
f 433/433/433 187/187/187 431/431/431
f 433/433/433 189/189/189 187/187/187
f 435/435/435 189/189/189 433/433/433
f 435/435/435 191/191/191 189/189/189
f 437/437/437 191/191/191 435/435/435
f 437/437/437 193/193/193 191/191/191
f 439/439/439 193/193/193 437/437/437
f 439/439/439 195/195/195 193/193/193
f 441/441/441 195/195/195 439/439/439
f 344/344/344 4/4/4 3/3/3
f 345/345/345 4/4/4 344/344/344
f 348/348/348 3/3/3 6/6/6
f 344/344/344 3/3/3 348/348/348
f 350/350/350 6/6/6 8/8/8
f 348/348/348 6/6/6 350/350/350
f 352/352/352 8/8/8 10/10/10
f 350/350/350 8/8/8 352/352/352
f 354/354/354 10/10/10 12/12/12
f 352/352/352 10/10/10 354/354/354
f 356/356/356 12/12/12 14/14/14
f 354/354/354 12/12/12 356/356/356
f 358/358/358 14/14/14 16/16/16
f 356/356/356 14/14/14 358/358/358
f 360/360/360 16/16/16 18/18/18
f 358/358/358 16/16/16 360/360/360
f 362/362/362 18/18/18 20/20/20
f 360/360/360 18/18/18 362/362/362
f 364/364/364 20/20/20 22/22/22
f 362/362/362 20/20/20 364/364/364
f 22/22/22 366/366/366 364/364/364
f 24/24/24 366/366/366 22/22/22
f 24/24/24 368/368/368 366/366/366
f 26/26/26 368/368/368 24/24/24
f 26/26/26 370/370/370 368/368/368
f 28/28/28 370/370/370 26/26/26
f 28/28/28 372/372/372 370/370/370
f 30/30/30 372/372/372 28/28/28
f 30/30/30 374/374/374 372/372/372
f 32/32/32 374/374/374 30/30/30
f 32/32/32 376/376/376 374/374/374
f 34/34/34 376/376/376 32/32/32
f 34/34/34 378/378/378 376/376/376
f 36/36/36 378/378/378 34/34/34
f 380/380/380 36/36/36 38/38/38
f 378/378/378 36/36/36 380/380/380
f 382/382/382 38/38/38 40/40/40
f 380/380/380 38/38/38 382/382/382
f 384/384/384 40/40/40 42/42/42
f 382/382/382 40/40/40 384/384/384
f 386/386/386 42/42/42 44/44/44
f 384/384/384 42/42/42 386/386/386
f 388/388/388 44/44/44 46/46/46
f 386/386/386 44/44/44 388/388/388
f 390/390/390 46/46/46 48/48/48
f 388/388/388 46/46/46 390/390/390
f 392/392/392 48/48/48 50/50/50
f 390/390/390 48/48/48 392/392/392
f 394/394/394 50/50/50 52/52/52
f 392/392/392 50/50/50 394/394/394
f 52/52/52 396/396/396 394/394/394
f 54/54/54 396/396/396 52/52/52
f 54/54/54 398/398/398 396/396/396
f 56/56/56 398/398/398 54/54/54
f 58/58/58 402/402/402 400/400/400
f 60/60/60 402/402/402 58/58/58
f 60/60/60 404/404/404 402/402/402
f 62/62/62 404/404/404 60/60/60
f 62/62/62 406/406/406 404/404/404
f 64/64/64 406/406/406 62/62/62
f 64/64/64 408/408/408 406/406/406
f 66/66/66 408/408/408 64/64/64
f 66/66/66 410/410/410 408/408/408
f 68/68/68 410/410/410 66/66/66
f 68/68/68 412/412/412 410/410/410
f 70/70/70 412/412/412 68/68/68
f 70/70/70 414/414/414 412/412/412
f 72/72/72 414/414/414 70/70/70
f 72/72/72 416/416/416 414/414/414
f 74/74/74 416/416/416 72/72/72
f 74/74/74 418/418/418 416/416/416
f 76/76/76 418/418/418 74/74/74
f 76/76/76 420/420/420 418/418/418
f 78/78/78 420/420/420 76/76/76
f 78/78/78 422/422/422 420/420/420
f 80/80/80 422/422/422 78/78/78
f 80/80/80 424/424/424 422/422/422
f 82/82/82 424/424/424 80/80/80
f 82/82/82 426/426/426 424/424/424
f 84/84/84 426/426/426 82/82/82
f 84/84/84 428/428/428 426/426/426
f 86/86/86 428/428/428 84/84/84
f 86/86/86 430/430/430 428/428/428
f 88/88/88 430/430/430 86/86/86
f 88/88/88 432/432/432 430/430/430
f 90/90/90 432/432/432 88/88/88
f 90/90/90 434/434/434 432/432/432
f 92/92/92 434/434/434 90/90/90
f 92/92/92 436/436/436 434/434/434
f 94/94/94 436/436/436 92/92/92
f 94/94/94 438/438/438 436/436/436
f 96/96/96 438/438/438 94/94/94
f 96/96/96 440/440/440 438/438/438
f 98/98/98 440/440/440 96/96/96
f 444/444/444 443/443/443 442/442/442
f 445/445/445 443/443/443 444/444/444
f 448/448/448 447/447/447 446/446/446
f 449/449/449 447/447/447 448/448/448
f 450/450/450 449/449/449 448/448/448
f 451/451/451 449/449/449 450/450/450
f 454/454/454 453/453/453 452/452/452
f 455/455/455 453/453/453 454/454/454
f 456/456/456 452/452/452 453/453/453
f 457/457/457 452/452/452 456/456/456
f 458/458/458 457/457/457 456/456/456
f 459/459/459 457/457/457 458/458/458
f 445/445/445 459/459/459 458/458/458
f 444/444/444 459/459/459 445/445/445
f 455/455/455 451/451/451 450/450/450
f 454/454/454 451/451/451 455/455/455
f 447/447/447 56/56/56 55/55/55
f 449/449/449 56/56/56 447/447/447
f 57/57/57 448/448/448 446/446/446
f 58/58/58 448/448/448 57/57/57
f 452/452/452 154/154/154 153/153/153
f 457/457/457 154/154/154 452/452/452
f 155/155/155 456/456/456 453/453/453
f 156/156/156 456/456/456 155/155/155
f 459/459/459 252/252/252 251/251/251
f 444/444/444 252/252/252 459/459/459
f 253/253/253 445/445/445 458/458/458
f 254/254/254 445/445/445 253/253/253
f 252/252/252 442/442/442 322/322/322
f 444/444/444 442/442/442 252/252/252
f 445/445/445 323/323/323 443/443/443
f 254/254/254 323/323/323 445/445/445
f 154/154/154 459/459/459 251/251/251
f 457/457/457 459/459/459 154/154/154
f 456/456/456 253/253/253 458/458/458
f 156/156/156 253/253/253 456/456/456
f 451/451/451 399/399/399 398/398/398
f 454/454/454 399/399/399 451/451/451
f 400/400/400 455/455/455 450/450/450
f 401/401/401 455/455/455 400/400/400
f 399/399/399 452/452/452 153/153/153
f 454/454/454 452/452/452 399/399/399
f 455/455/455 155/155/155 453/453/453
f 401/401/401 155/155/155 455/455/455
f 56/56/56 451/451/451 398/398/398
f 449/449/449 451/451/451 56/56/56
f 448/448/448 400/400/400 450/450/450
f 58/58/58 400/400/400 448/448/448
