# Exported from Godot Engine
mtllib Charging_Animation_Geo_CCS2_V3.mtl
o Charging_Animation_Geo_CCS2_V3
v 0.000000 0.799590 0.507461
vt -0.017517 0.459961
vn -0.000020 0.893635 0.448794
v 0.000000 0.810854 0.537032
vt -0.004990 0.459961
vn -0.000021 0.878361 0.477998
v 0.008348 0.802643 0.505977
vt -0.017517 0.457031
vn -0.024134 0.892538 0.450326
v 0.008336 0.814022 0.535818
vt -0.004990 0.457031
vn -0.016552 0.879831 0.474998
v 0.000000 0.788124 0.483165
vt -0.028290 0.459961
vn -0.000020 0.921070 0.389397
v 0.008347 0.790973 0.481368
vt -0.028290 0.457031
vn -0.037609 0.921195 0.387280
v 0.000000 0.774198 0.461902
vt -0.038727 0.459961
vn -0.000019 0.942782 0.333410
v 0.008347 0.776772 0.459613
vt -0.038727 0.457031
vn -0.042924 0.943435 0.328766
v 0.000000 0.755654 0.440151
vt -0.050049 0.459961
vn -0.000019 0.959253 0.282548
v 0.008347 0.758030 0.437577
vt -0.050049 0.457031
vn -0.041762 0.959637 0.278123
v 0.000000 0.734424 0.420826
vt -0.061340 0.459961
vn -0.000018 0.972133 0.234431
v 0.008346 0.736553 0.418008
vt -0.061340 0.457031
vn -0.027397 0.972145 0.232774
v 0.000000 0.707436 0.404756
vt -0.073853 0.459961
vn -0.000018 0.981637 0.190760
v 0.008344 0.709075 0.401588
vt -0.073853 0.457031
vn -0.013835 0.981012 0.193453
v 0.000000 0.678800 0.391154
vt -0.086060 0.459961
vn -0.000017 0.987416 0.158145
v 0.008343 0.680213 0.387851
vt -0.086060 0.457031
vn -0.020804 0.987549 0.155931
v 0.000000 0.647092 0.378062
vt -0.099304 0.459961
vn -0.000017 0.991720 0.128416
v 0.008342 0.648207 0.374627
vt -0.099304 0.457031
vn -0.034690 0.991571 0.124831
v 0.000000 0.617235 0.367144
vt -0.111328 0.459961
vn -0.000017 0.994487 0.104862
v 0.008340 0.618240 0.363657
vt -0.111328 0.457031
vn -0.042176 0.993907 0.101837
v 0.000000 0.590038 0.358351
vt -0.122009 0.459961
vn -0.000016 0.996698 0.081204
v 0.008340 0.591016 0.354844
vt -0.122009 0.457031
vn -0.049280 0.995504 0.080885
v 0.000000 0.542449 0.343980
vt -0.140381 0.459961
vn -0.000016 0.997515 0.070449
v 0.008338 0.543500 0.340479
vt -0.140381 0.457031
vn -0.056534 0.995900 0.070620
v 0.000000 0.494854 0.329756
vt -0.158813 0.459961
vn -0.000016 0.997979 0.063545
v 0.008337 0.495866 0.326255
vt -0.158813 0.457031
vn -0.056772 0.996566 0.060273
v 0.000000 0.447008 0.317268
vt -0.177368 0.459961
vn -0.000016 0.997979 0.063545
v 0.008336 0.447915 0.313777
vt -0.177368 0.457031
vn -0.049841 0.996700 0.064076
v 0.000000 0.397456 0.303550
vt -0.196533 0.459961
vn -0.000016 0.997752 0.067022
v 0.008335 0.398364 0.300121
vt -0.196533 0.457031
vn -0.049841 0.996700 0.064076
v 0.000000 0.348167 0.290647
vt -0.215698 0.459961
vn -0.000016 0.996746 0.080603
v 0.008333 0.349094 0.287305
vt -0.215698 0.457031
vn -0.035853 0.996242 0.078843
v 0.000000 0.299036 0.277154
vt -0.234985 0.459961
vn -0.000017 0.995143 0.098438
v 0.008332 0.300072 0.273928
vt -0.234985 0.457031
vn -0.021481 0.994737 0.100184
v 0.000000 0.254634 0.263495
vt -0.252930 0.459961
vn -0.000017 0.992976 0.118312
v 0.008332 0.255660 0.260175
vt -0.252930 0.457031
vn -0.014261 0.992978 0.117436
v 0.000000 0.225710 0.254054
vt -0.264648 0.459961
vn -0.000017 0.989952 0.141407
v 0.008333 0.226745 0.250904
vt -0.264648 0.457031
vn -0.000017 0.989952 0.141407
v 0.000000 0.204409 0.246281
vt -0.273193 0.459961
vn -0.000017 0.987879 0.155224
v 0.008333 0.205568 0.243172
vt -0.273193 0.457031
vn -0.000017 0.988495 0.151256
v 0.000000 0.182403 0.238420
vt -0.282227 0.459961
vn -0.000018 0.985134 0.171789
v 0.008333 0.183691 0.235360
vt -0.282227 0.457031
vn 0.013948 0.987490 0.157066
v 0.000000 0.163336 0.230651
vt -0.290039 0.459961
vn -0.000018 0.982152 0.188088
v 0.008333 0.164757 0.227646
vt -0.290039 0.457031
vn 0.013905 0.985238 0.170623
v 0.000000 0.146322 0.223247
vt -0.296875 0.459961
vn -0.000018 0.978954 0.204080
v 0.008332 0.147880 0.220307
vt -0.296875 0.457031
vn 0.027602 0.983978 0.176142
v 0.000000 0.132311 0.216766
vt -0.302979 0.459961
vn -0.000018 0.975195 0.221346
v 0.008332 0.133893 0.213833
vt -0.302979 0.457031
vn 0.034186 0.981550 0.188124
v 0.000000 0.118285 0.209680
vt -0.308838 0.459961
vn -0.000019 0.970141 0.242540
v 0.008332 0.119912 0.206765
vt -0.308838 0.457031
vn 0.027296 0.976920 0.211854
v 0.000000 0.105489 0.201802
vt -0.314453 0.459961
vn -0.000019 0.962314 0.271941
v 0.008329 0.107227 0.198947
vt -0.314453 0.457031
vn 0.027384 0.969570 0.243277
v 0.000000 0.089991 0.190269
vt -0.321533 0.459961
vn -0.000019 0.951477 0.307718
v 0.008325 0.092077 0.187642
vt -0.321533 0.457031
vn 0.020810 0.958371 0.284767
v 0.000035 0.076045 0.176894
vt -0.328125 0.459961
vn -0.000020 0.933152 0.359481
v 0.008358 0.078558 0.174640
vt -0.328125 0.457031
vn 0.021480 0.942554 0.333361
v 0.001391 0.042269 0.122564
vt -0.351318 0.459961
vn -0.037277 0.828602 0.558596
v 0.009699 0.045720 0.121313
vt -0.351318 0.457031
vn 0.069097 0.872466 0.483766
v 0.003404 0.028569 0.083097
vt -0.365967 0.459961
vn -0.069160 0.809776 0.582649
v 0.011668 0.032212 0.082914
vt -0.365967 0.457031
vn 0.018653 0.821676 0.569650
v 0.006727 0.018390 0.035013
vt -0.384033 0.459961
vn -0.093074 0.790912 0.604810
v 0.014931 0.022130 0.035685
vt -0.384033 0.457031
vn -0.019904 0.790790 0.611764
v 0.011668 0.009191 -0.018111
vt -0.404053 0.459961
vn -0.127460 0.785777 0.605234
v 0.019813 0.012977 -0.016774
vt -0.404053 0.457031
vn -0.051231 0.783327 0.619495
v 0.018348 0.002270 -0.080867
vt -0.427979 0.459961
vn -0.140073 0.780989 0.608634
v 0.026445 0.006073 -0.079092
vt -0.427979 0.457031
vn -0.117073 0.782200 0.611929
v 0.026350 0.000894 -0.149529
vt -0.454102 0.459961
vn -0.163501 0.779294 0.604953
v 0.034416 0.004701 -0.147500
vt -0.454102 0.457031
vn -0.153049 0.775920 0.611984
v 0.035162 0.000110 -0.222103
vt -0.481934 0.459961
vn -0.164920 0.774982 0.610085
v 0.043211 0.003918 -0.219943
vt -0.481934 0.457031
vn -0.164920 0.774982 0.610085
v 0.044270 -0.000249 -0.296560
vt -0.510254 0.459961
vn -0.164920 0.774982 0.610085
v 0.052312 0.003557 -0.294358
vt -0.510254 0.457031
vn -0.154342 0.771519 0.617201
v 0.053157 -0.000350 -0.370850
vt -0.538574 0.459961
vn -0.154342 0.771519 0.617201
v 0.061204 0.003454 -0.368689
vt -0.538574 0.457031
vn -0.154342 0.771519 0.617201
v 0.061311 -0.000355 -0.442961
vt -0.565918 0.459961
vn -0.143681 0.767903 0.624245
v 0.069373 0.003447 -0.440931
vt -0.565918 0.457031
vn -0.143681 0.767903 0.624245
v 0.068317 -0.000355 -0.512390
vt -0.592773 0.459961
vn -0.122102 0.760196 0.638117
v 0.076405 0.003446 -0.510611
vt -0.592773 0.457031
vn -0.122102 0.760196 0.638117
v 0.073872 -0.000355 -0.580410
vt -0.618652 0.459961
vn -0.089264 0.747490 0.658248
v 0.081992 0.003445 -0.579008
vt -0.618652 0.457031
vn -0.089264 0.747490 0.658248
v 0.077675 -0.000355 -0.648372
vt -0.644531 0.459961
vn -0.056026 0.733442 0.677439
v 0.085826 0.003444 -0.647465
vt -0.644531 0.457031
vn -0.056026 0.733442 0.677439
v 0.079427 -0.000355 -0.717629
vt -0.670898 0.459961
vn -0.011244 0.712651 0.701429
v 0.087597 0.003442 -0.717305
vt -0.670898 0.457031
vn -0.011244 0.712651 0.701429
v 0.078828 -0.000355 -0.789535
vt -0.698242 0.459961
vn 0.033619 0.723306 0.689709
v 0.086998 0.003439 -0.789839
vt -0.698242 0.457031
vn 0.033619 0.723306 0.689709
v 0.075511 -0.000355 -0.865849
vt -0.727539 0.459961
vn 0.078201 0.742946 0.664767
v 0.083657 0.003435 -0.866807
vt -0.727539 0.457031
vn 0.078201 0.742946 0.664767
v 0.068418 -0.000355 -0.952320
vt -0.760742 0.459961
vn 0.132849 0.764098 0.631272
v 0.076511 0.003430 -0.953981
vt -0.760742 0.457031
vn 0.132849 0.764098 0.631272
v 0.056101 -0.000355 -1.056952
vt -0.801270 0.459961
vn 0.176688 0.778686 0.602022
v 0.064129 0.003423 -1.059213
vt -0.801270 0.457031
vn 0.176688 0.778686 0.602022
v 0.037113 -0.000355 -1.187781
vt -0.851562 0.459961
vn 0.207826 0.787720 0.579918
v 0.045080 0.003416 -1.190479
vt -0.851562 0.457031
vn 0.207826 0.787720 0.579918
v 0.010001 -0.000355 -1.352846
vt -0.915039 0.459961
vn 0.228094 0.792992 0.564922
v 0.017922 0.003408 -1.355837
vt -0.915039 0.457031
vn 0.218048 0.790440 0.572416
v -0.026592 -0.000348 -1.560202
vt -0.995605 0.459961
vn 0.238061 0.795404 0.557368
v -0.018749 0.003449 -1.563374
vt -0.995605 0.457031
vn 0.228094 0.792992 0.564922
v 0.000000 0.820376 0.497379
vt -0.017517 0.446777
vn -0.000020 0.893635 0.448794
v 0.000000 0.832488 0.528740
vt -0.004990 0.446777
vn -0.000021 0.878361 0.477998
v -0.008326 0.817340 0.498849
vt -0.017517 0.443359
vn -0.023978 0.894174 0.447077
v -0.008337 0.829320 0.529954
vt -0.004990 0.443359
vn -0.008314 0.877244 0.479972
v 0.000000 0.807744 0.470906
vt -0.028290 0.446777
vn -0.000020 0.919137 0.393939
v -0.008324 0.804909 0.472683
vt -0.028290 0.443359
vn -0.037788 0.921968 0.385417
v 0.000000 0.791780 0.446366
vt -0.038727 0.446777
vn -0.000020 0.941244 0.337727
v -0.008324 0.789206 0.448627
vt -0.038727 0.443359
vn -0.035834 0.942180 0.333187
v 0.000000 0.771895 0.422689
vt -0.050049 0.446777
vn -0.000019 0.958018 0.286708
v -0.008324 0.769469 0.425242
vt -0.050049 0.443359
vn -0.041762 0.959637 0.278123
v 0.000000 0.748998 0.401708
vt -0.061340 0.446777
vn -0.000018 0.971153 0.238455
v -0.008325 0.746855 0.404490
vt -0.061340 0.443359
vn -0.027397 0.972145 0.232774
v 0.000000 0.718694 0.383234
vt -0.073853 0.446777
vn -0.000018 0.980850 0.194764
v -0.008327 0.717036 0.386369
vt -0.073853 0.443359
vn -0.013835 0.981012 0.193453
v 0.000000 0.688531 0.368704
vt -0.086060 0.446777
vn -0.000017 0.987416 0.158145
v -0.008329 0.687095 0.371975
vt -0.086060 0.443359
vn -0.020804 0.987549 0.155931
v 0.000000 0.654800 0.354694
vt -0.099304 0.446777
vn -0.000017 0.991720 0.128416
v -0.008330 0.653657 0.358102
vt -0.099304 0.443359
vn -0.034930 0.991456 0.125675
v 0.000000 0.624197 0.343418
vt -0.111328 0.446777
vn -0.000017 0.994487 0.104862
v -0.008332 0.623163 0.346881
vt -0.111328 0.443359
vn -0.042176 0.993907 0.101837
v 0.000000 0.596815 0.334486
vt -0.122009 0.446777
vn -0.000016 0.996698 0.081204
v -0.008333 0.595808 0.337969
vt -0.122009 0.443359
vn -0.049280 0.995504 0.080885
v 0.000000 0.549716 0.320151
vt -0.140381 0.446777
vn -0.000016 0.997515 0.070449
v -0.008334 0.548639 0.323630
vt -0.140381 0.443359
vn -0.056534 0.995900 0.070620
v 0.000000 0.501838 0.305914
vt -0.158813 0.446777
vn -0.000016 0.997979 0.063545
v -0.008336 0.500804 0.309396
vt -0.158813 0.443359
vn -0.056772 0.996566 0.060273
v 0.000000 0.453259 0.293475
vt -0.177368 0.446777
vn -0.000016 0.997979 0.063545
v -0.008337 0.452335 0.296953
vt -0.177368 0.443359
vn -0.050047 0.996899 0.060729
v 0.000000 0.403689 0.280167
vt -0.196533 0.446777
vn -0.000016 0.997752 0.067022
v -0.008338 0.402771 0.283587
vt -0.196533 0.443359
vn -0.042875 0.996771 0.067887
v 0.000000 0.354521 0.267834
vt -0.215698 0.446777
vn -0.000016 0.996746 0.080603
v -0.008339 0.353588 0.271173
vt -0.215698 0.443359
vn -0.028784 0.996156 0.082736
v 0.000000 0.306124 0.255115
vt -0.234985 0.446777
vn -0.000017 0.995143 0.098438
v -0.008341 0.305084 0.258344
vt -0.234985 0.443359
vn -0.021331 0.994809 0.099503
v 0.000000 0.260979 0.241582
vt -0.252930 0.446777
vn -0.000017 0.992976 0.118312
v -0.008341 0.260065 0.244776
vt -0.252930 0.443359
vn -0.014261 0.992978 0.117436
v 0.000000 0.232786 0.232524
vt -0.264648 0.446777
vn -0.000017 0.989952 0.141407
v -0.008339 0.231749 0.235680
vt -0.264648 0.443359
vn -0.000017 0.989952 0.141407
v 0.000000 0.212333 0.225032
vt -0.273193 0.446777
vn -0.000017 0.987879 0.155224
v -0.008340 0.211171 0.228147
vt -0.273193 0.443359
vn -0.000017 0.988495 0.151256
v 0.000000 0.191205 0.217499
vt -0.282227 0.446777
vn -0.000018 0.985134 0.171789
v -0.008340 0.189914 0.220566
vt -0.282227 0.443359
vn 0.013948 0.987490 0.157066
v 0.000000 0.173047 0.210110
vt -0.290039 0.446777
vn -0.000018 0.982152 0.188088
v -0.008340 0.171623 0.213121
vt -0.290039 0.443359
vn 0.013905 0.985238 0.170623
v 0.000000 0.156976 0.203146
vt -0.296875 0.446777
vn -0.000018 0.978954 0.204080
v -0.008340 0.155414 0.206093
vt -0.296875 0.443359
vn 0.027430 0.984201 0.174918
v 0.000000 0.143131 0.196715
vt -0.302979 0.446777
vn -0.000018 0.975195 0.221346
v -0.008340 0.141544 0.199655
vt -0.302979 0.443359
vn 0.034186 0.981550 0.188124
v 0.000000 0.129415 0.189753
vt -0.308838 0.446777
vn -0.000019 0.970141 0.242540
v -0.008341 0.127782 0.192675
vt -0.308838 0.443359
vn 0.027296 0.976920 0.211854
v 0.000000 0.117389 0.182271
vt -0.314453 0.446777
vn -0.000019 0.961653 0.274270
v -0.008344 0.115641 0.185137
vt -0.314453 0.443359
vn 0.027384 0.969570 0.243277
v 0.000000 0.104290 0.172274
vt -0.321533 0.446777
vn -0.000019 0.950774 0.309884
v -0.008348 0.102187 0.174917
vt -0.321533 0.443359
vn 0.020951 0.957796 0.286684
v 0.000032 0.093164 0.161338
vt -0.328125 0.446777
vn -0.000020 0.933152 0.359481
v -0.008316 0.090626 0.163607
vt -0.328125 0.443359
vn 0.021480 0.942554 0.333361
v 0.001224 0.064688 0.110820
vt -0.351318 0.446777
vn -0.037844 0.822606 0.567351
v -0.007090 0.061217 0.112051
vt -0.351318 0.443359
vn 0.060698 0.867153 0.494329
v 0.003046 0.051773 0.075806
vt -0.365967 0.446777
vn -0.069690 0.806340 0.587332
v -0.005224 0.048114 0.075983
vt -0.365967 0.443359
vn 0.018505 0.824673 0.565307
v 0.006162 0.041793 0.030623
vt -0.384033 0.446777
vn -0.093074 0.790912 0.604810
v -0.002044 0.038041 0.029948
vt -0.384033 0.443359
vn -0.019756 0.794475 0.606976
v 0.010941 0.032703 -0.020689
vt -0.404053 0.446777
vn -0.127460 0.785777 0.605234
v 0.002796 0.028911 -0.022027
vt -0.404053 0.443359
vn -0.051231 0.783327 0.619495
v 0.017513 0.025807 -0.082470
vt -0.427979 0.446777
vn -0.140073 0.780989 0.608634
v 0.009416 0.022000 -0.084245
vt -0.427979 0.443359
vn -0.117073 0.782200 0.611929
v 0.025439 0.024430 -0.150513
vt -0.454102 0.446777
vn -0.153049 0.775920 0.611984
v 0.017373 0.020620 -0.152541
vt -0.454102 0.443359
vn -0.153049 0.775920 0.611984
v 0.034198 0.023635 -0.222681
vt -0.481934 0.446777
vn -0.164920 0.774982 0.610085
v 0.026149 0.019826 -0.224842
vt -0.481934 0.443359
vn -0.154342 0.771519 0.617201
v 0.043270 0.023260 -0.296877
vt -0.510254 0.446777
vn -0.164920 0.774982 0.610085
v 0.035227 0.019453 -0.299079
vt -0.510254 0.443359
vn -0.154342 0.771519 0.617201
v 0.052138 0.023142 -0.371021
vt -0.538574 0.446777
vn -0.154342 0.771519 0.617201
v 0.044089 0.019338 -0.373181
vt -0.538574 0.443359
vn -0.154342 0.771519 0.617201
v 0.060285 0.023120 -0.443083
vt -0.565918 0.446777
vn -0.143681 0.767903 0.624245
v 0.052221 0.019319 -0.445113
vt -0.565918 0.443359
vn -0.143681 0.767903 0.624245
v 0.067288 0.023104 -0.512490
vt -0.592773 0.446777
vn -0.122102 0.760196 0.638117
v 0.059197 0.019305 -0.514270
vt -0.592773 0.443359
vn -0.122102 0.760196 0.638117
v 0.072838 0.023088 -0.580470
vt -0.618652 0.446777
vn -0.089264 0.747490 0.658248
v 0.064713 0.019291 -0.581870
vt -0.618652 0.443359
vn -0.089264 0.747490 0.658248
v 0.076637 0.023072 -0.648376
vt -0.644531 0.446777
vn -0.056026 0.733442 0.677439
v 0.068480 0.019278 -0.649283
vt -0.644531 0.443359
vn -0.044840 0.728449 0.683631
v 0.078386 0.023056 -0.717569
vt -0.670898 0.446777
vn -0.011244 0.712651 0.701429
v 0.070210 0.019264 -0.717893
vt -0.670898 0.443359
vn -0.011244 0.712651 0.701429
v 0.077788 0.023040 -0.789403
vt -0.698242 0.446777
vn 0.033619 0.723306 0.689709
v 0.069612 0.019251 -0.789100
vt -0.698242 0.443359
vn 0.033619 0.723306 0.689709
v 0.074474 0.023022 -0.865642
vt -0.727539 0.446777
vn 0.078201 0.742946 0.664767
v 0.066321 0.019237 -0.864684
vt -0.727539 0.443359
vn 0.078201 0.742946 0.664767
v 0.067387 0.023002 -0.952035
vt -0.760742 0.446777
vn 0.132849 0.764098 0.631272
v 0.059287 0.019222 -0.950375
vt -0.760742 0.443359
vn 0.132849 0.764098 0.631272
v 0.055079 0.022978 -1.056604
vt -0.801270 0.446777
vn 0.176688 0.778686 0.602022
v 0.047046 0.019203 -1.054344
vt -0.801270 0.443359
vn 0.176688 0.778686 0.602022
v 0.036099 0.022948 -1.187392
vt -0.851562 0.446777
vn 0.207826 0.787720 0.579918
v 0.028128 0.019179 -1.184697
vt -0.851562 0.443359
vn 0.207826 0.787720 0.579918
v 0.008994 0.022909 -1.352439
vt -0.915039 0.446777
vn 0.228094 0.792992 0.564922
v 0.001071 0.019148 -1.349450
vt -0.915039 0.443359
vn 0.218048 0.790440 0.572416
v -0.027595 0.022862 -1.559798
vt -0.995605 0.446777
vn 0.238061 0.795404 0.557368
v -0.035533 0.019151 -1.556609
vt -0.995605 0.443359
vn 0.228094 0.792992 0.564922
v -0.011789 0.810000 0.502406
vt -0.017517 0.439941
vn -0.000021 0.881000 0.473116
v -0.011789 0.821671 0.532886
vt -0.004990 0.439941
vn -0.000021 0.869781 0.493437
v -0.008348 0.802643 0.505977
vt -0.017517 0.437012
vn 0.024092 0.892522 0.450360
v -0.008336 0.814022 0.535818
vt -0.004990 0.437012
vn 0.016510 0.879814 0.475031
v -0.011789 0.797946 0.477014
vt -0.028290 0.439941
vn -0.000020 0.905001 0.425409
v -0.008347 0.790973 0.481368
vt -0.028290 0.437012
vn 0.037567 0.921181 0.387315
v -0.011789 0.782989 0.454106
vt -0.038727 0.439941
vn -0.000020 0.927698 0.373331
v -0.008347 0.776772 0.459613
vt -0.038727 0.437012
vn 0.042884 0.943424 0.328803
v -0.011789 0.763722 0.431400
vt -0.050049 0.439941
vn -0.000019 0.946528 0.322623
v -0.008347 0.758030 0.437577
vt -0.050049 0.437012
vn 0.041723 0.959628 0.278160
v -0.011789 0.741692 0.411233
vt -0.061340 0.439941
vn -0.000019 0.965246 0.261343
v -0.008346 0.736553 0.418008
vt -0.061340 0.437012
vn 0.027360 0.972137 0.232810
v -0.011789 0.713046 0.393962
vt -0.073853 0.439941
vn -0.000018 0.978107 0.208104
v -0.008344 0.709075 0.401588
vt -0.073853 0.437012
vn 0.013799 0.981005 0.193489
v -0.011789 0.683642 0.379898
vt -0.086060 0.439941
vn -0.000018 0.983926 0.178578
v -0.008343 0.680213 0.387851
vt -0.086060 0.437012
vn 0.020768 0.987544 0.155965
v -0.011789 0.650918 0.366351
vt -0.099304 0.439941
vn -0.000018 0.986955 0.160998
v -0.008342 0.648207 0.374627
vt -0.099304 0.437012
vn 0.034655 0.991568 0.124866
v -0.011789 0.620687 0.355257
vt -0.111328 0.439941
vn -0.000017 0.989521 0.144390
v -0.008340 0.618240 0.363657
vt -0.111328 0.437012
vn 0.042141 0.993905 0.101872
v -0.011789 0.593397 0.346395
vt -0.122009 0.439941
vn -0.000017 0.990916 0.134479
v -0.008340 0.591016 0.354844
vt -0.122009 0.437012
vn 0.049245 0.995503 0.080919
v -0.011789 0.546057 0.332044
vt -0.140381 0.439941
vn -0.000017 0.991720 0.128416
v -0.008338 0.543500 0.340479
vt -0.140381 0.437012
vn 0.056500 0.995899 0.070655
v -0.011789 0.498325 0.317817
vt -0.158813 0.439941
vn -0.000017 0.992605 0.121388
v -0.008337 0.495866 0.326255
vt -0.158813 0.437012
vn 0.056738 0.996566 0.060307
v -0.011789 0.450117 0.305358
vt -0.177368 0.439941
vn -0.000017 0.993345 0.115176
v -0.008336 0.447915 0.313777
vt -0.177368 0.437012
vn 0.049807 0.996699 0.064110
v -0.011789 0.400562 0.291850
vt -0.196533 0.439941
vn -0.000017 0.993345 0.115176
v -0.008335 0.398364 0.300121
vt -0.196533 0.437012
vn 0.049807 0.996699 0.064110
v -0.011789 0.351338 0.279237
vt -0.215698 0.439941
vn -0.000017 0.993345 0.115176
v -0.008333 0.349094 0.287305
vt -0.215698 0.437012
vn 0.035819 0.996241 0.078877
v -0.011789 0.302577 0.266138
vt -0.234985 0.439941
vn -0.000017 0.992222 0.124477
v -0.008332 0.300072 0.273928
vt -0.234985 0.437012
vn 0.021447 0.994734 0.100218
v -0.011789 0.257861 0.252479
vt -0.252930 0.439941
vn -0.000017 0.991322 0.131460
v -0.008332 0.255660 0.260175
vt -0.252930 0.437012
vn 0.014227 0.992975 0.117470
v -0.011789 0.229246 0.243295
vt -0.264648 0.439941
vn -0.000017 0.989521 0.144390
v -0.008333 0.226745 0.250904
vt -0.264648 0.437012
vn -0.000017 0.989952 0.141407
v -0.011789 0.208368 0.235663
vt -0.273193 0.439941
vn -0.000017 0.988495 0.151256
v -0.008333 0.205568 0.243172
vt -0.273193 0.437012
vn -0.000017 0.988495 0.151256
v -0.011789 0.186801 0.227966
vt -0.282227 0.439941
vn -0.000017 0.987416 0.158145
v -0.008333 0.183691 0.235360
vt -0.282227 0.437012
vn -0.013983 0.987495 0.157031
v -0.011789 0.168188 0.220387
vt -0.290039 0.439941
vn -0.000018 0.985336 0.170623
v -0.008333 0.164757 0.227646
vt -0.290039 0.437012
vn -0.013941 0.985244 0.170588
v -0.011789 0.151645 0.213203
vt -0.296875 0.439941
vn -0.000018 0.983926 0.178578
v -0.008332 0.147880 0.220307
vt -0.296875 0.437012
vn -0.027466 0.984206 0.174883
v -0.011789 0.137717 0.206748
vt -0.302979 0.439941
vn -0.000018 0.981637 0.190760
v -0.008332 0.133893 0.213833
vt -0.302979 0.437012
vn -0.034223 0.981556 0.188089
v -0.011789 0.123845 0.199724
vt -0.308838 0.439941
vn -0.000018 0.976675 0.214722
v -0.008332 0.119912 0.206765
vt -0.308838 0.437012
vn -0.027333 0.976927 0.211819
v -0.011789 0.111430 0.192047
vt -0.314453 0.439941
vn -0.000019 0.969107 0.246641
v -0.008329 0.107227 0.198947
vt -0.314453 0.437012
vn -0.027422 0.969578 0.243241
v -0.011789 0.097123 0.181286
vt -0.321533 0.439941
vn -0.000019 0.958018 0.286708
v -0.008325 0.092076 0.187641
vt -0.321533 0.437012
vn -0.027721 0.959427 0.280591
v -0.011754 0.084556 0.169106
vt -0.328125 0.439941
vn -0.007171 0.944281 0.329063
v -0.008287 0.078524 0.174606
vt -0.328125 0.437012
vn -0.035677 0.945180 0.324595
v -0.010465 0.053214 0.115996
vt -0.351318 0.439941
vn -0.040800 0.888743 0.456586
v -0.006955 0.045378 0.120354
vt -0.351318 0.437012
vn -0.143315 0.889367 0.434152
v -0.008524 0.039802 0.078192
vt -0.365967 0.439941
vn -0.061655 0.862761 0.501839
v -0.004952 0.031719 0.081139
vt -0.365967 0.437012
vn -0.146920 0.858522 0.491279
v -0.005267 0.029629 0.030955
vt -0.384033 0.439941
vn -0.092757 0.843803 0.528576
v -0.001631 0.021497 0.033053
vt -0.384033 0.437012
vn -0.164882 0.838812 0.518853
v -0.000360 0.020448 -0.021827
vt -0.404053 0.439941
vn -0.116310 0.828607 0.547615
v 0.003319 0.012284 -0.020204
vt -0.404053 0.437012
vn -0.180095 0.825298 0.535209
v 0.006307 0.013523 -0.084511
vt -0.427979 0.439941
vn -0.135328 0.801277 0.582787
v 0.010012 0.005353 -0.083111
vt -0.427979 0.437012
vn -0.169376 0.799105 0.576839
v 0.014297 0.012141 -0.153093
vt -0.454102 0.439941
vn -0.153049 0.775920 0.611984
v 0.018021 0.003971 -0.151844
vt -0.454102 0.437012
vn -0.151754 0.780230 0.606804
v 0.023094 0.011351 -0.225568
vt -0.481934 0.439941
vn -0.153049 0.775920 0.611984
v 0.026834 0.003184 -0.224433
vt -0.481934 0.437012
vn -0.163501 0.779294 0.604953
v 0.032184 0.010984 -0.299898
vt -0.510254 0.439941
vn -0.154342 0.771519 0.617201
v 0.035936 0.002822 -0.298854
vt -0.510254 0.437012
vn -0.154342 0.771519 0.617201
v 0.041050 0.010876 -0.374026
vt -0.538574 0.439941
vn -0.154342 0.771519 0.617201
v 0.044811 0.002719 -0.373060
vt -0.538574 0.437012
vn -0.154342 0.771519 0.617201
v 0.049177 0.010863 -0.445918
vt -0.565918 0.439941
vn -0.132899 0.764116 0.631240
v 0.052948 0.002712 -0.445026
vt -0.565918 0.437012
vn -0.143681 0.767903 0.624245
v 0.056143 0.010855 -0.514978
vt -0.592773 0.439941
vn -0.122102 0.760196 0.638117
v 0.059926 0.002710 -0.514200
vt -0.592773 0.437012
vn -0.122102 0.760196 0.638117
v 0.061647 0.010848 -0.582433
vt -0.618652 0.439941
vn -0.089264 0.747490 0.658248
v 0.065445 0.002708 -0.581828
vt -0.618652 0.437012
vn -0.089264 0.747490 0.658248
v 0.065404 0.010840 -0.649657
vt -0.644531 0.439941
vn -0.044840 0.728449 0.683631
v 0.069215 0.002707 -0.649279
vt -0.644531 0.437012
vn -0.056026 0.733442 0.677439
v 0.067127 0.010833 -0.718046
vt -0.670898 0.439941
vn -0.000022 0.707107 0.707107
v 0.070946 0.002705 -0.717937
vt -0.670898 0.437012
vn -0.011244 0.712651 0.701429
v 0.066529 0.010825 -0.789013
vt -0.698242 0.439941
vn 0.033619 0.723306 0.689709
v 0.070348 0.002702 -0.789194
vt -0.698242 0.437012
vn 0.033619 0.723306 0.689709
v 0.063246 0.010817 -0.864348
vt -0.727539 0.439941
vn 0.078201 0.742946 0.664767
v 0.067056 0.002699 -0.864830
vt -0.727539 0.437012
vn 0.078201 0.742946 0.664767
v 0.056228 0.010807 -0.949771
vt -0.760742 0.439941
vn 0.132849 0.764098 0.631272
v 0.060016 0.002695 -0.950576
vt -0.760742 0.437012
vn 0.132849 0.764098 0.631272
v 0.044011 0.010795 -1.053510
vt -0.801270 0.439941
vn 0.176688 0.778686 0.602022
v 0.047770 0.002691 -1.054591
vt -0.801270 0.437012
vn 0.176688 0.778686 0.602022
v 0.025114 0.010781 -1.183693
vt -0.851562 0.439941
vn 0.197590 0.784874 0.587308
v 0.028847 0.002686 -1.184971
vt -0.851562 0.437012
vn 0.207826 0.787720 0.579918
v -0.001925 0.010762 -1.348328
vt -0.915039 0.439941
vn 0.218048 0.790440 0.572416
v 0.001786 0.002680 -1.349736
vt -0.915039 0.437012
vn 0.218048 0.790440 0.572416
v -0.038559 0.010735 -1.555403
vt -0.995605 0.439941
vn 0.228094 0.792992 0.564922
v -0.034813 0.002631 -1.556898
vt -0.995605 0.437012
vn 0.228094 0.792992 0.564922
v 0.000000 0.799590 0.507461
vt -0.017517 0.433594
vn -0.000020 0.893635 0.448794
v 0.000000 0.810854 0.537032
vt -0.004990 0.433594
vn -0.000021 0.878361 0.477998
v 0.000000 0.788124 0.483165
vt -0.028290 0.433594
vn -0.000020 0.921070 0.389397
v 0.000000 0.774198 0.461902
vt -0.038727 0.433594
vn -0.000019 0.942782 0.333410
v 0.000000 0.755654 0.440151
vt -0.050049 0.433594
vn -0.000019 0.959253 0.282548
v 0.000000 0.734424 0.420826
vt -0.061340 0.433594
vn -0.000018 0.972133 0.234431
v 0.000000 0.707436 0.404756
vt -0.073853 0.433594
vn -0.000018 0.981637 0.190760
v 0.000000 0.678800 0.391154
vt -0.086060 0.433594
vn -0.000017 0.987416 0.158145
v 0.000000 0.647092 0.378062
vt -0.099304 0.433594
vn -0.000017 0.991720 0.128416
v 0.000000 0.617235 0.367144
vt -0.111328 0.433594
vn -0.000017 0.994487 0.104862
v 0.000000 0.590038 0.358351
vt -0.122009 0.433594
vn -0.000016 0.996698 0.081204
v 0.000000 0.542449 0.343980
vt -0.140381 0.433594
vn -0.000016 0.997515 0.070449
v 0.000000 0.494854 0.329756
vt -0.158813 0.433594
vn -0.000016 0.997979 0.063545
v 0.000000 0.447008 0.317268
vt -0.177368 0.433594
vn -0.000016 0.997979 0.063545
v 0.000000 0.397456 0.303550
vt -0.196533 0.433594
vn -0.000016 0.997752 0.067022
v 0.000000 0.348167 0.290647
vt -0.215698 0.433594
vn -0.000016 0.996746 0.080603
v 0.000000 0.299036 0.277154
vt -0.234985 0.433594
vn -0.000017 0.995143 0.098438
v 0.000000 0.254634 0.263495
vt -0.252930 0.433594
vn -0.000017 0.992976 0.118312
v 0.000000 0.225710 0.254054
vt -0.264648 0.433594
vn -0.000017 0.989952 0.141407
v 0.000000 0.204409 0.246281
vt -0.273193 0.433594
vn -0.000017 0.987879 0.155224
v 0.000000 0.182403 0.238420
vt -0.282227 0.433594
vn -0.000018 0.985134 0.171789
v 0.000000 0.163336 0.230651
vt -0.290039 0.433594
vn -0.000018 0.982152 0.188088
v 0.000000 0.146322 0.223247
vt -0.296875 0.433594
vn -0.000018 0.978954 0.204080
v 0.000000 0.132311 0.216766
vt -0.302979 0.433594
vn -0.000018 0.975195 0.221346
v 0.000000 0.118285 0.209680
vt -0.308838 0.433594
vn -0.000019 0.970141 0.242540
v 0.000000 0.105489 0.201802
vt -0.314453 0.433594
vn -0.000019 0.962314 0.271941
v 0.000000 0.089991 0.190269
vt -0.321533 0.433594
vn -0.000019 0.951477 0.307718
v 0.000035 0.076045 0.176894
vt -0.328125 0.433594
vn -0.000020 0.933152 0.359481
v 0.001391 0.042269 0.122564
vt -0.351318 0.433594
vn -0.037277 0.828602 0.558596
v 0.003404 0.028569 0.083097
vt -0.365967 0.433594
vn -0.069160 0.809776 0.582649
v 0.006727 0.018390 0.035013
vt -0.384033 0.433594
vn -0.093074 0.790912 0.604810
v 0.011668 0.009191 -0.018111
vt -0.404053 0.433594
vn -0.127460 0.785777 0.605234
v 0.018348 0.002270 -0.080867
vt -0.427979 0.433594
vn -0.140073 0.780989 0.608634
v 0.026350 0.000894 -0.149529
vt -0.454102 0.433594
vn -0.153049 0.775920 0.611984
v 0.035162 0.000110 -0.222103
vt -0.481934 0.433594
vn -0.164920 0.774982 0.610085
v 0.044270 -0.000249 -0.296560
vt -0.510254 0.433594
vn -0.164920 0.774982 0.610085
v 0.053157 -0.000350 -0.370850
vt -0.538574 0.433594
vn -0.154342 0.771519 0.617201
v 0.061311 -0.000355 -0.442961
vt -0.565918 0.433594
vn -0.143681 0.767903 0.624245
v 0.068317 -0.000355 -0.512390
vt -0.592773 0.433594
vn -0.122102 0.760196 0.638117
v 0.073872 -0.000355 -0.580410
vt -0.618652 0.433594
vn -0.089264 0.747490 0.658248
v 0.077675 -0.000355 -0.648372
vt -0.644531 0.433594
vn -0.056026 0.733442 0.677439
v 0.079427 -0.000355 -0.717629
vt -0.670898 0.433594
vn -0.011244 0.712651 0.701429
v 0.078828 -0.000355 -0.789535
vt -0.698242 0.433594
vn 0.033619 0.723306 0.689709
v 0.075511 -0.000355 -0.865849
vt -0.727539 0.433594
vn 0.089217 0.747470 0.658277
v 0.068418 -0.000355 -0.952320
vt -0.760742 0.433594
vn 0.132849 0.764098 0.631272
v 0.056101 -0.000355 -1.056952
vt -0.801270 0.433594
vn 0.176688 0.778686 0.602022
v 0.037113 -0.000355 -1.187781
vt -0.851562 0.433594
vn 0.207826 0.787720 0.579918
v 0.010001 -0.000355 -1.352846
vt -0.915039 0.433594
vn 0.228094 0.792992 0.564922
v -0.026592 -0.000348 -1.560202
vt -0.995605 0.433594
vn 0.238061 0.795404 0.557368
v 0.011789 0.810000 0.502406
vt -0.017517 0.453613
vn -0.000021 0.879138 0.476568
v 0.011789 0.821671 0.532886
vt -0.004990 0.453613
vn -0.000021 0.869781 0.493437
v 0.008326 0.817340 0.498849
vt -0.017517 0.450195
vn 0.023936 0.894158 0.447110
v 0.008337 0.829320 0.529954
vt -0.004990 0.450195
vn 0.008272 0.877227 0.480005
v 0.011789 0.797946 0.477014
vt -0.028290 0.453613
vn -0.000020 0.905001 0.425409
v 0.008324 0.804909 0.472683
vt -0.028290 0.450195
vn 0.037567 0.921181 0.387315
v 0.011789 0.782989 0.454106
vt -0.038727 0.453613
vn -0.000020 0.927698 0.373331
v 0.008324 0.789206 0.448627
vt -0.038727 0.450195
vn 0.035793 0.942168 0.333223
v 0.011789 0.763722 0.431400
vt -0.050049 0.453613
vn -0.000019 0.946528 0.322623
v 0.008324 0.769469 0.425243
vt -0.050049 0.450195
vn 0.041723 0.959628 0.278160
v 0.011789 0.741692 0.411233
vt -0.061340 0.453613
vn -0.000019 0.964606 0.263695
v 0.008325 0.746855 0.404490
vt -0.061340 0.450195
vn 0.027360 0.972137 0.232810
v 0.011789 0.713046 0.393962
vt -0.073853 0.453613
vn -0.000018 0.978107 0.208104
v 0.008327 0.717036 0.386369
vt -0.073853 0.450195
vn 0.013799 0.981005 0.193489
v 0.011789 0.683642 0.379898
vt -0.086060 0.453613
vn -0.000018 0.984146 0.177361
v 0.008329 0.687095 0.371975
vt -0.086060 0.450195
vn 0.020768 0.987544 0.155965
v 0.011789 0.650918 0.366351
vt -0.099304 0.453613
vn -0.000018 0.986955 0.160998
v 0.008330 0.653657 0.358102
vt -0.099304 0.450195
vn 0.034895 0.991453 0.125709
v 0.011789 0.620687 0.355257
vt -0.111328 0.453613
vn -0.000017 0.989521 0.144390
v 0.008332 0.623163 0.346881
vt -0.111328 0.450195
vn 0.042141 0.993905 0.101872
v 0.011789 0.593397 0.346395
vt -0.122009 0.453613
vn -0.000017 0.990916 0.134479
v 0.008333 0.595808 0.337969
vt -0.122009 0.450195
vn 0.049245 0.995503 0.080919
v 0.011789 0.546057 0.332044
vt -0.140381 0.453613
vn -0.000017 0.991720 0.128416
v 0.008334 0.548639 0.323630
vt -0.140381 0.450195
vn 0.056500 0.995899 0.070655
v 0.011789 0.498325 0.317817
vt -0.158813 0.453613
vn -0.000017 0.992605 0.121388
v 0.008336 0.500805 0.309396
vt -0.158813 0.450195
vn 0.056738 0.996566 0.060307
v 0.011789 0.450117 0.305358
vt -0.177368 0.453613
vn -0.000017 0.993345 0.115176
v 0.008337 0.452335 0.296953
vt -0.177368 0.450195
vn 0.050013 0.996898 0.060763
v 0.011789 0.400562 0.291850
vt -0.196533 0.453613
vn -0.000017 0.993345 0.115176
v 0.008338 0.402771 0.283587
vt -0.196533 0.450195
vn 0.042841 0.996771 0.067921
v 0.011789 0.351338 0.279237
vt -0.215698 0.453613
vn -0.000017 0.993345 0.115176
v 0.008339 0.353588 0.271173
vt -0.215698 0.450195
vn 0.028750 0.996154 0.082769
v 0.011789 0.302577 0.266138
vt -0.234985 0.453613
vn -0.000017 0.992222 0.124477
v 0.008341 0.305084 0.258344
vt -0.234985 0.450195
vn 0.021296 0.994806 0.099537
v 0.011789 0.257861 0.252479
vt -0.252930 0.453613
vn -0.000017 0.991322 0.131460
v 0.008341 0.260066 0.244776
vt -0.252930 0.450195
vn 0.014227 0.992975 0.117470
v 0.011789 0.229246 0.243295
vt -0.264648 0.453613
vn -0.000017 0.989521 0.144390
v 0.008339 0.231749 0.235680
vt -0.264648 0.450195
vn -0.000017 0.989952 0.141407
v 0.011789 0.208368 0.235663
vt -0.273193 0.453613
vn -0.000017 0.988495 0.151256
v 0.008340 0.211171 0.228147
vt -0.273193 0.450195
vn -0.000017 0.988495 0.151256
v 0.011789 0.186801 0.227966
vt -0.282227 0.453613
vn -0.000017 0.987416 0.158145
v 0.008340 0.189914 0.220566
vt -0.282227 0.450195
vn -0.013983 0.987495 0.157031
v 0.011789 0.168188 0.220387
vt -0.290039 0.453613
vn -0.000018 0.985336 0.170623
v 0.008340 0.171623 0.213121
vt -0.290039 0.450195
vn -0.013941 0.985244 0.170588
v 0.011789 0.151645 0.213203
vt -0.296875 0.453613
vn -0.000018 0.983420 0.181342
v 0.008340 0.155414 0.206093
vt -0.296875 0.450195
vn -0.027466 0.984206 0.174883
v 0.011789 0.137717 0.206748
vt -0.302979 0.453613
vn -0.000018 0.981637 0.190760
v 0.008340 0.141544 0.199655
vt -0.302979 0.450195
vn -0.034223 0.981556 0.188089
v 0.011789 0.123845 0.199724
vt -0.308838 0.453613
vn -0.000018 0.976675 0.214722
v 0.008341 0.127783 0.192675
vt -0.308838 0.450195
vn -0.027333 0.976927 0.211819
v 0.011789 0.111430 0.192047
vt -0.314453 0.453613
vn -0.000019 0.969107 0.246641
v 0.008344 0.115641 0.185136
vt -0.314453 0.450195
vn -0.027422 0.969578 0.243241
v 0.011789 0.097125 0.181288
vt -0.321533 0.453613
vn -0.000019 0.958018 0.286708
v 0.008348 0.102188 0.174918
vt -0.321533 0.450195
vn -0.020989 0.957806 0.286649
v 0.011825 0.084607 0.169154
vt -0.328125 0.453613
vn -0.000019 0.942782 0.333410
v 0.008383 0.090664 0.163640
vt -0.328125 0.450195
vn -0.028618 0.943905 0.328974
v 0.013091 0.053713 0.117351
vt -0.351318 0.453613
vn -0.024575 0.884116 0.466622
v 0.009586 0.061570 0.113012
vt -0.351318 0.450195
vn -0.145528 0.885770 0.440718
v 0.014984 0.040516 0.080701
vt -0.365967 0.453613
vn -0.052574 0.862414 0.503466
v 0.011417 0.048616 0.077759
vt -0.365967 0.450195
vn -0.154422 0.862803 0.481378
v 0.018164 0.030540 0.034677
vt -0.384033 0.453613
vn -0.083650 0.841064 0.534429
v 0.014531 0.038683 0.032581
vt -0.384033 0.450195
vn -0.164882 0.838812 0.518853
v 0.022976 0.021439 -0.016976
vt -0.404053 0.453613
vn -0.115404 0.831615 0.543230
v 0.019297 0.029609 -0.018598
vt -0.404053 0.450195
vn -0.180095 0.825298 0.535209
v 0.029558 0.014550 -0.078827
vt -0.427979 0.453613
vn -0.135328 0.801277 0.582787
v 0.025853 0.022724 -0.080227
vt -0.427979 0.450195
vn -0.169376 0.799105 0.576839
v 0.037495 0.013180 -0.146949
vt -0.454102 0.453613
vn -0.151754 0.780230 0.606804
v 0.033771 0.021352 -0.148197
vt -0.454102 0.450195
vn -0.151754 0.780230 0.606804
v 0.046267 0.012392 -0.219217
vt -0.481934 0.453613
vn -0.153049 0.775920 0.611984
v 0.042528 0.020560 -0.220352
vt -0.481934 0.450195
vn -0.163501 0.779294 0.604953
v 0.055356 0.012025 -0.293539
vt -0.510254 0.453613
vn -0.154342 0.771519 0.617201
v 0.051605 0.020188 -0.294583
vt -0.510254 0.450195
vn -0.154342 0.771519 0.617201
v 0.064243 0.011915 -0.367844
vt -0.538574 0.453613
vn -0.154342 0.771519 0.617201
v 0.060483 0.020072 -0.368810
vt -0.538574 0.450195
vn -0.154342 0.771519 0.617201
v 0.072415 0.011902 -0.440126
vt -0.565918 0.453613
vn -0.143681 0.767903 0.624245
v 0.068647 0.020051 -0.441018
vt -0.565918 0.450195
vn -0.143681 0.767903 0.624245
v 0.079455 0.011893 -0.509902
vt -0.592773 0.453613
vn -0.122102 0.760196 0.638117
v 0.075676 0.020036 -0.510681
vt -0.592773 0.450195
vn -0.122102 0.760196 0.638117
v 0.085053 0.011885 -0.578445
vt -0.618652 0.453613
vn -0.089264 0.747490 0.658248
v 0.081261 0.020020 -0.579051
vt -0.618652 0.450195
vn -0.089264 0.747490 0.658248
v 0.088898 0.011876 -0.647090
vt -0.644531 0.453613
vn -0.044840 0.728449 0.683631
v 0.085092 0.020005 -0.647468
vt -0.644531 0.450195
vn -0.056026 0.733442 0.677439
v 0.090675 0.011868 -0.717151
vt -0.670898 0.453613
vn -0.011244 0.712651 0.701429
v 0.086861 0.019991 -0.717261
vt -0.670898 0.450195
vn -0.011244 0.712651 0.701429
v 0.090076 0.011859 -0.789925
vt -0.698242 0.453613
vn 0.033619 0.723306 0.689709
v 0.086263 0.019976 -0.789745
vt -0.698242 0.450195
vn 0.033619 0.723306 0.689709
v 0.086727 0.011850 -0.867144
vt -0.727539 0.453613
vn 0.078201 0.742946 0.664767
v 0.082924 0.019961 -0.866662
vt -0.727539 0.450195
vn 0.078201 0.742946 0.664767
v 0.079564 0.011839 -0.954586
vt -0.760742 0.453613
vn 0.132849 0.764098 0.631272
v 0.075783 0.019946 -0.953779
vt -0.760742 0.450195
vn 0.132849 0.764098 0.631272
v 0.067160 0.011827 -1.060049
vt -0.801270 0.453613
vn 0.176688 0.778686 0.602022
v 0.063406 0.019927 -1.058967
vt -0.801270 0.450195
vn 0.176688 0.778686 0.602022
v 0.048090 0.011811 -1.191483
vt -0.851562 0.453613
vn 0.197590 0.784874 0.587308
v 0.044362 0.019903 -1.190203
vt -0.851562 0.450195
vn 0.207826 0.787720 0.579918
v 0.020917 0.011791 -1.356958
vt -0.915039 0.453613
vn 0.218048 0.790440 0.572416
v 0.017208 0.019872 -1.355550
vt -0.915039 0.450195
vn 0.228094 0.792992 0.564922
v -0.015809 0.011762 -1.564566
vt -0.995605 0.453613
vn 0.228094 0.792992 0.564922
v -0.019453 0.019781 -1.563089
vt -0.995605 0.450195
vn 0.228094 0.792992 0.564922
v 0.000260 0.065093 0.163483
vt -0.334229 0.433594
vn -0.007880 0.902117 0.431419
v 0.000611 0.054134 0.145560
vt -0.341797 0.433594
vn -0.017242 0.861121 0.508108
v -0.008068 0.067726 0.161365
vt -0.334229 0.437012
vn -0.074674 0.929202 0.361948
v -0.007725 0.057008 0.143661
vt -0.341797 0.437012
vn -0.112001 0.907893 0.403964
v 0.000611 0.054134 0.145560
vt -0.341797 0.459961
vn -0.017242 0.861121 0.508108
v 0.000260 0.065093 0.163483
vt -0.334229 0.459961
vn -0.007880 0.902117 0.431419
v 0.008928 0.057192 0.143887
vt -0.341797 0.457031
vn 0.072029 0.900718 0.428391
v 0.008577 0.067924 0.161565
vt -0.334229 0.457031
vn 0.044984 0.922783 0.382685
v 0.012367 0.064356 0.139487
vt -0.341797 0.453613
vn -0.007830 0.903555 0.428400
v 0.012028 0.074437 0.156578
vt -0.334229 0.453613
vn -0.007437 0.924025 0.382259
v 0.000216 0.083669 0.149501
vt -0.334229 0.446777
vn -0.007909 0.897528 0.440886
v 0.000534 0.074491 0.133501
vt -0.341797 0.446777
vn -0.017695 0.847852 0.529937
v 0.008572 0.081060 0.151682
vt -0.334229 0.450195
vn -0.075318 0.926348 0.369062
v 0.008898 0.071579 0.135353
vt -0.341797 0.450195
vn -0.113066 0.904246 0.411770
v -0.007807 0.071389 0.135133
vt -0.341797 0.443359
vn 0.073241 0.895246 0.439512
v -0.008128 0.080864 0.151485
vt -0.334229 0.443359
vn 0.045293 0.921656 0.385356
v -0.011209 0.064088 0.139172
vt -0.341797 0.439941
vn -0.023495 0.904128 0.426616
v -0.011547 0.074158 0.156297
vt -0.334229 0.439941
vn -0.014826 0.925796 0.377733
usemtl Charging
f 3/3/3 2/2/2 1/1/1
f 4/4/4 2/2/2 3/3/3
f 6/6/6 1/1/1 5/5/5
f 3/3/3 1/1/1 6/6/6
f 8/8/8 5/5/5 7/7/7
f 6/6/6 5/5/5 8/8/8
f 10/10/10 7/7/7 9/9/9
f 8/8/8 7/7/7 10/10/10
f 12/12/12 9/9/9 11/11/11
f 10/10/10 9/9/9 12/12/12
f 14/14/14 11/11/11 13/13/13
f 12/12/12 11/11/11 14/14/14
f 16/16/16 13/13/13 15/15/15
f 14/14/14 13/13/13 16/16/16
f 18/18/18 15/15/15 17/17/17
f 16/16/16 15/15/15 18/18/18
f 20/20/20 17/17/17 19/19/19
f 18/18/18 17/17/17 20/20/20
f 22/22/22 19/19/19 21/21/21
f 20/20/20 19/19/19 22/22/22
f 23/23/23 22/22/22 21/21/21
f 24/24/24 22/22/22 23/23/23
f 25/25/25 24/24/24 23/23/23
f 26/26/26 24/24/24 25/25/25
f 27/27/27 26/26/26 25/25/25
f 28/28/28 26/26/26 27/27/27
f 29/29/29 28/28/28 27/27/27
f 30/30/30 28/28/28 29/29/29
f 31/31/31 30/30/30 29/29/29
f 32/32/32 30/30/30 31/31/31
f 33/33/33 32/32/32 31/31/31
f 34/34/34 32/32/32 33/33/33
f 35/35/35 34/34/34 33/33/33
f 36/36/36 34/34/34 35/35/35
f 38/38/38 35/35/35 37/37/37
f 36/36/36 35/35/35 38/38/38
f 40/40/40 37/37/37 39/39/39
f 38/38/38 37/37/37 40/40/40
f 42/42/42 39/39/39 41/41/41
f 40/40/40 39/39/39 42/42/42
f 44/44/44 41/41/41 43/43/43
f 42/42/42 41/41/41 44/44/44
f 46/46/46 43/43/43 45/45/45
f 44/44/44 43/43/43 46/46/46
f 48/48/48 45/45/45 47/47/47
f 46/46/46 45/45/45 48/48/48
f 50/50/50 47/47/47 49/49/49
f 48/48/48 47/47/47 50/50/50
f 52/52/52 49/49/49 51/51/51
f 50/50/50 49/49/49 52/52/52
f 53/53/53 52/52/52 51/51/51
f 54/54/54 52/52/52 53/53/53
f 55/55/55 54/54/54 53/53/53
f 56/56/56 54/54/54 55/55/55
f 59/59/59 58/58/58 57/57/57
f 60/60/60 58/58/58 59/59/59
f 61/61/61 60/60/60 59/59/59
f 62/62/62 60/60/60 61/61/61
f 63/63/63 62/62/62 61/61/61
f 64/64/64 62/62/62 63/63/63
f 65/65/65 64/64/64 63/63/63
f 66/66/66 64/64/64 65/65/65
f 67/67/67 66/66/66 65/65/65
f 68/68/68 66/66/66 67/67/67
f 69/69/69 68/68/68 67/67/67
f 70/70/70 68/68/68 69/69/69
f 71/71/71 70/70/70 69/69/69
f 72/72/72 70/70/70 71/71/71
f 73/73/73 72/72/72 71/71/71
f 74/74/74 72/72/72 73/73/73
f 75/75/75 74/74/74 73/73/73
f 76/76/76 74/74/74 75/75/75
f 77/77/77 76/76/76 75/75/75
f 78/78/78 76/76/76 77/77/77
f 79/79/79 78/78/78 77/77/77
f 80/80/80 78/78/78 79/79/79
f 81/81/81 80/80/80 79/79/79
f 82/82/82 80/80/80 81/81/81
f 83/83/83 82/82/82 81/81/81
f 84/84/84 82/82/82 83/83/83
f 85/85/85 84/84/84 83/83/83
f 86/86/86 84/84/84 85/85/85
f 87/87/87 86/86/86 85/85/85
f 88/88/88 86/86/86 87/87/87
f 89/89/89 88/88/88 87/87/87
f 90/90/90 88/88/88 89/89/89
f 91/91/91 90/90/90 89/89/89
f 92/92/92 90/90/90 91/91/91
f 93/93/93 92/92/92 91/91/91
f 94/94/94 92/92/92 93/93/93
f 95/95/95 94/94/94 93/93/93
f 96/96/96 94/94/94 95/95/95
f 97/97/97 96/96/96 95/95/95
f 98/98/98 96/96/96 97/97/97
f 101/101/101 100/100/100 99/99/99
f 102/102/102 100/100/100 101/101/101
f 104/104/104 99/99/99 103/103/103
f 101/101/101 99/99/99 104/104/104
f 106/106/106 103/103/103 105/105/105
f 104/104/104 103/103/103 106/106/106
f 108/108/108 105/105/105 107/107/107
f 106/106/106 105/105/105 108/108/108
f 110/110/110 107/107/107 109/109/109
f 108/108/108 107/107/107 110/110/110
f 112/112/112 109/109/109 111/111/111
f 110/110/110 109/109/109 112/112/112
f 114/114/114 111/111/111 113/113/113
f 112/112/112 111/111/111 114/114/114
f 116/116/116 113/113/113 115/115/115
f 114/114/114 113/113/113 116/116/116
f 118/118/118 115/115/115 117/117/117
f 116/116/116 115/115/115 118/118/118
f 120/120/120 117/117/117 119/119/119
f 118/118/118 117/117/117 120/120/120
f 121/121/121 120/120/120 119/119/119
f 122/122/122 120/120/120 121/121/121
f 123/123/123 122/122/122 121/121/121
f 124/124/124 122/122/122 123/123/123
f 125/125/125 124/124/124 123/123/123
f 126/126/126 124/124/124 125/125/125
f 127/127/127 126/126/126 125/125/125
f 128/128/128 126/126/126 127/127/127
f 129/129/129 128/128/128 127/127/127
f 130/130/130 128/128/128 129/129/129
f 131/131/131 130/130/130 129/129/129
f 132/132/132 130/130/130 131/131/131
f 133/133/133 132/132/132 131/131/131
f 134/134/134 132/132/132 133/133/133
f 136/136/136 133/133/133 135/135/135
f 134/134/134 133/133/133 136/136/136
f 138/138/138 135/135/135 137/137/137
f 136/136/136 135/135/135 138/138/138
f 140/140/140 137/137/137 139/139/139
f 138/138/138 137/137/137 140/140/140
f 142/142/142 139/139/139 141/141/141
f 140/140/140 139/139/139 142/142/142
f 144/144/144 141/141/141 143/143/143
f 142/142/142 141/141/141 144/144/144
f 146/146/146 143/143/143 145/145/145
f 144/144/144 143/143/143 146/146/146
f 148/148/148 145/145/145 147/147/147
f 146/146/146 145/145/145 148/148/148
f 150/150/150 147/147/147 149/149/149
f 148/148/148 147/147/147 150/150/150
f 151/151/151 150/150/150 149/149/149
f 152/152/152 150/150/150 151/151/151
f 153/153/153 152/152/152 151/151/151
f 154/154/154 152/152/152 153/153/153
f 157/157/157 156/156/156 155/155/155
f 158/158/158 156/156/156 157/157/157
f 159/159/159 158/158/158 157/157/157
f 160/160/160 158/158/158 159/159/159
f 161/161/161 160/160/160 159/159/159
f 162/162/162 160/160/160 161/161/161
f 163/163/163 162/162/162 161/161/161
f 164/164/164 162/162/162 163/163/163
f 165/165/165 164/164/164 163/163/163
f 166/166/166 164/164/164 165/165/165
f 167/167/167 166/166/166 165/165/165
f 168/168/168 166/166/166 167/167/167
f 169/169/169 168/168/168 167/167/167
f 170/170/170 168/168/168 169/169/169
f 171/171/171 170/170/170 169/169/169
f 172/172/172 170/170/170 171/171/171
f 173/173/173 172/172/172 171/171/171
f 174/174/174 172/172/172 173/173/173
f 175/175/175 174/174/174 173/173/173
f 176/176/176 174/174/174 175/175/175
f 177/177/177 176/176/176 175/175/175
f 178/178/178 176/176/176 177/177/177
f 179/179/179 178/178/178 177/177/177
f 180/180/180 178/178/178 179/179/179
f 181/181/181 180/180/180 179/179/179
f 182/182/182 180/180/180 181/181/181
f 183/183/183 182/182/182 181/181/181
f 184/184/184 182/182/182 183/183/183
f 185/185/185 184/184/184 183/183/183
f 186/186/186 184/184/184 185/185/185
f 187/187/187 186/186/186 185/185/185
f 188/188/188 186/186/186 187/187/187
f 189/189/189 188/188/188 187/187/187
f 190/190/190 188/188/188 189/189/189
f 191/191/191 190/190/190 189/189/189
f 192/192/192 190/190/190 191/191/191
f 193/193/193 192/192/192 191/191/191
f 194/194/194 192/192/192 193/193/193
f 195/195/195 194/194/194 193/193/193
f 196/196/196 194/194/194 195/195/195
f 199/199/199 198/198/198 197/197/197
f 200/200/200 198/198/198 199/199/199
f 202/202/202 197/197/197 201/201/201
f 199/199/199 197/197/197 202/202/202
f 204/204/204 201/201/201 203/203/203
f 202/202/202 201/201/201 204/204/204
f 206/206/206 203/203/203 205/205/205
f 204/204/204 203/203/203 206/206/206
f 208/208/208 205/205/205 207/207/207
f 206/206/206 205/205/205 208/208/208
f 210/210/210 207/207/207 209/209/209
f 208/208/208 207/207/207 210/210/210
f 212/212/212 209/209/209 211/211/211
f 210/210/210 209/209/209 212/212/212
f 214/214/214 211/211/211 213/213/213
f 212/212/212 211/211/211 214/214/214
f 216/216/216 213/213/213 215/215/215
f 214/214/214 213/213/213 216/216/216
f 218/218/218 215/215/215 217/217/217
f 216/216/216 215/215/215 218/218/218
f 219/219/219 218/218/218 217/217/217
f 220/220/220 218/218/218 219/219/219
f 221/221/221 220/220/220 219/219/219
f 222/222/222 220/220/220 221/221/221
f 223/223/223 222/222/222 221/221/221
f 224/224/224 222/222/222 223/223/223
f 225/225/225 224/224/224 223/223/223
f 226/226/226 224/224/224 225/225/225
f 227/227/227 226/226/226 225/225/225
f 228/228/228 226/226/226 227/227/227
f 229/229/229 228/228/228 227/227/227
f 230/230/230 228/228/228 229/229/229
f 231/231/231 230/230/230 229/229/229
f 232/232/232 230/230/230 231/231/231
f 234/234/234 231/231/231 233/233/233
f 232/232/232 231/231/231 234/234/234
f 236/236/236 233/233/233 235/235/235
f 234/234/234 233/233/233 236/236/236
f 238/238/238 235/235/235 237/237/237
f 236/236/236 235/235/235 238/238/238
f 240/240/240 237/237/237 239/239/239
f 238/238/238 237/237/237 240/240/240
f 242/242/242 239/239/239 241/241/241
f 240/240/240 239/239/239 242/242/242
f 244/244/244 241/241/241 243/243/243
f 242/242/242 241/241/241 244/244/244
f 246/246/246 243/243/243 245/245/245
f 244/244/244 243/243/243 246/246/246
f 248/248/248 245/245/245 247/247/247
f 246/246/246 245/245/245 248/248/248
f 249/249/249 248/248/248 247/247/247
f 250/250/250 248/248/248 249/249/249
f 251/251/251 250/250/250 249/249/249
f 252/252/252 250/250/250 251/251/251
f 255/255/255 254/254/254 253/253/253
f 256/256/256 254/254/254 255/255/255
f 257/257/257 256/256/256 255/255/255
f 258/258/258 256/256/256 257/257/257
f 259/259/259 258/258/258 257/257/257
f 260/260/260 258/258/258 259/259/259
f 261/261/261 260/260/260 259/259/259
f 262/262/262 260/260/260 261/261/261
f 263/263/263 262/262/262 261/261/261
f 264/264/264 262/262/262 263/263/263
f 265/265/265 264/264/264 263/263/263
f 266/266/266 264/264/264 265/265/265
f 267/267/267 266/266/266 265/265/265
f 268/268/268 266/266/266 267/267/267
f 269/269/269 268/268/268 267/267/267
f 270/270/270 268/268/268 269/269/269
f 271/271/271 270/270/270 269/269/269
f 272/272/272 270/270/270 271/271/271
f 273/273/273 272/272/272 271/271/271
f 274/274/274 272/272/272 273/273/273
f 275/275/275 274/274/274 273/273/273
f 276/276/276 274/274/274 275/275/275
f 277/277/277 276/276/276 275/275/275
f 278/278/278 276/276/276 277/277/277
f 279/279/279 278/278/278 277/277/277
f 280/280/280 278/278/278 279/279/279
f 281/281/281 280/280/280 279/279/279
f 282/282/282 280/280/280 281/281/281
f 283/283/283 282/282/282 281/281/281
f 284/284/284 282/282/282 283/283/283
f 285/285/285 284/284/284 283/283/283
f 286/286/286 284/284/284 285/285/285
f 287/287/287 286/286/286 285/285/285
f 288/288/288 286/286/286 287/287/287
f 289/289/289 288/288/288 287/287/287
f 290/290/290 288/288/288 289/289/289
f 291/291/291 290/290/290 289/289/289
f 292/292/292 290/290/290 291/291/291
f 293/293/293 292/292/292 291/291/291
f 294/294/294 292/292/292 293/293/293
f 295/295/295 200/200/200 199/199/199
f 296/296/296 200/200/200 295/295/295
f 297/297/297 199/199/199 202/202/202
f 295/295/295 199/199/199 297/297/297
f 298/298/298 202/202/202 204/204/204
f 297/297/297 202/202/202 298/298/298
f 299/299/299 204/204/204 206/206/206
f 298/298/298 204/204/204 299/299/299
f 300/300/300 206/206/206 208/208/208
f 299/299/299 206/206/206 300/300/300
f 301/301/301 208/208/208 210/210/210
f 300/300/300 208/208/208 301/301/301
f 302/302/302 210/210/210 212/212/212
f 301/301/301 210/210/210 302/302/302
f 303/303/303 212/212/212 214/214/214
f 302/302/302 212/212/212 303/303/303
f 304/304/304 214/214/214 216/216/216
f 303/303/303 214/214/214 304/304/304
f 305/305/305 216/216/216 218/218/218
f 304/304/304 216/216/216 305/305/305
f 218/218/218 306/306/306 305/305/305
f 220/220/220 306/306/306 218/218/218
f 220/220/220 307/307/307 306/306/306
f 222/222/222 307/307/307 220/220/220
f 222/222/222 308/308/308 307/307/307
f 224/224/224 308/308/308 222/222/222
f 224/224/224 309/309/309 308/308/308
f 226/226/226 309/309/309 224/224/224
f 226/226/226 310/310/310 309/309/309
f 228/228/228 310/310/310 226/226/226
f 228/228/228 311/311/311 310/310/310
f 230/230/230 311/311/311 228/228/228
f 230/230/230 312/312/312 311/311/311
f 232/232/232 312/312/312 230/230/230
f 313/313/313 232/232/232 234/234/234
f 312/312/312 232/232/232 313/313/313
f 314/314/314 234/234/234 236/236/236
f 313/313/313 234/234/234 314/314/314
f 315/315/315 236/236/236 238/238/238
f 314/314/314 236/236/236 315/315/315
f 316/316/316 238/238/238 240/240/240
f 315/315/315 238/238/238 316/316/316
f 317/317/317 240/240/240 242/242/242
f 316/316/316 240/240/240 317/317/317
f 318/318/318 242/242/242 244/244/244
f 317/317/317 242/242/242 318/318/318
f 319/319/319 244/244/244 246/246/246
f 318/318/318 244/244/244 319/319/319
f 320/320/320 246/246/246 248/248/248
f 319/319/319 246/246/246 320/320/320
f 248/248/248 321/321/321 320/320/320
f 250/250/250 321/321/321 248/248/248
f 250/250/250 322/322/322 321/321/321
f 252/252/252 322/322/322 250/250/250
f 254/254/254 324/324/324 323/323/323
f 256/256/256 324/324/324 254/254/254
f 256/256/256 325/325/325 324/324/324
f 258/258/258 325/325/325 256/256/256
f 258/258/258 326/326/326 325/325/325
f 260/260/260 326/326/326 258/258/258
f 260/260/260 327/327/327 326/326/326
f 262/262/262 327/327/327 260/260/260
f 262/262/262 328/328/328 327/327/327
f 264/264/264 328/328/328 262/262/262
f 264/264/264 329/329/329 328/328/328
f 266/266/266 329/329/329 264/264/264
f 266/266/266 330/330/330 329/329/329
f 268/268/268 330/330/330 266/266/266
f 268/268/268 331/331/331 330/330/330
f 270/270/270 331/331/331 268/268/268
f 270/270/270 332/332/332 331/331/331
f 272/272/272 332/332/332 270/270/270
f 272/272/272 333/333/333 332/332/332
f 274/274/274 333/333/333 272/272/272
f 274/274/274 334/334/334 333/333/333
f 276/276/276 334/334/334 274/274/274
f 276/276/276 335/335/335 334/334/334
f 278/278/278 335/335/335 276/276/276
f 278/278/278 336/336/336 335/335/335
f 280/280/280 336/336/336 278/278/278
f 280/280/280 337/337/337 336/336/336
f 282/282/282 337/337/337 280/280/280
f 282/282/282 338/338/338 337/337/337
f 284/284/284 338/338/338 282/282/282
f 284/284/284 339/339/339 338/338/338
f 286/286/286 339/339/339 284/284/284
f 286/286/286 340/340/340 339/339/339
f 288/288/288 340/340/340 286/286/286
f 288/288/288 341/341/341 340/340/340
f 290/290/290 341/341/341 288/288/288
f 290/290/290 342/342/342 341/341/341
f 292/292/292 342/342/342 290/290/290
f 292/292/292 343/343/343 342/342/342
f 294/294/294 343/343/343 292/292/292
f 197/197/197 102/102/102 101/101/101
f 198/198/198 102/102/102 197/197/197
f 201/201/201 101/101/101 104/104/104
f 197/197/197 101/101/101 201/201/201
f 203/203/203 104/104/104 106/106/106
f 201/201/201 104/104/104 203/203/203
f 205/205/205 106/106/106 108/108/108
f 203/203/203 106/106/106 205/205/205
f 207/207/207 108/108/108 110/110/110
f 205/205/205 108/108/108 207/207/207
f 209/209/209 110/110/110 112/112/112
f 207/207/207 110/110/110 209/209/209
f 211/211/211 112/112/112 114/114/114
f 209/209/209 112/112/112 211/211/211
f 213/213/213 114/114/114 116/116/116
f 211/211/211 114/114/114 213/213/213
f 215/215/215 116/116/116 118/118/118
f 213/213/213 116/116/116 215/215/215
f 217/217/217 118/118/118 120/120/120
f 215/215/215 118/118/118 217/217/217
f 120/120/120 219/219/219 217/217/217
f 122/122/122 219/219/219 120/120/120
f 122/122/122 221/221/221 219/219/219
f 124/124/124 221/221/221 122/122/122
f 124/124/124 223/223/223 221/221/221
f 126/126/126 223/223/223 124/124/124
f 126/126/126 225/225/225 223/223/223
f 128/128/128 225/225/225 126/126/126
f 128/128/128 227/227/227 225/225/225
f 130/130/130 227/227/227 128/128/128
f 130/130/130 229/229/229 227/227/227
f 132/132/132 229/229/229 130/130/130
f 132/132/132 231/231/231 229/229/229
f 134/134/134 231/231/231 132/132/132
f 233/233/233 134/134/134 136/136/136
f 231/231/231 134/134/134 233/233/233
f 235/235/235 136/136/136 138/138/138
f 233/233/233 136/136/136 235/235/235
f 237/237/237 138/138/138 140/140/140
f 235/235/235 138/138/138 237/237/237
f 239/239/239 140/140/140 142/142/142
f 237/237/237 140/140/140 239/239/239
f 241/241/241 142/142/142 144/144/144
f 239/239/239 142/142/142 241/241/241
f 243/243/243 144/144/144 146/146/146
f 241/241/241 144/144/144 243/243/243
f 245/245/245 146/146/146 148/148/148
f 243/243/243 146/146/146 245/245/245
f 247/247/247 148/148/148 150/150/150
f 245/245/245 148/148/148 247/247/247
f 150/150/150 249/249/249 247/247/247
f 152/152/152 249/249/249 150/150/150
f 152/152/152 251/251/251 249/249/249
f 154/154/154 251/251/251 152/152/152
f 156/156/156 255/255/255 253/253/253
f 158/158/158 255/255/255 156/156/156
f 158/158/158 257/257/257 255/255/255
f 160/160/160 257/257/257 158/158/158
f 160/160/160 259/259/259 257/257/257
f 162/162/162 259/259/259 160/160/160
f 162/162/162 261/261/261 259/259/259
f 164/164/164 261/261/261 162/162/162
f 164/164/164 263/263/263 261/261/261
f 166/166/166 263/263/263 164/164/164
f 166/166/166 265/265/265 263/263/263
f 168/168/168 265/265/265 166/166/166
f 168/168/168 267/267/267 265/265/265
f 170/170/170 267/267/267 168/168/168
f 170/170/170 269/269/269 267/267/267
f 172/172/172 269/269/269 170/170/170
f 172/172/172 271/271/271 269/269/269
f 174/174/174 271/271/271 172/172/172
f 174/174/174 273/273/273 271/271/271
f 176/176/176 273/273/273 174/174/174
f 176/176/176 275/275/275 273/273/273
f 178/178/178 275/275/275 176/176/176
f 178/178/178 277/277/277 275/275/275
f 180/180/180 277/277/277 178/178/178
f 180/180/180 279/279/279 277/277/277
f 182/182/182 279/279/279 180/180/180
f 182/182/182 281/281/281 279/279/279
f 184/184/184 281/281/281 182/182/182
f 184/184/184 283/283/283 281/281/281
f 186/186/186 283/283/283 184/184/184
f 186/186/186 285/285/285 283/283/283
f 188/188/188 285/285/285 186/186/186
f 188/188/188 287/287/287 285/285/285
f 190/190/190 287/287/287 188/188/188
f 190/190/190 289/289/289 287/287/287
f 192/192/192 289/289/289 190/190/190
f 192/192/192 291/291/291 289/289/289
f 194/194/194 291/291/291 192/192/192
f 194/194/194 293/293/293 291/291/291
f 196/196/196 293/293/293 194/194/194
f 346/346/346 345/345/345 344/344/344
f 347/347/347 345/345/345 346/346/346
f 349/349/349 344/344/344 348/348/348
f 346/346/346 344/344/344 349/349/349
f 351/351/351 348/348/348 350/350/350
f 349/349/349 348/348/348 351/351/351
f 353/353/353 350/350/350 352/352/352
f 351/351/351 350/350/350 353/353/353
f 355/355/355 352/352/352 354/354/354
f 353/353/353 352/352/352 355/355/355
f 357/357/357 354/354/354 356/356/356
f 355/355/355 354/354/354 357/357/357
f 359/359/359 356/356/356 358/358/358
f 357/357/357 356/356/356 359/359/359
f 361/361/361 358/358/358 360/360/360
f 359/359/359 358/358/358 361/361/361
f 363/363/363 360/360/360 362/362/362
f 361/361/361 360/360/360 363/363/363
f 365/365/365 362/362/362 364/364/364
f 363/363/363 362/362/362 365/365/365
f 366/366/366 365/365/365 364/364/364
f 367/367/367 365/365/365 366/366/366
f 368/368/368 367/367/367 366/366/366
f 369/369/369 367/367/367 368/368/368
f 370/370/370 369/369/369 368/368/368
f 371/371/371 369/369/369 370/370/370
f 372/372/372 371/371/371 370/370/370
f 373/373/373 371/371/371 372/372/372
f 374/374/374 373/373/373 372/372/372
f 375/375/375 373/373/373 374/374/374
f 376/376/376 375/375/375 374/374/374
f 377/377/377 375/375/375 376/376/376
f 378/378/378 377/377/377 376/376/376
f 379/379/379 377/377/377 378/378/378
f 381/381/381 378/378/378 380/380/380
f 379/379/379 378/378/378 381/381/381
f 383/383/383 380/380/380 382/382/382
f 381/381/381 380/380/380 383/383/383
f 385/385/385 382/382/382 384/384/384
f 383/383/383 382/382/382 385/385/385
f 387/387/387 384/384/384 386/386/386
f 385/385/385 384/384/384 387/387/387
f 389/389/389 386/386/386 388/388/388
f 387/387/387 386/386/386 389/389/389
f 391/391/391 388/388/388 390/390/390
f 389/389/389 388/388/388 391/391/391
f 393/393/393 390/390/390 392/392/392
f 391/391/391 390/390/390 393/393/393
f 395/395/395 392/392/392 394/394/394
f 393/393/393 392/392/392 395/395/395
f 396/396/396 395/395/395 394/394/394
f 397/397/397 395/395/395 396/396/396
f 398/398/398 397/397/397 396/396/396
f 399/399/399 397/397/397 398/398/398
f 402/402/402 401/401/401 400/400/400
f 403/403/403 401/401/401 402/402/402
f 404/404/404 403/403/403 402/402/402
f 405/405/405 403/403/403 404/404/404
f 406/406/406 405/405/405 404/404/404
f 407/407/407 405/405/405 406/406/406
f 408/408/408 407/407/407 406/406/406
f 409/409/409 407/407/407 408/408/408
f 410/410/410 409/409/409 408/408/408
f 411/411/411 409/409/409 410/410/410
f 412/412/412 411/411/411 410/410/410
f 413/413/413 411/411/411 412/412/412
f 414/414/414 413/413/413 412/412/412
f 415/415/415 413/413/413 414/414/414
f 416/416/416 415/415/415 414/414/414
f 417/417/417 415/415/415 416/416/416
f 418/418/418 417/417/417 416/416/416
f 419/419/419 417/417/417 418/418/418
f 420/420/420 419/419/419 418/418/418
f 421/421/421 419/419/419 420/420/420
f 422/422/422 421/421/421 420/420/420
f 423/423/423 421/421/421 422/422/422
f 424/424/424 423/423/423 422/422/422
f 425/425/425 423/423/423 424/424/424
f 426/426/426 425/425/425 424/424/424
f 427/427/427 425/425/425 426/426/426
f 428/428/428 427/427/427 426/426/426
f 429/429/429 427/427/427 428/428/428
f 430/430/430 429/429/429 428/428/428
f 431/431/431 429/429/429 430/430/430
f 432/432/432 431/431/431 430/430/430
f 433/433/433 431/431/431 432/432/432
f 434/434/434 433/433/433 432/432/432
f 435/435/435 433/433/433 434/434/434
f 436/436/436 435/435/435 434/434/434
f 437/437/437 435/435/435 436/436/436
f 438/438/438 437/437/437 436/436/436
f 439/439/439 437/437/437 438/438/438
f 440/440/440 439/439/439 438/438/438
f 441/441/441 439/439/439 440/440/440
f 99/99/99 347/347/347 346/346/346
f 100/100/100 347/347/347 99/99/99
f 103/103/103 346/346/346 349/349/349
f 99/99/99 346/346/346 103/103/103
f 105/105/105 349/349/349 351/351/351
f 103/103/103 349/349/349 105/105/105
f 107/107/107 351/351/351 353/353/353
f 105/105/105 351/351/351 107/107/107
f 109/109/109 353/353/353 355/355/355
f 107/107/107 353/353/353 109/109/109
f 111/111/111 355/355/355 357/357/357
f 109/109/109 355/355/355 111/111/111
f 113/113/113 357/357/357 359/359/359
f 111/111/111 357/357/357 113/113/113
f 115/115/115 359/359/359 361/361/361
f 113/113/113 359/359/359 115/115/115
f 117/117/117 361/361/361 363/363/363
f 115/115/115 361/361/361 117/117/117
f 119/119/119 363/363/363 365/365/365
f 117/117/117 363/363/363 119/119/119
f 365/365/365 121/121/121 119/119/119
f 367/367/367 121/121/121 365/365/365
f 367/367/367 123/123/123 121/121/121
f 369/369/369 123/123/123 367/367/367
f 369/369/369 125/125/125 123/123/123
f 371/371/371 125/125/125 369/369/369
f 371/371/371 127/127/127 125/125/125
f 373/373/373 127/127/127 371/371/371
f 373/373/373 129/129/129 127/127/127
f 375/375/375 129/129/129 373/373/373
f 375/375/375 131/131/131 129/129/129
f 377/377/377 131/131/131 375/375/375
f 377/377/377 133/133/133 131/131/131
f 379/379/379 133/133/133 377/377/377
f 135/135/135 379/379/379 381/381/381
f 133/133/133 379/379/379 135/135/135
f 137/137/137 381/381/381 383/383/383
f 135/135/135 381/381/381 137/137/137
f 139/139/139 383/383/383 385/385/385
f 137/137/137 383/383/383 139/139/139
f 141/141/141 385/385/385 387/387/387
f 139/139/139 385/385/385 141/141/141
f 143/143/143 387/387/387 389/389/389
f 141/141/141 387/387/387 143/143/143
f 145/145/145 389/389/389 391/391/391
f 143/143/143 389/389/389 145/145/145
f 147/147/147 391/391/391 393/393/393
f 145/145/145 391/391/391 147/147/147
f 149/149/149 393/393/393 395/395/395
f 147/147/147 393/393/393 149/149/149
f 395/395/395 151/151/151 149/149/149
f 397/397/397 151/151/151 395/395/395
f 397/397/397 153/153/153 151/151/151
f 399/399/399 153/153/153 397/397/397
f 401/401/401 157/157/157 155/155/155
f 403/403/403 157/157/157 401/401/401
f 403/403/403 159/159/159 157/157/157
f 405/405/405 159/159/159 403/403/403
f 405/405/405 161/161/161 159/159/159
f 407/407/407 161/161/161 405/405/405
f 407/407/407 163/163/163 161/161/161
f 409/409/409 163/163/163 407/407/407
f 409/409/409 165/165/165 163/163/163
f 411/411/411 165/165/165 409/409/409
f 411/411/411 167/167/167 165/165/165
f 413/413/413 167/167/167 411/411/411
f 413/413/413 169/169/169 167/167/167
f 415/415/415 169/169/169 413/413/413
f 415/415/415 171/171/171 169/169/169
f 417/417/417 171/171/171 415/415/415
f 417/417/417 173/173/173 171/171/171
f 419/419/419 173/173/173 417/417/417
f 419/419/419 175/175/175 173/173/173
f 421/421/421 175/175/175 419/419/419
f 421/421/421 177/177/177 175/175/175
f 423/423/423 177/177/177 421/421/421
f 423/423/423 179/179/179 177/177/177
f 425/425/425 179/179/179 423/423/423
f 425/425/425 181/181/181 179/179/179
f 427/427/427 181/181/181 425/425/425
f 427/427/427 183/183/183 181/181/181
f 429/429/429 183/183/183 427/427/427
f 429/429/429 185/185/185 183/183/183
f 431/431/431 185/185/185 429/429/429
f 431/431/431 187/187/187 185/185/185
f 433/433/433 187/187/187 431/431/431
f 433/433/433 189/189/189 187/187/187
f 435/435/435 189/189/189 433/433/433
f 435/435/435 191/191/191 189/189/189
f 437/437/437 191/191/191 435/435/435
f 437/437/437 193/193/193 191/191/191
f 439/439/439 193/193/193 437/437/437
f 439/439/439 195/195/195 193/193/193
f 441/441/441 195/195/195 439/439/439
f 344/344/344 4/4/4 3/3/3
f 345/345/345 4/4/4 344/344/344
f 348/348/348 3/3/3 6/6/6
f 344/344/344 3/3/3 348/348/348
f 350/350/350 6/6/6 8/8/8
f 348/348/348 6/6/6 350/350/350
f 352/352/352 8/8/8 10/10/10
f 350/350/350 8/8/8 352/352/352
f 354/354/354 10/10/10 12/12/12
f 352/352/352 10/10/10 354/354/354
f 356/356/356 12/12/12 14/14/14
f 354/354/354 12/12/12 356/356/356
f 358/358/358 14/14/14 16/16/16
f 356/356/356 14/14/14 358/358/358
f 360/360/360 16/16/16 18/18/18
f 358/358/358 16/16/16 360/360/360
f 362/362/362 18/18/18 20/20/20
f 360/360/360 18/18/18 362/362/362
f 364/364/364 20/20/20 22/22/22
f 362/362/362 20/20/20 364/364/364
f 22/22/22 366/366/366 364/364/364
f 24/24/24 366/366/366 22/22/22
f 24/24/24 368/368/368 366/366/366
f 26/26/26 368/368/368 24/24/24
f 26/26/26 370/370/370 368/368/368
f 28/28/28 370/370/370 26/26/26
f 28/28/28 372/372/372 370/370/370
f 30/30/30 372/372/372 28/28/28
f 30/30/30 374/374/374 372/372/372
f 32/32/32 374/374/374 30/30/30
f 32/32/32 376/376/376 374/374/374
f 34/34/34 376/376/376 32/32/32
f 34/34/34 378/378/378 376/376/376
f 36/36/36 378/378/378 34/34/34
f 380/380/380 36/36/36 38/38/38
f 378/378/378 36/36/36 380/380/380
f 382/382/382 38/38/38 40/40/40
f 380/380/380 38/38/38 382/382/382
f 384/384/384 40/40/40 42/42/42
f 382/382/382 40/40/40 384/384/384
f 386/386/386 42/42/42 44/44/44
f 384/384/384 42/42/42 386/386/386
f 388/388/388 44/44/44 46/46/46
f 386/386/386 44/44/44 388/388/388
f 390/390/390 46/46/46 48/48/48
f 388/388/388 46/46/46 390/390/390
f 392/392/392 48/48/48 50/50/50
f 390/390/390 48/48/48 392/392/392
f 394/394/394 50/50/50 52/52/52
f 392/392/392 50/50/50 394/394/394
f 52/52/52 396/396/396 394/394/394
f 54/54/54 396/396/396 52/52/52
f 54/54/54 398/398/398 396/396/396
f 56/56/56 398/398/398 54/54/54
f 58/58/58 402/402/402 400/400/400
f 60/60/60 402/402/402 58/58/58
f 60/60/60 404/404/404 402/402/402
f 62/62/62 404/404/404 60/60/60
f 62/62/62 406/406/406 404/404/404
f 64/64/64 406/406/406 62/62/62
f 64/64/64 408/408/408 406/406/406
f 66/66/66 408/408/408 64/64/64
f 66/66/66 410/410/410 408/408/408
f 68/68/68 410/410/410 66/66/66
f 68/68/68 412/412/412 410/410/410
f 70/70/70 412/412/412 68/68/68
f 70/70/70 414/414/414 412/412/412
f 72/72/72 414/414/414 70/70/70
f 72/72/72 416/416/416 414/414/414
f 74/74/74 416/416/416 72/72/72
f 74/74/74 418/418/418 416/416/416
f 76/76/76 418/418/418 74/74/74
f 76/76/76 420/420/420 418/418/418
f 78/78/78 420/420/420 76/76/76
f 78/78/78 422/422/422 420/420/420
f 80/80/80 422/422/422 78/78/78
f 80/80/80 424/424/424 422/422/422
f 82/82/82 424/424/424 80/80/80
f 82/82/82 426/426/426 424/424/424
f 84/84/84 426/426/426 82/82/82
f 84/84/84 428/428/428 426/426/426
f 86/86/86 428/428/428 84/84/84
f 86/86/86 430/430/430 428/428/428
f 88/88/88 430/430/430 86/86/86
f 88/88/88 432/432/432 430/430/430
f 90/90/90 432/432/432 88/88/88
f 90/90/90 434/434/434 432/432/432
f 92/92/92 434/434/434 90/90/90
f 92/92/92 436/436/436 434/434/434
f 94/94/94 436/436/436 92/92/92
f 94/94/94 438/438/438 436/436/436
f 96/96/96 438/438/438 94/94/94
f 96/96/96 440/440/440 438/438/438
f 98/98/98 440/440/440 96/96/96
f 444/444/444 443/443/443 442/442/442
f 445/445/445 443/443/443 444/444/444
f 448/448/448 447/447/447 446/446/446
f 449/449/449 447/447/447 448/448/448
f 450/450/450 449/449/449 448/448/448
f 451/451/451 449/449/449 450/450/450
f 454/454/454 453/453/453 452/452/452
f 455/455/455 453/453/453 454/454/454
f 456/456/456 452/452/452 453/453/453
f 457/457/457 452/452/452 456/456/456
f 458/458/458 457/457/457 456/456/456
f 459/459/459 457/457/457 458/458/458
f 445/445/445 459/459/459 458/458/458
f 444/444/444 459/459/459 445/445/445
f 455/455/455 451/451/451 450/450/450
f 454/454/454 451/451/451 455/455/455
f 447/447/447 56/56/56 55/55/55
f 449/449/449 56/56/56 447/447/447
f 57/57/57 448/448/448 446/446/446
f 58/58/58 448/448/448 57/57/57
f 452/452/452 154/154/154 153/153/153
f 457/457/457 154/154/154 452/452/452
f 155/155/155 456/456/456 453/453/453
f 156/156/156 456/456/456 155/155/155
f 459/459/459 252/252/252 251/251/251
f 444/444/444 252/252/252 459/459/459
f 253/253/253 445/445/445 458/458/458
f 254/254/254 445/445/445 253/253/253
f 252/252/252 442/442/442 322/322/322
f 444/444/444 442/442/442 252/252/252
f 445/445/445 323/323/323 443/443/443
f 254/254/254 323/323/323 445/445/445
f 154/154/154 459/459/459 251/251/251
f 457/457/457 459/459/459 154/154/154
f 456/456/456 253/253/253 458/458/458
f 156/156/156 253/253/253 456/456/456
f 451/451/451 399/399/399 398/398/398
f 454/454/454 399/399/399 451/451/451
f 400/400/400 455/455/455 450/450/450
f 401/401/401 455/455/455 400/400/400
f 399/399/399 452/452/452 153/153/153
f 454/454/454 452/452/452 399/399/399
f 455/455/455 155/155/155 453/453/453
f 401/401/401 155/155/155 455/455/455
f 56/56/56 451/451/451 398/398/398
f 449/449/449 451/451/451 56/56/56
f 448/448/448 400/400/400 450/450/450
f 58/58/58 400/400/400 448/448/448
