# Exported from Godot Engine
mtllib Charger_Cable_IEC.mtl
o Charger_Cable_IEC
v 0.000000 0.802308 0.572504
vt 0.961914 0.978912
vn -0.000020 0.893635 0.448794
v 0.000000 0.817160 0.608752
vt 0.975586 0.978912
vn -0.000021 0.878361 0.477998
v 0.007308 0.805138 0.571279
vt 0.961914 0.937134
vn -0.000021 0.891224 0.453564
v 0.007308 0.819951 0.607581
vt 0.975586 0.937134
vn -0.000021 0.876473 0.481450
v 0.000000 0.787546 0.545362
vt 0.949219 0.978912
vn -0.000020 0.921070 0.389397
v 0.007308 0.790181 0.543814
vt 0.949219 0.937134
vn -0.022469 0.920837 0.389300
v 0.000000 0.771822 0.521156
vt 0.937500 0.978912
vn -0.000019 0.942782 0.333410
v 0.007308 0.774202 0.519287
vt 0.937500 0.937134
vn -0.035755 0.943701 0.328861
v 0.000000 0.753278 0.500820
vt 0.925781 0.978912
vn -0.000019 0.959253 0.282548
v 0.007308 0.755391 0.498611
vt 0.925781 0.937134
vn -0.027721 0.959427 0.280591
v 0.000000 0.736113 0.485966
vt 0.914551 0.978912
vn -0.000018 0.972133 0.234431
v 0.007308 0.737945 0.483457
vt 0.914551 0.937134
vn -0.034376 0.972524 0.230252
v 0.000000 0.717285 0.473227
vt 0.903320 0.978912
vn -0.000018 0.981637 0.190760
v 0.007308 0.718801 0.470535
vt 0.903320 0.937134
vn -0.027386 0.981757 0.188159
v 0.000000 0.696303 0.463059
vt 0.892090 0.978912
vn -0.000017 0.987416 0.158145
v 0.007308 0.697511 0.460268
vt 0.892090 0.937134
vn -0.007011 0.987573 0.157007
v 0.000000 0.673172 0.455294
vt 0.879883 0.978912
vn -0.000017 0.991720 0.128416
v 0.007308 0.674134 0.452424
vt 0.879883 0.937134
vn -0.000017 0.991720 0.128416
v 0.000000 0.648592 0.448836
vt 0.867676 0.978912
vn -0.000017 0.994487 0.104862
v 0.007308 0.649364 0.445909
vt 0.867676 0.937134
vn -0.000017 0.994487 0.104862
v 0.000000 0.622733 0.443356
vt 0.854980 0.978912
vn -0.000016 0.996698 0.081204
v 0.007308 0.623362 0.440395
vt 0.854980 0.937134
vn -0.000016 0.996418 0.084570
v 0.000000 0.567773 0.434131
vt 0.828613 0.978912
vn -0.000016 0.997515 0.070449
v 0.007308 0.568246 0.431141
vt 0.828613 0.937134
vn -0.000016 0.997515 0.070449
v 0.000000 0.509792 0.425839
vt 0.801270 0.978912
vn -0.000016 0.997979 0.063545
v 0.007308 0.510209 0.422841
vt 0.801270 0.937134
vn -0.000016 0.997979 0.063545
v 0.000000 0.450437 0.417819
vt 0.772949 0.978912
vn -0.000016 0.997979 0.063545
v 0.007308 0.450842 0.414819
vt 0.772949 0.937134
vn -0.000016 0.997979 0.063545
v 0.000000 0.391191 0.409486
vt 0.745117 0.978912
vn -0.000016 0.997752 0.067022
v 0.007308 0.391622 0.406490
vt 0.745117 0.937134
vn -0.000016 0.997752 0.067022
v 0.000000 0.333516 0.400250
vt 0.717773 0.978912
vn -0.000016 0.996746 0.080603
v 0.007308 0.334015 0.397264
vt 0.717773 0.937134
vn -0.000016 0.996746 0.080603
v 0.000000 0.278852 0.389505
vt 0.691895 0.978912
vn -0.000017 0.995143 0.098438
v 0.007308 0.279470 0.386542
vt 0.691895 0.937134
vn -0.000017 0.995143 0.098438
v 0.000000 0.228582 0.376662
vt 0.667480 0.978912
vn -0.000017 0.992976 0.118312
v 0.007308 0.229382 0.373742
vt 0.667480 0.937134
vn -0.000017 0.992605 0.121388
v 0.000000 0.205373 0.369403
vt 0.656250 0.978912
vn -0.000017 0.989952 0.141407
v 0.007308 0.206278 0.366514
vt 0.656250 0.937134
vn -0.000017 0.989952 0.141407
v 0.000000 0.183469 0.361640
vt 0.645508 0.978912
vn -0.000017 0.987879 0.155224
v 0.007308 0.184481 0.358788
vt 0.645508 0.937134
vn -0.000017 0.987879 0.155224
v 0.000000 0.162865 0.353413
vt 0.635254 0.978912
vn -0.000018 0.985134 0.171789
v 0.007308 0.163989 0.350603
vt 0.635254 0.937134
vn -0.000018 0.985134 0.171789
v 0.000000 0.143560 0.344761
vt 0.625488 0.978912
vn -0.000018 0.982152 0.188088
v 0.007308 0.144799 0.342000
vt 0.625488 0.937134
vn -0.000018 0.982152 0.188088
v 0.000000 0.125549 0.335723
vt 0.616211 0.978912
vn -0.000018 0.978954 0.204080
v 0.007308 0.126908 0.333018
vt 0.616211 0.937134
vn -0.000018 0.978954 0.204080
v 0.000000 0.108830 0.326337
vt 0.607422 0.978912
vn -0.000018 0.975195 0.221346
v 0.007308 0.110313 0.323698
vt 0.607422 0.937134
vn -0.000018 0.975195 0.221346
v 0.000000 0.093399 0.316640
vt 0.599121 0.978912
vn -0.000019 0.970141 0.242540
v 0.007308 0.095011 0.314078
vt 0.599121 0.937134
vn -0.000019 0.970141 0.242540
v 0.000000 0.079254 0.306669
vt 0.591309 0.978912
vn -0.000019 0.962314 0.271941
v 0.007308 0.081000 0.304196
vt 0.591309 0.937134
vn -0.000019 0.962314 0.271941
v 0.000000 0.054813 0.286042
vt 0.577148 0.978912
vn -0.000019 0.951477 0.307718
v 0.007308 0.056840 0.283794
vt 0.577148 0.937134
vn -0.000019 0.950774 0.309884
v 0.000037 0.035417 0.264576
vt 0.564453 0.978912
vn -0.000020 0.933152 0.359481
v 0.007344 0.037754 0.262651
vt 0.564453 0.937134
vn -0.014509 0.934723 0.355081
v 0.001381 0.009819 0.200806
vt 0.540039 0.978912
vn -0.037277 0.828602 0.558596
v 0.008661 0.012808 0.199521
vt 0.540039 0.937134
vn -0.028008 0.825196 0.564152
v 0.003382 0.002430 0.155599
vt 0.527344 0.978912
vn -0.059358 0.806222 0.588629
v 0.010622 0.005612 0.155351
vt 0.527344 0.937134
vn -0.059358 0.806222 0.588629
v 0.006693 -0.002410 0.104882
vt 0.513184 0.978912
vn -0.093074 0.790912 0.604810
v 0.013880 0.000870 0.105511
vt 0.513184 0.937134
vn -0.093074 0.790912 0.604810
v 0.011624 -0.005563 0.047222
vt 0.496582 0.978912
vn -0.117073 0.782200 0.611929
v 0.018758 -0.002240 0.048511
vt 0.496582 0.937134
vn -0.117073 0.782200 0.611929
v 0.018296 -0.007700 -0.018146
vt 0.477539 0.978912
vn -0.140073 0.780989 0.608634
v 0.025388 -0.004361 -0.016421
vt 0.477539 0.937134
vn -0.140073 0.780989 0.608634
v 0.026294 -0.009074 -0.089687
vt 0.456543 0.978912
vn -0.153049 0.775920 0.611984
v 0.033358 -0.005730 -0.087709
vt 0.456543 0.937134
vn -0.153049 0.775920 0.611984
v 0.035102 -0.009858 -0.165316
vt 0.434570 0.978912
vn -0.154342 0.771519 0.617201
v 0.042151 -0.006512 -0.163205
vt 0.434570 0.937134
vn -0.154342 0.771519 0.617201
v 0.044207 -0.010218 -0.242915
vt 0.411865 0.978912
vn -0.154342 0.771519 0.617201
v 0.051251 -0.006871 -0.240760
vt 0.411865 0.937134
vn -0.154342 0.771519 0.617201
v 0.053093 -0.010319 -0.320344
vt 0.389160 0.978912
vn -0.154342 0.771519 0.617201
v 0.060141 -0.006973 -0.318227
vt 0.389160 0.937134
vn -0.154342 0.771519 0.617201
v 0.061246 -0.010324 -0.395505
vt 0.366943 0.978912
vn -0.132899 0.764116 0.631240
v 0.068308 -0.006978 -0.393515
vt 0.366943 0.937134
vn -0.132899 0.764116 0.631240
v 0.068250 -0.010324 -0.467872
vt 0.345947 0.978912
vn -0.111200 0.756108 0.644931
v 0.075337 -0.006978 -0.466125
vt 0.345947 0.937134
vn -0.122102 0.760196 0.638117
v 0.073804 -0.010324 -0.538768
vt 0.325195 0.978912
vn -0.089264 0.747490 0.658248
v 0.080921 -0.006978 -0.537393
vt 0.325195 0.937134
vn -0.089264 0.747490 0.658248
v 0.077606 -0.010324 -0.609604
vt 0.304688 0.978912
vn -0.044840 0.728449 0.683631
v 0.084752 -0.006978 -0.608717
vt 0.304688 0.937134
vn -0.044840 0.728449 0.683631
v 0.079357 -0.010324 -0.681790
vt 0.283936 0.978912
vn -0.000022 0.707107 0.707107
v 0.086521 -0.006978 -0.681477
vt 0.283936 0.937134
vn -0.011244 0.712651 0.701429
v 0.078759 -0.010324 -0.756737
vt 0.262451 0.978912
vn 0.033619 0.723306 0.689709
v 0.085923 -0.006978 -0.757044
vt 0.262451 0.937134
vn 0.033619 0.723306 0.689709
v 0.075441 -0.010324 -0.836278
vt 0.239502 0.978912
vn 0.078201 0.742946 0.664767
v 0.082584 -0.006978 -0.837230
vt 0.239502 0.937134
vn 0.078201 0.742946 0.664767
v 0.068348 -0.010324 -0.926406
vt 0.213257 0.978912
vn 0.122052 0.760178 0.638148
v 0.075443 -0.006978 -0.928053
vt 0.213257 0.937134
vn 0.132849 0.764098 0.631272
v 0.056033 -0.010324 -1.035464
vt 0.181274 0.978912
vn 0.164870 0.774966 0.610120
v 0.063067 -0.006978 -1.037705
vt 0.181274 0.937134
vn 0.176688 0.778686 0.602022
v 0.037047 -0.010324 -1.171828
vt 0.140991 0.978912
vn 0.197590 0.784874 0.587308
v 0.044023 -0.006978 -1.174499
vt 0.140991 0.937134
vn 0.197590 0.784874 0.587308
v 0.009938 -0.010324 -1.343876
vt 0.089783 0.978912
vn 0.218048 0.790440 0.572416
v 0.016870 -0.006978 -1.346836
vt 0.089783 0.937134
vn 0.218048 0.790440 0.572416
v -0.026745 -0.010324 -1.559991
vt 0.025101 0.978912
vn 0.228094 0.792992 0.564922
v -0.019844 -0.006978 -1.563138
vt 0.025101 0.937134
vn 0.228094 0.792992 0.564922
v 0.000000 0.821618 0.564164
vt 0.961914 0.810913
vn -0.000020 0.893635 0.448794
v 0.000000 0.836221 0.600758
vt 0.975586 0.810913
vn -0.000021 0.878361 0.477998
v -0.007308 0.818763 0.565423
vt 0.961914 0.769165
vn -0.007974 0.893594 0.448806
v -0.007308 0.833430 0.601929
vt 0.975586 0.769165
vn -0.000021 0.876473 0.481450
v 0.000000 0.805541 0.534784
vt 0.949219 0.810913
vn -0.000020 0.919137 0.393939
v -0.007308 0.802905 0.536334
vt 0.949219 0.769165
vn -0.022469 0.920837 0.389300
v 0.000000 0.788077 0.508390
vt 0.937500 0.810913
vn -0.000020 0.941244 0.337727
v -0.007308 0.785697 0.510259
vt 0.937500 0.769165
vn -0.028680 0.942392 0.333278
v 0.000000 0.767714 0.485729
vt 0.925781 0.810913
vn -0.000019 0.958018 0.286708
v -0.007308 0.765599 0.487940
vt 0.925781 0.769165
vn -0.027908 0.958882 0.282430
v 0.000000 0.748619 0.468838
vt 0.914551 0.810913
vn -0.000018 0.971153 0.238455
v -0.007308 0.746746 0.471404
vt 0.914551 0.769165
vn -0.034236 0.971938 0.232734
v 0.000000 0.727611 0.454876
vt 0.903320 0.810913
vn -0.000018 0.980850 0.194764
v -0.007308 0.726094 0.457570
vt 0.903320 0.769165
vn -0.020604 0.981159 0.192100
v 0.000000 0.704524 0.444042
vt 0.892090 0.810913
vn -0.000017 0.987416 0.158145
v -0.007308 0.703324 0.446821
vt 0.892090 0.769165
vn -0.007011 0.987573 0.157007
v 0.000000 0.679741 0.435697
vt 0.879883 0.810913
vn -0.000017 0.991720 0.128416
v -0.007308 0.678779 0.438567
vt 0.879883 0.769165
vn -0.000017 0.991720 0.128416
v 0.000000 0.653862 0.428850
vt 0.867676 0.810913
vn -0.000017 0.994487 0.104862
v -0.007308 0.653091 0.431777
vt 0.867676 0.769165
vn -0.000017 0.994487 0.104862
v 0.000000 0.627027 0.423138
vt 0.854980 0.810913
vn -0.000016 0.996698 0.081204
v -0.007308 0.626398 0.426099
vt 0.854980 0.769165
vn -0.000016 0.996418 0.084570
v 0.000000 0.571003 0.413716
vt 0.828613 0.810913
vn -0.000016 0.997515 0.070449
v -0.007308 0.570530 0.416706
vt 0.828613 0.769165
vn -0.000016 0.997515 0.070449
v 0.000000 0.512644 0.405368
vt 0.801270 0.810913
vn -0.000016 0.997979 0.063545
v -0.007308 0.512226 0.408366
vt 0.801270 0.769165
vn -0.000016 0.997979 0.063545
v 0.000000 0.453200 0.397335
vt 0.772949 0.810913
vn -0.000016 0.997979 0.063545
v -0.007308 0.452795 0.400335
vt 0.772949 0.769165
vn -0.000016 0.997979 0.063545
v 0.000000 0.394132 0.389027
vt 0.745117 0.810913
vn -0.000016 0.997752 0.067022
v -0.007308 0.393701 0.392023
vt 0.745117 0.769165
vn -0.000016 0.997752 0.067022
v 0.000000 0.336922 0.379863
vt 0.717773 0.810913
vn -0.000016 0.996746 0.080603
v -0.007308 0.336423 0.382848
vt 0.717773 0.769165
vn -0.000016 0.996746 0.080603
v 0.000000 0.283071 0.369271
vt 0.691895 0.810913
vn -0.000017 0.995143 0.098438
v -0.007308 0.282453 0.372234
vt 0.691895 0.769165
vn -0.000017 0.995143 0.098438
v 0.000000 0.234046 0.356727
vt 0.667480 0.810913
vn -0.000017 0.992976 0.118312
v -0.007308 0.233246 0.359647
vt 0.667480 0.769165
vn -0.000017 0.992605 0.121388
v 0.000000 0.211548 0.349678
vt 0.656250 0.810913
vn -0.000017 0.989952 0.141407
v -0.007308 0.210644 0.352566
vt 0.656250 0.769165
vn -0.000017 0.989952 0.141407
v 0.000000 0.190379 0.342160
vt 0.645508 0.810913
vn -0.000017 0.987879 0.155224
v -0.007308 0.189367 0.345013
vt 0.645508 0.769165
vn -0.000017 0.987879 0.155224
v 0.000000 0.170537 0.334220
vt 0.635254 0.810913
vn -0.000018 0.985134 0.171789
v -0.007308 0.169414 0.337031
vt 0.635254 0.769165
vn -0.000018 0.985134 0.171789
v 0.000000 0.152021 0.325903
vt 0.625488 0.810913
vn -0.000018 0.982152 0.188088
v -0.007308 0.150782 0.328665
vt 0.625488 0.769165
vn -0.000018 0.982152 0.188088
v 0.000000 0.134829 0.317254
vt 0.616211 0.810913
vn -0.000018 0.978954 0.204080
v -0.007308 0.133470 0.319959
vt 0.616211 0.769165
vn -0.000018 0.978954 0.204080
v 0.000000 0.118959 0.308319
vt 0.607422 0.810913
vn -0.000018 0.975195 0.221346
v -0.007308 0.117475 0.310958
vt 0.607422 0.769165
vn -0.000018 0.975195 0.221346
v 0.000000 0.104409 0.299147
vt 0.599121 0.810913
vn -0.000019 0.970141 0.242540
v -0.007308 0.102796 0.301709
vt 0.599121 0.769165
vn -0.000019 0.970141 0.242540
v 0.000000 0.091177 0.289785
vt 0.591309 0.810913
vn -0.000019 0.961653 0.274270
v -0.007308 0.089431 0.292258
vt 0.591309 0.769165
vn -0.000019 0.962314 0.271941
v 0.000000 0.068656 0.270693
vt 0.577148 0.810913
vn -0.000019 0.950774 0.309884
v -0.007308 0.066629 0.272941
vt 0.577148 0.769165
vn -0.000019 0.950774 0.309884
v 0.000034 0.051296 0.251343
vt 0.564453 0.810913
vn -0.000020 0.933152 0.359481
v -0.007273 0.048958 0.253268
vt 0.564453 0.769165
vn -0.014606 0.933814 0.357461
v 0.001245 0.029137 0.188842
vt 0.540039 0.810913
vn -0.037844 0.822606 0.567351
v -0.006036 0.026147 0.190127
vt 0.540039 0.769165
vn -0.037844 0.822606 0.567351
v 0.003077 0.022559 0.147975
vt 0.527344 0.810913
vn -0.069690 0.806340 0.587332
v -0.004163 0.019376 0.148223
vt 0.527344 0.769165
vn -0.059872 0.802734 0.593325
v 0.006204 0.018063 0.100333
vt 0.513184 0.810913
vn -0.093074 0.790912 0.604810
v -0.000983 0.014783 0.099705
vt 0.513184 0.769165
vn -0.093074 0.790912 0.604810
v 0.010991 0.015028 0.044481
vt 0.496582 0.810913
vn -0.117073 0.782200 0.611929
v 0.003857 0.011706 0.043192
vt 0.496582 0.769165
vn -0.117073 0.782200 0.611929
v 0.017568 0.012929 -0.019913
vt 0.477539 0.810913
vn -0.140073 0.780989 0.608634
v 0.010477 0.009589 -0.021638
vt 0.477539 0.769165
vn -0.140073 0.780989 0.608634
v 0.025498 0.011568 -0.090831
vt 0.456543 0.810913
vn -0.153049 0.775920 0.611984
v 0.018434 0.008223 -0.092809
vt 0.456543 0.769165
vn -0.153049 0.775920 0.611984
v 0.034259 0.010789 -0.166048
vt 0.434570 0.810913
vn -0.154342 0.771519 0.617201
v 0.027210 0.007443 -0.168160
vt 0.434570 0.769165
vn -0.154342 0.771519 0.617201
v 0.043332 0.010431 -0.243379
vt 0.411865 0.810913
vn -0.154342 0.771519 0.617201
v 0.036289 0.007084 -0.245534
vt 0.411865 0.769165
vn -0.154342 0.771519 0.617201
v 0.052200 0.010330 -0.320653
vt 0.389160 0.810913
vn -0.154342 0.771519 0.617201
v 0.045152 0.006983 -0.322770
vt 0.389160 0.769165
vn -0.154342 0.771519 0.617201
v 0.060346 0.010325 -0.395758
vt 0.366943 0.810913
vn -0.132899 0.764116 0.631240
v 0.053284 0.006978 -0.397748
vt 0.366943 0.769165
vn -0.132899 0.764116 0.631240
v 0.067348 0.010325 -0.468094
vt 0.345947 0.810913
vn -0.122102 0.760196 0.638117
v 0.060262 0.006978 -0.469840
vt 0.345947 0.769165
vn -0.122102 0.760196 0.638117
v 0.072897 0.010325 -0.538943
vt 0.325195 0.810913
vn -0.089264 0.747490 0.658248
v 0.065780 0.006978 -0.540317
vt 0.325195 0.769165
vn -0.089264 0.747490 0.658248
v 0.076696 0.010325 -0.609717
vt 0.304688 0.810913
vn -0.044840 0.728449 0.683631
v 0.069549 0.006978 -0.610604
vt 0.304688 0.769165
vn -0.044840 0.728449 0.683631
v 0.078445 0.010325 -0.681830
vt 0.283936 0.810913
vn -0.011244 0.712651 0.701429
v 0.071280 0.006978 -0.682144
vt 0.283936 0.769165
vn -0.000022 0.707107 0.707107
v 0.077846 0.010325 -0.756698
vt 0.262451 0.810913
vn 0.033619 0.723306 0.689709
v 0.070682 0.006978 -0.756392
vt 0.262451 0.769165
vn 0.033619 0.723306 0.689709
v 0.074532 0.010325 -0.836156
vt 0.239502 0.810913
vn 0.078201 0.742946 0.664767
v 0.067389 0.006978 -0.835204
vt 0.239502 0.769165
vn 0.078201 0.742946 0.664767
v 0.067445 0.010325 -0.926197
vt 0.213257 0.810913
vn 0.132849 0.764098 0.631272
v 0.060350 0.006978 -0.924549
vt 0.213257 0.769165
vn 0.132849 0.764098 0.631272
v 0.055138 0.010325 -1.035180
vt 0.181274 0.810913
vn 0.164870 0.774966 0.610120
v 0.048104 0.006978 -1.032939
vt 0.181274 0.769165
vn 0.166140 0.775373 0.609257
v 0.036158 0.010325 -1.171488
vt 0.140991 0.810913
vn 0.197590 0.784874 0.587308
v 0.029182 0.006978 -1.168818
vt 0.140991 0.769165
vn 0.197590 0.784874 0.587308
v 0.009055 0.010325 -1.343499
vt 0.089783 0.810913
vn 0.218048 0.790440 0.572416
v 0.002122 0.006978 -1.340540
vt 0.089783 0.769165
vn 0.218048 0.790440 0.572416
v -0.027624 0.010325 -1.559591
vt 0.025101 0.810913
vn 0.228094 0.792992 0.564922
v -0.034525 0.006978 -1.556444
vt 0.025101 0.769165
vn 0.228094 0.792992 0.564922
v -0.010335 0.811936 0.568371
vt 0.961914 0.727539
vn -0.000021 0.889564 0.456811
v -0.010335 0.826691 0.604755
vt 0.975586 0.727539
vn -0.000021 0.874541 0.484952
v -0.007308 0.805138 0.571279
vt 0.961914 0.685791
vn 0.007933 0.893578 0.448839
v -0.007308 0.819951 0.607581
vt 0.975586 0.685791
vn -0.000021 0.876473 0.481450
v -0.010335 0.796542 0.540075
vt 0.949219 0.727539
vn -0.000020 0.910614 0.413258
v -0.007308 0.790181 0.543814
vt 0.949219 0.685791
vn 0.022428 0.920823 0.389334
v -0.010335 0.779949 0.514773
vt 0.937500 0.727539
vn -0.000020 0.930479 0.366346
v -0.007308 0.774202 0.519287
vt 0.937500 0.685791
vn 0.028640 0.942381 0.333313
v -0.010335 0.760494 0.493276
vt 0.925781 0.727539
vn -0.000019 0.950095 0.311961
v -0.007308 0.755391 0.498611
vt 0.925781 0.685791
vn 0.027682 0.959418 0.280627
v -0.010335 0.742325 0.477459
vt 0.914551 0.727539
vn -0.000019 0.963465 0.267833
v -0.007308 0.737945 0.483457
vt 0.914551 0.685791
vn 0.034338 0.972517 0.230288
v -0.010335 0.722445 0.464056
vt 0.903320 0.727539
vn -0.000018 0.976103 0.217306
v -0.007308 0.718801 0.470535
vt 0.903320 0.685791
vn 0.027350 0.981751 0.188195
v -0.010335 0.700421 0.453540
vt 0.892090 0.727539
vn -0.000018 0.986297 0.164977
v -0.007308 0.697511 0.460268
vt 0.892090 0.685791
vn 0.006976 0.987567 0.157041
v -0.010335 0.676456 0.445495
vt 0.879883 0.727539
vn -0.000017 0.991720 0.128416
v -0.007308 0.674134 0.452424
vt 0.879883 0.685791
vn -0.000017 0.991720 0.128416
v -0.010335 0.651227 0.438843
vt 0.867676 0.727539
vn -0.000017 0.994487 0.104862
v -0.007308 0.649364 0.445909
vt 0.867676 0.685791
vn -0.000017 0.994487 0.104862
v -0.010335 0.624880 0.433247
vt 0.854980 0.727539
vn -0.000016 0.996418 0.084570
v -0.007308 0.623362 0.440395
vt 0.854980 0.685791
vn -0.000016 0.996418 0.084570
v -0.010335 0.569388 0.423923
vt 0.828613 0.727539
vn -0.000016 0.997515 0.070449
v -0.007308 0.568246 0.431141
vt 0.828613 0.685791
vn -0.000016 0.997515 0.070449
v -0.010335 0.511218 0.415603
vt 0.801270 0.727539
vn -0.000016 0.997979 0.063545
v -0.007308 0.510209 0.422841
vt 0.801270 0.685791
vn -0.000016 0.997979 0.063545
v -0.010335 0.451818 0.407577
vt 0.772949 0.727539
vn -0.000016 0.997979 0.063545
v -0.007308 0.450842 0.414819
vt 0.772949 0.685791
vn -0.000016 0.997979 0.063545
v -0.010335 0.392662 0.399257
vt 0.745117 0.727539
vn -0.000016 0.997752 0.067022
v -0.007308 0.391622 0.406490
vt 0.745117 0.685791
vn -0.000016 0.997752 0.067022
v -0.010335 0.335219 0.390056
vt 0.717773 0.727539
vn -0.000016 0.996746 0.080603
v -0.007308 0.334015 0.397264
vt 0.717773 0.685791
vn -0.000016 0.996746 0.080603
v -0.010335 0.280961 0.379388
vt 0.691895 0.727539
vn -0.000017 0.995143 0.098438
v -0.007308 0.279470 0.386542
vt 0.691895 0.685791
vn -0.000017 0.995143 0.098438
v -0.010335 0.231314 0.366695
vt 0.667480 0.727539
vn -0.000017 0.992605 0.121388
v -0.007308 0.229382 0.373742
vt 0.667480 0.685791
vn -0.000017 0.992605 0.121388
v -0.010335 0.208461 0.359540
vt 0.656250 0.727539
vn -0.000017 0.989952 0.141407
v -0.007308 0.206278 0.366514
vt 0.656250 0.685791
vn -0.000017 0.989952 0.141407
v -0.010335 0.186924 0.351900
vt 0.645508 0.727539
vn -0.000017 0.987879 0.155224
v -0.007308 0.184481 0.358788
vt 0.645508 0.685791
vn -0.000017 0.987879 0.155224
v -0.010335 0.166701 0.343817
vt 0.635254 0.727539
vn -0.000018 0.985134 0.171789
v -0.007308 0.163989 0.350603
vt 0.635254 0.685791
vn -0.000018 0.985134 0.171789
v -0.010335 0.147791 0.335332
vt 0.625488 0.727539
vn -0.000018 0.982152 0.188088
v -0.007308 0.144799 0.342000
vt 0.625488 0.685791
vn -0.000018 0.982152 0.188088
v -0.010335 0.130189 0.326488
vt 0.616211 0.727539
vn -0.000018 0.978954 0.204080
v -0.007308 0.126908 0.333018
vt 0.616211 0.685791
vn -0.000018 0.978954 0.204080
v -0.010335 0.113894 0.317328
vt 0.607422 0.727539
vn -0.000018 0.975195 0.221346
v -0.007308 0.110313 0.323698
vt 0.607422 0.685791
vn -0.000018 0.975195 0.221346
v -0.010335 0.098904 0.307894
vt 0.599121 0.727539
vn -0.000019 0.970141 0.242540
v -0.007308 0.095011 0.314078
vt 0.599121 0.685791
vn -0.000019 0.970141 0.242540
v -0.010335 0.085215 0.298227
vt 0.591309 0.727539
vn -0.000019 0.963465 0.267833
v -0.007308 0.081000 0.304196
vt 0.591309 0.685791
vn -0.000019 0.962314 0.271941
v -0.010335 0.061735 0.278367
vt 0.577148 0.727539
vn -0.000019 0.950774 0.309884
v -0.007308 0.056840 0.283794
vt 0.577148 0.685791
vn -0.000019 0.950774 0.309884
v -0.010299 0.043339 0.257941
vt 0.564453 0.727539
vn -0.000020 0.930479 0.366346
v -0.007272 0.037730 0.262625
vt 0.564453 0.685791
vn -0.000020 0.932213 0.361910
v -0.009012 0.019251 0.194163
vt 0.540039 0.727539
vn -0.037538 0.825644 0.562942
v -0.005940 0.012487 0.198587
vt 0.540039 0.685791
vn -0.037277 0.828602 0.558596
v -0.007072 0.012163 0.150559
vt 0.527344 0.727539
vn -0.069160 0.809776 0.582649
v -0.003947 0.005143 0.153614
vt 0.527344 0.685791
vn -0.069160 0.809776 0.582649
v -0.003817 0.007428 0.100777
vt 0.513184 0.727539
vn -0.093074 0.790912 0.604810
v -0.000638 0.000306 0.102922
vt 0.513184 0.685791
vn -0.093074 0.790912 0.604810
v 0.001087 0.004299 0.043461
vt 0.496582 0.727539
vn -0.117073 0.782200 0.611929
v 0.004304 -0.002854 0.045131
vt 0.496582 0.685791
vn -0.117073 0.782200 0.611929
v 0.007752 0.002165 -0.021835
vt 0.477539 0.727539
vn -0.140073 0.780989 0.608634
v 0.010991 -0.004997 -0.020388
vt 0.477539 0.685791
vn -0.140073 0.780989 0.608634
v 0.015740 0.000792 -0.093293
vt 0.456543 0.727539
vn -0.153049 0.775920 0.611984
v 0.018996 -0.006373 -0.091999
vt 0.456543 0.685791
vn -0.153049 0.775920 0.611984
v 0.024537 0.000009 -0.168820
vt 0.434570 0.727539
vn -0.154342 0.771519 0.617201
v 0.027806 -0.007157 -0.167642
vt 0.434570 0.685791
vn -0.154342 0.771519 0.617201
v 0.033627 -0.000350 -0.246290
vt 0.411865 0.727539
vn -0.154342 0.771519 0.617201
v 0.036907 -0.007517 -0.245205
vt 0.411865 0.685791
vn -0.154342 0.771519 0.617201
v 0.042494 -0.000451 -0.323556
vt 0.389160 0.727539
vn -0.154342 0.771519 0.617201
v 0.045783 -0.007618 -0.322551
vt 0.389160 0.685791
vn -0.154342 0.771519 0.617201
v 0.050623 -0.000456 -0.398498
vt 0.366943 0.727539
vn -0.132899 0.764116 0.631240
v 0.053920 -0.007623 -0.397569
vt 0.366943 0.685791
vn -0.132899 0.764116 0.631240
v 0.057591 -0.000456 -0.470498
vt 0.345947 0.727539
vn -0.122102 0.760196 0.638117
v 0.060900 -0.007623 -0.469683
vt 0.345947 0.685791
vn -0.122102 0.760196 0.638117
v 0.063098 -0.000456 -0.540835
vt 0.325195 0.727539
vn -0.089264 0.747490 0.658248
v 0.066421 -0.007623 -0.540193
vt 0.325195 0.685791
vn -0.089264 0.747490 0.658248
v 0.066856 -0.000456 -0.610939
vt 0.304688 0.727539
vn -0.044840 0.728449 0.683631
v 0.070193 -0.007623 -0.610525
vt 0.304688 0.685791
vn -0.044840 0.728449 0.683631
v 0.068580 -0.000456 -0.682262
vt 0.283936 0.727539
vn -0.011244 0.712651 0.701429
v 0.071925 -0.007623 -0.682116
vt 0.283936 0.685791
vn -0.000022 0.707107 0.707107
v 0.067981 -0.000456 -0.756276
vt 0.262451 0.727539
vn 0.033619 0.723306 0.689709
v 0.071327 -0.007623 -0.756419
vt 0.262451 0.685791
vn 0.033619 0.723306 0.689709
v 0.064696 -0.000456 -0.834846
vt 0.239502 0.727539
vn 0.078201 0.742946 0.664767
v 0.068032 -0.007623 -0.835290
vt 0.239502 0.685791
vn 0.078201 0.742946 0.664767
v 0.057675 -0.000456 -0.923929
vt 0.213257 0.727539
vn 0.132849 0.764098 0.631272
v 0.060988 -0.007623 -0.924698
vt 0.213257 0.685791
vn 0.132849 0.764098 0.631272
v 0.045453 -0.000456 -1.032096
vt 0.181274 0.727539
vn 0.166140 0.775373 0.609257
v 0.048737 -0.007623 -1.033141
vt 0.181274 0.685791
vn 0.166140 0.775373 0.609257
v 0.026552 -0.000456 -1.167811
vt 0.140991 0.727539
vn 0.197590 0.784874 0.587308
v 0.029810 -0.007623 -1.169058
vt 0.140991 0.685791
vn 0.197590 0.784874 0.587308
v -0.000491 -0.000456 -1.339425
vt 0.089783 0.727539
vn 0.218048 0.790440 0.572416
v 0.002746 -0.007623 -1.340807
vt 0.089783 0.685791
vn 0.218048 0.790440 0.572416
v -0.037127 -0.000456 -1.555259
vt 0.025101 0.727539
vn 0.228094 0.792992 0.564922
v -0.033904 -0.007623 -1.556728
vt 0.025101 0.685791
vn 0.228094 0.792992 0.564922
v 0.000000 0.802308 0.572504
vt 0.961914 0.644043
vn -0.000020 0.893635 0.448794
v 0.000000 0.817160 0.608752
vt 0.975586 0.644043
vn -0.000021 0.878361 0.477998
v 0.000000 0.787546 0.545362
vt 0.949219 0.644043
vn -0.000020 0.921070 0.389397
v 0.000000 0.771822 0.521156
vt 0.937500 0.644043
vn -0.000019 0.942782 0.333410
v 0.000000 0.753278 0.500820
vt 0.925781 0.644043
vn -0.000019 0.959253 0.282548
v 0.000000 0.736113 0.485966
vt 0.914551 0.644043
vn -0.000018 0.972133 0.234431
v 0.000000 0.717285 0.473227
vt 0.903320 0.644043
vn -0.000018 0.981637 0.190760
v 0.000000 0.696303 0.463059
vt 0.892090 0.644043
vn -0.000017 0.987416 0.158145
v 0.000000 0.673172 0.455294
vt 0.879883 0.644043
vn -0.000017 0.991720 0.128416
v 0.000000 0.648592 0.448836
vt 0.867676 0.644043
vn -0.000017 0.994487 0.104862
v 0.000000 0.622733 0.443356
vt 0.854980 0.644043
vn -0.000016 0.996698 0.081204
v 0.000000 0.567773 0.434131
vt 0.828613 0.644043
vn -0.000016 0.997515 0.070449
v 0.000000 0.509792 0.425839
vt 0.801270 0.644043
vn -0.000016 0.997979 0.063545
v 0.000000 0.450437 0.417819
vt 0.772949 0.644043
vn -0.000016 0.997979 0.063545
v 0.000000 0.391191 0.409486
vt 0.745117 0.644043
vn -0.000016 0.997752 0.067022
v 0.000000 0.333516 0.400250
vt 0.717773 0.644043
vn -0.000016 0.996746 0.080603
v 0.000000 0.278852 0.389505
vt 0.691895 0.644043
vn -0.000017 0.995143 0.098438
v 0.000000 0.228582 0.376662
vt 0.667480 0.644043
vn -0.000017 0.992976 0.118312
v 0.000000 0.205373 0.369403
vt 0.656250 0.644043
vn -0.000017 0.989952 0.141407
v 0.000000 0.183469 0.361640
vt 0.645508 0.644043
vn -0.000017 0.987879 0.155224
v 0.000000 0.162865 0.353413
vt 0.635254 0.644043
vn -0.000018 0.985134 0.171789
v 0.000000 0.143560 0.344761
vt 0.625488 0.644043
vn -0.000018 0.982152 0.188088
v 0.000000 0.125549 0.335723
vt 0.616211 0.644043
vn -0.000018 0.978954 0.204080
v 0.000000 0.108830 0.326337
vt 0.607422 0.644043
vn -0.000018 0.975195 0.221346
v 0.000000 0.093399 0.316640
vt 0.599121 0.644043
vn -0.000019 0.970141 0.242540
v 0.000000 0.079254 0.306669
vt 0.591309 0.644043
vn -0.000019 0.962314 0.271941
v 0.000000 0.054813 0.286042
vt 0.577148 0.644043
vn -0.000019 0.951477 0.307718
v 0.000037 0.035417 0.264576
vt 0.564453 0.644043
vn -0.000020 0.933152 0.359481
v 0.001381 0.009819 0.200806
vt 0.540039 0.644043
vn -0.037277 0.828602 0.558596
v 0.003382 0.002430 0.155599
vt 0.527344 0.644043
vn -0.059358 0.806222 0.588629
v 0.006693 -0.002410 0.104882
vt 0.513184 0.644043
vn -0.093074 0.790912 0.604810
v 0.011624 -0.005563 0.047222
vt 0.496582 0.644043
vn -0.117073 0.782200 0.611929
v 0.018296 -0.007700 -0.018146
vt 0.477539 0.644043
vn -0.140073 0.780989 0.608634
v 0.026294 -0.009074 -0.089687
vt 0.456543 0.644043
vn -0.153049 0.775920 0.611984
v 0.035102 -0.009858 -0.165316
vt 0.434570 0.644043
vn -0.154342 0.771519 0.617201
v 0.044207 -0.010218 -0.242915
vt 0.411865 0.644043
vn -0.154342 0.771519 0.617201
v 0.053093 -0.010319 -0.320344
vt 0.389160 0.644043
vn -0.154342 0.771519 0.617201
v 0.061246 -0.010324 -0.395505
vt 0.366943 0.644043
vn -0.143681 0.767903 0.624245
v 0.068250 -0.010324 -0.467872
vt 0.345947 0.644043
vn -0.122102 0.760196 0.638117
v 0.073804 -0.010324 -0.538768
vt 0.325195 0.644043
vn -0.089264 0.747490 0.658248
v 0.077606 -0.010324 -0.609604
vt 0.304688 0.644043
vn -0.056026 0.733442 0.677439
v 0.079357 -0.010324 -0.681790
vt 0.283936 0.644043
vn -0.011244 0.712651 0.701429
v 0.078759 -0.010324 -0.756737
vt 0.262451 0.644043
vn 0.033619 0.723306 0.689709
v 0.075441 -0.010324 -0.836278
vt 0.239502 0.644043
vn 0.078201 0.742946 0.664767
v 0.068348 -0.010324 -0.926406
vt 0.213257 0.644043
vn 0.132849 0.764098 0.631272
v 0.056033 -0.010324 -1.035464
vt 0.181274 0.644043
vn 0.176688 0.778686 0.602022
v 0.037047 -0.010324 -1.171828
vt 0.140991 0.644043
vn 0.197590 0.784874 0.587308
v 0.009938 -0.010324 -1.343876
vt 0.089783 0.644043
vn 0.218048 0.790440 0.572416
v -0.026745 -0.010324 -1.559991
vt 0.025101 0.644043
vn 0.228094 0.792992 0.564922
v 0.010335 0.811936 0.568371
vt 0.961914 0.895264
vn -0.000021 0.889564 0.456811
v 0.010335 0.826691 0.604755
vt 0.975586 0.895264
vn -0.000021 0.874541 0.484952
v 0.007308 0.818763 0.565423
vt 0.961914 0.853149
vn 0.007933 0.893578 0.448839
v 0.007308 0.833430 0.601929
vt 0.975586 0.853149
vn 0.008179 0.879084 0.476596
v 0.010335 0.796542 0.540075
vt 0.949219 0.895264
vn -0.000020 0.910614 0.413258
v 0.007308 0.802905 0.536334
vt 0.949219 0.853149
vn 0.022428 0.920823 0.389334
v 0.010335 0.779949 0.514773
vt 0.937500 0.895264
vn -0.000020 0.930479 0.366346
v 0.007308 0.785697 0.510259
vt 0.937500 0.853149
vn 0.028640 0.942381 0.333313
v 0.010335 0.760494 0.493276
vt 0.925781 0.895264
vn -0.000019 0.950095 0.311961
v 0.007308 0.765599 0.487940
vt 0.925781 0.853149
vn 0.034748 0.959873 0.278275
v 0.010335 0.742325 0.477459
vt 0.914551 0.895264
vn -0.000019 0.963465 0.267833
v 0.007308 0.746746 0.471404
vt 0.914551 0.853149
vn 0.034338 0.972517 0.230288
v 0.010335 0.722445 0.464056
vt 0.903320 0.895264
vn -0.000018 0.976675 0.214722
v 0.007308 0.726094 0.457570
vt 0.903320 0.853149
vn 0.020567 0.981153 0.192135
v 0.010335 0.700421 0.453540
vt 0.892090 0.895264
vn -0.000018 0.986297 0.164977
v 0.007308 0.703324 0.446821
vt 0.892090 0.853149
vn 0.006976 0.987567 0.157041
v 0.010335 0.676456 0.445495
vt 0.879883 0.895264
vn -0.000017 0.991720 0.128416
v 0.007308 0.678779 0.438567
vt 0.879883 0.853149
vn -0.000017 0.991720 0.128416
v 0.010335 0.651227 0.438843
vt 0.867676 0.895264
vn -0.000017 0.994487 0.104862
v 0.007308 0.653091 0.431777
vt 0.867676 0.853149
vn -0.000017 0.994487 0.104862
v 0.010335 0.624880 0.433247
vt 0.854980 0.895264
vn -0.000016 0.996418 0.084570
v 0.007308 0.626398 0.426099
vt 0.854980 0.853149
vn -0.000016 0.996418 0.084570
v 0.010335 0.569388 0.423923
vt 0.828613 0.895264
vn -0.000016 0.997515 0.070449
v 0.007308 0.570530 0.416705
vt 0.828613 0.853149
vn -0.000016 0.997515 0.070449
v 0.010335 0.511218 0.415603
vt 0.801270 0.895264
vn -0.000016 0.997979 0.063545
v 0.007308 0.512226 0.408365
vt 0.801270 0.853149
vn -0.000016 0.997979 0.063545
v 0.010335 0.451818 0.407577
vt 0.772949 0.895264
vn -0.000016 0.997979 0.063545
v 0.007308 0.452795 0.400335
vt 0.772949 0.853149
vn -0.000016 0.997979 0.063545
v 0.010335 0.392662 0.399257
vt 0.745117 0.895264
vn -0.000016 0.997752 0.067022
v 0.007308 0.393701 0.392023
vt 0.745117 0.853149
vn -0.000016 0.997752 0.067022
v 0.010335 0.335219 0.390056
vt 0.717773 0.895264
vn -0.000016 0.996746 0.080603
v 0.007308 0.336423 0.382848
vt 0.717773 0.853149
vn -0.000016 0.996746 0.080603
v 0.010335 0.280961 0.379388
vt 0.691895 0.895264
vn -0.000017 0.995143 0.098438
v 0.007308 0.282453 0.372234
vt 0.691895 0.853149
vn -0.000017 0.995143 0.098438
v 0.010335 0.231314 0.366695
vt 0.667480 0.895264
vn -0.000017 0.992605 0.121388
v 0.007308 0.233246 0.359647
vt 0.667480 0.853149
vn -0.000017 0.992605 0.121388
v 0.010335 0.208461 0.359540
vt 0.656250 0.895264
vn -0.000017 0.989952 0.141407
v 0.007308 0.210644 0.352566
vt 0.656250 0.853149
vn -0.000017 0.989952 0.141407
v 0.010335 0.186924 0.351900
vt 0.645508 0.895264
vn -0.000017 0.987879 0.155224
v 0.007308 0.189367 0.345013
vt 0.645508 0.853149
vn -0.000017 0.987879 0.155224
v 0.010335 0.166701 0.343817
vt 0.635254 0.895264
vn -0.000018 0.985134 0.171789
v 0.007308 0.169414 0.337031
vt 0.635254 0.853149
vn -0.000018 0.985134 0.171789
v 0.010335 0.147791 0.335332
vt 0.625488 0.895264
vn -0.000018 0.982152 0.188088
v 0.007308 0.150782 0.328665
vt 0.625488 0.853149
vn -0.000018 0.982152 0.188088
v 0.010335 0.130189 0.326488
vt 0.616211 0.895264
vn -0.000018 0.978954 0.204080
v 0.007308 0.133470 0.319959
vt 0.616211 0.853149
vn -0.000018 0.978954 0.204080
v 0.010335 0.113894 0.317328
vt 0.607422 0.895264
vn -0.000018 0.975195 0.221346
v 0.007308 0.117475 0.310958
vt 0.607422 0.853149
vn -0.000018 0.975195 0.221346
v 0.010335 0.098904 0.307894
vt 0.599121 0.895264
vn -0.000019 0.970141 0.242540
v 0.007308 0.102796 0.301709
vt 0.599121 0.853149
vn -0.000019 0.970141 0.242540
v 0.010335 0.085215 0.298227
vt 0.591309 0.895264
vn -0.000019 0.963465 0.267833
v 0.007308 0.089431 0.292258
vt 0.591309 0.853149
vn -0.000019 0.962314 0.271941
v 0.010335 0.061735 0.278367
vt 0.577148 0.895264
vn -0.000019 0.950774 0.309884
v 0.007308 0.066629 0.272941
vt 0.577148 0.853149
vn -0.000019 0.950774 0.309884
v 0.010370 0.043373 0.257978
vt 0.564453 0.895264
vn -0.000020 0.930479 0.366346
v 0.007342 0.048982 0.253294
vt 0.564453 0.853149
vn -0.000020 0.931452 0.363864
v 0.011637 0.019705 0.195484
vt 0.540039 0.895264
vn -0.037538 0.825644 0.562942
v 0.008565 0.026468 0.191061
vt 0.540039 0.853149
vn -0.037844 0.822606 0.567351
v 0.013531 0.012826 0.153015
vt 0.527344 0.895264
vn -0.059358 0.806222 0.588629
v 0.010406 0.019846 0.149960
vt 0.527344 0.853149
vn -0.069690 0.806340 0.587332
v 0.016714 0.008225 0.104439
vt 0.513184 0.895264
vn -0.093074 0.790912 0.604810
v 0.013535 0.015347 0.102294
vt 0.513184 0.853149
vn -0.093074 0.790912 0.604810
v 0.021528 0.005167 0.048242
vt 0.496582 0.895264
vn -0.117073 0.782200 0.611929
v 0.018311 0.012320 0.046573
vt 0.496582 0.853149
vn -0.117073 0.782200 0.611929
v 0.028112 0.003064 -0.016224
vt 0.477539 0.895264
vn -0.140073 0.780989 0.608634
v 0.024873 0.010226 -0.017671
vt 0.477539 0.853149
vn -0.140073 0.780989 0.608634
v 0.036051 0.001702 -0.087225
vt 0.456543 0.895264
vn -0.153049 0.775920 0.611984
v 0.032795 0.008867 -0.088518
vt 0.456543 0.853149
vn -0.153049 0.775920 0.611984
v 0.044824 0.000922 -0.162544
vt 0.434570 0.895264
vn -0.154342 0.771519 0.617201
v 0.041554 0.008088 -0.163723
vt 0.434570 0.853149
vn -0.154342 0.771519 0.617201
v 0.053912 0.000563 -0.240003
vt 0.411865 0.895264
vn -0.154342 0.771519 0.617201
v 0.050632 0.007730 -0.241088
vt 0.411865 0.853149
vn -0.154342 0.771519 0.617201
v 0.062799 0.000462 -0.317441
vt 0.389160 0.895264
vn -0.154342 0.771519 0.617201
v 0.059509 0.007629 -0.318446
vt 0.389160 0.853149
vn -0.154342 0.771519 0.617201
v 0.070969 0.000456 -0.392764
vt 0.366943 0.895264
vn -0.132899 0.764116 0.631240
v 0.067672 0.007623 -0.393694
vt 0.366943 0.853149
vn -0.132899 0.764116 0.631240
v 0.078008 0.000456 -0.465467
vt 0.345947 0.895264
vn -0.122102 0.760196 0.638117
v 0.074699 0.007623 -0.466283
vt 0.345947 0.853149
vn -0.122102 0.760196 0.638117
v 0.083603 0.000456 -0.536876
vt 0.325195 0.895264
vn -0.089264 0.747490 0.658248
v 0.080280 0.007623 -0.537517
vt 0.325195 0.853149
vn -0.089264 0.747490 0.658248
v 0.087445 0.000456 -0.608382
vt 0.304688 0.895264
vn -0.044840 0.728449 0.683631
v 0.084108 0.007623 -0.608796
vt 0.304688 0.853149
vn -0.044840 0.728449 0.683631
v 0.089222 0.000457 -0.681358
vt 0.283936 0.895264
vn -0.011244 0.712651 0.701429
v 0.085876 0.007623 -0.681505
vt 0.283936 0.853149
vn -0.011244 0.712651 0.701429
v 0.088624 0.000457 -0.757159
vt 0.262451 0.895264
vn 0.033619 0.723306 0.689709
v 0.085278 0.007623 -0.757016
vt 0.262451 0.853149
vn 0.033619 0.723306 0.689709
v 0.085277 0.000457 -0.837589
vt 0.239502 0.895264
vn 0.078201 0.742946 0.664767
v 0.081941 0.007623 -0.837144
vt 0.239502 0.853149
vn 0.078201 0.742946 0.664767
v 0.078118 0.000457 -0.928674
vt 0.213257 0.895264
vn 0.132849 0.764098 0.631272
v 0.074805 0.007623 -0.927904
vt 0.213257 0.853149
vn 0.132849 0.764098 0.631272
v 0.065718 0.000457 -1.038549
vt 0.181274 0.895264
vn 0.176688 0.778686 0.602022
v 0.062434 0.007623 -1.037503
vt 0.181274 0.853149
vn 0.166140 0.775373 0.609257
v 0.046653 0.000457 -1.175505
vt 0.140991 0.895264
vn 0.197590 0.784874 0.587308
v 0.043395 0.007624 -1.174258
vt 0.140991 0.853149
vn 0.197590 0.784874 0.587308
v 0.019483 0.000457 -1.347952
vt 0.089783 0.895264
vn 0.218048 0.790440 0.572416
v 0.016246 0.007624 -1.346570
vt 0.089783 0.853149
vn 0.218048 0.790440 0.572416
v -0.017242 0.000457 -1.564323
vt 0.025101 0.895264
vn 0.228094 0.792992 0.564922
v -0.020465 0.007624 -1.562855
vt 0.025101 0.853149
vn 0.228094 0.792992 0.564922
v 0.000258 0.025761 0.249632
vt 0.556641 0.644043
vn -0.007880 0.902117 0.431419
v 0.000605 0.018150 0.232378
vt 0.549316 0.644043
vn -0.017242 0.861121 0.508108
v -0.007054 0.028317 0.248038
vt 0.556641 0.685791
vn -0.015678 0.904265 0.426684
v -0.006711 0.020745 0.230717
vt 0.549805 0.685791
vn -0.034341 0.866672 0.497696
v 0.000605 0.018150 0.232378
vt 0.549316 0.978912
vn -0.017242 0.861121 0.508108
v 0.000258 0.025761 0.249632
vt 0.556641 0.978912
vn -0.007880 0.902117 0.431419
v 0.007903 0.020891 0.230926
vt 0.549316 0.937134
vn -0.008603 0.860464 0.509438
v 0.007559 0.028465 0.248248
vt 0.556641 0.937134
vn -0.007844 0.901322 0.433078
v 0.010912 0.027325 0.227054
vt 0.549316 0.895264
vn -0.017242 0.861121 0.508108
v 0.010574 0.034731 0.244523
vt 0.556641 0.895264
vn -0.015606 0.903462 0.428384
v 0.000220 0.043584 0.239265
vt 0.557129 0.810913
vn -0.007909 0.897528 0.440886
v 0.000543 0.036382 0.221827
vt 0.549805 0.810913
vn -0.017695 0.847852 0.529937
v 0.007532 0.041070 0.240923
vt 0.557129 0.853149
vn -0.015707 0.902031 0.431386
v 0.007860 0.033784 0.223457
vt 0.549316 0.853149
vn -0.034653 0.861529 0.506524
v -0.006754 0.033634 0.223252
vt 0.549805 0.769165
vn -0.008720 0.852802 0.522162
v -0.007081 0.040926 0.240716
vt 0.557129 0.769165
vn -0.007895 0.899840 0.436150
v -0.009756 0.027117 0.226761
vt 0.549316 0.727539
vn -0.017242 0.861121 0.508108
v -0.010093 0.034524 0.244229
vt 0.556641 0.727539
vn -0.007844 0.901322 0.433078
usemtl Charging_Cable.004
f 3/3/3 2/2/2 1/1/1
f 4/4/4 2/2/2 3/3/3
f 6/6/6 1/1/1 5/5/5
f 3/3/3 1/1/1 6/6/6
f 8/8/8 5/5/5 7/7/7
f 6/6/6 5/5/5 8/8/8
f 10/10/10 7/7/7 9/9/9
f 8/8/8 7/7/7 10/10/10
f 12/12/12 9/9/9 11/11/11
f 10/10/10 9/9/9 12/12/12
f 14/14/14 11/11/11 13/13/13
f 12/12/12 11/11/11 14/14/14
f 16/16/16 13/13/13 15/15/15
f 14/14/14 13/13/13 16/16/16
f 18/18/18 15/15/15 17/17/17
f 16/16/16 15/15/15 18/18/18
f 20/20/20 17/17/17 19/19/19
f 18/18/18 17/17/17 20/20/20
f 22/22/22 19/19/19 21/21/21
f 20/20/20 19/19/19 22/22/22
f 23/23/23 22/22/22 21/21/21
f 24/24/24 22/22/22 23/23/23
f 25/25/25 24/24/24 23/23/23
f 26/26/26 24/24/24 25/25/25
f 27/27/27 26/26/26 25/25/25
f 28/28/28 26/26/26 27/27/27
f 29/29/29 28/28/28 27/27/27
f 30/30/30 28/28/28 29/29/29
f 31/31/31 30/30/30 29/29/29
f 32/32/32 30/30/30 31/31/31
f 33/33/33 32/32/32 31/31/31
f 34/34/34 32/32/32 33/33/33
f 35/35/35 34/34/34 33/33/33
f 36/36/36 34/34/34 35/35/35
f 38/38/38 35/35/35 37/37/37
f 36/36/36 35/35/35 38/38/38
f 40/40/40 37/37/37 39/39/39
f 38/38/38 37/37/37 40/40/40
f 42/42/42 39/39/39 41/41/41
f 40/40/40 39/39/39 42/42/42
f 44/44/44 41/41/41 43/43/43
f 42/42/42 41/41/41 44/44/44
f 46/46/46 43/43/43 45/45/45
f 44/44/44 43/43/43 46/46/46
f 48/48/48 45/45/45 47/47/47
f 46/46/46 45/45/45 48/48/48
f 50/50/50 47/47/47 49/49/49
f 48/48/48 47/47/47 50/50/50
f 52/52/52 49/49/49 51/51/51
f 50/50/50 49/49/49 52/52/52
f 53/53/53 52/52/52 51/51/51
f 54/54/54 52/52/52 53/53/53
f 55/55/55 54/54/54 53/53/53
f 56/56/56 54/54/54 55/55/55
f 59/59/59 58/58/58 57/57/57
f 60/60/60 58/58/58 59/59/59
f 61/61/61 60/60/60 59/59/59
f 62/62/62 60/60/60 61/61/61
f 63/63/63 62/62/62 61/61/61
f 64/64/64 62/62/62 63/63/63
f 65/65/65 64/64/64 63/63/63
f 66/66/66 64/64/64 65/65/65
f 67/67/67 66/66/66 65/65/65
f 68/68/68 66/66/66 67/67/67
f 69/69/69 68/68/68 67/67/67
f 70/70/70 68/68/68 69/69/69
f 71/71/71 70/70/70 69/69/69
f 72/72/72 70/70/70 71/71/71
f 73/73/73 72/72/72 71/71/71
f 74/74/74 72/72/72 73/73/73
f 75/75/75 74/74/74 73/73/73
f 76/76/76 74/74/74 75/75/75
f 77/77/77 76/76/76 75/75/75
f 78/78/78 76/76/76 77/77/77
f 79/79/79 78/78/78 77/77/77
f 80/80/80 78/78/78 79/79/79
f 81/81/81 80/80/80 79/79/79
f 82/82/82 80/80/80 81/81/81
f 83/83/83 82/82/82 81/81/81
f 84/84/84 82/82/82 83/83/83
f 85/85/85 84/84/84 83/83/83
f 86/86/86 84/84/84 85/85/85
f 87/87/87 86/86/86 85/85/85
f 88/88/88 86/86/86 87/87/87
f 89/89/89 88/88/88 87/87/87
f 90/90/90 88/88/88 89/89/89
f 91/91/91 90/90/90 89/89/89
f 92/92/92 90/90/90 91/91/91
f 93/93/93 92/92/92 91/91/91
f 94/94/94 92/92/92 93/93/93
f 95/95/95 94/94/94 93/93/93
f 96/96/96 94/94/94 95/95/95
f 97/97/97 96/96/96 95/95/95
f 98/98/98 96/96/96 97/97/97
f 101/101/101 100/100/100 99/99/99
f 102/102/102 100/100/100 101/101/101
f 104/104/104 99/99/99 103/103/103
f 101/101/101 99/99/99 104/104/104
f 106/106/106 103/103/103 105/105/105
f 104/104/104 103/103/103 106/106/106
f 108/108/108 105/105/105 107/107/107
f 106/106/106 105/105/105 108/108/108
f 110/110/110 107/107/107 109/109/109
f 108/108/108 107/107/107 110/110/110
f 112/112/112 109/109/109 111/111/111
f 110/110/110 109/109/109 112/112/112
f 114/114/114 111/111/111 113/113/113
f 112/112/112 111/111/111 114/114/114
f 116/116/116 113/113/113 115/115/115
f 114/114/114 113/113/113 116/116/116
f 118/118/118 115/115/115 117/117/117
f 116/116/116 115/115/115 118/118/118
f 120/120/120 117/117/117 119/119/119
f 118/118/118 117/117/117 120/120/120
f 121/121/121 120/120/120 119/119/119
f 122/122/122 120/120/120 121/121/121
f 123/123/123 122/122/122 121/121/121
f 124/124/124 122/122/122 123/123/123
f 125/125/125 124/124/124 123/123/123
f 126/126/126 124/124/124 125/125/125
f 127/127/127 126/126/126 125/125/125
f 128/128/128 126/126/126 127/127/127
f 129/129/129 128/128/128 127/127/127
f 130/130/130 128/128/128 129/129/129
f 131/131/131 130/130/130 129/129/129
f 132/132/132 130/130/130 131/131/131
f 133/133/133 132/132/132 131/131/131
f 134/134/134 132/132/132 133/133/133
f 136/136/136 133/133/133 135/135/135
f 134/134/134 133/133/133 136/136/136
f 138/138/138 135/135/135 137/137/137
f 136/136/136 135/135/135 138/138/138
f 140/140/140 137/137/137 139/139/139
f 138/138/138 137/137/137 140/140/140
f 142/142/142 139/139/139 141/141/141
f 140/140/140 139/139/139 142/142/142
f 144/144/144 141/141/141 143/143/143
f 142/142/142 141/141/141 144/144/144
f 146/146/146 143/143/143 145/145/145
f 144/144/144 143/143/143 146/146/146
f 148/148/148 145/145/145 147/147/147
f 146/146/146 145/145/145 148/148/148
f 150/150/150 147/147/147 149/149/149
f 148/148/148 147/147/147 150/150/150
f 151/151/151 150/150/150 149/149/149
f 152/152/152 150/150/150 151/151/151
f 153/153/153 152/152/152 151/151/151
f 154/154/154 152/152/152 153/153/153
f 157/157/157 156/156/156 155/155/155
f 158/158/158 156/156/156 157/157/157
f 159/159/159 158/158/158 157/157/157
f 160/160/160 158/158/158 159/159/159
f 161/161/161 160/160/160 159/159/159
f 162/162/162 160/160/160 161/161/161
f 163/163/163 162/162/162 161/161/161
f 164/164/164 162/162/162 163/163/163
f 165/165/165 164/164/164 163/163/163
f 166/166/166 164/164/164 165/165/165
f 167/167/167 166/166/166 165/165/165
f 168/168/168 166/166/166 167/167/167
f 169/169/169 168/168/168 167/167/167
f 170/170/170 168/168/168 169/169/169
f 171/171/171 170/170/170 169/169/169
f 172/172/172 170/170/170 171/171/171
f 173/173/173 172/172/172 171/171/171
f 174/174/174 172/172/172 173/173/173
f 175/175/175 174/174/174 173/173/173
f 176/176/176 174/174/174 175/175/175
f 177/177/177 176/176/176 175/175/175
f 178/178/178 176/176/176 177/177/177
f 179/179/179 178/178/178 177/177/177
f 180/180/180 178/178/178 179/179/179
f 181/181/181 180/180/180 179/179/179
f 182/182/182 180/180/180 181/181/181
f 183/183/183 182/182/182 181/181/181
f 184/184/184 182/182/182 183/183/183
f 185/185/185 184/184/184 183/183/183
f 186/186/186 184/184/184 185/185/185
f 187/187/187 186/186/186 185/185/185
f 188/188/188 186/186/186 187/187/187
f 189/189/189 188/188/188 187/187/187
f 190/190/190 188/188/188 189/189/189
f 191/191/191 190/190/190 189/189/189
f 192/192/192 190/190/190 191/191/191
f 193/193/193 192/192/192 191/191/191
f 194/194/194 192/192/192 193/193/193
f 195/195/195 194/194/194 193/193/193
f 196/196/196 194/194/194 195/195/195
f 199/199/199 198/198/198 197/197/197
f 200/200/200 198/198/198 199/199/199
f 202/202/202 197/197/197 201/201/201
f 199/199/199 197/197/197 202/202/202
f 204/204/204 201/201/201 203/203/203
f 202/202/202 201/201/201 204/204/204
f 206/206/206 203/203/203 205/205/205
f 204/204/204 203/203/203 206/206/206
f 208/208/208 205/205/205 207/207/207
f 206/206/206 205/205/205 208/208/208
f 210/210/210 207/207/207 209/209/209
f 208/208/208 207/207/207 210/210/210
f 212/212/212 209/209/209 211/211/211
f 210/210/210 209/209/209 212/212/212
f 214/214/214 211/211/211 213/213/213
f 212/212/212 211/211/211 214/214/214
f 216/216/216 213/213/213 215/215/215
f 214/214/214 213/213/213 216/216/216
f 218/218/218 215/215/215 217/217/217
f 216/216/216 215/215/215 218/218/218
f 219/219/219 218/218/218 217/217/217
f 220/220/220 218/218/218 219/219/219
f 221/221/221 220/220/220 219/219/219
f 222/222/222 220/220/220 221/221/221
f 223/223/223 222/222/222 221/221/221
f 224/224/224 222/222/222 223/223/223
f 225/225/225 224/224/224 223/223/223
f 226/226/226 224/224/224 225/225/225
f 227/227/227 226/226/226 225/225/225
f 228/228/228 226/226/226 227/227/227
f 229/229/229 228/228/228 227/227/227
f 230/230/230 228/228/228 229/229/229
f 231/231/231 230/230/230 229/229/229
f 232/232/232 230/230/230 231/231/231
f 234/234/234 231/231/231 233/233/233
f 232/232/232 231/231/231 234/234/234
f 236/236/236 233/233/233 235/235/235
f 234/234/234 233/233/233 236/236/236
f 238/238/238 235/235/235 237/237/237
f 236/236/236 235/235/235 238/238/238
f 240/240/240 237/237/237 239/239/239
f 238/238/238 237/237/237 240/240/240
f 242/242/242 239/239/239 241/241/241
f 240/240/240 239/239/239 242/242/242
f 244/244/244 241/241/241 243/243/243
f 242/242/242 241/241/241 244/244/244
f 246/246/246 243/243/243 245/245/245
f 244/244/244 243/243/243 246/246/246
f 248/248/248 245/245/245 247/247/247
f 246/246/246 245/245/245 248/248/248
f 249/249/249 248/248/248 247/247/247
f 250/250/250 248/248/248 249/249/249
f 251/251/251 250/250/250 249/249/249
f 252/252/252 250/250/250 251/251/251
f 255/255/255 254/254/254 253/253/253
f 256/256/256 254/254/254 255/255/255
f 257/257/257 256/256/256 255/255/255
f 258/258/258 256/256/256 257/257/257
f 259/259/259 258/258/258 257/257/257
f 260/260/260 258/258/258 259/259/259
f 261/261/261 260/260/260 259/259/259
f 262/262/262 260/260/260 261/261/261
f 263/263/263 262/262/262 261/261/261
f 264/264/264 262/262/262 263/263/263
f 265/265/265 264/264/264 263/263/263
f 266/266/266 264/264/264 265/265/265
f 267/267/267 266/266/266 265/265/265
f 268/268/268 266/266/266 267/267/267
f 269/269/269 268/268/268 267/267/267
f 270/270/270 268/268/268 269/269/269
f 271/271/271 270/270/270 269/269/269
f 272/272/272 270/270/270 271/271/271
f 273/273/273 272/272/272 271/271/271
f 274/274/274 272/272/272 273/273/273
f 275/275/275 274/274/274 273/273/273
f 276/276/276 274/274/274 275/275/275
f 277/277/277 276/276/276 275/275/275
f 278/278/278 276/276/276 277/277/277
f 279/279/279 278/278/278 277/277/277
f 280/280/280 278/278/278 279/279/279
f 281/281/281 280/280/280 279/279/279
f 282/282/282 280/280/280 281/281/281
f 283/283/283 282/282/282 281/281/281
f 284/284/284 282/282/282 283/283/283
f 285/285/285 284/284/284 283/283/283
f 286/286/286 284/284/284 285/285/285
f 287/287/287 286/286/286 285/285/285
f 288/288/288 286/286/286 287/287/287
f 289/289/289 288/288/288 287/287/287
f 290/290/290 288/288/288 289/289/289
f 291/291/291 290/290/290 289/289/289
f 292/292/292 290/290/290 291/291/291
f 293/293/293 292/292/292 291/291/291
f 294/294/294 292/292/292 293/293/293
f 295/295/295 200/200/200 199/199/199
f 296/296/296 200/200/200 295/295/295
f 297/297/297 199/199/199 202/202/202
f 295/295/295 199/199/199 297/297/297
f 298/298/298 202/202/202 204/204/204
f 297/297/297 202/202/202 298/298/298
f 299/299/299 204/204/204 206/206/206
f 298/298/298 204/204/204 299/299/299
f 300/300/300 206/206/206 208/208/208
f 299/299/299 206/206/206 300/300/300
f 301/301/301 208/208/208 210/210/210
f 300/300/300 208/208/208 301/301/301
f 302/302/302 210/210/210 212/212/212
f 301/301/301 210/210/210 302/302/302
f 303/303/303 212/212/212 214/214/214
f 302/302/302 212/212/212 303/303/303
f 304/304/304 214/214/214 216/216/216
f 303/303/303 214/214/214 304/304/304
f 305/305/305 216/216/216 218/218/218
f 304/304/304 216/216/216 305/305/305
f 218/218/218 306/306/306 305/305/305
f 220/220/220 306/306/306 218/218/218
f 220/220/220 307/307/307 306/306/306
f 222/222/222 307/307/307 220/220/220
f 222/222/222 308/308/308 307/307/307
f 224/224/224 308/308/308 222/222/222
f 224/224/224 309/309/309 308/308/308
f 226/226/226 309/309/309 224/224/224
f 226/226/226 310/310/310 309/309/309
f 228/228/228 310/310/310 226/226/226
f 228/228/228 311/311/311 310/310/310
f 230/230/230 311/311/311 228/228/228
f 230/230/230 312/312/312 311/311/311
f 232/232/232 312/312/312 230/230/230
f 313/313/313 232/232/232 234/234/234
f 312/312/312 232/232/232 313/313/313
f 314/314/314 234/234/234 236/236/236
f 313/313/313 234/234/234 314/314/314
f 315/315/315 236/236/236 238/238/238
f 314/314/314 236/236/236 315/315/315
f 316/316/316 238/238/238 240/240/240
f 315/315/315 238/238/238 316/316/316
f 317/317/317 240/240/240 242/242/242
f 316/316/316 240/240/240 317/317/317
f 318/318/318 242/242/242 244/244/244
f 317/317/317 242/242/242 318/318/318
f 319/319/319 244/244/244 246/246/246
f 318/318/318 244/244/244 319/319/319
f 320/320/320 246/246/246 248/248/248
f 319/319/319 246/246/246 320/320/320
f 248/248/248 321/321/321 320/320/320
f 250/250/250 321/321/321 248/248/248
f 250/250/250 322/322/322 321/321/321
f 252/252/252 322/322/322 250/250/250
f 254/254/254 324/324/324 323/323/323
f 256/256/256 324/324/324 254/254/254
f 256/256/256 325/325/325 324/324/324
f 258/258/258 325/325/325 256/256/256
f 258/258/258 326/326/326 325/325/325
f 260/260/260 326/326/326 258/258/258
f 260/260/260 327/327/327 326/326/326
f 262/262/262 327/327/327 260/260/260
f 262/262/262 328/328/328 327/327/327
f 264/264/264 328/328/328 262/262/262
f 264/264/264 329/329/329 328/328/328
f 266/266/266 329/329/329 264/264/264
f 266/266/266 330/330/330 329/329/329
f 268/268/268 330/330/330 266/266/266
f 268/268/268 331/331/331 330/330/330
f 270/270/270 331/331/331 268/268/268
f 270/270/270 332/332/332 331/331/331
f 272/272/272 332/332/332 270/270/270
f 272/272/272 333/333/333 332/332/332
f 274/274/274 333/333/333 272/272/272
f 274/274/274 334/334/334 333/333/333
f 276/276/276 334/334/334 274/274/274
f 276/276/276 335/335/335 334/334/334
f 278/278/278 335/335/335 276/276/276
f 278/278/278 336/336/336 335/335/335
f 280/280/280 336/336/336 278/278/278
f 280/280/280 337/337/337 336/336/336
f 282/282/282 337/337/337 280/280/280
f 282/282/282 338/338/338 337/337/337
f 284/284/284 338/338/338 282/282/282
f 284/284/284 339/339/339 338/338/338
f 286/286/286 339/339/339 284/284/284
f 286/286/286 340/340/340 339/339/339
f 288/288/288 340/340/340 286/286/286
f 288/288/288 341/341/341 340/340/340
f 290/290/290 341/341/341 288/288/288
f 290/290/290 342/342/342 341/341/341
f 292/292/292 342/342/342 290/290/290
f 292/292/292 343/343/343 342/342/342
f 294/294/294 343/343/343 292/292/292
f 197/197/197 102/102/102 101/101/101
f 198/198/198 102/102/102 197/197/197
f 201/201/201 101/101/101 104/104/104
f 197/197/197 101/101/101 201/201/201
f 203/203/203 104/104/104 106/106/106
f 201/201/201 104/104/104 203/203/203
f 205/205/205 106/106/106 108/108/108
f 203/203/203 106/106/106 205/205/205
f 207/207/207 108/108/108 110/110/110
f 205/205/205 108/108/108 207/207/207
f 209/209/209 110/110/110 112/112/112
f 207/207/207 110/110/110 209/209/209
f 211/211/211 112/112/112 114/114/114
f 209/209/209 112/112/112 211/211/211
f 213/213/213 114/114/114 116/116/116
f 211/211/211 114/114/114 213/213/213
f 215/215/215 116/116/116 118/118/118
f 213/213/213 116/116/116 215/215/215
f 217/217/217 118/118/118 120/120/120
f 215/215/215 118/118/118 217/217/217
f 120/120/120 219/219/219 217/217/217
f 122/122/122 219/219/219 120/120/120
f 122/122/122 221/221/221 219/219/219
f 124/124/124 221/221/221 122/122/122
f 124/124/124 223/223/223 221/221/221
f 126/126/126 223/223/223 124/124/124
f 126/126/126 225/225/225 223/223/223
f 128/128/128 225/225/225 126/126/126
f 128/128/128 227/227/227 225/225/225
f 130/130/130 227/227/227 128/128/128
f 130/130/130 229/229/229 227/227/227
f 132/132/132 229/229/229 130/130/130
f 132/132/132 231/231/231 229/229/229
f 134/134/134 231/231/231 132/132/132
f 233/233/233 134/134/134 136/136/136
f 231/231/231 134/134/134 233/233/233
f 235/235/235 136/136/136 138/138/138
f 233/233/233 136/136/136 235/235/235
f 237/237/237 138/138/138 140/140/140
f 235/235/235 138/138/138 237/237/237
f 239/239/239 140/140/140 142/142/142
f 237/237/237 140/140/140 239/239/239
f 241/241/241 142/142/142 144/144/144
f 239/239/239 142/142/142 241/241/241
f 243/243/243 144/144/144 146/146/146
f 241/241/241 144/144/144 243/243/243
f 245/245/245 146/146/146 148/148/148
f 243/243/243 146/146/146 245/245/245
f 247/247/247 148/148/148 150/150/150
f 245/245/245 148/148/148 247/247/247
f 150/150/150 249/249/249 247/247/247
f 152/152/152 249/249/249 150/150/150
f 152/152/152 251/251/251 249/249/249
f 154/154/154 251/251/251 152/152/152
f 156/156/156 255/255/255 253/253/253
f 158/158/158 255/255/255 156/156/156
f 158/158/158 257/257/257 255/255/255
f 160/160/160 257/257/257 158/158/158
f 160/160/160 259/259/259 257/257/257
f 162/162/162 259/259/259 160/160/160
f 162/162/162 261/261/261 259/259/259
f 164/164/164 261/261/261 162/162/162
f 164/164/164 263/263/263 261/261/261
f 166/166/166 263/263/263 164/164/164
f 166/166/166 265/265/265 263/263/263
f 168/168/168 265/265/265 166/166/166
f 168/168/168 267/267/267 265/265/265
f 170/170/170 267/267/267 168/168/168
f 170/170/170 269/269/269 267/267/267
f 172/172/172 269/269/269 170/170/170
f 172/172/172 271/271/271 269/269/269
f 174/174/174 271/271/271 172/172/172
f 174/174/174 273/273/273 271/271/271
f 176/176/176 273/273/273 174/174/174
f 176/176/176 275/275/275 273/273/273
f 178/178/178 275/275/275 176/176/176
f 178/178/178 277/277/277 275/275/275
f 180/180/180 277/277/277 178/178/178
f 180/180/180 279/279/279 277/277/277
f 182/182/182 279/279/279 180/180/180
f 182/182/182 281/281/281 279/279/279
f 184/184/184 281/281/281 182/182/182
f 184/184/184 283/283/283 281/281/281
f 186/186/186 283/283/283 184/184/184
f 186/186/186 285/285/285 283/283/283
f 188/188/188 285/285/285 186/186/186
f 188/188/188 287/287/287 285/285/285
f 190/190/190 287/287/287 188/188/188
f 190/190/190 289/289/289 287/287/287
f 192/192/192 289/289/289 190/190/190
f 192/192/192 291/291/291 289/289/289
f 194/194/194 291/291/291 192/192/192
f 194/194/194 293/293/293 291/291/291
f 196/196/196 293/293/293 194/194/194
f 346/346/346 345/345/345 344/344/344
f 347/347/347 345/345/345 346/346/346
f 349/349/349 344/344/344 348/348/348
f 346/346/346 344/344/344 349/349/349
f 351/351/351 348/348/348 350/350/350
f 349/349/349 348/348/348 351/351/351
f 353/353/353 350/350/350 352/352/352
f 351/351/351 350/350/350 353/353/353
f 355/355/355 352/352/352 354/354/354
f 353/353/353 352/352/352 355/355/355
f 357/357/357 354/354/354 356/356/356
f 355/355/355 354/354/354 357/357/357
f 359/359/359 356/356/356 358/358/358
f 357/357/357 356/356/356 359/359/359
f 361/361/361 358/358/358 360/360/360
f 359/359/359 358/358/358 361/361/361
f 363/363/363 360/360/360 362/362/362
f 361/361/361 360/360/360 363/363/363
f 365/365/365 362/362/362 364/364/364
f 363/363/363 362/362/362 365/365/365
f 366/366/366 365/365/365 364/364/364
f 367/367/367 365/365/365 366/366/366
f 368/368/368 367/367/367 366/366/366
f 369/369/369 367/367/367 368/368/368
f 370/370/370 369/369/369 368/368/368
f 371/371/371 369/369/369 370/370/370
f 372/372/372 371/371/371 370/370/370
f 373/373/373 371/371/371 372/372/372
f 374/374/374 373/373/373 372/372/372
f 375/375/375 373/373/373 374/374/374
f 376/376/376 375/375/375 374/374/374
f 377/377/377 375/375/375 376/376/376
f 378/378/378 377/377/377 376/376/376
f 379/379/379 377/377/377 378/378/378
f 381/381/381 378/378/378 380/380/380
f 379/379/379 378/378/378 381/381/381
f 383/383/383 380/380/380 382/382/382
f 381/381/381 380/380/380 383/383/383
f 385/385/385 382/382/382 384/384/384
f 383/383/383 382/382/382 385/385/385
f 387/387/387 384/384/384 386/386/386
f 385/385/385 384/384/384 387/387/387
f 389/389/389 386/386/386 388/388/388
f 387/387/387 386/386/386 389/389/389
f 391/391/391 388/388/388 390/390/390
f 389/389/389 388/388/388 391/391/391
f 393/393/393 390/390/390 392/392/392
f 391/391/391 390/390/390 393/393/393
f 395/395/395 392/392/392 394/394/394
f 393/393/393 392/392/392 395/395/395
f 396/396/396 395/395/395 394/394/394
f 397/397/397 395/395/395 396/396/396
f 398/398/398 397/397/397 396/396/396
f 399/399/399 397/397/397 398/398/398
f 402/402/402 401/401/401 400/400/400
f 403/403/403 401/401/401 402/402/402
f 404/404/404 403/403/403 402/402/402
f 405/405/405 403/403/403 404/404/404
f 406/406/406 405/405/405 404/404/404
f 407/407/407 405/405/405 406/406/406
f 408/408/408 407/407/407 406/406/406
f 409/409/409 407/407/407 408/408/408
f 410/410/410 409/409/409 408/408/408
f 411/411/411 409/409/409 410/410/410
f 412/412/412 411/411/411 410/410/410
f 413/413/413 411/411/411 412/412/412
f 414/414/414 413/413/413 412/412/412
f 415/415/415 413/413/413 414/414/414
f 416/416/416 415/415/415 414/414/414
f 417/417/417 415/415/415 416/416/416
f 418/418/418 417/417/417 416/416/416
f 419/419/419 417/417/417 418/418/418
f 420/420/420 419/419/419 418/418/418
f 421/421/421 419/419/419 420/420/420
f 422/422/422 421/421/421 420/420/420
f 423/423/423 421/421/421 422/422/422
f 424/424/424 423/423/423 422/422/422
f 425/425/425 423/423/423 424/424/424
f 426/426/426 425/425/425 424/424/424
f 427/427/427 425/425/425 426/426/426
f 428/428/428 427/427/427 426/426/426
f 429/429/429 427/427/427 428/428/428
f 430/430/430 429/429/429 428/428/428
f 431/431/431 429/429/429 430/430/430
f 432/432/432 431/431/431 430/430/430
f 433/433/433 431/431/431 432/432/432
f 434/434/434 433/433/433 432/432/432
f 435/435/435 433/433/433 434/434/434
f 436/436/436 435/435/435 434/434/434
f 437/437/437 435/435/435 436/436/436
f 438/438/438 437/437/437 436/436/436
f 439/439/439 437/437/437 438/438/438
f 440/440/440 439/439/439 438/438/438
f 441/441/441 439/439/439 440/440/440
f 99/99/99 347/347/347 346/346/346
f 100/100/100 347/347/347 99/99/99
f 103/103/103 346/346/346 349/349/349
f 99/99/99 346/346/346 103/103/103
f 105/105/105 349/349/349 351/351/351
f 103/103/103 349/349/349 105/105/105
f 107/107/107 351/351/351 353/353/353
f 105/105/105 351/351/351 107/107/107
f 109/109/109 353/353/353 355/355/355
f 107/107/107 353/353/353 109/109/109
f 111/111/111 355/355/355 357/357/357
f 109/109/109 355/355/355 111/111/111
f 113/113/113 357/357/357 359/359/359
f 111/111/111 357/357/357 113/113/113
f 115/115/115 359/359/359 361/361/361
f 113/113/113 359/359/359 115/115/115
f 117/117/117 361/361/361 363/363/363
f 115/115/115 361/361/361 117/117/117
f 119/119/119 363/363/363 365/365/365
f 117/117/117 363/363/363 119/119/119
f 365/365/365 121/121/121 119/119/119
f 367/367/367 121/121/121 365/365/365
f 367/367/367 123/123/123 121/121/121
f 369/369/369 123/123/123 367/367/367
f 369/369/369 125/125/125 123/123/123
f 371/371/371 125/125/125 369/369/369
f 371/371/371 127/127/127 125/125/125
f 373/373/373 127/127/127 371/371/371
f 373/373/373 129/129/129 127/127/127
f 375/375/375 129/129/129 373/373/373
f 375/375/375 131/131/131 129/129/129
f 377/377/377 131/131/131 375/375/375
f 377/377/377 133/133/133 131/131/131
f 379/379/379 133/133/133 377/377/377
f 135/135/135 379/379/379 381/381/381
f 133/133/133 379/379/379 135/135/135
f 137/137/137 381/381/381 383/383/383
f 135/135/135 381/381/381 137/137/137
f 139/139/139 383/383/383 385/385/385
f 137/137/137 383/383/383 139/139/139
f 141/141/141 385/385/385 387/387/387
f 139/139/139 385/385/385 141/141/141
f 143/143/143 387/387/387 389/389/389
f 141/141/141 387/387/387 143/143/143
f 145/145/145 389/389/389 391/391/391
f 143/143/143 389/389/389 145/145/145
f 147/147/147 391/391/391 393/393/393
f 145/145/145 391/391/391 147/147/147
f 149/149/149 393/393/393 395/395/395
f 147/147/147 393/393/393 149/149/149
f 395/395/395 151/151/151 149/149/149
f 397/397/397 151/151/151 395/395/395
f 397/397/397 153/153/153 151/151/151
f 399/399/399 153/153/153 397/397/397
f 401/401/401 157/157/157 155/155/155
f 403/403/403 157/157/157 401/401/401
f 403/403/403 159/159/159 157/157/157
f 405/405/405 159/159/159 403/403/403
f 405/405/405 161/161/161 159/159/159
f 407/407/407 161/161/161 405/405/405
f 407/407/407 163/163/163 161/161/161
f 409/409/409 163/163/163 407/407/407
f 409/409/409 165/165/165 163/163/163
f 411/411/411 165/165/165 409/409/409
f 411/411/411 167/167/167 165/165/165
f 413/413/413 167/167/167 411/411/411
f 413/413/413 169/169/169 167/167/167
f 415/415/415 169/169/169 413/413/413
f 415/415/415 171/171/171 169/169/169
f 417/417/417 171/171/171 415/415/415
f 417/417/417 173/173/173 171/171/171
f 419/419/419 173/173/173 417/417/417
f 419/419/419 175/175/175 173/173/173
f 421/421/421 175/175/175 419/419/419
f 421/421/421 177/177/177 175/175/175
f 423/423/423 177/177/177 421/421/421
f 423/423/423 179/179/179 177/177/177
f 425/425/425 179/179/179 423/423/423
f 425/425/425 181/181/181 179/179/179
f 427/427/427 181/181/181 425/425/425
f 427/427/427 183/183/183 181/181/181
f 429/429/429 183/183/183 427/427/427
f 429/429/429 185/185/185 183/183/183
f 431/431/431 185/185/185 429/429/429
f 431/431/431 187/187/187 185/185/185
f 433/433/433 187/187/187 431/431/431
f 433/433/433 189/189/189 187/187/187
f 435/435/435 189/189/189 433/433/433
f 435/435/435 191/191/191 189/189/189
f 437/437/437 191/191/191 435/435/435
f 437/437/437 193/193/193 191/191/191
f 439/439/439 193/193/193 437/437/437
f 439/439/439 195/195/195 193/193/193
f 441/441/441 195/195/195 439/439/439
f 344/344/344 4/4/4 3/3/3
f 345/345/345 4/4/4 344/344/344
f 348/348/348 3/3/3 6/6/6
f 344/344/344 3/3/3 348/348/348
f 350/350/350 6/6/6 8/8/8
f 348/348/348 6/6/6 350/350/350
f 352/352/352 8/8/8 10/10/10
f 350/350/350 8/8/8 352/352/352
f 354/354/354 10/10/10 12/12/12
f 352/352/352 10/10/10 354/354/354
f 356/356/356 12/12/12 14/14/14
f 354/354/354 12/12/12 356/356/356
f 358/358/358 14/14/14 16/16/16
f 356/356/356 14/14/14 358/358/358
f 360/360/360 16/16/16 18/18/18
f 358/358/358 16/16/16 360/360/360
f 362/362/362 18/18/18 20/20/20
f 360/360/360 18/18/18 362/362/362
f 364/364/364 20/20/20 22/22/22
f 362/362/362 20/20/20 364/364/364
f 22/22/22 366/366/366 364/364/364
f 24/24/24 366/366/366 22/22/22
f 24/24/24 368/368/368 366/366/366
f 26/26/26 368/368/368 24/24/24
f 26/26/26 370/370/370 368/368/368
f 28/28/28 370/370/370 26/26/26
f 28/28/28 372/372/372 370/370/370
f 30/30/30 372/372/372 28/28/28
f 30/30/30 374/374/374 372/372/372
f 32/32/32 374/374/374 30/30/30
f 32/32/32 376/376/376 374/374/374
f 34/34/34 376/376/376 32/32/32
f 34/34/34 378/378/378 376/376/376
f 36/36/36 378/378/378 34/34/34
f 380/380/380 36/36/36 38/38/38
f 378/378/378 36/36/36 380/380/380
f 382/382/382 38/38/38 40/40/40
f 380/380/380 38/38/38 382/382/382
f 384/384/384 40/40/40 42/42/42
f 382/382/382 40/40/40 384/384/384
f 386/386/386 42/42/42 44/44/44
f 384/384/384 42/42/42 386/386/386
f 388/388/388 44/44/44 46/46/46
f 386/386/386 44/44/44 388/388/388
f 390/390/390 46/46/46 48/48/48
f 388/388/388 46/46/46 390/390/390
f 392/392/392 48/48/48 50/50/50
f 390/390/390 48/48/48 392/392/392
f 394/394/394 50/50/50 52/52/52
f 392/392/392 50/50/50 394/394/394
f 52/52/52 396/396/396 394/394/394
f 54/54/54 396/396/396 52/52/52
f 54/54/54 398/398/398 396/396/396
f 56/56/56 398/398/398 54/54/54
f 58/58/58 402/402/402 400/400/400
f 60/60/60 402/402/402 58/58/58
f 60/60/60 404/404/404 402/402/402
f 62/62/62 404/404/404 60/60/60
f 62/62/62 406/406/406 404/404/404
f 64/64/64 406/406/406 62/62/62
f 64/64/64 408/408/408 406/406/406
f 66/66/66 408/408/408 64/64/64
f 66/66/66 410/410/410 408/408/408
f 68/68/68 410/410/410 66/66/66
f 68/68/68 412/412/412 410/410/410
f 70/70/70 412/412/412 68/68/68
f 70/70/70 414/414/414 412/412/412
f 72/72/72 414/414/414 70/70/70
f 72/72/72 416/416/416 414/414/414
f 74/74/74 416/416/416 72/72/72
f 74/74/74 418/418/418 416/416/416
f 76/76/76 418/418/418 74/74/74
f 76/76/76 420/420/420 418/418/418
f 78/78/78 420/420/420 76/76/76
f 78/78/78 422/422/422 420/420/420
f 80/80/80 422/422/422 78/78/78
f 80/80/80 424/424/424 422/422/422
f 82/82/82 424/424/424 80/80/80
f 82/82/82 426/426/426 424/424/424
f 84/84/84 426/426/426 82/82/82
f 84/84/84 428/428/428 426/426/426
f 86/86/86 428/428/428 84/84/84
f 86/86/86 430/430/430 428/428/428
f 88/88/88 430/430/430 86/86/86
f 88/88/88 432/432/432 430/430/430
f 90/90/90 432/432/432 88/88/88
f 90/90/90 434/434/434 432/432/432
f 92/92/92 434/434/434 90/90/90
f 92/92/92 436/436/436 434/434/434
f 94/94/94 436/436/436 92/92/92
f 94/94/94 438/438/438 436/436/436
f 96/96/96 438/438/438 94/94/94
f 96/96/96 440/440/440 438/438/438
f 98/98/98 440/440/440 96/96/96
f 444/444/444 443/443/443 442/442/442
f 445/445/445 443/443/443 444/444/444
f 448/448/448 447/447/447 446/446/446
f 449/449/449 447/447/447 448/448/448
f 450/450/450 449/449/449 448/448/448
f 451/451/451 449/449/449 450/450/450
f 454/454/454 453/453/453 452/452/452
f 455/455/455 453/453/453 454/454/454
f 456/456/456 452/452/452 453/453/453
f 457/457/457 452/452/452 456/456/456
f 458/458/458 457/457/457 456/456/456
f 459/459/459 457/457/457 458/458/458
f 445/445/445 459/459/459 458/458/458
f 444/444/444 459/459/459 445/445/445
f 455/455/455 451/451/451 450/450/450
f 454/454/454 451/451/451 455/455/455
f 447/447/447 56/56/56 55/55/55
f 449/449/449 56/56/56 447/447/447
f 57/57/57 448/448/448 446/446/446
f 58/58/58 448/448/448 57/57/57
f 452/452/452 154/154/154 153/153/153
f 457/457/457 154/154/154 452/452/452
f 155/155/155 456/456/456 453/453/453
f 156/156/156 456/456/456 155/155/155
f 459/459/459 252/252/252 251/251/251
f 444/444/444 252/252/252 459/459/459
f 253/253/253 445/445/445 458/458/458
f 254/254/254 445/445/445 253/253/253
f 252/252/252 442/442/442 322/322/322
f 444/444/444 442/442/442 252/252/252
f 445/445/445 323/323/323 443/443/443
f 254/254/254 323/323/323 445/445/445
f 154/154/154 459/459/459 251/251/251
f 457/457/457 459/459/459 154/154/154
f 456/456/456 253/253/253 458/458/458
f 156/156/156 253/253/253 456/456/456
f 451/451/451 399/399/399 398/398/398
f 454/454/454 399/399/399 451/451/451
f 400/400/400 455/455/455 450/450/450
f 401/401/401 455/455/455 400/400/400
f 399/399/399 452/452/452 153/153/153
f 454/454/454 452/452/452 399/399/399
f 455/455/455 155/155/155 453/453/453
f 401/401/401 155/155/155 455/455/455
f 56/56/56 451/451/451 398/398/398
f 449/449/449 451/451/451 56/56/56
f 448/448/448 400/400/400 450/450/450
f 58/58/58 400/400/400 448/448/448
