# Exported from Godot Engine
mtllib Charger_Cable_CCS2_V3.mtl
o Charger_Cable_CCS2_V3
v 0.000000 0.800832 0.506764
vt 0.963379 0.979141
vn -0.000020 0.893635 0.448794
v 0.000000 0.812189 0.536520
vt 0.975586 0.979141
vn -0.000021 0.878361 0.477998
v 0.007308 0.803513 0.505490
vt 0.963379 0.937500
vn -0.023978 0.894174 0.447077
v 0.007308 0.814966 0.535456
vt 0.975586 0.937500
vn -0.008314 0.877244 0.479972
v 0.000000 0.789284 0.482330
vt 0.953125 0.979141
vn -0.000020 0.921070 0.389397
v 0.007308 0.791791 0.480784
vt 0.953125 0.937500
vn -0.037609 0.921195 0.387280
v 0.000000 0.775219 0.460872
vt 0.943359 0.979141
vn -0.000019 0.942782 0.333410
v 0.007308 0.777489 0.458894
vt 0.943359 0.937500
vn -0.042924 0.943435 0.328766
v 0.000000 0.756592 0.439009
vt 0.932617 0.979141
vn -0.000019 0.959253 0.282548
v 0.007308 0.758685 0.436781
vt 0.932617 0.937500
vn -0.041762 0.959637 0.278123
v 0.000000 0.735277 0.419588
vt 0.921387 0.979141
vn -0.000018 0.972133 0.234431
v 0.007308 0.737155 0.417143
vt 0.921387 0.937500
vn -0.027397 0.972145 0.232774
v 0.000000 0.708106 0.403377
vt 0.909180 0.979141
vn -0.000018 0.981637 0.190760
v 0.007308 0.709555 0.400618
vt 0.909180 0.937500
vn -0.013835 0.981012 0.193453
v 0.000000 0.679408 0.389714
vt 0.897461 0.979141
vn -0.000017 0.987416 0.158145
v 0.007308 0.680657 0.386834
vt 0.897461 0.937500
vn -0.020804 0.987549 0.155931
v 0.000000 0.647606 0.376557
vt 0.884766 0.979141
vn -0.000017 0.991720 0.128416
v 0.007308 0.648592 0.373558
vt 0.884766 0.937500
vn -0.034930 0.991456 0.125675
v 0.000000 0.617738 0.365605
vt 0.872559 0.979141
vn -0.000017 0.994487 0.104862
v 0.007308 0.618626 0.362558
vt 0.872559 0.937500
vn -0.042176 0.993907 0.101837
v 0.000000 0.590559 0.356790
vt 0.862305 0.979141
vn -0.000016 0.996698 0.081204
v 0.007308 0.591422 0.353725
vt 0.862305 0.937500
vn -0.049280 0.995504 0.080885
v 0.000000 0.543069 0.342398
vt 0.844238 0.979141
vn -0.000016 0.997515 0.070449
v 0.007308 0.543991 0.339335
vt 0.844238 0.937500
vn -0.056534 0.995900 0.070620
v 0.000000 0.495490 0.328143
vt 0.826172 0.979141
vn -0.000016 0.997979 0.063545
v 0.007308 0.496377 0.325078
vt 0.826172 0.937500
vn -0.056772 0.996566 0.060273
v 0.000000 0.447606 0.315636
vt 0.807617 0.979141
vn -0.000016 0.997979 0.063545
v 0.007308 0.448400 0.312578
vt 0.807617 0.937500
vn -0.049841 0.996700 0.064076
v 0.000000 0.398039 0.301947
vt 0.789062 0.979141
vn -0.000016 0.997752 0.067022
v 0.007308 0.398832 0.298942
vt 0.789062 0.937500
vn -0.049841 0.996700 0.064076
v 0.000000 0.348720 0.289108
vt 0.770508 0.979141
vn -0.000016 0.996746 0.080603
v 0.007308 0.349530 0.286176
vt 0.770508 0.937500
vn -0.035853 0.996242 0.078843
v 0.000000 0.299582 0.275715
vt 0.751953 0.979141
vn -0.000017 0.995143 0.098438
v 0.007308 0.300486 0.272883
vt 0.751953 0.937500
vn -0.021481 0.994737 0.100184
v 0.000000 0.255144 0.262020
vt 0.734863 0.979141
vn -0.000017 0.992976 0.118312
v 0.007308 0.255941 0.259223
vt 0.734863 0.937500
vn -0.014261 0.992978 0.117436
v 0.000000 0.226169 0.252733
vt 0.724121 0.979141
vn -0.000017 0.989952 0.141407
v 0.007308 0.227071 0.249967
vt 0.724121 0.937500
vn -0.000017 0.989952 0.141407
v 0.000000 0.204921 0.244979
vt 0.715820 0.979141
vn -0.000017 0.987879 0.155224
v 0.007308 0.205932 0.242248
vt 0.715820 0.937500
vn -0.000017 0.988495 0.151256
v 0.000000 0.182970 0.237139
vt 0.707520 0.979141
vn -0.000018 0.985134 0.171789
v 0.007308 0.184093 0.234451
vt 0.707520 0.937500
vn 0.013948 0.987490 0.157066
v 0.000000 0.163960 0.229395
vt 0.700195 0.979141
vn -0.000018 0.982152 0.188088
v 0.007308 0.165200 0.226755
vt 0.700195 0.937500
vn 0.013905 0.985238 0.170623
v 0.000000 0.147005 0.222020
vt 0.693359 0.979141
vn -0.000018 0.978954 0.204080
v 0.007308 0.148366 0.219436
vt 0.693359 0.937500
vn 0.027430 0.984201 0.174918
v 0.000000 0.133006 0.215543
vt 0.687988 0.979141
vn -0.000018 0.975195 0.221346
v 0.007308 0.134387 0.212965
vt 0.687988 0.937500
vn 0.034186 0.981550 0.188124
v 0.000000 0.119000 0.208466
vt 0.682129 0.979141
vn -0.000019 0.970141 0.242540
v 0.007308 0.120421 0.205903
vt 0.682129 0.937500
vn 0.027296 0.976920 0.211854
v 0.000000 0.106270 0.200624
vt 0.676758 0.979141
vn -0.000019 0.962314 0.271941
v 0.007308 0.107784 0.198109
vt 0.676758 0.937500
vn 0.027384 0.969570 0.243277
v 0.000000 0.090907 0.189184
vt 0.670410 0.979141
vn -0.000019 0.951477 0.307718
v 0.007308 0.092733 0.186867
vt 0.670410 0.937500
vn 0.020810 0.958371 0.284767
v 0.000037 0.077136 0.175970
vt 0.664062 0.979141
vn -0.000020 0.933152 0.359481
v 0.007344 0.079336 0.173974
vt 0.664062 0.937500
vn 0.021480 0.942554 0.333361
v 0.001381 0.043699 0.122287
vt 0.641602 0.979141
vn -0.037277 0.828602 0.558596
v 0.008661 0.046716 0.121093
vt 0.641602 0.937500
vn 0.069097 0.872466 0.483766
v 0.003382 0.030018 0.082938
vt 0.627441 0.979141
vn -0.069160 0.809776 0.582649
v 0.010622 0.033211 0.082752
vt 0.627441 0.937500
vn 0.018653 0.821676 0.569650
v 0.006693 0.019842 0.034916
vt 0.609863 0.979141
vn -0.093074 0.790912 0.604810
v 0.013880 0.023126 0.035546
vt 0.609863 0.937500
vn -0.019904 0.790790 0.611764
v 0.011624 0.010644 -0.018166
vt 0.590332 0.979141
vn -0.127460 0.785777 0.605234
v 0.018758 0.013969 -0.016903
vt 0.590332 0.937500
vn -0.051231 0.783327 0.619495
v 0.018296 0.003723 -0.080898
vt 0.567383 0.979141
vn -0.140073 0.780989 0.608634
v 0.025388 0.007063 -0.079218
vt 0.567383 0.937500
vn -0.117073 0.782200 0.611929
v 0.026294 0.002347 -0.149545
vt 0.541992 0.979141
vn -0.163501 0.779294 0.604953
v 0.033358 0.005690 -0.147624
vt 0.541992 0.937500
vn -0.153049 0.775920 0.611984
v 0.035102 0.001562 -0.222111
vt 0.515625 0.979141
vn -0.164920 0.774982 0.610085
v 0.042151 0.004904 -0.220062
vt 0.515625 0.937500
vn -0.164920 0.774982 0.610085
v 0.044207 0.001201 -0.296562
vt 0.488281 0.979141
vn -0.164920 0.774982 0.610085
v 0.051251 0.004541 -0.294473
vt 0.488281 0.937500
vn -0.154342 0.771519 0.617201
v 0.053093 0.001099 -0.370849
vt 0.460938 0.979141
vn -0.154342 0.771519 0.617201
v 0.060141 0.004437 -0.368798
vt 0.460938 0.937500
vn -0.154342 0.771519 0.617201
v 0.061246 0.001093 -0.442959
vt 0.434326 0.979141
vn -0.143681 0.767903 0.624245
v 0.068308 0.004428 -0.441030
vt 0.434326 0.937500
vn -0.143681 0.767903 0.624245
v 0.068250 0.001092 -0.512388
vt 0.408936 0.979141
vn -0.122102 0.760196 0.638117
v 0.075337 0.004425 -0.510695
vt 0.408936 0.937500
vn -0.122102 0.760196 0.638117
v 0.073804 0.001091 -0.580407
vt 0.384033 0.979141
vn -0.089264 0.747490 0.658248
v 0.080921 0.004422 -0.579071
vt 0.384033 0.937500
vn -0.089264 0.747490 0.658248
v 0.077606 0.001090 -0.648367
vt 0.359131 0.979141
vn -0.056026 0.733442 0.677439
v 0.084752 0.004418 -0.647501
vt 0.359131 0.937500
vn -0.056026 0.733442 0.677439
v 0.079357 0.001089 -0.717624
vt 0.333740 0.979141
vn -0.011244 0.712651 0.701429
v 0.086521 0.004415 -0.717309
vt 0.333740 0.937500
vn -0.011244 0.712651 0.701429
v 0.078759 0.001088 -0.789528
vt 0.307617 0.979141
vn 0.033619 0.723306 0.689709
v 0.085923 0.004412 -0.789809
vt 0.307617 0.937500
vn 0.033619 0.723306 0.689709
v 0.075441 0.001087 -0.865840
vt 0.279785 0.979141
vn 0.078201 0.742946 0.664767
v 0.082584 0.004408 -0.866742
vt 0.279785 0.937500
vn 0.078201 0.742946 0.664767
v 0.068348 0.001086 -0.952310
vt 0.248047 0.979141
vn 0.132849 0.764098 0.631272
v 0.075443 0.004404 -0.953880
vt 0.248047 0.937500
vn 0.132849 0.764098 0.631272
v 0.056033 0.001084 -1.056941
vt 0.209595 0.979141
vn 0.176688 0.778686 0.602022
v 0.063067 0.004399 -1.059082
vt 0.209595 0.937500
vn 0.176688 0.778686 0.602022
v 0.037047 0.001082 -1.187770
vt 0.161255 0.979141
vn 0.207826 0.787720 0.579918
v 0.044023 0.004393 -1.190326
vt 0.161255 0.937500
vn 0.207826 0.787720 0.579918
v 0.009938 0.001080 -1.352835
vt 0.100159 0.979141
vn 0.228094 0.792992 0.564922
v 0.016870 0.004385 -1.355671
vt 0.100159 0.937500
vn 0.218048 0.790440 0.572416
v -0.026745 0.001077 -1.560177
vt 0.023239 0.979141
vn 0.238061 0.795404 0.557368
v -0.019844 0.004375 -1.563196
vt 0.023239 0.937500
vn 0.228094 0.792992 0.564922
v 0.000000 0.819136 0.498069
vt 0.963379 0.811157
vn -0.000020 0.893635 0.448794
v 0.000000 0.831153 0.529251
vt 0.975586 0.811157
vn -0.000021 0.878361 0.477998
v -0.007308 0.816456 0.499342
vt 0.963379 0.768555
vn -0.023978 0.894174 0.447077
v -0.007308 0.828376 0.530316
vt 0.975586 0.768555
vn -0.008314 0.877244 0.479972
v 0.000000 0.806576 0.471730
vt 0.953125 0.811157
vn -0.000020 0.919137 0.393939
v -0.007308 0.804069 0.473275
vt 0.953125 0.768555
vn -0.037609 0.921195 0.387280
v 0.000000 0.790744 0.447384
vt 0.943359 0.811157
vn -0.000020 0.941244 0.337727
v -0.007308 0.788466 0.449357
vt 0.943359 0.768555
vn -0.035834 0.942180 0.333187
v 0.000000 0.770917 0.423823
vt 0.932617 0.811157
vn -0.000019 0.958018 0.286708
v -0.007308 0.768784 0.426052
vt 0.932617 0.768555
vn -0.041762 0.959637 0.278123
v 0.000000 0.748138 0.402927
vt 0.921387 0.811157
vn -0.000018 0.971153 0.238455
v -0.007308 0.746248 0.405362
vt 0.921387 0.768555
vn -0.027397 0.972145 0.232774
v 0.000000 0.718057 0.384580
vt 0.909180 0.811157
vn -0.000018 0.980850 0.194764
v -0.007308 0.716591 0.387327
vt 0.909180 0.768555
vn -0.013835 0.981012 0.193453
v 0.000000 0.688005 0.370086
vt 0.897461 0.811157
vn -0.000017 0.987416 0.158145
v -0.007308 0.686736 0.372955
vt 0.897461 0.768555
vn -0.020804 0.987549 0.155931
v 0.000000 0.654415 0.356110
vt 0.884766 0.811157
vn -0.000017 0.991720 0.128416
v -0.007308 0.653407 0.359099
vt 0.884766 0.768555
vn -0.034930 0.991456 0.125675
v 0.000000 0.623877 0.344837
vt 0.872559 0.811157
vn -0.000017 0.994487 0.104862
v -0.007308 0.622967 0.347873
vt 0.872559 0.768555
vn -0.042176 0.993907 0.101837
v 0.000000 0.596531 0.335898
vt 0.862305 0.811157
vn -0.000016 0.996698 0.081204
v -0.007308 0.595645 0.338952
vt 0.862305 0.768555
vn -0.049280 0.995504 0.080885
v 0.000000 0.549435 0.321526
vt 0.844238 0.811157
vn -0.000016 0.997515 0.070449
v -0.007308 0.548493 0.324576
vt 0.844238 0.768555
vn -0.056534 0.995900 0.070620
v 0.000000 0.501604 0.307257
vt 0.826172 0.811157
vn -0.000016 0.997979 0.063545
v -0.007308 0.500701 0.310310
vt 0.826172 0.768555
vn -0.056772 0.996566 0.060273
v 0.000000 0.453073 0.294791
vt 0.807617 0.811157
vn -0.000016 0.997979 0.063545
v -0.007308 0.452266 0.297838
vt 0.807617 0.768555
vn -0.050047 0.996899 0.060729
v 0.000000 0.403483 0.281458
vt 0.789062 0.811157
vn -0.000016 0.997752 0.067022
v -0.007308 0.402682 0.284454
vt 0.789062 0.768555
vn -0.042875 0.996771 0.067887
v 0.000000 0.354262 0.269111
vt 0.770508 0.811157
vn -0.000016 0.996746 0.080603
v -0.007308 0.353449 0.272036
vt 0.770508 0.768555
vn -0.028784 0.996156 0.082736
v 0.000000 0.305753 0.256390
vt 0.751953 0.811157
vn -0.000017 0.995143 0.098438
v -0.007308 0.304901 0.259171
vt 0.751953 0.768555
vn -0.021331 0.994809 0.099503
v 0.000000 0.260583 0.242922
vt 0.734863 0.811157
vn -0.000017 0.992976 0.118312
v -0.007308 0.259787 0.245719
vt 0.734863 0.768555
vn -0.014261 0.992978 0.117436
v 0.000000 0.232326 0.233845
vt 0.724121 0.811157
vn -0.000017 0.989952 0.141407
v -0.007308 0.231425 0.236611
vt 0.724121 0.768555
vn -0.000017 0.989952 0.141407
v 0.000000 0.211820 0.226335
vt 0.715820 0.811157
vn -0.000017 0.987879 0.155224
v -0.007308 0.210810 0.229065
vt 0.715820 0.768555
vn -0.000017 0.988495 0.151256
v 0.000000 0.190637 0.218780
vt 0.707520 0.811157
vn -0.000018 0.985134 0.171789
v -0.007308 0.189514 0.221468
vt 0.707520 0.768555
vn 0.013948 0.987490 0.157066
v 0.000000 0.172422 0.211365
vt 0.700195 0.811157
vn -0.000018 0.982152 0.188088
v -0.007308 0.171183 0.214006
vt 0.700195 0.768555
vn 0.013905 0.985238 0.170623
v 0.000000 0.156292 0.204373
vt 0.693359 0.811157
vn -0.000018 0.978954 0.204080
v -0.007308 0.154932 0.206957
vt 0.693359 0.768555
vn 0.027430 0.984201 0.174918
v 0.000000 0.142434 0.197938
vt 0.687988 0.811157
vn -0.000018 0.975195 0.221346
v -0.007308 0.141054 0.200516
vt 0.687988 0.768555
vn 0.034186 0.981550 0.188124
v 0.000000 0.128697 0.190967
vt 0.682129 0.811157
vn -0.000019 0.970141 0.242540
v -0.007308 0.127278 0.193530
vt 0.682129 0.768555
vn 0.027296 0.976920 0.211854
v 0.000000 0.116605 0.183447
vt 0.676758 0.811157
vn -0.000019 0.961653 0.274270
v -0.007308 0.115092 0.185963
vt 0.676758 0.768555
vn 0.027384 0.969570 0.243277
v 0.000000 0.103369 0.173355
vt 0.670410 0.811157
vn -0.000019 0.950774 0.309884
v -0.007308 0.101545 0.175674
vt 0.670410 0.768555
vn 0.020951 0.957796 0.286684
v 0.000034 0.092068 0.162256
vt 0.664062 0.811157
vn -0.000020 0.933152 0.359481
v -0.007273 0.089868 0.164253
vt 0.664062 0.768555
vn 0.021480 0.942554 0.333361
v 0.001245 0.063251 0.111061
vt 0.641602 0.811157
vn -0.037844 0.822606 0.567351
v -0.006036 0.060234 0.112255
vt 0.641602 0.768555
vn 0.060698 0.867153 0.494329
v 0.003077 0.050324 0.075957
vt 0.627441 0.811157
vn -0.069690 0.806340 0.587332
v -0.004163 0.047131 0.076143
vt 0.627441 0.768555
vn 0.018505 0.824673 0.565307
v 0.006204 0.040341 0.030716
vt 0.609863 0.811157
vn -0.093074 0.790912 0.604810
v -0.000983 0.037056 0.030087
vt 0.609863 0.768555
vn -0.019756 0.794475 0.606976
v 0.010991 0.031250 -0.020636
vt 0.590332 0.811157
vn -0.127460 0.785777 0.605234
v 0.003857 0.027925 -0.021898
vt 0.590332 0.768555
vn -0.061379 0.787306 0.613499
v 0.017568 0.024354 -0.082440
vt 0.567383 0.811157
vn -0.140073 0.780989 0.608634
v 0.010477 0.021014 -0.084120
vt 0.567383 0.768555
vn -0.117073 0.782200 0.611929
v 0.025498 0.022977 -0.150497
vt 0.541992 0.811157
vn -0.153049 0.775920 0.611984
v 0.018434 0.019634 -0.152418
vt 0.541992 0.768555
vn -0.153049 0.775920 0.611984
v 0.034259 0.022183 -0.222674
vt 0.515625 0.811157
vn -0.164920 0.774982 0.610085
v 0.027210 0.018840 -0.224722
vt 0.515625 0.768555
vn -0.154342 0.771519 0.617201
v 0.043332 0.021809 -0.296876
vt 0.488281 0.811157
vn -0.164920 0.774982 0.610085
v 0.036289 0.018468 -0.298965
vt 0.488281 0.768555
vn -0.154342 0.771519 0.617201
v 0.052200 0.021692 -0.371022
vt 0.460938 0.811157
vn -0.154342 0.771519 0.617201
v 0.045152 0.018354 -0.373073
vt 0.460938 0.768555
vn -0.154342 0.771519 0.617201
v 0.060346 0.021672 -0.443085
vt 0.434326 0.811157
vn -0.143681 0.767903 0.624245
v 0.053284 0.018336 -0.445013
vt 0.434326 0.768555
vn -0.143681 0.767903 0.624245
v 0.067348 0.021656 -0.512493
vt 0.408936 0.811157
vn -0.122102 0.760196 0.638117
v 0.060262 0.018323 -0.514185
vt 0.408936 0.768555
vn -0.122102 0.760196 0.638117
v 0.072897 0.021642 -0.580473
vt 0.384033 0.811157
vn -0.089264 0.747490 0.658248
v 0.065780 0.018311 -0.581808
vt 0.384033 0.768555
vn -0.089264 0.747490 0.658248
v 0.076696 0.021627 -0.648380
vt 0.359131 0.811157
vn -0.056026 0.733442 0.677439
v 0.069549 0.018298 -0.649248
vt 0.359131 0.768555
vn -0.056026 0.733442 0.677439
v 0.078445 0.021612 -0.717574
vt 0.333740 0.811157
vn -0.011244 0.712651 0.701429
v 0.071280 0.018285 -0.717889
vt 0.333740 0.768555
vn -0.011244 0.712651 0.701429
v 0.077846 0.021596 -0.789410
vt 0.307617 0.811157
vn 0.033619 0.723306 0.689709
v 0.070682 0.018272 -0.789129
vt 0.307617 0.768555
vn 0.033619 0.723306 0.689709
v 0.074532 0.021580 -0.865651
vt 0.279785 0.811157
vn 0.078201 0.742946 0.664767
v 0.067389 0.018258 -0.864749
vt 0.279785 0.768555
vn 0.078201 0.742946 0.664767
v 0.067445 0.021561 -0.952046
vt 0.248047 0.811157
vn 0.132849 0.764098 0.631272
v 0.060350 0.018243 -0.950475
vt 0.248047 0.768555
vn 0.132849 0.764098 0.631272
v 0.055138 0.021538 -1.056615
vt 0.209595 0.811157
vn 0.176688 0.778686 0.602022
v 0.048104 0.018223 -1.054474
vt 0.209595 0.768555
vn 0.176688 0.778686 0.602022
v 0.036158 0.021510 -1.187404
vt 0.161255 0.811157
vn 0.207826 0.787720 0.579918
v 0.029182 0.018199 -1.184849
vt 0.161255 0.768555
vn 0.207826 0.787720 0.579918
v 0.009055 0.021474 -1.352451
vt 0.100159 0.811157
vn 0.228094 0.792992 0.564922
v 0.002122 0.018169 -1.349615
vt 0.100159 0.768555
vn 0.218048 0.790440 0.572416
v -0.027624 0.021429 -1.559793
vt 0.023239 0.811157
vn 0.238061 0.795404 0.557368
v -0.034525 0.018131 -1.556773
vt 0.023239 0.768555
vn 0.228094 0.792992 0.564922
v -0.010335 0.809985 0.502417
vt 0.963379 0.726807
vn -0.000021 0.881000 0.473116
v -0.010335 0.821671 0.532886
vt 0.975586 0.726807
vn -0.000021 0.869781 0.493437
v -0.007308 0.803513 0.505490
vt 0.963379 0.684082
vn 0.023936 0.894158 0.447110
v -0.007308 0.814966 0.535456
vt 0.975586 0.684082
vn 0.016510 0.879814 0.475031
v -0.010335 0.797928 0.477028
vt 0.953125 0.726807
vn -0.000020 0.905001 0.425409
v -0.007308 0.791791 0.480784
vt 0.953125 0.684082
vn 0.037747 0.921955 0.385453
v -0.010335 0.782973 0.454123
vt 0.943359 0.726807
vn -0.000020 0.927698 0.373331
v -0.007308 0.777489 0.458894
vt 0.943359 0.684082
vn 0.043045 0.944133 0.326741
v -0.010335 0.763713 0.431417
vt 0.932617 0.726807
vn -0.000019 0.946528 0.322623
v -0.007308 0.758685 0.436781
vt 0.932617 0.684082
vn 0.041723 0.959628 0.278160
v -0.010335 0.741695 0.411246
vt 0.921387 0.726807
vn -0.000019 0.964606 0.263695
v -0.007308 0.737155 0.417143
vt 0.921387 0.684082
vn 0.027360 0.972137 0.232810
v -0.010335 0.713064 0.393967
vt 0.909180 0.726807
vn -0.000018 0.978107 0.208104
v -0.007308 0.709555 0.400618
vt 0.909180 0.684082
vn 0.013799 0.981005 0.193489
v -0.010335 0.683686 0.379888
vt 0.897461 0.726807
vn -0.000018 0.983926 0.178578
v -0.007308 0.680657 0.386834
vt 0.897461 0.684082
vn 0.020768 0.987544 0.155965
v -0.010335 0.650988 0.366323
vt 0.884766 0.726807
vn -0.000018 0.986955 0.160998
v -0.007308 0.648592 0.373558
vt 0.884766 0.684082
vn 0.034895 0.991453 0.125709
v -0.010335 0.620784 0.355209
vt 0.872559 0.726807
vn -0.000017 0.989373 0.145401
v -0.007308 0.618626 0.362558
vt 0.872559 0.684082
vn 0.042141 0.993905 0.101872
v -0.010335 0.593522 0.346332
vt 0.862305 0.726807
vn -0.000017 0.990916 0.134479
v -0.007308 0.591422 0.353725
vt 0.862305 0.684082
vn 0.049245 0.995503 0.080919
v -0.010335 0.546231 0.331949
vt 0.844238 0.726807
vn -0.000017 0.991720 0.128416
v -0.007308 0.543991 0.339335
vt 0.844238 0.684082
vn 0.056500 0.995899 0.070655
v -0.010335 0.498530 0.317687
vt 0.826172 0.726807
vn -0.000017 0.992605 0.121388
v -0.007308 0.496377 0.325078
vt 0.826172 0.684082
vn 0.056738 0.996566 0.060307
v -0.010335 0.450327 0.305203
vt 0.807617 0.726807
vn -0.000017 0.993345 0.115176
v -0.007308 0.448400 0.312578
vt 0.807617 0.684082
vn 0.049807 0.996699 0.064110
v -0.010335 0.400754 0.291693
vt 0.789062 0.726807
vn -0.000017 0.993345 0.115176
v -0.007308 0.398832 0.298942
vt 0.789062 0.684082
vn 0.049807 0.996699 0.064110
v -0.010335 0.351488 0.279103
vt 0.770508 0.726807
vn -0.000017 0.993345 0.115176
v -0.007308 0.349530 0.286176
vt 0.770508 0.684082
vn 0.035819 0.996241 0.078877
v -0.010335 0.302667 0.266049
vt 0.751953 0.726807
vn -0.000017 0.992605 0.121388
v -0.007308 0.300486 0.272883
vt 0.751953 0.684082
vn 0.021447 0.994734 0.100218
v -0.010335 0.257864 0.252471
vt 0.734863 0.726807
vn -0.000017 0.991322 0.131460
v -0.007308 0.255941 0.259223
vt 0.734863 0.684082
vn 0.014227 0.992975 0.117470
v -0.010335 0.229248 0.243289
vt 0.724121 0.726807
vn -0.000017 0.989521 0.144390
v -0.007308 0.227071 0.249967
vt 0.724121 0.684082
vn -0.000017 0.989952 0.141407
v -0.010335 0.208371 0.235657
vt 0.715820 0.726807
vn -0.000017 0.988495 0.151256
v -0.007308 0.205932 0.242248
vt 0.715820 0.684082
vn -0.000017 0.988495 0.151256
v -0.010335 0.186804 0.227959
vt 0.707520 0.726807
vn -0.000017 0.987416 0.158145
v -0.007308 0.184093 0.234451
vt 0.707520 0.684082
vn -0.013983 0.987495 0.157031
v -0.010335 0.168192 0.220380
vt 0.700195 0.726807
vn -0.000018 0.985336 0.170623
v -0.007308 0.165200 0.226755
vt 0.700195 0.684082
vn -0.013941 0.985244 0.170588
v -0.010335 0.151649 0.213197
vt 0.693359 0.726807
vn -0.000018 0.983926 0.178578
v -0.007308 0.148366 0.219436
vt 0.693359 0.684082
vn -0.027466 0.984206 0.174883
v -0.010335 0.137721 0.206741
vt 0.687988 0.726807
vn -0.000018 0.981637 0.190760
v -0.007308 0.134387 0.212965
vt 0.687988 0.684082
vn -0.034223 0.981556 0.188089
v -0.010335 0.123849 0.199716
vt 0.682129 0.726807
vn -0.000018 0.976675 0.214722
v -0.007308 0.120421 0.205903
vt 0.682129 0.684082
vn -0.027333 0.976927 0.211819
v -0.010335 0.111438 0.192036
vt 0.676758 0.726807
vn -0.000019 0.969107 0.246641
v -0.007308 0.107784 0.198109
vt 0.676758 0.684082
vn -0.027422 0.969578 0.243241
v -0.010335 0.097139 0.181270
vt 0.670410 0.726807
vn -0.000019 0.958018 0.286708
v -0.007308 0.092733 0.186867
vt 0.670410 0.684082
vn -0.027721 0.959427 0.280591
v -0.010299 0.084584 0.169096
vt 0.664062 0.726807
vn -0.007171 0.944281 0.329063
v -0.007272 0.079310 0.173950
vt 0.664062 0.684082
vn -0.035677 0.945180 0.324595
v -0.009012 0.053258 0.116038
vt 0.641602 0.726807
vn -0.040800 0.888743 0.456586
v -0.005940 0.046409 0.120194
vt 0.641602 0.684082
vn -0.143315 0.889367 0.434152
v -0.007072 0.039861 0.078265
vt 0.627441 0.726807
vn -0.070290 0.865267 0.496358
v -0.003947 0.032772 0.081079
vt 0.627441 0.684082
vn -0.146920 0.858522 0.491279
v -0.003817 0.029692 0.031057
vt 0.609863 0.726807
vn -0.092757 0.843803 0.528576
v -0.000638 0.022562 0.033057
vt 0.609863 0.684082
vn -0.164882 0.838812 0.518853
v 0.001087 0.020513 -0.021698
vt 0.590332 0.726807
vn -0.116310 0.828607 0.547615
v 0.004304 0.013355 -0.020151
vt 0.590332 0.684082
vn -0.180095 0.825298 0.535209
v 0.007752 0.013588 -0.084364
vt 0.567383 0.726807
vn -0.135328 0.801277 0.582787
v 0.010991 0.006426 -0.083029
vt 0.567383 0.684082
vn -0.169376 0.799105 0.576839
v 0.015740 0.012207 -0.152935
vt 0.541992 0.726807
vn -0.153049 0.775920 0.611984
v 0.018996 0.005046 -0.151745
vt 0.541992 0.684082
vn -0.151754 0.780230 0.606804
v 0.024537 0.011416 -0.225406
vt 0.515625 0.726807
vn -0.153049 0.775920 0.611984
v 0.027806 0.004259 -0.224324
vt 0.515625 0.684082
vn -0.163501 0.779294 0.604953
v 0.033627 0.011049 -0.299738
vt 0.488281 0.726807
vn -0.154342 0.771519 0.617201
v 0.036907 0.003897 -0.298742
vt 0.488281 0.684082
vn -0.154342 0.771519 0.617201
v 0.042494 0.010940 -0.373871
vt 0.460938 0.726807
vn -0.154342 0.771519 0.617201
v 0.045783 0.003793 -0.372950
vt 0.460938 0.684082
vn -0.154342 0.771519 0.617201
v 0.050623 0.010927 -0.445775
vt 0.434326 0.726807
vn -0.132899 0.764116 0.631240
v 0.053920 0.003785 -0.444924
vt 0.434326 0.684082
vn -0.143681 0.767903 0.624245
v 0.057591 0.010920 -0.514856
vt 0.408936 0.726807
vn -0.122102 0.760196 0.638117
v 0.060900 0.003782 -0.514112
vt 0.408936 0.684082
vn -0.122102 0.760196 0.638117
v 0.063098 0.010912 -0.582341
vt 0.384033 0.726807
vn -0.089264 0.747490 0.658248
v 0.066421 0.003779 -0.581761
vt 0.384033 0.684082
vn -0.089264 0.747490 0.658248
v 0.066856 0.010905 -0.649603
vt 0.359131 0.726807
vn -0.044840 0.728449 0.683631
v 0.070193 0.003777 -0.649238
vt 0.359131 0.684082
vn -0.056026 0.733442 0.677439
v 0.068580 0.010897 -0.718035
vt 0.333740 0.726807
vn -0.000022 0.707107 0.707107
v 0.071925 0.003774 -0.717924
vt 0.333740 0.684082
vn -0.011244 0.712651 0.701429
v 0.067981 0.010889 -0.789048
vt 0.307617 0.726807
vn 0.033619 0.723306 0.689709
v 0.071327 0.003771 -0.789213
vt 0.307617 0.684082
vn 0.033619 0.723306 0.689709
v 0.064696 0.010881 -0.864431
vt 0.279785 0.726807
vn 0.078201 0.742946 0.664767
v 0.068032 0.003768 -0.864882
vt 0.279785 0.684082
vn 0.078201 0.742946 0.664767
v 0.057675 0.010871 -0.949903
vt 0.248047 0.726807
vn 0.132849 0.764098 0.631272
v 0.060988 0.003764 -0.950663
vt 0.248047 0.684082
vn 0.132849 0.764098 0.631272
v 0.045453 0.010860 -1.053684
vt 0.209595 0.726807
vn 0.176688 0.778686 0.602022
v 0.048737 0.003760 -1.054705
vt 0.209595 0.684082
vn 0.176688 0.778686 0.602022
v 0.026552 0.010845 -1.183897
vt 0.161255 0.726807
vn 0.197590 0.784874 0.587308
v 0.029810 0.003755 -1.185107
vt 0.161255 0.684082
vn 0.207826 0.787720 0.579918
v -0.000491 0.010827 -1.348553
vt 0.100159 0.726807
vn 0.218048 0.790440 0.572416
v 0.002746 0.003748 -1.349887
vt 0.100159 0.684082
vn 0.218048 0.790440 0.572416
v -0.037127 0.010804 -1.555636
vt 0.023239 0.726807
vn 0.228094 0.792992 0.564922
v -0.033904 0.003740 -1.557046
vt 0.023239 0.684082
vn 0.228094 0.792992 0.564922
v 0.000000 0.800832 0.506764
vt 0.963379 0.643311
vn -0.000020 0.893635 0.448794
v 0.000000 0.812189 0.536520
vt 0.975586 0.643311
vn -0.000021 0.878361 0.477998
v 0.000000 0.789284 0.482330
vt 0.953125 0.643311
vn -0.000020 0.921070 0.389397
v 0.000000 0.775219 0.460872
vt 0.943359 0.643311
vn -0.000019 0.942782 0.333410
v 0.000000 0.756592 0.439009
vt 0.932617 0.643311
vn -0.000019 0.959253 0.282548
v 0.000000 0.735277 0.419588
vt 0.921387 0.643311
vn -0.000018 0.972133 0.234431
v 0.000000 0.708106 0.403377
vt 0.909180 0.643311
vn -0.000018 0.981637 0.190760
v 0.000000 0.679408 0.389714
vt 0.897461 0.643311
vn -0.000017 0.987416 0.158145
v 0.000000 0.647606 0.376557
vt 0.884766 0.643311
vn -0.000017 0.991720 0.128416
v 0.000000 0.617738 0.365605
vt 0.872559 0.643311
vn -0.000017 0.994487 0.104862
v 0.000000 0.590559 0.356790
vt 0.862305 0.643311
vn -0.000016 0.996698 0.081204
v 0.000000 0.543069 0.342398
vt 0.844238 0.643311
vn -0.000016 0.997515 0.070449
v 0.000000 0.495490 0.328143
vt 0.826172 0.643311
vn -0.000016 0.997979 0.063545
v 0.000000 0.447606 0.315636
vt 0.807617 0.643311
vn -0.000016 0.997979 0.063545
v 0.000000 0.398039 0.301947
vt 0.789062 0.643311
vn -0.000016 0.997752 0.067022
v 0.000000 0.348720 0.289108
vt 0.770508 0.643311
vn -0.000016 0.996746 0.080603
v 0.000000 0.299582 0.275715
vt 0.751953 0.643311
vn -0.000017 0.995143 0.098438
v 0.000000 0.255144 0.262020
vt 0.734863 0.643311
vn -0.000017 0.992976 0.118312
v 0.000000 0.226169 0.252733
vt 0.724121 0.643311
vn -0.000017 0.989952 0.141407
v 0.000000 0.204921 0.244979
vt 0.715820 0.643311
vn -0.000017 0.987879 0.155224
v 0.000000 0.182970 0.237139
vt 0.707520 0.643311
vn -0.000018 0.985134 0.171789
v 0.000000 0.163960 0.229395
vt 0.700195 0.643311
vn -0.000018 0.982152 0.188088
v 0.000000 0.147005 0.222020
vt 0.693359 0.643311
vn -0.000018 0.978954 0.204080
v 0.000000 0.133006 0.215543
vt 0.687988 0.643311
vn -0.000018 0.975195 0.221346
v 0.000000 0.119000 0.208466
vt 0.682129 0.643311
vn -0.000019 0.970141 0.242540
v 0.000000 0.106270 0.200624
vt 0.676758 0.643311
vn -0.000019 0.962314 0.271941
v 0.000000 0.090907 0.189184
vt 0.670410 0.643311
vn -0.000019 0.951477 0.307718
v 0.000037 0.077136 0.175970
vt 0.664062 0.643311
vn -0.000020 0.933152 0.359481
v 0.001381 0.043699 0.122287
vt 0.641602 0.641602
vn -0.037277 0.828602 0.558596
v 0.003382 0.030018 0.082938
vt 0.627441 0.641602
vn -0.069160 0.809776 0.582649
v 0.006693 0.019842 0.034916
vt 0.609863 0.641602
vn -0.093074 0.790912 0.604810
v 0.011624 0.010644 -0.018166
vt 0.590332 0.641602
vn -0.127460 0.785777 0.605234
v 0.018296 0.003723 -0.080898
vt 0.567383 0.641602
vn -0.140073 0.780989 0.608634
v 0.026294 0.002347 -0.149545
vt 0.541992 0.641602
vn -0.153049 0.775920 0.611984
v 0.035102 0.001562 -0.222111
vt 0.515625 0.641602
vn -0.164920 0.774982 0.610085
v 0.044207 0.001201 -0.296562
vt 0.488281 0.641602
vn -0.164920 0.774982 0.610085
v 0.053093 0.001099 -0.370849
vt 0.460938 0.641602
vn -0.154342 0.771519 0.617201
v 0.061246 0.001093 -0.442959
vt 0.434326 0.641602
vn -0.143681 0.767903 0.624245
v 0.068250 0.001092 -0.512388
vt 0.408936 0.641602
vn -0.122102 0.760196 0.638117
v 0.073804 0.001091 -0.580407
vt 0.384033 0.641602
vn -0.089264 0.747490 0.658248
v 0.077606 0.001090 -0.648367
vt 0.359131 0.641602
vn -0.056026 0.733442 0.677439
v 0.079357 0.001089 -0.717624
vt 0.333740 0.641602
vn -0.011244 0.712651 0.701429
v 0.078759 0.001088 -0.789528
vt 0.307617 0.641602
vn 0.033619 0.723306 0.689709
v 0.075441 0.001087 -0.865840
vt 0.279785 0.641602
vn 0.089217 0.747470 0.658277
v 0.068348 0.001086 -0.952310
vt 0.248047 0.641602
vn 0.132849 0.764098 0.631272
v 0.056033 0.001084 -1.056941
vt 0.209595 0.641602
vn 0.176688 0.778686 0.602022
v 0.037047 0.001082 -1.187770
vt 0.161255 0.641602
vn 0.207826 0.787720 0.579918
v 0.009938 0.001080 -1.352835
vt 0.100159 0.641602
vn 0.228094 0.792992 0.564922
v -0.026745 0.001077 -1.560177
vt 0.023239 0.641602
vn 0.238061 0.795404 0.557368
v 0.010335 0.809985 0.502417
vt 0.963379 0.894775
vn -0.000021 0.879138 0.476568
v 0.010335 0.821671 0.532886
vt 0.975586 0.894775
vn -0.000021 0.869781 0.493437
v 0.007308 0.816456 0.499342
vt 0.963379 0.852783
vn 0.023936 0.894158 0.447110
v 0.007308 0.828376 0.530316
vt 0.975586 0.852783
vn 0.008272 0.877227 0.480005
v 0.010335 0.797928 0.477028
vt 0.953125 0.894775
vn -0.000020 0.905001 0.425409
v 0.007308 0.804069 0.473275
vt 0.953125 0.852783
vn 0.037567 0.921181 0.387315
v 0.010335 0.782973 0.454123
vt 0.943359 0.894775
vn -0.000020 0.927698 0.373331
v 0.007308 0.788466 0.449357
vt 0.943359 0.852783
vn 0.035793 0.942168 0.333223
v 0.010335 0.763713 0.431417
vt 0.932617 0.894775
vn -0.000019 0.946528 0.322623
v 0.007308 0.768784 0.426052
vt 0.932617 0.852783
vn 0.041723 0.959628 0.278160
v 0.010335 0.741695 0.411246
vt 0.921387 0.894775
vn -0.000019 0.964606 0.263695
v 0.007308 0.746248 0.405362
vt 0.921387 0.852783
vn 0.027360 0.972137 0.232810
v 0.010335 0.713064 0.393967
vt 0.909180 0.894775
vn -0.000018 0.978107 0.208104
v 0.007308 0.716591 0.387327
vt 0.909180 0.852783
vn 0.013799 0.981005 0.193489
v 0.010335 0.683686 0.379888
vt 0.897461 0.894775
vn -0.000018 0.983926 0.178578
v 0.007308 0.686736 0.372955
vt 0.897461 0.852783
vn 0.020768 0.987544 0.155965
v 0.010335 0.650988 0.366323
vt 0.884766 0.894775
vn -0.000018 0.986955 0.160998
v 0.007308 0.653407 0.359099
vt 0.884766 0.852783
vn 0.034895 0.991453 0.125709
v 0.010335 0.620784 0.355209
vt 0.872559 0.894775
vn -0.000017 0.989373 0.145401
v 0.007308 0.622967 0.347873
vt 0.872559 0.852783
vn 0.042141 0.993905 0.101872
v 0.010335 0.593522 0.346332
vt 0.862305 0.894775
vn -0.000017 0.990916 0.134479
v 0.007308 0.595645 0.338952
vt 0.862305 0.852783
vn 0.049245 0.995503 0.080919
v 0.010335 0.546231 0.331949
vt 0.844238 0.894775
vn -0.000017 0.991720 0.128416
v 0.007308 0.548493 0.324576
vt 0.844238 0.852783
vn 0.056500 0.995899 0.070655
v 0.010335 0.498530 0.317687
vt 0.826172 0.894775
vn -0.000017 0.992605 0.121388
v 0.007308 0.500701 0.310310
vt 0.826172 0.852783
vn 0.056738 0.996566 0.060307
v 0.010335 0.450327 0.305203
vt 0.807617 0.894775
vn -0.000017 0.993345 0.115176
v 0.007308 0.452266 0.297838
vt 0.807617 0.852783
vn 0.050013 0.996898 0.060763
v 0.010335 0.400754 0.291693
vt 0.789062 0.894775
vn -0.000017 0.993345 0.115176
v 0.007308 0.402682 0.284454
vt 0.789062 0.852783
vn 0.042841 0.996771 0.067921
v 0.010335 0.351488 0.279103
vt 0.770508 0.894775
vn -0.000017 0.993345 0.115176
v 0.007308 0.353449 0.272036
vt 0.770508 0.852783
vn 0.028750 0.996154 0.082769
v 0.010335 0.302667 0.266049
vt 0.751953 0.894775
vn -0.000017 0.992605 0.121388
v 0.007308 0.304901 0.259171
vt 0.751953 0.852783
vn 0.021296 0.994806 0.099537
v 0.010335 0.257864 0.252471
vt 0.734863 0.894775
vn -0.000017 0.991322 0.131460
v 0.007308 0.259787 0.245719
vt 0.734863 0.852783
vn 0.014227 0.992975 0.117470
v 0.010335 0.229248 0.243289
vt 0.724121 0.894775
vn -0.000017 0.989521 0.144390
v 0.007308 0.231425 0.236611
vt 0.724121 0.852783
vn -0.000017 0.989952 0.141407
v 0.010335 0.208371 0.235657
vt 0.715820 0.894775
vn -0.000017 0.988495 0.151256
v 0.007308 0.210810 0.229065
vt 0.715820 0.852783
vn -0.000017 0.988495 0.151256
v 0.010335 0.186804 0.227959
vt 0.707520 0.894775
vn -0.000017 0.987416 0.158145
v 0.007308 0.189514 0.221468
vt 0.707520 0.852783
vn -0.013983 0.987495 0.157031
v 0.010335 0.168192 0.220380
vt 0.700195 0.894775
vn -0.000018 0.985336 0.170623
v 0.007308 0.171183 0.214006
vt 0.700195 0.852783
vn -0.013941 0.985244 0.170588
v 0.010335 0.151649 0.213197
vt 0.693359 0.894775
vn -0.000018 0.983420 0.181342
v 0.007308 0.154932 0.206957
vt 0.693359 0.852783
vn -0.027466 0.984206 0.174883
v 0.010335 0.137721 0.206741
vt 0.687988 0.894775
vn -0.000018 0.981637 0.190760
v 0.007308 0.141054 0.200516
vt 0.687988 0.852783
vn -0.034223 0.981556 0.188089
v 0.010335 0.123849 0.199716
vt 0.682129 0.894775
vn -0.000018 0.976675 0.214722
v 0.007308 0.127278 0.193529
vt 0.682129 0.852783
vn -0.027333 0.976927 0.211819
v 0.010335 0.111438 0.192036
vt 0.676758 0.894775
vn -0.000019 0.969107 0.246641
v 0.007308 0.115092 0.185963
vt 0.676758 0.852783
vn -0.027422 0.969578 0.243241
v 0.010335 0.097139 0.181270
vt 0.670410 0.894775
vn -0.000019 0.958018 0.286708
v 0.007308 0.101545 0.175674
vt 0.670410 0.852783
vn -0.020989 0.957806 0.286649
v 0.010370 0.084621 0.169130
vt 0.664062 0.894775
vn -0.000019 0.942782 0.333410
v 0.007342 0.089895 0.164277
vt 0.664062 0.852783
vn -0.028618 0.943905 0.328974
v 0.011637 0.053693 0.117310
vt 0.641602 0.894775
vn -0.024575 0.884116 0.466622
v 0.008565 0.060542 0.113155
vt 0.641602 0.852783
vn -0.145528 0.885770 0.440718
v 0.013531 0.040482 0.080631
vt 0.627441 0.894775
vn -0.052574 0.862414 0.503466
v 0.010406 0.047570 0.077816
vt 0.627441 0.852783
vn -0.154422 0.862803 0.481378
v 0.016714 0.030491 0.034576
vt 0.609863 0.894775
vn -0.083650 0.841064 0.534429
v 0.013535 0.037621 0.032576
vt 0.609863 0.852783
vn -0.164882 0.838812 0.518853
v 0.021528 0.021382 -0.017104
vt 0.590332 0.894775
vn -0.115404 0.831615 0.543230
v 0.018311 0.028540 -0.018650
vt 0.590332 0.852783
vn -0.180095 0.825298 0.535209
v 0.028112 0.014489 -0.078974
vt 0.567383 0.894775
vn -0.135328 0.801277 0.582787
v 0.024873 0.021651 -0.080309
vt 0.567383 0.852783
vn -0.169376 0.799105 0.576839
v 0.036051 0.013117 -0.147106
vt 0.541992 0.894775
vn -0.151754 0.780230 0.606804
v 0.032795 0.020278 -0.148296
vt 0.541992 0.852783
vn -0.151754 0.780230 0.606804
v 0.044824 0.012329 -0.219378
vt 0.515625 0.894775
vn -0.153049 0.775920 0.611984
v 0.041554 0.019486 -0.220461
vt 0.515625 0.852783
vn -0.163501 0.779294 0.604953
v 0.053912 0.011961 -0.293700
vt 0.488281 0.894775
vn -0.154342 0.771519 0.617201
v 0.050632 0.019114 -0.294695
vt 0.488281 0.852783
vn -0.154342 0.771519 0.617201
v 0.062799 0.011851 -0.367999
vt 0.460938 0.894775
vn -0.154342 0.771519 0.617201
v 0.059509 0.018999 -0.368920
vt 0.460938 0.852783
vn -0.154342 0.771519 0.617201
v 0.070969 0.011837 -0.440269
vt 0.434326 0.894775
vn -0.143681 0.767903 0.624245
v 0.067672 0.018980 -0.441120
vt 0.434326 0.852783
vn -0.143681 0.767903 0.624245
v 0.078008 0.011829 -0.510024
vt 0.408936 0.894775
vn -0.122102 0.760196 0.638117
v 0.074699 0.018966 -0.510769
vt 0.408936 0.852783
vn -0.122102 0.760196 0.638117
v 0.083603 0.011821 -0.578538
vt 0.384033 0.894775
vn -0.089264 0.747490 0.658248
v 0.080280 0.018953 -0.579118
vt 0.384033 0.852783
vn -0.089264 0.747490 0.658248
v 0.087445 0.011812 -0.647146
vt 0.359131 0.894775
vn -0.044840 0.728449 0.683631
v 0.084108 0.018940 -0.647510
vt 0.359131 0.852783
vn -0.056026 0.733442 0.677439
v 0.089222 0.011804 -0.717163
vt 0.333740 0.894775
vn -0.011244 0.712651 0.701429
v 0.085876 0.018927 -0.717273
vt 0.333740 0.852783
vn -0.011244 0.712651 0.701429
v 0.088624 0.011795 -0.789890
vt 0.307617 0.894775
vn 0.033619 0.723306 0.689709
v 0.085278 0.018913 -0.789726
vt 0.307617 0.852783
vn 0.033619 0.723306 0.689709
v 0.085277 0.011786 -0.867060
vt 0.279785 0.894775
vn 0.078201 0.742946 0.664767
v 0.081941 0.018898 -0.866609
vt 0.279785 0.852783
vn 0.078201 0.742946 0.664767
v 0.078118 0.011775 -0.954453
vt 0.248047 0.894775
vn 0.132849 0.764098 0.631272
v 0.074805 0.018882 -0.953692
vt 0.248047 0.852783
vn 0.132849 0.764098 0.631272
v 0.065718 0.011763 -1.059874
vt 0.209595 0.894775
vn 0.176688 0.778686 0.602022
v 0.062434 0.018862 -1.058852
vt 0.209595 0.852783
vn 0.176688 0.778686 0.602022
v 0.046653 0.011747 -1.191278
vt 0.161255 0.894775
vn 0.197590 0.784874 0.587308
v 0.043395 0.018837 -1.190067
vt 0.161255 0.852783
vn 0.207826 0.787720 0.579918
v 0.019483 0.011727 -1.356733
vt 0.100159 0.894775
vn 0.218048 0.790440 0.572416
v 0.016246 0.018805 -1.355400
vt 0.100159 0.852783
vn 0.228094 0.792992 0.564922
v -0.017242 0.011702 -1.564333
vt 0.023239 0.894775
vn 0.228094 0.792992 0.564922
v -0.020465 0.018766 -1.562924
vt 0.023239 0.852783
vn 0.228094 0.792992 0.564922
v 0.000258 0.066266 0.162649
vt 0.658203 0.643311
vn -0.007880 0.902117 0.431419
v 0.000605 0.055480 0.145027
vt 0.650879 0.643311
vn -0.017242 0.861121 0.508108
v -0.007054 0.068578 0.160780
vt 0.658203 0.684082
vn -0.074674 0.929202 0.361948
v -0.006711 0.057983 0.143303
vt 0.650879 0.684082
vn -0.111434 0.907140 0.405808
v 0.000605 0.055480 0.145027
vt 0.650879 0.979141
vn -0.017242 0.861121 0.508108
v 0.000258 0.066266 0.162649
vt 0.658203 0.979141
vn -0.007880 0.902117 0.431419
v 0.007903 0.058141 0.143496
vt 0.650879 0.937500
vn 0.072029 0.900718 0.428391
v 0.007559 0.068754 0.160958
vt 0.658203 0.937500
vn 0.044984 0.922783 0.382685
v 0.010912 0.064360 0.139458
vt 0.650879 0.894775
vn -0.007830 0.903555 0.428400
v 0.010574 0.074444 0.156546
vt 0.658203 0.894775
vn -0.007437 0.924025 0.382259
v 0.000220 0.082483 0.150318
vt 0.658203 0.811157
vn -0.007909 0.897528 0.440886
v 0.000543 0.073125 0.133987
vt 0.650879 0.811157
vn -0.017695 0.847852 0.529937
v 0.007532 0.080224 0.152243
vt 0.658203 0.852783
vn -0.067969 0.925016 0.373798
v 0.007860 0.070618 0.135681
vt 0.650879 0.852783
vn -0.113066 0.904246 0.411770
v -0.006754 0.070457 0.135493
vt 0.650879 0.768555
vn 0.073241 0.895246 0.439512
v -0.007081 0.080051 0.152068
vt 0.658203 0.768555
vn 0.045293 0.921656 0.385356
v -0.009756 0.064135 0.139188
vt 0.650879 0.726807
vn -0.023495 0.904128 0.426616
v -0.010093 0.074197 0.156296
vt 0.658203 0.726807
vn -0.014826 0.925796 0.377733
usemtl Charging_Cable.006
f 3/3/3 2/2/2 1/1/1
f 4/4/4 2/2/2 3/3/3
f 6/6/6 1/1/1 5/5/5
f 3/3/3 1/1/1 6/6/6
f 8/8/8 5/5/5 7/7/7
f 6/6/6 5/5/5 8/8/8
f 10/10/10 7/7/7 9/9/9
f 8/8/8 7/7/7 10/10/10
f 12/12/12 9/9/9 11/11/11
f 10/10/10 9/9/9 12/12/12
f 14/14/14 11/11/11 13/13/13
f 12/12/12 11/11/11 14/14/14
f 16/16/16 13/13/13 15/15/15
f 14/14/14 13/13/13 16/16/16
f 18/18/18 15/15/15 17/17/17
f 16/16/16 15/15/15 18/18/18
f 20/20/20 17/17/17 19/19/19
f 18/18/18 17/17/17 20/20/20
f 22/22/22 19/19/19 21/21/21
f 20/20/20 19/19/19 22/22/22
f 23/23/23 22/22/22 21/21/21
f 24/24/24 22/22/22 23/23/23
f 25/25/25 24/24/24 23/23/23
f 26/26/26 24/24/24 25/25/25
f 27/27/27 26/26/26 25/25/25
f 28/28/28 26/26/26 27/27/27
f 29/29/29 28/28/28 27/27/27
f 30/30/30 28/28/28 29/29/29
f 31/31/31 30/30/30 29/29/29
f 32/32/32 30/30/30 31/31/31
f 33/33/33 32/32/32 31/31/31
f 34/34/34 32/32/32 33/33/33
f 35/35/35 34/34/34 33/33/33
f 36/36/36 34/34/34 35/35/35
f 38/38/38 35/35/35 37/37/37
f 36/36/36 35/35/35 38/38/38
f 40/40/40 37/37/37 39/39/39
f 38/38/38 37/37/37 40/40/40
f 42/42/42 39/39/39 41/41/41
f 40/40/40 39/39/39 42/42/42
f 44/44/44 41/41/41 43/43/43
f 42/42/42 41/41/41 44/44/44
f 46/46/46 43/43/43 45/45/45
f 44/44/44 43/43/43 46/46/46
f 48/48/48 45/45/45 47/47/47
f 46/46/46 45/45/45 48/48/48
f 50/50/50 47/47/47 49/49/49
f 48/48/48 47/47/47 50/50/50
f 52/52/52 49/49/49 51/51/51
f 50/50/50 49/49/49 52/52/52
f 53/53/53 52/52/52 51/51/51
f 54/54/54 52/52/52 53/53/53
f 55/55/55 54/54/54 53/53/53
f 56/56/56 54/54/54 55/55/55
f 59/59/59 58/58/58 57/57/57
f 60/60/60 58/58/58 59/59/59
f 61/61/61 60/60/60 59/59/59
f 62/62/62 60/60/60 61/61/61
f 63/63/63 62/62/62 61/61/61
f 64/64/64 62/62/62 63/63/63
f 65/65/65 64/64/64 63/63/63
f 66/66/66 64/64/64 65/65/65
f 67/67/67 66/66/66 65/65/65
f 68/68/68 66/66/66 67/67/67
f 69/69/69 68/68/68 67/67/67
f 70/70/70 68/68/68 69/69/69
f 71/71/71 70/70/70 69/69/69
f 72/72/72 70/70/70 71/71/71
f 73/73/73 72/72/72 71/71/71
f 74/74/74 72/72/72 73/73/73
f 75/75/75 74/74/74 73/73/73
f 76/76/76 74/74/74 75/75/75
f 77/77/77 76/76/76 75/75/75
f 78/78/78 76/76/76 77/77/77
f 79/79/79 78/78/78 77/77/77
f 80/80/80 78/78/78 79/79/79
f 81/81/81 80/80/80 79/79/79
f 82/82/82 80/80/80 81/81/81
f 83/83/83 82/82/82 81/81/81
f 84/84/84 82/82/82 83/83/83
f 85/85/85 84/84/84 83/83/83
f 86/86/86 84/84/84 85/85/85
f 87/87/87 86/86/86 85/85/85
f 88/88/88 86/86/86 87/87/87
f 89/89/89 88/88/88 87/87/87
f 90/90/90 88/88/88 89/89/89
f 91/91/91 90/90/90 89/89/89
f 92/92/92 90/90/90 91/91/91
f 93/93/93 92/92/92 91/91/91
f 94/94/94 92/92/92 93/93/93
f 95/95/95 94/94/94 93/93/93
f 96/96/96 94/94/94 95/95/95
f 97/97/97 96/96/96 95/95/95
f 98/98/98 96/96/96 97/97/97
f 101/101/101 100/100/100 99/99/99
f 102/102/102 100/100/100 101/101/101
f 104/104/104 99/99/99 103/103/103
f 101/101/101 99/99/99 104/104/104
f 106/106/106 103/103/103 105/105/105
f 104/104/104 103/103/103 106/106/106
f 108/108/108 105/105/105 107/107/107
f 106/106/106 105/105/105 108/108/108
f 110/110/110 107/107/107 109/109/109
f 108/108/108 107/107/107 110/110/110
f 112/112/112 109/109/109 111/111/111
f 110/110/110 109/109/109 112/112/112
f 114/114/114 111/111/111 113/113/113
f 112/112/112 111/111/111 114/114/114
f 116/116/116 113/113/113 115/115/115
f 114/114/114 113/113/113 116/116/116
f 118/118/118 115/115/115 117/117/117
f 116/116/116 115/115/115 118/118/118
f 120/120/120 117/117/117 119/119/119
f 118/118/118 117/117/117 120/120/120
f 121/121/121 120/120/120 119/119/119
f 122/122/122 120/120/120 121/121/121
f 123/123/123 122/122/122 121/121/121
f 124/124/124 122/122/122 123/123/123
f 125/125/125 124/124/124 123/123/123
f 126/126/126 124/124/124 125/125/125
f 127/127/127 126/126/126 125/125/125
f 128/128/128 126/126/126 127/127/127
f 129/129/129 128/128/128 127/127/127
f 130/130/130 128/128/128 129/129/129
f 131/131/131 130/130/130 129/129/129
f 132/132/132 130/130/130 131/131/131
f 133/133/133 132/132/132 131/131/131
f 134/134/134 132/132/132 133/133/133
f 136/136/136 133/133/133 135/135/135
f 134/134/134 133/133/133 136/136/136
f 138/138/138 135/135/135 137/137/137
f 136/136/136 135/135/135 138/138/138
f 140/140/140 137/137/137 139/139/139
f 138/138/138 137/137/137 140/140/140
f 142/142/142 139/139/139 141/141/141
f 140/140/140 139/139/139 142/142/142
f 144/144/144 141/141/141 143/143/143
f 142/142/142 141/141/141 144/144/144
f 146/146/146 143/143/143 145/145/145
f 144/144/144 143/143/143 146/146/146
f 148/148/148 145/145/145 147/147/147
f 146/146/146 145/145/145 148/148/148
f 150/150/150 147/147/147 149/149/149
f 148/148/148 147/147/147 150/150/150
f 151/151/151 150/150/150 149/149/149
f 152/152/152 150/150/150 151/151/151
f 153/153/153 152/152/152 151/151/151
f 154/154/154 152/152/152 153/153/153
f 157/157/157 156/156/156 155/155/155
f 158/158/158 156/156/156 157/157/157
f 159/159/159 158/158/158 157/157/157
f 160/160/160 158/158/158 159/159/159
f 161/161/161 160/160/160 159/159/159
f 162/162/162 160/160/160 161/161/161
f 163/163/163 162/162/162 161/161/161
f 164/164/164 162/162/162 163/163/163
f 165/165/165 164/164/164 163/163/163
f 166/166/166 164/164/164 165/165/165
f 167/167/167 166/166/166 165/165/165
f 168/168/168 166/166/166 167/167/167
f 169/169/169 168/168/168 167/167/167
f 170/170/170 168/168/168 169/169/169
f 171/171/171 170/170/170 169/169/169
f 172/172/172 170/170/170 171/171/171
f 173/173/173 172/172/172 171/171/171
f 174/174/174 172/172/172 173/173/173
f 175/175/175 174/174/174 173/173/173
f 176/176/176 174/174/174 175/175/175
f 177/177/177 176/176/176 175/175/175
f 178/178/178 176/176/176 177/177/177
f 179/179/179 178/178/178 177/177/177
f 180/180/180 178/178/178 179/179/179
f 181/181/181 180/180/180 179/179/179
f 182/182/182 180/180/180 181/181/181
f 183/183/183 182/182/182 181/181/181
f 184/184/184 182/182/182 183/183/183
f 185/185/185 184/184/184 183/183/183
f 186/186/186 184/184/184 185/185/185
f 187/187/187 186/186/186 185/185/185
f 188/188/188 186/186/186 187/187/187
f 189/189/189 188/188/188 187/187/187
f 190/190/190 188/188/188 189/189/189
f 191/191/191 190/190/190 189/189/189
f 192/192/192 190/190/190 191/191/191
f 193/193/193 192/192/192 191/191/191
f 194/194/194 192/192/192 193/193/193
f 195/195/195 194/194/194 193/193/193
f 196/196/196 194/194/194 195/195/195
f 199/199/199 198/198/198 197/197/197
f 200/200/200 198/198/198 199/199/199
f 202/202/202 197/197/197 201/201/201
f 199/199/199 197/197/197 202/202/202
f 204/204/204 201/201/201 203/203/203
f 202/202/202 201/201/201 204/204/204
f 206/206/206 203/203/203 205/205/205
f 204/204/204 203/203/203 206/206/206
f 208/208/208 205/205/205 207/207/207
f 206/206/206 205/205/205 208/208/208
f 210/210/210 207/207/207 209/209/209
f 208/208/208 207/207/207 210/210/210
f 212/212/212 209/209/209 211/211/211
f 210/210/210 209/209/209 212/212/212
f 214/214/214 211/211/211 213/213/213
f 212/212/212 211/211/211 214/214/214
f 216/216/216 213/213/213 215/215/215
f 214/214/214 213/213/213 216/216/216
f 218/218/218 215/215/215 217/217/217
f 216/216/216 215/215/215 218/218/218
f 219/219/219 218/218/218 217/217/217
f 220/220/220 218/218/218 219/219/219
f 221/221/221 220/220/220 219/219/219
f 222/222/222 220/220/220 221/221/221
f 223/223/223 222/222/222 221/221/221
f 224/224/224 222/222/222 223/223/223
f 225/225/225 224/224/224 223/223/223
f 226/226/226 224/224/224 225/225/225
f 227/227/227 226/226/226 225/225/225
f 228/228/228 226/226/226 227/227/227
f 229/229/229 228/228/228 227/227/227
f 230/230/230 228/228/228 229/229/229
f 231/231/231 230/230/230 229/229/229
f 232/232/232 230/230/230 231/231/231
f 234/234/234 231/231/231 233/233/233
f 232/232/232 231/231/231 234/234/234
f 236/236/236 233/233/233 235/235/235
f 234/234/234 233/233/233 236/236/236
f 238/238/238 235/235/235 237/237/237
f 236/236/236 235/235/235 238/238/238
f 240/240/240 237/237/237 239/239/239
f 238/238/238 237/237/237 240/240/240
f 242/242/242 239/239/239 241/241/241
f 240/240/240 239/239/239 242/242/242
f 244/244/244 241/241/241 243/243/243
f 242/242/242 241/241/241 244/244/244
f 246/246/246 243/243/243 245/245/245
f 244/244/244 243/243/243 246/246/246
f 248/248/248 245/245/245 247/247/247
f 246/246/246 245/245/245 248/248/248
f 249/249/249 248/248/248 247/247/247
f 250/250/250 248/248/248 249/249/249
f 251/251/251 250/250/250 249/249/249
f 252/252/252 250/250/250 251/251/251
f 255/255/255 254/254/254 253/253/253
f 256/256/256 254/254/254 255/255/255
f 257/257/257 256/256/256 255/255/255
f 258/258/258 256/256/256 257/257/257
f 259/259/259 258/258/258 257/257/257
f 260/260/260 258/258/258 259/259/259
f 261/261/261 260/260/260 259/259/259
f 262/262/262 260/260/260 261/261/261
f 263/263/263 262/262/262 261/261/261
f 264/264/264 262/262/262 263/263/263
f 265/265/265 264/264/264 263/263/263
f 266/266/266 264/264/264 265/265/265
f 267/267/267 266/266/266 265/265/265
f 268/268/268 266/266/266 267/267/267
f 269/269/269 268/268/268 267/267/267
f 270/270/270 268/268/268 269/269/269
f 271/271/271 270/270/270 269/269/269
f 272/272/272 270/270/270 271/271/271
f 273/273/273 272/272/272 271/271/271
f 274/274/274 272/272/272 273/273/273
f 275/275/275 274/274/274 273/273/273
f 276/276/276 274/274/274 275/275/275
f 277/277/277 276/276/276 275/275/275
f 278/278/278 276/276/276 277/277/277
f 279/279/279 278/278/278 277/277/277
f 280/280/280 278/278/278 279/279/279
f 281/281/281 280/280/280 279/279/279
f 282/282/282 280/280/280 281/281/281
f 283/283/283 282/282/282 281/281/281
f 284/284/284 282/282/282 283/283/283
f 285/285/285 284/284/284 283/283/283
f 286/286/286 284/284/284 285/285/285
f 287/287/287 286/286/286 285/285/285
f 288/288/288 286/286/286 287/287/287
f 289/289/289 288/288/288 287/287/287
f 290/290/290 288/288/288 289/289/289
f 291/291/291 290/290/290 289/289/289
f 292/292/292 290/290/290 291/291/291
f 293/293/293 292/292/292 291/291/291
f 294/294/294 292/292/292 293/293/293
f 295/295/295 200/200/200 199/199/199
f 296/296/296 200/200/200 295/295/295
f 297/297/297 199/199/199 202/202/202
f 295/295/295 199/199/199 297/297/297
f 298/298/298 202/202/202 204/204/204
f 297/297/297 202/202/202 298/298/298
f 299/299/299 204/204/204 206/206/206
f 298/298/298 204/204/204 299/299/299
f 300/300/300 206/206/206 208/208/208
f 299/299/299 206/206/206 300/300/300
f 301/301/301 208/208/208 210/210/210
f 300/300/300 208/208/208 301/301/301
f 302/302/302 210/210/210 212/212/212
f 301/301/301 210/210/210 302/302/302
f 303/303/303 212/212/212 214/214/214
f 302/302/302 212/212/212 303/303/303
f 304/304/304 214/214/214 216/216/216
f 303/303/303 214/214/214 304/304/304
f 305/305/305 216/216/216 218/218/218
f 304/304/304 216/216/216 305/305/305
f 218/218/218 306/306/306 305/305/305
f 220/220/220 306/306/306 218/218/218
f 220/220/220 307/307/307 306/306/306
f 222/222/222 307/307/307 220/220/220
f 222/222/222 308/308/308 307/307/307
f 224/224/224 308/308/308 222/222/222
f 224/224/224 309/309/309 308/308/308
f 226/226/226 309/309/309 224/224/224
f 226/226/226 310/310/310 309/309/309
f 228/228/228 310/310/310 226/226/226
f 228/228/228 311/311/311 310/310/310
f 230/230/230 311/311/311 228/228/228
f 230/230/230 312/312/312 311/311/311
f 232/232/232 312/312/312 230/230/230
f 313/313/313 232/232/232 234/234/234
f 312/312/312 232/232/232 313/313/313
f 314/314/314 234/234/234 236/236/236
f 313/313/313 234/234/234 314/314/314
f 315/315/315 236/236/236 238/238/238
f 314/314/314 236/236/236 315/315/315
f 316/316/316 238/238/238 240/240/240
f 315/315/315 238/238/238 316/316/316
f 317/317/317 240/240/240 242/242/242
f 316/316/316 240/240/240 317/317/317
f 318/318/318 242/242/242 244/244/244
f 317/317/317 242/242/242 318/318/318
f 319/319/319 244/244/244 246/246/246
f 318/318/318 244/244/244 319/319/319
f 320/320/320 246/246/246 248/248/248
f 319/319/319 246/246/246 320/320/320
f 248/248/248 321/321/321 320/320/320
f 250/250/250 321/321/321 248/248/248
f 250/250/250 322/322/322 321/321/321
f 252/252/252 322/322/322 250/250/250
f 254/254/254 324/324/324 323/323/323
f 256/256/256 324/324/324 254/254/254
f 256/256/256 325/325/325 324/324/324
f 258/258/258 325/325/325 256/256/256
f 258/258/258 326/326/326 325/325/325
f 260/260/260 326/326/326 258/258/258
f 260/260/260 327/327/327 326/326/326
f 262/262/262 327/327/327 260/260/260
f 262/262/262 328/328/328 327/327/327
f 264/264/264 328/328/328 262/262/262
f 264/264/264 329/329/329 328/328/328
f 266/266/266 329/329/329 264/264/264
f 266/266/266 330/330/330 329/329/329
f 268/268/268 330/330/330 266/266/266
f 268/268/268 331/331/331 330/330/330
f 270/270/270 331/331/331 268/268/268
f 270/270/270 332/332/332 331/331/331
f 272/272/272 332/332/332 270/270/270
f 272/272/272 333/333/333 332/332/332
f 274/274/274 333/333/333 272/272/272
f 274/274/274 334/334/334 333/333/333
f 276/276/276 334/334/334 274/274/274
f 276/276/276 335/335/335 334/334/334
f 278/278/278 335/335/335 276/276/276
f 278/278/278 336/336/336 335/335/335
f 280/280/280 336/336/336 278/278/278
f 280/280/280 337/337/337 336/336/336
f 282/282/282 337/337/337 280/280/280
f 282/282/282 338/338/338 337/337/337
f 284/284/284 338/338/338 282/282/282
f 284/284/284 339/339/339 338/338/338
f 286/286/286 339/339/339 284/284/284
f 286/286/286 340/340/340 339/339/339
f 288/288/288 340/340/340 286/286/286
f 288/288/288 341/341/341 340/340/340
f 290/290/290 341/341/341 288/288/288
f 290/290/290 342/342/342 341/341/341
f 292/292/292 342/342/342 290/290/290
f 292/292/292 343/343/343 342/342/342
f 294/294/294 343/343/343 292/292/292
f 197/197/197 102/102/102 101/101/101
f 198/198/198 102/102/102 197/197/197
f 201/201/201 101/101/101 104/104/104
f 197/197/197 101/101/101 201/201/201
f 203/203/203 104/104/104 106/106/106
f 201/201/201 104/104/104 203/203/203
f 205/205/205 106/106/106 108/108/108
f 203/203/203 106/106/106 205/205/205
f 207/207/207 108/108/108 110/110/110
f 205/205/205 108/108/108 207/207/207
f 209/209/209 110/110/110 112/112/112
f 207/207/207 110/110/110 209/209/209
f 211/211/211 112/112/112 114/114/114
f 209/209/209 112/112/112 211/211/211
f 213/213/213 114/114/114 116/116/116
f 211/211/211 114/114/114 213/213/213
f 215/215/215 116/116/116 118/118/118
f 213/213/213 116/116/116 215/215/215
f 217/217/217 118/118/118 120/120/120
f 215/215/215 118/118/118 217/217/217
f 120/120/120 219/219/219 217/217/217
f 122/122/122 219/219/219 120/120/120
f 122/122/122 221/221/221 219/219/219
f 124/124/124 221/221/221 122/122/122
f 124/124/124 223/223/223 221/221/221
f 126/126/126 223/223/223 124/124/124
f 126/126/126 225/225/225 223/223/223
f 128/128/128 225/225/225 126/126/126
f 128/128/128 227/227/227 225/225/225
f 130/130/130 227/227/227 128/128/128
f 130/130/130 229/229/229 227/227/227
f 132/132/132 229/229/229 130/130/130
f 132/132/132 231/231/231 229/229/229
f 134/134/134 231/231/231 132/132/132
f 233/233/233 134/134/134 136/136/136
f 231/231/231 134/134/134 233/233/233
f 235/235/235 136/136/136 138/138/138
f 233/233/233 136/136/136 235/235/235
f 237/237/237 138/138/138 140/140/140
f 235/235/235 138/138/138 237/237/237
f 239/239/239 140/140/140 142/142/142
f 237/237/237 140/140/140 239/239/239
f 241/241/241 142/142/142 144/144/144
f 239/239/239 142/142/142 241/241/241
f 243/243/243 144/144/144 146/146/146
f 241/241/241 144/144/144 243/243/243
f 245/245/245 146/146/146 148/148/148
f 243/243/243 146/146/146 245/245/245
f 247/247/247 148/148/148 150/150/150
f 245/245/245 148/148/148 247/247/247
f 150/150/150 249/249/249 247/247/247
f 152/152/152 249/249/249 150/150/150
f 152/152/152 251/251/251 249/249/249
f 154/154/154 251/251/251 152/152/152
f 156/156/156 255/255/255 253/253/253
f 158/158/158 255/255/255 156/156/156
f 158/158/158 257/257/257 255/255/255
f 160/160/160 257/257/257 158/158/158
f 160/160/160 259/259/259 257/257/257
f 162/162/162 259/259/259 160/160/160
f 162/162/162 261/261/261 259/259/259
f 164/164/164 261/261/261 162/162/162
f 164/164/164 263/263/263 261/261/261
f 166/166/166 263/263/263 164/164/164
f 166/166/166 265/265/265 263/263/263
f 168/168/168 265/265/265 166/166/166
f 168/168/168 267/267/267 265/265/265
f 170/170/170 267/267/267 168/168/168
f 170/170/170 269/269/269 267/267/267
f 172/172/172 269/269/269 170/170/170
f 172/172/172 271/271/271 269/269/269
f 174/174/174 271/271/271 172/172/172
f 174/174/174 273/273/273 271/271/271
f 176/176/176 273/273/273 174/174/174
f 176/176/176 275/275/275 273/273/273
f 178/178/178 275/275/275 176/176/176
f 178/178/178 277/277/277 275/275/275
f 180/180/180 277/277/277 178/178/178
f 180/180/180 279/279/279 277/277/277
f 182/182/182 279/279/279 180/180/180
f 182/182/182 281/281/281 279/279/279
f 184/184/184 281/281/281 182/182/182
f 184/184/184 283/283/283 281/281/281
f 186/186/186 283/283/283 184/184/184
f 186/186/186 285/285/285 283/283/283
f 188/188/188 285/285/285 186/186/186
f 188/188/188 287/287/287 285/285/285
f 190/190/190 287/287/287 188/188/188
f 190/190/190 289/289/289 287/287/287
f 192/192/192 289/289/289 190/190/190
f 192/192/192 291/291/291 289/289/289
f 194/194/194 291/291/291 192/192/192
f 194/194/194 293/293/293 291/291/291
f 196/196/196 293/293/293 194/194/194
f 346/346/346 345/345/345 344/344/344
f 347/347/347 345/345/345 346/346/346
f 349/349/349 344/344/344 348/348/348
f 346/346/346 344/344/344 349/349/349
f 351/351/351 348/348/348 350/350/350
f 349/349/349 348/348/348 351/351/351
f 353/353/353 350/350/350 352/352/352
f 351/351/351 350/350/350 353/353/353
f 355/355/355 352/352/352 354/354/354
f 353/353/353 352/352/352 355/355/355
f 357/357/357 354/354/354 356/356/356
f 355/355/355 354/354/354 357/357/357
f 359/359/359 356/356/356 358/358/358
f 357/357/357 356/356/356 359/359/359
f 361/361/361 358/358/358 360/360/360
f 359/359/359 358/358/358 361/361/361
f 363/363/363 360/360/360 362/362/362
f 361/361/361 360/360/360 363/363/363
f 365/365/365 362/362/362 364/364/364
f 363/363/363 362/362/362 365/365/365
f 366/366/366 365/365/365 364/364/364
f 367/367/367 365/365/365 366/366/366
f 368/368/368 367/367/367 366/366/366
f 369/369/369 367/367/367 368/368/368
f 370/370/370 369/369/369 368/368/368
f 371/371/371 369/369/369 370/370/370
f 372/372/372 371/371/371 370/370/370
f 373/373/373 371/371/371 372/372/372
f 374/374/374 373/373/373 372/372/372
f 375/375/375 373/373/373 374/374/374
f 376/376/376 375/375/375 374/374/374
f 377/377/377 375/375/375 376/376/376
f 378/378/378 377/377/377 376/376/376
f 379/379/379 377/377/377 378/378/378
f 381/381/381 378/378/378 380/380/380
f 379/379/379 378/378/378 381/381/381
f 383/383/383 380/380/380 382/382/382
f 381/381/381 380/380/380 383/383/383
f 385/385/385 382/382/382 384/384/384
f 383/383/383 382/382/382 385/385/385
f 387/387/387 384/384/384 386/386/386
f 385/385/385 384/384/384 387/387/387
f 389/389/389 386/386/386 388/388/388
f 387/387/387 386/386/386 389/389/389
f 391/391/391 388/388/388 390/390/390
f 389/389/389 388/388/388 391/391/391
f 393/393/393 390/390/390 392/392/392
f 391/391/391 390/390/390 393/393/393
f 395/395/395 392/392/392 394/394/394
f 393/393/393 392/392/392 395/395/395
f 396/396/396 395/395/395 394/394/394
f 397/397/397 395/395/395 396/396/396
f 398/398/398 397/397/397 396/396/396
f 399/399/399 397/397/397 398/398/398
f 402/402/402 401/401/401 400/400/400
f 403/403/403 401/401/401 402/402/402
f 404/404/404 403/403/403 402/402/402
f 405/405/405 403/403/403 404/404/404
f 406/406/406 405/405/405 404/404/404
f 407/407/407 405/405/405 406/406/406
f 408/408/408 407/407/407 406/406/406
f 409/409/409 407/407/407 408/408/408
f 410/410/410 409/409/409 408/408/408
f 411/411/411 409/409/409 410/410/410
f 412/412/412 411/411/411 410/410/410
f 413/413/413 411/411/411 412/412/412
f 414/414/414 413/413/413 412/412/412
f 415/415/415 413/413/413 414/414/414
f 416/416/416 415/415/415 414/414/414
f 417/417/417 415/415/415 416/416/416
f 418/418/418 417/417/417 416/416/416
f 419/419/419 417/417/417 418/418/418
f 420/420/420 419/419/419 418/418/418
f 421/421/421 419/419/419 420/420/420
f 422/422/422 421/421/421 420/420/420
f 423/423/423 421/421/421 422/422/422
f 424/424/424 423/423/423 422/422/422
f 425/425/425 423/423/423 424/424/424
f 426/426/426 425/425/425 424/424/424
f 427/427/427 425/425/425 426/426/426
f 428/428/428 427/427/427 426/426/426
f 429/429/429 427/427/427 428/428/428
f 430/430/430 429/429/429 428/428/428
f 431/431/431 429/429/429 430/430/430
f 432/432/432 431/431/431 430/430/430
f 433/433/433 431/431/431 432/432/432
f 434/434/434 433/433/433 432/432/432
f 435/435/435 433/433/433 434/434/434
f 436/436/436 435/435/435 434/434/434
f 437/437/437 435/435/435 436/436/436
f 438/438/438 437/437/437 436/436/436
f 439/439/439 437/437/437 438/438/438
f 440/440/440 439/439/439 438/438/438
f 441/441/441 439/439/439 440/440/440
f 99/99/99 347/347/347 346/346/346
f 100/100/100 347/347/347 99/99/99
f 103/103/103 346/346/346 349/349/349
f 99/99/99 346/346/346 103/103/103
f 105/105/105 349/349/349 351/351/351
f 103/103/103 349/349/349 105/105/105
f 107/107/107 351/351/351 353/353/353
f 105/105/105 351/351/351 107/107/107
f 109/109/109 353/353/353 355/355/355
f 107/107/107 353/353/353 109/109/109
f 111/111/111 355/355/355 357/357/357
f 109/109/109 355/355/355 111/111/111
f 113/113/113 357/357/357 359/359/359
f 111/111/111 357/357/357 113/113/113
f 115/115/115 359/359/359 361/361/361
f 113/113/113 359/359/359 115/115/115
f 117/117/117 361/361/361 363/363/363
f 115/115/115 361/361/361 117/117/117
f 119/119/119 363/363/363 365/365/365
f 117/117/117 363/363/363 119/119/119
f 365/365/365 121/121/121 119/119/119
f 367/367/367 121/121/121 365/365/365
f 367/367/367 123/123/123 121/121/121
f 369/369/369 123/123/123 367/367/367
f 369/369/369 125/125/125 123/123/123
f 371/371/371 125/125/125 369/369/369
f 371/371/371 127/127/127 125/125/125
f 373/373/373 127/127/127 371/371/371
f 373/373/373 129/129/129 127/127/127
f 375/375/375 129/129/129 373/373/373
f 375/375/375 131/131/131 129/129/129
f 377/377/377 131/131/131 375/375/375
f 377/377/377 133/133/133 131/131/131
f 379/379/379 133/133/133 377/377/377
f 135/135/135 379/379/379 381/381/381
f 133/133/133 379/379/379 135/135/135
f 137/137/137 381/381/381 383/383/383
f 135/135/135 381/381/381 137/137/137
f 139/139/139 383/383/383 385/385/385
f 137/137/137 383/383/383 139/139/139
f 141/141/141 385/385/385 387/387/387
f 139/139/139 385/385/385 141/141/141
f 143/143/143 387/387/387 389/389/389
f 141/141/141 387/387/387 143/143/143
f 145/145/145 389/389/389 391/391/391
f 143/143/143 389/389/389 145/145/145
f 147/147/147 391/391/391 393/393/393
f 145/145/145 391/391/391 147/147/147
f 149/149/149 393/393/393 395/395/395
f 147/147/147 393/393/393 149/149/149
f 395/395/395 151/151/151 149/149/149
f 397/397/397 151/151/151 395/395/395
f 397/397/397 153/153/153 151/151/151
f 399/399/399 153/153/153 397/397/397
f 401/401/401 157/157/157 155/155/155
f 403/403/403 157/157/157 401/401/401
f 403/403/403 159/159/159 157/157/157
f 405/405/405 159/159/159 403/403/403
f 405/405/405 161/161/161 159/159/159
f 407/407/407 161/161/161 405/405/405
f 407/407/407 163/163/163 161/161/161
f 409/409/409 163/163/163 407/407/407
f 409/409/409 165/165/165 163/163/163
f 411/411/411 165/165/165 409/409/409
f 411/411/411 167/167/167 165/165/165
f 413/413/413 167/167/167 411/411/411
f 413/413/413 169/169/169 167/167/167
f 415/415/415 169/169/169 413/413/413
f 415/415/415 171/171/171 169/169/169
f 417/417/417 171/171/171 415/415/415
f 417/417/417 173/173/173 171/171/171
f 419/419/419 173/173/173 417/417/417
f 419/419/419 175/175/175 173/173/173
f 421/421/421 175/175/175 419/419/419
f 421/421/421 177/177/177 175/175/175
f 423/423/423 177/177/177 421/421/421
f 423/423/423 179/179/179 177/177/177
f 425/425/425 179/179/179 423/423/423
f 425/425/425 181/181/181 179/179/179
f 427/427/427 181/181/181 425/425/425
f 427/427/427 183/183/183 181/181/181
f 429/429/429 183/183/183 427/427/427
f 429/429/429 185/185/185 183/183/183
f 431/431/431 185/185/185 429/429/429
f 431/431/431 187/187/187 185/185/185
f 433/433/433 187/187/187 431/431/431
f 433/433/433 189/189/189 187/187/187
f 435/435/435 189/189/189 433/433/433
f 435/435/435 191/191/191 189/189/189
f 437/437/437 191/191/191 435/435/435
f 437/437/437 193/193/193 191/191/191
f 439/439/439 193/193/193 437/437/437
f 439/439/439 195/195/195 193/193/193
f 441/441/441 195/195/195 439/439/439
f 344/344/344 4/4/4 3/3/3
f 345/345/345 4/4/4 344/344/344
f 348/348/348 3/3/3 6/6/6
f 344/344/344 3/3/3 348/348/348
f 350/350/350 6/6/6 8/8/8
f 348/348/348 6/6/6 350/350/350
f 352/352/352 8/8/8 10/10/10
f 350/350/350 8/8/8 352/352/352
f 354/354/354 10/10/10 12/12/12
f 352/352/352 10/10/10 354/354/354
f 356/356/356 12/12/12 14/14/14
f 354/354/354 12/12/12 356/356/356
f 358/358/358 14/14/14 16/16/16
f 356/356/356 14/14/14 358/358/358
f 360/360/360 16/16/16 18/18/18
f 358/358/358 16/16/16 360/360/360
f 362/362/362 18/18/18 20/20/20
f 360/360/360 18/18/18 362/362/362
f 364/364/364 20/20/20 22/22/22
f 362/362/362 20/20/20 364/364/364
f 22/22/22 366/366/366 364/364/364
f 24/24/24 366/366/366 22/22/22
f 24/24/24 368/368/368 366/366/366
f 26/26/26 368/368/368 24/24/24
f 26/26/26 370/370/370 368/368/368
f 28/28/28 370/370/370 26/26/26
f 28/28/28 372/372/372 370/370/370
f 30/30/30 372/372/372 28/28/28
f 30/30/30 374/374/374 372/372/372
f 32/32/32 374/374/374 30/30/30
f 32/32/32 376/376/376 374/374/374
f 34/34/34 376/376/376 32/32/32
f 34/34/34 378/378/378 376/376/376
f 36/36/36 378/378/378 34/34/34
f 380/380/380 36/36/36 38/38/38
f 378/378/378 36/36/36 380/380/380
f 382/382/382 38/38/38 40/40/40
f 380/380/380 38/38/38 382/382/382
f 384/384/384 40/40/40 42/42/42
f 382/382/382 40/40/40 384/384/384
f 386/386/386 42/42/42 44/44/44
f 384/384/384 42/42/42 386/386/386
f 388/388/388 44/44/44 46/46/46
f 386/386/386 44/44/44 388/388/388
f 390/390/390 46/46/46 48/48/48
f 388/388/388 46/46/46 390/390/390
f 392/392/392 48/48/48 50/50/50
f 390/390/390 48/48/48 392/392/392
f 394/394/394 50/50/50 52/52/52
f 392/392/392 50/50/50 394/394/394
f 52/52/52 396/396/396 394/394/394
f 54/54/54 396/396/396 52/52/52
f 54/54/54 398/398/398 396/396/396
f 56/56/56 398/398/398 54/54/54
f 58/58/58 402/402/402 400/400/400
f 60/60/60 402/402/402 58/58/58
f 60/60/60 404/404/404 402/402/402
f 62/62/62 404/404/404 60/60/60
f 62/62/62 406/406/406 404/404/404
f 64/64/64 406/406/406 62/62/62
f 64/64/64 408/408/408 406/406/406
f 66/66/66 408/408/408 64/64/64
f 66/66/66 410/410/410 408/408/408
f 68/68/68 410/410/410 66/66/66
f 68/68/68 412/412/412 410/410/410
f 70/70/70 412/412/412 68/68/68
f 70/70/70 414/414/414 412/412/412
f 72/72/72 414/414/414 70/70/70
f 72/72/72 416/416/416 414/414/414
f 74/74/74 416/416/416 72/72/72
f 74/74/74 418/418/418 416/416/416
f 76/76/76 418/418/418 74/74/74
f 76/76/76 420/420/420 418/418/418
f 78/78/78 420/420/420 76/76/76
f 78/78/78 422/422/422 420/420/420
f 80/80/80 422/422/422 78/78/78
f 80/80/80 424/424/424 422/422/422
f 82/82/82 424/424/424 80/80/80
f 82/82/82 426/426/426 424/424/424
f 84/84/84 426/426/426 82/82/82
f 84/84/84 428/428/428 426/426/426
f 86/86/86 428/428/428 84/84/84
f 86/86/86 430/430/430 428/428/428
f 88/88/88 430/430/430 86/86/86
f 88/88/88 432/432/432 430/430/430
f 90/90/90 432/432/432 88/88/88
f 90/90/90 434/434/434 432/432/432
f 92/92/92 434/434/434 90/90/90
f 92/92/92 436/436/436 434/434/434
f 94/94/94 436/436/436 92/92/92
f 94/94/94 438/438/438 436/436/436
f 96/96/96 438/438/438 94/94/94
f 96/96/96 440/440/440 438/438/438
f 98/98/98 440/440/440 96/96/96
f 444/444/444 443/443/443 442/442/442
f 445/445/445 443/443/443 444/444/444
f 448/448/448 447/447/447 446/446/446
f 449/449/449 447/447/447 448/448/448
f 450/450/450 449/449/449 448/448/448
f 451/451/451 449/449/449 450/450/450
f 454/454/454 453/453/453 452/452/452
f 455/455/455 453/453/453 454/454/454
f 456/456/456 452/452/452 453/453/453
f 457/457/457 452/452/452 456/456/456
f 458/458/458 457/457/457 456/456/456
f 459/459/459 457/457/457 458/458/458
f 445/445/445 459/459/459 458/458/458
f 444/444/444 459/459/459 445/445/445
f 455/455/455 451/451/451 450/450/450
f 454/454/454 451/451/451 455/455/455
f 447/447/447 56/56/56 55/55/55
f 449/449/449 56/56/56 447/447/447
f 57/57/57 448/448/448 446/446/446
f 58/58/58 448/448/448 57/57/57
f 452/452/452 154/154/154 153/153/153
f 457/457/457 154/154/154 452/452/452
f 155/155/155 456/456/456 453/453/453
f 156/156/156 456/456/456 155/155/155
f 459/459/459 252/252/252 251/251/251
f 444/444/444 252/252/252 459/459/459
f 253/253/253 445/445/445 458/458/458
f 254/254/254 445/445/445 253/253/253
f 252/252/252 442/442/442 322/322/322
f 444/444/444 442/442/442 252/252/252
f 445/445/445 323/323/323 443/443/443
f 254/254/254 323/323/323 445/445/445
f 154/154/154 459/459/459 251/251/251
f 457/457/457 459/459/459 154/154/154
f 456/456/456 253/253/253 458/458/458
f 156/156/156 253/253/253 456/456/456
f 451/451/451 399/399/399 398/398/398
f 454/454/454 399/399/399 451/451/451
f 400/400/400 455/455/455 450/450/450
f 401/401/401 455/455/455 400/400/400
f 399/399/399 452/452/452 153/153/153
f 454/454/454 452/452/452 399/399/399
f 455/455/455 155/155/155 453/453/453
f 401/401/401 155/155/155 455/455/455
f 56/56/56 451/451/451 398/398/398
f 449/449/449 451/451/451 56/56/56
f 448/448/448 400/400/400 450/450/450
f 58/58/58 400/400/400 448/448/448
