# Exported from Godot Engine
mtllib Brake_Lights.mtl
o Brake_Lights
v -2.264309 1.048440 -0.670717
vt -0.988611 2.611149
vn -0.646886 0.694259 -0.315505
v -2.249562 1.048424 -0.701192
vt -0.943046 2.612087
vn -0.639039 0.698694 -0.321646
v -2.259489 1.054404 -0.667684
vt -0.989212 2.600045
vn -0.646886 0.694259 -0.315505
v -2.244499 1.054138 -0.698791
vt -0.942571 2.601253
vn -0.638934 0.698791 -0.321644
v -2.237714 1.048356 -0.724086
vt -0.908468 2.612864
vn -0.621225 0.705995 -0.340074
v -2.232009 1.053883 -0.722987
vt -0.905231 2.602568
vn -0.618428 0.706447 -0.344208
v -2.232720 1.047821 -0.733412
vt -0.894317 2.614554
vn -0.582039 0.700579 -0.412819
v -2.226415 1.052931 -0.733557
vt -0.888443 2.605686
vn -0.572556 0.695265 -0.434495
v -2.230262 1.046526 -0.737997
vt -0.887360 2.617252
vn -0.523950 0.608874 -0.595608
v -2.222863 1.050209 -0.740696
vt -0.877680 2.611466
vn -0.511742 0.563242 -0.648752
v -2.229122 1.044074 -0.740468
vt -0.883858 2.621098
vn -0.475792 0.347547 -0.807981
v -2.221215 1.045170 -0.744624
vt -0.872440 2.619506
vn -0.473112 0.308494 -0.825225
v -2.228692 1.038864 -0.742268
vt -0.882176 2.628866
vn -0.468933 0.182568 -0.864159
v -2.220588 1.036775 -0.747120
vt -0.869856 2.631880
vn -0.470521 0.144479 -0.870480
v -2.220849 1.030736 -0.746946
vt -0.870591 2.640635
vn -0.514664 -0.055792 -0.855575
v -2.228638 1.035942 -0.742860
vt -0.881748 2.632952
vn -0.500425 -0.018464 -0.865583
v -2.221481 1.029559 -0.746086
vt -0.871999 2.642459
vn -0.649145 -0.590542 -0.479448
v -2.229206 1.034510 -0.741987
vt -0.883088 2.634943
vn -0.647614 -0.644919 -0.405802
v -2.230612 1.028988 -0.729423
vt -0.897781 2.646549
vn -0.654161 -0.667471 -0.355747
v -2.236418 1.034464 -0.728801
vt -0.902816 2.637173
vn -0.658487 -0.666001 -0.350482
v -2.245473 1.028996 -0.700898
vt -0.941418 2.647019
vn -0.666575 -0.665965 -0.334916
v -2.250366 1.034449 -0.702021
vt -0.942975 2.637084
vn -0.667390 -0.666169 -0.332881
v -2.262195 1.028762 -0.665887
vt -0.993692 2.646902
vn -0.670469 -0.667172 -0.324582
v -2.265927 1.034452 -0.669855
vt -0.990990 2.636620
vn -0.670469 -0.667172 -0.324582
v -2.235411 1.044974 -0.724161
vt -0.907587 2.620241
vn -0.878539 0.096290 -0.467866
v -2.233892 1.037842 -0.728286
vt -0.902240 2.629855
vn -0.869904 0.102472 -0.482459
v -2.230636 1.044571 -0.732811
vt -0.895400 2.621345
vn -0.854684 0.112695 -0.506769
v -2.228431 1.043498 -0.736291
vt -0.890827 2.622846
vn -0.854684 0.112695 -0.506769
v -2.227758 1.042035 -0.737495
vt -0.889448 2.624405
vn -0.854684 0.112695 -0.506769
v -2.227477 1.038169 -0.739065
vt -0.888069 2.628591
vn -0.854684 0.112695 -0.506769
v -2.227983 1.037816 -0.738838
vt -0.888328 2.629071
vn -0.854684 0.112695 -0.506769
v -2.262880 1.045658 -0.668681
vt -0.990432 2.618289
vn -0.898543 0.087788 -0.430015
v -2.263614 1.037781 -0.668430
vt -0.991310 2.628958
vn -0.898543 0.087788 -0.430015
v -2.247130 1.045034 -0.701395
vt -0.941572 2.619666
vn -0.892394 0.089857 -0.442220
v -2.247764 1.037824 -0.701869
vt -0.941546 2.629509
vn -0.892187 0.089962 -0.442615
v -2.230262 1.046526 -0.737997
vt -0.887360 2.617252
vn -0.807619 0.228785 -0.543516
v -2.232720 1.047821 -0.733412
vt -0.894317 2.614554
vn -0.831404 0.274581 -0.483086
v -2.231588 1.044277 -0.737041
vt -0.889525 2.619832
vn -0.808424 0.231881 -0.541000
v -2.233681 1.045407 -0.733142
vt -0.895737 2.617592
vn -0.833088 0.275660 -0.479558
v -2.229122 1.044074 -0.740468
vt -0.883858 2.621098
vn -0.799518 0.151254 -0.581287
v -2.230856 1.042497 -0.738429
vt -0.887112 2.622699
vn -0.799414 0.151661 -0.581322
v -2.228692 1.038864 -0.742268
vt -0.882176 2.628866
vn -0.796043 0.139178 -0.589020
v -2.230460 1.038265 -0.739978
vt -0.885661 2.629566
vn -0.796936 0.138798 -0.587902
v -2.228638 1.035942 -0.742860
vt -0.881748 2.632952
vn -0.804418 0.045783 -0.592297
v -2.230512 1.037761 -0.740219
vt -0.886024 2.630575
vn -0.798582 0.071487 -0.597626
v -2.229206 1.034510 -0.741987
vt -0.883088 2.634943
vn -0.858949 -0.113263 -0.499377
v -2.231050 1.037105 -0.739486
vt -0.887468 2.632105
vn -0.866357 -0.134782 -0.480895
v -2.236418 1.034464 -0.728801
vt -0.902816 2.637173
vn -0.874477 -0.142470 -0.463672
v -2.236986 1.037142 -0.728474
vt -0.903745 2.633668
vn -0.875412 -0.142094 -0.462021
v -2.250366 1.034449 -0.702021
vt -0.942975 2.637084
vn -0.885275 -0.138594 -0.443937
v -2.250818 1.037107 -0.702042
vt -0.943192 2.633433
vn -0.885893 -0.138389 -0.442767
v -2.265927 1.034452 -0.669855
vt -0.990990 2.636620
vn -0.892479 -0.135986 -0.430104
v -2.266033 1.036996 -0.670323
vt -0.990453 2.633160
vn -0.892479 -0.135986 -0.430104
v -2.237714 1.048356 -0.724086
vt -0.908468 2.612864
vn -0.850845 0.273167 -0.448823
v -2.238406 1.045817 -0.724353
vt -0.908870 2.616374
vn -0.850933 0.273101 -0.448697
v -2.249562 1.048424 -0.701192
vt -0.943046 2.612087
vn -0.866520 0.252583 -0.430517
v -2.250173 1.045854 -0.701530
vt -0.943107 2.615694
vn -0.866350 0.252867 -0.430692
v -2.264309 1.048440 -0.670717
vt -0.988611 2.611149
vn -0.874814 0.238990 -0.421407
v -2.264840 1.045926 -0.670894
vt -0.988790 2.614627
vn -0.874814 0.238990 -0.421407
v -2.266033 1.036996 -0.670323
vt -0.990453 2.633160
vn -0.226134 0.968370 -0.105470
v -2.250818 1.037107 -0.702042
vt -0.943192 2.633433
vn -0.223207 0.968792 -0.107796
v -2.263614 1.037781 -0.668430
vt -0.991310 2.628958
vn -0.226134 0.968370 -0.105470
v -2.247764 1.037824 -0.701869
vt -0.941546 2.629509
vn -0.220843 0.969122 -0.109688
v -2.236986 1.037142 -0.728474
vt -0.903745 2.633668
vn -0.214918 0.970024 -0.113422
v -2.233892 1.037842 -0.728286
vt -0.902240 2.629855
vn -0.212515 0.970453 -0.114274
v -2.231050 1.037105 -0.739486
vt -0.887468 2.632105
vn -0.211815 0.972845 -0.093310
v -2.227983 1.037816 -0.738838
vt -0.888328 2.629071
vn -0.221999 0.973960 -0.046033
v -2.227477 1.038169 -0.739065
vt -0.888069 2.628591
vn -0.320170 -0.282641 0.904216
v -2.230512 1.037761 -0.740219
vt -0.886024 2.630575
vn -0.339038 0.660677 0.669746
v -2.230460 1.038265 -0.739978
vt -0.885661 2.629566
vn -0.299859 -0.366238 0.880883
v -2.230856 1.042497 -0.738429
vt -0.887112 2.622699
vn -0.311235 -0.490211 0.814142
v -2.227758 1.042035 -0.737495
vt -0.889448 2.624405
vn -0.309228 -0.458431 0.833198
v -2.231588 1.044277 -0.737041
vt -0.889525 2.619832
vn -0.292321 -0.915595 0.276107
v -2.228431 1.043498 -0.736291
vt -0.890827 2.622846
vn -0.305034 -0.866624 0.394863
v -2.233681 1.045407 -0.733142
vt -0.895737 2.617592
vn -0.262307 -0.963739 -0.049010
v -2.230636 1.044571 -0.732811
vt -0.895400 2.621345
vn -0.265711 -0.964046 0.003746
v -2.238406 1.045817 -0.724353
vt -0.908870 2.616374
vn -0.257002 -0.958446 -0.123821
v -2.235411 1.044974 -0.724161
vt -0.907587 2.620241
vn -0.257494 -0.959214 -0.116641
v -2.250173 1.045854 -0.701530
vt -0.943107 2.615694
vn -0.202381 -0.974993 -0.091817
v -2.247130 1.045034 -0.701395
vt -0.941572 2.619666
vn -0.222179 -0.969244 -0.105844
v -2.264840 1.045926 -0.670894
vt -0.988790 2.614627
vn -0.178195 -0.981144 -0.074860
v -2.262880 1.045658 -0.668681
vt -0.990432 2.618289
vn -0.178195 -0.981144 -0.074860
v -2.259489 1.054404 -0.667684
vt -0.989212 2.600045
vn -0.860218 0.290460 -0.419115
v -2.244499 1.054138 -0.698791
vt -0.942571 2.601253
vn -0.860218 0.290460 -0.419115
v -2.257515 1.061224 -0.667164
vt -0.988497 2.590472
vn -0.860218 0.290460 -0.419115
v -2.242587 1.060650 -0.698047
vt -0.942080 2.592053
vn -0.860218 0.290460 -0.419115
v -2.244499 1.054138 -0.698791
vt -0.942571 2.601253
vn -0.848429 0.294499 -0.439816
v -2.232009 1.053883 -0.722987
vt -0.905231 2.602568
vn -0.848429 0.294499 -0.439816
v -2.242587 1.060650 -0.698047
vt -0.942080 2.592053
vn -0.848429 0.294499 -0.439816
v -2.229699 1.060104 -0.723346
vt -0.902714 2.593984
vn -0.848429 0.294499 -0.439816
v -2.232009 1.053883 -0.722987
vt -0.905231 2.602568
vn -0.833277 0.289237 -0.471159
v -2.226415 1.052931 -0.733557
vt -0.888443 2.605686
vn -0.833277 0.289237 -0.471159
v -2.229699 1.060104 -0.723346
vt -0.902714 2.593984
vn -0.833277 0.289237 -0.471159
v -2.223896 1.058852 -0.734283
vt -0.884944 2.597813
vn -0.833277 0.289237 -0.471159
v -2.226415 1.052931 -0.733557
vt -0.888443 2.605686
vn -0.800211 0.292766 -0.523403
v -2.222863 1.050209 -0.740696
vt -0.877680 2.611466
vn -0.800211 0.292766 -0.523403
v -2.223896 1.058852 -0.734283
vt -0.884944 2.597813
vn -0.800211 0.292766 -0.523403
v -2.219199 1.055048 -0.743405
vt -0.871235 2.605357
vn -0.800211 0.292766 -0.523403
v -2.222863 1.050209 -0.740696
vt -0.877680 2.611466
vn -0.744132 0.229170 -0.627494
v -2.221215 1.045170 -0.744624
vt -0.872440 2.619506
vn -0.744132 0.229170 -0.627494
v -2.219199 1.055048 -0.743405
vt -0.871235 2.605357
vn -0.744132 0.229170 -0.627494
v -2.216300 1.046334 -0.749896
vt -0.862735 2.618629
vn -0.744132 0.229170 -0.627494
v -2.221215 1.045170 -0.744624
vt -0.872440 2.619506
vn -0.729893 0.132793 -0.670539
v -2.220588 1.036775 -0.747120
vt -0.869856 2.631880
vn -0.729893 0.132793 -0.670539
v -2.216300 1.046334 -0.749896
vt -0.862735 2.618629
vn -0.729893 0.132793 -0.670539
v -2.214920 1.032375 -0.754010
vt -0.858051 2.638004
vn -0.729893 0.132793 -0.670539
v -2.220849 1.030736 -0.746946
vt -0.870591 2.640635
vn -0.785634 0.028586 -0.618030
v -2.221481 1.029559 -0.746086
vt -0.871999 2.642459
vn -0.825357 -0.050383 -0.562358
v -2.214913 1.023263 -0.755164
vt -0.856259 2.649962
vn -0.790653 0.019486 -0.611955
v -2.216851 1.021887 -0.752022
vt -0.861094 2.651987
vn -0.825357 -0.050383 -0.562358
v -2.221481 1.029559 -0.746086
vt -0.871999 2.642459
vn -0.864540 -0.134486 -0.484236
v -2.230612 1.028988 -0.729423
vt -0.897781 2.646549
vn -0.864540 -0.134486 -0.484236
v -2.216851 1.021887 -0.752022
vt -0.861094 2.651987
vn -0.864540 -0.134486 -0.484236
v -2.227796 1.021767 -0.732646
vt -0.891452 2.655861
vn -0.864540 -0.134486 -0.484236
v -2.230612 1.028988 -0.729423
vt -0.897781 2.646549
vn -0.878450 -0.134062 -0.458643
v -2.245473 1.028996 -0.700898
vt -0.941418 2.647019
vn -0.878450 -0.134062 -0.458643
v -2.227796 1.021767 -0.732646
vt -0.891452 2.655861
vn -0.878450 -0.134062 -0.458643
v -2.243738 1.021739 -0.702159
vt -0.938820 2.656915
vn -0.878450 -0.134062 -0.458643
v -2.245473 1.028996 -0.700898
vt -0.941418 2.647019
vn -0.893494 -0.132603 -0.429051
v -2.262195 1.028762 -0.665887
vt -0.993692 2.646902
vn -0.893494 -0.132603 -0.429051
v -2.243738 1.021739 -0.702159
vt -0.938820 2.656915
vn -0.893494 -0.132603 -0.429051
v -2.261919 1.021453 -0.664312
vt -0.995490 2.656825
vn -0.893494 -0.132603 -0.429051
v -2.220588 1.036775 -0.747120
vt -0.869856 2.631880
vn -0.770979 0.053985 -0.634569
v -2.214920 1.032375 -0.754010
vt -0.858051 2.638004
vn -0.770979 0.053985 -0.634569
v -2.244499 1.054137 0.698791
vt -0.942571 2.601253
vn -0.638920 0.698778 0.321701
v -2.249562 1.048424 0.701193
vt -0.943046 2.612087
vn -0.639053 0.698707 0.321590
v -2.259489 1.054404 0.667684
vt -0.989212 2.600045
vn -0.646860 0.694283 0.315505
v -2.264309 1.048440 0.670717
vt -0.988611 2.611149
vn -0.646860 0.694283 0.315505
v -2.232009 1.053882 0.722987
vt -0.905231 2.602568
vn -0.618401 0.706471 0.344207
v -2.237714 1.048355 0.724086
vt -0.908468 2.612864
vn -0.621294 0.705961 0.340019
v -2.226415 1.052931 0.733558
vt -0.888443 2.605686
vn -0.572528 0.695289 0.434494
v -2.232720 1.047821 0.733412
vt -0.894317 2.614554
vn -0.582012 0.700603 0.412818
v -2.222863 1.050209 0.740696
vt -0.877680 2.611466
vn -0.511769 0.563217 0.648752
v -2.230262 1.046525 0.737998
vt -0.887360 2.617252
vn -0.523922 0.608899 0.595607
v -2.221215 1.045170 0.744624
vt -0.872440 2.619506
vn -0.473135 0.308468 0.825222
v -2.229122 1.044074 0.740469
vt -0.883858 2.621098
vn -0.475827 0.347579 0.807947
v -2.220588 1.036775 0.747121
vt -0.869856 2.631880
vn -0.470486 0.144453 0.870503
v -2.228692 1.038864 0.742269
vt -0.882176 2.628866
vn -0.468968 0.182596 0.864134
v -2.229206 1.034510 0.741988
vt -0.883088 2.634943
vn -0.647668 -0.644973 0.405631
v -2.228638 1.035941 0.742861
vt -0.881748 2.632952
vn -0.500577 -0.018529 0.865494
v -2.221481 1.029559 0.746087
vt -0.871999 2.642459
vn -0.649209 -0.590608 0.479280
v -2.220849 1.030736 0.746946
vt -0.870591 2.640635
vn -0.514749 -0.055816 0.855522
v -2.236418 1.034464 0.728801
vt -0.902816 2.637173
vn -0.658481 -0.666097 0.350312
v -2.230612 1.028988 0.729423
vt -0.897781 2.646549
vn -0.654207 -0.667516 0.355577
v -2.250366 1.034449 0.702021
vt -0.942975 2.637084
vn -0.667432 -0.666211 0.332712
v -2.245473 1.028995 0.700899
vt -0.941418 2.647019
vn -0.666589 -0.665979 0.334860
v -2.265927 1.034451 0.669855
vt -0.990990 2.636620
vn -0.670510 -0.667213 0.324412
v -2.262195 1.028762 0.665888
vt -0.993692 2.646902
vn -0.670510 -0.667213 0.324412
v -2.227983 1.037815 0.738838
vt -0.888328 2.629071
vn -0.854693 0.112671 0.506760
v -2.233892 1.037842 0.728286
vt -0.902240 2.629855
vn -0.869882 0.102356 0.482523
v -2.227477 1.038169 0.739065
vt -0.888069 2.628591
vn -0.854693 0.112671 0.506760
v -2.227758 1.042035 0.737495
vt -0.889448 2.624405
vn -0.854693 0.112671 0.506760
v -2.228431 1.043498 0.736291
vt -0.890827 2.622846
vn -0.854693 0.112671 0.506760
v -2.230636 1.044571 0.732811
vt -0.895400 2.621345
vn -0.854693 0.112671 0.506760
v -2.235411 1.044974 0.724161
vt -0.907587 2.620241
vn -0.878546 0.096266 0.467857
v -2.247764 1.037824 0.701869
vt -0.941546 2.629509
vn -0.892207 0.089984 0.442571
v -2.263614 1.037781 0.668431
vt -0.991310 2.628958
vn -0.898574 0.087763 0.429956
v -2.247130 1.045034 0.701395
vt -0.941572 2.619666
vn -0.892414 0.089878 0.442175
v -2.262880 1.045658 0.668681
vt -0.990432 2.618289
vn -0.898574 0.087763 0.429956
v -2.233681 1.045407 0.733142
vt -0.895737 2.617592
vn -0.833067 0.275637 0.479608
v -2.232720 1.047821 0.733412
vt -0.894317 2.614554
vn -0.831417 0.274553 0.483080
v -2.231588 1.044276 0.737041
vt -0.889525 2.619832
vn -0.808437 0.231854 0.540993
v -2.230262 1.046525 0.737998
vt -0.887360 2.617252
vn -0.807632 0.228758 0.543508
v -2.230856 1.042497 0.738430
vt -0.887112 2.622699
vn -0.799448 0.151584 0.581296
v -2.229122 1.044074 0.740469
vt -0.883858 2.621098
vn -0.799506 0.151279 0.581295
v -2.230460 1.038265 0.739978
vt -0.885661 2.629566
vn -0.796947 0.138772 0.587893
v -2.228692 1.038864 0.742269
vt -0.882176 2.628866
vn -0.796071 0.139203 0.588977
v -2.230512 1.037761 0.740219
vt -0.886024 2.630575
vn -0.798591 0.071463 0.597616
v -2.228638 1.035941 0.742861
vt -0.881748 2.632952
vn -0.804427 0.045760 0.592287
v -2.231050 1.037105 0.739487
vt -0.887468 2.632105
vn -0.866349 -0.134807 0.480903
v -2.229206 1.034510 0.741988
vt -0.883088 2.634943
vn -0.859018 -0.113331 0.499243
v -2.236986 1.037142 0.728474
vt -0.903745 2.633668
vn -0.875458 -0.142211 0.461897
v -2.236418 1.034464 0.728801
vt -0.902816 2.637173
vn -0.874540 -0.142537 0.463534
v -2.250818 1.037106 0.702042
vt -0.943192 2.633433
vn -0.885994 -0.138402 0.442561
v -2.250366 1.034449 0.702021
vt -0.942975 2.637084
vn -0.885322 -0.138614 0.443837
v -2.266033 1.036995 0.670323
vt -0.990453 2.633160
vn -0.892472 -0.136011 0.430111
v -2.265927 1.034451 0.669855
vt -0.990990 2.636620
vn -0.892472 -0.136011 0.430111
v -2.238406 1.045817 0.724353
vt -0.908870 2.616374
vn -0.850945 0.273073 0.448691
v -2.237714 1.048355 0.724086
vt -0.908468 2.612864
vn -0.850882 0.273084 0.448804
v -2.250173 1.045854 0.701530
vt -0.943107 2.615694
vn -0.866361 0.252840 0.430686
v -2.249562 1.048424 0.701193
vt -0.943046 2.612087
vn -0.866531 0.252556 0.430511
v -2.264840 1.045926 0.670894
vt -0.988790 2.614627
vn -0.874824 0.238963 0.421401
v -2.264309 1.048440 0.670717
vt -0.988611 2.611149
vn -0.874824 0.238963 0.421401
v -2.247764 1.037824 0.701869
vt -0.941546 2.629509
vn -0.220827 0.969121 0.109729
v -2.250818 1.037106 0.702042
vt -0.943192 2.633433
vn -0.223115 0.968800 0.107918
v -2.263614 1.037781 0.668431
vt -0.991310 2.628958
vn -0.226119 0.968369 0.105511
v -2.266033 1.036995 0.670323
vt -0.990453 2.633160
vn -0.226119 0.968369 0.105511
v -2.233892 1.037842 0.728286
vt -0.902240 2.629855
vn -0.212500 0.970451 0.114316
v -2.236986 1.037142 0.728474
vt -0.903745 2.633668
vn -0.214817 0.970037 0.113501
v -2.227983 1.037815 0.738838
vt -0.888328 2.629071
vn -0.221998 0.973966 0.045916
v -2.231050 1.037105 0.739487
vt -0.887468 2.632105
vn -0.211793 0.972850 0.093309
v -2.230512 1.037761 0.740219
vt -0.886024 2.630575
vn -0.339010 0.660646 -0.669791
v -2.227477 1.038169 0.739065
vt -0.888069 2.628591
vn -0.320074 -0.282548 -0.904278
v -2.230460 1.038265 0.739978
vt -0.885661 2.629566
vn -0.299773 -0.366195 -0.880930
v -2.227758 1.042035 0.737495
vt -0.889448 2.624405
vn -0.309197 -0.458397 -0.833229
v -2.230856 1.042497 0.738430
vt -0.887112 2.622699
vn -0.311204 -0.490176 -0.814174
v -2.228431 1.043498 0.736291
vt -0.890827 2.622846
vn -0.304963 -0.866605 -0.394961
v -2.231588 1.044276 0.737041
vt -0.889525 2.619832
vn -0.292266 -0.915567 -0.276255
v -2.230636 1.044571 0.732811
vt -0.895400 2.621345
vn -0.265672 -0.964056 -0.003859
v -2.233681 1.045407 0.733142
vt -0.895737 2.617592
vn -0.262321 -0.963737 0.048970
v -2.235411 1.044974 0.724161
vt -0.907587 2.620241
vn -0.257500 -0.959223 0.116554
v -2.238406 1.045817 0.724353
vt -0.908870 2.616374
vn -0.257035 -0.958431 0.123868
v -2.247130 1.045034 0.701395
vt -0.941572 2.619666
vn -0.222233 -0.969240 0.105762
v -2.250173 1.045854 0.701530
vt -0.943107 2.615694
vn -0.202397 -0.974994 0.091777
v -2.262880 1.045658 0.668681
vt -0.990432 2.618289
vn -0.178241 -0.981144 0.074743
v -2.264840 1.045926 0.670894
vt -0.988790 2.614627
vn -0.178241 -0.981144 0.074743
v -2.242587 1.060650 0.698047
vt -0.942080 2.592053
vn -0.860236 0.290482 0.419063
v -2.244499 1.054137 0.698791
vt -0.942571 2.601253
vn -0.860236 0.290482 0.419063
v -2.257515 1.061224 0.667164
vt -0.988497 2.590472
vn -0.860236 0.290482 0.419063
v -2.259489 1.054404 0.667684
vt -0.989212 2.600045
vn -0.860236 0.290482 0.419063
v -2.229699 1.060104 0.723346
vt -0.902714 2.593984
vn -0.848442 0.294471 0.439810
v -2.232009 1.053882 0.722987
vt -0.905231 2.602568
vn -0.848442 0.294471 0.439810
v -2.242587 1.060650 0.698047
vt -0.942080 2.592053
vn -0.848442 0.294471 0.439810
v -2.244499 1.054137 0.698791
vt -0.942571 2.601253
vn -0.848442 0.294471 0.439810
v -2.223896 1.058852 0.734283
vt -0.884944 2.597813
vn -0.833264 0.289265 0.471166
v -2.226415 1.052931 0.733558
vt -0.888443 2.605686
vn -0.833264 0.289265 0.471166
v -2.229699 1.060104 0.723346
vt -0.902714 2.593984
vn -0.833264 0.289265 0.471166
v -2.232009 1.053882 0.722987
vt -0.905231 2.602568
vn -0.833264 0.289265 0.471166
v -2.219199 1.055048 0.743405
vt -0.871235 2.605357
vn -0.800235 0.292790 0.523353
v -2.222863 1.050209 0.740696
vt -0.877680 2.611466
vn -0.800235 0.292790 0.523353
v -2.223896 1.058852 0.734283
vt -0.884944 2.597813
vn -0.800235 0.292790 0.523353
v -2.226415 1.052931 0.733558
vt -0.888443 2.605686
vn -0.800235 0.292790 0.523353
v -2.216300 1.046334 0.749896
vt -0.862735 2.618629
vn -0.744116 0.229197 0.627502
v -2.221215 1.045170 0.744624
vt -0.872440 2.619506
vn -0.744116 0.229197 0.627502
v -2.219199 1.055048 0.743405
vt -0.871235 2.605357
vn -0.744116 0.229197 0.627502
v -2.222863 1.050209 0.740696
vt -0.877680 2.611466
vn -0.744116 0.229197 0.627502
v -2.214920 1.032374 0.754010
vt -0.858051 2.638004
vn -0.729906 0.132768 0.670529
v -2.220588 1.036775 0.747121
vt -0.869856 2.631880
vn -0.729906 0.132768 0.670529
v -2.216300 1.046334 0.749896
vt -0.862735 2.618629
vn -0.729906 0.132768 0.670529
v -2.221215 1.045170 0.744624
vt -0.872440 2.619506
vn -0.729906 0.132768 0.670529
v -2.216851 1.021887 0.752022
vt -0.861094 2.651987
vn -0.825418 -0.050405 0.562267
v -2.221481 1.029559 0.746087
vt -0.871999 2.642459
vn -0.825418 -0.050405 0.562267
v -2.214913 1.023263 0.755165
vt -0.856259 2.649962
vn -0.790695 0.019376 0.611904
v -2.220849 1.030736 0.746946
vt -0.870591 2.640635
vn -0.785643 0.028564 0.618020
v -2.227796 1.021767 0.732647
vt -0.891452 2.655861
vn -0.864592 -0.134506 0.484136
v -2.230612 1.028988 0.729423
vt -0.897781 2.646549
vn -0.864592 -0.134506 0.484136
v -2.216851 1.021887 0.752022
vt -0.861094 2.651987
vn -0.864592 -0.134506 0.484136
v -2.221481 1.029559 0.746087
vt -0.871999 2.642459
vn -0.864592 -0.134506 0.484136
v -2.243738 1.021739 0.702159
vt -0.938820 2.656915
vn -0.878512 -0.134128 0.458505
v -2.245473 1.028995 0.700899
vt -0.941418 2.647019
vn -0.878512 -0.134128 0.458505
v -2.227796 1.021767 0.732647
vt -0.891452 2.655861
vn -0.878512 -0.134128 0.458505
v -2.230612 1.028988 0.729423
vt -0.897781 2.646549
vn -0.878512 -0.134128 0.458505
v -2.261919 1.021452 0.664312
vt -0.995490 2.656825
vn -0.893539 -0.132622 0.428951
v -2.262195 1.028762 0.665888
vt -0.993692 2.646902
vn -0.893539 -0.132622 0.428951
v -2.243738 1.021739 0.702159
vt -0.938820 2.656915
vn -0.893539 -0.132622 0.428951
v -2.245473 1.028995 0.700899
vt -0.941418 2.647019
vn -0.893539 -0.132622 0.428951
v -2.214920 1.032374 0.754010
vt -0.858051 2.638004
vn -0.770989 0.053962 0.634558
v -2.220588 1.036775 0.747121
vt -0.869856 2.631880
vn -0.770989 0.053962 0.634558
usemtl Illumination.009
f 3/3/3 2/2/2 1/1/1
f 4/4/4 2/2/2 3/3/3
f 4/4/4 5/5/5 2/2/2
f 6/6/6 5/5/5 4/4/4
f 6/6/6 7/7/7 5/5/5
f 8/8/8 7/7/7 6/6/6
f 8/8/8 9/9/9 7/7/7
f 10/10/10 9/9/9 8/8/8
f 10/10/10 11/11/11 9/9/9
f 12/12/12 11/11/11 10/10/10
f 12/12/12 13/13/13 11/11/11
f 14/14/14 13/13/13 12/12/12
f 17/17/17 16/16/16 15/15/15
f 18/18/18 16/16/16 17/17/17
f 19/19/19 18/18/18 17/17/17
f 20/20/20 18/18/18 19/19/19
f 21/21/21 20/20/20 19/19/19
f 22/22/22 20/20/20 21/21/21
f 23/23/23 22/22/22 21/21/21
f 24/24/24 22/22/22 23/23/23
f 27/27/27 26/26/26 25/25/25
f 28/28/28 26/26/26 27/27/27
f 29/29/29 26/26/26 28/28/28
f 30/30/30 26/26/26 29/29/29
f 31/31/31 26/26/26 30/30/30
f 34/34/34 33/33/33 32/32/32
f 35/35/35 33/33/33 34/34/34
f 25/25/25 35/35/35 34/34/34
f 26/26/26 35/35/35 25/25/25
f 38/38/38 37/37/37 36/36/36
f 39/39/39 37/37/37 38/38/38
f 41/41/41 36/36/36 40/40/40
f 38/38/38 36/36/36 41/41/41
f 43/43/43 40/40/40 42/42/42
f 41/41/41 40/40/40 43/43/43
f 45/45/45 42/42/42 44/44/44
f 43/43/43 42/42/42 45/45/45
f 47/47/47 44/44/44 46/46/46
f 45/45/45 44/44/44 47/47/47
f 49/49/49 46/46/46 48/48/48
f 47/47/47 46/46/46 49/49/49
f 51/51/51 48/48/48 50/50/50
f 49/49/49 48/48/48 51/51/51
f 53/53/53 50/50/50 52/52/52
f 51/51/51 50/50/50 53/53/53
f 39/39/39 54/54/54 37/37/37
f 55/55/55 54/54/54 39/39/39
f 55/55/55 56/56/56 54/54/54
f 57/57/57 56/56/56 55/55/55
f 56/56/56 59/59/59 58/58/58
f 57/57/57 59/59/59 56/56/56
f 62/62/62 61/61/61 60/60/60
f 63/63/63 61/61/61 62/62/62
f 63/63/63 64/64/64 61/61/61
f 65/65/65 64/64/64 63/63/63
f 65/65/65 66/66/66 64/64/64
f 67/67/67 66/66/66 65/65/65
f 69/69/69 67/67/67 68/68/68
f 66/66/66 67/67/67 69/69/69
f 68/68/68 70/70/70 69/69/69
f 68/68/68 71/71/71 70/70/70
f 72/72/72 71/71/71 68/68/68
f 72/72/72 73/73/73 71/71/71
f 74/74/74 73/73/73 72/72/72
f 74/74/74 75/75/75 73/73/73
f 76/76/76 75/75/75 74/74/74
f 76/76/76 77/77/77 75/75/75
f 78/78/78 77/77/77 76/76/76
f 78/78/78 79/79/79 77/77/77
f 80/80/80 79/79/79 78/78/78
f 79/79/79 82/82/82 81/81/81
f 80/80/80 82/82/82 79/79/79
f 85/85/85 84/84/84 83/83/83
f 86/86/86 84/84/84 85/85/85
f 89/89/89 88/88/88 87/87/87
f 90/90/90 88/88/88 89/89/89
f 93/93/93 92/92/92 91/91/91
f 94/94/94 92/92/92 93/93/93
f 97/97/97 96/96/96 95/95/95
f 98/98/98 96/96/96 97/97/97
f 101/101/101 100/100/100 99/99/99
f 102/102/102 100/100/100 101/101/101
f 105/105/105 104/104/104 103/103/103
f 106/106/106 104/104/104 105/105/105
f 109/109/109 108/108/108 107/107/107
f 110/110/110 108/108/108 109/109/109
f 113/113/113 112/112/112 111/111/111
f 114/114/114 112/112/112 113/113/113
f 117/117/117 116/116/116 115/115/115
f 118/118/118 116/116/116 117/117/117
f 121/121/121 120/120/120 119/119/119
f 122/122/122 120/120/120 121/121/121
f 16/16/16 14/14/14 15/15/15
f 13/13/13 14/14/14 16/16/16
f 123/123/123 109/109/109 107/107/107
f 124/124/124 109/109/109 123/123/123
f 127/127/127 126/126/126 125/125/125
f 128/128/128 126/126/126 127/127/127
f 125/125/125 130/130/130 129/129/129
f 126/126/126 130/130/130 125/125/125
f 129/129/129 132/132/132 131/131/131
f 130/130/130 132/132/132 129/129/129
f 131/131/131 134/134/134 133/133/133
f 132/132/132 134/134/134 131/131/131
f 133/133/133 136/136/136 135/135/135
f 134/134/134 136/136/136 133/133/133
f 135/135/135 138/138/138 137/137/137
f 136/136/136 138/138/138 135/135/135
f 141/141/141 140/140/140 139/139/139
f 142/142/142 140/140/140 141/141/141
f 144/144/144 139/139/139 143/143/143
f 141/141/141 139/139/139 144/144/144
f 146/146/146 143/143/143 145/145/145
f 144/144/144 143/143/143 146/146/146
f 148/148/148 145/145/145 147/147/147
f 146/146/146 145/145/145 148/148/148
f 151/151/151 150/150/150 149/149/149
f 152/152/152 150/150/150 151/151/151
f 153/153/153 150/150/150 152/152/152
f 154/154/154 150/150/150 153/153/153
f 155/155/155 150/150/150 154/154/154
f 158/158/158 157/157/157 156/156/156
f 159/159/159 157/157/157 158/158/158
f 155/155/155 156/156/156 150/150/150
f 158/158/158 156/156/156 155/155/155
f 162/162/162 161/161/161 160/160/160
f 163/163/163 161/161/161 162/162/162
f 164/164/164 163/163/163 162/162/162
f 165/165/165 163/163/163 164/164/164
f 166/166/166 165/165/165 164/164/164
f 167/167/167 165/165/165 166/166/166
f 168/168/168 167/167/167 166/166/166
f 169/169/169 167/167/167 168/168/168
f 170/170/170 169/169/169 168/168/168
f 171/171/171 169/169/169 170/170/170
f 172/172/172 171/171/171 170/170/170
f 173/173/173 171/171/171 172/172/172
f 174/174/174 173/173/173 172/172/172
f 175/175/175 173/173/173 174/174/174
f 176/176/176 175/175/175 174/174/174
f 177/177/177 175/175/175 176/176/176
f 160/160/160 179/179/179 178/178/178
f 161/161/161 179/179/179 160/160/160
f 178/178/178 181/181/181 180/180/180
f 179/179/179 181/181/181 178/178/178
f 181/181/181 182/182/182 180/180/180
f 183/183/183 182/182/182 181/181/181
f 186/186/186 185/185/185 184/184/184
f 187/187/187 185/185/185 186/186/186
f 184/184/184 189/189/189 188/188/188
f 185/185/185 189/189/189 184/184/184
f 188/188/188 191/191/191 190/190/190
f 189/189/189 191/191/191 188/188/188
f 192/192/192 190/190/190 191/191/191
f 193/193/193 190/190/190 192/192/192
f 192/192/192 194/194/194 193/193/193
f 193/193/193 196/196/196 195/195/195
f 194/194/194 196/196/196 193/193/193
f 195/195/195 198/198/198 197/197/197
f 196/196/196 198/198/198 195/195/195
f 197/197/197 200/200/200 199/199/199
f 198/198/198 200/200/200 197/197/197
f 199/199/199 202/202/202 201/201/201
f 200/200/200 202/202/202 199/199/199
f 201/201/201 204/204/204 203/203/203
f 202/202/202 204/204/204 201/201/201
f 204/204/204 205/205/205 203/203/203
f 206/206/206 205/205/205 204/204/204
f 209/209/209 208/208/208 207/207/207
f 210/210/210 208/208/208 209/209/209
f 213/213/213 212/212/212 211/211/211
f 214/214/214 212/212/212 213/213/213
f 217/217/217 216/216/216 215/215/215
f 218/218/218 216/216/216 217/217/217
f 221/221/221 220/220/220 219/219/219
f 222/222/222 220/220/220 221/221/221
f 225/225/225 224/224/224 223/223/223
f 226/226/226 224/224/224 225/225/225
f 229/229/229 228/228/228 227/227/227
f 230/230/230 228/228/228 229/229/229
f 233/233/233 232/232/232 231/231/231
f 234/234/234 232/232/232 233/233/233
f 237/237/237 236/236/236 235/235/235
f 238/238/238 236/236/236 237/237/237
f 241/241/241 240/240/240 239/239/239
f 242/242/242 240/240/240 241/241/241
f 245/245/245 244/244/244 243/243/243
f 246/246/246 244/244/244 245/245/245
f 140/140/140 137/137/137 138/138/138
f 142/142/142 137/137/137 140/140/140
f 248/248/248 233/233/233 247/247/247
f 234/234/234 233/233/233 248/248/248
