# Exported from Godot Engine
mtllib Charge_Cap.mtl
o Charge_Cap
v -2.029451 0.920995 -0.876707
vt -0.093639 1.213409
vn -0.200305 0.092663 -0.975342
v -1.995349 0.922726 -0.883477
vt -0.188601 1.220292
vn -0.190500 0.103585 -0.976207
v -2.028936 0.940257 -0.875046
vt -0.092580 1.266424
vn -0.196707 0.102261 -0.975115
v -1.995240 0.940390 -0.881596
vt -0.186305 1.268602
vn -0.185820 0.109993 -0.976408
v -1.966349 0.926383 -0.888691
vt -0.268855 1.233748
vn -0.179324 0.116184 -0.976905
v -1.965762 0.940365 -0.887028
vt -0.267788 1.272231
vn -0.175200 0.118675 -0.977354
v -1.945160 0.931685 -0.891604
vt -0.326331 1.251083
vn -0.165399 0.123285 -0.978491
v -1.944919 0.940233 -0.890567
vt -0.324585 1.274461
vn -0.165399 0.123285 -0.978491
v -1.964948 0.958382 -0.884895
vt -0.267361 1.322048
vn -0.172396 0.123179 -0.977295
v -1.944450 0.953348 -0.888993
vt -0.323876 1.310289
vn -0.165399 0.123285 -0.978491
v -1.964099 0.974815 -0.882966
vt -0.267314 1.367666
vn -0.172097 0.128859 -0.976616
v -1.944039 0.961105 -0.888085
vt -0.324707 1.331607
vn -0.165399 0.123285 -0.978491
v -1.995018 0.967617 -0.878434
vt -0.183023 1.342699
vn -0.181223 0.123773 -0.975622
v -2.028115 0.966854 -0.872271
vt -0.091608 1.339433
vn -0.191638 0.120588 -0.974029
v -1.994687 0.994523 -0.874803
vt -0.180278 1.414805
vn -0.181039 0.133979 -0.974307
v -2.027140 0.994318 -0.868669
vt -0.090883 1.415698
vn -0.188816 0.137876 -0.972285
v -1.932932 0.953055 -0.890977
vt -0.354727 1.309747
vn -0.165410 0.123371 -0.978478
v -1.930212 0.949250 -0.891916
vt -0.361762 1.300056
vn -0.165410 0.123371 -0.978478
v -1.995349 0.922726 -0.883477
vt -0.188601 1.220292
vn -0.051870 -0.776221 -0.628324
v -2.029451 0.920995 -0.876707
vt -0.093639 1.213409
vn -0.100657 -0.788776 -0.606384
v -1.993182 0.917327 -0.877066
vt -0.192683 1.196927
vn -0.049483 -0.776365 -0.628339
v -2.028705 0.915502 -0.870055
vt -0.092127 1.189351
vn -0.102983 -0.790874 -0.603252
v -1.966349 0.926383 -0.888691
vt -0.268855 1.233748
vn 0.033367 -0.770120 -0.637026
v -1.964159 0.921267 -0.882179
vt -0.274678 1.211301
vn 0.034582 -0.769921 -0.637201
v -1.945160 0.931685 -0.891604
vt -0.326331 1.251083
vn 0.128251 -0.746804 -0.652561
v -1.943313 0.926376 -0.885304
vt -0.333512 1.229314
vn 0.124493 -0.748026 -0.651888
v -1.936574 0.934975 -0.892640
vt -0.348613 1.261970
vn 0.310633 -0.679796 -0.664368
v -1.934224 0.929727 -0.886211
vt -0.359953 1.241938
vn 0.292747 -0.687192 -0.664880
v -1.931409 0.938910 -0.893017
vt -0.360902 1.273475
vn 0.623776 -0.453018 -0.636929
v -1.928332 0.934415 -0.886587
vt -0.376862 1.258571
vn 0.582996 -0.494958 -0.644307
v -1.929528 0.944156 -0.892674
vt -0.364469 1.287139
vn 0.871626 0.017337 -0.489864
v -1.925643 0.940128 -0.886063
vt -0.384939 1.277839
vn 0.848187 -0.071505 -0.524849
v -1.930212 0.949250 -0.891916
vt -0.361762 1.300056
vn 0.845549 0.367415 -0.387366
v -1.926652 0.948743 -0.884402
vt -0.382177 1.306738
vn 0.848938 0.357729 -0.389017
v -1.932932 0.953055 -0.890977
vt -0.354727 1.309747
vn 0.584029 0.746198 -0.319529
v -1.929817 0.953815 -0.883347
vt -0.371579 1.323670
vn 0.584029 0.746198 -0.319529
v -1.944039 0.961105 -0.888085
vt -0.324707 1.331607
vn 0.491713 0.816902 -0.301480
v -1.940287 0.961875 -0.880266
vt -0.340616 1.349575
vn 0.493599 0.815602 -0.301917
v -1.964099 0.974815 -0.882966
vt -0.267314 1.367666
vn 0.476114 0.838395 -0.265346
v -1.961440 0.976042 -0.874936
vt -0.278838 1.387975
vn 0.475996 0.838620 -0.264846
v -1.994687 0.994523 -0.874803
vt -0.180278 1.414805
vn 0.468220 0.852829 -0.231197
v -1.989405 0.992857 -0.868690
vt -0.198946 1.432103
vn 0.467201 0.855576 -0.222963
v -1.931409 0.938910 -0.893017
vt -0.360902 1.273475
vn -0.165399 0.123285 -0.978491
v -1.929528 0.944156 -0.892674
vt -0.364469 1.287139
vn -0.165410 0.123371 -0.978478
v -1.936574 0.934975 -0.892640
vt -0.348613 1.261970
vn -0.165399 0.123285 -0.978491
v -1.996691 0.995526 -0.874078
vt -0.174698 1.417124
vn 0.042511 0.809600 -0.585440
v -2.052459 0.990384 -0.864277
vt -0.022443 1.402864
vn -0.194997 0.129959 -0.972156
v -2.048246 0.994049 -0.864537
vt -0.033364 1.412643
vn -0.194720 0.134497 -0.971594
v -2.051558 0.993270 -0.864004
vt -0.024737 1.410330
vn -0.207824 0.188987 -0.959736
v -2.053519 0.920432 -0.871586
vt -0.028440 1.213688
vn -0.207527 0.087302 -0.974326
v -2.053220 0.939786 -0.869959
vt -0.024523 1.264976
vn -0.205300 0.097895 -0.973791
v -2.052818 0.966463 -0.867204
vt -0.022594 1.337758
vn -0.199219 0.117776 -0.972852
v -2.053519 0.920432 -0.871586
vt -0.028440 1.213688
vn -0.125088 -0.809988 -0.572951
v -2.055289 0.915799 -0.863719
vt -0.011363 1.194233
vn -0.526543 -0.698962 -0.483947
v -2.054289 0.920414 -0.871422
vt -0.026650 1.213637
vn -0.735652 0.067201 -0.674017
v -2.053997 0.939771 -0.869796
vt -0.022302 1.264832
vn -0.733202 0.074670 -0.675898
v -2.053609 0.966450 -0.867042
vt -0.020368 1.337720
vn -0.727748 0.086385 -0.680383
v -2.053265 0.990374 -0.864117
vt -0.020291 1.403027
vn -0.729412 0.117369 -0.673930
v -2.052337 0.993945 -0.863660
vt -0.022655 1.412050
vn -0.561936 0.502569 -0.657002
v -2.054289 0.920414 -0.871422
vt -0.026650 1.213637
vn -0.364356 -0.777336 -0.512830
v -2.027155 0.995259 -0.868358
vt -0.090657 1.418486
vn -0.139709 0.712595 -0.687524
v -2.048955 0.994911 -0.864150
vt -0.031057 1.414867
vn -0.150718 0.762719 -0.628923
v -2.000188 0.997277 -0.870944
vt -0.164137 1.423785
vn 0.027925 0.992292 -0.120737
v -1.999104 0.995785 -0.867730
vt -0.171618 1.434299
vn 0.147894 0.957606 0.247219
v -2.055616 0.920383 -0.869266
vt -0.021041 1.212174
vn -0.848108 0.056392 -0.526813
v -2.055346 0.939745 -0.867649
vt -0.015225 1.264784
vn -0.845627 0.062594 -0.530092
v -2.054975 0.966429 -0.864891
vt -0.013360 1.338202
vn -0.840733 0.072380 -0.536591
v -2.054671 0.990356 -0.861976
vt -0.013633 1.404422
vn -0.833112 0.108895 -0.542279
v -2.053693 0.995126 -0.861188
vt -0.016810 1.417013
vn -0.601107 0.536382 -0.592423
v -2.055616 0.920383 -0.869266
vt -0.021041 1.212174
vn -0.999586 -0.028406 0.004490
v -2.027181 0.996902 -0.865946
vt -0.089314 1.426766
vn -0.118215 0.818173 -0.562688
v -2.050192 0.996416 -0.861600
vt -0.025374 1.421476
vn -0.168233 0.811382 -0.559783
v -2.055346 0.939745 -0.867649
vt -0.015225 1.264784
vn -0.999866 0.008283 0.014085
v -2.054975 0.966429 -0.864891
vt -0.013360 1.338202
vn -0.999907 0.013492 0.001781
v -2.055346 0.939745 -0.861480
vt 0.002110 1.265166
vn -0.999883 0.008898 0.012482
v -2.054975 0.966429 -0.859394
vt 0.001632 1.339848
vn -0.999907 0.013497 0.002092
v -2.054671 0.990356 -0.861976
vt -0.013633 1.404422
vn -0.998147 0.055390 0.025201
v -2.053693 0.995126 -0.861188
vt -0.016810 1.417013
vn -0.763524 0.603367 0.230171
v -2.054629 0.990335 -0.856686
vt -0.000499 1.408430
vn -0.997377 0.065689 0.030383
v -2.052348 0.994093 -0.856676
vt -0.007959 1.425136
vn -0.742776 0.626845 0.235266
v -2.027181 0.996902 -0.865946
vt -0.089314 1.426766
vn 0.042194 0.957794 0.284342
v -2.027203 0.995718 -0.860986
vt -0.086423 1.441146
vn 0.037673 0.959685 0.278543
v -2.050192 0.996416 -0.861600
vt -0.025374 1.421476
vn -0.008122 0.965108 0.261728
v -2.050285 0.994948 -0.856637
vt -0.019289 1.433679
vn -0.024517 0.964371 0.263417
v -1.928332 0.934415 -0.886587
vt -0.012544 1.127783
vn 0.188896 -0.169717 0.967220
v -1.934224 0.929727 -0.886211
vt -0.015599 1.125314
vn 0.141178 -0.143802 0.979485
v -1.925643 0.940128 -0.886063
vt -0.011217 1.130805
vn 0.188896 -0.169717 0.967220
v -1.926652 0.948743 -0.884402
vt -0.011890 1.135356
vn 0.140966 -0.143822 0.979512
v -1.943313 0.926376 -0.885304
vt -0.020341 1.123527
vn 0.174690 -0.152122 0.972801
v -1.929817 0.953815 -0.883347
vt -0.013619 1.138005
vn 0.172800 -0.151613 0.973218
v -1.964159 0.921267 -0.882179
vt -0.031315 1.120836
vn 0.175293 -0.139601 0.974569
v -1.940287 0.961875 -0.880266
vt -0.019276 1.142241
vn 0.175659 -0.141722 0.974196
v -1.993182 0.917327 -0.877066
vt -0.046667 1.118776
vn 0.169359 -0.114595 0.978869
v -1.961440 0.976042 -0.874936
vt -0.030625 1.149645
vn 0.163085 -0.127800 0.978300
v -1.999104 0.995785 -0.867730
vt -0.049854 1.159423
vn 0.190601 -0.107008 0.975818
v -2.028705 0.915502 -0.870055
vt -0.065530 1.117843
vn 0.196699 -0.106314 0.974683
v -2.027203 0.995718 -0.860986
vt -0.065653 1.160525
vn 0.218143 -0.109497 0.969755
v -2.055289 0.915799 -0.863719
vt -0.079766 1.118065
vn 0.209662 -0.107023 0.971899
v -2.050285 0.994948 -0.856637
vt -0.077852 1.160270
vn 0.203783 -0.106523 0.973204
v -1.989405 0.992857 -0.868690
vt -0.044787 1.159070
vn 0.164702 -0.107107 0.980511
v -2.055346 0.939745 -0.861480
vt -0.080160 1.130548
vn 0.040094 -0.091135 0.995031
v -2.052348 0.994093 -0.856676
vt -0.079690 1.159603
vn 0.031969 -0.091299 0.995310
v -2.054975 0.966429 -0.859394
vt -0.080221 1.144524
vn -0.043005 -0.093727 0.994669
v -2.054629 0.990335 -0.856686
vt -0.080187 1.157082
vn -0.043005 -0.093727 0.994669
v -2.050029 0.915872 -0.859351
vt -0.012190 1.156561
vn -0.287660 -0.105340 0.951922
v -2.054810 0.916490 -0.864390
vt -0.015256 1.154746
vn -0.727972 -0.070410 0.681981
v -2.049881 0.931214 -0.857610
vt -0.012026 1.164557
vn -0.287660 -0.105340 0.951922
v -2.054663 0.931832 -0.862649
vt -0.015687 1.166223
vn -0.727972 -0.070410 0.681981
v -2.043242 0.915988 -0.860951
vt -0.008314 1.156858
vn 0.685580 -0.088641 0.722580
v -2.043095 0.931330 -0.859209
vt -0.008052 1.164509
vn 0.685580 -0.088641 0.722580
v -2.041236 0.916723 -0.867589
vt -0.004558 1.154969
vn 0.957681 -0.041517 0.284822
v -2.041089 0.932064 -0.865848
vt -0.004991 1.166534
vn 0.957681 -0.041517 0.284822
v -2.050029 0.915872 -0.859351
vt -0.012190 1.156561
vn -0.009570 -0.993566 -0.112850
v -2.043242 0.915988 -0.860951
vt -0.008314 1.156858
vn -0.009570 -0.993566 -0.112850
v -2.054810 0.916490 -0.864390
vt -0.015256 1.154746
vn -0.009570 -0.993566 -0.112850
v -2.041236 0.916723 -0.867589
vt -0.004558 1.154969
vn -0.009570 -0.993566 -0.112850
v -2.054275 0.990228 -0.856749
vt -0.019473 1.156246
vn 0.009587 0.993570 0.112815
v -2.040701 0.990461 -0.859948
vt -0.030157 1.155660
vn 0.009587 0.993570 0.112815
v -2.049493 0.989610 -0.851710
vt -0.023291 1.158006
vn 0.009587 0.993570 0.112815
v -2.042706 0.989727 -0.853309
vt -0.027155 1.157578
vn 0.009587 0.993570 0.112815
v -2.049641 0.974269 -0.853451
vt -0.023288 1.165660
vn -0.287611 -0.105338 0.951937
v -2.054422 0.974887 -0.858490
vt -0.020296 1.167788
vn -0.727885 -0.070410 0.682075
v -2.049493 0.989610 -0.851710
vt -0.023291 1.158006
vn -0.287611 -0.105338 0.951937
v -2.054275 0.990228 -0.856749
vt -0.019473 1.156246
vn -0.727885 -0.070410 0.682075
v -2.040849 0.975119 -0.861689
vt -0.030975 1.167117
vn 0.957709 -0.041515 0.284729
v -2.042854 0.974385 -0.855051
vt -0.027261 1.165575
vn 0.685627 -0.088641 0.722536
v -2.040701 0.990461 -0.859948
vt -0.030157 1.155660
vn 0.957709 -0.041515 0.284729
v -2.042706 0.989727 -0.853309
vt -0.027155 1.157578
vn 0.685580 -0.088641 0.722580
v -2.049881 0.931214 -0.857610
vt -0.012026 1.164557
vn 0.009587 0.993570 0.112815
v -2.054663 0.931832 -0.862649
vt -0.015687 1.166223
vn 0.009587 0.993570 0.112815
v -2.043095 0.931330 -0.859209
vt -0.008052 1.164509
vn 0.009587 0.993570 0.112815
v -2.041089 0.932064 -0.865848
vt -0.004991 1.166534
vn 0.009587 0.993570 0.112815
v -2.054422 0.974887 -0.858490
vt -0.020296 1.167788
vn -0.009570 -0.993566 -0.112850
v -2.049641 0.974269 -0.853451
vt -0.023288 1.165660
vn -0.009570 -0.993566 -0.112850
v -2.040849 0.975119 -0.861689
vt -0.030975 1.167117
vn -0.009570 -0.993566 -0.112850
v -2.042854 0.974385 -0.855051
vt -0.027261 1.165575
vn -0.009570 -0.993566 -0.112850
v -2.012830 0.922552 -0.864864
vt 0.321408 0.815892
vn -0.203944 -0.966337 0.156841
v -2.011570 0.924684 -0.862460
vt 0.321513 0.816513
vn 0.201088 -0.275850 0.939931
v -1.998269 0.922552 -0.868671
vt 0.324169 0.816128
vn 0.254594 -0.966337 0.037067
v -1.998191 0.924684 -0.865958
vt 0.323974 0.816713
vn 0.284658 -0.275814 0.918094
v -1.976410 0.950183 -0.871319
vt 0.327891 0.821506
vn 0.991179 -0.126414 -0.039789
v -1.978096 0.950183 -0.868381
vt 0.327263 0.821530
vn 0.421194 -0.123238 0.898559
v -1.977144 0.967261 -0.869231
vt 0.327310 0.824682
vn 0.965776 0.259075 0.012556
v -1.978747 0.965650 -0.866494
vt 0.326797 0.824314
vn 0.438474 -0.048743 0.897421
v -1.982796 0.973964 -0.867009
vt 0.326148 0.825829
vn 0.621572 0.763078 0.177085
v -1.983832 0.971680 -0.864495
vt 0.325776 0.825329
vn 0.356272 0.051791 0.932946
v -1.991194 0.977551 -0.864415
vt 0.324524 0.826484
vn 0.181868 0.936563 0.299623
v -1.991386 0.974906 -0.862162
vt 0.324366 0.825855
vn 0.271894 0.127779 0.953806
v -2.016917 0.977551 -0.857690
vt 0.319489 0.826085
vn -0.012030 0.936607 0.350175
v -2.015645 0.974906 -0.855819
vt 0.319742 0.825496
vn 0.229769 0.127788 0.964819
v -2.025510 0.973964 -0.855841
vt 0.317983 0.825203
vn -0.455451 0.763008 0.458675
v -2.023376 0.971680 -0.854156
vt 0.318426 0.824765
vn 0.145992 0.051800 0.987929
v -2.031526 0.967261 -0.855012
vt 0.317009 0.823894
vn -0.836022 0.259096 0.483670
v -2.028787 0.965650 -0.853410
vt 0.317572 0.823607
vn 0.056894 -0.048716 0.997191
v -2.033188 0.950183 -0.856473
vt 0.316918 0.820668
vn -0.883839 -0.126441 0.450378
v -2.030280 0.950183 -0.854737
vt 0.317535 0.820785
vn 0.072482 -0.123239 0.989727
v -2.000339 0.923431 -0.876588
vt 0.324596 0.814726
vn 0.204381 -0.965623 -0.160626
v -2.014899 0.923431 -0.872781
vt 0.321200 0.814508
vn -0.256883 -0.965612 -0.040052
v -1.978836 0.967979 -0.875704
vt 0.328385 0.825172
vn 0.936935 0.281729 -0.206837
v -1.978121 0.950964 -0.878383
vt 0.329217 0.821454
vn 0.960888 -0.110117 -0.254103
v -1.984488 0.974683 -0.873481
vt 0.326863 0.826867
vn 0.576302 0.815018 -0.060177
v -2.018609 0.978269 -0.864162
vt 0.319175 0.827257
vn -0.071313 0.989152 0.128422
v -1.992887 0.978269 -0.870887
vt 0.324657 0.827653
vn 0.124969 0.989158 0.077127
v -2.027202 0.974683 -0.862313
vt 0.317120 0.826126
vn -0.532036 0.815003 0.229583
v -2.035154 0.950964 -0.863470
vt 0.315616 0.820421
vn -0.962286 -0.110133 0.248751
v -2.033218 0.967979 -0.861485
vt 0.315873 0.824217
vn -0.918296 0.281649 0.278220
v -2.029180 0.934407 -0.859273
vt 0.318072 0.817792
vn -0.824411 -0.406317 0.394021
v -2.025371 0.929663 -0.860795
vt 0.318887 0.817037
vn -0.508598 -0.820891 0.259743
v -2.031107 0.935226 -0.866644
vt 0.317006 0.817033
vn -0.899000 -0.390604 0.198060
v -2.027299 0.930481 -0.868167
vt 0.318079 0.815862
vn -0.569113 -0.820226 0.057788
v -2.022826 0.931066 -0.858808
vt 0.319318 0.817490
vn 0.149971 -0.247016 0.957336
v -2.026637 0.935812 -0.857285
vt 0.318521 0.818255
vn 0.071973 -0.177012 0.981574
v -2.004086 0.953921 -0.861171
vt 0.322343 0.821886
vn 0.251482 -0.106834 0.961948
v -1.985341 0.929663 -0.871262
vt 0.326508 0.817606
vn 0.570588 -0.820933 -0.022329
v -1.981275 0.934407 -0.871798
vt 0.327173 0.818503
vn 0.911770 -0.406329 -0.059774
v -1.987268 0.930481 -0.878633
vt 0.327440 0.816594
vn 0.524592 -0.820203 -0.228189
v -1.983202 0.935226 -0.879170
vt 0.328376 0.817874
vn 0.880976 -0.390622 -0.267012
v -1.982519 0.935812 -0.868820
vt 0.326663 0.818883
vn 0.417682 -0.176908 0.891204
v -1.986588 0.931066 -0.868283
vt 0.326006 0.817997
vn 0.337796 -0.247030 0.908224
v -1.964277 0.935862 -0.875394
vt 0.310169 0.828607
vn 0.145397 -0.233548 0.961413
v -1.964968 0.935440 -0.875994
vt 0.310035 0.828484
vn -0.689581 -0.708660 0.149260
v -1.967926 0.945705 -0.873022
vt 0.309516 0.830409
vn 0.110780 -0.140213 0.983904
v -1.968809 0.945802 -0.873498
vt 0.309334 0.830417
vn -0.948238 -0.010810 0.317378
v -1.954969 0.931148 -0.879149
vt 0.311898 0.827614
vn -0.015975 -0.997871 -0.063226
v -1.954777 0.931784 -0.878391
vt 0.311906 0.827796
vn 0.235249 -0.272131 0.933061
v -1.944669 0.935440 -0.881114
vt 0.313830 0.828315
vn 0.677804 -0.708754 -0.195573
v -1.944993 0.935862 -0.880258
vt 0.313707 0.828449
vn 0.327993 -0.233437 0.915384
v -1.940103 0.945802 -0.880738
vt 0.314701 0.830178
vn 0.985329 -0.010822 -0.170321
v -1.940655 0.945705 -0.879901
vt 0.314519 0.830186
vn 0.369070 -0.140223 0.918763
v -1.943945 0.956164 -0.878242
vt 0.313999 0.832110
vn 0.726574 0.687085 -0.002052
v -1.944305 0.955549 -0.877529
vt 0.313865 0.831987
vn 0.334503 -0.047008 0.941222
v -1.953944 0.960455 -0.875087
vt 0.312137 0.832981
vn 0.052980 0.976173 0.210427
v -1.953804 0.959626 -0.874532
vt 0.312129 0.832799
vn 0.244506 -0.008413 0.969611
v -1.964243 0.956164 -0.873122
vt 0.310204 0.832279
vn -0.640726 0.687066 0.342653
v -1.963588 0.955549 -0.872665
vt 0.310327 0.832145
vn 0.151874 -0.047005 0.987282
v -1.956697 0.932158 -0.886001
vt 0.311773 0.826391
vn -0.034568 -0.989931 -0.137263
v -1.966696 0.936450 -0.882846
vt 0.309082 0.827708
vn -0.710086 -0.700018 0.075845
v -1.946398 0.936450 -0.887966
vt 0.314606 0.827362
vn 0.661160 -0.699987 -0.269974
v -1.941831 0.946812 -0.887590
vt 0.315924 0.830053
vn 0.969628 0.000000 -0.244584
v -1.945673 0.957174 -0.885093
vt 0.314953 0.832886
vn 0.710108 0.699996 -0.075845
v -1.955672 0.961466 -0.881938
vt 0.312262 0.834203
vn 0.034586 0.989936 0.137226
v -1.965971 0.957174 -0.879973
vt 0.309428 0.833232
vn -0.661185 0.699963 0.269975
v -1.970537 0.946812 -0.880349
vt 0.308111 0.830542
vn -0.969638 -0.000019 0.244545
v -1.954291 0.945705 -0.876462
vt 0.312017 0.830297
vn 0.242086 -0.141513 0.959879
usemtl Light.007
f 3/3/3 2/2/2 1/1/1
f 4/4/4 2/2/2 3/3/3
f 4/4/4 5/5/5 2/2/2
f 6/6/6 5/5/5 4/4/4
f 6/6/6 7/7/7 5/5/5
f 8/8/8 7/7/7 6/6/6
f 11/11/11 10/10/10 9/9/9
f 12/12/12 10/10/10 11/11/11
f 3/3/3 13/13/13 4/4/4
f 14/14/14 13/13/13 3/3/3
f 15/15/15 9/9/9 13/13/13
f 11/11/11 9/9/9 15/15/15
f 14/14/14 15/15/15 13/13/13
f 16/16/16 15/15/15 14/14/14
f 17/17/17 10/10/10 12/12/12
f 18/18/18 10/10/10 17/17/17
f 8/8/8 9/9/9 10/10/10
f 6/6/6 9/9/9 8/8/8
f 6/6/6 13/13/13 9/9/9
f 4/4/4 13/13/13 6/6/6
f 21/21/21 20/20/20 19/19/19
f 22/22/22 20/20/20 21/21/21
f 24/24/24 19/19/19 23/23/23
f 21/21/21 19/19/19 24/24/24
f 26/26/26 23/23/23 25/25/25
f 24/24/24 23/23/23 26/26/26
f 28/28/28 25/25/25 27/27/27
f 26/26/26 25/25/25 28/28/28
f 30/30/30 27/27/27 29/29/29
f 28/28/28 27/27/27 30/30/30
f 32/32/32 29/29/29 31/31/31
f 30/30/30 29/29/29 32/32/32
f 34/34/34 31/31/31 33/33/33
f 32/32/32 31/31/31 34/34/34
f 36/36/36 33/33/33 35/35/35
f 34/34/34 33/33/33 36/36/36
f 38/38/38 35/35/35 37/37/37
f 36/36/36 35/35/35 38/38/38
f 40/40/40 37/37/37 39/39/39
f 38/38/38 37/37/37 40/40/40
f 42/42/42 39/39/39 41/41/41
f 40/40/40 39/39/39 42/42/42
f 8/8/8 44/44/44 43/43/43
f 10/10/10 44/44/44 8/8/8
f 18/18/18 44/44/44 10/10/10
f 7/7/7 43/43/43 45/45/45
f 8/8/8 43/43/43 7/7/7
f 42/42/42 41/41/41 46/46/46
f 49/49/49 48/48/48 47/47/47
f 50/50/50 3/3/3 1/1/1
f 51/51/51 3/3/3 50/50/50
f 51/51/51 14/14/14 3/3/3
f 52/52/52 14/14/14 51/51/51
f 16/16/16 47/47/47 48/48/48
f 14/14/14 47/47/47 16/16/16
f 52/52/52 47/47/47 14/14/14
f 22/22/22 53/53/53 20/20/20
f 54/54/54 53/53/53 22/22/22
f 55/55/55 51/51/51 50/50/50
f 56/56/56 51/51/51 55/55/55
f 56/56/56 52/52/52 51/51/51
f 57/57/57 52/52/52 56/56/56
f 58/58/58 49/49/49 47/47/47
f 59/59/59 49/49/49 58/58/58
f 57/57/57 47/47/47 52/52/52
f 58/58/58 47/47/47 57/57/57
f 54/54/54 60/60/60 53/53/53
f 16/16/16 46/46/46 15/15/15
f 61/61/61 46/46/46 16/16/16
f 62/62/62 49/49/49 59/59/59
f 48/48/48 49/49/49 62/62/62
f 61/61/61 48/48/48 62/62/62
f 16/16/16 48/48/48 61/61/61
f 63/63/63 42/42/42 46/46/46
f 64/64/64 42/42/42 63/63/63
f 65/65/65 56/56/56 55/55/55
f 66/66/66 56/56/56 65/65/65
f 66/66/66 57/57/57 56/56/56
f 67/67/67 57/57/57 66/66/66
f 68/68/68 59/59/59 58/58/58
f 69/69/69 59/59/59 68/68/68
f 67/67/67 58/58/58 57/57/57
f 68/68/68 58/58/58 67/67/67
f 54/54/54 70/70/70 60/60/60
f 46/46/46 71/71/71 63/63/63
f 61/61/61 71/71/71 46/46/46
f 72/72/72 59/59/59 69/69/69
f 62/62/62 59/59/59 72/72/72
f 71/71/71 62/62/62 72/72/72
f 61/61/61 62/62/62 71/71/71
f 75/75/75 74/74/74 73/73/73
f 76/76/76 74/74/74 75/75/75
f 79/79/79 78/78/78 77/77/77
f 80/80/80 78/78/78 79/79/79
f 76/76/76 77/77/77 74/74/74
f 79/79/79 77/77/77 76/76/76
f 54/54/54 73/73/73 70/70/70
f 75/75/75 73/73/73 54/54/54
f 82/82/82 63/63/63 81/81/81
f 64/64/64 63/63/63 82/82/82
f 80/80/80 83/83/83 78/78/78
f 84/84/84 83/83/83 80/80/80
f 84/84/84 81/81/81 83/83/83
f 82/82/82 81/81/81 84/84/84
f 87/87/87 86/86/86 85/85/85
f 88/88/88 86/86/86 87/87/87
f 88/88/88 89/89/89 86/86/86
f 90/90/90 89/89/89 88/88/88
f 90/90/90 91/91/91 89/89/89
f 92/92/92 91/91/91 90/90/90
f 92/92/92 93/93/93 91/91/91
f 94/94/94 93/93/93 92/92/92
f 97/97/97 96/96/96 95/95/95
f 97/97/97 98/98/98 96/96/96
f 99/99/99 98/98/98 97/97/97
f 93/93/93 94/94/94 100/100/100
f 99/99/99 101/101/101 98/98/98
f 102/102/102 101/101/101 99/99/99
f 102/102/102 103/103/103 101/101/101
f 104/104/104 103/103/103 102/102/102
f 100/100/100 96/96/96 93/93/93
f 95/95/95 96/96/96 100/100/100
f 107/107/107 106/106/106 105/105/105
f 108/108/108 106/106/106 107/107/107
f 110/110/110 105/105/105 109/109/109
f 107/107/107 105/105/105 110/110/110
f 112/112/112 109/109/109 111/111/111
f 110/110/110 109/109/109 112/112/112
f 115/115/115 114/114/114 113/113/113
f 116/116/116 114/114/114 115/115/115
f 119/119/119 118/118/118 117/117/117
f 120/120/120 118/118/118 119/119/119
f 123/123/123 122/122/122 121/121/121
f 124/124/124 122/122/122 123/123/123
f 127/127/127 126/126/126 125/125/125
f 128/128/128 126/126/126 127/127/127
f 128/128/128 121/121/121 126/126/126
f 123/123/123 121/121/121 128/128/128
f 131/131/131 130/130/130 129/129/129
f 132/132/132 130/130/130 131/131/131
f 135/135/135 134/134/134 133/133/133
f 136/136/136 134/134/134 135/135/135
usemtl Exterior.006
f 139/139/139 138/138/138 137/137/137
f 140/140/140 138/138/138 139/139/139
f 143/143/143 142/142/142 141/141/141
f 144/144/144 142/142/142 143/143/143
f 145/145/145 144/144/144 143/143/143
f 146/146/146 144/144/144 145/145/145
f 149/149/149 148/148/148 147/147/147
f 150/150/150 148/148/148 149/149/149
f 151/151/151 150/150/150 149/149/149
f 152/152/152 150/150/150 151/151/151
f 155/155/155 154/154/154 153/153/153
f 156/156/156 154/154/154 155/155/155
f 139/139/139 158/158/158 157/157/157
f 137/137/137 158/158/158 139/139/139
f 143/143/143 160/160/160 159/159/159
f 141/141/141 160/160/160 143/143/143
f 145/145/145 159/159/159 161/161/161
f 143/143/143 159/159/159 145/145/145
f 149/149/149 163/163/163 162/162/162
f 147/147/147 163/163/163 149/149/149
f 151/151/151 162/162/162 164/164/164
f 149/149/149 162/162/162 151/151/151
f 155/155/155 166/166/166 165/165/165
f 153/153/153 166/166/166 155/155/155
f 163/163/163 145/145/145 161/161/161
f 147/147/147 145/145/145 163/163/163
f 147/147/147 146/146/146 145/145/145
f 148/148/148 146/146/146 147/147/147
f 166/166/166 151/151/151 164/164/164
f 153/153/153 151/151/151 166/166/166
f 153/153/153 152/152/152 151/151/151
f 154/154/154 152/152/152 153/153/153
f 169/169/169 168/168/168 167/167/167
f 170/170/170 168/168/168 169/169/169
f 171/171/171 167/167/167 168/168/168
f 172/172/172 167/167/167 171/171/171
f 173/173/173 172/172/172 171/171/171
f 176/176/176 175/175/175 174/174/174
f 177/177/177 175/175/175 176/176/176
f 178/178/178 174/174/174 175/175/175
f 179/179/179 174/174/174 178/178/178
f 173/173/173 179/179/179 178/178/178
f 156/156/156 167/167/167 172/172/172
f 155/155/155 167/167/167 156/156/156
f 137/137/137 171/171/171 168/168/168
f 138/138/138 171/171/171 137/137/137
f 174/174/174 140/140/140 139/139/139
f 179/179/179 140/140/140 174/174/174
f 141/141/141 178/178/178 175/175/175
f 142/142/142 178/178/178 141/141/141
f 158/158/158 168/168/168 170/170/170
f 137/137/137 168/168/168 158/158/158
f 174/174/174 157/157/157 176/176/176
f 139/139/139 157/157/157 174/174/174
f 160/160/160 175/175/175 177/177/177
f 141/141/141 175/175/175 160/160/160
f 167/167/167 165/165/165 169/169/169
f 155/155/155 165/165/165 167/167/167
f 173/173/173 171/171/171 138/138/138
f 173/173/173 138/138/138 140/140/140
f 173/173/173 140/140/140 179/179/179
f 173/173/173 178/178/178 142/142/142
f 173/173/173 142/142/142 144/144/144
f 173/173/173 144/144/144 146/146/146
f 173/173/173 148/148/148 150/150/150
f 154/154/154 173/173/173 152/152/152
f 173/173/173 154/154/154 156/156/156
f 173/173/173 156/156/156 172/172/172
f 148/148/148 173/173/173 146/146/146
f 173/173/173 150/150/150 152/152/152
f 182/182/182 181/181/181 180/180/180
f 183/183/183 181/181/181 182/182/182
f 184/184/184 180/180/180 181/181/181
f 185/185/185 180/180/180 184/184/184
f 186/186/186 185/185/185 184/184/184
f 187/187/187 185/185/185 186/186/186
f 188/188/188 187/187/187 186/186/186
f 189/189/189 187/187/187 188/188/188
f 190/190/190 189/189/189 188/188/188
f 191/191/191 189/189/189 190/190/190
f 192/192/192 191/191/191 190/190/190
f 193/193/193 191/191/191 192/192/192
f 194/194/194 193/193/193 192/192/192
f 195/195/195 193/193/193 194/194/194
f 183/183/183 195/195/195 194/194/194
f 182/182/182 195/195/195 183/183/183
f 184/184/184 197/197/197 196/196/196
f 181/181/181 197/197/197 184/184/184
f 186/186/186 196/196/196 198/198/198
f 184/184/184 196/196/196 186/186/186
f 188/188/188 198/198/198 199/199/199
f 186/186/186 198/198/198 188/188/188
f 190/190/190 199/199/199 200/200/200
f 188/188/188 199/199/199 190/190/190
f 192/192/192 200/200/200 201/201/201
f 190/190/190 200/200/200 192/192/192
f 194/194/194 201/201/201 202/202/202
f 192/192/192 201/201/201 194/194/194
f 183/183/183 202/202/202 203/203/203
f 194/194/194 202/202/202 183/183/183
f 181/181/181 203/203/203 197/197/197
f 183/183/183 203/203/203 181/181/181
f 204/204/204 180/180/180 185/185/185
f 204/204/204 185/185/185 187/187/187
f 204/204/204 187/187/187 189/189/189
f 204/204/204 189/189/189 191/191/191
f 204/204/204 191/191/191 193/193/193
f 204/204/204 193/193/193 195/195/195
f 204/204/204 195/195/195 182/182/182
f 204/204/204 182/182/182 180/180/180
