# Exported from Godot Engine
mtllib Defrost_Front.mtl
o Defrost_Front
v 0.455119 1.504694 0.591314
vt 0.348633 0.103516
vn 0.912078 0.346139 -0.219776
v 0.468648 1.512050 0.465154
vt 0.355713 0.188477
vn 0.912493 0.352051 -0.208367
v 0.605245 1.451096 0.606303
vt 0.456055 0.093262
vn 0.910839 0.394143 -0.122573
v 0.623006 1.457193 0.477185
vt 0.465820 0.180176
vn 0.910839 0.394143 -0.122573
v 0.650421 1.469084 0.155125
vt 0.480225 0.396484
vn 0.910839 0.394143 -0.122573
v 0.490429 1.527101 0.151121
vt 0.366455 0.399414
vn 0.911500 0.340053 -0.231371
v 0.655150 1.470502 -0.000003
vt 0.482910 0.500488
vn 0.910839 0.394143 -0.122573
v 0.494005 1.528733 -0.000003
vt 0.368164 0.500488
vn 0.911500 0.340053 -0.231371
v 0.325981 1.568915 0.147392
vt 0.252930 0.401855
vn 0.898767 0.281218 -0.336355
v 0.320051 1.564132 0.308682
vt 0.250244 0.293457
vn 0.901076 0.288751 -0.323551
v 0.158825 1.602115 0.144286
vt 0.139038 0.403809
vn 0.877909 0.228566 -0.420754
v 0.155645 1.597733 0.302217
vt 0.137817 0.297852
vn 0.877909 0.228566 -0.420754
v 0.151036 1.590182 0.445013
vt 0.136230 0.201660
vn 0.877909 0.228566 -0.420754
v 0.311705 1.556480 0.454441
vt 0.246338 0.195801
vn 0.901076 0.288751 -0.323551
v 0.145709 1.581398 0.566119
vt 0.134155 0.120117
vn 0.877909 0.228566 -0.420754
v 0.302267 1.548191 0.577949
vt 0.241699 0.112305
vn 0.901076 0.288751 -0.323551
v 0.328412 1.570703 -0.000003
vt 0.254150 0.500488
vn 0.898767 0.281218 -0.336355
v 0.160273 1.603930 -0.000003
vt 0.139648 0.500488
vn 0.873643 0.219751 -0.434118
v 1.113322 1.258039 -0.000003
vt 0.821289 0.500488
vn 0.894317 0.447148 0.016012
v 1.105752 1.258044 0.167678
vt 0.816406 0.387695
vn 0.894317 0.447148 0.016012
v 0.968362 1.333203 -0.000003
vt 0.711914 0.500488
vn 0.895215 0.445617 -0.003961
v 0.961096 1.331192 0.163541
vt 0.708008 0.390625
vn 0.895215 0.445617 -0.003961
v 1.061298 1.252814 0.503447
vt 0.790527 0.162109
vn 0.894317 0.447148 0.016012
v 0.922307 1.324399 0.495497
vt 0.685547 0.167969
vn 0.897497 0.440731 -0.016015
v 1.087266 1.255712 0.342833
vt 0.805664 0.270020
vn 0.894317 0.447148 0.016012
v 0.944955 1.328416 0.337179
vt 0.698242 0.274414
vn 0.897497 0.440731 -0.016015
v 0.996316 1.255098 0.718033
vt 0.750000 0.017090
vn 0.894317 0.447148 0.016012
v 0.896749 1.307716 0.708643
vt 0.674316 0.023926
vn 0.895215 0.445617 -0.003961
v 1.031539 1.250474 0.637570
vt 0.772461 0.071777
vn 0.894317 0.447148 0.016012
v 0.896472 1.320969 0.628113
vt 0.670410 0.078613
vn 0.897497 0.440731 -0.016015
v 1.235332 1.127473 0.679849
vt 0.932129 0.041504
vn 0.893385 0.442606 0.077222
v 1.176022 1.154130 0.721417
vt 0.888184 0.013672
vn 0.893910 0.442889 0.069099
v 1.154986 1.166359 0.721755
vt 0.872070 0.013672
vn 0.894164 0.443071 0.064488
v 1.095512 1.200358 0.722150
vt 0.825684 0.013672
vn 0.895163 0.443562 0.043991
v 1.122908 1.199524 0.643747
vt 0.842773 0.066895
vn 0.894614 0.443254 0.056489
v 1.203578 1.204647 0.170498
vt 0.891113 0.385742
vn 0.892984 0.446481 0.056867
v 1.211815 1.204253 -0.000003
vt 0.896484 0.500488
vn 0.892984 0.446481 0.056867
v 1.340299 1.126905 -0.000003
vt 0.996582 0.500488
vn 0.891714 0.445868 0.077770
v 1.333283 1.127885 0.178509
vt 0.992188 0.379883
vn 0.891714 0.445868 0.077770
v 1.155393 1.201195 0.508655
vt 0.862305 0.158203
vn 0.894164 0.443071 0.064488
v 1.183651 1.203252 0.346588
vt 0.878906 0.267578
vn 0.892984 0.446481 0.056867
v 1.277184 1.125166 0.531069
vt 0.958496 0.142090
vn 0.893385 0.442606 0.077222
v 1.311781 1.125706 0.355867
vt 0.979492 0.260254
vn 0.893385 0.442606 0.077222
v 0.579751 1.452288 0.661631
vt 0.439453 0.056152
vn 0.912150 0.382669 -0.146790
v 0.686933 1.408164 0.678752
vt 0.517578 0.044434
vn 0.908966 0.404938 -0.099025
v 0.752499 1.389331 0.617610
vt 0.562988 0.085938
vn 0.905424 0.419182 -0.067039
v 0.792494 1.359769 0.695169
vt 0.595703 0.033203
vn 0.901039 0.432188 -0.036643
v 0.808202 1.405411 0.159410
vt 0.593750 0.393555
vn 0.902382 0.428554 -0.045253
v 0.813353 1.404908 -0.000003
vt 0.597168 0.500488
vn 0.902382 0.428554 -0.045253
v 0.638513 1.463109 0.324376
vt 0.474121 0.283203
vn 0.910839 0.394143 -0.122573
v 0.774289 1.394069 0.486664
vt 0.575684 0.173828
vn 0.905424 0.419182 -0.067039
v 0.793384 1.399075 0.330974
vt 0.586426 0.278809
vn 0.904236 0.423073 -0.058026
v -0.040628 1.621372 0.292090
vt 0.005413 0.303711
vn 0.764245 0.066964 -0.641440
v 0.006773 1.619089 0.298293
vt 0.037170 0.299805
vn 0.840472 0.161631 -0.517187
v -0.038967 1.613354 0.437067
vt 0.007866 0.206055
vn 0.764245 0.066964 -0.641440
v 0.005354 1.611449 0.438600
vt 0.037567 0.205566
vn 0.840472 0.161631 -0.517187
v -0.042088 1.629296 -0.000003
vt 0.003239 0.500488
vn 0.796039 0.099528 -0.597006
v 0.007598 1.624172 -0.000003
vt 0.036682 0.500488
vn 0.840472 0.161631 -0.517187
v -0.041836 1.625304 0.147012
vt 0.003822 0.401367
vn 0.778544 0.077868 -0.622741
v 0.007513 1.623192 0.142964
vt 0.036835 0.404297
vn 0.840472 0.161631 -0.517187
v 0.003713 1.602502 0.557823
vt 0.037811 0.125488
vn 0.847461 0.172763 -0.501959
v -0.026165 1.602553 0.558747
vt 0.017914 0.124512
vn 0.728805 0.033679 -0.683892
v -0.035270 1.604893 0.544139
vt 0.011581 0.134277
vn 0.764245 0.066964 -0.641440
v 0.480636 1.519228 0.316071
vt 0.361816 0.288574
vn 0.912078 0.346139 -0.219776
v 0.469916 1.492325 0.643973
vt 0.360840 0.067871
vn 0.912806 0.359610 -0.193562
v 0.355058 1.528059 0.625560
vt 0.279541 0.080566
vn 0.908351 0.318919 -0.270535
v 0.120002 1.580880 0.591593
vt 0.117188 0.103027
vn 0.864137 0.201474 -0.461167
v 0.240662 1.556651 0.608716
vt 0.200073 0.091797
vn 0.886281 0.247345 -0.391568
v 0.024780 1.594806 0.578965
vt 0.052521 0.111328
vn 0.847461 0.172763 -0.501959
v -0.014905 1.600446 0.567534
vt 0.025558 0.118652
vn 0.734203 0.033670 -0.678094
v -0.002118 1.598450 0.572481
vt 0.034241 0.115234
vn 0.778544 0.077868 -0.622741
v -0.037842 1.606853 0.523456
vt 0.009583 0.147949
vn 0.768635 0.077994 -0.634915
v 1.215026 1.133515 0.709563
vt 0.917969 0.021484
vn 0.893385 0.442606 0.077222
v 1.199596 1.141169 0.716971
vt 0.906250 0.016602
vn 0.893385 0.442606 0.077222
v 0.623006 1.457193 -0.477190
vt 0.465820 0.820435
vn 0.910839 0.394143 -0.122573
v 0.468648 1.512050 -0.465160
vt 0.355713 0.812378
vn 0.912493 0.352051 -0.208367
v 0.605245 1.451096 -0.606309
vt 0.456055 0.907288
vn 0.911471 0.389368 -0.132713
v 0.455119 1.504694 -0.591319
vt 0.348633 0.897156
vn 0.912078 0.346139 -0.219776
v 0.490429 1.527101 -0.151126
vt 0.366455 0.601562
vn 0.911500 0.340053 -0.231371
v 0.650421 1.469084 -0.155130
vt 0.480225 0.604248
vn 0.910839 0.394143 -0.122573
v 0.155645 1.597733 -0.302222
vt 0.137817 0.703125
vn 0.877909 0.228566 -0.420754
v 0.320051 1.564132 -0.308688
vt 0.250244 0.707275
vn 0.901076 0.288751 -0.323551
v 0.158825 1.602115 -0.144291
vt 0.139038 0.597168
vn 0.877909 0.228566 -0.420754
v 0.325981 1.568915 -0.147397
vt 0.252930 0.599121
vn 0.898767 0.281218 -0.336355
v 0.302267 1.548191 -0.577955
vt 0.241821 0.888245
vn 0.901076 0.288751 -0.323551
v 0.311705 1.556480 -0.454446
vt 0.246338 0.805298
vn 0.901076 0.288751 -0.323551
v 0.145709 1.581398 -0.566125
vt 0.134155 0.880554
vn 0.877909 0.228566 -0.420754
v 0.151036 1.590182 -0.445018
vt 0.136230 0.799194
vn 0.877909 0.228566 -0.420754
v 0.961096 1.331192 -0.163547
vt 0.708008 0.610107
vn 0.895215 0.445617 -0.003961
v 1.105752 1.258044 -0.167684
vt 0.816406 0.613037
vn 0.894317 0.447148 0.016012
v 0.944955 1.328416 -0.337184
vt 0.698242 0.726562
vn 0.897497 0.440731 -0.016015
v 0.922307 1.324399 -0.495502
vt 0.685547 0.833008
vn 0.897497 0.440731 -0.016015
v 1.087266 1.255712 -0.342838
vt 0.805664 0.730713
vn 0.894317 0.447148 0.016012
v 1.061298 1.252814 -0.503453
vt 0.790527 0.838745
vn 0.894317 0.447148 0.016012
v 0.896472 1.320969 -0.628119
vt 0.670410 0.922363
vn 0.897497 0.440731 -0.016015
v 0.896749 1.307717 -0.708648
vt 0.674316 0.976883
vn 0.895215 0.445617 -0.003961
v 1.031539 1.250474 -0.637575
vt 0.772461 0.929138
vn 0.894317 0.447148 0.016012
v 0.996316 1.255099 -0.718038
vt 0.750000 0.983582
vn 0.894317 0.447148 0.016012
v 1.154986 1.166359 -0.721760
vt 0.872070 0.987122
vn 0.890677 0.449391 0.068861
v 1.176022 1.154130 -0.721422
vt 0.888184 0.987083
vn 0.890370 0.449250 0.073599
v 1.235332 1.127473 -0.679855
vt 0.932129 0.959381
vn 0.889801 0.448986 0.081648
v 1.122908 1.199524 -0.643753
vt 0.842773 0.933838
vn 0.891154 0.449608 0.060802
v 1.095512 1.200358 -0.722156
vt 0.825684 0.986908
vn 0.891772 0.449905 0.048250
v 1.203578 1.204647 -0.170503
vt 0.891113 0.614990
vn 0.892984 0.446481 0.056867
v 1.333283 1.127885 -0.178514
vt 0.992188 0.620850
vn 0.891714 0.445868 0.077770
v 1.183651 1.203252 -0.346593
vt 0.878906 0.733398
vn 0.892984 0.446481 0.056867
v 1.155393 1.201195 -0.508661
vt 0.862305 0.842651
vn 0.890677 0.449391 0.068861
v 1.311781 1.125706 -0.355873
vt 0.979492 0.740723
vn 0.889801 0.448986 0.081648
v 1.277184 1.125166 -0.531075
vt 0.958496 0.858887
vn 0.889801 0.448986 0.081648
v 0.752499 1.389331 -0.617615
vt 0.562988 0.915039
vn 0.905424 0.419182 -0.067039
v 0.686933 1.408164 -0.678758
vt 0.517578 0.956329
vn 0.908966 0.404938 -0.099025
v 0.579751 1.452288 -0.661636
vt 0.439453 0.944733
vn 0.912150 0.382669 -0.146790
v 0.792494 1.359769 -0.695174
vt 0.595703 0.967529
vn 0.901039 0.432188 -0.036643
v 0.808202 1.405411 -0.159415
vt 0.593750 0.607178
vn 0.902382 0.428554 -0.045253
v 0.793384 1.399075 -0.330979
vt 0.586426 0.722412
vn 0.904236 0.423073 -0.058026
v 0.638513 1.463109 -0.324381
vt 0.474121 0.717773
vn 0.910839 0.394143 -0.122573
v 0.774289 1.394070 -0.486669
vt 0.575684 0.826904
vn 0.905424 0.419182 -0.067039
v 0.005354 1.611449 -0.438605
vt 0.037567 0.795288
vn 0.840472 0.161631 -0.517187
v 0.006773 1.619089 -0.298299
vt 0.037170 0.700928
vn 0.840472 0.161631 -0.517187
v -0.038967 1.613354 -0.437072
vt 0.007874 0.794556
vn 0.764349 0.055422 -0.642416
v -0.040628 1.621372 -0.292095
vt 0.005417 0.697021
vn 0.764349 0.055422 -0.642416
v 0.007513 1.623192 -0.142969
vt 0.036835 0.596436
vn 0.840472 0.161631 -0.517187
v -0.041836 1.625304 -0.147017
vt 0.003824 0.599365
vn 0.778544 0.077868 -0.622741
v -0.035270 1.604893 -0.544145
vt 0.011589 0.866577
vn 0.764349 0.055422 -0.642416
v -0.026165 1.602553 -0.558752
vt 0.017914 0.876221
vn 0.728834 0.011086 -0.684600
v 0.003713 1.602502 -0.557829
vt 0.037842 0.875244
vn 0.847461 0.172763 -0.501959
v 0.480636 1.519228 -0.316076
vt 0.361816 0.712158
vn 0.912078 0.346139 -0.219776
v 0.469916 1.492325 -0.643978
vt 0.360840 0.932800
vn 0.912806 0.359610 -0.193562
v 0.355058 1.528059 -0.625565
vt 0.279541 0.920410
vn 0.908351 0.318919 -0.270535
v 0.240662 1.556652 -0.608721
vt 0.200073 0.909180
vn 0.886281 0.247345 -0.391568
v 0.120002 1.580881 -0.591599
vt 0.117188 0.897888
vn 0.864137 0.201474 -0.461167
v 0.024780 1.594806 -0.578970
vt 0.052551 0.889648
vn 0.847461 0.172763 -0.501959
v -0.014905 1.600446 -0.567539
vt 0.025574 0.882019
vn 0.734225 0.022292 -0.678540
v -0.002118 1.598450 -0.572486
vt 0.034241 0.885315
vn 0.778544 0.077868 -0.622741
v -0.037842 1.606853 -0.523461
vt 0.009583 0.852661
vn 0.768900 0.054925 -0.637005
v 1.199596 1.141169 -0.716977
vt 0.906250 0.984299
vn 0.889801 0.448986 0.081648
v 1.215026 1.133515 -0.709568
vt 0.917969 0.979416
vn 0.889801 0.448986 0.081648
usemtl Defrost_F.003
f 3/3/3 2/2/2 1/1/1
f 4/4/4 2/2/2 3/3/3
f 7/7/7 6/6/6 5/5/5
f 8/8/8 6/6/6 7/7/7
f 11/11/11 10/10/10 9/9/9
f 12/12/12 10/10/10 11/11/11
f 15/15/15 14/14/14 13/13/13
f 16/16/16 14/14/14 15/15/15
f 18/18/18 9/9/9 17/17/17
f 11/11/11 9/9/9 18/18/18
f 12/12/12 14/14/14 10/10/10
f 13/13/13 14/14/14 12/12/12
f 21/21/21 20/20/20 19/19/19
f 22/22/22 20/20/20 21/21/21
f 25/25/25 24/24/24 23/23/23
f 26/26/26 24/24/24 25/25/25
f 29/29/29 28/28/28 27/27/27
f 30/30/30 28/28/28 29/29/29
f 33/33/33 32/32/32 31/31/31
f 34/34/34 29/29/29 27/27/27
f 35/35/35 29/29/29 34/34/34
f 31/31/31 34/34/34 33/33/33
f 35/35/35 34/34/34 31/31/31
f 37/37/37 20/20/20 36/36/36
f 19/19/19 20/20/20 37/37/37
f 37/37/37 39/39/39 38/38/38
f 36/36/36 39/39/39 37/37/37
f 40/40/40 25/25/25 23/23/23
f 41/41/41 25/25/25 40/40/40
f 43/43/43 40/40/40 42/42/42
f 41/41/41 40/40/40 43/43/43
f 45/45/45 3/3/3 44/44/44
f 46/46/46 3/3/3 45/45/45
f 47/47/47 46/46/46 45/45/45
f 49/49/49 5/5/5 48/48/48
f 7/7/7 5/5/5 49/49/49
f 21/21/21 48/48/48 22/22/22
f 49/49/49 48/48/48 21/21/21
f 51/51/51 50/50/50 4/4/4
f 52/52/52 50/50/50 51/51/51
f 24/24/24 52/52/52 51/51/51
f 26/26/26 52/52/52 24/24/24
f 8/8/8 9/9/9 6/6/6
f 17/17/17 9/9/9 8/8/8
f 1/1/1 14/14/14 16/16/16
f 2/2/2 14/14/14 1/1/1
f 55/55/55 54/54/54 53/53/53
f 56/56/56 54/54/54 55/55/55
f 54/54/54 13/13/13 12/12/12
f 56/56/56 13/13/13 54/54/54
f 59/59/59 58/58/58 57/57/57
f 60/60/60 58/58/58 59/59/59
f 11/11/11 58/58/58 60/60/60
f 18/18/18 58/58/58 11/11/11
f 63/63/63 62/62/62 61/61/61
f 61/61/61 13/13/13 56/56/56
f 15/15/15 13/13/13 61/61/61
f 54/54/54 59/59/59 53/53/53
f 60/60/60 59/59/59 54/54/54
f 12/12/12 60/60/60 54/54/54
f 11/11/11 60/60/60 12/12/12
f 5/5/5 64/64/64 50/50/50
f 6/6/6 64/64/64 5/5/5
f 6/6/6 10/10/10 64/64/64
f 9/9/9 10/10/10 6/6/6
f 50/50/50 2/2/2 4/4/4
f 64/64/64 2/2/2 50/50/50
f 64/64/64 14/14/14 2/2/2
f 10/10/10 14/14/14 64/64/64
f 44/44/44 1/1/1 65/65/65
f 3/3/3 1/1/1 44/44/44
f 65/65/65 16/16/16 66/66/66
f 1/1/1 16/16/16 65/65/65
f 68/68/68 15/15/15 67/67/67
f 16/16/16 15/15/15 68/68/68
f 67/67/67 61/61/61 69/69/69
f 15/15/15 61/61/61 67/67/67
f 70/70/70 61/61/61 62/62/62
f 52/52/52 5/5/5 50/50/50
f 48/48/48 5/5/5 52/52/52
f 26/26/26 48/48/48 52/52/52
f 22/22/22 48/48/48 26/26/26
f 26/26/26 20/20/20 22/22/22
f 25/25/25 20/20/20 26/26/26
f 41/41/41 20/20/20 25/25/25
f 36/36/36 20/20/20 41/41/41
f 39/39/39 41/41/41 43/43/43
f 36/36/36 41/41/41 39/39/39
f 3/3/3 51/51/51 4/4/4
f 46/46/46 51/51/51 3/3/3
f 51/51/51 30/30/30 24/24/24
f 46/46/46 30/30/30 51/51/51
f 30/30/30 23/23/23 24/24/24
f 29/29/29 23/23/23 30/30/30
f 29/29/29 40/40/40 23/23/23
f 35/35/35 40/40/40 29/29/29
f 42/42/42 35/35/35 31/31/31
f 40/40/40 35/35/35 42/42/42
f 69/69/69 61/61/61 71/71/71
f 70/70/70 71/71/71 61/61/61
f 61/61/61 72/72/72 63/63/63
f 56/56/56 72/72/72 61/61/61
f 72/72/72 56/56/56 55/55/55
f 16/16/16 68/68/68 66/66/66
f 28/28/28 46/46/46 47/47/47
f 30/30/30 46/46/46 28/28/28
f 31/31/31 74/74/74 73/73/73
f 32/32/32 74/74/74 31/31/31
f 77/77/77 76/76/76 75/75/75
f 78/78/78 76/76/76 77/77/77
f 7/7/7 79/79/79 8/8/8
f 80/80/80 79/79/79 7/7/7
f 83/83/83 82/82/82 81/81/81
f 84/84/84 82/82/82 83/83/83
f 87/87/87 86/86/86 85/85/85
f 88/88/88 86/86/86 87/87/87
f 18/18/18 84/84/84 83/83/83
f 17/17/17 84/84/84 18/18/18
f 81/81/81 86/86/86 88/88/88
f 82/82/82 86/86/86 81/81/81
f 21/21/21 90/90/90 89/89/89
f 19/19/19 90/90/90 21/21/21
f 93/93/93 92/92/92 91/91/91
f 94/94/94 92/92/92 93/93/93
f 97/97/97 96/96/96 95/95/95
f 98/98/98 96/96/96 97/97/97
f 101/101/101 100/100/100 99/99/99
f 103/103/103 97/97/97 102/102/102
f 98/98/98 97/97/97 103/103/103
f 101/101/101 103/103/103 102/102/102
f 99/99/99 103/103/103 101/101/101
f 37/37/37 90/90/90 19/19/19
f 104/104/104 90/90/90 37/37/37
f 37/37/37 105/105/105 104/104/104
f 38/38/38 105/105/105 37/37/37
f 107/107/107 93/93/93 106/106/106
f 94/94/94 93/93/93 107/107/107
f 108/108/108 107/107/107 106/106/106
f 109/109/109 107/107/107 108/108/108
f 111/111/111 77/77/77 110/110/110
f 112/112/112 77/77/77 111/111/111
f 111/111/111 110/110/110 113/113/113
f 49/49/49 80/80/80 7/7/7
f 114/114/114 80/80/80 49/49/49
f 21/21/21 114/114/114 49/49/49
f 89/89/89 114/114/114 21/21/21
f 117/117/117 116/116/116 115/115/115
f 75/75/75 116/116/116 117/117/117
f 92/92/92 115/115/115 91/91/91
f 117/117/117 115/115/115 92/92/92
f 8/8/8 84/84/84 17/17/17
f 79/79/79 84/84/84 8/8/8
f 78/78/78 86/86/86 76/76/76
f 85/85/85 86/86/86 78/78/78
f 120/120/120 119/119/119 118/118/118
f 121/121/121 119/119/119 120/120/120
f 119/119/119 88/88/88 118/118/118
f 81/81/81 88/88/88 119/119/119
f 123/123/123 58/58/58 122/122/122
f 57/57/57 58/58/58 123/123/123
f 83/83/83 58/58/58 18/18/18
f 122/122/122 58/58/58 83/83/83
f 126/126/126 125/125/125 124/124/124
f 126/126/126 88/88/88 87/87/87
f 118/118/118 88/88/88 126/126/126
f 119/119/119 123/123/123 122/122/122
f 121/121/121 123/123/123 119/119/119
f 81/81/81 122/122/122 83/83/83
f 119/119/119 122/122/122 81/81/81
f 80/80/80 127/127/127 79/79/79
f 116/116/116 127/127/127 80/80/80
f 79/79/79 82/82/82 84/84/84
f 127/127/127 82/82/82 79/79/79
f 116/116/116 76/76/76 127/127/127
f 75/75/75 76/76/76 116/116/116
f 127/127/127 86/86/86 82/82/82
f 76/76/76 86/86/86 127/127/127
f 112/112/112 78/78/78 77/77/77
f 128/128/128 78/78/78 112/112/112
f 128/128/128 85/85/85 78/78/78
f 129/129/129 85/85/85 128/128/128
f 130/130/130 87/87/87 85/85/85
f 131/131/131 87/87/87 130/130/130
f 131/131/131 126/126/126 87/87/87
f 132/132/132 126/126/126 131/131/131
f 125/125/125 126/126/126 133/133/133
f 115/115/115 80/80/80 114/114/114
f 116/116/116 80/80/80 115/115/115
f 91/91/91 114/114/114 89/89/89
f 115/115/115 114/114/114 91/91/91
f 91/91/91 90/90/90 93/93/93
f 89/89/89 90/90/90 91/91/91
f 106/106/106 90/90/90 104/104/104
f 93/93/93 90/90/90 106/106/106
f 105/105/105 106/106/106 104/104/104
f 108/108/108 106/106/106 105/105/105
f 77/77/77 117/117/117 110/110/110
f 75/75/75 117/117/117 77/77/77
f 117/117/117 95/95/95 110/110/110
f 92/92/92 95/95/95 117/117/117
f 95/95/95 94/94/94 97/97/97
f 92/92/92 94/94/94 95/95/95
f 97/97/97 107/107/107 102/102/102
f 94/94/94 107/107/107 97/97/97
f 109/109/109 102/102/102 107/107/107
f 101/101/101 102/102/102 109/109/109
f 134/134/134 126/126/126 132/132/132
f 126/126/126 134/134/134 133/133/133
f 126/126/126 135/135/135 118/118/118
f 124/124/124 135/135/135 126/126/126
f 120/120/120 118/118/118 135/135/135
f 129/129/129 130/130/130 85/85/85
f 96/96/96 110/110/110 95/95/95
f 113/113/113 110/110/110 96/96/96
f 101/101/101 136/136/136 100/100/100
f 137/137/137 136/136/136 101/101/101
