# Exported from Godot Engine
mtllib Door_LF_Mirror.mtl
o Door_LF_Mirror
v 0.805583 1.071763 -1.118457
vt 0.682617 0.968323
vn -0.191107 0.360889 -0.912818
v 0.825214 1.070682 -1.109926
vt 0.679199 0.971680
vn -0.182890 0.302433 -0.935460
v 0.809146 1.082589 -1.128840
vt 0.685547 0.970642
vn -0.239081 0.573735 -0.783370
v 0.830865 1.081113 -1.119710
vt 0.681641 0.974380
vn -0.233834 0.467572 -0.852466
v 0.844877 1.068803 -1.095508
vt 0.674316 0.974609
vn -0.168756 0.239023 -0.956237
v 0.852149 1.079305 -1.103825
vt 0.676270 0.977615
vn -0.222162 0.359673 -0.906245
v 0.817761 1.057737 -1.075104
vt 0.671875 0.966797
vn -0.165451 0.147837 -0.975074
v 0.802949 1.059375 -1.085464
vt 0.675293 0.964539
vn -0.168502 0.182477 -0.968664
v 0.788465 1.060116 -1.090871
vt 0.678223 0.961945
vn -0.172025 0.196530 -0.965289
v 0.775216 1.059962 -1.091162
vt 0.679199 0.959137
vn -0.174808 0.195757 -0.964946
v 0.782676 1.072211 -1.123156
vt 0.685547 0.963989
vn -0.199228 0.441049 -0.875091
v 0.910370 1.060410 -1.026657
vt 0.654297 0.983215
vn -0.172774 0.239689 -0.955352
v 0.878037 1.049994 -1.013732
vt 0.653320 0.974701
vn -0.164637 0.133079 -0.977335
v 0.925775 1.070917 -1.025510
vt 0.653320 0.987450
vn -0.236320 0.331472 -0.913389
v 0.768075 1.059963 -1.091083
vt 0.679688 0.957581
vn -0.171639 0.126045 -0.977063
v 0.806126 1.046536 -0.995674
vt 0.655762 0.957428
vn -0.168187 0.098081 -0.980864
v 0.760642 1.065102 -1.109938
vt 0.684570 0.957916
vn -0.187318 0.296778 -0.936394
v 0.751828 1.072793 -1.124144
vt 0.688965 0.957672
vn -0.202584 0.528056 -0.824692
v 0.747388 1.072775 -1.123811
vt 0.689453 0.956726
vn -0.208805 0.496787 -0.842379
v 0.743384 1.079901 -1.130888
vt 0.691895 0.956970
vn -0.201502 0.637446 -0.743679
v 0.784372 1.083947 -1.134029
vt 0.688965 0.966003
vn -0.231784 0.680341 -0.695278
v 0.784478 1.088540 -1.134132
vt 0.689941 0.966522
vn -0.384031 0.886745 -0.257303
v 0.741998 1.085417 -1.134356
vt 0.693359 0.957336
vn -0.197110 0.758073 -0.621670
v 0.741904 1.089794 -1.134546
vt 0.694336 0.957703
vn 0.175331 0.984487 -0.006711
v 0.830999 1.085776 -1.119612
vt 0.682129 0.975204
vn -0.407591 0.607165 -0.682070
v 0.809287 1.087218 -1.128920
vt 0.686035 0.971329
vn -0.417982 0.781364 -0.463424
v 0.851831 1.083922 -1.103345
vt 0.676758 0.978561
vn -0.373850 0.431625 -0.820936
v 0.924353 1.076200 -1.024040
vt 0.653809 0.988647
vn -0.354005 0.280213 -0.892279
v 0.784237 1.088982 -1.132606
vt 0.689941 0.966705
vn -0.510941 0.855030 0.088675
v 0.742416 1.090248 -1.133213
vt 0.694336 0.957886
vn 0.053827 0.852249 0.520360
v 0.923214 1.075942 -1.021998
vt 0.654297 0.989227
vn -0.447917 0.134760 -0.883861
v 0.850480 1.084842 -1.101891
vt 0.677246 0.979004
vn -0.528764 0.185056 -0.828350
v 0.830078 1.086593 -1.118142
vt 0.682617 0.975540
vn -0.664274 0.513226 -0.543451
v 0.808168 1.087916 -1.127637
vt 0.686523 0.971466
vn -0.624954 0.765064 -0.155272
v 0.743241 1.089373 -1.129295
vt 0.695312 0.957458
vn 0.701293 0.693389 0.165532
v 0.740001 1.089526 -1.132012
vt 0.694336 0.957001
vn 0.278498 0.955729 0.094983
v 0.754784 1.062339 -1.109200
vt 0.685059 0.956451
vn -0.186895 0.303231 -0.934409
v 0.762355 1.057173 -1.090037
vt 0.680176 0.956116
vn -0.168778 0.126555 -0.977496
v 0.800980 1.044121 -0.995036
vt 0.656250 0.956116
vn -0.171113 0.090772 -0.981061
v 0.754784 1.062339 -1.109200
vt 0.685059 0.956451
vn -0.194492 0.332352 -0.922884
v 0.752258 1.064461 -1.108136
vt 0.685059 0.955688
vn -0.194623 0.367910 -0.909266
v 0.762355 1.057173 -1.090037
vt 0.680176 0.956116
vn -0.181674 0.153681 -0.971276
v 0.759860 1.059411 -1.088843
vt 0.680176 0.955292
vn -0.181487 0.160503 -0.970207
v 0.800980 1.044121 -0.995036
vt 0.656250 0.956116
vn -0.161548 0.084244 -0.983262
v 0.797330 1.047014 -0.993343
vt 0.656250 0.954956
vn -0.161548 0.084244 -0.983262
v 0.816756 1.045521 -0.970647
vt 0.649414 0.957458
vn -0.175284 0.077080 -0.981496
v 0.811085 1.043192 -0.971095
vt 0.650391 0.956146
vn -0.987670 0.013847 -0.155934
v 0.806648 1.046350 -0.969618
vt 0.650391 0.954834
vn -0.987568 0.006958 -0.157039
v 0.811085 1.043192 -0.971095
vt 0.650391 0.956146
vn -0.987568 0.006958 -0.157039
v 0.821165 1.047079 -0.951087
vt 0.645020 0.956451
vn -0.990168 0.135704 -0.033926
v 0.816614 1.045954 -0.951952
vt 0.645996 0.955597
vn -0.991651 0.124329 -0.034206
v 0.813776 1.047823 -0.951371
vt 0.645996 0.954803
vn -0.993135 0.113474 -0.028386
v 0.817588 1.051938 -0.941384
vt 0.643066 0.954559
vn -0.961930 0.183492 0.202539
v 0.811893 1.049806 -0.951248
vt 0.645996 0.954163
vn -0.990373 0.138388 0.003057
v 0.815577 1.053781 -0.941924
vt 0.643555 0.953918
vn -0.970912 0.133571 0.198716
v 0.820196 1.072610 -0.930411
vt 0.638184 0.952148
vn -0.724508 0.142559 0.674362
v 0.822278 1.072305 -0.928884
vt 0.638184 0.952606
vn -0.791291 0.323271 0.518994
v 0.819399 1.067245 -0.931871
vt 0.639648 0.952637
vn -0.792399 0.111044 0.599811
v 0.821755 1.066410 -0.930448
vt 0.639160 0.953247
vn -0.817466 0.240604 0.523316
v 0.795379 1.049072 -0.992614
vt 0.656250 0.954285
vn -0.161737 0.070308 -0.984326
v 0.804844 1.048302 -0.969051
vt 0.650391 0.954224
vn -0.989144 0.013925 -0.146285
v 0.749782 1.066362 -1.106643
vt 0.685547 0.954926
vn -0.151018 0.395430 -0.905996
v 0.757385 1.061382 -1.087562
vt 0.680176 0.954498
vn -0.161662 0.182677 -0.969791
v 0.818036 1.060065 -0.935549
vt 0.641113 0.953369
vn -0.903871 0.122581 0.409866
v 0.820280 1.058784 -0.934454
vt 0.641113 0.953979
vn -0.895789 0.215256 0.388879
v 0.739847 1.086015 -1.131583
vt 0.693359 0.956665
vn -0.059180 0.994113 -0.090760
v 0.741054 1.081104 -1.128602
vt 0.691895 0.956238
vn -0.122600 0.835083 -0.536289
v 0.743678 1.074460 -1.121999
vt 0.689941 0.955750
vn -0.161820 0.632457 -0.757504
v 0.822446 1.073146 -0.929454
vt 0.637695 0.952484
vn -0.673744 0.681655 0.285335
v 0.820893 1.073377 -0.930615
vt 0.637695 0.952057
vn -0.854428 0.517904 0.041575
v 0.822744 1.073014 -0.932394
vt 0.637207 0.952148
vn -0.622657 0.767305 0.153433
v 0.743241 1.089373 -1.129295
vt 0.694336 0.955811
vn 0.160224 0.953235 -0.256263
v 0.743638 1.086435 -1.128302
vt 0.693359 0.955505
vn 0.059004 0.967070 -0.247578
v 0.744319 1.083166 -1.126600
vt 0.692383 0.955261
vn -0.007894 0.873016 -0.487628
v 0.747595 1.075414 -1.118402
vt 0.688965 0.954681
vn -0.075097 0.600685 -0.795951
v 0.752396 1.069637 -1.106387
vt 0.685547 0.953949
vn -0.113168 0.401497 -0.908842
v 0.759777 1.064755 -1.087909
vt 0.680176 0.953552
vn -0.142008 0.184547 -0.972510
v 0.797588 1.052194 -0.993242
vt 0.656250 0.953400
vn -0.164508 0.076965 -0.983368
v 0.806839 1.051485 -0.970079
vt 0.650391 0.953308
vn -0.988184 0.006938 -0.153116
v 0.813516 1.052642 -0.953359
vt 0.645996 0.953308
vn -0.993135 0.113474 -0.028386
v 0.817028 1.055976 -0.944564
vt 0.643555 0.953094
vn -0.970797 0.101813 0.217226
v 0.819345 1.061455 -0.938759
vt 0.641602 0.952606
vn -0.866423 0.045167 0.497264
v 0.820693 1.067629 -0.935379
vt 0.640137 0.951935
vn -0.707085 0.007833 0.707085
v 0.822744 1.073014 -0.932394
vt 0.638672 0.951447
vn -0.997420 0.061249 -0.037449
v 0.924531 1.075529 -1.022885
vt 0.653809 0.988655
vn -0.067805 0.481932 -0.873581
v 0.923214 1.075942 -1.021998
vt 0.654297 0.989227
vn -0.067602 0.473001 -0.878464
v 0.924353 1.076200 -1.024040
vt 0.653809 0.988647
vn -0.064103 0.444744 -0.893361
v 0.925817 1.070890 -1.024177
vt 0.653320 0.987488
vn 0.070453 0.022254 -0.997267
v 0.925775 1.070917 -1.025510
vt 0.653320 0.987450
vn 0.998423 0.007451 -0.055639
v 0.910790 1.061109 -1.025452
vt 0.653809 0.983322
vn -0.944683 0.007795 0.327893
v 0.910370 1.060410 -1.026657
vt 0.654297 0.983215
vn 0.922369 0.000020 0.386309
v 0.878569 1.050831 -1.012798
vt 0.653320 0.974823
vn -0.918292 0.051835 0.392496
v 0.878037 1.049994 -1.013732
vt 0.653320 0.974701
vn -0.918292 0.051835 0.392496
v 0.863383 1.046670 -0.992626
vt 0.649902 0.969604
vn -0.955328 0.087153 0.282404
v 0.862653 1.045782 -0.993365
vt 0.650391 0.969437
vn -0.949439 0.084392 0.302397
v 0.857533 1.043981 -0.969162
vt 0.645508 0.965973
vn -0.985652 0.125604 0.112754
v 0.858516 1.044902 -0.969080
vt 0.645020 0.966248
vn -0.985787 0.127997 0.108819
v 0.862792 1.045812 -0.948348
vt 0.640137 0.964935
vn -0.982379 0.167776 0.082356
v 0.861700 1.044947 -0.948188
vt 0.640625 0.964661
vn -0.984573 0.164080 0.060771
v 0.869003 1.051097 -0.936602
vt 0.636719 0.964752
vn -0.942724 0.204794 0.263307
v 0.867799 1.050377 -0.936154
vt 0.637207 0.964447
vn -0.960837 0.195949 0.195949
v 0.873002 1.056921 -0.931534
vt 0.634766 0.964630
vn -0.827169 0.233069 0.511342
v 0.871847 1.056489 -0.930820
vt 0.634766 0.964325
vn -0.854546 0.226365 0.467450
v 0.878937 1.071368 -0.927068
vt 0.630859 0.963776
vn -0.620047 0.475315 0.624193
v 0.876901 1.065373 -0.927484
vt 0.632324 0.964233
vn -0.662554 0.281987 0.693906
v 0.877353 1.070160 -0.925512
vt 0.631348 0.963593
vn -0.612697 0.448949 0.650421
v 0.875795 1.065127 -0.926682
vt 0.632812 0.963928
vn -0.701613 0.260925 0.663066
v 0.877806 1.071152 -0.926236
vt 0.631348 0.963531
vn -0.471913 0.530873 0.703898
v 0.875795 1.065127 -0.926682
vt 0.632812 0.963928
vn -0.827237 0.260391 0.497871
v 0.877353 1.070160 -0.925512
vt 0.631348 0.963593
vn -0.751492 0.335453 0.568095
v 0.871847 1.056489 -0.930820
vt 0.634766 0.964325
vn -0.884171 0.229843 0.406710
v 0.867799 1.050377 -0.936154
vt 0.637207 0.964447
vn -0.954701 0.197292 0.222759
v 0.861700 1.044947 -0.948188
vt 0.640625 0.964661
vn -0.988155 0.151532 -0.024243
v 0.857533 1.043981 -0.969162
vt 0.645508 0.965973
vn -0.180835 0.076459 -0.980537
v 0.878037 1.049994 -1.013732
vt 0.653320 0.974701
vn -0.198593 0.125421 -0.972024
v 0.857533 1.043981 -0.969162
vt 0.645508 0.965973
vn -0.187537 0.076373 -0.979284
v 0.862653 1.045782 -0.993365
vt 0.650391 0.969437
vn -0.188459 0.097700 -0.977209
v 0.878937 1.071368 -0.927068
vt 0.630859 0.963776
vn -0.038113 -0.030490 -0.998808
v 0.877806 1.071152 -0.926236
vt 0.631348 0.963531
vn -0.034361 -0.221639 -0.974523
v 0.822744 1.073014 -0.932394
vt 0.637207 0.952148
vn -0.999484 -0.022720 0.022688
v 0.877806 1.071152 -0.926236
vt 0.631348 0.963531
vn -0.667729 0.712441 0.215790
v 0.780597 1.168768 -1.080528
vt 0.549805 0.801147
vn -0.985434 0.015374 0.169361
v 0.811098 1.184329 -1.009592
vt 0.532715 0.797241
vn -0.995017 0.098834 0.013159
v 0.775103 1.168271 -1.078092
vt 0.549805 0.802490
vn -0.984600 0.011629 0.174434
v 0.805568 1.183794 -1.007306
vt 0.532715 0.798584
vn -0.995017 0.098834 0.013159
v 0.834681 1.073558 -0.943481
vt 0.515625 0.822876
vn -0.871980 0.422202 -0.247783
v 0.832868 1.065727 -0.947149
vt 0.516602 0.824951
vn -0.923880 0.331156 -0.191783
v 0.828940 1.073939 -0.941963
vt 0.517090 0.822510
vn -0.875231 0.430817 -0.219926
v 0.827156 1.066356 -0.945503
vt 0.517578 0.824097
vn -0.929881 0.358178 -0.083840
v 0.835921 1.088936 -0.941895
vt 0.515137 0.819092
vn -0.808807 0.338270 -0.481046
v 0.830178 1.089120 -0.940406
vt 0.516602 0.819092
vn -0.796794 0.374944 -0.473853
v 0.827643 1.187118 -0.970568
vt 0.523438 0.796509
vn -0.981086 0.006886 -0.193452
v 0.822074 1.186580 -0.968446
vt 0.523438 0.797852
vn -0.981862 0.006868 -0.189472
v 0.836929 1.148133 -0.944829
vt 0.516113 0.805908
vn -0.756204 0.467598 -0.457720
v 0.831201 1.148230 -0.943341
vt 0.517578 0.806030
vn -0.748624 0.485811 -0.451165
v 0.829970 1.060265 -0.953647
vt 0.518555 0.826416
vn -0.971714 0.194985 -0.133237
v 0.824312 1.061089 -0.951766
vt 0.519043 0.825317
vn -0.974702 0.199896 -0.099987
v 0.831800 1.184560 -0.960391
vt 0.520508 0.797119
vn -0.339452 0.291963 -0.894164
v 0.826174 1.184088 -0.958503
vt 0.520996 0.798340
vn -0.337303 0.293273 -0.894549
v 0.769133 1.072137 -1.099085
vt 0.554199 0.824829
vn -0.041793 0.174679 -0.983738
v 0.764325 1.077156 -1.111029
vt 0.557617 0.823486
vn 0.142944 0.300101 -0.943136
v 0.763601 1.073016 -1.096712
vt 0.554199 0.823486
vn -0.038147 0.175388 -0.983760
v 0.758852 1.077917 -1.108410
vt 0.556641 0.822388
vn 0.116345 0.327158 -0.937780
v 0.836011 1.169206 -0.948903
vt 0.517090 0.801025
vn -0.651124 0.583041 -0.485902
v 0.830295 1.169158 -0.947386
vt 0.518555 0.801514
vn -0.656049 0.573367 -0.490764
v 0.762103 1.093885 -1.117876
vt 0.559570 0.818970
vn 0.910008 0.015497 -0.414300
v 0.756702 1.094053 -1.114966
vt 0.558105 0.818970
vn 0.437375 0.046868 -0.898057
v 0.762497 1.083413 -1.116000
vt 0.559082 0.821777
vn 0.366608 0.237004 -0.899682
v 0.757078 1.083900 -1.113156
vt 0.558105 0.821167
vn 0.334831 0.338527 -0.879368
v 0.834379 1.179043 -0.953687
vt 0.518555 0.798584
vn -0.506794 0.529583 -0.680222
v 0.828693 1.178774 -0.952053
vt 0.519531 0.799438
vn -0.516689 0.516636 -0.682730
v 0.811638 1.057620 -0.997010
vt 0.529297 0.827637
vn -0.154935 0.063356 -0.985891
v 0.781962 1.065757 -1.068087
vt 0.546875 0.826172
vn -0.118570 0.100558 -0.987841
v 0.806066 1.058520 -0.994769
vt 0.529297 0.826172
vn -0.154935 0.063356 -0.985891
v 0.776412 1.066649 -1.065777
vt 0.546387 0.824829
vn -0.118570 0.100558 -0.987841
v 0.775501 1.162227 -1.092104
vt 0.553223 0.802856
vn 0.963080 0.120372 0.240805
v 0.770048 1.161829 -1.089487
vt 0.552246 0.803955
vn 0.966198 0.125741 0.225056
v 0.824035 1.056861 -0.967531
vt 0.522461 0.827515
vn -0.980736 0.027130 -0.193445
v 0.818441 1.057760 -0.965375
vt 0.522461 0.826172
vn -0.982002 0.027157 -0.186906
v 0.771600 1.152809 -1.100583
vt 0.555176 0.805176
vn 0.966921 0.220312 0.128557
v 0.766182 1.152573 -1.097809
vt 0.554199 0.806030
vn 0.965984 0.218389 0.138494
v 0.768043 1.138037 -1.107728
vt 0.557129 0.808716
vn 0.966254 0.256486 -0.023834
v 0.762640 1.137945 -1.104875
vt 0.556152 0.809204
vn 0.965288 0.260583 -0.017743
v 0.764913 1.119246 -1.113471
vt 0.558594 0.813110
vn 0.969335 0.192567 -0.152670
v 0.759512 1.119232 -1.110590
vt 0.557617 0.813354
vn 0.967322 0.175888 -0.182625
v 0.775103 1.168271 -1.078092
vt 0.549805 0.802490
vn -0.170606 0.013923 -0.985241
v 0.805568 1.183794 -1.007306
vt 0.532715 0.798584
vn -0.170606 0.013923 -0.985241
v 0.795724 1.117778 -1.024648
vt 0.536621 0.813354
vn -0.170606 0.013923 -0.985241
v 0.828940 1.073939 -0.941963
vt 0.517090 0.822510
vn -0.170606 0.013923 -0.985241
v 0.827156 1.066356 -0.945503
vt 0.517578 0.824097
vn -0.170606 0.013923 -0.985241
v 0.822074 1.186580 -0.968446
vt 0.523438 0.797852
vn -0.170606 0.013923 -0.985241
v 0.826174 1.184088 -0.958503
vt 0.520996 0.798340
vn -0.170593 0.020862 -0.985121
v 0.830295 1.169158 -0.947386
vt 0.518555 0.801514
vn -0.170593 0.020862 -0.985121
v 0.831201 1.148230 -0.943341
vt 0.517578 0.806030
vn -0.170593 0.020862 -0.985121
v 0.806066 1.058520 -0.994769
vt 0.529297 0.826172
vn -0.170593 0.020862 -0.985121
v 0.776412 1.066649 -1.065777
vt 0.546387 0.824829
vn -0.170606 0.013923 -0.985241
v 0.757078 1.083900 -1.113156
vt 0.558105 0.821167
vn -0.170606 0.013923 -0.985241
v 0.756702 1.094053 -1.114966
vt 0.558105 0.818970
vn -0.170606 0.013923 -0.985241
v 0.828693 1.178774 -0.952053
vt 0.519531 0.799438
vn -0.170593 0.020862 -0.985121
v 0.758852 1.077917 -1.108410
vt 0.556641 0.822388
vn -0.170606 0.013923 -0.985241
v 0.763601 1.073016 -1.096712
vt 0.554199 0.823486
vn -0.170633 0.006956 -0.985310
v 0.759512 1.119232 -1.110590
vt 0.557617 0.813354
vn -0.170606 0.013923 -0.985241
v 0.770048 1.161829 -1.089487
vt 0.552246 0.803955
vn -0.170606 0.013923 -0.985241
v 0.818441 1.057760 -0.965375
vt 0.522461 0.826172
vn -0.170560 0.027807 -0.984955
v 0.766182 1.152573 -1.097809
vt 0.554199 0.806030
vn -0.170606 0.013923 -0.985241
v 0.824312 1.061089 -0.951766
vt 0.519043 0.825317
vn -0.170593 0.020862 -0.985121
v 0.762640 1.137945 -1.104875
vt 0.556152 0.809204
vn -0.170606 0.013923 -0.985241
v 0.830178 1.089120 -0.940406
vt 0.516602 0.819092
vn -0.170593 0.020862 -0.985121
v 0.818181 1.183586 -0.943855
vt 0.046021 0.879211
vn 0.239433 0.323906 -0.915291
v 0.819304 1.178880 -0.941048
vt 0.045074 0.880310
vn 0.318601 0.304123 -0.897776
v 0.836011 1.169206 -0.948903
vt 0.047241 0.884216
vn 0.315489 0.333600 -0.888357
v 0.788470 1.187198 -1.017160
vt 0.065979 0.878723
vn -0.982265 0.078559 -0.170248
v 0.800525 1.191050 -0.987458
vt 0.058411 0.877075
vn -0.980637 0.020474 -0.194759
v 0.811098 1.184329 -1.009592
vt 0.061768 0.881958
vn -0.982701 0.059528 -0.175371
v 0.744319 1.083166 -1.126600
vt 0.090454 0.907227
vn -0.375531 0.171019 -0.910895
v 0.764325 1.077156 -1.111029
vt 0.084595 0.907593
vn -0.323400 0.150868 -0.934158
v 0.747595 1.075414 -1.118402
vt 0.088318 0.909058
vn -0.349768 0.145701 -0.925437
v 0.780597 1.168768 -1.080528
vt 0.078552 0.886719
vn -0.972382 0.060560 -0.225402
v 0.760561 1.172659 -1.085876
vt 0.082458 0.884033
vn -0.957178 0.041900 -0.286451
v 0.752396 1.069637 -1.106387
vt 0.085205 0.910767
vn -0.290999 0.112171 -0.950125
v 0.769133 1.072137 -1.099085
vt 0.081665 0.908508
vn -0.249214 0.110708 -0.962100
v 0.813516 1.052642 -0.953359
vt 0.046509 0.911926
vn 0.999323 0.011602 0.034901
v 0.824035 1.056861 -0.967531
vt 0.049683 0.909180
vn -0.070477 0.014803 -0.997404
v 0.817028 1.055976 -0.944564
vt 0.044220 0.910522
vn 0.994795 0.101419 0.009873
v 0.829970 1.060265 -0.953647
vt 0.046539 0.908081
vn 0.995563 0.081264 0.047434
v 0.806839 1.051485 -0.970079
vt 0.051056 0.912903
vn -0.118167 0.050092 -0.991729
v 0.810552 1.192133 -0.962739
vt 0.051666 0.876709
vn -0.992792 0.020825 -0.118025
v 0.812729 1.191496 -0.957364
vt 0.050079 0.876953
vn -0.019434 0.186325 -0.982296
v 0.827643 1.187118 -0.970568
vt 0.052551 0.880737
vn -0.990268 0.013843 -0.138485
v 0.831800 1.184560 -0.960391
vt 0.050140 0.881226
vn 0.007897 0.220275 -0.975406
v 0.743638 1.086435 -1.128302
vt 0.090942 0.906433
vn -0.388548 0.134449 -0.911567
v 0.762497 1.083413 -1.116000
vt 0.085876 0.906311
vn -0.386309 0.142482 -0.911298
v 0.797588 1.052194 -0.993242
vt 0.057037 0.913208
vn -0.164508 0.076965 -0.983368
v 0.811638 1.057620 -0.997010
vt 0.056824 0.909729
vn -0.164508 0.076965 -0.983368
v 0.747273 1.132980 -1.118331
vt 0.089905 0.895142
vn -0.461581 0.016033 -0.886953
v 0.764913 1.119246 -1.113471
vt 0.085754 0.898254
vn -0.459575 0.048354 -0.886822
v 0.743241 1.089373 -1.129295
vt 0.091248 0.905762
vn -0.442088 0.094705 -0.891958
v 0.762103 1.093885 -1.117876
vt 0.086487 0.904053
vn -0.447917 0.134760 -0.883861
v 0.821816 1.145181 -0.934583
vt 0.041931 0.888611
vn 0.384948 0.164450 -0.908169
v 0.822232 1.122866 -0.933378
vt 0.041229 0.893860
vn 0.387084 0.172877 -0.905693
v 0.836929 1.148133 -0.944829
vt 0.045959 0.888672
vn 0.379032 0.185811 -0.906537
v 0.759777 1.064755 -1.087909
vt 0.080322 0.911987
vn -0.215174 0.097144 -0.971732
v 0.781962 1.065757 -1.068087
vt 0.074097 0.909302
vn -0.181852 0.090888 -0.979116
v 0.820871 1.164321 -0.937066
vt 0.043060 0.883850
vn 0.353775 0.257966 -0.899053
v 0.755737 1.167273 -1.097730
vt 0.085327 0.886169
vn -0.940198 0.058979 -0.335483
v 0.775501 1.162227 -1.092104
vt 0.081177 0.888306
vn -0.959617 0.091023 -0.266176
v 0.752546 1.160329 -1.105543
vt 0.087097 0.888245
vn -0.929882 0.060459 -0.362855
v 0.771600 1.152809 -1.100583
vt 0.083130 0.890564
vn -0.937509 0.074684 -0.339853
v 0.822256 1.075066 -0.933782
vt 0.041046 0.905334
vn 0.384895 0.014976 -0.922839
v 0.835921 1.088936 -0.941895
vt 0.044403 0.901733
vn 0.966004 0.137038 -0.219216
v 0.750142 1.150824 -1.111397
vt 0.088440 0.890686
vn -0.891976 0.007963 -0.452012
v 0.768043 1.138037 -1.107728
vt 0.084656 0.893982
vn -0.901211 0.023784 -0.432727
v 0.820693 1.067629 -0.935379
vt 0.041565 0.907349
vn 0.979226 0.152611 -0.133515
v 0.834681 1.073558 -0.943481
vt 0.044556 0.905090
vn 0.977603 0.191810 -0.086610
v 0.816660 1.187359 -0.947636
vt 0.047241 0.878296
vn 0.186900 0.303283 -0.934392
v 0.834379 1.179043 -0.953687
vt 0.048523 0.882263
vn 0.183677 0.332000 -0.925224
v 0.814813 1.189971 -0.952213
vt 0.048553 0.877502
vn 0.087876 0.241639 -0.966379
v 0.832868 1.065727 -0.947149
vt 0.045197 0.906799
vn 0.982895 0.183007 -0.020622
v 0.819345 1.061455 -0.938759
vt 0.042603 0.908997
vn 0.985073 0.167688 -0.038894
v 0.925817 1.070890 -1.024177
vt 0.832520 0.975754
vn -0.819115 0.315340 0.479178
v 0.910790 1.061109 -1.025452
vt 0.834473 0.975327
vn -0.589847 0.271843 0.760383
v 0.923214 1.075942 -1.021998
vt 0.832520 0.975357
vn -0.819115 0.315340 0.479178
v 0.908016 1.077875 -1.019212
vt 0.833008 0.974579
vn -0.569499 0.257168 0.780728
v 0.878569 1.050831 -1.012798
vt 0.836426 0.973312
vn -0.243038 0.112792 0.963437
v 0.875805 1.076199 -1.006643
vt 0.834473 0.972672
vn -0.212474 0.089226 0.973085
v 0.863383 1.046670 -0.992626
vt 0.836914 0.971405
vn 0.007921 0.000015 0.999969
v 0.860622 1.074530 -0.986538
vt 0.834961 0.970978
vn 0.072059 0.011996 0.997328
v 0.858516 1.044902 -0.969080
vt 0.836914 0.969528
vn 0.180849 0.045198 0.982472
v 0.855753 1.072939 -0.963046
vt 0.834961 0.969315
vn 0.261409 0.048984 0.963984
v 0.862792 1.045812 -0.948348
vt 0.836426 0.967926
vn 0.258489 0.036323 0.965331
v 0.860024 1.071776 -0.942346
vt 0.833984 0.967957
vn -0.387668 0.011834 0.921723
v 0.869003 1.051097 -0.936602
vt 0.835449 0.967010
vn -0.476307 0.076684 0.875929
v 0.878937 1.071368 -0.927068
vt 0.832520 0.967072
vn -0.807088 0.166597 0.566440
v 0.869003 1.051097 -0.936602
vt 0.636719 0.964752
vn -0.946101 -0.212393 0.244505
v 0.873002 1.056921 -0.931534
vt 0.634766 0.964630
vn -0.942292 -0.186526 0.278018
v 0.878937 1.071368 -0.927068
vt 0.630859 0.963776
vn -0.932431 -0.205020 0.297556
v 0.876901 1.065373 -0.927484
vt 0.632324 0.964233
vn -0.929864 -0.189291 0.315471
v 0.925817 1.070890 -1.024177
vt 0.832520 0.975754
vn -0.326832 0.215010 0.920300
v 0.923214 1.075942 -1.021998
vt 0.832520 0.975357
vn -0.326832 0.215010 0.920300
v 0.924531 1.075529 -1.022885
vt 0.832520 0.975494
vn -0.326832 0.215010 0.920300
v 0.822520 1.132969 -1.111198
vt 0.650879 0.442871
vn 0.392362 0.919626 0.018454
v 0.833722 1.142619 -1.097684
vt 0.654297 0.443359
vn 0.341303 0.924950 0.167272
v 0.804378 1.146581 -1.114092
vt 0.650391 0.438965
vn 0.385721 0.921971 -0.034468
v 0.815163 1.161156 -1.099590
vt 0.654297 0.438965
vn 0.319071 0.916515 0.241236
v 0.784944 1.151303 -1.116618
vt 0.649414 0.435547
vn 0.339962 0.937373 -0.075884
v 0.809489 1.088723 -1.130085
vt 0.642578 0.445801
vn 0.401599 0.910300 -0.100357
v 0.784573 1.089763 -1.134830
vt 0.640137 0.441406
vn 0.315462 0.942843 -0.107384
v 0.788208 1.160783 -1.110854
vt 0.651367 0.435059
vn 0.360070 0.931247 0.055938
v 0.831386 1.087429 -1.120175
vt 0.645996 0.449219
vn 0.420036 0.907461 -0.009158
v 0.749546 1.153818 -1.116240
vt 0.647461 0.430176
vn 0.338607 0.940594 -0.025056
v 0.752230 1.164226 -1.109824
vt 0.649414 0.429688
vn 0.352815 0.934686 0.043399
v 0.746438 1.135273 -1.123462
vt 0.644043 0.431152
vn 0.309776 0.946359 -0.091884
v 0.792656 1.168871 -1.102096
vt 0.653320 0.435059
vn 0.354950 0.924240 0.140676
v 0.755849 1.172121 -1.100975
vt 0.651855 0.429199
vn 0.366898 0.920638 0.133459
v 0.852413 1.085703 -1.103284
vt 0.649902 0.453125
vn 0.402069 0.908059 0.117338
v 0.868990 1.175745 -1.019170
vt 0.669922 0.443848
vn 0.325183 0.900236 0.289537
v 0.898715 1.146417 -1.015953
vt 0.670410 0.451172
vn 0.411723 0.893316 0.180195
v 0.799420 1.174331 -1.090208
vt 0.655762 0.435059
vn 0.336311 0.890063 0.307705
v 0.761034 1.177995 -1.088122
vt 0.654297 0.428711
vn 0.373659 0.885476 0.276244
v 0.789269 1.192896 -1.017585
vt 0.667969 0.429688
vn 0.290740 0.876668 0.383307
v 0.835745 1.188608 -1.019723
vt 0.668945 0.437988
vn 0.290714 0.885061 0.363528
v 0.930239 1.077741 -1.016747
vt 0.669434 0.464844
vn 0.499115 0.854539 0.143691
v 0.938050 1.144581 -0.955882
vt 0.682129 0.455078
vn 0.492791 0.848254 0.193964
v 0.979430 1.072096 -0.952882
vt 0.685547 0.468262
vn 0.590373 0.791449 0.158327
v 0.983745 1.071550 -0.946647
vt 0.687012 0.468262
vn 0.503522 0.769026 0.393781
v 0.940824 1.144403 -0.950338
vt 0.683105 0.455078
vn 0.491541 0.804835 0.332607
v 0.918591 1.165694 -0.958589
vt 0.680664 0.450195
vn 0.396845 0.876381 0.272891
v 0.883335 1.186604 -0.962595
vt 0.679688 0.443848
vn 0.234969 0.872056 0.429311
v 0.901840 1.177546 -0.961196
vt 0.680176 0.447266
vn 0.283265 0.876365 0.389546
v 0.885746 1.186313 -0.956845
vt 0.680664 0.443848
vn 0.132849 0.764098 0.631272
v 0.904368 1.177202 -0.955715
vt 0.681152 0.447266
vn 0.210677 0.805986 0.553174
v 0.851111 1.191840 -0.988912
vt 0.674805 0.438965
vn 0.255392 0.866552 0.428792
v 0.920929 1.165453 -0.953335
vt 0.681641 0.450684
vn 0.337679 0.823756 0.455411
v 0.844321 1.196115 -0.962705
vt 0.679199 0.437500
vn 0.152685 0.814356 0.559921
v 0.846750 1.195609 -0.956422
vt 0.680176 0.437500
vn 0.049556 0.644233 0.763222
v 0.811667 1.197929 -0.961410
vt 0.678711 0.431641
vn 0.120008 0.769281 0.627539
v 0.814117 1.197144 -0.955223
vt 0.680176 0.432129
vn 0.048812 0.634603 0.771295
v 0.863639 1.192732 -0.963073
vt 0.679199 0.440430
vn 0.178554 0.828426 0.530875
v 0.865877 1.192455 -0.956893
vt 0.680176 0.440918
vn 0.095238 0.714363 0.693265
v 0.801435 1.196813 -0.987110
vt 0.673828 0.430664
vn 0.212776 0.846262 0.488433
v 0.887683 1.180196 -0.939716
vt 0.683594 0.444336
vn -0.142563 0.427555 0.892677
v 0.905536 1.172078 -0.938872
vt 0.683594 0.447266
vn -0.150676 0.440584 0.884976
v 0.887148 1.175432 -0.935810
vt 0.684570 0.444336
vn -0.224827 0.337185 0.914199
v 0.903831 1.167848 -0.934978
vt 0.684570 0.447266
vn -0.251101 0.342356 0.905395
v 0.921036 1.161279 -0.937170
vt 0.684570 0.450195
vn -0.182892 0.453327 0.872379
v 0.917974 1.158068 -0.933586
vt 0.685547 0.450195
vn -0.353473 0.329314 0.875562
v 0.938780 1.142892 -0.934069
vt 0.686035 0.454102
vn -0.355621 0.483105 0.800090
v 0.934074 1.141131 -0.930821
vt 0.686523 0.453613
vn -0.530587 0.335981 0.778199
v 0.851181 1.186960 -0.939215
vt 0.683594 0.438477
vn -0.093652 0.338505 0.936292
v 0.851946 1.181394 -0.935609
vt 0.684570 0.438477
vn -0.134903 0.217297 0.966738
v 0.820300 1.187425 -0.939361
vt 0.683594 0.433105
vn -0.071530 0.321815 0.944097
v 0.821511 1.181790 -0.936135
vt 0.685059 0.433594
vn -0.133049 0.243831 0.960648
v 0.868609 1.184796 -0.939428
vt 0.683594 0.441406
vn -0.125928 0.392531 0.911077
v 0.869228 1.179488 -0.935721
vt 0.684570 0.441406
vn -0.198215 0.259172 0.945273
v 0.972611 1.070519 -0.925301
vt 0.691895 0.465820
vn -0.693431 0.400693 0.598831
v 0.979762 1.070404 -0.927224
vt 0.690918 0.466797
vn -0.525736 0.589405 0.613354
v 0.986781 1.070984 -0.939643
vt 0.688477 0.468262
vn 0.216103 0.643882 0.733972
v 0.942301 1.144282 -0.944490
vt 0.684082 0.454590
vn 0.235354 0.687195 0.687293
v 0.985508 1.070527 -0.932094
vt 0.689941 0.467773
vn -0.209820 0.583283 0.784701
v 0.941746 1.143934 -0.938971
vt 0.685059 0.454590
vn -0.112685 0.502894 0.856971
v 0.867209 1.191356 -0.950538
vt 0.681152 0.440918
vn 0.009121 0.567228 0.823511
v 0.887167 1.185585 -0.950800
vt 0.681641 0.444336
vn 0.038443 0.620089 0.783589
v 0.868082 1.188874 -0.944514
vt 0.682617 0.440918
vn -0.063651 0.473118 0.878697
v 0.887809 1.183637 -0.944899
vt 0.682617 0.444336
vn -0.057578 0.501495 0.863243
v 0.848671 1.194200 -0.950100
vt 0.681152 0.437988
vn -0.000021 0.510696 0.859761
v 0.850156 1.191383 -0.944156
vt 0.682617 0.437988
vn -0.053158 0.425157 0.903557
v 0.816472 1.195286 -0.949241
vt 0.681152 0.432617
vn -0.000021 0.505717 0.862699
v 0.818591 1.192048 -0.943807
vt 0.682617 0.433105
vn -0.037792 0.411765 0.910506
v 0.922442 1.164918 -0.947796
vt 0.682617 0.450684
vn 0.187147 0.704357 0.684731
v 0.922608 1.163649 -0.942167
vt 0.683594 0.450684
vn -0.016513 0.491168 0.870908
v 0.905924 1.176623 -0.949888
vt 0.682129 0.447266
vn 0.108788 0.672562 0.732001
v 0.906365 1.175074 -0.944046
vt 0.682617 0.447266
vn -0.033360 0.504338 0.862861
v 0.895397 1.072723 -0.924254
vt 0.700195 0.452637
vn -0.538593 0.269235 0.798392
v 0.886892 1.142573 -0.927466
vt 0.689941 0.446289
vn -0.418767 0.249426 0.873167
v 0.878802 1.161720 -0.930444
vt 0.687012 0.443848
vn -0.295712 0.242303 0.924037
v 0.823013 1.166178 -0.931856
vt 0.687988 0.434570
vn -0.217116 0.192962 0.956884
v 0.823812 1.146406 -0.929211
vt 0.691895 0.435547
vn -0.318166 0.210625 0.924342
v 0.824059 1.123617 -0.927859
vt 0.695801 0.437012
vn -0.393585 0.201357 0.896965
v 0.821648 1.075155 -0.928557
vt 0.703613 0.439453
vn -0.064635 0.020168 0.997705
v 0.821816 1.145181 -0.934583
vt 0.692383 0.434082
vn 0.392574 0.081791 0.916076
v 0.820670 1.146277 -0.932069
vt 0.691895 0.434570
vn 0.307377 0.044456 0.950549
v 0.822232 1.122866 -0.933378
vt 0.696289 0.435547
vn 0.476255 0.076683 0.875957
v 0.821036 1.123643 -0.930827
vt 0.696289 0.436035
vn 0.401323 0.040093 0.915059
v 0.819767 1.165743 -0.934597
vt 0.688477 0.433594
vn 0.182946 0.058184 0.981400
v 0.820871 1.164321 -0.937066
vt 0.688477 0.433105
vn 0.261461 0.084321 0.961524
v 0.822256 1.075066 -0.933782
vt 0.704590 0.438477
vn 0.843611 0.136967 0.519193
v 0.821029 1.075238 -0.931252
vt 0.704102 0.438965
vn 0.821824 0.088831 0.562774
v 0.819304 1.178880 -0.941048
vt 0.685547 0.432129
vn 0.209505 0.138272 0.967982
v 0.818226 1.180685 -0.938648
vt 0.685059 0.432617
vn 0.153084 0.132967 0.979227
v 0.800525 1.191050 -0.987458
vt 0.673828 0.429199
vn 0.528718 0.774861 0.346478
v 0.798984 1.194166 -0.986707
vt 0.673828 0.429688
vn 0.499321 0.772107 0.393102
v 0.810552 1.192133 -0.962739
vt 0.679199 0.430176
vn 0.542206 0.707428 0.453385
v 0.809143 1.195228 -0.961452
vt 0.679199 0.431152
vn 0.491332 0.694707 0.525333
v 0.814813 1.189971 -0.952213
vt 0.681641 0.431152
vn 0.448116 0.530676 0.719427
v 0.813613 1.192725 -0.950299
vt 0.681641 0.431641
vn 0.389307 0.509982 0.767045
v 0.816660 1.187359 -0.947636
vt 0.683105 0.431641
vn 0.384560 0.415944 0.824078
v 0.815538 1.189809 -0.945467
vt 0.682617 0.432129
vn 0.323520 0.396731 0.859034
v 0.818181 1.183586 -0.943855
vt 0.684082 0.431641
vn 0.322682 0.294448 0.899543
v 0.817098 1.185699 -0.941529
vt 0.684082 0.432129
vn 0.257753 0.277277 0.925571
v 0.812729 1.191496 -0.957364
vt 0.680176 0.430664
vn 0.491095 0.619922 0.611982
v 0.811434 1.194463 -0.955743
vt 0.680176 0.431152
vn 0.443547 0.604833 0.661395
v 0.788470 1.187198 -1.017160
vt 0.667969 0.428223
vn 0.481576 0.831420 0.277172
v 0.786824 1.190266 -1.016898
vt 0.667969 0.428711
vn 0.464956 0.834252 0.296377
v 0.758652 1.175467 -1.086756
vt 0.654297 0.428223
vn 0.325201 0.905965 0.271058
v 0.760561 1.172659 -1.085876
vt 0.654297 0.427734
vn 0.333791 0.898147 0.286209
v 0.747273 1.132980 -1.118331
vt 0.643555 0.429688
vn -0.077212 0.995937 -0.046344
v 0.742262 1.090020 -1.129807
vt 0.636230 0.433105
vn -0.107503 0.979351 -0.171217
v 0.744805 1.134431 -1.120602
vt 0.644043 0.430664
vn -0.039032 0.998964 -0.023403
v 0.739738 1.090677 -1.132316
vt 0.636719 0.433594
vn -0.173701 0.777740 -0.604110
v 0.972924 1.068479 -0.927469
vt 0.692383 0.466309
vn -0.950198 0.232729 0.207273
v 0.895517 1.070852 -0.926543
vt 0.700684 0.453125
vn -0.930394 0.151678 0.333708
v 0.784332 1.087421 -1.132995
vt 0.639648 0.441895
vn 0.187063 0.623513 -0.759104
v 0.741851 1.088100 -1.131550
vt 0.636230 0.434082
vn -0.193181 0.590399 -0.783652
v 0.741101 1.090981 -1.134929
vt 0.636719 0.434082
vn 0.096977 0.994266 0.045064
v 0.808977 1.086380 -1.128333
vt 0.642090 0.445801
vn 0.342138 0.652407 -0.676245
v 0.745107 1.135314 -1.123324
vt 0.644043 0.431152
vn 0.224688 0.966087 -0.127247
v 0.744386 1.135063 -1.122226
vt 0.644043 0.430664
vn 0.071585 0.994261 -0.079502
v 0.739835 1.091014 -1.134825
vt 0.636719 0.433594
vn 0.268071 0.890778 -0.366951
v 0.739406 1.090874 -1.133705
vt 0.636719 0.433594
vn 0.061611 0.785366 -0.615957
v 0.830377 1.085086 -1.118679
vt 0.645508 0.449707
vn 0.474418 0.688358 -0.548717
v 0.851279 1.083348 -1.101895
vt 0.649414 0.453613
vn 0.571685 0.775537 -0.267803
v 0.923214 1.075942 -1.021998
vt 0.667969 0.464355
vn 0.610426 0.770623 -0.183085
v 0.929133 1.075333 -1.015424
vt 0.669434 0.465332
vn 0.615737 0.784982 -0.068348
v 0.978431 1.069579 -0.951656
vt 0.685547 0.468750
vn 0.669076 0.741615 0.048426
v 0.979368 1.068093 -0.929077
vt 0.691406 0.467285
vn -0.894608 0.407349 0.183691
v 0.982631 1.068960 -0.945683
vt 0.687012 0.468750
vn 0.531841 0.766212 0.360644
v 0.985512 1.068308 -0.939467
vt 0.688477 0.468750
vn -0.025607 0.520570 0.853435
v 0.984405 1.067936 -0.933076
vt 0.689941 0.468262
vn -0.634519 0.602742 0.483827
v 0.822744 1.073014 -0.932394
vt 0.704590 0.439453
vn 0.913021 0.118480 0.390328
v 0.878937 1.071368 -0.927068
vt 0.701660 0.449707
vn -0.960827 0.192768 0.199126
v 0.754397 1.172174 -1.100832
vt 0.651367 0.428711
vn 0.349981 0.927853 0.128852
v 0.753578 1.171465 -1.099967
vt 0.651367 0.428711
vn 0.296677 0.942848 0.151724
v 0.750829 1.164317 -1.109657
vt 0.649414 0.429199
vn 0.319673 0.946808 0.036934
v 0.750053 1.163804 -1.108651
vt 0.649414 0.429199
vn 0.228461 0.971043 0.069865
v 0.748168 1.153871 -1.116106
vt 0.647461 0.429688
vn 0.274828 0.960213 -0.049614
v 0.747419 1.153516 -1.115032
vt 0.647461 0.429688
vn 0.166600 0.985972 -0.010166
v 0.821887 1.123697 -0.927968
vt 0.695801 0.436523
vn -0.426310 0.152214 0.891678
v 0.759535 1.178049 -1.087956
vt 0.654297 0.428711
vn 0.397977 0.883572 0.246809
v 0.787491 1.192979 -1.017398
vt 0.667969 0.429199
vn 0.317476 0.866312 0.385632
v 0.758682 1.177205 -1.087263
vt 0.654297 0.428223
vn 0.369568 0.896989 0.242548
v 0.786775 1.192083 -1.016955
vt 0.667969 0.429199
vn 0.398997 0.840797 0.365872
v 0.821125 1.123663 -0.928938
vt 0.695801 0.436035
vn -0.393082 0.044080 0.918446
v 0.821034 1.075068 -0.929506
vt 0.704102 0.439453
vn -0.795941 0.075074 0.600701
v 0.809644 1.197991 -0.961284
vt 0.678711 0.431641
vn 0.168528 0.742754 0.648009
v 0.812065 1.197183 -0.955111
vt 0.680176 0.431641
vn 0.097338 0.584281 0.805693
v 0.799528 1.196902 -0.986944
vt 0.673828 0.430176
vn 0.269315 0.818365 0.507689
v 0.818161 1.187389 -0.939335
vt 0.683594 0.433105
vn -0.034986 0.258812 0.965294
v 0.819358 1.181765 -0.936128
vt 0.685059 0.433105
vn -0.081233 0.169824 0.982121
v 0.814389 1.195287 -0.949152
vt 0.681152 0.432129
vn 0.047253 0.460810 0.886240
v 0.816477 1.192019 -0.943751
vt 0.682617 0.432617
vn -0.000019 0.333363 0.942799
v 0.820846 1.166259 -0.931885
vt 0.687988 0.434082
vn -0.177629 0.149310 0.972705
v 0.821642 1.146497 -0.929272
vt 0.691895 0.435059
vn -0.276807 0.138393 0.950908
v 0.753667 1.169901 -1.099074
vt 0.651367 0.428223
vn 0.221712 0.954041 0.201619
v 0.755737 1.167273 -1.097730
vt 0.651367 0.427734
vn 0.211512 0.951879 0.221785
v 0.750298 1.162595 -1.107350
vt 0.649414 0.428711
vn 0.125252 0.982412 0.138487
v 0.752546 1.160329 -1.105543
vt 0.649414 0.428223
vn 0.093193 0.982182 0.163196
v 0.747767 1.152663 -1.113500
vt 0.647461 0.429199
vn 0.021582 0.996337 0.082749
v 0.750142 1.150824 -1.111397
vt 0.646973 0.428711
vn -0.028784 0.996156 0.082736
v 0.809045 1.197045 -0.961057
vt 0.679199 0.431152
vn 0.323561 0.664643 0.673467
v 0.811427 1.196207 -0.955047
vt 0.680176 0.431641
vn 0.282318 0.560604 0.778472
v 0.798885 1.195990 -0.986589
vt 0.673828 0.430176
vn 0.394786 0.770330 0.500734
v 0.817336 1.186685 -0.939960
vt 0.684082 0.432617
vn 0.095039 0.212045 0.972628
v 0.818491 1.181305 -0.936926
vt 0.685059 0.433105
vn 0.030179 0.082989 0.996093
v 0.813697 1.194317 -0.949294
vt 0.681641 0.432129
vn 0.220327 0.448314 0.866297
v 0.815714 1.191138 -0.944143
vt 0.682617 0.432129
vn 0.152930 0.327744 0.932307
v 0.819994 1.166024 -0.932786
vt 0.687988 0.433594
vn -0.080377 0.016062 0.996635
v 0.820831 1.146390 -0.930216
vt 0.691895 0.434570
vn -0.273483 0.036166 0.961197
v 0.742262 1.090020 -1.129807
vt 0.636230 0.433105
vn -0.299576 0.438333 -0.847419
v 0.820693 1.067629 -0.935379
vt 0.705566 0.439941
vn -0.459152 0.064419 0.886019
v 0.822256 1.075066 -0.933782
vt 0.704590 0.438477
vn 0.095524 0.007931 0.995396
v 0.822744 1.073014 -0.932394
vt 0.704590 0.439453
vn -0.881741 0.167915 0.440837
v 0.747273 1.132980 -1.118331
vt 0.643555 0.429688
vn -0.127352 0.987879 -0.088753
v 0.743241 1.089373 -1.129295
vt 0.636230 0.432617
vn -0.127352 0.987879 -0.088753
v 0.742262 1.090020 -1.129807
vt 0.636230 0.433105
vn -0.127352 0.987879 -0.088753
v 0.895517 1.070852 -0.926543
vt 0.831543 0.967529
vn -0.476002 0.049206 -0.878067
v 0.972924 1.068479 -0.927469
vt 0.826172 0.970108
vn -0.467492 0.056875 -0.882166
v 0.929133 1.075333 -1.015424
vt 0.831543 0.975113
vn -0.443403 0.055409 -0.894608
v 0.978431 1.069579 -0.951656
vt 0.826172 0.972076
vn -0.464200 0.056498 -0.883927
v 0.923214 1.075942 -1.021998
vt 0.667969 0.464355
vn 0.604110 0.777757 -0.173623
v 0.923214 1.075942 -1.021998
vt 0.832520 0.975357
vn -0.440267 0.054991 -0.896181
v 0.878937 1.071368 -0.927068
vt 0.832520 0.967072
vn -0.487879 0.050022 -0.871477
v 0.923214 1.075942 -1.021998
vt 0.832520 0.975357
vn -0.424394 0.069432 -0.902812
v 0.908016 1.077875 -1.019212
vt 0.833008 0.974579
vn -0.440267 0.054991 -0.896181
v 0.878937 1.071368 -0.927068
vt 0.832520 0.967072
vn -0.569454 0.064771 -0.819467
v 0.860024 1.071776 -0.942346
vt 0.833984 0.967957
vn -0.561480 0.045623 -0.826232
v 0.875805 1.076199 -1.006643
vt 0.834473 0.972672
vn -0.453580 0.000000 -0.891216
v 0.855753 1.072939 -0.963046
vt 0.834961 0.969315
vn -0.840274 0.009002 -0.542087
v 0.860622 1.074530 -0.986538
vt 0.834961 0.970978
vn -0.493453 0.000000 -0.869773
v 0.979368 1.068093 -0.929077
vt 0.825684 0.970444
vn -0.466398 0.089205 -0.880066
v 0.982631 1.068960 -0.945683
vt 0.825684 0.971771
vn -0.463122 0.088547 -0.881860
v 0.985512 1.068308 -0.939467
vt 0.825684 0.971420
vn -0.462389 0.104510 -0.880496
v 0.984405 1.067936 -0.933076
vt 0.825195 0.970901
vn -0.465654 0.105243 -0.878687
usemtl Exterior.003
f 3/3/3 2/2/2 1/1/1
f 4/4/4 2/2/2 3/3/3
f 2/2/2 6/6/6 5/5/5
f 4/4/4 6/6/6 2/2/2
f 8/8/8 5/5/5 7/7/7
f 2/2/2 5/5/5 8/8/8
f 9/9/9 2/2/2 8/8/8
f 1/1/1 2/2/2 9/9/9
f 11/11/11 9/9/9 10/10/10
f 1/1/1 9/9/9 11/11/11
f 12/12/12 7/7/7 5/5/5
f 13/13/13 7/7/7 12/12/12
f 14/14/14 5/5/5 6/6/6
f 12/12/12 5/5/5 14/14/14
f 10/10/10 16/16/16 15/15/15
f 8/8/8 16/16/16 9/9/9
f 16/16/16 10/10/10 9/9/9
f 17/17/17 11/11/11 10/10/10
f 18/18/18 11/11/11 17/17/17
f 20/20/20 18/18/18 19/19/19
f 17/17/17 10/10/10 15/15/15
f 23/23/23 22/22/22 21/21/21
f 24/24/24 22/22/22 23/23/23
f 3/3/3 25/25/25 4/4/4
f 26/26/26 25/25/25 3/3/3
f 4/4/4 27/27/27 6/6/6
f 25/25/25 27/27/27 4/4/4
f 14/14/14 27/27/27 28/28/28
f 6/6/6 27/27/27 14/14/14
f 20/20/20 11/11/11 18/18/18
f 23/23/23 11/11/11 20/20/20
f 21/21/21 11/11/11 23/23/23
f 22/22/22 30/30/30 29/29/29
f 24/24/24 30/30/30 22/22/22
f 28/28/28 32/32/32 31/31/31
f 27/27/27 32/32/32 28/28/28
f 27/27/27 33/33/33 32/32/32
f 25/25/25 33/33/33 27/27/27
f 29/29/29 26/26/26 22/22/22
f 34/34/34 26/26/26 29/29/29
f 24/24/24 35/35/35 30/30/30
f 36/36/36 35/35/35 24/24/24
f 34/34/34 25/25/25 26/26/26
f 33/33/33 25/25/25 34/34/34
f 17/17/17 19/19/19 18/18/18
f 37/37/37 19/19/19 17/17/17
f 17/17/17 38/38/38 37/37/37
f 15/15/15 38/38/38 17/17/17
f 15/15/15 39/39/39 38/38/38
f 16/16/16 39/39/39 15/15/15
f 41/41/41 19/19/19 40/40/40
f 42/42/42 41/41/41 40/40/40
f 43/43/43 41/41/41 42/42/42
f 44/44/44 43/43/43 42/42/42
f 45/45/45 43/43/43 44/44/44
f 46/46/46 39/39/39 16/16/16
f 47/47/47 39/39/39 46/46/46
f 44/44/44 48/48/48 45/45/45
f 49/49/49 48/48/48 44/44/44
f 51/51/51 46/46/46 50/50/50
f 47/47/47 46/46/46 51/51/51
f 51/51/51 48/48/48 49/49/49
f 52/52/52 48/48/48 51/51/51
f 51/51/51 53/53/53 52/52/52
f 50/50/50 53/53/53 51/51/51
f 52/52/52 55/55/55 54/54/54
f 53/53/53 55/55/55 52/52/52
f 58/58/58 57/57/57 56/56/56
f 59/59/59 57/57/57 58/58/58
f 45/45/45 61/61/61 60/60/60
f 48/48/48 61/61/61 45/45/45
f 41/41/41 63/63/63 62/62/62
f 43/43/43 63/63/63 41/41/41
f 53/53/53 64/64/64 55/55/55
f 65/65/65 64/64/64 53/53/53
f 43/43/43 60/60/60 63/63/63
f 45/45/45 60/60/60 43/43/43
f 24/24/24 66/66/66 36/36/36
f 23/23/23 66/66/66 24/24/24
f 48/48/48 54/54/54 61/61/61
f 52/52/52 54/54/54 48/48/48
f 65/65/65 58/58/58 64/64/64
f 59/59/59 58/58/58 65/65/65
f 20/20/20 68/68/68 67/67/67
f 19/19/19 68/68/68 20/20/20
f 19/19/19 62/62/62 68/68/68
f 41/41/41 62/62/62 19/19/19
f 23/23/23 67/67/67 66/66/66
f 20/20/20 67/67/67 23/23/23
f 70/70/70 57/57/57 69/69/69
f 56/56/56 57/57/57 70/70/70
f 70/70/70 69/69/69 71/71/71
f 66/66/66 72/72/72 36/36/36
f 73/73/73 72/72/72 66/66/66
f 74/74/74 66/66/66 67/67/67
f 73/73/73 66/66/66 74/74/74
f 68/68/68 74/74/74 67/67/67
f 75/75/75 74/74/74 68/68/68
f 62/62/62 75/75/75 68/68/68
f 76/76/76 75/75/75 62/62/62
f 63/63/63 76/76/76 62/62/62
f 77/77/77 76/76/76 63/63/63
f 60/60/60 77/77/77 63/63/63
f 78/78/78 77/77/77 60/60/60
f 61/61/61 78/78/78 60/60/60
f 79/79/79 78/78/78 61/61/61
f 54/54/54 79/79/79 61/61/61
f 80/80/80 79/79/79 54/54/54
f 81/81/81 54/54/54 55/55/55
f 80/80/80 54/54/54 81/81/81
f 82/82/82 55/55/55 64/64/64
f 81/81/81 55/55/55 82/82/82
f 83/83/83 64/64/64 58/58/58
f 82/82/82 64/64/64 83/83/83
f 56/56/56 83/83/83 58/58/58
f 84/84/84 83/83/83 56/56/56
f 70/70/70 84/84/84 56/56/56
f 87/87/87 86/86/86 85/85/85
f 88/88/88 87/87/87 85/85/85
f 89/89/89 87/87/87 88/88/88
f 90/90/90 89/89/89 88/88/88
f 91/91/91 89/89/89 90/90/90
f 92/92/92 91/91/91 90/90/90
f 93/93/93 91/91/91 92/92/92
f 94/94/94 93/93/93 92/92/92
f 95/95/95 93/93/93 94/94/94
f 94/94/94 96/96/96 95/95/95
f 97/97/97 96/96/96 94/94/94
f 98/98/98 96/96/96 97/97/97
f 99/99/99 96/96/96 98/98/98
f 100/100/100 99/99/99 98/98/98
f 101/101/101 99/99/99 100/100/100
f 102/102/102 101/101/101 100/100/100
f 103/103/103 101/101/101 102/102/102
f 106/106/106 105/105/105 104/104/104
f 107/107/107 105/105/105 106/106/106
f 108/108/108 106/106/106 104/104/104
f 105/105/105 103/103/103 102/102/102
f 107/107/107 103/103/103 105/105/105
f 109/109/109 57/57/57 59/59/59
f 110/110/110 57/57/57 109/109/109
f 111/111/111 59/59/59 65/65/65
f 109/109/109 59/59/59 111/111/111
f 112/112/112 65/65/65 53/53/53
f 111/111/111 65/65/65 112/112/112
f 50/50/50 112/112/112 53/53/53
f 113/113/113 112/112/112 50/50/50
f 46/46/46 113/113/113 50/50/50
f 114/114/114 113/113/113 46/46/46
f 16/16/16 114/114/114 46/46/46
f 7/7/7 114/114/114 16/16/16
f 13/13/13 114/114/114 7/7/7
f 117/117/117 116/116/116 115/115/115
f 120/120/120 119/119/119 118/118/118
f 69/69/69 121/121/121 71/71/71
f 110/110/110 69/69/69 57/57/57
f 121/121/121 69/69/69 110/110/110
f 16/16/16 8/8/8 7/7/7
f 1/1/1 21/21/21 3/3/3
f 11/11/11 21/21/21 1/1/1
f 21/21/21 26/26/26 3/3/3
f 22/22/22 26/26/26 21/21/21
f 124/124/124 123/123/123 122/122/122
f 125/125/125 123/123/123 124/124/124
f 128/128/128 127/127/127 126/126/126
f 129/129/129 127/127/127 128/128/128
f 130/130/130 128/128/128 126/126/126
f 131/131/131 128/128/128 130/130/130
f 123/123/123 133/133/133 132/132/132
f 125/125/125 133/133/133 123/123/123
f 134/134/134 131/131/131 130/130/130
f 135/135/135 131/131/131 134/134/134
f 129/129/129 136/136/136 127/127/127
f 137/137/137 136/136/136 129/129/129
f 133/133/133 138/138/138 132/132/132
f 139/139/139 138/138/138 133/133/133
f 142/142/142 141/141/141 140/140/140
f 143/143/143 141/141/141 142/142/142
f 144/144/144 135/135/135 134/134/134
f 145/145/145 135/135/135 144/144/144
f 148/148/148 147/147/147 146/146/146
f 149/149/149 147/147/147 148/148/148
f 139/139/139 150/150/150 138/138/138
f 151/151/151 150/150/150 139/139/139
f 154/154/154 153/153/153 152/152/152
f 155/155/155 153/153/153 154/154/154
f 151/151/151 144/144/144 150/150/150
f 145/145/145 144/144/144 151/151/151
f 156/156/156 124/124/124 122/122/122
f 157/157/157 124/124/124 156/156/156
f 137/137/137 158/158/158 136/136/136
f 159/159/159 158/158/158 137/137/137
f 153/153/153 142/142/142 140/140/140
f 155/155/155 142/142/142 153/153/153
f 141/141/141 149/149/149 148/148/148
f 143/143/143 149/149/149 141/141/141
f 160/160/160 157/157/157 156/156/156
f 161/161/161 157/157/157 160/160/160
f 159/159/159 152/152/152 158/158/158
f 154/154/154 152/152/152 159/159/159
f 164/164/164 163/163/163 162/162/162
f 165/165/165 163/163/163 164/164/164
f 163/163/163 160/160/160 162/162/162
f 161/161/161 160/160/160 163/163/163
f 146/146/146 165/165/165 164/164/164
f 147/147/147 165/165/165 146/146/146
f 168/168/168 167/167/167 166/166/166
f 168/168/168 170/170/170 169/169/169
f 168/168/168 172/172/172 171/171/171
f 168/168/168 174/174/174 173/173/173
f 168/168/168 176/176/176 175/175/175
f 168/168/168 178/178/178 177/177/177
f 168/168/168 173/173/173 179/179/179
f 168/168/168 177/177/177 180/180/180
f 168/168/168 180/180/180 181/181/181
f 168/168/168 182/182/182 178/178/178
f 168/168/168 166/166/166 183/183/183
f 168/168/168 175/175/175 184/184/184
f 168/168/168 183/183/183 185/185/185
f 168/168/168 179/179/179 172/172/172
f 168/168/168 184/184/184 186/186/186
f 168/168/168 185/185/185 187/187/187
f 168/168/168 186/186/186 170/170/170
f 168/168/168 187/187/187 182/182/182
f 168/168/168 181/181/181 176/176/176
f 168/168/168 188/188/188 174/174/174
f 168/168/168 171/171/171 167/167/167
f 168/168/168 169/169/169 188/188/188
f 191/191/191 190/190/190 189/189/189
f 194/194/194 193/193/193 192/192/192
f 197/197/197 196/196/196 195/195/195
f 192/192/192 198/198/198 194/194/194
f 199/199/199 198/198/198 192/192/192
f 201/201/201 197/197/197 200/200/200
f 196/196/196 197/197/197 201/201/201
f 204/204/204 203/203/203 202/202/202
f 205/205/205 203/203/203 204/204/204
f 202/202/202 203/203/203 206/206/206
f 209/209/209 208/208/208 207/207/207
f 210/210/210 208/208/208 209/209/209
f 196/196/196 211/211/211 195/195/195
f 212/212/212 211/211/211 196/196/196
f 206/206/206 214/214/214 213/213/213
f 203/203/203 214/214/214 206/206/206
f 217/217/217 216/216/216 215/215/215
f 218/218/218 216/216/216 217/217/217
f 221/221/221 220/220/220 219/219/219
f 214/214/214 222/222/222 213/213/213
f 223/223/223 222/222/222 214/214/214
f 224/224/224 221/221/221 219/219/219
f 227/227/227 226/226/226 225/225/225
f 228/228/228 226/226/226 227/227/227
f 221/221/221 229/229/229 220/220/220
f 230/230/230 229/229/229 221/221/221
f 215/215/215 232/232/232 231/231/231
f 216/216/216 232/232/232 215/215/215
f 191/191/191 224/224/224 190/190/190
f 221/221/221 224/224/224 191/191/191
f 232/232/232 227/227/227 231/231/231
f 228/228/228 227/227/227 232/232/232
f 230/230/230 233/233/233 229/229/229
f 234/234/234 233/233/233 230/230/230
f 193/193/193 209/209/209 207/207/207
f 194/194/194 209/209/209 193/193/193
f 222/222/222 201/201/201 200/200/200
f 223/223/223 201/201/201 222/222/222
f 237/237/237 236/236/236 235/235/235
f 226/226/226 199/199/199 225/225/225
f 198/198/198 199/199/199 226/226/226
f 235/235/235 191/191/191 189/189/189
f 236/236/236 191/191/191 235/235/235
f 210/210/210 237/237/237 208/208/208
f 236/236/236 237/237/237 210/210/210
f 205/205/205 239/239/239 238/238/238
f 204/204/204 239/239/239 205/205/205
f 238/238/238 233/233/233 234/234/234
f 239/239/239 233/233/233 238/238/238
f 218/218/218 211/211/211 212/212/212
f 217/217/217 211/211/211 218/218/218
f 242/242/242 241/241/241 240/240/240
f 243/243/243 241/241/241 242/242/242
f 243/243/243 244/244/244 241/241/241
f 245/245/245 244/244/244 243/243/243
f 245/245/245 246/246/246 244/244/244
f 247/247/247 246/246/246 245/245/245
f 247/247/247 248/248/248 246/246/246
f 249/249/249 248/248/248 247/247/247
f 249/249/249 250/250/250 248/248/248
f 251/251/251 250/250/250 249/249/249
f 251/251/251 252/252/252 250/250/250
f 253/253/253 252/252/252 251/251/251
f 256/256/256 255/255/255 254/254/254
f 257/257/257 255/255/255 256/256/256
f 260/260/260 259/259/259 258/258/258
usemtl Paint.003
f 263/263/263 262/262/262 261/261/261
f 264/264/264 262/262/262 263/263/263
f 266/266/266 265/265/265 263/263/263
f 267/267/267 265/265/265 266/266/266
f 265/265/265 268/268/268 263/263/263
f 266/266/266 261/261/261 269/269/269
f 263/263/263 261/261/261 266/266/266
f 270/270/270 268/268/268 265/265/265
f 271/271/271 268/268/268 270/270/270
f 272/272/272 270/270/270 265/265/265
f 271/271/271 273/273/273 268/268/268
f 274/274/274 273/273/273 271/271/271
f 269/269/269 262/262/262 275/275/275
f 261/261/261 262/262/262 269/269/269
f 276/276/276 262/262/262 264/264/264
f 277/277/277 262/262/262 276/276/276
f 273/273/273 278/278/278 264/264/264
f 280/280/280 278/278/278 279/279/279
f 281/281/281 278/278/278 280/280/280
f 274/274/274 278/278/278 273/273/273
f 279/279/279 278/278/278 274/274/274
f 282/282/282 262/262/262 277/277/277
f 275/275/275 262/262/262 282/282/282
f 284/284/284 277/277/277 283/283/283
f 282/282/282 277/277/277 284/284/284
f 284/284/284 286/286/286 285/285/285
f 283/283/283 286/286/286 284/284/284
f 287/287/287 277/277/277 276/276/276
f 283/283/283 277/277/277 287/287/287
f 290/290/290 289/289/289 288/288/288
f 291/291/291 289/289/289 290/290/290
f 292/292/292 276/276/276 281/281/281
f 288/288/288 276/276/276 292/292/292
f 289/289/289 276/276/276 288/288/288
f 293/293/293 289/289/289 291/291/291
f 287/287/287 289/289/289 293/293/293
f 296/296/296 295/295/295 294/294/294
f 297/297/297 295/295/295 296/296/296
f 295/295/295 298/298/298 294/294/294
f 299/299/299 298/298/298 295/295/295
f 281/281/281 300/300/300 292/292/292
f 280/280/280 300/300/300 281/281/281
f 299/299/299 288/288/288 298/298/298
f 290/290/290 288/288/288 299/299/299
f 303/303/303 302/302/302 301/301/301
f 304/304/304 302/302/302 303/303/303
f 304/304/304 305/305/305 302/302/302
f 306/306/306 305/305/305 304/304/304
f 306/306/306 307/307/307 305/305/305
f 308/308/308 307/307/307 306/306/306
f 311/311/311 310/310/310 309/309/309
f 312/312/312 310/310/310 311/311/311
f 310/310/310 313/313/313 309/309/309
f 314/314/314 313/313/313 310/310/310
f 314/314/314 301/301/301 313/313/313
f 303/303/303 301/301/301 314/314/314
f 315/315/315 307/307/307 308/308/308
f 316/316/316 307/307/307 315/315/315
f 285/285/285 318/318/318 317/317/317
f 286/286/286 318/318/318 285/285/285
f 319/319/319 307/307/307 316/316/316
f 320/320/320 307/307/307 319/319/319
f 321/321/321 290/290/290 299/299/299
f 322/322/322 290/290/290 321/321/321
f 313/313/313 324/324/324 323/323/323
f 301/301/301 324/324/324 313/313/313
f 325/325/325 299/299/299 295/295/295
f 321/321/321 299/299/299 325/325/325
f 309/309/309 323/323/323 326/326/326
f 313/313/313 323/323/323 309/309/309
f 297/297/297 325/325/325 295/295/295
f 327/327/327 325/325/325 297/297/297
f 328/328/328 309/309/309 326/326/326
f 311/311/311 309/309/309 328/328/328
f 329/329/329 286/286/286 293/293/293
f 318/318/318 286/286/286 329/329/329
f 305/305/305 320/320/320 330/330/330
f 307/307/307 320/320/320 305/305/305
f 331/331/331 293/293/293 291/291/291
f 329/329/329 293/293/293 331/331/331
f 302/302/302 330/330/330 332/332/332
f 305/305/305 330/330/330 302/302/302
f 322/322/322 291/291/291 290/290/290
f 331/331/331 291/291/291 322/322/322
f 301/301/301 332/332/332 324/324/324
f 302/302/302 332/332/332 301/301/301
f 324/324/324 331/331/331 322/322/322
f 332/332/332 331/331/331 324/324/324
f 332/332/332 329/329/329 331/331/331
f 330/330/330 329/329/329 332/332/332
f 330/330/330 318/318/318 329/329/329
f 320/320/320 318/318/318 330/330/330
f 327/327/327 326/326/326 325/325/325
f 328/328/328 326/326/326 327/327/327
f 326/326/326 321/321/321 325/325/325
f 323/323/323 321/321/321 326/326/326
f 323/323/323 322/322/322 321/321/321
f 324/324/324 322/322/322 323/323/323
f 319/319/319 318/318/318 320/320/320
f 317/317/317 318/318/318 319/319/319
f 288/288/288 292/292/292 298/298/298
f 294/294/294 292/292/292 300/300/300
f 298/298/298 292/292/292 294/294/294
f 296/296/296 294/294/294 300/300/300
f 287/287/287 276/276/276 289/289/289
f 287/287/287 286/286/286 283/283/283
f 293/293/293 286/286/286 287/287/287
f 315/315/315 334/334/334 333/333/333
f 308/308/308 334/334/334 315/315/315
f 336/336/336 334/334/334 335/335/335
f 337/337/337 334/334/334 336/336/336
f 335/335/335 308/308/308 306/306/306
f 334/334/334 308/308/308 335/335/335
f 312/312/312 336/336/336 310/310/310
f 336/336/336 314/314/314 310/310/310
f 335/335/335 314/314/314 336/336/336
f 335/335/335 303/303/303 314/314/314
f 306/306/306 304/304/304 335/335/335
f 338/338/338 333/333/333 334/334/334
f 339/339/339 333/333/333 338/338/338
f 338/338/338 334/334/334 337/337/337
f 342/342/342 341/341/341 340/340/340
f 343/343/343 341/341/341 342/342/342
f 345/345/345 341/341/341 344/344/344
f 340/340/340 341/341/341 345/345/345
f 346/346/346 343/343/343 342/342/342
f 347/347/347 343/343/343 346/346/346
f 345/345/345 349/349/349 348/348/348
f 344/344/344 349/349/349 345/345/345
f 352/352/352 351/351/351 350/350/350
f 353/353/353 351/351/351 352/352/352
f 356/356/356 355/355/355 354/354/354
f 357/357/357 355/355/355 356/356/356
f 358/358/358 357/357/357 356/356/356
f 359/359/359 357/357/357 358/358/358
f 354/354/354 361/361/361 360/360/360
f 355/355/355 361/361/361 354/354/354
f 348/348/348 359/359/359 358/358/358
f 349/349/349 359/359/359 348/348/348
f 350/350/350 363/363/363 362/362/362
f 351/351/351 363/363/363 350/350/350
f 364/364/364 362/362/362 363/363/363
f 365/365/365 362/362/362 364/364/364
f 360/360/360 353/353/353 352/352/352
f 361/361/361 353/353/353 360/360/360
f 368/368/368 367/367/367 366/366/366
f 369/369/369 367/367/367 368/368/368
f 315/315/315 371/371/371 370/370/370
f 333/333/333 371/371/371 315/315/315
f 373/373/373 267/267/267 372/372/372
f 374/374/374 267/267/267 373/373/373
f 267/267/267 375/375/375 372/372/372
f 266/266/266 375/375/375 267/267/267
f 378/378/378 377/377/377 376/376/376
f 379/379/379 377/377/377 378/378/378
f 272/272/272 267/267/267 374/374/374
f 265/265/265 267/267/267 272/272/272
f 380/380/380 266/266/266 269/269/269
f 375/375/375 266/266/266 380/380/380
f 269/269/269 381/381/381 380/380/380
f 275/275/275 381/381/381 269/269/269
f 381/381/381 282/282/282 382/382/382
f 275/275/275 282/282/282 381/381/381
f 282/282/282 384/384/384 383/383/383
f 284/284/284 384/384/384 282/282/282
f 315/315/315 385/385/385 316/316/316
f 370/370/370 385/385/385 315/315/315
f 317/317/317 386/386/386 285/285/285
f 387/387/387 386/386/386 317/317/317
f 316/316/316 388/388/388 319/319/319
f 385/385/385 388/388/388 316/316/316
f 319/319/319 387/387/387 317/317/317
f 388/388/388 387/387/387 319/319/319
f 284/284/284 386/386/386 384/384/384
f 285/285/285 386/386/386 284/284/284
f 389/389/389 333/333/333 339/339/339
f 390/390/390 333/333/333 389/389/389
f 371/371/371 333/333/333 390/390/390
f 393/393/393 392/392/392 391/391/391
f 394/394/394 392/392/392 393/393/393
f 376/376/376 396/396/396 395/395/395
f 377/377/377 396/396/396 376/376/376
f 395/395/395 394/394/394 393/393/393
f 396/396/396 394/394/394 395/395/395
f 397/397/397 339/339/339 338/338/338
f 274/274/274 398/398/398 279/279/279
f 391/391/391 398/398/398 274/274/274
f 398/398/398 280/280/280 279/279/279
f 399/399/399 280/280/280 398/398/398
f 271/271/271 391/391/391 274/274/274
f 393/393/393 391/391/391 271/271/271
f 374/374/374 376/376/376 272/272/272
f 378/378/378 376/376/376 374/374/374
f 272/272/272 395/395/395 270/270/270
f 376/376/376 395/395/395 272/272/272
f 270/270/270 393/393/393 271/271/271
f 395/395/395 393/393/393 270/270/270
f 401/401/401 398/398/398 400/400/400
f 399/399/399 398/398/398 401/401/401
f 391/391/391 400/400/400 398/398/398
f 392/392/392 400/400/400 391/391/391
f 403/403/403 397/397/397 402/402/402
f 339/339/339 397/397/397 403/403/403
f 405/405/405 296/296/296 404/404/404
f 297/297/297 296/296/296 405/405/405
f 406/406/406 280/280/280 399/399/399
f 300/300/300 280/280/280 406/406/406
f 408/408/408 311/311/311 407/407/407
f 312/312/312 311/311/311 408/408/408
f 409/409/409 297/297/297 405/405/405
f 327/327/327 297/297/297 409/409/409
f 407/407/407 328/328/328 410/410/410
f 311/311/311 328/328/328 407/407/407
f 410/410/410 327/327/327 409/409/409
f 328/328/328 327/327/327 410/410/410
f 404/404/404 300/300/300 406/406/406
f 296/296/296 300/300/300 404/404/404
f 411/411/411 312/312/312 408/408/408
f 336/336/336 312/312/312 411/411/411
f 411/411/411 337/337/337 336/336/336
f 412/412/412 337/337/337 411/411/411
f 397/397/397 337/337/337 412/412/412
f 338/338/338 337/337/337 397/397/397
f 413/413/413 365/365/365 364/364/364
f 414/414/414 365/365/365 413/413/413
f 417/417/417 416/416/416 415/415/415
f 418/418/418 416/416/416 417/417/417
f 368/368/368 418/418/418 417/417/417
f 366/366/366 418/418/418 368/368/368
f 415/415/415 414/414/414 413/413/413
f 416/416/416 414/414/414 415/415/415
f 379/379/379 368/368/368 377/377/377
f 369/369/369 368/368/368 379/379/379
f 361/361/361 419/419/419 353/353/353
f 420/420/420 419/419/419 361/361/361
f 401/401/401 364/364/364 363/363/363
f 400/400/400 364/364/364 401/401/401
f 351/351/351 401/401/401 363/363/363
f 421/421/421 401/401/401 351/351/351
f 349/349/349 422/422/422 359/359/359
f 423/423/423 422/422/422 349/349/349
f 355/355/355 420/420/420 361/361/361
f 424/424/424 420/420/420 355/355/355
f 359/359/359 425/425/425 357/357/357
f 422/422/422 425/425/425 359/359/359
f 357/357/357 424/424/424 355/355/355
f 425/425/425 424/424/424 357/357/357
f 353/353/353 421/421/421 351/351/351
f 419/419/419 421/421/421 353/353/353
f 344/344/344 423/423/423 349/349/349
f 426/426/426 423/423/423 344/344/344
f 347/347/347 402/402/402 343/343/343
f 403/403/403 402/402/402 347/347/347
f 344/344/344 427/427/427 426/426/426
f 341/341/341 427/427/427 344/344/344
f 343/343/343 427/427/427 341/341/341
f 402/402/402 427/427/427 343/343/343
f 402/402/402 412/412/412 427/427/427
f 397/397/397 412/412/412 402/402/402
f 426/426/426 412/412/412 411/411/411
f 427/427/427 412/412/412 426/426/426
f 426/426/426 408/408/408 423/423/423
f 411/411/411 408/408/408 426/426/426
f 419/419/419 406/406/406 421/421/421
f 404/404/404 406/406/406 419/419/419
f 425/425/425 409/409/409 424/424/424
f 410/410/410 409/409/409 425/425/425
f 422/422/422 410/410/410 425/425/425
f 407/407/407 410/410/410 422/422/422
f 424/424/424 405/405/405 420/420/420
f 409/409/409 405/405/405 424/424/424
f 423/423/423 407/407/407 422/422/422
f 408/408/408 407/407/407 423/423/423
f 421/421/421 399/399/399 401/401/401
f 406/406/406 399/399/399 421/421/421
f 420/420/420 404/404/404 419/419/419
f 405/405/405 404/404/404 420/420/420
f 392/392/392 364/364/364 400/400/400
f 413/413/413 364/364/364 392/392/392
f 396/396/396 415/415/415 394/394/394
f 417/417/417 415/415/415 396/396/396
f 377/377/377 417/417/417 396/396/396
f 368/368/368 417/417/417 377/377/377
f 394/394/394 413/413/413 392/392/392
f 415/415/415 413/413/413 394/394/394
f 403/403/403 389/389/389 339/339/339
f 347/347/347 389/389/389 403/403/403
f 346/346/346 389/389/389 347/347/347
f 374/374/374 373/373/373 378/378/378
f 373/373/373 379/379/379 378/378/378
f 373/373/373 369/369/369 379/379/379
f 373/373/373 428/428/428 369/369/369
f 268/268/268 264/264/264 263/263/263
f 273/273/273 264/264/264 268/268/268
f 281/281/281 264/264/264 278/278/278
f 276/276/276 264/264/264 281/281/281
f 431/431/431 430/430/430 429/429/429
f 434/434/434 433/433/433 432/432/432
f 304/304/304 303/303/303 335/335/335
f 437/437/437 436/436/436 435/435/435
f 438/438/438 436/436/436 437/437/437
f 282/282/282 383/383/383 439/439/439
f 435/435/435 440/440/440 437/437/437
f 441/441/441 440/440/440 435/435/435
f 444/444/444 443/443/443 442/442/442
f 445/445/445 443/443/443 444/444/444
f 445/445/445 446/446/446 443/443/443
f 447/447/447 446/446/446 445/445/445
f 448/448/448 446/446/446 447/447/447
f 438/438/438 449/449/449 436/436/436
f 450/450/450 449/449/449 438/438/438
f 452/452/452 450/450/450 451/451/451
f 449/449/449 450/450/450 452/452/452
