# Exported from Godot Engine
mtllib Door_RF_Mirror.mtl
o Door_RF_Mirror
v 0.830865 1.081112 1.119710
vt 0.681641 0.974380
vn -0.418941 -0.905493 0.067611
v 0.825214 1.070681 1.109926
vt 0.679199 0.971680
vn -0.382670 -0.901454 0.202347
v 0.809146 1.082589 1.128840
vt 0.685547 0.970642
vn -0.403104 -0.914730 0.027865
v 0.805583 1.071763 1.118458
vt 0.682617 0.968323
vn -0.380591 -0.909149 0.169114
v 0.852149 1.079305 1.103825
vt 0.676270 0.977615
vn -0.430490 -0.895099 0.116086
v 0.844877 1.068803 1.095508
vt 0.674316 0.974609
vn -0.375688 -0.892267 0.250435
v 0.802949 1.059375 1.085465
vt 0.675293 0.964539
vn -0.394003 -0.878308 0.270808
v 0.817761 1.057737 1.075105
vt 0.671875 0.966797
vn -0.400570 -0.869270 0.289677
v 0.788465 1.060116 1.090872
vt 0.678223 0.961945
vn -0.396102 -0.881041 0.258592
v 0.782676 1.072211 1.123156
vt 0.685547 0.963989
vn -0.373991 -0.918253 0.130162
v 0.775216 1.059962 1.091162
vt 0.679199 0.959137
vn -0.401853 -0.880038 0.253076
v 0.878037 1.049993 1.013732
vt 0.653320 0.974701
vn -0.404541 -0.864989 0.296886
v 0.910370 1.060409 1.026658
vt 0.654297 0.983215
vn -0.383120 -0.891339 0.242352
v 0.925775 1.070917 1.025510
vt 0.653320 0.987450
vn -0.460023 -0.882313 0.099511
v 0.806126 1.046536 0.995675
vt 0.655762 0.957428
vn -0.426347 -0.852670 0.301963
v 0.768075 1.059963 1.091083
vt 0.679688 0.957581
vn -0.421898 -0.860988 0.284079
v 0.751828 1.072793 1.124144
vt 0.688965 0.957672
vn -0.360766 -0.927645 0.096558
v 0.760642 1.065102 1.109938
vt 0.684570 0.957916
vn -0.392081 -0.898807 0.196006
v 0.743384 1.079901 1.130889
vt 0.691895 0.956970
vn -0.340679 -0.938341 0.058770
v 0.747388 1.072774 1.123811
vt 0.689453 0.956726
vn -0.376355 -0.921357 0.097255
v 0.741904 1.089793 1.134547
vt 0.694336 0.957703
vn 0.105720 -0.947596 -0.301470
v 0.784478 1.088539 1.134133
vt 0.689941 0.966522
vn -0.341697 -0.809915 -0.476740
v 0.741998 1.085417 1.134356
vt 0.693359 0.957336
vn -0.319903 -0.947371 0.012242
v 0.784372 1.083946 1.134029
vt 0.688965 0.966003
vn -0.375560 -0.926798 -0.000020
v 0.809287 1.087217 1.128920
vt 0.686035 0.971329
vn -0.433344 -0.813093 -0.388707
v 0.830999 1.085776 1.119612
vt 0.682129 0.975204
vn -0.511758 -0.818872 -0.259908
v 0.851831 1.083921 1.103346
vt 0.676758 0.978561
vn -0.556666 -0.818833 -0.140126
v 0.924353 1.076200 1.024040
vt 0.653809 0.988647
vn -0.603687 -0.792971 -0.082208
v 0.742416 1.090248 1.133213
vt 0.694336 0.957886
vn 0.023278 -0.240657 -0.970331
v 0.784237 1.088981 1.132606
vt 0.689941 0.966705
vn -0.252772 -0.252772 -0.933924
v 0.850480 1.084841 1.101891
vt 0.677246 0.979004
vn -0.740804 -0.529153 -0.413770
v 0.923214 1.075942 1.021998
vt 0.654297 0.989227
vn -0.734448 -0.629498 -0.253611
v 0.830078 1.086593 1.118142
vt 0.682617 0.975540
vn -0.591031 -0.384168 -0.709294
v 0.808168 1.087915 1.127637
vt 0.686523 0.971466
vn -0.394329 -0.298607 -0.869102
v 0.740001 1.089526 1.132012
vt 0.694336 0.957001
vn 0.162349 -0.679054 -0.715911
v 0.743241 1.089372 1.129295
vt 0.695312 0.957458
vn 0.979626 -0.140409 -0.143591
v 0.754784 1.062338 1.109200
vt 0.685059 0.956451
vn -0.389482 -0.900214 0.194730
v 0.762355 1.057173 1.090037
vt 0.680176 0.956116
vn -0.415829 -0.861922 0.290131
v 0.800980 1.044121 0.995036
vt 0.656250 0.956116
vn -0.435784 -0.849320 0.297906
v 0.752258 1.064461 1.108137
vt 0.685059 0.955688
vn -0.384559 -0.908991 0.160778
v 0.754784 1.062338 1.109200
vt 0.685059 0.956451
vn -0.394099 -0.902843 0.171935
v 0.759860 1.059411 1.088843
vt 0.680176 0.955292
vn -0.427953 -0.868253 0.250983
v 0.762355 1.057173 1.090037
vt 0.680176 0.956116
vn -0.431054 -0.866199 0.252767
v 0.797330 1.047014 0.993343
vt 0.656250 0.954956
vn -0.417875 -0.849358 0.322448
v 0.800980 1.044121 0.995036
vt 0.656250 0.956116
vn -0.417875 -0.849358 0.322448
v 0.811085 1.043192 0.971095
vt 0.650391 0.956146
vn -0.478926 -0.806396 0.346922
v 0.816756 1.045521 0.970647
vt 0.649414 0.957458
vn -0.450878 -0.843129 0.292989
v 0.811085 1.043192 0.971095
vt 0.650391 0.956146
vn -0.464743 -0.810767 0.355907
v 0.806648 1.046350 0.969618
vt 0.650391 0.954834
vn -0.464743 -0.810767 0.355907
v 0.816614 1.045953 0.951953
vt 0.645996 0.955597
vn -0.464423 -0.751298 0.468896
v 0.821165 1.047079 0.951087
vt 0.645020 0.956451
vn -0.493642 -0.744981 0.448688
v 0.813776 1.047823 0.951371
vt 0.645996 0.954803
vn -0.419623 -0.755270 0.503471
v 0.817588 1.051937 0.941385
vt 0.643066 0.954559
vn -0.467717 -0.612852 0.636910
v 0.815577 1.053781 0.941924
vt 0.643555 0.953918
vn -0.342015 -0.621483 0.704829
v 0.811893 1.049805 0.951249
vt 0.645996 0.954163
vn -0.412074 -0.737126 0.535575
v 0.821755 1.066410 0.930449
vt 0.639160 0.953247
vn -0.514074 -0.436552 0.738343
v 0.822278 1.072304 0.928885
vt 0.638184 0.952606
vn -0.672585 -0.411547 0.615027
v 0.819399 1.067245 0.931871
vt 0.639648 0.952637
vn -0.223348 -0.398336 0.889632
v 0.820196 1.072609 0.930411
vt 0.638184 0.952148
vn -0.283523 -0.360126 0.888777
v 0.804844 1.048302 0.969051
vt 0.650391 0.954224
vn -0.456274 -0.808388 0.371917
v 0.795379 1.049072 0.992614
vt 0.656250 0.954285
vn -0.424419 -0.844186 0.327441
v 0.757385 1.061382 1.087563
vt 0.680176 0.954498
vn -0.380062 -0.879958 0.285005
v 0.749782 1.066362 1.106643
vt 0.685547 0.954926
vn -0.302582 -0.925731 0.226864
v 0.820280 1.058784 0.934454
vt 0.641113 0.953979
vn -0.489936 -0.509730 0.707205
v 0.818036 1.060064 0.935549
vt 0.641113 0.953369
vn -0.272353 -0.501938 0.820903
v 0.739847 1.086015 1.131583
vt 0.693359 0.956665
vn -0.072791 -0.996453 -0.042213
v 0.743678 1.074460 1.121999
vt 0.689941 0.955750
vn -0.282101 -0.952028 0.118583
v 0.741054 1.081104 1.128603
vt 0.691895 0.956238
vn -0.205501 -0.976107 0.070602
v 0.820893 1.073377 0.930615
vt 0.637695 0.952057
vn -0.932801 -0.357383 -0.046483
v 0.822446 1.073146 0.929454
vt 0.637695 0.952484
vn -0.977134 -0.207893 -0.044599
v 0.822744 1.073014 0.932394
vt 0.637207 0.952148
vn -0.971124 -0.006905 -0.238475
v 0.743638 1.086434 1.128302
vt 0.693359 0.955505
vn 0.104614 -0.994017 0.031400
v 0.743241 1.089372 1.129295
vt 0.694336 0.955811
vn 0.193605 -0.975526 -0.104244
v 0.744319 1.083165 1.126600
vt 0.692383 0.955261
vn -0.013774 -0.979151 0.202668
v 0.747595 1.075413 1.118402
vt 0.688965 0.954681
vn -0.138418 -0.954852 0.262867
v 0.752396 1.069636 1.106387
vt 0.685547 0.953949
vn -0.230386 -0.928951 0.289779
v 0.759777 1.064755 1.087909
vt 0.680176 0.953552
vn -0.338041 -0.883107 0.325345
v 0.797588 1.052194 0.993243
vt 0.656250 0.953400
vn -0.427567 -0.846073 0.318349
v 0.806839 1.051485 0.970079
vt 0.650391 0.953308
vn -0.455282 -0.811563 0.366174
v 0.813516 1.052641 0.953360
vt 0.645996 0.953308
vn -0.419623 -0.755270 0.503471
v 0.817028 1.055976 0.944564
vt 0.643555 0.953094
vn -0.255005 -0.607710 0.752104
v 0.819345 1.061455 0.938759
vt 0.641602 0.952606
vn -0.091387 -0.437775 0.894428
v 0.820693 1.067629 0.935379
vt 0.640137 0.951935
vn -0.014165 -0.318364 0.947863
v 0.822744 1.073014 0.932394
vt 0.638672 0.951447
vn -0.293662 -0.769592 0.567001
v 0.924353 1.076200 1.024040
vt 0.653809 0.988647
vn -0.128689 -0.927160 0.351871
v 0.923214 1.075942 1.021998
vt 0.654297 0.989227
vn -0.132427 -0.934280 0.331034
v 0.924531 1.075528 1.022885
vt 0.653809 0.988655
vn -0.133068 -0.934970 0.328822
v 0.925775 1.070917 1.025510
vt 0.653320 0.987450
vn 0.185935 -0.776756 0.601730
v 0.925817 1.070890 1.024177
vt 0.653320 0.987488
vn 0.202559 -0.799734 0.565150
v 0.910370 1.060409 1.026658
vt 0.654297 0.983215
vn -0.000021 -0.478047 0.878334
v 0.910790 1.061108 1.025452
vt 0.653809 0.983322
vn -0.016962 -0.511972 0.858835
v 0.878037 1.049993 1.013732
vt 0.653320 0.974701
vn -0.111734 -0.494771 0.861811
v 0.878569 1.050831 1.012798
vt 0.653320 0.974823
vn -0.111734 -0.494771 0.861811
v 0.862653 1.045782 0.993365
vt 0.650391 0.969437
vn -0.197074 -0.554231 0.808697
v 0.863383 1.046670 0.992626
vt 0.649902 0.969604
vn -0.206748 -0.566406 0.797772
v 0.858516 1.044902 0.969080
vt 0.645020 0.966248
vn -0.350767 -0.675235 0.648861
v 0.857533 1.043981 0.969163
vt 0.645508 0.965973
vn -0.343094 -0.672952 0.655303
v 0.861700 1.044946 0.948188
vt 0.640625 0.964661
vn -0.463547 -0.695308 0.549246
v 0.862792 1.045812 0.948349
vt 0.640137 0.964935
vn -0.466078 -0.682128 0.563447
v 0.867799 1.050376 0.936155
vt 0.637207 0.964447
vn -0.499681 -0.612529 0.612476
v 0.869003 1.051097 0.936602
vt 0.636719 0.964752
vn -0.500155 -0.575598 0.646940
v 0.871847 1.056489 0.930820
vt 0.634766 0.964325
vn -0.495821 -0.467832 0.731638
v 0.873002 1.056921 0.931534
vt 0.634766 0.964630
vn -0.500762 -0.444203 0.742914
v 0.875795 1.065127 0.926683
vt 0.632812 0.963928
vn -0.532056 -0.357629 0.767475
v 0.876901 1.065373 0.927484
vt 0.632324 0.964233
vn -0.569799 -0.334637 0.750565
v 0.877353 1.070160 0.925513
vt 0.631348 0.963593
vn -0.834501 -0.284689 0.471763
v 0.878937 1.071368 0.927068
vt 0.630859 0.963776
vn -0.864142 -0.281815 0.416939
v 0.877806 1.071152 0.926236
vt 0.631348 0.963531
vn -0.913735 -0.203070 0.351926
v 0.877353 1.070160 0.925513
vt 0.631348 0.963593
vn -0.684305 -0.383220 0.620379
v 0.875795 1.065127 0.926683
vt 0.632812 0.963928
vn -0.559639 -0.444430 0.699490
v 0.871847 1.056489 0.930820
vt 0.634766 0.964325
vn -0.517320 -0.497424 0.696383
v 0.867799 1.050376 0.936155
vt 0.637207 0.964447
vn -0.494658 -0.598423 0.630241
v 0.861700 1.044946 0.948188
vt 0.640625 0.964661
vn -0.510978 -0.735561 0.444805
v 0.857533 1.043981 0.969163
vt 0.645508 0.965973
vn -0.462806 -0.840989 0.280265
v 0.862653 1.045782 0.993365
vt 0.650391 0.969437
vn -0.468389 -0.845678 0.255814
v 0.857533 1.043981 0.969163
vt 0.645508 0.965973
vn -0.476537 -0.838368 0.264673
v 0.878037 1.049993 1.013732
vt 0.653320 0.974701
vn -0.475329 -0.850528 0.225086
v 0.877806 1.071152 0.926236
vt 0.631348 0.963531
vn -0.982944 -0.133143 -0.126865
v 0.822744 1.073014 0.932394
vt 0.637207 0.952148
vn -0.064189 0.705626 0.705671
v 0.877806 1.071152 0.926236
vt 0.631348 0.963531
vn -0.081005 0.854679 0.512798
v 0.878937 1.071368 0.927068
vt 0.630859 0.963776
vn -0.107580 0.774242 0.623680
v 0.805568 1.183793 1.007307
vt 0.532715 0.798584
vn -0.292687 -0.736607 0.609708
v 0.811098 1.184328 1.009592
vt 0.532715 0.797241
vn -0.292687 -0.736607 0.609708
v 0.775103 1.168270 1.078092
vt 0.549805 0.802490
vn -0.028393 -0.600563 0.799073
v 0.780597 1.168767 1.080529
vt 0.549805 0.801147
vn -0.037860 -0.605645 0.794834
v 0.827156 1.066355 0.945503
vt 0.517578 0.824097
vn -0.870906 -0.491073 -0.019243
v 0.832868 1.065726 0.947149
vt 0.516602 0.824951
vn -0.900013 -0.405887 -0.158846
v 0.828940 1.073938 0.941963
vt 0.517090 0.822510
vn -0.927786 -0.212769 -0.306502
v 0.834681 1.073558 0.943481
vt 0.515625 0.822876
vn -0.922461 -0.189629 -0.336314
v 0.830178 1.089120 0.940407
vt 0.516602 0.819092
vn -0.551986 -0.045206 -0.832627
v 0.835921 1.088936 0.941895
vt 0.515137 0.819092
vn -0.552554 -0.009025 -0.833428
v 0.822074 1.186580 0.968447
vt 0.523438 0.797852
vn -0.535890 -0.799088 0.272544
v 0.827643 1.187118 0.970569
vt 0.523438 0.796509
vn -0.543872 -0.797054 0.262504
v 0.831201 1.148230 0.943342
vt 0.517578 0.806030
vn -0.547459 -0.171923 -0.818982
v 0.836929 1.148132 0.944829
vt 0.516113 0.805908
vn -0.550200 -0.153332 -0.820834
v 0.824312 1.061088 0.951766
vt 0.519043 0.825317
vn -0.734217 -0.657751 0.168193
v 0.829970 1.060265 0.953648
vt 0.518555 0.826416
vn -0.760856 -0.640303 0.105403
v 0.826174 1.184087 0.958504
vt 0.520996 0.798340
vn -0.585600 -0.808679 -0.055781
v 0.831800 1.184560 0.960391
vt 0.520508 0.797119
vn -0.587774 -0.806859 -0.059163
v 0.758852 1.077917 1.108410
vt 0.556641 0.822388
vn 0.249329 -0.915562 0.315564
v 0.764325 1.077155 1.111029
vt 0.557617 0.823486
vn 0.308385 -0.909864 0.277572
v 0.763601 1.073015 1.096713
vt 0.554199 0.823486
vn -0.093476 -0.841147 0.532666
v 0.769133 1.072136 1.099085
vt 0.554199 0.824829
vn -0.102569 -0.843817 0.526737
v 0.830295 1.169158 0.947387
vt 0.518555 0.801514
vn -0.559838 -0.407984 -0.721201
v 0.836011 1.169205 0.948904
vt 0.517090 0.801025
vn -0.558443 -0.410491 -0.720860
v 0.757078 1.083899 1.113157
vt 0.558105 0.821167
vn 0.565528 -0.822667 -0.058292
v 0.756702 1.094052 1.114966
vt 0.558105 0.818970
vn 0.772873 -0.587614 -0.239533
v 0.762497 1.083413 1.116000
vt 0.559082 0.821777
vn 0.631871 -0.768629 -0.099741
v 0.762103 1.093885 1.117876
vt 0.559570 0.818970
vn 0.797007 -0.564777 -0.214028
v 0.828693 1.178774 0.952053
vt 0.519531 0.799438
vn -0.595608 -0.678049 -0.430698
v 0.834379 1.179042 0.953687
vt 0.518555 0.798584
vn -0.586799 -0.695105 -0.415328
v 0.776412 1.066649 1.065777
vt 0.546387 0.824829
vn -0.310354 -0.855842 0.413781
v 0.781962 1.065756 1.068087
vt 0.546875 0.826172
vn -0.310354 -0.855842 0.413781
v 0.806066 1.058520 0.994769
vt 0.529297 0.826172
vn -0.412008 -0.842755 0.346430
v 0.811638 1.057620 0.997011
vt 0.529297 0.827637
vn -0.412008 -0.842755 0.346430
v 0.770048 1.161829 1.089487
vt 0.552246 0.803955
vn 0.315354 -0.605883 0.730382
v 0.775501 1.162227 1.092104
vt 0.553223 0.802856
vn 0.298130 -0.596284 0.745362
v 0.818441 1.057760 0.965376
vt 0.522461 0.826172
vn -0.572877 -0.782012 0.245498
v 0.824035 1.056860 0.967532
vt 0.522461 0.827515
vn -0.584729 -0.778125 0.229378
v 0.766182 1.152572 1.097809
vt 0.554199 0.806030
vn 0.570383 -0.630687 0.526210
v 0.771600 1.152809 1.100583
vt 0.555176 0.805176
vn 0.577885 -0.634133 0.513737
v 0.759512 1.119231 1.110590
vt 0.557617 0.813354
vn 0.779608 -0.625186 0.036802
v 0.762640 1.137944 1.104875
vt 0.556152 0.809204
vn 0.724888 -0.640125 0.254513
v 0.764913 1.119245 1.113472
vt 0.558594 0.813110
vn 0.774149 -0.629039 0.070733
v 0.768043 1.138036 1.107729
vt 0.557129 0.808716
vn 0.726320 -0.641355 0.247232
v 0.795724 1.117778 1.024649
vt 0.536621 0.813354
vn -0.471902 -0.818614 0.327381
v 0.805568 1.183793 1.007307
vt 0.532715 0.798584
vn -0.471902 -0.818614 0.327381
v 0.775103 1.168270 1.078092
vt 0.549805 0.802490
vn -0.471902 -0.818614 0.327381
v 0.827156 1.066355 0.945503
vt 0.517578 0.824097
vn -0.471902 -0.818614 0.327381
v 0.828940 1.073938 0.941963
vt 0.517090 0.822510
vn -0.471902 -0.818614 0.327381
v 0.826174 1.184087 0.958504
vt 0.520996 0.798340
vn -0.468227 -0.821757 0.324775
v 0.822074 1.186580 0.968447
vt 0.523438 0.797852
vn -0.471902 -0.818614 0.327381
v 0.831201 1.148230 0.943342
vt 0.517578 0.806030
vn -0.468227 -0.821757 0.324775
v 0.830295 1.169158 0.947387
vt 0.518555 0.801514
vn -0.468227 -0.821757 0.324775
v 0.776412 1.066649 1.065777
vt 0.546387 0.824829
vn -0.471902 -0.818614 0.327381
v 0.806066 1.058520 0.994769
vt 0.529297 0.826172
vn -0.468227 -0.821757 0.324775
v 0.756702 1.094052 1.114966
vt 0.558105 0.818970
vn -0.471902 -0.818614 0.327381
v 0.757078 1.083899 1.113157
vt 0.558105 0.821167
vn -0.471902 -0.818614 0.327381
v 0.828693 1.178774 0.952053
vt 0.519531 0.799438
vn -0.468227 -0.821757 0.324775
v 0.758852 1.077917 1.108410
vt 0.556641 0.822388
vn -0.471902 -0.818614 0.327381
v 0.763601 1.073015 1.096713
vt 0.554199 0.823486
vn -0.475635 -0.815399 0.329994
v 0.759512 1.119231 1.110590
vt 0.557617 0.813354
vn -0.471902 -0.818614 0.327381
v 0.770048 1.161829 1.089487
vt 0.552246 0.803955
vn -0.471902 -0.818614 0.327381
v 0.818441 1.057760 0.965376
vt 0.522461 0.826172
vn -0.467108 -0.824562 0.319230
v 0.766182 1.152572 1.097809
vt 0.554199 0.806030
vn -0.471902 -0.818614 0.327381
v 0.824312 1.061088 0.951766
vt 0.519043 0.825317
vn -0.468227 -0.821757 0.324775
v 0.762640 1.137944 1.104875
vt 0.556152 0.809204
vn -0.471902 -0.818614 0.327381
v 0.830178 1.089120 0.940407
vt 0.516602 0.819092
vn -0.468227 -0.821757 0.324775
v 0.836011 1.169205 0.948904
vt 0.047241 0.884216
vn 0.552930 -0.832801 -0.026660
v 0.819304 1.178880 0.941049
vt 0.045074 0.880310
vn 0.566853 -0.823376 -0.027011
v 0.818181 1.183586 0.943856
vt 0.046021 0.879211
vn 0.466933 -0.879051 0.096142
v 0.811098 1.184328 1.009592
vt 0.061768 0.881958
vn -0.614569 -0.757366 0.220685
v 0.800525 1.191049 0.987459
vt 0.058411 0.877075
vn -0.574127 -0.783746 0.236898
v 0.788470 1.187198 1.017160
vt 0.065979 0.878723
vn -0.640120 -0.741213 0.202114
v 0.747595 1.075413 1.118402
vt 0.088318 0.909058
vn -0.660887 -0.747729 -0.064255
v 0.764325 1.077155 1.111029
vt 0.084595 0.907593
vn -0.636489 -0.771071 -0.018210
v 0.744319 1.083165 1.126600
vt 0.090454 0.907227
vn -0.669006 -0.734745 -0.112164
v 0.760561 1.172659 1.085876
vt 0.082458 0.884033
vn -0.726146 -0.687497 0.007699
v 0.780597 1.168767 1.080529
vt 0.078552 0.886719
vn -0.686847 -0.719173 0.105025
v 0.769133 1.072136 1.099085
vt 0.081665 0.908508
vn -0.566804 -0.814771 0.121987
v 0.752396 1.069636 1.106387
vt 0.085205 0.910767
vn -0.621434 -0.782387 0.041120
v 0.829970 1.060265 0.953648
vt 0.046539 0.908081
vn 0.232284 -0.711566 0.663113
v 0.824035 1.056860 0.967532
vt 0.049683 0.909180
vn -0.204348 -0.795853 0.569965
v 0.817028 1.055976 0.944564
vt 0.044220 0.910522
vn 0.301361 -0.738875 0.602698
v 0.813516 1.052641 0.953360
vt 0.046509 0.911926
vn 0.032086 -0.690529 0.722593
v 0.806839 1.051485 0.970079
vt 0.051056 0.912903
vn -0.326624 -0.836315 0.440334
v 0.831800 1.184560 0.960391
vt 0.050140 0.881226
vn 0.018333 -0.831201 0.555670
v 0.812729 1.191496 0.957365
vt 0.050079 0.876953
vn -0.046864 -0.829007 0.557271
v 0.827643 1.187118 0.970569
vt 0.052551 0.880737
vn -0.437006 -0.809424 0.392248
v 0.810552 1.192133 0.962740
vt 0.051666 0.876709
vn -0.403073 -0.806120 0.433247
v 0.762497 1.083413 1.116000
vt 0.085876 0.906311
vn -0.690874 -0.710858 -0.131814
v 0.743638 1.086434 1.128302
vt 0.090942 0.906433
vn -0.696499 -0.704521 -0.136161
v 0.811638 1.057620 0.997011
vt 0.056824 0.909729
vn -0.427567 -0.846073 0.318349
v 0.797588 1.052194 0.993243
vt 0.057037 0.913208
vn -0.427567 -0.846073 0.318349
v 0.762103 1.093885 1.117876
vt 0.086487 0.904053
vn -0.734448 -0.629498 -0.253611
v 0.764913 1.119245 1.113472
vt 0.085754 0.898254
vn -0.782600 -0.552991 -0.285898
v 0.743241 1.089372 1.129295
vt 0.091248 0.905762
vn -0.751064 -0.613293 -0.244487
v 0.747273 1.132979 1.118331
vt 0.089905 0.895142
vn -0.799357 -0.523408 -0.295081
v 0.836929 1.148132 0.944829
vt 0.045959 0.888672
vn 0.664611 -0.737642 -0.119064
v 0.822232 1.122865 0.933379
vt 0.041229 0.893860
vn 0.676728 -0.723979 -0.133768
v 0.821816 1.145181 0.934584
vt 0.041931 0.888611
vn 0.679202 -0.722426 -0.129555
v 0.781962 1.065756 1.068087
vt 0.074097 0.909302
vn -0.458181 -0.845874 0.273070
v 0.759777 1.064755 1.087909
vt 0.080322 0.911987
vn -0.518557 -0.832170 0.196445
v 0.820871 1.164321 0.937067
vt 0.043060 0.883850
vn 0.612982 -0.786103 -0.079341
v 0.771600 1.152809 1.100583
vt 0.083130 0.890564
vn -0.799705 -0.586179 -0.129869
v 0.775501 1.162227 1.092104
vt 0.081177 0.888306
vn -0.759737 -0.650131 -0.011386
v 0.752546 1.160328 1.105544
vt 0.087097 0.888245
vn -0.802530 -0.575065 -0.158888
v 0.755737 1.167273 1.097731
vt 0.085327 0.886169
vn -0.783087 -0.613213 -0.103659
v 0.835921 1.088936 0.941895
vt 0.044403 0.901733
vn 0.768673 -0.639375 0.018481
v 0.822256 1.075065 0.933782
vt 0.041046 0.905334
vn 0.756636 -0.639950 -0.134039
v 0.768043 1.138036 1.107729
vt 0.084656 0.893982
vn -0.811672 -0.522418 -0.261282
v 0.750142 1.150824 1.111398
vt 0.088440 0.890686
vn -0.808918 -0.513918 -0.285551
v 0.834681 1.073558 0.943481
vt 0.044556 0.905090
vn 0.706520 -0.675198 0.211983
v 0.820693 1.067629 0.935379
vt 0.041565 0.907349
vn 0.706663 -0.687111 0.168839
v 0.814813 1.189970 0.952214
vt 0.048553 0.877502
vn 0.203502 -0.890438 0.407072
v 0.834379 1.179042 0.953687
vt 0.048523 0.882263
vn 0.375703 -0.906747 0.191461
v 0.816660 1.187359 0.947636
vt 0.047241 0.878296
vn 0.389440 -0.900221 0.194776
v 0.819345 1.061455 0.938759
vt 0.042603 0.908997
vn 0.582082 -0.721282 0.375409
v 0.832868 1.065726 0.947149
vt 0.045197 0.906799
vn 0.579129 -0.713454 0.394453
v 0.908016 1.077875 1.019212
vt 0.833008 0.974579
vn -0.514692 -0.284942 0.808641
v 0.910790 1.061108 1.025452
vt 0.834473 0.975327
vn -0.544820 -0.295509 0.784758
v 0.923214 1.075942 1.021998
vt 0.832520 0.975357
vn -0.666998 -0.433131 0.606227
v 0.925817 1.070890 1.024177
vt 0.832520 0.975754
vn -0.666998 -0.433131 0.606227
v 0.875805 1.076198 1.006643
vt 0.834473 0.972672
vn -0.176425 -0.105047 0.978693
v 0.878569 1.050831 1.012798
vt 0.836426 0.973312
vn -0.224500 -0.120891 0.966946
v 0.860622 1.074530 0.986538
vt 0.834961 0.970978
vn 0.023486 -0.035270 0.999102
v 0.863383 1.046670 0.992626
vt 0.836914 0.971405
vn -0.000015 -0.003968 0.999992
v 0.855753 1.072939 0.963047
vt 0.834961 0.969315
vn 0.092625 -0.123531 0.988008
v 0.858516 1.044902 0.969080
vt 0.836914 0.969528
vn 0.087309 -0.087345 0.992345
v 0.860024 1.071775 0.942346
vt 0.833984 0.967957
vn -0.021208 -0.172958 0.984701
v 0.862792 1.045812 0.948349
vt 0.836426 0.967926
vn 0.068003 -0.120981 0.990323
v 0.878937 1.071368 0.927068
vt 0.832520 0.967072
vn -0.347546 -0.420933 0.837871
v 0.869003 1.051097 0.936602
vt 0.835449 0.967010
vn -0.142642 -0.221476 0.964677
v 0.876901 1.065373 0.927484
vt 0.632324 0.964233
vn -0.449670 0.552162 0.702078
v 0.873002 1.056921 0.931534
vt 0.634766 0.964630
vn -0.453067 0.572234 0.683578
v 0.878937 1.071368 0.927068
vt 0.630859 0.963776
vn -0.490871 0.558138 0.668974
v 0.869003 1.051097 0.936602
vt 0.636719 0.964752
vn -0.523080 0.582504 0.622155
v 0.924531 1.075528 1.022885
vt 0.832520 0.975494
vn -0.437491 -0.166258 0.883720
v 0.923214 1.075942 1.021998
vt 0.832520 0.975357
vn -0.437491 -0.166258 0.883720
v 0.925817 1.070890 1.024177
vt 0.832520 0.975754
vn -0.437491 -0.166258 0.883720
v 0.815163 1.161155 1.099591
vt 0.654297 0.438965
vn 0.153812 -0.343426 -0.926499
v 0.833722 1.142619 1.097684
vt 0.654297 0.443359
vn 0.177975 -0.434397 -0.882963
v 0.804378 1.146581 1.114093
vt 0.650391 0.438965
vn 0.253837 -0.689602 -0.678244
v 0.822520 1.132968 1.111199
vt 0.650879 0.442871
vn 0.236438 -0.613311 -0.753622
v 0.784573 1.089763 1.134830
vt 0.640137 0.441406
vn 0.242431 -0.842608 -0.480872
v 0.784944 1.151303 1.116618
vt 0.649414 0.435547
vn 0.245163 -0.793871 -0.556474
v 0.809489 1.088722 1.130086
vt 0.642578 0.445801
vn 0.291961 -0.708568 -0.642409
v 0.788208 1.160783 1.110854
vt 0.651367 0.435059
vn 0.211756 -0.606107 -0.766677
v 0.831386 1.087428 1.120175
vt 0.645996 0.449219
vn 0.260662 -0.595848 -0.759619
v 0.752230 1.164225 1.109825
vt 0.649414 0.429688
vn 0.210753 -0.643469 -0.735888
v 0.749546 1.153817 1.116240
vt 0.647461 0.430176
vn 0.221856 -0.765131 -0.604446
v 0.746438 1.135273 1.123463
vt 0.644043 0.431152
vn 0.232479 -0.843249 -0.484649
v 0.755849 1.172120 1.100976
vt 0.651855 0.429199
vn 0.195745 -0.448502 -0.872084
v 0.792656 1.168871 1.102096
vt 0.653320 0.435059
vn 0.189431 -0.457642 -0.868723
v 0.852413 1.085703 1.103285
vt 0.649902 0.453125
vn 0.212718 -0.411285 -0.886339
v 0.898715 1.146416 1.015954
vt 0.670410 0.451172
vn 0.197232 -0.288813 -0.936850
v 0.868990 1.175744 1.019171
vt 0.669922 0.443848
vn 0.145624 -0.255836 -0.955689
v 0.799420 1.174330 1.090208
vt 0.655762 0.435059
vn 0.145123 -0.212392 -0.966348
v 0.835745 1.188608 1.019724
vt 0.668945 0.437988
vn 0.121668 -0.193317 -0.973563
v 0.789269 1.192896 1.017585
vt 0.667969 0.429688
vn 0.118324 -0.165021 -0.979167
v 0.761034 1.177995 1.088122
vt 0.654297 0.428711
vn 0.162047 -0.204357 -0.965391
v 0.930239 1.077740 1.016748
vt 0.669434 0.464844
vn 0.229677 -0.194895 -0.953553
v 0.979430 1.072096 0.952883
vt 0.685547 0.468262
vn 0.238312 -0.034571 -0.970573
v 0.938050 1.144581 0.955882
vt 0.682129 0.455078
vn 0.211531 -0.138742 -0.967474
v 0.940824 1.144402 0.950338
vt 0.683105 0.455078
vn 0.986761 -0.013761 -0.161599
v 0.983745 1.071549 0.946647
vt 0.687012 0.468262
vn 0.992169 -0.089922 -0.086693
v 0.918591 1.165693 0.958590
vt 0.680664 0.450195
vn 0.168657 -0.175716 -0.969886
v 0.904368 1.177202 0.955715
vt 0.681152 0.447266
vn 0.073834 -0.029547 -0.996833
v 0.901840 1.177546 0.961196
vt 0.680176 0.447266
vn 0.115191 -0.165652 -0.979434
v 0.885746 1.186312 0.956846
vt 0.680664 0.443848
vn 0.045385 0.000000 -0.998970
v 0.883335 1.186603 0.962595
vt 0.679688 0.443848
vn 0.095154 -0.168428 -0.981110
v 0.851111 1.191839 0.988912
vt 0.674805 0.438965
vn 0.101301 -0.144743 -0.984270
v 0.920929 1.165452 0.953336
vt 0.681641 0.450684
vn 0.118238 -0.021532 -0.992752
v 0.814117 1.197143 0.955223
vt 0.680176 0.432129
vn 0.991861 -0.019099 0.125889
v 0.846750 1.195609 0.956422
vt 0.680176 0.437500
vn 0.993654 -0.019117 0.110844
v 0.811667 1.197929 0.961411
vt 0.678711 0.431641
vn 0.041766 -0.015211 -0.999012
v 0.844321 1.196115 0.962705
vt 0.679199 0.437500
vn 0.056341 -0.075156 -0.995579
v 0.865877 1.192455 0.956893
vt 0.680176 0.440918
vn 0.999273 -0.033313 0.018525
v 0.863639 1.192732 0.963074
vt 0.679199 0.440430
vn 0.066724 -0.089001 -0.993794
v 0.801435 1.196813 0.987111
vt 0.673828 0.430664
vn 0.081280 -0.110876 -0.990505
v 0.903831 1.167848 0.934978
vt 0.684570 0.447266
vn -0.699353 -0.128210 0.703184
v 0.905536 1.172078 0.938873
vt 0.683594 0.447266
vn -0.859062 -0.073453 0.506574
v 0.887148 1.175432 0.935810
vt 0.684570 0.444336
vn -0.694629 -0.115791 0.709988
v 0.887683 1.180195 0.939716
vt 0.683594 0.444336
vn -0.845065 -0.070428 0.530005
v 0.917974 1.158067 0.933586
vt 0.685547 0.450195
vn -0.662784 -0.177845 0.727385
v 0.921036 1.161279 0.937171
vt 0.684570 0.450195
vn -0.868071 -0.087559 0.488658
v 0.934074 1.141131 0.930822
vt 0.686523 0.453613
vn -0.664662 -0.262375 0.699560
v 0.938780 1.142892 0.934069
vt 0.686035 0.454102
vn -0.878418 -0.161653 0.449723
v 0.821511 1.181790 0.936135
vt 0.685059 0.433594
vn -0.527201 -0.071898 0.846694
v 0.851946 1.181394 0.935610
vt 0.684570 0.438477
vn -0.468525 -0.072740 0.880451
v 0.820300 1.187425 0.939362
vt 0.683594 0.433105
vn -0.698777 -0.038837 0.714285
v 0.851181 1.186960 0.939215
vt 0.683594 0.438477
vn -0.723343 -0.050040 0.688674
v 0.869228 1.179487 0.935722
vt 0.684570 0.441406
vn -0.547972 -0.104771 0.829910
v 0.868609 1.184796 0.939428
vt 0.683594 0.441406
vn -0.801999 -0.064325 0.593852
v 0.979762 1.070404 0.927225
vt 0.690918 0.466797
vn -0.949638 -0.211760 0.230967
v 0.972611 1.070519 0.925301
vt 0.691895 0.465820
vn -0.778692 -0.336852 0.529310
v 0.942301 1.144282 0.944491
vt 0.684082 0.454590
vn 0.992748 -0.085004 0.085004
v 0.986781 1.070984 0.939644
vt 0.688477 0.468262
vn 0.984988 -0.082695 0.151529
v 0.941746 1.143934 0.938971
vt 0.685059 0.454590
vn -0.924666 -0.051785 0.377241
v 0.985508 1.070527 0.932094
vt 0.689941 0.467773
vn -0.963583 -0.086684 0.252971
v 0.887167 1.185585 0.950801
vt 0.681641 0.444336
vn 0.989210 -0.015358 0.145699
v 0.867209 1.191356 0.950538
vt 0.681152 0.440918
vn 0.974584 -0.003945 0.223989
v 0.887809 1.183637 0.944899
vt 0.682617 0.444336
vn -0.931551 -0.026747 0.362627
v 0.868082 1.188874 0.944515
vt 0.682617 0.440918
vn -0.907319 -0.030504 0.419335
v 0.848671 1.194200 0.950100
vt 0.681152 0.437988
vn 0.946301 -0.000058 0.323287
v 0.850156 1.191383 0.944156
vt 0.682617 0.437988
vn -0.859577 -0.026876 0.510299
v 0.816472 1.195286 0.949241
vt 0.681152 0.432617
vn 0.942993 -0.000058 0.332813
v 0.818591 1.192047 0.943808
vt 0.682617 0.433105
vn -0.846564 -0.019433 0.531932
v 0.922442 1.164918 0.947796
vt 0.682617 0.450684
vn 0.996436 -0.066229 0.052245
v 0.922608 1.163648 0.942168
vt 0.683594 0.450684
vn -0.930064 -0.007827 0.367314
v 0.905924 1.176623 0.949888
vt 0.682129 0.447266
vn 0.995636 -0.040285 0.084176
v 0.906365 1.175074 0.944047
vt 0.682617 0.447266
vn -0.937175 -0.015507 0.348515
v 0.886892 1.142573 0.927466
vt 0.689941 0.446289
vn -0.502321 -0.210802 0.838591
v 0.895397 1.072723 0.924254
vt 0.700195 0.452637
vn -0.538607 -0.269291 0.798364
v 0.823812 1.146405 0.929212
vt 0.691895 0.435547
vn -0.429062 -0.162002 0.888629
v 0.823013 1.166178 0.931856
vt 0.687988 0.434570
vn -0.402011 -0.113076 0.908626
v 0.878802 1.161719 0.930444
vt 0.687012 0.443848
vn -0.498569 -0.152143 0.853394
v 0.821648 1.075155 0.928558
vt 0.703613 0.439453
vn -0.039976 -0.031971 0.998689
v 0.824059 1.123617 0.927859
vt 0.695801 0.437012
vn -0.403292 -0.197075 0.893598
v 0.821036 1.123643 0.930827
vt 0.696289 0.436035
vn 0.073149 -0.182919 0.980403
v 0.820670 1.146277 0.932069
vt 0.691895 0.434570
vn 0.082805 -0.143064 0.986243
v 0.822232 1.122865 0.933379
vt 0.696289 0.435547
vn 0.142597 -0.221469 0.964685
v 0.821816 1.145181 0.934584
vt 0.692383 0.434082
vn 0.154045 -0.184898 0.970610
v 0.820871 1.164321 0.937067
vt 0.688477 0.433105
vn 0.163713 -0.126924 0.978309
v 0.819767 1.165743 0.934597
vt 0.688477 0.433594
vn 0.113545 -0.089238 0.989517
v 0.821029 1.075238 0.931252
vt 0.704102 0.438965
vn 0.179187 -0.414444 0.892260
v 0.822256 1.075065 0.933782
vt 0.704590 0.438477
vn 0.288876 -0.444813 0.847757
v 0.818226 1.180685 0.938648
vt 0.685059 0.432617
vn 0.276024 -0.079502 0.957857
v 0.819304 1.178880 0.941049
vt 0.685547 0.432129
vn 0.282130 -0.106908 0.953401
v 0.809143 1.195227 0.961453
vt 0.679199 0.431152
vn 0.983285 -0.173888 0.053983
v 0.798984 1.194166 0.986708
vt 0.673828 0.429688
vn 0.992293 -0.084330 -0.090796
v 0.810552 1.192133 0.962740
vt 0.679199 0.430176
vn 0.982059 -0.188209 0.011742
v 0.800525 1.191049 0.987459
vt 0.673828 0.429199
vn 0.990505 -0.071704 -0.117293
v 0.815538 1.189809 0.945467
vt 0.682617 0.432129
vn 0.780420 -0.161368 0.604074
v 0.813613 1.192724 0.950299
vt 0.681641 0.431641
vn 0.900777 -0.171928 0.398801
v 0.816660 1.187359 0.947636
vt 0.683105 0.431641
vn 0.796968 -0.184226 0.575241
v 0.814813 1.189970 0.952214
vt 0.681641 0.431152
vn 0.914468 -0.193057 0.355637
v 0.817098 1.185699 0.941529
vt 0.684082 0.432129
vn 0.575602 -0.133785 0.806712
v 0.818181 1.183586 0.943856
vt 0.684082 0.431641
vn 0.600999 -0.164686 0.782099
v 0.811434 1.194463 0.955743
vt 0.680176 0.431152
vn 0.959364 -0.175925 0.220615
v 0.812729 1.191496 0.957365
vt 0.680176 0.430664
vn 0.964065 -0.190957 0.184701
v 0.786824 1.190266 1.016898
vt 0.667969 0.428711
vn 0.177052 -0.055556 -0.982632
v 0.788470 1.187198 1.017160
vt 0.667969 0.428223
vn 0.185015 -0.055866 -0.981147
v 0.760561 1.172659 1.085876
vt 0.654297 0.427734
vn 0.148868 -0.248182 -0.957206
v 0.758652 1.175467 1.086756
vt 0.654297 0.428223
vn 0.149461 -0.284803 -0.946863
v 0.739738 1.090676 1.132316
vt 0.636719 0.433594
vn -0.285198 -0.957864 0.034044
v 0.742262 1.090019 1.129807
vt 0.636230 0.433105
vn -0.300080 -0.952483 -0.052223
v 0.744805 1.134431 1.120602
vt 0.644043 0.430664
vn -0.031670 -0.998366 -0.047570
v 0.747273 1.132979 1.118331
vt 0.643555 0.429688
vn -0.063550 -0.993406 -0.095430
v 0.895517 1.070852 0.926544
vt 0.700684 0.453125
vn -0.355786 -0.545471 0.758866
v 0.972924 1.068478 0.927470
vt 0.692383 0.466309
vn -0.579896 -0.591786 0.559920
v 0.741101 1.090980 1.134929
vt 0.636719 0.434082
vn 0.054746 -0.962407 -0.266036
v 0.741851 1.088100 1.131550
vt 0.636230 0.434082
vn -0.335845 -0.937736 0.088654
v 0.784332 1.087421 1.132996
vt 0.639648 0.441895
vn 0.321671 -0.943013 0.085170
v 0.808977 1.086379 1.128333
vt 0.642090 0.445801
vn 0.453027 -0.877791 -0.155720
v 0.739406 1.090874 1.133705
vt 0.636719 0.433594
vn 0.106975 -0.976463 0.187288
v 0.744386 1.135063 1.122226
vt 0.644043 0.430664
vn 0.074987 -0.994923 -0.067127
v 0.739835 1.091013 1.134825
vt 0.636719 0.433594
vn 0.298946 -0.931822 -0.205764
v 0.745107 1.135314 1.123325
vt 0.644043 0.431152
vn 0.189725 -0.936569 -0.294692
v 0.830377 1.085086 1.118679
vt 0.645508 0.449707
vn 0.502928 -0.749873 -0.429830
v 0.851279 1.083347 1.101895
vt 0.649414 0.453613
vn 0.437067 -0.491212 -0.753448
v 0.923214 1.075942 1.021998
vt 0.667969 0.464355
vn 0.406096 -0.351468 -0.843538
v 0.978431 1.069579 0.951656
vt 0.685547 0.468750
vn 0.290782 -0.021058 -0.956558
v 0.929133 1.075332 1.015424
vt 0.669434 0.465332
vn 0.348277 -0.242000 -0.905616
v 0.979368 1.068093 0.929077
vt 0.691406 0.467285
vn -0.852257 -0.467901 0.233938
v 0.985512 1.068308 0.939467
vt 0.688477 0.468750
vn -0.949026 -0.011699 0.314980
v 0.982631 1.068960 0.945684
vt 0.687012 0.468750
vn 0.990986 -0.089828 -0.099390
v 0.984405 1.067936 0.933076
vt 0.689941 0.468262
vn -0.955068 -0.251349 0.157059
v 0.878937 1.071368 0.927068
vt 0.701660 0.449707
vn -0.491151 -0.611934 0.619926
v 0.822744 1.073014 0.932394
vt 0.704590 0.439453
vn 0.265727 -0.512014 0.816842
v 0.750053 1.163803 1.108652
vt 0.649414 0.429199
vn 0.136705 -0.805073 -0.577208
v 0.753578 1.171465 1.099967
vt 0.651367 0.428711
vn 0.163167 -0.543954 -0.823098
v 0.750829 1.164317 1.109658
vt 0.649414 0.429199
vn 0.193801 -0.715731 -0.670947
v 0.754397 1.172173 1.100832
vt 0.651367 0.428711
vn 0.190376 -0.488599 -0.851486
v 0.747419 1.153515 1.115032
vt 0.647461 0.429688
vn 0.101667 -0.954144 -0.281554
v 0.748168 1.153870 1.116106
vt 0.647461 0.429688
vn 0.191633 -0.868277 -0.457572
v 0.821887 1.123697 0.927968
vt 0.695801 0.436523
vn -0.297792 -0.208452 0.931594
v 0.759535 1.178049 1.087956
vt 0.654297 0.428711
vn 0.175464 -0.210589 -0.961699
v 0.787491 1.192979 1.017398
vt 0.667969 0.429199
vn 0.125179 -0.128805 -0.983737
v 0.786775 1.192083 1.016956
vt 0.667969 0.429199
vn 0.148080 -0.056453 -0.987363
v 0.758682 1.177205 1.087264
vt 0.654297 0.428223
vn 0.168974 -0.260536 -0.950562
v 0.821034 1.075068 0.929506
vt 0.704102 0.439453
vn -0.147737 -0.391440 0.908266
v 0.821125 1.123662 0.928938
vt 0.695801 0.436035
vn -0.080808 -0.179928 0.980355
v 0.812065 1.197182 0.955111
vt 0.680176 0.431641
vn 0.973528 -0.040593 0.224934
v 0.809644 1.197990 0.961285
vt 0.678711 0.431641
vn 0.998727 -0.049943 -0.007137
v 0.799528 1.196901 0.986944
vt 0.673828 0.430176
vn 0.094426 -0.029086 -0.995107
v 0.819358 1.181765 0.936128
vt 0.685059 0.433105
vn -0.369682 -0.044211 0.928106
v 0.818161 1.187389 0.939335
vt 0.683594 0.433105
vn -0.581526 -0.019663 0.813290
v 0.814389 1.195287 0.949152
vt 0.681152 0.432129
vn 0.898744 -0.023050 0.437868
v 0.816477 1.192018 0.943751
vt 0.682617 0.432617
vn 0.738149 -0.000065 0.674637
v 0.820846 1.166259 0.931886
vt 0.687988 0.434082
vn -0.309866 -0.092151 0.946304
v 0.821642 1.146497 0.929272
vt 0.691895 0.435059
vn -0.276816 -0.138439 0.950898
v 0.755737 1.167273 1.097731
vt 0.651367 0.427734
vn 0.114071 -0.559544 -0.820913
v 0.753667 1.169901 1.099075
vt 0.651367 0.428223
vn 0.121280 -0.580785 -0.804972
v 0.750142 1.150824 1.111398
vt 0.646973 0.428711
vn -0.015804 -0.973183 -0.229491
v 0.752546 1.160328 1.105544
vt 0.649414 0.428223
vn 0.053949 -0.840218 -0.539559
v 0.747767 1.152663 1.113500
vt 0.647461 0.429199
vn 0.011800 -0.976213 -0.216493
v 0.750298 1.162595 1.107350
vt 0.649414 0.428711
vn 0.072985 -0.837445 -0.541627
v 0.811427 1.196207 0.955048
vt 0.680176 0.431641
vn 0.945605 -0.119080 0.302738
v 0.809045 1.197045 0.961058
vt 0.679199 0.431152
vn 0.984719 -0.119890 0.126314
v 0.798885 1.195990 0.986589
vt 0.673828 0.430176
vn 0.995190 -0.084862 -0.048943
v 0.818491 1.181305 0.936927
vt 0.685059 0.433105
vn 0.176030 -0.016029 0.984254
v 0.817336 1.186685 0.939960
vt 0.684082 0.432617
vn 0.464103 -0.052032 0.884252
v 0.813697 1.194317 0.949294
vt 0.681641 0.432129
vn 0.856840 -0.105312 0.504712
v 0.815714 1.191138 0.944144
vt 0.682617 0.432129
vn 0.691192 -0.080644 0.718157
v 0.819994 1.166024 0.932786
vt 0.687988 0.433594
vn -0.031482 -0.039349 0.998729
v 0.820831 1.146390 0.930216
vt 0.691895 0.434570
vn -0.067509 -0.127482 0.989541
v 0.822744 1.073014 0.932394
vt 0.704590 0.439453
vn -0.371711 -0.487888 0.789807
v 0.822256 1.075065 0.933782
vt 0.704590 0.438477
vn 0.015354 -0.046127 0.998818
v 0.820693 1.067629 0.935379
vt 0.705566 0.439941
vn -0.118959 -0.211856 0.970034
v 0.742262 1.090019 1.129807
vt 0.636230 0.433105
vn -0.111760 -0.982077 -0.151769
v 0.743241 1.089372 1.129295
vt 0.636230 0.432617
vn -0.111760 -0.982077 -0.151769
v 0.747273 1.132979 1.118331
vt 0.643555 0.429688
vn -0.111760 -0.982077 -0.151769
v 0.978431 1.069579 0.951656
vt 0.826172 0.972076
vn -0.780482 -0.551460 -0.294517
v 0.972924 1.068478 0.927470
vt 0.826172 0.970108
vn -0.781575 -0.546158 -0.301418
v 0.929133 1.075332 1.015424
vt 0.831543 0.975113
vn -0.771619 -0.584404 -0.251149
v 0.895517 1.070852 0.926544
vt 0.831543 0.967529
vn -0.788249 -0.525516 -0.320151
v 0.923214 1.075942 1.021998
vt 0.667969 0.464355
vn 0.400395 -0.357721 -0.843635
v 0.878937 1.071368 0.927068
vt 0.832520 0.967072
vn -0.791355 -0.504901 -0.344721
v 0.923214 1.075942 1.021998
vt 0.832520 0.975357
vn -0.770197 -0.588991 -0.244716
v 0.860024 1.071775 0.942346
vt 0.833984 0.967957
vn -0.794870 -0.355614 -0.491651
v 0.908016 1.077875 1.019212
vt 0.833008 0.974579
vn -0.770197 -0.588991 -0.244716
v 0.878937 1.071368 0.927068
vt 0.832520 0.967072
vn -0.786851 -0.356705 -0.503614
v 0.923214 1.075942 1.021998
vt 0.832520 0.975357
vn -0.753899 -0.622382 -0.210422
v 0.855753 1.072939 0.963047
vt 0.834961 0.969315
vn -0.816436 -0.337071 -0.468844
v 0.875805 1.076198 1.006643
vt 0.834473 0.972672
vn -0.804367 -0.523528 -0.280912
v 0.860622 1.074530 0.986538
vt 0.834961 0.970978
vn -0.814998 -0.450007 -0.365065
v 0.982631 1.068960 0.945684
vt 0.825684 0.971771
vn -0.764365 -0.576692 -0.288396
v 0.979368 1.068093 0.929077
vt 0.825684 0.970444
vn -0.765465 -0.571769 -0.295201
v 0.984405 1.067936 0.933076
vt 0.825195 0.970901
vn -0.757379 -0.583999 -0.292099
v 0.985512 1.068308 0.939467
vt 0.825684 0.971420
vn -0.755308 -0.591500 -0.282203
usemtl Exterior.003
f 3/3/3 2/2/2 1/1/1
f 4/4/4 2/2/2 3/3/3
f 2/2/2 5/5/5 1/1/1
f 6/6/6 5/5/5 2/2/2
f 7/7/7 6/6/6 2/2/2
f 8/8/8 6/6/6 7/7/7
f 9/9/9 2/2/2 4/4/4
f 7/7/7 2/2/2 9/9/9
f 10/10/10 9/9/9 4/4/4
f 11/11/11 9/9/9 10/10/10
f 13/13/13 8/8/8 12/12/12
f 6/6/6 8/8/8 13/13/13
f 14/14/14 6/6/6 13/13/13
f 5/5/5 6/6/6 14/14/14
f 16/16/16 15/15/15 11/11/11
f 9/9/9 15/15/15 7/7/7
f 9/9/9 11/11/11 15/15/15
f 18/18/18 10/10/10 17/17/17
f 11/11/11 10/10/10 18/18/18
f 20/20/20 17/17/17 19/19/19
f 16/16/16 11/11/11 18/18/18
f 23/23/23 22/22/22 21/21/21
f 24/24/24 22/22/22 23/23/23
f 3/3/3 26/26/26 25/25/25
f 1/1/1 26/26/26 3/3/3
f 1/1/1 27/27/27 26/26/26
f 5/5/5 27/27/27 1/1/1
f 14/14/14 27/27/27 5/5/5
f 28/28/28 27/27/27 14/14/14
f 23/23/23 10/10/10 24/24/24
f 19/19/19 10/10/10 23/23/23
f 17/17/17 10/10/10 19/19/19
f 22/22/22 29/29/29 21/21/21
f 30/30/30 29/29/29 22/22/22
f 28/28/28 31/31/31 27/27/27
f 32/32/32 31/31/31 28/28/28
f 27/27/27 33/33/33 26/26/26
f 31/31/31 33/33/33 27/27/27
f 30/30/30 25/25/25 34/34/34
f 22/22/22 25/25/25 30/30/30
f 21/21/21 36/36/36 35/35/35
f 29/29/29 36/36/36 21/21/21
f 34/34/34 26/26/26 33/33/33
f 25/25/25 26/26/26 34/34/34
f 18/18/18 20/20/20 37/37/37
f 17/17/17 20/20/20 18/18/18
f 18/18/18 38/38/38 16/16/16
f 37/37/37 38/38/38 18/18/18
f 16/16/16 39/39/39 15/15/15
f 38/38/38 39/39/39 16/16/16
f 41/41/41 20/20/20 40/40/40
f 43/43/43 40/40/40 42/42/42
f 41/41/41 40/40/40 43/43/43
f 45/45/45 42/42/42 44/44/44
f 43/43/43 42/42/42 45/45/45
f 47/47/47 39/39/39 46/46/46
f 15/15/15 39/39/39 47/47/47
f 45/45/45 49/49/49 48/48/48
f 44/44/44 49/49/49 45/45/45
f 50/50/50 47/47/47 46/46/46
f 51/51/51 47/47/47 50/50/50
f 50/50/50 49/49/49 52/52/52
f 48/48/48 49/49/49 50/50/50
f 52/52/52 53/53/53 50/50/50
f 50/50/50 53/53/53 51/51/51
f 52/52/52 54/54/54 53/53/53
f 55/55/55 54/54/54 52/52/52
f 58/58/58 57/57/57 56/56/56
f 59/59/59 57/57/57 58/58/58
f 44/44/44 60/60/60 49/49/49
f 61/61/61 60/60/60 44/44/44
f 40/40/40 62/62/62 42/42/42
f 63/63/63 62/62/62 40/40/40
f 53/53/53 65/65/65 64/64/64
f 54/54/54 65/65/65 53/53/53
f 42/42/42 61/61/61 44/44/44
f 62/62/62 61/61/61 42/42/42
f 21/21/21 66/66/66 23/23/23
f 35/35/35 66/66/66 21/21/21
f 49/49/49 55/55/55 52/52/52
f 60/60/60 55/55/55 49/49/49
f 64/64/64 58/58/58 56/56/56
f 65/65/65 58/58/58 64/64/64
f 19/19/19 67/67/67 20/20/20
f 68/68/68 67/67/67 19/19/19
f 20/20/20 63/63/63 40/40/40
f 67/67/67 63/63/63 20/20/20
f 23/23/23 68/68/68 19/19/19
f 66/66/66 68/68/68 23/23/23
f 69/69/69 57/57/57 59/59/59
f 70/70/70 57/57/57 69/69/69
f 71/71/71 70/70/70 69/69/69
f 66/66/66 73/73/73 72/72/72
f 35/35/35 73/73/73 66/66/66
f 74/74/74 66/66/66 72/72/72
f 68/68/68 66/66/66 74/74/74
f 67/67/67 74/74/74 75/75/75
f 68/68/68 74/74/74 67/67/67
f 63/63/63 75/75/75 76/76/76
f 67/67/67 75/75/75 63/63/63
f 62/62/62 76/76/76 77/77/77
f 63/63/63 76/76/76 62/62/62
f 61/61/61 77/77/77 78/78/78
f 62/62/62 77/77/77 61/61/61
f 60/60/60 78/78/78 79/79/79
f 61/61/61 78/78/78 60/60/60
f 55/55/55 79/79/79 80/80/80
f 60/60/60 79/79/79 55/55/55
f 81/81/81 55/55/55 80/80/80
f 54/54/54 55/55/55 81/81/81
f 82/82/82 54/54/54 81/81/81
f 65/65/65 54/54/54 82/82/82
f 83/83/83 65/65/65 82/82/82
f 58/58/58 65/65/65 83/83/83
f 59/59/59 83/83/83 84/84/84
f 58/58/58 83/83/83 59/59/59
f 59/59/59 84/84/84 69/69/69
f 87/87/87 86/86/86 85/85/85
f 89/89/89 85/85/85 88/88/88
f 87/87/87 85/85/85 89/89/89
f 91/91/91 88/88/88 90/90/90
f 89/89/89 88/88/88 91/91/91
f 93/93/93 90/90/90 92/92/92
f 91/91/91 90/90/90 93/93/93
f 95/95/95 92/92/92 94/94/94
f 93/93/93 92/92/92 95/95/95
f 95/95/95 97/97/97 96/96/96
f 94/94/94 97/97/97 95/95/95
f 99/99/99 97/97/97 98/98/98
f 96/96/96 97/97/97 99/99/99
f 101/101/101 98/98/98 100/100/100
f 99/99/99 98/98/98 101/101/101
f 103/103/103 100/100/100 102/102/102
f 101/101/101 100/100/100 103/103/103
f 106/106/106 105/105/105 104/104/104
f 107/107/107 105/105/105 106/106/106
f 107/107/107 106/106/106 108/108/108
f 105/105/105 102/102/102 104/104/104
f 103/103/103 102/102/102 105/105/105
f 110/110/110 57/57/57 109/109/109
f 56/56/56 57/57/57 110/110/110
f 111/111/111 56/56/56 110/110/110
f 64/64/64 56/56/56 111/111/111
f 112/112/112 64/64/64 111/111/111
f 53/53/53 64/64/64 112/112/112
f 51/51/51 112/112/112 113/113/113
f 53/53/53 112/112/112 51/51/51
f 47/47/47 113/113/113 114/114/114
f 51/51/51 113/113/113 47/47/47
f 117/117/117 116/116/116 115/115/115
f 8/8/8 114/114/114 12/12/12
f 15/15/15 114/114/114 8/8/8
f 47/47/47 114/114/114 15/15/15
f 71/71/71 118/118/118 70/70/70
f 121/121/121 120/120/120 119/119/119
f 109/109/109 70/70/70 118/118/118
f 57/57/57 70/70/70 109/109/109
f 8/8/8 7/7/7 15/15/15
f 4/4/4 24/24/24 10/10/10
f 3/3/3 24/24/24 4/4/4
f 24/24/24 25/25/25 22/22/22
f 3/3/3 25/25/25 24/24/24
f 124/124/124 123/123/123 122/122/122
f 125/125/125 123/123/123 124/124/124
f 128/128/128 127/127/127 126/126/126
f 129/129/129 127/127/127 128/128/128
f 131/131/131 128/128/128 130/130/130
f 129/129/129 128/128/128 131/131/131
f 123/123/123 132/132/132 122/122/122
f 133/133/133 132/132/132 123/123/123
f 135/135/135 130/130/130 134/134/134
f 131/131/131 130/130/130 135/135/135
f 126/126/126 137/137/137 136/136/136
f 127/127/127 137/137/137 126/126/126
f 132/132/132 139/139/139 138/138/138
f 133/133/133 139/139/139 132/132/132
f 142/142/142 141/141/141 140/140/140
f 143/143/143 141/141/141 142/142/142
f 145/145/145 134/134/134 144/144/144
f 135/135/135 134/134/134 145/145/145
f 148/148/148 147/147/147 146/146/146
f 149/149/149 147/147/147 148/148/148
f 138/138/138 151/151/151 150/150/150
f 139/139/139 151/151/151 138/138/138
f 154/154/154 153/153/153 152/152/152
f 155/155/155 153/153/153 154/154/154
f 150/150/150 145/145/145 144/144/144
f 151/151/151 145/145/145 150/150/150
f 157/157/157 124/124/124 156/156/156
f 125/125/125 124/124/124 157/157/157
f 136/136/136 159/159/159 158/158/158
f 137/137/137 159/159/159 136/136/136
f 153/153/153 142/142/142 152/152/152
f 143/143/143 142/142/142 153/153/153
f 141/141/141 146/146/146 140/140/140
f 148/148/148 146/146/146 141/141/141
f 161/161/161 156/156/156 160/160/160
f 157/157/157 156/156/156 161/161/161
f 158/158/158 155/155/155 154/154/154
f 159/159/159 155/155/155 158/158/158
f 164/164/164 163/163/163 162/162/162
f 165/165/165 163/163/163 164/164/164
f 163/163/163 161/161/161 160/160/160
f 165/165/165 161/161/161 163/163/163
f 149/149/149 162/162/162 147/147/147
f 164/164/164 162/162/162 149/149/149
f 168/168/168 167/167/167 166/166/166
f 170/170/170 169/169/169 166/166/166
f 172/172/172 171/171/171 166/166/166
f 174/174/174 173/173/173 166/166/166
f 176/176/176 175/175/175 166/166/166
f 178/178/178 177/177/177 166/166/166
f 179/179/179 174/174/174 166/166/166
f 180/180/180 178/178/178 166/166/166
f 181/181/181 180/180/180 166/166/166
f 177/177/177 182/182/182 166/166/166
f 183/183/183 168/168/168 166/166/166
f 184/184/184 176/176/176 166/166/166
f 185/185/185 183/183/183 166/166/166
f 171/171/171 179/179/179 166/166/166
f 186/186/186 184/184/184 166/166/166
f 187/187/187 185/185/185 166/166/166
f 169/169/169 186/186/186 166/166/166
f 182/182/182 187/187/187 166/166/166
f 175/175/175 181/181/181 166/166/166
f 173/173/173 188/188/188 166/166/166
f 167/167/167 172/172/172 166/166/166
f 188/188/188 170/170/170 166/166/166
f 191/191/191 190/190/190 189/189/189
f 194/194/194 193/193/193 192/192/192
f 197/197/197 196/196/196 195/195/195
f 194/194/194 199/199/199 198/198/198
f 192/192/192 199/199/199 194/194/194
f 200/200/200 195/195/195 196/196/196
f 201/201/201 195/195/195 200/200/200
f 204/204/204 203/203/203 202/202/202
f 205/205/205 203/203/203 204/204/204
f 206/206/206 203/203/203 205/205/205
f 209/209/209 208/208/208 207/207/207
f 210/210/210 208/208/208 209/209/209
f 196/196/196 212/212/212 211/211/211
f 197/197/197 212/212/212 196/196/196
f 206/206/206 213/213/213 203/203/203
f 214/214/214 213/213/213 206/206/206
f 217/217/217 216/216/216 215/215/215
f 218/218/218 216/216/216 217/217/217
f 221/221/221 220/220/220 219/219/219
f 213/213/213 223/223/223 222/222/222
f 214/214/214 223/223/223 213/213/213
f 221/221/221 219/219/219 224/224/224
f 227/227/227 226/226/226 225/225/225
f 228/228/228 226/226/226 227/227/227
f 219/219/219 230/230/230 229/229/229
f 220/220/220 230/230/230 219/219/219
f 218/218/218 231/231/231 216/216/216
f 232/232/232 231/231/231 218/218/218
f 189/189/189 224/224/224 219/219/219
f 190/190/190 224/224/224 189/189/189
f 231/231/231 227/227/227 225/225/225
f 232/232/232 227/227/227 231/231/231
f 229/229/229 234/234/234 233/233/233
f 230/230/230 234/234/234 229/229/229
f 193/193/193 209/209/209 192/192/192
f 210/210/210 209/209/209 193/193/193
f 223/223/223 200/200/200 222/222/222
f 201/201/201 200/200/200 223/223/223
f 237/237/237 236/236/236 235/235/235
f 226/226/226 198/198/198 199/199/199
f 228/228/228 198/198/198 226/226/226
f 237/237/237 189/189/189 236/236/236
f 191/191/191 189/189/189 237/237/237
f 207/207/207 235/235/235 236/236/236
f 208/208/208 235/235/235 207/207/207
f 202/202/202 238/238/238 204/204/204
f 239/239/239 238/238/238 202/202/202
f 239/239/239 234/234/234 238/238/238
f 233/233/233 234/234/234 239/239/239
f 215/215/215 212/212/212 217/217/217
f 211/211/211 212/212/212 215/215/215
f 242/242/242 241/241/241 240/240/240
f 243/243/243 241/241/241 242/242/242
f 240/240/240 245/245/245 244/244/244
f 241/241/241 245/245/245 240/240/240
f 244/244/244 247/247/247 246/246/246
f 245/245/245 247/247/247 244/244/244
f 246/246/246 249/249/249 248/248/248
f 247/247/247 249/249/249 246/246/246
f 248/248/248 251/251/251 250/250/250
f 249/249/249 251/251/251 248/248/248
f 250/250/250 253/253/253 252/252/252
f 251/251/251 253/253/253 250/250/250
f 256/256/256 255/255/255 254/254/254
f 257/257/257 255/255/255 256/256/256
f 260/260/260 259/259/259 258/258/258
usemtl Paint.003
f 263/263/263 262/262/262 261/261/261
f 264/264/264 262/262/262 263/263/263
f 267/267/267 266/266/266 265/265/265
f 263/263/263 266/266/266 267/267/267
f 263/263/263 268/268/268 266/266/266
f 267/267/267 264/264/264 263/263/263
f 269/269/269 264/264/264 267/267/267
f 271/271/271 268/268/268 270/270/270
f 266/266/266 268/268/268 271/271/271
f 266/266/266 271/271/271 272/272/272
f 270/270/270 274/274/274 273/273/273
f 268/268/268 274/274/274 270/270/270
f 269/269/269 262/262/262 264/264/264
f 275/275/275 262/262/262 269/269/269
f 277/277/277 262/262/262 276/276/276
f 261/261/261 262/262/262 277/277/277
f 261/261/261 278/278/278 274/274/274
f 280/280/280 278/278/278 279/279/279
f 281/281/281 278/278/278 280/280/280
f 273/273/273 278/278/278 281/281/281
f 274/274/274 278/278/278 273/273/273
f 282/282/282 262/262/262 275/275/275
f 276/276/276 262/262/262 282/282/282
f 283/283/283 276/276/276 282/282/282
f 284/284/284 276/276/276 283/283/283
f 283/283/283 285/285/285 284/284/284
f 286/286/286 285/285/285 283/283/283
f 287/287/287 276/276/276 284/284/284
f 277/277/277 276/276/276 287/287/287
f 290/290/290 289/289/289 288/288/288
f 291/291/291 289/289/289 290/290/290
f 291/291/291 277/277/277 289/289/289
f 292/292/292 277/277/277 291/291/291
f 279/279/279 277/277/277 292/292/292
f 293/293/293 289/289/289 287/287/287
f 288/288/288 289/289/289 293/293/293
f 296/296/296 295/295/295 294/294/294
f 297/297/297 295/295/295 296/296/296
f 295/295/295 299/299/299 298/298/298
f 297/297/297 299/299/299 295/295/295
f 279/279/279 300/300/300 280/280/280
f 292/292/292 300/300/300 279/279/279
f 298/298/298 291/291/291 290/290/290
f 299/299/299 291/291/291 298/298/298
f 303/303/303 302/302/302 301/301/301
f 304/304/304 302/302/302 303/303/303
f 301/301/301 306/306/306 305/305/305
f 302/302/302 306/306/306 301/301/301
f 305/305/305 308/308/308 307/307/307
f 306/306/306 308/308/308 305/305/305
f 311/311/311 310/310/310 309/309/309
f 312/312/312 310/310/310 311/311/311
f 310/310/310 314/314/314 313/313/313
f 312/312/312 314/314/314 310/310/310
f 313/313/313 304/304/304 303/303/303
f 314/314/314 304/304/304 313/313/313
f 316/316/316 308/308/308 315/315/315
f 307/307/307 308/308/308 316/316/316
f 286/286/286 317/317/317 285/285/285
f 318/318/318 317/317/317 286/286/286
f 320/320/320 308/308/308 319/319/319
f 315/315/315 308/308/308 320/320/320
f 322/322/322 290/290/290 321/321/321
f 298/298/298 290/290/290 322/322/322
f 314/314/314 323/323/323 304/304/304
f 324/324/324 323/323/323 314/314/314
f 325/325/325 298/298/298 322/322/322
f 295/295/295 298/298/298 325/325/325
f 312/312/312 324/324/324 314/314/314
f 326/326/326 324/324/324 312/312/312
f 294/294/294 325/325/325 327/327/327
f 295/295/295 325/325/325 294/294/294
f 328/328/328 312/312/312 311/311/311
f 326/326/326 312/312/312 328/328/328
f 329/329/329 285/285/285 317/317/317
f 293/293/293 285/285/285 329/329/329
f 306/306/306 319/319/319 308/308/308
f 330/330/330 319/319/319 306/306/306
f 331/331/331 293/293/293 329/329/329
f 288/288/288 293/293/293 331/331/331
f 302/302/302 330/330/330 306/306/306
f 332/332/332 330/330/330 302/302/302
f 321/321/321 288/288/288 331/331/331
f 290/290/290 288/288/288 321/321/321
f 304/304/304 332/332/332 302/302/302
f 323/323/323 332/332/332 304/304/304
f 323/323/323 331/331/331 332/332/332
f 321/321/321 331/331/331 323/323/323
f 332/332/332 329/329/329 330/330/330
f 331/331/331 329/329/329 332/332/332
f 330/330/330 317/317/317 319/319/319
f 329/329/329 317/317/317 330/330/330
f 327/327/327 326/326/326 328/328/328
f 325/325/325 326/326/326 327/327/327
f 326/326/326 322/322/322 324/324/324
f 325/325/325 322/322/322 326/326/326
f 324/324/324 321/321/321 323/323/323
f 322/322/322 321/321/321 324/324/324
f 320/320/320 317/317/317 318/318/318
f 319/319/319 317/317/317 320/320/320
f 299/299/299 292/292/292 291/291/291
f 297/297/297 292/292/292 299/299/299
f 300/300/300 292/292/292 297/297/297
f 300/300/300 297/297/297 296/296/296
f 289/289/289 277/277/277 287/287/287
f 287/287/287 285/285/285 293/293/293
f 284/284/284 285/285/285 287/287/287
f 316/316/316 333/333/333 307/307/307
f 334/334/334 333/333/333 316/316/316
f 336/336/336 333/333/333 335/335/335
f 337/337/337 333/333/333 336/336/336
f 337/337/337 307/307/307 333/333/333
f 305/305/305 307/307/307 337/337/337
f 310/310/310 336/336/336 309/309/309
f 336/336/336 313/313/313 337/337/337
f 310/310/310 313/313/313 336/336/336
f 313/313/313 303/303/303 337/337/337
f 337/337/337 301/301/301 305/305/305
f 339/339/339 334/334/334 338/338/338
f 333/333/333 334/334/334 339/339/339
f 335/335/335 333/333/333 339/339/339
f 342/342/342 341/341/341 340/340/340
f 343/343/343 341/341/341 342/342/342
f 344/344/344 341/341/341 343/343/343
f 345/345/345 341/341/341 344/344/344
f 347/347/347 340/340/340 346/346/346
f 342/342/342 340/340/340 347/347/347
f 344/344/344 348/348/348 345/345/345
f 349/349/349 348/348/348 344/344/344
f 352/352/352 351/351/351 350/350/350
f 353/353/353 351/351/351 352/352/352
f 356/356/356 355/355/355 354/354/354
f 357/357/357 355/355/355 356/356/356
f 359/359/359 354/354/354 358/358/358
f 356/356/356 354/354/354 359/359/359
f 357/357/357 360/360/360 355/355/355
f 361/361/361 360/360/360 357/357/357
f 349/349/349 358/358/358 348/348/348
f 359/359/359 358/358/358 349/349/349
f 353/353/353 362/362/362 351/351/351
f 363/363/363 362/362/362 353/353/353
f 365/365/365 363/363/363 364/364/364
f 362/362/362 363/363/363 365/365/365
f 361/361/361 350/350/350 360/360/360
f 352/352/352 350/350/350 361/361/361
f 368/368/368 367/367/367 366/366/366
f 369/369/369 367/367/367 368/368/368
f 316/316/316 370/370/370 334/334/334
f 371/371/371 370/370/370 316/316/316
f 373/373/373 265/265/265 372/372/372
f 374/374/374 265/265/265 373/373/373
f 265/265/265 375/375/375 267/267/267
f 374/374/374 375/375/375 265/265/265
f 378/378/378 377/377/377 376/376/376
f 379/379/379 377/377/377 378/378/378
f 272/272/272 265/265/265 266/266/266
f 372/372/372 265/265/265 272/272/272
f 380/380/380 267/267/267 375/375/375
f 269/269/269 267/267/267 380/380/380
f 269/269/269 381/381/381 275/275/275
f 380/380/380 381/381/381 269/269/269
f 381/381/381 282/282/282 275/275/275
f 382/382/382 282/282/282 381/381/381
f 282/282/282 383/383/383 283/283/283
f 384/384/384 383/383/383 282/282/282
f 316/316/316 385/385/385 371/371/371
f 315/315/315 385/385/385 316/316/316
f 318/318/318 387/387/387 386/386/386
f 286/286/286 387/387/387 318/318/318
f 315/315/315 388/388/388 385/385/385
f 320/320/320 388/388/388 315/315/315
f 320/320/320 386/386/386 388/388/388
f 318/318/318 386/386/386 320/320/320
f 283/283/283 387/387/387 286/286/286
f 383/383/383 387/387/387 283/283/283
f 389/389/389 334/334/334 370/370/370
f 390/390/390 334/334/334 389/389/389
f 338/338/338 334/334/334 390/390/390
f 393/393/393 392/392/392 391/391/391
f 394/394/394 392/392/392 393/393/393
f 379/379/379 395/395/395 377/377/377
f 396/396/396 395/395/395 379/379/379
f 396/396/396 391/391/391 395/395/395
f 393/393/393 391/391/391 396/396/396
f 339/339/339 338/338/338 397/397/397
f 273/273/273 398/398/398 394/394/394
f 281/281/281 398/398/398 273/273/273
f 398/398/398 280/280/280 399/399/399
f 281/281/281 280/280/280 398/398/398
f 270/270/270 394/394/394 393/393/393
f 273/273/273 394/394/394 270/270/270
f 372/372/372 379/379/379 378/378/378
f 272/272/272 379/379/379 372/372/372
f 272/272/272 396/396/396 379/379/379
f 271/271/271 396/396/396 272/272/272
f 271/271/271 393/393/393 396/396/396
f 270/270/270 393/393/393 271/271/271
f 400/400/400 398/398/398 399/399/399
f 401/401/401 398/398/398 400/400/400
f 394/394/394 401/401/401 392/392/392
f 398/398/398 401/401/401 394/394/394
f 402/402/402 397/397/397 338/338/338
f 403/403/403 397/397/397 402/402/402
f 404/404/404 296/296/296 294/294/294
f 405/405/405 296/296/296 404/404/404
f 406/406/406 280/280/280 300/300/300
f 399/399/399 280/280/280 406/406/406
f 407/407/407 311/311/311 309/309/309
f 408/408/408 311/311/311 407/407/407
f 409/409/409 294/294/294 327/327/327
f 404/404/404 294/294/294 409/409/409
f 408/408/408 328/328/328 311/311/311
f 410/410/410 328/328/328 408/408/408
f 410/410/410 327/327/327 328/328/328
f 409/409/409 327/327/327 410/410/410
f 405/405/405 300/300/300 296/296/296
f 406/406/406 300/300/300 405/405/405
f 411/411/411 309/309/309 336/336/336
f 407/407/407 309/309/309 411/411/411
f 411/411/411 335/335/335 412/412/412
f 336/336/336 335/335/335 411/411/411
f 397/397/397 335/335/335 339/339/339
f 412/412/412 335/335/335 397/397/397
f 414/414/414 364/364/364 413/413/413
f 365/365/365 364/364/364 414/414/414
f 417/417/417 416/416/416 415/415/415
f 418/418/418 416/416/416 417/417/417
f 368/368/368 415/415/415 369/369/369
f 417/417/417 415/415/415 368/368/368
f 418/418/418 413/413/413 416/416/416
f 414/414/414 413/413/413 418/418/418
f 376/376/376 368/368/368 366/366/366
f 377/377/377 368/368/368 376/376/376
f 360/360/360 420/420/420 419/419/419
f 350/350/350 420/420/420 360/360/360
f 400/400/400 365/365/365 401/401/401
f 362/362/362 365/365/365 400/400/400
f 351/351/351 400/400/400 421/421/421
f 362/362/362 400/400/400 351/351/351
f 348/348/348 423/423/423 422/422/422
f 358/358/358 423/423/423 348/348/348
f 355/355/355 419/419/419 424/424/424
f 360/360/360 419/419/419 355/355/355
f 358/358/358 425/425/425 423/423/423
f 354/354/354 425/425/425 358/358/358
f 354/354/354 424/424/424 425/425/425
f 355/355/355 424/424/424 354/354/354
f 350/350/350 421/421/421 420/420/420
f 351/351/351 421/421/421 350/350/350
f 345/345/345 422/422/422 426/426/426
f 348/348/348 422/422/422 345/345/345
f 346/346/346 403/403/403 402/402/402
f 340/340/340 403/403/403 346/346/346
f 345/345/345 427/427/427 341/341/341
f 426/426/426 427/427/427 345/345/345
f 340/340/340 427/427/427 403/403/403
f 341/341/341 427/427/427 340/340/340
f 403/403/403 412/412/412 397/397/397
f 427/427/427 412/412/412 403/403/403
f 426/426/426 412/412/412 427/427/427
f 411/411/411 412/412/412 426/426/426
f 426/426/426 407/407/407 411/411/411
f 422/422/422 407/407/407 426/426/426
f 420/420/420 406/406/406 405/405/405
f 421/421/421 406/406/406 420/420/420
f 425/425/425 409/409/409 410/410/410
f 424/424/424 409/409/409 425/425/425
f 423/423/423 410/410/410 408/408/408
f 425/425/425 410/410/410 423/423/423
f 424/424/424 404/404/404 409/409/409
f 419/419/419 404/404/404 424/424/424
f 422/422/422 408/408/408 407/407/407
f 423/423/423 408/408/408 422/422/422
f 421/421/421 399/399/399 406/406/406
f 400/400/400 399/399/399 421/421/421
f 419/419/419 405/405/405 404/404/404
f 420/420/420 405/405/405 419/419/419
f 392/392/392 365/365/365 414/414/414
f 401/401/401 365/365/365 392/392/392
f 395/395/395 418/418/418 417/417/417
f 391/391/391 418/418/418 395/395/395
f 377/377/377 417/417/417 368/368/368
f 395/395/395 417/417/417 377/377/377
f 391/391/391 414/414/414 418/418/418
f 392/392/392 414/414/414 391/391/391
f 338/338/338 390/390/390 402/402/402
f 402/402/402 390/390/390 346/346/346
f 346/346/346 390/390/390 347/347/347
f 378/378/378 373/373/373 372/372/372
f 378/378/378 376/376/376 373/373/373
f 376/376/376 366/366/366 373/373/373
f 366/366/366 367/367/367 373/373/373
f 268/268/268 261/261/261 274/274/274
f 263/263/263 261/261/261 268/268/268
f 279/279/279 261/261/261 277/277/277
f 278/278/278 261/261/261 279/279/279
f 430/430/430 429/429/429 428/428/428
f 433/433/433 432/432/432 431/431/431
f 337/337/337 303/303/303 301/301/301
f 436/436/436 435/435/435 434/434/434
f 437/437/437 435/435/435 436/436/436
f 438/438/438 384/384/384 282/282/282
f 437/437/437 440/440/440 439/439/439
f 436/436/436 440/440/440 437/437/437
f 443/443/443 442/442/442 441/441/441
f 444/444/444 442/442/442 443/443/443
f 441/441/441 446/446/446 445/445/445
f 442/442/442 446/446/446 441/441/441
f 445/445/445 446/446/446 447/447/447
f 434/434/434 449/449/449 448/448/448
f 435/435/435 449/449/449 434/434/434
f 450/450/450 448/448/448 449/449/449
f 451/451/451 448/448/448 450/450/450
