# Exported from Godot Engine
mtllib Door_Top_LR.mtl
o Door_Top_LR
v -0.506540 1.587348 -0.180292
vt 1.523776 1.338445
vn 0.033265 -0.437505 -0.898601
v -0.510910 1.622571 -0.191729
vt 1.523781 1.343220
vn 0.018785 -0.314534 -0.949060
v -0.509419 1.588434 -0.178534
vt 1.524244 1.338480
vn -0.929977 -0.235267 -0.282475
v -0.513629 1.622697 -0.189561
vt 1.524231 1.343178
vn -0.952325 -0.171298 -0.252454
v -0.503488 1.561548 -0.161866
vt 1.523639 1.334539
vn 0.061397 -0.695416 -0.715980
v -0.506407 1.562870 -0.160452
vt 1.524084 1.334525
vn -0.906786 -0.347881 -0.238154
v -0.501172 1.545977 -0.140142
vt 1.523578 1.331347
vn 0.089077 -0.896407 -0.434188
v -0.504110 1.547602 -0.139163
vt 1.524030 1.331315
vn -0.896358 -0.411969 -0.163777
v -0.501491 1.536952 -0.110705
vt 1.523723 1.327756
vn 0.103477 -0.984531 -0.141390
v -0.504454 1.538715 -0.110207
vt 1.524172 1.327663
vn -0.893805 -0.438680 -0.093126
v -0.501998 1.537118 -0.086080
vt 1.523546 1.325083
vn 0.113801 -0.962820 0.245006
v -0.504973 1.538877 -0.087004
vt 1.523924 1.325062
vn -0.879978 -0.472286 0.050849
v -0.503759 1.544774 -0.077061
vt 1.523723 1.323790
vn 0.068685 -0.392989 0.916974
v -0.506731 1.546058 -0.078610
vt 1.524101 1.323805
vn -0.901264 -0.337712 0.271428
v -0.438679 1.554895 -0.081616
vt 1.515679 1.324217
vn 0.955988 -0.058015 0.287613
v -0.438650 1.549155 -0.087846
vt 1.515834 1.325204
vn 0.970199 -0.242304 0.001797
v -0.441187 1.552653 -0.079966
vt 1.516056 1.324213
vn 0.125782 -0.393317 0.910758
v -0.440924 1.546735 -0.086574
vt 1.516198 1.325171
vn 0.174876 -0.952051 0.251033
v -0.443021 1.544865 -0.110622
vt 1.516208 1.327873
vn 0.169392 -0.975914 -0.137467
v -0.440635 1.547440 -0.110402
vt 1.515755 1.327812
vn 0.965427 -0.235045 -0.112713
v -0.445500 1.553409 -0.140106
vt 1.516311 1.331410
vn 0.154957 -0.887058 -0.434875
v -0.443079 1.555738 -0.139098
vt 1.515857 1.331380
vn 0.963027 -0.202140 -0.178098
v -0.447022 1.569177 -0.160883
vt 1.516206 1.334502
vn 0.131374 -0.686814 -0.714862
v -0.444610 1.571109 -0.159278
vt 1.515752 1.334473
vn 0.965210 -0.124230 -0.230078
v -0.449374 1.591197 -0.177845
vt 1.516178 1.337906
vn 0.100590 -0.437844 -0.893406
v -0.446889 1.592464 -0.175725
vt 1.515713 1.337849
vn 0.963786 -0.073017 -0.256487
v -0.450342 1.624354 -0.189090
vt 1.515861 1.342288
vn 0.087683 -0.309227 -0.946937
v -0.447807 1.624735 -0.186695
vt 1.515422 1.342135
vn 0.972750 -0.051710 -0.226015
v -0.506183 1.560318 -0.073997
vt 1.524093 1.322069
vn 0.061675 -0.074905 0.995282
v -0.509488 1.561692 -0.075501
vt 1.524586 1.322087
vn -0.879148 -0.246716 0.407714
v -0.439866 1.568219 -0.081113
vt 1.515165 1.322818
vn 0.918089 -0.016507 0.396031
v -0.442899 1.565967 -0.079332
vt 1.515690 1.322741
vn 0.104572 -0.066030 0.992323
v -0.511228 1.582948 -0.072114
vt 1.524671 1.319266
vn 0.063080 -0.046833 0.996909
v -0.514218 1.582381 -0.073786
vt 1.525185 1.319480
vn -0.791817 -0.227426 0.566835
v -0.438210 1.584458 -0.081049
vt 1.514390 1.320845
vn 0.884449 -0.127432 0.448900
v -0.441235 1.584271 -0.079324
vt 1.514884 1.320575
vn 0.116069 -0.038923 0.992478
v -0.514296 1.598097 -0.164056
vt 1.052570 1.056598
vn -0.970040 -0.174582 -0.168949
v -0.509419 1.588434 -0.178534
vt 1.057565 1.060970
vn -0.929977 -0.235267 -0.282475
v -0.517412 1.634009 -0.170149
vt 1.053223 1.053917
vn -0.976588 -0.141499 -0.162029
v -0.513629 1.622697 -0.189561
vt 1.052434 1.058506
vn -0.952325 -0.171298 -0.252454
v -0.511797 1.575437 -0.149204
vt 1.526294 1.334487
vn -0.953187 -0.262688 -0.149765
v -0.514296 1.598097 -0.164056
vt 1.526634 1.338153
vn -0.970040 -0.174582 -0.168949
v -0.509871 1.562889 -0.130526
vt 1.526491 1.331033
vn -0.946725 -0.302800 -0.109651
v -0.510463 1.555441 -0.106146
vt 1.526256 1.326866
vn -0.945772 -0.317560 -0.068336
v -0.511601 1.558181 -0.095611
vt 1.526489 1.324869
vn -0.946916 -0.321217 0.013040
v -0.439671 1.560126 -0.108799
vt 1.514180 1.327528
vn 0.993984 -0.057502 -0.093222
v -0.438558 1.563366 -0.096479
vt 1.514078 1.325644
vn 0.997518 -0.046732 -0.052675
v -0.441902 1.567285 -0.133202
vt 1.514139 1.331221
vn 0.993459 -0.043908 -0.105411
v -0.443627 1.579931 -0.150804
vt 1.514159 1.334341
vn 0.993411 -0.003902 -0.114536
v -0.445902 1.600494 -0.165383
vt 1.513984 1.337901
vn 0.994326 0.001110 -0.106373
v -0.446281 1.632700 -0.173039
vt 1.513549 1.342272
vn 0.995092 -0.008408 -0.098598
v -0.513151 1.563647 -0.091179
vt 1.526527 1.323504
vn -0.952987 -0.265097 0.146762
v -0.438202 1.569206 -0.092986
vt 1.513859 1.324213
vn 0.995700 0.001680 0.092626
v -0.515777 1.573618 -0.088312
vt 1.526802 1.321771
vn -0.946523 -0.240412 0.215166
v -0.437850 1.579681 -0.089965
vt 1.513509 1.322331
vn 0.989019 -0.065215 0.132621
v -0.437078 1.584610 -0.082580
vt 1.514131 1.320986
vn 0.980114 -0.155723 0.122992
v -1.089825 1.585008 -0.167276
vt 1.481431 1.342219
vn 0.939073 -0.062932 -0.337907
v -1.092660 1.584506 -0.169229
vt 1.481903 1.342320
vn -0.050271 -0.308097 -0.950026
v -1.088678 1.549186 -0.156130
vt 1.481996 1.337530
vn 0.924535 -0.118537 -0.362193
v -1.091511 1.547714 -0.157667
vt 1.482444 1.337518
vn -0.044372 -0.433967 -0.899836
v -1.086819 1.523545 -0.138004
vt 1.482113 1.333674
vn 0.924390 -0.223805 -0.308893
v -1.089634 1.521834 -0.139196
vt 1.482562 1.333683
vn -0.022086 -0.701093 -0.712728
v -1.085396 1.508217 -0.116681
vt 1.482204 1.330486
vn 0.928415 -0.288333 -0.234329
v -1.088155 1.506207 -0.117440
vt 1.482657 1.330521
vn -0.000570 -0.902467 -0.430759
v -1.081633 1.499609 -0.087884
vt 1.482125 1.326844
vn 0.934893 -0.314838 -0.163868
v -1.084360 1.497460 -0.088162
vt 1.482573 1.326943
vn 0.019476 -0.990227 -0.138101
v -1.079358 1.499960 -0.064789
vt 1.482421 1.324251
vn 0.936847 -0.349201 -0.019422
v -1.081988 1.497821 -0.063648
vt 1.482798 1.324278
vn 0.035976 -0.968090 0.248007
v -1.077943 1.507356 -0.056518
vt 1.482264 1.322993
vn 0.956706 -0.211834 0.199600
v -1.080587 1.505692 -0.054751
vt 1.482644 1.322984
vn 0.055461 -0.394023 0.917426
v -1.143657 1.499122 -0.059395
vt 1.490158 1.324494
vn -0.025305 -0.965603 0.258787
v -1.146327 1.501207 -0.060475
vt 1.490522 1.324534
vn -0.925679 -0.370786 0.075070
v -1.143686 1.505056 -0.052796
vt 1.490315 1.323539
vn -0.001308 -0.401919 0.915674
v -1.146593 1.506931 -0.054236
vt 1.490692 1.323550
vn -0.914524 -0.184829 0.359838
v -1.145870 1.499658 -0.083126
vt 1.490554 1.327143
vn -0.930771 -0.363468 -0.039460
v -1.143182 1.497426 -0.083542
vt 1.490101 1.327194
vn -0.046479 -0.990537 -0.129133
v -1.146779 1.508059 -0.111882
vt 1.490381 1.330707
vn -0.937810 -0.331004 -0.104641
v -1.144151 1.506072 -0.113085
vt 1.489926 1.330726
vn -0.066986 -0.902079 -0.426340
v -1.148889 1.523391 -0.132039
vt 1.490419 1.333800
vn -0.954480 -0.254259 -0.155949
v -1.146369 1.521793 -0.133835
vt 1.489966 1.333818
vn -0.092268 -0.701969 -0.706205
v -1.150778 1.544772 -0.148501
vt 1.490382 1.337172
vn -0.965437 -0.190783 -0.177575
v -1.148315 1.543840 -0.150813
vt 1.489923 1.337215
vn -0.110252 -0.443738 -0.889349
v -1.154904 1.578177 -0.159347
vt 1.490533 1.341666
vn -0.977594 -0.158589 -0.138420
v -1.152532 1.578129 -0.161931
vt 1.490077 1.341811
vn -0.119593 -0.308295 -0.943743
v -1.077086 1.523235 -0.053549
vt 1.481807 1.321269
vn 0.933072 -0.123920 0.337668
v -1.080050 1.521436 -0.051802
vt 1.482301 1.321259
vn 0.025690 -0.077305 0.996676
v -1.143740 1.518482 -0.052226
vt 1.490702 1.322073
vn -0.018205 -0.074301 0.997070
v -1.147176 1.520296 -0.053757
vt 1.491228 1.322159
vn -0.874350 -0.138010 0.465257
v -1.075068 1.544381 -0.052094
vt 1.481249 1.318654
vn 0.856377 -0.115830 0.503191
v -1.077970 1.544549 -0.050194
vt 1.481766 1.318448
vn 0.020598 -0.049627 0.998555
v -1.147848 1.536395 -0.051995
vt 1.491541 1.319920
vn -0.033119 -0.049012 0.998249
v -1.150994 1.536164 -0.053481
vt 1.492031 1.320198
vn -0.822078 -0.243101 0.514869
v -1.084817 1.597914 -0.148204
vt 1.478373 1.342531
vn 0.965988 -0.034912 -0.256219
v -1.084048 1.559494 -0.142020
vt 1.479745 1.337621
vn 0.964966 -0.058400 -0.255793
v -1.082322 1.536782 -0.127138
vt 1.479880 1.333691
vn 0.965530 -0.132710 -0.223921
v -1.081099 1.524186 -0.108433
vt 1.479737 1.330193
vn 0.967612 -0.173119 -0.183729
v -1.077637 1.517012 -0.084210
vt 1.480054 1.326018
vn 0.971844 -0.187741 -0.142385
v -1.076072 1.519936 -0.073779
vt 1.479857 1.324019
vn 0.979723 -0.190712 -0.061409
v -1.148996 1.515231 -0.069002
vt 1.492279 1.325009
vn -0.983207 -0.180929 0.023837
v -1.148407 1.512106 -0.081388
vt 1.492137 1.326894
vn -0.981369 -0.191395 -0.016827
v -1.149043 1.519373 -0.105852
vt 1.492099 1.330591
vn -0.983628 -0.177870 -0.028937
v -1.150396 1.532044 -0.123469
vt 1.492007 1.333712
vn -0.989685 -0.138172 -0.037834
v -1.152040 1.552650 -0.138072
vt 1.492074 1.337284
vn -0.993061 -0.116077 -0.018847
v -1.155613 1.585975 -0.145604
vt 1.492449 1.341836
vn -0.993222 -0.116097 -0.005631
v -1.074936 1.525584 -0.069451
vt 1.479842 1.322656
vn 0.988436 -0.133612 0.071715
v -1.149865 1.520988 -0.065462
vt 1.492515 1.323577
vn -0.976780 -0.131993 0.168758
v -1.073464 1.535832 -0.066743
vt 1.479596 1.320920
vn 0.983981 -0.109624 0.140585
v -1.151392 1.531336 -0.062368
vt 1.492890 1.321697
vn -0.958097 -0.197110 0.207842
v -1.152251 1.536154 -0.054919
vt 1.492288 1.320342
vn -0.937836 -0.285645 0.197157
v -1.084817 1.597914 -0.148204
vt 1.501706 1.342083
vn 0.020670 0.188979 0.981764
v -1.084048 1.559494 -0.142020
vt 1.501047 1.337103
vn 0.012180 0.341849 0.939676
v -1.155613 1.585975 -0.145604
vt 1.492449 1.341836
vn 0.020670 0.188979 0.981764
v -1.152040 1.552650 -0.138072
vt 1.492074 1.337284
vn 0.011888 0.353375 0.935406
v -1.077637 1.517012 -0.084210
vt 1.501266 1.327504
vn -0.065826 0.992729 0.100782
v -1.076072 1.519936 -0.073779
vt 1.501556 1.326118
vn -0.077919 0.964505 -0.252308
v -1.148407 1.512106 -0.081388
vt 1.492137 1.326894
vn -0.065430 0.991907 0.108812
v -1.148996 1.515231 -0.069002
vt 1.492279 1.325009
vn -0.077919 0.964505 -0.252308
v -1.081099 1.524186 -0.108433
vt 1.500803 1.330758
vn -0.045343 0.905700 0.421487
v -1.149043 1.519373 -0.105852
vt 1.492099 1.330591
vn -0.045229 0.905280 0.422400
v -1.082322 1.536782 -0.127138
vt 1.500855 1.333647
vn -0.015240 0.689211 0.724401
v -1.150396 1.532044 -0.123469
vt 1.492007 1.333712
vn -0.015639 0.693323 0.720457
v -0.514296 1.598097 -0.164056
vt 1.505003 1.337431
vn 0.012295 0.354462 0.934990
v -0.517412 1.634009 -0.170149
vt 1.504406 1.342106
vn 0.027970 0.199176 0.979565
v -0.445902 1.600494 -0.165383
vt 1.513984 1.337901
vn 0.011694 0.361690 0.932225
v -0.446281 1.632700 -0.173039
vt 1.513549 1.342272
vn 0.027970 0.199176 0.979565
v -0.511797 1.575437 -0.149204
vt 1.505304 1.334002
vn -0.022235 0.688808 0.724603
v -0.443627 1.579931 -0.150804
vt 1.514159 1.334341
vn -0.022638 0.692895 0.720683
v -0.509871 1.562889 -0.130526
vt 1.505435 1.331130
vn -0.044911 0.905698 0.421537
v -0.441902 1.567285 -0.133202
vt 1.514139 1.331221
vn -0.044841 0.905293 0.422414
v -0.510463 1.555441 -0.106146
vt 1.505056 1.327871
vn -0.061014 0.993056 0.100586
v -0.439671 1.560126 -0.108799
vt 1.514180 1.327528
vn -0.060629 0.992236 0.108587
v -0.511601 1.558181 -0.095611
vt 1.504804 1.326476
vn -0.072430 0.964861 -0.252582
v -0.438558 1.563366 -0.096479
vt 1.514078 1.325644
vn -0.072430 0.964861 -0.252582
v -1.108490 1.607240 -0.273748
vt 1.633077 1.244429
vn 0.310353 0.385029 -0.869157
v -1.108674 1.553946 -0.301733
vt 1.641752 1.234975
vn 0.682208 -0.167443 -0.711727
v -1.072139 1.612350 -0.267126
vt 1.630266 1.243375
vn 0.087031 0.348960 -0.933088
v -1.079140 1.559124 -0.286317
vt 1.634785 1.232425
vn 0.176059 -0.141218 -0.974198
v -1.010364 1.567039 -0.281626
vt 1.620344 1.229788
vn 0.011176 -0.152103 -0.988301
v -1.025432 1.618316 -0.264027
vt 1.618171 1.241605
vn -0.006117 0.324689 -0.945801
v -0.925675 1.629839 -0.265255
vt 1.595177 1.240609
vn -0.049434 0.310867 -0.949167
v -0.784431 1.642238 -0.268861
vt 1.569676 1.239504
vn -0.054933 0.312574 -0.948304
v -0.765018 1.585736 -0.288119
vt 1.569629 1.227370
vn -0.034493 -0.052170 -0.998042
v -0.576073 1.595311 -0.298320
vt 1.530136 1.228067
vn -0.074198 -0.141677 -0.987128
v -0.575666 1.649035 -0.280476
vt 1.531940 1.239467
vn -0.132723 0.310659 -0.941210
v -0.641362 1.647859 -0.275620
vt 1.546733 1.239482
vn -0.063524 0.315474 -0.946806
v -0.530046 1.597155 -0.306146
vt 1.520000 1.229856
vn -0.266939 -0.143372 -0.952989
v -0.535958 1.649424 -0.288183
vt 1.523139 1.241032
vn -0.266101 0.301083 -0.915718
v -0.501310 1.649220 -0.302205
vt 1.519334 1.242312
vn -0.455753 0.279703 -0.845018
v -0.497703 1.598201 -0.322726
vt 1.512226 1.232477
vn -0.558498 -0.301573 -0.772744
v -0.482377 1.648486 -0.320344
vt 1.515345 1.243715
vn -0.761922 0.238471 -0.602168
v -0.481130 1.597527 -0.346226
vt 1.506498 1.235665
vn -0.860549 -0.370364 -0.349694
v -0.469640 1.647339 -0.343702
vt 1.511381 1.245232
vn -0.915920 0.225697 -0.331890
v -0.464772 1.646291 -0.363282
vt 1.508643 1.247175
vn -0.965357 0.204850 -0.161624
v -0.473561 1.593733 -0.376796
vt 1.500285 1.239316
vn -0.930969 -0.364993 0.008780
v -0.462721 1.642615 -0.423082
vt 1.505952 1.249084
vn -0.969927 0.243382 -0.002579
v -0.470552 1.606771 -0.562204
vt 1.477182 1.270753
vn -0.966867 0.254885 0.014201
v -0.462588 1.632608 -0.564041
vt 1.480963 1.274854
vn -0.955844 0.293074 -0.021696
v -0.479689 1.577434 -0.565098
vt 1.472631 1.267193
vn -0.961826 -0.264113 0.071656
v -0.552058 1.631283 -0.563150
vt 1.021287 1.110439
vn -0.002024 0.026498 0.999647
v -0.647696 1.594031 -0.562940
vt 1.039568 1.116845
vn 0.005991 -0.003311 0.999977
v -0.641214 1.629053 -0.562175
vt 1.039883 1.110116
vn 0.011483 -0.024025 0.999645
v -0.784912 1.622418 -0.559521
vt 1.066230 1.110566
vn 0.019300 -0.029214 0.999387
v -0.910717 1.575010 -0.558588
vt 1.091493 1.117787
vn 0.023888 -0.043011 0.998789
v -0.927054 1.608731 -0.556452
vt 1.092257 1.111012
vn 0.026367 -0.050518 0.998375
v -1.057274 1.592525 -0.552797
vt 1.119260 1.112755
vn 0.025966 -0.118105 0.992662
v -1.138101 1.552602 -0.557616
vt 1.136431 1.119676
vn 0.038662 -0.159400 0.986457
v -1.114215 1.584532 -0.551110
vt 1.131319 1.113533
vn 0.063561 -0.244724 0.967507
v -1.126342 1.551818 -0.333861
vt 1.648257 1.239816
vn 0.953551 -0.020736 -0.300518
v -1.146754 1.598747 -0.322859
vt 1.639827 1.247431
vn 0.836018 0.445313 -0.320577
v -1.131841 1.602771 -0.293550
vt 1.635733 1.245425
vn 0.716046 0.431637 -0.548605
v -1.131303 1.547269 -0.380214
vt 1.654906 1.247006
vn 0.992220 -0.123717 -0.013913
v -1.151259 1.595995 -0.352700
vt 1.644309 1.250995
vn 0.894722 0.428111 -0.127252
v -1.154050 1.578645 -0.549871
vt 1.663086 1.280476
vn 0.912072 0.408290 -0.037737
v -1.133073 1.532981 -0.536442
vt 1.671762 1.273742
vn 0.998566 -0.037128 0.038571
v -1.152336 1.591923 -0.403942
vt 1.647473 1.253920
vn 0.913097 0.404922 -0.047874
v -1.098764 1.496574 -0.258371
vt 1.642419 1.218704
vn 0.267760 -0.804892 -0.529578
v -1.001043 1.519742 -0.261130
vt 1.620732 1.219252
vn 0.089691 -0.767924 -0.634230
v -1.219645 1.467854 -0.171082
vt 1.663815 1.196057
vn 0.123478 -0.975325 0.183016
v -0.993323 1.497939 -0.192559
vt 1.620312 1.204664
vn 0.117578 -0.944589 -0.306475
v -1.147806 1.467026 -0.223989
vt 1.652411 1.209038
vn 0.199457 -0.979764 -0.016697
v -0.761645 1.540682 -0.268676
vt 1.569836 1.217587
vn 0.029072 -0.786350 -0.617097
v -0.754976 1.519092 -0.203634
vt 1.569548 1.203914
vn 0.050692 -0.951394 -0.303774
v -0.571791 1.546278 -0.275963
vt 1.529222 1.217024
vn -0.008372 -0.849424 -0.527645
v -0.566260 1.526341 -0.203220
vt 1.529949 1.201298
vn 0.015189 -0.967536 -0.252277
v -0.509481 1.543113 -0.283141
vt 1.515230 1.217279
vn -0.072495 -0.930964 -0.357841
v -0.378217 1.530194 -0.198591
vt 1.495785 1.192719
vn -0.063403 -0.996346 -0.057216
v -0.468776 1.536622 -0.293808
vt 1.505893 1.217241
vn -0.244189 -0.951887 -0.185155
v -0.345722 1.528786 -0.211493
vt 1.490212 1.192408
vn -0.071099 -0.996586 0.041975
v -0.440648 1.528639 -0.318137
vt 1.497665 1.219602
vn -0.242774 -0.969813 -0.022867
v -0.431441 1.525326 -0.356847
vt 1.490620 1.225008
vn -0.351590 -0.932793 0.079257
v -0.327290 1.531498 -0.240051
vt 1.485618 1.194988
vn -0.047818 -0.996589 0.067258
v -0.326201 1.523880 -0.321576
vt 1.477296 1.206126
vn -0.034304 -0.994599 0.097959
v -0.439399 1.522008 -0.535343
vt 1.465811 1.253910
vn -0.768808 -0.629209 0.114148
v -0.404726 1.503753 -0.538117
vt 1.459253 1.248934
vn -0.101025 -0.980344 0.169470
v -0.403218 1.478873 -0.588986
vt 1.450803 1.256180
vn -0.103915 -0.892617 0.438676
v -0.452921 1.506237 -0.582937
vt 1.459610 1.261366
vn -0.579652 -0.709512 0.400746
v -1.014041 1.587378 -0.186894
vt 1.621393 1.185484
vn 0.076069 -0.035524 0.996470
v -0.764698 1.607723 -0.200919
vt 1.571213 1.186142
vn 0.030471 -0.036815 0.998857
v -0.993323 1.497939 -0.192559
vt 1.620312 1.204664
vn 0.072674 -0.035907 0.996709
v -0.754976 1.519092 -0.203634
vt 1.569548 1.203914
vn 0.028898 -0.036727 0.998907
v -0.580155 1.616540 -0.199639
vt 1.534385 1.183262
vn -0.006307 -0.024708 0.999675
v -0.566260 1.526341 -0.203220
vt 1.529949 1.201298
vn -0.006928 -0.022825 0.999715
v -0.345722 1.528786 -0.211493
vt 1.490212 1.192408
vn 0.664883 0.048870 0.745347
v -0.348764 1.614574 -0.213089
vt 1.485556 1.175978
vn 0.657391 0.048197 0.752006
v -0.327290 1.531498 -0.240051
vt 1.485618 1.194988
vn 0.984407 0.058870 0.165762
v -0.332066 1.613196 -0.247051
vt 1.477564 1.180595
vn 0.986189 0.058485 0.154953
v -0.378217 1.530194 -0.198591
vt 1.495785 1.192719
vn 0.047900 -0.006315 0.998832
v -0.379023 1.615954 -0.200247
vt 1.493544 1.175010
vn 0.045195 -0.006525 0.998957
v -0.330083 1.609440 -0.336024
vt 1.464489 1.194719
vn 0.999827 0.015571 0.010156
v -0.326201 1.523880 -0.321576
vt 1.477296 1.206126
vn 0.999790 0.017675 0.010335
v -0.324391 1.587561 -0.553545
vt 1.434528 1.226241
vn 0.999444 0.000994 0.033331
v -0.327917 1.501928 -0.548966
vt 1.445683 1.240038
vn 0.998885 -0.000112 0.047206
v -1.224673 1.559283 -0.168153
vt 1.665237 1.178309
vn 0.037584 -0.038010 0.998570
v -1.219645 1.467854 -0.171082
vt 1.663815 1.196057
vn 0.022181 -0.039104 0.998989
v -1.193046 1.459087 -0.270420
vt 1.664022 1.215768
vn 0.203490 -0.977242 0.059917
v -1.133702 1.491415 -0.274057
vt 1.650777 1.221341
vn 0.529779 -0.728446 -0.434397
v -1.151469 1.488059 -0.305919
vt 1.657450 1.226521
vn 0.731082 -0.682102 -0.015985
v -1.248424 1.462972 -0.185629
vt 1.668631 1.197394
vn -0.735816 -0.104103 0.669131
v -1.258213 1.552425 -0.181978
vt 1.674570 1.180812
vn -0.699858 -0.100210 0.707218
v -1.262299 1.458774 -0.221392
vt 1.672703 1.201628
vn -0.984905 -0.152507 0.081882
v -1.272828 1.546981 -0.217092
vt 1.682800 1.186604
vn -0.983993 -0.151616 0.093655
v -1.285625 1.521985 -0.509112
vt 1.717307 1.236682
vn -0.985501 -0.159425 0.058061
v -1.268338 1.435991 -0.495595
vt 1.702197 1.247450
vn -0.985266 -0.160094 0.060171
v -1.248424 1.462972 -0.185629
vt 1.668631 1.197394
vn 0.076277 -0.992072 0.099879
v -1.262299 1.458774 -0.221392
vt 1.672703 1.201628
vn 0.063375 -0.994260 0.086205
v -1.200547 1.437546 -0.520782
vt 1.692580 1.259163
vn 0.336163 -0.922064 0.191812
v -1.154801 1.474450 -0.532837
vt 1.683084 1.267149
vn 0.813293 -0.570533 0.114226
v -1.268338 1.435991 -0.495595
vt 1.702197 1.247450
vn 0.071371 -0.985734 0.152431
v -1.270052 1.398713 -0.571070
vt 1.711733 1.261934
vn 0.130597 -0.863827 0.486568
v -1.188605 1.403778 -0.574181
vt 1.699649 1.269178
vn 0.278350 -0.797686 0.534994
v -1.156221 1.428858 -0.570922
vt 1.692492 1.271158
vn 0.558580 -0.592242 0.580722
v -1.123329 1.527745 -0.554903
vt 1.673845 1.277185
vn 0.860060 -0.062603 0.506337
v -1.138522 1.463896 -0.565351
vt 1.686006 1.272953
vn 0.791392 -0.338811 0.508829
v -1.288059 1.486359 -0.604784
vt 1.725704 1.252994
vn -0.980154 -0.172735 0.097269
v -1.270052 1.398713 -0.571070
vt 1.711733 1.261934
vn -0.980154 -0.172735 0.097269
v -1.288059 1.486359 -0.604784
vt 1.980653 1.095110
vn -0.115136 -0.920850 0.372531
v -1.316507 1.489013 -0.600142
vt 1.981705 1.089381
vn -0.115136 -0.920850 0.372531
v -1.285625 1.521985 -0.509112
vt 1.961233 1.091170
vn -0.182131 -0.970718 0.156634
v -1.315267 1.528150 -0.509911
vt 1.961916 1.084980
vn -0.181900 -0.970658 0.157276
v -1.272828 1.546981 -0.217092
vt 1.901299 1.090142
vn -0.195403 -0.974437 0.110863
v -1.307154 1.554855 -0.206363
vt 1.899393 1.082861
vn -0.194336 -0.974107 0.115536
v -1.351752 1.574297 -0.096265
vt 1.877100 1.073077
vn -0.057723 -0.985042 0.162356
v -1.283072 1.563840 -0.155479
vt 1.888472 1.087028
vn -0.091832 -0.985079 0.145554
v -1.352924 1.567638 -0.257924
vt 1.910167 1.074475
vn -0.355592 -0.930502 0.087865
v -1.307154 1.554855 -0.206363
vt 1.899393 1.082861
vn -0.253919 -0.962799 0.092430
v -1.283072 1.563840 -0.155479
vt 1.210493 1.059604
vn -0.091832 -0.985079 0.145554
v -1.351752 1.574297 -0.096265
vt 1.220429 1.049725
vn -0.057723 -0.985042 0.162356
v -1.235068 1.576866 -0.134285
vt 1.200794 1.054256
vn 0.170505 -0.878533 0.446214
v -1.339669 1.575401 -0.084441
vt 1.222880 1.045997
vn 0.113287 -0.958779 0.260594
v -1.224673 1.559283 -0.168153
vt 1.198534 1.062036
vn 0.120873 -0.868720 0.480329
v -1.258213 1.552425 -0.181978
vt 1.205288 1.065347
vn -0.073229 -0.937627 0.339844
v -1.235068 1.576866 -0.134285
vt 1.200794 1.054256
vn 0.113664 -0.871036 0.477888
v -1.283072 1.563840 -0.155479
vt 1.210493 1.059604
vn -0.062726 -0.934137 0.351358
v -1.258213 1.552425 -0.181978
vt 1.893856 1.092627
vn -0.073229 -0.937627 0.339844
v -1.283072 1.563840 -0.155479
vt 1.888472 1.087028
vn -0.062726 -0.934137 0.351358
v -1.014041 1.587378 -0.186894
vt 1.154963 1.062139
vn 0.124478 -0.853454 0.506085
v -1.074340 1.617280 -0.119506
vt 1.167509 1.047786
vn 0.159372 -0.849639 0.502706
v -0.924378 1.632857 -0.130685
vt 1.136590 1.048145
vn 0.096762 -0.851695 0.515028
v -1.014041 1.587378 -0.186894
vt 1.154963 1.062139
vn 0.157990 -0.855694 0.492774
v -0.784418 1.642983 -0.136965
vt 1.107848 1.048096
vn 0.074786 -0.855321 0.512673
v -0.764698 1.607723 -0.200919
vt 1.103760 1.062247
vn 0.066561 -0.857198 0.510668
v -0.640687 1.649855 -0.139601
vt 1.078442 1.047584
vn 0.038792 -0.863232 0.503314
v -0.497929 1.652683 -0.137753
vt 1.049249 1.046979
vn -0.007340 -0.869861 0.493243
v -0.580155 1.616540 -0.199639
vt 1.066023 1.060964
vn 0.016762 -0.867075 0.497896
v -0.379023 1.615954 -0.200247
vt 1.024917 1.060997
vn -0.003715 -0.878318 0.478062
v -0.371618 1.652070 -0.133013
vt 1.023395 1.046245
vn -0.013313 -0.872825 0.487852
v -0.258040 1.652154 -0.127512
vt 1.000543 1.045313
vn 0.303386 -0.937705 0.169308
v -0.348764 1.614574 -0.213089
vt 1.018696 1.063551
vn 0.174476 -0.956231 0.234906
v -0.258040 1.652154 -0.127512
vt 1.876567 1.117215
vn 0.303386 -0.937705 0.169308
v -0.332066 1.613196 -0.247051
vt 1.901680 1.102319
vn 0.411578 -0.910096 0.048267
v -0.348764 1.614574 -0.213089
vt 1.894770 1.098666
vn 0.174476 -0.956231 0.234906
v -0.256056 1.647121 -0.291584
vt 1.909736 1.118962
vn 0.439476 -0.896481 0.056409
v -0.330083 1.609440 -0.336024
vt 1.920017 1.103629
vn 0.449479 -0.890545 0.069990
v -0.324391 1.587561 -0.553545
vt 1.965099 1.105900
vn 0.550763 -0.813810 0.185401
v -0.254772 1.639622 -0.431151
vt 1.938532 1.120248
vn 0.461958 -0.883202 0.080928
v -0.253920 1.631070 -0.543011
vt 1.961658 1.121588
vn 0.591840 -0.777000 0.214466
v -0.271994 1.565287 -0.634990
vt 1.983854 1.114203
vn 0.681770 -0.651828 0.332129
v -0.253454 1.624885 -0.612393
vt 1.975741 1.123973
vn 0.688686 -0.646917 0.327430
v -0.314672 1.548848 -0.632936
vt 1.424727 1.238610
vn 0.988479 -0.008602 0.151113
v -0.319260 1.479730 -0.593216
vt 1.438055 1.247892
vn 0.988479 -0.008602 0.151113
v -0.470552 1.606771 -0.562204
vt 1.004607 1.115826
vn 0.058783 -0.915413 0.398201
v -0.494372 1.594167 -0.585273
vt 1.009333 1.120964
vn 0.058783 -0.915413 0.398201
v -0.647696 1.594031 -0.562940
vt 1.039568 1.116845
vn 0.058783 -0.915413 0.398201
v -0.646890 1.583859 -0.588837
vt 1.039391 1.122323
vn 0.058783 -0.915413 0.398201
v -0.646890 1.583859 -0.588837
vt 1.039391 1.122323
vn 0.074075 -0.923434 0.376540
v -0.909469 1.562899 -0.587743
vt 1.091205 1.123998
vn 0.074075 -0.923434 0.376540
v -0.647696 1.594031 -0.562940
vt 1.039568 1.116845
vn 0.074075 -0.923434 0.376540
v -0.910717 1.575010 -0.558588
vt 1.091493 1.117787
vn 0.074075 -0.923434 0.376540
v -0.909469 1.562899 -0.587743
vt 1.091205 1.123998
vn 0.088857 -0.929900 0.356918
v -1.111168 1.546986 -0.581676
vt 1.131039 1.124438
vn 0.088857 -0.929900 0.356918
v -0.910717 1.575010 -0.558588
vt 1.091493 1.117787
vn 0.088857 -0.929900 0.356918
v -1.138101 1.552602 -0.557616
vt 1.136431 1.119676
vn 0.088857 -0.929900 0.356918
v -1.138101 1.552602 -0.557616
vt 1.669007 1.279408
vn 0.810665 0.482988 0.330974
v -1.358539 1.531209 -0.614236
vt 1.983111 1.078439
vn -0.585400 -0.780364 0.219861
v -1.356602 1.544815 -0.508863
vt 1.961720 1.077193
vn -0.515625 -0.837249 0.182056
v -1.316507 1.489013 -0.600142
vt 1.981705 1.089381
vn -0.585400 -0.780364 0.219861
v -1.315267 1.528150 -0.509911
vt 1.961916 1.084980
vn -0.500613 -0.849387 0.167118
v -0.494372 1.594167 -0.585273
vt 1.471773 1.274865
vn -0.729329 0.161590 0.664807
v -0.324391 1.587561 -0.553545
vt 1.965099 1.105900
vn 0.340366 -0.828073 0.445473
v -0.271994 1.565287 -0.634990
vt 1.983854 1.114203
vn 0.340366 -0.828073 0.445473
v -0.314672 1.548848 -0.632936
vt 1.983405 1.104765
vn 0.340366 -0.828073 0.445473
v -1.111168 1.546986 -0.581676
vt 1.672541 1.284994
vn 0.645059 0.450660 0.617093
v -0.327917 1.501928 -0.548966
vt 1.445683 1.240038
vn -0.016519 -0.982832 0.183763
v -0.319260 1.479730 -0.593216
vt 1.438055 1.247892
vn 0.036497 -0.894096 0.446386
v -1.354630 1.557137 -0.394119
vt 1.938175 1.075861
vn -0.385079 -0.918779 0.086948
v -1.207503 1.598545 -0.104220
vt 1.195183 1.047098
vn 0.172165 -0.850624 0.496787
v -0.253212 1.621672 -0.648420
vt 1.982759 1.125628
vn 0.950579 -0.308625 0.033919
v -0.271994 1.565287 -0.634990
vt 1.261827 1.020135
vn 0.950496 -0.309135 0.031503
v -0.253212 1.621672 -0.648420
vt 1.258356 1.030994
vn 0.950496 -0.309135 0.031503
v -0.252246 1.624223 -0.652561
vt 1.258356 1.030994
vn 0.950496 -0.309135 0.031503
v -0.641214 1.629053 -0.562175
vt 1.039883 1.110116
vn 0.018994 -0.028515 0.999413
v -0.647696 1.594031 -0.562940
vt 1.039568 1.116845
vn 0.018994 -0.028515 0.999413
v -0.502333 1.632134 -0.563658
vt 1.011020 1.110618
vn -0.002317 0.031000 0.999517
v -0.470552 1.606771 -0.562204
vt 1.004607 1.115826
vn -0.000522 0.037071 0.999312
v -0.462588 1.632608 -0.564041
vt 1.002810 1.110761
vn 0.008773 0.068197 0.997633
v -1.154050 1.578645 -0.549871
vt 1.139342 1.114051
vn 0.066468 -0.246790 0.966787
v -0.910717 1.575010 -0.558588
vt 1.091493 1.117787
vn 0.025392 -0.116021 0.992922
v -0.927054 1.608731 -0.556452
vt 1.092257 1.111012
vn 0.025392 -0.116021 0.992922
v -0.452921 1.506237 -0.582937
vt 1.039151 1.848558
vn -0.814583 -0.429581 -0.389764
v -0.403218 1.478873 -0.588986
vt 1.035039 1.846401
vn -0.204303 -0.909703 -0.361526
v -0.425271 1.505701 -0.630120
vt 1.035766 1.848544
vn -0.758085 -0.530400 -0.379450
v -0.403338 1.494241 -0.626315
vt 1.034045 1.847605
vn -0.228982 -0.905733 -0.356672
v -0.479689 1.577434 -0.565098
vt 1.041605 1.854043
vn -0.829112 -0.514386 -0.219044
v -0.437084 1.535519 -0.640019
vt 1.036485 1.851017
vn -0.858660 -0.402256 -0.317638
v -0.494372 1.594167 -0.585273
vt 1.042369 1.855465
vn -0.730228 -0.682399 -0.033158
v -0.443563 1.542527 -0.642346
vt 1.036968 1.851604
vn -0.730228 -0.682399 -0.033158
v -0.319260 1.479730 -0.593216
vt 1.028121 1.846457
vn 0.247278 -0.648297 -0.720114
v -0.314672 1.548848 -0.632936
vt 1.026359 1.852118
vn 0.357332 -0.438790 -0.824486
v -0.366288 1.494600 -0.626435
vt 1.030949 1.847634
vn 0.183747 -0.739686 -0.647381
v -0.364263 1.523547 -0.636045
vt 1.030464 1.850026
vn 0.357332 -0.438790 -0.824486
v -1.270052 1.398713 -0.571070
vt 1.036634 1.836531
vn -0.175768 -0.522485 -0.834335
v -1.188605 1.403778 -0.574181
vt 1.030747 1.836865
vn 0.148076 -0.635343 -0.757900
v -1.235218 1.435012 -0.601860
vt 1.035047 1.839105
vn -0.173483 -0.524189 -0.833744
v -1.198086 1.437196 -0.602609
vt 1.032270 1.839262
vn 0.167455 -0.632398 -0.756327
v -1.156221 1.428858 -0.570922
vt 1.028280 1.838754
vn 0.587888 -0.451632 -0.671130
v -1.183321 1.448011 -0.606322
vt 1.031263 1.840079
vn 0.584392 -0.454417 -0.672304
v -1.138522 1.463896 -0.565351
vt 1.026850 1.841393
vn 0.797513 -0.230944 -0.557349
v -1.123329 1.527745 -0.554903
vt 1.025514 1.846153
vn 0.822981 -0.193442 -0.534119
v -1.175252 1.463120 -0.611509
vt 1.030801 1.841234
vn 0.786983 -0.245530 -0.566016
v -1.168325 1.490652 -0.620960
vt 1.030548 1.843369
vn 0.822981 -0.193442 -0.534119
v -1.288059 1.486359 -0.604784
vt 1.039144 1.843050
vn -0.330468 -0.389081 -0.859888
v -1.243428 1.472806 -0.614834
vt 1.036104 1.841987
vn -0.330468 -0.389081 -0.859888
v -1.114527 1.585939 -0.551346
vt 0.146801 0.641523
vn -0.149135 0.981798 -0.117605
v -1.154354 1.579840 -0.550093
vt 0.150409 0.641503
vn -0.162506 0.979801 -0.116540
v -1.072557 1.585005 -0.612333
vt 0.143205 0.631369
vn -0.133522 0.984269 -0.115698
v -1.208286 1.598824 -0.192920
vt 0.168118 0.701867
vn -0.172827 0.984094 -0.041114
v -1.207310 1.601788 -0.108091
vt 0.168361 0.715543
vn -0.157427 0.986900 -0.035298
v -1.347291 1.576686 -0.087609
vt 0.189619 0.717409
vn -0.185001 0.981865 -0.041429
v -0.927156 1.609073 -0.556560
vt 0.118556 0.641675
vn -0.103526 0.988680 -0.108601
v -0.927292 1.602550 -0.616301
vt 0.118364 0.631504
vn -0.103326 0.988703 -0.108584
v -0.784831 1.621120 -0.559480
vt 0.094302 0.641963
vn -0.072407 0.992156 -0.101900
v -0.784416 1.614943 -0.620145
vt 0.094071 0.631582
vn -0.071911 0.992201 -0.101818
v -1.072599 1.615120 -0.267315
vt 0.147353 0.689761
vn -0.138431 0.989654 -0.037694
v -1.025829 1.620997 -0.264223
vt 0.142672 0.690504
vn -0.108101 0.993491 -0.035912
v -1.073474 1.620686 -0.123574
vt 0.145486 0.713704
vn -0.125112 0.991467 -0.036619
v -0.784831 1.621120 -0.559480
vt 0.077820 0.635142
vn -0.072407 0.992156 -0.101900
v -0.641184 1.628994 -0.562239
vt 0.069880 0.642226
vn -0.045428 0.994001 -0.099494
v -0.640998 1.622935 -0.624593
vt 0.069592 0.631620
vn -0.045031 0.994018 -0.099496
v -0.502291 1.632790 -0.563780
vt 0.045766 0.643807
vn -0.015810 0.995513 -0.093295
v -0.496579 1.626754 -0.629144
vt 0.045040 0.631591
vn -0.011612 0.995312 -0.096014
v -0.462528 1.633170 -0.564149
vt 0.041549 0.644084
vn 0.001721 0.996272 -0.086246
v -0.784429 1.642142 -0.268890
vt 0.094218 0.691365
vn -0.061731 0.997422 -0.036600
v -0.783785 1.646854 -0.141727
vt 0.095938 0.712286
vn -0.062224 0.997392 -0.036582
v -0.925878 1.631394 -0.265383
vt 0.127209 0.691145
vn -0.090538 0.995232 -0.036280
v -0.924961 1.636389 -0.134843
vt 0.119992 0.712636
vn -0.091020 0.995188 -0.036295
v -0.368162 1.626455 -0.633610
vt 0.023226 0.631437
vn 0.015000 0.995705 -0.091364
v -0.369225 1.634783 -0.541680
vt 0.023838 0.647052
vn 0.014508 0.996544 -0.081795
v -0.496579 1.626754 -0.629144
vt 0.045040 0.631591
vn -0.011510 0.995314 -0.096004
v -0.266127 1.623533 -0.637821
vt 0.005915 0.631171
vn 0.025518 0.995683 -0.089246
v -0.261308 1.631977 -0.541755
vt 0.005572 0.647538
vn 0.025828 0.996360 -0.081240
v -0.260036 1.623798 -0.632659
vt 0.004899 0.632079
vn 0.025518 0.995683 -0.089246
v -0.641356 1.648857 -0.275702
vt 0.065704 0.690810
vn -0.041021 0.998517 -0.035787
v -0.640987 1.653556 -0.143998
vt 0.071780 0.712556
vn -0.041328 0.998504 -0.035797
v -0.370149 1.643125 -0.430462
vt 0.024521 0.665954
vn 0.017631 0.997621 -0.066646
v -0.462661 1.644083 -0.423227
vt 0.040322 0.669473
vn 0.003309 0.997320 -0.073089
v -0.262651 1.640376 -0.429315
vt 0.006340 0.666636
vn 0.026506 0.997579 -0.064288
v -0.370149 1.643125 -0.430462
vt 0.024521 0.665954
vn 0.017600 0.997612 -0.066784
v -0.370692 1.650520 -0.299900
vt 0.025232 0.688123
vn 0.020931 0.998673 -0.047054
v -0.464706 1.647804 -0.363407
vt 0.040872 0.676890
vn 0.008504 0.998356 -0.056687
v -0.469577 1.648876 -0.343810
vt 0.041787 0.680193
vn 0.006602 0.998732 -0.049900
v -0.370692 1.650520 -0.299900
vt 0.025232 0.688123
vn 0.021031 0.998671 -0.047059
v -0.263896 1.648023 -0.291808
vt 0.007209 0.689977
vn 0.028114 0.998556 -0.045771
v -0.263896 1.648023 -0.291808
vt 0.007209 0.689977
vn 0.028215 0.998553 -0.045776
v -0.264807 1.653219 -0.136983
vt 0.008268 0.715720
vn 0.029517 0.998931 -0.035573
v -0.370931 1.653717 -0.220813
vt 0.025661 0.701533
vn 0.017027 0.999261 -0.034456
v -0.270119 1.653525 -0.132376
vt 0.009443 0.716287
vn 0.029225 0.998972 -0.034658
v -1.210205 1.584949 -0.405795
vt 0.167570 0.665693
vn -0.182336 0.979514 -0.085477
v -1.208993 1.594707 -0.273414
vt 0.167903 0.688207
vn -0.180303 0.981870 -0.058505
v -1.350159 1.558965 -0.394334
vt 0.189754 0.666713
vn -0.188835 0.978452 -0.083500
v -1.348484 1.569443 -0.258076
vt 0.190004 0.689910
vn -0.186196 0.980852 -0.057103
v -1.210205 1.584949 -0.405795
vt 0.167570 0.665693
vn -0.182311 0.979508 -0.085597
v -1.211768 1.573596 -0.518692
vt 0.167439 0.646443
vn -0.183127 0.977193 -0.107505
v -1.152832 1.594449 -0.404219
vt 0.157716 0.667622
vn -0.160011 0.982696 -0.093302
v -1.154354 1.579840 -0.550093
vt 0.157482 0.646371
vn -0.162506 0.979801 -0.116540
v -1.352079 1.546750 -0.509109
vt 0.189709 0.647023
vn -0.193817 0.975084 -0.107916
v -1.212753 1.562730 -0.607785
vt 0.167323 0.631266
vn -0.185503 0.975065 -0.121810
v -1.353983 1.534526 -0.601947
vt 0.189550 0.631881
vn -0.196840 0.973016 -0.120392
v -0.569422 1.655543 -0.143007
vt 0.059659 0.713049
vn -0.021819 0.999145 -0.035114
v -0.575639 1.650548 -0.280577
vt 0.055590 0.690215
vn -0.021721 0.999147 -0.035111
v -0.497843 1.656590 -0.142111
vt 0.047513 0.713553
vn -0.003201 0.999349 -0.035923
v -0.535909 1.650983 -0.288283
vt 0.051210 0.688955
vn -0.004410 0.999349 -0.035802
v -0.370931 1.653717 -0.220813
vt 0.025661 0.701533
vn 0.017125 0.999259 -0.034459
v -0.482319 1.650037 -0.320434
vt 0.043093 0.682931
vn 0.000126 0.999338 -0.036369
v -0.469577 1.648876 -0.343810
vt 0.041787 0.680193
vn 0.006602 0.998729 -0.049967
v -1.108966 1.609902 -0.273925
vt 0.150753 0.688708
vn -0.141812 0.989186 -0.037423
v -1.072599 1.615120 -0.267315
vt 0.147353 0.689761
vn -0.138516 0.989641 -0.037733
v -1.108966 1.609902 -0.273925
vt 0.150753 0.688708
vn -0.141727 0.989200 -0.037384
v -1.132328 1.605464 -0.293734
vt 0.153030 0.687075
vn -0.146317 0.988245 -0.044305
v -1.151777 1.598636 -0.352948
vt 0.157741 0.675029
vn -0.164633 0.983820 -0.070671
v -1.147259 1.601396 -0.323080
vt 0.156450 0.681904
vn -0.160342 0.985031 -0.063277
v -1.152832 1.594449 -0.404219
vt 0.157716 0.667622
vn -0.160037 0.982703 -0.093182
v -0.266127 1.623533 -0.637821
vt 0.005915 0.631171
vn 0.037104 0.994796 -0.094892
v -0.261632 1.623473 -0.636688
vt 0.005156 0.631384
vn 0.037104 0.994796 -0.094892
v -0.260036 1.623798 -0.632659
vt 0.004899 0.632079
vn 0.037104 0.994796 -0.094892
v -1.357169 1.533929 -0.611690
vt 0.942443 0.767734
vn -0.819115 0.553483 -0.150690
v -1.358539 1.531209 -0.614236
vt 0.943079 0.768804
vn -0.819115 0.553483 -0.150690
v -1.356121 1.534093 -0.616786
vt 0.943617 0.767918
vn -0.819115 0.553483 -0.150690
v -1.356121 1.534093 -0.616786
vt 0.943617 0.767918
vn -0.227958 -0.530363 -0.816548
v -1.358539 1.531209 -0.614236
vt 0.943079 0.768804
vn -0.227958 -0.530363 -0.816548
v -1.288059 1.486359 -0.604784
vt 0.944171 0.774114
vn -0.227958 -0.530363 -0.816548
v -0.266127 1.623533 -0.637821
vt 0.935631 0.516487
vn 0.026129 0.992637 -0.118276
v -0.368162 1.626455 -0.633610
vt 0.935340 0.539970
vn 0.011229 0.994684 -0.102364
v -0.253212 1.621672 -0.648420
vt 0.937980 0.513437
vn 0.026129 0.992637 -0.118276
v -0.367752 1.625546 -0.643315
vt 0.937582 0.539820
vn 0.012613 0.994511 -0.103869
v -0.270119 1.653525 -0.132376
vt 0.011573 0.355325
vn -0.015514 0.857774 0.513793
v -0.258040 1.652154 -0.127512
vt 0.010899 0.357316
vn -0.015514 0.857774 0.513793
v -0.371153 1.656123 -0.137556
vt 0.011345 0.339067
vn -0.015514 0.857774 0.513793
v -0.371618 1.652070 -0.133013
vt 0.010393 0.339038
vn -0.015514 0.857774 0.513793
v -0.263896 1.648023 -0.291808
vt 0.015938 0.255052
vn 0.099206 0.993633 -0.053398
v -0.262651 1.640376 -0.429315
vt 0.015944 0.277044
vn 0.099206 0.993633 -0.053398
v -0.256056 1.647121 -0.291584
vt 0.014685 0.255039
vn 0.099206 0.993633 -0.053398
v -0.254772 1.639622 -0.431151
vt 0.014682 0.277364
vn 0.099206 0.993633 -0.053398
v -0.264807 1.653219 -0.136983
vt 0.015839 0.231717
vn 0.153115 0.987744 -0.030291
v -0.263896 1.648023 -0.291808
vt 0.015938 0.255052
vn 0.153115 0.987744 -0.030291
v -0.258040 1.652154 -0.127512
vt 0.014761 0.229769
vn 0.153115 0.987744 -0.030291
v -0.256056 1.647121 -0.291584
vt 0.014685 0.255039
vn 0.153115 0.987744 -0.030291
v -0.266127 1.623533 -0.637821
vt 0.935631 0.516487
vn 0.026307 0.992630 -0.118296
v -0.253212 1.621672 -0.648420
vt 0.937980 0.513437
vn 0.026307 0.992630 -0.118296
v -0.261632 1.623473 -0.636688
vt 0.935306 0.515418
vn 0.043612 0.991710 -0.120867
v -0.261632 1.623473 -0.636688
vt 0.935306 0.515418
vn 0.064912 0.992273 -0.105743
v -0.253212 1.621672 -0.648420
vt 0.937980 0.513437
vn 0.064912 0.992273 -0.105743
v -0.260036 1.623798 -0.632659
vt 0.934331 0.515121
vn 0.064912 0.992273 -0.105743
v -1.347291 1.576686 -0.087609
vt 0.011190 0.185179
vn -0.052929 0.823922 0.564227
v -1.207310 1.601788 -0.108091
vt 0.011242 0.205824
vn -0.057628 0.810883 0.582364
v -1.339669 1.575401 -0.084441
vt 0.010394 0.185339
vn -0.057242 0.812028 0.580804
v -1.207503 1.598545 -0.104220
vt 0.010507 0.205635
vn -0.057628 0.810883 0.582364
v -1.073474 1.620686 -0.123574
vt 0.011254 0.226695
vn -0.034702 0.768489 0.638922
v -1.074340 1.617280 -0.119506
vt 0.010466 0.226418
vn -0.034702 0.768489 0.638922
v -1.207310 1.601788 -0.108091
vt 0.011242 0.205824
vn -0.034702 0.768489 0.638922
v -1.207503 1.598545 -0.104220
vt 0.010507 0.205635
vn -0.034702 0.768489 0.638922
v -1.073474 1.620686 -0.123574
vt 0.011254 0.226695
vn -0.031708 0.764610 0.643712
v -0.924961 1.636389 -0.134843
vt 0.011288 0.250219
vn -0.031708 0.764610 0.643712
v -1.074340 1.617280 -0.119506
vt 0.010466 0.226418
vn -0.031708 0.764610 0.643712
v -0.924378 1.632857 -0.130685
vt 0.010444 0.250220
vn -0.031708 0.764610 0.643712
v -0.924961 1.636389 -0.134843
vt 0.011288 0.250219
vn -0.026501 0.769315 0.638320
v -0.783785 1.646854 -0.141727
vt 0.011310 0.272830
vn -0.026501 0.769315 0.638320
v -0.924378 1.632857 -0.130685
vt 0.010444 0.250220
vn -0.026501 0.769315 0.638320
v -0.784418 1.642983 -0.136965
vt 0.010416 0.272677
vn -0.026501 0.769315 0.638320
v -0.783785 1.646854 -0.141727
vt 0.011310 0.272830
vn -0.025604 0.770906 0.636434
v -0.640987 1.653556 -0.143998
vt 0.011311 0.295827
vn -0.025604 0.770906 0.636434
v -0.784418 1.642983 -0.136965
vt 0.010416 0.272677
vn -0.025604 0.770906 0.636434
v -0.640687 1.649855 -0.139601
vt 0.010407 0.295853
vn -0.025604 0.770906 0.636434
v -0.569422 1.655543 -0.143007
vt 0.011339 0.307354
vn -0.019238 0.744652 0.667176
v -0.497843 1.656590 -0.142111
vt 0.011322 0.318879
vn -0.019238 0.744652 0.667176
v -0.497929 1.652683 -0.137753
vt 0.010395 0.318876
vn -0.019238 0.744652 0.667176
v -0.270119 1.653525 -0.132376
vt 0.011573 0.355325
vn 0.070593 0.992055 0.104135
v -0.266301 1.653357 -0.133363
vt 0.011762 0.355927
vn 0.070593 0.992055 0.104135
v -0.258040 1.652154 -0.127512
vt 0.010899 0.357316
vn 0.070593 0.992055 0.104135
v -0.266301 1.653357 -0.133363
vt 0.011762 0.355927
vn 0.132290 0.991067 0.016930
v -0.264807 1.653219 -0.136983
vt 0.012367 0.356185
vn 0.132290 0.991067 0.016930
v -0.258040 1.652154 -0.127512
vt 0.010899 0.357316
vn 0.132290 0.991067 0.016930
v -1.356121 1.534093 -0.616786
vt 0.943617 0.767918
vn -0.187124 0.974981 0.119982
v -1.214792 1.562619 -0.622794
vt 0.942226 0.734808
vn -0.170741 0.973711 0.150779
v -1.357169 1.533929 -0.611690
vt 0.942443 0.767734
vn -0.187124 0.974981 0.119982
v -1.212604 1.561651 -0.616913
vt 0.940807 0.734465
vn -0.163724 0.972799 0.163883
v -0.641055 1.623223 -0.639566
vt 0.938214 0.602545
vn -0.034728 0.985312 0.167193
v -0.497367 1.627058 -0.643957
vt 0.938278 0.569573
vn -0.005927 0.979224 0.202696
v -0.641063 1.622234 -0.633936
vt 0.936901 0.602601
vn -0.035415 0.985437 0.166314
v -0.497211 1.625950 -0.638421
vt 0.936980 0.569570
vn -0.006035 0.979271 0.202466
v -0.367623 1.626891 -0.648493
vt 0.938811 0.539768
vn 0.024978 0.953037 0.301822
v -0.252246 1.624223 -0.652561
vt 0.939096 0.513208
vn 0.041672 0.920057 0.389562
v -0.367752 1.625546 -0.643315
vt 0.937582 0.539820
vn 0.023864 0.954964 0.295761
v -0.253212 1.621672 -0.648420
vt 0.937980 0.513437
vn 0.041672 0.920057 0.389562
v -0.497843 1.656590 -0.142111
vt 0.011322 0.318879
vn -0.021319 0.745888 0.665730
v -0.371153 1.656123 -0.137556
vt 0.011345 0.339067
vn -0.021319 0.745888 0.665730
v -0.497929 1.652683 -0.137753
vt 0.010395 0.318876
vn -0.021319 0.745888 0.665730
v -0.371618 1.652070 -0.133013
vt 0.010393 0.339038
vn -0.021319 0.745888 0.665730
v -1.212753 1.562730 -0.607785
vt 0.938675 0.734598
vn -0.177920 0.980681 -0.081298
v -1.212604 1.561651 -0.616913
vt 0.940807 0.734465
vn -0.177213 0.980725 -0.082304
v -1.072557 1.585005 -0.612333
vt 0.937095 0.702028
vn -0.142628 0.984267 -0.104284
v -1.071229 1.584294 -0.621415
vt 0.939201 0.701646
vn -0.138707 0.984954 -0.103085
v -1.072557 1.585005 -0.612333
vt 0.937095 0.702028
vn -0.142703 0.984264 -0.104209
v -0.927292 1.602550 -0.616301
vt 0.935872 0.668526
vn -0.105938 0.990594 -0.086603
v -0.927320 1.601599 -0.625567
vt 0.938003 0.668428
vn -0.105605 0.990649 -0.086386
v -1.214792 1.562619 -0.622794
vt 0.942226 0.734808
vn -0.170713 0.973696 0.150908
v -1.069795 1.585524 -0.627203
vt 0.940522 0.701185
vn -0.127211 0.973699 0.189016
v -1.212604 1.561651 -0.616913
vt 0.940807 0.734465
vn -0.163734 0.972782 0.163972
v -1.071229 1.584294 -0.621415
vt 0.939201 0.701646
vn -0.133918 0.972603 0.190026
v -0.927292 1.602550 -0.616301
vt 0.935872 0.668526
vn -0.105909 0.990587 -0.086717
v -0.927320 1.601599 -0.625567
vt 0.938003 0.668428
vn -0.105615 0.990638 -0.086503
v -0.784416 1.614943 -0.620145
vt 0.935201 0.635655
vn -0.073607 0.994923 -0.068627
v -0.784361 1.614469 -0.629769
vt 0.937273 0.635518
vn -0.072921 0.994997 -0.068292
v -0.927096 1.602758 -0.631275
vt 0.939334 0.668273
vn -0.096740 0.980302 0.172187
v -0.927320 1.601599 -0.625567
vt 0.938003 0.668428
vn -0.098405 0.979867 0.173713
v -0.784416 1.614943 -0.620145
vt 0.935201 0.635655
vn -0.073634 0.994931 -0.068481
v -0.640998 1.622935 -0.624593
vt 0.934760 0.602651
vn -0.042916 0.996595 -0.070404
v -0.641063 1.622234 -0.633936
vt 0.936901 0.602601
vn -0.042503 0.996597 -0.070629
v -0.783873 1.615189 -0.635338
vt 0.938556 0.635336
vn -0.065116 0.986033 0.153296
v -0.784361 1.614469 -0.629769
vt 0.937273 0.635518
vn -0.067715 0.985733 0.154096
v -0.640998 1.622935 -0.624593
vt 0.934760 0.602651
vn -0.042811 0.996600 -0.070397
v -0.641063 1.622234 -0.633936
vt 0.936901 0.602601
vn -0.042505 0.996591 -0.070701
v -0.496579 1.626754 -0.629144
vt 0.934812 0.569473
vn -0.014914 0.996310 -0.084519
v -0.497211 1.625950 -0.638421
vt 0.936980 0.569570
vn -0.015522 0.996321 -0.084281
v -0.262651 1.640376 -0.429315
vt 0.015944 0.277044
vn 0.093032 0.992906 -0.074040
v -0.261308 1.631977 -0.541755
vt 0.015875 0.294944
vn 0.093032 0.992906 -0.074040
v -0.254772 1.639622 -0.431151
vt 0.014682 0.277364
vn 0.093032 0.992906 -0.074040
v -0.253920 1.631070 -0.543011
vt 0.014758 0.295158
vn 0.093032 0.992906 -0.074040
v -0.253212 1.621672 -0.648420
vt 0.014826 0.310241
vn 0.106531 0.990449 -0.087535
v -0.253920 1.631070 -0.543011
vt 0.014758 0.295158
vn 0.106531 0.990449 -0.087535
v -0.260036 1.623798 -0.632659
vt 0.015754 0.307969
vn 0.106531 0.990449 -0.087535
v -0.261308 1.631977 -0.541755
vt 0.015875 0.294944
vn 0.106531 0.990449 -0.087535
v -1.353983 1.534526 -0.601947
vt 0.940012 0.765089
vn -0.193848 0.979444 -0.055795
v -1.357169 1.533929 -0.611690
vt 0.942443 0.767734
vn -0.193848 0.979444 -0.055795
v -1.214792 1.562619 -0.622794
vt 0.942226 0.734808
vn -0.088804 0.025266 -0.995729
v -1.356121 1.534093 -0.616786
vt 0.943617 0.767918
vn -0.099879 -0.136653 -0.985571
v -1.210778 1.500727 -0.626893
vt 0.956482 0.735497
vn -0.090101 0.008282 -0.995898
v -1.288059 1.486359 -0.604784
vt 0.957307 0.754291
vn -0.099879 -0.136653 -0.985571
v -0.497367 1.627058 -0.643957
vt 0.938278 0.569573
vn 0.022333 0.109810 -0.993702
v -0.641055 1.623223 -0.639566
vt 0.938214 0.602545
vn -0.029738 0.250202 -0.967737
v -0.493352 1.565166 -0.655874
vt 0.952767 0.568866
vn 0.025708 0.099824 -0.994673
v -0.637041 1.561331 -0.656783
vt 0.952998 0.602023
vn -0.029334 0.249394 -0.967958
v -0.783873 1.615189 -0.635338
vt 0.938556 0.635336
vn -0.047216 0.271071 -0.961401
v -0.637041 1.561331 -0.656783
vt 0.952998 0.602023
vn -0.029335 0.249484 -0.967935
v -0.779858 1.553298 -0.653381
vt 0.953429 0.635057
vn -0.047136 0.271098 -0.961397
v -0.783873 1.615189 -0.635338
vt 0.938556 0.635336
vn -0.047136 0.271098 -0.961397
v -0.927096 1.602758 -0.631275
vt 0.939334 0.668273
vn -0.061931 0.251783 -0.965800
v -0.923081 1.540866 -0.648574
vt 0.954136 0.668274
vn -0.062236 0.251209 -0.965930
v -1.069795 1.585524 -0.627203
vt 0.940522 0.701185
vn -0.075501 0.183177 -0.980176
v -1.065780 1.523632 -0.640039
vt 0.955069 0.701532
vn -0.075930 0.179169 -0.980884
v -0.252246 1.624223 -0.652561
vt 0.939096 0.513208
vn -0.016769 -0.238849 -0.970912
v -0.367623 1.626891 -0.648493
vt 0.938811 0.539768
vn 0.044774 -0.048203 -0.997833
v -0.271994 1.565287 -0.634990
vt 0.953250 0.517678
vn -0.016769 -0.238849 -0.970912
v -0.314672 1.548848 -0.632936
vt 0.957037 0.527488
vn 0.019593 -0.127005 -0.991709
v -1.351735 1.574476 -0.082709
vt 0.011166 0.185184
vn -0.012520 0.915728 0.401604
v -0.264807 1.653219 -0.136983
vt 0.012367 0.356185
vn 0.038215 0.999024 -0.022163
v -0.266301 1.653357 -0.133363
vt 0.011762 0.355927
vn 0.038215 0.999024 -0.022163
v -0.270119 1.653525 -0.132376
vt 0.011573 0.355325
vn 0.038215 0.999024 -0.022163
v -0.501248 1.650776 -0.302298
vt 0.046112 0.686178
vn 0.000410 0.999398 -0.034680
v -0.371153 1.656123 -0.137556
vt 0.026458 0.714925
vn 0.008418 0.999418 -0.033052
v -0.462661 1.644083 -0.423227
vt 0.040322 0.669473
vn 0.003310 0.997315 -0.073159
v -0.641356 1.648857 -0.275702
vt 0.065704 0.690810
vn -0.040919 0.998522 -0.035783
v -0.569422 1.655543 -0.143007
vt 0.011339 0.307354
vn -0.025440 0.728594 0.684474
v -0.497929 1.652683 -0.137753
vt 0.010395 0.318876
vn -0.025440 0.728594 0.684474
v -0.640987 1.653556 -0.143998
vt 0.011311 0.295827
vn -0.025440 0.728594 0.684474
v -0.640687 1.649855 -0.139601
vt 0.010407 0.295853
vn -0.025440 0.728594 0.684474
v -1.147259 1.601396 -0.323080
vt 0.156450 0.681904
vn -0.160222 0.985049 -0.063311
v -0.552026 1.631861 -0.563268
vt 0.053572 0.643295
vn -0.030017 0.994584 -0.099503
v -0.502291 1.632790 -0.563780
vt 0.045766 0.643807
vn -0.015708 0.995512 -0.093322
v -0.552026 1.631861 -0.563268
vt 0.053572 0.643295
vn -0.030123 0.994580 -0.099513
v -1.057551 1.593921 -0.553018
vt 0.139393 0.641563
vn -0.122824 0.986021 -0.112592
v -1.072557 1.585005 -0.612333
vt 0.143205 0.631369
vn -0.133606 0.984257 -0.115705
v -1.057551 1.593921 -0.553018
vt 0.139393 0.641563
vn -0.122906 0.986010 -0.112599
v -0.270119 1.653525 -0.132376
vt 0.009443 0.716287
vn 0.029228 0.998968 -0.034759
v -1.288059 1.486359 -0.604784
vt 1.471192 1.024384
vn -0.184691 -0.471854 -0.862115
v -1.358539 1.531209 -0.614236
vt 1.482641 1.034859
vn -0.184691 -0.471854 -0.862115
v -1.316507 1.489013 -0.600142
vt 1.476974 1.025273
vn -0.184691 -0.471854 -0.862115
v -1.352924 1.567638 -0.257924
vt 0.190789 0.689905
vn -0.389520 0.919688 -0.049488
v -1.354630 1.557137 -0.394119
vt 0.190539 0.666726
vn -0.379124 0.922962 -0.066382
v -1.348484 1.569443 -0.258076
vt 0.190004 0.689910
vn -0.389520 0.919688 -0.049488
v -1.350159 1.558965 -0.394334
vt 0.189754 0.666713
vn -0.379124 0.922962 -0.066382
v -1.354630 1.557137 -0.394119
vt 0.190539 0.666726
vn -0.388413 0.916940 -0.091413
v -1.356602 1.544814 -0.508863
vt 0.190496 0.647325
vn -0.388413 0.916940 -0.091413
v -1.350159 1.558965 -0.394334
vt 0.189754 0.666713
vn -0.388413 0.916940 -0.091413
v -1.352079 1.546750 -0.509109
vt 0.189709 0.647023
vn -0.388413 0.916940 -0.091413
v -1.351752 1.574297 -0.096265
vt 0.191143 0.717543
vn -0.398527 0.916477 -0.035295
v -1.352924 1.567638 -0.257924
vt 0.190543 0.708665
vn -0.389542 0.919683 -0.049403
v -1.347291 1.576686 -0.087609
vt 0.189619 0.717409
vn -0.405751 0.913414 -0.032273
v -1.348484 1.569443 -0.258076
vt 0.190004 0.689910
vn -0.389542 0.919683 -0.049403
v -1.358539 1.531209 -0.614236
vt 0.943079 0.768804
vn -0.935511 0.196090 0.293885
v -1.357169 1.533929 -0.611690
vt 0.942443 0.767734
vn -0.935511 0.196090 0.293885
v -1.353983 1.534526 -0.601947
vt 0.940012 0.765089
vn -0.935511 0.196090 0.293885
v -1.358539 1.532035 -0.606700
vt 1.981586 1.078350
vn -0.390601 0.913878 -0.110715
v -1.353983 1.534526 -0.601947
vt 1.981324 1.078528
vn -0.390005 0.913972 -0.112032
v -1.356602 1.544814 -0.508863
vt 1.961721 1.077193
vn -0.390005 0.913972 -0.112032
v -1.352079 1.546750 -0.509109
vt 1.974613 1.078137
vn -0.390005 0.913972 -0.112032
v -1.358539 1.531209 -0.614236
vt 1.983111 1.078439
vn -0.394926 0.913242 -0.100117
v -1.353983 1.534526 -0.601947
vt 1.981324 1.078528
vn -0.390134 0.913928 -0.111945
v -1.347291 1.576686 -0.087609
vt 0.011190 0.185179
vn -0.405751 0.913414 -0.032273
v -1.351735 1.574476 -0.082709
vt 0.011166 0.185184
vn -0.455101 0.890370 -0.011199
v -1.351752 1.574297 -0.096265
vt 0.011901 0.183455
vn -0.398527 0.916477 -0.035295
v -1.207513 1.603382 -0.106421
vt 1.233956 2.928700
vn -0.166735 0.985214 -0.039393
v -1.348940 1.578043 -0.086162
vt 1.241033 2.990475
vn -0.183532 0.982233 -0.039181
v -1.209043 1.596867 -0.262995
vt 1.167150 2.927918
vn -0.166226 0.984642 -0.053381
v -1.350031 1.570992 -0.258104
vt 1.167426 2.989370
vn -0.184819 0.981309 -0.053622
v -0.927439 1.604099 -0.616311
vt 1.017121 2.802370
vn -0.103538 0.989124 -0.104469
v -0.784571 1.616494 -0.620136
vt 1.017060 2.740187
vn -0.071602 0.992495 -0.099132
v -0.927194 1.614093 -0.521897
vt 1.058203 2.802907
vn -0.101330 0.990392 -0.094110
v -0.784984 1.625825 -0.526017
vt 1.057980 2.741097
vn -0.069834 0.993544 -0.089412
v -0.641160 1.624485 -0.624601
vt 1.016647 2.677905
vn -0.042233 0.994609 -0.094706
v -0.641401 1.633413 -0.530426
vt 1.057572 2.678814
vn -0.041025 0.995485 -0.085594
v -0.496747 1.628303 -0.629166
vt 1.016119 2.615280
vn -0.014801 0.995666 -0.091819
v -0.368333 1.628007 -0.633624
vt 1.015385 2.559639
vn 0.011927 0.995873 -0.089969
v -0.497091 1.636938 -0.534825
vt 1.057102 2.616290
vn -0.014117 0.996448 -0.083018
v -0.369423 1.636597 -0.538608
vt 1.056659 2.561001
vn 0.012010 0.996602 -0.081489
v -0.783993 1.648468 -0.139802
vt 1.224260 2.744092
vn -0.062402 0.997357 -0.037210
v -0.925168 1.637999 -0.132942
vt 1.225717 2.805374
vn -0.093628 0.994875 -0.038184
v -0.784606 1.643346 -0.276009
vt 1.166417 2.743083
vn -0.063421 0.996797 -0.048716
v -0.926073 1.632607 -0.271850
vt 1.166687 2.804466
vn -0.094225 0.994275 -0.050379
v -0.260240 1.625352 -0.632679
vt 1.016755 2.512863
vn 0.025415 0.995683 -0.089274
v -0.261508 1.633530 -0.541781
vt 1.056242 2.514246
vn 0.025723 0.996369 -0.081159
v -0.266302 1.625087 -0.637821
vt 1.014493 2.515420
vn 0.025415 0.995683 -0.089274
v -0.641196 1.655174 -0.142085
vt 1.224750 2.682255
vn -0.034524 0.998756 -0.035976
v -0.641523 1.650200 -0.280165
vt 1.166090 2.681105
vn -0.035724 0.998261 -0.046890
v -1.212885 1.564277 -0.607809
vt 1.017237 2.927335
vn -0.176913 0.977270 -0.116811
v -1.072697 1.586551 -0.612362
vt 1.017096 2.865805
vn -0.138107 0.984245 -0.110399
v -1.211834 1.575726 -0.513435
vt 1.058381 2.927326
vn -0.174229 0.979090 -0.105009
v -1.073043 1.597104 -0.517653
vt 1.058329 2.866507
vn -0.135599 0.985775 -0.099297
v -0.266302 1.625087 -0.637821
vt 1.014493 2.515420
vn 0.037028 0.994813 -0.094737
v -0.261825 1.625028 -0.636690
vt 1.015010 2.513499
vn 0.037028 0.994813 -0.094737
v -0.260240 1.625352 -0.632679
vt 1.016755 2.512863
vn 0.037028 0.994813 -0.094737
v -0.266302 1.625087 -0.637821
vt 1.014493 2.515420
vn 0.019403 0.963815 -0.265865
v -0.368333 1.628007 -0.633624
vt 1.015385 2.559639
vn 0.004604 0.966906 -0.255090
v -0.253212 1.621672 -0.648420
vt 1.009858 2.509549
vn 0.019326 0.963797 -0.265936
v -0.367752 1.625546 -0.643315
vt 1.011063 2.559285
vn 0.006226 0.966593 -0.256239
v -0.371356 1.657742 -0.135831
vt 1.230137 2.565610
vn -0.023126 0.723188 0.690264
v -0.265040 1.654945 -0.130537
vt 1.233451 2.519654
vn -0.021721 0.777279 0.628781
v -0.371618 1.652070 -0.133013
vt 1.233434 2.565800
vn -0.023126 0.723402 0.690039
v -0.258040 1.652154 -0.127512
vt 1.236036 2.516634
vn -0.021721 0.777279 0.628781
v -0.264101 1.649575 -0.291840
vt 1.164599 2.517722
vn 0.326498 0.944403 -0.038749
v -0.262852 1.641928 -0.429343
vt 1.105009 2.515898
vn 0.324502 0.944240 -0.055761
v -0.256928 1.647120 -0.291669
vt 1.164701 2.514442
vn 0.326498 0.944403 -0.038749
v -0.255653 1.639335 -0.431259
vt 1.104184 2.512586
vn 0.323930 0.944253 -0.058780
v -0.265040 1.654945 -0.130537
vt 1.233451 2.519654
vn 0.327721 0.944355 -0.028153
v -0.257980 1.652281 -0.135912
vt 1.232158 2.516376
vn 0.327601 0.944384 -0.028557
v -0.266302 1.625087 -0.637821
vt 1.014493 2.515420
vn 0.019325 0.963822 -0.265846
v -0.253212 1.621672 -0.648420
vt 1.009858 2.509549
vn 0.019325 0.963822 -0.265846
v -0.261825 1.625028 -0.636690
vt 1.015010 2.513499
vn 0.070001 0.971500 -0.226468
v -0.261825 1.625028 -0.636690
vt 1.015010 2.513499
vn 0.177004 0.972950 -0.148455
v -0.253212 1.621672 -0.648420
vt 1.009858 2.509549
vn 0.315000 0.945572 -0.081658
v -0.260240 1.625352 -0.632679
vt 1.016755 2.512863
vn 0.315995 0.945281 -0.081180
v -1.351388 1.574635 -0.082919
vt 1.242992 2.991814
vn 0.014977 0.842166 0.539011
v -1.348940 1.578043 -0.086162
vt 1.241033 2.990475
vn -0.027337 0.743932 0.667696
v -1.339669 1.575401 -0.084441
vt 1.242551 2.987353
vn -0.030221 0.736380 0.675893
v -1.073634 1.622296 -0.121699
vt 1.228918 2.870070
vn -0.016034 0.688611 0.724954
v -1.074340 1.617280 -0.119506
vt 1.231820 2.870614
vn -0.015328 0.688494 0.725080
v -1.207513 1.603382 -0.106421
vt 1.233956 2.928700
vn -0.021042 0.708787 0.705109
v -1.207503 1.598545 -0.104220
vt 1.236781 2.928992
vn -0.023220 0.714917 0.698823
v -0.924378 1.632857 -0.130685
vt 1.228759 2.805248
vn -0.017715 0.694991 0.718800
v -1.074340 1.617280 -0.119506
vt 1.231820 2.870614
vn -0.015416 0.688492 0.725080
v -0.925168 1.637999 -0.132942
vt 1.225717 2.805374
vn -0.017715 0.694858 0.718929
v -1.073634 1.622296 -0.121699
vt 1.228918 2.870070
vn -0.016033 0.688566 0.724996
v -0.925168 1.637999 -0.132942
vt 1.225717 2.805374
vn -0.017715 0.694991 0.718800
v -0.783993 1.648468 -0.139802
vt 1.224260 2.744092
vn -0.019710 0.702273 0.711635
v -0.784418 1.642983 -0.136965
vt 1.227562 2.744464
vn -0.019532 0.702099 0.711811
v -0.641196 1.655174 -0.142085
vt 1.224750 2.682255
vn -0.022417 0.695064 0.718598
v -0.640687 1.649855 -0.139601
vt 1.227908 2.682181
vn -0.022506 0.694571 0.719072
v -0.498049 1.658210 -0.140258
vt 1.226978 2.620360
vn -0.023833 0.682989 0.730040
v -0.497929 1.652683 -0.137753
vt 1.230175 2.620421
vn -0.025439 0.682844 0.730121
v -0.640687 1.649855 -0.139601
vt 1.227908 2.682181
vn -0.022417 0.694574 0.719072
v -0.497929 1.652683 -0.137753
vt 1.230175 2.620421
vn -0.023832 0.682898 0.730125
v -1.212885 1.564277 -0.607809
vt 1.017237 2.927335
vn -0.178600 0.953875 -0.241299
v -1.212604 1.561651 -0.616913
vt 1.013135 2.927290
vn -0.178325 0.953803 -0.241784
v -1.072697 1.586551 -0.612362
vt 1.017096 2.865805
vn -0.143031 0.953417 -0.265591
v -1.071229 1.584294 -0.621415
vt 1.013055 2.865198
vn -0.139444 0.954221 -0.264608
v -0.927439 1.604099 -0.616311
vt 1.017121 2.802370
vn -0.107537 0.963130 -0.246612
v -0.927320 1.601599 -0.625567
vt 1.012972 2.802323
vn -0.107220 0.963216 -0.246410
v -0.784571 1.616494 -0.620136
vt 1.017060 2.740187
vn -0.076506 0.970855 -0.227127
v -0.784361 1.614469 -0.629769
vt 1.012801 2.740054
vn -0.075835 0.970969 -0.226864
v -0.784571 1.616494 -0.620136
vt 1.017060 2.740187
vn -0.076511 0.970834 -0.227218
v -0.641160 1.624485 -0.624601
vt 1.016647 2.677905
vn -0.046915 0.972108 -0.229793
v -0.641063 1.622234 -0.633936
vt 1.012492 2.677806
vn -0.046335 0.972038 -0.230207
v -0.641160 1.624485 -0.624601
vt 1.016647 2.677905
vn -0.046836 0.972116 -0.229777
v -0.496747 1.628303 -0.629166
vt 1.016119 2.615280
vn -0.020014 0.969866 -0.242815
v -0.497211 1.625950 -0.638421
vt 1.011984 2.615406
vn -0.020433 0.969889 -0.242689
v -0.496747 1.628303 -0.629166
vt 1.016119 2.615280
vn -0.020128 0.969868 -0.242796
v -0.497211 1.625950 -0.638421
vt 1.011984 2.615406
vn -0.020319 0.969865 -0.242795
v -0.367752 1.625546 -0.643315
vt 1.011063 2.559285
vn 0.006302 0.966564 -0.256346
v -0.261508 1.633530 -0.541781
vt 1.056242 2.514246
vn 0.320496 0.944513 -0.071953
v -0.254282 1.630965 -0.543147
vt 1.055640 2.510928
vn 0.319833 0.944591 -0.073863
v -0.253212 1.621672 -0.648420
vt 1.009858 2.509549
vn 0.315015 0.945578 -0.081529
v -0.260240 1.625352 -0.632679
vt 1.016755 2.512863
vn 0.316011 0.945287 -0.081051
v -0.261508 1.633530 -0.541781
vt 1.056242 2.514246
vn 0.320518 0.944499 -0.072040
v -1.355529 1.536078 -0.601961
vt 1.017673 2.989727
vn -0.195528 0.957125 -0.213730
v -1.358601 1.533929 -0.611690
vt 1.013365 2.991070
vn -0.195528 0.957125 -0.213730
v -1.212604 1.561651 -0.616913
vt 1.013135 2.927290
vn -0.178335 0.953776 -0.241882
v -1.353626 1.548301 -0.509127
vt 1.058211 2.989248
vn -0.193739 0.975124 -0.107700
v -1.355529 1.536078 -0.601961
vt 1.017673 2.989727
vn -0.196540 0.973138 -0.119896
v -1.073634 1.622296 -0.121699
vt 1.228918 2.870070
vn -0.127505 0.991067 -0.039092
v -1.207513 1.603382 -0.106421
vt 1.233956 2.928700
vn -0.166617 0.985233 -0.039427
v -1.072726 1.616667 -0.267369
vt 1.166939 2.868299
vn -0.127518 0.990466 -0.052118
v -0.370901 1.652622 -0.287624
vt 1.165462 2.563983
vn 0.014425 0.998924 -0.044065
v -0.264101 1.649575 -0.291840
vt 1.164599 2.517722
vn 0.027029 0.998668 -0.043955
v -0.371356 1.657742 -0.135831
vt 1.230137 2.565610
vn 0.015519 0.999312 -0.033678
v -0.265040 1.654945 -0.130537
vt 1.233451 2.519654
vn 0.027625 0.999065 -0.033270
v -0.926073 1.632607 -0.271850
vt 1.166687 2.804466
vn -0.094303 0.994266 -0.050419
v -0.497781 1.653197 -0.284197
vt 1.165754 2.618893
vn -0.010007 0.998918 -0.045417
v -0.498049 1.658210 -0.140258
vt 1.226978 2.620360
vn -0.008817 0.999355 -0.034806
v -1.209043 1.596867 -0.262995
vt 1.167150 2.927918
vn -0.166232 0.984639 -0.053420
v -1.210277 1.587125 -0.398572
vt 1.108334 2.927378
vn -0.169332 0.982208 -0.081205
v -1.351707 1.560515 -0.394357
vt 1.108211 2.989086
vn -0.188614 0.978520 -0.083203
v -1.073114 1.607595 -0.402743
vt 1.108247 2.867345
vn -0.131014 0.988378 -0.077101
v -1.209043 1.596867 -0.262995
vt 1.167150 2.927918
vn -0.166107 0.984660 -0.053415
v -0.926676 1.624020 -0.407149
vt 1.108036 2.803563
vn -0.097219 0.992562 -0.073278
v -0.784874 1.635179 -0.411517
vt 1.107685 2.741994
vn -0.066224 0.995361 -0.069798
v -0.641549 1.642330 -0.416356
vt 1.107072 2.679876
vn -0.038113 0.997016 -0.067126
v -0.497451 1.645508 -0.421292
vt 1.106355 2.617480
vn -0.012006 0.997806 -0.065100
v -0.370342 1.644991 -0.425632
vt 1.105666 2.562453
vn 0.013022 0.997868 -0.063947
v -0.262852 1.641928 -0.429343
vt 1.105009 2.515898
vn 0.026226 0.997608 -0.063954
v -1.351707 1.560515 -0.394357
vt 1.108211 2.989086
vn -0.188639 0.978526 -0.083083
v -1.353626 1.548301 -0.509127
vt 1.058211 2.989248
vn -0.193714 0.975115 -0.107824
v -1.073043 1.597104 -0.517653
vt 1.058329 2.866507
vn -0.135612 0.985761 -0.099418
v -0.497091 1.636938 -0.534825
vt 1.057102 2.616290
vn -0.014016 0.996450 -0.083010
v -0.641401 1.633413 -0.530426
vt 1.057572 2.678814
vn -0.040918 0.995490 -0.085585
v -0.265040 1.654945 -0.130537
vt 1.233451 2.519654
vn 0.327816 0.944322 -0.028155
v -0.257980 1.652281 -0.135912
vt 1.232158 2.516376
vn 0.327613 0.944384 -0.028436
v -0.258040 1.652154 -0.127512
vt 1.236036 2.516634
vn 0.348262 0.937249 0.016671
v -1.350031 1.570992 -0.258104
vt 1.167426 2.989370
vn -0.616510 0.786362 -0.039371
v -1.348940 1.578043 -0.086162
vt 1.241033 2.990475
vn -0.618735 0.785098 -0.028077
v -1.352924 1.567638 -0.257924
vt 1.167398 2.990932
vn -0.616522 0.786346 -0.039506
v -1.351752 1.574297 -0.096265
vt 1.237470 2.991892
vn -0.618804 0.785042 -0.028122
v -1.351707 1.560515 -0.394357
vt 1.108211 2.989086
vn -0.615511 0.785667 -0.062234
v -1.354630 1.557137 -0.394119
vt 1.108184 2.990647
vn -0.615532 0.785629 -0.062514
v -1.353626 1.548301 -0.509127
vt 1.058211 2.989248
vn -0.618156 0.781913 -0.080591
v -1.356602 1.544815 -0.508863
vt 1.058171 2.990840
vn -0.618133 0.781887 -0.081018
v -1.355529 1.536078 -0.601961
vt 1.017673 2.989727
vn -0.620442 0.779254 -0.088398
v -1.358539 1.532035 -0.606700
vt 1.017555 2.991355
vn -0.638131 0.766389 -0.073738
v -1.358601 1.533929 -0.611690
vt 1.013365 2.991070
vn -0.757225 0.651953 0.039593
v -1.355529 1.536078 -0.601961
vt 1.017673 2.989727
vn -0.620531 0.779172 -0.088495
v -1.358539 1.531503 -0.611553
vt 1.013366 2.992278
vn -0.757225 0.651953 0.039593
v -1.351752 1.574297 -0.096265
vt 1.237470 2.991892
vn -0.653533 0.756897 -0.001400
v -1.348940 1.578043 -0.086162
vt 1.241033 2.990475
vn -0.653533 0.756897 -0.001400
v -1.351388 1.574635 -0.082919
vt 1.242992 2.991814
vn -0.653533 0.756897 -0.001400
v -1.348940 1.578043 -0.086162
vt 1.241033 2.990475
vn -0.027337 0.743973 0.667650
v -1.339669 1.575401 -0.084441
vt 1.242551 2.987353
vn -0.030311 0.736379 0.675890
v -1.161140 1.588271 -0.377337
vt 1.977457 2.083743
vn 0.153074 -0.985240 0.076620
v -1.070564 1.601787 -0.383552
vt 1.937765 2.085226
vn 0.127891 -0.988903 0.075599
v -1.162721 1.574836 -0.520727
vt 1.977059 2.146097
vn 0.156873 -0.983164 0.093695
v -1.071736 1.589194 -0.524807
vt 1.937152 2.146598
vn 0.130880 -0.987127 0.091924
v -0.926133 1.617545 -0.390395
vt 1.874840 2.086432
vn 0.096991 -0.992599 0.073076
v -0.784478 1.628745 -0.395413
vt 1.813327 2.086980
vn 0.067198 -0.995289 0.069894
v -0.926922 1.605629 -0.529459
vt 1.874022 2.146828
vn 0.099785 -0.991067 0.088484
v -0.784816 1.617666 -0.533814
vt 1.812240 2.147053
vn 0.069474 -0.994022 0.084220
v -0.641255 1.636084 -0.398575
vt 1.751261 2.086787
vn 0.038268 -0.997012 0.067100
v -0.497760 1.639453 -0.399577
vt 1.689161 2.085742
vn 0.018669 -0.997683 0.065416
v -0.641126 1.625371 -0.537302
vt 1.749918 2.146980
vn 0.039993 -0.995929 0.080786
v -0.497188 1.629018 -0.540128
vt 1.687579 2.146708
vn 0.019979 -0.996675 0.078995
v -0.641255 1.636084 -0.398575
vt 1.751261 2.086787
vn 0.038199 -0.997015 0.067096
v -1.070564 1.601787 -0.383552
vt 1.937765 2.085226
vn 0.127878 -0.988913 0.075482
v -0.641231 1.643796 -0.263474
vt 1.752555 2.028245
vn 0.036788 -0.997702 0.056905
v -0.497760 1.639453 -0.399577
vt 1.689161 2.085742
vn 0.018568 -0.997686 0.065410
v -0.497949 1.646989 -0.261135
vt 1.690595 2.025756
vn 0.018273 -0.998291 0.055505
v -0.784208 1.636779 -0.260589
vt 1.814482 2.028543
vn 0.065493 -0.996085 0.059370
v -0.925568 1.626041 -0.254805
vt 1.875841 2.027649
vn 0.095291 -0.993523 0.061894
v -1.070258 1.610792 -0.245806
vt 1.938855 2.025497
vn 0.126376 -0.989916 0.063989
v -1.160164 1.597771 -0.237476
vt 1.978248 2.023058
vn 0.150292 -0.986497 0.065087
v -0.641037 1.621586 -0.577783
vt 1.749509 2.164569
vn 0.041583 -0.994702 0.094015
v -0.496870 1.625257 -0.581357
vt 1.687046 2.164615
vn 0.021091 -0.995555 0.091790
v -0.784647 1.613685 -0.573964
vt 1.811831 2.164507
vn 0.071685 -0.992572 0.098294
v -0.784816 1.617666 -0.533814
vt 1.812240 2.147053
vn 0.069584 -0.994017 0.084191
v -0.641037 1.621586 -0.577783
vt 1.749509 2.164569
vn 0.041472 -0.994718 0.093893
v -0.927047 1.601441 -0.569716
vt 1.873772 2.164339
vn 0.102385 -0.989275 0.104174
v -1.071975 1.584530 -0.565315
vt 1.936995 2.164243
vn 0.133561 -0.984960 0.109611
v -0.926922 1.605629 -0.529459
vt 1.874022 2.146828
vn 0.099671 -0.991076 0.088514
v -1.163053 1.570048 -0.561771
vt 1.976956 2.163981
vn 0.160083 -0.980671 0.112504
v -0.497949 1.646989 -0.261135
vt 1.690595 2.025756
vn 0.018271 -0.998297 0.055402
v -0.456719 1.639285 -0.401770
vt 1.671384 2.086293
vn -0.000308 -0.997894 0.064870
v -0.456990 1.646312 -0.273546
vt 1.672753 2.030731
vn -0.000627 -0.998516 0.054452
v -0.456006 1.628986 -0.540590
vt 1.669756 2.146508
vn -0.000016 -0.996965 0.077855
v -0.496870 1.625257 -0.581357
vt 1.687046 2.164615
vn 0.020988 -0.995558 0.091781
v -0.497188 1.629018 -0.540128
vt 1.687579 2.146708
vn 0.019980 -0.996666 0.079103
v -0.455644 1.625180 -0.582279
vt 1.669196 2.164614
vn 0.000182 -0.995859 0.090907
usemtl Interior_Fade
f 3/3/3 2/2/2 1/1/1
f 4/4/4 2/2/2 3/3/3
f 6/6/6 1/1/1 5/5/5
f 3/3/3 1/1/1 6/6/6
f 8/8/8 5/5/5 7/7/7
f 6/6/6 5/5/5 8/8/8
f 10/10/10 7/7/7 9/9/9
f 8/8/8 7/7/7 10/10/10
f 12/12/12 9/9/9 11/11/11
f 10/10/10 9/9/9 12/12/12
f 14/14/14 11/11/11 13/13/13
f 12/12/12 11/11/11 14/14/14
f 17/17/17 16/16/16 15/15/15
f 18/18/18 16/16/16 17/17/17
f 20/20/20 18/18/18 19/19/19
f 16/16/16 18/18/18 20/20/20
f 22/22/22 19/19/19 21/21/21
f 20/20/20 19/19/19 22/22/22
f 24/24/24 21/21/21 23/23/23
f 22/22/22 21/21/21 24/24/24
f 26/26/26 23/23/23 25/25/25
f 24/24/24 23/23/23 26/26/26
f 28/28/28 25/25/25 27/27/27
f 26/26/26 25/25/25 28/28/28
f 30/30/30 13/13/13 29/29/29
f 14/14/14 13/13/13 30/30/30
f 32/32/32 15/15/15 31/31/31
f 17/17/17 15/15/15 32/32/32
f 34/34/34 29/29/29 33/33/33
f 30/30/30 29/29/29 34/34/34
f 36/36/36 31/31/31 35/35/35
f 32/32/32 31/31/31 36/36/36
f 11/11/11 19/19/19 18/18/18
f 9/9/9 19/19/19 11/11/11
f 39/39/39 38/38/38 37/37/37
f 40/40/40 38/38/38 39/39/39
f 42/42/42 6/6/6 41/41/41
f 3/3/3 6/6/6 42/42/42
f 41/41/41 8/8/8 43/43/43
f 6/6/6 8/8/8 41/41/41
f 43/43/43 10/10/10 44/44/44
f 8/8/8 10/10/10 43/43/43
f 44/44/44 12/12/12 45/45/45
f 10/10/10 12/12/12 44/44/44
f 47/47/47 20/20/20 46/46/46
f 16/16/16 20/20/20 47/47/47
f 46/46/46 22/22/22 48/48/48
f 20/20/20 22/22/22 46/46/46
f 48/48/48 24/24/24 49/49/49
f 22/22/22 24/24/24 48/48/48
f 49/49/49 26/26/26 50/50/50
f 24/24/24 26/26/26 49/49/49
f 50/50/50 28/28/28 51/51/51
f 26/26/26 28/28/28 50/50/50
f 13/13/13 18/18/18 17/17/17
f 11/11/11 18/18/18 13/13/13
f 52/52/52 12/12/12 14/14/14
f 45/45/45 12/12/12 52/52/52
f 15/15/15 47/47/47 53/53/53
f 16/16/16 47/47/47 15/15/15
f 29/29/29 17/17/17 32/32/32
f 13/13/13 17/17/17 29/29/29
f 54/54/54 14/14/14 30/30/30
f 52/52/52 14/14/14 54/54/54
f 31/31/31 53/53/53 55/55/55
f 15/15/15 53/53/53 31/31/31
f 33/33/33 32/32/32 36/36/36
f 29/29/29 32/32/32 33/33/33
f 54/54/54 30/30/30 34/34/34
f 35/35/35 55/55/55 56/56/56
f 31/31/31 55/55/55 35/35/35
f 7/7/7 23/23/23 21/21/21
f 5/5/5 23/23/23 7/7/7
f 9/9/9 21/21/21 19/19/19
f 7/7/7 21/21/21 9/9/9
f 25/25/25 2/2/2 27/27/27
f 1/1/1 2/2/2 25/25/25
f 5/5/5 25/25/25 23/23/23
f 1/1/1 25/25/25 5/5/5
f 59/59/59 58/58/58 57/57/57
f 60/60/60 58/58/58 59/59/59
f 61/61/61 60/60/60 59/59/59
f 62/62/62 60/60/60 61/61/61
f 63/63/63 62/62/62 61/61/61
f 64/64/64 62/62/62 63/63/63
f 65/65/65 64/64/64 63/63/63
f 66/66/66 64/64/64 65/65/65
f 67/67/67 66/66/66 65/65/65
f 68/68/68 66/66/66 67/67/67
f 69/69/69 68/68/68 67/67/67
f 70/70/70 68/68/68 69/69/69
f 73/73/73 72/72/72 71/71/71
f 74/74/74 72/72/72 73/73/73
f 75/75/75 71/71/71 72/72/72
f 76/76/76 71/71/71 75/75/75
f 77/77/77 76/76/76 75/75/75
f 78/78/78 76/76/76 77/77/77
f 79/79/79 78/78/78 77/77/77
f 80/80/80 78/78/78 79/79/79
f 81/81/81 80/80/80 79/79/79
f 82/82/82 80/80/80 81/81/81
f 83/83/83 82/82/82 81/81/81
f 84/84/84 82/82/82 83/83/83
f 85/85/85 70/70/70 69/69/69
f 86/86/86 70/70/70 85/85/85
f 87/87/87 74/74/74 73/73/73
f 88/88/88 74/74/74 87/87/87
f 89/89/89 86/86/86 85/85/85
f 90/90/90 86/86/86 89/89/89
f 91/91/91 88/88/88 87/87/87
f 92/92/92 88/88/88 91/91/91
f 68/68/68 76/76/76 66/66/66
f 71/71/71 76/76/76 68/68/68
f 93/93/93 59/59/59 57/57/57
f 94/94/94 59/59/59 93/93/93
f 94/94/94 61/61/61 59/59/59
f 95/95/95 61/61/61 94/94/94
f 95/95/95 63/63/63 61/61/61
f 96/96/96 63/63/63 95/95/95
f 96/96/96 65/65/65 63/63/63
f 97/97/97 65/65/65 96/96/96
f 97/97/97 67/67/67 65/65/65
f 98/98/98 67/67/67 97/97/97
f 99/99/99 75/75/75 72/72/72
f 100/100/100 75/75/75 99/99/99
f 100/100/100 77/77/77 75/75/75
f 101/101/101 77/77/77 100/100/100
f 101/101/101 79/79/79 77/77/77
f 102/102/102 79/79/79 101/101/101
f 102/102/102 81/81/81 79/79/79
f 103/103/103 81/81/81 102/102/102
f 103/103/103 83/83/83 81/81/81
f 104/104/104 83/83/83 103/103/103
f 70/70/70 71/71/71 68/68/68
f 73/73/73 71/71/71 70/70/70
f 105/105/105 67/67/67 98/98/98
f 69/69/69 67/67/67 105/105/105
f 74/74/74 99/99/99 72/72/72
f 106/106/106 99/99/99 74/74/74
f 86/86/86 73/73/73 70/70/70
f 87/87/87 73/73/73 86/86/86
f 107/107/107 69/69/69 105/105/105
f 85/85/85 69/69/69 107/107/107
f 88/88/88 106/106/106 74/74/74
f 108/108/108 106/106/106 88/88/88
f 90/90/90 87/87/87 86/86/86
f 91/91/91 87/87/87 90/90/90
f 89/89/89 85/85/85 107/107/107
f 92/92/92 108/108/108 88/88/88
f 109/109/109 108/108/108 92/92/92
f 64/64/64 80/80/80 62/62/62
f 78/78/78 80/80/80 64/64/64
f 66/66/66 78/78/78 64/64/64
f 76/76/76 78/78/78 66/66/66
f 82/82/82 58/58/58 60/60/60
f 84/84/84 58/58/58 82/82/82
f 62/62/62 82/82/82 60/60/60
f 80/80/80 82/82/82 62/62/62
f 112/112/112 111/111/111 110/110/110
f 113/113/113 111/111/111 112/112/112
f 116/116/116 115/115/115 114/114/114
f 117/117/117 115/115/115 116/116/116
f 119/119/119 114/114/114 118/118/118
f 116/116/116 114/114/114 119/119/119
f 121/121/121 118/118/118 120/120/120
f 119/119/119 118/118/118 121/121/121
f 113/113/113 120/120/120 111/111/111
f 121/121/121 120/120/120 113/113/113
f 124/124/124 123/123/123 122/122/122
f 125/125/125 123/123/123 124/124/124
f 127/127/127 122/122/122 126/126/126
f 124/124/124 122/122/122 127/127/127
f 129/129/129 126/126/126 128/128/128
f 127/127/127 126/126/126 129/129/129
f 131/131/131 128/128/128 130/130/130
f 129/129/129 128/128/128 131/131/131
f 133/133/133 130/130/130 132/132/132
f 131/131/131 130/130/130 133/133/133
f 136/136/136 135/135/135 134/134/134
f 137/137/137 135/135/135 136/136/136
f 137/137/137 139/139/139 138/138/138
f 136/136/136 139/139/139 137/137/137
f 141/141/141 138/138/138 140/140/140
f 142/142/142 138/138/138 141/141/141
f 145/145/145 144/144/144 143/143/143
f 144/144/144 146/146/146 143/143/143
f 147/147/147 146/146/146 144/144/144
f 150/150/150 149/149/149 148/148/148
f 152/152/152 151/151/151 150/150/150
f 155/155/155 154/154/154 153/153/153
f 155/155/155 157/157/157 156/156/156
f 156/156/156 154/154/154 155/155/155
f 158/158/158 154/154/154 156/156/156
f 161/161/161 160/160/160 159/159/159
f 164/164/164 163/163/163 162/162/162
f 167/167/167 166/166/166 165/165/165
f 169/169/169 135/135/135 168/168/168
f 170/170/170 135/135/135 169/169/169
f 172/172/172 168/168/168 171/171/171
f 169/169/169 168/168/168 172/172/172
f 175/175/175 174/174/174 173/173/173
f 171/171/171 174/174/174 175/175/175
f 137/137/137 177/177/177 176/176/176
f 138/138/138 177/177/177 137/137/137
f 180/180/180 179/179/179 178/178/178
f 142/142/142 177/177/177 138/138/138
f 181/181/181 177/177/177 142/142/142
f 179/179/179 181/181/181 182/182/182
f 177/177/177 181/181/181 179/179/179
f 181/181/181 143/143/143 183/183/183
f 142/142/142 143/143/143 181/181/181
f 182/182/182 183/183/183 184/184/184
f 181/181/181 183/183/183 182/182/182
f 183/183/183 146/146/146 185/185/185
f 143/143/143 146/146/146 183/183/183
f 184/184/184 185/185/185 186/186/186
f 183/183/183 185/185/185 184/184/184
f 185/185/185 149/149/149 187/187/187
f 146/146/146 149/149/149 185/185/185
f 187/187/187 186/186/186 185/185/185
f 188/188/188 186/186/186 187/187/187
f 151/151/151 187/187/187 149/149/149
f 189/189/189 187/187/187 151/151/151
f 151/151/151 190/190/190 189/189/189
f 154/154/154 190/190/190 151/151/151
f 189/189/189 188/188/188 187/187/187
f 191/191/191 188/188/188 189/189/189
f 192/192/192 189/189/189 190/190/190
f 191/191/191 189/189/189 192/192/192
f 194/194/194 190/190/190 193/193/193
f 194/194/194 196/196/196 195/195/195
f 193/193/193 196/196/196 194/194/194
f 199/199/199 198/198/198 197/197/197
f 200/200/200 198/198/198 199/199/199
f 200/200/200 201/201/201 198/198/198
f 202/202/202 201/201/201 200/200/200
f 205/205/205 204/204/204 203/203/203
f 206/206/206 204/204/204 205/205/205
f 204/204/204 207/207/207 203/203/203
f 208/208/208 207/207/207 204/204/204
f 206/206/206 210/210/210 209/209/209
f 205/205/205 210/210/210 206/206/206
f 209/209/209 212/212/212 211/211/211
f 210/210/210 212/212/212 209/209/209
f 202/202/202 208/208/208 201/201/201
f 207/207/207 208/208/208 202/202/202
f 214/214/214 197/197/197 213/213/213
f 199/199/199 197/197/197 214/214/214
f 216/216/216 180/180/180 215/215/215
f 176/176/176 180/180/180 216/216/216
f 216/216/216 215/215/215 217/217/217
f 217/217/217 135/135/135 216/216/216
f 168/168/168 135/135/135 217/217/217
f 176/176/176 135/135/135 137/137/137
f 216/216/216 135/135/135 176/176/176
f 214/214/214 219/219/219 218/218/218
f 213/213/213 219/219/219 214/214/214
f 218/218/218 221/221/221 220/220/220
f 219/219/219 221/221/221 218/218/218
f 222/222/222 220/220/220 221/221/221
f 223/223/223 220/220/220 222/222/222
f 178/178/178 224/224/224 180/180/180
f 215/215/215 224/224/224 225/225/225
f 180/180/180 224/224/224 215/215/215
f 226/226/226 217/217/217 215/215/215
f 227/227/227 217/217/217 226/226/226
f 215/215/215 228/228/228 226/226/226
f 225/225/225 228/228/228 215/215/215
f 227/227/227 171/171/171 217/217/217
f 174/174/174 171/171/171 227/227/227
f 171/171/171 168/168/168 217/217/217
f 229/229/229 226/226/226 228/228/228
f 230/230/230 226/226/226 229/229/229
f 231/231/231 226/226/226 230/230/230
f 227/227/227 226/226/226 231/231/231
f 227/227/227 232/232/232 174/174/174
f 233/233/233 232/232/232 227/227/227
f 234/234/234 223/223/223 222/222/222
f 235/235/235 223/223/223 234/234/234
f 238/238/238 237/237/237 236/236/236
f 239/239/239 237/237/237 238/238/238
f 240/240/240 239/239/239 238/238/238
f 241/241/241 239/239/239 240/240/240
f 244/244/244 243/243/243 242/242/242
f 245/245/245 243/243/243 244/244/244
f 248/248/248 247/247/247 246/246/246
f 249/249/249 247/247/247 248/248/248
f 252/252/252 251/251/251 250/250/250
f 253/253/253 251/251/251 252/252/252
f 254/254/254 241/241/241 240/240/240
f 255/255/255 241/241/241 254/254/254
f 258/258/258 257/257/257 256/256/256
f 250/250/250 259/259/259 252/252/252
f 258/258/258 261/261/261 260/260/260
f 256/256/256 261/261/261 258/258/258
f 264/264/264 263/263/263 262/262/262
f 267/267/267 266/266/266 265/265/265
f 265/265/265 268/268/268 267/267/267
f 271/271/271 270/270/270 269/269/269
f 270/270/270 272/272/272 269/269/269
f 273/273/273 272/272/272 270/270/270
f 276/276/276 275/275/275 274/274/274
f 277/277/277 276/276/276 274/274/274
f 278/278/278 276/276/276 277/277/277
f 212/212/212 279/279/279 211/211/211
f 280/280/280 279/279/279 212/212/212
f 283/283/283 282/282/282 281/281/281
f 284/284/284 282/282/282 283/283/283
f 287/287/287 286/286/286 285/285/285
f 288/288/288 286/286/286 287/287/287
f 291/291/291 290/290/290 289/289/289
f 292/292/292 290/290/290 291/291/291
f 293/293/293 174/174/174 232/232/232
f 173/173/173 174/174/174 293/293/293
f 296/296/296 295/295/295 294/294/294
f 297/297/297 295/295/295 296/296/296
f 156/156/156 298/298/298 158/158/158
f 301/301/301 300/300/300 299/299/299
f 232/232/232 302/302/302 293/293/293
f 176/176/176 179/179/179 180/180/180
f 177/177/177 179/179/179 176/176/176
f 195/195/195 303/303/303 194/194/194
f 304/304/304 303/303/303 195/195/195
f 303/303/303 190/190/190 194/194/194
f 192/192/192 190/190/190 303/303/303
f 196/196/196 193/193/193 158/158/158
f 275/275/275 273/273/273 274/274/274
f 272/272/272 273/273/273 275/275/275
f 266/266/266 264/264/264 265/265/265
f 263/263/263 264/264/264 266/266/266
f 305/305/305 295/295/295 297/297/297
f 233/233/233 227/227/227 231/231/231
f 245/245/245 305/305/305 297/297/297
f 244/244/244 305/305/305 245/245/245
f 257/257/257 248/248/248 256/256/256
f 306/306/306 248/248/248 257/257/257
f 260/260/260 264/264/264 262/262/262
f 261/261/261 264/264/264 260/260/260
f 307/307/307 278/278/278 277/277/277
f 310/310/310 309/309/309 308/308/308
f 306/306/306 249/249/249 248/248/248
f 158/158/158 190/190/190 154/154/154
f 193/193/193 190/190/190 158/158/158
f 175/175/175 172/172/172 171/171/171
f 135/135/135 170/170/170 134/134/134
f 140/140/140 138/138/138 139/139/139
f 142/142/142 145/145/145 143/143/143
f 141/141/141 145/145/145 142/142/142
f 149/149/149 147/147/147 148/148/148
f 146/146/146 147/147/147 149/149/149
f 151/151/151 149/149/149 150/150/150
f 152/152/152 154/154/154 151/151/151
f 153/153/153 154/154/154 152/152/152
f 163/163/163 311/311/311 162/162/162
f 312/312/312 311/311/311 163/163/163
f 159/159/159 314/314/314 313/313/313
f 160/160/160 314/314/314 159/159/159
f 313/313/313 314/314/314 315/315/315
f 316/316/316 166/166/166 167/167/167
f 318/318/318 166/166/166 317/317/317
f 165/165/165 166/166/166 318/318/318
f 321/321/321 320/320/320 319/319/319
f 322/322/322 320/320/320 321/321/321
f 324/324/324 319/319/319 323/323/323
f 321/321/321 319/319/319 324/324/324
f 326/326/326 323/323/323 325/325/325
f 324/324/324 323/323/323 326/326/326
f 329/329/329 328/328/328 327/327/327
f 330/330/330 328/328/328 329/329/329
f 322/322/322 327/327/327 320/320/320
f 329/329/329 327/327/327 322/322/322
f 333/333/333 332/332/332 331/331/331
f 334/334/334 332/332/332 333/333/333
f 334/334/334 335/335/335 332/332/332
f 336/336/336 335/335/335 334/334/334
f 339/339/339 338/338/338 337/337/337
f 340/340/340 338/338/338 339/339/339
f 342/342/342 331/331/331 341/341/341
f 333/333/333 331/331/331 342/342/342
f 336/336/336 337/337/337 335/335/335
f 339/339/339 337/337/337 336/336/336
usemtl Exterior_Fade
f 345/345/345 344/344/344 343/343/343
f 348/348/348 347/347/347 346/346/346
f 351/351/351 350/350/350 349/349/349
f 352/352/352 350/350/350 351/351/351
f 355/355/355 354/354/354 353/353/353
f 357/357/357 352/352/352 356/356/356
f 358/358/358 352/352/352 357/357/357
f 361/361/361 360/360/360 359/359/359
f 364/364/364 363/363/363 362/362/362
f 365/365/365 363/363/363 364/364/364
f 368/368/368 367/367/367 366/366/366
f 361/361/361 367/367/367 368/368/368
f 367/367/367 369/369/369 366/366/366
f 370/370/370 369/369/369 367/367/367
f 371/371/371 369/369/369 370/370/370
f 362/362/362 373/373/373 372/372/372
f 363/363/363 373/373/373 362/362/362
f 354/354/354 365/365/365 364/364/364
f 355/355/355 365/365/365 354/354/354
f 367/367/367 375/375/375 374/374/374
f 361/361/361 375/375/375 367/367/367
f 367/367/367 376/376/376 370/370/370
f 374/374/374 376/376/376 367/367/367
f 379/379/379 378/378/378 377/377/377
f 380/380/380 378/378/378 379/379/379
f 381/381/381 376/376/376 374/374/374
f 382/382/382 376/376/376 381/381/381
f 378/378/378 384/384/384 383/383/383
f 385/385/385 384/384/384 378/378/378
f 386/386/386 384/384/384 385/385/385
f 389/389/389 388/388/388 387/387/387
f 390/390/390 388/388/388 389/389/389
f 393/393/393 392/392/392 391/391/391
f 394/394/394 392/392/392 393/393/393
f 395/395/395 391/391/391 392/392/392
f 389/389/389 391/391/391 395/395/395
f 396/396/396 344/344/344 345/345/345
f 392/392/392 344/344/344 396/396/396
f 397/397/397 392/392/392 396/396/396
f 395/395/395 392/392/392 397/397/397
f 400/400/400 399/399/399 398/398/398
f 401/401/401 399/399/399 400/400/400
f 378/378/378 403/403/403 402/402/402
f 404/404/404 403/403/403 378/378/378
f 355/355/355 405/405/405 347/347/347
f 406/406/406 405/405/405 355/355/355
f 408/408/408 347/347/347 407/407/407
f 346/346/346 347/347/347 408/408/408
f 388/388/388 409/409/409 391/391/391
f 410/410/410 409/409/409 388/388/388
f 409/409/409 411/411/411 391/391/391
f 414/414/414 413/413/413 412/412/412
f 417/417/417 416/416/416 415/415/415
f 420/420/420 419/419/419 418/418/418
f 423/423/423 422/422/422 421/421/421
f 424/424/424 422/422/422 423/423/423
f 427/427/427 426/426/426 425/425/425
f 428/428/428 426/426/426 427/427/427
f 431/431/431 430/430/430 429/429/429
f 432/432/432 430/430/430 431/431/431
f 435/435/435 434/434/434 433/433/433
f 436/436/436 434/434/434 435/435/435
f 439/439/439 438/438/438 437/437/437
f 442/442/442 441/441/441 440/440/440
f 445/445/445 444/444/444 443/443/443
f 446/446/446 444/444/444 445/445/445
f 449/449/449 448/448/448 447/447/447
f 450/450/450 448/448/448 449/449/449
f 453/453/453 452/452/452 451/451/451
f 454/454/454 452/452/452 453/453/453
f 457/457/457 456/456/456 455/455/455
f 458/458/458 456/456/456 457/457/457
f 461/461/461 460/460/460 459/459/459
f 462/462/462 460/460/460 461/461/461
f 465/465/465 464/464/464 463/463/463
f 468/468/468 467/467/467 466/466/466
f 471/471/471 470/470/470 469/469/469
f 474/474/474 473/473/473 472/472/472
f 475/475/475 473/473/473 474/474/474
f 478/478/478 477/477/477 476/476/476
f 479/479/479 477/477/477 478/478/478
f 482/482/482 481/481/481 480/480/480
f 483/483/483 481/481/481 482/482/482
f 479/479/479 480/480/480 477/477/477
f 482/482/482 480/480/480 479/479/479
f 486/486/486 485/485/485 484/484/484
f 487/487/487 485/485/485 486/486/486
f 490/490/490 489/489/489 488/488/488
f 491/491/491 489/489/489 490/490/490
f 493/493/493 491/491/491 492/492/492
f 494/494/494 491/491/491 493/493/493
f 497/497/497 496/496/496 495/495/495
f 498/498/498 496/496/496 497/497/497
f 501/501/501 500/500/500 499/499/499
f 502/502/502 500/500/500 501/501/501
f 498/498/498 503/503/503 496/496/496
f 504/504/504 503/503/503 498/498/498
f 506/506/506 502/502/502 505/505/505
f 507/507/507 502/502/502 506/506/506
f 504/504/504 508/508/508 503/503/503
f 509/509/509 508/508/508 504/504/504
f 512/512/512 511/511/511 510/510/510
f 513/513/513 511/511/511 512/512/512
f 509/509/509 476/476/476 508/508/508
f 478/478/478 476/476/476 509/509/509
f 422/422/422 513/513/513 512/512/512
f 424/424/424 513/513/513 422/422/422
f 516/516/516 515/515/515 514/514/514
f 517/517/517 515/515/515 516/516/516
f 520/520/520 519/519/519 518/518/518
f 521/521/521 519/519/519 520/520/520
f 488/488/488 523/523/523 522/522/522
f 489/489/489 523/523/523 488/488/488
f 526/526/526 525/525/525 524/524/524
f 527/527/527 525/525/525 526/526/526
f 530/530/530 529/529/529 528/528/528
f 531/531/531 529/529/529 530/530/530
f 533/533/533 532/532/532 529/529/529
f 534/534/534 532/532/532 533/533/533
f 534/534/534 536/536/536 535/535/535
f 537/537/537 536/536/536 534/534/534
f 537/537/537 538/538/538 536/536/536
f 539/539/539 538/538/538 537/537/537
f 542/542/542 541/541/541 540/540/540
f 543/543/543 541/541/541 542/542/542
f 543/543/543 528/528/528 541/541/541
f 530/530/530 528/528/528 543/543/543
f 539/539/539 524/524/524 538/538/538
f 526/526/526 524/524/524 539/539/539
f 445/445/445 443/443/443 544/544/544
f 547/547/547 546/546/546 545/545/545
f 401/401/401 549/549/549 548/548/548
f 400/400/400 549/549/549 401/401/401
f 379/379/379 377/377/377 550/550/550
f 399/399/399 373/373/373 398/398/398
f 551/551/551 373/373/373 399/399/399
f 554/554/554 553/553/553 552/552/552
f 555/555/555 553/553/553 554/554/554
f 408/408/408 388/388/388 346/346/346
f 556/556/556 388/388/388 408/408/408
f 388/388/388 348/348/348 346/346/346
f 390/390/390 348/348/348 388/388/388
f 558/558/558 360/360/360 557/557/557
f 559/559/559 358/358/358 357/357/357
f 368/368/368 358/358/358 559/559/559
f 349/349/349 345/345/345 560/560/560
f 350/350/350 345/345/345 349/349/349
f 562/562/562 561/561/561 343/343/343
f 548/548/548 385/385/385 403/403/403
f 549/549/549 385/385/385 548/548/548
f 549/549/549 563/563/563 385/385/385
f 566/566/566 565/565/565 564/564/564
f 569/569/569 568/568/568 567/567/567
f 570/570/570 568/568/568 569/569/569
f 573/573/573 572/572/572 571/571/571
f 574/574/574 572/572/572 573/573/573
f 577/577/577 576/576/576 575/575/575
f 578/578/578 576/576/576 577/577/577
f 581/581/581 580/580/580 579/579/579
f 584/584/584 583/583/583 582/582/582
f 585/585/585 583/583/583 584/584/584
f 587/587/587 586/586/586 582/582/582
f 590/590/590 589/589/589 588/588/588
usemtl Glass_Tinted_Fade
f 593/593/593 592/592/592 591/591/591
f 594/594/594 592/592/592 593/593/593
f 597/597/597 596/596/596 595/595/595
f 598/598/598 596/596/596 597/597/597
f 598/598/598 599/599/599 596/596/596
f 600/600/600 599/599/599 598/598/598
f 603/603/603 602/602/602 601/601/601
f 604/604/604 602/602/602 603/603/603
f 607/607/607 606/606/606 605/605/605
f 608/608/608 606/606/606 607/607/607
f 611/611/611 610/610/610 609/609/609
f 602/602/602 610/610/610 611/611/611
f 604/604/604 610/610/610 602/602/602
f 613/613/613 605/605/605 612/612/612
f 607/607/607 605/605/605 613/613/613
f 616/616/616 615/615/615 614/614/614
f 617/617/617 615/615/615 616/616/616
f 620/620/620 619/619/619 618/618/618
f 623/623/623 622/622/622 621/621/621
f 624/624/624 622/622/622 623/623/623
f 627/627/627 626/626/626 625/625/625
f 628/628/628 626/626/626 627/627/627
f 631/631/631 630/630/630 629/629/629
f 632/632/632 630/630/630 631/631/631
f 634/634/634 629/629/629 633/633/633
f 631/631/631 629/629/629 634/634/634
f 637/637/637 636/636/636 635/635/635
f 640/640/640 639/639/639 638/638/638
f 643/643/643 642/642/642 641/641/641
f 646/646/646 645/645/645 644/644/644
f 647/647/647 645/645/645 646/646/646
f 650/650/650 649/649/649 648/648/648
f 651/651/651 649/649/649 650/650/650
f 648/648/648 653/653/653 652/652/652
f 654/654/654 653/653/653 648/648/648
f 654/654/654 655/655/655 653/653/653
f 656/656/656 655/655/655 654/654/654
f 655/655/655 658/658/658 657/657/657
f 659/659/659 658/658/658 655/655/655
f 660/660/660 625/625/625 657/657/657
f 627/627/627 625/625/625 660/660/660
f 663/663/663 662/662/662 661/661/661
f 664/664/664 662/662/662 663/663/663
f 665/665/665 664/664/664 663/663/663
f 666/666/666 664/664/664 665/665/665
f 667/667/667 666/666/666 665/665/665
f 668/668/668 666/666/666 667/667/667
f 670/670/670 668/668/668 669/669/669
f 671/671/671 668/668/668 670/670/670
f 673/673/673 671/671/671 672/672/672
f 674/674/674 671/671/671 673/673/673
f 622/622/622 676/676/676 675/675/675
f 677/677/677 676/676/676 622/622/622
f 632/632/632 678/678/678 630/630/630
f 679/679/679 678/678/678 632/632/632
f 681/681/681 679/679/679 680/680/680
f 682/682/682 679/679/679 681/681/681
f 661/661/661 684/684/684 683/683/683
f 685/685/685 684/684/684 661/661/661
f 617/617/617 595/595/595 615/615/615
f 597/597/597 595/595/595 617/617/617
f 614/614/614 686/686/686 616/616/616
f 687/687/687 686/686/686 614/614/614
f 690/690/690 689/689/689 688/688/688
f 593/593/593 689/689/689 690/690/690
f 693/693/693 692/692/692 691/691/691
f 694/694/694 692/692/692 693/693/693
f 690/690/690 606/606/606 695/695/695
f 688/688/688 606/606/606 690/690/690
f 697/697/697 691/691/691 696/696/696
f 693/693/693 691/691/691 697/697/697
f 699/699/699 594/594/594 698/698/698
f 700/700/700 594/594/594 699/699/699
f 699/699/699 690/690/690 701/701/701
f 702/702/702 690/690/690 699/699/699
f 703/703/703 690/690/690 608/608/608
f 701/701/701 690/690/690 703/703/703
f 695/695/695 704/704/704 703/703/703
f 607/607/607 704/704/704 695/695/695
f 607/607/607 705/705/705 704/704/704
f 613/613/613 705/705/705 607/607/607
f 696/696/696 707/707/707 706/706/706
f 691/691/691 707/707/707 696/696/696
f 707/707/707 692/692/692 708/708/708
f 691/691/691 692/692/692 707/707/707
f 616/616/616 709/709/709 699/699/699
f 710/710/710 709/709/709 616/616/616
f 699/699/699 617/617/617 616/616/616
f 701/701/701 617/617/617 699/699/699
f 597/597/597 701/701/701 703/703/703
f 711/711/711 701/701/701 597/597/597
f 598/598/598 703/703/703 704/704/704
f 597/597/597 703/703/703 598/598/598
f 600/600/600 704/704/704 705/705/705
f 598/598/598 704/704/704 600/600/600
f 706/706/706 604/604/604 712/712/712
f 707/707/707 604/604/604 706/706/706
f 604/604/604 708/708/708 610/610/610
f 707/707/707 708/708/708 604/604/604
f 601/601/601 713/713/713 712/712/712
f 599/599/599 713/713/713 601/601/601
f 603/603/603 705/705/705 706/706/706
f 713/713/713 705/705/705 603/603/603
f 706/706/706 613/613/613 696/696/696
f 705/705/705 613/613/613 706/706/706
f 613/613/613 697/697/697 696/696/696
f 612/612/612 697/697/697 613/613/613
f 716/716/716 715/715/715 714/714/714
f 719/719/719 718/718/718 717/717/717
f 720/720/720 718/718/718 719/719/719
f 722/722/722 717/717/717 721/721/721
f 719/719/719 717/717/717 722/722/722
f 724/724/724 721/721/721 723/723/723
f 722/722/722 721/721/721 724/724/724
f 726/726/726 723/723/723 725/725/725
f 724/724/724 723/723/723 726/726/726
f 729/729/729 728/728/728 727/727/727
f 726/726/726 728/728/728 729/729/729
f 732/732/732 731/731/731 730/730/730
f 734/734/734 646/646/646 733/733/733
f 647/647/647 646/646/646 734/734/734
usemtl Glass_Interior_Tinted_Fade
f 737/737/737 736/736/736 735/735/735
f 738/738/738 736/736/736 737/737/737
f 741/741/741 740/740/740 739/739/739
f 742/742/742 740/740/740 741/741/741
f 745/745/745 744/744/744 743/743/743
f 746/746/746 744/744/744 745/745/745
f 742/742/742 747/747/747 740/740/740
f 745/745/745 747/747/747 742/742/742
f 738/738/738 739/739/739 748/748/748
f 741/741/741 739/739/739 738/738/738
f 750/750/750 749/749/749 743/743/743
f 751/751/751 749/749/749 750/750/750
f 747/747/747 752/752/752 740/740/740
f 749/749/749 752/752/752 747/747/747
f 740/740/740 753/753/753 739/739/739
f 752/752/752 753/753/753 740/740/740
f 739/739/739 754/754/754 748/748/748
f 753/753/753 754/754/754 739/739/739
f 748/748/748 755/755/755 735/735/735
f 754/754/754 755/755/755 748/748/748
f 757/757/757 745/745/745 756/756/756
f 746/746/746 745/745/745 757/757/757
f 760/760/760 759/759/759 758/758/758
f 745/745/745 759/759/759 760/760/760
f 758/758/758 741/741/741 761/761/761
f 759/759/759 741/741/741 758/758/758
f 761/761/761 738/738/738 762/762/762
f 763/763/763 738/738/738 761/761/761
f 762/762/762 737/737/737 764/764/764
f 738/738/738 737/737/737 762/762/762
f 766/766/766 765/765/765 750/750/750
f 767/767/767 765/765/765 766/766/766
f 750/750/750 768/768/768 766/766/766
f 746/746/746 768/768/768 750/750/750
f 771/771/771 770/770/770 769/769/769
f 768/768/768 770/770/770 771/771/771
