# Exported from Godot Engine
mtllib Door_Top_RR.mtl
o Door_Top_RR
v -0.513629 1.622697 0.189562
vt 1.524231 1.343178
vn -0.952348 -0.171312 0.252360
v -0.510910 1.622571 0.191729
vt 1.523781 1.343220
vn 0.018765 -0.314505 0.949071
v -0.509419 1.588434 0.178534
vt 1.524244 1.338480
vn -0.930007 -0.235324 0.282331
v -0.506540 1.587348 0.180292
vt 1.523776 1.338445
vn 0.033287 -0.437538 0.898584
v -0.506407 1.562870 0.160453
vt 1.524084 1.334525
vn -0.906806 -0.347931 0.238005
v -0.503488 1.561548 0.161866
vt 1.523639 1.334539
vn 0.061467 -0.695515 0.715877
v -0.504110 1.547602 0.139164
vt 1.524030 1.331315
vn -0.896367 -0.412009 0.163631
v -0.501172 1.545977 0.140143
vt 1.523578 1.331347
vn 0.089056 -0.896388 0.434232
v -0.504454 1.538715 0.110208
vt 1.524172 1.327663
vn -0.893791 -0.438728 0.093036
v -0.501491 1.536952 0.110706
vt 1.523723 1.327756
vn 0.103497 -0.984529 0.141392
v -0.504973 1.538877 0.087005
vt 1.523924 1.325062
vn -0.879968 -0.472294 -0.050938
v -0.501998 1.537118 0.086080
vt 1.523546 1.325083
vn 0.113867 -0.962809 -0.245018
v -0.506731 1.546058 0.078611
vt 1.524101 1.323805
vn -0.901259 -0.337649 -0.271525
v -0.503759 1.544774 0.077061
vt 1.523723 1.323790
vn 0.068667 -0.393109 -0.916924
v -0.440924 1.546735 0.086574
vt 1.516198 1.325171
vn 0.174895 -0.952059 -0.250988
v -0.438650 1.549155 0.087846
vt 1.515834 1.325204
vn 0.970193 -0.242326 -0.001797
v -0.441187 1.552653 0.079966
vt 1.516056 1.324213
vn 0.125807 -0.393350 -0.910740
v -0.438679 1.554895 0.081617
vt 1.515679 1.324217
vn 0.956000 -0.058035 -0.287570
v -0.440635 1.547440 0.110403
vt 1.515755 1.327812
vn 0.965419 -0.235037 0.112800
v -0.443021 1.544865 0.110622
vt 1.516208 1.327873
vn 0.169365 -0.975926 0.137421
v -0.443079 1.555738 0.139099
vt 1.515857 1.331380
vn 0.963012 -0.202130 0.178188
v -0.445500 1.553409 0.140107
vt 1.516311 1.331410
vn 0.154982 -0.887050 0.434882
v -0.444610 1.571109 0.159279
vt 1.515752 1.334473
vn 0.965202 -0.124212 0.230121
v -0.447022 1.569177 0.160884
vt 1.516206 1.334502
vn 0.131349 -0.686781 0.714898
v -0.446889 1.592464 0.175725
vt 1.515713 1.337849
vn 0.963783 -0.073038 0.256492
v -0.449374 1.591197 0.177846
vt 1.516178 1.337906
vn 0.100566 -0.437810 0.893426
v -0.447807 1.624735 0.186696
vt 1.515422 1.342135
vn 0.972759 -0.051728 0.225974
v -0.450342 1.624354 0.189090
vt 1.515861 1.342288
vn 0.087672 -0.308521 0.947169
v -0.509488 1.561692 0.075502
vt 1.524586 1.322087
vn -0.879158 -0.246688 -0.407708
v -0.506183 1.560318 0.073998
vt 1.524093 1.322069
vn 0.061694 -0.074924 -0.995279
v -0.442899 1.565967 0.079333
vt 1.515690 1.322741
vn 0.104589 -0.066012 -0.992322
v -0.439866 1.568219 0.081113
vt 1.515165 1.322818
vn 0.918093 -0.016610 -0.396018
v -0.514218 1.582381 0.073786
vt 1.525185 1.319480
vn -0.791738 -0.227352 -0.566976
v -0.511228 1.582948 0.072114
vt 1.524671 1.319266
vn 0.063097 -0.046816 -0.996909
v -0.441235 1.584271 0.079325
vt 1.514884 1.320575
vn 0.116086 -0.038906 -0.992477
v -0.438210 1.584458 0.081050
vt 1.514390 1.320845
vn 0.884456 -0.127408 -0.448893
v -0.513629 1.622697 0.189562
vt 1.052434 1.058506
vn -0.952348 -0.171312 0.252360
v -0.509419 1.588434 0.178534
vt 1.057565 1.060970
vn -0.930007 -0.235324 0.282331
v -0.517412 1.634009 0.170149
vt 1.053223 1.053917
vn -0.976601 -0.141512 0.161943
v -0.514296 1.598097 0.164056
vt 1.052570 1.056598
vn -0.970044 -0.174639 0.168866
v -0.514296 1.598097 0.164056
vt 1.526634 1.338153
vn -0.970044 -0.174639 0.168866
v -0.511797 1.575437 0.149205
vt 1.526294 1.334487
vn -0.953199 -0.262695 0.149674
v -0.509871 1.562889 0.130526
vt 1.526491 1.331033
vn -0.946735 -0.302803 0.109562
v -0.510463 1.555441 0.106147
vt 1.526256 1.326866
vn -0.945762 -0.317611 0.068252
v -0.511601 1.558181 0.095611
vt 1.526489 1.324869
vn -0.946926 -0.321181 -0.013158
v -0.438558 1.563366 0.096479
vt 1.514078 1.325644
vn 0.997517 -0.046716 0.052709
v -0.439671 1.560126 0.108800
vt 1.514180 1.327528
vn 0.993986 -0.057518 0.093186
v -0.441902 1.567285 0.133202
vt 1.514139 1.331221
vn 0.993462 -0.043925 0.105374
v -0.443627 1.579931 0.150804
vt 1.514159 1.334341
vn 0.993415 -0.003919 0.114500
v -0.445902 1.600494 0.165383
vt 1.513984 1.337901
vn 0.994318 0.001093 0.106445
v -0.446281 1.632700 0.173039
vt 1.513549 1.342272
vn 0.995092 -0.008425 0.098599
v -0.513151 1.563647 0.091179
vt 1.526527 1.323504
vn -0.952994 -0.265072 -0.146760
v -0.438202 1.569206 0.092987
vt 1.513859 1.324213
vn 0.995706 0.001730 -0.092558
v -0.515777 1.573618 0.088312
vt 1.526802 1.321771
vn -0.946491 -0.240367 -0.215355
v -0.437850 1.579681 0.089965
vt 1.513509 1.322331
vn 0.989023 -0.065232 -0.132583
v -0.437078 1.584610 0.082580
vt 1.514131 1.320986
vn 0.980111 -0.155707 -0.123033
v -1.091511 1.547714 0.157668
vt 1.482444 1.337518
vn -0.044439 -0.434066 0.899784
v -1.092660 1.584506 0.169229
vt 1.481903 1.342320
vn -0.050335 -0.308138 0.950009
v -1.088678 1.549186 0.156131
vt 1.481996 1.337530
vn 0.924520 -0.118516 0.362239
v -1.089825 1.585008 0.167277
vt 1.481431 1.342219
vn 0.939077 -0.062910 0.337901
v -1.089634 1.521834 0.139196
vt 1.482562 1.333683
vn -0.022108 -0.701126 0.712695
v -1.086819 1.523545 0.138005
vt 1.482113 1.333674
vn 0.924382 -0.223830 0.308898
v -1.088155 1.506207 0.117440
vt 1.482657 1.330521
vn -0.000631 -0.902526 0.430636
v -1.085396 1.508217 0.116682
vt 1.482204 1.330486
vn 0.928421 -0.288351 0.234281
v -1.084360 1.497460 0.088163
vt 1.482573 1.326943
vn 0.019494 -0.990226 0.138103
v -1.081633 1.499609 0.087885
vt 1.482125 1.326844
vn 0.934908 -0.314842 0.163773
v -1.081988 1.497821 0.063648
vt 1.482798 1.324278
vn 0.036073 -0.968092 -0.247984
v -1.079358 1.499960 0.064790
vt 1.482421 1.324251
vn 0.936838 -0.349225 0.019422
v -1.080587 1.505692 0.054752
vt 1.482644 1.322984
vn 0.055479 -0.393904 -0.917476
v -1.077943 1.507356 0.056518
vt 1.482264 1.322993
vn 0.956712 -0.211809 -0.199597
v -1.146593 1.506931 0.054237
vt 1.490692 1.323550
vn -0.914510 -0.184665 -0.359957
v -1.146327 1.501207 0.060476
vt 1.490522 1.324534
vn -0.925672 -0.370788 -0.075158
v -1.143686 1.505056 0.052796
vt 1.490315 1.323539
vn -0.001288 -0.401936 -0.915667
v -1.143657 1.499122 0.059395
vt 1.490158 1.324494
vn -0.025286 -0.965593 -0.258827
v -1.143182 1.497426 0.083543
vt 1.490101 1.327194
vn -0.046532 -0.990544 0.129061
v -1.145870 1.499658 0.083127
vt 1.490554 1.327143
vn -0.930763 -0.363502 0.039335
v -1.144151 1.506072 0.113086
vt 1.489926 1.330726
vn -0.067005 -0.902147 0.426194
v -1.146779 1.508059 0.111882
vt 1.490381 1.330707
vn -0.937846 -0.330917 0.104592
v -1.146369 1.521793 0.133835
vt 1.489966 1.333818
vn -0.092341 -0.701930 0.706235
v -1.148889 1.523391 0.132040
vt 1.490419 1.333800
vn -0.954479 -0.254315 0.155863
v -1.148315 1.543840 0.150813
vt 1.489923 1.337215
vn -0.110327 -0.443840 0.889288
v -1.150778 1.544772 0.148501
vt 1.490382 1.337172
vn -0.965451 -0.190835 0.177444
v -1.152532 1.578129 0.161932
vt 1.490077 1.341811
vn -0.119238 -0.311644 0.942688
v -1.154904 1.578177 0.159348
vt 1.490533 1.341666
vn -0.977597 -0.158605 0.138379
v -1.080050 1.521436 0.051803
vt 1.482301 1.321259
vn 0.025673 -0.077322 -0.996676
v -1.077086 1.523235 0.053549
vt 1.481807 1.321269
vn 0.933105 -0.123937 -0.337572
v -1.147176 1.520296 0.053757
vt 1.491228 1.322159
vn -0.874300 -0.137991 -0.465357
v -1.143740 1.518482 0.052227
vt 1.490702 1.322073
vn -0.018188 -0.074282 -0.997071
v -1.077970 1.544549 0.050195
vt 1.481766 1.318448
vn 0.020581 -0.049609 -0.998557
v -1.075068 1.544381 0.052095
vt 1.481249 1.318654
vn 0.856354 -0.115807 -0.503236
v -1.150994 1.536164 0.053482
vt 1.492031 1.320198
vn -0.822055 -0.243077 -0.514917
v -1.147848 1.536395 0.051995
vt 1.491541 1.319920
vn -0.033068 -0.048992 -0.998252
v -1.084048 1.559494 0.142020
vt 1.479745 1.337621
vn 0.964973 -0.058338 0.255779
v -1.084817 1.597914 0.148204
vt 1.478373 1.342531
vn 0.965998 -0.034931 0.256179
v -1.082322 1.536782 0.127139
vt 1.479880 1.333691
vn 0.965526 -0.132733 0.223925
v -1.081099 1.524186 0.108433
vt 1.479737 1.330193
vn 0.967617 -0.173136 0.183685
v -1.077637 1.517012 0.084211
vt 1.480054 1.326018
vn 0.971841 -0.187725 0.142427
v -1.076072 1.519936 0.073780
vt 1.479857 1.324019
vn 0.979719 -0.190733 0.061410
v -1.148407 1.512106 0.081388
vt 1.492137 1.326894
vn -0.981366 -0.191424 0.016643
v -1.148996 1.515231 0.069002
vt 1.492279 1.325009
vn -0.983213 -0.180885 -0.023948
v -1.149043 1.519373 0.105852
vt 1.492099 1.330591
vn -0.983637 -0.177837 0.028862
v -1.150396 1.532044 0.123469
vt 1.492007 1.333712
vn -0.989681 -0.138222 0.037762
v -1.152040 1.552650 0.138072
vt 1.492074 1.337284
vn -0.993058 -0.116123 0.018743
v -1.155613 1.585975 0.145605
vt 1.492449 1.341836
vn -0.993221 -0.116108 0.005563
v -1.074936 1.525584 0.069452
vt 1.479842 1.322656
vn 0.988443 -0.133619 -0.071600
v -1.149865 1.520988 0.065462
vt 1.492515 1.323577
vn -0.976767 -0.131980 -0.168844
v -1.073464 1.535832 0.066743
vt 1.479596 1.320920
vn 0.983977 -0.109607 -0.140625
v -1.151392 1.531336 0.062368
vt 1.492890 1.321697
vn -0.958079 -0.197099 -0.207935
v -1.152251 1.536154 0.054920
vt 1.492288 1.320342
vn -0.937835 -0.285586 -0.197248
v -1.152040 1.552650 0.138072
vt 1.492074 1.337284
vn 0.011628 0.353410 -0.935396
v -1.084048 1.559494 0.142020
vt 1.501047 1.337103
vn 0.012519 0.341932 -0.939641
v -1.155613 1.585975 0.145605
vt 1.492449 1.341836
vn 0.020726 0.189010 -0.981757
v -1.084817 1.597914 0.148204
vt 1.501706 1.342083
vn 0.020726 0.189010 -0.981757
v -1.148996 1.515231 0.069002
vt 1.492279 1.325009
vn -0.077940 0.964502 0.252313
v -1.076072 1.519936 0.073780
vt 1.501556 1.326118
vn -0.077940 0.964502 0.252313
v -1.148407 1.512106 0.081388
vt 1.492137 1.326894
vn -0.065411 0.991908 -0.108810
v -1.077637 1.517012 0.084211
vt 1.501266 1.327504
vn -0.065809 0.992726 -0.100819
v -1.149043 1.519373 0.105852
vt 1.492099 1.330591
vn -0.045208 0.905285 -0.422392
v -1.081099 1.524186 0.108433
vt 1.500803 1.330758
vn -0.045322 0.905681 -0.421530
v -1.150396 1.532044 0.123469
vt 1.492007 1.333712
vn -0.015617 0.693335 -0.720446
v -1.082322 1.536782 0.127139
vt 1.500855 1.333647
vn -0.015218 0.689178 -0.724432
v -0.446281 1.632700 0.173039
vt 1.513549 1.342272
vn 0.028027 0.199207 -0.979556
v -0.517412 1.634009 0.170149
vt 1.504406 1.342106
vn 0.028027 0.199207 -0.979556
v -0.445902 1.600494 0.165383
vt 1.513984 1.337901
vn 0.011513 0.361654 -0.932241
v -0.514296 1.598097 0.164056
vt 1.505003 1.337431
vn 0.012437 0.354627 -0.934925
v -0.443627 1.579931 0.150804
vt 1.514159 1.334341
vn -0.022616 0.692862 -0.720716
v -0.511797 1.575437 0.149205
vt 1.505304 1.334002
vn -0.022213 0.688775 -0.724635
v -0.441902 1.567285 0.133202
vt 1.514139 1.331221
vn -0.044819 0.905298 -0.422407
v -0.509871 1.562889 0.130526
vt 1.505435 1.331130
vn -0.044932 0.905717 -0.421494
v -0.439671 1.560126 0.108800
vt 1.514180 1.327528
vn -0.060612 0.992233 -0.108623
v -0.510463 1.555441 0.106147
vt 1.505056 1.327871
vn -0.061033 0.993054 -0.100588
v -0.438558 1.563366 0.096479
vt 1.514078 1.325644
vn -0.072407 0.964876 0.252531
v -0.511601 1.558181 0.095611
vt 1.504804 1.326476
vn -0.072407 0.964876 0.252531
v -1.079140 1.559124 0.286317
vt 1.634785 1.232425
vn 0.176079 -0.141198 0.974197
v -1.108674 1.553946 0.301734
vt 1.641752 1.234975
vn 0.682223 -0.167417 0.711718
v -1.072139 1.612350 0.267126
vt 1.630266 1.243375
vn 0.086961 0.348866 0.933129
v -1.108490 1.607240 0.273749
vt 1.633077 1.244429
vn 0.310266 0.384985 0.869207
v -1.025432 1.618316 0.264028
vt 1.618171 1.241605
vn -0.006215 0.324695 0.945798
v -1.010364 1.567039 0.281627
vt 1.620344 1.229788
vn 0.011193 -0.152007 0.988316
v -0.765018 1.585736 0.288120
vt 1.569629 1.227370
vn -0.034512 -0.052223 0.998039
v -0.784431 1.642238 0.268862
vt 1.569676 1.239504
vn -0.054704 0.312585 0.948313
v -0.925675 1.629839 0.265255
vt 1.595177 1.240609
vn -0.049413 0.310886 0.949162
v -0.641362 1.647859 0.275620
vt 1.546733 1.239482
vn -0.063503 0.315492 0.946801
v -0.575666 1.649035 0.280476
vt 1.531940 1.239467
vn -0.132701 0.310679 0.941206
v -0.576073 1.595311 0.298321
vt 1.530136 1.228067
vn -0.074221 -0.141741 0.987117
v -0.535958 1.649424 0.288183
vt 1.523139 1.241032
vn -0.266124 0.301061 0.915718
v -0.530046 1.597155 0.306147
vt 1.520000 1.229856
vn -0.267018 -0.143401 0.952963
v -0.482377 1.648486 0.320345
vt 1.515345 1.243715
vn -0.761878 0.238553 0.602191
v -0.497703 1.598201 0.322727
vt 1.512226 1.232477
vn -0.558546 -0.301660 0.772676
v -0.501310 1.649220 0.302206
vt 1.519334 1.242312
vn -0.455719 0.279673 0.845046
v -0.469640 1.647339 0.343703
vt 1.511381 1.245232
vn -0.916006 0.225366 0.331877
v -0.481130 1.597527 0.346226
vt 1.506498 1.235665
vn -0.860562 -0.370383 0.349642
v -0.462721 1.642615 0.423083
vt 1.505952 1.249084
vn -0.969930 0.243369 0.002616
v -0.473561 1.593733 0.376797
vt 1.500285 1.239316
vn -0.930973 -0.364983 -0.008820
v -0.464772 1.646291 0.363282
vt 1.508643 1.247175
vn -0.965361 0.204867 0.161581
v -0.462588 1.632608 0.564041
vt 1.480963 1.274854
vn -0.955837 0.293097 0.021696
v -0.470552 1.606771 0.562204
vt 1.477182 1.270753
vn -0.966873 0.254863 -0.014201
v -0.479689 1.577434 0.565098
vt 1.472631 1.267193
vn -0.961821 -0.264108 -0.071740
v -0.641214 1.629053 0.562176
vt 1.039883 1.110116
vn 0.011499 -0.024009 -0.999646
v -0.647696 1.594031 0.562941
vt 1.039568 1.116845
vn 0.005975 -0.003326 -0.999977
v -0.552058 1.631283 0.563151
vt 1.021287 1.110439
vn -0.002008 0.026482 -0.999647
v -0.927054 1.608731 0.556452
vt 1.092257 1.111012
vn 0.026383 -0.050502 -0.998375
v -0.910717 1.575010 0.558589
vt 1.091493 1.117787
vn 0.023872 -0.043028 -0.998789
v -0.784912 1.622418 0.559521
vt 1.066230 1.110566
vn 0.019284 -0.029230 -0.999387
v -1.114215 1.584532 0.551111
vt 1.131319 1.113533
vn 0.063876 -0.244949 -0.967430
v -1.138101 1.552601 0.557617
vt 1.136431 1.119676
vn 0.038681 -0.159423 -0.986452
v -1.057274 1.592525 0.552798
vt 1.119260 1.112755
vn 0.025984 -0.118126 -0.992659
v -1.131841 1.602771 0.293550
vt 1.635733 1.245425
vn 0.715972 0.431561 0.548762
v -1.146754 1.598747 0.322859
vt 1.639827 1.247431
vn 0.836007 0.445295 0.320631
v -1.126342 1.551818 0.333861
vt 1.648257 1.239816
vn 0.953553 -0.020716 0.300513
v -1.151259 1.595995 0.352701
vt 1.644309 1.250995
vn 0.894708 0.428113 0.127347
v -1.131303 1.547269 0.380214
vt 1.654906 1.247006
vn 0.992219 -0.123732 0.013878
v -1.133073 1.532980 0.536442
vt 1.671762 1.273742
vn 0.998565 -0.037113 -0.038604
v -1.152336 1.591923 0.403943
vt 1.647473 1.253920
vn 0.913113 0.404876 0.047960
v -1.154050 1.578644 0.549872
vt 1.663086 1.280476
vn 0.912067 0.408294 0.037822
v -1.001043 1.519742 0.261130
vt 1.620732 1.219252
vn 0.089666 -0.767935 0.634221
v -1.098764 1.496574 0.258372
vt 1.642419 1.218704
vn 0.267787 -0.804878 0.529585
v -1.147806 1.467026 0.223990
vt 1.652411 1.209038
vn 0.199478 -0.979760 0.016698
v -0.993323 1.497939 0.192559
vt 1.620312 1.204664
vn 0.117558 -0.944577 0.306519
v -1.219645 1.467854 0.171083
vt 1.663815 1.196057
vn 0.123496 -0.975330 -0.182975
v -0.761645 1.540682 0.268676
vt 1.569836 1.217587
vn 0.029095 -0.786341 0.617107
v -0.754976 1.519092 0.203635
vt 1.569548 1.203914
vn 0.050673 -0.951382 0.303817
v -0.571791 1.546278 0.275963
vt 1.529222 1.217024
vn -0.008435 -0.849498 0.527525
v -0.566260 1.526341 0.203220
vt 1.529949 1.201298
vn 0.015170 -0.967526 0.252317
v -0.509481 1.543113 0.283142
vt 1.515230 1.217279
vn -0.072602 -0.930982 0.357773
v -0.378217 1.530194 0.198592
vt 1.495785 1.192719
vn -0.063419 -0.996348 0.057181
v -0.468776 1.536622 0.293808
vt 1.505893 1.217241
vn -0.244198 -0.951903 0.185061
v -0.345722 1.528786 0.211494
vt 1.490212 1.192408
vn -0.071085 -0.996584 -0.042045
v -0.440648 1.528639 0.318137
vt 1.497665 1.219602
vn -0.242814 -0.969806 0.022753
v -0.431441 1.525326 0.356847
vt 1.490620 1.225008
vn -0.351589 -0.932786 -0.079345
v -0.327290 1.531498 0.240051
vt 1.485618 1.194988
vn -0.047770 -0.996584 -0.067363
v -0.326201 1.523880 0.321576
vt 1.477296 1.206126
vn -0.034288 -0.994592 -0.098032
v -0.404726 1.503753 0.538117
vt 1.459253 1.248934
vn -0.100969 -0.980336 -0.169548
v -0.439399 1.522008 0.535343
vt 1.465811 1.253910
vn -0.768801 -0.629191 -0.114296
v -0.452921 1.506237 0.582938
vt 1.459610 1.261366
vn -0.579587 -0.709501 -0.400858
v -0.403218 1.478872 0.588987
vt 1.450803 1.256180
vn -0.103893 -0.892597 -0.438721
v -0.754976 1.519092 0.203635
vt 1.569548 1.203914
vn 0.028780 -0.036706 -0.998912
v -0.764698 1.607723 0.200919
vt 1.571213 1.186142
vn 0.030487 -0.036799 -0.998858
v -0.993323 1.497939 0.192559
vt 1.620312 1.204664
vn 0.072801 -0.035928 -0.996699
v -1.014041 1.587378 0.186895
vt 1.621393 1.185484
vn 0.075985 -0.035608 -0.996473
v -0.566260 1.526341 0.203220
vt 1.529949 1.201298
vn -0.006880 -0.022775 -0.999717
v -0.580155 1.616540 0.199640
vt 1.534385 1.183262
vn -0.006291 -0.024691 -0.999675
v -0.332066 1.613196 0.247051
vt 1.477564 1.180595
vn 0.986223 0.058231 -0.154836
v -0.348764 1.614574 0.213090
vt 1.485556 1.175978
vn 0.657331 0.048220 -0.752058
v -0.327290 1.531498 0.240051
vt 1.485618 1.194988
vn 0.984424 0.058923 -0.165645
v -0.345722 1.528786 0.211494
vt 1.490212 1.192408
vn 0.664937 0.048940 -0.745294
v -0.379023 1.615954 0.200247
vt 1.493544 1.175010
vn 0.045178 -0.006509 -0.998958
v -0.378217 1.530194 0.198592
vt 1.495785 1.192719
vn 0.047884 -0.006331 -0.998833
v -0.326201 1.523880 0.321576
vt 1.477296 1.206126
vn 0.999790 0.017722 -0.010272
v -0.330083 1.609440 0.336025
vt 1.464489 1.194719
vn 0.999827 0.015617 -0.010062
v -0.327917 1.501928 0.548967
vt 1.445683 1.240038
vn 0.998887 -0.000128 -0.047173
v -0.324391 1.587560 0.553546
vt 1.434528 1.226241
vn 0.999446 0.001009 -0.033266
v -1.219645 1.467854 0.171083
vt 1.663815 1.196057
vn 0.022198 -0.039121 -0.998988
v -1.224673 1.559283 0.168154
vt 1.665237 1.178309
vn 0.037567 -0.038026 -0.998570
v -1.133702 1.491415 0.274057
vt 1.650777 1.221341
vn 0.529807 -0.728424 0.434399
v -1.193046 1.459087 0.270421
vt 1.664022 1.215768
vn 0.203593 -0.977223 -0.059881
v -1.151469 1.488059 0.305920
vt 1.657450 1.226521
vn 0.731061 -0.682125 0.015985
v -1.258213 1.552425 0.181979
vt 1.674570 1.180812
vn -0.699825 -0.100185 -0.707254
v -1.248424 1.462972 0.185630
vt 1.668631 1.197394
vn -0.735741 -0.104080 -0.669218
v -1.272828 1.546981 0.217093
vt 1.682800 1.186604
vn -0.983989 -0.151568 -0.093773
v -1.262299 1.458774 0.221393
vt 1.672703 1.201628
vn -0.984904 -0.152491 -0.081920
v -1.268338 1.435990 0.495596
vt 1.702197 1.247450
vn -0.985263 -0.160084 -0.060248
v -1.285625 1.521985 0.509112
vt 1.717307 1.236682
vn -0.985505 -0.159374 -0.058136
v -1.248424 1.462972 0.185630
vt 1.668631 1.197394
vn 0.076261 -0.992069 -0.099916
v -1.262299 1.458774 0.221393
vt 1.672703 1.201628
vn 0.063283 -0.994266 -0.086198
v -1.154801 1.474450 0.532838
vt 1.683084 1.267149
vn 0.813294 -0.570540 -0.114177
v -1.200547 1.437545 0.520783
vt 1.692580 1.259163
vn 0.336084 -0.922095 -0.191805
v -1.268338 1.435990 0.495596
vt 1.702197 1.247450
vn 0.071388 -0.985739 -0.152392
v -1.188605 1.403777 0.574182
vt 1.699649 1.269178
vn 0.278375 -0.797710 -0.534945
v -1.270052 1.398713 0.571071
vt 1.711733 1.261934
vn 0.130574 -0.863804 -0.486613
v -1.156221 1.428858 0.570923
vt 1.692492 1.271158
vn 0.558607 -0.592216 -0.580722
v -1.138522 1.463896 0.565351
vt 1.686006 1.272953
vn 0.791376 -0.338839 -0.508834
v -1.123329 1.527745 0.554903
vt 1.673845 1.277185
vn 0.859297 -0.062740 -0.507615
v -1.270052 1.398713 0.571071
vt 1.711733 1.261934
vn -0.980155 -0.172681 -0.097348
v -1.288059 1.486359 0.604785
vt 1.725704 1.252994
vn -0.980155 -0.172681 -0.097348
v -1.315267 1.528150 0.509911
vt 1.961916 1.084980
vn -0.181883 -0.970654 -0.157319
v -1.316507 1.489013 0.600142
vt 1.981705 1.089381
vn -0.115073 -0.920803 -0.372667
v -1.285625 1.521985 0.509112
vt 1.961233 1.091170
vn -0.182080 -0.970707 -0.156762
v -1.288059 1.486359 0.604785
vt 1.980653 1.095110
vn -0.115073 -0.920803 -0.372667
v -1.307154 1.554855 0.206363
vt 1.899393 1.082861
vn -0.194288 -0.974102 -0.115659
v -1.272828 1.546981 0.217093
vt 1.901299 1.090142
vn -0.195394 -0.974429 -0.110947
v -1.307154 1.554855 0.206363
vt 1.899393 1.082861
vn -0.253875 -0.962799 -0.092556
v -1.283072 1.563840 0.155479
vt 1.888472 1.087028
vn -0.091777 -0.985073 -0.145631
v -1.352924 1.567638 0.257924
vt 1.910167 1.074475
vn -0.355592 -0.930494 -0.087955
v -1.351752 1.574297 0.096265
vt 1.877100 1.073077
vn -0.057670 -0.985026 -0.162473
v -1.339669 1.575401 0.084441
vt 1.222880 1.045997
vn 0.113264 -0.958783 -0.260590
v -1.351752 1.574297 0.096265
vt 1.220429 1.049725
vn -0.057670 -0.985026 -0.162473
v -1.235068 1.576866 0.134285
vt 1.200794 1.054256
vn 0.170479 -0.878542 -0.446207
v -1.283072 1.563840 0.155479
vt 1.210493 1.059604
vn -0.091777 -0.985073 -0.145631
v -1.283072 1.563840 0.155479
vt 1.210493 1.059604
vn -0.062789 -0.934145 -0.351328
v -1.258213 1.552425 0.181979
vt 1.205288 1.065347
vn -0.073168 -0.937584 -0.339975
v -1.235068 1.576866 0.134285
vt 1.200794 1.054256
vn 0.113688 -0.871028 -0.477896
v -1.224673 1.559283 0.168154
vt 1.198534 1.062036
vn 0.120895 -0.868741 -0.480284
v -1.283072 1.563840 0.155479
vt 1.888472 1.087028
vn -0.062789 -0.934145 -0.351328
v -1.258213 1.552425 0.181979
vt 1.893856 1.092627
vn -0.073168 -0.937584 -0.339975
v -0.924378 1.632857 0.130686
vt 1.136590 1.048145
vn 0.096690 -0.851719 -0.515002
v -1.074340 1.617280 0.119506
vt 1.167509 1.047786
vn 0.159398 -0.849630 -0.502714
v -1.014041 1.587378 0.186895
vt 1.154963 1.062139
vn 0.124502 -0.853445 -0.506093
v -1.014041 1.587378 0.186895
vt 1.154963 1.062139
vn 0.157965 -0.855704 -0.492766
v -0.764698 1.607723 0.200919
vt 1.103760 1.062247
vn 0.066584 -0.857191 -0.510677
v -0.784418 1.642983 0.136966
vt 1.107848 1.048096
vn 0.074764 -0.855297 -0.512716
v -0.580155 1.616540 0.199640
vt 1.066023 1.060964
vn 0.016783 -0.867098 -0.497855
v -0.497929 1.652683 0.137754
vt 1.049249 1.046979
vn -0.007277 -0.869792 -0.493365
v -0.640687 1.649855 0.139602
vt 1.078442 1.047584
vn 0.038770 -0.863238 -0.503305
v -0.258040 1.652154 0.127513
vt 1.000543 1.045313
vn 0.303360 -0.937714 -0.169306
v -0.371618 1.652070 0.133014
vt 1.023395 1.046245
vn -0.013292 -0.872774 -0.487943
v -0.379023 1.615954 0.200247
vt 1.024917 1.060997
vn -0.003694 -0.878269 -0.478152
v -0.348764 1.614574 0.213090
vt 1.018696 1.063551
vn 0.174500 -0.956226 -0.234909
v -0.348764 1.614574 0.213090
vt 1.894770 1.098666
vn 0.174500 -0.956226 -0.234909
v -0.332066 1.613196 0.247051
vt 1.901680 1.102319
vn 0.411568 -0.910098 -0.048310
v -0.258040 1.652154 0.127513
vt 1.876567 1.117215
vn 0.303360 -0.937714 -0.169306
v -0.330083 1.609440 0.336025
vt 1.920017 1.103629
vn 0.449453 -0.890558 -0.069989
v -0.256056 1.647121 0.291584
vt 1.909736 1.118962
vn 0.439451 -0.896494 -0.056408
v -0.253920 1.631070 0.543011
vt 1.961658 1.121588
vn 0.591867 -0.776980 -0.214467
v -0.254772 1.639622 0.431152
vt 1.938532 1.120248
vn 0.461968 -0.883201 -0.080883
v -0.324391 1.587560 0.553546
vt 1.965099 1.105900
vn 0.550790 -0.813792 -0.185402
v -0.253454 1.624884 0.612393
vt 1.975741 1.123973
vn 0.688650 -0.646983 -0.327374
v -0.271994 1.565287 0.634991
vt 1.983854 1.114203
vn 0.681784 -0.651843 -0.332072
v -0.319260 1.479730 0.593216
vt 1.438055 1.247892
vn 0.988479 -0.008620 -0.151115
v -0.314672 1.548848 0.632937
vt 1.424727 1.238610
vn 0.988479 -0.008620 -0.151115
v -0.646890 1.583859 0.588838
vt 1.039391 1.122323
vn 0.058761 -0.915417 -0.398194
v -0.494372 1.594167 0.585273
vt 1.009333 1.120964
vn 0.058761 -0.915417 -0.398194
v -0.647696 1.594031 0.562941
vt 1.039568 1.116845
vn 0.058761 -0.915417 -0.398194
v -0.470552 1.606771 0.562204
vt 1.004607 1.115826
vn 0.058761 -0.915417 -0.398194
v -0.910717 1.575010 0.558589
vt 1.091493 1.117787
vn 0.074096 -0.923450 -0.376496
v -0.909469 1.562899 0.587743
vt 1.091205 1.123998
vn 0.074096 -0.923450 -0.376496
v -0.647696 1.594031 0.562941
vt 1.039568 1.116845
vn 0.074096 -0.923450 -0.376496
v -0.646890 1.583859 0.588838
vt 1.039391 1.122323
vn 0.074096 -0.923450 -0.376496
v -1.138101 1.552601 0.557617
vt 1.136431 1.119676
vn 0.088877 -0.929915 -0.356873
v -1.111168 1.546986 0.581677
vt 1.131039 1.124438
vn 0.088877 -0.929915 -0.356873
v -0.910717 1.575010 0.558589
vt 1.091493 1.117787
vn 0.088877 -0.929915 -0.356873
v -0.909469 1.562899 0.587743
vt 1.091205 1.123998
vn 0.088877 -0.929915 -0.356873
v -1.138101 1.552601 0.557617
vt 1.669007 1.279408
vn 0.810708 0.482994 -0.330862
v -1.315267 1.528150 0.509911
vt 1.961916 1.084980
vn -0.500579 -0.849377 -0.167269
v -1.356602 1.544814 0.508863
vt 1.961720 1.077193
vn -0.515629 -0.837224 -0.182159
v -1.316507 1.489013 0.600142
vt 1.981705 1.089381
vn -0.585351 -0.780371 -0.219966
v -1.358539 1.531208 0.614237
vt 1.983111 1.078439
vn -0.585351 -0.780371 -0.219966
v -0.494372 1.594167 0.585273
vt 1.471773 1.274865
vn -0.729343 0.161565 -0.664798
v -0.314672 1.548848 0.632937
vt 1.983405 1.104765
vn 0.340337 -0.828088 -0.445467
v -0.271994 1.565287 0.634991
vt 1.983854 1.114203
vn 0.340337 -0.828088 -0.445467
v -0.324391 1.587560 0.553546
vt 1.965099 1.105900
vn 0.340337 -0.828088 -0.445467
v -1.111168 1.546986 0.581677
vt 1.672541 1.284994
vn 0.645144 0.450744 -0.616943
v -0.319260 1.479730 0.593216
vt 1.438055 1.247892
vn 0.036475 -0.894101 -0.446378
v -0.327917 1.501928 0.548967
vt 1.445683 1.240038
vn -0.016465 -0.982811 -0.183878
v -1.354630 1.557137 0.394120
vt 1.938175 1.075861
vn -0.385081 -0.918769 -0.087038
v -1.207503 1.598545 0.104221
vt 1.195183 1.047098
vn 0.172191 -0.850615 -0.496795
v -0.253212 1.621672 0.648421
vt 1.982759 1.125628
vn 0.950576 -0.308637 -0.033879
v -0.252246 1.624223 0.652561
vt 1.258356 1.030994
vn 0.950504 -0.309112 -0.031502
v -0.253212 1.621672 0.648421
vt 1.258356 1.030994
vn 0.950504 -0.309112 -0.031502
v -0.271994 1.565287 0.634991
vt 1.261827 1.020135
vn 0.950504 -0.309112 -0.031502
v -0.647696 1.594031 0.562941
vt 1.039568 1.116845
vn 0.018978 -0.028531 -0.999413
v -0.641214 1.629053 0.562176
vt 1.039883 1.110116
vn 0.018978 -0.028531 -0.999413
v -0.470552 1.606771 0.562204
vt 1.004607 1.115826
vn -0.000506 0.037087 -0.999312
v -0.502333 1.632133 0.563659
vt 1.011020 1.110618
vn -0.002301 0.030983 -0.999517
v -0.462588 1.632608 0.564041
vt 1.002810 1.110761
vn 0.008822 0.068217 -0.997631
v -1.154050 1.578644 0.549872
vt 1.139342 1.114051
vn 0.066490 -0.246817 -0.966778
v -0.927054 1.608731 0.556452
vt 1.092257 1.111012
vn 0.025374 -0.116000 -0.992925
v -0.910717 1.575010 0.558589
vt 1.091493 1.117787
vn 0.025374 -0.116000 -0.992925
v -0.403338 1.494240 0.626316
vt 1.034045 1.847605
vn -0.229049 -0.905752 0.356580
v -0.403218 1.478872 0.588987
vt 1.035039 1.846401
vn -0.204323 -0.909717 0.361478
v -0.425271 1.505701 0.630120
vt 1.035766 1.848544
vn -0.758137 -0.530408 0.379336
v -0.452921 1.506237 0.582938
vt 1.039151 1.848558
vn -0.814629 -0.429640 0.389601
v -0.437084 1.535519 0.640019
vt 1.036485 1.851017
vn -0.858667 -0.402320 0.317535
v -0.479689 1.577434 0.565098
vt 1.041605 1.854043
vn -0.829106 -0.514439 0.218941
v -0.443563 1.542527 0.642346
vt 1.036968 1.851604
vn -0.730207 -0.682425 0.033068
v -0.494372 1.594167 0.585273
vt 1.042369 1.855465
vn -0.730207 -0.682425 0.033068
v -0.364263 1.523547 0.636045
vt 1.030464 1.850026
vn 0.357365 -0.438823 0.824454
v -0.314672 1.548848 0.632937
vt 1.026359 1.852118
vn 0.357365 -0.438823 0.824454
v -0.366288 1.494599 0.626435
vt 1.030949 1.847634
vn 0.183773 -0.739672 0.647389
v -0.319260 1.479730 0.593216
vt 1.028121 1.846457
vn 0.247250 -0.648264 0.720154
v -1.198086 1.437195 0.602610
vt 1.032270 1.839262
vn 0.167482 -0.632433 0.756293
v -1.188605 1.403777 0.574182
vt 1.030747 1.836865
vn 0.148055 -0.635613 0.757678
v -1.235218 1.435011 0.601860
vt 1.035047 1.839105
vn -0.173511 -0.524225 0.833716
v -1.270052 1.398713 0.571071
vt 1.036634 1.836531
vn -0.175847 -0.522537 0.834286
v -1.183321 1.448011 0.606323
vt 1.031263 1.840079
vn 0.584368 -0.454444 0.672306
v -1.156221 1.428858 0.570923
vt 1.028280 1.838754
vn 0.587919 -0.451661 0.671084
v -1.168325 1.490652 0.620961
vt 1.030548 1.843369
vn 0.822992 -0.193416 0.534111
v -1.123329 1.527745 0.554903
vt 1.025514 1.846153
vn 0.822992 -0.193416 0.534111
v -1.175252 1.463119 0.611509
vt 1.030801 1.841234
vn 0.786997 -0.245502 0.566008
v -1.138522 1.463896 0.565351
vt 1.026850 1.841393
vn 0.797526 -0.230917 0.557342
v -1.243428 1.472806 0.614835
vt 1.036104 1.841987
vn -0.330500 -0.389115 0.859860
v -1.288059 1.486359 0.604785
vt 1.039144 1.843050
vn -0.330500 -0.389115 0.859860
v -1.072557 1.585004 0.612334
vt 0.143205 0.631369
vn -0.133501 0.984272 0.115696
v -1.154354 1.579840 0.550093
vt 0.150409 0.641503
vn -0.162523 0.979803 0.116499
v -1.114527 1.585939 0.551347
vt 0.146801 0.641523
vn -0.149113 0.981802 0.117603
v -1.347291 1.576686 0.087609
vt 0.189619 0.717409
vn -0.185015 0.981864 0.041391
v -1.207310 1.601788 0.108091
vt 0.168361 0.715543
vn -0.157407 0.986903 0.035297
v -1.208286 1.598824 0.192921
vt 0.168118 0.701867
vn -0.172806 0.984097 0.041113
v -0.784416 1.614943 0.620145
vt 0.094071 0.631582
vn -0.071928 0.992203 0.101780
v -0.927292 1.602550 0.616302
vt 0.118364 0.631504
vn -0.103309 0.988700 0.108622
v -0.784831 1.621120 0.559480
vt 0.094302 0.641963
vn -0.072426 0.992155 0.101901
v -0.927156 1.609073 0.556561
vt 0.118556 0.641675
vn -0.103506 0.988682 0.108600
v -1.073474 1.620686 0.123574
vt 0.145486 0.713704
vn -0.125128 0.991466 0.036583
v -1.025829 1.620997 0.264223
vt 0.142672 0.690504
vn -0.108120 0.993489 0.035913
v -1.072599 1.615120 0.267316
vt 0.147353 0.689761
vn -0.138411 0.989657 0.037694
v -0.640998 1.622935 0.624593
vt 0.069592 0.631620
vn -0.045013 0.994020 0.099494
v -0.641184 1.628994 0.562239
vt 0.069880 0.642226
vn -0.045410 0.994002 0.099492
v -0.784831 1.621120 0.559480
vt 0.077820 0.635142
vn -0.072426 0.992155 0.101901
v -0.462528 1.633170 0.564150
vt 0.041549 0.644084
vn 0.001671 0.996264 0.086349
v -0.496579 1.626753 0.629144
vt 0.045040 0.631591
vn -0.011629 0.995315 0.095979
v -0.502291 1.632790 0.563780
vt 0.045766 0.643807
vn -0.015827 0.995513 0.093296
v -0.924961 1.636389 0.134844
vt 0.119992 0.712636
vn -0.091004 0.995188 0.036330
v -0.783785 1.646854 0.141727
vt 0.095938 0.712286
vn -0.062208 0.997391 0.036616
v -0.925878 1.631394 0.265383
vt 0.127209 0.691145
vn -0.090522 0.995232 0.036315
v -0.784429 1.642142 0.268890
vt 0.094218 0.691365
vn -0.061713 0.997423 0.036600
v -0.369225 1.634783 0.541681
vt 0.023838 0.647052
vn 0.014491 0.996541 0.081829
v -0.496579 1.626753 0.629144
vt 0.045040 0.631591
vn -0.011527 0.995314 0.096006
v -0.368162 1.626455 0.633610
vt 0.023226 0.631437
vn 0.014984 0.995698 0.091435
v -0.260036 1.623798 0.632660
vt 0.004899 0.632079
vn 0.025468 0.995674 0.089351
v -0.266127 1.623532 0.637821
vt 0.005915 0.631171
vn 0.025468 0.995674 0.089351
v -0.261308 1.631977 0.541756
vt 0.005572 0.647538
vn 0.025779 0.996353 0.081344
v -0.640987 1.653556 0.143999
vt 0.071780 0.712556
vn -0.041311 0.998505 0.035796
v -0.641356 1.648857 0.275702
vt 0.065704 0.690810
vn -0.040903 0.998521 0.035817
v -0.462661 1.644083 0.423227
vt 0.040322 0.669473
vn 0.003293 0.997318 0.073122
v -0.370149 1.643125 0.430462
vt 0.024521 0.665954
vn 0.017583 0.997615 0.066748
v -0.370149 1.643125 0.430462
vt 0.024521 0.665954
vn 0.017584 0.997610 0.066818
v -0.262651 1.640375 0.429316
vt 0.006340 0.666636
vn 0.026489 0.997578 0.064322
v -0.469577 1.648876 0.343810
vt 0.041787 0.680193
vn 0.006586 0.998731 0.049933
v -0.370692 1.650520 0.299901
vt 0.025232 0.688123
vn 0.020883 0.998671 0.047120
v -0.464706 1.647804 0.363408
vt 0.040872 0.676890
vn 0.008488 0.998348 0.056823
v -0.263896 1.648023 0.291809
vt 0.007209 0.689977
vn 0.028098 0.998555 0.045805
v -0.370692 1.650520 0.299901
vt 0.025232 0.688123
vn 0.020982 0.998669 0.047125
v -0.270119 1.653525 0.132377
vt 0.009443 0.716287
vn 0.029177 0.998971 0.034724
v -0.264807 1.653219 0.136984
vt 0.008268 0.715720
vn 0.029469 0.998930 0.035638
v -0.370931 1.653717 0.220814
vt 0.025661 0.701533
vn 0.016980 0.999260 0.034520
v -0.263896 1.648023 0.291809
vt 0.007209 0.689977
vn 0.028199 0.998552 0.045809
v -1.348484 1.569443 0.258076
vt 0.190004 0.689910
vn -0.186217 0.980848 0.057104
v -1.208993 1.594707 0.273414
vt 0.167903 0.688207
vn -0.180324 0.981866 0.058506
v -1.350159 1.558965 0.394335
vt 0.189754 0.666713
vn -0.188826 0.978447 0.083581
v -1.210205 1.584949 0.405796
vt 0.167570 0.665693
vn -0.182320 0.979513 0.085517
v -1.154354 1.579840 0.550093
vt 0.157482 0.646371
vn -0.162523 0.979803 0.116499
v -1.211768 1.573596 0.518692
vt 0.167439 0.646443
vn -0.183105 0.977198 0.107503
v -1.152832 1.594449 0.404219
vt 0.157716 0.667622
vn -0.160032 0.982692 0.093303
v -1.210205 1.584949 0.405796
vt 0.167570 0.665693
vn -0.182333 0.979504 0.085599
v -1.350159 1.558965 0.394335
vt 0.189754 0.666713
vn -0.188813 0.978457 0.083499
v -1.352079 1.546750 0.509110
vt 0.189709 0.647023
vn -0.193833 0.975086 0.107875
v -1.211768 1.573596 0.518692
vt 0.167439 0.646443
vn -0.183016 0.977215 0.107496
v -1.212753 1.562729 0.607786
vt 0.167323 0.631266
vn -0.185525 0.975060 0.121812
v -1.353983 1.534526 0.601948
vt 0.189550 0.631881
vn -0.196824 0.973014 0.120433
v -0.535909 1.650983 0.288283
vt 0.051210 0.688955
vn -0.004521 0.999349 0.035806
v -0.575639 1.650548 0.280578
vt 0.055590 0.690215
vn -0.021704 0.999148 0.035110
v -0.497843 1.656590 0.142111
vt 0.047513 0.713553
vn -0.003217 0.999350 0.035891
v -0.569422 1.655543 0.143008
vt 0.059659 0.713049
vn -0.021803 0.999145 0.035113
v -0.469577 1.648876 0.343810
vt 0.041787 0.680193
vn 0.006586 0.998726 0.050034
v -0.482319 1.650037 0.320435
vt 0.043093 0.682931
vn 0.000079 0.999336 0.036433
v -0.370931 1.653717 0.220814
vt 0.025661 0.701533
vn 0.017077 0.999258 0.034523
v -1.072599 1.615120 0.267316
vt 0.147353 0.689761
vn -0.138531 0.989640 0.037697
v -1.108966 1.609902 0.273926
vt 0.150753 0.688708
vn -0.142111 0.989143 0.037432
v -1.132328 1.605464 0.293734
vt 0.153030 0.687075
vn -0.146338 0.988242 0.044306
v -1.108966 1.609902 0.273926
vt 0.150753 0.688708
vn -0.141627 0.989214 0.037381
v -1.147259 1.601396 0.323080
vt 0.156450 0.681904
vn -0.160326 0.985031 0.063315
v -1.151777 1.598636 0.352949
vt 0.157741 0.675029
vn -0.164618 0.983820 0.070710
v -1.152832 1.594449 0.404219
vt 0.157716 0.667622
vn -0.160021 0.982702 0.093222
v -0.260036 1.623798 0.632660
vt 0.004899 0.632079
vn 0.037087 0.994793 0.094928
v -0.261632 1.623473 0.636689
vt 0.005156 0.631384
vn 0.037087 0.994793 0.094928
v -0.266127 1.623532 0.637821
vt 0.005915 0.631171
vn 0.037087 0.994793 0.094928
v -1.356121 1.534093 0.616786
vt 0.943617 0.767918
vn -0.819133 0.553457 0.150689
v -1.358539 1.531208 0.614237
vt 0.943079 0.768804
vn -0.819133 0.553457 0.150689
v -1.357169 1.533929 0.611691
vt 0.942443 0.767734
vn -0.819133 0.553457 0.150689
v -1.288059 1.486359 0.604785
vt 0.944171 0.774114
vn -0.228044 -0.530469 0.816455
v -1.358539 1.531208 0.614237
vt 0.943079 0.768804
vn -0.228044 -0.530469 0.816455
v -1.356121 1.534093 0.616786
vt 0.943617 0.767918
vn -0.228044 -0.530469 0.816455
v -0.367752 1.625546 0.643315
vt 0.937582 0.539820
vn 0.012596 0.994504 0.103941
v -0.368162 1.626455 0.633610
vt 0.935340 0.539970
vn 0.011178 0.994677 0.102432
v -0.253212 1.621672 0.648421
vt 0.937980 0.513437
vn 0.026078 0.992630 0.118347
v -0.266127 1.623532 0.637821
vt 0.935631 0.516487
vn 0.026078 0.992630 0.118347
v -0.371618 1.652070 0.133014
vt 0.010393 0.339038
vn -0.015536 0.857768 -0.513802
v -0.258040 1.652154 0.127513
vt 0.010899 0.357316
vn -0.015536 0.857768 -0.513802
v -0.371153 1.656123 0.137556
vt 0.011345 0.339067
vn -0.015536 0.857768 -0.513802
v -0.270119 1.653525 0.132377
vt 0.011573 0.355325
vn -0.015536 0.857768 -0.513802
v -0.254772 1.639622 0.431152
vt 0.014682 0.277364
vn 0.099190 0.993633 0.053434
v -0.262651 1.640375 0.429316
vt 0.015944 0.277044
vn 0.099190 0.993633 0.053434
v -0.256056 1.647121 0.291584
vt 0.014685 0.255039
vn 0.099190 0.993633 0.053434
v -0.263896 1.648023 0.291809
vt 0.015938 0.255052
vn 0.099190 0.993633 0.053434
v -0.256056 1.647121 0.291584
vt 0.014685 0.255039
vn 0.153100 0.987745 0.030327
v -0.263896 1.648023 0.291809
vt 0.015938 0.255052
vn 0.153100 0.987745 0.030327
v -0.258040 1.652154 0.127513
vt 0.014761 0.229769
vn 0.153100 0.987745 0.030327
v -0.264807 1.653219 0.136984
vt 0.015839 0.231717
vn 0.153100 0.987745 0.030327
v -0.261632 1.623473 0.636689
vt 0.935306 0.515418
vn 0.043596 0.991702 0.120943
v -0.253212 1.621672 0.648421
vt 0.937980 0.513437
vn 0.026290 0.992626 0.118332
v -0.266127 1.623532 0.637821
vt 0.935631 0.516487
vn 0.026290 0.992626 0.118332
v -0.260036 1.623798 0.632660
vt 0.934331 0.515121
vn 0.064897 0.992265 0.105819
v -0.253212 1.621672 0.648421
vt 0.937980 0.513437
vn 0.064897 0.992265 0.105819
v -0.261632 1.623473 0.636689
vt 0.935306 0.515418
vn 0.064897 0.992265 0.105819
v -1.207503 1.598545 0.104221
vt 0.010507 0.205635
vn -0.057605 0.810855 -0.582405
v -1.207310 1.601788 0.108091
vt 0.011242 0.205824
vn -0.057605 0.810855 -0.582405
v -1.339669 1.575401 0.084441
vt 0.010394 0.185339
vn -0.057219 0.812001 -0.580845
v -1.347291 1.576686 0.087609
vt 0.011190 0.185179
vn -0.052906 0.823930 -0.564217
v -1.207503 1.598545 0.104221
vt 0.010507 0.205635
vn -0.034725 0.768479 -0.638932
v -1.074340 1.617280 0.119506
vt 0.010466 0.226418
vn -0.034725 0.768479 -0.638932
v -1.207310 1.601788 0.108091
vt 0.011242 0.205824
vn -0.034725 0.768479 -0.638932
v -1.073474 1.620686 0.123574
vt 0.011254 0.226695
vn -0.034725 0.768479 -0.638932
v -0.924378 1.632857 0.130686
vt 0.010444 0.250220
vn -0.031730 0.764601 -0.643723
v -0.924961 1.636389 0.134844
vt 0.011288 0.250219
vn -0.031730 0.764601 -0.643723
v -1.074340 1.617280 0.119506
vt 0.010466 0.226418
vn -0.031730 0.764601 -0.643723
v -1.073474 1.620686 0.123574
vt 0.011254 0.226695
vn -0.031730 0.764601 -0.643723
v -0.784418 1.642983 0.136966
vt 0.010416 0.272677
vn -0.026523 0.769305 -0.638331
v -0.783785 1.646854 0.141727
vt 0.011310 0.272830
vn -0.026523 0.769305 -0.638331
v -0.924378 1.632857 0.130686
vt 0.010444 0.250220
vn -0.026523 0.769305 -0.638331
v -0.924961 1.636389 0.134844
vt 0.011288 0.250219
vn -0.026523 0.769305 -0.638331
v -0.640687 1.649855 0.139602
vt 0.010407 0.295853
vn -0.025627 0.770897 -0.636445
v -0.640987 1.653556 0.143999
vt 0.011311 0.295827
vn -0.025627 0.770897 -0.636445
v -0.784418 1.642983 0.136966
vt 0.010416 0.272677
vn -0.025627 0.770897 -0.636445
v -0.783785 1.646854 0.141727
vt 0.011310 0.272830
vn -0.025627 0.770897 -0.636445
v -0.497929 1.652683 0.137754
vt 0.010395 0.318876
vn -0.019216 0.744662 -0.667165
v -0.497843 1.656590 0.142111
vt 0.011322 0.318879
vn -0.019216 0.744662 -0.667165
v -0.569422 1.655543 0.143008
vt 0.011339 0.307354
vn -0.019216 0.744662 -0.667165
v -0.258040 1.652154 0.127513
vt 0.010899 0.357316
vn 0.070607 0.992062 -0.104059
v -0.266301 1.653357 0.133363
vt 0.011762 0.355927
vn 0.070607 0.992062 -0.104059
v -0.270119 1.653525 0.132377
vt 0.011573 0.355325
vn 0.070607 0.992062 -0.104059
v -0.258040 1.652154 0.127513
vt 0.010899 0.357316
vn 0.132300 0.991066 -0.016859
v -0.264807 1.653219 0.136984
vt 0.012367 0.356185
vn 0.132300 0.991066 -0.016859
v -0.266301 1.653357 0.133363
vt 0.011762 0.355927
vn 0.132300 0.991066 -0.016859
v -1.212604 1.561651 0.616913
vt 0.940807 0.734465
vn -0.163707 0.972794 -0.163925
v -1.214792 1.562619 0.622794
vt 0.942226 0.734808
vn -0.170724 0.973707 -0.150821
v -1.357169 1.533929 0.611691
vt 0.942443 0.767734
vn -0.187108 0.974979 -0.120024
v -1.356121 1.534093 0.616786
vt 0.943617 0.767918
vn -0.187108 0.974979 -0.120024
v -0.497211 1.625950 0.638422
vt 0.936980 0.569570
vn -0.006127 0.979266 -0.202484
v -0.497367 1.627057 0.643957
vt 0.938278 0.569573
vn -0.005909 0.979216 -0.202734
v -0.641063 1.622234 0.633937
vt 0.936901 0.602601
vn -0.035434 0.985436 -0.166316
v -0.641055 1.623222 0.639567
vt 0.938214 0.602545
vn -0.034711 0.985307 -0.167231
v -0.253212 1.621672 0.648421
vt 0.937980 0.513437
vn 0.041733 0.920109 -0.389434
v -0.252246 1.624223 0.652561
vt 0.939096 0.513208
vn 0.041733 0.920109 -0.389434
v -0.367752 1.625546 0.643315
vt 0.937582 0.539820
vn 0.023922 0.955001 -0.295637
v -0.367623 1.626890 0.648494
vt 0.938811 0.539768
vn 0.025036 0.953060 -0.301744
v -0.497211 1.625950 0.638422
vt 0.936980 0.569570
vn -0.006017 0.979263 -0.202504
v -0.371618 1.652070 0.133014
vt 0.010393 0.339038
vn -0.021341 0.745919 -0.665695
v -0.371153 1.656123 0.137556
vt 0.011345 0.339067
vn -0.021341 0.745919 -0.665695
v -0.497929 1.652683 0.137754
vt 0.010395 0.318876
vn -0.021341 0.745919 -0.665695
v -0.497843 1.656590 0.142111
vt 0.011322 0.318879
vn -0.021341 0.745919 -0.665695
v -1.071229 1.584294 0.621415
vt 0.939201 0.701646
vn -0.138728 0.984951 0.103087
v -1.212604 1.561651 0.616913
vt 0.940807 0.734465
vn -0.177234 0.980721 0.082306
v -1.072557 1.585004 0.612334
vt 0.937095 0.702028
vn -0.142612 0.984265 0.104324
v -1.212753 1.562729 0.607786
vt 0.938675 0.734598
vn -0.177905 0.980680 0.081337
v -0.927320 1.601599 0.625567
vt 0.938003 0.668428
vn -0.105624 0.990647 0.086387
v -0.927292 1.602550 0.616302
vt 0.935872 0.668526
vn -0.105918 0.990597 0.086601
v -1.072557 1.585004 0.612334
vt 0.937095 0.702028
vn -0.142635 0.984279 0.104163
v -1.071229 1.584294 0.621415
vt 0.939201 0.701646
vn -0.133936 0.972609 -0.189983
v -1.069795 1.585524 0.627204
vt 0.940522 0.701185
vn -0.127225 0.973714 -0.188929
v -1.214792 1.562619 0.622794
vt 0.942226 0.734808
vn -0.170735 0.973692 -0.150910
v -0.784361 1.614468 0.629769
vt 0.937273 0.635518
vn -0.072905 0.994996 0.068328
v -0.927320 1.601599 0.625567
vt 0.938003 0.668428
vn -0.105635 0.990635 0.086504
v -0.784416 1.614943 0.620145
vt 0.935201 0.635655
vn -0.073623 0.994925 0.068591
v -0.927292 1.602550 0.616302
vt 0.935872 0.668526
vn -0.105925 0.990589 0.086679
v -0.927320 1.601599 0.625567
vt 0.938003 0.668428
vn -0.098423 0.979873 -0.173673
v -0.927096 1.602758 0.631275
vt 0.939334 0.668273
vn -0.096719 0.980305 -0.172184
v -1.069795 1.585524 0.627204
vt 0.940522 0.701185
vn -0.127229 0.973705 -0.188974
v -0.641063 1.622234 0.633937
vt 0.936901 0.602601
vn -0.042519 0.996598 0.070594
v -0.640998 1.622935 0.624593
vt 0.934760 0.602651
vn -0.042933 0.996597 0.070369
v -0.784416 1.614943 0.620145
vt 0.935201 0.635655
vn -0.073618 0.994930 0.068517
v -0.784361 1.614468 0.629769
vt 0.937273 0.635518
vn -0.067735 0.985731 -0.154099
v -0.783873 1.615189 0.635338
vt 0.938556 0.635336
vn -0.065135 0.986031 -0.153299
v -0.497211 1.625950 0.638422
vt 0.936980 0.569570
vn -0.015505 0.996318 0.084316
v -0.641063 1.622234 0.633937
vt 0.936901 0.602601
vn -0.042523 0.996591 0.070702
v -0.496579 1.626753 0.629144
vt 0.934812 0.569473
vn -0.014931 0.996313 0.084485
v -0.253920 1.631070 0.543011
vt 0.014758 0.295158
vn 0.092983 0.992903 0.074150
v -0.261308 1.631977 0.541756
vt 0.015875 0.294944
vn 0.092983 0.992903 0.074150
v -0.254772 1.639622 0.431152
vt 0.014682 0.277364
vn 0.092983 0.992903 0.074150
v -0.262651 1.640375 0.429316
vt 0.015944 0.277044
vn 0.092983 0.992903 0.074150
v -0.261308 1.631977 0.541756
vt 0.015875 0.294944
vn 0.106483 0.990444 0.087648
v -0.253920 1.631070 0.543011
vt 0.014758 0.295158
vn 0.106483 0.990444 0.087648
v -0.260036 1.623798 0.632660
vt 0.015754 0.307969
vn 0.106483 0.990444 0.087648
v -0.253212 1.621672 0.648421
vt 0.014826 0.310241
vn 0.106483 0.990444 0.087648
v -1.357169 1.533929 0.611691
vt 0.942443 0.767734
vn -0.193827 0.979448 0.055794
v -1.353983 1.534526 0.601948
vt 0.940012 0.765089
vn -0.193827 0.979448 0.055794
v -1.288059 1.486359 0.604785
vt 0.957307 0.754291
vn -0.099904 -0.136718 0.985559
v -1.356121 1.534093 0.616786
vt 0.943617 0.767918
vn -0.099904 -0.136718 0.985559
v -1.210778 1.500727 0.626894
vt 0.956482 0.735497
vn -0.090120 0.008299 0.995896
v -1.214792 1.562619 0.622794
vt 0.942226 0.734808
vn -0.088824 0.025284 0.995726
v -0.637041 1.561331 0.656784
vt 0.952998 0.602023
vn -0.029315 0.249412 0.967954
v -0.641055 1.623222 0.639567
vt 0.938214 0.602545
vn -0.029718 0.250175 0.967744
v -0.493352 1.565166 0.655874
vt 0.952767 0.568866
vn 0.025690 0.099767 0.994679
v -0.497367 1.627057 0.643957
vt 0.938278 0.569573
vn 0.022280 0.109786 0.993706
v -0.779858 1.553298 0.653381
vt 0.953429 0.635057
vn -0.047114 0.271070 0.961406
v -0.783873 1.615189 0.635338
vt 0.938556 0.635336
vn -0.047237 0.271099 0.961392
v -0.637041 1.561331 0.656784
vt 0.952998 0.602023
vn -0.029316 0.249502 0.967930
v -0.923081 1.540866 0.648575
vt 0.954136 0.668274
vn -0.062215 0.251182 0.965938
v -0.927096 1.602758 0.631275
vt 0.939334 0.668273
vn -0.061911 0.251802 0.965797
v -0.783873 1.615189 0.635338
vt 0.938556 0.635336
vn -0.047114 0.271070 0.961406
v -1.065780 1.523632 0.640040
vt 0.955069 0.701532
vn -0.075911 0.179188 0.980882
v -1.069795 1.585524 0.627204
vt 0.940522 0.701185
vn -0.075521 0.183158 0.980178
v -0.314672 1.548848 0.632937
vt 0.957037 0.527488
vn 0.019575 -0.127023 0.991707
v -0.367623 1.626890 0.648494
vt 0.938811 0.539768
vn 0.044792 -0.048221 0.997832
v -0.271994 1.565287 0.634991
vt 0.953250 0.517678
vn -0.016827 -0.238928 0.970891
v -0.252246 1.624223 0.652561
vt 0.939096 0.513208
vn -0.016827 -0.238928 0.970891
v -1.351735 1.574476 0.082710
vt 0.011166 0.185184
vn -0.012541 0.915724 -0.401611
v -0.270119 1.653525 0.132377
vt 0.011573 0.355325
vn 0.038201 0.999023 0.022228
v -0.266301 1.653357 0.133363
vt 0.011762 0.355927
vn 0.038201 0.999023 0.022228
v -0.264807 1.653219 0.136984
vt 0.012367 0.356185
vn 0.038201 0.999023 0.022228
v -0.371153 1.656123 0.137556
vt 0.026458 0.714925
vn 0.008371 0.999415 0.033149
v -0.535909 1.650983 0.288283
vt 0.051210 0.688955
vn -0.004426 0.999349 0.035803
v -0.501248 1.650776 0.302299
vt 0.046112 0.686178
vn 0.000395 0.999397 0.034712
v -0.464706 1.647804 0.363408
vt 0.040872 0.676890
vn 0.008488 0.998354 0.056720
v -0.462661 1.644083 0.423227
vt 0.040322 0.669473
vn 0.003293 0.997310 0.073227
v -0.640987 1.653556 0.143999
vt 0.071780 0.712556
vn -0.041209 0.998509 0.035793
v -0.640687 1.649855 0.139602
vt 0.010407 0.295853
vn -0.025418 0.728562 -0.684508
v -0.497929 1.652683 0.137754
vt 0.010395 0.318876
vn -0.025418 0.728562 -0.684508
v -0.640987 1.653556 0.143999
vt 0.011311 0.295827
vn -0.025418 0.728562 -0.684508
v -0.569422 1.655543 0.143008
vt 0.011339 0.307354
vn -0.025418 0.728562 -0.684508
v -1.147259 1.601396 0.323080
vt 0.156450 0.681904
vn -0.160243 0.985045 0.063312
v -0.502291 1.632790 0.563780
vt 0.045766 0.643807
vn -0.015725 0.995515 0.093287
v -0.552026 1.631861 0.563268
vt 0.053572 0.643295
vn -0.030000 0.994585 0.099501
v -0.552026 1.631861 0.563268
vt 0.053572 0.643295
vn -0.030106 0.994581 0.099511
v -1.057551 1.593921 0.553018
vt 0.139393 0.641563
vn -0.122807 0.986019 0.112631
v -1.057551 1.593921 0.553018
vt 0.139393 0.641563
vn -0.122927 0.986007 0.112601
v -1.072557 1.585004 0.612334
vt 0.143205 0.631369
vn -0.133627 0.984254 0.115707
v -0.270119 1.653525 0.132377
vt 0.009443 0.716287
vn 0.029180 0.998967 0.034824
v -1.316507 1.489013 0.600142
vt 1.476974 1.025273
vn -0.184722 -0.471944 0.862060
v -1.358539 1.531208 0.614237
vt 1.482641 1.034859
vn -0.184722 -0.471944 0.862060
v -1.288059 1.486359 0.604785
vt 1.471192 1.024384
vn -0.184722 -0.471944 0.862060
v -1.350159 1.558965 0.394335
vt 0.189754 0.666713
vn -0.379113 0.922963 0.066426
v -1.354630 1.557137 0.394120
vt 0.190539 0.666726
vn -0.379113 0.922963 0.066426
v -1.348484 1.569443 0.258076
vt 0.190004 0.689910
vn -0.389509 0.919690 0.049531
v -1.352924 1.567638 0.257924
vt 0.190789 0.689905
vn -0.389517 0.919694 0.049402
v -1.352079 1.546750 0.509110
vt 0.189709 0.647023
vn -0.388439 0.916929 0.091414
v -1.356602 1.544814 0.508863
vt 0.190496 0.647325
vn -0.388439 0.916929 0.091414
v -1.350159 1.558965 0.394335
vt 0.189754 0.666713
vn -0.388439 0.916929 0.091414
v -1.354630 1.557137 0.394120
vt 0.190539 0.666726
vn -0.388439 0.916929 0.091414
v -1.348484 1.569443 0.258076
vt 0.190004 0.689910
vn -0.389517 0.919694 0.049402
v -1.352924 1.567638 0.257924
vt 0.190543 0.708665
vn -0.389517 0.919694 0.049402
v -1.347291 1.576686 0.087609
vt 0.189619 0.717409
vn -0.405691 0.913439 0.032314
v -1.351752 1.574297 0.096265
vt 0.191143 0.717543
vn -0.398297 0.916572 0.035418
v -1.353983 1.534526 0.601948
vt 0.940012 0.765089
vn -0.935518 0.196065 -0.293880
v -1.357169 1.533929 0.611691
vt 0.942443 0.767734
vn -0.935518 0.196065 -0.293880
v -1.358539 1.531208 0.614237
vt 0.943079 0.768804
vn -0.935518 0.196065 -0.293880
v -1.352079 1.546750 0.509110
vt 1.974613 1.078137
vn -0.390017 0.913972 0.111986
v -1.353983 1.534526 0.601948
vt 1.981324 1.078528
vn -0.390017 0.913972 0.111986
v -1.356602 1.544814 0.508863
vt 1.961721 1.077193
vn -0.390017 0.913972 0.111986
v -1.358539 1.532034 0.606701
vt 1.981586 1.078350
vn -0.390638 0.913879 0.110577
v -1.353983 1.534526 0.601948
vt 1.981324 1.078528
vn -0.390146 0.913928 0.111899
v -1.358539 1.531208 0.614237
vt 1.983111 1.078439
vn -0.394952 0.913230 0.100119
v -1.358539 1.532034 0.606701
vt 1.981586 1.078350
vn -0.390627 0.913867 0.110716
v -1.351752 1.574297 0.096265
vt 0.011901 0.183455
vn -0.398503 0.916488 0.035295
v -1.351735 1.574476 0.082710
vt 0.011166 0.185184
vn -0.455126 0.890357 0.011200
v -1.347291 1.576686 0.087609
vt 0.011190 0.185179
vn -0.405741 0.913417 0.032315
v -1.350031 1.570992 0.258104
vt 1.167426 2.989370
vn -0.184834 0.981308 0.053583
v -1.348940 1.578043 0.086162
vt 1.241033 2.990475
vn -0.183517 0.982234 0.039219
v -1.209043 1.596867 0.262995
vt 1.167150 2.927918
vn -0.166211 0.984642 0.053419
v -1.207513 1.603382 0.106421
vt 1.233956 2.928700
vn -0.166715 0.985218 0.039393
v -0.784984 1.625825 0.526018
vt 1.057980 2.741097
vn -0.069815 0.993545 0.089411
v -0.784571 1.616494 0.620136
vt 1.017060 2.740187
vn -0.071508 0.992502 0.099124
v -0.927194 1.614093 0.521897
vt 1.058203 2.802907
vn -0.101310 0.990394 0.094109
v -0.927439 1.604099 0.616312
vt 1.017121 2.802370
vn -0.103521 0.989122 0.104507
v -0.641401 1.633413 0.530427
vt 1.057572 2.678814
vn -0.041007 0.995486 0.085592
v -0.641160 1.624485 0.624601
vt 1.016647 2.677905
vn -0.042215 0.994610 0.094704
v -0.784571 1.616494 0.620136
vt 1.017060 2.740187
vn -0.071619 0.992497 0.099095
v -0.369423 1.636597 0.538609
vt 1.056659 2.561001
vn 0.011993 0.996599 0.081524
v -0.368333 1.628007 0.633625
vt 1.015385 2.559639
vn 0.011876 0.995868 0.090037
v -0.497091 1.636937 0.534825
vt 1.057102 2.616290
vn -0.014134 0.996451 0.082983
v -0.496747 1.628303 0.629166
vt 1.016119 2.615280
vn -0.014818 0.995669 0.091784
v -0.926073 1.632607 0.271851
vt 1.166687 2.804466
vn -0.094319 0.994266 0.050383
v -0.925168 1.637999 0.132943
vt 1.225717 2.805374
vn -0.093613 0.994875 0.038219
v -0.784606 1.643346 0.276010
vt 1.166417 2.743083
vn -0.063403 0.996798 0.048716
v -0.783993 1.648468 0.139803
vt 1.224260 2.744092
vn -0.062420 0.997356 0.037211
v -0.369423 1.636597 0.538609
vt 1.056659 2.561001
vn 0.011994 0.996590 0.081631
v -0.261508 1.633530 0.541781
vt 1.056242 2.514246
vn 0.025673 0.996365 0.081228
v -0.266302 1.625087 0.637821
vt 1.014493 2.515420
vn 0.025398 0.995680 0.089309
v -0.260240 1.625351 0.632680
vt 1.016755 2.512863
vn 0.025398 0.995680 0.089309
v -0.641523 1.650200 0.280166
vt 1.166090 2.681105
vn -0.035708 0.998260 0.046924
v -0.641196 1.655174 0.142086
vt 1.224750 2.682255
vn -0.034508 0.998755 0.036010
v -1.073043 1.597104 0.517653
vt 1.058329 2.866507
vn -0.135620 0.985772 0.099298
v -1.072697 1.586551 0.612363
vt 1.017096 2.865805
vn -0.138128 0.984242 0.110401
v -1.211834 1.575726 0.513436
vt 1.058381 2.927326
vn -0.174207 0.979094 0.105008
v -1.212885 1.564277 0.607809
vt 1.017237 2.927335
vn -0.176930 0.977272 0.116770
v -0.260240 1.625351 0.632680
vt 1.016755 2.512863
vn 0.036982 0.994794 0.094956
v -0.261825 1.625028 0.636691
vt 1.015010 2.513499
vn 0.036982 0.994794 0.094956
v -0.266302 1.625087 0.637821
vt 1.014493 2.515420
vn 0.036982 0.994794 0.094956
v -0.367752 1.625546 0.643315
vt 1.011063 2.559285
vn 0.006170 0.966562 0.256358
v -0.368333 1.628007 0.633625
vt 1.015385 2.559639
vn 0.004585 0.966919 0.255042
v -0.253212 1.621672 0.648420
vt 1.009858 2.509549
vn 0.019270 0.963765 0.266057
v -0.266302 1.625087 0.637821
vt 1.014493 2.515420
vn 0.019193 0.963746 0.266129
v -0.258040 1.652154 0.127513
vt 1.236036 2.516634
vn -0.021743 0.777270 -0.628792
v -0.265040 1.654945 0.130538
vt 1.233451 2.519654
vn -0.021743 0.777270 -0.628792
v -0.371618 1.652070 0.133014
vt 1.233434 2.565800
vn -0.023015 0.723414 -0.690031
v -0.371356 1.657742 0.135831
vt 1.230137 2.565610
vn -0.023104 0.723157 -0.690298
v -0.255653 1.639335 0.431260
vt 1.104184 2.512586
vn 0.323917 0.944255 0.058822
v -0.262852 1.641928 0.429344
vt 1.105009 2.515898
vn 0.324501 0.944235 0.055845
v -0.256928 1.647120 0.291670
vt 1.164701 2.514442
vn 0.326498 0.944400 0.038831
v -0.264101 1.649575 0.291841
vt 1.164599 2.517722
vn 0.326498 0.944400 0.038831
v -0.256928 1.647120 0.291670
vt 1.164701 2.514442
vn 0.326485 0.944399 0.038954
v -0.257980 1.652281 0.135912
vt 1.232158 2.516376
vn 0.327601 0.944382 0.028638
v -0.265040 1.654945 0.130538
vt 1.233451 2.519654
vn 0.327816 0.944319 0.028236
v -0.261825 1.625028 0.636691
vt 1.015010 2.513499
vn 0.069984 0.971481 0.226554
v -0.253212 1.621672 0.648420
vt 1.009858 2.509549
vn 0.019384 0.963792 0.265950
v -0.266302 1.625087 0.637821
vt 1.014493 2.515420
vn 0.019384 0.963792 0.265950
v -0.260240 1.625351 0.632680
vt 1.016755 2.512863
vn 0.315982 0.945282 0.081223
v -0.253212 1.621672 0.648420
vt 1.009858 2.509549
vn 0.314997 0.945566 0.081745
v -0.261825 1.625028 0.636691
vt 1.015010 2.513499
vn 0.176982 0.972954 0.148452
v -1.339669 1.575401 0.084441
vt 1.242551 2.987353
vn -0.030334 0.736369 -0.675900
v -1.348940 1.578043 0.086162
vt 1.241033 2.990475
vn -0.027314 0.743900 -0.667732
v -1.351388 1.574635 0.082919
vt 1.242992 2.991814
vn 0.015041 0.842210 -0.538940
v -1.207503 1.598545 0.104221
vt 1.236781 2.928992
vn -0.023243 0.714906 -0.698834
v -1.074340 1.617280 0.119506
vt 1.231820 2.870614
vn -0.015306 0.688461 -0.725112
v -1.207513 1.603382 0.106421
vt 1.233956 2.928700
vn -0.021020 0.708798 -0.705098
v -1.073634 1.622296 0.121700
vt 1.228918 2.870070
vn -0.016011 0.688623 -0.724943
v -1.073634 1.622296 0.121700
vt 1.228918 2.870070
vn -0.016011 0.688578 -0.724985
v -1.074340 1.617280 0.119506
vt 1.231820 2.870614
vn -0.015438 0.688480 -0.725091
v -0.925168 1.637999 0.132943
vt 1.225717 2.805374
vn -0.017737 0.694890 -0.718897
v -0.924378 1.632857 0.130686
vt 1.228759 2.805248
vn -0.017737 0.694979 -0.718811
v -0.784418 1.642983 0.136966
vt 1.227562 2.744464
vn -0.019510 0.702067 -0.711844
v -0.783993 1.648468 0.139803
vt 1.224260 2.744092
vn -0.019732 0.702305 -0.711602
v -0.925168 1.637999 0.132943
vt 1.225717 2.805374
vn -0.017737 0.694979 -0.718811
v -0.640687 1.649855 0.139602
vt 1.227908 2.682181
vn -0.022528 0.694560 -0.719082
v -0.641196 1.655174 0.142086
vt 1.224750 2.682255
vn -0.022439 0.695097 -0.718566
v -0.640687 1.649855 0.139602
vt 1.227908 2.682181
vn -0.022439 0.694607 -0.719040
v -0.497929 1.652683 0.137754
vt 1.230175 2.620421
vn -0.023810 0.682910 -0.730114
v -0.498049 1.658210 0.140259
vt 1.226978 2.620360
vn -0.023810 0.683001 -0.730029
v -0.371618 1.652070 0.133014
vt 1.233434 2.565800
vn -0.023104 0.723413 -0.690029
v -1.071229 1.584294 0.621415
vt 1.013055 2.865198
vn -0.139417 0.954240 0.264554
v -1.212604 1.561651 0.616913
vt 1.013135 2.927290
vn -0.178306 0.953795 0.241829
v -1.072697 1.586551 0.612363
vt 1.017096 2.865805
vn -0.143012 0.953407 0.265635
v -1.212885 1.564277 0.607809
vt 1.017237 2.927335
vn -0.178624 0.953869 0.241303
v -0.927320 1.601599 0.625567
vt 1.012972 2.802323
vn -0.107242 0.963213 0.246414
v -1.071229 1.584294 0.621415
vt 1.013055 2.865198
vn -0.139421 0.954226 0.264603
v -0.927439 1.604099 0.616312
vt 1.017121 2.802370
vn -0.107515 0.963133 0.246607
v -0.784361 1.614468 0.629769
vt 1.012801 2.740054
vn -0.075817 0.970961 0.226905
v -0.784571 1.616494 0.620136
vt 1.017060 2.740187
vn -0.076531 0.970831 0.227222
v -0.641063 1.622234 0.633937
vt 1.012492 2.677806
vn -0.046315 0.972040 0.230202
v -0.784361 1.614468 0.629769
vt 1.012801 2.740054
vn -0.075812 0.970983 0.226815
v -0.641160 1.624485 0.624601
vt 1.016647 2.677905
vn -0.046935 0.972106 0.229797
v -0.784571 1.616494 0.620136
vt 1.017060 2.740187
vn -0.076525 0.970864 0.227085
v -0.497211 1.625950 0.638422
vt 1.011984 2.615406
vn -0.020413 0.969891 0.242684
v -0.496747 1.628303 0.629166
vt 1.016119 2.615280
vn -0.020032 0.969876 0.242775
v -0.367752 1.625546 0.643315
vt 1.011063 2.559285
vn 0.006284 0.966542 0.256430
v -0.497211 1.625950 0.638422
vt 1.011984 2.615406
vn -0.020300 0.969866 0.242791
v -0.368333 1.628007 0.633625
vt 1.015385 2.559639
vn 0.004586 0.966896 0.255130
v -0.496747 1.628303 0.629166
vt 1.016119 2.615280
vn -0.020110 0.969848 0.242880
v -0.254282 1.630965 0.543148
vt 1.055640 2.510928
vn 0.319782 0.944601 0.073947
v -0.261508 1.633530 0.541781
vt 1.056242 2.514246
vn 0.320494 0.944507 0.072039
v -0.260240 1.625351 0.632680
vt 1.016755 2.512863
vn 0.315910 0.945314 0.081133
v -0.253212 1.621672 0.648420
vt 1.009858 2.509549
vn 0.314975 0.945581 0.081657
v -1.358601 1.533929 0.611691
vt 1.013365 2.991070
vn -0.195642 0.957109 0.213699
v -1.355529 1.536078 0.601961
vt 1.017673 2.989727
vn -0.195642 0.957109 0.213699
v -1.355529 1.536078 0.601961
vt 1.017673 2.989727
vn -0.196531 0.973129 0.119981
v -1.353626 1.548301 0.509128
vt 1.058211 2.989248
vn -0.193717 0.975128 0.107698
v -1.207513 1.603382 0.106421
vt 1.233956 2.928700
vn -0.166632 0.985232 0.039390
v -1.072726 1.616667 0.267370
vt 1.166939 2.868299
vn -0.127533 0.990466 0.052081
v -1.073634 1.622296 0.121700
vt 1.228918 2.870070
vn -0.127524 0.991065 0.039093
v -0.265040 1.654945 0.130538
vt 1.233451 2.519654
vn 0.027577 0.999064 0.033335
v -0.264101 1.649575 0.291841
vt 1.164599 2.517722
vn 0.026980 0.998666 0.044021
v -0.371356 1.657742 0.135831
vt 1.230137 2.565610
vn 0.015471 0.999311 0.033743
v -0.370901 1.652622 0.287625
vt 1.165462 2.563983
vn 0.014377 0.998922 0.044130
v -0.498049 1.658210 0.140259
vt 1.226978 2.620360
vn -0.008801 0.999355 0.034805
v -0.497781 1.653197 0.284197
vt 1.165754 2.618893
vn -0.010023 0.998919 0.045384
v -1.351707 1.560515 0.394357
vt 1.108211 2.989086
vn -0.188623 0.978525 0.083122
v -1.210277 1.587125 0.398572
vt 1.108334 2.927378
vn -0.169311 0.982212 0.081204
v -1.209043 1.596867 0.262995
vt 1.167150 2.927918
vn -0.166122 0.984659 0.053377
v -1.073114 1.607595 0.402743
vt 1.108247 2.867345
vn -0.131035 0.988375 0.077102
v -0.926676 1.624020 0.407149
vt 1.108036 2.803563
vn -0.097203 0.992561 0.073315
v -0.926073 1.632607 0.271851
vt 1.166687 2.804466
vn -0.094209 0.994275 0.050415
v -0.784874 1.635179 0.411517
vt 1.107685 2.741994
vn -0.066206 0.995362 0.069796
v -0.641549 1.642330 0.416356
vt 1.107072 2.679876
vn -0.038129 0.997018 0.067091
v -0.370342 1.644991 0.425633
vt 1.105666 2.562453
vn 0.012974 0.997862 0.064049
v -0.497451 1.645507 0.421292
vt 1.106355 2.617480
vn -0.012023 0.997806 0.065101
v -0.262852 1.641928 0.429344
vt 1.105009 2.515898
vn 0.026177 0.997603 0.064057
v -1.353626 1.548301 0.509128
vt 1.058211 2.989248
vn -0.193730 0.975116 0.107783
v -0.926676 1.624020 0.407149
vt 1.108036 2.803563
vn -0.097315 0.992552 0.073284
v -0.497091 1.636937 0.534825
vt 1.057102 2.616290
vn -0.014032 0.996453 0.082975
v -0.641401 1.633413 0.530427
vt 1.057572 2.678814
vn -0.040902 0.995488 0.085621
v -0.497091 1.636937 0.534825
vt 1.057102 2.616290
vn -0.014102 0.996439 0.083124
v -0.258040 1.652154 0.127513
vt 1.236036 2.516634
vn 0.348295 0.937239 -0.016551
v -0.257980 1.652281 0.135912
vt 1.232158 2.516376
vn 0.327578 0.944393 0.028557
v -1.351752 1.574297 0.096265
vt 1.237470 2.991892
vn -0.618732 0.785099 0.028121
v -1.348940 1.578043 0.086162
vt 1.241033 2.990475
vn -0.618732 0.785099 0.028121
v -1.352924 1.567638 0.257924
vt 1.167398 2.990932
vn -0.616498 0.786365 0.039506
v -1.350031 1.570992 0.258104
vt 1.167426 2.989370
vn -0.616506 0.786363 0.039416
v -1.354630 1.557137 0.394120
vt 1.108184 2.990647
vn -0.615606 0.785571 0.062514
v -1.351707 1.560515 0.394357
vt 1.108211 2.989086
vn -0.615516 0.785667 0.062188
v -1.354630 1.557137 0.394120
vt 1.108184 2.990647
vn -0.615556 0.785610 0.062514
v -1.356602 1.544814 0.508863
vt 1.058171 2.990840
vn -0.618139 0.781888 0.080971
v -1.353626 1.548301 0.509128
vt 1.058211 2.989248
vn -0.618101 0.781952 0.080637
v -1.358539 1.532034 0.606701
vt 1.017555 2.991355
vn -0.638135 0.766389 0.073691
v -1.355529 1.536078 0.601961
vt 1.017673 2.989727
vn -0.620417 0.779274 0.088397
v -1.355529 1.536078 0.601961
vt 1.017673 2.989727
vn -0.620506 0.779192 0.088495
v -1.358539 1.531502 0.611554
vt 1.013366 2.992278
vn -0.757205 0.651976 -0.039593
v -1.358601 1.533929 0.611691
vt 1.013365 2.991070
vn -0.757205 0.651976 -0.039593
v -1.351388 1.574635 0.082919
vt 1.242992 2.991814
vn -0.653556 0.756877 0.001400
v -1.348940 1.578043 0.086162
vt 1.241033 2.990475
vn -0.653556 0.756877 0.001400
v -1.351752 1.574297 0.096265
vt 1.237470 2.991892
vn -0.653556 0.756877 0.001400
v -1.348940 1.578043 0.086162
vt 1.241033 2.990475
vn -0.027314 0.743942 -0.667686
v -1.071736 1.589194 0.524807
vt 1.937152 2.146598
vn 0.130896 -0.987129 -0.091886
v -1.070564 1.601786 0.383553
vt 1.937765 2.085226
vn 0.127871 -0.988905 -0.075598
v -1.162721 1.574836 0.520728
vt 1.977059 2.146097
vn 0.156852 -0.983168 -0.093693
v -1.161140 1.588271 0.377338
vt 1.977457 2.083743
vn 0.153090 -0.985240 -0.076582
v -0.784816 1.617665 0.533814
vt 1.812240 2.147053
vn 0.069491 -0.994024 -0.084184
v -0.784478 1.628744 0.395414
vt 1.813327 2.086980
vn 0.067180 -0.995290 -0.069892
v -0.926922 1.605628 0.529460
vt 1.874022 2.146828
vn 0.099769 -0.991065 -0.088521
v -0.926133 1.617545 0.390395
vt 1.874840 2.086432
vn 0.096975 -0.992598 -0.073113
v -0.497188 1.629018 0.540129
vt 1.687579 2.146708
vn 0.019996 -0.996674 -0.078996
v -0.497760 1.639452 0.399577
vt 1.689161 2.085742
vn 0.018685 -0.997685 -0.065382
v -0.641126 1.625371 0.537302
vt 1.749918 2.146980
vn 0.039976 -0.995927 -0.080821
v -0.641255 1.636084 0.398576
vt 1.751261 2.086787
vn 0.038181 -0.997016 -0.067095
v -0.784816 1.617665 0.533814
vt 1.812240 2.147053
vn 0.069567 -0.994015 -0.084227
v -1.070564 1.601786 0.383553
vt 1.937765 2.085226
vn 0.127898 -0.988911 -0.075484
v -0.497949 1.646989 0.261135
vt 1.690595 2.025756
vn 0.018289 -0.998291 -0.055506
v -0.641231 1.643796 0.263475
vt 1.752555 2.028245
vn 0.036771 -0.997702 -0.056904
v -0.497760 1.639452 0.399577
vt 1.689161 2.085742
vn 0.018585 -0.997685 -0.065411
v -0.641255 1.636084 0.398576
vt 1.751261 2.086787
vn 0.038286 -0.997011 -0.067101
v -0.784208 1.636779 0.260589
vt 1.814482 2.028543
vn 0.065477 -0.996084 -0.059405
v -0.925568 1.626041 0.254805
vt 1.875841 2.027649
vn 0.095272 -0.993525 -0.061893
v -1.070258 1.610792 0.245807
vt 1.938855 2.025497
vn 0.126396 -0.989914 -0.063990
v -1.160164 1.597771 0.237477
vt 1.978248 2.023058
vn 0.150271 -0.986500 -0.065086
v -0.496870 1.625257 0.581357
vt 1.687046 2.164615
vn 0.021074 -0.995555 -0.091789
v -0.641037 1.621586 0.577784
vt 1.749509 2.164569
vn 0.041565 -0.994703 -0.094013
v -0.641037 1.621586 0.577784
vt 1.749509 2.164569
vn 0.041490 -0.994717 -0.093895
v -0.784647 1.613685 0.573965
vt 1.811831 2.164507
vn 0.071666 -0.992574 -0.098292
v -0.927047 1.601441 0.569717
vt 1.873772 2.164339
vn 0.102369 -0.989273 -0.104212
v -0.926922 1.605628 0.529460
vt 1.874022 2.146828
vn 0.099687 -0.991077 -0.088477
v -1.071975 1.584530 0.565316
vt 1.936995 2.164243
vn 0.133577 -0.984963 -0.109571
v -1.162721 1.574836 0.520728
vt 1.977059 2.146097
vn 0.156895 -0.983161 -0.093696
v -1.163053 1.570048 0.561771
vt 1.976956 2.163981
vn 0.160061 -0.980675 -0.112502
v -0.456990 1.646312 0.273547
vt 1.672753 2.030731
vn -0.000579 -0.998511 -0.054551
v -0.456719 1.639284 0.401770
vt 1.671384 2.086293
vn -0.000292 -0.997889 -0.064937
v -0.456006 1.628985 0.540590
vt 1.669756 2.146508
vn 0.000000 -0.996962 -0.077889
v -0.455644 1.625180 0.582280
vt 1.669196 2.164614
vn 0.000199 -0.995863 -0.090872
v -0.496870 1.625257 0.581357
vt 1.687046 2.164615
vn 0.020971 -0.995555 -0.091816
usemtl Interior_Fade
f 3/3/3 2/2/2 1/1/1
f 4/4/4 2/2/2 3/3/3
f 5/5/5 4/4/4 3/3/3
f 6/6/6 4/4/4 5/5/5
f 7/7/7 6/6/6 5/5/5
f 8/8/8 6/6/6 7/7/7
f 9/9/9 8/8/8 7/7/7
f 10/10/10 8/8/8 9/9/9
f 11/11/11 10/10/10 9/9/9
f 12/12/12 10/10/10 11/11/11
f 13/13/13 12/12/12 11/11/11
f 14/14/14 12/12/12 13/13/13
f 17/17/17 16/16/16 15/15/15
f 18/18/18 16/16/16 17/17/17
f 19/19/19 15/15/15 16/16/16
f 20/20/20 15/15/15 19/19/19
f 21/21/21 20/20/20 19/19/19
f 22/22/22 20/20/20 21/21/21
f 23/23/23 22/22/22 21/21/21
f 24/24/24 22/22/22 23/23/23
f 25/25/25 24/24/24 23/23/23
f 26/26/26 24/24/24 25/25/25
f 27/27/27 26/26/26 25/25/25
f 28/28/28 26/26/26 27/27/27
f 29/29/29 14/14/14 13/13/13
f 30/30/30 14/14/14 29/29/29
f 31/31/31 18/18/18 17/17/17
f 32/32/32 18/18/18 31/31/31
f 33/33/33 30/30/30 29/29/29
f 34/34/34 30/30/30 33/33/33
f 35/35/35 32/32/32 31/31/31
f 36/36/36 32/32/32 35/35/35
f 12/12/12 20/20/20 10/10/10
f 15/15/15 20/20/20 12/12/12
f 39/39/39 38/38/38 37/37/37
f 40/40/40 38/38/38 39/39/39
f 41/41/41 5/5/5 3/3/3
f 42/42/42 5/5/5 41/41/41
f 42/42/42 7/7/7 5/5/5
f 43/43/43 7/7/7 42/42/42
f 43/43/43 9/9/9 7/7/7
f 44/44/44 9/9/9 43/43/43
f 44/44/44 11/11/11 9/9/9
f 45/45/45 11/11/11 44/44/44
f 46/46/46 19/19/19 16/16/16
f 47/47/47 19/19/19 46/46/46
f 47/47/47 21/21/21 19/19/19
f 48/48/48 21/21/21 47/47/47
f 48/48/48 23/23/23 21/21/21
f 49/49/49 23/23/23 48/48/48
f 49/49/49 25/25/25 23/23/23
f 50/50/50 25/25/25 49/49/49
f 50/50/50 27/27/27 25/25/25
f 51/51/51 27/27/27 50/50/50
f 14/14/14 15/15/15 12/12/12
f 17/17/17 15/15/15 14/14/14
f 52/52/52 11/11/11 45/45/45
f 13/13/13 11/11/11 52/52/52
f 18/18/18 46/46/46 16/16/16
f 53/53/53 46/46/46 18/18/18
f 30/30/30 17/17/17 14/14/14
f 31/31/31 17/17/17 30/30/30
f 54/54/54 13/13/13 52/52/52
f 29/29/29 13/13/13 54/54/54
f 32/32/32 53/53/53 18/18/18
f 55/55/55 53/53/53 32/32/32
f 34/34/34 31/31/31 30/30/30
f 35/35/35 31/31/31 34/34/34
f 33/33/33 29/29/29 54/54/54
f 36/36/36 55/55/55 32/32/32
f 56/56/56 55/55/55 36/36/36
f 8/8/8 24/24/24 6/6/6
f 22/22/22 24/24/24 8/8/8
f 10/10/10 22/22/22 8/8/8
f 20/20/20 22/22/22 10/10/10
f 26/26/26 2/2/2 4/4/4
f 28/28/28 2/2/2 26/26/26
f 6/6/6 26/26/26 4/4/4
f 24/24/24 26/26/26 6/6/6
f 59/59/59 58/58/58 57/57/57
f 60/60/60 58/58/58 59/59/59
f 62/62/62 57/57/57 61/61/61
f 59/59/59 57/57/57 62/62/62
f 64/64/64 61/61/61 63/63/63
f 62/62/62 61/61/61 64/64/64
f 66/66/66 63/63/63 65/65/65
f 64/64/64 63/63/63 66/66/66
f 68/68/68 65/65/65 67/67/67
f 66/66/66 65/65/65 68/68/68
f 70/70/70 67/67/67 69/69/69
f 68/68/68 67/67/67 70/70/70
f 73/73/73 72/72/72 71/71/71
f 74/74/74 72/72/72 73/73/73
f 76/76/76 74/74/74 75/75/75
f 72/72/72 74/74/74 76/76/76
f 78/78/78 75/75/75 77/77/77
f 76/76/76 75/75/75 78/78/78
f 80/80/80 77/77/77 79/79/79
f 78/78/78 77/77/77 80/80/80
f 82/82/82 79/79/79 81/81/81
f 80/80/80 79/79/79 82/82/82
f 84/84/84 81/81/81 83/83/83
f 82/82/82 81/81/81 84/84/84
f 86/86/86 69/69/69 85/85/85
f 70/70/70 69/69/69 86/86/86
f 88/88/88 71/71/71 87/87/87
f 73/73/73 71/71/71 88/88/88
f 90/90/90 85/85/85 89/89/89
f 86/86/86 85/85/85 90/90/90
f 92/92/92 87/87/87 91/91/91
f 88/88/88 87/87/87 92/92/92
f 67/67/67 75/75/75 74/74/74
f 65/65/65 75/75/75 67/67/67
f 94/94/94 59/59/59 93/93/93
f 60/60/60 59/59/59 94/94/94
f 93/93/93 62/62/62 95/95/95
f 59/59/59 62/62/62 93/93/93
f 95/95/95 64/64/64 96/96/96
f 62/62/62 64/64/64 95/95/95
f 96/96/96 66/66/66 97/97/97
f 64/64/64 66/66/66 96/96/96
f 97/97/97 68/68/68 98/98/98
f 66/66/66 68/68/68 97/97/97
f 100/100/100 76/76/76 99/99/99
f 72/72/72 76/76/76 100/100/100
f 99/99/99 78/78/78 101/101/101
f 76/76/76 78/78/78 99/99/99
f 101/101/101 80/80/80 102/102/102
f 78/78/78 80/80/80 101/101/101
f 102/102/102 82/82/82 103/103/103
f 80/80/80 82/82/82 102/102/102
f 103/103/103 84/84/84 104/104/104
f 82/82/82 84/84/84 103/103/103
f 69/69/69 74/74/74 73/73/73
f 67/67/67 74/74/74 69/69/69
f 105/105/105 68/68/68 70/70/70
f 98/98/98 68/68/68 105/105/105
f 71/71/71 100/100/100 106/106/106
f 72/72/72 100/100/100 71/71/71
f 85/85/85 73/73/73 88/88/88
f 69/69/69 73/73/73 85/85/85
f 107/107/107 70/70/70 86/86/86
f 105/105/105 70/70/70 107/107/107
f 87/87/87 106/106/106 108/108/108
f 71/71/71 106/106/106 87/87/87
f 89/89/89 88/88/88 92/92/92
f 85/85/85 88/88/88 89/89/89
f 107/107/107 86/86/86 90/90/90
f 91/91/91 108/108/108 109/109/109
f 87/87/87 108/108/108 91/91/91
f 63/63/63 79/79/79 77/77/77
f 61/61/61 79/79/79 63/63/63
f 65/65/65 77/77/77 75/75/75
f 63/63/63 77/77/77 65/65/65
f 81/81/81 58/58/58 83/83/83
f 57/57/57 58/58/58 81/81/81
f 61/61/61 81/81/81 79/79/79
f 57/57/57 81/81/81 61/61/61
f 112/112/112 111/111/111 110/110/110
f 113/113/113 111/111/111 112/112/112
f 116/116/116 115/115/115 114/114/114
f 117/117/117 115/115/115 116/116/116
f 118/118/118 117/117/117 116/116/116
f 119/119/119 117/117/117 118/118/118
f 120/120/120 119/119/119 118/118/118
f 121/121/121 119/119/119 120/120/120
f 110/110/110 121/121/121 120/120/120
f 111/111/111 121/121/121 110/110/110
f 124/124/124 123/123/123 122/122/122
f 125/125/125 123/123/123 124/124/124
f 126/126/126 125/125/125 124/124/124
f 127/127/127 125/125/125 126/126/126
f 128/128/128 127/127/127 126/126/126
f 129/129/129 127/127/127 128/128/128
f 130/130/130 129/129/129 128/128/128
f 131/131/131 129/129/129 130/130/130
f 132/132/132 131/131/131 130/130/130
f 133/133/133 131/131/131 132/132/132
f 136/136/136 135/135/135 134/134/134
f 137/137/137 135/135/135 136/136/136
f 134/134/134 138/138/138 136/136/136
f 139/139/139 138/138/138 134/134/134
f 141/141/141 139/139/139 140/140/140
f 142/142/142 139/139/139 141/141/141
f 145/145/145 144/144/144 143/143/143
f 144/144/144 147/147/147 146/146/146
f 145/145/145 147/147/147 144/144/144
f 150/150/150 149/149/149 148/148/148
f 148/148/148 152/152/152 151/151/151
f 155/155/155 154/154/154 153/153/153
f 157/157/157 156/156/156 153/153/153
f 157/157/157 154/154/154 158/158/158
f 153/153/153 154/154/154 157/157/157
f 161/161/161 160/160/160 159/159/159
f 164/164/164 163/163/163 162/162/162
f 167/167/167 166/166/166 165/165/165
f 169/169/169 135/135/135 168/168/168
f 170/170/170 135/135/135 169/169/169
f 171/171/171 170/170/170 169/169/169
f 172/172/172 170/170/170 171/171/171
f 174/174/174 173/173/173 172/172/172
f 175/175/175 173/173/173 174/174/174
f 134/134/134 176/176/176 139/139/139
f 177/177/177 176/176/176 134/134/134
f 180/180/180 179/179/179 178/178/178
f 140/140/140 176/176/176 181/181/181
f 139/139/139 176/176/176 140/140/140
f 179/179/179 181/181/181 176/176/176
f 182/182/182 181/181/181 179/179/179
f 181/181/181 145/145/145 140/140/140
f 183/183/183 145/145/145 181/181/181
f 182/182/182 183/183/183 181/181/181
f 184/184/184 183/183/183 182/182/182
f 183/183/183 147/147/147 145/145/145
f 185/185/185 147/147/147 183/183/183
f 184/184/184 185/185/185 183/183/183
f 186/186/186 185/185/185 184/184/184
f 185/185/185 149/149/149 147/147/147
f 187/187/187 149/149/149 185/185/185
f 187/187/187 186/186/186 188/188/188
f 185/185/185 186/186/186 187/187/187
f 152/152/152 187/187/187 189/189/189
f 149/149/149 187/187/187 152/152/152
f 152/152/152 190/190/190 154/154/154
f 189/189/189 190/190/190 152/152/152
f 189/189/189 188/188/188 191/191/191
f 187/187/187 188/188/188 189/189/189
f 192/192/192 189/189/189 191/191/191
f 190/190/190 189/189/189 192/192/192
f 194/194/194 190/190/190 193/193/193
f 193/193/193 195/195/195 194/194/194
f 196/196/196 195/195/195 193/193/193
f 199/199/199 198/198/198 197/197/197
f 200/200/200 198/198/198 199/199/199
f 197/197/197 202/202/202 201/201/201
f 198/198/198 202/202/202 197/197/197
f 205/205/205 204/204/204 203/203/203
f 206/206/206 204/204/204 205/205/205
f 204/204/204 208/208/208 207/207/207
f 206/206/206 208/208/208 204/204/204
f 203/203/203 209/209/209 205/205/205
f 210/210/210 209/209/209 203/203/203
f 210/210/210 211/211/211 209/209/209
f 212/212/212 211/211/211 210/210/210
f 201/201/201 207/207/207 208/208/208
f 202/202/202 207/207/207 201/201/201
f 213/213/213 200/200/200 199/199/199
f 214/214/214 200/200/200 213/213/213
f 215/215/215 178/178/178 177/177/177
f 216/216/216 178/178/178 215/215/215
f 217/217/217 216/216/216 215/215/215
f 217/217/217 135/135/135 170/170/170
f 215/215/215 135/135/135 217/217/217
f 177/177/177 135/135/135 215/215/215
f 134/134/134 135/135/135 177/177/177
f 213/213/213 218/218/218 214/214/214
f 219/219/219 218/218/218 213/213/213
f 219/219/219 220/220/220 218/218/218
f 221/221/221 220/220/220 219/219/219
f 223/223/223 221/221/221 222/222/222
f 220/220/220 221/221/221 223/223/223
f 178/178/178 224/224/224 180/180/180
f 216/216/216 224/224/224 178/178/178
f 225/225/225 224/224/224 216/216/216
f 227/227/227 217/217/217 226/226/226
f 216/216/216 217/217/217 227/227/227
f 216/216/216 228/228/228 225/225/225
f 227/227/227 228/228/228 216/216/216
f 226/226/226 172/172/172 173/173/173
f 217/217/217 172/172/172 226/226/226
f 217/217/217 170/170/170 172/172/172
f 230/230/230 227/227/227 229/229/229
f 228/228/228 227/227/227 230/230/230
f 231/231/231 227/227/227 226/226/226
f 229/229/229 227/227/227 231/231/231
f 226/226/226 233/233/233 232/232/232
f 173/173/173 233/233/233 226/226/226
f 235/235/235 222/222/222 234/234/234
f 223/223/223 222/222/222 235/235/235
f 238/238/238 237/237/237 236/236/236
f 239/239/239 237/237/237 238/238/238
f 241/241/241 236/236/236 240/240/240
f 238/238/238 236/236/236 241/241/241
f 244/244/244 243/243/243 242/242/242
f 245/245/245 243/243/243 244/244/244
f 248/248/248 247/247/247 246/246/246
f 249/249/249 247/247/247 248/248/248
f 252/252/252 251/251/251 250/250/250
f 253/253/253 251/251/251 252/252/252
f 255/255/255 240/240/240 254/254/254
f 241/241/241 240/240/240 255/255/255
f 258/258/258 257/257/257 256/256/256
f 252/252/252 259/259/259 253/253/253
f 256/256/256 260/260/260 258/258/258
f 261/261/261 260/260/260 256/256/256
f 264/264/264 263/263/263 262/262/262
f 267/267/267 266/266/266 265/265/265
f 265/265/265 268/268/268 267/267/267
f 271/271/271 270/270/270 269/269/269
f 270/270/270 273/273/273 272/272/272
f 271/271/271 273/273/273 270/270/270
f 276/276/276 275/275/275 274/274/274
f 278/278/278 274/274/274 277/277/277
f 276/276/276 274/274/274 278/278/278
f 211/211/211 280/280/280 279/279/279
f 212/212/212 280/280/280 211/211/211
f 283/283/283 282/282/282 281/281/281
f 284/284/284 282/282/282 283/283/283
f 287/287/287 286/286/286 285/285/285
f 288/288/288 286/286/286 287/287/287
f 291/291/291 290/290/290 289/289/289
f 292/292/292 290/290/290 291/291/291
f 293/293/293 173/173/173 175/175/175
f 233/233/233 173/173/173 293/293/293
f 296/296/296 295/295/295 294/294/294
f 297/297/297 295/295/295 296/296/296
f 158/158/158 298/298/298 157/157/157
f 301/301/301 300/300/300 299/299/299
f 293/293/293 302/302/302 233/233/233
f 177/177/177 179/179/179 176/176/176
f 178/178/178 179/179/179 177/177/177
f 196/196/196 304/304/304 303/303/303
f 193/193/193 304/304/304 196/196/196
f 304/304/304 190/190/190 192/192/192
f 193/193/193 190/190/190 304/304/304
f 158/158/158 194/194/194 195/195/195
f 275/275/275 272/272/272 273/273/273
f 276/276/276 272/272/272 275/275/275
f 266/266/266 262/262/262 263/263/263
f 267/267/267 262/262/262 266/266/266
f 294/294/294 295/295/295 305/305/305
f 231/231/231 226/226/226 232/232/232
f 242/242/242 305/305/305 244/244/244
f 294/294/294 305/305/305 242/242/242
f 257/257/257 248/248/248 306/306/306
f 258/258/258 248/248/248 257/257/257
f 261/261/261 262/262/262 260/260/260
f 264/264/264 262/262/262 261/261/261
f 278/278/278 277/277/277 307/307/307
f 310/310/310 309/309/309 308/308/308
f 248/248/248 246/246/246 306/306/306
f 158/158/158 190/190/190 194/194/194
f 154/154/154 190/190/190 158/158/158
f 172/172/172 171/171/171 174/174/174
f 137/137/137 168/168/168 135/135/135
f 138/138/138 139/139/139 142/142/142
f 140/140/140 143/143/143 141/141/141
f 145/145/145 143/143/143 140/140/140
f 149/149/149 146/146/146 147/147/147
f 150/150/150 146/146/146 149/149/149
f 148/148/148 149/149/149 152/152/152
f 151/151/151 154/154/154 155/155/155
f 152/152/152 154/154/154 151/151/151
f 163/163/163 312/312/312 311/311/311
f 164/164/164 312/312/312 163/163/163
f 161/161/161 313/313/313 160/160/160
f 314/314/314 313/313/313 161/161/161
f 315/315/315 313/313/313 314/314/314
f 165/165/165 166/166/166 316/316/316
f 317/317/317 166/166/166 167/167/167
f 318/318/318 166/166/166 317/317/317
f 321/321/321 320/320/320 319/319/319
f 322/322/322 320/320/320 321/321/321
f 323/323/323 322/322/322 321/321/321
f 324/324/324 322/322/322 323/323/323
f 325/325/325 324/324/324 323/323/323
f 326/326/326 324/324/324 325/325/325
f 329/329/329 328/328/328 327/327/327
f 330/330/330 328/328/328 329/329/329
f 319/319/319 330/330/330 329/329/329
f 320/320/320 330/330/330 319/319/319
f 333/333/333 332/332/332 331/331/331
f 334/334/334 332/332/332 333/333/333
f 331/331/331 336/336/336 335/335/335
f 332/332/332 336/336/336 331/331/331
f 339/339/339 338/338/338 337/337/337
f 340/340/340 338/338/338 339/339/339
f 341/341/341 334/334/334 333/333/333
f 342/342/342 334/334/334 341/341/341
f 335/335/335 340/340/340 339/339/339
f 336/336/336 340/340/340 335/335/335
usemtl Exterior_Fade
f 345/345/345 344/344/344 343/343/343
f 348/348/348 347/347/347 346/346/346
f 351/351/351 350/350/350 349/349/349
f 352/352/352 350/350/350 351/351/351
f 355/355/355 354/354/354 353/353/353
f 357/357/357 349/349/349 356/356/356
f 358/358/358 349/349/349 357/357/357
f 361/361/361 360/360/360 359/359/359
f 364/364/364 363/363/363 362/362/362
f 365/365/365 363/363/363 364/364/364
f 367/367/367 366/366/366 359/359/359
f 368/368/368 366/366/366 367/367/367
f 371/371/371 370/370/370 369/369/369
f 366/366/366 370/370/370 371/371/371
f 368/368/368 370/370/370 366/366/366
f 365/365/365 372/372/372 363/363/363
f 373/373/373 372/372/372 365/365/365
f 354/354/354 362/362/362 353/353/353
f 364/364/364 362/362/362 354/354/354
f 366/366/366 374/374/374 359/359/359
f 375/375/375 374/374/374 366/366/366
f 366/366/366 377/377/377 376/376/376
f 371/371/371 377/377/377 366/366/366
f 380/380/380 379/379/379 378/378/378
f 376/376/376 379/379/379 380/380/380
f 382/382/382 377/377/377 381/381/381
f 375/375/375 377/377/377 382/382/382
f 385/385/385 384/384/384 383/383/383
f 379/379/379 384/384/384 385/385/385
f 386/386/386 384/384/384 379/379/379
f 389/389/389 388/388/388 387/387/387
f 390/390/390 388/388/388 389/389/389
f 393/393/393 392/392/392 391/391/391
f 394/394/394 392/392/392 393/393/393
f 396/396/396 394/394/394 395/395/395
f 397/397/397 394/394/394 396/396/396
f 398/398/398 344/344/344 392/392/392
f 343/343/343 344/344/344 398/398/398
f 399/399/399 392/392/392 396/396/396
f 398/398/398 392/392/392 399/399/399
f 402/402/402 401/401/401 400/400/400
f 403/403/403 401/401/401 402/402/402
f 379/379/379 405/405/405 404/404/404
f 406/406/406 405/405/405 379/379/379
f 353/353/353 408/408/408 407/407/407
f 347/347/347 408/408/408 353/353/353
f 409/409/409 347/347/347 348/348/348
f 410/410/410 347/347/347 409/409/409
f 388/388/388 412/412/412 411/411/411
f 394/394/394 412/412/412 388/388/388
f 394/394/394 413/413/413 412/412/412
f 416/416/416 415/415/415 414/414/414
f 419/419/419 418/418/418 417/417/417
f 422/422/422 421/421/421 420/420/420
f 425/425/425 424/424/424 423/423/423
f 426/426/426 424/424/424 425/425/425
f 429/429/429 428/428/428 427/427/427
f 430/430/430 428/428/428 429/429/429
f 433/433/433 432/432/432 431/431/431
f 434/434/434 432/432/432 433/433/433
f 437/437/437 436/436/436 435/435/435
f 438/438/438 436/436/436 437/437/437
f 441/441/441 440/440/440 439/439/439
f 444/444/444 443/443/443 442/442/442
f 447/447/447 446/446/446 445/445/445
f 448/448/448 446/446/446 447/447/447
f 451/451/451 450/450/450 449/449/449
f 452/452/452 450/450/450 451/451/451
f 455/455/455 454/454/454 453/453/453
f 456/456/456 454/454/454 455/455/455
f 459/459/459 458/458/458 457/457/457
f 460/460/460 458/458/458 459/459/459
f 463/463/463 462/462/462 461/461/461
f 464/464/464 462/462/462 463/463/463
f 467/467/467 466/466/466 465/465/465
f 470/470/470 469/469/469 468/468/468
f 473/473/473 472/472/472 471/471/471
f 476/476/476 475/475/475 474/474/474
f 477/477/477 475/475/475 476/476/476
f 480/480/480 479/479/479 478/478/478
f 481/481/481 479/479/479 480/480/480
f 484/484/484 483/483/483 482/482/482
f 485/485/485 483/483/483 484/484/484
f 486/486/486 485/485/485 484/484/484
f 479/479/479 485/485/485 486/486/486
f 489/489/489 488/488/488 487/487/487
f 490/490/490 488/488/488 489/489/489
f 493/493/493 492/492/492 491/491/491
f 494/494/494 492/492/492 493/493/493
f 496/496/496 491/491/491 495/495/495
f 497/497/497 491/491/491 496/496/496
f 474/474/474 499/499/499 498/498/498
f 500/500/500 499/499/499 474/474/474
f 503/503/503 502/502/502 501/501/501
f 504/504/504 502/502/502 503/503/503
f 498/498/498 506/506/506 505/505/505
f 507/507/507 506/506/506 498/498/498
f 509/509/509 501/501/501 508/508/508
f 510/510/510 501/501/501 509/509/509
f 505/505/505 512/512/512 511/511/511
f 506/506/506 512/512/512 505/505/505
f 515/515/515 514/514/514 513/513/513
f 509/509/509 514/514/514 515/515/515
f 511/511/511 481/481/481 480/480/480
f 512/512/512 481/481/481 511/511/511
f 424/424/424 513/513/513 423/423/423
f 515/515/515 513/513/513 424/424/424
f 518/518/518 517/517/517 516/516/516
f 519/519/519 517/517/517 518/518/518
f 522/522/522 521/521/521 520/520/520
f 523/523/523 521/521/521 522/522/522
f 494/494/494 524/524/524 492/492/492
f 525/525/525 524/524/524 494/494/494
f 528/528/528 527/527/527 526/526/526
f 529/529/529 527/527/527 528/528/528
f 532/532/532 531/531/531 530/530/530
f 533/533/533 531/531/531 532/532/532
f 536/536/536 535/535/535 534/534/534
f 531/531/531 535/535/535 536/536/536
f 534/534/534 538/538/538 537/537/537
f 539/539/539 538/538/538 534/534/534
f 537/537/537 541/541/541 540/540/540
f 538/538/538 541/541/541 537/537/537
f 544/544/544 543/543/543 542/542/542
f 545/545/545 543/543/543 544/544/544
f 542/542/542 533/533/533 532/532/532
f 543/543/543 533/533/533 542/542/542
f 540/540/540 529/529/529 528/528/528
f 541/541/541 529/529/529 540/540/540
f 546/546/546 448/448/448 447/447/447
f 549/549/549 548/548/548 547/547/547
f 551/551/551 550/550/550 402/402/402
f 552/552/552 550/550/550 551/551/551
f 554/554/554 376/376/376 553/553/553
f 401/401/401 555/555/555 373/373/373
f 403/403/403 555/555/555 401/401/401
f 558/558/558 557/557/557 556/556/556
f 559/559/559 557/557/557 558/558/558
f 409/409/409 388/388/388 560/560/560
f 348/348/348 388/388/388 409/409/409
f 388/388/388 346/346/346 387/387/387
f 348/348/348 346/346/346 388/388/388
f 562/562/562 360/360/360 561/561/561
f 563/563/563 356/356/356 360/360/360
f 357/357/357 356/356/356 563/563/563
f 352/352/352 343/343/343 350/350/350
f 564/564/564 343/343/343 352/352/352
f 345/345/345 566/566/566 565/565/565
f 552/552/552 385/385/385 550/550/550
f 405/405/405 385/385/385 552/552/552
f 385/385/385 567/567/567 550/550/550
f 570/570/570 569/569/569 568/568/568
f 573/573/573 572/572/572 571/571/571
f 574/574/574 572/572/572 573/573/573
f 577/577/577 576/576/576 575/575/575
f 578/578/578 576/576/576 577/577/577
f 581/581/581 580/580/580 579/579/579
f 582/582/582 580/580/580 581/581/581
f 585/585/585 584/584/584 583/583/583
f 588/588/588 587/587/587 586/586/586
f 589/589/589 587/587/587 588/588/588
f 592/592/592 591/591/591 590/590/590
f 595/595/595 594/594/594 593/593/593
usemtl Glass_Tinted_Fade
f 598/598/598 597/597/597 596/596/596
f 599/599/599 597/597/597 598/598/598
f 602/602/602 601/601/601 600/600/600
f 603/603/603 601/601/601 602/602/602
f 600/600/600 605/605/605 604/604/604
f 606/606/606 605/605/605 600/600/600
f 609/609/609 608/608/608 607/607/607
f 610/610/610 608/608/608 609/609/609
f 613/613/613 612/612/612 611/611/611
f 614/614/614 612/612/612 613/613/613
f 608/608/608 616/616/616 615/615/615
f 617/617/617 616/616/616 608/608/608
f 618/618/618 616/616/616 617/617/617
f 619/619/619 614/614/614 613/613/613
f 620/620/620 614/614/614 619/619/619
f 623/623/623 622/622/622 621/621/621
f 624/624/624 622/622/622 623/623/623
f 627/627/627 626/626/626 625/625/625
f 630/630/630 629/629/629 628/628/628
f 631/631/631 629/629/629 630/630/630
f 634/634/634 633/633/633 632/632/632
f 635/635/635 633/633/633 634/634/634
f 638/638/638 637/637/637 636/636/636
f 639/639/639 637/637/637 638/638/638
f 641/641/641 639/639/639 640/640/640
f 642/642/642 639/639/639 641/641/641
f 645/645/645 644/644/644 643/643/643
f 648/648/648 647/647/647 646/646/646
f 651/651/651 650/650/650 649/649/649
f 654/654/654 653/653/653 652/652/652
f 655/655/655 653/653/653 654/654/654
f 658/658/658 657/657/657 656/656/656
f 659/659/659 657/657/657 658/658/658
f 659/659/659 661/661/661 660/660/660
f 662/662/662 661/661/661 659/659/659
f 660/660/660 664/664/664 663/663/663
f 661/661/661 664/664/664 660/660/660
f 664/664/664 666/666/666 665/665/665
f 667/667/667 666/666/666 664/664/664
f 666/666/666 635/635/635 668/668/668
f 667/667/667 635/635/635 666/666/666
f 671/671/671 670/670/670 669/669/669
f 672/672/672 670/670/670 671/671/671
f 675/675/675 674/674/674 673/673/673
f 671/671/671 674/674/674 675/675/675
f 677/677/677 673/673/673 676/676/676
f 675/675/675 673/673/673 677/677/677
f 680/680/680 679/679/679 678/678/678
f 681/681/681 679/679/679 680/680/680
f 683/683/683 678/678/678 682/682/682
f 680/680/680 678/678/678 683/683/683
f 686/686/686 685/685/685 684/684/684
f 687/687/687 685/685/685 686/686/686
f 636/636/636 689/689/689 688/688/688
f 637/637/637 689/689/689 636/636/636
f 690/690/690 688/688/688 689/689/689
f 691/691/691 688/688/688 690/690/690
f 672/672/672 692/692/692 670/670/670
f 693/693/693 692/692/692 672/672/672
f 621/621/621 603/603/603 602/602/602
f 622/622/622 603/603/603 621/621/621
f 624/624/624 695/695/695 694/694/694
f 623/623/623 695/695/695 624/624/624
f 697/697/697 696/696/696 598/598/598
f 698/698/698 696/696/696 697/697/697
f 701/701/701 700/700/700 699/699/699
f 702/702/702 700/700/700 701/701/701
f 697/697/697 612/612/612 698/698/698
f 611/611/611 612/612/612 697/697/697
f 703/703/703 702/702/702 701/701/701
f 704/704/704 702/702/702 703/703/703
f 706/706/706 596/596/596 705/705/705
f 598/598/598 596/596/596 706/706/706
f 706/706/706 697/697/697 707/707/707
f 708/708/708 697/697/697 706/706/706
f 709/709/709 697/697/697 708/708/708
f 710/710/710 697/697/697 709/709/709
f 611/611/611 711/711/711 613/613/613
f 709/709/709 711/711/711 611/611/611
f 613/613/613 712/712/712 619/619/619
f 711/711/711 712/712/712 613/613/613
f 704/704/704 713/713/713 702/702/702
f 714/714/714 713/713/713 704/704/704
f 713/713/713 700/700/700 702/702/702
f 715/715/715 700/700/700 713/713/713
f 623/623/623 705/705/705 716/716/716
f 706/706/706 705/705/705 623/623/623
f 706/706/706 621/621/621 708/708/708
f 623/623/623 621/621/621 706/706/706
f 602/602/602 708/708/708 621/621/621
f 717/717/717 708/708/708 602/602/602
f 600/600/600 709/709/709 602/602/602
f 711/711/711 709/709/709 600/600/600
f 604/604/604 711/711/711 600/600/600
f 712/712/712 711/711/711 604/604/604
f 714/714/714 607/607/607 713/713/713
f 718/718/718 607/607/607 714/714/714
f 607/607/607 715/715/715 713/713/713
f 616/616/616 715/715/715 607/607/607
f 610/610/610 719/719/719 605/605/605
f 720/720/720 719/719/719 610/610/610
f 609/609/609 712/712/712 719/719/719
f 714/714/714 712/712/712 609/609/609
f 714/714/714 619/619/619 712/712/712
f 704/704/704 619/619/619 714/714/714
f 619/619/619 703/703/703 620/620/620
f 704/704/704 703/703/703 619/619/619
f 642/642/642 722/722/722 721/721/721
f 725/725/725 724/724/724 723/723/723
f 726/726/726 724/724/724 725/725/725
f 727/727/727 726/726/726 725/725/725
f 728/728/728 726/726/726 727/727/727
f 730/730/730 728/728/728 729/729/729
f 731/731/731 728/728/728 730/730/730
f 732/732/732 731/731/731 730/730/730
f 733/733/733 731/731/731 732/732/732
f 735/735/735 734/734/734 732/732/732
f 736/736/736 734/734/734 735/735/735
f 739/739/739 738/738/738 737/737/737
f 649/649/649 654/654/654 652/652/652
f 740/740/740 654/654/654 649/649/649
usemtl Glass_Interior_Tinted_Fade
f 743/743/743 742/742/742 741/741/741
f 744/744/744 742/742/742 743/743/743
f 747/747/747 746/746/746 745/745/745
f 748/748/748 746/746/746 747/747/747
f 751/751/751 750/750/750 749/749/749
f 752/752/752 750/750/750 751/751/751
f 753/753/753 752/752/752 751/751/751
f 746/746/746 752/752/752 753/753/753
f 741/741/741 748/748/748 747/747/747
f 754/754/754 748/748/748 741/741/741
f 757/757/757 756/756/756 755/755/755
f 758/758/758 756/756/756 757/757/757
f 758/758/758 759/759/759 756/756/756
f 746/746/746 759/759/759 758/758/758
f 746/746/746 760/760/760 759/759/759
f 748/748/748 760/760/760 746/746/746
f 748/748/748 761/761/761 760/760/760
f 754/754/754 761/761/761 748/748/748
f 754/754/754 762/762/762 761/761/761
f 744/744/744 762/762/762 754/754/754
f 763/763/763 751/751/751 749/749/749
f 764/764/764 751/751/751 763/763/763
f 765/765/765 753/753/753 751/751/751
f 766/766/766 753/753/753 765/765/765
f 766/766/766 747/747/747 753/753/753
f 767/767/767 747/747/747 766/766/766
f 767/767/767 741/741/741 768/768/768
f 769/769/769 741/741/741 767/767/767
f 769/769/769 770/770/770 741/741/741
f 771/771/771 770/770/770 769/769/769
f 773/773/773 755/755/755 772/772/772
f 757/757/757 755/755/755 773/773/773
f 757/757/757 774/774/774 749/749/749
f 773/773/773 774/774/774 757/757/757
f 775/775/775 749/749/749 774/774/774
f 776/776/776 749/749/749 775/775/775
