# Exported from Godot Engine
mtllib DRL.mtl
o DRL
v 2.425650 0.779519 -0.503142
vt -0.091212 2.578850
vn 0.663085 0.705473 -0.250250
v 2.426809 0.777442 -0.503900
vt -0.091276 2.582196
vn 0.797520 0.355232 -0.487618
v 2.426853 0.778079 -0.500888
vt -0.087599 2.580526
vn 0.866390 0.485886 -0.115257
v 2.427813 0.776006 -0.501690
vt -0.088097 2.583831
vn 0.920366 0.138050 -0.365882
v 2.416953 0.784217 -0.509387
vt -0.105014 2.570760
vn 0.641297 0.721483 -0.261152
v 2.418048 0.782532 -0.513487
vt -0.109105 2.575524
vn 0.758301 0.383913 -0.526868
v 2.050749 0.860525 -0.865622
vt -0.837847 2.497707
vn 0.102863 -0.008302 -0.994661
v 2.075954 0.841449 -0.862826
vt -0.804451 2.524583
vn 0.110698 -0.021823 -0.993615
v 2.050999 0.862945 -0.865592
vt -0.837391 2.494446
vn 0.105401 -0.005024 -0.994417
v 2.077024 0.842945 -0.862761
vt -0.802936 2.522596
vn 0.110400 -0.021503 -0.993655
v 2.107886 0.817609 -0.858281
vt -0.761531 2.557874
vn 0.124370 -0.046528 -0.991144
v 2.109119 0.819056 -0.858165
vt -0.759807 2.555942
vn 0.125206 -0.048739 -0.990933
v 2.178513 0.776928 -0.835180
vt -0.658372 2.612395
vn 0.378653 -0.435085 -0.816898
v 2.179205 0.778168 -0.835465
vt -0.657816 2.610516
vn 0.383759 -0.438646 -0.812600
v 2.158106 0.785496 -0.845511
vt -0.690585 2.601545
vn 0.209480 -0.275543 -0.938187
v 2.158903 0.786750 -0.845793
vt -0.689674 2.599698
vn 0.211370 -0.277837 -0.937085
v 2.202747 0.770861 -0.816556
vt -0.616290 2.618665
vn 0.492904 -0.508745 -0.705850
v 2.203355 0.772004 -0.817025
vt -0.616130 2.616812
vn 0.491764 -0.508121 -0.707093
v 2.225429 0.766763 -0.795020
vt -0.573239 2.621776
vn 0.581082 -0.537744 -0.610881
v 2.278075 0.759182 -0.735135
vt -0.464661 2.625962
vn 0.611956 -0.549699 -0.568630
v 2.225936 0.767925 -0.795508
vt -0.573329 2.619944
vn 0.577897 -0.537414 -0.614183
v 2.278683 0.760406 -0.735693
vt -0.464804 2.623973
vn 0.610449 -0.548613 -0.571293
v 2.323656 0.753245 -0.676792
vt -0.364126 2.628131
vn 0.634026 -0.558482 -0.534892
v 2.324266 0.754466 -0.677343
vt -0.364313 2.626149
vn 0.632789 -0.558554 -0.536279
v 2.365620 0.748874 -0.619683
vt -0.267920 2.628593
vn 0.688882 -0.551941 -0.469896
v 2.375607 0.749262 -0.604724
vt -0.243539 2.626735
vn 0.736473 -0.545734 -0.399727
v 2.366234 0.750106 -0.620216
vt -0.268158 2.626612
vn 0.687556 -0.552029 -0.471732
v 2.376230 0.750456 -0.605229
vt -0.243803 2.624810
vn 0.736854 -0.545686 -0.399090
v 2.385109 0.753422 -0.589822
vt -0.219861 2.619707
vn 0.806487 -0.523916 -0.274027
v 2.384501 0.752251 -0.589380
vt -0.219566 2.621568
vn 0.802147 -0.525916 -0.282794
v 2.394595 0.759394 -0.568844
vt -0.188865 2.610681
vn 0.841668 -0.501430 -0.200407
v 2.395205 0.760570 -0.569261
vt -0.189205 2.608832
vn 0.844994 -0.498534 -0.193517
v 2.405793 0.769856 -0.542814
vt -0.151056 2.595024
vn 0.871596 -0.456018 -0.179909
v 2.406348 0.770993 -0.543189
vt -0.151400 2.593265
vn 0.875533 -0.447505 -0.182158
v 2.417423 0.780950 -0.513351
vt -0.109254 2.577855
vn 0.887365 -0.420521 -0.189063
v 2.418048 0.782532 -0.513487
vt -0.109105 2.575524
vn 0.887365 -0.420521 -0.189063
v 2.358707 0.749290 -0.629470
vt -0.284250 2.628956
vn 0.648768 -0.557102 -0.518399
v 2.359318 0.750507 -0.630016
vt -0.284456 2.626985
vn 0.647850 -0.557277 -0.519359
v 2.425704 0.776404 -0.504019
vt -0.092416 2.583946
vn 0.581072 -0.404695 -0.706100
v 2.426560 0.775191 -0.502280
vt -0.089648 2.585366
vn 0.590627 -0.513433 -0.622532
v 2.417423 0.780950 -0.513351
vt -0.109254 2.577855
vn 0.578541 -0.386807 -0.718103
v 2.129091 0.802728 -0.854235
vt -0.732387 2.578391
vn 0.147892 -0.147814 -0.977895
v 2.130128 0.804197 -0.854255
vt -0.730993 2.576373
vn 0.148396 -0.150851 -0.977355
v 2.426560 0.775191 -0.502280
vt -0.089648 2.585366
vn 0.906194 0.215815 -0.363643
v 2.425704 0.776404 -0.504019
vt -0.092416 2.583946
vn 0.789384 0.436703 -0.431467
v 2.416483 0.762525 -0.535231
vt -0.134462 2.607112
vn 0.895108 0.213409 -0.391456
v 2.415537 0.763902 -0.536446
vt -0.136594 2.605311
vn 0.731426 0.494965 -0.469068
v 2.417423 0.780950 -0.513351
vt -0.109254 2.577855
vn 0.709703 0.537928 -0.454924
v 2.405793 0.769856 -0.542814
vt -0.151056 2.595024
vn 0.683294 0.539539 -0.491943
v 2.404352 0.751391 -0.564313
vt -0.176327 2.623798
vn 0.705026 0.493628 -0.509185
v 2.394595 0.759394 -0.568844
vt -0.188865 2.610681
vn 0.674295 0.530121 -0.514099
v 2.394686 0.742608 -0.585681
vt -0.207396 2.636929
vn 0.708448 0.482850 -0.514740
v 2.384501 0.752251 -0.589380
vt -0.219566 2.621568
vn 0.683208 0.520038 -0.512628
v 2.376581 0.735605 -0.617643
vt -0.256200 2.648832
vn 0.722517 0.479499 -0.498047
v 2.386400 0.737560 -0.601757
vt -0.231297 2.644885
vn 0.718279 0.475651 -0.507771
v 2.365620 0.748874 -0.619683
vt -0.267920 2.628593
vn 0.707639 0.511446 -0.487514
v 2.375607 0.749262 -0.604724
vt -0.243539 2.626735
vn 0.697910 0.515511 -0.497161
v 2.369604 0.735347 -0.628040
vt -0.272921 2.650141
vn 0.733130 0.456895 -0.503753
v 2.358707 0.749290 -0.629470
vt -0.284250 2.628956
vn 0.713441 0.503003 -0.487841
v 2.107886 0.817609 -0.858281
vt -0.761531 2.557874
vn 0.375616 0.402443 -0.834837
v 2.075954 0.841449 -0.862826
vt -0.804451 2.524583
vn 0.345421 0.395857 -0.850871
v 2.063064 0.783751 -0.895326
vt -0.835932 2.610101
vn 0.366070 0.396972 -0.841668
v 2.011576 0.818207 -0.898961
vt -0.902850 2.559944
vn 0.325841 0.394335 -0.859260
v 2.405297 0.750010 -0.563103
vt -0.174224 2.625635
vn 0.870127 0.200302 -0.450286
v 2.395541 0.741157 -0.584655
vt -0.205564 2.638847
vn 0.863021 0.175410 -0.473736
v 2.387193 0.736032 -0.600877
vt -0.229647 2.646894
vn 0.849838 0.150115 -0.505213
v 2.377305 0.734007 -0.616914
vt -0.254742 2.650934
vn 0.832918 0.128810 -0.538197
v 2.370267 0.733736 -0.627407
vt -0.271582 2.652256
vn 0.814026 0.111114 -0.570101
v 2.335841 0.735884 -0.675362
vt -0.351282 2.654036
vn 0.804514 0.101725 -0.585157
v 2.335241 0.737499 -0.675905
vt -0.352484 2.651911
vn 0.725081 0.464991 -0.507977
v 2.291317 0.739894 -0.733915
vt -0.450576 2.654526
vn 0.784904 0.083417 -0.613977
v 2.290721 0.741511 -0.734458
vt -0.451781 2.652402
vn 0.712336 0.457144 -0.532538
v 2.210304 0.749142 -0.825026
vt -0.614851 2.651520
vn 0.628816 0.424309 -0.651577
v 2.210480 0.747571 -0.824961
vt -0.614493 2.653630
vn 0.674105 0.059712 -0.736218
v 2.238087 0.746924 -0.796699
vt -0.561909 2.651603
vn 0.688523 0.452536 -0.566699
v 2.238437 0.745329 -0.796442
vt -0.561213 2.653727
vn 0.753036 0.061303 -0.655117
v 2.174381 0.750693 -0.853919
vt -0.676049 2.652821
vn 0.571046 0.116810 -0.812565
v 2.174503 0.752222 -0.853607
vt -0.675791 2.650724
vn 0.547630 0.415440 -0.726299
v 2.143219 0.754841 -0.871664
vt -0.723793 2.649341
vn 0.430262 0.226552 -0.873813
v 2.143610 0.756342 -0.871077
vt -0.723038 2.647234
vn 0.450548 0.417423 -0.789154
v 2.096179 0.766002 -0.889301
vt -0.791352 2.635202
vn 0.357725 0.287743 -0.888390
v 2.097035 0.767406 -0.888492
vt -0.789900 2.633201
vn 0.406346 0.408837 -0.817151
v 2.062158 0.782379 -0.896143
vt -0.837456 2.612056
vn 0.304255 0.330842 -0.893293
v 2.010299 0.817093 -0.899799
vt -0.904857 2.561522
vn 0.266442 0.363030 -0.892871
v 1.970728 0.846501 -0.897942
vt -0.954420 2.517004
vn 0.175335 0.278147 -0.944400
v 1.972269 0.847448 -0.897121
vt -0.952081 2.515683
vn 0.286547 0.346064 -0.893381
v 2.323656 0.753245 -0.676792
vt -0.364126 2.628131
vn 0.710877 0.494200 -0.500420
v 2.278075 0.759182 -0.735135
vt -0.464661 2.625962
vn 0.695658 0.483155 -0.531622
v 2.225429 0.766763 -0.795020
vt -0.573239 2.621776
vn 0.672317 0.472527 -0.569832
v 2.202747 0.770861 -0.816556
vt -0.616290 2.618665
vn 0.619053 0.447532 -0.645359
v 2.178513 0.776928 -0.835180
vt -0.658372 2.612395
vn 0.559379 0.435073 -0.705554
v 2.158106 0.785496 -0.845511
vt -0.690585 2.601545
vn 0.464653 0.427955 -0.775211
v 2.129091 0.802728 -0.854235
vt -0.732387 2.578391
vn 0.417521 0.418524 -0.806544
v 2.050749 0.860525 -0.865622
vt -0.837847 2.497707
vn 0.302014 0.377754 -0.875265
v 2.031205 0.878202 -0.867766
vt -0.863593 2.473000
vn 0.280538 0.324639 -0.903276
v 1.937049 0.870754 -0.897256
vt -0.997078 2.480628
vn 0.280538 0.324639 -0.903276
v 1.939742 0.865636 -0.897585
vt -0.994012 2.487822
vn 0.130435 0.208528 -0.969279
v 1.937049 0.870754 -0.897256
vt -0.997078 2.480628
vn 0.130435 0.208528 -0.969279
v 2.031205 0.878202 -0.867766
vt -0.863593 2.473000
vn 0.109912 0.000910 -0.993941
v 2.427813 0.776006 0.501690
vt -0.088097 2.583831
vn 0.920299 0.137991 0.366072
v 2.426809 0.777442 0.503900
vt -0.091276 2.582196
vn 0.797456 0.355162 0.487775
v 2.426853 0.778079 0.500888
vt -0.087599 2.580526
vn 0.866373 0.485892 0.115354
v 2.425650 0.779519 0.503142
vt -0.091212 2.578850
vn 0.663075 0.705464 0.250305
v 2.418048 0.782532 0.513488
vt -0.109105 2.575524
vn 0.758230 0.383839 0.527025
v 2.416953 0.784217 0.509387
vt -0.105014 2.570760
vn 0.641285 0.721474 0.261207
v 2.077024 0.842945 0.862761
vt -0.802936 2.522596
vn 0.110383 -0.021520 0.993656
v 2.075954 0.841448 0.862826
vt -0.804451 2.524583
vn 0.110601 -0.021804 0.993626
v 2.050999 0.862945 0.865592
vt -0.837391 2.494446
vn 0.105381 -0.005007 0.994419
v 2.050749 0.860525 0.865622
vt -0.837847 2.497707
vn 0.102883 -0.008319 0.994659
v 2.109119 0.819055 0.858166
vt -0.759807 2.555942
vn 0.125303 -0.048724 0.990921
v 2.107886 0.817609 0.858281
vt -0.761531 2.557874
vn 0.124387 -0.046510 0.991143
v 2.158903 0.786750 0.845793
vt -0.689674 2.599698
vn 0.211354 -0.277910 0.937067
v 2.179205 0.778168 0.835465
vt -0.657816 2.610516
vn 0.383784 -0.438622 0.812601
v 2.158106 0.785496 0.845512
vt -0.690585 2.601545
vn 0.209452 -0.275513 0.938202
v 2.178513 0.776928 0.835180
vt -0.658372 2.612395
vn 0.378686 -0.435119 0.816865
v 2.203355 0.772004 0.817025
vt -0.616130 2.616812
vn 0.491790 -0.508096 0.707093
v 2.202747 0.770861 0.816556
vt -0.616290 2.618665
vn 0.492883 -0.508829 0.705805
v 2.278683 0.760406 0.735693
vt -0.464804 2.623973
vn 0.610266 -0.548429 0.571664
v 2.278075 0.759182 0.735135
vt -0.464661 2.625962
vn 0.612085 -0.549723 0.568469
v 2.225936 0.767924 0.795508
vt -0.573329 2.619944
vn 0.577871 -0.537441 0.614184
v 2.225429 0.766763 0.795021
vt -0.573239 2.621776
vn 0.581054 -0.537716 0.610932
v 2.324266 0.754466 0.677343
vt -0.364313 2.626149
vn 0.632766 -0.558478 0.536386
v 2.323656 0.753244 0.676792
vt -0.364126 2.628131
vn 0.634052 -0.558403 0.534944
v 2.376230 0.750455 0.605229
vt -0.243803 2.624810
vn 0.736947 -0.545686 0.398918
v 2.375607 0.749261 0.604724
vt -0.243539 2.626735
vn 0.736529 -0.545743 0.399613
v 2.366234 0.750106 0.620216
vt -0.268158 2.626612
vn 0.687535 -0.552007 0.471788
v 2.365620 0.748873 0.619683
vt -0.267920 2.628593
vn 0.688861 -0.551919 0.469952
v 2.384501 0.752251 0.589380
vt -0.219566 2.621568
vn 0.802166 -0.525888 0.282792
v 2.385109 0.753422 0.589822
vt -0.219861 2.619707
vn 0.806496 -0.523930 0.273973
v 2.395205 0.760570 0.569261
vt -0.189205 2.608832
vn 0.844998 -0.498547 0.193466
v 2.394595 0.759394 0.568845
vt -0.188865 2.610681
vn 0.841685 -0.501403 0.200406
v 2.406348 0.770993 0.543189
vt -0.151400 2.593265
vn 0.875558 -0.447437 0.182204
v 2.405793 0.769856 0.542814
vt -0.151056 2.595024
vn 0.871582 -0.456045 0.179911
v 2.418048 0.782532 0.513488
vt -0.109105 2.575524
vn 0.887361 -0.420507 0.189113
v 2.417423 0.780950 0.513352
vt -0.109254 2.577855
vn 0.887361 -0.420507 0.189113
v 2.359318 0.750507 0.630016
vt -0.284456 2.626985
vn 0.647876 -0.557198 0.519411
v 2.358707 0.749290 0.629471
vt -0.284250 2.628956
vn 0.648743 -0.557130 0.518400
v 2.426560 0.775191 0.502281
vt -0.089648 2.585366
vn 0.590552 -0.513515 0.622536
v 2.425704 0.776404 0.504019
vt -0.092416 2.583946
vn 0.581049 -0.404723 0.706103
v 2.418048 0.782532 0.513488
vt -0.109105 2.575524
vn 0.758277 0.383888 0.526920
v 2.417423 0.780950 0.513352
vt -0.109254 2.577855
vn 0.578554 -0.386721 0.718138
v 2.130128 0.804197 0.854255
vt -0.730993 2.576373
vn 0.148372 -0.150826 0.977362
v 2.129091 0.802728 0.854235
vt -0.732387 2.578391
vn 0.147873 -0.147834 0.977895
v 2.415537 0.763902 0.536446
vt -0.136594 2.605311
vn 0.731449 0.494885 0.469118
v 2.425704 0.776404 0.504019
vt -0.092416 2.583946
vn 0.789402 0.436573 0.431565
v 2.416483 0.762525 0.535231
vt -0.134462 2.607112
vn 0.895035 0.213350 0.391656
v 2.426560 0.775191 0.502281
vt -0.089648 2.585366
vn 0.906140 0.215851 0.363757
v 2.405793 0.769856 0.542814
vt -0.151056 2.595024
vn 0.683273 0.539465 0.492052
v 2.417423 0.780950 0.513352
vt -0.109254 2.577855
vn 0.709686 0.537857 0.455034
v 2.394595 0.759394 0.568845
vt -0.188865 2.610681
vn 0.674272 0.530098 0.514154
v 2.404352 0.751390 0.564313
vt -0.176327 2.623798
vn 0.704958 0.493556 0.509349
v 2.384501 0.752251 0.589380
vt -0.219566 2.621568
vn 0.683278 0.519901 0.512674
v 2.394686 0.742608 0.585681
vt -0.207396 2.636929
vn 0.708379 0.482778 0.514903
v 2.375607 0.749261 0.604724
vt -0.243539 2.626735
vn 0.697888 0.515488 0.497216
v 2.386400 0.737560 0.601757
vt -0.231297 2.644885
vn 0.718170 0.475690 0.507889
v 2.365620 0.748873 0.619683
vt -0.267920 2.628593
vn 0.707574 0.511377 0.487680
v 2.376581 0.735605 0.617643
vt -0.256200 2.648832
vn 0.722451 0.479481 0.498159
v 2.358707 0.749290 0.629471
vt -0.284250 2.628956
vn 0.713376 0.502986 0.487954
v 2.369604 0.735347 0.628040
vt -0.272921 2.650141
vn 0.733065 0.456877 0.503864
v 2.011576 0.818206 0.898961
vt -0.902850 2.559944
vn 0.325745 0.394234 0.859343
v 2.075954 0.841448 0.862826
vt -0.804451 2.524583
vn 0.345381 0.395766 0.850929
v 2.063064 0.783751 0.895326
vt -0.835932 2.610101
vn 0.365972 0.396872 0.841758
v 2.107886 0.817609 0.858281
vt -0.761531 2.557874
vn 0.375575 0.402351 0.834899
v 2.395541 0.741157 0.584655
vt -0.205564 2.638847
vn 0.862945 0.175293 0.473917
v 2.405297 0.750009 0.563103
vt -0.174224 2.625635
vn 0.870069 0.200385 0.450362
v 2.387193 0.736032 0.600878
vt -0.229647 2.646894
vn 0.849810 0.150191 0.505238
v 2.377305 0.734007 0.616914
vt -0.254742 2.650934
vn 0.832858 0.128789 0.538294
v 2.370267 0.733736 0.627408
vt -0.271582 2.652256
vn 0.813999 0.111090 0.570144
v 2.290721 0.741511 0.734458
vt -0.451781 2.652402
vn 0.712264 0.457070 0.532698
v 2.335241 0.737498 0.675905
vt -0.352484 2.651911
vn 0.725059 0.464967 0.508031
v 2.291317 0.739894 0.733915
vt -0.450576 2.654526
vn 0.784875 0.083393 0.614017
v 2.335841 0.735884 0.675362
vt -0.351282 2.654036
vn 0.804469 0.101654 0.585232
v 2.238437 0.745328 0.796442
vt -0.561213 2.653727
vn 0.753045 0.061373 0.655100
v 2.210480 0.747570 0.824961
vt -0.614493 2.653630
vn 0.673972 0.059782 0.736334
v 2.238087 0.746924 0.796699
vt -0.561909 2.651603
vn 0.688497 0.452510 0.566751
v 2.210304 0.749142 0.825026
vt -0.614851 2.651520
vn 0.628786 0.424280 0.651624
v 2.174503 0.752221 0.853608
vt -0.675791 2.650724
vn 0.547532 0.415347 0.726426
v 2.174381 0.750693 0.853919
vt -0.676049 2.652821
vn 0.570959 0.116783 0.812630
v 2.143610 0.756342 0.871077
vt -0.723038 2.647234
vn 0.450456 0.417383 0.789228
v 2.143219 0.754840 0.871664
vt -0.723793 2.649341
vn 0.430159 0.226465 0.873886
v 2.097035 0.767406 0.888492
vt -0.789900 2.633201
vn 0.406247 0.408737 0.817250
v 2.096179 0.766002 0.889301
vt -0.791352 2.635202
vn 0.357682 0.287657 0.888435
v 2.062158 0.782379 0.896143
vt -0.837456 2.612056
vn 0.304169 0.330801 0.893337
v 2.010299 0.817093 0.899799
vt -0.904857 2.561522
vn 0.266357 0.362987 0.892914
v 1.972269 0.847448 0.897121
vt -0.952081 2.515683
vn 0.286454 0.345966 0.893449
v 1.970728 0.846501 0.897942
vt -0.954420 2.517004
vn 0.175192 0.277897 0.944501
v 2.323656 0.753244 0.676792
vt -0.364126 2.628131
vn 0.710855 0.494176 0.500474
v 2.278075 0.759182 0.735135
vt -0.464661 2.625962
vn 0.695678 0.483073 0.531670
v 2.202747 0.770861 0.816556
vt -0.616290 2.618665
vn 0.618970 0.447503 0.645459
v 2.225429 0.766763 0.795021
vt -0.573239 2.621776
vn 0.672239 0.472448 0.569989
v 2.178513 0.776928 0.835180
vt -0.658372 2.612395
vn 0.558898 0.435016 0.705970
v 2.158106 0.785496 0.845512
vt -0.690585 2.601545
vn 0.464554 0.427857 0.775324
v 2.129091 0.802728 0.854235
vt -0.732387 2.578391
vn 0.417056 0.418259 0.806922
v 2.050749 0.860525 0.865622
vt -0.837847 2.497707
vn 0.301934 0.377767 0.875287
v 1.937049 0.870754 0.897257
vt -0.997078 2.480628
vn 0.280445 0.324543 0.903340
v 2.031205 0.878201 0.867766
vt -0.863593 2.473000
vn 0.280445 0.324543 0.903340
v 1.937049 0.870754 0.897257
vt -0.997078 2.480628
vn 0.130363 0.208448 0.969306
v 1.939742 0.865635 0.897585
vt -0.994012 2.487822
vn 0.130363 0.208448 0.969306
v 2.031205 0.878201 0.867766
vt -0.863593 2.473000
vn 0.109891 0.000893 0.993943
usemtl Illumination
f 3/3/3 2/2/2 1/1/1
f 4/4/4 2/2/2 3/3/3
f 2/2/2 5/5/5 1/1/1
f 6/6/6 5/5/5 2/2/2
f 9/9/9 8/8/8 7/7/7
f 10/10/10 8/8/8 9/9/9
f 8/8/8 12/12/12 11/11/11
f 10/10/10 12/12/12 8/8/8
f 15/15/15 14/14/14 13/13/13
f 16/16/16 14/14/14 15/15/15
f 13/13/13 18/18/18 17/17/17
f 14/14/14 18/18/18 13/13/13
f 21/21/21 20/20/20 19/19/19
f 22/22/22 20/20/20 21/21/21
f 22/22/22 23/23/23 20/20/20
f 24/24/24 23/23/23 22/22/22
f 27/27/27 26/26/26 25/25/25
f 28/28/28 26/26/26 27/27/27
f 30/30/30 28/28/28 29/29/29
f 26/26/26 28/28/28 30/30/30
f 29/29/29 31/31/31 30/30/30
f 32/32/32 31/31/31 29/29/29
f 32/32/32 33/33/33 31/31/31
f 34/34/34 33/33/33 32/32/32
f 34/34/34 35/35/35 33/33/33
f 36/36/36 35/35/35 34/34/34
f 38/38/38 25/25/25 37/37/37
f 27/27/27 25/25/25 38/38/38
f 2/2/2 40/40/40 39/39/39
f 4/4/4 40/40/40 2/2/2
f 6/6/6 39/39/39 41/41/41
f 2/2/2 39/39/39 6/6/6
f 24/24/24 37/37/37 23/23/23
f 38/38/38 37/37/37 24/24/24
f 18/18/18 19/19/19 17/17/17
f 21/21/21 19/19/19 18/18/18
f 42/42/42 16/16/16 15/15/15
f 43/43/43 16/16/16 42/42/42
f 12/12/12 42/42/42 11/11/11
f 43/43/43 42/42/42 12/12/12
f 46/46/46 45/45/45 44/44/44
f 47/47/47 45/45/45 46/46/46
f 47/47/47 48/48/48 45/45/45
f 49/49/49 48/48/48 47/47/47
f 51/51/51 47/47/47 50/50/50
f 49/49/49 47/47/47 51/51/51
f 53/53/53 50/50/50 52/52/52
f 51/51/51 50/50/50 53/53/53
f 56/56/56 55/55/55 54/54/54
f 57/57/57 55/55/55 56/56/56
f 59/59/59 54/54/54 58/58/58
f 56/56/56 54/54/54 59/59/59
f 62/62/62 61/61/61 60/60/60
f 63/63/63 61/61/61 62/62/62
f 65/65/65 50/50/50 64/64/64
f 52/52/52 50/50/50 65/65/65
f 66/66/66 52/52/52 65/65/65
f 55/55/55 52/52/52 66/66/66
f 67/67/67 55/55/55 66/66/66
f 54/54/54 55/55/55 67/67/67
f 67/67/67 58/58/58 54/54/54
f 68/68/68 58/58/58 67/67/67
f 71/71/71 70/70/70 69/69/69
f 72/72/72 70/70/70 71/71/71
f 75/75/75 74/74/74 73/73/73
f 76/76/76 74/74/74 75/75/75
f 77/77/77 73/73/73 74/74/74
f 78/78/78 73/73/73 77/77/77
f 80/80/80 77/77/77 79/79/79
f 78/78/78 77/77/77 80/80/80
f 82/82/82 79/79/79 81/81/81
f 80/80/80 79/79/79 82/82/82
f 62/62/62 81/81/81 83/83/83
f 82/82/82 81/81/81 62/62/62
f 84/84/84 62/62/62 83/83/83
f 63/63/63 62/62/62 84/84/84
f 86/86/86 84/84/84 85/85/85
f 63/63/63 84/84/84 86/86/86
f 64/64/64 47/47/47 46/46/46
f 50/50/50 47/47/47 64/64/64
f 57/57/57 52/52/52 55/55/55
f 53/53/53 52/52/52 57/57/57
f 87/87/87 58/58/58 70/70/70
f 59/59/59 58/58/58 87/87/87
f 58/58/58 69/69/69 70/70/70
f 68/68/68 69/69/69 58/58/58
f 88/88/88 70/70/70 72/72/72
f 87/87/87 70/70/70 88/88/88
f 73/73/73 89/89/89 75/75/75
f 90/90/90 89/89/89 73/73/73
f 73/73/73 91/91/91 90/90/90
f 78/78/78 91/91/91 73/73/73
f 91/91/91 80/80/80 92/92/92
f 78/78/78 80/80/80 91/91/91
f 93/93/93 80/80/80 82/82/82
f 92/92/92 80/80/80 93/93/93
f 93/93/93 62/62/62 60/60/60
f 82/82/82 62/62/62 93/93/93
f 61/61/61 86/86/86 94/94/94
f 63/63/63 86/86/86 61/61/61
f 89/89/89 72/72/72 75/75/75
f 88/88/88 72/72/72 89/89/89
f 72/72/72 76/76/76 75/75/75
f 71/71/71 76/76/76 72/72/72
f 94/94/94 96/96/96 95/95/95
f 86/86/86 96/96/96 94/94/94
f 97/97/97 86/86/86 85/85/85
f 98/98/98 86/86/86 97/97/97
f 7/7/7 99/99/99 9/9/9
f 102/102/102 101/101/101 100/100/100
f 103/103/103 101/101/101 102/102/102
f 101/101/101 105/105/105 104/104/104
f 103/103/103 105/105/105 101/101/101
f 108/108/108 107/107/107 106/106/106
f 109/109/109 107/107/107 108/108/108
f 107/107/107 110/110/110 106/106/106
f 111/111/111 110/110/110 107/107/107
f 114/114/114 113/113/113 112/112/112
f 115/115/115 113/113/113 114/114/114
f 115/115/115 116/116/116 113/113/113
f 117/117/117 116/116/116 115/115/115
f 120/120/120 119/119/119 118/118/118
f 121/121/121 119/119/119 120/120/120
f 118/118/118 123/123/123 122/122/122
f 119/119/119 123/123/123 118/118/118
f 126/126/126 125/125/125 124/124/124
f 127/127/127 125/125/125 126/126/126
f 128/128/128 124/124/124 125/125/125
f 129/129/129 124/124/124 128/128/128
f 129/129/129 131/131/131 130/130/130
f 128/128/128 131/131/131 129/129/129
f 130/130/130 133/133/133 132/132/132
f 131/131/131 133/133/133 130/130/130
f 132/132/132 135/135/135 134/134/134
f 133/133/133 135/135/135 132/132/132
f 136/136/136 127/127/127 126/126/126
f 137/137/137 127/127/127 136/136/136
f 101/101/101 138/138/138 100/100/100
f 139/139/139 138/138/138 101/101/101
f 140/140/140 139/139/139 101/101/101
f 141/141/141 139/139/139 140/140/140
f 122/122/122 137/137/137 136/136/136
f 123/123/123 137/137/137 122/122/122
f 116/116/116 121/121/121 120/120/120
f 117/117/117 121/121/121 116/116/116
f 143/143/143 112/112/112 142/142/142
f 114/114/114 112/112/112 143/143/143
f 110/110/110 143/143/143 142/142/142
f 111/111/111 143/143/143 110/110/110
f 146/146/146 145/145/145 144/144/144
f 147/147/147 145/145/145 146/146/146
f 144/144/144 149/149/149 148/148/148
f 145/145/145 149/149/149 144/144/144
f 150/150/150 144/144/144 148/148/148
f 151/151/151 144/144/144 150/150/150
f 152/152/152 151/151/151 150/150/150
f 153/153/153 151/151/151 152/152/152
f 156/156/156 155/155/155 154/154/154
f 157/157/157 155/155/155 156/156/156
f 158/158/158 157/157/157 156/156/156
f 159/159/159 157/157/157 158/158/158
f 162/162/162 161/161/161 160/160/160
f 163/163/163 161/161/161 162/162/162
f 164/164/164 151/151/151 153/153/153
f 165/165/165 151/151/151 164/164/164
f 166/166/166 153/153/153 155/155/155
f 164/164/164 153/153/153 166/166/166
f 167/167/167 155/155/155 157/157/157
f 166/166/166 155/155/155 167/167/167
f 167/167/167 159/159/159 168/168/168
f 157/157/157 159/159/159 167/167/167
f 171/171/171 170/170/170 169/169/169
f 172/172/172 170/170/170 171/171/171
f 175/175/175 174/174/174 173/173/173
f 176/176/176 174/174/174 175/175/175
f 178/178/178 176/176/176 177/177/177
f 174/174/174 176/176/176 178/178/178
f 179/179/179 178/178/178 177/177/177
f 180/180/180 178/178/178 179/179/179
f 181/181/181 180/180/180 179/179/179
f 182/182/182 180/180/180 181/181/181
f 162/162/162 182/182/182 181/181/181
f 183/183/183 182/182/182 162/162/162
f 184/184/184 162/162/162 160/160/160
f 183/183/183 162/162/162 184/184/184
f 185/185/185 184/184/184 160/160/160
f 186/186/186 184/184/184 185/185/185
f 165/165/165 144/144/144 151/151/151
f 146/146/146 144/144/144 165/165/165
f 154/154/154 153/153/153 152/152/152
f 155/155/155 153/153/153 154/154/154
f 187/187/187 159/159/159 158/158/158
f 170/170/170 159/159/159 187/187/187
f 159/159/159 172/172/172 168/168/168
f 170/170/170 172/172/172 159/159/159
f 188/188/188 170/170/170 187/187/187
f 169/169/169 170/170/170 188/188/188
f 176/176/176 190/190/190 189/189/189
f 175/175/175 190/190/190 176/176/176
f 176/176/176 191/191/191 177/177/177
f 189/189/189 191/191/191 176/176/176
f 191/191/191 179/179/179 177/177/177
f 192/192/192 179/179/179 191/191/191
f 193/193/193 179/179/179 192/192/192
f 181/181/181 179/179/179 193/193/193
f 193/193/193 162/162/162 181/181/181
f 163/163/163 162/162/162 193/193/193
f 161/161/161 185/185/185 160/160/160
f 194/194/194 185/185/185 161/161/161
f 190/190/190 169/169/169 188/188/188
f 175/175/175 169/169/169 190/190/190
f 169/169/169 173/173/173 171/171/171
f 175/175/175 173/173/173 169/169/169
f 194/194/194 195/195/195 185/185/185
f 196/196/196 195/195/195 194/194/194
f 198/198/198 185/185/185 197/197/197
f 186/186/186 185/185/185 198/198/198
f 108/108/108 199/199/199 109/109/109
