# Exported from Godot Engine
mtllib Floor.mtl
o Floor
v -3.122357 -0.007662 -1.402987
vt -1.000000 0.833333
vn 0.000000 1.000000 -0.000015
v -3.122357 -0.007662 -2.104481
vt -1.000000 1.000000
vn 0.000000 1.000000 -0.000015
v 3.458321 -0.007662 -1.402987
vt 0.000000 0.833333
vn 0.000000 1.000000 -0.000015
v 3.458321 -0.007662 -2.104481
vt 0.000000 1.000000
vn 0.000000 1.000000 -0.000015
v -3.122357 -0.007662 0.000000
vt -1.000000 0.500000
vn 0.000000 1.000000 -0.000015
v 3.458321 -0.007662 0.000000
vt 0.000000 0.500000
vn 0.000000 1.000000 -0.000015
v -3.122357 -0.007662 1.402987
vt -1.000000 0.166667
vn 0.000000 1.000000 -0.000015
v 3.458321 -0.007662 1.402987
vt 0.000000 0.166667
vn 0.000000 1.000000 -0.000015
v -3.122357 -0.007662 2.104481
vt -1.000000 0.000000
vn 0.000000 1.000000 -0.000015
v 3.458321 -0.007662 2.104481
vt 0.000000 0.000000
vn 0.000000 1.000000 -0.000015
usemtl Ground_Plane
f 3/3/3 2/2/2 1/1/1
f 4/4/4 2/2/2 3/3/3
f 6/6/6 1/1/1 5/5/5
f 3/3/3 1/1/1 6/6/6
f 8/8/8 5/5/5 7/7/7
f 6/6/6 5/5/5 8/8/8
f 10/10/10 7/7/7 9/9/9
f 8/8/8 7/7/7 10/10/10
