# Exported from Godot Engine
mtllib Fog_Lights.mtl
o Fog_Lights
v 2.266544 0.440555 -0.812105
vt -0.101854 2.744345
vn 0.667590 -0.729040 -0.151075
v 2.267948 0.450091 -0.812422
vt -0.101874 2.758901
vn 0.975322 0.000000 -0.220788
v 2.258386 0.440570 -0.826086
vt -0.080373 2.743573
vn 0.386065 -0.750637 -0.536188
v 2.258412 0.450090 -0.828191
vt -0.079017 2.758372
vn 0.539488 -0.000126 -0.841993
v 2.266132 0.450090 -0.794084
vt -0.124732 2.758292
vn 0.849481 -0.000105 0.527619
v 2.265202 0.459611 -0.795968
vt -0.123381 2.772775
vn 0.579246 0.750664 0.317770
v 2.266544 0.459626 -0.812105
vt -0.101895 2.770693
vn 0.667621 0.729023 -0.151024
v 2.258384 0.459611 -0.826090
vt -0.080416 2.772850
vn 0.386003 0.750717 -0.536121
v 2.265203 0.440570 -0.795973
vt -0.123328 2.743498
vn 0.579289 -0.750654 0.317715
v 2.255717 0.459568 -0.793885
vt -0.124292 2.783800
vn 0.098263 0.907834 0.407655
v 2.252322 0.459827 -0.808885
vt -0.101928 2.789588
vn 0.006304 0.999979 -0.001368
v 2.255716 0.440613 -0.793889
vt -0.124191 2.732196
vn 0.098167 -0.907880 0.407574
v 2.252322 0.440354 -0.808885
vt -0.101821 2.725955
vn 0.006273 -0.999979 -0.001399
v 2.248926 0.459568 -0.823885
vt -0.079552 2.783878
vn -0.086910 0.907857 -0.410174
v 2.248927 0.440613 -0.823881
vt -0.079463 2.732275
vn -0.086866 -0.907844 -0.410211
v 2.256204 0.450090 -0.791734
vt -0.138162 2.758386
vn 0.222195 -0.000201 0.975002
v 2.255717 0.459568 -0.793885
vt -0.136990 2.771101
vn 0.098263 0.907834 0.407655
v 2.248440 0.450090 -0.826037
vt -0.065587 2.758512
vn -0.219402 -0.000182 -0.975635
v 2.248926 0.459568 -0.823885
vt -0.066807 2.771225
vn -0.086910 0.907857 -0.410174
v 2.248927 0.440613 -0.823881
vt -0.066762 2.745927
vn -0.086866 -0.907844 -0.410211
v 2.255716 0.440613 -0.793889
vt -0.136939 2.745805
vn 0.098167 -0.907880 0.407574
v 2.261381 0.440341 -0.828712
vt -0.013484 2.385457
vn 0.127696 0.959184 0.252307
v 2.276558 0.439461 -0.781794
vt -0.006495 2.319185
vn 0.324514 0.685896 -0.651335
v 2.246188 0.442255 -0.827476
vt -0.034073 2.388091
vn 0.132871 0.920866 0.366539
v 2.253789 0.441633 -0.791325
vt -0.034073 2.338168
vn 0.246943 0.884231 -0.396428
v 2.275205 0.460034 -0.784325
vt -0.083357 2.323998
vn 0.093190 -0.995512 -0.016476
v 2.260779 0.459621 -0.828679
vt -0.075037 2.386468
vn 0.113973 -0.952053 0.283912
v 2.253844 0.458359 -0.791615
vt -0.056664 2.338917
vn 0.093190 -0.995512 -0.016476
v 2.246316 0.458043 -0.827458
vt -0.055404 2.388390
vn 0.118966 -0.913580 0.388869
v 2.261381 0.440341 -0.828712
vt -0.031361 2.408671
vn 0.127696 0.959184 0.252307
v 2.260779 0.459621 -0.828679
vt -0.057418 2.408015
vn 0.113973 -0.952053 0.283912
v 2.275205 0.460034 -0.784325
vt -0.059861 2.308505
vn 0.354975 -0.058218 -0.933061
v 2.253844 0.458359 -0.791615
vt -0.056664 2.338917
vn 0.354975 -0.058218 -0.933061
v 2.276558 0.439461 -0.781794
vt -0.032046 2.304749
vn 0.324514 0.685896 -0.651335
v 2.253844 0.458359 -0.791615
vt -0.056664 2.338917
vn 0.978591 -0.007236 -0.205685
v 2.246316 0.458043 -0.827458
vt -0.055404 2.388390
vn 0.978591 -0.007236 -0.205685
v 2.253789 0.441633 -0.791325
vt -0.034073 2.338168
vn 0.978591 -0.007236 -0.205685
v 2.246188 0.442255 -0.827476
vt -0.034073 2.388091
vn 0.978591 -0.007236 -0.205685
v 2.273128 0.404145 -0.794816
vt -0.341004 2.834882
vn 0.734411 0.614399 -0.288364
v 2.262591 0.422470 -0.781385
vt -0.310892 2.842404
vn 0.742089 0.609584 -0.278769
v 2.266713 0.408034 -0.803288
vt -0.335480 2.819224
vn 0.767388 0.592187 -0.245826
v 2.259588 0.423036 -0.791575
vt -0.309084 2.829002
vn 0.767388 0.592187 -0.245826
v 2.278952 0.402659 -0.786899
vt -0.342902 2.849369
vn 0.664843 0.651033 -0.366251
v 2.286069 0.400903 -0.777092
vt -0.343531 2.867159
vn 0.665039 0.651025 -0.365910
v 2.275379 0.460472 -0.784422
vt -0.259942 2.859503
vn 0.877178 0.404887 -0.258119
v 2.268086 0.474726 -0.786848
vt -0.239600 2.851665
vn 0.757311 0.556312 -0.342048
v 2.272132 0.460745 -0.795027
vt -0.260653 2.844552
vn 0.759514 0.554021 -0.340880
v 2.251225 0.477380 -0.812496
vt -0.232609 2.810861
vn 0.719102 0.605014 -0.341833
v 2.266076 0.460781 -0.813864
vt -0.261828 2.819866
vn 0.734094 0.589181 -0.337598
v 2.262591 0.422470 -0.781385
vt -0.310892 2.842404
vn 0.729467 -0.643025 -0.233232
v 2.276682 0.438913 -0.781881
vt -0.289348 2.857493
vn 0.729467 -0.643025 -0.233232
v 2.259588 0.423036 -0.791575
vt -0.309084 2.829002
vn 0.729467 -0.643025 -0.233232
v 2.272593 0.438839 -0.795228
vt -0.281791 2.839335
vn 0.729467 -0.643025 -0.233232
v 2.295556 0.412718 -0.777288
vt -0.328761 2.882915
vn 0.089378 -0.109219 -0.989991
v 2.294441 0.440150 -0.780461
vt -0.290145 2.882595
vn 0.089269 -0.109328 -0.989989
v 2.262591 0.422470 -0.781385
vt -0.310892 2.842404
vn 0.089378 -0.109219 -0.989991
v 2.276682 0.438913 -0.781881
vt -0.289348 2.857493
vn 0.089299 -0.109212 -0.989999
v 2.290706 0.494945 -0.786804
vt -0.214904 2.884482
vn 0.092801 -0.110640 -0.989518
v 2.275379 0.460472 -0.784422
vt -0.259942 2.859503
vn 0.090792 -0.109902 -0.989787
v 2.286069 0.400903 -0.777092
vt -0.343531 2.867159
vn 0.095599 -0.093223 -0.991045
v 2.295556 0.412718 -0.777288
vt -0.328761 2.882915
vn 0.095599 -0.093223 -0.991045
v 2.262591 0.422470 -0.781385
vt -0.310892 2.842404
vn 0.095599 -0.093223 -0.991045
v 2.268086 0.474726 -0.786848
vt -0.239600 2.851665
vn 0.104391 -0.114705 -0.987899
v 2.260779 0.459622 -0.828679
vt -0.262809 2.799233
vn 0.655307 0.476015 -0.586500
v 2.244929 0.469482 -0.840028
vt -0.244239 2.771793
vn 0.806127 0.398804 -0.437166
v 2.310758 0.418308 -0.768413
vt -0.849603 2.962337
vn 0.681026 0.672500 -0.289737
v 2.305485 0.420226 -0.765674
vt -0.847985 2.969504
vn 0.320131 0.946514 -0.040346
v 2.308671 0.418581 -0.771427
vt -0.845290 2.961996
vn 0.635941 0.646030 -0.422166
v 2.302572 0.420854 -0.769437
vt -0.842337 2.969440
vn 0.304516 0.942796 -0.135671
v 2.302016 0.419491 -0.779487
vt -0.832946 2.962050
vn 0.630236 0.641450 -0.437430
v 2.296064 0.421689 -0.777674
vt -0.829948 2.969213
vn 0.262824 0.958430 -0.111062
v 2.288911 0.421270 -0.795898
vt -0.808154 2.961766
vn 0.609531 0.678000 -0.410838
v 2.283350 0.423232 -0.793689
vt -0.805816 2.968799
vn 0.216401 0.974418 -0.060670
v 2.277514 0.423290 -0.809951
vt -0.786757 2.961766
vn 0.599589 0.708698 -0.371807
v 2.272485 0.424906 -0.807227
vt -0.785280 2.968604
vn 0.216720 0.975929 -0.024383
v 2.271264 0.425072 -0.817594
vt -0.774996 2.961906
vn 0.555690 0.797884 -0.233645
v 2.266120 0.426382 -0.815165
vt -0.773151 2.968525
vn 0.226173 0.971192 0.075042
v 2.263120 0.426699 -0.813361
vt -0.772529 2.972616
vn 0.107897 0.985358 0.132016
v 2.268866 0.425353 -0.805697
vt -0.783928 2.973059
vn 0.065381 0.993988 0.087823
v 2.266309 0.427552 -0.823828
vt -0.765236 2.961966
vn 0.674188 0.706480 -0.215305
v 2.261759 0.428202 -0.821036
vt -0.764256 2.968221
vn 0.242203 0.946682 0.212439
v 2.263383 0.430117 -0.827013
vt -0.759373 2.962347
vn 0.776204 0.626800 -0.068036
v 2.259507 0.429866 -0.824166
vt -0.759296 2.968006
vn 0.276072 0.834078 0.477596
v 2.261043 0.433898 -0.829696
vt -0.753278 2.962267
vn 0.882788 0.468917 -0.028323
v 2.257597 0.432755 -0.827258
vt -0.753860 2.967377
vn 0.315786 0.697571 0.643175
v 2.259109 0.438741 -0.831879
vt -0.746636 2.961882
vn 0.893939 0.170034 -0.414682
v 2.256420 0.429973 -0.822962
vt -0.758198 2.971745
vn 0.194757 0.883876 0.425244
v 2.257982 0.429794 -0.823300
vt -0.759039 2.970055
vn 0.206169 0.874194 0.439636
v 2.259353 0.428469 -0.820289
vt -0.763138 2.970989
vn 0.139900 0.966806 0.213809
v 2.255836 0.428664 -0.819221
vt -0.761546 2.975014
vn 0.117689 0.970609 0.209922
v 2.279816 0.423673 -0.791302
vt -0.805307 2.973819
vn 0.058894 0.995985 0.067422
v 2.287700 0.422560 -0.778533
vt -0.822858 2.976185
vn 0.074983 0.996497 0.037026
v 2.263345 0.423191 -0.780932
vt -0.802529 2.996559
vn 0.037098 0.995085 0.091810
v 2.258781 0.425586 -0.801864
vt -0.779929 2.985100
vn 0.047869 0.993707 0.101266
v 2.257037 0.426839 -0.810552
vt -0.770611 2.980275
vn 0.084095 0.986255 0.142231
v 2.281357 0.470682 -0.806089
vt -0.194293 2.977288
vn 0.641478 -0.458042 -0.615389
v 2.277822 0.469256 -0.805191
vt -0.196241 2.981464
vn 0.209874 -0.937103 -0.278911
v 2.309837 0.467603 -0.773228
vt -0.143018 2.979090
vn 0.655878 -0.447802 -0.607698
v 2.306711 0.466271 -0.772212
vt -0.144546 2.982974
vn 0.232597 -0.935639 -0.265478
v 2.303677 0.465520 -0.771169
vt -0.146018 2.986562
vn 0.158979 -0.965529 -0.206104
v 2.274048 0.468201 -0.803171
vt -0.197444 2.986512
vn 0.146659 -0.963263 -0.224979
v 2.254184 0.473510 -0.835136
vt -0.241224 2.977288
vn 0.639910 -0.425046 -0.640196
v 2.251623 0.472043 -0.833483
vt -0.241738 2.981237
vn 0.193573 -0.942594 -0.272115
v 2.246944 0.471015 -0.831879
vt -0.244029 2.986723
vn 0.141578 -0.964304 -0.223769
v 2.258412 0.450090 0.828191
vt -0.079017 2.758372
vn 0.539454 -0.000105 0.842015
v 2.267948 0.450090 0.812422
vt -0.101874 2.758901
vn 0.975321 -0.000018 0.220792
v 2.258386 0.440570 0.826087
vt -0.080373 2.743573
vn 0.385982 -0.750650 0.536230
v 2.266544 0.440555 0.812105
vt -0.101854 2.744345
vn 0.667584 -0.729036 0.151126
v 2.266544 0.459626 0.812105
vt -0.101895 2.770693
vn 0.667602 0.729008 0.151177
v 2.265202 0.459611 0.795968
vt -0.123381 2.772775
vn 0.579291 0.750700 -0.317602
v 2.266132 0.450090 0.794084
vt -0.124732 2.758292
vn 0.849506 -0.000126 -0.527579
v 2.258384 0.459611 0.826090
vt -0.080416 2.772850
vn 0.385987 0.750607 0.536287
v 2.265203 0.440570 0.795973
vt -0.123328 2.743498
vn 0.579316 -0.750632 -0.317716
v 2.252322 0.459826 0.808886
vt -0.101928 2.789588
vn 0.006289 0.999979 0.001430
v 2.255717 0.459568 0.793885
vt -0.124292 2.783800
vn 0.098235 0.907887 -0.407544
v 2.252322 0.440354 0.808885
vt -0.101821 2.725955
vn 0.006289 -0.999979 0.001399
v 2.255716 0.440613 0.793889
vt -0.124191 2.732196
vn 0.098282 -0.907875 -0.407558
v 2.248926 0.459568 0.823886
vt -0.079552 2.783878
vn -0.086933 0.907852 0.410181
v 2.248927 0.440613 0.823882
vt -0.079463 2.732275
vn -0.086931 -0.907875 0.410129
v 2.255717 0.459568 0.793885
vt -0.136990 2.771101
vn 0.098235 0.907887 -0.407544
v 2.256204 0.450090 0.791734
vt -0.138162 2.758386
vn 0.222178 -0.000219 -0.975006
v 2.248926 0.459568 0.823886
vt -0.066807 2.771225
vn -0.086933 0.907852 0.410181
v 2.248440 0.450090 0.826037
vt -0.065587 2.758512
vn -0.219427 -0.000201 0.975629
v 2.248927 0.440613 0.823882
vt -0.066762 2.745927
vn -0.086931 -0.907875 0.410129
v 2.255716 0.440613 0.793889
vt -0.136939 2.745805
vn 0.098282 -0.907875 -0.407558
v 2.253789 0.441632 0.791325
vt -0.034073 2.338168
vn 0.246879 0.884182 0.396577
v 2.276558 0.439460 0.781794
vt -0.006495 2.319185
vn 0.324486 0.685866 0.651381
v 2.246188 0.442255 0.827477
vt -0.034073 2.388091
vn 0.132937 0.920891 -0.366453
v 2.261381 0.440340 0.828712
vt -0.013484 2.385457
vn 0.127715 0.959193 -0.252263
v 2.246316 0.458042 0.827459
vt -0.055404 2.388390
vn 0.118990 -0.913574 -0.388876
v 2.260779 0.459621 0.828679
vt -0.075037 2.386468
vn 0.113995 -0.952048 -0.283917
v 2.253844 0.458358 0.791615
vt -0.056664 2.338917
vn 0.093175 -0.995513 0.016510
v 2.275205 0.460034 0.784325
vt -0.083357 2.323998
vn 0.093175 -0.995513 0.016510
v 2.260779 0.459621 0.828679
vt -0.057418 2.408015
vn 0.113995 -0.952048 -0.283917
v 2.261381 0.440340 0.828712
vt -0.031361 2.408671
vn 0.127715 0.959193 -0.252263
v 2.253844 0.458358 0.791615
vt -0.056664 2.338917
vn 0.354956 -0.058238 0.933067
v 2.276558 0.439460 0.781794
vt -0.032046 2.304749
vn 0.324486 0.685866 0.651381
v 2.275205 0.460034 0.784325
vt -0.059861 2.308505
vn 0.354956 -0.058238 0.933067
v 2.246188 0.442255 0.827477
vt -0.034073 2.388091
vn 0.978592 -0.007218 0.205682
v 2.246316 0.458042 0.827459
vt -0.055404 2.388390
vn 0.978592 -0.007218 0.205682
v 2.253789 0.441632 0.791325
vt -0.034073 2.338168
vn 0.978592 -0.007218 0.205682
v 2.253844 0.458358 0.791615
vt -0.056664 2.338917
vn 0.978592 -0.007218 0.205682
v 2.259588 0.423036 0.791575
vt -0.309084 2.829002
vn 0.767351 0.592190 0.245935
v 2.262591 0.422470 0.781386
vt -0.310892 2.842404
vn 0.742079 0.609571 0.278824
v 2.266713 0.408034 0.803288
vt -0.335480 2.819224
vn 0.767351 0.592190 0.245935
v 2.273128 0.404144 0.794816
vt -0.341004 2.834882
vn 0.734400 0.614386 0.288419
v 2.278952 0.402659 0.786899
vt -0.342902 2.849369
vn 0.664786 0.651028 0.366365
v 2.286069 0.400903 0.777092
vt -0.343531 2.867159
vn 0.664991 0.650978 0.366080
v 2.272132 0.460745 0.795027
vt -0.260653 2.844552
vn 0.759501 0.554005 0.340936
v 2.268086 0.474726 0.786848
vt -0.239600 2.851665
vn 0.757298 0.556295 0.342104
v 2.275379 0.460472 0.784422
vt -0.259942 2.859503
vn 0.877148 0.404883 0.258225
v 2.266076 0.460781 0.813864
vt -0.261828 2.819866
vn 0.734054 0.589134 0.337767
v 2.251225 0.477380 0.812496
vt -0.232609 2.810861
vn 0.719098 0.604956 0.341945
v 2.272593 0.438838 0.795228
vt -0.281791 2.839335
vn 0.729475 -0.643035 0.233178
v 2.276682 0.438913 0.781881
vt -0.289348 2.857493
vn 0.729475 -0.643035 0.233178
v 2.259588 0.423036 0.791575
vt -0.309084 2.829002
vn 0.729475 -0.643035 0.233178
v 2.262591 0.422470 0.781386
vt -0.310892 2.842404
vn 0.729475 -0.643035 0.233178
v 2.276682 0.438913 0.781881
vt -0.289348 2.857493
vn 0.089396 -0.109201 0.989992
v 2.294441 0.440150 0.780461
vt -0.290145 2.882595
vn 0.089396 -0.109201 0.989992
v 2.262591 0.422470 0.781386
vt -0.310892 2.842404
vn 0.089396 -0.109201 0.989992
v 2.295556 0.412717 0.777288
vt -0.328761 2.882915
vn 0.089396 -0.109201 0.989992
v 2.276682 0.438913 0.781881
vt -0.289348 2.857493
vn 0.089169 -0.109299 0.990001
v 2.275379 0.460472 0.784422
vt -0.259942 2.859503
vn 0.090773 -0.109920 0.989787
v 2.294441 0.440150 0.780461
vt -0.290145 2.882595
vn 0.089169 -0.109299 0.990001
v 2.290706 0.494944 0.786804
vt -0.214904 2.884482
vn 0.092701 -0.110611 0.989531
v 2.262591 0.422470 0.781386
vt -0.310892 2.842404
vn 0.095581 -0.093241 0.991045
v 2.295556 0.412717 0.777288
vt -0.328761 2.882915
vn 0.095581 -0.093241 0.991045
v 2.286069 0.400903 0.777092
vt -0.343531 2.867159
vn 0.095581 -0.093241 0.991045
v 2.268086 0.474726 0.786848
vt -0.239600 2.851665
vn 0.104372 -0.114723 0.987899
v 2.260779 0.459621 0.828679
vt -0.262809 2.799233
vn 0.655226 0.475935 0.586655
v 2.244929 0.469481 0.840028
vt -0.244239 2.771793
vn 0.806074 0.398790 0.437278
v 2.302572 0.420854 0.769438
vt -0.842337 2.969440
vn 0.304501 0.942794 0.135716
v 2.305485 0.420226 0.765674
vt -0.847985 2.969504
vn 0.319998 0.946553 0.040466
v 2.308671 0.418581 0.771428
vt -0.845290 2.961996
vn 0.635877 0.646019 0.422280
v 2.310758 0.418308 0.768413
vt -0.849603 2.962337
vn 0.680953 0.672477 0.289960
v 2.296064 0.421689 0.777674
vt -0.829948 2.969213
vn 0.262770 0.958435 0.111146
v 2.302016 0.419490 0.779487
vt -0.832946 2.962050
vn 0.630170 0.641437 0.437544
v 2.283350 0.423231 0.793690
vt -0.805816 2.968799
vn 0.216394 0.974414 0.060749
v 2.288911 0.421269 0.795898
vt -0.808154 2.961766
vn 0.609467 0.677989 0.410950
v 2.272485 0.424905 0.807227
vt -0.785280 2.968604
vn 0.216706 0.975931 0.024421
v 2.277514 0.423290 0.809952
vt -0.786757 2.961766
vn 0.599483 0.708699 0.371975
v 2.266120 0.426382 0.815166
vt -0.773151 2.968525
vn 0.226226 0.971186 -0.074962
v 2.271264 0.425072 0.817594
vt -0.774996 2.961906
vn 0.555668 0.797836 0.233860
v 2.268866 0.425353 0.805697
vt -0.783928 2.973059
vn 0.065433 0.993991 -0.087751
v 2.263120 0.426699 0.813361
vt -0.772529 2.972616
vn 0.107914 0.985361 -0.131976
v 2.261759 0.428202 0.821036
vt -0.764256 2.968221
vn 0.242213 0.946701 -0.212343
v 2.266309 0.427551 0.823828
vt -0.765236 2.961966
vn 0.674162 0.706456 0.215466
v 2.259507 0.429866 0.824166
vt -0.759296 2.968006
vn 0.276141 0.834142 -0.477445
v 2.263383 0.430116 0.827013
vt -0.759373 2.962347
vn 0.776204 0.626795 0.068082
v 2.257597 0.432755 0.827258
vt -0.753860 2.967377
vn 0.315815 0.697552 -0.643181
v 2.261043 0.433898 0.829696
vt -0.753278 2.962267
vn 0.882797 0.468892 0.028452
v 2.259109 0.438741 0.831879
vt -0.746636 2.961882
vn 0.893911 0.169965 0.414770
v 2.257982 0.429794 0.823300
vt -0.759039 2.970055
vn 0.206239 0.874222 -0.439546
v 2.256420 0.429973 0.822962
vt -0.758198 2.971745
vn 0.194827 0.883904 -0.425154
v 2.259353 0.428468 0.820289
vt -0.763138 2.970989
vn 0.139918 0.966813 -0.213766
v 2.255836 0.428664 0.819221
vt -0.761546 2.975014
vn 0.117707 0.970616 -0.209879
v 2.279816 0.423673 0.791302
vt -0.805307 2.973819
vn 0.058910 0.995986 -0.067387
v 2.287700 0.422560 0.778533
vt -0.822858 2.976185
vn 0.075032 0.996496 -0.036958
v 2.263345 0.423191 0.780933
vt -0.802529 2.996559
vn 0.037114 0.995088 -0.091774
v 2.258781 0.425586 0.801864
vt -0.779929 2.985100
vn 0.047919 0.993716 -0.101157
v 2.257037 0.426839 0.810552
vt -0.770611 2.980275
vn 0.084110 0.986265 -0.142150
v 2.306711 0.466270 0.772212
vt -0.144546 2.982974
vn 0.232578 -0.935630 0.265526
v 2.277822 0.469256 0.805191
vt -0.196241 2.981464
vn 0.209894 -0.937112 0.278864
v 2.309837 0.467603 0.773228
vt -0.143018 2.979090
vn 0.655856 -0.447831 0.607701
v 2.281357 0.470682 0.806089
vt -0.194293 2.977288
vn 0.641450 -0.458014 0.615439
v 2.274048 0.468200 0.803171
vt -0.197444 2.986512
vn 0.146682 -0.963259 0.224983
v 2.303677 0.465520 0.771169
vt -0.146018 2.986562
vn 0.158997 -0.965536 0.206061
v 2.251623 0.472043 0.833483
vt -0.241738 2.981237
vn 0.193592 -0.942603 0.272069
v 2.254184 0.473510 0.835136
vt -0.241224 2.977288
vn 0.639881 -0.425017 0.640245
v 2.246944 0.471014 0.831879
vt -0.244029 2.986723
vn 0.141560 -0.964297 0.223813
usemtl Illumination
f 3/3/3 2/2/2 1/1/1
f 4/4/4 2/2/2 3/3/3
f 2/2/2 6/6/6 5/5/5
f 7/7/7 6/6/6 2/2/2
f 4/4/4 7/7/7 2/2/2
f 8/8/8 7/7/7 4/4/4
f 5/5/5 1/1/1 2/2/2
f 9/9/9 1/1/1 5/5/5
f 6/6/6 11/11/11 10/10/10
f 7/7/7 11/11/11 6/6/6
f 12/12/12 1/1/1 9/9/9
f 13/13/13 1/1/1 12/12/12
f 14/14/14 7/7/7 8/8/8
f 11/11/11 7/7/7 14/14/14
f 3/3/3 13/13/13 15/15/15
f 1/1/1 13/13/13 3/3/3
f 5/5/5 17/17/17 16/16/16
f 6/6/6 17/17/17 5/5/5
f 18/18/18 8/8/8 4/4/4
f 19/19/19 8/8/8 18/18/18
f 4/4/4 20/20/20 18/18/18
f 3/3/3 20/20/20 4/4/4
f 9/9/9 16/16/16 21/21/21
f 5/5/5 16/16/16 9/9/9
f 24/24/24 23/23/23 22/22/22
f 25/25/25 23/23/23 24/24/24
f 28/28/28 27/27/27 26/26/26
f 29/29/29 27/27/27 28/28/28
f 30/30/30 29/29/29 24/24/24
f 31/31/31 29/29/29 30/30/30
f 34/34/34 33/33/33 32/32/32
f 25/25/25 33/33/33 34/34/34
f 37/37/37 36/36/36 35/35/35
f 38/38/38 36/36/36 37/37/37
f 41/41/41 40/40/40 39/39/39
f 42/42/42 40/40/40 41/41/41
f 39/39/39 40/40/40 43/43/43
f 43/43/43 40/40/40 44/44/44
f 47/47/47 46/46/46 45/45/45
f 47/47/47 48/48/48 46/46/46
f 49/49/49 48/48/48 47/47/47
f 52/52/52 51/51/51 50/50/50
f 53/53/53 51/51/51 52/52/52
f 56/56/56 55/55/55 54/54/54
f 57/57/57 55/55/55 56/56/56
f 55/55/55 59/59/59 58/58/58
f 57/57/57 59/59/59 55/55/55
f 62/62/62 61/61/61 60/60/60
f 58/58/58 59/59/59 63/63/63
f 64/64/64 48/48/48 49/49/49
f 64/64/64 65/65/65 48/48/48
f 68/68/68 67/67/67 66/66/66
f 69/69/69 67/67/67 68/68/68
f 71/71/71 68/68/68 70/70/70
f 69/69/69 68/68/68 71/71/71
f 73/73/73 70/70/70 72/72/72
f 71/71/71 70/70/70 73/73/73
f 74/74/74 73/73/73 72/72/72
f 75/75/75 73/73/73 74/74/74
f 76/76/76 75/75/75 74/74/74
f 77/77/77 75/75/75 76/76/76
f 78/78/78 75/75/75 77/77/77
f 79/79/79 75/75/75 78/78/78
f 80/80/80 77/77/77 76/76/76
f 81/81/81 77/77/77 80/80/80
f 82/82/82 81/81/81 80/80/80
f 83/83/83 81/81/81 82/82/82
f 84/84/84 83/83/83 82/82/82
f 85/85/85 83/83/83 84/84/84
f 86/86/86 85/85/85 84/84/84
f 87/87/87 83/83/83 85/85/85
f 88/88/88 83/83/83 87/87/87
f 88/88/88 81/81/81 83/83/83
f 89/89/89 81/81/81 88/88/88
f 88/88/88 90/90/90 89/89/89
f 87/87/87 90/90/90 88/88/88
f 89/89/89 77/77/77 81/81/81
f 78/78/78 77/77/77 89/89/89
f 79/79/79 73/73/73 75/75/75
f 91/91/91 73/73/73 79/79/79
f 91/91/91 71/71/71 73/73/73
f 92/92/92 71/71/71 91/91/91
f 93/93/93 92/92/92 91/91/91
f 91/91/91 94/94/94 93/93/93
f 79/79/79 94/94/94 91/91/91
f 79/79/79 95/95/95 94/94/94
f 78/78/78 95/95/95 79/79/79
f 78/78/78 90/90/90 95/95/95
f 89/89/89 90/90/90 78/78/78
f 98/98/98 97/97/97 96/96/96
f 99/99/99 97/97/97 98/98/98
f 100/100/100 97/97/97 99/99/99
f 101/101/101 97/97/97 100/100/100
f 96/96/96 103/103/103 102/102/102
f 97/97/97 103/103/103 96/96/96
f 97/97/97 104/104/104 103/103/103
f 101/101/101 104/104/104 97/97/97
f 107/107/107 106/106/106 105/105/105
f 108/108/108 106/106/106 107/107/107
f 106/106/106 110/110/110 109/109/109
f 111/111/111 110/110/110 106/106/106
f 105/105/105 109/109/109 112/112/112
f 106/106/106 109/109/109 105/105/105
f 111/111/111 108/108/108 113/113/113
f 106/106/106 108/108/108 111/111/111
f 110/110/110 114/114/114 109/109/109
f 115/115/115 114/114/114 110/110/110
f 117/117/117 108/108/108 116/116/116
f 113/113/113 108/108/108 117/117/117
f 118/118/118 109/109/109 114/114/114
f 112/112/112 109/109/109 118/118/118
f 107/107/107 116/116/116 108/108/108
f 119/119/119 116/116/116 107/107/107
f 111/111/111 120/120/120 110/110/110
f 121/121/121 120/120/120 111/111/111
f 123/123/123 112/112/112 122/122/122
f 105/105/105 112/112/112 123/123/123
f 105/105/105 124/124/124 107/107/107
f 123/123/123 124/124/124 105/105/105
f 113/113/113 121/121/121 111/111/111
f 125/125/125 121/121/121 113/113/113
f 128/128/128 127/127/127 126/126/126
f 129/129/129 127/127/127 128/128/128
f 132/132/132 131/131/131 130/130/130
f 133/133/133 131/131/131 132/132/132
f 135/135/135 130/130/130 134/134/134
f 128/128/128 130/130/130 135/135/135
f 137/137/137 136/136/136 126/126/126
f 138/138/138 136/136/136 137/137/137
f 141/141/141 140/140/140 139/139/139
f 142/142/142 140/140/140 141/141/141
f 145/145/145 144/144/144 143/143/143
f 146/146/146 144/144/144 145/145/145
f 147/147/147 144/144/144 146/146/146
f 148/148/148 144/144/144 147/147/147
f 151/151/151 150/150/150 149/149/149
f 149/149/149 153/153/153 152/152/152
f 150/150/150 153/153/153 149/149/149
f 156/156/156 155/155/155 154/154/154
f 157/157/157 155/155/155 156/156/156
f 160/160/160 159/159/159 158/158/158
f 161/161/161 159/159/159 160/160/160
f 164/164/164 163/163/163 162/162/162
f 165/165/165 163/163/163 164/164/164
f 168/168/168 167/167/167 166/166/166
f 169/169/169 163/163/163 165/165/165
f 152/152/152 153/153/153 170/170/170
f 153/153/153 171/171/171 170/170/170
f 174/174/174 173/173/173 172/172/172
f 175/175/175 173/173/173 174/174/174
f 176/176/176 174/174/174 172/172/172
f 177/177/177 174/174/174 176/176/176
f 178/178/178 177/177/177 176/176/176
f 179/179/179 177/177/177 178/178/178
f 181/181/181 178/178/178 180/180/180
f 179/179/179 178/178/178 181/181/181
f 183/183/183 180/180/180 182/182/182
f 181/181/181 180/180/180 183/183/183
f 185/185/185 180/180/180 184/184/184
f 182/182/182 180/180/180 185/185/185
f 187/187/187 182/182/182 186/186/186
f 183/183/183 182/182/182 187/187/187
f 189/189/189 186/186/186 188/188/188
f 187/187/187 186/186/186 189/189/189
f 191/191/191 188/188/188 190/190/190
f 189/189/189 188/188/188 191/191/191
f 191/191/191 190/190/190 192/192/192
f 194/194/194 188/188/188 193/193/193
f 190/190/190 188/188/188 194/194/194
f 193/193/193 186/186/186 195/195/195
f 188/188/188 186/186/186 193/193/193
f 193/193/193 196/196/196 194/194/194
f 195/195/195 196/196/196 193/193/193
f 195/195/195 182/182/182 185/185/185
f 186/186/186 182/182/182 195/195/195
f 184/184/184 178/178/178 197/197/197
f 180/180/180 178/178/178 184/184/184
f 197/197/197 176/176/176 198/198/198
f 178/178/178 176/176/176 197/197/197
f 197/197/197 198/198/198 199/199/199
f 197/197/197 200/200/200 184/184/184
f 199/199/199 200/200/200 197/197/197
f 184/184/184 201/201/201 185/185/185
f 200/200/200 201/201/201 184/184/184
f 185/185/185 196/196/196 195/195/195
f 201/201/201 196/196/196 185/185/185
f 204/204/204 203/203/203 202/202/202
f 205/205/205 203/203/203 204/204/204
f 207/207/207 203/203/203 206/206/206
f 202/202/202 203/203/203 207/207/207
f 205/205/205 208/208/208 203/203/203
f 209/209/209 208/208/208 205/205/205
f 203/203/203 210/210/210 206/206/206
f 208/208/208 210/210/210 203/203/203
