# Exported from Godot Engine
mtllib Headlights_Trunk.mtl
o Headlights_Trunk
v -2.342721 1.053185 -0.468989
vt -0.523549 2.874589
vn -0.829020 -0.542389 -0.136161
v -2.338074 1.050466 -0.486424
vt -0.498711 2.874347
vn -0.829020 -0.542389 -0.136161
v -2.343048 1.054445 -0.471947
vt -0.520070 2.872052
vn -0.829020 -0.542389 -0.136161
v -2.342916 1.054618 -0.473513
vt -0.518090 2.871398
vn -0.829020 -0.542389 -0.136161
v -2.339741 1.052754 -0.485392
vt -0.501514 2.871097
vn -0.829020 -0.542389 -0.136161
v -2.343048 1.054445 -0.471947
vt -0.520070 2.872052
vn -0.951116 0.281378 0.127296
v -2.340839 1.063976 -0.477626
vt -0.514544 2.858102
vn -0.966183 0.255490 0.034877
v -2.342721 1.053185 -0.468989
vt -0.523549 2.874589
vn -0.938204 0.300684 0.171355
v -2.340615 1.063687 -0.474844
vt -0.518099 2.859013
vn -0.942914 0.298992 0.146689
v -2.338804 1.071687 -0.482556
vt -0.509639 2.846636
vn -0.964125 0.265284 -0.009395
v -2.338464 1.072463 -0.480458
vt -0.512501 2.845967
vn -0.950079 0.304378 0.068580
v -2.337621 1.075311 -0.485488
vt -0.506615 2.841022
vn -0.955413 0.291058 -0.049703
v -2.337241 1.076167 -0.483570
vt -0.509237 2.840199
vn -0.940555 0.339197 0.017398
v -2.336373 1.078490 -0.488837
vt -0.502958 2.835811
vn -0.944981 0.313564 -0.093211
v -2.336080 1.079506 -0.486726
vt -0.505870 2.834873
vn -0.933480 0.357262 -0.031288
v -2.334959 1.081139 -0.492664
vt -0.498650 2.831056
vn -0.926071 0.350254 -0.140409
v -2.334653 1.082425 -0.490409
vt -0.501769 2.829834
vn -0.915546 0.391700 -0.091362
v -2.333424 1.083138 -0.496860
vt -0.493651 2.826860
vn -0.899035 0.398985 -0.180407
v -2.333035 1.084666 -0.494703
vt -0.496789 2.825306
vn -0.887402 0.437894 -0.144104
v -2.331388 1.084785 -0.502758
vt -0.486315 2.822351
vn -0.877276 0.432453 -0.208259
v -2.330859 1.086573 -0.500550
vt -0.489646 2.820412
vn -0.858996 0.479264 -0.180089
v -2.329443 1.085847 -0.508413
vt -0.479070 2.818536
vn -0.852685 0.470966 -0.226095
v -2.328704 1.087839 -0.506349
vt -0.482295 2.816214
vn -0.830229 0.518485 -0.204677
v -2.327320 1.086598 -0.514669
vt -0.470925 2.814767
vn -0.822732 0.518609 -0.232716
v -2.326402 1.088743 -0.512644
vt -0.474180 2.812139
vn -0.798226 0.561771 -0.217367
v -2.313787 1.089702 -0.552774
vt -0.420276 2.793146
vn -0.651360 0.730886 -0.203801
v -2.303387 1.091355 -0.580029
vt -0.383731 2.778331
vn -0.550502 0.814775 -0.181903
v -2.311770 1.091924 -0.550091
vt -0.424260 2.789423
vn -0.620029 0.761694 -0.188112
v -2.300386 1.093555 -0.576929
vt -0.388101 2.773463
vn -0.499613 0.851668 -0.158268
v -2.323659 1.087655 -0.525341
vt -0.456855 2.808489
vn -0.737725 0.637551 -0.222015
v -2.322549 1.089852 -0.523031
vt -0.460489 2.805678
vn -0.719510 0.662060 -0.209719
v -2.292439 1.092557 -0.607086
vt -0.346915 2.764100
vn -0.476522 0.861993 -0.172901
v -2.288484 1.095053 -0.603564
vt -0.351705 2.757767
vn -0.422721 0.894272 -0.146916
v -2.337380 1.061285 -0.490987
vt -0.495463 2.858096
vn -0.956229 0.077674 -0.282122
v -2.340701 1.063806 -0.479065
vt -0.512655 2.857971
vn -0.962209 0.087386 -0.257910
v -2.339741 1.052754 -0.485392
vt -0.501514 2.871097
vn -0.958483 0.074374 -0.275281
v -2.342916 1.054618 -0.473513
vt -0.518090 2.871398
vn -0.965812 0.093968 -0.241612
v -2.338729 1.071109 -0.483727
vt -0.507999 2.847113
vn -0.958016 0.091870 -0.271596
v -2.334858 1.068438 -0.497224
vt -0.488514 2.846335
vn -0.952257 0.083368 -0.293693
v -2.337565 1.074677 -0.486606
vt -0.505045 2.841567
vn -0.955973 0.091687 -0.278765
v -2.336300 1.077812 -0.489908
vt -0.501420 2.836397
vn -0.953497 0.096687 -0.285474
v -2.332194 1.072185 -0.504648
vt -0.479212 2.838360
vn -0.949515 0.089669 -0.300633
v -2.334900 1.080403 -0.493653
vt -0.497193 2.831719
vn -0.951222 0.098977 -0.292200
v -2.333401 1.082347 -0.497749
vt -0.492261 2.827606
vn -0.948791 0.109772 -0.296218
v -2.329428 1.073700 -0.512852
vt -0.468341 2.832662
vn -0.947276 0.093367 -0.306515
v -2.331421 1.083948 -0.503518
vt -0.485060 2.823205
vn -0.948166 0.107056 -0.299198
v -2.329532 1.084981 -0.509052
vt -0.477948 2.819465
vn -0.945583 0.112772 -0.305214
v -2.325903 1.074622 -0.523322
vt -0.454458 2.826577
vn -0.945215 0.094196 -0.312562
v -2.327437 1.085720 -0.515279
vt -0.469823 2.815730
vn -0.944485 0.112268 -0.308779
v -2.322233 1.075391 -0.534047
vt -0.440262 2.820621
vn -0.940195 0.098196 -0.326176
v -2.323815 1.086764 -0.525967
vt -0.455735 2.809483
vn -0.939141 0.127271 -0.319086
v -2.313116 1.076688 -0.559592
vt -0.406061 2.807200
vn -0.934806 0.102966 -0.339905
v -2.314075 1.088818 -0.553325
vt -0.419303 2.794237
vn -0.933976 0.129972 -0.332859
v -2.303562 1.077707 -0.584992
vt -0.371942 2.794123
vn -0.927124 0.110895 -0.357971
v -2.303783 1.090488 -0.580513
vt -0.382889 2.779504
vn -0.925132 0.141975 -0.352100
v -2.282944 1.078858 -0.635228
vt -0.302814 2.769742
vn -0.911505 0.118958 -0.393709
v -2.281543 1.092542 -0.634313
vt -0.308738 2.751951
vn -0.907265 0.154906 -0.390991
v -2.293511 1.078435 -0.610212
vt -0.337592 2.781587
vn -0.918909 0.117688 -0.376504
v -2.292905 1.091690 -0.607499
vt -0.346193 2.765357
vn -0.915806 0.151866 -0.371801
v -2.281015 1.093395 -0.633961
vt -0.309321 2.750625
vn -0.407618 0.897991 -0.165710
v -2.275973 1.095944 -0.629939
vt -0.314448 2.742605
vn -0.356721 0.923432 -0.141504
v -2.271851 1.079096 -0.660078
vt -0.267851 2.758688
vn -0.907575 0.117970 -0.402977
v -2.269798 1.092961 -0.660706
vt -0.271529 2.740161
vn -0.902936 0.156399 -0.400308
v -2.269234 1.093794 -0.660416
vt -0.271980 2.738830
vn -0.386737 0.907256 -0.165290
v -2.262606 1.096549 -0.655760
vt -0.277229 2.728669
vn -0.323208 0.936283 -0.137516
v -2.338074 1.050466 -0.486424
vt -0.498711 2.874347
vn -0.723699 -0.228299 -0.651260
v -2.335429 1.053029 -0.490280
vt -0.492159 2.869764
vn -0.724641 -0.228175 -0.650255
v -2.339741 1.052754 -0.485392
vt -0.501514 2.871097
vn -0.723699 -0.228299 -0.651260
v -2.337380 1.061285 -0.490987
vt -0.495463 2.858096
vn -0.738857 -0.256989 -0.622935
v -2.333597 1.058310 -0.494209
vt -0.487820 2.861077
vn -0.741803 -0.262177 -0.617245
v -2.334858 1.068438 -0.497224
vt -0.488514 2.846335
vn -0.770271 -0.322166 -0.550355
v -2.331646 1.064458 -0.499458
vt -0.482062 2.850944
vn -0.771472 -0.324899 -0.547057
v -2.329142 1.068126 -0.506462
vt -0.473373 2.843176
vn -0.809766 -0.418893 -0.410862
v -2.332194 1.072185 -0.504648
vt -0.479212 2.838360
vn -0.805557 -0.407191 -0.430434
v -2.326522 1.069509 -0.514323
vt -0.463139 2.837702
vn -0.826684 -0.455271 -0.330639
v -2.329428 1.073700 -0.512852
vt -0.468341 2.832662
vn -0.824299 -0.453569 -0.338832
v -2.323105 1.070404 -0.524640
vt -0.449573 2.831702
vn -0.835208 -0.450513 -0.315383
v -2.325903 1.074622 -0.523322
vt -0.454458 2.826577
vn -0.833393 -0.453311 -0.316173
v -2.319459 1.071044 -0.535444
vt -0.435258 2.825841
vn -0.847910 -0.423009 -0.319550
v -2.322233 1.075391 -0.534047
vt -0.440262 2.820621
vn -0.845492 -0.428894 -0.318110
v -2.310662 1.072057 -0.560372
vt -0.401833 2.812992
vn -0.858188 -0.393599 -0.329536
v -2.313116 1.076688 -0.559592
vt -0.406061 2.807200
vn -0.855937 -0.400520 -0.327041
v -2.301488 1.072819 -0.585173
vt -0.368523 2.800422
vn -0.868608 -0.355116 -0.345561
v -2.303562 1.077707 -0.584992
vt -0.371942 2.794123
vn -0.867788 -0.358771 -0.343842
v -2.291803 1.073281 -0.609792
vt -0.334949 2.788491
vn -0.874603 -0.321095 -0.363272
v -2.281577 1.073429 -0.634196
vt -0.301042 2.777259
vn -0.875951 -0.295159 -0.381564
v -2.293511 1.078435 -0.610212
vt -0.337592 2.781587
vn -0.874610 -0.321288 -0.363085
v -2.282944 1.078858 -0.635228
vt -0.302814 2.769742
vn -0.875893 -0.294381 -0.382297
v -2.270813 1.073391 -0.658408
vt -0.266925 2.766784
vn -0.875342 -0.284083 -0.391247
v -2.271851 1.079096 -0.660078
vt -0.267851 2.758688
vn -0.875342 -0.284083 -0.391247
v -2.306899 0.982389 -0.594821
vt -0.333229 2.947600
vn -0.932581 0.057272 -0.356389
v -2.299568 0.982247 -0.613688
vt -0.305910 2.942667
vn -0.926977 0.059160 -0.370423
v -2.305384 1.000921 -0.595744
vt -0.335624 2.922071
vn -0.932311 0.058272 -0.356931
v -2.298033 1.000851 -0.614588
vt -0.308183 2.917547
vn -0.926630 0.060173 -0.371129
v -2.290895 0.982500 -0.634928
vt -0.278096 2.937868
vn -0.920761 0.060086 -0.385471
v -2.289453 1.000895 -0.635453
vt -0.278398 2.913749
vn -0.920608 0.061179 -0.385666
v -2.314176 0.982452 -0.575278
vt -0.361911 2.952146
vn -0.937409 0.054295 -0.343972
v -2.312732 1.000856 -0.576326
vt -0.363889 2.926887
vn -0.937015 0.055380 -0.344871
v -2.319366 0.982296 -0.560618
vt -0.382984 2.955493
vn -0.942817 0.051587 -0.329293
v -2.317988 1.000757 -0.561750
vt -0.384648 2.930278
vn -0.942558 0.052400 -0.329907
v -2.325880 0.982482 -0.541696
vt -0.410381 2.959187
vn -0.946939 0.051267 -0.317299
v -2.324484 1.000896 -0.542821
vt -0.411538 2.933956
vn -0.946757 0.052071 -0.317709
v -2.332771 0.982242 -0.520557
vt -0.440439 2.963462
vn -0.951454 0.049370 -0.303807
v -2.330911 1.001044 -0.523231
vt -0.439401 2.937268
vn -0.950984 0.050480 -0.305092
v -2.339353 0.982282 -0.499293
vt -0.470913 2.966628
vn -0.957710 0.044968 -0.284199
v -2.337152 1.000956 -0.503573
vt -0.467481 2.940494
vn -0.956839 0.046299 -0.286906
v -2.351664 0.982517 -0.456532
vt -0.531010 2.972949
vn -0.962257 0.045084 -0.268382
v -2.348756 1.000918 -0.463989
vt -0.522801 2.946501
vn -0.960844 0.045094 -0.273397
v -2.357371 0.982274 -0.434900
vt -0.558358 2.975042
vn -0.993236 -0.041481 -0.108447
v -2.354133 1.000935 -0.443893
vt -0.550214 2.949640
vn -0.985844 0.122367 -0.114624
v -2.346223 1.007471 -0.463427
vt -0.523795 2.936687
vn -0.857093 0.454584 -0.242373
v -2.351640 1.007063 -0.443502
vt -0.551687 2.940771
vn -0.903155 0.423502 -0.070413
v -2.348498 1.002529 -0.464589
vt -0.522178 2.944207
vn -0.895240 0.365284 -0.255172
v -2.353859 1.002472 -0.444649
vt -0.549534 2.947453
vn -0.939211 0.342868 0.018033
v -2.334470 1.007564 -0.503415
vt -0.467859 2.930495
vn -0.855110 0.450251 -0.257024
v -2.336954 1.002564 -0.503911
vt -0.467239 2.938226
vn -0.889305 0.371060 -0.267304
v -2.328195 1.007615 -0.523302
vt -0.439392 2.927397
vn -0.849810 0.448675 -0.276612
v -2.330742 1.002652 -0.523438
vt -0.439334 2.935033
vn -0.884930 0.367101 -0.286595
v -2.321635 1.007426 -0.543090
vt -0.411224 2.924113
vn -0.843656 0.452784 -0.288498
v -2.324348 1.002505 -0.542906
vt -0.411655 2.931756
vn -0.879923 0.369591 -0.298560
v -2.315145 1.007372 -0.561784
vt -0.384756 2.920358
vn -0.838779 0.456844 -0.296215
v -2.317854 1.002367 -0.561834
vt -0.384797 2.928085
vn -0.875009 0.373593 -0.307875
v -2.295498 1.007503 -0.613686
vt -0.309453 2.907809
vn -0.826206 0.454785 -0.332496
v -2.302681 1.007542 -0.595383
vt -0.336296 2.912197
vn -0.831310 0.454467 -0.319974
v -2.297887 1.002458 -0.614652
vt -0.308355 2.915375
vn -0.860899 0.372855 -0.346168
v -2.305239 1.002529 -0.595810
vt -0.335824 2.919874
vn -0.866100 0.373159 -0.332600
v -2.287325 1.007579 -0.633452
vt -0.280543 2.904085
vn -0.819847 0.457483 -0.344325
v -2.289312 1.002503 -0.635488
vt -0.278424 2.911591
vn -0.852901 0.378188 -0.359907
v -2.282930 0.982469 -0.653496
vt -0.251407 2.937545
vn -0.917400 0.060382 -0.393360
v -2.281101 1.000783 -0.654963
vt -0.248701 2.911948
vn -0.917312 0.061866 -0.393334
v -2.278594 1.007385 -0.653938
vt -0.249483 2.902086
vn -0.815554 0.459165 -0.352193
v -2.280913 1.002387 -0.655067
vt -0.248647 2.909730
vn -0.847791 0.384185 -0.365585
v -2.309994 1.007380 -0.576101
vt -0.364365 2.917119
vn -0.834562 0.456840 -0.307903
v -2.312592 1.002466 -0.576403
vt -0.364063 2.924688
vn -0.870628 0.372867 -0.320900
v -2.356867 0.979664 -0.429094
vt -0.564412 2.979351
vn -0.993581 -0.044099 0.104176
v -2.290895 0.982500 -0.634928
vt -0.278096 2.937868
vn -0.734378 -0.603800 -0.310023
v -2.299568 0.982247 -0.613688
vt -0.305910 2.942667
vn -0.738693 -0.605482 -0.296183
v -2.287905 0.977958 -0.633406
vt -0.277575 2.944863
vn -0.734530 -0.603818 -0.309629
v -2.296514 0.977878 -0.612147
vt -0.304706 2.950132
vn -0.738905 -0.605578 -0.295457
v -2.306899 0.982389 -0.594821
vt -0.333229 2.947600
vn -0.747195 -0.601192 -0.283317
v -2.303866 0.977885 -0.593311
vt -0.332306 2.955397
vn -0.747603 -0.600771 -0.283133
v -2.314176 0.982452 -0.575278
vt -0.361911 2.952146
vn -0.754932 -0.594416 -0.277032
v -2.311186 0.977921 -0.573798
vt -0.361251 2.959841
vn -0.755016 -0.594414 -0.276809
v -2.319366 0.982296 -0.560618
vt -0.382984 2.955493
vn -0.761826 -0.590401 -0.266548
v -2.316412 0.977898 -0.559156
vt -0.382418 2.962937
vn -0.762213 -0.590083 -0.266147
v -2.325880 0.982482 -0.541696
vt -0.410381 2.959187
vn -0.763756 -0.592972 -0.255069
v -2.322988 0.977970 -0.540263
vt -0.409871 2.966754
vn -0.763574 -0.593459 -0.254483
v -2.332771 0.982242 -0.520557
vt -0.440439 2.963462
vn -0.758387 -0.604984 -0.242577
v -2.330061 0.978481 -0.519206
vt -0.440353 2.970091
vn -0.758095 -0.605604 -0.241943
v -2.339353 0.982282 -0.499293
vt -0.470913 2.966628
vn -0.763797 -0.604880 -0.225243
v -2.337000 0.978809 -0.498051
vt -0.470902 2.972565
vn -0.764724 -0.604098 -0.224191
v -2.351664 0.982517 -0.456532
vt -0.531010 2.972949
vn -0.769850 -0.600542 -0.216053
v -2.349915 0.979729 -0.455045
vt -0.531978 2.977870
vn -0.769827 -0.601104 -0.214569
v -2.282930 0.982469 -0.653496
vt -0.251407 2.937545
vn -0.731737 -0.603260 -0.317236
v -2.282554 0.979846 -0.649178
vt -0.257184 2.942428
vn -0.731737 -0.603260 -0.317236
v -2.281845 0.978143 -0.647551
vt -0.259493 2.945593
vn -0.731737 -0.603260 -0.317236
v -2.288484 1.095053 -0.603564
vt -0.351705 2.757767
vn -0.741064 -0.566462 -0.360478
v -2.275973 1.095944 -0.629939
vt -0.314448 2.742605
vn -0.629510 -0.713532 -0.307552
v -2.296955 1.101261 -0.596399
vt -0.368288 2.752852
vn -0.740616 -0.574009 -0.349286
v -2.300386 1.093555 -0.576929
vt -0.388101 2.773463
vn -0.754774 -0.552967 -0.352909
v -2.314725 1.098695 -0.553170
vt -0.425820 2.778698
vn -0.766499 -0.533175 -0.358055
v -2.322549 1.089852 -0.523031
vt -0.460489 2.805678
vn -0.753081 -0.553460 -0.355741
v -2.311770 1.091924 -0.550091
vt -0.424260 2.789423
vn -0.766076 -0.533571 -0.358371
v -2.327424 1.094809 -0.521121
vt -0.467993 2.799431
vn -0.743455 -0.567132 -0.354451
v -2.326402 1.088743 -0.512644
vt -0.474180 2.812139
vn -0.704877 -0.615797 -0.352055
v -2.331599 1.093227 -0.510467
vt -0.481839 2.806270
vn -0.695856 -0.624389 -0.354855
v -2.328704 1.087839 -0.506349
vt -0.482295 2.816214
vn -0.664894 -0.643364 -0.379472
v -2.333688 1.092143 -0.504934
vt -0.488938 2.810134
vn -0.656685 -0.645272 -0.390370
v -2.330859 1.086573 -0.500550
vt -0.489646 2.820412
vn -0.621108 -0.650881 -0.436554
v -2.336157 1.090276 -0.498533
vt -0.497051 2.815268
vn -0.607366 -0.652172 -0.453629
v -2.333035 1.084666 -0.494703
vt -0.496789 2.825306
vn -0.569307 -0.648398 -0.505440
v -2.338493 1.087432 -0.492431
vt -0.504459 2.821403
vn -0.556197 -0.643665 -0.525680
v -2.334653 1.082425 -0.490409
vt -0.501769 2.829834
vn -0.528963 -0.610167 -0.589826
v -2.340138 1.084744 -0.488052
vt -0.509554 2.826648
vn -0.526748 -0.594491 -0.607549
v -2.336080 1.079506 -0.486726
vt -0.505870 2.834873
vn -0.526882 -0.532399 -0.662530
v -2.341403 1.082024 -0.484531
vt -0.513450 2.831553
vn -0.528227 -0.521719 -0.669915
v -2.337241 1.076167 -0.483570
vt -0.509237 2.840199
vn -0.536675 -0.466174 -0.703322
v -2.342800 1.078483 -0.480823
vt -0.517460 2.837498
vn -0.538334 -0.457337 -0.707841
v -2.338464 1.072463 -0.480458
vt -0.512501 2.845967
vn -0.547480 -0.382787 -0.744137
v -2.344161 1.074795 -0.477520
vt -0.521026 2.843423
vn -0.548034 -0.374839 -0.747766
v -2.340615 1.063687 -0.474844
vt -0.518099 2.859013
vn -0.558553 -0.337544 -0.757683
v -2.347571 1.065257 -0.470428
vt -0.528820 2.858043
vn -0.561975 -0.330073 -0.758443
v -2.342721 1.053185 -0.468989
vt -0.523549 2.874589
vn -0.567141 -0.318465 -0.759560
v -2.351409 1.052154 -0.461946
vt -0.538494 2.877139
vn -0.567141 -0.318465 -0.759560
v -2.262606 1.096549 -0.655760
vt -0.277229 2.728669
vn -0.627554 -0.715759 -0.306376
v -2.265301 1.102558 -0.667257
vt -0.270070 2.712244
vn -0.627554 -0.715759 -0.306376
v -2.270813 1.073391 -0.658408
vt -0.266925 2.766784
vn -0.546869 -0.802046 -0.240119
v -2.281577 1.073429 -0.634196
vt -0.301042 2.777259
vn -0.547281 -0.801790 -0.240033
v -2.264892 1.067643 -0.652871
vt -0.266505 2.780217
vn -0.546869 -0.802046 -0.240119
v -2.285269 1.067565 -0.606020
vt -0.332253 2.801048
vn -0.561691 -0.791505 -0.240881
v -2.310662 1.072057 -0.560372
vt -0.401833 2.812992
vn -0.606379 -0.754210 -0.251936
v -2.319459 1.071044 -0.535444
vt -0.435258 2.825841
vn -0.612838 -0.747649 -0.255834
v -2.304306 1.066558 -0.558558
vt -0.397357 2.823764
vn -0.599163 -0.760511 -0.250253
v -2.317237 1.065434 -0.525244
vt -0.443073 2.839858
vn -0.623677 -0.736583 -0.261672
v -2.291803 1.073281 -0.609792
vt -0.334949 2.788491
vn -0.563497 -0.790259 -0.240752
v -2.301488 1.072819 -0.585173
vt -0.368523 2.800422
vn -0.566780 -0.787627 -0.241670
v -2.333597 1.058310 -0.494209
vt -0.487820 2.861077
vn -0.451776 -0.486976 -0.747497
v -2.335429 1.053029 -0.490280
vt -0.492159 2.869764
vn -0.725115 0.253662 -0.640207
v -2.331572 1.057189 -0.494607
vt -0.485044 2.862689
vn -0.538454 -0.388648 -0.747677
v -2.331646 1.064458 -0.499458
vt -0.482062 2.850944
vn -0.533548 -0.587172 -0.608733
v -2.327331 1.061640 -0.500395
vt -0.476244 2.855198
vn -0.543276 -0.600154 -0.587083
v -2.329142 1.068126 -0.506462
vt -0.473373 2.843176
vn -0.600284 -0.674109 -0.430391
v -2.323962 1.064312 -0.507855
vt -0.466534 2.848943
vn -0.611275 -0.687988 -0.391172
v -2.326522 1.069509 -0.514323
vt -0.463139 2.837702
vn -0.632834 -0.713603 -0.300484
v -2.320840 1.065031 -0.515853
vt -0.455867 2.844520
vn -0.635575 -0.716067 -0.288604
v -2.323105 1.070404 -0.524640
vt -0.449573 2.831702
vn -0.638984 -0.720188 -0.270238
v -2.330417 1.054365 -0.496135
vt -0.481957 2.866058
vn -0.745768 0.370285 -0.553822
v -2.333534 1.050611 -0.497243
vt -0.482174 2.872804
vn -0.580997 0.706838 -0.403513
v -2.332135 1.051793 -0.497185
vt -0.481538 2.870431
vn -0.634187 0.649934 -0.418798
v -2.338074 1.050466 -0.486424
vt -0.498711 2.874347
vn -0.960418 0.035964 -0.276233
v -2.335478 1.048753 -0.495597
vt -0.484951 2.875857
vn -0.958648 0.036089 -0.282298
v -2.335429 1.053029 -0.490280
vt -0.492159 2.869764
vn -0.831834 0.436200 -0.343192
v -2.333534 1.050611 -0.497243
vt -0.482174 2.872804
vn -0.831834 0.436200 -0.343192
v -2.312053 1.011343 -0.570311
vt -0.373420 2.913117
vn -0.917932 0.124192 -0.376799
v -2.309601 1.009138 -0.577110
vt -0.363258 2.914520
vn -0.908892 0.175377 -0.378363
v -2.310660 1.013289 -0.570808
vt -0.372481 2.909940
vn -0.780289 0.436858 -0.447553
v -2.308380 1.011031 -0.577450
vt -0.362625 2.911488
vn -0.798015 0.448352 -0.402681
v -2.307427 1.008118 -0.582985
vt -0.354494 2.914451
vn -0.890437 0.274461 -0.363034
v -2.302681 1.007542 -0.595383
vt -0.336296 2.912197
vn -0.822673 0.463810 -0.328769
v -2.306311 1.009956 -0.583172
vt -0.354096 2.911537
vn -0.816129 0.461562 -0.347697
v -2.301762 1.009415 -0.595024
vt -0.336710 2.909355
vn -0.821235 0.466480 -0.328588
v -2.295498 1.007503 -0.613686
vt -0.309453 2.907809
vn -0.819008 0.469536 -0.329791
v -2.294551 1.009425 -0.613309
vt -0.309842 2.904884
vn -0.818949 0.469558 -0.329906
v -2.286552 1.009476 -0.632639
vt -0.281448 2.901240
vn -0.813194 0.471254 -0.341519
v -2.287325 1.007579 -0.633452
vt -0.280543 2.904085
vn -0.812562 0.471123 -0.343201
v -2.277669 1.009351 -0.653485
vt -0.249816 2.899090
vn -0.810383 0.470630 -0.348980
v -2.278594 1.007385 -0.653938
vt -0.249483 2.902086
vn -0.810383 0.470630 -0.348980
v -2.309994 1.007380 -0.576101
vt -0.364365 2.917119
vn -0.939995 0.001997 -0.341181
v -2.315145 1.007372 -0.561784
vt -0.384756 2.920358
vn -0.944210 0.012280 -0.329116
v -2.315208 1.015956 -0.561304
vt -0.387093 2.908942
vn -0.944073 0.015061 -0.329391
v -2.318700 1.022980 -0.550927
vt -0.402940 2.901675
vn -0.945684 0.014272 -0.324775
v -2.321635 1.007426 -0.543090
vt -0.411224 2.924113
vn -0.947547 0.016368 -0.319197
v -2.320666 1.027079 -0.544817
vt -0.412146 2.897321
vn -0.948556 0.017967 -0.316100
v -2.322530 1.030532 -0.539093
vt -0.420723 2.893734
vn -0.949450 0.019369 -0.313320
v -2.328195 1.007615 -0.523302
vt -0.439392 2.927397
vn -0.952281 0.022486 -0.304395
v -2.326098 1.036776 -0.527680
vt -0.437727 2.887223
vn -0.953019 0.023568 -0.301993
v -2.328752 1.041022 -0.518849
vt -0.450836 2.882891
vn -0.953840 0.024486 -0.299315
v -2.334470 1.007564 -0.503415
vt -0.467859 2.930495
vn -0.958193 0.029271 -0.284620
v -2.329858 1.042577 -0.515120
vt -0.456326 2.881354
vn -0.954787 0.026787 -0.296082
v -2.331090 1.044034 -0.511039
vt -0.462322 2.879999
vn -0.958967 0.030179 -0.281906
v -2.333153 1.046464 -0.503845
vt -0.472872 2.877769
vn -0.959190 0.030364 -0.281126
v -2.346223 1.007471 -0.463427
vt -0.523795 2.936687
vn -0.962014 0.036880 -0.270498
v -2.342721 1.053185 -0.468989
vt -0.523549 2.874589
vn -0.964083 0.041878 -0.262279
v -2.351640 1.007063 -0.443502
vt -0.551687 2.940771
vn -0.964083 0.041878 -0.262279
v -2.349915 0.979729 -0.455045
vt -0.531978 2.977870
vn -0.290637 0.951721 -0.098782
v -2.356867 0.979664 -0.429094
vt -0.564412 2.979351
vn -0.453671 -0.309392 -0.835739
v -2.351012 0.979285 -0.454680
vt -0.532720 2.979372
vn -0.324529 0.940128 -0.104118
v -2.357202 0.979308 -0.431482
vt -0.561831 2.980620
vn -0.323409 0.941618 -0.093602
v -2.337000 0.978809 -0.498051
vt -0.470902 2.972565
vn -0.239740 0.966487 -0.091804
v -2.338648 0.978498 -0.498156
vt -0.471225 2.974821
vn -0.314114 0.942801 -0.111617
v -2.332031 0.977944 -0.520082
vt -0.439986 2.973099
vn -0.291914 0.948512 -0.122928
v -2.330061 0.978481 -0.519206
vt -0.440353 2.970091
vn -0.191614 0.976987 -0.093708
v -2.321056 0.977883 -0.540911
vt -0.407877 2.968743
vn -0.143434 0.985507 -0.090568
v -2.324928 0.977061 -0.542650
vt -0.407657 2.974656
vn -0.256704 0.958784 -0.121802
v -2.318666 0.976416 -0.561342
vt -0.380839 2.977870
vn -0.220004 0.967288 -0.126298
v -2.311745 0.977170 -0.559571
vt -0.378928 2.968353
vn -0.104127 0.990348 -0.091478
v -2.314493 0.975529 -0.573657
vt -0.363486 2.980567
vn -0.154625 0.978566 -0.136013
v -2.306219 0.976717 -0.570181
vt -0.362321 2.968309
vn -0.107511 0.986413 -0.124222
v -2.308919 0.973718 -0.589368
vt -0.341113 2.985144
vn -0.121529 0.976517 -0.177894
v -2.297727 0.975860 -0.585258
vt -0.337728 2.968752
vn -0.122133 0.975777 -0.181501
v -2.305223 0.971624 -0.599441
vt -0.326580 2.989002
vn -0.134108 0.955113 -0.264148
v -2.290794 0.974558 -0.596238
vt -0.318482 2.969471
vn -0.135608 0.951416 -0.276437
v -2.301959 0.968847 -0.608169
vt -0.313207 2.992874
vn -0.126645 0.906882 -0.401903
v -2.286280 0.973236 -0.603076
vt -0.306257 2.970017
vn -0.125655 0.904548 -0.407435
v -2.298241 0.964059 -0.618173
vt -0.296615 2.997901
vn -0.113999 0.870643 -0.478523
v -2.277835 0.968563 -0.615165
vt -0.285905 2.971529
vn -0.110409 0.857147 -0.503099
v -2.286248 0.959881 -0.626828
vt -0.273070 2.990583
vn -0.124805 0.898148 -0.421609
v -2.271429 0.962599 -0.625519
vt -0.276442 2.972439
vn -0.140132 0.938822 -0.314606
v -2.322988 0.977970 -0.540263
vt -0.409871 2.966754
vn -0.090887 -0.995752 -0.014739
v -2.330061 0.978481 -0.519206
vt -0.440353 2.970091
vn -0.041812 -0.999074 0.010184
v -2.321056 0.977883 -0.540911
vt -0.407877 2.968743
vn -0.119191 -0.992447 -0.029015
v -2.311745 0.977170 -0.559571
vt -0.378928 2.968353
vn -0.163402 -0.985208 -0.051628
v -2.316412 0.977898 -0.559156
vt -0.382418 2.962937
vn -0.148189 -0.987987 -0.043845
v -2.306219 0.976717 -0.570181
vt -0.362321 2.968309
vn -0.197885 -0.977979 -0.066322
v -2.311186 0.977921 -0.573798
vt -0.361251 2.959841
vn -0.201288 -0.977194 -0.067635
v -2.297727 0.975860 -0.585258
vt -0.337728 2.968752
vn -0.219663 -0.973371 -0.065546
v -2.303866 0.977885 -0.593311
vt -0.332306 2.955397
vn -0.239410 -0.967834 -0.077327
v -2.290794 0.974558 -0.596238
vt -0.318482 2.969471
vn -0.286806 -0.954241 -0.084658
v -2.286280 0.973236 -0.603076
vt -0.306257 2.970017
vn -0.414699 -0.909956 0.002166
v -2.277835 0.968563 -0.615165
vt -0.285905 2.971529
vn -0.552086 -0.829870 -0.080728
v -2.296514 0.977878 -0.612147
vt -0.304706 2.950132
vn -0.416380 -0.901478 -0.118174
v -2.271429 0.962599 -0.625519
vt -0.276442 2.972439
vn -0.631069 -0.756388 -0.172129
v -2.269494 0.962419 -0.630367
vt -0.275647 2.971382
vn -0.599361 -0.759590 -0.252566
v -2.287905 0.977958 -0.633406
vt -0.277575 2.944863
vn -0.573618 -0.793499 -0.203275
v -2.281845 0.978143 -0.647551
vt -0.259493 2.945593
vn -0.599361 -0.759590 -0.252566
v -2.282554 0.979846 -0.649178
vt -0.257184 2.942428
vn -0.854007 0.126475 0.504654
v -2.281845 0.978143 -0.647551
vt -0.259493 2.945593
vn -0.781384 0.106954 0.614818
v -2.284152 0.962074 -0.647427
vt -0.249733 2.968675
vn -0.736171 0.110773 0.667669
v -2.280107 0.959752 -0.642614
vt -0.259874 2.974640
vn -0.691555 0.533929 0.486489
v -2.269494 0.962419 -0.630367
vt -0.275647 2.971382
vn -0.404230 0.903005 0.145532
v -2.357965 0.976850 -0.454665
vt -0.534810 2.989269
vn -0.323012 0.940904 -0.101801
v -2.364143 0.977118 -0.431457
vt -0.564845 2.989500
vn -0.311910 0.945268 -0.095815
v -2.345656 0.976039 -0.498155
vt -0.473111 2.984722
vn -0.328830 0.937504 -0.113829
v -2.339049 0.975482 -0.520083
vt -0.442566 2.982886
vn -0.328225 0.935635 -0.129831
v -2.331967 0.974592 -0.542655
vt -0.411093 2.984132
vn -0.327609 0.934289 -0.140627
v -2.325726 0.973939 -0.561354
vt -0.384839 2.987112
vn -0.326925 0.932581 -0.153009
v -2.321558 0.973055 -0.573664
vt -0.367649 2.989705
vn -0.325311 0.928893 -0.177004
v -2.351640 1.007063 -0.443502
vt -0.551687 2.940771
vn -0.477037 -0.337544 -0.811480
v -2.342721 1.053185 -0.468989
vt -0.523549 2.874589
vn -0.506053 -0.324240 -0.799236
v -2.360248 1.010802 -0.440689
vt -0.564021 2.935542
vn -0.479275 -0.336575 -0.810563
v -2.351409 1.052154 -0.461946
vt -0.538494 2.877139
vn -0.506053 -0.324240 -0.799236
v -2.366043 0.977569 -0.423236
vt -0.576947 2.985865
vn -0.456959 -0.296751 -0.838527
v -2.339741 1.052753 0.485392
vt -0.501514 2.871097
vn -0.829006 -0.542435 0.136063
v -2.338074 1.050466 0.486424
vt -0.498711 2.874347
vn -0.829006 -0.542435 0.136063
v -2.342916 1.054617 0.473514
vt -0.518090 2.871398
vn -0.829006 -0.542435 0.136063
v -2.343048 1.054445 0.471947
vt -0.520070 2.872052
vn -0.829006 -0.542435 0.136063
v -2.342721 1.053185 0.468989
vt -0.523549 2.874589
vn -0.829006 -0.542435 0.136063
v -2.340615 1.063687 0.474844
vt -0.518099 2.859013
vn -0.942889 0.299068 -0.146695
v -2.340839 1.063976 0.477626
vt -0.514544 2.858102
vn -0.966185 0.255476 -0.034916
v -2.342721 1.053185 0.468989
vt -0.523549 2.874589
vn -0.938200 0.300668 -0.171402
v -2.343048 1.054445 0.471947
vt -0.520070 2.872052
vn -0.951106 0.281373 -0.127385
v -2.338464 1.072462 0.480459
vt -0.512501 2.845967
vn -0.950081 0.304365 -0.068621
v -2.338804 1.071687 0.482556
vt -0.509639 2.846636
vn -0.964128 0.265271 0.009433
v -2.337241 1.076167 0.483570
vt -0.509237 2.840199
vn -0.940553 0.339198 -0.017478
v -2.337621 1.075310 0.485488
vt -0.506615 2.841022
vn -0.955405 0.291066 0.049826
v -2.336080 1.079506 0.486727
vt -0.505870 2.834873
vn -0.933433 0.357383 0.031290
v -2.336373 1.078489 0.488837
vt -0.502958 2.835811
vn -0.944981 0.313577 0.093168
v -2.334653 1.082425 0.490409
vt -0.501769 2.829834
vn -0.915548 0.391664 0.091497
v -2.334959 1.081139 0.492664
vt -0.498650 2.831056
vn -0.926101 0.350177 0.140403
v -2.333035 1.084666 0.494703
vt -0.496789 2.825306
vn -0.887416 0.437867 0.144102
v -2.333424 1.083138 0.496860
vt -0.493651 2.826860
vn -0.899065 0.398875 0.180499
v -2.330859 1.086572 0.500550
vt -0.489646 2.820412
vn -0.859245 0.478902 0.179864
v -2.331388 1.084785 0.502759
vt -0.486315 2.822351
vn -0.877299 0.432384 0.208305
v -2.328704 1.087838 0.506350
vt -0.482295 2.816214
vn -0.830202 0.518488 0.204783
v -2.329443 1.085847 0.508413
vt -0.479070 2.818536
vn -0.852733 0.470882 0.226089
v -2.326402 1.088742 0.512644
vt -0.474180 2.812139
vn -0.798258 0.561705 0.217418
v -2.327320 1.086598 0.514670
vt -0.470925 2.814767
vn -0.822775 0.518566 0.232660
v -2.300386 1.093554 0.576930
vt -0.388101 2.773463
vn -0.499602 0.851665 0.158318
v -2.303387 1.091355 0.580030
vt -0.383731 2.778331
vn -0.550637 0.814683 0.181909
v -2.311770 1.091924 0.550091
vt -0.424260 2.789423
vn -0.620055 0.761673 0.188113
v -2.313787 1.089702 0.552775
vt -0.420276 2.793146
vn -0.651335 0.730909 0.203801
v -2.322549 1.089852 0.523032
vt -0.460489 2.805678
vn -0.719517 0.662069 0.209666
v -2.323659 1.087655 0.525341
vt -0.456855 2.808489
vn -0.737612 0.637681 0.222017
v -2.288484 1.095053 0.603564
vt -0.351705 2.757767
vn -0.422734 0.894274 0.146868
v -2.292439 1.092557 0.607086
vt -0.346915 2.764100
vn -0.476550 0.861977 0.172903
v -2.342916 1.054617 0.473514
vt -0.518090 2.871398
vn -0.965809 0.094073 0.241586
v -2.340701 1.063805 0.479065
vt -0.512655 2.857971
vn -0.962212 0.087365 0.257905
v -2.339741 1.052753 0.485392
vt -0.501514 2.871097
vn -0.958480 0.074396 0.275286
v -2.337380 1.061285 0.490987
vt -0.495463 2.858096
vn -0.956240 0.077694 0.282079
v -2.338729 1.071109 0.483728
vt -0.507999 2.847113
vn -0.958013 0.091891 0.271601
v -2.337565 1.074677 0.486606
vt -0.505045 2.841567
vn -0.955962 0.091668 0.278808
v -2.334858 1.068438 0.497224
vt -0.488514 2.846335
vn -0.952269 0.083387 0.293650
v -2.336300 1.077811 0.489908
vt -0.501420 2.836397
vn -0.953486 0.096667 0.285518
v -2.334900 1.080403 0.493653
vt -0.497193 2.831719
vn -0.951218 0.098999 0.292205
v -2.332194 1.072185 0.504648
vt -0.479212 2.838360
vn -0.949527 0.089688 0.300590
v -2.333401 1.082346 0.497749
vt -0.492261 2.827606
vn -0.948803 0.109791 0.296174
v -2.331421 1.083948 0.503518
vt -0.485060 2.823205
vn -0.948162 0.107078 0.299203
v -2.329428 1.073699 0.512852
vt -0.468341 2.832662
vn -0.947288 0.093386 0.306471
v -2.329532 1.084981 0.509053
vt -0.477948 2.819465
vn -0.945595 0.112792 0.305169
v -2.327437 1.085719 0.515279
vt -0.469823 2.815730
vn -0.944480 0.112291 0.308784
v -2.325903 1.074622 0.523322
vt -0.454458 2.826577
vn -0.945302 0.094161 0.312309
v -2.323815 1.086764 0.525968
vt -0.455735 2.809483
vn -0.939136 0.127294 0.319092
v -2.322233 1.075391 0.534048
vt -0.440262 2.820621
vn -0.940199 0.098174 0.326170
v -2.314075 1.088818 0.553325
vt -0.419303 2.794237
vn -0.933963 0.129952 0.332905
v -2.313116 1.076688 0.559592
vt -0.406061 2.807200
vn -0.934802 0.102989 0.339911
v -2.303783 1.090487 0.580513
vt -0.382889 2.779504
vn -0.925126 0.141999 0.352106
v -2.303562 1.077707 0.584993
vt -0.371942 2.794123
vn -0.927109 0.110875 0.358016
v -2.292905 1.091690 0.607499
vt -0.346193 2.765357
vn -0.915800 0.151890 0.371807
v -2.281543 1.092542 0.634313
vt -0.308738 2.751951
vn -0.907225 0.154889 0.391091
v -2.293511 1.078435 0.610213
vt -0.337592 2.781587
vn -0.919121 0.117593 0.376017
v -2.282944 1.078857 0.635229
vt -0.302814 2.769742
vn -0.911499 0.118982 0.393716
v -2.275973 1.095944 0.629939
vt -0.314448 2.742605
vn -0.356840 0.923392 0.141465
v -2.281015 1.093395 0.633962
vt -0.309321 2.750625
vn -0.407645 0.897978 0.165712
v -2.269798 1.092960 0.660706
vt -0.271529 2.740161
vn -0.902948 0.156278 0.400328
v -2.271851 1.079096 0.660078
vt -0.267851 2.758688
vn -0.907569 0.117994 0.402984
v -2.262606 1.096549 0.655760
vt -0.277229 2.728669
vn -0.323233 0.936274 0.137517
v -2.269234 1.093794 0.660416
vt -0.271980 2.738830
vn -0.386710 0.907268 0.165288
v -2.337380 1.061285 0.490987
vt -0.495463 2.858096
vn -0.738931 -0.257014 0.622836
v -2.335429 1.053028 0.490280
vt -0.492159 2.869764
vn -0.724750 -0.228146 0.650144
v -2.339741 1.052753 0.485392
vt -0.501514 2.871097
vn -0.723776 -0.228325 0.651166
v -2.338074 1.050466 0.486424
vt -0.498711 2.874347
vn -0.723776 -0.228325 0.651166
v -2.333597 1.058310 0.494210
vt -0.487820 2.861077
vn -0.741845 -0.262257 0.617161
v -2.331646 1.064458 0.499458
vt -0.482062 2.850944
vn -0.771521 -0.324813 0.547039
v -2.334858 1.068438 0.497224
vt -0.488514 2.846335
vn -0.770365 -0.322349 0.550117
v -2.332194 1.072185 0.504648
vt -0.479212 2.838360
vn -0.805575 -0.407213 0.430380
v -2.329142 1.068126 0.506462
vt -0.473373 2.843176
vn -0.809817 -0.418905 0.410750
v -2.329428 1.073699 0.512852
vt -0.468341 2.832662
vn -0.824281 -0.453598 0.338835
v -2.326522 1.069509 0.514324
vt -0.463139 2.837702
vn -0.826690 -0.455335 0.330534
v -2.325903 1.074622 0.523322
vt -0.454458 2.826577
vn -0.833432 -0.453316 0.316062
v -2.323105 1.070404 0.524640
vt -0.449573 2.831702
vn -0.835246 -0.450518 0.315272
v -2.322233 1.075391 0.534048
vt -0.440262 2.820621
vn -0.845503 -0.428911 0.318057
v -2.319459 1.071044 0.535444
vt -0.435258 2.825841
vn -0.847948 -0.423016 0.319440
v -2.313116 1.076688 0.559592
vt -0.406061 2.807200
vn -0.855949 -0.400538 0.326988
v -2.310662 1.072057 0.560373
vt -0.401833 2.812992
vn -0.858321 -0.393295 0.329552
v -2.303562 1.077707 0.584993
vt -0.371942 2.794123
vn -0.867884 -0.358429 0.343957
v -2.301488 1.072819 0.585173
vt -0.368523 2.800422
vn -0.868728 -0.354813 0.345571
v -2.282944 1.078857 0.635229
vt -0.302814 2.769742
vn -0.875913 -0.294103 0.382465
v -2.281577 1.073428 0.634196
vt -0.301042 2.777259
vn -0.875963 -0.295131 0.381559
v -2.293511 1.078435 0.610213
vt -0.337592 2.781587
vn -0.874563 -0.321814 0.362734
v -2.291803 1.073281 0.609792
vt -0.334949 2.788491
vn -0.874644 -0.321108 0.363164
v -2.271851 1.079096 0.660078
vt -0.267851 2.758688
vn -0.875385 -0.284097 0.391140
v -2.270813 1.073391 0.658408
vt -0.266925 2.766784
vn -0.875385 -0.284097 0.391140
v -2.298033 1.000851 0.614589
vt -0.308183 2.917547
vn -0.926646 0.060193 0.371085
v -2.299568 0.982247 0.613689
vt -0.305910 2.942667
vn -0.926993 0.059180 0.370379
v -2.305384 1.000921 0.595744
vt -0.335624 2.922071
vn -0.932288 0.058295 0.356987
v -2.306899 0.982388 0.594821
vt -0.333229 2.947600
vn -0.932577 0.057294 0.356395
v -2.289453 1.000895 0.635454
vt -0.278398 2.913749
vn -0.920591 0.061159 0.385710
v -2.290895 0.982499 0.634929
vt -0.278096 2.937868
vn -0.920968 0.060094 0.384975
v -2.312732 1.000856 0.576326
vt -0.363889 2.926887
vn -0.937000 0.055360 0.344914
v -2.314176 0.982452 0.575278
vt -0.361911 2.952146
vn -0.937430 0.054273 0.343917
v -2.317988 1.000757 0.561750
vt -0.384648 2.930278
vn -0.942561 0.052379 0.329901
v -2.319366 0.982296 0.560618
vt -0.382984 2.955493
vn -0.942787 0.051568 0.329385
v -2.324484 1.000895 0.542821
vt -0.411538 2.933956
vn -0.946757 0.051967 0.317728
v -2.325880 0.982482 0.541697
vt -0.410381 2.959187
vn -0.947033 0.051280 0.317016
v -2.330911 1.001043 0.523232
vt -0.439401 2.937268
vn -0.950956 0.050462 0.305182
v -2.332771 0.982242 0.520557
vt -0.440439 2.963462
vn -0.951451 0.049391 0.303812
v -2.337152 1.000956 0.503574
vt -0.467481 2.940494
vn -0.956841 0.046400 0.286885
v -2.339353 0.982282 0.499293
vt -0.470913 2.966628
vn -0.957736 0.044986 0.284110
v -2.348756 1.000918 0.463989
vt -0.522801 2.946501
vn -0.960846 0.045074 0.273392
v -2.351664 0.982517 0.456532
vt -0.531010 2.972949
vn -0.962259 0.045064 0.268377
v -2.354133 1.000934 0.443894
vt -0.550214 2.949640
vn -0.985846 0.122384 0.114585
v -2.357371 0.982274 0.434900
vt -0.558358 2.975042
vn -0.993246 -0.041531 0.108337
v -2.353859 1.002472 0.444649
vt -0.549534 2.947453
vn -0.939207 0.342879 -0.017993
v -2.351640 1.007062 0.443502
vt -0.551687 2.940771
vn -0.903167 0.423476 0.070412
v -2.348498 1.002529 0.464589
vt -0.522178 2.944207
vn -0.895204 0.365367 0.255181
v -2.346223 1.007470 0.463427
vt -0.523795 2.936687
vn -0.857109 0.454556 0.242371
v -2.336954 1.002564 0.503911
vt -0.467239 2.938226
vn -0.889242 0.371199 0.267320
v -2.334470 1.007564 0.503415
vt -0.467859 2.930495
vn -0.855063 0.450336 0.257031
v -2.330742 1.002652 0.523438
vt -0.439334 2.935033
vn -0.884942 0.367073 0.286591
v -2.328195 1.007615 0.523302
vt -0.439392 2.927397
vn -0.849818 0.448691 0.276559
v -2.324348 1.002504 0.542907
vt -0.411655 2.931756
vn -0.879942 0.369471 0.298652
v -2.321635 1.007426 0.543090
vt -0.411224 2.924113
vn -0.843640 0.452813 0.288501
v -2.317854 1.002367 0.561835
vt -0.384797 2.928085
vn -0.875023 0.373564 0.307872
v -2.315145 1.007372 0.561784
vt -0.384756 2.920358
vn -0.838736 0.456885 0.296274
v -2.305239 1.002529 0.595810
vt -0.335824 2.919874
vn -0.866112 0.373178 0.332548
v -2.302681 1.007542 0.595383
vt -0.336296 2.912197
vn -0.831299 0.454449 0.320028
v -2.297887 1.002458 0.614653
vt -0.308355 2.915375
vn -0.861124 0.372896 0.345563
v -2.295498 1.007502 0.613686
vt -0.309453 2.907809
vn -0.826427 0.454679 0.332092
v -2.289312 1.002503 0.635488
vt -0.278424 2.911591
vn -0.852916 0.378159 0.359903
v -2.287325 1.007579 0.633453
vt -0.280543 2.904085
vn -0.819860 0.457501 0.344270
v -2.281101 1.000783 0.654964
vt -0.248701 2.911948
vn -0.917329 0.061887 0.393291
v -2.282930 0.982469 0.653496
vt -0.251407 2.937545
vn -0.917383 0.060361 0.393403
v -2.280913 1.002387 0.655068
vt -0.248647 2.909730
vn -0.847806 0.384156 0.365581
v -2.278594 1.007385 0.653938
vt -0.249483 2.902086
vn -0.815536 0.459194 0.352197
v -2.312592 1.002466 0.576403
vt -0.364063 2.924688
vn -0.870669 0.372782 0.320888
v -2.309994 1.007380 0.576102
vt -0.364365 2.917119
vn -0.834612 0.456754 0.307894
v -2.356867 0.979664 0.429095
vt -0.564412 2.979351
vn -0.993574 -0.044084 -0.104250
v -2.296514 0.977878 0.612147
vt -0.304706 2.950132
vn -0.738905 -0.605632 0.295347
v -2.299568 0.982247 0.613689
vt -0.305910 2.942667
vn -0.738726 -0.605523 0.296016
v -2.287905 0.977958 0.633406
vt -0.277575 2.944863
vn -0.734587 -0.603778 0.309571
v -2.290895 0.982499 0.634929
vt -0.278096 2.937868
vn -0.734401 -0.603773 0.310022
v -2.303866 0.977885 0.593312
vt -0.332306 2.955397
vn -0.747601 -0.600824 0.283024
v -2.306899 0.982388 0.594821
vt -0.333229 2.947600
vn -0.747205 -0.601205 0.283261
v -2.311186 0.977921 0.573798
vt -0.361251 2.959841
vn -0.755045 -0.594453 0.276644
v -2.314176 0.982452 0.575278
vt -0.361911 2.952146
vn -0.755140 -0.594411 0.276475
v -2.316412 0.977898 0.559156
vt -0.382418 2.962937
vn -0.762105 -0.590219 0.266153
v -2.319366 0.982296 0.560618
vt -0.382984 2.955493
vn -0.761823 -0.590454 0.266439
v -2.322988 0.977970 0.540263
vt -0.409871 2.966754
vn -0.763600 -0.593495 0.254320
v -2.325880 0.982482 0.541697
vt -0.410381 2.959187
vn -0.763782 -0.593009 0.254906
v -2.330061 0.978480 0.519207
vt -0.440353 2.970091
vn -0.758076 -0.605692 0.241782
v -2.332771 0.982242 0.520557
vt -0.440439 2.963462
vn -0.758384 -0.605095 0.242308
v -2.337000 0.978809 0.498052
vt -0.470902 2.972565
vn -0.764746 -0.604131 0.224030
v -2.339353 0.982282 0.499293
vt -0.470913 2.966628
vn -0.763790 -0.604928 0.225136
v -2.349915 0.979729 0.455045
vt -0.531978 2.977870
vn -0.769889 -0.601082 0.214408
v -2.351664 0.982517 0.456532
vt -0.531010 2.972949
vn -0.769856 -0.600611 0.215841
v -2.281845 0.978143 0.647552
vt -0.259493 2.945593
vn -0.731785 -0.603262 0.317123
v -2.282554 0.979845 0.649178
vt -0.257184 2.942428
vn -0.731785 -0.603262 0.317123
v -2.282930 0.982469 0.653496
vt -0.251407 2.937545
vn -0.731785 -0.603262 0.317123
v -2.296955 1.101261 0.596399
vt -0.368288 2.752852
vn -0.740658 -0.574059 0.349117
v -2.275973 1.095944 0.629939
vt -0.314448 2.742605
vn -0.629538 -0.713605 0.307327
v -2.288484 1.095053 0.603564
vt -0.351705 2.757767
vn -0.741107 -0.566513 0.360309
v -2.314725 1.098695 0.553170
vt -0.425820 2.778698
vn -0.766506 -0.533238 0.357946
v -2.300386 1.093554 0.576930
vt -0.388101 2.773463
vn -0.754815 -0.553018 0.352740
v -2.311770 1.091924 0.550091
vt -0.424260 2.789423
vn -0.766118 -0.533624 0.358203
v -2.327424 1.094809 0.521122
vt -0.467993 2.799431
vn -0.743461 -0.567193 0.354340
v -2.322549 1.089852 0.523032
vt -0.460489 2.805678
vn -0.753052 -0.553533 0.355689
v -2.331599 1.093227 0.510468
vt -0.481839 2.806270
vn -0.695910 -0.624394 0.354741
v -2.326402 1.088742 0.512644
vt -0.474180 2.812139
vn -0.704834 -0.615909 0.351945
v -2.333688 1.092143 0.504934
vt -0.488938 2.810134
vn -0.656694 -0.645332 0.390256
v -2.328704 1.087838 0.506350
vt -0.482295 2.816214
vn -0.664901 -0.643424 0.379358
v -2.336157 1.090276 0.498534
vt -0.497051 2.815268
vn -0.607197 -0.652213 0.453796
v -2.330859 1.086572 0.500550
vt -0.489646 2.820412
vn -0.621121 -0.650945 0.436440
v -2.338493 1.087432 0.492432
vt -0.504459 2.821403
vn -0.556218 -0.643738 0.525570
v -2.333035 1.084666 0.494703
vt -0.496789 2.825306
vn -0.569330 -0.648421 0.505385
v -2.340138 1.084743 0.488052
vt -0.509554 2.826648
vn -0.526831 -0.594522 0.607448
v -2.334653 1.082425 0.490409
vt -0.501769 2.829834
vn -0.528989 -0.610194 0.589774
v -2.341403 1.082024 0.484532
vt -0.513450 2.831553
vn -0.528205 -0.521801 0.669868
v -2.336080 1.079506 0.486727
vt -0.505870 2.834873
vn -0.526912 -0.532429 0.662482
v -2.342800 1.078483 0.480824
vt -0.517460 2.837498
vn -0.538444 -0.457546 0.707622
v -2.337241 1.076167 0.483570
vt -0.509237 2.840199
vn -0.536707 -0.466205 0.703277
v -2.344161 1.074794 0.477520
vt -0.521026 2.843423
vn -0.548134 -0.374932 0.747646
v -2.338464 1.072462 0.480459
vt -0.512501 2.845967
vn -0.547514 -0.382818 0.744096
v -2.347571 1.065257 0.470429
vt -0.528820 2.858043
vn -0.562009 -0.330103 0.758404
v -2.340615 1.063687 0.474844
vt -0.518099 2.859013
vn -0.558542 -0.337629 0.757652
v -2.351409 1.052154 0.461946
vt -0.538494 2.877139
vn -0.567243 -0.318555 0.759446
v -2.342721 1.053185 0.468989
vt -0.523549 2.874589
vn -0.567243 -0.318555 0.759446
v -2.265301 1.102557 0.667257
vt -0.270070 2.712244
vn -0.627594 -0.715795 0.306208
v -2.262606 1.096549 0.655760
vt -0.277229 2.728669
vn -0.627594 -0.715795 0.306208
v -2.285269 1.067565 0.606020
vt -0.332253 2.801048
vn -0.561728 -0.791527 0.240720
v -2.281577 1.073428 0.634196
vt -0.301042 2.777259
vn -0.547309 -0.801771 0.240034
v -2.264892 1.067643 0.652871
vt -0.266505 2.780217
vn -0.546882 -0.802053 0.240066
v -2.270813 1.073391 0.658408
vt -0.266925 2.766784
vn -0.546882 -0.802053 0.240066
v -2.317237 1.065434 0.525244
vt -0.443073 2.839858
vn -0.623713 -0.736611 0.261508
v -2.319459 1.071044 0.535444
vt -0.435258 2.825841
vn -0.612888 -0.747644 0.255726
v -2.304306 1.066557 0.558558
vt -0.397357 2.823764
vn -0.599213 -0.760507 0.250145
v -2.310662 1.072057 0.560373
vt -0.401833 2.812992
vn -0.606430 -0.754205 0.251828
v -2.301488 1.072819 0.585173
vt -0.368523 2.800422
vn -0.566832 -0.787622 0.241564
v -2.291803 1.073281 0.609792
vt -0.334949 2.788491
vn -0.563604 -0.790214 0.240648
v -2.331572 1.057189 0.494607
vt -0.485044 2.862689
vn -0.538554 -0.388741 0.747556
v -2.335429 1.053028 0.490280
vt -0.492159 2.869764
vn -0.725145 0.253688 0.640162
v -2.333597 1.058310 0.494210
vt -0.487820 2.861077
vn -0.451809 -0.487009 0.747457
v -2.327331 1.061639 0.500396
vt -0.476244 2.855198
vn -0.543356 -0.600235 0.586926
v -2.331646 1.064458 0.499458
vt -0.482062 2.850944
vn -0.533632 -0.587309 0.608527
v -2.323962 1.064312 0.507855
vt -0.466534 2.848943
vn -0.611328 -0.688038 0.391001
v -2.329142 1.068126 0.506462
vt -0.473373 2.843176
vn -0.600397 -0.674116 0.430222
v -2.320840 1.065031 0.515853
vt -0.455867 2.844520
vn -0.635588 -0.716078 0.288549
v -2.326522 1.069509 0.514324
vt -0.463139 2.837702
vn -0.632887 -0.713603 0.300373
v -2.323105 1.070404 0.524640
vt -0.449573 2.831702
vn -0.639011 -0.720164 0.270239
v -2.330417 1.054365 0.496136
vt -0.481957 2.866058
vn -0.745750 0.370314 0.553828
v -2.332135 1.051793 0.497185
vt -0.481538 2.870431
vn -0.634221 0.649864 0.418856
v -2.333534 1.050611 0.497243
vt -0.482174 2.872804
vn -0.581015 0.706855 0.403456
v -2.333534 1.050611 0.497243
vt -0.482174 2.872804
vn -0.831814 0.436276 0.343145
v -2.335478 1.048753 0.495597
vt -0.484951 2.875857
vn -0.958636 0.036069 0.282339
v -2.335429 1.053028 0.490280
vt -0.492159 2.869764
vn -0.831814 0.436276 0.343145
v -2.338074 1.050466 0.486424
vt -0.498711 2.874347
vn -0.960429 0.035983 0.276192
v -2.308380 1.011031 0.577450
vt -0.362625 2.911488
vn -0.797997 0.448381 0.402685
v -2.309601 1.009138 0.577111
vt -0.363258 2.914520
vn -0.908876 0.175356 0.378410
v -2.310660 1.013289 0.570809
vt -0.372481 2.909940
vn -0.780270 0.436837 0.447607
v -2.312053 1.011343 0.570311
vt -0.373420 2.913117
vn -0.917938 0.124168 0.376792
v -2.301762 1.009414 0.595024
vt -0.336710 2.909355
vn -0.821258 0.466405 0.328636
v -2.302681 1.007542 0.595383
vt -0.336296 2.912197
vn -0.822661 0.463793 0.328823
v -2.306311 1.009956 0.583173
vt -0.354096 2.911537
vn -0.816182 0.461476 0.347688
v -2.307427 1.008118 0.582985
vt -0.354494 2.914451
vn -0.890451 0.274482 0.362984
v -2.294551 1.009424 0.613309
vt -0.309842 2.904884
vn -0.818683 0.469770 0.330264
v -2.295498 1.007502 0.613686
vt -0.309453 2.907809
vn -0.818955 0.469622 0.329800
v -2.287325 1.007579 0.633453
vt -0.280543 2.904085
vn -0.812579 0.471094 0.343198
v -2.286552 1.009476 0.632639
vt -0.281448 2.901240
vn -0.813207 0.471271 0.341464
v -2.278594 1.007385 0.653938
vt -0.249483 2.902086
vn -0.810406 0.470554 0.349029
v -2.277669 1.009351 0.653485
vt -0.249816 2.899090
vn -0.810406 0.470554 0.349029
v -2.309994 1.007380 0.576102
vt -0.364365 2.917119
vn -0.939998 0.001978 0.341175
v -2.315145 1.007372 0.561784
vt -0.384756 2.920358
vn -0.944224 0.012300 0.329075
v -2.315208 1.015956 0.561304
vt -0.387093 2.908942
vn -0.944071 0.015081 0.329397
v -2.321635 1.007426 0.543090
vt -0.411224 2.924113
vn -0.947479 0.016271 0.319403
v -2.318700 1.022979 0.550928
vt -0.402940 2.901675
vn -0.945681 0.014291 0.324781
v -2.320666 1.027079 0.544817
vt -0.412146 2.897321
vn -0.948513 0.018067 0.316223
v -2.328195 1.007615 0.523302
vt -0.439392 2.927397
vn -0.952283 0.022466 0.304389
v -2.322530 1.030532 0.539093
vt -0.420723 2.893734
vn -0.949399 0.019271 0.313480
v -2.326098 1.036775 0.527681
vt -0.437727 2.887223
vn -0.953007 0.023668 0.302021
v -2.334470 1.007564 0.503415
vt -0.467859 2.930495
vn -0.958204 0.029172 0.284594
v -2.328752 1.041022 0.518849
vt -0.450836 2.882891
vn -0.953842 0.024466 0.299310
v -2.329858 1.042577 0.515121
vt -0.456326 2.881354
vn -0.954789 0.026767 0.296077
v -2.331090 1.044034 0.511040
vt -0.462322 2.879999
vn -0.958979 0.030198 0.281865
v -2.346223 1.007470 0.463427
vt -0.523795 2.936687
vn -0.961990 0.036862 0.270585
v -2.333153 1.046464 0.503846
vt -0.472872 2.877769
vn -0.959202 0.030383 0.281085
v -2.351640 1.007062 0.443502
vt -0.551687 2.940771
vn -0.964081 0.041898 0.262284
v -2.342721 1.053185 0.468989
vt -0.523549 2.874589
vn -0.964081 0.041898 0.262284
v -2.357202 0.979308 0.431482
vt -0.561831 2.980620
vn -0.323450 0.941617 0.093471
v -2.356867 0.979664 0.429095
vt -0.564412 2.979351
vn -0.453763 -0.309429 0.835675
v -2.351012 0.979285 0.454680
vt -0.532720 2.979372
vn -0.324543 0.940128 0.104073
v -2.349915 0.979729 0.455045
vt -0.531978 2.977870
vn -0.290641 0.951729 0.098695
v -2.338648 0.978498 0.498156
vt -0.471225 2.974821
vn -0.314128 0.942802 0.111573
v -2.337000 0.978809 0.498052
vt -0.470902 2.972565
vn -0.239717 0.966493 0.091803
v -2.330061 0.978480 0.519207
vt -0.440353 2.970091
vn -0.191630 0.976987 0.093667
v -2.332031 0.977944 0.520082
vt -0.439986 2.973099
vn -0.291929 0.948513 0.122883
v -2.324928 0.977061 0.542650
vt -0.407657 2.974656
vn -0.256728 0.958778 0.121804
v -2.321056 0.977883 0.540911
vt -0.407877 2.968743
vn -0.143418 0.985506 0.090607
v -2.311745 0.977170 0.559571
vt -0.378928 2.968353
vn -0.104002 0.990348 0.091624
v -2.318666 0.976415 0.561342
vt -0.380839 2.977870
vn -0.220027 0.967283 0.126300
v -2.306219 0.976717 0.570181
vt -0.362321 2.968309
vn -0.107528 0.986416 0.124182
v -2.314493 0.975529 0.573658
vt -0.363486 2.980567
vn -0.154603 0.978570 0.136011
v -2.297727 0.975860 0.585258
vt -0.337728 2.968752
vn -0.122112 0.975780 0.181498
v -2.308919 0.973717 0.589368
vt -0.341113 2.985144
vn -0.121511 0.976511 0.177935
v -2.290794 0.974558 0.596238
vt -0.318482 2.969471
vn -0.135627 0.951427 0.276393
v -2.305223 0.971624 0.599441
vt -0.326580 2.989002
vn -0.134127 0.955123 0.264104
v -2.286280 0.973235 0.603076
vt -0.306257 2.970017
vn -0.125628 0.904579 0.407375
v -2.301959 0.968846 0.608170
vt -0.313207 2.992874
vn -0.126621 0.906889 0.401896
v -2.277835 0.968563 0.615165
vt -0.285905 2.971529
vn -0.110433 0.857139 0.503108
v -2.298241 0.964059 0.618173
vt -0.296615 2.997901
vn -0.114021 0.870665 0.478478
v -2.271429 0.962599 0.625520
vt -0.276442 2.972439
vn -0.140112 0.938809 0.314652
v -2.286248 0.959881 0.626828
vt -0.273070 2.990583
vn -0.124827 0.898166 0.421563
v -2.321056 0.977883 0.540911
vt -0.407877 2.968743
vn -0.119206 -0.992446 0.028979
v -2.330061 0.978480 0.519207
vt -0.440353 2.970091
vn -0.041796 -0.999074 -0.010217
v -2.322988 0.977970 0.540263
vt -0.409871 2.966754
vn -0.090932 -0.995750 0.014637
v -2.316412 0.977898 0.559156
vt -0.382418 2.962937
vn -0.148199 -0.987988 0.043770
v -2.311745 0.977170 0.559571
vt -0.378928 2.968353
vn -0.163411 -0.985210 0.051552
v -2.311186 0.977921 0.573798
vt -0.361251 2.959841
vn -0.201303 -0.977194 0.067595
v -2.306219 0.976717 0.570181
vt -0.362321 2.968309
vn -0.197901 -0.977978 0.066283
v -2.303866 0.977885 0.593312
vt -0.332306 2.955397
vn -0.239417 -0.967839 0.077244
v -2.297727 0.975860 0.585258
vt -0.337728 2.968752
vn -0.219715 -0.973365 0.065467
v -2.290794 0.974558 0.596238
vt -0.318482 2.969471
vn -0.286810 -0.954247 0.084573
v -2.296514 0.977878 0.612147
vt -0.304706 2.950132
vn -0.416416 -0.901480 0.118034
v -2.277835 0.968563 0.615165
vt -0.285905 2.971529
vn -0.552089 -0.829886 0.080540
v -2.286280 0.973235 0.603076
vt -0.306257 2.970017
vn -0.414705 -0.909953 -0.002247
v -2.281845 0.978143 0.647552
vt -0.259493 2.945593
vn -0.599412 -0.759586 0.252458
v -2.269494 0.962419 0.630367
vt -0.275647 2.971382
vn -0.599412 -0.759586 0.252458
v -2.287905 0.977958 0.633406
vt -0.277575 2.944863
vn -0.573613 -0.793531 0.203169
v -2.271429 0.962599 0.625520
vt -0.276442 2.972439
vn -0.630975 -0.756479 0.172075
v -2.284152 0.962074 0.647428
vt -0.249733 2.968675
vn -0.736184 0.110749 -0.667659
v -2.281845 0.978143 0.647552
vt -0.259493 2.945593
vn -0.781413 0.106977 -0.614776
v -2.282554 0.979845 0.649178
vt -0.257184 2.942428
vn -0.854030 0.126498 -0.504609
v -2.280107 0.959752 0.642615
vt -0.259874 2.974640
vn -0.691577 0.533951 -0.486434
v -2.269494 0.962419 0.630367
vt -0.275647 2.971382
vn -0.404243 0.903007 -0.145484
v -2.364143 0.977118 0.431457
vt -0.564845 2.989500
vn -0.311924 0.945268 0.095772
v -2.357965 0.976850 0.454666
vt -0.534810 2.989269
vn -0.323037 0.940895 0.101802
v -2.345656 0.976039 0.498155
vt -0.473111 2.984722
vn -0.328844 0.937505 0.113784
v -2.339049 0.975482 0.520083
vt -0.442566 2.982886
vn -0.328216 0.935599 0.130108
v -2.331967 0.974592 0.542655
vt -0.411093 2.984132
vn -0.327624 0.934291 0.140581
v -2.325726 0.973939 0.561354
vt -0.384839 2.987112
vn -0.326940 0.932584 0.152963
v -2.321558 0.973055 0.573664
vt -0.367649 2.989705
vn -0.325337 0.928883 0.177006
v -2.351409 1.052154 0.461946
vt -0.538494 2.877139
vn -0.506157 -0.324333 0.799133
v -2.342721 1.053185 0.468989
vt -0.523549 2.874589
vn -0.506157 -0.324333 0.799133
v -2.360248 1.010802 0.440690
vt -0.564021 2.935542
vn -0.479378 -0.336669 0.810463
v -2.351640 1.007062 0.443502
vt -0.551687 2.940771
vn -0.477083 -0.337633 0.811416
v -2.366043 0.977569 0.423236
vt -0.576947 2.985865
vn -0.457005 -0.296838 0.838471
usemtl Illumination
f 3/3/3 2/2/2 1/1/1
f 4/4/4 2/2/2 3/3/3
f 5/5/5 2/2/2 4/4/4
f 8/8/8 7/7/7 6/6/6
f 9/9/9 7/7/7 8/8/8
f 9/9/9 10/10/10 7/7/7
f 11/11/11 10/10/10 9/9/9
f 11/11/11 12/12/12 10/10/10
f 13/13/13 12/12/12 11/11/11
f 13/13/13 14/14/14 12/12/12
f 15/15/15 14/14/14 13/13/13
f 15/15/15 16/16/16 14/14/14
f 17/17/17 16/16/16 15/15/15
f 17/17/17 18/18/18 16/16/16
f 19/19/19 18/18/18 17/17/17
f 19/19/19 20/20/20 18/18/18
f 21/21/21 20/20/20 19/19/19
f 21/21/21 22/22/22 20/20/20
f 23/23/23 22/22/22 21/21/21
f 23/23/23 24/24/24 22/22/22
f 25/25/25 24/24/24 23/23/23
f 28/28/28 27/27/27 26/26/26
f 29/29/29 27/27/27 28/28/28
f 25/25/25 30/30/30 24/24/24
f 31/31/31 30/30/30 25/25/25
f 29/29/29 32/32/32 27/27/27
f 33/33/33 32/32/32 29/29/29
f 36/36/36 35/35/35 34/34/34
f 37/37/37 35/35/35 36/36/36
f 35/35/35 38/38/38 34/34/34
f 34/34/34 40/40/40 39/39/39
f 38/38/38 40/40/40 34/34/34
f 40/40/40 41/41/41 39/39/39
f 39/39/39 43/43/43 42/42/42
f 41/41/41 43/43/43 39/39/39
f 43/43/43 44/44/44 42/42/42
f 42/42/42 46/46/46 45/45/45
f 44/44/44 46/46/46 42/42/42
f 46/46/46 47/47/47 45/45/45
f 45/45/45 49/49/49 48/48/48
f 47/47/47 49/49/49 45/45/45
f 48/48/48 51/51/51 50/50/50
f 49/49/49 51/51/51 48/48/48
f 50/50/50 53/53/53 52/52/52
f 51/51/51 53/53/53 50/50/50
f 52/52/52 55/55/55 54/54/54
f 53/53/53 55/55/55 52/52/52
f 58/58/58 57/57/57 56/56/56
f 59/59/59 57/57/57 58/58/58
f 31/31/31 26/26/26 30/30/30
f 28/28/28 26/26/26 31/31/31
f 32/32/32 61/61/61 60/60/60
f 33/33/33 61/61/61 32/32/32
f 56/56/56 63/63/63 62/62/62
f 57/57/57 63/63/63 56/56/56
f 54/54/54 59/59/59 58/58/58
f 55/55/55 59/59/59 54/54/54
f 60/60/60 65/65/65 64/64/64
f 61/61/61 65/65/65 60/60/60
f 63/63/63 60/60/60 64/64/64
f 57/57/57 60/60/60 63/63/63
f 59/59/59 27/27/27 32/32/32
f 55/55/55 27/27/27 59/59/59
f 53/53/53 30/30/30 26/26/26
f 51/51/51 30/30/30 53/53/53
f 51/51/51 24/24/24 30/30/30
f 49/49/49 24/24/24 51/51/51
f 49/49/49 22/22/22 24/24/24
f 47/47/47 22/22/22 49/49/49
f 47/47/47 20/20/20 22/22/22
f 46/46/46 20/20/20 47/47/47
f 46/46/46 18/18/18 20/20/20
f 44/44/44 18/18/18 46/46/46
f 44/44/44 16/16/16 18/18/18
f 43/43/43 16/16/16 44/44/44
f 43/43/43 14/14/14 16/16/16
f 41/41/41 14/14/14 43/43/43
f 41/41/41 12/12/12 14/14/14
f 40/40/40 12/12/12 41/41/41
f 40/40/40 10/10/10 12/12/12
f 38/38/38 10/10/10 40/40/40
f 38/38/38 7/7/7 10/10/10
f 35/35/35 7/7/7 38/38/38
f 7/7/7 37/37/37 6/6/6
f 35/35/35 37/37/37 7/7/7
f 27/27/27 53/53/53 26/26/26
f 55/55/55 53/53/53 27/27/27
f 60/60/60 59/59/59 32/32/32
f 57/57/57 59/59/59 60/60/60
f 68/68/68 67/67/67 66/66/66
f 69/69/69 67/67/67 68/68/68
f 69/69/69 70/70/70 67/67/67
f 72/72/72 69/69/69 71/71/71
f 70/70/70 69/69/69 72/72/72
f 71/71/71 73/73/73 72/72/72
f 74/74/74 73/73/73 71/71/71
f 74/74/74 75/75/75 73/73/73
f 76/76/76 75/75/75 74/74/74
f 76/76/76 77/77/77 75/75/75
f 78/78/78 77/77/77 76/76/76
f 78/78/78 79/79/79 77/77/77
f 80/80/80 79/79/79 78/78/78
f 80/80/80 81/81/81 79/79/79
f 82/82/82 81/81/81 80/80/80
f 82/82/82 83/83/83 81/81/81
f 84/84/84 83/83/83 82/82/82
f 87/87/87 86/86/86 85/85/85
f 88/88/88 86/86/86 87/87/87
f 84/84/84 85/85/85 83/83/83
f 87/87/87 85/85/85 84/84/84
f 88/88/88 89/89/89 86/86/86
f 90/90/90 89/89/89 88/88/88
f 93/93/93 92/92/92 91/91/91
f 94/94/94 92/92/92 93/93/93
f 94/94/94 95/95/95 92/92/92
f 96/96/96 95/95/95 94/94/94
f 98/98/98 91/91/91 97/97/97
f 93/93/93 91/91/91 98/98/98
f 100/100/100 97/97/97 99/99/99
f 98/98/98 97/97/97 100/100/100
f 102/102/102 99/99/99 101/101/101
f 100/100/100 99/99/99 102/102/102
f 104/104/104 101/101/101 103/103/103
f 102/102/102 101/101/101 104/104/104
f 106/106/106 103/103/103 105/105/105
f 104/104/104 103/103/103 106/106/106
f 107/107/107 106/106/106 105/105/105
f 108/108/108 106/106/106 107/107/107
f 110/110/110 107/107/107 109/109/109
f 108/108/108 107/107/107 110/110/110
f 113/113/113 112/112/112 111/111/111
f 114/114/114 112/112/112 113/113/113
f 116/116/116 111/111/111 115/115/115
f 113/113/113 111/111/111 116/116/116
f 118/118/118 115/115/115 117/117/117
f 116/116/116 115/115/115 118/118/118
f 120/120/120 117/117/117 119/119/119
f 118/118/118 117/117/117 120/120/120
f 122/122/122 119/119/119 121/121/121
f 120/120/120 119/119/119 122/122/122
f 125/125/125 124/124/124 123/123/123
f 126/126/126 124/124/124 125/125/125
f 128/128/128 123/123/123 127/127/127
f 125/125/125 123/123/123 128/128/128
f 96/96/96 129/129/129 95/95/95
f 130/130/130 129/129/129 96/96/96
f 132/132/132 127/127/127 131/131/131
f 128/128/128 127/127/127 132/132/132
f 134/134/134 121/121/121 133/133/133
f 122/122/122 121/121/121 134/134/134
f 126/126/126 94/94/94 93/93/93
f 125/125/125 94/94/94 126/126/126
f 130/130/130 128/128/128 132/132/132
f 96/96/96 128/128/128 130/130/130
f 96/96/96 125/125/125 128/128/128
f 94/94/94 125/125/125 96/96/96
f 134/134/134 93/93/93 98/98/98
f 126/126/126 93/93/93 134/134/134
f 134/134/134 124/124/124 126/126/126
f 133/133/133 124/124/124 134/134/134
f 122/122/122 98/98/98 100/100/100
f 134/134/134 98/98/98 122/122/122
f 120/120/120 100/100/100 102/102/102
f 122/122/122 100/100/100 120/120/120
f 118/118/118 102/102/102 104/104/104
f 120/120/120 102/102/102 118/118/118
f 116/116/116 104/104/104 106/106/106
f 118/118/118 104/104/104 116/116/116
f 106/106/106 113/113/113 116/116/116
f 108/108/108 113/113/113 106/106/106
f 114/114/114 108/108/108 110/110/110
f 113/113/113 108/108/108 114/114/114
f 110/110/110 112/112/112 114/114/114
f 109/109/109 112/112/112 110/110/110
f 135/135/135 112/112/112 109/109/109
f 138/138/138 137/137/137 136/136/136
f 139/139/139 137/137/137 138/138/138
f 139/139/139 140/140/140 137/137/137
f 141/141/141 140/140/140 139/139/139
f 141/141/141 142/142/142 140/140/140
f 143/143/143 142/142/142 141/141/141
f 143/143/143 144/144/144 142/142/142
f 145/145/145 144/144/144 143/143/143
f 145/145/145 146/146/146 144/144/144
f 147/147/147 146/146/146 145/145/145
f 147/147/147 148/148/148 146/146/146
f 149/149/149 148/148/148 147/147/147
f 149/149/149 150/150/150 148/148/148
f 151/151/151 150/150/150 149/149/149
f 151/151/151 152/152/152 150/150/150
f 153/153/153 152/152/152 151/151/151
f 152/152/152 135/135/135 109/109/109
f 153/153/153 135/135/135 152/152/152
f 155/155/155 136/136/136 154/154/154
f 156/156/156 136/136/136 155/155/155
f 138/138/138 136/136/136 156/156/156
f 159/159/159 158/158/158 157/157/157
f 161/161/161 157/157/157 160/160/160
f 159/159/159 157/157/157 161/161/161
f 164/164/164 163/163/163 162/162/162
f 161/161/161 163/163/163 164/164/164
f 166/166/166 162/162/162 165/165/165
f 164/164/164 162/162/162 166/166/166
f 168/168/168 165/165/165 167/167/167
f 166/166/166 165/165/165 168/168/168
f 170/170/170 167/167/167 169/169/169
f 168/168/168 167/167/167 170/170/170
f 172/172/172 169/169/169 171/171/171
f 170/170/170 169/169/169 172/172/172
f 174/174/174 171/171/171 173/173/173
f 172/172/172 171/171/171 174/174/174
f 176/176/176 173/173/173 175/175/175
f 174/174/174 173/173/173 176/176/176
f 178/178/178 175/175/175 177/177/177
f 176/176/176 175/175/175 178/178/178
f 180/180/180 177/177/177 179/179/179
f 178/178/178 177/177/177 180/180/180
f 182/182/182 179/179/179 181/181/181
f 180/180/180 179/179/179 182/182/182
f 184/184/184 181/181/181 183/183/183
f 182/182/182 181/181/181 184/184/184
f 161/161/161 160/160/160 163/163/163
f 159/159/159 185/185/185 158/158/158
f 186/186/186 185/185/185 159/159/159
f 189/189/189 188/188/188 187/187/187
f 190/190/190 188/188/188 189/189/189
f 193/193/193 192/192/192 191/191/191
f 194/194/194 192/192/192 193/193/193
f 190/190/190 196/196/196 195/195/195
f 193/193/193 196/196/196 190/190/190
f 199/199/199 198/198/198 197/197/197
f 201/201/201 197/197/197 200/200/200
f 199/199/199 197/197/197 201/201/201
f 203/203/203 200/200/200 202/202/202
f 201/201/201 200/200/200 203/203/203
f 205/205/205 202/202/202 204/204/204
f 203/203/203 202/202/202 205/205/205
f 194/194/194 204/204/204 206/206/206
f 205/205/205 204/204/204 194/194/194
f 192/192/192 194/194/194 206/206/206
f 207/207/207 198/198/198 199/199/199
f 209/209/209 208/208/208 198/198/198
f 207/207/207 209/209/209 198/198/198
f 212/212/212 211/211/211 210/210/210
f 213/213/213 211/211/211 212/212/212
f 191/191/191 196/196/196 193/193/193
f 195/195/195 188/188/188 190/190/190
f 216/216/216 215/215/215 214/214/214
f 217/217/217 215/215/215 216/216/216
f 220/220/220 219/219/219 218/218/218
f 221/221/221 219/219/219 220/220/220
f 217/217/217 218/218/218 215/215/215
f 220/220/220 218/218/218 217/217/217
f 221/221/221 222/222/222 219/219/219
f 223/223/223 222/222/222 221/221/221
f 225/225/225 223/223/223 224/224/224
f 222/222/222 223/223/223 225/225/225
f 227/227/227 224/224/224 226/226/226
f 225/225/225 224/224/224 227/227/227
f 218/218/218 228/228/228 215/215/215
f 219/219/219 228/228/228 218/218/218
f 228/228/228 214/214/214 215/215/215
f 229/229/229 214/214/214 228/228/228
f 230/230/230 214/214/214 229/229/229
f 229/229/229 231/231/231 230/230/230
f 232/232/232 231/231/231 229/229/229
f 233/233/233 231/231/231 232/232/232
f 232/232/232 234/234/234 233/233/233
f 235/235/235 234/234/234 232/232/232
f 234/234/234 235/235/235 236/236/236
f 235/235/235 237/237/237 236/236/236
f 238/238/238 237/237/237 235/235/235
f 237/237/237 238/238/238 239/239/239
f 239/239/239 238/238/238 240/240/240
f 240/240/240 211/211/211 241/241/241
f 238/238/238 211/211/211 240/240/240
f 242/242/242 211/211/211 238/238/238
f 210/210/210 211/211/211 242/242/242
f 242/242/242 243/243/243 210/210/210
f 244/244/244 243/243/243 242/242/242
f 247/247/247 246/246/246 245/245/245
f 248/248/248 246/246/246 247/247/247
f 249/249/249 247/247/247 245/245/245
f 250/250/250 247/247/247 249/249/249
f 249/249/249 251/251/251 250/250/250
f 252/252/252 251/251/251 249/249/249
f 253/253/253 251/251/251 252/252/252
f 254/254/254 251/251/251 253/253/253
f 253/253/253 255/255/255 254/254/254
f 256/256/256 255/255/255 253/253/253
f 256/256/256 257/257/257 255/255/255
f 258/258/258 257/257/257 256/256/256
f 258/258/258 259/259/259 257/257/257
f 260/260/260 259/259/259 258/258/258
f 260/260/260 261/261/261 259/259/259
f 262/262/262 261/261/261 260/260/260
f 262/262/262 263/263/263 261/261/261
f 264/264/264 263/263/263 262/262/262
f 264/264/264 265/265/265 263/263/263
f 266/266/266 265/265/265 264/264/264
f 266/266/266 267/267/267 265/265/265
f 268/268/268 267/267/267 266/266/266
f 271/271/271 270/270/270 269/269/269
f 269/269/269 272/272/272 271/271/271
f 273/273/273 272/272/272 269/269/269
f 273/273/273 274/274/274 272/272/272
f 275/275/275 274/274/274 273/273/273
f 275/275/275 276/276/276 274/274/274
f 277/277/277 276/276/276 275/275/275
f 277/277/277 278/278/278 276/276/276
f 281/281/281 280/280/280 279/279/279
f 284/284/284 283/283/283 282/282/282
f 285/285/285 283/283/283 284/284/284
f 281/281/281 278/278/278 277/277/277
f 281/281/281 279/279/279 278/278/278
f 284/284/284 280/280/280 281/281/281
f 284/284/284 282/282/282 280/280/280
f 288/288/288 287/287/287 286/286/286
f 287/287/287 288/288/288 289/289/289
f 290/290/290 287/287/287 289/289/289
f 290/290/290 267/267/267 268/268/268
f 289/289/289 267/267/267 290/290/290
f 291/291/291 248/248/248 247/247/247
f 292/292/292 248/248/248 291/291/291
f 247/247/247 293/293/293 291/291/291
f 250/250/250 293/293/293 247/247/247
f 294/294/294 250/250/250 251/251/251
f 293/293/293 250/250/250 294/294/294
f 295/295/295 251/251/251 254/254/254
f 294/294/294 251/251/251 295/295/295
f 296/296/296 254/254/254 255/255/255
f 295/295/295 254/254/254 296/296/296
f 297/297/297 255/255/255 257/257/257
f 296/296/296 255/255/255 297/297/297
f 300/300/300 299/299/299 298/298/298
f 301/301/301 299/299/299 300/300/300
f 300/300/300 246/246/246 302/302/302
f 298/298/298 246/246/246 300/300/300
f 302/302/302 246/246/246 248/248/248
f 292/292/292 302/302/302 248/248/248
f 216/216/216 214/214/214 230/230/230
f 305/305/305 304/304/304 303/303/303
f 306/306/306 304/304/304 305/305/305
f 307/307/307 304/304/304 306/306/306
f 310/310/310 309/309/309 308/308/308
f 311/311/311 309/309/309 310/310/310
f 308/308/308 313/313/313 312/312/312
f 309/309/309 313/313/313 308/308/308
f 312/312/312 315/315/315 314/314/314
f 313/313/313 315/315/315 312/312/312
f 314/314/314 317/317/317 316/316/316
f 315/315/315 317/317/317 314/314/314
f 316/316/316 319/319/319 318/318/318
f 317/317/317 319/319/319 316/316/316
f 318/318/318 321/321/321 320/320/320
f 319/319/319 321/321/321 318/318/318
f 320/320/320 323/323/323 322/322/322
f 321/321/321 323/323/323 320/320/320
f 322/322/322 325/325/325 324/324/324
f 323/323/323 325/325/325 322/322/322
f 324/324/324 327/327/327 326/326/326
f 325/325/325 327/327/327 324/324/324
f 330/330/330 329/329/329 328/328/328
f 331/331/331 329/329/329 330/330/330
f 326/326/326 333/333/333 332/332/332
f 327/327/327 333/333/333 326/326/326
f 328/328/328 335/335/335 334/334/334
f 329/329/329 335/335/335 328/328/328
f 338/338/338 337/337/337 336/336/336
f 339/339/339 337/337/337 338/338/338
f 339/339/339 340/340/340 337/337/337
f 339/339/339 341/341/341 340/340/340
f 342/342/342 341/341/341 339/339/339
f 342/342/342 343/343/343 341/341/341
f 342/342/342 344/344/344 343/343/343
f 345/345/345 344/344/344 342/342/342
f 345/345/345 346/346/346 344/344/344
f 345/345/345 347/347/347 346/346/346
f 348/348/348 347/347/347 345/345/345
f 348/348/348 349/349/349 347/347/347
f 348/348/348 350/350/350 349/349/349
f 351/351/351 350/350/350 348/348/348
f 351/351/351 352/352/352 350/350/350
f 353/353/353 352/352/352 351/351/351
f 353/353/353 354/354/354 352/352/352
f 355/355/355 354/354/354 353/353/353
f 355/355/355 356/356/356 354/354/354
f 357/357/357 356/356/356 355/355/355
f 360/360/360 359/359/359 358/358/358
f 361/361/361 359/359/359 360/360/360
f 332/332/332 331/331/331 330/330/330
f 333/333/333 331/331/331 332/332/332
f 335/335/335 362/362/362 334/334/334
f 363/363/363 362/362/362 335/335/335
f 361/361/361 364/364/364 359/359/359
f 365/365/365 364/364/364 361/361/361
f 357/357/357 358/358/358 356/356/356
f 360/360/360 358/358/358 357/357/357
f 363/363/363 366/366/366 362/362/362
f 367/367/367 366/366/366 363/363/363
f 364/364/364 363/363/363 359/359/359
f 367/367/367 363/363/363 364/364/364
f 358/358/358 329/329/329 356/356/356
f 335/335/335 329/329/329 358/358/358
f 354/354/354 333/333/333 352/352/352
f 331/331/331 333/333/333 354/354/354
f 352/352/352 327/327/327 350/350/350
f 333/333/333 327/327/327 352/352/352
f 350/350/350 325/325/325 349/349/349
f 327/327/327 325/325/325 350/350/350
f 349/349/349 323/323/323 347/347/347
f 325/325/325 323/323/323 349/349/349
f 347/347/347 321/321/321 346/346/346
f 323/323/323 321/321/321 347/347/347
f 346/346/346 319/319/319 344/344/344
f 321/321/321 319/319/319 346/346/346
f 344/344/344 317/317/317 343/343/343
f 319/319/319 317/317/317 344/344/344
f 343/343/343 315/315/315 341/341/341
f 317/317/317 315/315/315 343/343/343
f 341/341/341 313/313/313 340/340/340
f 315/315/315 313/313/313 341/341/341
f 340/340/340 309/309/309 337/337/337
f 313/313/313 309/309/309 340/340/340
f 309/309/309 336/336/336 337/337/337
f 311/311/311 336/336/336 309/309/309
f 329/329/329 354/354/354 356/356/356
f 331/331/331 354/354/354 329/329/329
f 363/363/363 358/358/358 359/359/359
f 335/335/335 358/358/358 363/363/363
f 370/370/370 369/369/369 368/368/368
f 371/371/371 369/369/369 370/370/370
f 369/369/369 372/372/372 368/368/368
f 373/373/373 368/368/368 372/372/372
f 374/374/374 368/368/368 373/373/373
f 374/374/374 376/376/376 375/375/375
f 373/373/373 376/376/376 374/374/374
f 375/375/375 378/378/378 377/377/377
f 376/376/376 378/378/378 375/375/375
f 377/377/377 380/380/380 379/379/379
f 378/378/378 380/380/380 377/377/377
f 379/379/379 382/382/382 381/381/381
f 380/380/380 382/382/382 379/379/379
f 381/381/381 384/384/384 383/383/383
f 382/382/382 384/384/384 381/381/381
f 383/383/383 386/386/386 385/385/385
f 384/384/384 386/386/386 383/383/383
f 389/389/389 388/388/388 387/387/387
f 390/390/390 388/388/388 389/389/389
f 385/385/385 390/390/390 389/389/389
f 386/386/386 390/390/390 385/385/385
f 387/387/387 392/392/392 391/391/391
f 388/388/388 392/392/392 387/387/387
f 395/395/395 394/394/394 393/393/393
f 396/396/396 394/394/394 395/395/395
f 393/393/393 398/398/398 397/397/397
f 394/394/394 398/398/398 393/393/393
f 399/399/399 396/396/396 395/395/395
f 400/400/400 396/396/396 399/399/399
f 401/401/401 400/400/400 399/399/399
f 402/402/402 400/400/400 401/401/401
f 403/403/403 402/402/402 401/401/401
f 404/404/404 402/402/402 403/403/403
f 405/405/405 404/404/404 403/403/403
f 406/406/406 404/404/404 405/405/405
f 407/407/407 406/406/406 405/405/405
f 408/408/408 406/406/406 407/407/407
f 410/410/410 407/407/407 409/409/409
f 408/408/408 407/407/407 410/410/410
f 411/411/411 410/410/410 409/409/409
f 412/412/412 410/410/410 411/411/411
f 415/415/415 414/414/414 413/413/413
f 416/416/416 414/414/414 415/415/415
f 417/417/417 416/416/416 415/415/415
f 418/418/418 416/416/416 417/417/417
f 419/419/419 418/418/418 417/417/417
f 420/420/420 418/418/418 419/419/419
f 421/421/421 420/420/420 419/419/419
f 422/422/422 420/420/420 421/421/421
f 423/423/423 422/422/422 421/421/421
f 424/424/424 422/422/422 423/423/423
f 427/427/427 426/426/426 425/425/425
f 428/428/428 426/426/426 427/427/427
f 429/429/429 428/428/428 427/427/427
f 430/430/430 428/428/428 429/429/429
f 397/397/397 432/432/432 431/431/431
f 398/398/398 432/432/432 397/397/397
f 433/433/433 430/430/430 429/429/429
f 434/434/434 430/430/430 433/433/433
f 435/435/435 424/424/424 423/423/423
f 436/436/436 424/424/424 435/435/435
f 425/425/425 393/393/393 427/427/427
f 395/395/395 393/393/393 425/425/425
f 431/431/431 429/429/429 397/397/397
f 433/433/433 429/429/429 431/431/431
f 397/397/397 427/427/427 393/393/393
f 429/429/429 427/427/427 397/397/397
f 435/435/435 395/395/395 425/425/425
f 399/399/399 395/395/395 435/435/435
f 435/435/435 426/426/426 436/436/436
f 425/425/425 426/426/426 435/435/435
f 423/423/423 399/399/399 435/435/435
f 401/401/401 399/399/399 423/423/423
f 421/421/421 401/401/401 423/423/423
f 403/403/403 401/401/401 421/421/421
f 419/419/419 403/403/403 421/421/421
f 405/405/405 403/403/403 419/419/419
f 417/417/417 405/405/405 419/419/419
f 407/407/407 405/405/405 417/417/417
f 407/407/407 415/415/415 409/409/409
f 417/417/417 415/415/415 407/407/407
f 413/413/413 409/409/409 415/415/415
f 411/411/411 409/409/409 413/413/413
f 412/412/412 414/414/414 437/437/437
f 411/411/411 414/414/414 412/412/412
f 413/413/413 414/414/414 411/411/411
f 440/440/440 439/439/439 438/438/438
f 441/441/441 439/439/439 440/440/440
f 438/438/438 443/443/443 442/442/442
f 439/439/439 443/443/443 438/438/438
f 442/442/442 445/445/445 444/444/444
f 443/443/443 445/445/445 442/442/442
f 444/444/444 447/447/447 446/446/446
f 445/445/445 447/447/447 444/444/444
f 446/446/446 449/449/449 448/448/448
f 447/447/447 449/449/449 446/446/446
f 448/448/448 451/451/451 450/450/450
f 449/449/449 451/451/451 448/448/448
f 450/450/450 453/453/453 452/452/452
f 451/451/451 453/453/453 450/450/450
f 452/452/452 455/455/455 454/454/454
f 453/453/453 455/455/455 452/452/452
f 455/455/455 437/437/437 454/454/454
f 412/412/412 437/437/437 455/455/455
f 456/456/456 441/441/441 440/440/440
f 457/457/457 441/441/441 456/456/456
f 458/458/458 441/441/441 457/457/457
f 461/461/461 460/460/460 459/459/459
f 462/462/462 461/461/461 459/459/459
f 463/463/463 461/461/461 462/462/462
f 465/465/465 464/464/464 462/462/462
f 466/466/466 464/464/464 465/465/465
f 467/467/467 466/466/466 465/465/465
f 468/468/468 466/466/466 467/467/467
f 469/469/469 468/468/468 467/467/467
f 470/470/470 468/468/468 469/469/469
f 471/471/471 470/470/470 469/469/469
f 472/472/472 470/470/470 471/471/471
f 473/473/473 472/472/472 471/471/471
f 474/474/474 472/472/472 473/473/473
f 475/475/475 474/474/474 473/473/473
f 476/476/476 474/474/474 475/475/475
f 477/477/477 476/476/476 475/475/475
f 478/478/478 476/476/476 477/477/477
f 479/479/479 478/478/478 477/477/477
f 480/480/480 478/478/478 479/479/479
f 481/481/481 480/480/480 479/479/479
f 482/482/482 480/480/480 481/481/481
f 483/483/483 482/482/482 481/481/481
f 484/484/484 482/482/482 483/483/483
f 485/485/485 484/484/484 483/483/483
f 486/486/486 484/484/484 485/485/485
f 464/464/464 463/463/463 462/462/462
f 459/459/459 488/488/488 487/487/487
f 460/460/460 488/488/488 459/459/459
f 491/491/491 490/490/490 489/489/489
f 492/492/492 490/490/490 491/491/491
f 495/495/495 494/494/494 493/493/493
f 496/496/496 494/494/494 495/495/495
f 489/489/489 497/497/497 495/495/495
f 498/498/498 497/497/497 489/489/489
f 501/501/501 500/500/500 499/499/499
f 502/502/502 501/501/501 499/499/499
f 503/503/503 501/501/501 502/502/502
f 504/504/504 503/503/503 502/502/502
f 505/505/505 503/503/503 504/504/504
f 506/506/506 505/505/505 504/504/504
f 507/507/507 505/505/505 506/506/506
f 493/493/493 507/507/507 506/506/506
f 508/508/508 507/507/507 493/493/493
f 508/508/508 493/493/493 494/494/494
f 499/499/499 500/500/500 509/509/509
f 500/500/500 511/511/511 510/510/510
f 500/500/500 510/510/510 509/509/509
f 514/514/514 513/513/513 512/512/512
f 515/515/515 513/513/513 514/514/514
f 495/495/495 497/497/497 496/496/496
f 489/489/489 490/490/490 498/498/498
f 518/518/518 517/517/517 516/516/516
f 519/519/519 517/517/517 518/518/518
f 522/522/522 521/521/521 520/520/520
f 523/523/523 521/521/521 522/522/522
f 516/516/516 523/523/523 522/522/522
f 517/517/517 523/523/523 516/516/516
f 520/520/520 525/525/525 524/524/524
f 521/521/521 525/525/525 520/520/520
f 526/526/526 524/524/524 525/525/525
f 527/527/527 524/524/524 526/526/526
f 528/528/528 527/527/527 526/526/526
f 529/529/529 527/527/527 528/528/528
f 523/523/523 530/530/530 521/521/521
f 517/517/517 530/530/530 523/523/523
f 530/530/530 519/519/519 531/531/531
f 517/517/517 519/519/519 530/530/530
f 531/531/531 519/519/519 532/532/532
f 531/531/531 534/534/534 533/533/533
f 532/532/532 534/534/534 531/531/531
f 533/533/533 534/534/534 535/535/535
f 533/533/533 537/537/537 536/536/536
f 535/535/535 537/537/537 533/533/533
f 538/538/538 536/536/536 537/537/537
f 536/536/536 540/540/540 539/539/539
f 538/538/538 540/540/540 536/536/536
f 541/541/541 539/539/539 540/540/540
f 542/542/542 539/539/539 541/541/541
f 543/543/543 513/513/513 515/515/515
f 539/539/539 513/513/513 543/543/543
f 542/542/542 513/513/513 539/539/539
f 544/544/544 513/513/513 542/542/542
f 543/543/543 546/546/546 545/545/545
f 515/515/515 546/546/546 543/543/543
f 549/549/549 548/548/548 547/547/547
f 550/550/550 548/548/548 549/549/549
f 552/552/552 549/549/549 551/551/551
f 550/550/550 549/549/549 552/552/552
f 552/552/552 554/554/554 553/553/553
f 551/551/551 554/554/554 552/552/552
f 556/556/556 554/554/554 555/555/555
f 553/553/553 554/554/554 556/556/556
f 556/556/556 558/558/558 557/557/557
f 555/555/555 558/558/558 556/556/556
f 557/557/557 560/560/560 559/559/559
f 558/558/558 560/560/560 557/557/557
f 559/559/559 562/562/562 561/561/561
f 560/560/560 562/562/562 559/559/559
f 561/561/561 564/564/564 563/563/563
f 562/562/562 564/564/564 561/561/561
f 563/563/563 566/566/566 565/565/565
f 564/564/564 566/566/566 563/563/563
f 565/565/565 568/568/568 567/567/567
f 566/566/566 568/568/568 565/565/565
f 567/567/567 570/570/570 569/569/569
f 568/568/568 570/570/570 567/567/567
f 573/573/573 572/572/572 571/571/571
f 573/573/573 575/575/575 574/574/574
f 571/571/571 575/575/575 573/573/573
f 574/574/574 577/577/577 576/576/576
f 575/575/575 577/577/577 574/574/574
f 576/576/576 579/579/579 578/578/578
f 577/577/577 579/579/579 576/576/576
f 579/579/579 580/580/580 578/578/578
f 583/583/583 582/582/582 581/581/581
f 586/586/586 585/585/585 584/584/584
f 587/587/587 585/585/585 586/586/586
f 578/578/578 580/580/580 581/581/581
f 580/580/580 583/583/583 581/581/581
f 581/581/581 582/582/582 586/586/586
f 582/582/582 587/587/587 586/586/586
f 590/590/590 589/589/589 588/588/588
f 591/591/591 588/588/588 589/589/589
f 591/591/591 589/589/589 592/592/592
f 592/592/592 570/570/570 591/591/591
f 569/569/569 570/570/570 592/592/592
f 594/594/594 547/547/547 593/593/593
f 549/549/549 547/547/547 594/594/594
f 549/549/549 595/595/595 551/551/551
f 594/594/594 595/595/595 549/549/549
f 596/596/596 551/551/551 595/595/595
f 554/554/554 551/551/551 596/596/596
f 597/597/597 554/554/554 596/596/596
f 555/555/555 554/554/554 597/597/597
f 598/598/598 555/555/555 597/597/597
f 558/558/558 555/555/555 598/598/598
f 599/599/599 558/558/558 598/598/598
f 560/560/560 558/558/558 599/599/599
f 602/602/602 601/601/601 600/600/600
f 603/603/603 601/601/601 602/602/602
f 602/602/602 548/548/548 603/603/603
f 604/604/604 548/548/548 602/602/602
f 547/547/547 548/548/548 604/604/604
f 547/547/547 604/604/604 593/593/593
f 532/532/532 519/519/519 518/518/518
