# Exported from Godot Engine
mtllib Hood_Hinge_1.mtl
o Hood_Hinge_1
v 1.422941 1.037868 0.812715
vt 0.515606 0.941230
vn -0.000015 -0.000015 1.000000
v 1.423119 1.027879 0.812715
vt 0.517484 0.943389
vn -0.000015 -0.000015 1.000000
v 1.413198 1.047465 0.812715
vt 0.512541 0.940530
vn -0.000015 -0.000015 1.000000
v 1.404656 1.046065 0.812715
vt 0.511418 0.942983
vn -0.000015 -0.000015 1.000000
v 1.422941 1.037868 0.812715
vt 0.515606 0.941230
vn 0.892073 0.451891 0.000021
v 1.413198 1.047465 0.812715
vt 0.512541 0.940530
vn 0.409087 0.912495 0.000061
v 1.422941 1.037868 0.808641
vt 0.515771 0.940157
vn 0.892073 0.451891 0.000021
v 1.413198 1.047465 0.808641
vt 0.512175 0.939479
vn 0.409069 0.912504 0.000141
v 1.397406 1.012350 0.808641
vt 0.515454 0.950314
vn -0.462990 -0.886364 -0.000021
v 1.387627 1.022087 0.808641
vt 0.511793 0.948628
vn -0.891412 -0.453195 -0.000021
v 1.397406 1.012350 0.812715
vt 0.515366 0.949739
vn -0.462990 -0.886364 -0.000021
v 1.387627 1.022087 0.812715
vt 0.512218 0.948395
vn -0.891412 -0.453195 -0.000021
v 1.494864 0.949159 0.810533
vt 0.544512 0.941395
vn 0.899789 -0.436326 0.000020
v 1.486685 0.940667 0.810533
vt 0.544667 0.944411
vn 0.464886 -0.885371 0.000021
v 1.494864 0.949159 0.814606
vt 0.543633 0.941588
vn 0.899789 -0.436326 0.000020
v 1.486685 0.940667 0.814606
vt 0.543752 0.944891
vn 0.464886 -0.885371 0.000021
v 1.486685 0.940667 0.810533
vt 0.585610 0.911507
vn 0.000000 0.000000 -1.000000
v 1.494864 0.949159 0.810533
vt 0.582909 0.911957
vn 0.000000 0.000000 -1.000000
v 1.464556 0.962725 0.810533
vt 0.586030 0.900666
vn 0.000000 0.000000 -1.000000
v 1.472720 0.971005 0.810533
vt 0.582798 0.900542
vn -0.134075 -0.135985 -0.981597
v 1.494757 0.957313 0.814606
vt 0.542270 0.940872
vn 0.807266 0.590187 0.000021
v 1.473838 0.977920 0.814606
vt 0.535005 0.941893
vn 0.701778 0.712395 0.000022
v 1.494757 0.957313 0.810533
vt 0.542507 0.940103
vn 0.807266 0.590187 0.000021
v 1.473838 0.977920 0.810533
vt 0.535021 0.940891
vn 0.701778 0.712395 0.000022
v 1.494757 0.957313 0.814606
vt 0.542270 0.940872
vn -0.000015 -0.000015 1.000000
v 1.494864 0.949159 0.814606
vt 0.543633 0.941588
vn -0.000015 -0.000015 1.000000
v 1.473838 0.977920 0.814606
vt 0.535005 0.941893
vn -0.000015 -0.000015 1.000000
v 1.478530 0.940581 0.810533
vt 0.542748 0.947967
vn -0.581158 -0.813791 -0.000149
v 1.457543 0.961479 0.810533
vt 0.535056 0.949555
vn -0.705595 -0.708616 -0.000065
v 1.478530 0.940581 0.814606
vt 0.542457 0.946747
vn -0.581166 -0.813785 -0.000064
v 1.457543 0.961479 0.814606
vt 0.535021 0.948556
vn -0.705595 -0.708616 -0.000065
v 1.404656 1.046065 0.812715
vt 0.511418 0.942983
vn -0.161713 0.986838 0.000018
v 1.404656 1.046065 0.808641
vt 0.510506 0.942294
vn -0.161713 0.986838 0.000018
v 1.413198 1.047465 0.808641
vt 0.580505 0.879213
vn 0.000000 0.000000 -1.000000
v 1.404656 1.046065 0.808641
vt 0.582111 0.877927
vn 0.000000 0.000000 -1.000000
v 1.422941 1.037868 0.808641
vt 0.580480 0.882829
vn 0.000000 0.000000 -1.000000
v 1.423119 1.027879 0.808641
vt 0.582061 0.885044
vn 0.034094 -0.029910 -0.998971
v 1.423119 1.027879 0.808641
vt 0.517642 0.942284
vn 0.880098 0.474793 0.000021
v 1.423119 1.027879 0.812715
vt 0.517484 0.943389
vn 0.866965 0.498370 0.000021
v 1.388130 1.030595 0.808641
vt 0.510177 0.947143
vn -0.998259 0.058981 -0.000016
v 1.388130 1.030595 0.812715
vt 0.511086 0.946979
vn -0.998259 0.058981 -0.000016
v 1.387627 1.022087 0.812715
vt 0.512218 0.948395
vn -0.000015 -0.000015 1.000000
v 1.388130 1.030595 0.812715
vt 0.511086 0.946979
vn -0.000015 -0.000015 1.000000
v 1.397406 1.012350 0.812715
vt 0.515366 0.949739
vn -0.000015 -0.000015 1.000000
v 1.406659 1.012146 0.812715
vt 0.517236 0.949395
vn -0.000015 -0.000015 1.000000
v 1.406659 1.012146 0.812715
vt 0.517236 0.949395
vn -0.507091 -0.861892 -0.000063
v 1.406659 1.012146 0.808641
vt 0.517358 0.950284
vn -0.484878 -0.874582 -0.000021
v 1.397406 1.012350 0.808641
vt 0.588921 0.883026
vn 0.000000 0.000000 -1.000000
v 1.406659 1.012146 0.808641
vt 0.587532 0.884896
vn 0.028777 -0.035330 -0.998961
v 1.387627 1.022087 0.808641
vt 0.588784 0.879510
vn 0.000000 0.000000 -1.000000
v 1.388130 1.030595 0.808641
vt 0.587273 0.878080
vn 0.000000 0.000000 -1.000000
v 1.478530 0.940581 0.814606
vt 0.542457 0.946747
vn -0.000015 -0.000015 1.000000
v 1.457543 0.961479 0.814606
vt 0.535021 0.948556
vn -0.000015 -0.000015 1.000000
v 1.486685 0.940667 0.814606
vt 0.543752 0.944891
vn -0.000015 -0.000015 1.000000
v 1.470804 0.969063 0.814606
vt 0.536023 0.944486
vn -0.000015 -0.000015 1.000000
v 1.466476 0.964673 0.814606
vt 0.536019 0.946171
vn -0.000015 -0.000015 1.000000
v 1.494757 0.957313 0.810533
vt 0.581578 0.909717
vn 0.000000 0.000000 -1.000000
v 1.473838 0.977920 0.810533
vt 0.581491 0.899528
vn 0.000000 0.000000 -1.000000
v 1.419030 1.023971 0.808641
vt 0.583360 0.885339
vn -0.141062 -0.232549 -0.962301
v 1.410905 1.016205 0.808641
vt 0.586190 0.885305
vn 0.042397 -0.052030 -0.997745
v 1.478530 0.940581 0.810533
vt 0.587014 0.909468
vn 0.000000 0.000000 -1.000000
v 1.457543 0.961479 0.810533
vt 0.587406 0.899701
vn 0.000000 0.000000 -1.000000
v 1.418670 1.000186 0.810533
vt 0.521755 0.947961
vn -0.705595 -0.708616 -0.000065
v 1.418670 1.000186 0.814606
vt 0.521801 0.946901
vn -0.705595 -0.708616 -0.000065
v 1.418670 1.000186 0.814606
vt 0.521801 0.946901
vn -0.022209 0.024700 0.999448
v 1.462618 0.964656 0.814606
vt 0.535282 0.947136
vn -0.000015 -0.000015 1.000000
v 1.425117 1.002038 0.814606
vt 0.522674 0.945426
vn -0.012512 0.013890 0.999825
v 1.435091 1.016086 0.814606
vt 0.521869 0.940895
vn -0.023531 0.022478 0.999470
v 1.433221 1.009971 0.814606
vt 0.522652 0.942089
vn -0.013803 0.013177 0.999818
v 1.470778 0.972921 0.814606
vt 0.535295 0.943300
vn -0.000015 -0.000015 1.000000
v 1.435091 1.016086 0.814606
vt 0.521869 0.940895
vn 0.701778 0.712395 0.000022
v 1.435091 1.016086 0.810533
vt 0.521822 0.940036
vn 0.701778 0.712395 0.000022
v 1.435091 1.016086 0.810533
vt 0.581520 0.887176
vn 0.022180 -0.019511 -0.999564
v 1.431703 1.011469 0.810533
vt 0.582798 0.887279
vn -0.285350 -0.317827 -0.904191
v 1.418670 1.000186 0.810533
vt 0.587963 0.887208
vn 0.019379 -0.023802 -0.999529
v 1.423569 1.003582 0.810533
vt 0.586631 0.887313
vn 0.013580 -0.016724 -0.999768
v 1.466476 0.964673 0.817572
vt 0.535729 0.945527
vn 0.013284 -0.024715 0.999606
v 1.470804 0.969063 0.817572
vt 0.535755 0.943848
vn 0.024871 -0.013029 0.999606
v 1.466476 0.964673 0.814606
vt 0.536019 0.946171
vn 0.473979 -0.880536 -0.000021
v 1.470804 0.969063 0.814606
vt 0.536023 0.944486
vn 0.886608 -0.462522 0.000021
v 1.425117 1.002038 0.817572
vt 0.522774 0.945199
vn -0.111712 -0.112414 0.987362
v 1.462618 0.964656 0.817572
vt 0.535164 0.946128
vn -0.111416 -0.123301 0.986095
v 1.425117 1.002038 0.814606
vt 0.522674 0.945426
vn -0.706005 -0.708207 -0.000022
v 1.462618 0.964656 0.814606
vt 0.535282 0.947136
vn -0.670398 -0.742001 0.000151
v 1.470778 0.972921 0.817572
vt 0.535206 0.943264
vn 0.121796 0.111893 0.986228
v 1.433221 1.009971 0.817572
vt 0.522735 0.943264
vn 0.109978 0.111454 0.987665
v 1.470778 0.972921 0.814606
vt 0.535295 0.943300
vn 0.736421 0.676524 0.000065
v 1.433221 1.009971 0.814606
vt 0.522652 0.942089
vn 0.702300 0.711881 0.000022
v 1.464556 0.962725 0.813232
vt 0.585558 0.901053
vn 0.129424 0.195323 -0.972162
v 1.423569 1.003582 0.813232
vt 0.586011 0.887204
vn 0.177927 0.143931 -0.973461
v 1.464556 0.962725 0.810533
vt 0.586030 0.900666
vn 0.706005 0.708207 0.000065
v 1.423569 1.003582 0.810533
vt 0.586631 0.887313
vn 0.706005 0.708207 0.000065
v 1.472720 0.971005 0.813232
vt 0.583282 0.901082
vn -0.192993 -0.130086 -0.972539
v 1.431703 1.011469 0.813232
vt 0.583417 0.887369
vn -0.141086 -0.176486 -0.974139
v 1.464556 0.962725 0.810533
vt 0.586030 0.900666
vn -0.712117 0.702061 -0.000022
v 1.472720 0.971005 0.810533
vt 0.582798 0.900542
vn -0.712117 0.702061 -0.000022
v 1.429251 1.009989 0.817572
vt 0.522167 0.943623
vn -0.000015 -0.000015 1.000000
v 1.425145 1.006008 0.817572
vt 0.522175 0.944796
vn -0.000015 -0.000015 1.000000
v 1.410905 1.016205 0.808641
vt 0.586190 0.885305
vn 0.000000 0.000000 -1.000000
v 1.419030 1.023971 0.808641
vt 0.583360 0.885339
vn 0.000000 0.000000 -1.000000
v 1.410905 1.016205 0.808641
vt 0.586190 0.885305
vn 0.690895 -0.722955 -0.000022
v 1.410905 1.016205 0.811340
vt 0.585840 0.884821
vn 0.690895 -0.722955 -0.000022
v 1.419030 1.023971 0.808641
vt 0.583360 0.885339
vn 0.690895 -0.722955 -0.000022
v 1.419030 1.023971 0.811340
vt 0.583703 0.884958
vn 0.690895 -0.722955 -0.000022
v 1.404656 1.046065 0.808641
vt 0.510506 0.942294
vn -0.683452 0.729996 -0.000022
v 1.404656 1.046065 0.812715
vt 0.511418 0.942983
vn -0.683452 0.729996 -0.000022
v 1.388130 1.030595 0.808641
vt 0.510177 0.947143
vn -0.683452 0.729996 -0.000022
v 1.388130 1.030595 0.812715
vt 0.511086 0.946979
vn -0.683452 0.729996 -0.000022
v 1.425145 1.006008 0.814606
vt 0.521814 0.944526
vn -0.072705 0.076894 0.994385
v 1.406659 1.012146 0.812715
vt 0.517236 0.949395
vn -0.074104 0.077882 0.994205
v 1.429251 1.009989 0.814606
vt 0.521824 0.942983
vn -0.074120 0.075796 0.994365
v 1.423119 1.027879 0.812715
vt 0.517484 0.943389
vn -0.074928 0.077377 0.994182
v 1.419030 1.023971 0.811340
vt 0.583703 0.884958
vn -0.098499 -0.245389 -0.964408
v 1.410905 1.016205 0.811340
vt 0.585840 0.884821
vn 0.247618 0.103709 -0.963291
v 1.410905 1.016205 0.808641
vt 0.586190 0.885305
vn 0.706005 0.708207 0.000065
v 1.429251 1.009989 0.817572
vt 0.522167 0.943623
vn -0.696039 0.718004 -0.000022
v 1.425145 1.006008 0.817572
vt 0.522175 0.944796
vn -0.696039 0.718004 -0.000022
v 1.429251 1.009989 0.814606
vt 0.521824 0.942983
vn -0.696039 0.718004 -0.000022
v 1.425145 1.006008 0.814606
vt 0.521814 0.944526
vn -0.696039 0.718004 -0.000022
v 1.425117 1.002038 0.817572
vt 0.522774 0.945199
vn -0.999976 0.006976 -0.000015
v 1.425117 1.002038 0.814606
vt 0.522674 0.945426
vn -0.999976 0.006976 -0.000015
v 1.425145 1.006008 0.817572
vt 0.522175 0.944796
vn -0.999976 0.006976 -0.000015
v 1.425145 1.006008 0.814606
vt 0.521814 0.944526
vn -0.999976 0.006976 -0.000015
v 1.433221 1.009971 0.814606
vt 0.522652 0.942089
vn 0.004399 0.999990 0.000015
v 1.433221 1.009971 0.817572
vt 0.522735 0.943264
vn 0.004399 0.999990 0.000015
v 1.429251 1.009989 0.814606
vt 0.521824 0.942983
vn 0.004399 0.999990 0.000015
v 1.429251 1.009989 0.817572
vt 0.522167 0.943623
vn 0.004399 0.999990 0.000015
v 1.413198 1.047465 -0.808641
vt 0.512175 0.939479
vn 0.409087 0.912495 0.000061
v 1.413198 1.047465 -0.812714
vt 0.512541 0.940530
vn 0.409069 0.912504 0.000141
v 1.422941 1.037868 -0.808641
vt 0.515771 0.940157
vn 0.892073 0.451891 0.000021
v 1.422941 1.037868 -0.812714
vt 0.515606 0.941230
vn 0.892073 0.451891 0.000021
v 1.387627 1.022087 -0.812714
vt 0.512218 0.948395
vn -0.891412 -0.453195 -0.000021
v 1.387627 1.022087 -0.808641
vt 0.511793 0.948628
vn -0.891412 -0.453195 -0.000021
v 1.397406 1.012350 -0.812714
vt 0.515366 0.949739
vn -0.462990 -0.886364 -0.000021
v 1.397406 1.012350 -0.808641
vt 0.515454 0.950314
vn -0.462990 -0.886364 -0.000021
v 1.486685 0.940667 -0.814606
vt 0.543752 0.944891
vn 0.464886 -0.885371 0.000021
v 1.486685 0.940667 -0.810533
vt 0.544667 0.944411
vn 0.464886 -0.885371 0.000021
v 1.494864 0.949159 -0.814606
vt 0.543633 0.941588
vn 0.899789 -0.436326 0.000020
v 1.494864 0.949159 -0.810533
vt 0.544512 0.941395
vn 0.899789 -0.436326 0.000020
v 1.472720 0.971005 -0.810533
vt 0.582798 0.900542
vn -0.134141 -0.136013 0.981584
v 1.494864 0.949159 -0.810533
vt 0.582909 0.911957
vn -0.000015 -0.000015 1.000000
v 1.464556 0.962725 -0.810533
vt 0.586030 0.900666
vn -0.000015 -0.000015 1.000000
v 1.486685 0.940667 -0.810533
vt 0.585610 0.911507
vn -0.000015 -0.000015 1.000000
v 1.473838 0.977920 -0.810533
vt 0.535021 0.940891
vn 0.701778 0.712395 0.000022
v 1.473838 0.977920 -0.814606
vt 0.535005 0.941893
vn 0.701778 0.712395 0.000022
v 1.494757 0.957314 -0.810533
vt 0.542507 0.940103
vn 0.807266 0.590187 0.000021
v 1.494757 0.957314 -0.814606
vt 0.542270 0.940872
vn 0.807266 0.590187 0.000021
v 1.473838 0.977920 -0.814606
vt 0.535005 0.941893
vn 0.000000 0.000000 -1.000000
v 1.494864 0.949159 -0.814606
vt 0.543633 0.941588
vn 0.000000 0.000000 -1.000000
v 1.494757 0.957314 -0.814606
vt 0.542270 0.940872
vn 0.000000 0.000000 -1.000000
v 1.457543 0.961479 -0.814606
vt 0.535021 0.948556
vn -0.705595 -0.708616 -0.000065
v 1.457543 0.961479 -0.810533
vt 0.535056 0.949555
vn -0.705595 -0.708616 -0.000065
v 1.478530 0.940581 -0.814606
vt 0.542457 0.946747
vn -0.581158 -0.813791 -0.000149
v 1.478530 0.940581 -0.810533
vt 0.542748 0.947967
vn -0.581166 -0.813785 -0.000064
v 1.404656 1.046065 -0.808641
vt 0.510506 0.942294
vn -0.161713 0.986838 0.000018
v 1.404656 1.046065 -0.812714
vt 0.511418 0.942983
vn -0.161713 0.986838 0.000018
v 1.423119 1.027879 -0.808641
vt 0.582061 0.885044
vn 0.034182 -0.030029 0.998964
v 1.404656 1.046065 -0.808641
vt 0.582111 0.877927
vn -0.000015 -0.000015 1.000000
v 1.422941 1.037868 -0.808641
vt 0.580480 0.882829
vn -0.000015 -0.000015 1.000000
v 1.413198 1.047465 -0.808641
vt 0.580505 0.879213
vn -0.000015 -0.000015 1.000000
v 1.423119 1.027879 -0.812714
vt 0.517484 0.943389
vn 0.866965 0.498370 0.000021
v 1.423119 1.027879 -0.808641
vt 0.517642 0.942284
vn 0.880098 0.474793 0.000021
v 1.418789 1.032144 -0.812714
vt 0.516061 0.943293
vn 0.000000 0.000000 -1.000000
v 1.423119 1.027879 -0.812714
vt 0.517484 0.943389
vn 0.000000 0.000000 -1.000000
v 1.404656 1.046065 -0.812714
vt 0.511418 0.942983
vn 0.000000 0.000000 -1.000000
v 1.413198 1.047465 -0.812714
vt 0.512541 0.940530
vn 0.000000 0.000000 -1.000000
v 1.422941 1.037868 -0.812714
vt 0.515606 0.941230
vn 0.000000 0.000000 -1.000000
v 1.388130 1.030596 -0.812714
vt 0.511086 0.946979
vn -0.998259 0.058981 -0.000016
v 1.388130 1.030596 -0.808641
vt 0.510177 0.947143
vn -0.998259 0.058981 -0.000016
v 1.402872 1.015917 -0.812714
vt 0.515979 0.948902
vn 0.000000 0.000000 -1.000000
v 1.388130 1.030596 -0.812714
vt 0.511086 0.946979
vn 0.000000 0.000000 -1.000000
v 1.406659 1.012146 -0.812714
vt 0.517236 0.949395
vn 0.000000 0.000000 -1.000000
v 1.397406 1.012350 -0.812714
vt 0.515366 0.949739
vn 0.000000 0.000000 -1.000000
v 1.387627 1.022087 -0.812714
vt 0.512218 0.948395
vn 0.000000 0.000000 -1.000000
v 1.406659 1.012146 -0.808641
vt 0.517358 0.950284
vn -0.484878 -0.874582 -0.000021
v 1.406659 1.012146 -0.812714
vt 0.517236 0.949395
vn -0.507091 -0.861892 -0.000063
v 1.388130 1.030596 -0.808641
vt 0.587273 0.878080
vn -0.000015 -0.000015 1.000000
v 1.406659 1.012146 -0.808641
vt 0.587532 0.884896
vn 0.028896 -0.035418 0.998955
v 1.387627 1.022087 -0.808641
vt 0.588784 0.879510
vn -0.000015 -0.000015 1.000000
v 1.397406 1.012350 -0.808641
vt 0.588921 0.883026
vn -0.000015 -0.000015 1.000000
v 1.486685 0.940667 -0.814606
vt 0.543752 0.944891
vn 0.000000 0.000000 -1.000000
v 1.457543 0.961479 -0.814606
vt 0.535021 0.948556
vn 0.000000 0.000000 -1.000000
v 1.478530 0.940581 -0.814606
vt 0.542457 0.946747
vn 0.000000 0.000000 -1.000000
v 1.411421 1.023575 -0.812714
vt 0.516019 0.946200
vn 0.000000 0.000000 -1.000000
v 1.396406 1.038342 -0.812714
vt 0.511252 0.944978
vn 0.000000 0.000000 -1.000000
v 1.466476 0.964673 -0.814606
vt 0.536019 0.946171
vn 0.000000 0.000000 -1.000000
v 1.470804 0.969063 -0.814606
vt 0.536023 0.944486
vn 0.000000 0.000000 -1.000000
v 1.473838 0.977920 -0.810533
vt 0.581491 0.899528
vn -0.000015 -0.000015 1.000000
v 1.494757 0.957314 -0.810533
vt 0.581578 0.909717
vn -0.000015 -0.000015 1.000000
v 1.419030 1.023971 -0.808641
vt 0.583360 0.885339
vn -0.141137 -0.232632 0.962270
v 1.410905 1.016206 -0.808641
vt 0.586190 0.885305
vn 0.042275 -0.052006 0.997752
v 1.457543 0.961479 -0.810533
vt 0.587406 0.899701
vn -0.000015 -0.000015 1.000000
v 1.478530 0.940581 -0.810533
vt 0.587014 0.909468
vn -0.000015 -0.000015 1.000000
v 1.418670 1.000187 -0.814606
vt 0.521801 0.946901
vn -0.705595 -0.708616 -0.000065
v 1.418670 1.000187 -0.810533
vt 0.521755 0.947961
vn -0.705595 -0.708616 -0.000065
v 1.425117 1.002039 -0.814606
vt 0.522674 0.945426
vn -0.012527 0.013874 -0.999825
v 1.418670 1.000187 -0.814606
vt 0.521801 0.946901
vn -0.022225 0.024684 -0.999448
v 1.462618 0.964656 -0.814606
vt 0.535282 0.947136
vn 0.000000 0.000000 -1.000000
v 1.470778 0.972921 -0.814606
vt 0.535295 0.943300
vn 0.000000 0.000000 -1.000000
v 1.433221 1.009971 -0.814606
vt 0.522652 0.942089
vn -0.013820 0.013193 -0.999817
v 1.435091 1.016087 -0.814606
vt 0.521869 0.940895
vn -0.023801 0.022174 -0.999471
v 1.435091 1.016087 -0.810533
vt 0.521822 0.940036
vn 0.701778 0.712395 0.000022
v 1.435091 1.016087 -0.814606
vt 0.521869 0.940895
vn 0.701778 0.712395 0.000022
v 1.431703 1.011469 -0.810533
vt 0.582798 0.887279
vn -0.285443 -0.317923 0.904128
v 1.435091 1.016087 -0.810533
vt 0.581520 0.887176
vn 0.022197 -0.019528 0.999563
v 1.423569 1.003582 -0.810533
vt 0.586631 0.887313
vn 0.013596 -0.016708 0.999768
v 1.418670 1.000187 -0.810533
vt 0.587963 0.887208
vn 0.019396 -0.023819 0.999528
v 1.470804 0.969063 -0.814606
vt 0.536023 0.944486
vn 0.886608 -0.462522 0.000021
v 1.470804 0.969063 -0.817572
vt 0.535755 0.943848
vn 0.024887 -0.013013 -0.999606
v 1.466476 0.964673 -0.814606
vt 0.536019 0.946171
vn 0.473979 -0.880536 -0.000021
v 1.466476 0.964673 -0.817572
vt 0.535729 0.945527
vn 0.013396 -0.024702 -0.999605
v 1.462618 0.964656 -0.814606
vt 0.535282 0.947136
vn -0.670402 -0.741998 -0.000022
v 1.462618 0.964656 -0.817572
vt 0.535164 0.946128
vn -0.111394 -0.123279 -0.986100
v 1.425117 1.002039 -0.814606
vt 0.522674 0.945426
vn -0.706005 -0.708207 -0.000022
v 1.425117 1.002039 -0.817572
vt 0.522774 0.945199
vn -0.111871 -0.112167 -0.987372
v 1.433221 1.009971 -0.814606
vt 0.522652 0.942089
vn 0.702300 0.711881 0.000022
v 1.433221 1.009971 -0.817572
vt 0.522735 0.943264
vn 0.110004 0.111517 -0.987655
v 1.470778 0.972921 -0.814606
vt 0.535295 0.943300
vn 0.736421 0.676524 0.000065
v 1.470778 0.972921 -0.817572
vt 0.535206 0.943264
vn 0.121819 0.111916 -0.986223
v 1.423569 1.003582 -0.810533
vt 0.586631 0.887313
vn 0.706005 0.708207 0.000065
v 1.423569 1.003582 -0.813232
vt 0.586011 0.887204
vn 0.177851 0.143858 0.973485
v 1.464556 0.962725 -0.810533
vt 0.586030 0.900666
vn 0.706005 0.708207 0.000065
v 1.464556 0.962725 -0.813232
vt 0.585558 0.901053
vn 0.129484 0.195264 0.972166
v 1.431703 1.011469 -0.813232
vt 0.583417 0.887369
vn -0.141110 -0.176511 0.974131
v 1.472720 0.971005 -0.813232
vt 0.583282 0.901082
vn -0.193019 -0.130110 0.972530
v 1.472720 0.971005 -0.810533
vt 0.582798 0.900542
vn -0.712117 0.702061 -0.000022
v 1.464556 0.962725 -0.810533
vt 0.586030 0.900666
vn -0.712117 0.702061 -0.000022
v 1.425145 1.006008 -0.817572
vt 0.522175 0.944796
vn 0.000000 0.000000 -1.000000
v 1.429251 1.009989 -0.817572
vt 0.522167 0.943623
vn 0.000000 0.000000 -1.000000
v 1.419030 1.023971 -0.808641
vt 0.583360 0.885339
vn -0.000015 -0.000015 1.000000
v 1.410905 1.016206 -0.808641
vt 0.586190 0.885305
vn -0.000015 -0.000015 1.000000
v 1.419030 1.023971 -0.811340
vt 0.583703 0.884958
vn 0.690895 -0.722955 -0.000022
v 1.410905 1.016206 -0.811340
vt 0.585840 0.884821
vn 0.690895 -0.722955 -0.000022
v 1.419030 1.023971 -0.808641
vt 0.583360 0.885339
vn 0.690895 -0.722955 -0.000022
v 1.410905 1.016206 -0.808641
vt 0.586190 0.885305
vn 0.690895 -0.722955 -0.000022
v 1.396406 1.038342 -0.812714
vt 0.511252 0.944978
vn -0.683452 0.729996 -0.000022
v 1.404656 1.046065 -0.812714
vt 0.511418 0.942983
vn -0.683452 0.729996 -0.000022
v 1.388130 1.030596 -0.812714
vt 0.511086 0.946979
vn -0.683452 0.729996 -0.000022
v 1.388130 1.030596 -0.808641
vt 0.510177 0.947143
vn -0.683452 0.729996 -0.000022
v 1.404656 1.046065 -0.808641
vt 0.510506 0.942294
vn -0.683452 0.729996 -0.000022
v 1.406659 1.012146 -0.812714
vt 0.517236 0.949395
vn -0.074124 0.077902 -0.994202
v 1.425145 1.006008 -0.814606
vt 0.521814 0.944526
vn -0.072722 0.076877 -0.994385
v 1.423119 1.027879 -0.812714
vt 0.517484 0.943389
vn -0.074910 0.077395 -0.994182
v 1.429251 1.009989 -0.814606
vt 0.521824 0.942983
vn -0.074100 0.075777 -0.994368
v 1.419030 1.023971 -0.811340
vt 0.583703 0.884958
vn -0.098522 -0.245417 0.964398
v 1.410905 1.016206 -0.811340
vt 0.585840 0.884821
vn 0.247590 0.103686 0.963301
v 1.410905 1.016206 -0.808641
vt 0.586190 0.885305
vn 0.706005 0.708207 0.000065
v 1.425145 1.006008 -0.814606
vt 0.521814 0.944526
vn -0.696039 0.718004 -0.000022
v 1.425145 1.006008 -0.817572
vt 0.522175 0.944796
vn -0.696039 0.718004 -0.000022
v 1.429251 1.009989 -0.814606
vt 0.521824 0.942983
vn -0.696039 0.718004 -0.000022
v 1.429251 1.009989 -0.817572
vt 0.522167 0.943623
vn -0.696039 0.718004 -0.000022
v 1.425145 1.006008 -0.814606
vt 0.521814 0.944526
vn -0.999976 0.006976 -0.000015
v 1.425117 1.002039 -0.814606
vt 0.522674 0.945426
vn -0.999976 0.006976 -0.000015
v 1.425145 1.006008 -0.817572
vt 0.522175 0.944796
vn -0.999976 0.006976 -0.000015
v 1.425117 1.002039 -0.817572
vt 0.522774 0.945199
vn -0.999976 0.006976 -0.000015
v 1.429251 1.009989 -0.817572
vt 0.522167 0.943623
vn 0.004399 0.999990 0.000015
v 1.433221 1.009971 -0.817572
vt 0.522735 0.943264
vn 0.004399 0.999990 0.000015
v 1.429251 1.009989 -0.814606
vt 0.521824 0.942983
vn 0.004399 0.999990 0.000015
v 1.433221 1.009971 -0.814606
vt 0.522652 0.942089
vn 0.004399 0.999990 0.000015
usemtl Paint
f 3/3/3 2/2/2 1/1/1
f 4/4/4 2/2/2 3/3/3
f 7/7/7 6/6/6 5/5/5
f 8/8/8 6/6/6 7/7/7
f 11/11/11 10/10/10 9/9/9
f 12/12/12 10/10/10 11/11/11
f 15/15/15 14/14/14 13/13/13
f 16/16/16 14/14/14 15/15/15
f 19/19/19 18/18/18 17/17/17
f 20/20/20 18/18/18 19/19/19
f 23/23/23 22/22/22 21/21/21
f 24/24/24 22/22/22 23/23/23
f 27/27/27 26/26/26 25/25/25
f 30/30/30 29/29/29 28/28/28
f 31/31/31 29/29/29 30/30/30
f 8/8/8 32/32/32 6/6/6
f 33/33/33 32/32/32 8/8/8
f 36/36/36 35/35/35 34/34/34
f 37/37/37 35/35/35 36/36/36
f 5/5/5 38/38/38 7/7/7
f 39/39/39 38/38/38 5/5/5
f 12/12/12 40/40/40 10/10/10
f 41/41/41 40/40/40 12/12/12
f 44/44/44 43/43/43 42/42/42
f 45/45/45 43/43/43 44/44/44
f 9/9/9 46/46/46 11/11/11
f 47/47/47 46/46/46 9/9/9
f 50/50/50 49/49/49 48/48/48
f 51/51/51 49/49/49 50/50/50
f 15/15/15 23/23/23 21/21/21
f 13/13/13 23/23/23 15/15/15
f 30/30/30 14/14/14 16/16/16
f 28/28/28 14/14/14 30/30/30
f 54/54/54 53/53/53 52/52/52
f 4/4/4 45/45/45 2/2/2
f 43/43/43 45/45/45 4/4/4
f 55/55/55 54/54/54 26/26/26
f 56/56/56 54/54/54 55/55/55
f 18/18/18 58/58/58 57/57/57
f 20/20/20 58/58/58 18/18/18
f 59/59/59 35/35/35 37/37/37
f 51/51/51 60/60/60 49/49/49
f 62/62/62 17/17/17 61/61/61
f 19/19/19 17/17/17 62/62/62
f 31/31/31 63/63/63 29/29/29
f 64/64/64 63/63/63 31/31/31
f 66/66/66 65/65/65 53/53/53
f 67/67/67 65/65/65 66/66/66
f 69/69/69 27/27/27 68/68/68
f 70/70/70 27/27/27 69/69/69
f 24/24/24 71/71/71 22/22/22
f 72/72/72 71/71/71 24/24/24
f 20/20/20 73/73/73 58/58/58
f 74/74/74 73/73/73 20/20/20
f 76/76/76 62/62/62 75/75/75
f 19/19/19 62/62/62 76/76/76
f 79/79/79 78/78/78 77/77/77
f 80/80/80 78/78/78 79/79/79
f 83/83/83 82/82/82 81/81/81
f 84/84/84 82/82/82 83/83/83
f 87/87/87 86/86/86 85/85/85
f 88/88/88 86/86/86 87/87/87
f 91/91/91 90/90/90 89/89/89
f 92/92/92 90/90/90 91/91/91
f 94/94/94 20/20/20 93/93/93
f 74/74/74 20/20/20 94/94/94
f 93/93/93 95/95/95 89/89/89
f 96/96/96 95/95/95 93/93/93
f 90/90/90 93/93/93 89/89/89
f 94/94/94 93/93/93 90/90/90
f 97/97/97 85/85/85 86/86/86
f 98/98/98 85/85/85 97/97/97
f 81/81/81 85/85/85 98/98/98
f 82/82/82 85/85/85 81/81/81
f 77/77/77 85/85/85 82/82/82
f 78/78/78 85/85/85 77/77/77
f 82/82/82 79/79/79 77/77/77
f 84/84/84 79/79/79 82/82/82
f 78/78/78 87/87/87 85/85/85
f 80/80/80 87/87/87 78/78/78
f 53/53/53 56/56/56 66/66/66
f 54/54/54 56/56/56 53/53/53
f 26/26/26 70/70/70 55/55/55
f 27/27/27 70/70/70 26/26/26
f 51/51/51 100/100/100 99/99/99
f 35/35/35 100/100/100 51/51/51
f 103/103/103 102/102/102 101/101/101
f 104/104/104 102/102/102 103/103/103
f 107/107/107 106/106/106 105/105/105
f 108/108/108 106/106/106 107/107/107
f 64/64/64 47/47/47 63/63/63
f 46/46/46 47/47/47 64/64/64
f 110/110/110 67/67/67 109/109/109
f 65/65/65 67/67/67 110/110/110
f 69/69/69 112/112/112 111/111/111
f 68/68/68 112/112/112 69/69/69
f 72/72/72 39/39/39 71/71/71
f 38/38/38 39/39/39 72/72/72
f 74/74/74 37/37/37 73/73/73
f 59/59/59 37/37/37 74/74/74
f 59/59/59 94/94/94 113/113/113
f 74/74/74 94/94/94 59/59/59
f 113/113/113 90/90/90 114/114/114
f 94/94/94 90/90/90 113/113/113
f 90/90/90 115/115/115 114/114/114
f 92/92/92 115/115/115 90/90/90
f 60/60/60 75/75/75 49/49/49
f 76/76/76 75/75/75 60/60/60
f 118/118/118 117/117/117 116/116/116
f 119/119/119 117/117/117 118/118/118
f 112/112/112 109/109/109 111/111/111
f 110/110/110 109/109/109 112/112/112
f 122/122/122 121/121/121 120/120/120
f 123/123/123 121/121/121 122/122/122
f 126/126/126 125/125/125 124/124/124
f 127/127/127 125/125/125 126/126/126
f 130/130/130 129/129/129 128/128/128
f 131/131/131 129/129/129 130/130/130
f 134/134/134 133/133/133 132/132/132
f 135/135/135 133/133/133 134/134/134
f 138/138/138 137/137/137 136/136/136
f 139/139/139 137/137/137 138/138/138
f 142/142/142 141/141/141 140/140/140
f 143/143/143 141/141/141 142/142/142
f 146/146/146 145/145/145 144/144/144
f 147/147/147 145/145/145 146/146/146
f 150/150/150 149/149/149 148/148/148
f 153/153/153 152/152/152 151/151/151
f 154/154/154 152/152/152 153/153/153
f 128/128/128 156/156/156 155/155/155
f 129/129/129 156/156/156 128/128/128
f 159/159/159 158/158/158 157/157/157
f 160/160/160 158/158/158 159/159/159
f 131/131/131 162/162/162 161/161/161
f 130/130/130 162/162/162 131/131/131
f 165/165/165 164/164/164 163/163/163
f 166/166/166 164/164/164 165/165/165
f 167/167/167 164/164/164 166/166/166
f 132/132/132 169/169/169 168/168/168
f 133/133/133 169/169/169 132/132/132
f 172/172/172 171/171/171 170/170/170
f 173/173/173 171/171/171 172/172/172
f 174/174/174 171/171/171 173/173/173
f 135/135/135 176/176/176 175/175/175
f 134/134/134 176/176/176 135/135/135
f 179/179/179 178/178/178 177/177/177
f 180/180/180 178/178/178 179/179/179
f 138/138/138 146/146/146 139/139/139
f 147/147/147 146/146/146 138/138/138
f 153/153/153 137/137/137 154/154/154
f 136/136/136 137/137/137 153/153/153
f 183/183/183 182/182/182 181/181/181
f 185/185/185 163/163/163 184/184/184
f 165/165/165 163/163/163 185/185/185
f 187/187/187 181/181/181 186/186/186
f 149/149/149 181/181/181 187/187/187
f 141/141/141 188/188/188 140/140/140
f 189/189/189 188/188/188 141/141/141
f 157/157/157 158/158/158 190/190/190
f 178/178/178 191/191/191 177/177/177
f 192/192/192 143/143/143 142/142/142
f 193/193/193 143/143/143 192/192/192
f 151/151/151 195/195/195 194/194/194
f 152/152/152 195/195/195 151/151/151
f 198/198/198 197/197/197 196/196/196
f 182/182/182 197/197/197 198/198/198
f 200/200/200 148/148/148 199/199/199
f 201/201/201 148/148/148 200/200/200
f 144/144/144 203/203/203 202/202/202
f 145/145/145 203/203/203 144/144/144
f 140/140/140 205/205/205 204/204/204
f 188/188/188 205/205/205 140/140/140
f 206/206/206 192/192/192 142/142/142
f 207/207/207 192/192/192 206/206/206
f 210/210/210 209/209/209 208/208/208
f 211/211/211 209/209/209 210/210/210
f 214/214/214 213/213/213 212/212/212
f 215/215/215 213/213/213 214/214/214
f 218/218/218 217/217/217 216/216/216
f 219/219/219 217/217/217 218/218/218
f 222/222/222 221/221/221 220/220/220
f 223/223/223 221/221/221 222/222/222
f 224/224/224 140/140/140 204/204/204
f 225/225/225 140/140/140 224/224/224
f 225/225/225 227/227/227 226/226/226
f 223/223/223 227/227/227 225/225/225
f 221/221/221 225/225/225 224/224/224
f 223/223/223 225/225/225 221/221/221
f 211/211/211 219/219/219 209/209/209
f 213/213/213 219/219/219 211/211/211
f 215/215/215 219/219/219 213/213/213
f 228/228/228 219/219/219 215/215/215
f 229/229/229 219/219/219 228/228/228
f 217/217/217 219/219/219 229/229/229
f 213/213/213 210/210/210 212/212/212
f 211/211/211 210/210/210 213/213/213
f 209/209/209 218/218/218 208/208/208
f 219/219/219 218/218/218 209/209/209
f 182/182/182 186/186/186 181/181/181
f 198/198/198 186/186/186 182/182/182
f 149/149/149 199/199/199 148/148/148
f 187/187/187 199/199/199 149/149/149
f 177/177/177 230/230/230 158/158/158
f 231/231/231 230/230/230 177/177/177
f 234/234/234 233/233/233 232/232/232
f 235/235/235 233/233/233 234/234/234
f 238/238/238 237/237/237 236/236/236
f 239/239/239 237/237/237 238/238/238
f 240/240/240 237/237/237 239/239/239
f 194/194/194 175/175/175 176/176/176
f 195/195/195 175/175/175 194/194/194
f 241/241/241 196/196/196 197/197/197
f 242/242/242 196/196/196 241/241/241
f 200/200/200 243/243/243 201/201/201
f 244/244/244 243/243/243 200/200/200
f 202/202/202 161/161/161 162/162/162
f 203/203/203 161/161/161 202/202/202
f 204/204/204 157/157/157 190/190/190
f 205/205/205 157/157/157 204/204/204
f 190/190/190 224/224/224 204/204/204
f 245/245/245 224/224/224 190/190/190
f 245/245/245 221/221/221 224/224/224
f 246/246/246 221/221/221 245/245/245
f 221/221/221 247/247/247 220/220/220
f 246/246/246 247/247/247 221/221/221
f 191/191/191 207/207/207 206/206/206
f 178/178/178 207/207/207 191/191/191
f 250/250/250 249/249/249 248/248/248
f 251/251/251 249/249/249 250/250/250
f 243/243/243 242/242/242 241/241/241
f 244/244/244 242/242/242 243/243/243
f 254/254/254 253/253/253 252/252/252
f 255/255/255 253/253/253 254/254/254
f 258/258/258 257/257/257 256/256/256
f 259/259/259 257/257/257 258/258/258
f 184/184/184 172/172/172 170/170/170
f 163/163/163 172/172/172 184/184/184
f 164/164/164 172/172/172 163/163/163
f 170/170/170 185/185/185 184/184/184
f 171/171/171 185/185/185 170/170/170
