# Exported from Godot Engine
mtllib Hood_Hinge_2.mtl
o Hood_Hinge_2
v 1.505424 1.009027 0.812247
vt 0.520966 0.926148
vn 0.789613 0.613606 0.000021
v 1.493825 1.016274 0.812247
vt 0.517912 0.925161
vn 0.200700 0.979653 0.000018
v 1.505424 1.009027 0.808173
vt 0.521043 0.925235
vn 0.752228 0.658902 0.000065
v 1.493825 1.016274 0.808173
vt 0.517636 0.924286
vn 0.200700 0.979653 0.000018
v 1.507770 0.999316 0.814606
vt 0.522906 0.928461
vn -0.016327 0.025993 0.999529
v 1.504630 0.994612 0.814606
vt 0.522866 0.929869
vn -0.023902 0.008997 0.999674
v 1.485793 1.013049 0.812247
vt 0.516638 0.926160
vn -0.017807 0.047286 0.998723
v 1.484881 1.006973 0.812247
vt 0.517357 0.927370
vn -0.044431 0.016676 0.998873
v 1.486053 0.978564 0.808173
vt 0.520961 0.937289
vn -0.290088 -0.957000 -0.000019
v 1.474390 0.985939 0.808173
vt 0.517573 0.935576
vn -0.771430 -0.636314 -0.000021
v 1.486053 0.978564 0.812247
vt 0.520909 0.936244
vn -0.231183 -0.972910 -0.000055
v 1.474390 0.985939 0.812247
vt 0.517837 0.934832
vn -0.771430 -0.636314 -0.000021
v 1.594927 0.938096 0.810533
vt 0.549655 0.929177
vn 0.973188 -0.230013 -0.000018
v 1.588792 0.928027 0.810533
vt 0.549733 0.932129
vn 0.646442 -0.762963 -0.000022
v 1.594927 0.938096 0.814606
vt 0.548763 0.929368
vn 0.973188 -0.230013 -0.000018
v 1.588792 0.928027 0.814606
vt 0.548824 0.932613
vn 0.646442 -0.762963 -0.000022
v 1.454076 1.026253 0.812247
vt 0.508481 0.928826
vn -0.614199 0.789152 -0.000021
v 1.447786 1.017304 0.814606
vt 0.508453 0.931401
vn -0.960790 0.277278 0.000019
v 1.454076 1.026253 0.808173
vt 0.507581 0.929154
vn -0.571629 0.820512 0.000021
v 1.447786 1.017304 0.810533
vt 0.507676 0.931221
vn -0.965831 0.259174 0.000019
v 1.473029 0.994353 0.808173
vt 0.516283 0.933462
vn -0.682805 -0.730600 -0.000065
v 1.449384 1.009307 0.808173
vt 0.509529 0.933253
vn -0.652965 -0.757388 -0.000065
v 1.473029 0.994353 0.812247
vt 0.516499 0.932563
vn -0.682802 -0.730603 -0.000237
v 1.449384 1.009307 0.812247
vt 0.509715 0.932405
vn -0.690719 -0.723123 -0.000022
v 1.485793 1.013049 0.812247
vt 0.516638 0.926160
vn 0.343092 0.939302 0.000020
v 1.462070 1.027872 0.812247
vt 0.509804 0.927096
vn 0.384300 0.923208 0.000060
v 1.485793 1.013049 0.808173
vt 0.516348 0.925079
vn 0.343083 0.939305 0.000137
v 1.462070 1.027872 0.808173
vt 0.509527 0.925860
vn 0.384280 0.923217 0.000140
v 1.588792 0.928027 0.810533
vt 0.577966 0.903651
vn 0.000000 0.000000 -1.000000
v 1.594927 0.938096 0.810533
vt 0.575765 0.903569
vn 0.000000 0.000000 -1.000000
v 1.562393 0.944741 0.810533
vt 0.574685 0.895634
vn 0.000000 0.000000 -1.000000
v 1.568559 0.954599 0.810533
vt 0.571069 0.895610
vn -0.122362 -0.195480 -0.973044
v 1.593048 0.946031 0.814606
vt 0.547425 0.928695
vn 0.659519 0.751688 -0.000065
v 1.568146 0.961591 0.814606
vt 0.540115 0.929858
vn 0.529891 0.848066 0.000021
v 1.593048 0.946031 0.810533
vt 0.547686 0.927889
vn 0.659497 0.751708 0.000065
v 1.568146 0.961591 0.810533
vt 0.540154 0.928854
vn 0.529891 0.848066 0.000021
v 1.593048 0.946031 0.814606
vt 0.547425 0.928695
vn -0.000015 -0.000015 1.000000
v 1.594927 0.938096 0.814606
vt 0.548763 0.929368
vn -0.000015 -0.000015 1.000000
v 1.568146 0.961591 0.814606
vt 0.540115 0.929858
vn -0.000015 -0.000015 1.000000
v 1.580851 0.926169 0.810533
vt 0.547784 0.935473
vn -0.390097 -0.920774 -0.000020
v 1.555819 0.941998 0.810533
vt 0.540133 0.936919
vn -0.534484 -0.845179 -0.000021
v 1.580851 0.926169 0.814606
vt 0.547511 0.934342
vn -0.390097 -0.920774 -0.000020
v 1.555819 0.941998 0.814606
vt 0.540104 0.935928
vn -0.534484 -0.845179 -0.000021
v 1.493825 1.016274 0.808173
vt 0.570344 0.872380
vn -0.033797 -0.164900 -0.985731
v 1.485793 1.013049 0.808173
vt 0.572581 0.871376
vn 0.021089 -0.053607 -0.998339
v 1.505424 1.009027 0.808173
vt 0.569071 0.875565
vn -0.033797 -0.164900 -0.985731
v 1.507770 0.999316 0.810533
vt 0.569830 0.877416
vn 0.013296 -0.029518 -0.999476
v 1.507770 0.999316 0.810533
vt 0.522980 0.927553
vn 0.612487 0.790481 0.000064
v 1.507770 0.999316 0.814606
vt 0.522906 0.928461
vn 0.593572 0.804781 0.000064
v 1.505424 1.009027 0.812247
vt 0.520966 0.926148
vn 0.033778 0.164877 0.985736
v 1.493825 1.016274 0.812247
vt 0.517912 0.925161
vn 0.033778 0.164877 0.985736
v 1.474390 0.985939 0.812247
vt 0.517837 0.934832
vn -0.143546 -0.118441 0.982530
v 1.473029 0.994353 0.812247
vt 0.516499 0.932563
vn -0.024423 -0.030018 0.999251
v 1.486053 0.978564 0.812247
vt 0.520909 0.936244
vn -0.143546 -0.118441 0.982530
v 1.495128 0.980378 0.814606
vt 0.522714 0.935572
vn -0.030304 0.005069 0.999528
v 1.495128 0.980378 0.814606
vt 0.522714 0.935572
vn -0.474719 -0.880138 -0.000021
v 1.495128 0.980378 0.810533
vt 0.522772 0.936639
vn -0.453900 -0.891053 -0.000062
v 1.486053 0.978564 0.808173
vt 0.578713 0.875660
vn 0.143523 0.118419 -0.982537
v 1.495128 0.980378 0.810533
vt 0.576526 0.877386
vn 0.032197 -0.000630 -0.999481
v 1.474390 0.985939 0.808173
vt 0.579410 0.872403
vn 0.143523 0.118419 -0.982537
v 1.473029 0.994353 0.808173
vt 0.578394 0.871199
vn 0.082125 0.081525 -0.993282
v 1.454076 1.026253 0.812247
vt 0.508481 0.928826
vn 0.086889 0.083694 0.992696
v 1.462070 1.027872 0.812247
vt 0.509804 0.927096
vn -0.000015 -0.000015 1.000000
v 1.454076 1.026253 0.808173
vt 0.571889 0.863065
vn -0.070171 -0.057790 -0.995860
v 1.447786 1.017304 0.810533
vt 0.574921 0.862883
vn -0.053877 -0.018994 -0.998367
v 1.482613 1.008392 0.808173
vt 0.574133 0.871408
vn -0.029690 -0.048082 -0.998402
v 1.476351 0.999218 0.808173
vt 0.577235 0.871320
vn -0.012892 -0.005094 -0.999904
v 1.580851 0.926169 0.814606
vt 0.547511 0.934342
vn -0.000015 -0.000015 1.000000
v 1.555819 0.941998 0.814606
vt 0.540104 0.935928
vn -0.000015 -0.000015 1.000000
v 1.588792 0.928027 0.814606
vt 0.548824 0.932613
vn -0.000015 -0.000015 1.000000
v 1.498389 0.985264 0.814606
vt 0.522761 0.934201
vn -0.016717 0.018074 0.999697
v 1.478696 0.997733 0.812247
vt 0.517306 0.931072
vn -0.006326 0.017478 0.999827
v 1.449384 1.009307 0.812247
vt 0.509715 0.932405
vn -0.198344 -0.313662 0.928588
v 1.447786 1.017304 0.814606
vt 0.508453 0.931401
vn 0.064984 0.040983 0.997044
v 1.477916 1.001511 0.812247
vt 0.516641 0.929992
vn 0.081986 0.041377 0.995774
v 1.481104 1.006182 0.812247
vt 0.516676 0.928099
vn 0.058765 0.056661 0.996662
v 1.504630 0.994612 0.817572
vt 0.522879 0.930632
vn 0.107361 0.212653 0.971212
v 1.498389 0.985264 0.817572
vt 0.522780 0.933521
vn -0.153022 -0.187832 0.970208
v 1.484881 1.006973 0.815213
vt 0.517624 0.928320
vn 0.008164 0.218386 0.975828
v 1.481104 1.006182 0.815213
vt 0.517107 0.928631
vn -0.113930 0.098861 0.988558
v 1.477916 1.001511 0.815213
vt 0.517076 0.930319
vn -0.135223 0.067875 0.988488
v 1.478696 0.997733 0.815213
vt 0.517559 0.931189
vn -0.192835 -0.099136 0.976210
v 1.567112 0.952286 0.814606
vt 0.541075 0.932532
vn -0.000015 -0.000015 1.000000
v 1.563843 0.947060 0.814606
vt 0.541080 0.933906
vn -0.000015 -0.000015 1.000000
v 1.593048 0.946031 0.810533
vt 0.573280 0.902103
vn 0.000000 0.000000 -1.000000
v 1.568146 0.961591 0.810533
vt 0.569633 0.894631
vn 0.000000 0.000000 -1.000000
v 1.504630 0.994612 0.810533
vt 0.571068 0.877402
vn -0.218243 -0.389755 -0.894685
v 1.462070 1.027872 0.808173
vt 0.570988 0.864517
vn 0.000000 0.000000 -1.000000
v 1.449384 1.009307 0.808173
vt 0.576890 0.864287
vn 0.064209 0.171719 -0.983051
v 1.498389 0.985264 0.810533
vt 0.575004 0.877413
vn 0.019179 -0.013006 -0.999731
v 1.580851 0.926169 0.810533
vt 0.578669 0.902242
vn 0.000000 0.000000 -1.000000
v 1.555819 0.941998 0.810533
vt 0.576050 0.894691
vn 0.000000 0.000000 -1.000000
v 1.560082 0.946204 0.814606
vt 0.540383 0.934530
vn -0.000015 -0.000015 1.000000
v 1.566247 0.956046 0.814606
vt 0.540377 0.931307
vn -0.000015 -0.000015 1.000000
v 1.498389 0.985264 0.814606
vt 0.522761 0.934201
vn -0.534896 -0.844918 -0.000063
v 1.478696 0.997733 0.812247
vt 0.517306 0.931072
vn -0.626619 -0.779326 -0.000021
v 1.481104 1.006182 0.812247
vt 0.516676 0.928099
vn -0.617042 0.786931 -0.000022
v 1.477916 1.001511 0.812247
vt 0.516641 0.929992
vn -0.961710 0.274069 -0.000019
v 1.504630 0.994612 0.814606
vt 0.522866 0.929869
vn 0.530481 0.847697 0.000021
v 1.484881 1.006973 0.812247
vt 0.517357 0.927370
vn 0.435803 0.900042 0.000061
v 1.563843 0.947060 0.817572
vt 0.540663 0.934105
vn 0.013973 -0.016331 0.999769
v 1.567112 0.952286 0.817572
vt 0.540656 0.932714
vn 0.020683 -0.005621 0.999770
v 1.563843 0.947060 0.814606
vt 0.541080 0.933906
vn 0.654253 -0.756275 0.000022
v 1.567112 0.952286 0.814606
vt 0.541075 0.932532
vn 0.966032 -0.258422 0.000019
v 1.560082 0.946204 0.817572
vt 0.540317 0.933521
vn -0.087031 -0.149039 0.984994
v 1.560082 0.946204 0.814606
vt 0.540383 0.934530
vn -0.504115 -0.863637 -0.000021
v 1.566247 0.956046 0.817572
vt 0.540301 0.931537
vn 0.096160 0.142083 0.985173
v 1.566247 0.956046 0.814606
vt 0.540377 0.931307
vn 0.560881 0.827896 0.000021
v 1.482613 1.008392 0.810873
vt 0.573889 0.871668
vn 0.024978 -0.303289 -0.952571
v 1.482613 1.008392 0.808173
vt 0.574133 0.871408
vn 0.825893 -0.563828 -0.000021
v 1.476351 0.999218 0.810873
vt 0.575994 0.871582
vn 0.287818 0.105725 -0.951831
v 1.476351 0.999218 0.808173
vt 0.577235 0.871320
vn 0.825893 -0.563828 -0.000021
v 1.504630 0.994612 0.813232
vt 0.571757 0.877438
vn -0.101562 -0.203045 -0.973888
v 1.482613 1.008392 0.808173
vt 0.574133 0.871408
vn -0.530475 -0.847700 -0.000063
v 1.476351 0.999218 0.808173
vt 0.577235 0.871320
vn 0.534969 0.844871 0.000063
v 1.498389 0.985264 0.813232
vt 0.574305 0.877422
vn 0.141808 0.181613 -0.973092
v 1.498389 0.985264 0.810533
vt 0.575004 0.877413
vn 0.534969 0.844871 0.000063
v 1.562393 0.944741 0.813232
vt 0.574503 0.895528
vn 0.093501 0.213912 -0.972368
v 1.562393 0.944741 0.810533
vt 0.574685 0.895634
vn 0.534969 0.844871 0.000063
v 1.568559 0.954599 0.813232
vt 0.572125 0.895508
vn -0.151480 -0.175477 -0.972760
v 1.562393 0.944741 0.810533
vt 0.574685 0.895634
vn -0.847820 0.530284 0.000021
v 1.568559 0.954599 0.810533
vt 0.571069 0.895610
vn -0.847820 0.530284 0.000021
v 1.493825 1.016274 -0.808173
vt 0.517636 0.924286
vn 0.200700 0.979653 0.000018
v 1.493825 1.016274 -0.812246
vt 0.517912 0.925161
vn 0.200700 0.979653 0.000018
v 1.505424 1.009027 -0.808173
vt 0.521043 0.925235
vn 0.752228 0.658902 0.000065
v 1.505424 1.009027 -0.812246
vt 0.520966 0.926148
vn 0.789613 0.613606 0.000021
v 1.484881 1.006973 -0.812246
vt 0.517357 0.927370
vn -0.044516 0.016693 -0.998869
v 1.504630 0.994612 -0.814606
vt 0.522866 0.929869
vn -0.023918 0.008981 -0.999674
v 1.485793 1.013049 -0.812246
vt 0.516638 0.926160
vn -0.017824 0.047270 -0.998723
v 1.507770 0.999317 -0.814606
vt 0.522906 0.928461
vn -0.016310 0.025976 -0.999529
v 1.474390 0.985940 -0.812246
vt 0.517837 0.934832
vn -0.771430 -0.636314 -0.000021
v 1.474390 0.985940 -0.808173
vt 0.517573 0.935576
vn -0.771430 -0.636314 -0.000021
v 1.486053 0.978564 -0.812246
vt 0.520909 0.936244
vn -0.231183 -0.972910 -0.000055
v 1.486053 0.978564 -0.808173
vt 0.520961 0.937289
vn -0.290088 -0.957000 -0.000019
v 1.588792 0.928027 -0.814606
vt 0.548824 0.932613
vn 0.646372 -0.763022 0.000022
v 1.588792 0.928027 -0.810533
vt 0.549733 0.932129
vn 0.646372 -0.763022 0.000022
v 1.594927 0.938096 -0.814606
vt 0.548763 0.929368
vn 0.973188 -0.230013 -0.000018
v 1.594927 0.938096 -0.810533
vt 0.549655 0.929177
vn 0.973188 -0.230013 -0.000018
v 1.447786 1.017304 -0.810533
vt 0.507676 0.931221
vn -0.965831 0.259174 0.000019
v 1.447786 1.017304 -0.814606
vt 0.508453 0.931401
vn -0.960790 0.277278 0.000019
v 1.454076 1.026253 -0.808173
vt 0.507581 0.929154
vn -0.571629 0.820512 0.000021
v 1.454076 1.026253 -0.812246
vt 0.508481 0.928826
vn -0.614199 0.789152 -0.000021
v 1.450926 1.021772 -0.813428
vt 0.508467 0.930116
vn -0.818154 0.574999 -0.000021
v 1.449384 1.009307 -0.812246
vt 0.509715 0.932405
vn -0.690719 -0.723123 -0.000022
v 1.449384 1.009307 -0.808173
vt 0.509529 0.933253
vn -0.652965 -0.757388 -0.000065
v 1.473029 0.994354 -0.812246
vt 0.516499 0.932563
vn -0.682805 -0.730600 -0.000065
v 1.473029 0.994354 -0.808173
vt 0.516283 0.933462
vn -0.682804 -0.730602 -0.000151
v 1.462070 1.027872 -0.808173
vt 0.509527 0.925860
vn 0.384300 0.923208 0.000060
v 1.462070 1.027872 -0.812246
vt 0.509804 0.927096
vn 0.384280 0.923217 0.000140
v 1.485793 1.013049 -0.808173
vt 0.516348 0.925079
vn 0.343092 0.939302 0.000020
v 1.485793 1.013049 -0.812246
vt 0.516638 0.926160
vn 0.343083 0.939305 0.000137
v 1.568559 0.954599 -0.810533
vt 0.571069 0.895610
vn -0.122429 -0.195512 0.973029
v 1.594927 0.938096 -0.810533
vt 0.575765 0.903569
vn -0.000015 -0.000015 1.000000
v 1.562393 0.944741 -0.810533
vt 0.574685 0.895634
vn -0.000015 -0.000015 1.000000
v 1.588792 0.928027 -0.810533
vt 0.577966 0.903651
vn -0.000015 -0.000015 1.000000
v 1.568146 0.961591 -0.810533
vt 0.540154 0.928854
vn 0.529891 0.848066 0.000021
v 1.568146 0.961591 -0.814606
vt 0.540115 0.929858
vn 0.529891 0.848066 0.000021
v 1.593048 0.946031 -0.810533
vt 0.547686 0.927889
vn 0.659519 0.751688 -0.000065
v 1.593048 0.946031 -0.814606
vt 0.547425 0.928695
vn 0.659497 0.751708 0.000065
v 1.568146 0.961591 -0.814606
vt 0.540115 0.929858
vn 0.000000 0.000000 -1.000000
v 1.594927 0.938096 -0.814606
vt 0.548763 0.929368
vn 0.000000 0.000000 -1.000000
v 1.593048 0.946031 -0.814606
vt 0.547425 0.928695
vn 0.000000 0.000000 -1.000000
v 1.555819 0.941999 -0.814606
vt 0.540104 0.935928
vn -0.534484 -0.845179 -0.000021
v 1.555819 0.941999 -0.810533
vt 0.540133 0.936919
vn -0.534484 -0.845179 -0.000021
v 1.580851 0.926169 -0.814606
vt 0.547511 0.934342
vn -0.390087 -0.920778 0.000060
v 1.580851 0.926169 -0.810533
vt 0.547784 0.935473
vn -0.390097 -0.920774 -0.000020
v 1.507770 0.999317 -0.810533
vt 0.569830 0.877416
vn 0.013279 -0.029403 0.999479
v 1.485793 1.013049 -0.808173
vt 0.572581 0.871376
vn 0.020971 -0.053515 0.998347
v 1.505424 1.009027 -0.808173
vt 0.569071 0.875565
vn -0.033816 -0.164923 0.985727
v 1.493825 1.016274 -0.808173
vt 0.570344 0.872380
vn -0.033816 -0.164923 0.985727
v 1.507770 0.999317 -0.814606
vt 0.522906 0.928461
vn 0.593572 0.804781 0.000064
v 1.507770 0.999317 -0.810533
vt 0.522980 0.927553
vn 0.612487 0.790481 0.000064
v 1.493825 1.016274 -0.812246
vt 0.517912 0.925161
vn 0.033835 0.164947 -0.985722
v 1.505424 1.009027 -0.812246
vt 0.520966 0.926148
vn 0.033835 0.164947 -0.985722
v 1.495128 0.980379 -0.814606
vt 0.522714 0.935572
vn -0.030321 0.005085 -0.999527
v 1.473029 0.994354 -0.812246
vt 0.516499 0.932563
vn -0.024372 -0.029967 -0.999254
v 1.486053 0.978564 -0.812246
vt 0.520909 0.936244
vn -0.143476 -0.118373 -0.982549
v 1.474390 0.985940 -0.812246
vt 0.517837 0.934832
vn -0.143476 -0.118373 -0.982549
v 1.495128 0.980379 -0.810533
vt 0.522772 0.936639
vn -0.453900 -0.891053 -0.000062
v 1.495128 0.980379 -0.814606
vt 0.522714 0.935572
vn -0.474711 -0.880142 0.000062
v 1.473029 0.994354 -0.808173
vt 0.578394 0.871199
vn 0.082064 0.081464 0.993292
v 1.495128 0.980379 -0.810533
vt 0.576526 0.877386
vn 0.032278 -0.000614 0.999479
v 1.474390 0.985940 -0.808173
vt 0.579410 0.872403
vn 0.143499 0.118396 0.982543
v 1.486053 0.978564 -0.808173
vt 0.578713 0.875660
vn 0.143499 0.118396 0.982543
v 1.462070 1.027872 -0.812246
vt 0.509804 0.927096
vn 0.000000 0.000000 -1.000000
v 1.454076 1.026253 -0.812246
vt 0.508481 0.928826
vn 0.064433 0.077618 -0.994899
v 1.476351 0.999219 -0.808173
vt 0.577235 0.871320
vn -0.012907 -0.005110 0.999904
v 1.447786 1.017304 -0.810533
vt 0.574921 0.862883
vn -0.053929 -0.019012 0.998364
v 1.482613 1.008392 -0.808173
vt 0.574133 0.871408
vn -0.029708 -0.048134 0.998399
v 1.454076 1.026253 -0.808173
vt 0.571889 0.863065
vn -0.070227 -0.057811 0.995854
v 1.588792 0.928027 -0.814606
vt 0.548824 0.932613
vn 0.000000 0.000000 -1.000000
v 1.555819 0.941999 -0.814606
vt 0.540104 0.935928
vn 0.000000 0.000000 -1.000000
v 1.580851 0.926169 -0.814606
vt 0.547511 0.934342
vn 0.000000 0.000000 -1.000000
v 1.478696 0.997733 -0.812246
vt 0.517306 0.931072
vn -0.006405 0.017496 -0.999826
v 1.498389 0.985265 -0.814606
vt 0.522761 0.934201
vn -0.016701 0.018090 -0.999697
v 1.447786 1.017304 -0.814606
vt 0.508453 0.931401
vn 0.013777 -0.044524 -0.998913
v 1.449384 1.009307 -0.812246
vt 0.509715 0.932405
vn -0.198261 -0.313568 -0.928638
v 1.463112 1.019543 -0.812246
vt 0.511221 0.928583
vn 0.039413 0.038330 -0.998488
v 1.460986 1.015389 -0.813017
vt 0.511309 0.929709
vn 0.096114 0.088006 -0.991472
v 1.450926 1.021772 -0.813428
vt 0.508467 0.930116
vn 0.130233 0.141745 -0.981299
v 1.478696 0.997733 -0.815212
vt 0.517559 0.931189
vn -0.192758 -0.099069 -0.976232
v 1.498389 0.985265 -0.817572
vt 0.522780 0.933521
vn -0.148195 -0.191079 -0.970323
v 1.477916 1.001512 -0.815212
vt 0.517076 0.930319
vn -0.135232 0.067780 -0.988493
v 1.481104 1.006183 -0.815212
vt 0.517107 0.928631
vn -0.113911 0.098880 -0.988558
v 1.484881 1.006973 -0.815212
vt 0.517624 0.928320
vn 0.008220 0.218419 -0.975821
v 1.504630 0.994612 -0.817572
vt 0.522879 0.930632
vn 0.107430 0.212732 -0.971187
v 1.563843 0.947060 -0.814606
vt 0.541080 0.933906
vn 0.000000 0.000000 -1.000000
v 1.567112 0.952287 -0.814606
vt 0.541075 0.932532
vn 0.000000 0.000000 -1.000000
v 1.568146 0.961591 -0.810533
vt 0.569633 0.894631
vn -0.000015 -0.000015 1.000000
v 1.593048 0.946031 -0.810533
vt 0.573280 0.902103
vn -0.000015 -0.000015 1.000000
v 1.504630 0.994612 -0.810533
vt 0.571068 0.877402
vn -0.218324 -0.389801 0.894645
v 1.462070 1.027872 -0.808173
vt 0.570988 0.864517
vn -0.000015 -0.000015 1.000000
v 1.449384 1.009307 -0.808173
vt 0.576890 0.864287
vn 0.064188 0.171695 0.983057
v 1.498389 0.985265 -0.810533
vt 0.575004 0.877413
vn 0.019195 -0.013022 0.999731
v 1.555819 0.941999 -0.810533
vt 0.576050 0.894691
vn -0.000015 -0.000015 1.000000
v 1.580851 0.926169 -0.810533
vt 0.578669 0.902242
vn -0.000015 -0.000015 1.000000
v 1.560082 0.946204 -0.814606
vt 0.540383 0.934530
vn 0.000000 0.000000 -1.000000
v 1.566247 0.956047 -0.814606
vt 0.540377 0.931307
vn 0.000000 0.000000 -1.000000
v 1.478696 0.997733 -0.812246
vt 0.517306 0.931072
vn -0.626619 -0.779326 -0.000021
v 1.498389 0.985265 -0.814606
vt 0.522761 0.934201
vn -0.534896 -0.844918 -0.000063
v 1.477916 1.001512 -0.812246
vt 0.516641 0.929992
vn -0.961710 0.274069 -0.000019
v 1.481104 1.006183 -0.812246
vt 0.516676 0.928099
vn -0.617042 0.786931 -0.000022
v 1.484881 1.006973 -0.812246
vt 0.517357 0.927370
vn 0.435803 0.900042 0.000061
v 1.504630 0.994612 -0.814606
vt 0.522866 0.929869
vn 0.530481 0.847697 0.000021
v 1.567112 0.952287 -0.814606
vt 0.541075 0.932532
vn 0.966032 -0.258422 0.000019
v 1.567112 0.952287 -0.817572
vt 0.540656 0.932714
vn 0.020696 -0.005511 -0.999771
v 1.563843 0.947060 -0.814606
vt 0.541080 0.933906
vn 0.654253 -0.756275 0.000022
v 1.563843 0.947060 -0.817572
vt 0.540663 0.934105
vn 0.013989 -0.016315 -0.999769
v 1.560082 0.946204 -0.814606
vt 0.540383 0.934530
vn -0.504115 -0.863637 -0.000021
v 1.560082 0.946204 -0.817572
vt 0.540317 0.933521
vn -0.086967 -0.148969 -0.985010
v 1.566247 0.956047 -0.814606
vt 0.540377 0.931307
vn 0.560832 0.827929 0.000021
v 1.566247 0.956047 -0.817572
vt 0.540301 0.931537
vn 0.096303 0.142121 -0.985154
v 1.476351 0.999219 -0.808173
vt 0.577235 0.871320
vn 0.825893 -0.563828 -0.000021
v 1.482613 1.008392 -0.808173
vt 0.574133 0.871408
vn 0.825893 -0.563828 -0.000021
v 1.476351 0.999219 -0.810872
vt 0.575994 0.871582
vn 0.287788 0.105701 0.951843
v 1.482613 1.008392 -0.810872
vt 0.573889 0.871668
vn 0.024998 -0.303318 0.952561
v 1.482613 1.008392 -0.808173
vt 0.574133 0.871408
vn -0.530475 -0.847700 -0.000063
v 1.504630 0.994612 -0.813232
vt 0.571757 0.877438
vn -0.101630 -0.203123 0.973865
v 1.498389 0.985265 -0.810533
vt 0.575004 0.877413
vn 0.534901 0.844915 0.000021
v 1.476351 0.999219 -0.808173
vt 0.577235 0.871320
vn 0.534901 0.844915 0.000021
v 1.498389 0.985265 -0.813232
vt 0.574305 0.877422
vn 0.141868 0.181554 0.973094
v 1.562393 0.944741 -0.810533
vt 0.574685 0.895634
vn 0.534901 0.844915 0.000021
v 1.562393 0.944741 -0.813232
vt 0.574503 0.895528
vn 0.093478 0.213886 0.972376
v 1.568559 0.954599 -0.813232
vt 0.572125 0.895508
vn -0.151554 -0.175554 0.972734
v 1.568559 0.954599 -0.810533
vt 0.571069 0.895610
vn -0.847820 0.530284 0.000021
v 1.562393 0.944741 -0.810533
vt 0.574685 0.895634
vn -0.847820 0.530284 0.000021
v 1.458637 1.011616 -0.813756
vt 0.511402 0.930894
vn 0.072134 0.014321 -0.997292
v 1.477916 1.001512 -0.812246
vt 0.516641 0.929992
vn 0.066302 0.008808 -0.997761
v 1.481104 1.006183 -0.812246
vt 0.516676 0.928099
vn 0.035818 0.029323 -0.998928
usemtl Paint
f 3/3/3 2/2/2 1/1/1
f 4/4/4 2/2/2 3/3/3
f 7/7/7 6/6/6 5/5/5
f 8/8/8 6/6/6 7/7/7
f 11/11/11 10/10/10 9/9/9
f 12/12/12 10/10/10 11/11/11
f 15/15/15 14/14/14 13/13/13
f 16/16/16 14/14/14 15/15/15
f 19/19/19 18/18/18 17/17/17
f 20/20/20 18/18/18 19/19/19
f 23/23/23 22/22/22 21/21/21
f 24/24/24 22/22/22 23/23/23
f 27/27/27 26/26/26 25/25/25
f 28/28/28 26/26/26 27/27/27
f 31/31/31 30/30/30 29/29/29
f 32/32/32 30/30/30 31/31/31
f 35/35/35 34/34/34 33/33/33
f 36/36/36 34/34/34 35/35/35
f 39/39/39 38/38/38 37/37/37
f 42/42/42 41/41/41 40/40/40
f 43/43/43 41/41/41 42/42/42
f 4/4/4 25/25/25 2/2/2
f 27/27/27 25/25/25 4/4/4
f 46/46/46 45/45/45 44/44/44
f 47/47/47 45/45/45 46/46/46
f 1/1/1 48/48/48 3/3/3
f 49/49/49 48/48/48 1/1/1
f 51/51/51 5/5/5 50/50/50
f 7/7/7 5/5/5 51/51/51
f 12/12/12 21/21/21 10/10/10
f 23/23/23 21/21/21 12/12/12
f 54/54/54 53/53/53 52/52/52
f 55/55/55 53/53/53 54/54/54
f 9/9/9 56/56/56 11/11/11
f 57/57/57 56/56/56 9/9/9
f 60/60/60 59/59/59 58/58/58
f 61/61/61 59/59/59 60/60/60
f 63/63/63 62/62/62 7/7/7
f 66/66/66 65/65/65 64/64/64
f 67/67/67 65/65/65 66/66/66
f 26/26/26 19/19/19 17/17/17
f 28/28/28 19/19/19 26/26/26
f 15/15/15 35/35/35 33/33/33
f 13/13/13 35/35/35 15/15/15
f 18/18/18 22/22/22 24/24/24
f 20/20/20 22/22/22 18/18/18
f 42/42/42 14/14/14 16/16/16
f 40/40/40 14/14/14 42/42/42
f 70/70/70 69/69/69 68/68/68
f 71/71/71 53/53/53 55/55/55
f 72/72/72 53/53/53 71/71/71
f 53/53/53 74/74/74 73/73/73
f 75/75/75 62/62/62 74/74/74
f 76/76/76 62/62/62 75/75/75
f 79/79/79 78/78/78 77/77/77
f 80/80/80 78/78/78 79/79/79
f 81/81/81 78/78/78 80/80/80
f 82/82/82 78/78/78 81/81/81
f 83/83/83 70/70/70 38/38/38
f 84/84/84 70/70/70 83/83/83
f 30/30/30 86/86/86 85/85/85
f 32/32/32 86/86/86 30/30/30
f 87/87/87 45/45/45 47/47/47
f 66/66/66 45/45/45 87/87/87
f 45/45/45 64/64/64 88/88/88
f 66/66/66 64/64/64 45/45/45
f 61/61/61 65/65/65 67/67/67
f 89/89/89 65/65/65 61/61/61
f 61/61/61 90/90/90 59/59/59
f 67/67/67 90/90/90 61/61/61
f 92/92/92 29/29/29 91/91/91
f 31/31/31 29/29/29 92/92/92
f 43/43/43 57/57/57 41/41/41
f 56/56/56 57/57/57 43/43/43
f 93/93/93 55/55/55 69/69/69
f 71/71/71 55/55/55 93/93/93
f 6/6/6 39/39/39 5/5/5
f 94/94/94 39/39/39 6/6/6
f 36/36/36 49/49/49 34/34/34
f 48/48/48 49/49/49 36/36/36
f 32/32/32 47/47/47 86/86/86
f 87/87/87 47/47/47 32/32/32
f 90/90/90 92/92/92 59/59/59
f 31/31/31 92/92/92 90/90/90
f 82/82/82 95/95/95 78/78/78
f 96/96/96 95/95/95 82/82/82
f 97/97/97 81/81/81 80/80/80
f 98/98/98 81/81/81 97/97/97
f 99/99/99 79/79/79 77/77/77
f 100/100/100 79/79/79 99/99/99
f 103/103/103 102/102/102 101/101/101
f 104/104/104 102/102/102 103/103/103
f 95/95/95 105/105/105 78/78/78
f 106/106/106 105/105/105 95/95/95
f 107/107/107 99/99/99 77/77/77
f 108/108/108 99/99/99 107/107/107
f 111/111/111 110/110/110 109/109/109
f 112/112/112 110/110/110 111/111/111
f 109/109/109 87/87/87 113/113/113
f 114/114/114 87/87/87 109/109/109
f 116/116/116 115/115/115 111/111/111
f 117/117/117 115/115/115 116/116/116
f 118/118/118 117/117/117 116/116/116
f 119/119/119 117/117/117 118/118/118
f 113/113/113 32/32/32 120/120/120
f 87/87/87 32/32/32 113/113/113
f 120/120/120 121/121/121 118/118/118
f 122/122/122 121/121/121 120/120/120
f 116/116/116 120/120/120 118/118/118
f 113/113/113 120/120/120 116/116/116
f 111/111/111 113/113/113 116/116/116
f 109/109/109 113/113/113 111/111/111
f 78/78/78 107/107/107 77/77/77
f 105/105/105 107/107/107 78/78/78
f 101/101/101 107/107/107 105/105/105
f 102/102/102 107/107/107 101/101/101
f 81/81/81 96/96/96 82/82/82
f 98/98/98 96/96/96 81/81/81
f 79/79/79 97/97/97 80/80/80
f 100/100/100 97/97/97 79/79/79
f 105/105/105 103/103/103 101/101/101
f 106/106/106 103/103/103 105/105/105
f 102/102/102 108/108/108 107/107/107
f 104/104/104 108/108/108 102/102/102
f 74/74/74 72/72/72 75/75/75
f 53/53/53 72/72/72 74/74/74
f 7/7/7 76/76/76 8/8/8
f 62/62/62 76/76/76 7/7/7
f 69/69/69 84/84/84 93/93/93
f 70/70/70 84/84/84 69/69/69
f 38/38/38 94/94/94 83/83/83
f 39/39/39 94/94/94 38/38/38
f 125/125/125 124/124/124 123/123/123
f 126/126/126 124/124/124 125/125/125
f 129/129/129 128/128/128 127/127/127
f 130/130/130 128/128/128 129/129/129
f 133/133/133 132/132/132 131/131/131
f 134/134/134 132/132/132 133/133/133
f 137/137/137 136/136/136 135/135/135
f 138/138/138 136/136/136 137/137/137
f 141/141/141 140/140/140 139/139/139
f 142/142/142 140/140/140 141/141/141
f 143/143/143 140/140/140 142/142/142
f 146/146/146 145/145/145 144/144/144
f 147/147/147 145/145/145 146/146/146
f 150/150/150 149/149/149 148/148/148
f 151/151/151 149/149/149 150/150/150
f 154/154/154 153/153/153 152/152/152
f 155/155/155 153/153/153 154/154/154
f 158/158/158 157/157/157 156/156/156
f 159/159/159 157/157/157 158/158/158
f 162/162/162 161/161/161 160/160/160
f 165/165/165 164/164/164 163/163/163
f 166/166/166 164/164/164 165/165/165
f 123/123/123 151/151/151 150/150/150
f 124/124/124 151/151/151 123/123/123
f 169/169/169 168/168/168 167/167/167
f 170/170/170 168/168/168 169/169/169
f 126/126/126 172/172/172 171/171/171
f 125/125/125 172/172/172 126/126/126
f 173/173/173 130/130/130 129/129/129
f 174/174/174 130/130/130 173/173/173
f 131/131/131 147/147/147 146/146/146
f 132/132/132 147/147/147 131/131/131
f 177/177/177 176/176/176 175/175/175
f 178/178/178 176/176/176 177/177/177
f 134/134/134 180/180/180 179/179/179
f 133/133/133 180/180/180 134/134/134
f 183/183/183 182/182/182 181/181/181
f 184/184/184 182/182/182 183/183/183
f 129/129/129 186/186/186 185/185/185
f 189/189/189 188/188/188 187/187/187
f 190/190/190 188/188/188 189/189/189
f 149/149/149 141/141/141 148/148/148
f 142/142/142 141/141/141 149/149/149
f 137/137/137 158/158/158 138/138/138
f 159/159/159 158/158/158 137/137/137
f 140/140/140 145/145/145 139/139/139
f 144/144/144 145/145/145 140/140/140
f 165/165/165 136/136/136 166/166/166
f 135/135/135 136/136/136 165/165/165
f 193/193/193 192/192/192 191/191/191
f 195/195/195 176/176/176 194/194/194
f 175/175/175 176/176/176 195/195/195
f 197/197/197 196/196/196 176/176/176
f 199/199/199 186/186/186 198/198/198
f 200/200/200 186/186/186 199/199/199
f 203/203/203 202/202/202 201/201/201
f 204/204/204 202/202/202 203/203/203
f 205/205/205 202/202/202 204/204/204
f 206/206/206 202/202/202 205/205/205
f 208/208/208 191/191/191 207/207/207
f 161/161/161 191/191/191 208/208/208
f 153/153/153 209/209/209 152/152/152
f 210/210/210 209/209/209 153/153/153
f 211/211/211 168/168/168 189/189/189
f 167/167/167 168/168/168 211/211/211
f 168/168/168 190/190/190 189/189/189
f 212/212/212 190/190/190 168/168/168
f 181/181/181 188/188/188 213/213/213
f 187/187/187 188/188/188 181/181/181
f 181/181/181 214/214/214 187/187/187
f 182/182/182 214/214/214 181/181/181
f 215/215/215 155/155/155 154/154/154
f 216/216/216 155/155/155 215/215/215
f 163/163/163 179/179/179 180/180/180
f 164/164/164 179/179/179 163/163/163
f 217/217/217 175/175/175 195/195/195
f 192/192/192 175/175/175 217/217/217
f 128/128/128 160/160/160 218/218/218
f 130/130/130 160/160/160 128/128/128
f 156/156/156 171/171/171 172/172/172
f 157/157/157 171/171/171 156/156/156
f 152/152/152 167/167/167 211/211/211
f 209/209/209 167/167/167 152/152/152
f 214/214/214 215/215/215 154/154/154
f 182/182/182 215/215/215 214/214/214
f 201/201/201 220/220/220 219/219/219
f 202/202/202 220/220/220 201/201/201
f 222/222/222 203/203/203 221/221/221
f 204/204/204 203/203/203 222/222/222
f 224/224/224 205/205/205 223/223/223
f 206/206/206 205/205/205 224/224/224
f 227/227/227 226/226/226 225/225/225
f 228/228/228 226/226/226 227/227/227
f 220/220/220 230/230/230 229/229/229
f 202/202/202 230/230/230 220/220/220
f 232/232/232 224/224/224 231/231/231
f 206/206/206 224/224/224 232/232/232
f 235/235/235 234/234/234 233/233/233
f 236/236/236 234/234/234 235/235/235
f 236/236/236 211/211/211 237/237/237
f 238/238/238 211/211/211 236/236/236
f 241/241/241 240/240/240 239/239/239
f 235/235/235 240/240/240 241/241/241
f 243/243/243 239/239/239 242/242/242
f 241/241/241 239/239/239 243/243/243
f 238/238/238 152/152/152 211/211/211
f 244/244/244 152/152/152 238/238/238
f 244/244/244 246/246/246 245/245/245
f 243/243/243 246/246/246 244/244/244
f 241/241/241 244/244/244 238/238/238
f 243/243/243 244/244/244 241/241/241
f 235/235/235 238/238/238 236/236/236
f 241/241/241 238/238/238 235/235/235
f 228/228/228 232/232/232 226/226/226
f 230/230/230 232/232/232 228/228/228
f 202/202/202 232/232/232 230/230/230
f 206/206/206 232/232/232 202/202/202
f 203/203/203 219/219/219 221/221/221
f 201/201/201 219/219/219 203/203/203
f 205/205/205 222/222/222 223/223/223
f 204/204/204 222/222/222 205/205/205
f 230/230/230 227/227/227 229/229/229
f 228/228/228 227/227/227 230/230/230
f 226/226/226 231/231/231 225/225/225
f 232/232/232 231/231/231 226/226/226
f 196/196/196 194/194/194 176/176/176
f 247/247/247 194/194/194 196/196/196
f 248/248/248 194/194/194 247/247/247
f 186/186/186 249/249/249 198/198/198
f 129/129/129 249/249/249 186/186/186
f 127/127/127 249/249/249 129/129/129
f 192/192/192 207/207/207 191/191/191
f 217/217/217 207/207/207 192/192/192
f 161/161/161 218/218/218 160/160/160
f 208/208/208 218/218/218 161/161/161
f 198/198/198 247/247/247 199/199/199
f 249/249/249 247/247/247 198/198/198
f 248/248/248 247/247/247 249/249/249
f 247/247/247 200/200/200 199/199/199
f 196/196/196 200/200/200 247/247/247
