# Exported from Godot Engine
mtllib Left_Turn_Signal.mtl
o Left_Turn_Signal
v 2.311704 0.367622 -0.761087
vt -0.027013 2.936848
vn 0.789168 -0.338301 -0.512607
v 2.298643 0.369522 -0.782356
vt -0.059299 2.926660
vn 0.779792 -0.336655 -0.527815
v 2.309571 0.362439 -0.760858
vt -0.029965 2.943849
vn 0.789168 -0.338301 -0.512607
v 2.297400 0.365006 -0.781382
vt -0.060564 2.933032
vn 0.781420 -0.336915 -0.525235
v 2.287575 0.371522 -0.799235
vt -0.085391 2.918081
vn 0.758349 -0.336119 -0.558508
v 2.280842 0.373601 -0.809108
vt -0.100662 2.911979
vn 0.711347 -0.329632 -0.620748
v 2.286263 0.367229 -0.798406
vt -0.086801 2.924139
vn 0.760210 -0.335860 -0.556128
v 2.279244 0.369394 -0.808706
vt -0.102750 2.917794
vn 0.716198 -0.330920 -0.614453
v 2.271800 0.380388 -0.822163
vt -0.120023 2.898827
vn 0.651499 -0.276321 -0.706538
v 2.269540 0.377070 -0.822918
vt -0.123654 2.903053
vn 0.656234 -0.281950 -0.699901
v 2.263863 0.396105 -0.833590
vt -0.134993 2.874639
vn 0.585415 -0.185236 -0.789289
v 2.261170 0.393411 -0.835005
vt -0.139525 2.877792
vn 0.590929 -0.194201 -0.783000
v 2.255818 0.423282 -0.844459
vt -0.147362 2.835487
vn 0.545677 -0.128705 -0.828053
v 2.252867 0.421208 -0.846074
vt -0.152234 2.837718
vn 0.550177 -0.134402 -0.824161
v 2.250324 0.446396 -0.850716
vt -0.153983 2.802930
vn 0.499057 -0.067720 -0.863919
v 2.247136 0.444471 -0.852430
vt -0.159184 2.804879
vn 0.503781 -0.074013 -0.860655
v 2.243248 0.480004 -0.856585
vt -0.160006 2.756227
vn 0.452682 -0.034618 -0.891000
v 2.239750 0.478366 -0.858382
vt -0.165578 2.757694
vn 0.456298 -0.036219 -0.889090
v 2.228850 0.552461 -0.865838
vt -0.169078 2.656034
vn 0.440445 -0.029202 -0.897305
v 2.225166 0.550639 -0.867455
vt -0.175051 2.657756
vn 0.440445 -0.029202 -0.897305
v 2.226036 0.551623 -0.867690
vt -0.173745 2.656513
vn 0.440445 -0.029202 -0.897305
v 2.292198 0.326185 -0.764642
vt -0.058306 2.990759
vn 0.751452 -0.396817 -0.527121
v 2.301867 0.328332 -0.753716
vt -0.038364 2.991473
vn 0.764379 -0.377059 -0.523021
v 2.296329 0.348001 -0.775988
vt -0.060645 2.957159
vn 0.746210 -0.404652 -0.528610
v 2.307112 0.347331 -0.758087
vt -0.033391 2.964620
vn 0.764379 -0.377059 -0.523021
v 2.278950 0.328601 -0.784888
vt -0.089567 2.980505
vn 0.726802 -0.419339 -0.543980
v 2.284500 0.350317 -0.794298
vt -0.088614 2.947685
vn 0.720993 -0.420325 -0.550905
v 2.253095 0.381493 -0.841891
vt -0.156144 2.891592
vn 0.635522 -0.188957 -0.748603
v 2.243371 0.413894 -0.854696
vt -0.170857 2.845016
vn 0.624228 -0.099617 -0.774865
v 2.237606 0.366596 -0.851331
vt -0.182952 2.908378
vn 0.636788 -0.197927 -0.745202
v 2.226416 0.403971 -0.867435
vt -0.201045 2.854287
vn 0.624367 -0.101611 -0.774494
v 2.263091 0.362934 -0.826840
vt -0.136556 2.920411
vn 0.663700 -0.322345 -0.674979
v 2.249671 0.343832 -0.830465
vt -0.156949 2.944924
vn 0.665882 -0.328446 -0.669869
v 2.274564 0.353281 -0.808887
vt -0.111054 2.938892
vn 0.696734 -0.402149 -0.594001
v 2.263186 0.333894 -0.808828
vt -0.125975 2.965264
vn 0.696384 -0.401661 -0.594742
v 2.221107 0.427194 -0.873225
vt -0.207022 2.821732
vn 0.618300 -0.021931 -0.785636
v 2.237178 0.437220 -0.861073
vt -0.178233 2.812123
vn 0.617880 -0.017438 -0.786079
v 2.211767 0.465347 -0.880907
vt -0.216072 2.768480
vn 0.607156 0.025340 -0.794179
v 2.228793 0.472315 -0.867147
vt -0.185501 2.763206
vn 0.606729 0.026313 -0.794473
v 2.195949 0.544564 -0.888084
vt -0.224047 2.659215
vn 0.602225 0.038130 -0.797416
v 2.212106 0.548269 -0.877113
vt -0.197247 2.657566
vn 0.602225 0.038130 -0.797416
v 2.212533 0.547593 -0.875963
vt -0.196001 2.658989
vn 0.602225 0.038130 -0.797416
v 2.212533 0.547593 -0.875963
vt -0.196001 2.658989
vn 0.584601 0.023913 -0.810969
v 2.228793 0.472315 -0.867147
vt -0.185501 2.763206
vn 0.603139 0.019238 -0.797404
v 2.225166 0.550639 -0.867455
vt -0.175051 2.657756
vn 0.584601 0.023913 -0.810969
v 2.239750 0.478366 -0.858382
vt -0.165578 2.757694
vn 0.598895 0.020321 -0.800570
v 2.247136 0.444471 -0.852430
vt -0.159184 2.804879
vn 0.649904 -0.003018 -0.760011
v 2.237178 0.437220 -0.861073
vt -0.178233 2.812123
vn 0.654418 -0.007530 -0.756095
v 2.252867 0.421208 -0.846074
vt -0.152234 2.837718
vn 0.690178 -0.051311 -0.721818
v 2.243371 0.413894 -0.854696
vt -0.170857 2.845016
vn 0.692117 -0.054228 -0.719745
v 2.286263 0.367229 -0.798406
vt -0.086801 2.924139
vn 0.794248 -0.221804 -0.565661
v 2.279244 0.369394 -0.808706
vt -0.102750 2.917794
vn 0.773181 -0.208005 -0.599104
v 2.284500 0.350317 -0.794298
vt -0.088614 2.947685
vn 0.797707 -0.221743 -0.560797
v 2.274564 0.353281 -0.808887
vt -0.111054 2.938892
vn 0.774620 -0.209843 -0.596598
v 2.269540 0.377070 -0.822918
vt -0.123654 2.903053
vn 0.748269 -0.161237 -0.643503
v 2.263091 0.362934 -0.826840
vt -0.136556 2.920411
vn 0.751713 -0.168331 -0.637646
v 2.261170 0.393411 -0.835005
vt -0.139525 2.877792
vn 0.713877 -0.092646 -0.694116
v 2.253095 0.381493 -0.841891
vt -0.156144 2.891592
vn 0.718843 -0.102310 -0.687602
v 2.297400 0.365006 -0.781382
vt -0.060564 2.933032
vn 0.814192 -0.221712 -0.536596
v 2.296329 0.348001 -0.775988
vt -0.060645 2.957159
vn 0.819334 -0.221708 -0.528713
v 2.307112 0.347331 -0.758087
vt -0.033391 2.964620
vn 0.828747 -0.221699 -0.513837
v 2.309571 0.362439 -0.760858
vt -0.029965 2.943849
vn 0.828747 -0.221699 -0.513837
v 1.221571 0.874913 -0.963539
vt -0.523727 2.798561
vn -0.118329 0.214598 -0.969508
v 1.232643 0.874202 -0.964435
vt -0.508697 2.798033
vn -0.089408 0.185665 -0.978537
v 1.223568 0.880875 -0.962353
vt -0.521996 2.790091
vn -0.114831 0.211065 -0.970704
v 1.227218 0.879666 -0.963035
vt -0.516860 2.791297
vn -0.089408 0.185665 -0.978537
v 1.230393 0.877597 -0.963823
vt -0.512233 2.793736
vn -0.089408 0.185665 -0.978537
v 1.210816 0.882390 -0.960331
vt -0.539552 2.789528
vn -0.149239 0.205602 -0.967190
v 1.210412 0.875816 -0.961764
vt -0.539044 2.798621
vn -0.147910 0.207058 -0.967083
v 1.196962 0.883466 -0.957994
vt -0.558591 2.789608
vn -0.191324 0.143195 -0.971025
v 1.196720 0.876990 -0.959000
vt -0.557982 2.798449
vn -0.189439 0.146486 -0.970904
v 1.177483 0.884926 -0.953937
vt -0.585548 2.789608
vn -0.228137 0.071792 -0.970979
v 1.177076 0.878412 -0.954303
vt -0.585340 2.798438
vn -0.227411 0.073397 -0.971029
v 1.162080 0.886115 -0.950246
vt -0.607009 2.789486
vn -0.264607 0.009372 -0.964311
v 1.161751 0.879605 -0.949976
vt -0.606916 2.798301
vn -0.263908 0.009977 -0.964496
v 1.149047 0.883405 -0.946460
vt -0.625044 2.794426
vn -0.281958 -0.005976 -0.959408
v 1.155170 0.880775 -0.948020
vt -0.616282 2.797380
vn -0.281958 -0.005976 -0.959408
v 1.145387 0.887148 -0.945164
vt -0.630626 2.789742
vn -0.281958 -0.005976 -0.959408
v -2.254795 0.949833 -0.709091
vt -0.443623 2.705285
vn -0.882648 0.018194 -0.469682
v -2.236642 0.949732 -0.742756
vt -0.492221 2.706085
vn -0.882648 0.018194 -0.469682
v -2.255842 0.959825 -0.706287
vt -0.439584 2.720150
vn -0.882648 0.018194 -0.469682
v -2.237412 0.959918 -0.741362
vt -0.490060 2.721272
vn -0.882648 0.018194 -0.469682
v -2.172274 0.949388 -0.828328
vt -0.627825 2.705782
vn -0.528421 0.002063 -0.848980
v -2.168286 0.949286 -0.830282
vt -0.632898 2.705788
vn -0.528421 0.002063 -0.848980
v -2.174620 0.959778 -0.826313
vt -0.623784 2.721225
vn -0.528421 0.002063 -0.848980
v -2.170541 0.959868 -0.829380
vt -0.629452 2.721190
vn -0.528421 0.002063 -0.848980
v -2.273837 0.949713 -0.668839
vt -0.386726 2.703775
vn -0.904888 0.041561 -0.423615
v -2.254795 0.949833 -0.709091
vt -0.443623 2.705285
vn -0.904888 0.041561 -0.423615
v -2.272923 0.959947 -0.669372
vt -0.387572 2.719139
vn -0.904888 0.041561 -0.423615
v -2.255842 0.959825 -0.706287
vt -0.439584 2.720150
vn -0.904888 0.041561 -0.423615
v -2.236642 0.949732 -0.742756
vt -0.492221 2.706085
vn -0.851594 0.013566 -0.524027
v -2.212095 0.949585 -0.782780
vt -0.551938 2.706283
vn -0.851594 0.013566 -0.524027
v -2.237412 0.959918 -0.741362
vt -0.490060 2.721272
vn -0.851594 0.013566 -0.524027
v -2.211689 0.959979 -0.783047
vt -0.552497 2.721851
vn -0.851594 0.013566 -0.524027
v -2.212095 0.949585 -0.782780
vt -0.551938 2.706283
vn -0.790809 0.008095 -0.612009
v -2.195294 0.949570 -0.804370
vt -0.586312 2.706358
vn -0.790809 0.008095 -0.612009
v -2.211689 0.959979 -0.783047
vt -0.552497 2.721851
vn -0.790809 0.008095 -0.612009
v -2.196043 0.960052 -0.803384
vt -0.584809 2.722160
vn -0.790809 0.008095 -0.612009
v -2.195294 0.949570 -0.804370
vt -0.586312 2.706358
vn -0.725763 -0.008681 -0.687890
v -2.172274 0.949388 -0.828328
vt -0.627825 2.705782
vn -0.725763 -0.008681 -0.687890
v -2.196043 0.960052 -0.803384
vt -0.584809 2.722160
vn -0.725763 -0.008681 -0.687890
v -2.174620 0.959778 -0.826313
vt -0.623784 2.721225
vn -0.725763 -0.008681 -0.687890
v -2.168286 0.949286 -0.830282
vt -0.632898 2.705788
vn -0.294797 0.049087 -0.954298
v -2.132191 0.949476 -0.841765
vt -0.680343 2.708722
vn -0.294797 0.049087 -0.954298
v -2.170541 0.959868 -0.829380
vt -0.629452 2.721190
vn -0.294797 0.049087 -0.954298
v -2.130489 0.960093 -0.841403
vt -0.681778 2.724768
vn -0.294797 0.049087 -0.954298
v -2.132191 0.949476 -0.841765
vt -0.680343 2.708722
vn -0.176530 0.068089 -0.981937
v -2.084353 0.950016 -0.850395
vt -0.742229 2.711915
vn -0.176530 0.068089 -0.981937
v -2.130489 0.960093 -0.841403
vt -0.681778 2.724768
vn -0.176530 0.068089 -0.981937
v -2.089301 0.959936 -0.848748
vt -0.735211 2.726594
vn -0.176530 0.068089 -0.981937
v -2.252891 0.962926 -0.705103
vt -0.439801 2.726789
vn -0.663567 0.678337 -0.315497
v -2.270115 0.963030 -0.669370
vt -0.388982 2.725162
vn -0.663567 0.678337 -0.315497
v -2.255842 0.959825 -0.706287
vt -0.439584 2.720150
vn -0.663567 0.678337 -0.315497
v -2.272923 0.959947 -0.669372
vt -0.387572 2.719139
vn -0.663567 0.678337 -0.315497
v -2.234635 0.963024 -0.739542
vt -0.489751 2.728051
vn -0.613239 0.721461 -0.321607
v -2.252891 0.962926 -0.705103
vt -0.439801 2.726789
vn -0.613239 0.721461 -0.321607
v -2.237412 0.959918 -0.741362
vt -0.490060 2.721272
vn -0.613239 0.721461 -0.321607
v -2.255842 0.959825 -0.706287
vt -0.439584 2.720150
vn -0.613239 0.721461 -0.321607
v -2.208514 0.963104 -0.781272
vt -0.552874 2.729014
vn -0.567417 0.744694 -0.351380
v -2.234635 0.963024 -0.739542
vt -0.489751 2.728051
vn -0.567417 0.744694 -0.351380
v -2.211689 0.959979 -0.783047
vt -0.552497 2.721851
vn -0.567417 0.744694 -0.351380
v -2.237412 0.959918 -0.741362
vt -0.490060 2.721272
vn -0.567417 0.744694 -0.351380
v -2.193195 0.963135 -0.801093
vt -0.585004 2.729329
vn -0.515923 0.759652 -0.395920
v -2.208514 0.963104 -0.781272
vt -0.552874 2.729014
vn -0.515923 0.759652 -0.395920
v -2.196043 0.960052 -0.803384
vt -0.584809 2.722160
vn -0.515923 0.759652 -0.395920
v -2.211689 0.959979 -0.783047
vt -0.552497 2.721851
vn -0.515923 0.759652 -0.395920
v -2.173076 0.962857 -0.823391
vt -0.622943 2.727808
vn -0.491340 0.739462 -0.460196
v -2.193195 0.963135 -0.801093
vt -0.585004 2.729329
vn -0.491340 0.739462 -0.460196
v -2.174620 0.959778 -0.826313
vt -0.623784 2.721225
vn -0.491340 0.739462 -0.460196
v -2.196043 0.960052 -0.803384
vt -0.584809 2.722160
vn -0.491340 0.739462 -0.460196
v -2.169530 0.962936 -0.826056
vt -0.628680 2.727909
vn -0.423261 0.726321 -0.541579
v -2.173076 0.962857 -0.823391
vt -0.622943 2.727808
vn -0.423261 0.726321 -0.541579
v -2.170541 0.959868 -0.829380
vt -0.629452 2.721190
vn -0.423261 0.726321 -0.541579
v -2.174620 0.959778 -0.826313
vt -0.623784 2.721225
vn -0.423261 0.726321 -0.541579
v -2.129801 0.963036 -0.837911
vt -0.681298 2.731683
vn -0.189407 0.759451 -0.622382
v -2.169530 0.962936 -0.826056
vt -0.628680 2.727909
vn -0.189407 0.759451 -0.622382
v -2.130489 0.960093 -0.841403
vt -0.681778 2.724768
vn -0.189407 0.759451 -0.622382
v -2.170541 0.959868 -0.829380
vt -0.629452 2.721190
vn -0.189407 0.759451 -0.622382
v -2.091352 0.963029 -0.845134
vt -0.731617 2.733148
vn -0.118413 0.745495 -0.655908
v -2.129801 0.963036 -0.837911
vt -0.681298 2.731683
vn -0.118413 0.745495 -0.655908
v -2.089301 0.959936 -0.848748
vt -0.735211 2.726594
vn -0.118413 0.745495 -0.655908
v -2.130489 0.960093 -0.841403
vt -0.681778 2.724768
vn -0.118413 0.745495 -0.655908
v -2.131259 0.946224 -0.838339
vt -0.680705 2.701535
vn -0.129302 -0.683895 -0.718031
v -2.082298 0.945700 -0.847149
vt -0.744325 2.703625
vn -0.129302 -0.683895 -0.718031
v -2.132191 0.949476 -0.841765
vt -0.680343 2.708722
vn -0.129302 -0.683895 -0.718031
v -2.084353 0.950016 -0.850395
vt -0.742229 2.711915
vn -0.129302 -0.683895 -0.718031
v -2.166408 0.946153 -0.827130
vt -0.633669 2.698813
vn -0.200165 -0.744332 -0.637106
v -2.131259 0.946224 -0.838339
vt -0.680705 2.701535
vn -0.200165 -0.744332 -0.637106
v -2.168286 0.949286 -0.830282
vt -0.632898 2.705788
vn -0.200165 -0.744332 -0.637106
v -2.132191 0.949476 -0.841765
vt -0.680343 2.708722
vn -0.200165 -0.744332 -0.637106
v -2.170524 0.946242 -0.825446
vt -0.627436 2.698977
vn -0.287791 -0.744794 -0.602046
v -2.166408 0.946153 -0.827130
vt -0.633669 2.698813
vn -0.287791 -0.744794 -0.602046
v -2.172274 0.949388 -0.828328
vt -0.627825 2.705782
vn -0.287791 -0.744794 -0.602046
v -2.168286 0.949286 -0.830282
vt -0.632898 2.705788
vn -0.287791 -0.744794 -0.602046
v -2.193290 0.946291 -0.801986
vt -0.585714 2.699636
vn -0.513160 -0.703158 -0.492174
v -2.170524 0.946242 -0.825446
vt -0.627436 2.698977
vn -0.513160 -0.703158 -0.492174
v -2.195294 0.949570 -0.804370
vt -0.586312 2.706358
vn -0.513160 -0.703158 -0.492174
v -2.172274 0.949388 -0.828328
vt -0.627825 2.705782
vn -0.513160 -0.703158 -0.492174
v -2.210039 0.946466 -0.780936
vt -0.551463 2.700078
vn -0.583618 -0.671738 -0.456244
v -2.193290 0.946291 -0.801986
vt -0.585714 2.699636
vn -0.583618 -0.671738 -0.456244
v -2.212095 0.949585 -0.782780
vt -0.551938 2.706283
vn -0.583618 -0.671738 -0.456244
v -2.195294 0.949570 -0.804370
vt -0.586312 2.706358
vn -0.583618 -0.671738 -0.456244
v -2.234320 0.946357 -0.741038
vt -0.491861 2.699466
vn -0.646794 -0.652481 -0.394875
v -2.210039 0.946466 -0.780936
vt -0.551463 2.700078
vn -0.646794 -0.652481 -0.394875
v -2.236642 0.949732 -0.742756
vt -0.492221 2.706085
vn -0.646794 -0.652481 -0.394875
v -2.212095 0.949585 -0.782780
vt -0.551938 2.706283
vn -0.646794 -0.652481 -0.394875
v -2.252718 0.946621 -0.707592
vt -0.443214 2.699159
vn -0.680600 -0.633892 -0.367375
v -2.234320 0.946357 -0.741038
vt -0.491861 2.699466
vn -0.680600 -0.633892 -0.367375
v -2.254795 0.949833 -0.709091
vt -0.443623 2.705285
vn -0.680600 -0.633892 -0.367375
v -2.236642 0.949732 -0.742756
vt -0.492221 2.706085
vn -0.680600 -0.633892 -0.367375
v -2.271619 0.946562 -0.668160
vt -0.387261 2.697959
vn -0.719438 -0.603355 -0.344052
v -2.252718 0.946621 -0.707592
vt -0.443214 2.699159
vn -0.719438 -0.603355 -0.344052
v -2.273837 0.949713 -0.668839
vt -0.386726 2.703775
vn -0.719438 -0.603355 -0.344052
v -2.254795 0.949833 -0.709091
vt -0.443623 2.705285
vn -0.719438 -0.603355 -0.344052
v -2.126523 0.934442 -0.843310
vt -0.688560 2.683372
vn -0.214750 0.363702 -0.906423
v -2.076280 0.935111 -0.854335
vt -0.754001 2.685820
vn -0.180118 0.401460 -0.897991
v -2.131259 0.946224 -0.838339
vt -0.680705 2.701535
vn -0.245506 0.328686 -0.911972
v -2.082298 0.945700 -0.847149
vt -0.744325 2.703625
vn -0.180118 0.401460 -0.897991
v -2.276934 0.936321 -0.666607
vt -0.382874 2.681326
vn -0.838098 0.368135 -0.402577
v -2.259964 0.935916 -0.702153
vt -0.433096 2.681907
vn -0.832701 0.364655 -0.416696
v -2.271619 0.946562 -0.668160
vt -0.387261 2.697959
vn -0.838098 0.368135 -0.402577
v -2.252718 0.946621 -0.707592
vt -0.443214 2.699159
vn -0.826011 0.360261 -0.433495
v -2.165749 0.934207 -0.830968
vt -0.636625 2.680547
vn -0.333200 0.257465 -0.907022
v -2.166408 0.946153 -0.827130
vt -0.633669 2.698813
vn -0.352202 0.249672 -0.902008
v -2.176352 0.934388 -0.822482
vt -0.619375 2.681129
vn -0.674620 0.199402 -0.710723
v -2.170524 0.946242 -0.825446
vt -0.627436 2.698977
vn -0.646304 0.187361 -0.739721
v -2.194699 0.934630 -0.804742
vt -0.587097 2.681681
vn -0.720090 0.230950 -0.654318
v -2.193290 0.946291 -0.801986
vt -0.585714 2.699636
vn -0.723327 0.233868 -0.649695
v -2.215003 0.934801 -0.780186
vt -0.547187 2.681710
vn -0.780434 0.324551 -0.534406
v -2.210039 0.946466 -0.780936
vt -0.551463 2.700078
vn -0.773481 0.308105 -0.553894
v -2.236038 0.935320 -0.747389
vt -0.497890 2.681661
vn -0.803447 0.356294 -0.476998
v -2.234320 0.946357 -0.741038
vt -0.491861 2.699466
vn -0.810303 0.356643 -0.464990
v -2.260321 0.973857 -0.670971
vt -0.395758 2.745691
vn -0.694263 0.627692 -0.352138
v -2.270115 0.963030 -0.669370
vt -0.388982 2.725162
vn -0.694263 0.627692 -0.352138
v -2.242760 0.973534 -0.704578
vt -0.444670 2.748023
vn -0.675728 0.647398 -0.352515
v -2.252891 0.962926 -0.705103
vt -0.439801 2.726789
vn -0.681711 0.641168 -0.352384
v -2.223716 0.973661 -0.739876
vt -0.497002 2.749233
vn -0.650352 0.654788 -0.385089
v -2.234635 0.963024 -0.739542
vt -0.489751 2.728051
vn -0.655308 0.656954 -0.372805
v -2.201915 0.973800 -0.774389
vt -0.550162 2.750055
vn -0.630362 0.653591 -0.418882
v -2.208514 0.963104 -0.781272
vt -0.552874 2.729014
vn -0.627078 0.654019 -0.423123
v -2.190590 0.973809 -0.789331
vt -0.575271 2.750625
vn -0.580652 0.661597 -0.474482
v -2.193195 0.963135 -0.801093
vt -0.585004 2.729329
vn -0.566910 0.664551 -0.486811
v -2.175539 0.973864 -0.806308
vt -0.606024 2.750807
vn -0.544143 0.670671 -0.504092
v -2.173076 0.962857 -0.823391
vt -0.622943 2.727808
vn -0.519516 0.679447 -0.518127
v -2.160550 0.974102 -0.820516
vt -0.635175 2.749176
vn -0.292828 0.605005 -0.740420
v -2.169530 0.962936 -0.826056
vt -0.628680 2.727909
vn -0.343785 0.629823 -0.696516
v -2.131240 0.974682 -0.828986
vt -0.675383 2.752601
vn -0.254221 0.475105 -0.842406
v -2.129801 0.963036 -0.837911
vt -0.681298 2.731683
vn -0.260551 0.432574 -0.863130
v -2.098096 0.976234 -0.842835
vt -0.722097 2.752739
vn -0.273943 0.319509 -0.907122
v -2.091352 0.963029 -0.845134
vt -0.731617 2.733148
vn -0.273943 0.319509 -0.907122
usemtl Illumination.010
f 3/3/3 2/2/2 1/1/1
f 4/4/4 2/2/2 3/3/3
f 7/7/7 6/6/6 5/5/5
f 8/8/8 6/6/6 7/7/7
f 8/8/8 9/9/9 6/6/6
f 10/10/10 9/9/9 8/8/8
f 10/10/10 11/11/11 9/9/9
f 12/12/12 11/11/11 10/10/10
f 12/12/12 13/13/13 11/11/11
f 14/14/14 13/13/13 12/12/12
f 14/14/14 15/15/15 13/13/13
f 16/16/16 15/15/15 14/14/14
f 16/16/16 17/17/17 15/15/15
f 18/18/18 17/17/17 16/16/16
f 18/18/18 19/19/19 17/17/17
f 20/20/20 19/19/19 18/18/18
f 21/21/21 19/19/19 20/20/20
f 4/4/4 5/5/5 2/2/2
f 7/7/7 5/5/5 4/4/4
f 24/24/24 23/23/23 22/22/22
f 25/25/25 23/23/23 24/24/24
f 27/27/27 22/22/22 26/26/26
f 24/24/24 22/22/22 27/27/27
f 30/30/30 29/29/29 28/28/28
f 31/31/31 29/29/29 30/30/30
f 33/33/33 28/28/28 32/32/32
f 30/30/30 28/28/28 33/33/33
f 35/35/35 32/32/32 34/34/34
f 33/33/33 32/32/32 35/35/35
f 34/34/34 26/26/26 35/35/35
f 27/27/27 26/26/26 34/34/34
f 37/37/37 31/31/31 36/36/36
f 29/29/29 31/31/31 37/37/37
f 39/39/39 36/36/36 38/38/38
f 37/37/37 36/36/36 39/39/39
f 41/41/41 38/38/38 40/40/40
f 42/42/42 38/38/38 41/41/41
f 39/39/39 38/38/38 42/42/42
f 45/45/45 44/44/44 43/43/43
f 46/46/46 44/44/44 45/45/45
f 48/48/48 46/46/46 47/47/47
f 44/44/44 46/46/46 48/48/48
f 50/50/50 47/47/47 49/49/49
f 48/48/48 47/47/47 50/50/50
f 53/53/53 52/52/52 51/51/51
f 54/54/54 52/52/52 53/53/53
f 54/54/54 55/55/55 52/52/52
f 56/56/56 55/55/55 54/54/54
f 56/56/56 57/57/57 55/55/55
f 58/58/58 57/57/57 56/56/56
f 58/58/58 49/49/49 57/57/57
f 50/50/50 49/49/49 58/58/58
f 60/60/60 51/51/51 59/59/59
f 53/53/53 51/51/51 60/60/60
f 59/59/59 61/61/61 60/60/60
f 62/62/62 61/61/61 59/59/59
f 65/65/65 64/64/64 63/63/63
f 66/66/66 64/64/64 65/65/65
f 67/67/67 64/64/64 66/66/66
f 63/63/63 68/68/68 65/65/65
f 69/69/69 68/68/68 63/63/63
f 69/69/69 70/70/70 68/68/68
f 71/71/71 70/70/70 69/69/69
f 71/71/71 72/72/72 70/70/70
f 73/73/73 72/72/72 71/71/71
f 73/73/73 74/74/74 72/72/72
f 75/75/75 74/74/74 73/73/73
f 78/78/78 77/77/77 76/76/76
f 74/74/74 77/77/77 78/78/78
f 75/75/75 77/77/77 74/74/74
f 81/81/81 80/80/80 79/79/79
f 82/82/82 80/80/80 81/81/81
f 85/85/85 84/84/84 83/83/83
f 86/86/86 84/84/84 85/85/85
f 89/89/89 88/88/88 87/87/87
f 90/90/90 88/88/88 89/89/89
f 93/93/93 92/92/92 91/91/91
f 94/94/94 92/92/92 93/93/93
f 97/97/97 96/96/96 95/95/95
f 98/98/98 96/96/96 97/97/97
f 101/101/101 100/100/100 99/99/99
f 102/102/102 100/100/100 101/101/101
f 105/105/105 104/104/104 103/103/103
f 106/106/106 104/104/104 105/105/105
f 109/109/109 108/108/108 107/107/107
f 110/110/110 108/108/108 109/109/109
f 113/113/113 112/112/112 111/111/111
f 114/114/114 112/112/112 113/113/113
f 117/117/117 116/116/116 115/115/115
f 118/118/118 116/116/116 117/117/117
f 121/121/121 120/120/120 119/119/119
f 122/122/122 120/120/120 121/121/121
f 125/125/125 124/124/124 123/123/123
f 126/126/126 124/124/124 125/125/125
f 129/129/129 128/128/128 127/127/127
f 130/130/130 128/128/128 129/129/129
f 133/133/133 132/132/132 131/131/131
f 134/134/134 132/132/132 133/133/133
f 137/137/137 136/136/136 135/135/135
f 138/138/138 136/136/136 137/137/137
f 141/141/141 140/140/140 139/139/139
f 142/142/142 140/140/140 141/141/141
f 145/145/145 144/144/144 143/143/143
f 146/146/146 144/144/144 145/145/145
f 149/149/149 148/148/148 147/147/147
f 150/150/150 148/148/148 149/149/149
f 153/153/153 152/152/152 151/151/151
f 154/154/154 152/152/152 153/153/153
f 157/157/157 156/156/156 155/155/155
f 158/158/158 156/156/156 157/157/157
f 161/161/161 160/160/160 159/159/159
f 162/162/162 160/160/160 161/161/161
f 165/165/165 164/164/164 163/163/163
f 166/166/166 164/164/164 165/165/165
f 169/169/169 168/168/168 167/167/167
f 170/170/170 168/168/168 169/169/169
f 173/173/173 172/172/172 171/171/171
f 174/174/174 172/172/172 173/173/173
f 177/177/177 176/176/176 175/175/175
f 178/178/178 176/176/176 177/177/177
f 181/181/181 180/180/180 179/179/179
f 182/182/182 180/180/180 181/181/181
f 184/184/184 175/175/175 183/183/183
f 177/177/177 175/175/175 184/184/184
f 186/186/186 183/183/183 185/185/185
f 184/184/184 183/183/183 186/186/186
f 188/188/188 185/185/185 187/187/187
f 186/186/186 185/185/185 188/188/188
f 190/190/190 187/187/187 189/189/189
f 188/188/188 187/187/187 190/190/190
f 192/192/192 189/189/189 191/191/191
f 190/190/190 189/189/189 192/192/192
f 182/182/182 191/191/191 180/180/180
f 192/192/192 191/191/191 182/182/182
f 195/195/195 194/194/194 193/193/193
f 196/196/196 194/194/194 195/195/195
f 198/198/198 195/195/195 197/197/197
f 196/196/196 195/195/195 198/198/198
f 200/200/200 197/197/197 199/199/199
f 198/198/198 197/197/197 200/200/200
f 202/202/202 199/199/199 201/201/201
f 200/200/200 199/199/199 202/202/202
f 204/204/204 201/201/201 203/203/203
f 202/202/202 201/201/201 204/204/204
f 206/206/206 203/203/203 205/205/205
f 204/204/204 203/203/203 206/206/206
f 208/208/208 205/205/205 207/207/207
f 206/206/206 205/205/205 208/208/208
f 210/210/210 207/207/207 209/209/209
f 208/208/208 207/207/207 210/210/210
