# Exported from Godot Engine
mtllib Reverse_Light.mtl
o Reverse_Light
v -2.271969 1.045942 -0.654852
vt -0.041053 2.443343
vn -0.913504 0.109864 -0.391714
v -2.291555 1.045908 -0.608982
vt -0.040596 2.510679
vn -0.920226 0.108688 -0.375992
v -2.273129 1.037248 -0.654385
vt -0.029222 2.444505
vn -0.913504 0.109864 -0.391714
v -2.292277 1.037003 -0.609996
vt -0.028587 2.509777
vn -0.919604 0.108762 -0.377491
v -2.306382 1.045942 -0.570930
vt -0.040978 2.565760
vn -0.927020 0.107487 -0.359277
v -2.307480 1.037027 -0.570555
vt -0.028862 2.566822
vn -0.927020 0.107487 -0.359277
v -2.291100 1.048520 -0.608755
vt -0.044975 2.510727
vn -0.694902 0.656862 -0.292650
v -2.271489 1.048522 -0.654779
vt -0.045024 2.443172
vn -0.673051 0.678076 -0.295323
v -2.283341 1.058118 -0.605739
vt -0.062099 2.510526
vn -0.694438 0.657300 -0.292766
v -2.262739 1.057934 -0.651765
vt -0.062927 2.442321
vn -0.673051 0.678076 -0.295323
v -2.301552 1.058027 -0.562022
vt -0.061344 2.574608
vn -0.719216 0.631667 -0.289353
v -2.306733 1.048509 -0.568573
vt -0.045076 2.568937
vn -0.719216 0.631667 -0.289353
v -2.291952 1.034375 -0.609895
vt -0.024741 2.509737
vn -0.597874 -0.762683 -0.246699
v -2.307201 1.034384 -0.570521
vt -0.024932 2.566753
vn -0.618116 -0.745931 -0.248029
v -2.287418 1.031027 -0.609739
vt -0.017429 2.507612
vn -0.589695 -0.769214 -0.246110
v -2.303844 1.031223 -0.570767
vt -0.018975 2.564815
vn -0.618116 -0.745931 -0.248029
v -2.273072 1.034362 -0.653992
vt -0.025045 2.444942
vn -0.573365 -0.781870 -0.244810
v -2.269881 1.030970 -0.650719
vt -0.017697 2.447268
vn -0.573365 -0.781870 -0.244810
v -2.291100 1.048520 -0.608755
vt -0.044975 2.510727
vn -0.832182 0.437127 -0.341164
v -2.292158 1.046332 -0.609275
vt -0.041654 2.510621
vn -0.832171 0.436583 -0.341888
v -2.271489 1.048522 -0.654779
vt -0.045024 2.443172
vn -0.832605 0.422752 -0.357840
v -2.272285 1.046302 -0.655157
vt -0.041792 2.443133
vn -0.832605 0.422752 -0.357840
v -2.306733 1.048509 -0.568573
vt -0.045076 2.568937
vn -0.832195 0.451960 -0.321223
v -2.307555 1.046389 -0.568964
vt -0.041890 2.568863
vn -0.873138 0.391963 -0.289820
v -2.306851 1.046371 -0.571107
vt -0.041868 2.565759
vn -0.831522 0.452889 -0.321654
v -2.307201 1.034384 -0.570521
vt -0.024932 2.566753
vn -0.881046 -0.327880 -0.340958
v -2.307911 1.036388 -0.570669
vt -0.027811 2.566888
vn -0.881198 -0.328067 -0.340386
v -2.308705 1.036388 -0.568297
vt -0.027840 2.570296
vn -0.892379 -0.338469 -0.298494
v -2.291952 1.034375 -0.609895
vt -0.024741 2.509737
vn -0.876864 -0.319347 -0.359343
v -2.292646 1.036492 -0.610079
vt -0.027739 2.509862
vn -0.877061 -0.319773 -0.358481
v -2.273072 1.034362 -0.653992
vt -0.025045 2.444942
vn -0.873235 -0.312179 -0.374172
v -2.273518 1.036351 -0.654575
vt -0.027875 2.444469
vn -0.873235 -0.312179 -0.374172
v -2.273129 1.037248 -0.654385
vt -0.029222 2.444505
vn -0.797486 0.496425 -0.342897
v -2.292277 1.037003 -0.609996
vt -0.028587 2.509777
vn -0.783527 0.530564 -0.323400
v -2.273518 1.036351 -0.654575
vt -0.027875 2.444469
vn -0.797486 0.496425 -0.342897
v -2.292646 1.036492 -0.610079
vt -0.027739 2.509862
vn -0.781245 0.535803 -0.320268
v -2.307480 1.037027 -0.570555
vt -0.028862 2.566822
vn -0.762984 0.576248 -0.292906
v -2.307911 1.036388 -0.570669
vt -0.027811 2.566888
vn -0.763315 0.575848 -0.292830
v -2.308271 1.037182 -0.568231
vt -0.029092 2.570182
vn -0.803134 0.521395 -0.288310
v -2.308705 1.036388 -0.568297
vt -0.027840 2.570296
vn -0.803134 0.521395 -0.288310
v -2.306382 1.045942 -0.570930
vt -0.040978 2.565760
vn -0.559501 -0.800180 -0.216034
v -2.306851 1.046371 -0.571107
vt -0.041868 2.565759
vn -0.558854 -0.800684 -0.215844
v -2.307139 1.045693 -0.568776
vt -0.040688 2.568904
vn -0.709862 -0.647981 -0.276071
v -2.307555 1.046389 -0.568964
vt -0.041890 2.568863
vn -0.709862 -0.647981 -0.276071
v -2.291555 1.045908 -0.608982
vt -0.040596 2.510679
vn -0.544403 -0.808814 -0.222363
v -2.271969 1.045942 -0.654852
vt -0.041053 2.443343
vn -0.539287 -0.809510 -0.232084
v -2.292158 1.046332 -0.609275
vt -0.041654 2.510621
vn -0.544195 -0.808839 -0.222781
v -2.272285 1.046302 -0.655157
vt -0.041792 2.443133
vn -0.539287 -0.809510 -0.232084
v -2.306733 1.048509 -0.568573
vt -0.045076 2.568937
vn -0.832256 0.451892 -0.321160
v -2.306851 1.046371 -0.571107
vt -0.041868 2.565759
vn -0.831618 0.452763 -0.321585
v -2.307139 1.045693 -0.568776
vt -0.040688 2.568904
vn -0.940739 0.103298 -0.323015
v -2.308271 1.037182 -0.568231
vt -0.029092 2.570182
vn -0.940739 0.103298 -0.323015
v -2.306382 1.045942 -0.570930
vt -0.040978 2.565760
vn -0.940739 0.103298 -0.323015
v -2.307480 1.037027 -0.570555
vt -0.028862 2.566822
vn -0.940739 0.103298 -0.323015
v -2.292277 1.037002 0.609997
vt -0.028587 2.509777
vn -0.919599 0.108785 0.377497
v -2.291555 1.045908 0.608982
vt -0.040596 2.510679
vn -0.920210 0.108667 0.376037
v -2.273129 1.037248 0.654385
vt -0.029222 2.444505
vn -0.913521 0.109885 0.391669
v -2.271969 1.045942 0.654852
vt -0.041053 2.443343
vn -0.913521 0.109885 0.391669
v -2.307480 1.037027 0.570556
vt -0.028862 2.566822
vn -0.927005 0.107467 0.359322
v -2.306382 1.045942 0.570931
vt -0.040978 2.565760
vn -0.927005 0.107467 0.359322
v -2.262739 1.057934 0.651765
vt -0.062927 2.442321
vn -0.673026 0.678101 0.295323
v -2.271489 1.048522 0.654779
vt -0.045024 2.443172
vn -0.673026 0.678101 0.295323
v -2.283341 1.058118 0.605740
vt -0.062099 2.510526
vn -0.694427 0.657287 0.292822
v -2.291100 1.048520 0.608755
vt -0.044975 2.510727
vn -0.694890 0.656850 0.292706
v -2.306733 1.048509 0.568573
vt -0.045076 2.568937
vn -0.719205 0.631654 0.289409
v -2.301552 1.058027 0.562022
vt -0.061344 2.574608
vn -0.719205 0.631654 0.289409
v -2.303844 1.031223 0.570768
vt -0.018975 2.564815
vn -0.618128 -0.745940 0.247974
v -2.307201 1.034384 0.570521
vt -0.024932 2.566753
vn -0.618128 -0.745940 0.247974
v -2.287418 1.031027 0.609740
vt -0.017429 2.507612
vn -0.589785 -0.769196 0.245950
v -2.291952 1.034375 0.609896
vt -0.024741 2.509737
vn -0.597910 -0.762708 0.246536
v -2.269881 1.030970 0.650720
vt -0.017697 2.447268
vn -0.573377 -0.781878 0.244756
v -2.273072 1.034362 0.653992
vt -0.025045 2.444942
vn -0.573377 -0.781878 0.244756
v -2.272285 1.046302 0.655157
vt -0.041792 2.443133
vn -0.832586 0.422829 0.357793
v -2.292158 1.046331 0.609275
vt -0.041654 2.510621
vn -0.832220 0.436496 0.341878
v -2.271489 1.048522 0.654779
vt -0.045024 2.443172
vn -0.832586 0.422829 0.357793
v -2.291100 1.048520 0.608755
vt -0.044975 2.510727
vn -0.832166 0.437156 0.341168
v -2.306851 1.046371 0.571107
vt -0.041868 2.565759
vn -0.831601 0.452792 0.321588
v -2.307555 1.046389 0.568964
vt -0.041890 2.568863
vn -0.873124 0.391991 0.289823
v -2.306733 1.048509 0.568573
vt -0.045076 2.568937
vn -0.832206 0.451978 0.321168
v -2.308705 1.036388 0.568298
vt -0.027840 2.570296
vn -0.892409 -0.338524 0.298341
v -2.307911 1.036387 0.570669
vt -0.027811 2.566888
vn -0.881285 -0.328109 0.340120
v -2.307201 1.034384 0.570521
vt -0.024932 2.566753
vn -0.881109 -0.327930 0.340747
v -2.307911 1.036387 0.570669
vt -0.027811 2.566888
vn -0.881186 -0.328095 0.340391
v -2.292646 1.036492 0.610080
vt -0.027739 2.509862
vn -0.877051 -0.319849 0.358439
v -2.307201 1.034384 0.570521
vt -0.024932 2.566753
vn -0.881035 -0.328003 0.340868
v -2.291952 1.034375 0.609896
vt -0.024741 2.509737
vn -0.876905 -0.319408 0.359188
v -2.273518 1.036351 0.654576
vt -0.027875 2.444469
vn -0.873252 -0.312248 0.374074
v -2.273072 1.034362 0.653992
vt -0.025045 2.444942
vn -0.873252 -0.312248 0.374074
v -2.292646 1.036492 0.610080
vt -0.027739 2.509862
vn -0.781192 0.535844 0.320327
v -2.292277 1.037002 0.609997
vt -0.028587 2.509777
vn -0.783507 0.530592 0.323403
v -2.273518 1.036351 0.654576
vt -0.027875 2.444469
vn -0.797429 0.496511 0.342904
v -2.273129 1.037248 0.654385
vt -0.029222 2.444505
vn -0.797429 0.496511 0.342904
v -2.307911 1.036387 0.570669
vt -0.027811 2.566888
vn -0.763240 0.575972 0.292780
v -2.307480 1.037027 0.570556
vt -0.028862 2.566822
vn -0.762909 0.576372 0.292856
v -2.308705 1.036388 0.568298
vt -0.027840 2.570296
vn -0.803106 0.521466 0.288260
v -2.308271 1.037182 0.568231
vt -0.029092 2.570182
vn -0.803106 0.521466 0.288260
v -2.307555 1.046389 0.568964
vt -0.041890 2.568863
vn -0.709860 -0.648031 0.275961
v -2.306851 1.046371 0.571107
vt -0.041868 2.565759
vn -0.558904 -0.800676 0.215740
v -2.307139 1.045693 0.568776
vt -0.040688 2.568904
vn -0.709860 -0.648031 0.275961
v -2.306382 1.045942 0.570931
vt -0.040978 2.565760
vn -0.559388 -0.800289 0.215922
v -2.272285 1.046302 0.655157
vt -0.041792 2.443133
vn -0.539380 -0.809493 0.231928
v -2.271969 1.045942 0.654852
vt -0.041053 2.443343
vn -0.539380 -0.809493 0.231928
v -2.292158 1.046331 0.609275
vt -0.041654 2.510621
vn -0.544198 -0.808807 0.222888
v -2.291555 1.045908 0.608982
vt -0.040596 2.510679
vn -0.544485 -0.808758 0.222367
v -2.307480 1.037027 0.570556
vt -0.028862 2.566822
vn -0.940744 0.103276 0.323010
v -2.308271 1.037182 0.568231
vt -0.029092 2.570182
vn -0.940744 0.103276 0.323010
v -2.306382 1.045942 0.570931
vt -0.040978 2.565760
vn -0.940744 0.103276 0.323010
v -2.307139 1.045693 0.568776
vt -0.040688 2.568904
vn -0.940744 0.103276 0.323010
usemtl Illumination
f 3/3/3 2/2/2 1/1/1
f 4/4/4 2/2/2 3/3/3
f 4/4/4 5/5/5 2/2/2
f 6/6/6 5/5/5 4/4/4
f 9/9/9 8/8/8 7/7/7
f 10/10/10 8/8/8 9/9/9
f 9/9/9 12/12/12 11/11/11
f 7/7/7 12/12/12 9/9/9
f 15/15/15 14/14/14 13/13/13
f 16/16/16 14/14/14 15/15/15
f 17/17/17 15/15/15 13/13/13
f 18/18/18 15/15/15 17/17/17
f 21/21/21 20/20/20 19/19/19
f 22/22/22 20/20/20 21/21/21
f 25/25/25 24/24/24 23/23/23
f 28/28/28 27/27/27 26/26/26
f 26/26/26 30/30/30 29/29/29
f 27/27/27 30/30/30 26/26/26
f 29/29/29 32/32/32 31/31/31
f 30/30/30 32/32/32 29/29/29
f 35/35/35 34/34/34 33/33/33
f 36/36/36 34/34/34 35/35/35
f 36/36/36 37/37/37 34/34/34
f 38/38/38 37/37/37 36/36/36
f 37/37/37 40/40/40 39/39/39
f 38/38/38 40/40/40 37/37/37
f 43/43/43 42/42/42 41/41/41
f 44/44/44 42/42/42 43/43/43
f 47/47/47 46/46/46 45/45/45
f 48/48/48 46/46/46 47/47/47
f 19/19/19 50/50/50 49/49/49
f 20/20/20 50/50/50 19/19/19
f 42/42/42 45/45/45 41/41/41
f 47/47/47 45/45/45 42/42/42
f 53/53/53 52/52/52 51/51/51
f 54/54/54 52/52/52 53/53/53
f 57/57/57 56/56/56 55/55/55
f 58/58/58 56/56/56 57/57/57
f 55/55/55 60/60/60 59/59/59
f 56/56/56 60/60/60 55/55/55
f 63/63/63 62/62/62 61/61/61
f 64/64/64 62/62/62 63/63/63
f 63/63/63 65/65/65 64/64/64
f 66/66/66 65/65/65 63/63/63
f 69/69/69 68/68/68 67/67/67
f 70/70/70 68/68/68 69/69/69
f 72/72/72 69/69/69 71/71/71
f 70/70/70 69/69/69 72/72/72
f 75/75/75 74/74/74 73/73/73
f 76/76/76 74/74/74 75/75/75
f 79/79/79 78/78/78 77/77/77
f 82/82/82 81/81/81 80/80/80
f 85/85/85 84/84/84 83/83/83
f 86/86/86 84/84/84 85/85/85
f 86/86/86 87/87/87 84/84/84
f 88/88/88 87/87/87 86/86/86
f 91/91/91 90/90/90 89/89/89
f 92/92/92 90/90/90 91/91/91
f 89/89/89 94/94/94 93/93/93
f 90/90/90 94/94/94 89/89/89
f 94/94/94 95/95/95 93/93/93
f 96/96/96 95/95/95 94/94/94
f 99/99/99 98/98/98 97/97/97
f 100/100/100 98/98/98 99/99/99
f 103/103/103 102/102/102 101/101/101
f 104/104/104 102/102/102 103/103/103
f 76/76/76 77/77/77 74/74/74
f 79/79/79 77/77/77 76/76/76
f 98/98/98 104/104/104 103/103/103
f 100/100/100 104/104/104 98/98/98
f 107/107/107 106/106/106 105/105/105
f 108/108/108 106/106/106 107/107/107
