# Exported from Godot Engine
mtllib Right_Turn_Signal.mtl
o Right_Turn_Signal
v 2.297400 0.365005 0.781382
vt -0.060564 2.933032
vn 0.781363 -0.336948 0.525298
v 2.298643 0.369522 0.782356
vt -0.059299 2.926660
vn 0.779808 -0.336626 0.527809
v 2.309571 0.362439 0.760858
vt -0.029965 2.943849
vn 0.789113 -0.338334 0.512669
v 2.311704 0.367621 0.761087
vt -0.027013 2.936848
vn 0.789113 -0.338334 0.512669
v 2.279244 0.369393 0.808706
vt -0.102750 2.917794
vn 0.716227 -0.330947 0.614405
v 2.280842 0.373600 0.809108
vt -0.100662 2.911979
vn 0.711318 -0.329605 0.620796
v 2.286263 0.367229 0.798406
vt -0.086801 2.924139
vn 0.760227 -0.335831 0.556122
v 2.287575 0.371521 0.799235
vt -0.085391 2.918081
vn 0.758417 -0.336141 0.558402
v 2.269540 0.377070 0.822918
vt -0.123654 2.903053
vn 0.656201 -0.281922 0.699943
v 2.271800 0.380388 0.822163
vt -0.120023 2.898827
vn 0.651480 -0.276348 0.706545
v 2.261170 0.393411 0.835005
vt -0.139525 2.877792
vn 0.590997 -0.194335 0.782915
v 2.263863 0.396105 0.833590
vt -0.134993 2.874639
vn 0.585360 -0.185313 0.789311
v 2.252867 0.421207 0.846075
vt -0.152234 2.837718
vn 0.550160 -0.134426 0.824169
v 2.255818 0.423282 0.844459
vt -0.147362 2.835487
vn 0.545765 -0.128732 0.827991
v 2.247136 0.444470 0.852430
vt -0.159184 2.804879
vn 0.503815 -0.074037 0.860633
v 2.250324 0.446395 0.850716
vt -0.153983 2.802930
vn 0.499092 -0.067743 0.863897
v 2.239750 0.478366 0.858383
vt -0.165578 2.757694
vn 0.456281 -0.036240 0.889098
v 2.243248 0.480004 0.856585
vt -0.160006 2.756227
vn 0.452665 -0.034639 0.891008
v 2.226036 0.551623 0.867691
vt -0.173745 2.656513
vn 0.440478 -0.029223 0.897288
v 2.228850 0.552461 0.865838
vt -0.169078 2.656034
vn 0.440478 -0.029223 0.897288
v 2.225166 0.550639 0.867455
vt -0.175051 2.657756
vn 0.440478 -0.029223 0.897288
v 2.307112 0.347331 0.758087
vt -0.033391 2.964620
vn 0.764397 -0.377030 0.523016
v 2.301867 0.328331 0.753716
vt -0.038364 2.991473
vn 0.764397 -0.377030 0.523016
v 2.296329 0.348000 0.775989
vt -0.060645 2.957159
vn 0.746186 -0.404627 0.528662
v 2.292198 0.326185 0.764642
vt -0.058306 2.990759
vn 0.751438 -0.396900 0.527078
v 2.284500 0.350316 0.794298
vt -0.088614 2.947685
vn 0.720972 -0.420354 0.550909
v 2.278950 0.328601 0.784889
vt -0.089567 2.980505
vn 0.726777 -0.419314 0.544032
v 2.226416 0.403970 0.867435
vt -0.201045 2.854287
vn 0.624351 -0.101635 0.774504
v 2.243371 0.413894 0.854696
vt -0.170857 2.845016
vn 0.624313 -0.099642 0.774794
v 2.237606 0.366595 0.851331
vt -0.182952 2.908378
vn 0.636754 -0.197899 0.745238
v 2.253095 0.381493 0.841891
vt -0.156144 2.891592
vn 0.635488 -0.188930 0.748639
v 2.249671 0.343832 0.830465
vt -0.156949 2.944924
vn 0.665851 -0.328418 0.669914
v 2.263091 0.362934 0.826840
vt -0.136556 2.920411
vn 0.663668 -0.322317 0.675023
v 2.263186 0.333894 0.808828
vt -0.125975 2.965264
vn 0.696405 -0.401632 0.594737
v 2.274564 0.353281 0.808887
vt -0.111054 2.938892
vn 0.696707 -0.402122 0.594052
v 2.237178 0.437220 0.861073
vt -0.178233 2.812123
vn 0.617846 -0.017416 0.786106
v 2.221107 0.427193 0.873226
vt -0.207022 2.821732
vn 0.618314 -0.021909 0.785626
v 2.228793 0.472315 0.867147
vt -0.185501 2.763206
vn 0.606646 0.026291 0.794537
v 2.211767 0.465346 0.880907
vt -0.216072 2.768480
vn 0.607052 0.025273 0.794260
v 2.212533 0.547593 0.875963
vt -0.196001 2.658989
vn 0.602121 0.038062 0.797497
v 2.212106 0.548268 0.877113
vt -0.197247 2.657566
vn 0.602121 0.038062 0.797497
v 2.195949 0.544564 0.888085
vt -0.224047 2.659215
vn 0.602121 0.038062 0.797497
v 2.239750 0.478366 0.858383
vt -0.165578 2.757694
vn 0.598860 0.020299 0.800596
v 2.228793 0.472315 0.867147
vt -0.185501 2.763206
vn 0.603084 0.019172 0.797447
v 2.225166 0.550639 0.867455
vt -0.175051 2.657756
vn 0.584566 0.023890 0.810994
v 2.212533 0.547593 0.875963
vt -0.196001 2.658989
vn 0.584566 0.023890 0.810994
v 2.237178 0.437220 0.861073
vt -0.178233 2.812123
vn 0.654385 -0.007508 0.756124
v 2.247136 0.444470 0.852430
vt -0.159184 2.804879
vn 0.649891 -0.003040 0.760021
v 2.243371 0.413894 0.854696
vt -0.170857 2.845016
vn 0.692129 -0.054204 0.719735
v 2.252867 0.421207 0.846075
vt -0.152234 2.837718
vn 0.690211 -0.051334 0.721785
v 2.274564 0.353281 0.808887
vt -0.111054 2.938892
vn 0.774592 -0.209818 0.596644
v 2.279244 0.369393 0.808706
vt -0.102750 2.917794
vn 0.773167 -0.208031 0.599112
v 2.284500 0.350316 0.794298
vt -0.088614 2.947685
vn 0.797681 -0.221719 0.560843
v 2.286263 0.367229 0.798406
vt -0.086801 2.924139
vn 0.794195 -0.221834 0.565724
v 2.263091 0.362934 0.826840
vt -0.136556 2.920411
vn 0.751760 -0.168407 0.637571
v 2.269540 0.377070 0.822918
vt -0.123654 2.903053
vn 0.748282 -0.161211 0.643494
v 2.253095 0.381493 0.841891
vt -0.156144 2.891592
vn 0.718875 -0.102335 0.687565
v 2.261170 0.393411 0.835005
vt -0.139525 2.877792
vn 0.713890 -0.092622 0.694106
v 2.296329 0.348000 0.775989
vt -0.060645 2.957159
vn 0.819091 -0.221703 0.529092
v 2.297400 0.365005 0.781382
vt -0.060564 2.933032
vn 0.814179 -0.221739 0.536604
v 2.309571 0.362439 0.760858
vt -0.029965 2.943849
vn 0.828770 -0.221723 0.513789
v 2.307112 0.347331 0.758087
vt -0.033391 2.964620
vn 0.828770 -0.221723 0.513789
v 1.230393 0.877597 0.963824
vt -0.512233 2.793736
vn -0.089430 0.185690 0.978530
v 1.232643 0.874201 0.964435
vt -0.508697 2.798033
vn -0.089430 0.185690 0.978530
v 1.227218 0.879665 0.963035
vt -0.516860 2.791297
vn -0.089430 0.185690 0.978530
v 1.223568 0.880875 0.962353
vt -0.521996 2.790091
vn -0.114811 0.211084 0.970702
v 1.221571 0.874913 0.963539
vt -0.523727 2.798561
vn -0.118305 0.214572 0.969517
v 1.210412 0.875816 0.961764
vt -0.539044 2.798621
vn -0.147935 0.207085 0.967074
v 1.210816 0.882389 0.960331
vt -0.539552 2.789528
vn -0.149214 0.205575 0.967199
v 1.196720 0.876990 0.959001
vt -0.557982 2.798449
vn -0.189413 0.146461 0.970913
v 1.196962 0.883466 0.957994
vt -0.558591 2.789608
vn -0.191344 0.143174 0.971024
v 1.177076 0.878411 0.954303
vt -0.585340 2.798438
vn -0.227430 0.073378 0.971026
v 1.177483 0.884926 0.953938
vt -0.585548 2.789608
vn -0.228110 0.071770 0.970986
v 1.161751 0.879605 0.949976
vt -0.606916 2.798301
vn -0.263936 0.009997 0.964489
v 1.162080 0.886115 0.950246
vt -0.607009 2.789486
vn -0.264634 0.009391 0.964303
v 1.155170 0.880774 0.948020
vt -0.616282 2.797380
vn -0.282042 -0.006034 0.959383
v 1.145387 0.887148 0.945164
vt -0.630626 2.789742
vn -0.282042 -0.006034 0.959383
v 1.149047 0.883405 0.946460
vt -0.625044 2.794426
vn -0.282042 -0.006034 0.959383
v -2.237412 0.959918 0.741363
vt -0.490060 2.721272
vn -0.882627 0.018173 0.469723
v -2.236642 0.949732 0.742756
vt -0.492221 2.706085
vn -0.882627 0.018173 0.469723
v -2.255842 0.959825 0.706288
vt -0.439584 2.720150
vn -0.882627 0.018173 0.469723
v -2.254795 0.949833 0.709092
vt -0.443623 2.705285
vn -0.882627 0.018173 0.469723
v -2.170541 0.959868 0.829381
vt -0.629452 2.721190
vn -0.528406 0.002084 0.848989
v -2.168286 0.949286 0.830282
vt -0.632898 2.705788
vn -0.528406 0.002084 0.848989
v -2.174620 0.959778 0.826314
vt -0.623784 2.721225
vn -0.528406 0.002084 0.848989
v -2.172274 0.949388 0.828328
vt -0.627825 2.705782
vn -0.528406 0.002084 0.848989
v -2.255842 0.959825 0.706288
vt -0.439584 2.720150
vn -0.904907 0.041582 0.423572
v -2.254795 0.949833 0.709092
vt -0.443623 2.705285
vn -0.904907 0.041582 0.423572
v -2.272923 0.959947 0.669372
vt -0.387572 2.719139
vn -0.904907 0.041582 0.423572
v -2.273837 0.949713 0.668839
vt -0.386726 2.703775
vn -0.904907 0.041582 0.423572
v -2.211689 0.959979 0.783047
vt -0.552497 2.721851
vn -0.851618 0.013588 0.523986
v -2.212095 0.949585 0.782780
vt -0.551938 2.706283
vn -0.851618 0.013588 0.523986
v -2.237412 0.959918 0.741363
vt -0.490060 2.721272
vn -0.851618 0.013588 0.523986
v -2.236642 0.949732 0.742756
vt -0.492221 2.706085
vn -0.851618 0.013588 0.523986
v -2.196043 0.960052 0.803384
vt -0.584809 2.722160
vn -0.790817 0.008073 0.611999
v -2.195294 0.949570 0.804370
vt -0.586312 2.706358
vn -0.790817 0.008073 0.611999
v -2.211689 0.959979 0.783047
vt -0.552497 2.721851
vn -0.790817 0.008073 0.611999
v -2.212095 0.949585 0.782780
vt -0.551938 2.706283
vn -0.790817 0.008073 0.611999
v -2.174620 0.959778 0.826314
vt -0.623784 2.721225
vn -0.725795 -0.008703 0.687856
v -2.172274 0.949388 0.828328
vt -0.627825 2.705782
vn -0.725795 -0.008703 0.687856
v -2.196043 0.960052 0.803384
vt -0.584809 2.722160
vn -0.725795 -0.008703 0.687856
v -2.195294 0.949570 0.804370
vt -0.586312 2.706358
vn -0.725795 -0.008703 0.687856
v -2.130489 0.960093 0.841404
vt -0.681778 2.724768
vn -0.294816 0.049067 0.954294
v -2.132191 0.949476 0.841765
vt -0.680343 2.708722
vn -0.294816 0.049067 0.954294
v -2.170541 0.959868 0.829381
vt -0.629452 2.721190
vn -0.294816 0.049067 0.954294
v -2.168286 0.949286 0.830282
vt -0.632898 2.705788
vn -0.294816 0.049067 0.954294
v -2.089301 0.959936 0.848749
vt -0.735211 2.726594
vn -0.176505 0.068068 0.981943
v -2.084353 0.950015 0.850395
vt -0.742229 2.711915
vn -0.176505 0.068068 0.981943
v -2.130489 0.960093 0.841404
vt -0.681778 2.724768
vn -0.176505 0.068068 0.981943
v -2.132191 0.949476 0.841765
vt -0.680343 2.708722
vn -0.176505 0.068068 0.981943
v -2.272923 0.959947 0.669372
vt -0.387572 2.719139
vn -0.663619 0.678338 0.315384
v -2.270115 0.963030 0.669371
vt -0.388982 2.725162
vn -0.663619 0.678338 0.315384
v -2.255842 0.959825 0.706288
vt -0.439584 2.720150
vn -0.663619 0.678338 0.315384
v -2.252891 0.962926 0.705104
vt -0.439801 2.726789
vn -0.663619 0.678338 0.315384
v -2.255842 0.959825 0.706288
vt -0.439584 2.720150
vn -0.613213 0.721485 0.321606
v -2.252891 0.962926 0.705104
vt -0.439801 2.726789
vn -0.613213 0.721485 0.321606
v -2.237412 0.959918 0.741363
vt -0.490060 2.721272
vn -0.613213 0.721485 0.321606
v -2.234635 0.963024 0.739543
vt -0.489751 2.728051
vn -0.613213 0.721485 0.321606
v -2.237412 0.959918 0.741363
vt -0.490060 2.721272
vn -0.567445 0.744672 0.351382
v -2.234635 0.963024 0.739543
vt -0.489751 2.728051
vn -0.567445 0.744672 0.351382
v -2.211689 0.959979 0.783047
vt -0.552497 2.721851
vn -0.567445 0.744672 0.351382
v -2.208514 0.963104 0.781272
vt -0.552874 2.729014
vn -0.567445 0.744672 0.351382
v -2.211689 0.959979 0.783047
vt -0.552497 2.721851
vn -0.515942 0.759668 0.395864
v -2.208514 0.963104 0.781272
vt -0.552874 2.729014
vn -0.515942 0.759668 0.395864
v -2.196043 0.960052 0.803384
vt -0.584809 2.722160
vn -0.515942 0.759668 0.395864
v -2.193195 0.963134 0.801094
vt -0.585004 2.729329
vn -0.515942 0.759668 0.395864
v -2.196043 0.960052 0.803384
vt -0.584809 2.722160
vn -0.491311 0.739483 0.460193
v -2.193195 0.963134 0.801094
vt -0.585004 2.729329
vn -0.491311 0.739483 0.460193
v -2.174620 0.959778 0.826314
vt -0.623784 2.721225
vn -0.491311 0.739483 0.460193
v -2.173076 0.962857 0.823391
vt -0.622943 2.727808
vn -0.491311 0.739483 0.460193
v -2.174620 0.959778 0.826314
vt -0.623784 2.721225
vn -0.423236 0.726296 0.541632
v -2.173076 0.962857 0.823391
vt -0.622943 2.727808
vn -0.423236 0.726296 0.541632
v -2.170541 0.959868 0.829381
vt -0.629452 2.721190
vn -0.423236 0.726296 0.541632
v -2.169530 0.962936 0.826056
vt -0.628680 2.727909
vn -0.423236 0.726296 0.541632
v -2.170541 0.959868 0.829381
vt -0.629452 2.721190
vn -0.189434 0.759437 0.622391
v -2.169530 0.962936 0.826056
vt -0.628680 2.727909
vn -0.189434 0.759437 0.622391
v -2.130489 0.960093 0.841404
vt -0.681778 2.724768
vn -0.189434 0.759437 0.622391
v -2.129801 0.963035 0.837911
vt -0.681298 2.731683
vn -0.189434 0.759437 0.622391
v -2.130489 0.960093 0.841404
vt -0.681778 2.724768
vn -0.118438 0.745483 0.655918
v -2.129801 0.963035 0.837911
vt -0.681298 2.731683
vn -0.118438 0.745483 0.655918
v -2.089301 0.959936 0.848749
vt -0.735211 2.726594
vn -0.118438 0.745483 0.655918
v -2.091352 0.963029 0.845135
vt -0.731617 2.733148
vn -0.118438 0.745483 0.655918
v -2.084353 0.950015 0.850395
vt -0.742229 2.711915
vn -0.129327 -0.683928 0.717995
v -2.082298 0.945699 0.847149
vt -0.744325 2.703625
vn -0.129327 -0.683928 0.717995
v -2.132191 0.949476 0.841765
vt -0.680343 2.708722
vn -0.129327 -0.683928 0.717995
v -2.131259 0.946224 0.838339
vt -0.680705 2.701535
vn -0.129327 -0.683928 0.717995
v -2.132191 0.949476 0.841765
vt -0.680343 2.708722
vn -0.200191 -0.744362 0.637063
v -2.131259 0.946224 0.838339
vt -0.680705 2.701535
vn -0.200191 -0.744362 0.637063
v -2.168286 0.949286 0.830282
vt -0.632898 2.705788
vn -0.200191 -0.744362 0.637063
v -2.166408 0.946153 0.827130
vt -0.633669 2.698813
vn -0.200191 -0.744362 0.637063
v -2.168286 0.949286 0.830282
vt -0.632898 2.705788
vn -0.287817 -0.744822 0.601998
v -2.166408 0.946153 0.827130
vt -0.633669 2.698813
vn -0.287817 -0.744822 0.601998
v -2.172274 0.949388 0.828328
vt -0.627825 2.705782
vn -0.287817 -0.744822 0.601998
v -2.170524 0.946242 0.825446
vt -0.627436 2.698977
vn -0.287817 -0.744822 0.601998
v -2.172274 0.949388 0.828328
vt -0.627825 2.705782
vn -0.513229 -0.703223 0.492009
v -2.170524 0.946242 0.825446
vt -0.627436 2.698977
vn -0.513229 -0.703223 0.492009
v -2.195294 0.949570 0.804370
vt -0.586312 2.706358
vn -0.513229 -0.703223 0.492009
v -2.193290 0.946291 0.801986
vt -0.585714 2.699636
vn -0.513229 -0.703223 0.492009
v -2.195294 0.949570 0.804370
vt -0.586312 2.706358
vn -0.583645 -0.671713 0.456245
v -2.193290 0.946291 0.801986
vt -0.585714 2.699636
vn -0.583645 -0.671713 0.456245
v -2.212095 0.949585 0.782780
vt -0.551938 2.706283
vn -0.583645 -0.671713 0.456245
v -2.210039 0.946466 0.780937
vt -0.551463 2.700078
vn -0.583645 -0.671713 0.456245
v -2.212095 0.949585 0.782780
vt -0.551938 2.706283
vn -0.646802 -0.652541 0.394761
v -2.210039 0.946466 0.780937
vt -0.551463 2.700078
vn -0.646802 -0.652541 0.394761
v -2.236642 0.949732 0.742756
vt -0.492221 2.706085
vn -0.646802 -0.652541 0.394761
v -2.234320 0.946357 0.741039
vt -0.491861 2.699466
vn -0.646802 -0.652541 0.394761
v -2.236642 0.949732 0.742756
vt -0.492221 2.706085
vn -0.680647 -0.633941 0.367205
v -2.234320 0.946357 0.741039
vt -0.491861 2.699466
vn -0.680647 -0.633941 0.367205
v -2.254795 0.949833 0.709092
vt -0.443623 2.705285
vn -0.680647 -0.633941 0.367205
v -2.252718 0.946620 0.707592
vt -0.443214 2.699159
vn -0.680647 -0.633941 0.367205
v -2.254795 0.949833 0.709092
vt -0.443623 2.705285
vn -0.719517 -0.603391 0.343825
v -2.252718 0.946620 0.707592
vt -0.443214 2.699159
vn -0.719517 -0.603391 0.343825
v -2.273837 0.949713 0.668839
vt -0.386726 2.703775
vn -0.719517 -0.603391 0.343825
v -2.271619 0.946562 0.668160
vt -0.387261 2.697959
vn -0.719517 -0.603391 0.343825
v -2.082298 0.945699 0.847149
vt -0.744325 2.703625
vn -0.180145 0.401494 0.897970
v -2.076280 0.935111 0.854336
vt -0.754001 2.685820
vn -0.180145 0.401494 0.897970
v -2.131259 0.946224 0.838339
vt -0.680705 2.701535
vn -0.245529 0.328664 0.911973
v -2.126523 0.934442 0.843310
vt -0.688560 2.683372
vn -0.214721 0.363669 0.906443
v -2.252718 0.946620 0.707592
vt -0.443214 2.699159
vn -0.825996 0.360290 0.433500
v -2.259964 0.935916 0.702154
vt -0.433096 2.681907
vn -0.832682 0.364583 0.416797
v -2.271619 0.946562 0.668160
vt -0.387261 2.697959
vn -0.838083 0.368163 0.402581
v -2.276934 0.936321 0.666607
vt -0.382874 2.681326
vn -0.838083 0.368163 0.402581
v -2.166408 0.946153 0.827130
vt -0.633669 2.698813
vn -0.352235 0.249701 0.901987
v -2.165749 0.934207 0.830968
vt -0.636625 2.680547
vn -0.333232 0.257495 0.907002
v -2.170524 0.946242 0.825446
vt -0.627436 2.698977
vn -0.646338 0.187388 0.739684
v -2.176352 0.934387 0.822482
vt -0.619375 2.681129
vn -0.674636 0.199375 0.710715
v -2.193290 0.946291 0.801986
vt -0.585714 2.699636
vn -0.723311 0.233895 0.649703
v -2.194699 0.934630 0.804742
vt -0.587097 2.681681
vn -0.720121 0.230977 0.654275
v -2.210039 0.946466 0.780937
vt -0.551463 2.700078
vn -0.773455 0.308079 0.553944
v -2.215003 0.934801 0.780186
vt -0.547187 2.681710
vn -0.780418 0.324580 0.534412
v -2.234320 0.946357 0.741039
vt -0.491861 2.699466
vn -0.810287 0.356672 0.464995
v -2.236038 0.935319 0.747389
vt -0.497890 2.681661
vn -0.803426 0.356271 0.477051
v -2.252891 0.962926 0.705104
vt -0.439801 2.726789
vn -0.681437 0.641456 0.352388
v -2.270115 0.963030 0.669371
vt -0.388982 2.725162
vn -0.694277 0.627708 0.352082
v -2.242760 0.973533 0.704578
vt -0.444670 2.748023
vn -0.675653 0.647476 0.352516
v -2.260321 0.973857 0.670971
vt -0.395758 2.745691
vn -0.694277 0.627708 0.352082
v -2.234635 0.963024 0.739543
vt -0.489751 2.728051
vn -0.655324 0.656970 0.372748
v -2.223716 0.973661 0.739877
vt -0.497002 2.749233
vn -0.650335 0.654772 0.385146
v -2.208514 0.963104 0.781272
vt -0.552874 2.729014
vn -0.627097 0.654037 0.423066
v -2.201915 0.973800 0.774389
vt -0.550162 2.750055
vn -0.630343 0.653573 0.418938
v -2.193195 0.963134 0.801094
vt -0.585004 2.729329
vn -0.566833 0.664578 0.486864
v -2.190590 0.973809 0.789332
vt -0.575271 2.750625
vn -0.580631 0.661576 0.474537
v -2.173076 0.962857 0.823391
vt -0.622943 2.727808
vn -0.519539 0.679470 0.518072
v -2.175539 0.973864 0.806308
vt -0.606024 2.750807
vn -0.544115 0.670695 0.504090
v -2.169530 0.962936 0.826056
vt -0.628680 2.727909
vn -0.343815 0.629855 0.696472
v -2.160550 0.974102 0.820517
vt -0.635175 2.749176
vn -0.292855 0.604984 0.740425
v -2.129801 0.963035 0.837911
vt -0.681298 2.731683
vn -0.260527 0.432596 0.863126
v -2.131240 0.974682 0.828986
vt -0.675383 2.752601
vn -0.254246 0.475083 0.842410
v -2.091352 0.963029 0.845135
vt -0.731617 2.733148
vn -0.273913 0.319477 0.907142
v -2.098096 0.976234 0.842835
vt -0.722097 2.752739
vn -0.273913 0.319477 0.907142
usemtl Illumination.010
f 3/3/3 2/2/2 1/1/1
f 4/4/4 2/2/2 3/3/3
f 7/7/7 6/6/6 5/5/5
f 8/8/8 6/6/6 7/7/7
f 5/5/5 10/10/10 9/9/9
f 6/6/6 10/10/10 5/5/5
f 9/9/9 12/12/12 11/11/11
f 10/10/10 12/12/12 9/9/9
f 11/11/11 14/14/14 13/13/13
f 12/12/12 14/14/14 11/11/11
f 13/13/13 16/16/16 15/15/15
f 14/14/14 16/16/16 13/13/13
f 15/15/15 18/18/18 17/17/17
f 16/16/16 18/18/18 15/15/15
f 21/21/21 20/20/20 19/19/19
f 17/17/17 20/20/20 21/21/21
f 18/18/18 20/20/20 17/17/17
f 1/1/1 8/8/8 7/7/7
f 2/2/2 8/8/8 1/1/1
f 24/24/24 23/23/23 22/22/22
f 25/25/25 23/23/23 24/24/24
f 26/26/26 25/25/25 24/24/24
f 27/27/27 25/25/25 26/26/26
f 30/30/30 29/29/29 28/28/28
f 31/31/31 29/29/29 30/30/30
f 32/32/32 31/31/31 30/30/30
f 33/33/33 31/31/31 32/32/32
f 34/34/34 33/33/33 32/32/32
f 35/35/35 33/33/33 34/34/34
f 35/35/35 27/27/27 26/26/26
f 34/34/34 27/27/27 35/35/35
f 36/36/36 28/28/28 29/29/29
f 37/37/37 28/28/28 36/36/36
f 38/38/38 37/37/37 36/36/36
f 39/39/39 37/37/37 38/38/38
f 40/40/40 39/39/39 38/38/38
f 41/41/41 39/39/39 40/40/40
f 42/42/42 39/39/39 41/41/41
f 45/45/45 44/44/44 43/43/43
f 46/46/46 44/44/44 45/45/45
f 47/47/47 43/43/43 44/44/44
f 48/48/48 43/43/43 47/47/47
f 49/49/49 48/48/48 47/47/47
f 50/50/50 48/48/48 49/49/49
f 53/53/53 52/52/52 51/51/51
f 54/54/54 52/52/52 53/53/53
f 51/51/51 56/56/56 55/55/55
f 52/52/52 56/56/56 51/51/51
f 55/55/55 58/58/58 57/57/57
f 56/56/56 58/58/58 55/55/55
f 57/57/57 50/50/50 49/49/49
f 58/58/58 50/50/50 57/57/57
f 59/59/59 54/54/54 53/53/53
f 60/60/60 54/54/54 59/59/59
f 60/60/60 62/62/62 61/61/61
f 59/59/59 62/62/62 60/60/60
f 65/65/65 64/64/64 63/63/63
f 66/66/66 64/64/64 65/65/65
f 67/67/67 64/64/64 66/66/66
f 67/67/67 69/69/69 68/68/68
f 66/66/66 69/69/69 67/67/67
f 68/68/68 71/71/71 70/70/70
f 69/69/69 71/71/71 68/68/68
f 70/70/70 73/73/73 72/72/72
f 71/71/71 73/73/73 70/70/70
f 72/72/72 75/75/75 74/74/74
f 73/73/73 75/75/75 72/72/72
f 75/75/75 76/76/76 74/74/74
f 77/77/77 76/76/76 75/75/75
f 78/78/78 76/76/76 77/77/77
f 81/81/81 80/80/80 79/79/79
f 82/82/82 80/80/80 81/81/81
f 85/85/85 84/84/84 83/83/83
f 86/86/86 84/84/84 85/85/85
f 89/89/89 88/88/88 87/87/87
f 90/90/90 88/88/88 89/89/89
f 93/93/93 92/92/92 91/91/91
f 94/94/94 92/92/92 93/93/93
f 97/97/97 96/96/96 95/95/95
f 98/98/98 96/96/96 97/97/97
f 101/101/101 100/100/100 99/99/99
f 102/102/102 100/100/100 101/101/101
f 105/105/105 104/104/104 103/103/103
f 106/106/106 104/104/104 105/105/105
f 109/109/109 108/108/108 107/107/107
f 110/110/110 108/108/108 109/109/109
f 113/113/113 112/112/112 111/111/111
f 114/114/114 112/112/112 113/113/113
f 117/117/117 116/116/116 115/115/115
f 118/118/118 116/116/116 117/117/117
f 121/121/121 120/120/120 119/119/119
f 122/122/122 120/120/120 121/121/121
f 125/125/125 124/124/124 123/123/123
f 126/126/126 124/124/124 125/125/125
f 129/129/129 128/128/128 127/127/127
f 130/130/130 128/128/128 129/129/129
f 133/133/133 132/132/132 131/131/131
f 134/134/134 132/132/132 133/133/133
f 137/137/137 136/136/136 135/135/135
f 138/138/138 136/136/136 137/137/137
f 141/141/141 140/140/140 139/139/139
f 142/142/142 140/140/140 141/141/141
f 145/145/145 144/144/144 143/143/143
f 146/146/146 144/144/144 145/145/145
f 149/149/149 148/148/148 147/147/147
f 150/150/150 148/148/148 149/149/149
f 153/153/153 152/152/152 151/151/151
f 154/154/154 152/152/152 153/153/153
f 157/157/157 156/156/156 155/155/155
f 158/158/158 156/156/156 157/157/157
f 161/161/161 160/160/160 159/159/159
f 162/162/162 160/160/160 161/161/161
f 165/165/165 164/164/164 163/163/163
f 166/166/166 164/164/164 165/165/165
f 169/169/169 168/168/168 167/167/167
f 170/170/170 168/168/168 169/169/169
f 173/173/173 172/172/172 171/171/171
f 174/174/174 172/172/172 173/173/173
f 177/177/177 176/176/176 175/175/175
f 178/178/178 176/176/176 177/177/177
f 181/181/181 180/180/180 179/179/179
f 182/182/182 180/180/180 181/181/181
f 183/183/183 178/178/178 177/177/177
f 184/184/184 178/178/178 183/183/183
f 185/185/185 184/184/184 183/183/183
f 186/186/186 184/184/184 185/185/185
f 187/187/187 186/186/186 185/185/185
f 188/188/188 186/186/186 187/187/187
f 189/189/189 188/188/188 187/187/187
f 190/190/190 188/188/188 189/189/189
f 191/191/191 190/190/190 189/189/189
f 192/192/192 190/190/190 191/191/191
f 179/179/179 192/192/192 191/191/191
f 180/180/180 192/192/192 179/179/179
f 195/195/195 194/194/194 193/193/193
f 196/196/196 194/194/194 195/195/195
f 197/197/197 195/195/195 193/193/193
f 198/198/198 195/195/195 197/197/197
f 199/199/199 198/198/198 197/197/197
f 200/200/200 198/198/198 199/199/199
f 201/201/201 200/200/200 199/199/199
f 202/202/202 200/200/200 201/201/201
f 203/203/203 202/202/202 201/201/201
f 204/204/204 202/202/202 203/203/203
f 205/205/205 204/204/204 203/203/203
f 206/206/206 204/204/204 205/205/205
f 207/207/207 206/206/206 205/205/205
f 208/208/208 206/206/206 207/207/207
f 209/209/209 208/208/208 207/207/207
f 210/210/210 208/208/208 209/209/209
