# Exported from Godot Engine
mtllib Spoiler_Static.mtl
o Spoiler_Static
v -2.219807 1.230153 -0.485991
vt 0.009005 0.890353
vn -0.069234 0.026569 0.997247
v -2.231853 1.223744 -0.488866
vt 0.008589 0.893425
vn -0.275439 -0.083815 0.957658
v -2.247644 1.280776 -0.489151
vt 0.021704 0.892393
vn -0.118120 -0.000933 0.992999
v -2.259416 1.280300 -0.491774
vt 0.022507 0.894953
vn -0.287623 -0.089525 0.953550
v -2.208799 1.235041 -0.487503
vt 0.009226 0.887663
vn 0.217767 0.195491 0.956222
v -2.237218 1.281068 -0.490416
vt 0.021006 0.890164
vn 0.170988 0.165799 0.971223
v -2.200896 1.238064 -0.491237
vt 0.009348 0.885611
vn 0.506757 0.384655 0.771517
v -2.229899 1.281293 -0.493649
vt 0.020583 0.888435
vn 0.458006 0.351898 0.816332
v -2.209826 1.229357 -0.513552
vt 0.008216 0.917602
vn 0.081913 0.052001 -0.995282
v -2.201780 1.233558 -0.512097
vt 0.008496 0.919627
vn 0.302402 0.197696 -0.932453
v -2.239974 1.280878 -0.513344
vt 0.021261 0.915166
vn 0.065106 0.041529 -0.997014
v -2.232138 1.281196 -0.512000
vt 0.020745 0.916857
vn 0.253230 0.164524 -0.953314
v -2.193916 1.238292 -0.507078
vt 0.008959 0.921906
vn 0.671234 0.462440 -0.579305
v -2.224267 1.281457 -0.507533
vt 0.020275 0.918815
vn 0.641597 0.440116 -0.628212
v -2.193954 1.239971 -0.498430
vt 0.009753 0.923696
vn 0.777466 0.561169 0.283964
v -2.223724 1.281486 -0.499928
vt 0.020646 0.920469
vn 0.753381 0.546552 0.365647
v -2.193954 1.239971 -0.498430
vt 0.009468 0.883352
vn 0.777466 0.561169 0.283964
v -2.223724 1.281486 -0.499928
vt 0.020389 0.886487
vn 0.753381 0.546552 0.365647
v -2.222330 1.223259 -0.514093
vt 0.007879 0.914526
vn 0.002800 0.005508 -0.999981
v -2.252003 1.280458 -0.513907
vt 0.022075 0.912614
vn -0.010188 -0.001482 -0.999947
v -2.231033 1.219120 -0.513581
vt 0.007666 0.912391
vn -0.071591 -0.033391 -0.996875
v -2.260340 1.280114 -0.513528
vt 0.022630 0.910842
vn -0.076468 -0.035798 -0.996429
v -2.243353 1.213355 -0.512251
vt 0.007385 0.909366
vn -0.150086 -0.067767 -0.986348
v -2.272110 1.279609 -0.512461
vt 0.023407 0.908330
vn -0.163072 -0.073287 -0.983888
v -2.255239 1.208103 -0.509284
vt 0.007172 0.906411
vn -0.247691 -0.106957 -0.962917
v -2.283359 1.279104 -0.509954
vt 0.024141 0.905872
vn -0.254169 -0.109380 -0.960955
v -2.246289 1.215652 -0.494497
vt 0.008013 0.897268
vn -0.348042 -0.113041 0.930639
v -2.267607 1.202920 -0.504198
vt 0.007003 0.903107
vn -0.398431 -0.130516 0.907865
v -2.273662 1.279735 -0.496837
vt 0.023487 0.898170
vn -0.350922 -0.113840 0.929459
v -2.294971 1.278511 -0.505602
vt 0.024877 0.903108
vn -0.397625 -0.130233 0.908259
v -2.267498 1.202796 -0.505074
vt 0.006972 0.903303
vn -0.331964 -0.137262 -0.933252
v -2.294926 1.278508 -0.506372
vt 0.024876 0.903279
vn -0.346402 -0.142389 -0.927217
v -2.259416 1.280300 0.491774
vt 0.022507 0.894953
vn -0.287535 -0.089456 -0.953583
v -2.231853 1.223744 0.488867
vt 0.008589 0.893425
vn -0.275363 -0.083790 -0.957682
v -2.247644 1.280775 0.489151
vt 0.021704 0.892393
vn -0.118095 -0.000882 -0.993002
v -2.219807 1.230153 0.485991
vt 0.009005 0.890353
vn -0.069217 0.026586 -0.997247
v -2.237218 1.281068 0.490417
vt 0.021006 0.890164
vn 0.171014 0.165824 -0.971214
v -2.208799 1.235041 0.487504
vt 0.009226 0.887663
vn 0.217843 0.195524 -0.956198
v -2.229899 1.281293 0.493649
vt 0.020583 0.888435
vn 0.458041 0.351930 -0.816299
v -2.200896 1.238064 0.491238
vt 0.009348 0.885611
vn 0.506801 0.384745 -0.771443
v -2.232138 1.281196 0.512000
vt 0.020745 0.916857
vn 0.253201 0.164498 0.953326
v -2.201780 1.233558 0.512098
vt 0.008496 0.919627
vn 0.302371 0.197668 0.932469
v -2.239974 1.280878 0.513345
vt 0.021261 0.915166
vn 0.065085 0.041476 0.997017
v -2.209826 1.229357 0.513553
vt 0.008216 0.917602
vn 0.081894 0.051983 0.995284
v -2.224267 1.281457 0.507534
vt 0.020275 0.918815
vn 0.641562 0.440032 0.628308
v -2.193916 1.238292 0.507079
vt 0.008959 0.921906
vn 0.671154 0.462361 0.579461
v -2.223724 1.281486 0.499928
vt 0.020646 0.920469
vn 0.753388 0.546616 -0.365537
v -2.193954 1.239971 0.498431
vt 0.009753 0.923696
vn 0.777496 0.561211 -0.283799
v -2.223724 1.281486 0.499928
vt 0.020389 0.886487
vn 0.753388 0.546616 -0.365537
v -2.193954 1.239971 0.498431
vt 0.009468 0.883352
vn 0.777496 0.561211 -0.283799
v -2.252003 1.280458 0.513908
vt 0.022075 0.912614
vn -0.010110 -0.001528 0.999948
v -2.222330 1.223259 0.514094
vt 0.007879 0.914526
vn 0.002785 0.005492 0.999981
v -2.260340 1.280114 0.513528
vt 0.022630 0.910842
vn -0.076632 -0.035820 0.996416
v -2.231033 1.219120 0.513582
vt 0.007666 0.912391
vn -0.071610 -0.033409 0.996873
v -2.272110 1.279609 0.512462
vt 0.023407 0.908330
vn -0.163138 -0.073311 0.983876
v -2.243353 1.213355 0.512252
vt 0.007385 0.909366
vn -0.150115 -0.067826 0.986339
v -2.283359 1.279104 0.509954
vt 0.024141 0.905872
vn -0.254197 -0.109404 0.960945
v -2.255239 1.208103 0.509284
vt 0.007172 0.906411
vn -0.247727 -0.107025 0.962900
v -2.294971 1.278511 0.505602
vt 0.024877 0.903108
vn -0.397578 -0.130159 -0.908290
v -2.267607 1.202919 0.504198
vt 0.007003 0.903107
vn -0.398345 -0.130487 -0.907907
v -2.273662 1.279735 0.496838
vt 0.023487 0.898170
vn -0.350776 -0.113763 -0.929524
v -2.246289 1.215652 0.494498
vt 0.008013 0.897268
vn -0.347947 -0.112967 -0.930683
v -2.294926 1.278508 0.506373
vt 0.024876 0.903279
vn -0.346434 -0.142415 0.927201
v -2.267498 1.202795 0.505074
vt 0.006972 0.903303
vn -0.332058 -0.137339 0.933207
v -2.373952 1.295401 -0.424617
vt 0.724869 0.309065
vn 0.011326 0.987478 -0.157347
v -2.380492 1.298237 -0.406605
vt 0.725639 0.312335
vn 0.018010 0.990684 -0.134987
v -2.381017 1.295008 -0.427537
vt 0.726151 0.308691
vn -0.216504 0.945740 -0.242286
v -2.388137 1.298201 -0.407904
vt 0.726988 0.312258
vn -0.202616 0.957000 -0.207602
v -2.357027 1.289576 -0.458923
vt 0.722629 0.302737
vn -0.004119 0.986650 -0.162805
v -2.366273 1.292454 -0.442144
vt 0.723890 0.305854
vn -0.000525 0.987167 -0.159690
v -2.362596 1.288482 -0.464945
vt 0.723710 0.301788
vn -0.206519 0.932400 -0.296613
v -2.372661 1.291726 -0.446653
vt 0.725085 0.305184
vn -0.213231 0.939889 -0.266723
v -2.331022 1.284848 -0.487354
vt 0.718725 0.297252
vn -0.022429 0.984349 -0.174798
v -2.345348 1.286958 -0.474233
vt 0.720923 0.299832
vn -0.011622 0.984354 -0.175818
v -2.334268 1.283156 -0.495907
vt 0.719472 0.295816
vn -0.162544 0.922208 -0.350872
v -2.349880 1.285529 -0.481632
vt 0.721858 0.298624
vn -0.188411 0.925502 -0.328552
v -2.296802 1.282342 -0.506583
vt 0.713232 0.293197
vn -0.041219 0.983094 -0.178402
v -2.314706 1.283261 -0.498190
vt 0.716142 0.295028
vn -0.027017 0.984092 -0.175592
v -2.296976 1.280410 -0.516857
vt 0.713488 0.291396
vn -0.092318 0.945907 -0.311027
v -2.316490 1.281428 -0.507727
vt 0.716661 0.293390
vn -0.138028 0.921389 -0.363306
v -2.231324 1.281936 -0.524757
vt 0.702291 0.288736
vn -0.044233 0.985621 -0.163081
v -2.263519 1.279841 -0.527716
vt 0.707921 0.288823
vn -0.081409 0.946010 -0.313747
v -2.229066 1.280151 -0.535418
vt 0.702095 0.286810
vn -0.087236 0.929594 -0.358112
v -2.183731 1.283151 -0.532429
vt 0.694181 0.286566
vn -0.049315 0.985358 -0.163209
v -2.181473 1.281681 -0.541435
vt 0.694114 0.285011
vn -0.053627 0.983076 -0.175175
v -2.181642 1.281422 -0.542822
vt 0.694169 0.284794
vn -0.073936 0.922169 -0.379654
v -2.401028 1.304393 -0.365173
vt 0.728372 0.319943
vn -0.195430 0.964582 -0.177168
v -2.393322 1.304250 -0.364271
vt 0.727020 0.319948
vn 0.023027 0.992157 -0.122860
v -2.416716 1.312229 -0.300749
vt 0.729873 0.331408
vn -0.195518 0.969830 -0.145609
v -2.409098 1.311973 -0.299743
vt 0.728535 0.331435
vn 0.047001 0.994690 -0.091563
v -2.437221 1.327028 0.000000
vt 0.728571 0.383688
vn 0.052496 0.998621 0.000016
v -2.444209 1.327432 0.000000
vt 0.729791 0.383781
vn -0.187821 0.982203 -0.000018
v -2.436661 1.326698 -0.043965
vt 0.729080 0.376066
vn 0.052208 0.998567 -0.011787
v -2.443639 1.327104 -0.044090
vt 0.730296 0.376139
vn -0.186218 0.982328 -0.018825
v -2.442140 1.326135 -0.090021
vt 0.730710 0.368194
vn -0.188320 0.981117 -0.044090
v -2.434611 1.325706 -0.089973
vt 0.729401 0.368087
vn 0.057309 0.997654 -0.037456
v -2.238378 1.317751 -0.233281
vt 0.697718 0.339927
vn -0.028930 0.997042 -0.071203
v -2.249679 1.324802 -0.088577
vt 0.697274 0.365383
vn -0.025708 0.998961 -0.037622
v -2.291195 1.316180 -0.234801
vt 0.706904 0.340584
vn -0.007323 0.997435 -0.071205
v -2.303818 1.323444 -0.089094
vt 0.706679 0.366161
vn -0.003618 0.999313 -0.036890
v -2.221415 1.307353 -0.352121
vt 0.697006 0.318814
vn -0.035614 0.993060 -0.112083
v -2.270625 1.305240 -0.355046
vt 0.705593 0.319236
vn -0.015126 0.993828 -0.109896
v -2.401931 1.324220 -0.089760
vt 0.723717 0.367623
vn 0.016820 0.999218 -0.035775
v -2.404526 1.325512 0.000000
vt 0.722855 0.383224
vn 0.017275 0.999851 0.000047
v -2.200727 1.294578 -0.456281
vt 0.695533 0.300183
vn -0.043923 0.988385 -0.145483
v -2.248041 1.292638 -0.454744
vt 0.703695 0.301364
vn -0.030714 0.989158 -0.143609
v -2.306250 1.324666 0.000000
vt 0.705751 0.381684
vn -0.002708 0.999996 0.000015
v -2.251854 1.325990 0.000000
vt 0.696301 0.380836
vn -0.024602 0.999697 -0.000016
v -2.347015 1.296843 -0.413645
vt 0.719983 0.310461
vn -0.006911 0.990888 -0.134509
v -2.362514 1.303884 -0.361795
vt 0.721632 0.319787
vn 0.001213 0.994089 -0.108559
v -2.387980 1.316522 -0.237388
vt 0.723715 0.341837
vn 0.011627 0.997462 -0.070243
v -2.325516 1.290718 -0.453976
vt 0.717082 0.302989
vn -0.022903 0.986291 -0.163416
v -2.300753 1.287032 -0.479131
vt 0.713323 0.298099
vn -0.030112 0.985968 -0.164196
v -2.228730 1.277208 -0.538354
vt 0.702153 0.286078
vn -0.184343 0.295087 -0.937519
v -2.180072 1.278397 -0.545948
vt 0.693971 0.284123
vn -0.125621 0.258161 -0.957900
v -2.447472 1.325123 0.000000
vt 0.730487 0.383827
vn -0.917352 0.398077 -0.000020
v -2.446827 1.324751 -0.044242
vt 0.730987 0.376157
vn -0.917704 0.396268 -0.028118
v -2.445225 1.323745 -0.090017
vt 0.731388 0.368231
vn -0.916328 0.394892 -0.066362
v -2.428014 1.318174 -0.238534
vt 0.730684 0.342346
vn -0.189009 0.976399 -0.104503
v -2.436732 1.323100 -0.163236
vt 0.730956 0.355481
vn -0.185332 0.980194 -0.069801
v -2.431068 1.315725 -0.238555
vt 0.731366 0.342355
vn -0.905340 0.392567 -0.162021
v -2.439812 1.320666 -0.163627
vt 0.731642 0.355440
vn -0.911752 0.396283 -0.108016
v -2.419555 1.309647 -0.301670
vt 0.730539 0.331239
vn -0.892147 0.387003 -0.233028
v -2.403996 1.301827 -0.365604
vt 0.729052 0.319845
vn -0.880523 0.379858 -0.283527
v -2.391048 1.295594 -0.408481
vt 0.727662 0.312118
vn -0.866727 0.370454 -0.333989
v -2.383589 1.292238 -0.429003
vt 0.726782 0.308371
vn -0.841603 0.364241 -0.398789
v -2.375085 1.288886 -0.448390
vt 0.725690 0.304797
vn -0.809521 0.356881 -0.466167
v -2.364759 1.285575 -0.466909
vt 0.724270 0.301339
vn -0.755322 0.338168 -0.561366
v -2.351725 1.282566 -0.483781
vt 0.722359 0.298117
vn -0.666527 0.313172 -0.676509
v -2.335729 1.280141 -0.498174
vt 0.719904 0.295259
vn -0.560687 0.290046 -0.775566
v -2.317597 1.278389 -0.510124
vt 0.717021 0.292789
vn -0.451613 0.274352 -0.848986
v -2.297364 1.277366 -0.519638
vt 0.713712 0.290711
vn -0.328296 0.280665 -0.901914
v -2.263552 1.276856 -0.530582
vt 0.708067 0.288116
vn -0.291838 0.278511 -0.915020
v -2.181473 1.281681 -0.541435
vt 0.694114 0.285011
vn 0.911224 0.384382 0.148056
v -2.179659 1.278478 -0.544281
vt 0.693782 0.284279
vn 0.989227 0.060194 0.133438
v -2.183731 1.283151 -0.532429
vt 0.694181 0.286566
vn 0.912803 0.380784 0.147629
v -2.182448 1.280282 -0.533135
vt 0.693647 0.286345
vn 0.975868 0.047879 0.213049
v -2.200727 1.294578 -0.456281
vt 0.695533 0.300183
vn 0.909003 0.394095 0.135653
v -2.199413 1.291703 -0.456788
vt 0.694995 0.300028
vn 0.977017 0.098105 0.189245
v -2.221415 1.307353 -0.352121
vt 0.697006 0.318814
vn 0.904330 0.413626 0.105356
v -2.219999 1.304425 -0.352816
vt 0.696456 0.318630
vn 0.981460 0.117395 0.151509
v -2.251854 1.325990 0.000000
vt 0.696301 0.380836
vn 0.897217 0.441591 0.000061
v -2.249679 1.324802 -0.088577
vt 0.697274 0.365383
vn 0.897934 0.438812 0.034031
v -2.250456 1.323123 0.000000
vt 0.695748 0.380788
vn 0.986642 0.162905 0.000018
v -2.248223 1.321893 -0.089168
vt 0.696719 0.365228
vn 0.984375 0.169287 0.048444
v -2.420306 1.317788 -0.238310
vt 0.729343 0.342248
vn 0.047403 0.995803 -0.078292
v -2.429144 1.322698 -0.162677
vt 0.729630 0.355453
vn 0.058498 0.997292 -0.044579
v -2.238378 1.317751 -0.233281
vt 0.697718 0.339927
vn 0.900120 0.430820 0.064630
v -2.236945 1.314835 -0.233794
vt 0.697164 0.339780
vn 0.986436 0.134685 0.093825
v -2.229210 1.274065 -0.537297
vt 0.702427 0.285564
vn -0.100757 -0.800959 -0.590180
v -2.180831 1.275245 -0.544852
vt 0.693785 0.283725
vn -0.107990 -0.303781 -0.946602
v -2.446697 1.321707 0.000000
vt 0.731097 0.383857
vn -0.623512 -0.781814 -0.000021
v -2.446114 1.321374 -0.044218
vt 0.731588 0.376181
vn -0.617980 -0.786184 -0.004018
v -2.444570 1.320398 -0.090048
vt 0.731982 0.368216
vn -0.628789 -0.777497 -0.011051
v -2.439196 1.317341 -0.163707
vt 0.732229 0.355383
vn -0.630502 -0.775992 -0.017447
v -2.430508 1.312427 -0.238532
vt 0.731942 0.342273
vn -0.658992 -0.751286 -0.036039
v -2.419033 1.306366 -0.301569
vt 0.731105 0.331119
vn -0.701885 -0.708670 -0.071722
v -2.403463 1.298541 -0.365551
vt 0.729606 0.319674
vn -0.705479 -0.702082 -0.096851
v -2.390596 1.292347 -0.408153
vt 0.728212 0.311955
vn -0.692212 -0.712305 -0.116034
v -2.383180 1.289010 -0.428557
vt 0.727321 0.308181
vn -0.658793 -0.738769 -0.142167
v -2.374725 1.285677 -0.447833
vt 0.726217 0.304576
vn -0.611035 -0.772521 -0.172766
v -2.364458 1.282385 -0.466246
vt 0.724771 0.301069
vn -0.576295 -0.783378 -0.232817
v -2.351499 1.279394 -0.483021
vt 0.722818 0.297788
vn -0.509994 -0.787142 -0.346861
v -2.335594 1.276983 -0.497332
vt 0.720321 0.294871
vn -0.418086 -0.808990 -0.413205
v -2.317567 1.275240 -0.509214
vt 0.717392 0.292355
vn -0.315796 -0.826184 -0.466576
v -2.297450 1.274224 -0.518673
vt 0.714033 0.290236
vn -0.115465 -0.954270 -0.275749
v -2.263831 1.273715 -0.529562
vt 0.708366 0.287622
vn -0.074184 -0.961379 -0.265043
v -2.180420 1.275326 -0.543195
vt 0.693369 0.284121
vn 0.699996 -0.675167 0.232711
v -2.182678 1.276797 -0.534188
vt 0.693045 0.286097
vn 0.169689 -0.966731 0.191409
v -2.199673 1.288234 -0.458053
vt 0.694392 0.299791
vn 0.125299 -0.979314 0.158884
v -2.220360 1.301023 -0.353909
vt 0.695864 0.318423
vn 0.102660 -0.987961 0.115729
v -2.237325 1.311445 -0.235094
vt 0.696580 0.339525
vn 0.091169 -0.992558 0.080722
v -2.248631 1.318519 -0.090418
vt 0.696142 0.364973
vn 0.088883 -0.995118 0.042903
v -2.250810 1.319718 0.000000
vt 0.695153 0.380744
vn 0.086171 -0.996280 0.000017
v -2.434907 1.310539 -0.043514
vt 0.678172 0.375710
vn -0.841497 -0.540196 -0.008464
v -2.435304 1.310853 0.000000
vt 0.677662 0.383264
vn -0.836938 -0.547298 -0.000063
v -2.432923 1.307454 -0.043360
vt 0.677532 0.375685
vn -0.841377 -0.540385 -0.008336
v -2.433260 1.307779 0.000000
vt 0.677021 0.383215
vn -0.836938 -0.547298 -0.000063
v -2.426984 1.303730 -0.156598
vt 0.678146 0.355970
vn -0.846635 -0.529908 -0.049054
v -2.417977 1.298615 -0.233653
vt 0.677811 0.342478
vn -0.837340 -0.541435 -0.075563
v -2.428832 1.306775 -0.157774
vt 0.678781 0.355819
vn -0.845985 -0.530573 -0.052939
v -2.420472 1.302043 -0.229042
vt 0.678455 0.343328
vn -0.844210 -0.532218 -0.063660
v -2.419830 1.301680 -0.234472
vt 0.678461 0.342416
vn -0.836976 -0.541559 -0.078646
v -2.407030 1.292859 -0.296662
vt 0.676927 0.331262
vn -0.806400 -0.580815 -0.111238
v -2.408962 1.295710 -0.297380
vt 0.677537 0.331177
vn -0.801192 -0.588386 -0.109056
v -2.352473 1.277332 -0.463330
vt 0.670138 0.301430
vn -0.450318 -0.879052 -0.156462
v -2.363787 1.279732 -0.442563
vt 0.671789 0.305224
vn -0.523401 -0.838734 -0.150259
v -2.350938 1.276458 -0.462471
vt 0.669821 0.301556
vn -0.443473 -0.880205 -0.169030
v -2.362094 1.278501 -0.441660
vt 0.671414 0.305357
vn -0.517282 -0.840044 -0.163539
v -2.313516 1.273300 -0.499050
vt 0.663967 0.294573
vn -0.145776 -0.972610 -0.181051
v -2.330282 1.274314 -0.489426
vt 0.666706 0.296531
vn -0.255285 -0.947734 -0.191389
v -2.312850 1.272969 -0.497448
vt 0.663819 0.294844
vn -0.139567 -0.972770 -0.185040
v -2.329450 1.273849 -0.488426
vt 0.666531 0.296694
vn -0.245403 -0.948976 -0.198043
v -2.343393 1.275411 -0.473127
vt 0.668691 0.299583
vn -0.345791 -0.919153 -0.188644
v -2.344721 1.276095 -0.474032
vt 0.668961 0.299444
vn -0.350571 -0.918660 -0.182107
v -2.227148 1.276035 -0.513899
vt 0.649216 0.290636
vn 0.076088 -0.982898 0.167694
v -2.184958 1.275534 -0.541412
vt 0.642355 0.285170
vn 0.051383 -0.993310 0.103415
v -2.228367 1.274272 -0.533303
vt 0.649756 0.287275
vn 0.058865 -0.991001 0.120213
v -2.296501 1.272345 -0.504906
vt 0.661117 0.293274
vn -0.076974 -0.979098 -0.188259
v -2.296922 1.272744 -0.506755
vt 0.661223 0.292954
vn -0.074592 -0.979173 -0.188830
v -2.372366 1.281936 -0.423493
vt 0.672997 0.308680
vn -0.607404 -0.780687 -0.146932
v -2.370675 1.280427 -0.422329
vt 0.672590 0.308857
vn -0.601471 -0.782389 -0.161557
v -2.379838 1.284233 -0.404060
vt 0.674019 0.312178
vn -0.693879 -0.706199 -0.140765
v -2.377943 1.282332 -0.403317
vt 0.673544 0.312275
vn -0.690015 -0.707473 -0.152845
v -2.391368 1.286646 -0.360128
vt 0.675187 0.320000
vn -0.760142 -0.635011 -0.137644
v -2.393165 1.289022 -0.361411
vt 0.675718 0.319813
vn -0.760916 -0.635611 -0.130407
v -2.433554 1.309626 -0.089261
vt 0.678571 0.367778
vn -0.847612 -0.529897 -0.027638
v -2.431645 1.306527 -0.088961
vt 0.677937 0.367774
vn -0.847505 -0.530092 -0.027158
v -2.229210 1.274065 -0.537297
vt 0.649968 0.286595
vn -0.100757 -0.800959 -0.590180
v -2.180831 1.275245 -0.544852
vt 0.641698 0.284501
vn 0.034286 -0.994537 0.098592
v -2.263831 1.273715 -0.529562
vt 0.655856 0.288468
vn -0.074184 -0.961379 -0.265043
v -2.297450 1.274224 -0.518673
vt 0.661520 0.290873
vn -0.115465 -0.954270 -0.275749
v -2.298086 1.273847 -0.511873
vt 0.661518 0.292066
vn -0.028394 -0.999258 -0.026031
v -2.357355 1.280112 -0.466064
vt 0.671147 0.301025
vn -0.304803 -0.951442 -0.043042
v -2.348946 1.278271 -0.476910
vt 0.669821 0.298999
vn -0.270180 -0.959889 -0.074933
v -2.364458 1.282385 -0.466246
vt 0.672444 0.301106
vn -0.576295 -0.783378 -0.232817
v -2.351499 1.279394 -0.483021
vt 0.670394 0.297973
vn -0.509994 -0.787142 -0.346861
v -2.441803 1.320630 0.000000
vt 0.680165 0.383459
vn -0.209680 -0.977770 -0.000018
v -2.441216 1.320352 -0.044005
vt 0.680667 0.375822
vn -0.201300 -0.979491 0.008657
v -2.446697 1.321707 0.000000
vt 0.681034 0.383529
vn -0.623512 -0.781814 -0.000021
v -2.446114 1.321374 -0.044218
vt 0.681538 0.375861
vn -0.617980 -0.786184 -0.004018
v -2.317567 1.275240 -0.509214
vt 0.664874 0.292847
vn -0.315796 -0.826184 -0.466576
v -2.335594 1.276983 -0.497332
vt 0.667831 0.295219
vn -0.418086 -0.808990 -0.413205
v -2.315632 1.274351 -0.504148
vt 0.664438 0.293710
vn -0.131275 -0.984903 -0.112841
v -2.332928 1.275791 -0.492607
vt 0.667262 0.296006
vn -0.208483 -0.972082 -0.107662
v -2.374725 1.285677 -0.447833
vt 0.674040 0.304469
vn -0.611035 -0.772521 -0.172766
v -2.369172 1.283649 -0.445438
vt 0.672978 0.304799
vn -0.338207 -0.941012 -0.010608
v -2.383180 1.289010 -0.428557
vt 0.675334 0.307961
vn -0.658793 -0.738769 -0.142167
v -2.377742 1.286736 -0.427196
vt 0.674290 0.308112
vn -0.376509 -0.926412 -0.000816
v -2.390596 1.292347 -0.408153
vt 0.676450 0.311642
vn -0.692212 -0.712305 -0.116034
v -2.385864 1.290281 -0.406422
vt 0.675528 0.311866
vn -0.396917 -0.917796 0.010332
v -2.403463 1.298541 -0.365551
vt 0.678276 0.319283
vn -0.705479 -0.702082 -0.096851
v -2.398878 1.296583 -0.365501
vt 0.677410 0.319211
vn -0.394502 -0.918762 0.015634
v -2.419033 1.306366 -0.301569
vt 0.680215 0.330627
vn -0.701885 -0.708670 -0.071722
v -2.414997 1.304695 -0.300228
vt 0.679436 0.330797
vn -0.345211 -0.938015 0.030942
v -2.430508 1.312427 -0.238532
vt 0.681650 0.341946
vn -0.658992 -0.751286 -0.036039
v -2.423488 1.310027 -0.250259
vt 0.680453 0.339773
vn -0.301733 -0.952401 0.043461
v -2.425724 1.311427 -0.237077
vt 0.680817 0.342128
vn -0.250108 -0.967343 0.041157
v -2.439196 1.317341 -0.163707
vt 0.682098 0.355064
vn -0.630502 -0.775992 -0.017447
v -2.434709 1.316460 -0.161514
vt 0.681268 0.355377
vn -0.201206 -0.979017 0.032285
v -2.444570 1.320398 -0.090048
vt 0.681926 0.367913
vn -0.628789 -0.777497 -0.011051
v -2.439626 1.319481 -0.090217
vt 0.681056 0.367805
vn -0.192993 -0.980952 0.022064
v -2.432923 1.307454 -0.043360
vt 0.677532 0.375685
vn 0.066683 -0.997670 0.014403
v -2.433260 1.307779 0.000000
vt 0.677021 0.383215
vn 0.066280 -0.997801 -0.000016
v -2.396847 1.308986 -0.088752
vt 0.671879 0.367322
vn 0.064598 -0.997090 0.040481
v -2.397996 1.310367 0.000000
vt 0.670872 0.382727
vn 0.064283 -0.997932 -0.000016
v -2.431645 1.306527 -0.088961
vt 0.677937 0.367774
vn 0.056465 -0.997254 0.047925
v -2.329450 1.273849 -0.488426
vt 0.666531 0.296694
vn 0.084892 -0.977897 0.191079
v -2.343393 1.275411 -0.473127
vt 0.668691 0.299583
vn 0.093971 -0.981380 0.167518
v -2.310903 1.279105 -0.469642
vt 0.662968 0.299726
vn 0.074391 -0.982875 0.168592
v -2.319342 1.279935 -0.459935
vt 0.664270 0.301548
vn 0.077972 -0.985730 0.149189
v -2.296501 1.272345 -0.504906
vt 0.661117 0.293274
vn 0.067696 -0.983737 0.166369
v -2.312850 1.272969 -0.497448
vt 0.663819 0.294844
vn 0.065582 -0.974028 0.216721
v -2.286024 1.277328 -0.485097
vt 0.658927 0.296611
vn 0.068772 -0.980871 0.182108
v -2.299989 1.278552 -0.477134
vt 0.661203 0.298247
vn 0.062188 -0.978046 0.198892
v -2.350938 1.276458 -0.462471
vt 0.669821 0.301556
vn 0.096489 -0.983877 0.150584
v -2.326159 1.280764 -0.450248
vt 0.665292 0.303340
vn 0.069676 -0.988378 0.135111
v -2.362094 1.278501 -0.441660
vt 0.671414 0.305357
vn 0.096966 -0.984930 0.143215
v -2.335632 1.282166 -0.434315
vt 0.666673 0.306261
vn 0.071175 -0.988379 0.134316
v -2.370675 1.280427 -0.422329
vt 0.672590 0.308857
vn 0.096691 -0.985804 0.137266
v -2.342924 1.283743 -0.418062
vt 0.667677 0.309207
vn 0.080176 -0.988213 0.130407
v -2.377943 1.282332 -0.403317
vt 0.673544 0.312275
vn 0.095088 -0.987142 0.128489
v -2.349909 1.285457 -0.400454
vt 0.668608 0.312381
vn 0.080988 -0.989035 0.123495
v -2.391368 1.286646 -0.360128
vt 0.675187 0.320000
vn 0.094164 -0.987869 0.123486
v -2.364458 1.289921 -0.354140
vt 0.670400 0.320664
vn 0.075180 -0.991575 0.105481
v -2.407030 1.292859 -0.296662
vt 0.676927 0.331262
vn 0.076381 -0.991447 0.105823
v -2.417977 1.298615 -0.233653
vt 0.677811 0.342478
vn 0.076590 -0.992507 0.095209
v -2.383935 1.301338 -0.233281
vt 0.671879 0.342012
vn 0.069695 -0.994616 0.076694
v -2.426984 1.303730 -0.156598
vt 0.678146 0.355970
vn 0.054678 -0.997010 0.054610
v -2.182678 1.276797 -0.534188
vt 0.641831 0.286402
vn 0.169689 -0.966731 0.191409
v -2.248631 1.318519 -0.090418
vt 0.646149 0.364909
vn 0.088883 -0.995118 0.042903
v -2.250810 1.319718 0.000000
vt 0.645266 0.380651
vn 0.086171 -0.996280 0.000017
v -2.199673 1.288234 -0.458053
vt 0.643431 0.300068
vn 0.125299 -0.979314 0.158884
v -2.220360 1.301023 -0.353909
vt 0.645294 0.318603
vn 0.102660 -0.987961 0.115729
v -2.237325 1.311445 -0.235094
vt 0.646392 0.339562
vn 0.091169 -0.992558 0.080722
v -2.420511 1.302805 -0.234773
vt 0.678686 0.342387
vn -0.841294 -0.532988 -0.090262
v -2.420610 1.305084 -0.246743
vt 0.679274 0.340328
vn -0.831729 -0.548094 -0.088429
v -2.414997 1.304695 -0.300228
vt 0.679436 0.330797
vn -0.798015 -0.592699 -0.108997
v -2.398878 1.296583 -0.365501
vt 0.677410 0.319211
vn -0.757507 -0.639982 -0.128867
v -2.385864 1.290281 -0.406422
vt 0.675528 0.311866
vn -0.696994 -0.703893 -0.136869
v -2.377742 1.286736 -0.427196
vt 0.674290 0.308112
vn -0.606682 -0.782003 -0.142860
v -2.369172 1.283649 -0.445438
vt 0.672978 0.304799
vn -0.527598 -0.836808 -0.146260
v -2.357355 1.280112 -0.466064
vt 0.671147 0.301025
vn -0.456825 -0.876533 -0.151663
v -2.348946 1.278271 -0.476910
vt 0.669821 0.298999
vn -0.356770 -0.917029 -0.178252
v -2.332928 1.275791 -0.492607
vt 0.667262 0.296006
vn -0.260580 -0.946606 -0.189829
v -2.315632 1.274351 -0.504148
vt 0.664438 0.293710
vn -0.143976 -0.973212 -0.179248
v -2.298086 1.273847 -0.511873
vt 0.661518 0.292066
vn -0.071301 -0.979127 -0.190331
v -2.228367 1.274272 -0.533303
vt 0.649756 0.287275
vn -0.054968 -0.978566 -0.198462
v -2.440473 1.319198 -0.043947
vt 0.680428 0.375813
vn -0.841256 -0.540473 -0.013304
v -2.441216 1.320352 -0.044005
vt 0.680667 0.375822
vn -0.841237 -0.540504 -0.013261
v -2.441038 1.319480 0.000000
vt 0.679924 0.383440
vn -0.836886 -0.547377 -0.000021
v -2.441803 1.320630 0.000000
vt 0.680165 0.383459
vn -0.836886 -0.547377 -0.000021
v -2.438911 1.318321 -0.090105
vt 0.680819 0.367804
vn -0.847385 -0.530179 -0.029128
v -2.439626 1.319481 -0.090217
vt 0.681056 0.367805
vn -0.847424 -0.530096 -0.029521
v -2.434018 1.315321 -0.161074
vt 0.681031 0.355434
vn -0.846677 -0.529891 -0.048514
v -2.434709 1.316460 -0.161514
vt 0.681268 0.355377
vn -0.845985 -0.530573 -0.052939
v -2.425046 1.310307 -0.236778
vt 0.680594 0.342163
vn -0.842516 -0.534504 -0.066868
v -2.425724 1.311427 -0.237077
vt 0.680817 0.342128
vn -0.842296 -0.534804 -0.067242
v -2.422793 1.309240 -0.251799
vt 0.680277 0.339490
vn -0.821919 -0.563681 -0.081937
v -2.423488 1.310027 -0.250259
vt 0.680453 0.339773
vn -0.818310 -0.569417 -0.078319
v -2.180420 1.275326 -0.543195
vt 0.641600 0.284780
vn 0.699996 -0.675167 0.232711
v -2.435304 1.310853 0.000000
vt 0.677662 0.383264
vn 0.019489 0.999810 0.000016
v -2.434907 1.310539 -0.043514
vt 0.678172 0.375710
vn 0.019629 0.999722 -0.013060
v -2.433969 1.310827 0.000000
vt 0.677894 0.383281
vn 0.019489 0.999810 0.000016
v -2.433572 1.310513 -0.043514
vt 0.678403 0.375719
vn 0.019601 0.999720 -0.013283
v -2.433554 1.309626 -0.089261
vt 0.678571 0.367778
vn 0.019620 0.999620 -0.019350
v -2.432220 1.309600 -0.089261
vt 0.678804 0.367772
vn 0.019620 0.999620 -0.019350
v -2.433554 1.309626 -0.089261
vt 0.678571 0.367778
vn 0.019614 0.999000 -0.040180
v -2.428832 1.306775 -0.157774
vt 0.678781 0.355819
vn 0.019614 0.999000 -0.040180
v -2.432220 1.309600 -0.089261
vt 0.678804 0.367772
vn 0.019614 0.999000 -0.040180
v -2.427497 1.306749 -0.157774
vt 0.679012 0.355794
vn 0.019614 0.999000 -0.040180
v -2.428832 1.306775 -0.157774
vt 0.678781 0.355819
vn 0.019602 0.997759 -0.063971
v -2.420472 1.302043 -0.229042
vt 0.678455 0.343328
vn 0.019602 0.997759 -0.063971
v -2.427497 1.306749 -0.157774
vt 0.679012 0.355794
vn 0.019602 0.997759 -0.063971
v -2.419137 1.302017 -0.229042
vt 0.678679 0.343285
vn 0.019602 0.997759 -0.063971
v -2.420472 1.302043 -0.229042
vt 0.678455 0.343328
vn 0.019470 0.991091 0.131758
v -2.420511 1.302805 -0.234773
vt 0.678686 0.342387
vn 0.019470 0.991091 0.131758
v -2.419137 1.302017 -0.229042
vt 0.678679 0.343285
vn 0.019470 0.991091 0.131758
v -2.419176 1.302779 -0.234773
vt 0.678899 0.342465
vn 0.019470 0.991091 0.131758
v -2.420511 1.302805 -0.234773
vt 0.678686 0.342387
vn 0.018963 0.963692 0.266342
v -2.421044 1.305129 -0.243144
vt 0.679218 0.340965
vn 0.018963 0.963692 0.266342
v -2.419176 1.302779 -0.234773
vt 0.678899 0.342465
vn 0.018963 0.963692 0.266342
v -2.419709 1.305103 -0.243144
vt 0.679386 0.341078
vn 0.018963 0.963692 0.266342
v -2.421044 1.305129 -0.243144
vt 0.679218 0.340965
vn 0.018098 0.918871 0.394144
v -2.421738 1.306985 -0.247439
vt 0.679661 0.340289
vn 0.018098 0.918871 0.394144
v -2.419709 1.305103 -0.243144
vt 0.679386 0.341078
vn 0.018098 0.918871 0.394144
v -2.420404 1.306958 -0.247439
vt 0.679753 0.340462
vn 0.018098 0.918871 0.394144
v -2.421738 1.306985 -0.247439
vt 0.679661 0.340289
vn 0.014885 0.762983 0.646247
v -2.422281 1.308063 -0.248700
vt 0.679980 0.340090
vn 0.014885 0.762983 0.646247
v -2.420404 1.306958 -0.247439
vt 0.679753 0.340462
vn 0.014885 0.762983 0.646247
v -2.420947 1.308037 -0.248700
vt 0.679918 0.340374
vn 0.014885 0.762983 0.646247
v -2.422281 1.308063 -0.248700
vt 0.679980 0.340090
vn -0.011141 -0.565852 0.824432
v -2.423198 1.309293 -0.247869
vt 0.680323 0.340181
vn -0.011141 -0.565852 0.824432
v -2.420947 1.308037 -0.248700
vt 0.679918 0.340374
vn -0.011141 -0.565852 0.824432
v -2.421863 1.309267 -0.247869
vt 0.680144 0.340157
vn -0.011141 -0.565852 0.824432
v -2.423198 1.309293 -0.247869
vt 0.680323 0.340181
vn -0.019612 -0.995958 0.087655
v -2.425046 1.310307 -0.236778
vt 0.680594 0.342163
vn -0.019612 -0.995958 0.087655
v -2.421863 1.309267 -0.247869
vt 0.680144 0.340157
vn -0.019612 -0.995958 0.087655
v -2.423712 1.310280 -0.236778
vt 0.680371 0.342145
vn -0.019612 -0.995958 0.087655
v -2.440473 1.319198 -0.043947
vt 0.680428 0.375813
vn -0.015022 -0.999758 0.016060
v -2.441038 1.319480 0.000000
vt 0.679924 0.383440
vn -0.019600 -0.999808 -0.000016
v -2.439139 1.319171 -0.043947
vt 0.680196 0.375796
vn -0.015006 -0.999851 0.008479
v -2.439704 1.319454 0.000000
vt 0.679693 0.383423
vn -0.019600 -0.999808 -0.000016
v -2.438911 1.318321 -0.090105
vt 0.680819 0.367804
vn -0.019713 -0.999638 0.018287
v -2.437577 1.318295 -0.090105
vt 0.680587 0.367785
vn -0.019713 -0.999638 0.018287
v -2.434018 1.315321 -0.161074
vt 0.681031 0.355434
vn -0.019511 -0.998973 0.040881
v -2.438911 1.318321 -0.090105
vt 0.680819 0.367804
vn -0.019511 -0.998973 0.040881
v -2.432684 1.315295 -0.161074
vt 0.680799 0.355416
vn -0.019511 -0.998973 0.040881
v -2.437577 1.318295 -0.090105
vt 0.680587 0.367785
vn -0.019511 -0.998973 0.040881
v -2.425046 1.310307 -0.236778
vt 0.680594 0.342163
vn -0.019514 -0.997775 0.063756
v -2.434018 1.315321 -0.161074
vt 0.681031 0.355434
vn -0.019514 -0.997775 0.063756
v -2.423712 1.310280 -0.236778
vt 0.680371 0.342145
vn -0.019514 -0.997775 0.063756
v -2.432684 1.315295 -0.161074
vt 0.680799 0.355416
vn -0.019514 -0.997775 0.063756
v -2.421044 1.305129 -0.243144
vt 0.679218 0.340965
vn -0.840432 -0.533590 -0.094639
v -2.421738 1.306985 -0.247439
vt 0.679661 0.340289
vn -0.850160 -0.522005 -0.068846
v -2.422281 1.308063 -0.248700
vt 0.679980 0.340090
vn -0.845290 -0.530209 -0.066056
v -2.423198 1.309293 -0.247869
vt 0.680323 0.340181
vn -0.829509 -0.552007 -0.084871
v -2.388137 1.298201 0.407905
vt 0.726988 0.312258
vn -0.202640 0.956994 0.207605
v -2.380492 1.298236 0.406606
vt 0.725639 0.312335
vn 0.017993 0.990679 0.135024
v -2.381017 1.295008 0.427538
vt 0.726151 0.308691
vn -0.216515 0.945762 0.242189
v -2.373952 1.295401 0.424617
vt 0.724869 0.309065
vn 0.011273 0.987461 0.157458
v -2.372661 1.291726 0.446654
vt 0.725085 0.305184
vn -0.213206 0.939896 0.266719
v -2.366273 1.292454 0.442145
vt 0.723890 0.305854
vn -0.000508 0.987168 0.159687
v -2.362596 1.288482 0.464946
vt 0.723710 0.301788
vn -0.206544 0.932393 0.296618
v -2.357027 1.289575 0.458924
vt 0.722629 0.302737
vn -0.004101 0.986650 0.162802
v -2.349880 1.285529 0.481632
vt 0.721858 0.298624
vn -0.188531 0.925487 0.328527
v -2.345348 1.286958 0.474234
vt 0.720923 0.299832
vn -0.011605 0.984333 0.175938
v -2.334268 1.283156 0.495907
vt 0.719472 0.295816
vn -0.162524 0.922194 0.350919
v -2.331022 1.284848 0.487354
vt 0.718725 0.297252
vn -0.022411 0.984342 0.174836
v -2.316490 1.281428 0.507728
vt 0.716661 0.293390
vn -0.138004 0.921395 0.363300
v -2.314706 1.283260 0.498190
vt 0.716142 0.295028
vn -0.027036 0.984091 0.175595
v -2.296976 1.280410 0.516857
vt 0.713488 0.291396
vn -0.092338 0.945919 0.310983
v -2.296802 1.282342 0.506583
vt 0.713232 0.293197
vn -0.041200 0.983095 0.178399
v -2.229066 1.280150 0.535418
vt 0.702095 0.286810
vn -0.087213 0.929599 0.358106
v -2.263519 1.279841 0.527716
vt 0.707921 0.288823
vn -0.081429 0.946023 0.313704
v -2.231324 1.281936 0.524758
vt 0.702291 0.288736
vn -0.044216 0.985615 0.163119
v -2.393322 1.304250 0.364272
vt 0.727020 0.319948
vn 0.022869 0.992148 0.122957
v -2.401028 1.304393 0.365173
vt 0.728372 0.319943
vn -0.195426 0.964558 0.177305
v -2.409098 1.311973 0.299743
vt 0.728535 0.331435
vn 0.046985 0.994683 0.091636
v -2.416716 1.312229 0.300750
vt 0.729873 0.331408
vn -0.195541 0.969825 0.145611
v -2.443639 1.327104 0.044090
vt 0.730296 0.376139
vn -0.186240 0.982315 0.019304
v -2.436661 1.326698 0.043965
vt 0.729080 0.376066
vn 0.052193 0.998567 0.011820
v -2.434611 1.325706 0.089973
vt 0.729401 0.368087
vn 0.057295 0.997652 0.037524
v -2.442140 1.326135 0.090022
vt 0.730710 0.368194
vn -0.188342 0.981113 0.044090
v -2.401931 1.324220 0.089761
vt 0.723717 0.367623
vn 0.016772 0.999217 0.035839
v -2.303818 1.323444 0.089095
vt 0.706679 0.366161
vn -0.003602 0.999312 0.036922
v -2.362514 1.303884 0.361795
vt 0.721632 0.319787
vn 0.001196 0.994081 0.108631
v -2.270625 1.305240 0.355046
vt 0.705593 0.319236
vn -0.015109 0.993824 0.109932
v -2.347015 1.296843 0.413645
vt 0.719983 0.310461
vn -0.006928 0.990893 0.134472
v -2.248041 1.292638 0.454744
vt 0.703695 0.301364
vn -0.030731 0.989163 0.143571
v -2.291195 1.316180 0.234801
vt 0.706904 0.340584
vn -0.007306 0.997435 0.071204
v -2.387980 1.316522 0.237388
vt 0.723715 0.341837
vn 0.011579 0.997456 0.070345
v -2.325516 1.290718 0.453976
vt 0.717082 0.302989
vn -0.022811 0.986296 0.163402
v -2.300753 1.287031 0.479131
vt 0.713323 0.298099
vn -0.030133 0.985953 0.164280
v -2.181473 1.281680 0.541436
vt 0.694114 0.285011
vn -0.053609 0.983070 0.175215
v -2.181642 1.281422 0.542823
vt 0.694169 0.284794
vn -0.053609 0.983070 0.175215
v -2.183731 1.283151 0.532429
vt 0.694181 0.286566
vn -0.049333 0.985364 0.163170
v -2.200727 1.294577 0.456281
vt 0.695533 0.300183
vn -0.043906 0.988380 0.145521
v -2.249679 1.324802 0.088577
vt 0.697274 0.365383
vn -0.025724 0.998962 0.037589
v -2.221415 1.307353 0.352122
vt 0.697006 0.318814
vn -0.035629 0.993073 0.111970
v -2.446827 1.324751 0.044242
vt 0.730987 0.376157
vn -0.917701 0.396279 0.028076
v -2.445225 1.323745 0.090018
vt 0.731388 0.368231
vn -0.916329 0.394881 0.066406
v -2.439812 1.320666 0.163628
vt 0.731642 0.355440
vn -0.911753 0.396295 0.107970
v -2.436732 1.323100 0.163237
vt 0.730956 0.355481
vn -0.185310 0.980198 0.069800
v -2.431068 1.315725 0.238555
vt 0.731366 0.342355
vn -0.905328 0.392593 0.162023
v -2.428014 1.318174 0.238535
vt 0.730684 0.342346
vn -0.189031 0.976394 0.104505
v -2.419555 1.309647 0.301670
vt 0.730539 0.331239
vn -0.892141 0.386987 0.233078
v -2.403996 1.301827 0.365605
vt 0.729052 0.319845
vn -0.880532 0.379875 0.283475
v -2.391048 1.295593 0.408481
vt 0.727662 0.312118
vn -0.866713 0.370483 0.333993
v -2.383589 1.292238 0.429003
vt 0.726782 0.308371
vn -0.841530 0.364385 0.398813
v -2.375085 1.288886 0.448391
vt 0.725690 0.304797
vn -0.809501 0.356858 0.466220
v -2.364759 1.285575 0.466910
vt 0.724270 0.301339
vn -0.755296 0.338142 0.561416
v -2.351725 1.282565 0.483781
vt 0.722359 0.298117
vn -0.666559 0.313200 0.676465
v -2.335729 1.280141 0.498175
vt 0.719904 0.295259
vn -0.560721 0.290076 0.775530
v -2.317597 1.278388 0.510125
vt 0.717021 0.292789
vn -0.451591 0.274377 0.848989
v -2.297364 1.277366 0.519638
vt 0.713712 0.290711
vn -0.328328 0.280696 0.901893
v -2.263552 1.276856 0.530582
vt 0.708067 0.288116
vn -0.291807 0.278480 0.915039
v -2.181642 1.281422 0.542823
vt 0.694169 0.284794
vn -0.102499 0.695067 0.711601
v -2.180072 1.278396 0.545948
vt 0.693971 0.284123
vn -0.125638 0.258093 0.957916
v -2.228730 1.277208 0.538354
vt 0.702153 0.286078
vn -0.184321 0.295108 0.937517
v -2.179659 1.278477 0.544282
vt 0.693782 0.284279
vn 0.989243 0.060134 -0.133351
v -2.181473 1.281680 0.541436
vt 0.694114 0.285011
vn 0.911217 0.384435 -0.147963
v -2.182448 1.280282 0.533135
vt 0.693647 0.286345
vn 0.975891 0.047934 -0.212929
v -2.183731 1.283151 0.532429
vt 0.694181 0.286566
vn 0.912805 0.380797 -0.147582
v -2.199413 1.291703 0.456789
vt 0.694995 0.300028
vn 0.977032 0.098120 -0.189160
v -2.200727 1.294577 0.456281
vt 0.695533 0.300183
vn 0.909018 0.394095 -0.135558
v -2.219999 1.304425 0.352816
vt 0.696456 0.318630
vn 0.981464 0.117412 -0.151469
v -2.221415 1.307353 0.352122
vt 0.697006 0.318814
vn 0.904294 0.413728 -0.105267
v -2.248223 1.321893 0.089169
vt 0.696719 0.365228
vn 0.984359 0.169416 -0.048334
v -2.249679 1.324802 0.088577
vt 0.697274 0.365383
vn 0.897922 0.438837 -0.034032
v -2.429144 1.322698 0.162677
vt 0.729630 0.355453
vn 0.058484 0.997289 0.044648
v -2.420306 1.317788 0.238310
vt 0.729343 0.342248
vn 0.047383 0.995807 0.078254
v -2.238378 1.317751 0.233281
vt 0.697718 0.339927
vn -0.028913 0.997043 0.071202
v -2.236945 1.314835 0.233795
vt 0.697164 0.339780
vn 0.986425 0.134821 -0.093755
v -2.238378 1.317751 0.233281
vt 0.697718 0.339927
vn 0.900101 0.430887 -0.064454
v -2.446114 1.321374 0.044218
vt 0.731588 0.376181
vn -0.617983 -0.786182 0.003975
v -2.439196 1.317341 0.163708
vt 0.732229 0.355383
vn -0.630484 -0.776008 0.017360
v -2.444570 1.320398 0.090049
vt 0.731982 0.368216
vn -0.628797 -0.777493 0.010921
v -2.430508 1.312427 0.238532
vt 0.731942 0.342273
vn -0.658974 -0.751306 0.035949
v -2.403463 1.298541 0.365551
vt 0.729606 0.319674
vn -0.705489 -0.702092 0.096705
v -2.419033 1.306366 0.301569
vt 0.731105 0.331119
vn -0.701887 -0.708673 0.071675
v -2.390596 1.292347 0.408153
vt 0.728212 0.311955
vn -0.692216 -0.712309 0.115984
v -2.383180 1.289010 0.428558
vt 0.727321 0.308181
vn -0.658781 -0.738800 0.142065
v -2.374725 1.285677 0.447834
vt 0.726217 0.304576
vn -0.611026 -0.772551 0.172662
v -2.364458 1.282385 0.466247
vt 0.724771 0.301069
vn -0.576283 -0.783371 0.232870
v -2.351499 1.279393 0.483022
vt 0.722818 0.297788
vn -0.510058 -0.787149 0.346753
v -2.335594 1.276982 0.497333
vt 0.720321 0.294871
vn -0.418107 -0.809007 0.413151
v -2.317567 1.275240 0.509214
vt 0.717392 0.292355
vn -0.315813 -0.826239 0.466467
v -2.297450 1.274224 0.518673
vt 0.714033 0.290236
vn -0.115526 -0.954286 0.275665
v -2.263831 1.273715 0.529562
vt 0.708366 0.287622
vn -0.074117 -0.961414 0.264935
v -2.180831 1.275245 0.544852
vt 0.693785 0.283725
vn -0.108014 -0.303812 0.946589
v -2.229210 1.274064 0.537298
vt 0.702427 0.285564
vn -0.100828 -0.801043 0.590054
v -2.180420 1.275326 0.543195
vt 0.693369 0.284121
vn 0.700020 -0.675142 -0.232710
v -2.182678 1.276796 0.534189
vt 0.693045 0.286097
vn 0.169666 -0.966735 -0.191406
v -2.199673 1.288234 0.458053
vt 0.694392 0.299791
vn 0.125278 -0.979317 -0.158882
v -2.220360 1.301023 0.353909
vt 0.695864 0.318423
vn 0.102677 -0.987964 -0.115691
v -2.237325 1.311445 0.235094
vt 0.696580 0.339525
vn 0.091180 -0.992567 -0.080609
v -2.248631 1.318519 0.090418
vt 0.696142 0.364973
vn 0.088893 -0.995121 -0.042796
v -2.432923 1.307454 0.043361
vt 0.677532 0.375685
vn -0.841386 -0.540371 0.008251
v -2.434907 1.310539 0.043515
vt 0.678172 0.375710
vn -0.841488 -0.540212 0.008336
v -2.419830 1.301680 0.234473
vt 0.678461 0.342416
vn -0.836958 -0.541600 0.078553
v -2.417977 1.298615 0.233654
vt 0.677811 0.342478
vn -0.837356 -0.541424 0.075470
v -2.420472 1.302043 0.229042
vt 0.678455 0.343328
vn -0.844224 -0.532208 0.063568
v -2.428832 1.306775 0.157774
vt 0.678781 0.355819
vn -0.845965 -0.530612 0.052850
v -2.426984 1.303730 0.156598
vt 0.678146 0.355970
vn -0.846619 -0.529934 0.049054
v -2.408962 1.295710 0.297380
vt 0.677537 0.331177
vn -0.801197 -0.588407 0.108910
v -2.407030 1.292859 0.296662
vt 0.676927 0.331262
vn -0.806364 -0.580874 0.111190
v -2.362094 1.278500 0.441660
vt 0.671414 0.305357
vn -0.517028 -0.840243 0.163324
v -2.363787 1.279732 0.442564
vt 0.671789 0.305224
vn -0.523448 -0.838722 0.150160
v -2.350938 1.276458 0.462471
vt 0.669821 0.301556
vn -0.443501 -0.880191 0.169032
v -2.352473 1.277332 0.463331
vt 0.670138 0.301430
vn -0.450316 -0.879071 0.156362
v -2.329450 1.273849 0.488426
vt 0.666531 0.296694
vn -0.245397 -0.949018 0.197851
v -2.330282 1.274314 0.489426
vt 0.666706 0.296531
vn -0.255336 -0.947748 0.191252
v -2.312850 1.272969 0.497448
vt 0.663819 0.294844
vn -0.139624 -0.972777 0.184958
v -2.313516 1.273299 0.499051
vt 0.663967 0.294573
vn -0.145914 -0.972619 0.180890
v -2.344721 1.276095 0.474032
vt 0.668961 0.299444
vn -0.350586 -0.918664 0.182059
v -2.343393 1.275411 0.473128
vt 0.668691 0.299583
vn -0.345796 -0.919172 0.188545
v -2.228367 1.274272 0.533304
vt 0.649756 0.287275
vn 0.058884 -0.991000 -0.120215
v -2.184958 1.275534 0.541412
vt 0.642355 0.285170
vn 0.051365 -0.993311 -0.103413
v -2.227148 1.276034 0.513899
vt 0.649216 0.290636
vn 0.076068 -0.982900 -0.167691
v -2.296922 1.272743 0.506756
vt 0.661223 0.292954
vn -0.074607 -0.979188 0.188747
v -2.296501 1.272345 0.504906
vt 0.661117 0.293274
vn -0.077033 -0.979100 0.188225
v -2.370675 1.280427 0.422330
vt 0.672590 0.308857
vn -0.601514 -0.782376 0.161455
v -2.372366 1.281936 0.423494
vt 0.672997 0.308680
vn -0.607394 -0.780714 0.146830
v -2.377943 1.282332 0.403317
vt 0.673544 0.312275
vn -0.690002 -0.707507 0.152742
v -2.379838 1.284233 0.404060
vt 0.674019 0.312178
vn -0.693913 -0.706186 0.140664
v -2.393165 1.289022 0.361411
vt 0.675718 0.319813
vn -0.760961 -0.635567 0.130357
v -2.391368 1.286646 0.360128
vt 0.675187 0.320000
vn -0.760127 -0.635049 0.137544
v -2.431645 1.306527 0.088961
vt 0.677937 0.367774
vn -0.847552 -0.530017 0.027158
v -2.433554 1.309626 0.089262
vt 0.678571 0.367778
vn -0.847609 -0.529903 0.027594
v -2.298086 1.273847 0.511874
vt 0.661518 0.292066
vn -0.028409 -0.999259 0.025965
v -2.297450 1.274224 0.518673
vt 0.661520 0.290873
vn -0.115526 -0.954286 0.275665
v -2.263831 1.273715 0.529562
vt 0.655856 0.288468
vn -0.074117 -0.961414 0.264935
v -2.351499 1.279393 0.483022
vt 0.670394 0.297973
vn -0.510058 -0.787149 0.346753
v -2.348946 1.278270 0.476910
vt 0.669821 0.298999
vn -0.270232 -0.959881 0.074851
v -2.364458 1.282385 0.466247
vt 0.672444 0.301106
vn -0.576283 -0.783371 0.232870
v -2.357355 1.280112 0.466065
vt 0.671147 0.301025
vn -0.304830 -0.951441 0.042879
v -2.446114 1.321374 0.044218
vt 0.681538 0.375861
vn -0.617983 -0.786182 0.003975
v -2.441216 1.320352 0.044005
vt 0.680667 0.375822
vn -0.201593 -0.979432 -0.008549
v -2.332928 1.275791 0.492607
vt 0.667262 0.296006
vn -0.208530 -0.972086 0.107538
v -2.335594 1.276982 0.497333
vt 0.667831 0.295219
vn -0.418107 -0.809007 0.413151
v -2.315632 1.274351 0.504148
vt 0.664438 0.293710
vn -0.131329 -0.984905 0.112764
v -2.317567 1.275240 0.509214
vt 0.664874 0.292847
vn -0.315813 -0.826239 0.466467
v -2.369172 1.283649 0.445438
vt 0.672978 0.304799
vn -0.338218 -0.941008 0.010569
v -2.374725 1.285677 0.447834
vt 0.674040 0.304469
vn -0.611026 -0.772551 0.172662
v -2.377742 1.286736 0.427196
vt 0.674290 0.308112
vn -0.376519 -0.926408 0.000776
v -2.383180 1.289010 0.428558
vt 0.675334 0.307961
vn -0.658781 -0.738800 0.142065
v -2.385864 1.290280 0.406423
vt 0.675528 0.311866
vn -0.396882 -0.917808 -0.010576
v -2.390596 1.292347 0.408153
vt 0.676450 0.311642
vn -0.692216 -0.712309 0.115984
v -2.398878 1.296583 0.365501
vt 0.677410 0.319211
vn -0.394605 -0.918717 -0.015717
v -2.403463 1.298541 0.365551
vt 0.678276 0.319283
vn -0.705489 -0.702092 0.096705
v -2.414997 1.304695 0.300228
vt 0.679436 0.330797
vn -0.345056 -0.938065 -0.031144
v -2.419033 1.306366 0.301569
vt 0.680215 0.330627
vn -0.701887 -0.708673 0.071675
v -2.425724 1.311427 0.237078
vt 0.680817 0.342128
vn -0.250058 -0.967352 -0.041235
v -2.430508 1.312427 0.238532
vt 0.681650 0.341946
vn -0.658974 -0.751306 0.035949
v -2.423488 1.310027 0.250259
vt 0.680453 0.339773
vn -0.301683 -0.952413 -0.043542
v -2.434709 1.316460 0.161514
vt 0.681268 0.355377
vn -0.200878 -0.979086 -0.032240
v -2.439196 1.317341 0.163708
vt 0.682098 0.355064
vn -0.630484 -0.776008 0.017360
v -2.439626 1.319481 0.090218
vt 0.681056 0.367805
vn -0.192964 -0.980954 -0.022250
v -2.444570 1.320398 0.090049
vt 0.681926 0.367913
vn -0.628797 -0.777493 0.010921
v -2.396847 1.308986 0.088753
vt 0.671879 0.367322
vn 0.064582 -0.997090 -0.040515
v -2.432923 1.307454 0.043361
vt 0.677532 0.375685
vn 0.066665 -0.997671 -0.014403
v -2.431645 1.306527 0.088961
vt 0.677937 0.367774
vn 0.056481 -0.997254 -0.047891
v -2.319342 1.279935 0.459936
vt 0.664270 0.301548
vn 0.077876 -0.985733 -0.149218
v -2.343393 1.275411 0.473128
vt 0.668691 0.299583
vn 0.093989 -0.981385 -0.167477
v -2.310903 1.279105 0.469642
vt 0.662968 0.299726
vn 0.074367 -0.982892 -0.168504
v -2.329450 1.273849 0.488426
vt 0.666531 0.296694
vn 0.084874 -0.977890 -0.191120
v -2.299989 1.278552 0.477134
vt 0.661203 0.298247
vn 0.062168 -0.978048 -0.198888
v -2.312850 1.272969 0.497448
vt 0.663819 0.294844
vn 0.065600 -0.974036 -0.216680
v -2.286024 1.277328 0.485097
vt 0.658927 0.296611
vn 0.068790 -0.980877 -0.182068
v -2.296501 1.272345 0.504906
vt 0.661117 0.293274
vn 0.067678 -0.983732 -0.166408
v -2.326159 1.280763 0.450249
vt 0.665292 0.303340
vn 0.069694 -0.988382 -0.135072
v -2.350938 1.276458 0.462471
vt 0.669821 0.301556
vn 0.096477 -0.983859 -0.150708
v -2.335632 1.282166 0.434316
vt 0.666673 0.306261
vn 0.071160 -0.988369 -0.134395
v -2.362094 1.278500 0.441660
vt 0.671414 0.305357
vn 0.096986 -0.984928 -0.143217
v -2.342924 1.283743 0.418063
vt 0.667677 0.309207
vn 0.080188 -0.988228 -0.130287
v -2.370675 1.280427 0.422330
vt 0.672590 0.308857
vn 0.096668 -0.985812 -0.137222
v -2.349909 1.285457 0.400454
vt 0.668608 0.312381
vn 0.080971 -0.989031 -0.123533
v -2.377943 1.282332 0.403317
vt 0.673544 0.312275
vn 0.095071 -0.987138 -0.128528
v -2.364458 1.289921 0.354140
vt 0.670400 0.320664
vn 0.075163 -0.991573 -0.105518
v -2.391368 1.286646 0.360128
vt 0.675187 0.320000
vn 0.094190 -0.987856 -0.123569
v -2.407030 1.292859 0.296662
vt 0.676927 0.331262
vn 0.076278 -0.991469 -0.105697
v -2.383935 1.301338 0.233281
vt 0.671879 0.342012
vn 0.069676 -0.994617 -0.076692
v -2.417977 1.298615 0.233654
vt 0.677811 0.342478
vn 0.076495 -0.992515 -0.095201
v -2.426984 1.303730 0.156598
vt 0.678146 0.355970
vn 0.054694 -0.997011 -0.054575
v -2.182678 1.276796 0.534189
vt 0.641831 0.286402
vn 0.169666 -0.966735 -0.191406
v -2.248631 1.318519 0.090418
vt 0.646149 0.364909
vn 0.088893 -0.995121 -0.042796
v -2.199673 1.288234 0.458053
vt 0.643431 0.300068
vn 0.125278 -0.979317 -0.158882
v -2.220360 1.301023 0.353909
vt 0.645294 0.318603
vn 0.102677 -0.987964 -0.115691
v -2.237325 1.311445 0.235094
vt 0.646392 0.339562
vn 0.091180 -0.992567 -0.080609
v -2.420511 1.302805 0.234774
vt 0.678686 0.342387
vn -0.841294 -0.533013 0.090120
v -2.420610 1.305084 0.246743
vt 0.679274 0.340328
vn -0.831678 -0.548187 0.088336
v -2.398878 1.296583 0.365501
vt 0.677410 0.319211
vn -0.757492 -0.640019 0.128768
v -2.414997 1.304695 0.300228
vt 0.679436 0.330797
vn -0.798019 -0.592720 0.108851
v -2.385864 1.290280 0.406423
vt 0.675528 0.311866
vn -0.697104 -0.703814 0.136718
v -2.377742 1.286736 0.427196
vt 0.674290 0.308112
vn -0.606723 -0.781989 0.142760
v -2.369172 1.283649 0.445438
vt 0.672978 0.304799
vn -0.527628 -0.836815 0.146111
v -2.357355 1.280112 0.466065
vt 0.671147 0.301025
vn -0.456822 -0.876551 0.151564
v -2.348946 1.278270 0.476910
vt 0.669821 0.298999
vn -0.356826 -0.917025 0.178158
v -2.332928 1.275791 0.492607
vt 0.667262 0.296006
vn -0.260639 -0.946608 0.189739
v -2.315632 1.274351 0.504148
vt 0.664438 0.293710
vn -0.143905 -0.973232 0.179194
v -2.298086 1.273847 0.511874
vt 0.661518 0.292066
vn -0.071317 -0.979142 0.190247
v -2.228367 1.274272 0.533304
vt 0.649756 0.287275
vn -0.055023 -0.978587 0.198342
v -2.441216 1.320352 0.044005
vt 0.680667 0.375822
vn -0.841260 -0.540471 0.013132
v -2.440473 1.319198 0.043947
vt 0.680428 0.375813
vn -0.841298 -0.540410 0.013218
v -2.439626 1.319481 0.090218
vt 0.681056 0.367805
vn -0.847484 -0.530002 0.029477
v -2.438911 1.318321 0.090105
vt 0.680819 0.367804
vn -0.847419 -0.530123 0.029171
v -2.434709 1.316460 0.161514
vt 0.681268 0.355377
vn -0.845969 -0.530598 0.052940
v -2.434018 1.315321 0.161074
vt 0.681031 0.355434
vn -0.846672 -0.529874 0.048783
v -2.425724 1.311427 0.237078
vt 0.680817 0.342128
vn -0.842310 -0.534794 0.067149
v -2.425046 1.310307 0.236778
vt 0.680594 0.342163
vn -0.842513 -0.534527 0.066730
v -2.422793 1.309240 0.251800
vt 0.680277 0.339490
vn -0.821901 -0.563720 0.081843
v -2.423488 1.310027 0.250259
vt 0.680453 0.339773
vn -0.818310 -0.569423 0.078272
v -2.180831 1.275245 0.544852
vt 0.641698 0.284501
vn 0.034269 -0.994534 -0.098628
v -2.229210 1.274064 0.537298
vt 0.649968 0.286595
vn -0.100828 -0.801043 0.590054
v -2.433572 1.310513 0.043515
vt 0.678403 0.375719
vn 0.019586 0.999719 0.013346
v -2.434907 1.310539 0.043515
vt 0.678172 0.375710
vn 0.019582 0.999722 0.013123
v -2.432220 1.309600 0.089262
vt 0.678804 0.367772
vn 0.019573 0.999619 0.019446
v -2.433554 1.309626 0.089262
vt 0.678571 0.367778
vn 0.019282 0.999625 0.019441
v -2.427497 1.306749 0.157774
vt 0.679012 0.355794
vn 0.019598 0.998999 0.040213
v -2.428832 1.306775 0.157774
vt 0.678781 0.355819
vn 0.019598 0.998999 0.040213
v -2.432220 1.309600 0.089262
vt 0.678804 0.367772
vn 0.019598 0.998999 0.040213
v -2.433554 1.309626 0.089262
vt 0.678571 0.367778
vn 0.019598 0.998999 0.040213
v -2.419137 1.302017 0.229042
vt 0.678679 0.343285
vn 0.019586 0.997755 0.064040
v -2.420472 1.302043 0.229042
vt 0.678455 0.343328
vn 0.019586 0.997755 0.064040
v -2.427497 1.306749 0.157774
vt 0.679012 0.355794
vn 0.019586 0.997755 0.064040
v -2.428832 1.306775 0.157774
vt 0.678781 0.355819
vn 0.019586 0.997755 0.064040
v -2.419176 1.302779 0.234774
vt 0.678899 0.342465
vn 0.019522 0.991104 -0.131649
v -2.420511 1.302805 0.234774
vt 0.678686 0.342387
vn 0.019522 0.991104 -0.131649
v -2.419137 1.302017 0.229042
vt 0.678679 0.343285
vn 0.019522 0.991104 -0.131649
v -2.420472 1.302043 0.229042
vt 0.678455 0.343328
vn 0.019522 0.991104 -0.131649
v -2.419709 1.305103 0.243144
vt 0.679386 0.341078
vn 0.019020 0.963712 -0.266266
v -2.421044 1.305129 0.243144
vt 0.679218 0.340965
vn 0.019020 0.963712 -0.266266
v -2.419176 1.302779 0.234774
vt 0.678899 0.342465
vn 0.019020 0.963712 -0.266266
v -2.420511 1.302805 0.234774
vt 0.678686 0.342387
vn 0.019020 0.963712 -0.266266
v -2.420404 1.306958 0.247439
vt 0.679753 0.340462
vn 0.018117 0.918909 -0.394053
v -2.421738 1.306985 0.247439
vt 0.679661 0.340289
vn 0.018117 0.918909 -0.394053
v -2.419709 1.305103 0.243144
vt 0.679386 0.341078
vn 0.018117 0.918909 -0.394053
v -2.421044 1.305129 0.243144
vt 0.679218 0.340965
vn 0.018117 0.918909 -0.394053
v -2.420947 1.308037 0.248701
vt 0.679918 0.340374
vn 0.014907 0.763053 -0.646164
v -2.422281 1.308063 0.248701
vt 0.679980 0.340090
vn 0.014907 0.763053 -0.646164
v -2.420404 1.306958 0.247439
vt 0.679753 0.340462
vn 0.014907 0.763053 -0.646164
v -2.421738 1.306985 0.247439
vt 0.679661 0.340289
vn 0.014907 0.763053 -0.646164
v -2.421863 1.309267 0.247869
vt 0.680144 0.340157
vn -0.010990 -0.565759 -0.824498
v -2.423198 1.309293 0.247869
vt 0.680323 0.340181
vn -0.010990 -0.565759 -0.824498
v -2.420947 1.308037 0.248701
vt 0.679918 0.340374
vn -0.010990 -0.565759 -0.824498
v -2.422281 1.308063 0.248701
vt 0.679980 0.340090
vn -0.010990 -0.565759 -0.824498
v -2.423712 1.310280 0.236778
vt 0.680371 0.342145
vn -0.019598 -0.995942 -0.087836
v -2.425046 1.310307 0.236778
vt 0.680594 0.342163
vn -0.019598 -0.995942 -0.087836
v -2.421863 1.309267 0.247869
vt 0.680144 0.340157
vn -0.019598 -0.995942 -0.087836
v -2.423198 1.309293 0.247869
vt 0.680323 0.340181
vn -0.019598 -0.995942 -0.087836
v -2.439139 1.319171 0.043947
vt 0.680196 0.375796
vn -0.014991 -0.999851 -0.008510
v -2.440473 1.319198 0.043947
vt 0.680428 0.375813
vn -0.014975 -0.999757 -0.016155
v -2.437577 1.318295 0.090105
vt 0.680587 0.367785
vn -0.019697 -0.999638 -0.018319
v -2.438911 1.318321 0.090105
vt 0.680819 0.367804
vn -0.019697 -0.999638 -0.018319
v -2.437577 1.318295 0.090105
vt 0.680587 0.367785
vn -0.019495 -0.998972 -0.040914
v -2.438911 1.318321 0.090105
vt 0.680819 0.367804
vn -0.019495 -0.998972 -0.040914
v -2.432684 1.315295 0.161074
vt 0.680799 0.355416
vn -0.019495 -0.998972 -0.040914
v -2.434018 1.315321 0.161074
vt 0.681031 0.355434
vn -0.019495 -0.998972 -0.040914
v -2.432684 1.315295 0.161074
vt 0.680799 0.355416
vn -0.019499 -0.997771 -0.063825
v -2.434018 1.315321 0.161074
vt 0.681031 0.355434
vn -0.019499 -0.997771 -0.063825
v -2.423712 1.310280 0.236778
vt 0.680371 0.342145
vn -0.019499 -0.997771 -0.063825
v -2.425046 1.310307 0.236778
vt 0.680594 0.342163
vn -0.019499 -0.997771 -0.063825
v -2.421044 1.305129 0.243144
vt 0.679218 0.340965
vn -0.840415 -0.533632 0.094545
v -2.421738 1.306985 0.247439
vt 0.679661 0.340289
vn -0.850171 -0.522010 0.068662
v -2.422281 1.308063 0.248701
vt 0.679980 0.340090
vn -0.845304 -0.530198 0.065964
v -2.423198 1.309293 0.247869
vt 0.680323 0.340181
vn -0.829509 -0.552029 0.084730
v -2.180420 1.275326 0.543195
vt 0.641600 0.284780
vn 0.700020 -0.675142 -0.232710
v -2.439704 1.319454 0.000000
vt -0.693051 1.015656
vn -0.836938 -0.547298 -0.000063
v -2.433969 1.310827 0.000000
vt -0.693051 1.002971
vn -0.836938 -0.547298 -0.000063
v -2.439139 1.319171 -0.043947
vt -0.746239 1.015656
vn -0.841366 -0.540353 -0.011030
v -2.433572 1.310513 -0.043514
vt -0.746239 1.002971
vn -0.841404 -0.540292 -0.011115
v -2.437577 1.318295 -0.090105
vt -0.802533 1.015656
vn -0.847498 -0.530024 -0.028645
v -2.432220 1.309600 -0.089261
vt -0.802533 1.002971
vn -0.847491 -0.530057 -0.028251
v -2.432684 1.315295 -0.161074
vt -0.888966 1.015656
vn -0.846106 -0.530397 -0.052756
v -2.427497 1.306749 -0.157774
vt -0.888966 1.002971
vn -0.846720 -0.529798 -0.048782
v -2.423712 1.310280 -0.236778
vt -0.980464 1.015656
vn -0.843930 -0.532193 -0.067471
v -2.419137 1.302017 -0.229042
vt -0.980464 1.002971
vn -0.844081 -0.532268 -0.064945
v -2.421863 1.309267 -0.247869
vt -0.997250 1.014205
vn -0.840324 -0.534995 -0.087380
v -2.419176 1.302779 -0.234773
vt -0.986635 1.004565
vn -0.842642 -0.532012 -0.083174
v -2.420404 1.306958 -0.247439
vt -0.997663 1.011544
vn -0.833998 -0.542896 -0.098543
v -2.419709 1.305103 -0.243144
vt -0.993126 1.008250
vn -0.834034 -0.542876 -0.098351
v -2.420947 1.308037 -0.248700
vt -0.998409 1.013181
vn -0.830862 -0.545687 -0.109060
v -2.433572 1.310513 0.043515
vt -0.746239 1.002971
vn -0.841274 -0.540499 0.010859
v -2.439139 1.319171 0.043947
vt -0.746239 1.015656
vn -0.841395 -0.540309 0.010987
v -2.432220 1.309600 0.089262
vt -0.802533 1.002971
vn -0.847470 -0.530095 0.028164
v -2.437577 1.318295 0.090105
vt -0.802533 1.015656
vn -0.847509 -0.530012 0.028557
v -2.427497 1.306749 0.157774
vt -0.888966 1.002971
vn -0.846809 -0.529704 0.048242
v -2.432684 1.315295 0.161074
vt -0.888966 1.015656
vn -0.846101 -0.530419 0.052621
v -2.419137 1.302017 0.229042
vt -0.980464 1.002971
vn -0.844063 -0.532309 0.064853
v -2.423712 1.310280 0.236778
vt -0.980464 1.015656
vn -0.843927 -0.532215 0.067334
v -2.419176 1.302779 0.234774
vt -0.986635 1.004565
vn -0.842641 -0.532036 0.083034
v -2.421863 1.309267 0.247869
vt -0.997250 1.014205
vn -0.840324 -0.535019 0.087239
v -2.419709 1.305103 0.243144
vt -0.993126 1.008250
vn -0.834052 -0.542866 0.098255
v -2.420404 1.306958 0.247439
vt -0.997663 1.011544
vn -0.833999 -0.542904 0.098495
v -2.420947 1.308037 0.248701
vt -0.998409 1.013181
vn -0.830881 -0.545677 0.108963
usemtl Exterior.012
f 3/3/3 2/2/2 1/1/1
f 4/4/4 2/2/2 3/3/3
f 6/6/6 1/1/1 5/5/5
f 3/3/3 1/1/1 6/6/6
f 8/8/8 5/5/5 7/7/7
f 6/6/6 5/5/5 8/8/8
f 11/11/11 10/10/10 9/9/9
f 12/12/12 10/10/10 11/11/11
f 12/12/12 13/13/13 10/10/10
f 14/14/14 13/13/13 12/12/12
f 14/14/14 15/15/15 13/13/13
f 16/16/16 15/15/15 14/14/14
f 18/18/18 7/7/7 17/17/17
f 8/8/8 7/7/7 18/18/18
f 20/20/20 9/9/9 19/19/19
f 11/11/11 9/9/9 20/20/20
f 22/22/22 19/19/19 21/21/21
f 20/20/20 19/19/19 22/22/22
f 24/24/24 21/21/21 23/23/23
f 22/22/22 21/21/21 24/24/24
f 26/26/26 23/23/23 25/25/25
f 24/24/24 23/23/23 26/26/26
f 29/29/29 28/28/28 27/27/27
f 30/30/30 28/28/28 29/29/29
f 4/4/4 27/27/27 2/2/2
f 29/29/29 27/27/27 4/4/4
f 30/30/30 31/31/31 28/28/28
f 32/32/32 31/31/31 30/30/30
f 32/32/32 25/25/25 31/31/31
f 26/26/26 25/25/25 32/32/32
f 35/35/35 34/34/34 33/33/33
f 36/36/36 34/34/34 35/35/35
f 37/37/37 36/36/36 35/35/35
f 38/38/38 36/36/36 37/37/37
f 39/39/39 38/38/38 37/37/37
f 40/40/40 38/38/38 39/39/39
f 43/43/43 42/42/42 41/41/41
f 44/44/44 42/42/42 43/43/43
f 41/41/41 46/46/46 45/45/45
f 42/42/42 46/46/46 41/41/41
f 45/45/45 48/48/48 47/47/47
f 46/46/46 48/48/48 45/45/45
f 49/49/49 40/40/40 39/39/39
f 50/50/50 40/40/40 49/49/49
f 51/51/51 44/44/44 43/43/43
f 52/52/52 44/44/44 51/51/51
f 53/53/53 52/52/52 51/51/51
f 54/54/54 52/52/52 53/53/53
f 55/55/55 54/54/54 53/53/53
f 56/56/56 54/54/54 55/55/55
f 57/57/57 56/56/56 55/55/55
f 58/58/58 56/56/56 57/57/57
f 61/61/61 60/60/60 59/59/59
f 62/62/62 60/60/60 61/61/61
f 33/33/33 62/62/62 61/61/61
f 34/34/34 62/62/62 33/33/33
f 59/59/59 64/64/64 63/63/63
f 60/60/60 64/64/64 59/59/59
f 63/63/63 58/58/58 57/57/57
f 64/64/64 58/58/58 63/63/63
usemtl Paint.012
f 67/67/67 66/66/66 65/65/65
f 68/68/68 66/66/66 67/67/67
f 71/71/71 70/70/70 69/69/69
f 72/72/72 70/70/70 71/71/71
f 75/75/75 74/74/74 73/73/73
f 76/76/76 74/74/74 75/75/75
f 79/79/79 78/78/78 77/77/77
f 80/80/80 78/78/78 79/79/79
f 72/72/72 65/65/65 70/70/70
f 67/67/67 65/65/65 72/72/72
f 76/76/76 69/69/69 74/74/74
f 71/71/71 69/69/69 76/76/76
f 80/80/80 73/73/73 78/78/78
f 75/75/75 73/73/73 80/80/80
f 83/83/83 82/82/82 81/81/81
f 84/84/84 83/83/83 81/81/81
f 85/85/85 83/83/83 84/84/84
f 86/86/86 83/83/83 85/85/85
f 87/87/87 66/66/66 68/68/68
f 88/88/88 66/66/66 87/87/87
f 89/89/89 88/88/88 87/87/87
f 90/90/90 88/88/88 89/89/89
f 93/93/93 92/92/92 91/91/91
f 94/94/94 92/92/92 93/93/93
f 94/94/94 96/96/96 95/95/95
f 93/93/93 96/96/96 94/94/94
f 99/99/99 98/98/98 97/97/97
f 100/100/100 98/98/98 99/99/99
f 102/102/102 97/97/97 101/101/101
f 99/99/99 97/97/97 102/102/102
f 93/93/93 104/104/104 103/103/103
f 91/91/91 104/104/104 93/93/93
f 106/106/106 101/101/101 105/105/105
f 102/102/102 101/101/101 106/106/106
f 107/107/107 103/103/103 104/104/104
f 100/100/100 103/103/103 107/107/107
f 107/107/107 98/98/98 100/100/100
f 108/108/108 98/98/98 107/107/107
f 109/109/109 102/102/102 106/106/106
f 110/110/110 102/102/102 109/109/109
f 111/111/111 102/102/102 110/110/110
f 99/99/99 102/102/102 111/111/111
f 105/105/105 81/81/81 106/106/106
f 84/84/84 81/81/81 105/105/105
f 110/110/110 66/66/66 88/88/88
f 109/109/109 66/66/66 110/110/110
f 90/90/90 110/110/110 88/88/88
f 93/93/93 103/103/103 96/96/96
f 109/109/109 65/65/65 66/66/66
f 109/109/109 70/70/70 65/65/65
f 109/109/109 69/69/69 70/70/70
f 112/112/112 69/69/69 109/109/109
f 73/73/73 74/74/74 112/112/112
f 112/112/112 74/74/74 69/69/69
f 112/112/112 78/78/78 73/73/73
f 113/113/113 78/78/78 112/112/112
f 106/106/106 113/113/113 112/112/112
f 81/81/81 113/113/113 106/106/106
f 106/106/106 112/112/112 109/109/109
f 77/77/77 78/78/78 113/113/113
f 113/113/113 81/81/81 77/77/77
f 86/86/86 114/114/114 83/83/83
f 115/115/115 114/114/114 86/86/86
f 94/94/94 116/116/116 92/92/92
f 117/117/117 116/116/116 94/94/94
f 118/118/118 94/94/94 95/95/95
f 117/117/117 94/94/94 118/118/118
f 121/121/121 120/120/120 119/119/119
f 122/122/122 120/120/120 121/121/121
f 123/123/123 119/119/119 89/89/89
f 121/121/121 119/119/119 123/123/123
f 124/124/124 89/89/89 87/87/87
f 123/123/123 89/89/89 124/124/124
f 125/125/125 87/87/87 68/68/68
f 124/124/124 87/87/87 125/125/125
f 126/126/126 68/68/68 67/67/67
f 125/125/125 68/68/68 126/126/126
f 127/127/127 67/67/67 72/72/72
f 126/126/126 67/67/67 127/127/127
f 128/128/128 72/72/72 71/71/71
f 127/127/127 72/72/72 128/128/128
f 129/129/129 71/71/71 76/76/76
f 128/128/128 71/71/71 129/129/129
f 130/130/130 76/76/76 75/75/75
f 129/129/129 76/76/76 130/130/130
f 131/131/131 75/75/75 80/80/80
f 130/130/130 75/75/75 131/131/131
f 132/132/132 80/80/80 79/79/79
f 131/131/131 80/80/80 132/132/132
f 82/82/82 132/132/132 79/79/79
f 133/133/133 132/132/132 82/82/82
f 135/135/135 86/86/86 134/134/134
f 115/115/115 86/86/86 135/135/135
f 137/137/137 134/134/134 136/136/136
f 135/135/135 134/134/134 137/137/137
f 139/139/139 136/136/136 138/138/138
f 137/137/137 136/136/136 139/139/139
f 141/141/141 138/138/138 140/140/140
f 139/139/139 138/138/138 141/141/141
f 144/144/144 143/143/143 142/142/142
f 145/145/145 143/143/143 144/144/144
f 120/120/120 146/146/146 119/119/119
f 147/147/147 146/146/146 120/120/120
f 147/147/147 111/111/111 146/146/146
f 100/100/100 111/111/111 103/103/103
f 99/99/99 111/111/111 100/100/100
f 122/122/122 95/95/95 120/120/120
f 118/118/118 95/95/95 122/122/122
f 96/96/96 120/120/120 95/95/95
f 147/147/147 120/120/120 96/96/96
f 96/96/96 111/111/111 147/147/147
f 103/103/103 111/111/111 96/96/96
f 145/145/145 148/148/148 143/143/143
f 149/149/149 148/148/148 145/145/145
f 146/146/146 89/89/89 119/119/119
f 90/90/90 89/89/89 146/146/146
f 146/146/146 110/110/110 90/90/90
f 111/111/111 110/110/110 146/146/146
f 149/149/149 140/140/140 148/148/148
f 141/141/141 140/140/140 149/149/149
f 115/115/115 150/150/150 114/114/114
f 151/151/151 150/150/150 115/115/115
f 116/116/116 153/153/153 152/152/152
f 117/117/117 153/153/153 116/116/116
f 118/118/118 155/155/155 154/154/154
f 122/122/122 155/155/155 118/118/118
f 122/122/122 156/156/156 155/155/155
f 121/121/121 156/156/156 122/122/122
f 123/123/123 158/158/158 157/157/157
f 124/124/124 158/158/158 123/123/123
f 124/124/124 159/159/159 158/158/158
f 125/125/125 159/159/159 124/124/124
f 125/125/125 160/160/160 159/159/159
f 126/126/126 160/160/160 125/125/125
f 126/126/126 161/161/161 160/160/160
f 127/127/127 161/161/161 126/126/126
f 127/127/127 162/162/162 161/161/161
f 128/128/128 162/162/162 127/127/127
f 128/128/128 163/163/163 162/162/162
f 129/129/129 163/163/163 128/128/128
f 129/129/129 164/164/164 163/163/163
f 130/130/130 164/164/164 129/129/129
f 130/130/130 165/165/165 164/164/164
f 131/131/131 165/165/165 130/130/130
f 131/131/131 166/166/166 165/165/165
f 132/132/132 166/166/166 131/131/131
f 132/132/132 167/167/167 166/166/166
f 133/133/133 167/167/167 132/132/132
f 115/115/115 168/168/168 151/151/151
f 135/135/135 168/168/168 115/115/115
f 135/135/135 169/169/169 168/168/168
f 137/137/137 169/169/169 135/135/135
f 137/137/137 170/170/170 169/169/169
f 139/139/139 170/170/170 137/137/137
f 139/139/139 171/171/171 170/170/170
f 141/141/141 171/171/171 139/139/139
f 141/141/141 172/172/172 171/171/171
f 149/149/149 172/172/172 141/141/141
f 149/149/149 173/173/173 172/172/172
f 145/145/145 173/173/173 149/149/149
f 173/173/173 144/144/144 174/174/174
f 145/145/145 144/144/144 173/173/173
f 121/121/121 157/157/157 156/156/156
f 123/123/123 157/157/157 121/121/121
f 117/117/117 154/154/154 153/153/153
f 118/118/118 154/154/154 117/117/117
f 177/177/177 176/176/176 175/175/175
f 178/178/178 176/176/176 177/177/177
f 181/181/181 180/180/180 179/179/179
f 182/182/182 180/180/180 181/181/181
f 183/183/183 180/180/180 182/182/182
f 183/183/183 184/184/184 180/180/180
f 185/185/185 184/184/184 183/183/183
f 188/188/188 187/187/187 186/186/186
f 189/189/189 187/187/187 188/188/188
f 192/192/192 191/191/191 190/190/190
f 193/193/193 191/191/191 192/192/192
f 195/195/195 193/193/193 194/194/194
f 191/191/191 193/193/193 195/195/195
f 198/198/198 197/197/197 196/196/196
f 190/190/190 199/199/199 192/192/192
f 200/200/200 199/199/199 190/190/190
f 194/194/194 186/186/186 195/195/195
f 188/188/188 186/186/186 194/194/194
f 189/189/189 201/201/201 187/187/187
f 202/202/202 201/201/201 189/189/189
f 202/202/202 203/203/203 201/201/201
f 204/204/204 203/203/203 202/202/202
f 206/206/206 204/204/204 205/205/205
f 203/203/203 204/204/204 206/206/206
f 185/185/185 205/205/205 184/184/184
f 206/206/206 205/205/205 185/185/185
f 208/208/208 175/175/175 207/207/207
f 177/177/177 175/175/175 208/208/208
f 207/207/207 179/179/179 208/208/208
f 181/181/181 179/179/179 207/207/207
f 209/209/209 197/197/197 198/198/198
f 210/210/210 197/197/197 209/209/209
f 198/198/198 212/212/212 211/211/211
f 213/213/213 212/212/212 198/198/198
f 216/216/216 215/215/215 214/214/214
f 217/217/217 215/215/215 216/216/216
f 220/220/220 219/219/219 218/218/218
f 221/221/221 219/219/219 220/220/220
f 224/224/224 223/223/223 222/222/222
f 225/225/225 223/223/223 224/224/224
f 213/213/213 222/222/222 212/212/212
f 224/224/224 222/222/222 213/213/213
f 225/225/225 217/217/217 223/223/223
f 215/215/215 217/217/217 225/225/225
f 214/214/214 226/226/226 216/216/216
f 227/227/227 226/226/226 214/214/214
f 227/227/227 228/228/228 226/226/226
f 229/229/229 228/228/228 227/227/227
f 229/229/229 230/230/230 228/228/228
f 231/231/231 230/230/230 229/229/229
f 231/231/231 232/232/232 230/230/230
f 233/233/233 232/232/232 231/231/231
f 233/233/233 234/234/234 232/232/232
f 235/235/235 234/234/234 233/233/233
f 235/235/235 236/236/236 234/234/234
f 237/237/237 236/236/236 235/235/235
f 238/238/238 236/236/236 237/237/237
f 238/238/238 239/239/239 236/236/236
f 240/240/240 239/239/239 238/238/238
f 240/240/240 241/241/241 239/239/239
f 242/242/242 241/241/241 240/240/240
f 242/242/242 221/221/221 241/241/241
f 219/219/219 221/221/221 242/242/242
f 245/245/245 244/244/244 243/243/243
f 246/246/246 244/244/244 245/245/245
f 245/245/245 243/243/243 247/247/247
f 250/250/250 249/249/249 248/248/248
f 251/251/251 249/249/249 250/250/250
f 254/254/254 253/253/253 252/252/252
f 255/255/255 253/253/253 254/254/254
f 252/252/252 196/196/196 254/254/254
f 198/198/198 196/196/196 252/252/252
f 255/255/255 248/248/248 253/253/253
f 250/250/250 248/248/248 255/255/255
f 251/251/251 256/256/256 249/249/249
f 257/257/257 256/256/256 251/251/251
f 257/257/257 258/258/258 256/256/256
f 259/259/259 258/258/258 257/257/257
f 259/259/259 260/260/260 258/258/258
f 261/261/261 260/260/260 259/259/259
f 261/261/261 262/262/262 260/260/260
f 263/263/263 262/262/262 261/261/261
f 263/263/263 264/264/264 262/262/262
f 265/265/265 264/264/264 263/263/263
f 265/265/265 266/266/266 264/264/264
f 265/265/265 267/267/267 266/266/266
f 268/268/268 267/267/267 265/265/265
f 268/268/268 269/269/269 267/267/267
f 268/268/268 247/247/247 269/269/269
f 245/245/245 247/247/247 268/268/268
f 270/270/270 196/196/196 197/197/197
f 271/271/271 246/246/246 245/245/245
f 272/272/272 246/246/246 271/271/271
f 273/273/273 251/251/251 250/250/250
f 273/273/273 255/255/255 254/254/254
f 270/270/270 254/254/254 196/196/196
f 273/273/273 254/254/254 270/270/270
f 273/273/273 250/250/250 255/255/255
f 273/273/273 257/257/257 251/251/251
f 273/273/273 259/259/259 257/257/257
f 274/274/274 259/259/259 273/273/273
f 274/274/274 261/261/261 259/259/259
f 274/274/274 263/263/263 261/261/261
f 274/274/274 265/265/265 263/263/263
f 274/274/274 268/268/268 265/265/265
f 275/275/275 268/268/268 274/274/274
f 275/275/275 245/245/245 268/268/268
f 271/271/271 245/245/245 275/275/275
f 276/276/276 183/183/183 182/182/182
f 277/277/277 185/185/185 183/183/183
f 278/278/278 206/206/206 185/185/185
f 279/279/279 206/206/206 278/278/278
f 279/279/279 203/203/203 206/206/206
f 280/280/280 203/203/203 279/279/279
f 203/203/203 281/281/281 201/201/201
f 280/280/280 281/281/281 203/203/203
f 201/201/201 282/282/282 187/187/187
f 281/281/281 282/282/282 201/201/201
f 187/187/187 283/283/283 186/186/186
f 282/282/282 283/283/283 187/187/187
f 186/186/186 284/284/284 195/195/195
f 283/283/283 284/284/284 186/186/186
f 284/284/284 191/191/191 195/195/195
f 285/285/285 191/191/191 284/284/284
f 191/191/191 286/286/286 190/190/190
f 285/285/285 286/286/286 191/191/191
f 286/286/286 200/200/200 190/190/190
f 287/287/287 200/200/200 286/286/286
f 287/287/287 288/288/288 200/200/200
f 291/291/291 290/290/290 289/289/289
f 292/292/292 290/290/290 291/291/291
f 289/289/289 294/294/294 293/293/293
f 290/290/290 294/294/294 289/289/289
f 294/294/294 295/295/295 293/293/293
f 296/296/296 295/295/295 294/294/294
f 296/296/296 297/297/297 295/295/295
f 298/298/298 297/297/297 296/296/296
f 299/299/299 185/185/185 277/277/277
f 278/278/278 185/185/185 299/299/299
f 300/300/300 278/278/278 299/299/299
f 199/199/199 200/200/200 288/288/288
f 197/197/197 301/301/301 270/270/270
f 210/210/210 301/301/301 197/197/197
f 304/304/304 303/303/303 302/302/302
f 305/305/305 303/303/303 304/304/304
f 305/305/305 306/306/306 303/303/303
f 307/307/307 306/306/306 305/305/305
f 310/310/310 309/309/309 308/308/308
f 311/311/311 309/309/309 310/310/310
f 314/314/314 313/313/313 312/312/312
f 315/315/315 313/313/313 314/314/314
f 318/318/318 317/317/317 316/316/316
f 319/319/319 317/317/317 318/318/318
f 322/322/322 321/321/321 320/320/320
f 323/323/323 321/321/321 322/322/322
f 326/326/326 325/325/325 324/324/324
f 327/327/327 325/325/325 326/326/326
f 330/330/330 329/329/329 328/328/328
f 331/331/331 329/329/329 330/330/330
f 334/334/334 333/333/333 332/332/332
f 335/335/335 333/333/333 334/334/334
f 338/338/338 337/337/337 336/336/336
f 339/339/339 337/337/337 338/338/338
f 342/342/342 341/341/341 340/340/340
f 343/343/343 341/341/341 342/342/342
f 345/345/345 340/340/340 344/344/344
f 342/342/342 340/340/340 345/345/345
f 348/348/348 347/347/347 346/346/346
f 349/349/349 347/347/347 348/348/348
f 352/352/352 351/351/351 350/350/350
f 353/353/353 351/351/351 352/352/352
f 276/276/276 277/277/277 183/183/183
f 354/354/354 277/277/277 276/276/276
f 355/355/355 277/277/277 354/354/354
f 355/355/355 299/299/299 277/277/277
f 356/356/356 299/299/299 355/355/355
f 357/357/357 299/299/299 356/356/356
f 357/357/357 298/298/298 299/299/299
f 297/297/297 298/298/298 357/357/357
f 298/298/298 300/300/300 299/299/299
f 114/114/114 82/82/82 83/83/83
f 133/133/133 82/82/82 114/114/114
f 133/133/133 150/150/150 167/167/167
f 114/114/114 150/150/150 133/133/133
f 82/82/82 77/77/77 81/81/81
f 79/79/79 77/77/77 82/82/82
f 209/209/209 198/198/198 211/211/211
f 360/360/360 359/359/359 358/358/358
f 361/361/361 359/359/359 360/360/360
f 364/364/364 363/363/363 362/362/362
f 365/365/365 363/363/363 364/364/364
f 368/368/368 367/367/367 366/366/366
f 369/369/369 367/367/367 368/368/368
f 372/372/372 371/371/371 370/370/370
f 373/373/373 371/371/371 372/372/372
f 362/362/362 361/361/361 360/360/360
f 363/363/363 361/361/361 362/362/362
f 366/366/366 365/365/365 364/364/364
f 367/367/367 365/365/365 366/366/366
f 370/370/370 369/369/369 368/368/368
f 371/371/371 369/369/369 370/370/370
f 376/376/376 375/375/375 374/374/374
f 378/378/378 359/359/359 377/377/377
f 358/358/358 359/359/359 378/378/378
f 380/380/380 377/377/377 379/379/379
f 378/378/378 377/377/377 380/380/380
f 382/382/382 92/92/92 381/381/381
f 91/91/91 92/92/92 382/382/382
f 381/381/381 383/383/383 382/382/382
f 384/384/384 383/383/383 381/381/381
f 382/382/382 104/104/104 91/91/91
f 385/385/385 104/104/104 382/382/382
f 107/107/107 385/385/385 386/386/386
f 104/104/104 385/385/385 107/107/107
f 389/389/389 388/388/388 387/387/387
f 390/390/390 388/388/388 389/389/389
f 392/392/392 388/388/388 391/391/391
f 387/387/387 388/388/388 392/392/392
f 387/387/387 359/359/359 389/389/389
f 377/377/377 359/359/359 387/387/387
f 377/377/377 387/387/387 379/379/379
f 383/383/383 385/385/385 382/382/382
f 359/359/359 361/361/361 389/389/389
f 361/361/361 363/363/363 389/389/389
f 389/389/389 365/365/365 393/393/393
f 363/363/363 365/365/365 389/389/389
f 393/393/393 367/367/367 369/369/369
f 365/365/365 367/367/367 393/393/393
f 393/393/393 371/371/371 394/394/394
f 369/369/369 371/371/371 393/393/393
f 390/390/390 394/394/394 376/376/376
f 393/393/393 394/394/394 390/390/390
f 389/389/389 393/393/393 390/390/390
f 394/394/394 371/371/371 373/373/373
f 373/373/373 376/376/376 394/394/394
f 397/397/397 396/396/396 395/395/395
f 376/376/376 396/396/396 397/397/397
f 374/374/374 396/396/396 376/376/376
f 398/398/398 376/376/376 397/397/397
f 390/390/390 376/376/376 398/398/398
f 107/107/107 399/399/399 108/108/108
f 386/386/386 399/399/399 107/107/107
f 390/390/390 400/400/400 388/388/388
f 398/398/398 400/400/400 390/390/390
f 381/381/381 116/116/116 401/401/401
f 92/92/92 116/116/116 381/381/381
f 402/402/402 381/381/381 401/401/401
f 384/384/384 381/381/381 402/402/402
f 405/405/405 404/404/404 403/403/403
f 406/406/406 404/404/404 405/405/405
f 407/407/407 406/406/406 405/405/405
f 380/380/380 406/406/406 407/407/407
f 408/408/408 380/380/380 407/407/407
f 378/378/378 380/380/380 408/408/408
f 409/409/409 378/378/378 408/408/408
f 358/358/358 378/378/378 409/409/409
f 410/410/410 358/358/358 409/409/409
f 360/360/360 358/358/358 410/410/410
f 411/411/411 360/360/360 410/410/410
f 362/362/362 360/360/360 411/411/411
f 412/412/412 362/362/362 411/411/411
f 364/364/364 362/362/362 412/412/412
f 413/413/413 364/364/364 412/412/412
f 366/366/366 364/364/364 413/413/413
f 414/414/414 366/366/366 413/413/413
f 368/368/368 366/366/366 414/414/414
f 415/415/415 368/368/368 414/414/414
f 370/370/370 368/368/368 415/415/415
f 416/416/416 370/370/370 415/415/415
f 372/372/372 370/370/370 416/416/416
f 375/375/375 416/416/416 417/417/417
f 372/372/372 416/416/416 375/375/375
f 374/374/374 419/419/419 418/418/418
f 420/420/420 419/419/419 374/374/374
f 421/421/421 418/418/418 419/419/419
f 422/422/422 418/418/418 421/421/421
f 423/423/423 422/422/422 421/421/421
f 424/424/424 422/422/422 423/423/423
f 425/425/425 424/424/424 423/423/423
f 426/426/426 424/424/424 425/425/425
f 427/427/427 426/426/426 425/425/425
f 428/428/428 426/426/426 427/427/427
f 144/144/144 430/430/430 429/429/429
f 142/142/142 430/430/430 144/144/144
f 404/404/404 432/432/432 431/431/431
f 406/406/406 432/432/432 404/404/404
f 432/432/432 392/392/392 431/431/431
f 386/386/386 392/392/392 391/391/391
f 385/385/385 392/392/392 386/386/386
f 403/403/403 384/384/384 402/402/402
f 404/404/404 384/384/384 403/403/403
f 383/383/383 404/404/404 431/431/431
f 384/384/384 404/404/404 383/383/383
f 383/383/383 392/392/392 385/385/385
f 431/431/431 392/392/392 383/383/383
f 391/391/391 399/399/399 386/386/386
f 433/433/433 399/399/399 391/391/391
f 429/429/429 435/435/435 434/434/434
f 430/430/430 435/435/435 429/429/429
f 432/432/432 380/380/380 379/379/379
f 406/406/406 380/380/380 432/432/432
f 432/432/432 387/387/387 392/392/392
f 379/379/379 387/387/387 432/432/432
f 388/388/388 433/433/433 391/391/391
f 400/400/400 433/433/433 388/388/388
f 434/434/434 428/428/428 427/427/427
f 435/435/435 428/428/428 434/434/434
f 116/116/116 436/436/436 401/401/401
f 152/152/152 436/436/436 116/116/116
f 402/402/402 437/437/437 403/403/403
f 438/438/438 437/437/437 402/402/402
f 403/403/403 439/439/439 405/405/405
f 437/437/437 439/439/439 403/403/403
f 407/407/407 440/440/440 408/408/408
f 441/441/441 440/440/440 407/407/407
f 408/408/408 442/442/442 409/409/409
f 440/440/440 442/442/442 408/408/408
f 409/409/409 443/443/443 410/410/410
f 442/442/442 443/443/443 409/409/409
f 410/410/410 444/444/444 411/411/411
f 443/443/443 444/444/444 410/410/410
f 411/411/411 445/445/445 412/412/412
f 444/444/444 445/445/445 411/411/411
f 412/412/412 446/446/446 413/413/413
f 445/445/445 446/446/446 412/412/412
f 413/413/413 447/447/447 414/414/414
f 446/446/446 447/447/447 413/413/413
f 414/414/414 448/448/448 415/415/415
f 447/447/447 448/448/448 414/414/414
f 415/415/415 449/449/449 416/416/416
f 448/448/448 449/449/449 415/415/415
f 416/416/416 450/450/450 417/417/417
f 449/449/449 450/450/450 416/416/416
f 420/420/420 451/451/451 419/419/419
f 452/452/452 451/451/451 420/420/420
f 419/419/419 453/453/453 421/421/421
f 451/451/451 453/453/453 419/419/419
f 421/421/421 454/454/454 423/423/423
f 453/453/453 454/454/454 421/421/421
f 423/423/423 455/455/455 425/425/425
f 454/454/454 455/455/455 423/423/423
f 425/425/425 456/456/456 427/427/427
f 455/455/455 456/456/456 425/425/425
f 427/427/427 457/457/457 434/434/434
f 456/456/456 457/457/457 427/427/427
f 434/434/434 458/458/458 429/429/429
f 457/457/457 458/458/458 434/434/434
f 458/458/458 144/144/144 429/429/429
f 174/174/174 144/144/144 458/458/458
f 405/405/405 441/441/441 407/407/407
f 439/439/439 441/441/441 405/405/405
f 401/401/401 438/438/438 402/402/402
f 436/436/436 438/438/438 401/401/401
f 459/459/459 176/176/176 178/178/178
f 460/460/460 176/176/176 459/459/459
f 463/463/463 462/462/462 461/461/461
f 464/464/464 462/462/462 463/463/463
f 465/465/465 462/462/462 464/464/464
f 461/461/461 467/467/467 466/466/466
f 462/462/462 467/467/467 461/461/461
f 470/470/470 469/469/469 468/468/468
f 471/471/471 469/469/469 470/470/470
f 474/474/474 473/473/473 472/472/472
f 475/475/475 473/473/473 474/474/474
f 476/476/476 472/472/472 473/473/473
f 477/477/477 472/472/472 476/476/476
f 480/480/480 479/479/479 478/478/478
f 475/475/475 482/482/482 481/481/481
f 474/474/474 482/482/482 475/475/475
f 477/477/477 471/471/471 470/470/470
f 476/476/476 471/471/471 477/477/477
f 468/468/468 484/484/484 483/483/483
f 469/469/469 484/484/484 468/468/468
f 483/483/483 486/486/486 485/485/485
f 484/484/484 486/486/486 483/483/483
f 487/487/487 485/485/485 486/486/486
f 488/488/488 485/485/485 487/487/487
f 466/466/466 488/488/488 487/487/487
f 467/467/467 488/488/488 466/466/466
f 489/489/489 460/460/460 459/459/459
f 490/490/490 460/460/460 489/489/489
f 490/490/490 465/465/465 464/464/464
f 489/489/489 465/465/465 490/490/490
f 478/478/478 492/492/492 491/491/491
f 493/493/493 492/492/492 478/478/478
f 496/496/496 495/495/495 494/494/494
f 497/497/497 495/495/495 496/496/496
f 220/220/220 499/499/499 498/498/498
f 218/218/218 499/499/499 220/220/220
f 502/502/502 501/501/501 500/500/500
f 503/503/503 501/501/501 502/502/502
f 491/491/491 503/503/503 502/502/502
f 492/492/492 503/503/503 491/491/491
f 500/500/500 494/494/494 495/495/495
f 501/501/501 494/494/494 500/500/500
f 497/497/497 505/505/505 504/504/504
f 496/496/496 505/505/505 497/497/497
f 504/504/504 507/507/507 506/506/506
f 505/505/505 507/507/507 504/504/504
f 506/506/506 509/509/509 508/508/508
f 507/507/507 509/509/509 506/506/506
f 508/508/508 511/511/511 510/510/510
f 509/509/509 511/511/511 508/508/508
f 510/510/510 513/513/513 512/512/512
f 511/511/511 513/513/513 510/510/510
f 516/516/516 515/515/515 514/514/514
f 512/512/512 515/515/515 516/516/516
f 513/513/513 515/515/515 512/512/512
f 514/514/514 518/518/518 517/517/517
f 515/515/515 518/518/518 514/514/514
f 517/517/517 520/520/520 519/519/519
f 518/518/518 520/520/520 517/517/517
f 519/519/519 498/498/498 499/499/499
f 520/520/520 498/498/498 519/519/519
f 521/521/521 244/244/244 246/246/246
f 522/522/522 244/244/244 521/521/521
f 523/523/523 522/522/522 521/521/521
f 526/526/526 525/525/525 524/524/524
f 527/527/527 525/525/525 526/526/526
f 530/530/530 529/529/529 528/528/528
f 531/531/531 529/529/529 530/530/530
f 531/531/531 480/480/480 478/478/478
f 530/530/530 480/480/480 531/531/531
f 528/528/528 527/527/527 526/526/526
f 529/529/529 527/527/527 528/528/528
f 524/524/524 533/533/533 532/532/532
f 525/525/525 533/533/533 524/524/524
f 532/532/532 535/535/535 534/534/534
f 533/533/533 535/535/535 532/532/532
f 534/534/534 537/537/537 536/536/536
f 535/535/535 537/537/537 534/534/534
f 536/536/536 539/539/539 538/538/538
f 537/537/537 539/539/539 536/536/536
f 538/538/538 541/541/541 540/540/540
f 539/539/539 541/541/541 538/538/538
f 541/541/541 542/542/542 540/540/540
f 540/540/540 544/544/544 543/543/543
f 542/542/542 544/544/544 540/540/540
f 544/544/544 545/545/545 543/543/543
f 543/543/543 523/523/523 521/521/521
f 545/545/545 523/523/523 543/543/543
f 479/479/479 480/480/480 546/546/546
f 547/547/547 246/246/246 272/272/272
f 521/521/521 246/246/246 547/547/547
f 526/526/526 524/524/524 548/548/548
f 530/530/530 528/528/528 548/548/548
f 546/546/546 530/530/530 548/548/548
f 480/480/480 530/530/530 546/546/546
f 528/528/528 526/526/526 548/548/548
f 524/524/524 532/532/532 548/548/548
f 548/548/548 534/534/534 549/549/549
f 532/532/532 534/534/534 548/548/548
f 534/534/534 536/536/536 549/549/549
f 536/536/536 538/538/538 549/549/549
f 538/538/538 540/540/540 549/549/549
f 549/549/549 543/543/543 550/550/550
f 540/540/540 543/543/543 549/549/549
f 550/550/550 521/521/521 547/547/547
f 543/543/543 521/521/521 550/550/550
f 463/463/463 461/461/461 551/551/551
f 461/461/461 466/466/466 552/552/552
f 554/554/554 487/487/487 553/553/553
f 466/466/466 487/487/487 554/554/554
f 553/553/553 486/486/486 555/555/555
f 487/487/487 486/486/486 553/553/553
f 486/486/486 556/556/556 555/555/555
f 484/484/484 556/556/556 486/486/486
f 484/484/484 557/557/557 556/556/556
f 469/469/469 557/557/557 484/484/484
f 469/469/469 558/558/558 557/557/557
f 471/471/471 558/558/558 469/469/469
f 471/471/471 559/559/559 558/558/558
f 476/476/476 559/559/559 471/471/471
f 559/559/559 473/473/473 560/560/560
f 476/476/476 473/473/473 559/559/559
f 473/473/473 561/561/561 560/560/560
f 475/475/475 561/561/561 473/473/473
f 561/561/561 481/481/481 562/562/562
f 475/475/475 481/481/481 561/561/561
f 481/481/481 563/563/563 562/562/562
f 291/291/291 564/564/564 292/292/292
f 565/565/565 564/564/564 291/291/291
f 565/565/565 566/566/566 564/564/564
f 567/567/567 566/566/566 565/565/565
f 566/566/566 569/569/569 568/568/568
f 567/567/567 569/569/569 566/566/566
f 568/568/568 571/571/571 570/570/570
f 569/569/569 571/571/571 568/568/568
f 572/572/572 466/466/466 554/554/554
f 552/552/552 466/466/466 572/572/572
f 572/572/572 554/554/554 573/573/573
f 563/563/563 481/481/481 482/482/482
f 575/575/575 479/479/479 574/574/574
f 478/478/478 479/479/479 575/575/575
f 304/304/304 577/577/577 576/576/576
f 302/302/302 577/577/577 304/304/304
f 576/576/576 579/579/579 578/578/578
f 577/577/577 579/579/579 576/576/576
f 582/582/582 581/581/581 580/580/580
f 583/583/583 581/581/581 582/582/582
f 586/586/586 585/585/585 584/584/584
f 587/587/587 585/585/585 586/586/586
f 590/590/590 589/589/589 588/588/588
f 591/591/591 589/589/589 590/590/590
f 594/594/594 593/593/593 592/592/592
f 595/595/595 593/593/593 594/594/594
f 598/598/598 597/597/597 596/596/596
f 599/599/599 597/597/597 598/598/598
f 602/602/602 601/601/601 600/600/600
f 603/603/603 601/601/601 602/602/602
f 606/606/606 605/605/605 604/604/604
f 607/607/607 605/605/605 606/606/606
f 610/610/610 609/609/609 608/608/608
f 611/611/611 609/609/609 610/610/610
f 612/612/612 341/341/341 343/343/343
f 613/613/613 341/341/341 612/612/612
f 614/614/614 613/613/613 612/612/612
f 615/615/615 613/613/613 614/614/614
f 618/618/618 617/617/617 616/616/616
f 619/619/619 617/617/617 618/618/618
f 622/622/622 621/621/621 620/620/620
f 623/623/623 621/621/621 622/622/622
f 551/551/551 552/552/552 624/624/624
f 461/461/461 552/552/552 551/551/551
f 624/624/624 552/552/552 625/625/625
f 625/625/625 572/572/572 626/626/626
f 552/552/552 572/572/572 625/625/625
f 626/626/626 572/572/572 627/627/627
f 627/627/627 570/570/570 571/571/571
f 572/572/572 570/570/570 627/627/627
f 572/572/572 573/573/573 570/570/570
f 420/420/420 375/375/375 417/417/417
f 374/374/374 375/375/375 420/420/420
f 417/417/417 452/452/452 420/420/420
f 450/450/450 452/452/452 417/417/417
f 375/375/375 373/373/373 372/372/372
f 376/376/376 373/373/373 375/375/375
f 493/493/493 478/478/478 575/575/575
f 479/479/479 628/628/628 574/574/574
f 546/546/546 628/628/628 479/479/479
usemtl Light.009
f 631/631/631 630/630/630 629/629/629
f 632/632/632 630/630/630 631/631/631
f 633/633/633 632/632/632 631/631/631
f 634/634/634 632/632/632 633/633/633
f 635/635/635 634/634/634 633/633/633
f 636/636/636 634/634/634 635/635/635
f 637/637/637 636/636/636 635/635/635
f 638/638/638 636/636/636 637/637/637
f 639/639/639 638/638/638 637/637/637
f 640/640/640 638/638/638 639/639/639
f 641/641/641 640/640/640 639/639/639
f 642/642/642 640/640/640 641/641/641
f 643/643/643 641/641/641 639/639/639
f 645/645/645 630/630/630 644/644/644
f 629/629/629 630/630/630 645/645/645
f 647/647/647 644/644/644 646/646/646
f 645/645/645 644/644/644 647/647/647
f 649/649/649 646/646/646 648/648/648
f 647/647/647 646/646/646 649/649/649
f 651/651/651 648/648/648 650/650/650
f 649/649/649 648/648/648 651/651/651
f 653/653/653 650/650/650 652/652/652
f 651/651/651 650/650/650 653/653/653
f 655/655/655 652/652/652 654/654/654
f 653/653/653 652/652/652 655/655/655
f 653/653/653 655/655/655 656/656/656
