# Exported from Godot Engine
mtllib Spoler_Active.mtl
o Spoler_Active
v -2.351190 1.209618 -0.424617
vt 0.724869 0.309065
vn -0.343902 0.925766 -0.157125
v -2.358312 1.209919 -0.406605
vt 0.725639 0.312335
vn -0.338607 0.931189 -0.135027
v -2.357643 1.206717 -0.427537
vt 0.726151 0.308691
vn -0.541354 0.805122 -0.242312
v -2.365435 1.207143 -0.407904
vt 0.726988 0.312258
vn -0.532446 0.820602 -0.207639
v -2.333301 1.210252 -0.458923
vt 0.722629 0.302737
vn -0.357841 0.919479 -0.162813
v -2.342965 1.209622 -0.442144
vt 0.723890 0.305854
vn -0.354612 0.921272 -0.159715
v -2.338107 1.207234 -0.464945
vt 0.723710 0.301788
vn -0.527310 0.796230 -0.296584
v -2.348666 1.206651 -0.446653
vt 0.725085 0.305184
vn -0.536231 0.800822 -0.266721
v -2.307331 1.215169 -0.487354
vt 0.718725 0.297252
vn -0.374038 0.910797 -0.174769
v -2.321460 1.211999 -0.474233
vt 0.720923 0.299832
vn -0.363916 0.914693 -0.175788
v -2.309754 1.212425 -0.495907
vt 0.719472 0.295816
vn -0.482536 0.802512 -0.350905
v -2.325178 1.209039 -0.481632
vt 0.721858 0.298624
vn -0.507944 0.796297 -0.328489
v -2.274490 1.225105 -0.506583
vt 0.713232 0.293197
vn -0.391211 0.902850 -0.178373
v -2.291532 1.219540 -0.498190
vt 0.716142 0.295028
vn -0.378231 0.908906 -0.175590
v -2.273960 1.223239 -0.516857
vt 0.713488 0.291396
vn -0.425554 0.849801 -0.311032
v -2.292540 1.217189 -0.507727
vt 0.716661 0.293390
vn -0.459401 0.810543 -0.363279
v -2.213225 1.248216 -0.524757
vt 0.702291 0.288736
vn -0.394796 0.904175 -0.163108
v -2.242526 1.234711 -0.527716
vt 0.707921 0.288823
vn -0.415421 0.853789 -0.313800
v -2.210477 1.247359 -0.535418
vt 0.702095 0.286810
vn -0.414943 0.836418 -0.358089
v -2.169236 1.266424 -0.532429
vt 0.694181 0.286566
vn -0.399530 0.902061 -0.163286
v -2.166601 1.265861 -0.541436
vt 0.694114 0.285011
vn -0.402744 0.898390 -0.175195
v -2.166666 1.265559 -0.542822
vt 0.694169 0.284794
vn -0.204318 0.934107 -0.292741
v -2.379689 1.208298 -0.365173
vt 0.728372 0.319943
vn -0.528449 0.830265 -0.177204
v -2.372445 1.210929 -0.364271
vt 0.727020 0.319948
vn -0.334524 0.934339 -0.122898
v -2.397144 1.209984 -0.300749
vt 0.729873 0.331408
vn -0.530508 0.835078 -0.145621
v -2.389941 1.212478 -0.299743
vt 0.728535 0.331435
vn -0.313019 0.945319 -0.091603
v -2.421593 1.216442 0.000000
vt 0.728571 0.383688
vn -0.309216 0.950992 -0.000019
v -2.428261 1.214313 0.000000
vt 0.729791 0.383781
vn -0.527630 0.849474 0.000021
v -2.420952 1.216336 -0.043965
vt 0.729080 0.376066
vn -0.309443 0.950845 -0.011782
v -2.427611 1.214211 -0.044090
vt 0.730296 0.376139
vn -0.526215 0.850144 -0.018798
v -2.425864 1.213844 -0.090021
vt 0.730710 0.368194
vn -0.527733 0.848265 -0.044097
v -2.418683 1.216145 -0.089973
vt 0.729401 0.368087
vn -0.304504 0.951772 -0.037530
v -2.232658 1.279117 -0.233281
vt 0.697718 0.339927
vn -0.384712 0.920286 -0.071210
v -2.245736 1.281644 -0.088577
vt 0.697274 0.365383
vn -0.382430 0.923219 -0.037612
v -2.281396 1.258702 -0.234801
vt 0.706904 0.340584
vn -0.364640 0.928421 -0.071217
v -2.295783 1.260954 -0.089094
vt 0.706679 0.366161
vn -0.361929 0.931476 -0.036883
v -2.213093 1.275496 -0.352121
vt 0.697006 0.318814
vn -0.389536 0.914175 -0.112009
v -2.258271 1.255870 -0.355046
vt 0.705593 0.319236
vn -0.370699 0.922231 -0.109874
v -2.387645 1.226481 -0.089760
vt 0.723717 0.367623
vn -0.342854 0.938706 -0.035801
v -2.390531 1.226756 0.000000
vt 0.722855 0.383224
vn -0.342527 0.939508 0.000020
v -2.189199 1.270993 -0.456281
vt 0.695533 0.300183
vn -0.395546 0.906827 -0.145629
v -2.232669 1.252208 -0.454744
vt 0.703695 0.301364
vn -0.383535 0.912297 -0.143579
v -2.298492 1.261223 0.000000
vt 0.705751 0.381684
vn -0.361219 0.932481 -0.000020
v -2.248193 1.281972 0.000000
vt 0.696301 0.380836
vn -0.381638 0.924312 0.000020
v -2.326563 1.220628 -0.413645
vt 0.719983 0.310461
vn -0.361955 0.922446 -0.134472
v -2.343556 1.221640 -0.361795
vt 0.721632 0.319787
vn -0.355563 0.928322 -0.108598
v -2.371861 1.224301 -0.237388
vt 0.723715 0.341837
vn -0.347018 0.935219 -0.070316
v -2.304298 1.222623 -0.453976
vt 0.717082 0.302989
vn -0.375255 0.912409 -0.163382
v -2.279861 1.228065 -0.479131
vt 0.713323 0.298099
vn -0.381844 0.909523 -0.164203
v -2.209108 1.244733 -0.538354
vt 0.702153 0.286078
vn -0.277923 0.209268 -0.937532
v -2.164115 1.263298 -0.545948
vt 0.693971 0.284123
vn 0.486173 0.459576 -0.743254
v -2.430478 1.210988 0.000000
vt 0.730487 0.383827
vn -0.999098 0.042467 -0.000016
v -2.429743 1.210871 -0.044242
vt 0.730987 0.376157
vn -0.998776 0.040693 -0.028100
v -2.427887 1.210507 -0.090017
vt 0.731388 0.368231
vn -0.996991 0.039970 -0.066420
v -2.409822 1.211481 -0.238534
vt 0.730684 0.342346
vn -0.526730 0.843587 -0.104486
v -2.419727 1.212952 -0.163236
vt 0.730956 0.355481
vn -0.524631 0.848462 -0.069817
v -2.411795 1.208099 -0.238555
vt 0.731366 0.342355
vn -0.985909 0.041677 -0.162007
v -2.421729 1.209575 -0.163627
vt 0.731642 0.355440
vn -0.993224 0.042877 -0.108013
v -2.398868 1.206556 -0.301670
vt 0.730539 0.331239
vn -0.971605 0.041174 -0.232997
v -2.381540 1.204838 -0.365604
vt 0.729052 0.319845
vn -0.958190 0.038684 -0.283506
v -2.367217 1.203665 -0.408481
vt 0.727662 0.312118
vn -0.941936 0.034801 -0.333986
v -2.359051 1.203208 -0.429003
vt 0.726782 0.308371
vn -0.916246 0.038074 -0.398803
v -2.349910 1.203130 -0.448390
vt 0.725690 0.304797
vn -0.883669 0.042666 -0.466164
v -2.339083 1.203744 -0.466909
vt 0.724270 0.301339
vn -0.826335 0.044676 -0.561404
v -2.325838 1.205611 -0.483781
vt 0.722359 0.298117
vn -0.734521 0.053174 -0.676499
v -2.310036 1.209086 -0.498174
vt 0.719904 0.295259
vn -0.627398 0.069566 -0.775585
v -2.292483 1.213955 -0.510124
vt 0.717021 0.292789
vn -0.519983 0.094076 -0.848980
v -2.273230 1.220259 -0.519638
vt 0.713712 0.290711
vn -0.407105 0.144276 -0.901915
v -2.241486 1.231912 -0.530582
vt 0.708067 0.288116
vn -0.372330 0.155280 -0.915018
v -2.166601 1.265861 -0.541436
vt 0.694114 0.285011
vn 0.712684 0.685690 0.148021
v -2.163758 1.263522 -0.544281
vt 0.693782 0.284279
vn 0.901798 0.411007 0.133545
v -2.169236 1.266424 -0.532429
vt 0.694181 0.286566
vn 0.715467 0.682866 0.147651
v -2.167009 1.264206 -0.533135
vt 0.693647 0.286345
vn 0.893690 0.394866 0.213071
v -2.189199 1.270993 -0.456281
vt 0.695533 0.300183
vn 0.707189 0.693869 0.135753
v -2.186942 1.268781 -0.456788
vt 0.694995 0.300028
vn 0.876785 0.442086 0.189229
v -2.213093 1.275496 -0.352121
vt 0.697006 0.318814
vn 0.695776 0.710492 0.105341
v -2.210722 1.273271 -0.352816
vt 0.696456 0.318630
vn 0.874039 0.461608 0.151570
v -2.248193 1.281972 0.000000
vt 0.696301 0.380836
vn 0.678967 0.734169 0.000022
v -2.245736 1.281644 -0.088577
vt 0.697274 0.365383
vn 0.680743 0.731731 0.034058
v -2.245858 1.279798 0.000000
vt 0.695748 0.380788
vn 0.862486 0.506081 0.000063
v -2.243333 1.279451 -0.089168
vt 0.696719 0.365228
vn 0.858103 0.511184 0.048481
v -2.402489 1.213886 -0.238310
vt 0.729343 0.342248
vn -0.313027 0.946512 -0.078287
v -2.412501 1.215299 -0.162677
vt 0.729630 0.355453
vn -0.303141 0.951901 -0.044600
v -2.232658 1.279117 -0.233281
vt 0.697718 0.339927
vn 0.685701 0.725008 0.064633
v -2.230274 1.276909 -0.233794
vt 0.697164 0.339780
vn 0.872440 0.479629 0.093834
v -2.208428 1.241627 -0.537297
vt 0.702427 0.285564
vn 0.193277 -0.783823 -0.590139
v -2.163692 1.260084 -0.544852
vt 0.693785 0.283725
vn 0.770814 -0.242025 -0.589295
v -2.428529 1.208077 0.000000
vt 0.731097 0.383857
vn -0.301494 -0.953468 -0.000019
v -2.427866 1.207975 -0.044218
vt 0.731588 0.376181
vn -0.294898 -0.955520 -0.004039
v -2.426074 1.207617 -0.090048
vt 0.731982 0.368216
vn -0.308078 -0.951297 -0.011069
v -2.419961 1.206692 -0.163707
vt 0.732229 0.355383
vn -0.310088 -0.950548 -0.017455
v -2.410090 1.205222 -0.238532
vt 0.731942 0.342273
vn -0.345581 -0.937696 -0.036056
v -2.397204 1.203681 -0.301569
vt 0.731105 0.331119
vn -0.400976 -0.913277 -0.071715
v -2.379863 1.201962 -0.365551
vt 0.729606 0.319674
vn -0.406683 -0.908422 -0.096845
v -2.365630 1.200796 -0.408153
vt 0.728212 0.311955
vn -0.390593 -0.913218 -0.116064
v -2.357511 1.200342 -0.428557
vt 0.727321 0.308181
vn -0.349770 -0.925985 -0.142171
v -2.348423 1.200264 -0.447833
vt 0.726217 0.304576
vn -0.293199 -0.940322 -0.172713
v -2.337658 1.200875 -0.466246
vt 0.724771 0.301069
vn -0.256890 -0.937979 -0.232817
v -2.324488 1.202731 -0.483021
vt 0.722818 0.297788
vn -0.193677 -0.917695 -0.346878
v -2.308778 1.206186 -0.497332
vt 0.720321 0.294871
vn -0.099990 -0.905102 -0.413270
v -2.291325 1.211027 -0.509214
vt 0.717392 0.292355
vn 0.001569 -0.884515 -0.466509
v -2.272182 1.217295 -0.518673
vt 0.714033 0.290236
vn 0.234587 -0.932185 -0.275680
v -2.240620 1.228881 -0.529562
vt 0.708366 0.287622
vn 0.275656 -0.924008 -0.264995
v -2.163338 1.260307 -0.543195
vt 0.693369 0.284121
vn 0.895608 -0.379060 0.232810
v -2.165973 1.260870 -0.534188
vt 0.693045 0.286097
vn 0.505191 -0.841516 0.191398
v -2.185940 1.265450 -0.458053
vt 0.694392 0.299791
vn 0.468278 -0.869177 0.158894
v -2.209839 1.269966 -0.353909
vt 0.695864 0.318423
vn 0.450250 -0.885373 0.115713
v -2.229413 1.273607 -0.235094
vt 0.696580 0.339525
vn 0.441162 -0.893794 0.080680
v -2.242504 1.276155 -0.090418
vt 0.696142 0.364973
vn 0.439958 -0.896992 0.042932
v -2.244967 1.276493 0.000000
vt 0.695153 0.380744
vn 0.437871 -0.899038 -0.000020
v -2.413518 1.201881 -0.043514
vt 0.678172 0.375710
vn -0.591700 -0.806114 -0.008476
v -2.414001 1.202032 0.000000
vt 0.677662 0.383264
vn -0.584960 -0.811062 -0.000021
v -2.410559 1.199713 -0.043360
vt 0.677532 0.375685
vn -0.591494 -0.806266 -0.008346
v -2.410991 1.199896 0.000000
vt 0.677021 0.383215
vn -0.584960 -0.811062 -0.000021
v -2.403680 1.198368 -0.156598
vt 0.678146 0.355970
vn -0.600104 -0.798416 -0.049059
v -2.393437 1.196825 -0.233654
vt 0.677811 0.342478
vn -0.587293 -0.805841 -0.075546
v -2.406497 1.200548 -0.157774
vt 0.678781 0.355819
vn -0.599215 -0.798836 -0.052938
v -2.396996 1.199129 -0.229042
vt 0.678455 0.343328
vn -0.597015 -0.799704 -0.063619
v -2.396266 1.199021 -0.234472
vt 0.678461 0.342416
vn -0.586990 -0.805765 -0.078650
v -2.381154 1.195379 -0.296662
vt 0.676927 0.331262
vn -0.544409 -0.831409 -0.111255
v -2.383981 1.197347 -0.297380
vt 0.677537 0.331177
vn -0.536752 -0.836662 -0.109056
v -2.324658 1.200457 -0.463330
vt 0.670138 0.301430
vn -0.104968 -0.982093 -0.156446
v -2.336080 1.198639 -0.442563
vt 0.671789 0.305224
vn -0.187697 -0.970672 -0.150217
v -2.322912 1.200192 -0.462471
vt 0.669821 0.301556
vn -0.098181 -0.980707 -0.169037
v -2.334058 1.198096 -0.441660
vt 0.671414 0.305357
vn -0.181162 -0.969755 -0.163571
v -2.286847 1.210669 -0.499050
vt 0.663967 0.294573
vn 0.212757 -0.960194 -0.181002
v -2.302862 1.205601 -0.489426
vt 0.666706 0.296531
vn 0.101602 -0.976238 -0.191409
v -2.286108 1.210599 -0.497448
vt 0.663819 0.294844
vn 0.218683 -0.958099 -0.184999
v -2.301919 1.205466 -0.488426
vt 0.666531 0.296694
vn 0.111384 -0.973830 -0.198115
v -2.315494 1.201921 -0.473127
vt 0.668691 0.299583
vn 0.006972 -0.982025 -0.188624
v -2.316979 1.202083 -0.474032
vt 0.668961 0.299444
vn 0.002281 -0.983275 -0.182112
v -2.207210 1.244206 -0.513899
vt 0.649216 0.290636
vn 0.423664 -0.890166 0.167670
v -2.167649 1.258873 -0.541412
vt 0.642355 0.285170
vn 0.404291 -0.908764 0.103423
v -2.207715 1.242123 -0.533303
vt 0.649756 0.287275
vn 0.410466 -0.903919 0.120200
v -2.270623 1.215882 -0.504906
vt 0.661117 0.293274
vn 0.279402 -0.941547 -0.188210
v -2.271159 1.216103 -0.506755
vt 0.661223 0.292954
vn 0.281557 -0.940792 -0.188774
v -2.344878 1.197619 -0.423493
vt 0.672997 0.308680
vn -0.286895 -0.946628 -0.146923
v -2.342759 1.196816 -0.422329
vt 0.672590 0.308857
vn -0.280697 -0.946106 -0.161533
v -2.352677 1.197082 -0.404060
vt 0.674019 0.312178
vn -0.394374 -0.908108 -0.140744
v -2.350226 1.195987 -0.403317
vt 0.673544 0.312275
vn -0.390210 -0.907952 -0.152838
v -2.364306 1.195198 -0.360128
vt 0.675187 0.320000
vn -0.481729 -0.865444 -0.137640
v -2.366835 1.196771 -0.361411
vt 0.675718 0.319813
vn -0.482315 -0.866235 -0.130418
v -2.411928 1.201514 -0.089261
vt 0.678571 0.367778
vn -0.600984 -0.798786 -0.027551
v -2.409034 1.199307 -0.088961
vt 0.677937 0.367774
vn -0.600880 -0.798880 -0.027107
v -2.208428 1.241627 -0.537297
vt 0.649968 0.286595
vn 0.193277 -0.783823 -0.590139
v -2.163692 1.260084 -0.544852
vt 0.641698 0.284501
vn 0.770814 -0.242025 -0.589295
v -2.240620 1.228881 -0.529562
vt 0.655856 0.288468
vn 0.275656 -0.924008 -0.264995
v -2.272182 1.217295 -0.518673
vt 0.661520 0.290873
vn 0.234587 -0.932185 -0.275680
v -2.272641 1.216715 -0.511873
vt 0.661518 0.292066
vn 0.331893 -0.942958 -0.026023
v -2.330212 1.201301 -0.466064
vt 0.671147 0.301025
vn 0.056787 -0.997464 -0.042909
v -2.321702 1.202599 -0.476910
vt 0.669821 0.298999
vn 0.092184 -0.992922 -0.074890
v -2.337658 1.200875 -0.466246
vt 0.672444 0.301106
vn -0.256890 -0.937979 -0.232817
v -2.324488 1.202731 -0.483021
vt 0.670394 0.297973
vn -0.193677 -0.917695 -0.346878
v -2.423575 1.208827 0.000000
vt 0.680165 0.383459
vn 0.155067 -0.987904 0.000018
v -2.422927 1.208778 -0.044005
vt 0.680667 0.375822
vn 0.163181 -0.986560 0.008501
v -2.428529 1.208077 0.000000
vt 0.681034 0.383529
vn -0.301494 -0.953468 -0.000019
v -2.427866 1.207975 -0.044218
vt 0.681538 0.375861
vn -0.294898 -0.955520 -0.004039
v -2.291325 1.211027 -0.509214
vt 0.664874 0.292847
vn 0.001569 -0.884515 -0.466509
v -2.308778 1.206186 -0.497332
vt 0.667831 0.295219
vn -0.099990 -0.905102 -0.413270
v -2.289200 1.210891 -0.504148
vt 0.664438 0.293710
vn 0.230805 -0.966439 -0.112804
v -2.305862 1.206030 -0.492607
vt 0.667262 0.296006
vn 0.154080 -0.982182 -0.107598
v -2.348423 1.200264 -0.447833
vt 0.674040 0.304469
vn -0.293199 -0.940322 -0.172713
v -2.342512 1.200363 -0.445438
vt 0.672978 0.304799
vn 0.021989 -0.999702 -0.010601
v -2.357511 1.200342 -0.428557
vt 0.675334 0.307961
vn -0.349770 -0.925985 -0.142171
v -2.351619 1.200171 -0.427196
vt 0.674290 0.308112
vn -0.018981 -0.999820 -0.000825
v -2.365630 1.200796 -0.408153
vt 0.676450 0.311642
vn -0.390593 -0.913218 -0.116064
v -2.360472 1.200565 -0.406422
vt 0.675528 0.311866
vn -0.041220 -0.999096 0.010373
v -2.379863 1.201962 -0.365551
vt 0.678276 0.319283
vn -0.406683 -0.908422 -0.096845
v -2.374881 1.201779 -0.365501
vt 0.677410 0.319211
vn -0.038825 -0.999124 0.015643
v -2.397204 1.203681 -0.301569
vt 0.680215 0.330627
vn -0.400976 -0.913277 -0.071715
v -2.392837 1.203569 -0.300228
vt 0.679436 0.330797
vn 0.014299 -0.999418 0.030973
v -2.410090 1.205222 -0.238532
vt 0.681650 0.341946
vn -0.345581 -0.937696 -0.036056
v -2.402676 1.205500 -0.250259
vt 0.680453 0.339773
vn 0.059978 -0.997252 0.043484
v -2.405265 1.206005 -0.237077
vt 0.680817 0.342128
vn 0.113581 -0.992674 0.041199
v -2.419961 1.206692 -0.163707
vt 0.682098 0.355064
vn -0.310088 -0.950548 -0.017455
v -2.415458 1.207479 -0.161514
vt 0.681268 0.355377
vn 0.163661 -0.985990 0.032227
v -2.426074 1.207617 -0.090048
vt 0.681926 0.367913
vn -0.308078 -0.951297 -0.011069
v -2.421130 1.208535 -0.090217
vt 0.681056 0.367805
vn 0.171772 -0.984886 0.022216
v -2.410559 1.199713 -0.043360
vt 0.677532 0.375685
vn 0.420063 -0.907382 0.014311
v -2.410991 1.199896 0.000000
vt 0.677021 0.383215
vn 0.419865 -0.907587 -0.000020
v -2.377434 1.214086 -0.088752
vt 0.671879 0.367322
vn 0.417944 -0.907570 0.040500
v -2.379003 1.214963 0.000000
vt 0.670872 0.382727
vn 0.418059 -0.908420 -0.000020
v -2.409034 1.199307 -0.088961
vt 0.677937 0.367774
vn 0.410473 -0.910618 0.047813
v -2.301919 1.205466 -0.488426
vt 0.666531 0.296694
vn 0.430095 -0.882329 0.191084
v -2.315494 1.201921 -0.473127
vt 0.668691 0.299583
vn 0.439759 -0.882359 0.167498
v -2.286491 1.217026 -0.469642
vt 0.662968 0.299726
vn 0.421950 -0.890804 0.168604
v -2.294667 1.214773 -0.459935
vt 0.664270 0.301548
vn 0.426346 -0.892175 0.149177
v -2.270623 1.215882 -0.504906
vt 0.661117 0.293274
vn 0.416048 -0.893984 0.166424
v -2.286108 1.210599 -0.497448
vt 0.663819 0.294844
vn 0.410547 -0.885713 0.216713
v -2.262630 1.224291 -0.485097
vt 0.658927 0.296611
vn 0.416065 -0.890911 0.182118
v -2.276105 1.220424 -0.477134
vt 0.661203 0.298247
vn 0.408985 -0.890611 0.198856
v -2.322912 1.200192 -0.462471
vt 0.669821 0.301556
vn 0.443088 -0.883718 0.150717
v -2.301327 1.213100 -0.450248
vt 0.665292 0.303340
vn 0.419566 -0.897613 0.135113
v -2.334058 1.198096 -0.441660
vt 0.671414 0.305357
vn 0.443781 -0.884620 0.143196
v -2.310672 1.211011 -0.434315
vt 0.666673 0.306261
vn 0.421066 -0.897028 0.134327
v -2.342759 1.196816 -0.422329
vt 0.672590 0.308857
vn 0.443864 -0.885513 0.137302
v -2.318045 1.209867 -0.418062
vt 0.667677 0.309207
vn 0.429348 -0.893671 0.130430
v -2.350226 1.195987 -0.403317
vt 0.673544 0.312275
vn 0.442874 -0.887328 0.128497
v -2.325179 1.208961 -0.400454
vt 0.668608 0.312381
vn 0.430456 -0.894123 0.123496
v -2.364306 1.195198 -0.360128
vt 0.675187 0.320000
vn 0.442288 -0.888326 0.123525
v -2.340362 1.207908 -0.354140
vt 0.670400 0.320664
vn 0.425862 -0.898616 0.105500
v -2.381154 1.195379 -0.296662
vt 0.676927 0.331262
vn 0.426947 -0.898063 0.105825
v -2.393437 1.196825 -0.233654
vt 0.677811 0.342478
vn 0.427545 -0.898975 0.095123
v -2.362638 1.211579 -0.233281
vt 0.671879 0.342012
vn 0.421888 -0.903398 0.076693
v -2.403680 1.198368 -0.156598
vt 0.678146 0.355970
vn 0.408700 -0.911035 0.054587
v -2.165973 1.260870 -0.534188
vt 0.641831 0.286402
vn 0.505191 -0.841516 0.191398
v -2.242504 1.276155 -0.090418
vt 0.646149 0.364909
vn 0.439958 -0.896992 0.042932
v -2.244967 1.276493 0.000000
vt 0.645266 0.380651
vn 0.437871 -0.899038 -0.000020
v -2.185940 1.265450 -0.458053
vt 0.643431 0.300068
vn 0.468278 -0.869177 0.158894
v -2.209839 1.269966 -0.353909
vt 0.645294 0.318603
vn 0.450250 -0.885373 0.115713
v -2.229413 1.273607 -0.235094
vt 0.646392 0.339562
vn 0.441162 -0.893794 0.080680
v -2.397305 1.199827 -0.234773
vt 0.678686 0.342387
vn -0.594206 -0.799232 -0.090265
v -2.398216 1.201918 -0.246743
vt 0.679274 0.340328
vn -0.579702 -0.810004 -0.088534
v -2.392837 1.203569 -0.300228
vt 0.679436 0.330797
vn -0.532285 -0.839509 -0.109074
v -2.374881 1.201779 -0.365501
vt 0.677410 0.319211
vn -0.477483 -0.869142 -0.128849
v -2.360472 1.200565 -0.406422
vt 0.675528 0.311866
vn -0.398197 -0.907035 -0.136847
v -2.351619 1.200171 -0.427196
vt 0.674290 0.308112
vn -0.285764 -0.947591 -0.142861
v -2.342512 1.200363 -0.445438
vt 0.672978 0.304799
vn -0.192295 -0.970383 -0.146218
v -2.330212 1.201301 -0.466064
vt 0.671147 0.301025
vn -0.111965 -0.982057 -0.151751
v -2.321702 1.202599 -0.476910
vt 0.669821 0.298999
vn -0.004093 -0.983980 -0.178234
v -2.305862 1.206030 -0.492607
vt 0.667262 0.296006
vn 0.096379 -0.977087 -0.189770
v -2.289200 1.210891 -0.504148
vt 0.664438 0.293710
vn 0.214569 -0.960125 -0.179220
v -2.272641 1.216715 -0.511873
vt 0.661518 0.292066
vn 0.284701 -0.939535 -0.190312
v -2.207715 1.242123 -0.533303
vt 0.649756 0.287275
vn 0.299678 -0.933190 -0.198366
v -2.421820 1.207967 -0.043947
vt 0.680428 0.375813
vn -0.591316 -0.806333 -0.013153
v -2.422927 1.208778 -0.044005
vt 0.680667 0.375822
vn -0.591502 -0.806195 -0.013241
v -2.422449 1.208028 0.000000
vt 0.679924 0.383440
vn -0.584912 -0.811097 -0.000021
v -2.423575 1.208827 0.000000
vt 0.680165 0.383459
vn -0.584912 -0.811097 -0.000021
v -2.420048 1.207709 -0.090105
vt 0.680819 0.367804
vn -0.600873 -0.798809 -0.029239
v -2.421130 1.208535 -0.090217
vt 0.681056 0.367805
vn -0.601003 -0.798705 -0.029418
v -2.414404 1.206664 -0.161074
vt 0.681031 0.355434
vn -0.600301 -0.798282 -0.048832
v -2.415458 1.207479 -0.161514
vt 0.681268 0.355377
vn -0.599394 -0.798690 -0.053123
v -2.404230 1.205202 -0.236778
vt 0.680594 0.342163
vn -0.594980 -0.800955 -0.066850
v -2.405265 1.206005 -0.237077
vt 0.680817 0.342128
vn -0.594604 -0.801200 -0.067265
v -2.401744 1.205014 -0.251799
vt 0.680277 0.339490
vn -0.565000 -0.821000 -0.082055
v -2.402676 1.205500 -0.250259
vt 0.680453 0.339773
vn -0.559818 -0.824904 -0.078338
v -2.163338 1.260307 -0.543195
vt 0.641600 0.284780
vn 0.895608 -0.379060 0.232810
v -2.414001 1.202032 0.000000
vt 0.677662 0.383264
vn -0.340407 0.940278 0.000020
v -2.413518 1.201881 -0.043514
vt 0.678172 0.375710
vn -0.340414 0.940184 -0.013128
v -2.412746 1.202487 0.000000
vt 0.677894 0.383281
vn -0.340407 0.940278 0.000020
v -2.412263 1.202336 -0.043514
vt 0.678403 0.375719
vn -0.340416 0.940181 -0.013287
v -2.411928 1.201514 -0.089261
vt 0.678571 0.367778
vn -0.340318 0.940110 -0.019418
v -2.410673 1.201969 -0.089261
vt 0.678804 0.367772
vn -0.340318 0.940110 -0.019418
v -2.411928 1.201514 -0.089261
vt 0.678571 0.367778
vn -0.340121 0.939521 -0.040219
v -2.406497 1.200548 -0.157774
vt 0.678781 0.355819
vn -0.340121 0.939521 -0.040219
v -2.410673 1.201969 -0.089261
vt 0.678804 0.367772
vn -0.340121 0.939521 -0.040219
v -2.405242 1.201002 -0.157774
vt 0.679012 0.355794
vn -0.340121 0.939521 -0.040219
v -2.406497 1.200548 -0.157774
vt 0.678781 0.355819
vn -0.339607 0.938385 -0.064035
v -2.396996 1.199129 -0.229042
vt 0.678455 0.343328
vn -0.339607 0.938385 -0.064035
v -2.405242 1.201002 -0.157774
vt 0.679012 0.355794
vn -0.339607 0.938385 -0.064035
v -2.395741 1.199584 -0.229042
vt 0.678679 0.343285
vn -0.339607 0.938385 -0.064035
v -2.396996 1.199129 -0.229042
vt 0.678455 0.343328
vn -0.337424 0.932090 0.131732
v -2.397305 1.199827 -0.234773
vt 0.678686 0.342387
vn -0.337424 0.932090 0.131732
v -2.395741 1.199584 -0.229042
vt 0.678679 0.343285
vn -0.337424 0.932090 0.131732
v -2.396050 1.200282 -0.234773
vt 0.678899 0.342465
vn -0.337424 0.932090 0.131732
v -2.397305 1.199827 -0.234773
vt 0.678686 0.342387
vn -0.328145 0.906297 0.266359
v -2.398637 1.201805 -0.243144
vt 0.679218 0.340965
vn -0.328145 0.906297 0.266359
v -2.396050 1.200282 -0.234773
vt 0.678899 0.342465
vn -0.328145 0.906297 0.266359
v -2.397382 1.202259 -0.243144
vt 0.679386 0.341078
vn -0.328145 0.906297 0.266359
v -2.398637 1.201805 -0.243144
vt 0.679218 0.340965
vn -0.312933 0.864191 0.394013
v -2.399951 1.203288 -0.247439
vt 0.679661 0.340289
vn -0.312933 0.864191 0.394013
v -2.397382 1.202259 -0.243144
vt 0.679386 0.341078
vn -0.312933 0.864191 0.394013
v -2.398696 1.203742 -0.247439
vt 0.679753 0.340462
vn -0.312933 0.864191 0.394013
v -2.399951 1.203288 -0.247439
vt 0.679661 0.340289
vn -0.259864 0.717605 0.646154
v -2.400845 1.204100 -0.248700
vt 0.679980 0.340090
vn -0.259864 0.717605 0.646154
v -2.398696 1.203742 -0.247439
vt 0.679753 0.340462
vn -0.259864 0.717605 0.646154
v -2.399590 1.204554 -0.248700
vt 0.679918 0.340374
vn -0.259864 0.717605 0.646154
v -2.400845 1.204100 -0.248700
vt 0.679980 0.340090
vn 0.192593 -0.532249 0.824390
v -2.402141 1.204919 -0.247869
vt 0.680323 0.340181
vn 0.192593 -0.532249 0.824390
v -2.399590 1.204554 -0.248700
vt 0.679918 0.340374
vn 0.192593 -0.532249 0.824390
v -2.400886 1.205373 -0.247869
vt 0.680144 0.340157
vn 0.192593 -0.532249 0.824390
v -2.402141 1.204919 -0.247869
vt 0.680323 0.340181
vn 0.339072 -0.936656 0.087780
v -2.404230 1.205202 -0.236778
vt 0.680594 0.342163
vn 0.339072 -0.936656 0.087780
v -2.400886 1.205373 -0.247869
vt 0.680144 0.340157
vn 0.339072 -0.936656 0.087780
v -2.402976 1.205656 -0.236778
vt 0.680371 0.342145
vn 0.339072 -0.936656 0.087780
v -2.421820 1.207967 -0.043947
vt 0.680428 0.375813
vn 0.340303 -0.940238 0.012091
v -2.422449 1.208028 0.000000
vt 0.679924 0.383440
vn 0.340360 -0.940295 0.000020
v -2.420565 1.208421 -0.043947
vt 0.680196 0.375796
vn 0.340283 -0.940242 0.012330
v -2.421194 1.208482 0.000000
vt 0.679693 0.383423
vn 0.340360 -0.940295 0.000020
v -2.420048 1.207709 -0.090105
vt 0.680819 0.367804
vn 0.340281 -0.940146 0.018291
v -2.418792 1.208164 -0.090105
vt 0.680587 0.367785
vn 0.340281 -0.940146 0.018291
v -2.414404 1.206664 -0.161074
vt 0.681031 0.355434
vn 0.340063 -0.939512 0.040924
v -2.420048 1.207709 -0.090105
vt 0.680819 0.367804
vn 0.340063 -0.939512 0.040924
v -2.413149 1.207118 -0.161074
vt 0.680799 0.355416
vn 0.340063 -0.939512 0.040924
v -2.418792 1.208164 -0.090105
vt 0.680587 0.367785
vn 0.340063 -0.939512 0.040924
v -2.404230 1.205202 -0.236778
vt 0.680594 0.342163
vn 0.339658 -0.938384 0.063779
v -2.414404 1.206664 -0.161074
vt 0.681031 0.355434
vn 0.339658 -0.938384 0.063779
v -2.402976 1.205656 -0.236778
vt 0.680371 0.342145
vn 0.339658 -0.938384 0.063779
v -2.413149 1.207118 -0.161074
vt 0.680799 0.355416
vn 0.339658 -0.938384 0.063779
v -2.398637 1.201805 -0.243144
vt 0.679218 0.340965
vn -0.593190 -0.799483 -0.094614
v -2.399951 1.203288 -0.247439
vt 0.679661 0.340289
vn -0.606308 -0.792244 -0.068853
v -2.400845 1.204100 -0.248700
vt 0.679980 0.340090
vn -0.598772 -0.798183 -0.066151
v -2.402141 1.204919 -0.247869
vt 0.680323 0.340181
vn -0.576479 -0.812693 -0.084864
v -2.241486 1.231912 -0.530582
vt 0.708067 0.288116
vn -0.300603 0.193154 -0.933986
v -2.365435 1.207142 0.407905
vt 0.726988 0.312258
vn -0.532458 0.820607 0.207587
v -2.358312 1.209919 0.406606
vt 0.725639 0.312335
vn -0.338621 0.931191 0.134981
v -2.357643 1.206717 0.427538
vt 0.726151 0.308691
vn -0.541463 0.805079 0.242210
v -2.351190 1.209618 0.424617
vt 0.724869 0.309065
vn -0.343736 0.925781 0.157400
v -2.348666 1.206651 0.446654
vt 0.725085 0.305184
vn -0.536315 0.800765 0.266726
v -2.342965 1.209622 0.442145
vt 0.723890 0.305854
vn -0.354691 0.921240 0.159721
v -2.338107 1.207234 0.464946
vt 0.723710 0.301788
vn -0.527281 0.796250 0.296582
v -2.333301 1.210252 0.458924
vt 0.722629 0.302737
vn -0.357815 0.919490 0.162811
v -2.325178 1.209039 0.481632
vt 0.721858 0.298624
vn -0.507927 0.796284 0.328544
v -2.321460 1.211999 0.474234
vt 0.720923 0.299832
vn -0.363942 0.914682 0.175790
v -2.309754 1.212425 0.495907
vt 0.719472 0.295816
vn -0.482564 0.802493 0.350908
v -2.307331 1.215168 0.487354
vt 0.718725 0.297252
vn -0.374119 0.910763 0.174776
v -2.292540 1.217189 0.507728
vt 0.716661 0.293390
vn -0.459419 0.810557 0.363224
v -2.291532 1.219540 0.498190
vt 0.716142 0.295028
vn -0.378216 0.908902 0.175638
v -2.273960 1.223239 0.516857
vt 0.713488 0.291396
vn -0.425526 0.849817 0.311029
v -2.274490 1.225105 0.506583
vt 0.713232 0.293197
vn -0.391130 0.902886 0.178366
v -2.210477 1.247359 0.535418
vt 0.702095 0.286810
vn -0.414923 0.836404 0.358143
v -2.242526 1.234711 0.527716
vt 0.707921 0.288823
vn -0.415449 0.853774 0.313803
v -2.213225 1.248216 0.524758
vt 0.702291 0.288736
vn -0.394822 0.904163 0.163109
v -2.166666 1.265559 0.542823
vt 0.694169 0.284794
vn -0.204338 0.934118 0.292694
v -2.166601 1.265861 0.541436
vt 0.694114 0.285011
vn -0.402717 0.898402 0.175193
v -2.169236 1.266424 0.532429
vt 0.694181 0.286566
vn -0.399531 0.902078 0.163187
v -2.372445 1.210929 0.364272
vt 0.727020 0.319948
vn -0.334498 0.934349 0.122896
v -2.379689 1.208298 0.365173
vt 0.728372 0.319943
vn -0.528400 0.830275 0.177305
v -2.389941 1.212478 0.299743
vt 0.728535 0.331435
vn -0.313044 0.945311 0.091604
v -2.397144 1.209984 0.300750
vt 0.729873 0.331408
vn -0.530518 0.835081 0.145571
v -2.427611 1.214211 0.044090
vt 0.730296 0.376139
vn -0.526195 0.850145 0.019273
v -2.420952 1.216336 0.043965
vt 0.729080 0.376066
vn -0.309431 0.950848 0.011821
v -2.418683 1.216145 0.089973
vt 0.729401 0.368087
vn -0.304516 0.951769 0.037490
v -2.425864 1.213844 0.090022
vt 0.730710 0.368194
vn -0.527708 0.848281 0.044097
v -2.245736 1.281644 0.088577
vt 0.697274 0.365383
vn -0.382441 0.923216 0.037570
v -2.232658 1.279117 0.233281
vt 0.697718 0.339927
vn -0.384738 0.920275 0.071210
v -2.295783 1.260954 0.089095
vt 0.706679 0.366161
vn -0.361918 0.931478 0.036925
v -2.281396 1.258702 0.234801
vt 0.706904 0.340584
vn -0.364652 0.928420 0.071174
v -2.213093 1.275496 0.352122
vt 0.697006 0.318814
vn -0.389537 0.914163 0.112102
v -2.258271 1.255870 0.355046
vt 0.705593 0.319236
vn -0.370686 0.922231 0.109919
v -2.387645 1.226481 0.089761
vt 0.723717 0.367623
vn -0.342829 0.938715 0.035801
v -2.189199 1.270993 0.456281
vt 0.695533 0.300183
vn -0.395533 0.906856 0.145483
v -2.232669 1.252208 0.454744
vt 0.703695 0.301364
vn -0.383522 0.912295 0.143626
v -2.343556 1.221640 0.361795
vt 0.721632 0.319787
vn -0.355537 0.928332 0.108597
v -2.326563 1.220628 0.413645
vt 0.719983 0.310461
vn -0.361941 0.922444 0.134518
v -2.371861 1.224301 0.237388
vt 0.723715 0.341837
vn -0.347043 0.935210 0.070317
v -2.304298 1.222622 0.453976
vt 0.717082 0.302989
vn -0.375241 0.912406 0.163430
v -2.279861 1.228065 0.479131
vt 0.713323 0.298099
vn -0.381830 0.909520 0.164251
v -2.209108 1.244733 0.538354
vt 0.702153 0.286078
vn -0.277953 0.209296 0.937517
v -2.164115 1.263298 0.545948
vt 0.693971 0.284123
vn 0.486191 0.459491 0.743294
v -2.429743 1.210871 0.044242
vt 0.730987 0.376157
vn -0.998777 0.040676 0.028100
v -2.427887 1.210507 0.090018
vt 0.731388 0.368231
vn -0.996995 0.039883 0.066415
v -2.421729 1.209575 0.163628
vt 0.731642 0.355440
vn -0.993229 0.042786 0.108004
v -2.419727 1.212952 0.163237
vt 0.730956 0.355481
vn -0.524605 0.848478 0.069817
v -2.411795 1.208099 0.238555
vt 0.731366 0.342355
vn -0.985915 0.041695 0.161969
v -2.409822 1.211481 0.238535
vt 0.730684 0.342346
vn -0.526721 0.843586 0.104534
v -2.398868 1.206556 0.301670
vt 0.730539 0.331239
vn -0.971603 0.041194 0.233002
v -2.381540 1.204838 0.365605
vt 0.729052 0.319845
vn -0.958192 0.038664 0.283501
v -2.367217 1.203665 0.408481
vt 0.727662 0.312118
vn -0.941927 0.034862 0.334004
v -2.359051 1.203208 0.429003
vt 0.726782 0.308371
vn -0.916242 0.038095 0.398810
v -2.349910 1.203130 0.448391
vt 0.725690 0.304797
vn -0.883664 0.042688 0.466172
v -2.339083 1.203744 0.466910
vt 0.724270 0.301339
vn -0.826328 0.044699 0.561413
v -2.325838 1.205611 0.483781
vt 0.722359 0.298117
vn -0.734508 0.053290 0.676504
v -2.310036 1.209086 0.498175
vt 0.719904 0.295259
vn -0.627432 0.069590 0.775555
v -2.292483 1.213954 0.510125
vt 0.717021 0.292789
vn -0.520001 0.094052 0.848972
v -2.273230 1.220259 0.519638
vt 0.713712 0.290711
vn -0.407138 0.144302 0.901895
v -2.241486 1.231912 0.530582
vt 0.708067 0.288116
vn -0.372309 0.155303 0.915023
v -2.163758 1.263522 0.544282
vt 0.693782 0.284279
vn 0.901812 0.411006 -0.133449
v -2.166601 1.265861 0.541436
vt 0.694114 0.285011
vn 0.712736 0.685648 -0.147969
v -2.167009 1.264206 0.533135
vt 0.693647 0.286345
vn 0.893738 0.394814 -0.212964
v -2.169236 1.266424 0.532429
vt 0.694181 0.286566
vn 0.715482 0.682883 -0.147498
v -2.186942 1.268780 0.456789
vt 0.694995 0.300028
vn 0.876789 0.442100 -0.189179
v -2.189199 1.270993 0.456281
vt 0.695533 0.300183
vn 0.707092 0.694008 -0.135552
v -2.210722 1.273271 0.352816
vt 0.696456 0.318630
vn 0.874075 0.461590 -0.151420
v -2.213093 1.275496 0.352122
vt 0.697006 0.318814
vn 0.695799 0.710469 -0.105341
v -2.243333 1.279451 0.089169
vt 0.696719 0.365228
vn 0.858097 0.511207 -0.048348
v -2.245736 1.281644 0.088577
vt 0.697274 0.365383
vn 0.680790 0.731688 -0.034013
v -2.412501 1.215299 0.162677
vt 0.729630 0.355453
vn -0.303117 0.951909 0.044600
v -2.402489 1.213886 0.238310
vt 0.729343 0.342248
vn -0.313014 0.946513 0.078330
v -2.230274 1.276909 0.233795
vt 0.697164 0.339780
vn 0.872468 0.479586 -0.093786
v -2.232658 1.279117 0.233281
vt 0.697718 0.339927
vn 0.685704 0.725009 -0.064586
v -2.208428 1.241627 0.537298
vt 0.702427 0.285564
vn 0.193302 -0.783851 0.590095
v -2.163692 1.260084 0.544852
vt 0.693785 0.283725
vn 0.770771 -0.242108 0.589318
v -2.427866 1.207975 0.044218
vt 0.731588 0.376181
vn -0.294900 -0.955520 0.003962
v -2.419961 1.206692 0.163708
vt 0.732229 0.355383
vn -0.310125 -0.950538 0.017336
v -2.426074 1.207617 0.090049
vt 0.731982 0.368216
vn -0.308114 -0.951286 0.010952
v -2.410090 1.205222 0.238532
vt 0.731942 0.342273
vn -0.345616 -0.937688 0.035933
v -2.379863 1.201962 0.365551
vt 0.729606 0.319674
vn -0.406732 -0.908409 0.096755
v -2.397204 1.203681 0.301569
vt 0.731105 0.331119
vn -0.400922 -0.913308 0.071624
v -2.365630 1.200796 0.408153
vt 0.728212 0.311955
vn -0.390631 -0.913219 0.115926
v -2.357511 1.200342 0.428558
vt 0.727321 0.308181
vn -0.349813 -0.925990 0.142032
v -2.348423 1.200264 0.447834
vt 0.726217 0.304576
vn -0.293215 -0.940325 0.172667
v -2.337658 1.200874 0.466247
vt 0.724771 0.301069
vn -0.256907 -0.937985 0.232770
v -2.324488 1.202731 0.483022
vt 0.722818 0.297788
vn -0.193738 -0.917737 0.346735
v -2.308778 1.206186 0.497333
vt 0.720321 0.294871
vn -0.100102 -0.905121 0.413201
v -2.291325 1.211027 0.509214
vt 0.717392 0.292355
vn 0.001589 -0.884537 0.466468
v -2.272182 1.217295 0.518673
vt 0.714033 0.290236
vn 0.234466 -0.932207 0.275711
v -2.240620 1.228881 0.529562
vt 0.708366 0.287622
vn 0.275682 -0.923999 0.264999
v -2.163338 1.260307 0.543195
vt 0.693369 0.284121
vn 0.895620 -0.379033 -0.232807
v -2.165973 1.260870 0.534189
vt 0.693045 0.286097
vn 0.505164 -0.841533 -0.191396
v -2.185940 1.265449 0.458053
vt 0.694392 0.299791
vn 0.468197 -0.869221 -0.158889
v -2.209839 1.269966 0.353909
vt 0.695864 0.318423
vn 0.450261 -0.885374 -0.115665
v -2.229413 1.273607 0.235094
vt 0.696580 0.339525
vn 0.441157 -0.893804 -0.080589
v -2.242504 1.276155 0.090418
vt 0.696142 0.364973
vn 0.439986 -0.896984 -0.042803
v -2.410559 1.199713 0.043361
vt 0.677532 0.375685
vn -0.591526 -0.806244 0.008260
v -2.413518 1.201881 0.043515
vt 0.678172 0.375710
vn -0.591711 -0.806107 0.008347
v -2.396266 1.199021 0.234473
vt 0.678461 0.342416
vn -0.586977 -0.805783 0.078556
v -2.393437 1.196825 0.233654
vt 0.677811 0.342478
vn -0.587330 -0.805823 0.075453
v -2.396996 1.199129 0.229042
vt 0.678455 0.343328
vn -0.597070 -0.799666 0.063573
v -2.406497 1.200548 0.157774
vt 0.678781 0.355819
vn -0.599220 -0.798835 0.052893
v -2.403680 1.198368 0.156598
vt 0.678146 0.355970
vn -0.600119 -0.798414 0.048922
v -2.383981 1.197347 0.297380
vt 0.677537 0.331177
vn -0.536691 -0.836715 0.108958
v -2.381154 1.195379 0.296662
vt 0.676927 0.331262
vn -0.544400 -0.831428 0.111158
v -2.334058 1.198096 0.441660
vt 0.671414 0.305357
vn -0.181213 -0.969767 0.163443
v -2.336080 1.198638 0.442564
vt 0.671789 0.305224
vn -0.187714 -0.970676 0.150175
v -2.322912 1.200192 0.462471
vt 0.669821 0.301556
vn -0.098205 -0.980697 0.169083
v -2.324658 1.200457 0.463331
vt 0.670138 0.301430
vn -0.105024 -0.982099 0.156369
v -2.301919 1.205465 0.488426
vt 0.666531 0.296694
vn 0.111270 -0.973864 0.198007
v -2.302862 1.205601 0.489426
vt 0.666706 0.296531
vn 0.101581 -0.976240 0.191406
v -2.286108 1.210599 0.497448
vt 0.663819 0.294844
vn 0.218659 -0.958105 0.184997
v -2.286847 1.210669 0.499051
vt 0.663967 0.294573
vn 0.212685 -0.960212 0.180994
v -2.316979 1.202083 0.474032
vt 0.668961 0.299444
vn 0.002298 -0.983282 0.182075
v -2.315494 1.201921 0.473128
vt 0.668691 0.299583
vn 0.006990 -0.982032 0.188586
v -2.207715 1.242123 0.533304
vt 0.649756 0.287275
vn 0.410493 -0.903907 -0.120201
v -2.167649 1.258873 0.541412
vt 0.642355 0.285170
vn 0.404303 -0.908764 -0.103378
v -2.207210 1.244205 0.513899
vt 0.649216 0.290636
vn 0.423650 -0.890163 -0.167719
v -2.271159 1.216102 0.506756
vt 0.661223 0.292954
vn 0.281565 -0.940809 0.188679
v -2.270623 1.215881 0.504906
vt 0.661117 0.293274
vn 0.279377 -0.941555 0.188208
v -2.342759 1.196816 0.422330
vt 0.672590 0.308857
vn -0.280804 -0.946089 0.161449
v -2.344878 1.197618 0.423494
vt 0.672997 0.308680
vn -0.286911 -0.946630 0.146878
v -2.350226 1.195987 0.403317
vt 0.673544 0.312275
vn -0.390224 -0.907954 0.152791
v -2.352677 1.197082 0.404060
vt 0.674019 0.312178
vn -0.394427 -0.908100 0.140651
v -2.366835 1.196771 0.361411
vt 0.675718 0.319813
vn -0.482326 -0.866237 0.130370
v -2.364306 1.195198 0.360128
vt 0.675187 0.320000
vn -0.481739 -0.865445 0.137591
v -2.409034 1.199307 0.088961
vt 0.677937 0.367774
vn -0.600924 -0.798845 0.027151
v -2.411928 1.201514 0.089262
vt 0.678571 0.367778
vn -0.601009 -0.798768 0.027551
v -2.208428 1.241627 0.537298
vt 0.649968 0.286595
vn 0.193302 -0.783851 0.590095
v -2.163692 1.260084 0.544852
vt 0.641698 0.284501
vn 0.770771 -0.242108 0.589318
v -2.272641 1.216715 0.511874
vt 0.661518 0.292066
vn 0.331905 -0.942955 0.025983
v -2.272182 1.217295 0.518673
vt 0.661520 0.290873
vn 0.234466 -0.932207 0.275711
v -2.240620 1.228881 0.529562
vt 0.655856 0.288468
vn 0.275682 -0.923999 0.264999
v -2.324488 1.202731 0.483022
vt 0.670394 0.297973
vn -0.193738 -0.917737 0.346735
v -2.321702 1.202599 0.476910
vt 0.669821 0.298999
vn 0.092088 -0.992931 0.074884
v -2.337658 1.200874 0.466247
vt 0.672444 0.301106
vn -0.256907 -0.937985 0.232770
v -2.330212 1.201301 0.466065
vt 0.671147 0.301025
vn 0.056770 -0.997465 0.042908
v -2.427866 1.207975 0.044218
vt 0.681538 0.375861
vn -0.294900 -0.955520 0.003962
v -2.422927 1.208778 0.044005
vt 0.680667 0.375822
vn 0.163161 -0.986563 -0.008501
v -2.305862 1.206030 0.492607
vt 0.667262 0.296006
vn 0.154059 -0.982186 0.107596
v -2.308778 1.206186 0.497333
vt 0.667831 0.295219
vn -0.100102 -0.905121 0.413201
v -2.289200 1.210891 0.504148
vt 0.664438 0.293710
vn 0.230875 -0.966422 0.112809
v -2.291325 1.211027 0.509214
vt 0.664874 0.292847
vn 0.001589 -0.884537 0.466468
v -2.342512 1.200363 0.445438
vt 0.672978 0.304799
vn 0.021877 -0.999704 0.010600
v -2.348423 1.200264 0.447834
vt 0.674040 0.304469
vn -0.293215 -0.940325 0.172667
v -2.351619 1.200170 0.427196
vt 0.674290 0.308112
vn -0.019028 -0.999819 0.000762
v -2.357511 1.200342 0.428558
vt 0.675334 0.307961
vn -0.349813 -0.925990 0.142032
v -2.360472 1.200565 0.406423
vt 0.675528 0.311866
vn -0.041172 -0.999098 -0.010437
v -2.365630 1.200796 0.408153
vt 0.676450 0.311642
vn -0.390631 -0.913219 0.115926
v -2.374881 1.201779 0.365501
vt 0.677410 0.319211
vn -0.038779 -0.999124 -0.015740
v -2.379863 1.201962 0.365551
vt 0.678276 0.319283
vn -0.406732 -0.908409 0.096755
v -2.392837 1.203569 0.300228
vt 0.679436 0.330797
vn 0.014868 -0.999402 -0.031220
v -2.397204 1.203681 0.301569
vt 0.680215 0.330627
vn -0.400922 -0.913308 0.071624
v -2.405265 1.206005 0.237078
vt 0.680817 0.342128
vn 0.113562 -0.992676 -0.041198
v -2.410090 1.205222 0.238532
vt 0.681650 0.341946
vn -0.345616 -0.937688 0.035933
v -2.402676 1.205500 0.250259
vt 0.680453 0.339773
vn 0.059996 -0.997251 -0.043485
v -2.415458 1.207479 0.161514
vt 0.681268 0.355377
vn 0.163301 -0.986044 -0.032404
v -2.419961 1.206692 0.163708
vt 0.682098 0.355064
vn -0.310125 -0.950538 0.017336
v -2.421130 1.208535 0.090218
vt 0.681056 0.367805
vn 0.171786 -0.984884 -0.022179
v -2.426074 1.207617 0.090049
vt 0.681926 0.367913
vn -0.308114 -0.951286 0.010952
v -2.377434 1.214086 0.088753
vt 0.671879 0.367322
vn 0.417969 -0.907558 -0.040500
v -2.410559 1.199713 0.043361
vt 0.677532 0.375685
vn 0.420118 -0.907355 -0.014394
v -2.409034 1.199307 0.088961
vt 0.677937 0.367774
vn 0.410483 -0.910616 -0.047770
v -2.294667 1.214772 0.459936
vt 0.664270 0.301548
vn 0.426372 -0.892162 -0.149179
v -2.315494 1.201921 0.473128
vt 0.668691 0.299583
vn 0.439732 -0.882373 -0.167496
v -2.286491 1.217025 0.469642
vt 0.662968 0.299726
vn 0.421977 -0.890790 -0.168605
v -2.301919 1.205465 0.488426
vt 0.666531 0.296694
vn 0.430095 -0.882307 -0.191186
v -2.276105 1.220424 0.477134
vt 0.661203 0.298247
vn 0.408970 -0.890606 -0.198906
v -2.286108 1.210599 0.497448
vt 0.663819 0.294844
vn 0.410574 -0.885699 -0.216715
v -2.262630 1.224291 0.485097
vt 0.658927 0.296611
vn 0.416079 -0.890915 -0.182068
v -2.270623 1.215881 0.504906
vt 0.661117 0.293274
vn 0.416061 -0.893987 -0.166375
v -2.301327 1.213100 0.450249
vt 0.665292 0.303340
vn 0.419578 -0.897614 -0.135065
v -2.322912 1.200192 0.462471
vt 0.669821 0.301556
vn 0.443007 -0.883759 -0.150712
v -2.310672 1.211011 0.434316
vt 0.666673 0.306261
vn 0.421000 -0.897052 -0.134372
v -2.334058 1.198096 0.441660
vt 0.671414 0.305357
vn 0.443754 -0.884634 -0.143195
v -2.318045 1.209867 0.418063
vt 0.667677 0.309207
vn 0.429360 -0.893672 -0.130383
v -2.342759 1.196816 0.422330
vt 0.672590 0.308857
vn 0.443891 -0.885499 -0.137303
v -2.325179 1.208961 0.400454
vt 0.668608 0.312381
vn 0.430483 -0.894110 -0.123497
v -2.350226 1.195987 0.403317
vt 0.673544 0.312275
vn 0.442901 -0.887315 -0.128499
v -2.340362 1.207908 0.354140
vt 0.670400 0.320664
vn 0.425807 -0.898654 -0.105404
v -2.364306 1.195198 0.360128
vt 0.675187 0.320000
vn 0.442285 -0.888341 -0.123429
v -2.381154 1.195379 0.296662
vt 0.676927 0.331262
vn 0.426877 -0.898113 -0.105682
v -2.362638 1.211579 0.233281
vt 0.671879 0.342012
vn 0.421863 -0.903410 -0.076693
v -2.393437 1.196825 0.233654
vt 0.677811 0.342478
vn 0.427467 -0.899013 -0.095120
v -2.403680 1.198368 0.156598
vt 0.678146 0.355970
vn 0.408675 -0.911046 -0.054586
v -2.165973 1.260870 0.534189
vt 0.641831 0.286402
vn 0.505164 -0.841533 -0.191396
v -2.242504 1.276155 0.090418
vt 0.646149 0.364909
vn 0.439986 -0.896984 -0.042803
v -2.185940 1.265449 0.458053
vt 0.643431 0.300068
vn 0.468197 -0.869221 -0.158889
v -2.209839 1.269966 0.353909
vt 0.645294 0.318603
vn 0.450261 -0.885374 -0.115665
v -2.229413 1.273607 0.235094
vt 0.646392 0.339562
vn 0.441157 -0.893804 -0.080589
v -2.397305 1.199827 0.234774
vt 0.678686 0.342387
vn -0.594294 -0.799177 0.090171
v -2.398216 1.201918 0.246743
vt 0.679274 0.340328
vn -0.579709 -0.810005 0.088487
v -2.374881 1.201779 0.365501
vt 0.677410 0.319211
vn -0.477425 -0.869189 0.128750
v -2.392837 1.203569 0.300228
vt 0.679436 0.330797
vn -0.532329 -0.839512 0.108834
v -2.360472 1.200565 0.406423
vt 0.675528 0.311866
vn -0.398250 -0.907026 0.136755
v -2.351619 1.200170 0.427196
vt 0.674290 0.308112
vn -0.285820 -0.947588 0.142773
v -2.342512 1.200363 0.445438
vt 0.672978 0.304799
vn -0.192312 -0.970386 0.146176
v -2.330212 1.201301 0.466065
vt 0.671147 0.301025
vn -0.112017 -0.982070 0.151630
v -2.321702 1.202599 0.476910
vt 0.669821 0.298999
vn -0.004111 -0.983994 0.178156
v -2.305862 1.206030 0.492607
vt 0.667262 0.296006
vn 0.096361 -0.977081 0.189811
v -2.289200 1.210891 0.504148
vt 0.664438 0.293710
vn 0.214586 -0.960130 0.179176
v -2.272641 1.216715 0.511874
vt 0.661518 0.292066
vn 0.284676 -0.939544 0.190309
v -2.207715 1.242123 0.533304
vt 0.649756 0.287275
vn 0.299662 -0.933186 0.198413
v -2.422927 1.208778 0.044005
vt 0.680667 0.375822
vn -0.591733 -0.806023 0.013372
v -2.421820 1.207967 0.043947
vt 0.680428 0.375813
vn -0.591583 -0.806137 0.013154
v -2.421130 1.208535 0.090218
vt 0.681056 0.367805
vn -0.601125 -0.798614 0.029418
v -2.420048 1.207709 0.090105
vt 0.680819 0.367804
vn -0.601004 -0.798715 0.029151
v -2.415458 1.207479 0.161514
vt 0.681268 0.355377
vn -0.599528 -0.798625 0.052575
v -2.414404 1.206664 0.161074
vt 0.681031 0.355434
vn -0.600414 -0.798219 0.048469
v -2.405265 1.206005 0.237078
vt 0.680817 0.342128
vn -0.594621 -0.801199 0.067126
v -2.404230 1.205202 0.236778
vt 0.680594 0.342163
vn -0.594966 -0.800974 0.066757
v -2.401744 1.205014 0.251800
vt 0.680277 0.339490
vn -0.565091 -0.820947 0.081963
v -2.402676 1.205500 0.250259
vt 0.680453 0.339773
vn -0.559807 -0.824921 0.078244
v -2.412263 1.202336 0.043515
vt 0.678403 0.375719
vn -0.340405 0.940185 0.013327
v -2.413518 1.201881 0.043515
vt 0.678172 0.375710
vn -0.340425 0.940181 0.013088
v -2.410673 1.201969 0.089262
vt 0.678804 0.367772
vn -0.340425 0.940072 0.019379
v -2.411928 1.201514 0.089262
vt 0.678571 0.367778
vn -0.340425 0.940072 0.019379
v -2.405242 1.201002 0.157774
vt 0.679012 0.355794
vn -0.340133 0.939519 0.040178
v -2.406497 1.200548 0.157774
vt 0.678781 0.355819
vn -0.340133 0.939519 0.040178
v -2.410673 1.201969 0.089262
vt 0.678804 0.367772
vn -0.340133 0.939519 0.040178
v -2.411928 1.201514 0.089262
vt 0.678571 0.367778
vn -0.340133 0.939519 0.040178
v -2.395741 1.199584 0.229042
vt 0.678679 0.343285
vn -0.339719 0.938347 0.063996
v -2.396996 1.199129 0.229042
vt 0.678455 0.343328
vn -0.339719 0.938347 0.063996
v -2.405242 1.201002 0.157774
vt 0.679012 0.355794
vn -0.339719 0.938347 0.063996
v -2.406497 1.200548 0.157774
vt 0.678781 0.355819
vn -0.339719 0.938347 0.063996
v -2.396050 1.200282 0.234774
vt 0.678899 0.342465
vn -0.337438 0.932091 -0.131687
v -2.397305 1.199827 0.234774
vt 0.678686 0.342387
vn -0.337438 0.932091 -0.131687
v -2.395741 1.199584 0.229042
vt 0.678679 0.343285
vn -0.337438 0.932091 -0.131687
v -2.396996 1.199129 0.229042
vt 0.678455 0.343328
vn -0.337438 0.932091 -0.131687
v -2.397382 1.202259 0.243144
vt 0.679386 0.341078
vn -0.328127 0.906289 -0.266409
v -2.398637 1.201805 0.243144
vt 0.679218 0.340965
vn -0.328127 0.906289 -0.266409
v -2.396050 1.200282 0.234774
vt 0.678899 0.342465
vn -0.328127 0.906289 -0.266409
v -2.397305 1.199827 0.234774
vt 0.678686 0.342387
vn -0.328127 0.906289 -0.266409
v -2.398696 1.203742 0.247439
vt 0.679753 0.340462
vn -0.312905 0.864204 -0.394008
v -2.399951 1.203288 0.247439
vt 0.679661 0.340289
vn -0.312905 0.864204 -0.394008
v -2.397382 1.202259 0.243144
vt 0.679386 0.341078
vn -0.312905 0.864204 -0.394008
v -2.398637 1.201805 0.243144
vt 0.679218 0.340965
vn -0.312905 0.864204 -0.394008
v -2.399590 1.204554 0.248701
vt 0.679918 0.340374
vn -0.259836 0.717621 -0.646146
v -2.400845 1.204100 0.248701
vt 0.679980 0.340090
vn -0.259836 0.717621 -0.646146
v -2.398696 1.203742 0.247439
vt 0.679753 0.340462
vn -0.259836 0.717621 -0.646146
v -2.399951 1.203288 0.247439
vt 0.679661 0.340289
vn -0.259836 0.717621 -0.646146
v -2.400886 1.205373 0.247869
vt 0.680144 0.340157
vn 0.192565 -0.532214 -0.824419
v -2.402141 1.204919 0.247869
vt 0.680323 0.340181
vn 0.192565 -0.532214 -0.824419
v -2.399590 1.204554 0.248701
vt 0.679918 0.340374
vn 0.192565 -0.532214 -0.824419
v -2.400845 1.204100 0.248701
vt 0.679980 0.340090
vn 0.192565 -0.532214 -0.824419
v -2.402976 1.205656 0.236778
vt 0.680371 0.342145
vn 0.339047 -0.936665 -0.087779
v -2.404230 1.205202 0.236778
vt 0.680594 0.342163
vn 0.339047 -0.936665 -0.087779
v -2.400886 1.205373 0.247869
vt 0.680144 0.340157
vn 0.339047 -0.936665 -0.087779
v -2.402141 1.204919 0.247869
vt 0.680323 0.340181
vn 0.339047 -0.936665 -0.087779
v -2.420565 1.208421 0.043947
vt 0.680196 0.375796
vn 0.340295 -0.940239 -0.012290
v -2.421820 1.207967 0.043947
vt 0.680428 0.375813
vn 0.340280 -0.940247 -0.012091
v -2.418792 1.208164 0.090105
vt 0.680587 0.367785
vn 0.340304 -0.940137 -0.018291
v -2.420048 1.207709 0.090105
vt 0.680819 0.367804
vn 0.340304 -0.940137 -0.018291
v -2.418792 1.208164 0.090105
vt 0.680587 0.367785
vn 0.340075 -0.939509 -0.040882
v -2.420048 1.207709 0.090105
vt 0.680819 0.367804
vn 0.340075 -0.939509 -0.040882
v -2.413149 1.207118 0.161074
vt 0.680799 0.355416
vn 0.340075 -0.939509 -0.040882
v -2.414404 1.206664 0.161074
vt 0.681031 0.355434
vn 0.340075 -0.939509 -0.040882
v -2.413149 1.207118 0.161074
vt 0.680799 0.355416
vn 0.339682 -0.938375 -0.063780
v -2.414404 1.206664 0.161074
vt 0.681031 0.355434
vn 0.339682 -0.938375 -0.063780
v -2.402976 1.205656 0.236778
vt 0.680371 0.342145
vn 0.339682 -0.938375 -0.063780
v -2.404230 1.205202 0.236778
vt 0.680594 0.342163
vn 0.339682 -0.938375 -0.063780
v -2.398637 1.201805 0.243144
vt 0.679218 0.340965
vn -0.593197 -0.799484 0.094566
v -2.399951 1.203288 0.247439
vt 0.679661 0.340289
vn -0.606354 -0.792225 0.068666
v -2.400845 1.204100 0.248701
vt 0.679980 0.340090
vn -0.598799 -0.798182 0.065918
v -2.402141 1.204919 0.247869
vt 0.680323 0.340181
vn -0.576499 -0.812694 0.084722
v -2.241486 1.231912 0.530582
vt 0.708067 0.288116
vn -0.300633 0.193182 0.933970
v -2.163338 1.260307 0.543195
vt 0.641600 0.284780
vn 0.895620 -0.379033 -0.232807
v -2.421194 1.208482 0.000000
vt -0.693051 1.015656
vn -0.584912 -0.811097 -0.000021
v -2.412746 1.202487 0.000000
vt -0.693051 1.002971
vn -0.584912 -0.811097 -0.000021
v -2.420565 1.208421 -0.043947
vt -0.746239 1.015656
vn -0.591510 -0.806222 -0.011071
v -2.412263 1.202336 -0.043514
vt -0.746239 1.002971
vn -0.591401 -0.806303 -0.010941
v -2.418792 1.208164 -0.090105
vt -0.802533 1.015656
vn -0.601001 -0.798734 -0.028662
v -2.410673 1.201969 -0.089261
vt -0.802533 1.002971
vn -0.600917 -0.798811 -0.028261
v -2.413149 1.207118 -0.161074
vt -0.888966 1.015656
vn -0.599463 -0.798665 -0.052711
v -2.405242 1.201002 -0.157774
vt -0.888966 1.002971
vn -0.600311 -0.798280 -0.048741
v -2.402976 1.205656 -0.236778
vt -0.980464 1.015656
vn -0.596767 -0.799576 -0.067432
v -2.395741 1.199584 -0.229042
vt -0.980464 1.002971
vn -0.596883 -0.799694 -0.064965
v -2.400886 1.205373 -0.247869
vt -0.997250 1.014205
vn -0.592451 -0.800855 -0.087370
v -2.396050 1.200282 -0.234773
vt -0.986635 1.004565
vn -0.595691 -0.798900 -0.083137
v -2.398696 1.203742 -0.247439
vt -0.997663 1.011544
vn -0.583699 -0.805970 -0.098532
v -2.397382 1.202259 -0.243144
vt -0.993126 1.008250
vn -0.583675 -0.806010 -0.098339
v -2.399590 1.204554 -0.248700
vt -0.998409 1.013181
vn -0.579894 -0.807377 -0.108924
v -2.412263 1.202336 0.043515
vt -0.746239 1.002971
vn -0.591583 -0.806168 0.011071
v -2.420565 1.208421 0.043947
vt -0.746239 1.015656
vn -0.591817 -0.805995 0.011158
v -2.410673 1.201969 0.089262
vt -0.802533 1.002971
vn -0.600921 -0.798810 0.028217
v -2.418792 1.208164 0.090105
vt -0.802533 1.015656
vn -0.601034 -0.798712 0.028573
v -2.405242 1.201002 0.157774
vt -0.888966 1.002971
vn -0.600296 -0.798297 0.048650
v -2.413149 1.207118 0.161074
vt -0.888966 1.015656
vn -0.599468 -0.798664 0.052666
v -2.395741 1.199584 0.229042
vt -0.980464 1.002971
vn -0.596899 -0.799693 0.064825
v -2.402976 1.205656 0.236778
vt -0.980464 1.015656
vn -0.596803 -0.799557 0.067339
v -2.396050 1.200282 0.234774
vt -0.986635 1.004565
vn -0.595791 -0.798845 0.082949
v -2.400886 1.205373 0.247869
vt -0.997250 1.014205
vn -0.592520 -0.800819 0.087228
v -2.397382 1.202259 0.243144
vt -0.993126 1.008250
vn -0.583715 -0.805993 0.098243
v -2.398696 1.203742 0.247439
vt -0.997663 1.011544
vn -0.583687 -0.805990 0.098436
v -2.399590 1.204554 0.248701
vt -0.998409 1.013181
vn -0.579902 -0.807379 0.108876
v -2.204282 1.252330 0.505335
vt 0.036615 0.919552
vn 0.581453 0.203047 0.787835
v -2.198716 1.236907 0.505204
vt 0.033393 0.919812
vn 0.530355 0.220385 0.818630
v -2.214434 1.246757 0.507293
vt 0.036506 0.921814
vn 0.083481 0.021698 0.996273
v -2.208868 1.231334 0.507162
vt 0.033332 0.922101
vn 0.069688 0.023784 0.997285
v -2.226981 1.239868 0.507295
vt 0.036426 0.924633
vn -0.103530 -0.045705 0.993576
v -2.221417 1.224446 0.507165
vt 0.033275 0.924871
vn -0.116926 -0.055506 0.991588
v -2.239073 1.233231 0.503760
vt 0.036277 0.927530
vn -0.278517 -0.108627 0.954269
v -2.233507 1.217808 0.503630
vt 0.033147 0.927586
vn -0.281610 -0.126319 0.951178
v -2.241010 1.232166 0.502178
vt 0.036222 0.928100
vn -0.940624 -0.339433 0.003467
v -2.235447 1.216745 0.502048
vt 0.033109 0.928099
vn -0.918722 -0.394902 -0.001545
v -2.239071 1.233232 0.500595
vt 0.036277 0.928672
vn -0.286372 -0.095254 -0.953372
v -2.233507 1.217809 0.500465
vt 0.033146 0.928613
vn -0.286890 -0.117088 -0.950781
v -2.226981 1.239870 0.497053
vt 0.036433 0.931578
vn -0.111599 -0.031881 -0.993242
v -2.221413 1.224446 0.496923
vt 0.033276 0.931327
vn -0.122879 -0.045774 -0.991365
v -2.214432 1.246757 0.497051
vt 0.036511 0.934418
vn 0.075524 0.035734 -0.996503
v -2.208866 1.231335 0.496920
vt 0.033334 0.934091
vn 0.063823 0.033716 -0.997392
v -2.204280 1.252330 0.499005
vt 0.036596 0.936707
vn 0.579524 0.215741 -0.785880
v -2.198715 1.236907 0.498874
vt 0.033394 0.936368
vn 0.525037 0.228617 -0.819799
v -2.204280 1.252330 0.499005
vt 0.036515 0.918335
vn 0.579524 0.215741 -0.785880
v -2.198715 1.236907 0.498874
vt 0.033331 0.918580
vn 0.525037 0.228617 -0.819799
v -2.191512 1.222384 0.505150
vt 0.030135 0.919856
vn 0.504153 0.276756 0.818068
v -2.201666 1.216811 0.507108
vt 0.030134 0.922138
vn 0.064289 0.035299 0.997307
v -2.214213 1.209922 0.507111
vt 0.030133 0.924884
vn -0.112544 -0.061832 0.991721
v -2.226303 1.203286 0.503575
vt 0.030133 0.927588
vn -0.269022 -0.147740 0.951735
v -2.228244 1.202221 0.501993
vt 0.030133 0.928098
vn -0.876618 -0.481184 -0.001556
v -2.226303 1.203286 0.500410
vt 0.030132 0.928608
vn -0.269150 -0.147774 -0.951694
v -2.214213 1.209924 0.496869
vt 0.030132 0.931311
vn -0.112355 -0.061692 -0.991751
v -2.201662 1.216813 0.496866
vt 0.030131 0.934052
vn 0.064014 0.035136 -0.997330
v -2.191512 1.222384 0.498820
vt 0.030130 0.936331
vn 0.502841 0.276024 -0.819123
v -2.191512 1.222384 0.498820
vt 0.030136 0.918621
vn 0.502841 0.276024 -0.819123
v -2.183127 1.208510 0.505204
vt 0.026877 0.919810
vn 0.470681 0.329173 0.818599
v -2.193279 1.202937 0.507162
vt 0.026937 0.922099
vn 0.057494 0.045972 0.997287
v -2.205828 1.196049 0.507165
vt 0.026992 0.924869
vn -0.109933 -0.069032 0.991539
v -2.217918 1.189411 0.503630
vt 0.027118 0.927585
vn -0.257833 -0.169806 0.951151
v -2.219859 1.188347 0.502048
vt 0.027157 0.928097
vn -0.826431 -0.563036 -0.001252
v -2.217918 1.189412 0.500465
vt 0.027119 0.928611
vn -0.252768 -0.179174 -0.950792
v -2.205825 1.196049 0.496923
vt 0.026987 0.931325
vn -0.104682 -0.079076 -0.991357
v -2.193277 1.202938 0.496920
vt 0.026928 0.934089
vn 0.062710 0.035820 -0.997389
v -2.183127 1.208510 0.498874
vt 0.026866 0.936366
vn 0.474761 0.320220 -0.819793
v -2.183127 1.208510 0.498874
vt 0.026940 0.918578
vn 0.474761 0.320220 -0.819793
v -2.173104 1.195536 0.505335
vt 0.023655 0.919548
vn 0.483556 0.381463 0.787819
v -2.183256 1.189962 0.507293
vt 0.023763 0.921810
vn 0.063185 0.058783 0.996269
v -2.195804 1.183073 0.507295
vt 0.023841 0.924630
vn -0.094108 -0.062721 0.993584
v -2.207895 1.176436 0.503760
vt 0.023989 0.927526
vn -0.241136 -0.176733 0.954264
v -2.209832 1.175372 0.502178
vt 0.024043 0.928096
vn -0.791303 -0.611413 0.003756
v -2.207895 1.176437 0.500595
vt 0.023988 0.928668
vn -0.234151 -0.190458 -0.953362
v -2.195804 1.183075 0.497053
vt 0.023831 0.931574
vn -0.086800 -0.077089 -0.993239
v -2.183254 1.189963 0.497051
vt 0.023750 0.934414
vn 0.070712 0.044619 -0.996498
v -2.173103 1.195536 0.499005
vt 0.023664 0.936703
vn 0.493030 0.373037 -0.785980
v -2.173103 1.195536 0.499005
vt 0.023756 0.918331
vn 0.493030 0.373037 -0.785980
v -2.208868 1.231334 -0.507162
vt 0.033281 0.922195
vn 0.069707 0.023802 -0.997284
v -2.198716 1.236908 -0.505204
vt 0.033350 0.919910
vn 0.530445 0.220416 -0.818562
v -2.214434 1.246757 -0.507293
vt 0.036452 0.921917
vn 0.083500 0.021715 -0.996271
v -2.204282 1.252330 -0.505335
vt 0.036568 0.919659
vn 0.581505 0.203128 -0.787776
v -2.221417 1.224446 -0.507164
vt 0.033217 0.924961
vn -0.117186 -0.055573 -0.991554
v -2.226981 1.239868 -0.507295
vt 0.036364 0.924732
vn -0.103472 -0.045685 -0.993583
v -2.233507 1.217808 -0.503629
vt 0.033081 0.927671
vn -0.281581 -0.126294 -0.951190
v -2.239073 1.233231 -0.503759
vt 0.036206 0.927624
vn -0.278459 -0.108469 -0.954304
v -2.233507 1.217810 -0.500464
vt 0.033077 0.928696
vn -0.286920 -0.117112 0.950769
v -2.235447 1.216745 -0.502047
vt 0.033041 0.928183
vn -0.918716 -0.394916 0.001385
v -2.239072 1.233232 -0.500594
vt 0.036203 0.928764
vn -0.286314 -0.095316 0.953383
v -2.241010 1.232167 -0.502178
vt 0.036149 0.928193
vn -0.940631 -0.339412 -0.003624
v -2.208866 1.231336 -0.496920
vt 0.033248 0.934166
vn 0.063769 0.033697 0.997396
v -2.221413 1.224446 -0.496922
vt 0.033198 0.931406
vn -0.122904 -0.045830 0.991360
v -2.214432 1.246757 -0.497050
vt 0.036419 0.934502
vn 0.075466 0.035680 0.996510
v -2.226981 1.239870 -0.497053
vt 0.036349 0.931666
vn -0.111624 -0.031935 0.993237
v -2.198715 1.236908 -0.498874
vt 0.033301 0.936440
vn 0.525001 0.228588 0.819830
v -2.204280 1.252330 -0.499005
vt 0.036497 0.936788
vn 0.579451 0.215765 0.785927
v -2.198715 1.236908 -0.498874
vt 0.033291 0.918679
vn 0.525001 0.228588 0.819830
v -2.204280 1.252330 -0.499005
vt 0.036471 0.918444
vn 0.579451 0.215765 0.785927
v -2.201666 1.216811 -0.507108
vt 0.030089 0.922222
vn 0.064308 0.035317 -0.997305
v -2.191512 1.222385 -0.505149
vt 0.030097 0.919944
vn 0.504188 0.276786 -0.818037
v -2.214213 1.209922 -0.507110
vt 0.030080 0.924964
vn -0.112480 -0.061773 -0.991732
v -2.226303 1.203286 -0.503575
vt 0.030071 0.927663
vn -0.268984 -0.147667 -0.951757
v -2.226303 1.203286 -0.500410
vt 0.030068 0.928682
vn -0.269229 -0.147803 0.951667
v -2.228244 1.202221 -0.501993
vt 0.030069 0.928173
vn -0.876605 -0.481209 0.001556
v -2.201662 1.216813 -0.496866
vt 0.030050 0.934117
vn 0.063993 0.035083 0.997334
v -2.214213 1.209924 -0.496868
vt 0.030059 0.931380
vn -0.112825 -0.061921 0.991684
v -2.191512 1.222385 -0.498819
vt 0.030042 0.936393
vn 0.502736 0.275933 0.819217
v -2.191512 1.222385 -0.498819
vt 0.030101 0.918710
vn 0.502736 0.275933 0.819217
v -2.193279 1.202937 -0.507162
vt 0.026897 0.922174
vn 0.057515 0.046025 -0.997283
v -2.183127 1.208510 -0.505204
vt 0.026844 0.919888
vn 0.470716 0.329205 -0.818566
v -2.205828 1.196049 -0.507164
vt 0.026943 0.924940
vn -0.109587 -0.068880 -0.991588
v -2.217918 1.189411 -0.503629
vt 0.027061 0.927651
vn -0.257754 -0.169774 -0.951178
v -2.217918 1.189412 -0.500464
vt 0.027058 0.928676
vn -0.252797 -0.179201 0.950779
v -2.219859 1.188348 -0.502047
vt 0.027098 0.928163
vn -0.826441 -0.563022 0.001379
v -2.193277 1.202938 -0.496920
vt 0.026851 0.934145
vn 0.062689 0.035767 0.997392
v -2.205825 1.196049 -0.496922
vt 0.026919 0.931385
vn -0.104327 -0.078805 0.991416
v -2.183127 1.208510 -0.498874
vt 0.026783 0.936419
vn 0.474669 0.320183 0.819861
v -2.183127 1.208510 -0.498874
vt 0.026910 0.918658
vn 0.474669 0.320183 0.819861
v -2.183256 1.189963 -0.507293
vt 0.023729 0.921875
vn 0.063204 0.058802 -0.996267
v -2.173104 1.195536 -0.505335
vt 0.023628 0.919616
vn 0.483648 0.381501 -0.787744
v -2.195804 1.183074 -0.507295
vt 0.023798 0.924691
vn -0.094160 -0.062668 -0.993583
v -2.207895 1.176437 -0.503759
vt 0.023937 0.927583
vn -0.241051 -0.176653 -0.954300
v -2.207895 1.176437 -0.500594
vt 0.023932 0.928723
vn -0.234221 -0.190442 0.953348
v -2.209832 1.175372 -0.502178
vt 0.023989 0.928153
vn -0.791314 -0.611397 -0.003971
v -2.183254 1.189963 -0.497050
vt 0.023678 0.934460
vn 0.070690 0.044565 0.996502
v -2.195804 1.183075 -0.497053
vt 0.023767 0.931624
vn -0.086820 -0.077109 0.993235
v -2.173103 1.195536 -0.499005
vt 0.023585 0.936745
vn 0.492986 0.372947 0.786050
v -2.173103 1.195536 -0.499005
vt 0.023732 0.918401
vn 0.492986 0.372947 0.786050
usemtl Paint.013
f 3/3/3 2/2/2 1/1/1
f 4/4/4 2/2/2 3/3/3
f 7/7/7 6/6/6 5/5/5
f 8/8/8 6/6/6 7/7/7
f 11/11/11 10/10/10 9/9/9
f 12/12/12 10/10/10 11/11/11
f 15/15/15 14/14/14 13/13/13
f 16/16/16 14/14/14 15/15/15
f 8/8/8 1/1/1 6/6/6
f 3/3/3 1/1/1 8/8/8
f 12/12/12 5/5/5 10/10/10
f 7/7/7 5/5/5 12/12/12
f 16/16/16 9/9/9 14/14/14
f 11/11/11 9/9/9 16/16/16
f 19/19/19 18/18/18 17/17/17
f 20/20/20 19/19/19 17/17/17
f 21/21/21 19/19/19 20/20/20
f 22/22/22 19/19/19 21/21/21
f 23/23/23 2/2/2 4/4/4
f 24/24/24 2/2/2 23/23/23
f 25/25/25 24/24/24 23/23/23
f 26/26/26 24/24/24 25/25/25
f 29/29/29 28/28/28 27/27/27
f 30/30/30 28/28/28 29/29/29
f 30/30/30 32/32/32 31/31/31
f 29/29/29 32/32/32 30/30/30
f 35/35/35 34/34/34 33/33/33
f 36/36/36 34/34/34 35/35/35
f 38/38/38 33/33/33 37/37/37
f 35/35/35 33/33/33 38/38/38
f 29/29/29 40/40/40 39/39/39
f 27/27/27 40/40/40 29/29/29
f 42/42/42 37/37/37 41/41/41
f 38/38/38 37/37/37 42/42/42
f 43/43/43 39/39/39 40/40/40
f 36/36/36 39/39/39 43/43/43
f 43/43/43 34/34/34 36/36/36
f 44/44/44 34/34/34 43/43/43
f 45/45/45 38/38/38 42/42/42
f 46/46/46 38/38/38 45/45/45
f 47/47/47 38/38/38 46/46/46
f 35/35/35 38/38/38 47/47/47
f 41/41/41 17/17/17 42/42/42
f 20/20/20 17/17/17 41/41/41
f 46/46/46 2/2/2 24/24/24
f 45/45/45 2/2/2 46/46/46
f 26/26/26 46/46/46 24/24/24
f 29/29/29 39/39/39 32/32/32
f 45/45/45 1/1/1 2/2/2
f 45/45/45 6/6/6 1/1/1
f 45/45/45 5/5/5 6/6/6
f 48/48/48 5/5/5 45/45/45
f 9/9/9 10/10/10 48/48/48
f 48/48/48 10/10/10 5/5/5
f 48/48/48 14/14/14 9/9/9
f 49/49/49 14/14/14 48/48/48
f 42/42/42 49/49/49 48/48/48
f 17/17/17 49/49/49 42/42/42
f 42/42/42 48/48/48 45/45/45
f 13/13/13 14/14/14 49/49/49
f 49/49/49 17/17/17 13/13/13
f 22/22/22 50/50/50 19/19/19
f 51/51/51 50/50/50 22/22/22
f 30/30/30 52/52/52 28/28/28
f 53/53/53 52/52/52 30/30/30
f 54/54/54 30/30/30 31/31/31
f 53/53/53 30/30/30 54/54/54
f 57/57/57 56/56/56 55/55/55
f 58/58/58 56/56/56 57/57/57
f 59/59/59 55/55/55 25/25/25
f 57/57/57 55/55/55 59/59/59
f 60/60/60 25/25/25 23/23/23
f 59/59/59 25/25/25 60/60/60
f 61/61/61 23/23/23 4/4/4
f 60/60/60 23/23/23 61/61/61
f 62/62/62 4/4/4 3/3/3
f 61/61/61 4/4/4 62/62/62
f 63/63/63 3/3/3 8/8/8
f 62/62/62 3/3/3 63/63/63
f 64/64/64 8/8/8 7/7/7
f 63/63/63 8/8/8 64/64/64
f 65/65/65 7/7/7 12/12/12
f 64/64/64 7/7/7 65/65/65
f 66/66/66 12/12/12 11/11/11
f 65/65/65 12/12/12 66/66/66
f 67/67/67 11/11/11 16/16/16
f 66/66/66 11/11/11 67/67/67
f 68/68/68 16/16/16 15/15/15
f 67/67/67 16/16/16 68/68/68
f 18/18/18 68/68/68 15/15/15
f 69/69/69 68/68/68 18/18/18
f 71/71/71 22/22/22 70/70/70
f 51/51/51 22/22/22 71/71/71
f 73/73/73 70/70/70 72/72/72
f 71/71/71 70/70/70 73/73/73
f 75/75/75 72/72/72 74/74/74
f 73/73/73 72/72/72 75/75/75
f 77/77/77 74/74/74 76/76/76
f 75/75/75 74/74/74 77/77/77
f 80/80/80 79/79/79 78/78/78
f 81/81/81 79/79/79 80/80/80
f 56/56/56 82/82/82 55/55/55
f 83/83/83 82/82/82 56/56/56
f 83/83/83 47/47/47 82/82/82
f 36/36/36 47/47/47 39/39/39
f 35/35/35 47/47/47 36/36/36
f 58/58/58 31/31/31 56/56/56
f 54/54/54 31/31/31 58/58/58
f 32/32/32 56/56/56 31/31/31
f 83/83/83 56/56/56 32/32/32
f 32/32/32 47/47/47 83/83/83
f 39/39/39 47/47/47 32/32/32
f 81/81/81 84/84/84 79/79/79
f 85/85/85 84/84/84 81/81/81
f 82/82/82 25/25/25 55/55/55
f 26/26/26 25/25/25 82/82/82
f 82/82/82 46/46/46 26/26/26
f 47/47/47 46/46/46 82/82/82
f 85/85/85 76/76/76 84/84/84
f 77/77/77 76/76/76 85/85/85
f 51/51/51 86/86/86 50/50/50
f 87/87/87 86/86/86 51/51/51
f 52/52/52 89/89/89 88/88/88
f 53/53/53 89/89/89 52/52/52
f 54/54/54 91/91/91 90/90/90
f 58/58/58 91/91/91 54/54/54
f 58/58/58 92/92/92 91/91/91
f 57/57/57 92/92/92 58/58/58
f 59/59/59 94/94/94 93/93/93
f 60/60/60 94/94/94 59/59/59
f 60/60/60 95/95/95 94/94/94
f 61/61/61 95/95/95 60/60/60
f 61/61/61 96/96/96 95/95/95
f 62/62/62 96/96/96 61/61/61
f 62/62/62 97/97/97 96/96/96
f 63/63/63 97/97/97 62/62/62
f 63/63/63 98/98/98 97/97/97
f 64/64/64 98/98/98 63/63/63
f 64/64/64 99/99/99 98/98/98
f 65/65/65 99/99/99 64/64/64
f 65/65/65 100/100/100 99/99/99
f 66/66/66 100/100/100 65/65/65
f 66/66/66 101/101/101 100/100/100
f 67/67/67 101/101/101 66/66/66
f 67/67/67 102/102/102 101/101/101
f 68/68/68 102/102/102 67/67/67
f 68/68/68 103/103/103 102/102/102
f 69/69/69 103/103/103 68/68/68
f 51/51/51 104/104/104 87/87/87
f 71/71/71 104/104/104 51/51/51
f 71/71/71 105/105/105 104/104/104
f 73/73/73 105/105/105 71/71/71
f 73/73/73 106/106/106 105/105/105
f 75/75/75 106/106/106 73/73/73
f 75/75/75 107/107/107 106/106/106
f 77/77/77 107/107/107 75/75/75
f 77/77/77 108/108/108 107/107/107
f 85/85/85 108/108/108 77/77/77
f 85/85/85 109/109/109 108/108/108
f 81/81/81 109/109/109 85/85/85
f 109/109/109 80/80/80 110/110/110
f 81/81/81 80/80/80 109/109/109
f 57/57/57 93/93/93 92/92/92
f 59/59/59 93/93/93 57/57/57
f 53/53/53 90/90/90 89/89/89
f 54/54/54 90/90/90 53/53/53
f 113/113/113 112/112/112 111/111/111
f 114/114/114 112/112/112 113/113/113
f 117/117/117 116/116/116 115/115/115
f 118/118/118 116/116/116 117/117/117
f 119/119/119 116/116/116 118/118/118
f 119/119/119 120/120/120 116/116/116
f 121/121/121 120/120/120 119/119/119
f 124/124/124 123/123/123 122/122/122
f 125/125/125 123/123/123 124/124/124
f 128/128/128 127/127/127 126/126/126
f 129/129/129 127/127/127 128/128/128
f 131/131/131 129/129/129 130/130/130
f 127/127/127 129/129/129 131/131/131
f 134/134/134 133/133/133 132/132/132
f 126/126/126 135/135/135 128/128/128
f 136/136/136 135/135/135 126/126/126
f 130/130/130 122/122/122 131/131/131
f 124/124/124 122/122/122 130/130/130
f 125/125/125 137/137/137 123/123/123
f 138/138/138 137/137/137 125/125/125
f 138/138/138 139/139/139 137/137/137
f 140/140/140 139/139/139 138/138/138
f 142/142/142 140/140/140 141/141/141
f 139/139/139 140/140/140 142/142/142
f 121/121/121 141/141/141 120/120/120
f 142/142/142 141/141/141 121/121/121
f 144/144/144 111/111/111 143/143/143
f 113/113/113 111/111/111 144/144/144
f 143/143/143 115/115/115 144/144/144
f 117/117/117 115/115/115 143/143/143
f 145/145/145 133/133/133 134/134/134
f 146/146/146 133/133/133 145/145/145
f 134/134/134 148/148/148 147/147/147
f 149/149/149 148/148/148 134/134/134
f 152/152/152 151/151/151 150/150/150
f 153/153/153 151/151/151 152/152/152
f 156/156/156 155/155/155 154/154/154
f 157/157/157 155/155/155 156/156/156
f 160/160/160 159/159/159 158/158/158
f 161/161/161 159/159/159 160/160/160
f 149/149/149 158/158/158 148/148/148
f 160/160/160 158/158/158 149/149/149
f 161/161/161 153/153/153 159/159/159
f 151/151/151 153/153/153 161/161/161
f 150/150/150 162/162/162 152/152/152
f 163/163/163 162/162/162 150/150/150
f 163/163/163 164/164/164 162/162/162
f 165/165/165 164/164/164 163/163/163
f 165/165/165 166/166/166 164/164/164
f 167/167/167 166/166/166 165/165/165
f 167/167/167 168/168/168 166/166/166
f 169/169/169 168/168/168 167/167/167
f 169/169/169 170/170/170 168/168/168
f 171/171/171 170/170/170 169/169/169
f 171/171/171 172/172/172 170/170/170
f 173/173/173 172/172/172 171/171/171
f 174/174/174 172/172/172 173/173/173
f 174/174/174 175/175/175 172/172/172
f 176/176/176 175/175/175 174/174/174
f 176/176/176 177/177/177 175/175/175
f 178/178/178 177/177/177 176/176/176
f 178/178/178 157/157/157 177/177/177
f 155/155/155 157/157/157 178/178/178
f 181/181/181 180/180/180 179/179/179
f 182/182/182 180/180/180 181/181/181
f 181/181/181 179/179/179 183/183/183
f 186/186/186 185/185/185 184/184/184
f 187/187/187 185/185/185 186/186/186
f 190/190/190 189/189/189 188/188/188
f 191/191/191 189/189/189 190/190/190
f 188/188/188 132/132/132 190/190/190
f 134/134/134 132/132/132 188/188/188
f 191/191/191 184/184/184 189/189/189
f 186/186/186 184/184/184 191/191/191
f 187/187/187 192/192/192 185/185/185
f 193/193/193 192/192/192 187/187/187
f 193/193/193 194/194/194 192/192/192
f 195/195/195 194/194/194 193/193/193
f 195/195/195 196/196/196 194/194/194
f 197/197/197 196/196/196 195/195/195
f 197/197/197 198/198/198 196/196/196
f 199/199/199 198/198/198 197/197/197
f 199/199/199 200/200/200 198/198/198
f 201/201/201 200/200/200 199/199/199
f 201/201/201 202/202/202 200/200/200
f 201/201/201 203/203/203 202/202/202
f 204/204/204 203/203/203 201/201/201
f 204/204/204 205/205/205 203/203/203
f 204/204/204 183/183/183 205/205/205
f 181/181/181 183/183/183 204/204/204
f 206/206/206 132/132/132 133/133/133
f 207/207/207 182/182/182 181/181/181
f 208/208/208 182/182/182 207/207/207
f 209/209/209 187/187/187 186/186/186
f 209/209/209 191/191/191 190/190/190
f 206/206/206 190/190/190 132/132/132
f 209/209/209 190/190/190 206/206/206
f 209/209/209 186/186/186 191/191/191
f 209/209/209 193/193/193 187/187/187
f 209/209/209 195/195/195 193/193/193
f 210/210/210 195/195/195 209/209/209
f 210/210/210 197/197/197 195/195/195
f 210/210/210 199/199/199 197/197/197
f 210/210/210 201/201/201 199/199/199
f 210/210/210 204/204/204 201/201/201
f 211/211/211 204/204/204 210/210/210
f 211/211/211 181/181/181 204/204/204
f 207/207/207 181/181/181 211/211/211
f 212/212/212 119/119/119 118/118/118
f 213/213/213 121/121/121 119/119/119
f 214/214/214 142/142/142 121/121/121
f 215/215/215 142/142/142 214/214/214
f 215/215/215 139/139/139 142/142/142
f 216/216/216 139/139/139 215/215/215
f 139/139/139 217/217/217 137/137/137
f 216/216/216 217/217/217 139/139/139
f 137/137/137 218/218/218 123/123/123
f 217/217/217 218/218/218 137/137/137
f 123/123/123 219/219/219 122/122/122
f 218/218/218 219/219/219 123/123/123
f 122/122/122 220/220/220 131/131/131
f 219/219/219 220/220/220 122/122/122
f 220/220/220 127/127/127 131/131/131
f 221/221/221 127/127/127 220/220/220
f 127/127/127 222/222/222 126/126/126
f 221/221/221 222/222/222 127/127/127
f 222/222/222 136/136/136 126/126/126
f 223/223/223 136/136/136 222/222/222
f 223/223/223 224/224/224 136/136/136
f 227/227/227 226/226/226 225/225/225
f 228/228/228 226/226/226 227/227/227
f 225/225/225 230/230/230 229/229/229
f 226/226/226 230/230/230 225/225/225
f 230/230/230 231/231/231 229/229/229
f 232/232/232 231/231/231 230/230/230
f 232/232/232 233/233/233 231/231/231
f 234/234/234 233/233/233 232/232/232
f 235/235/235 121/121/121 213/213/213
f 214/214/214 121/121/121 235/235/235
f 236/236/236 214/214/214 235/235/235
f 135/135/135 136/136/136 224/224/224
f 133/133/133 237/237/237 206/206/206
f 146/146/146 237/237/237 133/133/133
f 240/240/240 239/239/239 238/238/238
f 241/241/241 239/239/239 240/240/240
f 241/241/241 242/242/242 239/239/239
f 243/243/243 242/242/242 241/241/241
f 246/246/246 245/245/245 244/244/244
f 247/247/247 245/245/245 246/246/246
f 250/250/250 249/249/249 248/248/248
f 251/251/251 249/249/249 250/250/250
f 254/254/254 253/253/253 252/252/252
f 255/255/255 253/253/253 254/254/254
f 258/258/258 257/257/257 256/256/256
f 259/259/259 257/257/257 258/258/258
f 262/262/262 261/261/261 260/260/260
f 263/263/263 261/261/261 262/262/262
f 266/266/266 265/265/265 264/264/264
f 267/267/267 265/265/265 266/266/266
f 270/270/270 269/269/269 268/268/268
f 271/271/271 269/269/269 270/270/270
f 274/274/274 273/273/273 272/272/272
f 275/275/275 273/273/273 274/274/274
f 278/278/278 277/277/277 276/276/276
f 279/279/279 277/277/277 278/278/278
f 281/281/281 276/276/276 280/280/280
f 278/278/278 276/276/276 281/281/281
f 284/284/284 283/283/283 282/282/282
f 285/285/285 283/283/283 284/284/284
f 288/288/288 287/287/287 286/286/286
f 289/289/289 287/287/287 288/288/288
f 212/212/212 213/213/213 119/119/119
f 290/290/290 213/213/213 212/212/212
f 291/291/291 213/213/213 290/290/290
f 291/291/291 235/235/235 213/213/213
f 292/292/292 235/235/235 291/291/291
f 293/293/293 235/235/235 292/292/292
f 293/293/293 234/234/234 235/235/235
f 233/233/233 234/234/234 293/293/293
f 234/234/234 236/236/236 235/235/235
f 50/50/50 18/18/18 19/19/19
f 69/69/69 18/18/18 50/50/50
f 294/294/294 86/86/86 103/103/103
f 50/50/50 86/86/86 294/294/294
f 18/18/18 13/13/13 17/17/17
f 15/15/15 13/13/13 18/18/18
f 145/145/145 134/134/134 147/147/147
f 297/297/297 296/296/296 295/295/295
f 298/298/298 296/296/296 297/297/297
f 301/301/301 300/300/300 299/299/299
f 302/302/302 300/300/300 301/301/301
f 305/305/305 304/304/304 303/303/303
f 306/306/306 304/304/304 305/305/305
f 309/309/309 308/308/308 307/307/307
f 310/310/310 308/308/308 309/309/309
f 299/299/299 298/298/298 297/297/297
f 300/300/300 298/298/298 299/299/299
f 303/303/303 302/302/302 301/301/301
f 304/304/304 302/302/302 303/303/303
f 307/307/307 306/306/306 305/305/305
f 308/308/308 306/306/306 307/307/307
f 313/313/313 312/312/312 311/311/311
f 314/314/314 313/313/313 311/311/311
f 315/315/315 313/313/313 314/314/314
f 316/316/316 313/313/313 315/315/315
f 318/318/318 296/296/296 317/317/317
f 295/295/295 296/296/296 318/318/318
f 320/320/320 317/317/317 319/319/319
f 318/318/318 317/317/317 320/320/320
f 322/322/322 28/28/28 321/321/321
f 27/27/27 28/28/28 322/322/322
f 321/321/321 323/323/323 322/322/322
f 324/324/324 323/323/323 321/321/321
f 327/327/327 326/326/326 325/325/325
f 328/328/328 326/326/326 327/327/327
f 328/328/328 329/329/329 326/326/326
f 330/330/330 329/329/329 328/328/328
f 322/322/322 40/40/40 27/27/27
f 331/331/331 40/40/40 322/322/322
f 330/330/330 332/332/332 329/329/329
f 333/333/333 332/332/332 330/330/330
f 43/43/43 331/331/331 327/327/327
f 40/40/40 331/331/331 43/43/43
f 327/327/327 44/44/44 43/43/43
f 325/325/325 44/44/44 327/327/327
f 335/335/335 330/330/330 334/334/334
f 333/333/333 330/330/330 335/335/335
f 336/336/336 330/330/330 328/328/328
f 334/334/334 330/330/330 336/336/336
f 313/313/313 332/332/332 333/333/333
f 316/316/316 332/332/332 313/313/313
f 334/334/334 296/296/296 335/335/335
f 317/317/317 296/296/296 334/334/334
f 317/317/317 334/334/334 319/319/319
f 323/323/323 331/331/331 322/322/322
f 296/296/296 298/298/298 335/335/335
f 298/298/298 300/300/300 335/335/335
f 335/335/335 302/302/302 337/337/337
f 300/300/300 302/302/302 335/335/335
f 337/337/337 304/304/304 306/306/306
f 302/302/302 304/304/304 337/337/337
f 337/337/337 308/308/308 338/338/338
f 306/306/306 308/308/308 337/337/337
f 333/333/333 338/338/338 313/313/313
f 337/337/337 338/338/338 333/333/333
f 335/335/335 337/337/337 333/333/333
f 338/338/338 308/308/308 310/310/310
f 310/310/310 313/313/313 338/338/338
f 339/339/339 314/314/314 311/311/311
f 340/340/340 314/314/314 339/339/339
f 321/321/321 52/52/52 341/341/341
f 28/28/28 52/52/52 321/321/321
f 342/342/342 321/321/321 341/341/341
f 324/324/324 321/321/321 342/342/342
f 345/345/345 344/344/344 343/343/343
f 346/346/346 344/344/344 345/345/345
f 347/347/347 346/346/346 345/345/345
f 320/320/320 346/346/346 347/347/347
f 348/348/348 320/320/320 347/347/347
f 318/318/318 320/320/320 348/348/348
f 349/349/349 318/318/318 348/348/348
f 295/295/295 318/318/318 349/349/349
f 350/350/350 295/295/295 349/349/349
f 297/297/297 295/295/295 350/350/350
f 351/351/351 297/297/297 350/350/350
f 299/299/299 297/297/297 351/351/351
f 352/352/352 299/299/299 351/351/351
f 301/301/301 299/299/299 352/352/352
f 353/353/353 301/301/301 352/352/352
f 303/303/303 301/301/301 353/353/353
f 354/354/354 303/303/303 353/353/353
f 305/305/305 303/303/303 354/354/354
f 355/355/355 305/305/305 354/354/354
f 307/307/307 305/305/305 355/355/355
f 356/356/356 307/307/307 355/355/355
f 309/309/309 307/307/307 356/356/356
f 312/312/312 356/356/356 357/357/357
f 309/309/309 356/356/356 312/312/312
f 358/358/358 314/314/314 340/340/340
f 359/359/359 314/314/314 358/358/358
f 360/360/360 359/359/359 358/358/358
f 361/361/361 359/359/359 360/360/360
f 362/362/362 361/361/361 360/360/360
f 363/363/363 361/361/361 362/362/362
f 364/364/364 363/363/363 362/362/362
f 365/365/365 363/363/363 364/364/364
f 80/80/80 367/367/367 366/366/366
f 78/78/78 367/367/367 80/80/80
f 344/344/344 369/369/369 368/368/368
f 346/346/346 369/369/369 344/344/344
f 369/369/369 336/336/336 368/368/368
f 327/327/327 336/336/336 328/328/328
f 331/331/331 336/336/336 327/327/327
f 343/343/343 324/324/324 342/342/342
f 344/344/344 324/324/324 343/343/343
f 323/323/323 344/344/344 368/368/368
f 324/324/324 344/344/344 323/323/323
f 323/323/323 336/336/336 331/331/331
f 368/368/368 336/336/336 323/323/323
f 366/366/366 371/371/371 370/370/370
f 367/367/367 371/371/371 366/366/366
f 369/369/369 320/320/320 319/319/319
f 346/346/346 320/320/320 369/369/369
f 369/369/369 334/334/334 336/336/336
f 319/319/319 334/334/334 369/369/369
f 370/370/370 365/365/365 364/364/364
f 371/371/371 365/365/365 370/370/370
f 372/372/372 340/340/340 339/339/339
f 373/373/373 340/340/340 372/372/372
f 52/52/52 374/374/374 341/341/341
f 88/88/88 374/374/374 52/52/52
f 342/342/342 375/375/375 343/343/343
f 376/376/376 375/375/375 342/342/342
f 343/343/343 377/377/377 345/345/345
f 375/375/375 377/377/377 343/343/343
f 347/347/347 378/378/378 348/348/348
f 379/379/379 378/378/378 347/347/347
f 348/348/348 380/380/380 349/349/349
f 378/378/378 380/380/380 348/348/348
f 349/349/349 381/381/381 350/350/350
f 380/380/380 381/381/381 349/349/349
f 350/350/350 382/382/382 351/351/351
f 381/381/381 382/382/382 350/350/350
f 351/351/351 383/383/383 352/352/352
f 382/382/382 383/383/383 351/351/351
f 352/352/352 384/384/384 353/353/353
f 383/383/383 384/384/384 352/352/352
f 353/353/353 385/385/385 354/354/354
f 384/384/384 385/385/385 353/353/353
f 354/354/354 386/386/386 355/355/355
f 385/385/385 386/386/386 354/354/354
f 355/355/355 387/387/387 356/356/356
f 386/386/386 387/387/387 355/355/355
f 356/356/356 388/388/388 357/357/357
f 387/387/387 388/388/388 356/356/356
f 340/340/340 389/389/389 358/358/358
f 373/373/373 389/389/389 340/340/340
f 358/358/358 390/390/390 360/360/360
f 389/389/389 390/390/390 358/358/358
f 360/360/360 391/391/391 362/362/362
f 390/390/390 391/391/391 360/360/360
f 362/362/362 392/392/392 364/364/364
f 391/391/391 392/392/392 362/362/362
f 364/364/364 393/393/393 370/370/370
f 392/392/392 393/393/393 364/364/364
f 370/370/370 394/394/394 366/366/366
f 393/393/393 394/394/394 370/370/370
f 394/394/394 80/80/80 366/366/366
f 110/110/110 80/80/80 394/394/394
f 345/345/345 379/379/379 347/347/347
f 377/377/377 379/379/379 345/345/345
f 341/341/341 376/376/376 342/342/342
f 374/374/374 376/376/376 341/341/341
f 395/395/395 112/112/112 114/114/114
f 396/396/396 112/112/112 395/395/395
f 399/399/399 398/398/398 397/397/397
f 400/400/400 398/398/398 399/399/399
f 401/401/401 398/398/398 400/400/400
f 397/397/397 403/403/403 402/402/402
f 398/398/398 403/403/403 397/397/397
f 406/406/406 405/405/405 404/404/404
f 407/407/407 405/405/405 406/406/406
f 410/410/410 409/409/409 408/408/408
f 411/411/411 409/409/409 410/410/410
f 412/412/412 408/408/408 409/409/409
f 413/413/413 408/408/408 412/412/412
f 416/416/416 415/415/415 414/414/414
f 411/411/411 418/418/418 417/417/417
f 410/410/410 418/418/418 411/411/411
f 413/413/413 407/407/407 406/406/406
f 412/412/412 407/407/407 413/413/413
f 404/404/404 420/420/420 419/419/419
f 405/405/405 420/420/420 404/404/404
f 419/419/419 422/422/422 421/421/421
f 420/420/420 422/422/422 419/419/419
f 423/423/423 421/421/421 422/422/422
f 424/424/424 421/421/421 423/423/423
f 402/402/402 424/424/424 423/423/423
f 403/403/403 424/424/424 402/402/402
f 425/425/425 396/396/396 395/395/395
f 426/426/426 396/396/396 425/425/425
f 426/426/426 401/401/401 400/400/400
f 425/425/425 401/401/401 426/426/426
f 414/414/414 428/428/428 427/427/427
f 415/415/415 428/428/428 414/414/414
f 414/414/414 430/430/430 429/429/429
f 431/431/431 430/430/430 414/414/414
f 434/434/434 433/433/433 432/432/432
f 435/435/435 433/433/433 434/434/434
f 156/156/156 437/437/437 436/436/436
f 154/154/154 437/437/437 156/156/156
f 440/440/440 439/439/439 438/438/438
f 441/441/441 439/439/439 440/440/440
f 429/429/429 441/441/441 440/440/440
f 430/430/430 441/441/441 429/429/429
f 438/438/438 432/432/432 433/433/433
f 439/439/439 432/432/432 438/438/438
f 435/435/435 443/443/443 442/442/442
f 434/434/434 443/443/443 435/435/435
f 442/442/442 445/445/445 444/444/444
f 443/443/443 445/445/445 442/442/442
f 444/444/444 447/447/447 446/446/446
f 445/445/445 447/447/447 444/444/444
f 446/446/446 449/449/449 448/448/448
f 447/447/447 449/449/449 446/446/446
f 448/448/448 451/451/451 450/450/450
f 449/449/449 451/451/451 448/448/448
f 454/454/454 453/453/453 452/452/452
f 450/450/450 453/453/453 454/454/454
f 451/451/451 453/453/453 450/450/450
f 452/452/452 456/456/456 455/455/455
f 453/453/453 456/456/456 452/452/452
f 455/455/455 458/458/458 457/457/457
f 456/456/456 458/458/458 455/455/455
f 457/457/457 436/436/436 437/437/437
f 458/458/458 436/436/436 457/457/457
f 459/459/459 180/180/180 182/182/182
f 460/460/460 180/180/180 459/459/459
f 461/461/461 460/460/460 459/459/459
f 464/464/464 463/463/463 462/462/462
f 465/465/465 463/463/463 464/464/464
f 468/468/468 467/467/467 466/466/466
f 469/469/469 467/467/467 468/468/468
f 469/469/469 416/416/416 414/414/414
f 468/468/468 416/416/416 469/469/469
f 466/466/466 465/465/465 464/464/464
f 467/467/467 465/465/465 466/466/466
f 462/462/462 471/471/471 470/470/470
f 463/463/463 471/471/471 462/462/462
f 470/470/470 473/473/473 472/472/472
f 471/471/471 473/473/473 470/470/470
f 472/472/472 475/475/475 474/474/474
f 473/473/473 475/475/475 472/472/472
f 474/474/474 477/477/477 476/476/476
f 475/475/475 477/477/477 474/474/474
f 476/476/476 479/479/479 478/478/478
f 477/477/477 479/479/479 476/476/476
f 479/479/479 480/480/480 478/478/478
f 478/478/478 482/482/482 481/481/481
f 480/480/480 482/482/482 478/478/478
f 482/482/482 483/483/483 481/481/481
f 481/481/481 461/461/461 459/459/459
f 483/483/483 461/461/461 481/481/481
f 415/415/415 416/416/416 484/484/484
f 485/485/485 182/182/182 208/208/208
f 459/459/459 182/182/182 485/485/485
f 464/464/464 462/462/462 486/486/486
f 468/468/468 466/466/466 486/486/486
f 484/484/484 468/468/468 486/486/486
f 416/416/416 468/468/468 484/484/484
f 466/466/466 464/464/464 486/486/486
f 462/462/462 470/470/470 486/486/486
f 486/486/486 472/472/472 487/487/487
f 470/470/470 472/472/472 486/486/486
f 472/472/472 474/474/474 487/487/487
f 474/474/474 476/476/476 487/487/487
f 476/476/476 478/478/478 487/487/487
f 487/487/487 481/481/481 488/488/488
f 478/478/478 481/481/481 487/487/487
f 488/488/488 459/459/459 485/485/485
f 481/481/481 459/459/459 488/488/488
f 399/399/399 397/397/397 489/489/489
f 397/397/397 402/402/402 490/490/490
f 492/492/492 423/423/423 491/491/491
f 402/402/402 423/423/423 492/492/492
f 491/491/491 422/422/422 493/493/493
f 423/423/423 422/422/422 491/491/491
f 422/422/422 494/494/494 493/493/493
f 420/420/420 494/494/494 422/422/422
f 420/420/420 495/495/495 494/494/494
f 405/405/405 495/495/495 420/420/420
f 405/405/405 496/496/496 495/495/495
f 407/407/407 496/496/496 405/405/405
f 407/407/407 497/497/497 496/496/496
f 412/412/412 497/497/497 407/407/407
f 497/497/497 409/409/409 498/498/498
f 412/412/412 409/409/409 497/497/497
f 409/409/409 499/499/499 498/498/498
f 411/411/411 499/499/499 409/409/409
f 499/499/499 417/417/417 500/500/500
f 411/411/411 417/417/417 499/499/499
f 417/417/417 501/501/501 500/500/500
f 227/227/227 502/502/502 228/228/228
f 503/503/503 502/502/502 227/227/227
f 503/503/503 504/504/504 502/502/502
f 505/505/505 504/504/504 503/503/503
f 504/504/504 507/507/507 506/506/506
f 505/505/505 507/507/507 504/504/504
f 506/506/506 509/509/509 508/508/508
f 507/507/507 509/509/509 506/506/506
f 510/510/510 402/402/402 492/492/492
f 490/490/490 402/402/402 510/510/510
f 510/510/510 492/492/492 511/511/511
f 501/501/501 417/417/417 418/418/418
f 240/240/240 513/513/513 512/512/512
f 238/238/238 513/513/513 240/240/240
f 512/512/512 515/515/515 514/514/514
f 513/513/513 515/515/515 512/512/512
f 518/518/518 517/517/517 516/516/516
f 519/519/519 517/517/517 518/518/518
f 522/522/522 521/521/521 520/520/520
f 523/523/523 521/521/521 522/522/522
f 526/526/526 525/525/525 524/524/524
f 527/527/527 525/525/525 526/526/526
f 530/530/530 529/529/529 528/528/528
f 531/531/531 529/529/529 530/530/530
f 534/534/534 533/533/533 532/532/532
f 535/535/535 533/533/533 534/534/534
f 538/538/538 537/537/537 536/536/536
f 539/539/539 537/537/537 538/538/538
f 542/542/542 541/541/541 540/540/540
f 543/543/543 541/541/541 542/542/542
f 546/546/546 545/545/545 544/544/544
f 547/547/547 545/545/545 546/546/546
f 548/548/548 277/277/277 279/279/279
f 549/549/549 277/277/277 548/548/548
f 550/550/550 549/549/549 548/548/548
f 551/551/551 549/549/549 550/550/550
f 554/554/554 553/553/553 552/552/552
f 555/555/555 553/553/553 554/554/554
f 558/558/558 557/557/557 556/556/556
f 559/559/559 557/557/557 558/558/558
f 489/489/489 490/490/490 560/560/560
f 397/397/397 490/490/490 489/489/489
f 560/560/560 490/490/490 561/561/561
f 561/561/561 510/510/510 562/562/562
f 490/490/490 510/510/510 561/561/561
f 562/562/562 510/510/510 563/563/563
f 563/563/563 508/508/508 509/509/509
f 510/510/510 508/508/508 563/563/563
f 510/510/510 511/511/511 508/508/508
f 339/339/339 312/312/312 357/357/357
f 311/311/311 312/312/312 339/339/339
f 564/564/564 372/372/372 339/339/339
f 388/388/388 372/372/372 564/564/564
f 312/312/312 310/310/310 309/309/309
f 313/313/313 310/310/310 312/312/312
f 431/431/431 414/414/414 427/427/427
f 565/565/565 415/415/415 484/484/484
f 428/428/428 415/415/415 565/565/565
usemtl Light.010
f 568/568/568 567/567/567 566/566/566
f 569/569/569 567/567/567 568/568/568
f 570/570/570 569/569/569 568/568/568
f 571/571/571 569/569/569 570/570/570
f 572/572/572 571/571/571 570/570/570
f 573/573/573 571/571/571 572/572/572
f 574/574/574 573/573/573 572/572/572
f 575/575/575 573/573/573 574/574/574
f 576/576/576 575/575/575 574/574/574
f 577/577/577 575/575/575 576/576/576
f 578/578/578 577/577/577 576/576/576
f 579/579/579 577/577/577 578/578/578
f 580/580/580 578/578/578 576/576/576
f 582/582/582 567/567/567 581/581/581
f 566/566/566 567/567/567 582/582/582
f 584/584/584 581/581/581 583/583/583
f 582/582/582 581/581/581 584/584/584
f 586/586/586 583/583/583 585/585/585
f 584/584/584 583/583/583 586/586/586
f 588/588/588 585/585/585 587/587/587
f 586/586/586 585/585/585 588/588/588
f 590/590/590 587/587/587 589/589/589
f 588/588/588 587/587/587 590/590/590
f 592/592/592 589/589/589 591/591/591
f 590/590/590 589/589/589 592/592/592
f 590/590/590 592/592/592 593/593/593
usemtl Exterior.013
f 596/596/596 595/595/595 594/594/594
f 597/597/597 595/595/595 596/596/596
f 598/598/598 597/597/597 596/596/596
f 599/599/599 597/597/597 598/598/598
f 600/600/600 599/599/599 598/598/598
f 601/601/601 599/599/599 600/600/600
f 604/604/604 603/603/603 602/602/602
f 605/605/605 603/603/603 604/604/604
f 608/608/608 607/607/607 606/606/606
f 609/609/609 607/607/607 608/608/608
f 610/610/610 609/609/609 608/608/608
f 611/611/611 609/609/609 610/610/610
f 594/594/594 613/613/613 612/612/612
f 595/595/595 613/613/613 594/594/594
f 597/597/597 614/614/614 595/595/595
f 615/615/615 614/614/614 597/597/597
f 599/599/599 615/615/615 597/597/597
f 616/616/616 615/615/615 599/599/599
f 601/601/601 616/616/616 599/599/599
f 617/617/617 616/616/616 601/601/601
f 605/605/605 618/618/618 603/603/603
f 619/619/619 618/618/618 605/605/605
f 609/609/609 620/620/620 607/607/607
f 621/621/621 620/620/620 609/609/609
f 611/611/611 621/621/621 609/609/609
f 622/622/622 621/621/621 611/611/611
f 595/595/595 623/623/623 613/613/613
f 614/614/614 623/623/623 595/595/595
f 615/615/615 624/624/624 614/614/614
f 625/625/625 624/624/624 615/615/615
f 616/616/616 625/625/625 615/615/615
f 626/626/626 625/625/625 616/616/616
f 617/617/617 626/626/626 616/616/616
f 627/627/627 626/626/626 617/617/617
f 619/619/619 628/628/628 618/618/618
f 629/629/629 628/628/628 619/619/619
f 621/621/621 630/630/630 620/620/620
f 631/631/631 630/630/630 621/621/621
f 622/622/622 631/631/631 621/621/621
f 632/632/632 631/631/631 622/622/622
f 614/614/614 633/633/633 623/623/623
f 624/624/624 633/633/633 614/614/614
f 625/625/625 634/634/634 624/624/624
f 635/635/635 634/634/634 625/625/625
f 626/626/626 635/635/635 625/625/625
f 636/636/636 635/635/635 626/626/626
f 626/626/626 637/637/637 636/636/636
f 627/627/627 637/637/637 626/626/626
f 629/629/629 638/638/638 628/628/628
f 639/639/639 638/638/638 629/629/629
f 631/631/631 640/640/640 630/630/630
f 641/641/641 640/640/640 631/631/631
f 632/632/632 641/641/641 631/631/631
f 642/642/642 641/641/641 632/632/632
f 633/633/633 634/634/634 643/643/643
f 624/624/624 634/634/634 633/633/633
f 602/602/602 601/601/601 600/600/600
f 603/603/603 601/601/601 602/602/602
f 603/603/603 617/617/617 601/601/601
f 618/618/618 617/617/617 603/603/603
f 618/618/618 627/627/627 617/617/617
f 628/628/628 627/627/627 618/618/618
f 628/628/628 637/637/637 627/627/627
f 638/638/638 637/637/637 628/628/628
f 604/604/604 607/607/607 605/605/605
f 606/606/606 607/607/607 604/604/604
f 605/605/605 620/620/620 619/619/619
f 607/607/607 620/620/620 605/605/605
f 619/619/619 630/630/630 629/629/629
f 620/620/620 630/630/630 619/619/619
f 629/629/629 640/640/640 639/639/639
f 630/630/630 640/640/640 629/629/629
f 646/646/646 645/645/645 644/644/644
f 647/647/647 645/645/645 646/646/646
f 649/649/649 644/644/644 648/648/648
f 646/646/646 644/644/644 649/649/649
f 651/651/651 648/648/648 650/650/650
f 649/649/649 648/648/648 651/651/651
f 654/654/654 653/653/653 652/652/652
f 655/655/655 653/653/653 654/654/654
f 658/658/658 657/657/657 656/656/656
f 659/659/659 657/657/657 658/658/658
f 661/661/661 656/656/656 660/660/660
f 658/658/658 656/656/656 661/661/661
f 647/647/647 662/662/662 645/645/645
f 663/663/663 662/662/662 647/647/647
f 644/644/644 665/665/665 664/664/664
f 645/645/645 665/665/665 644/644/644
f 648/648/648 664/664/664 666/666/666
f 644/644/644 664/664/664 648/648/648
f 650/650/650 666/666/666 667/667/667
f 648/648/648 666/666/666 650/650/650
f 652/652/652 669/669/669 668/668/668
f 653/653/653 669/669/669 652/652/652
f 656/656/656 671/671/671 670/670/670
f 657/657/657 671/671/671 656/656/656
f 660/660/660 670/670/670 672/672/672
f 656/656/656 670/670/670 660/660/660
f 645/645/645 673/673/673 665/665/665
f 662/662/662 673/673/673 645/645/645
f 664/664/664 675/675/675 674/674/674
f 665/665/665 675/675/675 664/664/664
f 666/666/666 674/674/674 676/676/676
f 664/664/664 674/674/674 666/666/666
f 667/667/667 676/676/676 677/677/677
f 666/666/666 676/676/676 667/667/667
f 668/668/668 679/679/679 678/678/678
f 669/669/669 679/679/679 668/668/668
f 670/670/670 681/681/681 680/680/680
f 671/671/671 681/681/681 670/670/670
f 672/672/672 680/680/680 682/682/682
f 670/670/670 680/680/680 672/672/672
f 665/665/665 683/683/683 675/675/675
f 673/673/673 683/683/683 665/665/665
f 674/674/674 685/685/685 684/684/684
f 675/675/675 685/685/685 674/674/674
f 676/676/676 684/684/684 686/686/686
f 674/674/674 684/684/684 676/676/676
f 676/676/676 687/687/687 677/677/677
f 686/686/686 687/687/687 676/676/676
f 678/678/678 689/689/689 688/688/688
f 679/679/679 689/689/689 678/678/678
f 680/680/680 691/691/691 690/690/690
f 681/681/681 691/691/691 680/680/680
f 682/682/682 690/690/690 692/692/692
f 680/680/680 690/690/690 682/682/682
f 683/683/683 685/685/685 675/675/675
f 693/693/693 685/685/685 683/683/683
f 655/655/655 650/650/650 653/653/653
f 651/651/651 650/650/650 655/655/655
f 653/653/653 667/667/667 669/669/669
f 650/650/650 667/667/667 653/653/653
f 669/669/669 677/677/677 679/679/679
f 667/667/667 677/677/677 669/669/669
f 679/679/679 687/687/687 689/689/689
f 677/677/677 687/687/687 679/679/679
f 654/654/654 657/657/657 659/659/659
f 652/652/652 657/657/657 654/654/654
f 652/652/652 671/671/671 657/657/657
f 668/668/668 671/671/671 652/652/652
f 668/668/668 681/681/681 671/671/671
f 678/678/678 681/681/681 668/668/668
f 678/678/678 691/691/691 681/681/681
f 688/688/688 691/691/691 678/678/678
