# Exported from Godot Engine
mtllib Stoplights_Projections.mtl
o Stoplights_Projections
v -4.625928 0.000000 -0.150778
vt -1.248902 -0.844949
vn 0.000000 1.000000 -0.000015
v -3.139331 0.000000 -1.032577
vt -1.248902 -0.097852
vn 0.000000 1.000000 -0.000015
v -2.922836 0.000000 2.720410
vt -1.741991 -0.844949
vn 0.000000 1.000000 -0.000015
v -1.436239 0.000000 1.838611
vt -1.741991 -0.097852
vn 0.000000 1.000000 -0.000015
v -2.969141 -0.000209 -2.858716
vt -1.253096 -0.856766
vn 0.000000 1.000000 -0.000015
v -1.383270 -0.000209 -2.078320
vt -1.253096 -0.092797
vn 0.000000 1.000000 -0.000015
v -4.547593 -0.000210 0.348916
vt -1.781144 -0.856766
vn 0.000000 1.000000 -0.000015
v -2.961722 -0.000210 1.129311
vt -1.781144 -0.092797
vn 0.000000 1.000000 -0.000015
usemtl Stoplights_Projection
f 3/3/3 2/2/2 1/1/1
f 4/4/4 2/2/2 3/3/3
f 7/7/7 6/6/6 5/5/5
f 8/8/8 6/6/6 7/7/7
