# Exported from Godot Engine
mtllib Window_RF.mtl
o Window_RF
v 0.340654 1.075483 0.866208
vt 1.351746 0.672486
vn -0.010798 -0.227173 -0.973795
v 0.505125 1.068843 0.864729
vt 1.238819 0.672950
vn -0.020874 -0.221183 -0.975009
v 0.312318 1.192051 0.839257
vt 1.374540 0.749356
vn -0.009295 -0.257499 -0.966234
v 0.478306 1.174139 0.841321
vt 1.260252 0.742352
vn -0.019086 -0.248376 -0.968476
v 0.669637 1.062672 0.861407
vt 1.125881 0.673730
vn -0.030568 -0.214760 -0.976188
v 0.643705 1.152836 0.842353
vt 1.146264 0.733070
vn -0.029086 -0.237786 -0.970882
v 0.243545 1.496960 0.726182
vt 1.430505 0.950583
vn -0.006284 -0.410057 -0.912038
v 0.070492 1.529357 0.710752
vt 1.550056 0.967033
vn 0.003499 -0.424124 -0.905597
v 0.264926 1.400398 0.769167
vt 1.413056 0.886845
vn -0.007968 -0.378458 -0.925584
v 0.094190 1.427244 0.758569
vt 1.530859 0.899662
vn 0.001885 -0.393136 -0.919478
v 0.146129 1.206968 0.836046
vt 1.488883 0.754355
vn 0.000563 -0.265011 -0.964245
v 0.176235 1.083197 0.865737
vt 1.464668 0.672737
vn -0.000883 -0.232706 -0.972547
v 0.287872 1.297186 0.807577
vt 1.394340 0.818718
vn -0.008489 -0.320168 -0.947323
v 0.119630 1.318316 0.801102
vt 1.510269 0.827800
vn 0.001285 -0.331112 -0.943590
v 0.433934 1.363271 0.781390
vt 1.296137 0.867120
vn -0.017991 -0.358772 -0.933252
v 0.599673 1.315531 0.794804
vt 1.181152 0.840225
vn -0.027771 -0.333651 -0.942287
v 0.413201 1.451191 0.745028
vt 1.312891 0.925118
vn -0.015995 -0.390311 -0.920544
v 0.578306 1.391925 0.766291
vt 1.198011 0.890518
vn -0.025480 -0.364859 -0.930714
v 0.455363 1.269421 0.814179
vt 1.278735 0.805191
vn -0.018498 -0.305587 -0.951985
v 0.621172 1.234650 0.820665
vt 1.164078 0.786943
vn -0.028600 -0.287282 -0.957419
v -0.192530 1.555891 0.694055
vt 1.731664 0.976784
vn 0.014878 -0.435496 -0.900068
v -0.163511 1.451625 0.745302
vt 1.708759 0.908135
vn 0.014567 -0.410890 -0.911568
v -0.104753 1.549647 0.698849
vt 1.670760 0.975345
vn 0.010668 -0.431918 -0.901850
v -0.077524 1.445207 0.749508
vt 1.649074 0.906529
vn 0.009561 -0.402614 -0.915320
v -0.133255 1.339501 0.791194
vt 1.684773 0.834283
vn 0.013879 -0.348118 -0.937348
v -0.048949 1.333578 0.794562
vt 1.626258 0.832959
vn 0.008970 -0.339729 -0.940481
v -0.103048 1.224424 0.829111
vt 1.660738 0.758465
vn 0.012996 -0.279415 -0.960082
v -0.020024 1.219172 0.831722
vt 1.603124 0.757548
vn 0.008190 -0.271931 -0.962282
v -0.070342 1.095944 0.861511
vt 1.634606 0.673785
vn 0.012277 -0.239720 -0.970764
v 0.011851 1.091626 0.863362
vt 1.577585 0.673464
vn 0.006899 -0.236927 -0.971503
v 0.786467 1.193696 0.826451
vt 1.050433 0.764538
vn -0.034163 -0.269862 -0.962293
v 0.809713 1.128295 0.842146
vt 1.032628 0.721680
vn -0.034881 -0.225899 -0.973526
v 0.763421 1.258489 0.808135
vt 1.068079 0.806992
vn -0.033687 -0.310374 -0.950018
v 0.740098 1.319395 0.788431
vt 1.085804 0.846851
vn -0.033273 -0.340749 -0.939565
v 0.835340 1.056081 0.856409
vt 1.012998 0.674360
vn -0.035173 -0.211598 -0.976724
v 0.478345 1.174639 0.843258
vt 1.261978 0.741993
vn 0.019182 0.248464 0.968451
v 0.505165 1.069287 0.866679
vt 1.240499 0.672410
vn 0.020481 0.221469 0.974952
v 0.312337 1.192569 0.841189
vt 1.376522 0.749022
vn 0.009275 0.257383 0.966265
v 0.340674 1.075939 0.868155
vt 1.353677 0.671950
vn 0.010371 0.227404 0.973745
v 0.643765 1.153314 0.844294
vt 1.147740 0.732679
vn 0.029066 0.237760 0.970889
v 0.669697 1.063103 0.863359
vt 1.127312 0.673186
vn 0.031076 0.214364 0.976259
v 0.094186 1.428030 0.760408
vt 1.533190 0.899823
vn -0.001905 0.393071 0.919506
v 0.070488 1.530202 0.712564
vt 1.551664 0.967768
vn -0.003520 0.424108 0.905605
v 0.264943 1.401156 0.771018
vt 1.415124 0.886959
vn 0.007988 0.378392 0.925611
v 0.243561 1.497774 0.728008
vt 1.431696 0.951244
vn 0.006263 0.409928 0.912097
v 0.176235 1.083663 0.867682
vt 1.466847 0.672208
vn 0.000865 0.232767 0.972532
v 0.146128 1.207501 0.837974
vt 1.491115 0.754041
vn -0.000619 0.264959 0.964260
v 0.119627 1.318978 0.802989
vt 1.512549 0.827725
vn -0.001305 0.331095 0.943597
v 0.287890 1.297827 0.809472
vt 1.396366 0.818613
vn 0.008783 0.320092 0.947346
v 0.578363 1.392638 0.768159
vt 1.198391 0.890911
vn 0.025581 0.364771 0.930746
v 0.599730 1.316199 0.796688
vt 1.182706 0.840182
vn 0.027873 0.333657 0.942282
v 0.413237 1.451961 0.746874
vt 1.313674 0.925663
vn 0.016097 0.390273 0.920558
v 0.433971 1.363989 0.783256
vt 1.297947 0.867168
vn 0.017971 0.358790 0.933245
v 0.621230 1.235225 0.822580
vt 1.165593 0.786728
vn 0.028462 0.287362 0.957399
v 0.455400 1.270032 0.816083
vt 1.280503 0.805037
vn 0.018478 0.305558 0.951994
v -0.077545 1.446011 0.751339
vt 1.651664 0.906714
vn -0.009622 0.402611 0.915320
v -0.163540 1.452433 0.747129
vt 1.710913 0.908646
vn -0.014630 0.411183 0.911435
v -0.104775 1.550511 0.700653
vt 1.672786 0.976121
vn -0.010729 0.431769 0.901920
v -0.192560 1.556762 0.695855
vt 1.733341 0.977682
vn -0.014940 0.435495 0.900067
v -0.048969 1.334255 0.796444
vt 1.628796 0.832906
vn -0.009030 0.339771 0.940465
v -0.133283 1.340182 0.793073
vt 1.686845 0.834463
vn -0.013935 0.347492 0.937580
v -0.020043 1.219715 0.833646
vt 1.605607 0.757249
vn -0.008132 0.271894 0.962293
v -0.103073 1.224971 0.831033
vt 1.662724 0.758300
vn -0.013015 0.279397 0.960087
v 0.011834 1.092102 0.865305
vt 1.580014 0.672945
vn -0.006917 0.236866 0.971518
v -0.070367 1.096424 0.863453
vt 1.636499 0.673290
vn -0.012333 0.239667 0.970777
v 0.809782 1.128763 0.844089
vt 1.032438 0.721340
vn 0.034900 0.225881 0.973530
v 0.786535 1.194252 0.828370
vt 1.050302 0.764398
vn 0.034183 0.269889 0.962284
v 0.763488 1.259130 0.810028
vt 1.068016 0.807053
vn 0.033667 0.310392 0.950012
v 0.740165 1.320076 0.790310
vt 1.085005 0.847202
vn 0.033294 0.340779 0.939554
v 0.835410 1.056504 0.858362
vt 1.012738 0.673831
vn 0.035192 0.211580 0.976727
v 0.243561 1.497774 0.728008
vt 1.431696 0.951244
vn 0.241989 0.886085 -0.395342
v 0.070488 1.530202 0.712564
vt 1.551664 0.967768
vn 0.168013 0.894203 -0.414937
v 0.243545 1.496960 0.726182
vt 1.430766 0.951072
vn 0.241737 0.886106 -0.395449
v 0.070492 1.529357 0.710752
vt 1.550869 0.967595
vn 0.167821 0.894189 -0.415045
v 0.578363 1.392638 0.768159
vt 1.198391 0.890911
vn 0.390296 0.855067 -0.341364
v 0.413237 1.451961 0.746874
vt 1.313674 0.925663
vn 0.318614 0.873057 -0.369128
v 0.578306 1.391925 0.766291
vt 1.197198 0.890728
vn 0.389915 0.855217 -0.341424
v 0.413201 1.451191 0.745028
vt 1.312609 0.925488
vn 0.318245 0.873149 -0.369230
v -0.192560 1.556762 0.695855
vt 1.733341 0.977682
vn -0.970007 -0.226210 0.088974
v -0.163540 1.452433 0.747129
vt 1.710913 0.908646
vn -0.970099 -0.228023 0.083150
v -0.192530 1.555891 0.694055
vt 1.733317 0.977391
vn -0.970007 -0.226210 0.088974
v -0.163511 1.451625 0.745302
vt 1.710306 0.908427
vn -0.970099 -0.228023 0.083150
v -0.104775 1.550511 0.700653
vt 1.672786 0.976121
vn 0.117640 0.897206 -0.425655
v -0.192560 1.556762 0.695855
vt 1.733341 0.977682
vn 0.087505 0.898049 -0.431104
v -0.104753 1.549647 0.698849
vt 1.672132 0.975947
vn 0.117640 0.897206 -0.425655
v -0.192530 1.555891 0.694055
vt 1.733317 0.977391
vn 0.087505 0.898049 -0.431104
v -0.133283 1.340182 0.793073
vt 1.686845 0.834463
vn -0.970214 -0.232020 0.069654
v -0.133255 1.339501 0.791194
vt 1.686210 0.834234
vn -0.970210 -0.231999 0.069776
v -0.103073 1.224971 0.831033
vt 1.662724 0.758300
vn -0.970560 -0.234316 0.055766
v -0.103048 1.224424 0.829111
vt 1.662063 0.758064
vn -0.970560 -0.234316 0.055766
v -0.070367 1.096424 0.863453
vt 1.636499 0.673290
vn -0.970816 -0.234627 0.049660
v -0.070342 1.095944 0.861511
vt 1.635811 0.672994
vn -0.970816 -0.234627 0.049660
v 0.809782 1.128763 0.844089
vt 1.032438 0.721340
vn 0.944028 0.310829 -0.110436
v 0.786535 1.194252 0.828370
vt 1.050302 0.764398
vn 0.944924 0.303935 -0.121419
v 0.809713 1.128295 0.842146
vt 1.031050 0.721108
vn 0.944012 0.310907 -0.110351
v 0.786467 1.193696 0.826451
vt 1.048938 0.764163
vn 0.944933 0.303924 -0.121373
v 0.763488 1.259130 0.810028
vt 1.068016 0.807053
vn 0.942120 0.306732 -0.135370
v 0.763421 1.258489 0.808135
vt 1.066666 0.806818
vn 0.942222 0.306528 -0.135125
v 0.740165 1.320076 0.790310
vt 1.085005 0.847202
vn 0.423507 0.844383 -0.328114
v 0.740098 1.319395 0.788431
vt 1.084472 0.846858
vn 0.423507 0.844383 -0.328114
v 0.740165 1.320076 0.790310
vt 1.085005 0.847202
vn 0.938865 0.313210 -0.142939
v 0.740098 1.319395 0.788431
vt 1.084472 0.846858
vn 0.938865 0.313210 -0.142939
v 0.835410 1.056504 0.858362
vt 1.012738 0.673831
vn 0.943575 0.313887 -0.105551
v 0.835340 1.056081 0.856409
vt 1.011331 0.673570
vn 0.943575 0.313887 -0.105551
usemtl Glass_Interior
f 3/3/3 2/2/2 1/1/1
f 4/4/4 2/2/2 3/3/3
f 4/4/4 5/5/5 2/2/2
f 6/6/6 5/5/5 4/4/4
f 9/9/9 8/8/8 7/7/7
f 10/10/10 8/8/8 9/9/9
f 1/1/1 11/11/11 3/3/3
f 12/12/12 11/11/11 1/1/1
f 3/3/3 14/14/14 13/13/13
f 11/11/11 14/14/14 3/3/3
f 13/13/13 10/10/10 9/9/9
f 14/14/14 10/10/10 13/13/13
f 17/17/17 16/16/16 15/15/15
f 18/18/18 16/16/16 17/17/17
f 15/15/15 20/20/20 19/19/19
f 16/16/16 20/20/20 15/15/15
f 19/19/19 6/6/6 4/4/4
f 20/20/20 6/6/6 19/19/19
f 7/7/7 15/15/15 9/9/9
f 17/17/17 15/15/15 7/7/7
f 9/9/9 19/19/19 13/13/13
f 15/15/15 19/19/19 9/9/9
f 13/13/13 4/4/4 3/3/3
f 19/19/19 4/4/4 13/13/13
f 23/23/23 22/22/22 21/21/21
f 24/24/24 22/22/22 23/23/23
f 24/24/24 25/25/25 22/22/22
f 26/26/26 25/25/25 24/24/24
f 26/26/26 27/27/27 25/25/25
f 28/28/28 27/27/27 26/26/26
f 27/27/27 30/30/30 29/29/29
f 28/28/28 30/30/30 27/27/27
f 31/31/31 6/6/6 20/20/20
f 32/32/32 6/6/6 31/31/31
f 33/33/33 20/20/20 16/16/16
f 31/31/31 20/20/20 33/33/33
f 34/34/34 16/16/16 18/18/18
f 33/33/33 16/16/16 34/34/34
f 6/6/6 35/35/35 5/5/5
f 32/32/32 35/35/35 6/6/6
f 12/12/12 28/28/28 11/11/11
f 30/30/30 28/28/28 12/12/12
f 11/11/11 26/26/26 14/14/14
f 28/28/28 26/26/26 11/11/11
f 14/14/14 24/24/24 10/10/10
f 26/26/26 24/24/24 14/14/14
f 10/10/10 23/23/23 8/8/8
f 24/24/24 23/23/23 10/10/10
usemtl Glass
f 38/38/38 37/37/37 36/36/36
f 39/39/39 37/37/37 38/38/38
f 36/36/36 41/41/41 40/40/40
f 37/37/37 41/41/41 36/36/36
f 44/44/44 43/43/43 42/42/42
f 45/45/45 43/43/43 44/44/44
f 39/39/39 47/47/47 46/46/46
f 38/38/38 47/47/47 39/39/39
f 38/38/38 48/48/48 47/47/47
f 49/49/49 48/48/48 38/38/38
f 49/49/49 42/42/42 48/48/48
f 44/44/44 42/42/42 49/49/49
f 52/52/52 51/51/51 50/50/50
f 53/53/53 51/51/51 52/52/52
f 53/53/53 54/54/54 51/51/51
f 55/55/55 54/54/54 53/53/53
f 55/55/55 40/40/40 54/54/54
f 36/36/36 40/40/40 55/55/55
f 45/45/45 53/53/53 52/52/52
f 44/44/44 53/53/53 45/45/45
f 44/44/44 55/55/55 53/53/53
f 49/49/49 55/55/55 44/44/44
f 49/49/49 36/36/36 55/55/55
f 38/38/38 36/36/36 49/49/49
f 58/58/58 57/57/57 56/56/56
f 59/59/59 57/57/57 58/58/58
f 56/56/56 61/61/61 60/60/60
f 57/57/57 61/61/61 56/56/56
f 60/60/60 63/63/63 62/62/62
f 61/61/61 63/63/63 60/60/60
f 63/63/63 64/64/64 62/62/62
f 65/65/65 64/64/64 63/63/63
f 67/67/67 40/40/40 66/66/66
f 54/54/54 40/40/40 67/67/67
f 68/68/68 54/54/54 67/67/67
f 51/51/51 54/54/54 68/68/68
f 69/69/69 51/51/51 68/68/68
f 50/50/50 51/51/51 69/69/69
f 40/40/40 70/70/70 66/66/66
f 41/41/41 70/70/70 40/40/40
f 46/46/46 62/62/62 64/64/64
f 47/47/47 62/62/62 46/46/46
f 47/47/47 60/60/60 62/62/62
f 48/48/48 60/60/60 47/47/47
f 48/48/48 56/56/56 60/60/60
f 42/42/42 56/56/56 48/48/48
f 42/42/42 58/58/58 56/56/56
f 43/43/43 58/58/58 42/42/42
f 73/73/73 72/72/72 71/71/71
f 74/74/74 72/72/72 73/73/73
f 77/77/77 76/76/76 75/75/75
f 78/78/78 76/76/76 77/77/77
f 78/78/78 71/71/71 76/76/76
f 73/73/73 71/71/71 78/78/78
f 81/81/81 80/80/80 79/79/79
f 82/82/82 80/80/80 81/81/81
f 85/85/85 84/84/84 83/83/83
f 86/86/86 84/84/84 85/85/85
f 82/82/82 87/87/87 80/80/80
f 88/88/88 87/87/87 82/82/82
f 88/88/88 89/89/89 87/87/87
f 90/90/90 89/89/89 88/88/88
f 90/90/90 91/91/91 89/89/89
f 92/92/92 91/91/91 90/90/90
f 95/95/95 94/94/94 93/93/93
f 96/96/96 94/94/94 95/95/95
f 96/96/96 97/97/97 94/94/94
f 98/98/98 97/97/97 96/96/96
f 100/100/100 75/75/75 99/99/99
f 77/77/77 75/75/75 100/100/100
f 98/98/98 101/101/101 97/97/97
f 102/102/102 101/101/101 98/98/98
f 104/104/104 93/93/93 103/103/103
f 95/95/95 93/93/93 104/104/104
f 74/74/74 83/83/83 72/72/72
f 85/85/85 83/83/83 74/74/74
