# Exported from Godot Engine
mtllib Window_LF.mtl
o Window_LF
v 0.478306 1.174140 -0.841321
vt 1.260252 0.742352
vn -0.019105 -0.248402 0.968469
v 0.505125 1.068843 -0.864729
vt 1.238819 0.672950
vn -0.020931 -0.221217 0.975000
v 0.312318 1.192051 -0.839257
vt 1.374540 0.749356
vn -0.009314 -0.257526 0.966226
v 0.340654 1.075484 -0.866207
vt 1.351746 0.672486
vn -0.010817 -0.227241 0.973778
v 0.643705 1.152836 -0.842352
vt 1.146264 0.733070
vn -0.029106 -0.237813 0.970875
v 0.669637 1.062673 -0.861407
vt 1.125881 0.673730
vn -0.030701 -0.214722 0.976193
v 0.094190 1.427245 -0.758569
vt 1.530859 0.899662
vn 0.001986 -0.392810 0.919618
v 0.070492 1.529357 -0.710751
vt 1.550056 0.967033
vn 0.003479 -0.424141 0.905589
v 0.264926 1.400398 -0.769167
vt 1.413056 0.886845
vn -0.008110 -0.378627 0.925514
v 0.243545 1.496961 -0.726181
vt 1.430505 0.950583
vn -0.006506 -0.409627 0.912230
v 0.176235 1.083197 -0.865737
vt 1.464668 0.672737
vn -0.000902 -0.232732 0.972541
v 0.146129 1.206969 -0.836046
vt 1.488883 0.754355
vn 0.000582 -0.264905 0.964274
v 0.119630 1.318316 -0.801102
vt 1.510269 0.827800
vn 0.001266 -0.331130 0.943584
v 0.287872 1.297186 -0.807577
vt 1.394340 0.818718
vn -0.008822 -0.320151 0.947326
v 0.578306 1.391925 -0.766291
vt 1.198011 0.890518
vn -0.025501 -0.364939 0.930682
v 0.599673 1.315532 -0.794804
vt 1.181152 0.840225
vn -0.027833 -0.333741 0.942254
v 0.413201 1.451192 -0.745028
vt 1.312891 0.925118
vn -0.016015 -0.390342 0.920531
v 0.433934 1.363271 -0.781389
vt 1.296137 0.867120
vn -0.018012 -0.358851 0.933221
v 0.621172 1.234650 -0.820665
vt 1.164078 0.786943
vn -0.028304 -0.287413 0.957389
v 0.455363 1.269421 -0.814178
vt 1.278735 0.805191
vn -0.018518 -0.305616 0.951975
v -0.077524 1.445207 -0.749507
vt 1.649074 0.906529
vn 0.010071 -0.402481 0.915373
v -0.164578 1.451343 -0.745295
vt 1.708759 0.908135
vn 0.015867 -0.410798 0.911588
v -0.104753 1.549647 -0.698849
vt 1.670760 0.975345
vn 0.011267 -0.431727 0.901934
v -0.193597 1.555610 -0.694049
vt 1.731664 0.976784
vn 0.016190 -0.435228 0.900175
v -0.048949 1.333579 -0.794562
vt 1.626258 0.832959
vn 0.009267 -0.339704 0.940487
v -0.134322 1.339219 -0.791187
vt 1.684773 0.834283
vn 0.014975 -0.347201 0.937671
v -0.020024 1.219172 -0.831721
vt 1.603124 0.757548
vn 0.008399 -0.271828 0.962309
v -0.104114 1.224142 -0.829104
vt 1.660738 0.758465
vn 0.013785 -0.279008 0.960190
v 0.011851 1.091627 -0.863362
vt 1.577585 0.673464
vn 0.007066 -0.236900 0.971508
v -0.071409 1.095663 -0.861505
vt 1.634606 0.673785
vn 0.013086 -0.239531 0.970800
v 0.809713 1.128296 -0.842146
vt 1.032628 0.721680
vn -0.034903 -0.226013 0.973499
v 0.786467 1.193696 -0.826451
vt 1.050433 0.764538
vn -0.034224 -0.269945 0.962267
v 0.763421 1.258490 -0.808135
vt 1.068079 0.806992
vn -0.033710 -0.310497 0.949976
v 0.740098 1.319395 -0.788430
vt 1.085804 0.846851
vn -0.033336 -0.340840 0.939530
v 0.835340 1.056082 -0.856408
vt 1.012998 0.674360
vn -0.035231 -0.211631 0.976714
v 0.340674 1.075939 -0.868155
vt 1.353677 0.671950
vn 0.010836 0.227224 -0.973782
v 0.505165 1.069287 -0.866678
vt 1.240499 0.672410
vn 0.020613 0.221432 -0.974958
v 0.312337 1.192569 -0.841189
vt 1.376522 0.749022
vn 0.009333 0.257553 -0.966219
v 0.478345 1.174639 -0.843257
vt 1.261978 0.741993
vn 0.019202 0.248536 -0.968432
v 0.669697 1.063103 -0.863359
vt 1.127312 0.673186
vn 0.030720 0.214704 -0.976196
v 0.643765 1.153314 -0.844294
vt 1.147740 0.732679
vn 0.029127 0.237928 -0.970846
v 0.243561 1.497774 -0.728008
vt 1.431696 0.951244
vn 0.006405 0.409907 -0.912105
v 0.070488 1.530202 -0.712564
vt 1.551664 0.967768
vn -0.003540 0.424091 -0.905613
v 0.264943 1.401156 -0.771017
vt 1.415124 0.886959
vn 0.007927 0.378347 -0.925630
v 0.094186 1.428031 -0.760408
vt 1.533190 0.899823
vn -0.002126 0.392594 -0.919710
v 0.146128 1.207501 -0.837973
vt 1.491115 0.754041
vn -0.000600 0.264887 -0.964279
v 0.176235 1.083663 -0.867682
vt 1.466847 0.672208
vn 0.000920 0.232844 -0.972514
v 0.287890 1.297827 -0.809471
vt 1.396366 0.818613
vn 0.008802 0.320121 -0.947336
v 0.119627 1.318978 -0.802989
vt 1.512549 0.827725
vn -0.001324 0.331078 -0.943603
v 0.433971 1.363989 -0.783256
vt 1.297947 0.867168
vn 0.018113 0.358908 -0.933197
v 0.599730 1.316199 -0.796688
vt 1.182706 0.840182
vn 0.027935 0.333747 -0.942249
v 0.413237 1.451961 -0.746873
vt 1.313674 0.925663
vn 0.016037 0.390423 -0.920496
v 0.578363 1.392638 -0.768158
vt 1.198391 0.890911
vn 0.025603 0.364851 -0.930714
v 0.455400 1.270032 -0.816082
vt 1.280503 0.805037
vn 0.018538 0.305645 -0.951965
v 0.621230 1.235225 -0.822580
vt 1.165593 0.786728
vn 0.029038 0.287350 -0.957385
v -0.193627 1.556481 -0.695849
vt 1.733341 0.977682
vn -0.016210 0.435161 -0.900207
v -0.164607 1.452152 -0.747123
vt 1.710913 0.908646
vn -0.015927 0.410500 -0.911721
v -0.104775 1.550512 -0.700652
vt 1.672786 0.976121
vn -0.011329 0.431726 -0.901933
v -0.077545 1.446011 -0.751339
vt 1.651664 0.906714
vn -0.010132 0.402478 -0.915373
v -0.134350 1.339900 -0.793066
vt 1.686845 0.834463
vn -0.015035 0.347196 -0.937672
v -0.048969 1.334255 -0.796444
vt 1.628796 0.832906
vn -0.009327 0.339699 -0.940488
v -0.104140 1.224689 -0.831027
vt 1.662724 0.758300
vn -0.013805 0.279081 -0.960168
v -0.020043 1.219716 -0.833646
vt 1.605607 0.757249
vn -0.008419 0.271900 -0.962288
v -0.071433 1.096142 -0.863447
vt 1.636499 0.673290
vn -0.013105 0.239557 -0.970794
v 0.011834 1.092102 -0.865305
vt 1.580014 0.672945
vn -0.007122 0.236891 -0.971510
v 0.786535 1.194252 -0.828370
vt 1.050302 0.764398
vn 0.034233 0.269422 -0.962413
v 0.809782 1.128763 -0.844089
vt 1.032438 0.721340
vn 0.034921 0.225951 -0.973513
v 0.763488 1.259130 -0.810028
vt 1.068016 0.807053
vn 0.033731 0.310527 -0.949966
v 0.740165 1.320077 -0.790309
vt 1.085005 0.847202
vn 0.033315 0.340810 -0.939542
v 0.835410 1.056505 -0.858362
vt 1.012738 0.673831
vn 0.035213 0.211649 -0.976711
v 0.070492 1.529357 -0.710751
vt 1.550869 0.967595
vn 0.167753 0.894161 0.415133
v 0.070488 1.530202 -0.712564
vt 1.551664 0.967768
vn 0.168092 0.894154 0.415012
v 0.243545 1.496961 -0.726181
vt 1.430766 0.951072
vn 0.241667 0.886083 0.395543
v 0.243561 1.497774 -0.728008
vt 1.431696 0.951244
vn 0.241973 0.886042 0.395447
v 0.413201 1.451192 -0.745028
vt 1.312609 0.925488
vn 0.318184 0.873106 0.369385
v 0.413237 1.451961 -0.746873
vt 1.313674 0.925663
vn 0.318601 0.873016 0.369237
v 0.578306 1.391925 -0.766291
vt 1.197198 0.890728
vn 0.390448 0.854967 0.341440
v 0.578363 1.392638 -0.768158
vt 1.198391 0.890911
vn 0.390658 0.854905 0.341356
v -0.164578 1.451343 -0.745295
vt 1.710306 0.908427
vn -0.970093 -0.227986 -0.083314
v -0.164607 1.452152 -0.747123
vt 1.710913 0.908646
vn -0.970099 -0.227978 -0.083273
v -0.193597 1.555610 -0.694049
vt 1.733317 0.977391
vn -0.970006 -0.226195 -0.089015
v -0.193627 1.556481 -0.695849
vt 1.733341 0.977682
vn -0.970006 -0.226195 -0.089015
v -0.193597 1.555610 -0.694049
vt 1.733317 0.977391
vn 0.083562 0.898306 0.431352
v -0.193627 1.556481 -0.695849
vt 1.733341 0.977682
vn 0.083562 0.898306 0.431352
v -0.104753 1.549647 -0.698849
vt 1.672132 0.975947
vn 0.116066 0.897318 0.425852
v -0.104775 1.550512 -0.700652
vt 1.672786 0.976121
vn 0.116300 0.897303 0.425820
v -0.134322 1.339219 -0.791187
vt 1.686210 0.834234
vn -0.970206 -0.231992 -0.069858
v -0.134350 1.339900 -0.793066
vt 1.686845 0.834463
vn -0.970206 -0.231992 -0.069858
v -0.104114 1.224142 -0.829104
vt 1.662063 0.758064
vn -0.970557 -0.234309 -0.055846
v -0.104140 1.224689 -0.831027
vt 1.662724 0.758300
vn -0.970568 -0.234264 -0.055844
v -0.071409 1.095663 -0.861505
vt 1.635811 0.672994
vn -0.970826 -0.234596 -0.049619
v -0.071433 1.096142 -0.863447
vt 1.636499 0.673290
vn -0.970826 -0.234596 -0.049619
v 0.786467 1.193696 -0.826451
vt 1.048938 0.764163
vn 0.944932 0.303910 0.121418
v 0.786535 1.194252 -0.828370
vt 1.050302 0.764398
vn 0.944921 0.303891 0.121552
v 0.809713 1.128296 -0.842146
vt 1.031050 0.721108
vn 0.944003 0.310904 0.110440
v 0.809782 1.128763 -0.844089
vt 1.032438 0.721340
vn 0.943997 0.310999 0.110221
v 0.763421 1.258490 -0.808135
vt 1.066666 0.806818
vn 0.942217 0.306484 0.135260
v 0.763488 1.259130 -0.810028
vt 1.068016 0.807053
vn 0.942125 0.306677 0.135458
v 0.740098 1.319395 -0.788430
vt 1.084472 0.846858
vn 0.423453 0.844348 0.328275
v 0.740165 1.320077 -0.790309
vt 1.085005 0.847202
vn 0.423453 0.844348 0.328275
v 0.740098 1.319395 -0.788430
vt 1.084472 0.846858
vn 0.938859 0.313166 0.143076
v 0.740165 1.320077 -0.790309
vt 1.085005 0.847202
vn 0.938859 0.313166 0.143076
v 0.835340 1.056082 -0.856408
vt 1.011331 0.673570
vn 0.943566 0.313884 0.105640
v 0.835410 1.056505 -0.858362
vt 1.012738 0.673831
vn 0.943566 0.313884 0.105640
usemtl Glass_Interior
f 3/3/3 2/2/2 1/1/1
f 4/4/4 2/2/2 3/3/3
f 1/1/1 6/6/6 5/5/5
f 2/2/2 6/6/6 1/1/1
f 9/9/9 8/8/8 7/7/7
f 10/10/10 8/8/8 9/9/9
f 4/4/4 12/12/12 11/11/11
f 3/3/3 12/12/12 4/4/4
f 3/3/3 13/13/13 12/12/12
f 14/14/14 13/13/13 3/3/3
f 14/14/14 7/7/7 13/13/13
f 9/9/9 7/7/7 14/14/14
f 17/17/17 16/16/16 15/15/15
f 18/18/18 16/16/16 17/17/17
f 18/18/18 19/19/19 16/16/16
f 20/20/20 19/19/19 18/18/18
f 20/20/20 5/5/5 19/19/19
f 1/1/1 5/5/5 20/20/20
f 10/10/10 18/18/18 17/17/17
f 9/9/9 18/18/18 10/10/10
f 9/9/9 20/20/20 18/18/18
f 14/14/14 20/20/20 9/9/9
f 14/14/14 1/1/1 20/20/20
f 3/3/3 1/1/1 14/14/14
f 23/23/23 22/22/22 21/21/21
f 24/24/24 22/22/22 23/23/23
f 21/21/21 26/26/26 25/25/25
f 22/22/22 26/26/26 21/21/21
f 25/25/25 28/28/28 27/27/27
f 26/26/26 28/28/28 25/25/25
f 28/28/28 29/29/29 27/27/27
f 30/30/30 29/29/29 28/28/28
f 32/32/32 5/5/5 31/31/31
f 19/19/19 5/5/5 32/32/32
f 33/33/33 19/19/19 32/32/32
f 16/16/16 19/19/19 33/33/33
f 34/34/34 16/16/16 33/33/33
f 15/15/15 16/16/16 34/34/34
f 5/5/5 35/35/35 31/31/31
f 6/6/6 35/35/35 5/5/5
f 11/11/11 27/27/27 29/29/29
f 12/12/12 27/27/27 11/11/11
f 12/12/12 25/25/25 27/27/27
f 13/13/13 25/25/25 12/12/12
f 13/13/13 21/21/21 25/25/25
f 7/7/7 21/21/21 13/13/13
f 7/7/7 23/23/23 21/21/21
f 8/8/8 23/23/23 7/7/7
usemtl Glass
f 38/38/38 37/37/37 36/36/36
f 39/39/39 37/37/37 38/38/38
f 39/39/39 40/40/40 37/37/37
f 41/41/41 40/40/40 39/39/39
f 44/44/44 43/43/43 42/42/42
f 45/45/45 43/43/43 44/44/44
f 36/36/36 46/46/46 38/38/38
f 47/47/47 46/46/46 36/36/36
f 38/38/38 49/49/49 48/48/48
f 46/46/46 49/49/49 38/38/38
f 48/48/48 45/45/45 44/44/44
f 49/49/49 45/45/45 48/48/48
f 52/52/52 51/51/51 50/50/50
f 53/53/53 51/51/51 52/52/52
f 50/50/50 55/55/55 54/54/54
f 51/51/51 55/55/55 50/50/50
f 54/54/54 41/41/41 39/39/39
f 55/55/55 41/41/41 54/54/54
f 42/42/42 50/50/50 44/44/44
f 52/52/52 50/50/50 42/42/42
f 44/44/44 54/54/54 48/48/48
f 50/50/50 54/54/54 44/44/44
f 48/48/48 39/39/39 38/38/38
f 54/54/54 39/39/39 48/48/48
f 58/58/58 57/57/57 56/56/56
f 59/59/59 57/57/57 58/58/58
f 59/59/59 60/60/60 57/57/57
f 61/61/61 60/60/60 59/59/59
f 61/61/61 62/62/62 60/60/60
f 63/63/63 62/62/62 61/61/61
f 62/62/62 65/65/65 64/64/64
f 63/63/63 65/65/65 62/62/62
f 66/66/66 41/41/41 55/55/55
f 67/67/67 41/41/41 66/66/66
f 68/68/68 55/55/55 51/51/51
f 66/66/66 55/55/55 68/68/68
f 69/69/69 51/51/51 53/53/53
f 68/68/68 51/51/51 69/69/69
f 41/41/41 70/70/70 40/40/40
f 67/67/67 70/70/70 41/41/41
f 47/47/47 63/63/63 46/46/46
f 65/65/65 63/63/63 47/47/47
f 46/46/46 61/61/61 49/49/49
f 63/63/63 61/61/61 46/46/46
f 49/49/49 59/59/59 45/45/45
f 61/61/61 59/59/59 49/49/49
f 45/45/45 58/58/58 43/43/43
f 59/59/59 58/58/58 45/45/45
f 73/73/73 72/72/72 71/71/71
f 74/74/74 72/72/72 73/73/73
f 77/77/77 76/76/76 75/75/75
f 78/78/78 76/76/76 77/77/77
f 75/75/75 74/74/74 73/73/73
f 76/76/76 74/74/74 75/75/75
f 81/81/81 80/80/80 79/79/79
f 82/82/82 80/80/80 81/81/81
f 85/85/85 84/84/84 83/83/83
f 86/86/86 84/84/84 85/85/85
f 79/79/79 88/88/88 87/87/87
f 80/80/80 88/88/88 79/79/79
f 87/87/87 90/90/90 89/89/89
f 88/88/88 90/90/90 87/87/87
f 89/89/89 92/92/92 91/91/91
f 90/90/90 92/92/92 89/89/89
f 95/95/95 94/94/94 93/93/93
f 96/96/96 94/94/94 95/95/95
f 93/93/93 98/98/98 97/97/97
f 94/94/94 98/98/98 93/93/93
f 99/99/99 78/78/78 77/77/77
f 100/100/100 78/78/78 99/99/99
f 97/97/97 102/102/102 101/101/101
f 98/98/98 102/102/102 97/97/97
f 103/103/103 96/96/96 95/95/95
f 104/104/104 96/96/96 103/103/103
f 71/71/71 86/86/86 85/85/85
f 72/72/72 86/86/86 71/71/71
