# Exported from Godot Engine
mtllib Window_Small_LF.mtl
o Window_Small_LF
v 0.771080 1.253225 -0.809405
vt 1.939409 0.279762
vn -0.037218 -0.297131 0.954111
v 0.748635 1.315236 -0.789546
vt 1.939559 0.323422
vn -0.038242 -0.305519 0.951418
v 0.886100 1.202845 -0.820113
vt 1.877610 0.221665
vn -0.035136 -0.277728 0.960017
v 0.869841 1.250533 -0.806301
vt 1.877088 0.255007
vn -0.037707 -0.301241 0.952802
v 0.793601 1.189903 -0.827096
vt 1.939510 0.235271
vn -0.033013 -0.262740 0.964302
v 0.902300 1.154840 -0.832697
vt 1.878245 0.188140
vn -0.032120 -0.247232 0.968424
v 0.816324 1.126022 -0.842363
vt 1.939616 0.190388
vn -0.029134 -0.224737 0.973984
v 0.918446 1.106414 -0.843667
vt 1.879009 0.154369
vn -0.029510 -0.214314 0.976319
v 0.841614 1.054733 -0.856510
vt 1.939769 0.140314
vn -0.027907 -0.201839 0.979021
v 0.936331 1.052255 -0.854141
vt 1.879973 0.116638
vn -0.028704 -0.200118 0.979351
v 1.004073 1.121173 -0.837417
vt 1.821132 0.143432
vn -0.034301 -0.254321 0.966511
v 0.990490 1.153784 -0.829849
vt 1.822338 0.166810
vn -0.034301 -0.254321 0.966511
v 0.990490 1.153784 -0.829849
vt 1.822338 0.166810
vn -0.034928 -0.277309 0.960146
v 0.977630 1.184737 -0.822011
vt 1.823468 0.188992
vn -0.034928 -0.277309 0.960146
v 1.017660 1.088553 -0.844346
vt 1.819918 0.120047
vn -0.032020 -0.226732 0.973431
v 1.004073 1.121173 -0.837417
vt 1.821132 0.143432
vn -0.032020 -0.226732 0.973431
v 1.034322 1.048449 -0.851930
vt 1.818454 0.091307
vn -0.029427 -0.198511 0.979657
v 1.017660 1.088553 -0.844346
vt 1.819918 0.120047
vn -0.029427 -0.198511 0.979657
v 0.869914 1.251117 -0.808213
vt 1.877210 0.255901
vn 0.037727 0.301223 -0.952807
v 0.886170 1.203399 -0.822034
vt 1.877828 0.222305
vn 0.035118 0.277839 -0.959986
v 0.977710 1.185262 -0.823939
vt 1.823378 0.189245
vn 0.035028 0.277311 -0.960142
v 0.990571 1.154288 -0.831782
vt 1.822302 0.166890
vn 0.035028 0.277311 -0.960142
v 0.748711 1.315847 -0.791449
vt 1.939889 0.325041
vn 0.038222 0.305537 -0.951413
v 0.771152 1.253804 -0.811317
vt 1.939859 0.281049
vn 0.037238 0.297160 -0.954101
v 0.918505 1.106845 -0.845619
vt 1.879433 0.154456
vn 0.029529 0.214339 -0.976313
v 0.902364 1.155333 -0.834634
vt 1.878567 0.188506
vn 0.032331 0.247034 -0.968467
v 0.816382 1.126461 -0.844313
vt 1.940320 0.190952
vn 0.029113 0.224623 -0.974011
v 0.793665 1.190413 -0.829029
vt 1.940091 0.236201
vn 0.033032 0.262722 -0.964306
v 1.004143 1.121633 -0.839362
vt 1.821158 0.143317
vn 0.032039 0.226758 -0.973424
v 1.017717 1.088968 -0.846301
vt 1.820013 0.119736
vn 0.032039 0.226758 -0.973424
v 0.990571 1.154288 -0.831782
vt 1.822302 0.166890
vn 0.034320 0.254258 -0.966527
v 1.004143 1.121633 -0.839362
vt 1.821158 0.143317
vn 0.034320 0.254258 -0.966527
v 0.936389 1.052656 -0.856100
vt 1.880508 0.116442
vn 0.028831 0.199823 -0.979408
v 1.034377 1.048844 -0.853890
vt 1.818616 0.090777
vn 0.029409 0.198529 -0.979654
v 1.017717 1.088968 -0.846301
vt 1.820013 0.119736
vn 0.029409 0.198529 -0.979654
v 0.841670 1.055137 -0.858468
vt 1.940612 0.140501
vn 0.027925 0.201821 -0.979024
v 0.771080 1.253225 -0.809405
vt 1.939977 0.280772
vn -0.945285 -0.301379 -0.124926
v 0.771152 1.253804 -0.811317
vt 1.939859 0.281049
vn -0.945285 -0.301379 -0.124926
v 0.748635 1.315236 -0.789546
vt 1.940022 0.324745
vn -0.944929 -0.300115 -0.130537
v 0.748711 1.315847 -0.791449
vt 1.939889 0.325041
vn -0.944929 -0.300115 -0.130537
v 0.816324 1.126022 -0.842363
vt 1.940407 0.190760
vn -0.944349 -0.313208 -0.100527
v 0.816382 1.126461 -0.844313
vt 1.940320 0.190952
vn -0.944349 -0.313208 -0.100527
v 0.793601 1.189903 -0.827096
vt 1.940189 0.235965
vn -0.945171 -0.306563 -0.112562
v 0.793665 1.190413 -0.829029
vt 1.940091 0.236201
vn -0.945140 -0.306692 -0.112480
v 0.841614 1.054733 -0.856510
vt 1.940681 0.140330
vn -0.944005 -0.315799 -0.095526
v 0.841670 1.055137 -0.858468
vt 1.940612 0.140501
vn -0.944005 -0.315799 -0.095526
usemtl Glass_Interior
f 3/3/3 2/2/2 1/1/1
f 4/4/4 2/2/2 3/3/3
f 7/7/7 6/6/6 5/5/5
f 8/8/8 6/6/6 7/7/7
f 5/5/5 3/3/3 1/1/1
f 6/6/6 3/3/3 5/5/5
f 9/9/9 8/8/8 7/7/7
f 10/10/10 8/8/8 9/9/9
f 12/12/12 6/6/6 11/11/11
f 3/3/3 6/6/6 12/12/12
f 14/14/14 3/3/3 13/13/13
f 4/4/4 3/3/3 14/14/14
f 16/16/16 8/8/8 15/15/15
f 6/6/6 8/8/8 16/16/16
f 18/18/18 10/10/10 17/17/17
f 8/8/8 10/10/10 18/18/18
usemtl Glass
f 21/21/21 20/20/20 19/19/19
f 22/22/22 20/20/20 21/21/21
f 20/20/20 23/23/23 19/19/19
f 24/24/24 23/23/23 20/20/20
f 27/27/27 26/26/26 25/25/25
f 28/28/28 26/26/26 27/27/27
f 29/29/29 25/25/25 26/26/26
f 30/30/30 25/25/25 29/29/29
f 28/28/28 20/20/20 26/26/26
f 24/24/24 20/20/20 28/28/28
f 31/31/31 26/26/26 20/20/20
f 32/32/32 26/26/26 31/31/31
f 25/25/25 34/34/34 33/33/33
f 35/35/35 34/34/34 25/25/25
f 36/36/36 25/25/25 33/33/33
f 27/27/27 25/25/25 36/36/36
f 39/39/39 38/38/38 37/37/37
f 40/40/40 38/38/38 39/39/39
f 43/43/43 42/42/42 41/41/41
f 44/44/44 42/42/42 43/43/43
f 37/37/37 44/44/44 43/43/43
f 38/38/38 44/44/44 37/37/37
f 41/41/41 46/46/46 45/45/45
f 42/42/42 46/46/46 41/41/41
