# Exported from Godot Engine
mtllib Window_RR.mtl
o Window_RR
v -0.329674 1.346279 0.783784
vt 1.807516 0.419285
vn 0.033772 -0.343543 -0.938529
v -0.341778 1.455426 0.738987
vt 1.735247 0.434012
vn 0.033399 -0.406191 -0.913177
v -0.475290 1.349958 0.777136
vt 1.813841 0.519627
vn 0.037889 -0.347294 -0.936991
v -0.486564 1.456488 0.733117
vt 1.743272 0.533633
vn 0.037460 -0.408293 -0.912082
v -0.766051 1.350307 0.762418
vt 1.831151 0.719585
vn 0.055378 -0.347921 -0.935887
v -0.911466 1.346908 0.754257
vt 1.842198 0.819378
vn 0.064100 -0.346429 -0.935884
v -0.756269 1.250780 0.796586
vt 1.897128 0.707017
vn 0.055277 -0.288042 -0.956021
v -0.902524 1.254495 0.786143
vt 1.903468 0.807807
vn 0.063979 -0.290842 -0.954629
v -1.129856 1.337830 0.741015
vt 1.861448 0.969016
vn 0.073696 -0.343734 -0.936171
v -1.056678 1.341320 0.745575
vt 1.854697 0.918902
vn 0.069961 -0.344901 -0.936028
v -1.137146 1.415482 0.709999
vt 1.809952 0.978591
vn 0.073463 -0.389528 -0.918080
v -1.064518 1.423612 0.712376
vt 1.800133 0.929123
vn 0.069686 -0.393228 -0.916796
v -0.620699 1.351334 0.770040
vt 1.821695 0.619697
vn 0.046467 -0.348217 -0.936262
v -0.609989 1.246213 0.805882
vt 1.891354 0.606166
vn 0.046375 -0.285131 -0.957366
v -0.463644 1.240801 0.814035
vt 1.886144 0.505213
vn 0.037678 -0.281612 -0.958788
v -0.631293 1.453965 0.727548
vt 1.753691 0.633007
vn 0.046083 -0.406913 -0.912304
v -0.920273 1.437392 0.717204
vt 1.782214 0.830745
vn 0.063489 -0.398243 -0.915080
v -1.048665 1.257477 0.774581
vt 1.910290 0.908472
vn 0.070387 -0.293405 -0.953394
v -1.072673 1.506858 0.673734
vt 1.744946 0.939619
vn 0.069397 -0.416719 -0.906383
v -0.929902 1.528689 0.673858
vt 1.721733 0.842725
vn 0.063289 -0.422533 -0.904135
v -0.642510 1.557094 0.677093
vt 1.685395 0.646771
vn 0.045986 -0.434342 -0.899573
v -0.498275 1.563483 0.680537
vt 1.672418 0.547965
vn 0.037466 -0.437142 -0.898612
v -1.144444 1.494092 0.673887
vt 1.757817 0.988220
vn 0.073690 -0.412442 -0.907998
v -0.353922 1.564964 0.685096
vt 1.662718 0.448791
vn 0.032974 -0.438147 -0.898298
v -0.892182 1.143806 0.817411
vt 1.976874 0.794200
vn 0.063171 -0.265209 -0.962119
v -1.039160 1.157222 0.803561
vt 1.976770 0.896053
vn 0.070081 -0.268903 -0.960614
v -0.450066 1.109743 0.848724
vt 1.972979 0.488185
vn 0.036981 -0.251624 -0.967118
v -0.597628 1.120070 0.840016
vt 1.974975 0.590262
vn 0.045764 -0.256324 -0.965507
v -0.745006 1.131438 0.829559
vt 1.976266 0.692270
vn 0.054701 -0.260855 -0.963827
v -0.302375 1.100076 0.855818
vt 1.970412 0.386081
vn 0.033083 -0.249440 -0.967825
v -0.317266 1.234392 0.821143
vt 1.881478 0.404203
vn 0.033377 -0.276395 -0.960464
v -0.775833 1.447572 0.722255
vt 1.766689 0.732024
vn 0.054884 -0.403611 -0.913283
v -0.786454 1.545389 0.674953
vt 1.701908 0.745064
vn 0.054673 -0.429389 -0.901463
v -1.113237 1.164435 0.795857
vt 1.976414 0.947415
vn 0.074797 -0.271414 -0.959552
v -1.122352 1.258824 0.768342
vt 1.913835 0.959223
vn 0.074472 -0.295830 -0.952333
v -0.486639 1.457304 0.734941
vt 1.742253 0.534395
vn -0.037526 0.408390 0.912036
v -0.341845 1.456242 0.740811
vt 1.734300 0.433706
vn -0.033411 0.405577 0.913450
v -0.475366 1.350653 0.779010
vt 1.813024 0.520359
vn -0.037909 0.347276 0.936997
v -0.329742 1.346971 0.785658
vt 1.806888 0.418924
vn -0.033833 0.343489 0.938547
v -0.902652 1.255081 0.788051
vt 1.902880 0.809054
vn -0.063998 0.290776 0.954648
v -0.911594 1.347601 0.756129
vt 1.841434 0.820656
vn -0.064120 0.346361 0.935907
v -0.756380 1.251361 0.798497
vt 1.896528 0.708085
vn -0.055337 0.287986 0.956034
v -0.766162 1.351003 0.764290
vt 1.830365 0.720680
vn -0.055440 0.347865 0.935904
v -1.064660 1.424395 0.714210
vt 1.799237 0.930601
vn -0.069621 0.393284 0.916778
v -1.056820 1.342008 0.747448
vt 1.853960 0.920358
vn -0.070108 0.344771 0.936065
v -1.137293 1.416260 0.711835
vt 1.809282 0.980122
vn -0.073512 0.388964 0.918315
v -1.130003 1.338516 0.742887
vt 1.861007 0.970514
vn -0.073715 0.343666 0.936194
v -0.610082 1.246788 0.807796
vt 1.890751 0.607045
vn -0.046432 0.284982 0.957408
v -0.620792 1.352030 0.771913
vt 1.820891 0.620613
vn -0.046529 0.348162 0.936279
v -0.463719 1.241370 0.815951
vt 1.885534 0.505914
vn -0.037738 0.281604 0.958788
v -0.631385 1.454778 0.729373
vt 1.752694 0.633946
vn -0.046019 0.406966 0.912283
v -0.920400 1.438188 0.719034
vt 1.781276 0.832045
vn -0.063509 0.398174 0.915109
v -1.048808 1.258067 0.776486
vt 1.909710 0.909904
vn -0.070407 0.293386 0.953398
v -0.930028 1.529534 0.675666
vt 1.720725 0.843803
vn -0.063309 0.422464 0.904166
v -1.072815 1.507689 0.675547
vt 1.744029 0.941020
vn -0.069418 0.416701 0.906389
v -0.498349 1.564357 0.682334
vt 1.671228 0.548041
vn -0.037530 0.437090 0.898634
v -0.642601 1.557963 0.678892
vt 1.684250 0.647184
vn -0.046007 0.434274 0.899605
v -1.144591 1.494917 0.675703
vt 1.756943 0.989788
vn -0.073709 0.412322 0.908052
v -0.353988 1.565840 0.686893
vt 1.661494 0.448539
vn -0.033037 0.438096 0.898321
v -1.039304 1.157761 0.805482
vt 1.976336 0.897461
vn -0.070017 0.268865 0.960630
v -0.892310 1.144337 0.819334
vt 1.976447 0.795422
vn -0.063528 0.265358 0.962055
v -0.597721 1.120583 0.841946
vt 1.974554 0.591115
vn -0.045822 0.256269 0.965519
v -0.450141 1.110247 0.850658
vt 1.972559 0.488854
vn -0.037040 0.251615 0.967119
v -0.745116 1.131961 0.831487
vt 1.975843 0.693306
vn -0.054719 0.260790 0.963844
v -0.317333 1.234956 0.823060
vt 1.881301 0.403768
vn -0.033435 0.276295 0.960491
v -0.302441 1.100575 0.857754
vt 1.970447 0.385595
vn -0.033101 0.249377 0.967841
v -0.786564 1.546247 0.676756
vt 1.700828 0.745811
vn -0.054738 0.429387 0.901460
v -0.775943 1.448378 0.724082
vt 1.765718 0.733141
vn -0.054905 0.403593 0.913290
v -1.122501 1.259415 0.770246
vt 1.913631 0.960680
vn -0.074530 0.295676 0.952376
v -1.113386 1.164978 0.797776
vt 1.976448 0.948830
vn -0.074815 0.271348 0.959569
v -0.329742 1.346971 0.785658
vt 1.806888 0.418924
vn 0.994098 0.108399 -0.004374
v -0.341845 1.456242 0.740811
vt 1.734300 0.433706
vn 0.994359 0.105607 -0.009873
v -0.329674 1.346279 0.783784
vt 1.807551 0.417923
vn 0.994098 0.108399 -0.004374
v -0.341778 1.455426 0.738987
vt 1.734931 0.432721
vn 0.994359 0.105607 -0.009873
v -1.137293 1.416260 0.711835
vt 1.809282 0.980122
vn -0.993600 -0.107488 -0.034714
v -1.130003 1.338516 0.742887
vt 1.861007 0.970514
vn -0.993383 -0.108087 -0.038819
v -1.137146 1.415482 0.709999
vt 1.810000 0.979942
vn -0.993600 -0.107488 -0.034714
v -1.129856 1.337830 0.741015
vt 1.861744 0.970322
vn -0.993383 -0.108087 -0.038819
v -0.930028 1.529534 0.675666
vt 1.720725 0.843803
vn -0.118941 0.896327 -0.427144
v -1.072815 1.507689 0.675547
vt 1.744029 0.941020
vn -0.144420 0.894580 -0.422930
v -0.929902 1.528689 0.673858
vt 1.721352 0.843418
vn -0.118943 0.896301 -0.427197
v -1.072673 1.506858 0.673734
vt 1.744679 0.940781
vn -0.144321 0.894609 -0.422902
v -0.498349 1.564357 0.682334
vt 1.671228 0.548041
vn -0.012433 0.899179 -0.437404
v -0.642601 1.557963 0.678892
vt 1.684250 0.647184
vn -0.048017 0.898739 -0.435846
v -0.498275 1.563483 0.680537
vt 1.671799 0.547228
vn -0.012433 0.899179 -0.437404
v -0.642510 1.557094 0.677093
vt 1.684838 0.646513
vn -0.048017 0.898739 -0.435846
v -1.144591 1.494917 0.675703
vt 1.756943 0.989788
vn -0.993667 -0.107396 -0.033036
v -1.144444 1.494092 0.673887
vt 1.757611 0.989618
vn -0.993667 -0.107396 -0.033036
v -1.144591 1.494917 0.675703
vt 1.756943 0.989788
vn -0.159831 0.893301 -0.420080
v -1.144444 1.494092 0.673887
vt 1.757611 0.989618
vn -0.159831 0.893301 -0.420080
v -0.353988 1.565840 0.686893
vt 1.661494 0.448539
vn 0.004626 0.899140 -0.437637
v -0.353922 1.564964 0.685096
vt 1.662051 0.447574
vn 0.004626 0.899140 -0.437637
v -0.353988 1.565840 0.686893
vt 1.661494 0.448539
vn 0.994481 0.104211 -0.012153
v -0.353922 1.564964 0.685096
vt 1.662051 0.447574
vn 0.994481 0.104211 -0.012153
v -0.302441 1.100575 0.857754
vt 1.970447 0.385595
vn 0.993803 0.111092 0.003739
v -0.317333 1.234956 0.823060
vt 1.881301 0.403768
vn 0.993888 0.110383 0.001333
v -0.302375 1.100076 0.855818
vt 1.971239 0.384559
vn 0.993803 0.111092 0.003739
v -0.317266 1.234392 0.821143
vt 1.881871 0.402768
vn 0.993888 0.110383 0.001333
v -0.786564 1.546247 0.676756
vt 1.700828 0.745811
vn -0.084027 0.897794 -0.432325
v -0.786454 1.545389 0.674953
vt 1.701431 0.745283
vn -0.083934 0.897818 -0.432294
v -1.122501 1.259415 0.770246
vt 1.913631 0.960680
vn -0.993119 -0.108801 -0.043321
v -1.113386 1.164978 0.797776
vt 1.976448 0.948830
vn -0.993014 -0.108989 -0.045217
v -1.122352 1.258824 0.768342
vt 1.914387 0.960481
vn -0.993119 -0.108801 -0.043321
v -1.113237 1.164435 0.795857
vt 1.977271 0.948615
vn -0.993014 -0.108989 -0.045217
usemtl Glass_Interior_Tinted
f 3/3/3 2/2/2 1/1/1
f 4/4/4 2/2/2 3/3/3
f 7/7/7 6/6/6 5/5/5
f 8/8/8 6/6/6 7/7/7
f 11/11/11 10/10/10 9/9/9
f 12/12/12 10/10/10 11/11/11
f 14/14/14 5/5/5 13/13/13
f 7/7/7 5/5/5 14/14/14
f 15/15/15 13/13/13 3/3/3
f 14/14/14 13/13/13 15/15/15
f 16/16/16 3/3/3 13/13/13
f 4/4/4 3/3/3 16/16/16
f 12/12/12 6/6/6 10/10/10
f 17/17/17 6/6/6 12/12/12
f 8/8/8 10/10/10 6/6/6
f 18/18/18 10/10/10 8/8/8
f 19/19/19 17/17/17 12/12/12
f 20/20/20 17/17/17 19/19/19
f 21/21/21 4/4/4 16/16/16
f 22/22/22 4/4/4 21/21/21
f 19/19/19 11/11/11 23/23/23
f 12/12/12 11/11/11 19/19/19
f 2/2/2 22/22/22 24/24/24
f 4/4/4 22/22/22 2/2/2
f 25/25/25 18/18/18 8/8/8
f 26/26/26 18/18/18 25/25/25
f 27/27/27 14/14/14 15/15/15
f 28/28/28 14/14/14 27/27/27
f 28/28/28 7/7/7 14/14/14
f 29/29/29 7/7/7 28/28/28
f 29/29/29 8/8/8 7/7/7
f 25/25/25 8/8/8 29/29/29
f 15/15/15 30/30/30 27/27/27
f 31/31/31 30/30/30 15/15/15
f 1/1/1 15/15/15 3/3/3
f 31/31/31 15/15/15 1/1/1
f 33/33/33 16/16/16 32/32/32
f 21/21/21 16/16/16 33/33/33
f 32/32/32 13/13/13 5/5/5
f 16/16/16 13/13/13 32/32/32
f 20/20/20 32/32/32 17/17/17
f 33/33/33 32/32/32 20/20/20
f 17/17/17 5/5/5 6/6/6
f 32/32/32 5/5/5 17/17/17
f 34/34/34 18/18/18 26/26/26
f 35/35/35 18/18/18 34/34/34
f 35/35/35 10/10/10 18/18/18
f 9/9/9 10/10/10 35/35/35
usemtl Glass_Tinted
f 38/38/38 37/37/37 36/36/36
f 39/39/39 37/37/37 38/38/38
f 42/42/42 41/41/41 40/40/40
f 43/43/43 41/41/41 42/42/42
f 46/46/46 45/45/45 44/44/44
f 47/47/47 45/45/45 46/46/46
f 48/48/48 43/43/43 42/42/42
f 49/49/49 43/43/43 48/48/48
f 50/50/50 49/49/49 48/48/48
f 38/38/38 49/49/49 50/50/50
f 51/51/51 38/38/38 36/36/36
f 49/49/49 38/38/38 51/51/51
f 44/44/44 41/41/41 52/52/52
f 45/45/45 41/41/41 44/44/44
f 40/40/40 45/45/45 53/53/53
f 41/41/41 45/45/45 40/40/40
f 55/55/55 52/52/52 54/54/54
f 44/44/44 52/52/52 55/55/55
f 57/57/57 36/36/36 56/56/56
f 51/51/51 36/36/36 57/57/57
f 55/55/55 46/46/46 44/44/44
f 58/58/58 46/46/46 55/55/55
f 37/37/37 56/56/56 36/36/36
f 59/59/59 56/56/56 37/37/37
f 61/61/61 53/53/53 60/60/60
f 40/40/40 53/53/53 61/61/61
f 63/63/63 48/48/48 62/62/62
f 50/50/50 48/48/48 63/63/63
f 62/62/62 42/42/42 64/64/64
f 48/48/48 42/42/42 62/62/62
f 64/64/64 40/40/40 61/61/61
f 42/42/42 40/40/40 64/64/64
f 50/50/50 66/66/66 65/65/65
f 63/63/63 66/66/66 50/50/50
f 39/39/39 50/50/50 65/65/65
f 38/38/38 50/50/50 39/39/39
f 67/67/67 51/51/51 57/57/57
f 68/68/68 51/51/51 67/67/67
f 68/68/68 49/49/49 51/51/51
f 43/43/43 49/49/49 68/68/68
f 54/54/54 68/68/68 67/67/67
f 52/52/52 68/68/68 54/54/54
f 52/52/52 43/43/43 68/68/68
f 41/41/41 43/43/43 52/52/52
f 70/70/70 53/53/53 69/69/69
f 60/60/60 53/53/53 70/70/70
f 69/69/69 45/45/45 47/47/47
f 53/53/53 45/45/45 69/69/69
f 73/73/73 72/72/72 71/71/71
f 74/74/74 72/72/72 73/73/73
f 77/77/77 76/76/76 75/75/75
f 78/78/78 76/76/76 77/77/77
f 81/81/81 80/80/80 79/79/79
f 82/82/82 80/80/80 81/81/81
f 85/85/85 84/84/84 83/83/83
f 86/86/86 84/84/84 85/85/85
f 88/88/88 75/75/75 87/87/87
f 77/77/77 75/75/75 88/88/88
f 82/82/82 89/89/89 80/80/80
f 90/90/90 89/89/89 82/82/82
f 92/92/92 83/83/83 91/91/91
f 85/85/85 83/83/83 92/92/92
f 74/74/74 93/93/93 72/72/72
f 94/94/94 93/93/93 74/74/74
f 97/97/97 96/96/96 95/95/95
f 98/98/98 96/96/96 97/97/97
f 98/98/98 71/71/71 96/96/96
f 73/73/73 71/71/71 98/98/98
f 86/86/86 99/99/99 84/84/84
f 100/100/100 99/99/99 86/86/86
f 100/100/100 79/79/79 99/99/99
f 81/81/81 79/79/79 100/100/100
f 103/103/103 102/102/102 101/101/101
f 104/104/104 102/102/102 103/103/103
f 78/78/78 101/101/101 76/76/76
f 103/103/103 101/101/101 78/78/78
