# Exported from Godot Engine
mtllib Window_LR.mtl
o Window_LR
v -0.486564 1.456489 -0.733117
vt 1.743272 0.533633
vn 0.035490 -0.408728 0.911966
v -0.338983 1.455513 -0.738429
vt 1.735247 0.434012
vn 0.029587 -0.406620 0.913118
v -0.475290 1.349958 -0.777135
vt 1.813841 0.519627
vn 0.035883 -0.347532 0.936981
v -0.326879 1.346365 -0.783227
vt 1.807516 0.419285
vn 0.029776 -0.344039 0.938483
v -0.902524 1.254495 -0.786142
vt 1.903468 0.807807
vn 0.063999 -0.290824 0.954634
v -0.911466 1.346908 -0.754257
vt 1.842198 0.819378
vn 0.064078 -0.346398 0.935897
v -0.756269 1.250780 -0.796586
vt 1.897128 0.707017
vn 0.055297 -0.288023 0.956026
v -0.766051 1.350308 -0.762418
vt 1.831151 0.719585
vn 0.055399 -0.347902 0.935893
v -1.064518 1.423612 -0.712375
vt 1.800133 0.929123
vn 0.069578 -0.393320 0.916765
v -1.056678 1.341320 -0.745575
vt 1.854697 0.918902
vn 0.069984 -0.344932 0.936015
v -1.137146 1.415482 -0.709998
vt 1.809952 0.978591
vn 0.073468 -0.389001 0.918303
v -1.129856 1.337830 -0.741015
vt 1.861448 0.969016
vn 0.073673 -0.343703 0.936184
v -0.609989 1.246213 -0.805882
vt 1.891354 0.606166
vn 0.046392 -0.285019 0.957399
v -0.620699 1.351334 -0.770040
vt 1.821695 0.619697
vn 0.046487 -0.348199 0.936267
v -0.463644 1.240801 -0.814035
vt 1.886144 0.505213
vn 0.035580 -0.281893 0.958786
v -0.631293 1.453965 -0.727547
vt 1.753691 0.633007
vn 0.045977 -0.407002 0.912270
v -0.920273 1.437392 -0.717203
vt 1.782214 0.830745
vn 0.063586 -0.397797 0.915267
v -1.048665 1.257477 -0.774580
vt 1.910290 0.908472
vn 0.070362 -0.293327 0.953419
v -0.929902 1.528689 -0.673857
vt 1.721733 0.842725
vn 0.063267 -0.422551 0.904128
v -1.072673 1.506858 -0.673733
vt 1.744946 0.939619
vn 0.069375 -0.416737 0.906376
v -0.498275 1.563483 -0.680536
vt 1.672418 0.547965
vn 0.035684 -0.437317 0.898599
v -0.642510 1.557095 -0.677093
vt 1.685395 0.646771
vn 0.045964 -0.434309 0.899590
v -1.144444 1.494093 -0.673886
vt 1.757817 0.988220
vn 0.073665 -0.412358 0.908039
v -0.351126 1.565050 -0.684538
vt 1.662718 0.448791
vn 0.029287 -0.438505 0.898251
v -1.039160 1.157222 -0.803561
vt 1.976770 0.896053
vn 0.070061 -0.268922 0.960611
v -0.892182 1.143806 -0.817410
vt 1.976874 0.794200
vn 0.063488 -0.265396 0.962047
v -0.597628 1.120070 -0.840015
vt 1.974975 0.590262
vn 0.045460 -0.256187 0.965558
v -0.450066 1.109744 -0.848723
vt 1.972979 0.488185
vn 0.034682 -0.251844 0.967146
v -0.745006 1.131439 -0.829559
vt 1.976266 0.692270
vn 0.054680 -0.260827 0.963836
v -0.314470 1.234478 -0.820586
vt 1.881478 0.404203
vn 0.029280 -0.276816 0.960477
v -0.299579 1.100162 -0.855261
vt 1.970412 0.386081
vn 0.028973 -0.249915 0.967834
v -0.786454 1.545389 -0.674953
vt 1.701908 0.745064
vn 0.054695 -0.429422 0.901446
v -0.775833 1.447573 -0.722255
vt 1.766689 0.732024
vn 0.054778 -0.403751 0.913228
v -1.122352 1.258824 -0.768342
vt 1.913835 0.959223
vn 0.074492 -0.295811 0.952338
v -1.113237 1.164435 -0.795856
vt 1.976414 0.947415
vn 0.074775 -0.271385 0.959562
v -0.326946 1.347057 -0.785101
vt 1.806888 0.418924
vn -0.029837 0.343985 -0.938501
v -0.339049 1.456328 -0.740253
vt 1.734300 0.433706
vn -0.029606 0.406453 -0.913192
v -0.475366 1.350653 -0.779009
vt 1.813024 0.520359
vn -0.035903 0.347466 -0.937005
v -0.486639 1.457305 -0.734941
vt 1.742253 0.534395
vn -0.035426 0.408681 -0.911990
v -0.766162 1.351004 -0.764290
vt 1.830365 0.720680
vn -0.055419 0.347884 -0.935898
v -0.911594 1.347601 -0.756129
vt 1.841434 0.820656
vn -0.064142 0.346392 -0.935895
v -0.756380 1.251361 -0.798496
vt 1.896528 0.708085
vn -0.055317 0.288005 -0.956030
v -0.902652 1.255081 -0.788050
vt 1.902880 0.809054
vn -0.064018 0.290758 -0.954653
v -1.130003 1.338516 -0.742887
vt 1.861007 0.970514
vn -0.073738 0.343697 -0.936181
v -1.056820 1.342008 -0.747447
vt 1.853960 0.920358
vn -0.070131 0.344802 -0.936052
v -1.137293 1.416260 -0.711834
vt 1.809282 0.980122
vn -0.073535 0.388997 -0.918300
v -1.064660 1.424396 -0.714210
vt 1.799237 0.930601
vn -0.069598 0.393251 -0.916793
v -0.620792 1.352030 -0.771912
vt 1.820891 0.620613
vn -0.046508 0.348180 -0.936273
v -0.610082 1.246788 -0.807795
vt 1.890751 0.607045
vn -0.046412 0.285001 -0.957403
v -0.463719 1.241370 -0.815951
vt 1.885534 0.505914
vn -0.035638 0.281792 -0.958813
v -0.631385 1.454778 -0.729372
vt 1.752694 0.633946
vn -0.046125 0.406877 -0.912318
v -0.920400 1.438188 -0.719034
vt 1.781276 0.832045
vn -0.063532 0.398206 -0.915093
v -1.048808 1.258067 -0.776486
vt 1.909710 0.909904
vn -0.070427 0.293367 -0.953402
v -1.072815 1.507689 -0.675547
vt 1.744029 0.941020
vn -0.069440 0.416682 -0.906396
v -0.930028 1.529534 -0.675665
vt 1.720725 0.843803
vn -0.063027 0.422698 -0.904076
v -0.642601 1.557963 -0.678892
vt 1.684250 0.647184
vn -0.046116 0.434288 -0.899593
v -0.498349 1.564358 -0.682333
vt 1.671228 0.548041
vn -0.035706 0.437300 -0.898606
v -1.144591 1.494917 -0.675702
vt 1.756943 0.989788
vn -0.073730 0.412303 -0.908058
v -0.351192 1.565926 -0.686335
vt 1.661494 0.448539
vn -0.029307 0.438438 -0.898283
v -0.892310 1.144338 -0.819334
vt 1.976447 0.795422
vn -0.063508 0.265377 -0.962051
v -1.039304 1.157761 -0.805482
vt 1.976336 0.897461
vn -0.070039 0.268894 -0.960620
v -0.450141 1.110247 -0.850657
vt 1.972559 0.488854
vn -0.034703 0.251871 -0.967138
v -0.597721 1.120583 -0.841946
vt 1.974554 0.591115
vn -0.045520 0.256177 -0.965557
v -0.745116 1.131961 -0.831486
vt 1.975843 0.693306
vn -0.054740 0.260818 -0.963835
v -0.299646 1.100661 -0.857197
vt 1.970447 0.385595
vn -0.029031 0.249906 -0.967835
v -0.314537 1.235042 -0.822502
vt 1.881301 0.403768
vn -0.029338 0.276762 -0.960491
v -0.775943 1.448379 -0.724082
vt 1.765718 0.733141
vn -0.054797 0.403632 -0.913279
v -0.786564 1.546248 -0.676756
vt 1.700828 0.745811
vn -0.054716 0.429354 -0.901477
v -1.113386 1.164978 -0.797776
vt 1.976448 0.948830
vn -0.074838 0.271376 -0.959559
v -1.122501 1.259415 -0.770246
vt 1.913631 0.960680
vn -0.074507 0.295647 -0.952387
v -0.338983 1.455513 -0.738429
vt 1.734931 0.432721
vn 0.994360 0.105592 0.009907
v -0.339049 1.456328 -0.740253
vt 1.734300 0.433706
vn 0.994360 0.105592 0.009907
v -0.326879 1.346365 -0.783227
vt 1.807551 0.417923
vn 0.994099 0.108387 0.004442
v -0.326946 1.347057 -0.785101
vt 1.806888 0.418924
vn 0.994099 0.108387 0.004442
v -1.129856 1.337830 -0.741015
vt 1.861744 0.970322
vn -0.993383 -0.108102 0.038783
v -1.130003 1.338516 -0.742887
vt 1.861007 0.970514
vn -0.993383 -0.108102 0.038783
v -1.137146 1.415482 -0.709998
vt 1.810000 0.979942
vn -0.993600 -0.107504 0.034679
v -1.137293 1.416260 -0.711834
vt 1.809282 0.980122
vn -0.993600 -0.107504 0.034679
v -1.072673 1.506858 -0.673733
vt 1.744679 0.940781
vn -0.144438 0.894624 0.422830
v -1.072815 1.507689 -0.675547
vt 1.744029 0.941020
vn -0.144438 0.894624 0.422830
v -0.929902 1.528689 -0.673857
vt 1.721352 0.843418
vn -0.118917 0.896333 0.427136
v -0.930028 1.529534 -0.675665
vt 1.720725 0.843803
vn -0.118917 0.896333 0.427136
v -0.642510 1.557095 -0.677093
vt 1.684838 0.646513
vn -0.048038 0.898759 0.435804
v -0.642601 1.557963 -0.678892
vt 1.684250 0.647184
vn -0.048038 0.898759 0.435804
v -0.498275 1.563483 -0.680536
vt 1.671799 0.547228
vn -0.013535 0.899174 0.437381
v -0.498349 1.564358 -0.682333
vt 1.671228 0.548041
vn -0.013618 0.899158 0.437413
v -1.144444 1.494093 -0.673886
vt 1.757611 0.989618
vn -0.993668 -0.107408 0.032965
v -1.144591 1.494917 -0.675702
vt 1.756943 0.989788
vn -0.993668 -0.107408 0.032965
v -1.144444 1.494093 -0.673886
vt 1.757611 0.989618
vn -0.159809 0.893283 0.420126
v -1.144591 1.494917 -0.675702
vt 1.756943 0.989788
vn -0.159809 0.893283 0.420126
v -0.351126 1.565050 -0.684538
vt 1.662051 0.447574
vn 0.002268 0.899095 0.437747
v -0.351192 1.565926 -0.686335
vt 1.661494 0.448539
vn 0.002268 0.899095 0.437747
v -0.351126 1.565050 -0.684538
vt 1.662051 0.447574
vn 0.994481 0.104200 0.012222
v -0.351192 1.565926 -0.686335
vt 1.661494 0.448539
vn 0.994481 0.104200 0.012222
v -0.314470 1.234478 -0.820586
vt 1.881871 0.402768
vn 0.993875 0.110502 -0.001569
v -0.314537 1.235042 -0.822502
vt 1.881301 0.403768
vn 0.993883 0.110431 -0.001265
v -0.299579 1.100162 -0.855261
vt 1.971239 0.384559
vn 0.993802 0.111103 -0.003671
v -0.299646 1.100661 -0.857197
vt 1.970447 0.385595
vn 0.993802 0.111103 -0.003671
v -0.786454 1.545389 -0.674953
vt 1.701431 0.745283
vn -0.083913 0.897798 0.432339
v -0.786564 1.546248 -0.676756
vt 1.700828 0.745811
vn -0.084046 0.897839 0.432229
v -1.113237 1.164435 -0.795856
vt 1.977271 0.948615
vn -0.993003 -0.109116 0.045148
v -1.113386 1.164978 -0.797776
vt 1.976448 0.948830
vn -0.993003 -0.109116 0.045148
v -1.122352 1.258824 -0.768342
vt 1.914387 0.960481
vn -0.993119 -0.108817 0.043285
v -1.122501 1.259415 -0.770246
vt 1.913631 0.960680
vn -0.993119 -0.108817 0.043285
usemtl Glass_Interior_Tinted
f 3/3/3 2/2/2 1/1/1
f 4/4/4 2/2/2 3/3/3
f 7/7/7 6/6/6 5/5/5
f 8/8/8 6/6/6 7/7/7
f 11/11/11 10/10/10 9/9/9
f 12/12/12 10/10/10 11/11/11
f 13/13/13 8/8/8 7/7/7
f 14/14/14 8/8/8 13/13/13
f 15/15/15 14/14/14 13/13/13
f 3/3/3 14/14/14 15/15/15
f 16/16/16 3/3/3 1/1/1
f 14/14/14 3/3/3 16/16/16
f 9/9/9 6/6/6 17/17/17
f 10/10/10 6/6/6 9/9/9
f 5/5/5 10/10/10 18/18/18
f 6/6/6 10/10/10 5/5/5
f 20/20/20 17/17/17 19/19/19
f 9/9/9 17/17/17 20/20/20
f 22/22/22 1/1/1 21/21/21
f 16/16/16 1/1/1 22/22/22
f 20/20/20 11/11/11 9/9/9
f 23/23/23 11/11/11 20/20/20
f 2/2/2 21/21/21 1/1/1
f 24/24/24 21/21/21 2/2/2
f 26/26/26 18/18/18 25/25/25
f 5/5/5 18/18/18 26/26/26
f 28/28/28 13/13/13 27/27/27
f 15/15/15 13/13/13 28/28/28
f 27/27/27 7/7/7 29/29/29
f 13/13/13 7/7/7 27/27/27
f 29/29/29 5/5/5 26/26/26
f 7/7/7 5/5/5 29/29/29
f 15/15/15 31/31/31 30/30/30
f 28/28/28 31/31/31 15/15/15
f 4/4/4 15/15/15 30/30/30
f 3/3/3 15/15/15 4/4/4
f 32/32/32 16/16/16 22/22/22
f 33/33/33 16/16/16 32/32/32
f 33/33/33 14/14/14 16/16/16
f 8/8/8 14/14/14 33/33/33
f 19/19/19 33/33/33 32/32/32
f 17/17/17 33/33/33 19/19/19
f 17/17/17 8/8/8 33/33/33
f 6/6/6 8/8/8 17/17/17
f 35/35/35 18/18/18 34/34/34
f 25/25/25 18/18/18 35/35/35
f 34/34/34 10/10/10 12/12/12
f 18/18/18 10/10/10 34/34/34
usemtl Glass_Tinted
f 38/38/38 37/37/37 36/36/36
f 39/39/39 37/37/37 38/38/38
f 42/42/42 41/41/41 40/40/40
f 43/43/43 41/41/41 42/42/42
f 46/46/46 45/45/45 44/44/44
f 47/47/47 45/45/45 46/46/46
f 49/49/49 40/40/40 48/48/48
f 42/42/42 40/40/40 49/49/49
f 50/50/50 48/48/48 38/38/38
f 49/49/49 48/48/48 50/50/50
f 51/51/51 38/38/38 48/48/48
f 39/39/39 38/38/38 51/51/51
f 47/47/47 41/41/41 45/45/45
f 52/52/52 41/41/41 47/47/47
f 43/43/43 45/45/45 41/41/41
f 53/53/53 45/45/45 43/43/43
f 54/54/54 52/52/52 47/47/47
f 55/55/55 52/52/52 54/54/54
f 56/56/56 39/39/39 51/51/51
f 57/57/57 39/39/39 56/56/56
f 54/54/54 46/46/46 58/58/58
f 47/47/47 46/46/46 54/54/54
f 37/37/37 57/57/57 59/59/59
f 39/39/39 57/57/57 37/37/37
f 60/60/60 53/53/53 43/43/43
f 61/61/61 53/53/53 60/60/60
f 62/62/62 49/49/49 50/50/50
f 63/63/63 49/49/49 62/62/62
f 63/63/63 42/42/42 49/49/49
f 64/64/64 42/42/42 63/63/63
f 64/64/64 43/43/43 42/42/42
f 60/60/60 43/43/43 64/64/64
f 50/50/50 65/65/65 62/62/62
f 66/66/66 65/65/65 50/50/50
f 36/36/36 50/50/50 38/38/38
f 66/66/66 50/50/50 36/36/36
f 68/68/68 51/51/51 67/67/67
f 56/56/56 51/51/51 68/68/68
f 67/67/67 48/48/48 40/40/40
f 51/51/51 48/48/48 67/67/67
f 55/55/55 67/67/67 52/52/52
f 68/68/68 67/67/67 55/55/55
f 52/52/52 40/40/40 41/41/41
f 67/67/67 40/40/40 52/52/52
f 69/69/69 53/53/53 61/61/61
f 70/70/70 53/53/53 69/69/69
f 70/70/70 45/45/45 53/53/53
f 44/44/44 45/45/45 70/70/70
f 73/73/73 72/72/72 71/71/71
f 74/74/74 72/72/72 73/73/73
f 77/77/77 76/76/76 75/75/75
f 78/78/78 76/76/76 77/77/77
f 81/81/81 80/80/80 79/79/79
f 82/82/82 80/80/80 81/81/81
f 85/85/85 84/84/84 83/83/83
f 86/86/86 84/84/84 85/85/85
f 87/87/87 78/78/78 77/77/77
f 88/88/88 78/78/78 87/87/87
f 79/79/79 90/90/90 89/89/89
f 80/80/80 90/90/90 79/79/79
f 91/91/91 86/86/86 85/85/85
f 92/92/92 86/86/86 91/91/91
f 71/71/71 94/94/94 93/93/93
f 72/72/72 94/94/94 71/71/71
f 97/97/97 96/96/96 95/95/95
f 98/98/98 96/96/96 97/97/97
f 95/95/95 74/74/74 73/73/73
f 96/96/96 74/74/74 95/95/95
f 83/83/83 100/100/100 99/99/99
f 84/84/84 100/100/100 83/83/83
f 99/99/99 82/82/82 81/81/81
f 100/100/100 82/82/82 99/99/99
f 103/103/103 102/102/102 101/101/101
f 104/104/104 102/102/102 103/103/103
f 75/75/75 104/104/104 103/103/103
f 76/76/76 104/104/104 75/75/75
