# Exported from Godot Engine
mtllib Window_Small_RF.mtl
o Window_Small_RF
v 0.869841 1.250533 0.806302
vt 1.877088 0.255007
vn -0.037687 -0.301259 -0.952797
v 0.748635 1.315236 0.789547
vt 1.939559 0.323422
vn -0.038180 -0.305478 -0.951433
v 0.886100 1.202845 0.820114
vt 1.877610 0.221665
vn -0.035075 -0.277690 -0.960030
v 0.771080 1.253225 0.809405
vt 1.939409 0.279762
vn -0.037197 -0.297102 -0.954121
v 0.918446 1.106414 0.843667
vt 1.879009 0.154369
vn -0.029489 -0.214202 -0.976344
v 0.902300 1.154839 0.832697
vt 1.878245 0.188140
vn -0.031791 -0.247359 -0.968402
v 0.816324 1.126022 0.842363
vt 1.939616 0.190388
vn -0.029074 -0.224572 -0.974024
v 0.793601 1.189902 0.827097
vt 1.939510 0.235271
vn -0.032992 -0.262667 -0.964322
v 0.936331 1.052255 0.854142
vt 1.879973 0.116638
vn -0.028684 -0.200050 -0.979366
v 0.841614 1.054733 0.856510
vt 1.939769 0.140314
vn -0.027887 -0.201772 -0.979035
v 0.990490 1.153784 0.829849
vt 1.822338 0.166810
vn -0.034281 -0.254294 -0.966519
v 1.004073 1.121173 0.837417
vt 1.821132 0.143432
vn -0.034281 -0.254294 -0.966519
v 0.977630 1.184737 0.822011
vt 1.823468 0.188992
vn -0.034987 -0.277255 -0.960159
v 0.990490 1.153784 0.829849
vt 1.822338 0.166810
vn -0.034987 -0.277255 -0.960159
v 1.004073 1.121173 0.837417
vt 1.821132 0.143432
vn -0.032000 -0.226706 -0.973437
v 1.017660 1.088552 0.844346
vt 1.819918 0.120047
vn -0.032000 -0.226706 -0.973437
v 1.017660 1.088552 0.844346
vt 1.819918 0.120047
vn -0.029370 -0.198479 -0.979665
v 1.034322 1.048449 0.851931
vt 1.818454 0.091307
vn -0.029370 -0.198479 -0.979665
v 0.990571 1.154288 0.831783
vt 1.822302 0.166890
vn 0.034967 0.277273 0.960155
v 0.886170 1.203399 0.822034
vt 1.877828 0.222305
vn 0.035097 0.277765 0.960008
v 0.977710 1.185262 0.823939
vt 1.823378 0.189245
vn 0.034967 0.277273 0.960155
v 0.869914 1.251117 0.808213
vt 1.877210 0.255901
vn 0.037665 0.301183 0.952822
v 0.771152 1.253804 0.811318
vt 1.939859 0.281049
vn 0.037176 0.297074 0.954131
v 0.748711 1.315847 0.791450
vt 1.939889 0.325041
vn 0.038200 0.305460 0.951438
v 0.793665 1.190413 0.829029
vt 1.940091 0.236201
vn 0.032973 0.262685 0.964318
v 0.902364 1.155333 0.834634
vt 1.878567 0.188506
vn 0.032271 0.246954 0.968490
v 0.816382 1.126461 0.844313
vt 1.940320 0.190952
vn 0.029093 0.224597 0.974017
v 0.918505 1.106845 0.845619
vt 1.879433 0.154456
vn 0.029471 0.214263 0.976331
v 1.017717 1.088968 0.846301
vt 1.820013 0.119736
vn 0.031980 0.226680 0.973444
v 1.004143 1.121633 0.839362
vt 1.821158 0.143317
vn 0.031980 0.226680 0.973444
v 1.004143 1.121633 0.839362
vt 1.821158 0.143317
vn 0.034299 0.254185 0.966547
v 0.990571 1.154288 0.831783
vt 1.822302 0.166890
vn 0.034299 0.254185 0.966547
v 1.017717 1.088968 0.846301
vt 1.820013 0.119736
vn 0.029389 0.198462 0.979668
v 1.034377 1.048843 0.853891
vt 1.818616 0.090777
vn 0.029389 0.198462 0.979668
v 0.936389 1.052655 0.856100
vt 1.880508 0.116442
vn 0.028773 0.199791 0.979416
v 0.841670 1.055136 0.858468
vt 1.940612 0.140501
vn 0.027868 0.201789 0.979032
v 0.748711 1.315847 0.791450
vt 1.939889 0.325041
vn -0.944940 -0.300120 0.130446
v 0.771152 1.253804 0.811318
vt 1.939859 0.281049
vn -0.945286 -0.301394 0.124882
v 0.748635 1.315236 0.789547
vt 1.940022 0.324745
vn -0.944940 -0.300120 0.130446
v 0.771080 1.253225 0.809405
vt 1.939977 0.280772
vn -0.945286 -0.301394 0.124882
v 0.793665 1.190413 0.829029
vt 1.940091 0.236201
vn -0.945141 -0.306734 0.112348
v 0.816382 1.126461 0.844313
vt 1.940320 0.190952
vn -0.944349 -0.313222 0.100484
v 0.793601 1.189902 0.827097
vt 1.940189 0.235965
vn -0.945140 -0.306706 0.112436
v 0.816324 1.126022 0.842363
vt 1.940407 0.190760
vn -0.944349 -0.313222 0.100484
v 0.841670 1.055136 0.858468
vt 1.940612 0.140501
vn -0.944005 -0.315813 0.095482
v 0.841614 1.054733 0.856510
vt 1.940681 0.140330
vn -0.944005 -0.315813 0.095482
usemtl Glass_Interior
f 3/3/3 2/2/2 1/1/1
f 4/4/4 2/2/2 3/3/3
f 7/7/7 6/6/6 5/5/5
f 8/8/8 6/6/6 7/7/7
f 8/8/8 3/3/3 6/6/6
f 4/4/4 3/3/3 8/8/8
f 10/10/10 5/5/5 9/9/9
f 7/7/7 5/5/5 10/10/10
f 11/11/11 6/6/6 3/3/3
f 12/12/12 6/6/6 11/11/11
f 13/13/13 3/3/3 1/1/1
f 14/14/14 3/3/3 13/13/13
f 15/15/15 5/5/5 6/6/6
f 16/16/16 5/5/5 15/15/15
f 17/17/17 9/9/9 5/5/5
f 18/18/18 9/9/9 17/17/17
usemtl Glass
f 21/21/21 20/20/20 19/19/19
f 22/22/22 20/20/20 21/21/21
f 20/20/20 24/24/24 23/23/23
f 22/22/22 24/24/24 20/20/20
f 27/27/27 26/26/26 25/25/25
f 28/28/28 26/26/26 27/27/27
f 30/30/30 28/28/28 29/29/29
f 26/26/26 28/28/28 30/30/30
f 25/25/25 20/20/20 23/23/23
f 26/26/26 20/20/20 25/25/25
f 32/32/32 26/26/26 31/31/31
f 20/20/20 26/26/26 32/32/32
f 28/28/28 34/34/34 33/33/33
f 35/35/35 34/34/34 28/28/28
f 36/36/36 28/28/28 27/27/27
f 35/35/35 28/28/28 36/36/36
f 39/39/39 38/38/38 37/37/37
f 40/40/40 38/38/38 39/39/39
f 43/43/43 42/42/42 41/41/41
f 44/44/44 42/42/42 43/43/43
f 40/40/40 41/41/41 38/38/38
f 43/43/43 41/41/41 40/40/40
f 44/44/44 45/45/45 42/42/42
f 46/46/46 45/45/45 44/44/44
