# Exported from Godot Engine
mtllib Windows_Top.mtl
o Windows_Top
v 0.622868 1.464887 0.476582
vt 0.426189 2.750642
vn -0.353997 -0.931912 -0.078909
v 0.468555 1.519421 0.464544
vt 0.335601 2.743973
vn -0.297761 -0.951770 -0.073976
v 0.605081 1.458690 0.605610
vt 0.418174 2.822313
vn -0.351920 -0.930440 -0.102145
v 0.455017 1.512020 0.590603
vt 0.329759 2.813950
vn -0.295366 -0.950583 -0.095664
v 0.491743 1.530927 0.000000
vt 0.345678 2.487026
vn -0.301597 -0.953435 -0.000057
v 0.488364 1.529604 0.150439
vt 0.344152 2.570142
vn -0.301018 -0.953229 -0.027239
v 0.653191 1.474296 0.000000
vt 0.439992 2.487026
vn -0.357508 -0.933910 -0.000020
v 0.648784 1.473294 0.154439
vt 0.437926 2.572346
vn -0.356877 -0.933697 -0.029139
v 1.513175 1.015191 0.358193
vt 0.979214 2.686245
vn -0.513497 -0.853937 -0.084335
v 1.308380 1.138935 0.350676
vt 0.846569 2.681439
vn -0.505183 -0.859006 -0.083056
v 1.475428 1.015994 0.524695
vt 0.960334 2.779121
vn -0.515389 -0.847811 -0.124862
v 1.277162 1.138106 0.514490
vt 0.831320 2.772511
vn -0.507106 -0.853096 -0.122760
v 1.539019 1.014719 0.171458
vt 0.992162 2.582327
vn -0.512289 -0.857588 -0.045863
v 1.548303 1.014566 0.000000
vt 0.996786 2.487026
vn -0.511805 -0.859102 -0.000021
v 1.330307 1.139180 0.172876
vt 0.857388 2.582810
vn -0.503995 -0.862501 -0.045616
v 1.339652 1.138721 0.000000
vt 0.862124 2.487026
vn -0.503573 -0.863953 -0.000021
v 0.155899 1.605075 0.301679
vt 0.156006 2.654049
vn -0.174075 -0.983711 -0.044831
v 0.319872 1.570721 0.308119
vt 0.248616 2.657403
vn -0.236562 -0.970476 -0.047056
v 0.159170 1.610057 0.143803
vt 0.156987 2.566617
vn -0.174178 -0.984408 -0.024534
v 0.325609 1.575339 0.146897
vt 0.250889 2.568223
vn -0.237365 -0.971079 -0.025744
v 0.302338 1.555423 0.577186
vt 0.241677 2.806633
vn -0.233596 -0.968103 -0.090611
v 0.311772 1.563774 0.453836
vt 0.245428 2.738140
vn -0.235188 -0.969423 -0.070039
v 0.145986 1.588773 0.565368
vt 0.153018 2.800351
vn -0.173601 -0.981000 -0.086611
v 0.151309 1.597652 0.444432
vt 0.154656 2.733191
vn -0.173896 -0.982488 -0.066919
v 0.160574 1.611811 0.000000
vt 0.157476 2.487026
vn -0.174274 -0.984697 -0.000053
v 0.327969 1.576937 0.000000
vt 0.251885 2.487026
vn -0.237792 -0.971316 -0.000055
v 0.959716 1.336726 0.163039
vt 0.625351 2.577150
vn -0.435597 -0.899487 -0.034332
v 1.104411 1.263597 0.167171
vt 0.714841 2.579483
vn -0.459414 -0.887445 -0.037148
v 0.966249 1.337015 0.000000
vt 0.628584 2.487026
vn -0.435811 -0.900038 -0.000020
v 1.112041 1.263586 0.000000
vt 0.718652 2.487026
vn -0.459412 -0.888223 -0.000062
v 0.944074 1.334953 0.336571
vt 0.617857 2.673180
vn -0.435804 -0.897858 -0.062662
v 0.921891 1.332009 0.494843
vt 0.607343 2.760947
vn -0.435999 -0.895197 -0.092339
v 1.086385 1.262471 0.342214
vt 0.706093 2.676406
vn -0.460069 -0.885293 -0.067773
v 1.060794 1.260425 0.502769
vt 0.693804 2.765500
vn -0.461068 -0.881774 -0.099454
v 0.896001 1.328482 0.627366
vt 0.595118 2.834666
vn -0.436477 -0.891650 -0.120202
v 0.863322 1.325828 0.754747
vt 0.579284 2.905716
vn -0.435561 -0.890557 -0.131127
v 1.030981 1.257995 0.636792
vt 0.679549 2.840131
vn -0.462603 -0.876940 -0.130285
v 0.992787 1.256118 0.772224
vt 0.661021 2.915784
vn -0.462593 -0.875101 -0.142147
v 1.266473 1.091966 0.792620
vt 0.838072 2.928520
vn -0.522300 -0.834099 -0.177431
v 1.240905 1.137116 0.650691
vt 0.813726 2.848531
vn -0.508707 -0.846722 -0.155817
v 1.193986 1.136123 0.794958
vt 0.791000 2.929378
vn -0.500666 -0.849782 -0.164939
v 1.334051 1.051579 0.786001
vt 0.881730 2.925205
vn -0.523380 -0.833268 -0.178152
v 1.430749 1.017166 0.662594
vt 0.938084 2.856379
vn -0.519153 -0.839345 -0.161186
v 1.385015 1.019038 0.776042
vt 0.915312 2.920220
vn -0.523380 -0.833268 -0.178152
v 1.122252 1.207015 0.642943
vt 0.737468 2.843782
vn -0.487481 -0.861166 -0.144067
v 1.080101 1.205468 0.783819
vt 0.717075 2.922575
vn -0.488097 -0.858597 -0.156757
v 1.210848 1.210795 0.000000
vt 0.780508 2.487026
vn -0.481788 -0.876288 -0.000062
v 1.202448 1.211010 0.169969
vt 0.776285 2.581088
vn -0.482003 -0.875217 -0.040853
v 1.182760 1.210283 0.345936
vt 0.766660 2.678584
vn -0.483209 -0.872316 -0.074657
v 1.086385 1.262471 0.342214
vt 0.706093 2.676406
vn -0.460156 -0.885251 -0.067730
v 1.154783 1.208789 0.507949
vt 0.753123 2.768546
vn -0.484801 -0.867734 -0.109566
v 0.752192 1.396929 0.616883
vt 0.506747 2.828679
vn -0.399704 -0.909994 -0.110218
v 0.725010 1.393132 0.736213
vt 0.493664 2.895163
vn -0.397987 -0.909447 -0.120468
v 0.583246 1.453504 0.717440
vt 0.407818 2.884571
vn -0.349594 -0.930212 -0.111754
v 0.752192 1.396929 0.616883
vt 0.506747 2.828679
vn -0.399693 -0.909982 -0.110357
v 0.863322 1.325828 0.754747
vt 0.579284 2.905716
vn -0.435615 -0.890531 -0.131129
v 0.811301 1.408881 0.000000
vt 0.534418 2.487026
vn -0.402295 -0.915510 -0.000020
v 0.805846 1.408228 0.158733
vt 0.531730 2.574738
vn -0.401888 -0.915145 -0.031546
v 0.792673 1.405740 0.330367
vt 0.525527 2.669676
vn -0.401390 -0.914105 -0.057422
v 0.638050 1.470008 0.323776
vt 0.433035 2.665987
vn -0.355819 -0.933043 -0.053139
v 0.774008 1.401734 0.486039
vt 0.516857 2.755954
vn -0.400602 -0.912297 -0.085048
v 0.622868 1.464887 0.476582
vt 0.426189 2.750642
vn -0.354059 -0.931884 -0.078955
v 0.455017 1.512020 0.590603
vt 0.329759 2.813950
vn -0.295306 -0.950606 -0.095617
v 0.005868 1.618842 0.438013
vt 0.073225 2.730105
vn -0.121882 -0.990430 -0.064749
v 0.007266 1.626378 0.297755
vt 0.072834 2.652247
vn -0.121606 -0.991628 -0.043436
v -0.110435 1.630523 0.434066
vt 0.008381 2.728527
vn -0.097388 -0.993217 -0.063522
v -0.111679 1.638112 0.294616
vt 0.006469 2.650977
vn -0.097192 -0.994352 -0.042626
v 0.008231 1.631464 0.142472
vt 0.072537 2.566080
vn -0.121389 -0.992321 -0.023726
v 0.008471 1.633318 0.000000
vt 0.072391 2.487026
vn -0.121294 -0.992617 -0.000017
v -0.112526 1.643306 0.140430
vt 0.005122 2.565192
vn -0.097268 -0.994985 -0.023338
v -0.112827 1.645159 0.000000
vt 0.004660 2.487026
vn -0.097295 -0.995256 -0.000017
v 0.004281 1.609842 0.556872
vt 0.073602 2.796138
vn -0.122590 -0.988926 -0.083654
v -0.108931 1.621382 0.552230
vt 0.010522 2.794221
vn -0.097995 -0.991792 -0.082134
v -0.112526 1.643306 0.140430
vt 0.005122 2.565192
vn -0.097194 -0.994992 -0.023337
v -0.106193 1.612116 0.652116
vt 0.013224 2.849731
vn -0.083574 -0.992195 -0.092541
v -0.103204 1.611740 0.653448
vt 0.014924 2.850449
vn -0.098696 -0.991026 -0.090144
v -0.107771 1.614864 0.624081
vt 0.012022 2.834155
vn -0.098696 -0.991026 -0.090144
v 1.080101 1.205468 0.783819
vt 0.717075 2.922575
vn -0.488004 -0.858641 -0.156803
v 1.240905 1.137116 0.650691
vt 0.813726 2.848531
vn -0.508777 -0.846670 -0.155871
v 1.154783 1.208789 0.507949
vt 0.753123 2.768546
vn -0.484822 -0.867735 -0.109471
v 1.308380 1.138935 0.350676
vt 0.846569 2.681439
vn -0.505166 -0.859007 -0.083149
v 0.480154 1.525570 0.315480
vt 0.340586 2.661412
vn -0.299794 -0.952711 -0.049654
v 0.638050 1.470008 0.323776
vt 0.433035 2.665987
vn -0.355770 -0.933062 -0.053138
v 0.319872 1.570721 0.308119
vt 0.248616 2.657403
vn -0.236582 -0.970477 -0.046938
v 0.480154 1.525570 0.315480
vt 0.340586 2.661412
vn -0.299778 -0.952709 -0.049778
v 0.437970 1.505213 0.699690
vt 0.321900 2.874654
vn -0.293106 -0.950302 -0.104951
v 0.437970 1.505213 0.699690
vt 0.321900 2.874654
vn -0.293098 -0.950285 -0.105128
v 0.290315 1.547286 0.683888
vt 0.236432 2.865955
vn -0.232298 -0.967537 -0.099553
v 0.290315 1.547286 0.683888
vt 0.236432 2.865955
vn -0.232277 -0.967502 -0.099935
v 0.139158 1.579744 0.670080
vt 0.150496 2.858589
vn -0.173775 -0.980160 -0.095332
v 0.139158 1.579744 0.670080
vt 0.150496 2.858589
vn -0.173662 -0.980169 -0.095447
v 0.002109 1.600546 0.659924
vt 0.073575 2.853434
vn -0.123803 -0.988039 -0.091934
v 0.002109 1.600546 0.659924
vt 0.073575 2.853434
vn -0.123783 -0.988060 -0.091735
v 0.622868 1.464887 0.476582
vt 0.426189 2.750642
vn -0.354084 -0.931867 -0.079044
v 0.896001 1.328482 0.627366
vt 0.595118 2.834666
vn -0.436491 -0.891636 -0.120251
v 1.277162 1.138106 0.514490
vt 0.831320 2.772511
vn -0.507109 -0.853116 -0.122614
v 0.455017 1.512021 -0.590603
vt 0.329759 2.160102
vn -0.295408 -0.950583 0.095535
v 0.468555 1.519421 -0.464543
vt 0.335601 2.230078
vn -0.297802 -0.951767 0.073850
v 0.605081 1.458690 -0.605610
vt 0.418174 2.151739
vn -0.351921 -0.930450 0.102055
v 0.622868 1.464887 -0.476582
vt 0.426189 2.223411
vn -0.354009 -0.931911 0.078865
v 0.648784 1.473294 -0.154438
vt 0.437926 2.401706
vn -0.356924 -0.933681 0.029057
v 0.488364 1.529604 -0.150439
vt 0.344152 2.403910
vn -0.301019 -0.953231 0.027159
v 1.277162 1.138106 -0.514490
vt 0.831320 2.201541
vn -0.507099 -0.853115 0.122662
v 1.308380 1.138935 -0.350676
vt 0.846569 2.292614
vn -0.505227 -0.858989 0.082964
v 1.475428 1.015994 -0.524695
vt 0.960334 2.194932
vn -0.515418 -0.847815 0.124717
v 1.513175 1.015191 -0.358193
vt 0.979215 2.287807
vn -0.513540 -0.853921 0.084242
v 1.339652 1.138721 0.000000
vt 0.862124 2.487026
vn -0.503492 -0.864000 -0.000063
v 1.330307 1.139180 -0.172876
vt 0.857388 2.391242
vn -0.504002 -0.862499 0.045572
v 1.539019 1.014719 -0.171457
vt 0.992162 2.391725
vn -0.512311 -0.857582 0.045729
v 0.325609 1.575339 -0.146897
vt 0.250888 2.405829
vn -0.237414 -0.971069 0.025668
v 0.319872 1.570721 -0.308119
vt 0.248616 2.316649
vn -0.236605 -0.970472 0.046938
v 0.159170 1.610057 -0.143803
vt 0.156987 2.407435
vn -0.174228 -0.984402 0.024462
v 0.155899 1.605075 -0.301678
vt 0.156007 2.320002
vn -0.174126 -0.983706 0.044756
v 0.151309 1.597653 -0.444431
vt 0.154657 2.240860
vn -0.173912 -0.982487 0.066880
v 0.311772 1.563775 -0.453836
vt 0.245428 2.235912
vn -0.235240 -0.969416 0.069959
v 0.145986 1.588773 -0.565368
vt 0.153018 2.173701
vn -0.173617 -0.981001 0.086572
v 0.302338 1.555423 -0.577186
vt 0.241677 2.167419
vn -0.233611 -0.968103 0.090569
v 0.319872 1.570721 -0.308119
vt 0.248616 2.316649
vn -0.236588 -0.970479 0.046858
v 1.104411 1.263597 -0.167170
vt 0.714840 2.394569
vn -0.459440 -0.887437 0.037018
v 0.959716 1.336726 -0.163039
vt 0.625351 2.396902
vn -0.435590 -0.899493 0.034246
v 1.060794 1.260426 -0.502768
vt 0.693804 2.208552
vn -0.461095 -0.881760 0.099455
v 0.921891 1.332009 -0.494843
vt 0.607344 2.213105
vn -0.435995 -0.895209 0.092247
v 1.086385 1.262471 -0.342213
vt 0.706093 2.297646
vn -0.460169 -0.885258 0.067550
v 0.944074 1.334953 -0.336571
vt 0.617857 2.300872
vn -0.435834 -0.897852 0.062530
v 0.992787 1.256118 -0.772223
vt 0.661021 2.058269
vn -0.462589 -0.875119 0.142048
v 0.863322 1.325828 -0.754746
vt 0.579284 2.068336
vn -0.435573 -0.890558 0.131079
v 1.030981 1.257995 -0.636791
vt 0.679549 2.133922
vn -0.462637 -0.876944 0.130141
v 0.896001 1.328482 -0.627366
vt 0.595119 2.139385
vn -0.436488 -0.891651 0.120155
v 1.193986 1.136123 -0.794957
vt 0.791000 2.044674
vn -0.500716 -0.849771 0.164840
v 1.240905 1.137116 -0.650691
vt 0.813726 2.125521
vn -0.508717 -0.846725 0.155767
v 1.266473 1.091966 -0.792620
vt 0.838072 2.045532
vn -0.522312 -0.834102 0.177380
v 1.385015 1.019039 -0.776042
vt 0.915312 2.053832
vn -0.523375 -0.833293 0.178049
v 1.334051 1.051579 -0.786001
vt 0.881730 2.048847
vn -0.523375 -0.833293 0.178049
v 1.430749 1.017166 -0.662593
vt 0.938085 2.117673
vn -0.519185 -0.839354 0.161035
v 1.080101 1.205468 -0.783818
vt 0.717075 2.051478
vn -0.488092 -0.858618 0.156657
v 1.122252 1.207016 -0.642943
vt 0.737468 2.130270
vn -0.487514 -0.861172 0.143920
v 1.202448 1.211010 -0.169968
vt 0.776285 2.392964
vn -0.482027 -0.875209 0.040722
v 1.060794 1.260426 -0.502768
vt 0.693804 2.208552
vn -0.461099 -0.881773 0.099315
v 1.086385 1.262471 -0.342213
vt 0.706093 2.297646
vn -0.460201 -0.885234 0.067641
v 1.154783 1.208790 -0.507949
vt 0.753124 2.205506
vn -0.484832 -0.867735 0.109423
v 1.182760 1.210283 -0.345935
vt 0.766660 2.295469
vn -0.483201 -0.872328 0.074565
v 0.583246 1.453504 -0.717439
vt 0.407818 2.089482
vn -0.349515 -0.930221 0.111932
v 0.725010 1.393132 -0.736213
vt 0.493664 2.078889
vn -0.398038 -0.909437 0.120377
v 0.752192 1.396929 -0.616882
vt 0.506747 2.145374
vn -0.399716 -0.909994 0.110172
v 0.752192 1.396929 -0.616882
vt 0.506747 2.145374
vn -0.399692 -0.909994 0.110264
v 0.863322 1.325828 -0.754746
vt 0.579284 2.068336
vn -0.435627 -0.890532 0.131082
v 0.805846 1.408228 -0.158733
vt 0.531730 2.399314
vn -0.401884 -0.915150 0.031462
v 0.805846 1.408228 -0.158733
vt 0.531730 2.399314
vn -0.401934 -0.915128 0.031462
v 0.622868 1.464887 -0.476582
vt 0.426189 2.223411
vn -0.354109 -0.931872 0.078869
v 0.638050 1.470008 -0.323776
vt 0.433035 2.308065
vn -0.355818 -0.933048 0.053054
v 0.774008 1.401735 -0.486039
vt 0.516857 2.218099
vn -0.400599 -0.912306 0.084958
v 0.792673 1.405740 -0.330367
vt 0.525527 2.304376
vn -0.401401 -0.914103 0.057379
v 0.455017 1.512021 -0.590603
vt 0.329759 2.160102
vn -0.295320 -0.950606 0.095574
v -0.111679 1.638112 -0.294615
vt 0.006469 2.323075
vn -0.097205 -0.994354 0.042554
v 0.007266 1.626378 -0.297754
vt 0.072834 2.321805
vn -0.121617 -0.991629 0.043363
v -0.110435 1.630523 -0.434066
vt 0.008381 2.245525
vn -0.097404 -0.993218 0.063486
v 0.005868 1.618842 -0.438013
vt 0.073225 2.243947
vn -0.121929 -0.990432 0.064637
v -0.112827 1.645159 0.000000
vt 0.004660 2.487026
vn -0.097186 -0.995266 -0.000017
v -0.112526 1.643306 -0.140430
vt 0.005122 2.408860
vn -0.097206 -0.994992 0.023268
v 0.008231 1.631464 -0.142472
vt 0.072537 2.407973
vn -0.121404 -0.992320 0.023691
v -0.108931 1.621382 -0.552230
vt 0.010522 2.179831
vn -0.098008 -0.991797 0.082058
v 0.004281 1.609842 -0.556872
vt 0.073602 2.177914
vn -0.122602 -0.988931 0.083576
v -0.112526 1.643306 -0.140430
vt 0.005122 2.408860
vn -0.097132 -0.994999 0.023266
v -0.107771 1.614864 -0.624080
vt 0.012023 2.139896
vn -0.098709 -0.991032 0.090068
v -0.103204 1.611740 -0.653447
vt 0.014918 2.123602
vn -0.098709 -0.991032 0.090068
v -0.106193 1.612117 -0.652116
vt 0.013229 2.124322
vn -0.083626 -0.992198 0.092469
v 1.080101 1.205468 -0.783818
vt 0.717075 2.051478
vn -0.488038 -0.858649 0.156654
v 1.240905 1.137116 -0.650691
vt 0.813726 2.125521
vn -0.508809 -0.846678 0.155721
v 0.480154 1.525570 -0.315480
vt 0.340586 2.312639
vn -0.299833 -0.952705 0.049532
v 1.154783 1.208790 -0.507949
vt 0.753124 2.205506
vn -0.484815 -0.867751 0.109375
v 0.480154 1.525570 -0.315480
vt 0.340586 2.312639
vn -0.299817 -0.952704 0.049655
v 0.437970 1.505213 -0.699690
vt 0.321901 2.099398
vn -0.293111 -0.950310 0.104863
v 0.583246 1.453504 -0.717439
vt 0.407818 2.089482
vn -0.349595 -0.930223 0.111662
v 0.290315 1.547287 -0.683888
vt 0.236432 2.108097
vn -0.232305 -0.967544 0.099469
v 0.139158 1.579744 -0.670080
vt 0.150496 2.115464
vn -0.173828 -0.980158 0.095254
v 0.002109 1.600546 -0.659924
vt 0.073575 2.120618
vn -0.123795 -0.988066 0.091657
v 0.002109 1.600546 -0.659924
vt 0.073575 2.120618
vn -0.123816 -0.988045 0.091856
v 1.086385 1.262471 -0.342213
vt 0.706093 2.297646
vn -0.460098 -0.885288 0.067638
v 0.622868 1.464887 -0.476582
vt 0.426189 2.223411
vn -0.354084 -0.931875 0.078956
v 0.896001 1.328482 -0.627366
vt 0.595119 2.139385
vn -0.436541 -0.891624 0.120158
v 0.455802 1.514526 0.590828
vt 0.329170 2.161419
vn 0.296185 0.950297 0.095970
v 0.469322 1.521856 0.464714
vt 0.335011 2.231258
vn 0.298597 0.951432 0.074948
v 0.605917 1.460933 0.605826
vt 0.417431 2.153037
vn 0.352388 0.930226 0.102485
v 0.623667 1.467024 0.476742
vt 0.425433 2.224574
vn 0.354386 0.931684 0.079848
v 0.649743 1.475841 0.154508
vt 0.437120 2.402556
vn 0.357389 0.933534 0.028077
v 0.489257 1.532418 0.150510
vt 0.343553 2.404765
vn 0.301797 0.953010 0.026253
v 0.653995 1.476434 0.000000
vt 0.439138 2.487736
vn 0.358162 0.933659 0.000059
v 0.492521 1.533376 0.000000
vt 0.345071 2.487736
vn 0.302480 0.953156 0.000019
v 1.278433 1.140369 0.514777
vt 0.829836 2.202912
vn 0.507574 0.852675 0.123751
v 1.309897 1.141642 0.350911
vt 0.844893 2.293800
vn 0.505555 0.858655 0.084418
v 1.475411 1.018746 0.523900
vt 0.958458 2.196589
vn 0.516405 0.846991 0.126220
v 1.513345 1.018391 0.358299
vt 0.977092 2.289177
vn 0.514308 0.853307 0.085759
v 1.340736 1.140704 0.000000
vt 0.860268 2.487736
vn 0.503696 0.863881 0.000021
v 1.547054 1.017798 0.000000
vt 0.994433 2.487736
vn 0.512094 0.858929 0.000063
v 1.331749 1.141774 0.172996
vt 0.855581 2.392191
vn 0.504269 0.862453 0.043444
v 1.539239 1.017982 0.171641
vt 0.989872 2.392747
vn 0.512787 0.857406 0.043644
v 0.326342 1.578235 0.146965
vt 0.250462 2.406691
vn 0.236814 0.971240 0.024737
v 0.320586 1.573546 0.308244
vt 0.248181 2.317686
vn 0.235965 0.970568 0.048150
v 0.159684 1.612738 0.143862
vt 0.156703 2.408301
vn 0.173683 0.984518 0.023642
v 0.156403 1.607695 0.301786
vt 0.155715 2.321047
vn 0.173372 0.983778 0.046065
v 0.151766 1.600005 0.444574
vt 0.154349 2.242065
vn 0.173166 0.982554 0.067829
v 0.312412 1.566307 0.454001
vt 0.244989 2.237106
vn 0.234670 0.969482 0.070959
v 0.146454 1.591189 0.565558
vt 0.152703 2.175042
vn 0.172775 0.981115 0.086965
v 0.302985 1.557995 0.577402
vt 0.241234 2.168751
vn 0.233075 0.968203 0.090876
v 0.328616 1.579481 0.000000
vt 0.251456 2.487736
vn 0.237294 0.971438 0.000055
v 0.326342 1.578235 0.146965
vt 0.250462 2.406691
vn 0.236902 0.971218 0.024738
v 0.161031 1.614164 0.000000
vt 0.157201 2.487736
vn 0.173769 0.984786 0.000053
v 0.320586 1.573546 0.308244
vt 0.248181 2.317686
vn 0.235875 0.970590 0.048148
v 0.156403 1.607695 0.301786
vt 0.155715 2.321047
vn 0.173492 0.983759 0.046031
v 1.113048 1.265624 0.000000
vt 0.717167 2.487736
vn 0.459420 0.888219 0.000021
v 1.105701 1.266175 0.167267
vt 0.713391 2.395450
vn 0.459286 0.887593 0.035154
v 0.967236 1.339142 0.000000
vt 0.627313 2.487736
vn 0.435689 0.900097 0.000020
v 0.960937 1.339333 0.163127
vt 0.624110 2.397759
vn 0.435359 0.899664 0.032661
v 1.061924 1.262676 0.502997
vt 0.692560 2.209751
vn 0.460582 0.881902 0.100563
v 0.922942 1.334253 0.495049
vt 0.606250 2.214263
vn 0.435369 0.895401 0.093332
v 1.087710 1.265107 0.342398
vt 0.704731 2.298702
vn 0.459678 0.885420 0.068756
v 0.945305 1.337574 0.336736
vt 0.616683 2.301890
vn 0.435295 0.898027 0.063763
v 0.993813 1.258148 0.772509
vt 0.660004 2.059715
vn 0.462101 0.874987 0.144433
v 0.864302 1.327927 0.755055
vt 0.578319 2.069757
vn 0.435095 0.890510 0.132983
v 1.032164 1.260328 0.637099
vt 0.678424 2.135232
vn 0.462312 0.876995 0.130951
v 0.897098 1.330811 0.627643
vt 0.594099 2.140663
vn 0.435993 0.891812 0.120752
v 1.195091 1.138075 0.795268
vt 0.789946 2.046300
vn 0.500478 0.849277 0.168077
v 1.242260 1.139490 0.651081
vt 0.812457 2.127003
vn 0.508787 0.846487 0.156829
v 1.267528 1.093811 0.792778
vt 0.836997 2.047236
vn 0.521777 0.833374 0.182309
v 1.385647 1.022684 0.772394
vt 0.913902 2.055919
vn 0.522593 0.832661 0.183228
v 1.334468 1.053330 0.783384
vt 0.880572 2.050680
vn 0.522593 0.832661 0.183228
v 1.430840 1.020406 0.661049
vt 0.936524 2.119530
vn 0.519808 0.838816 0.161824
v 1.081170 1.207484 0.784140
vt 0.716048 2.052979
vn 0.487399 0.858501 0.159434
v 1.123514 1.209385 0.643284
vt 0.736282 2.131637
vn 0.487094 0.861238 0.144941
v 1.081170 1.207484 0.784140
vt 0.716048 2.052979
vn 0.487453 0.858469 0.159437
v 1.203813 1.213619 0.170075
vt 0.774691 2.393870
vn 0.481812 0.875423 0.038616
v 1.211900 1.212838 0.000000
vt 0.778875 2.487736
vn 0.481714 0.876328 0.000062
v 1.331749 1.141774 0.172996
vt 0.855581 2.392191
vn 0.504167 0.862513 0.043443
v 1.155973 1.211053 0.508198
vt 0.751782 2.206762
vn 0.484272 0.867905 0.110550
v 1.184179 1.212978 0.346140
vt 0.765170 2.296571
vn 0.482706 0.872513 0.075608
v 1.278433 1.140369 0.514777
vt 0.829836 2.202912
vn 0.507554 0.852672 0.123848
v 1.309897 1.141642 0.350911
vt 0.844893 2.293800
vn 0.505468 0.858701 0.084462
v 0.584028 1.455597 0.717601
vt 0.407079 2.090918
vn 0.349984 0.929897 0.113147
v 0.725900 1.395227 0.736445
vt 0.492796 2.080313
vn 0.397374 0.909531 0.121848
v 0.753147 1.399170 0.617121
vt 0.505858 2.146654
vn 0.399110 0.910213 0.110562
v 0.864302 1.327927 0.755055
vt 0.578319 2.069757
vn 0.435027 0.890551 0.132932
v 0.806935 1.410776 0.158810
vt 0.530710 2.400163
vn 0.401481 0.915371 0.030153
v 0.812190 1.410972 0.000000
vt 0.533360 2.487736
vn 0.401995 0.915642 0.000060
v 0.623667 1.467024 0.476742
vt 0.425433 2.224574
vn 0.354474 0.931654 0.079807
v 0.638972 1.472462 0.323901
vt 0.432259 2.309079
vn 0.356081 0.932869 0.054424
v 0.774938 1.403919 0.486219
vt 0.515931 2.219249
vn 0.399896 0.912520 0.085971
v 0.793747 1.408251 0.330509
vt 0.524556 2.305383
vn 0.400707 0.914329 0.058627
v 0.492521 1.533376 0.000000
vt 0.345071 2.487736
vn 0.302491 0.953152 0.000057
v -0.111558 1.640637 0.294714
vt 0.006461 2.324108
vn 0.095480 0.994466 0.043821
v 0.007649 1.629057 0.297861
vt 0.072699 2.322850
vn 0.120983 0.991650 0.044660
v -0.110066 1.632737 0.434190
vt 0.008331 2.246725
vn 0.096198 0.993268 0.064537
v 0.006216 1.621214 0.438152
vt 0.073057 2.245153
vn 0.121403 0.990431 0.065633
v 0.151766 1.600005 0.444574
vt 0.154349 2.242065
vn 0.173081 0.982570 0.067825
v 0.007649 1.629057 0.297861
vt 0.072699 2.322850
vn 0.120979 0.991652 0.044623
v -0.112462 1.647373 0.000000
vt 0.004701 2.487736
vn 0.095072 0.995470 0.000050
v 0.008830 1.635805 0.000000
vt 0.072296 2.487736
vn 0.120787 0.992678 0.000017
v -0.112425 1.645854 0.140483
vt 0.005146 2.409718
vn 0.095185 0.995204 0.022535
v 0.008626 1.634246 0.142531
vt 0.072432 2.408839
vn 0.120782 0.992414 0.022936
v -0.108656 1.623713 0.552400
vt 0.010423 2.181173
vn 0.097392 0.991817 0.082552
v -0.110066 1.632737 0.434190
vt 0.008331 2.246725
vn 0.096188 0.993276 0.064425
v 0.004632 1.612224 0.557051
vt 0.073401 2.179258
vn 0.122086 0.988958 0.084010
v -0.111558 1.640637 0.294714
vt 0.006461 2.324108
vn 0.095473 0.994470 0.043749
v -0.107450 1.617140 0.624260
vt 0.011897 2.141327
vn 0.098291 0.990931 0.091624
v -0.102892 1.613932 0.653467
vt 0.014786 2.125087
vn 0.098291 0.990931 0.091624
v -0.105779 1.614299 0.652189
vt 0.013224 2.125741
vn 0.083599 0.991871 0.095932
v 0.481018 1.528300 0.315609
vt 0.339997 2.313663
vn 0.300484 0.952425 0.050953
v 0.489257 1.532418 0.150510
vt 0.343553 2.404765
vn 0.301891 0.952981 0.026254
v 0.469322 1.521856 0.464714
vt 0.335011 2.231258
vn 0.298614 0.951437 0.074820
v 0.638972 1.472462 0.323901
vt 0.432259 2.309079
vn 0.356093 0.932862 0.054467
v 0.481018 1.528300 0.315609
vt 0.339997 2.313663
vn 0.300601 0.952383 0.051039
v 0.481018 1.528300 0.315609
vt 0.339997 2.313663
vn 0.300506 0.952414 0.051036
v 0.438688 1.507595 0.700137
vt 0.321312 2.100851
vn 0.293672 0.949981 0.106268
v 0.290905 1.549730 0.684352
vt 0.235991 2.109562
vn 0.231770 0.967561 0.100543
v 0.139603 1.582064 0.670358
vt 0.150180 2.116935
vn 0.172905 0.980216 0.096338
v 0.002444 1.602772 0.660068
vt 0.073356 2.122088
vn 0.123270 0.987983 0.093239
v 0.139603 1.582064 0.670358
vt 0.150180 2.116935
vn 0.172781 0.980234 0.096371
v -0.102892 1.613932 0.653467
vt 0.014786 2.125087
vn 0.098373 0.990919 0.091669
v -0.107450 1.617140 0.624260
vt 0.011897 2.141327
vn 0.098373 0.990919 0.091669
v 0.806935 1.410776 0.158810
vt 0.530710 2.400163
vn 0.401381 0.915415 0.030151
v 0.922942 1.334253 0.495049
vt 0.606250 2.214263
vn 0.435473 0.895350 0.093336
v 1.430840 1.020406 0.661049
vt 0.936524 2.119530
vn 0.519754 0.838850 0.161821
v 1.475411 1.018746 0.523900
vt 0.958458 2.196589
vn 0.516385 0.846989 0.126318
v 1.475411 1.018746 0.523900
vt 0.958458 2.196589
vn 0.966120 0.041590 0.254721
v 1.513345 1.018391 0.358299
vt 0.977092 2.289177
vn 0.983637 -0.035227 0.176682
v 1.475428 1.015994 0.524695
vt 0.959530 2.196329
vn 0.961410 0.059401 0.268631
v 1.513175 1.015191 0.358193
vt 0.978182 2.289001
vn 0.983863 -0.036316 0.175198
v 1.539239 1.017982 0.171641
vt 0.989872 2.392747
vn 0.994604 0.036971 0.096931
v 1.547054 1.017798 0.000000
vt 0.994433 2.487736
vn 0.987903 0.155072 0.000052
v 1.539019 1.014719 0.171458
vt 0.990973 2.392648
vn 0.994589 0.044199 0.094016
v 1.548303 1.014566 0.000000
vt 0.995537 2.487736
vn 0.987903 0.155072 0.000052
v 0.864302 1.327927 0.755055
vt 0.578319 2.069757
vn -0.162539 -0.058424 0.984971
v 0.993813 1.258148 0.772509
vt 0.660004 2.059715
vn -0.166018 -0.061205 0.984221
v 0.863322 1.325828 0.754747
vt 0.578184 2.068662
vn -0.162539 -0.058424 0.984971
v 0.992787 1.256118 0.772224
vt 0.659870 2.058619
vn -0.165713 -0.061114 0.984279
v 1.195091 1.138075 0.795268
vt 0.789946 2.046300
vn -0.102340 -0.088243 0.990828
v 1.267528 1.093811 0.792778
vt 0.836997 2.047236
vn 0.164480 0.159767 0.973355
v 1.193986 1.136123 0.794958
vt 0.789890 2.045198
vn -0.100419 -0.088607 0.990992
v 1.266473 1.091966 0.792620
vt 0.837047 2.046133
vn 0.172272 0.170469 0.970187
v 1.267528 1.093811 0.792778
vt 0.836997 2.047236
vn 0.164570 0.159778 0.973339
v 1.334468 1.053330 0.783384
vt 0.880572 2.050680
vn 0.444962 0.537765 0.716113
v 1.266473 1.091966 0.792620
vt 0.837047 2.046133
vn 0.172261 0.170378 0.970205
v 1.334051 1.051579 0.786001
vt 0.880714 2.049581
vn 0.450509 0.544710 0.707342
v 1.385647 1.022684 0.772394
vt 0.913902 2.055919
vn 0.912987 0.180202 0.366036
v 1.430840 1.020406 0.661049
vt 0.936524 2.119530
vn 0.934971 0.134469 0.328250
v 1.385015 1.019038 0.776042
vt 0.914661 2.055233
vn 0.912987 0.180202 0.366036
v 1.430749 1.017166 0.662594
vt 0.937574 2.119186
vn 0.926326 0.153406 0.344073
v 1.334468 1.053330 0.783384
vt 0.880572 2.050680
vn 0.444970 0.537879 0.716022
v 1.385647 1.022684 0.772394
vt 0.913902 2.055919
vn 0.503348 0.611236 0.610763
v 1.385015 1.019038 0.776042
vt 0.914661 2.055233
vn 0.503348 0.611236 0.610763
v 0.993813 1.258148 0.772509
vt 0.660004 2.059715
vn -0.166214 -0.061408 0.984176
v 1.081170 1.207484 0.784140
vt 0.716048 2.052979
vn -0.154039 -0.070713 0.985531
v 0.992787 1.256118 0.772224
vt 0.659870 2.058619
vn -0.166525 -0.061538 0.984115
v 1.080101 1.205468 0.783819
vt 0.715945 2.051879
vn -0.153513 -0.071115 0.985584
v 1.193986 1.136123 0.794958
vt 0.789890 2.045198
vn -0.100305 -0.088637 0.991001
v 0.584028 1.455597 0.717601
vt 0.407079 2.090918
vn -0.147739 -0.059931 0.987209
v 0.725900 1.395227 0.736445
vt 0.492796 2.080313
vn -0.152726 -0.045230 0.987233
v 0.583246 1.453504 0.717440
vt 0.406946 2.089823
vn -0.147715 -0.059738 0.987224
v 0.725010 1.393132 0.736213
vt 0.492660 2.079218
vn -0.152834 -0.045422 0.987208
v 0.864302 1.327927 0.755055
vt 0.578319 2.069757
vn -0.162414 -0.058419 0.984992
v 0.725010 1.393132 0.736213
vt 0.492660 2.079218
vn -0.152712 -0.045417 0.987227
v -0.111558 1.640637 0.294714
vt 0.006461 2.324108
vn -0.997461 0.070369 0.010913
v -0.110066 1.632737 0.434190
vt 0.008331 2.246725
vn -0.992755 0.118672 0.018816
v -0.111679 1.638112 0.294616
vt 0.005315 2.324087
vn -0.997446 0.070579 0.010915
v -0.110435 1.630523 0.434066
vt 0.007186 2.246694
vn -0.992729 0.118897 0.018784
v -0.112462 1.647373 0.000000
vt 0.004701 2.487736
vn -0.995236 0.097501 0.000083
v -0.112425 1.645854 0.140483
vt 0.005146 2.409718
vn -0.997640 0.068492 0.004887
v -0.112827 1.645159 0.000000
vt 0.003552 2.487736
vn -0.995238 0.097476 -0.000017
v -0.112526 1.643306 0.140430
vt 0.003998 2.409705
vn -0.997647 0.068388 0.004886
v -0.108656 1.623713 0.552400
vt 0.010423 2.181173
vn -0.990646 0.134183 0.024823
v -0.108931 1.621382 0.552230
vt 0.009279 2.181136
vn -0.990662 0.134066 0.024821
v -0.105779 1.614299 0.652189
vt 0.013224 2.125741
vn -0.400505 0.047269 0.915075
v -0.102892 1.613932 0.653467
vt 0.014786 2.125087
vn -0.074522 -0.025320 0.996898
v -0.106193 1.612116 0.652116
vt 0.012186 2.125498
vn -0.400505 0.047269 0.915075
v -0.103204 1.611740 0.653448
vt 0.014702 2.123951
vn -0.075230 -0.025233 0.996847
v -0.107450 1.617140 0.624260
vt 0.011897 2.141327
vn -0.990024 0.135072 0.040093
v -0.105779 1.614299 0.652189
vt 0.013224 2.125741
vn -0.984662 0.158460 0.073022
v -0.107771 1.614864 0.624081
vt 0.010752 2.141269
vn -0.989985 0.135267 0.040393
v -0.106193 1.612116 0.652116
vt 0.012186 2.125498
vn -0.984662 0.158460 0.073022
v 0.438688 1.507595 0.700137
vt 0.321312 2.100851
vn -0.147619 -0.115318 0.982299
v 0.437970 1.505213 0.699690
vt 0.321191 2.099754
vn -0.147634 -0.115443 0.982282
v 0.583246 1.453504 0.717440
vt 0.406946 2.089823
vn -0.147633 -0.059735 0.987237
v 0.290905 1.549730 0.684352
vt 0.235991 2.109562
vn -0.132217 -0.136530 0.981773
v 0.290315 1.547286 0.683888
vt 0.235886 2.108464
vn -0.132039 -0.136427 0.981811
v 0.139603 1.582064 0.670358
vt 0.150180 2.116935
vn -0.103405 -0.105013 0.989080
v 0.139158 1.579744 0.670080
vt 0.150097 2.115835
vn -0.103119 -0.104434 0.989171
v 0.290315 1.547286 0.683888
vt 0.235886 2.108464
vn -0.132030 -0.136342 0.981824
v 0.002444 1.602772 0.660068
vt 0.073356 2.122088
vn -0.077140 -0.056636 0.995410
v 0.002109 1.600546 0.659924
vt 0.073294 2.120986
vn -0.076827 -0.055826 0.995480
v 1.513345 1.018391 0.358299
vt 0.977092 2.289177
vn 0.983637 -0.035115 0.176706
v 1.513175 1.015191 0.358193
vt 0.978182 2.289001
vn 0.983848 -0.036206 0.175305
v 1.430840 1.020406 0.661049
vt 0.936524 2.119530
vn 0.934992 0.134375 0.328227
v 1.430749 1.017166 0.662594
vt 0.937574 2.119186
vn 0.926339 0.153358 0.344061
v 1.475428 1.015994 0.524695
vt 0.959530 2.196329
vn 0.961399 0.059484 0.268650
v 0.623668 1.467025 -0.476741
vt 0.425433 2.750897
vn 0.354386 0.931691 -0.079760
v 0.469322 1.521856 -0.464713
vt 0.335011 2.744214
vn 0.298600 0.951438 -0.074862
v 0.605917 1.460934 -0.605826
vt 0.417431 2.822434
vn 0.352427 0.930225 -0.102351
v 0.455802 1.514526 -0.590828
vt 0.329170 2.814052
vn 0.296228 0.950297 -0.095841
v 0.489258 1.532419 -0.150509
vt 0.343553 2.570706
vn 0.301799 0.953012 -0.026173
v 0.649743 1.475842 -0.154508
vt 0.437120 2.572916
vn 0.357422 0.933524 -0.027954
v 1.513349 1.018389 -0.358300
vt 0.977092 2.686294
vn 0.514299 0.853322 -0.085665
v 1.309898 1.141643 -0.350911
vt 0.844893 2.681671
vn 0.505616 0.858623 -0.084372
v 1.475382 1.018747 -0.523859
vt 0.958458 2.778882
vn 0.516502 0.846925 -0.126273
v 1.278434 1.140371 -0.514777
vt 0.829836 2.772560
vn 0.507654 0.852627 -0.123754
v 1.539240 1.017982 -0.171641
vt 0.989871 2.582724
vn 0.512827 0.857386 -0.043555
v 1.331749 1.141775 -0.172996
vt 0.855581 2.583281
vn 0.504208 0.862493 -0.043355
v 0.156403 1.607696 -0.301786
vt 0.155715 2.654424
vn 0.173417 0.983776 -0.045952
v 0.320586 1.573547 -0.308244
vt 0.248181 2.657785
vn 0.236007 0.970563 -0.048032
v 0.159684 1.612738 -0.143861
vt 0.156703 2.567170
vn 0.173727 0.984513 -0.023533
v 0.326342 1.578236 -0.146964
vt 0.250462 2.568780
vn 0.236819 0.971241 -0.024660
v 0.302986 1.557999 -0.577402
vt 0.241234 2.806721
vn 0.233120 0.968204 -0.090752
v 0.312413 1.566308 -0.454001
vt 0.244989 2.738365
vn 0.234714 0.969480 -0.070838
v 0.146454 1.591190 -0.565557
vt 0.152703 2.800429
vn 0.172822 0.981117 -0.086846
v 0.151767 1.600006 -0.444574
vt 0.154349 2.733407
vn 0.173096 0.982570 -0.067786
v 0.326342 1.578236 -0.146964
vt 0.250462 2.568780
vn 0.236908 0.971219 -0.024661
v 0.151767 1.600006 -0.444574
vt 0.154349 2.733407
vn 0.173206 0.982558 -0.067673
v 0.156403 1.607696 -0.301786
vt 0.155715 2.654424
vn 0.173501 0.983761 -0.045955
v 0.320586 1.573547 -0.308244
vt 0.248181 2.657785
vn 0.235918 0.970585 -0.048030
v 0.960938 1.339334 -0.163127
vt 0.624110 2.577712
vn 0.435387 0.899655 -0.032533
v 1.105702 1.266176 -0.167266
vt 0.713391 2.580021
vn 0.459312 0.887584 -0.035025
v 0.945306 1.337575 -0.336736
vt 0.616683 2.673581
vn 0.435326 0.898022 -0.063630
v 0.922944 1.334257 -0.495049
vt 0.606250 2.761208
vn 0.435490 0.895361 -0.093152
v 1.087711 1.265109 -0.342397
vt 0.704731 2.676769
vn 0.459723 0.885404 -0.068667
v 1.061924 1.262676 -0.502996
vt 0.692560 2.765720
vn 0.460597 0.881916 -0.100376
v 0.897106 1.330828 -0.627645
vt 0.594100 2.834808
vn 0.436028 0.891814 -0.120610
v 0.864311 1.327954 -0.755090
vt 0.578319 2.905714
vn 0.434985 0.890579 -0.132881
v 1.032167 1.260335 -0.637100
vt 0.678424 2.840239
vn 0.462330 0.877014 -0.130758
v 0.993817 1.258159 -0.772525
vt 0.660004 2.915757
vn 0.462120 0.875009 -0.144237
v 1.267529 1.093813 -0.792780
vt 0.836998 2.928236
vn 0.521811 0.833386 -0.182155
v 1.242260 1.139490 -0.651081
vt 0.812457 2.848468
vn 0.508906 0.846424 -0.156784
v 1.195093 1.138079 -0.795273
vt 0.789946 2.929172
vn 0.500567 0.849254 -0.167929
v 1.334476 1.053328 -0.783399
vt 0.880572 2.924791
vn 0.522589 0.832686 -0.183124
v 1.430834 1.020407 -0.661026
vt 0.936524 2.855941
vn 0.519819 0.838819 -0.161773
v 1.385647 1.022684 -0.772393
vt 0.913902 2.919553
vn 0.522589 0.832686 -0.183124
v 1.123518 1.209392 -0.643284
vt 0.736282 2.843834
vn 0.487143 0.861227 -0.144844
v 1.081176 1.207500 -0.784162
vt 0.716048 2.922493
vn 0.487503 0.858459 -0.159339
v 1.195093 1.138079 -0.795273
vt 0.789946 2.929172
vn 0.500512 0.849287 -0.167926
v 1.203814 1.213621 -0.170074
vt 0.774691 2.581601
vn 0.481820 0.875421 -0.038572
v 1.184179 1.212980 -0.346140
vt 0.765170 2.678900
vn 0.482715 0.872512 -0.075562
v 1.155981 1.211067 -0.508199
vt 0.751782 2.768709
vn 0.484319 0.867891 -0.110456
v 1.061924 1.262676 -0.502996
vt 0.692560 2.765720
vn 0.460613 0.881902 -0.100423
v 0.753150 1.399178 -0.617121
vt 0.505858 2.828818
vn 0.399109 0.910225 -0.110469
v 0.725895 1.395208 -0.736420
vt 0.492796 2.895158
vn 0.397347 0.909543 -0.121847
v 0.584031 1.455608 -0.717614
vt 0.407079 2.884553
vn 0.350024 0.929899 -0.113012
v 0.806936 1.410777 -0.158810
vt 0.530710 2.575309
vn 0.401476 0.915376 -0.030069
v 0.793747 1.408252 -0.330508
vt 0.524556 2.670088
vn 0.400717 0.914327 -0.058584
v 0.638973 1.472465 -0.323901
vt 0.432259 2.666393
vn 0.356092 0.932867 -0.054381
v 0.774938 1.403919 -0.486219
vt 0.515931 2.756222
vn 0.399930 0.912517 -0.085836
v 0.623668 1.467025 -0.476741
vt 0.425433 2.750897
vn 0.354487 0.931653 -0.079764
v 0.006216 1.621214 -0.438151
vt 0.073057 2.730318
vn 0.121415 0.990435 -0.065558
v 0.007649 1.629057 -0.297860
vt 0.072699 2.652621
vn 0.121029 0.991649 -0.044552
v -0.110066 1.632737 -0.434190
vt 0.008331 2.728747
vn 0.096211 0.993271 -0.064463
v -0.111558 1.640637 -0.294714
vt 0.006461 2.651362
vn 0.095530 0.994465 -0.043751
v 0.007649 1.629057 -0.297860
vt 0.072699 2.652621
vn 0.120994 0.991651 -0.044587
v 0.008626 1.634246 -0.142531
vt 0.072432 2.566632
vn 0.120831 0.992410 -0.022866
v -0.112425 1.645854 -0.140483
vt 0.005146 2.565753
vn 0.095231 0.995202 -0.022432
v -0.110066 1.632737 -0.434190
vt 0.008331 2.728747
vn 0.096204 0.993277 -0.064388
v 0.004632 1.612225 -0.557050
vt 0.073401 2.796213
vn 0.122138 0.988958 -0.083936
v -0.108656 1.623713 -0.552399
vt 0.010423 2.794298
vn 0.097434 0.991828 -0.082363
v 0.151767 1.600006 -0.444574
vt 0.154349 2.733407
vn 0.173121 0.982573 -0.067669
v 0.004632 1.612225 -0.557050
vt 0.073401 2.796213
vn 0.122102 0.988959 -0.083972
v -0.111558 1.640637 -0.294714
vt 0.006461 2.651362
vn 0.095520 0.994470 -0.043643
v -0.105779 1.614300 -0.652189
vt 0.013224 2.849730
vn 0.083832 0.991820 -0.096260
v -0.102892 1.613932 -0.653467
vt 0.014786 2.850385
vn 0.098422 0.990924 -0.091557
v -0.107462 1.617155 -0.624261
vt 0.011897 2.834144
vn 0.098422 0.990924 -0.091557
v 0.481019 1.528302 -0.315609
vt 0.339997 2.661808
vn 0.300523 0.952419 -0.050830
v 0.638973 1.472465 -0.323901
vt 0.432259 2.666393
vn 0.356129 0.932855 -0.054340
v 0.481019 1.528302 -0.315609
vt 0.339997 2.661808
vn 0.300603 0.952387 -0.050956
v 0.469322 1.521856 -0.464713
vt 0.335011 2.744214
vn 0.298628 0.951436 -0.074778
v 0.481019 1.528302 -0.315609
vt 0.339997 2.661808
vn 0.300618 0.952389 -0.050833
v 0.438687 1.507590 -0.700130
vt 0.321312 2.874621
vn 0.293716 0.949982 -0.106137
v 0.290905 1.549731 -0.684352
vt 0.235991 2.865910
vn 0.231793 0.967555 -0.100544
v 0.146454 1.591190 -0.565557
vt 0.152703 2.800429
vn 0.172736 0.981133 -0.086841
v 0.139602 1.582051 -0.670342
vt 0.150180 2.858536
vn 0.172828 0.980238 -0.096251
v 0.002444 1.602772 -0.660066
vt 0.073356 2.853383
vn 0.123323 0.987984 -0.093163
v -0.108656 1.623713 -0.552399
vt 0.010423 2.794298
vn 0.097405 0.991822 -0.082476
v 0.806936 1.410777 -0.158810
vt 0.530710 2.575309
vn 0.401427 0.915398 -0.030068
v 1.309898 1.141643 -0.350911
vt 0.844893 2.681671
vn 0.505564 0.858654 -0.084371
v 0.897106 1.330828 -0.627645
vt 0.594100 2.834808
vn 0.436013 0.891828 -0.120562
v 1.278434 1.140371 -0.514777
vt 0.829836 2.772560
vn 0.507601 0.852659 -0.123752
v 1.513175 1.015191 -0.358193
vt 0.978182 2.686471
vn 0.983911 -0.034312 -0.175332
v 1.513349 1.018389 -0.358300
vt 0.977092 2.686294
vn 0.983706 -0.033110 -0.176711
v 1.475428 1.015994 -0.524695
vt 0.959530 2.779142
vn 0.960905 0.066906 -0.268674
v 1.475382 1.018747 -0.523859
vt 0.958458 2.778882
vn 0.965950 0.047831 -0.254268
v 1.539019 1.014719 -0.171457
vt 0.990973 2.582823
vn 0.994615 0.043713 -0.093974
v 1.539240 1.017982 -0.171641
vt 0.989871 2.582724
vn 0.994628 0.036524 -0.096853
v 0.992787 1.256118 -0.772223
vt 0.659870 2.916852
vn -0.170067 -0.068996 -0.983014
v 0.993817 1.258159 -0.772525
vt 0.660004 2.915757
vn -0.170079 -0.069076 -0.983006
v 0.863322 1.325828 -0.754746
vt 0.578184 2.906809
vn -0.165269 -0.063679 -0.984191
v 0.864311 1.327954 -0.755090
vt 0.578319 2.905714
vn -0.165199 -0.063481 -0.984215
v 1.266473 1.091966 -0.792620
vt 0.837047 2.929338
vn 0.170750 0.167713 -0.970936
v 1.267529 1.093813 -0.792780
vt 0.836998 2.928236
vn 0.162955 0.157149 -0.974038
v 1.193986 1.136123 -0.794957
vt 0.789889 2.930274
vn -0.102373 -0.092067 -0.990476
v 1.195093 1.138079 -0.795273
vt 0.789946 2.929172
vn -0.104373 -0.091593 -0.990312
v 1.334051 1.051579 -0.786001
vt 0.880714 2.925890
vn 0.449740 0.543127 -0.709046
v 1.334476 1.053328 -0.783399
vt 0.880572 2.924791
vn 0.444312 0.536357 -0.717570
v 1.266473 1.091966 -0.792620
vt 0.837047 2.929338
vn 0.170614 0.167697 -0.970963
v 1.267529 1.093813 -0.792780
vt 0.836998 2.928236
vn 0.162905 0.157100 -0.974054
v 1.430749 1.017166 -0.662593
vt 0.937574 2.856285
vn 0.925689 0.157904 -0.343752
v 1.430834 1.020407 -0.661026
vt 0.936524 2.855941
vn 0.934311 0.140418 -0.327636
v 1.385015 1.019039 -0.776042
vt 0.914661 2.920238
vn 0.912715 0.182133 -0.365759
v 1.385647 1.022684 -0.772393
vt 0.913902 2.919553
vn 0.912715 0.182133 -0.365759
v 1.385015 1.019039 -0.776042
vt 0.914661 2.920238
vn 0.503209 0.610359 -0.611754
v 1.385647 1.022684 -0.772393
vt 0.913902 2.919553
vn 0.503209 0.610359 -0.611754
v 1.334051 1.051579 -0.786001
vt 0.880714 2.925890
vn 0.449849 0.543028 -0.709053
v 1.334476 1.053328 -0.783399
vt 0.880572 2.924791
vn 0.444425 0.536316 -0.717532
v 1.080101 1.205468 -0.783818
vt 0.715945 2.923592
vn -0.156570 -0.076482 -0.984701
v 1.081176 1.207500 -0.784162
vt 0.716048 2.922493
vn -0.157073 -0.076195 -0.984643
v 0.992787 1.256118 -0.772223
vt 0.659870 2.916852
vn -0.170079 -0.069076 -0.983006
v 0.993817 1.258159 -0.772525
vt 0.660004 2.915757
vn -0.170067 -0.068996 -0.983014
v 1.080101 1.205468 -0.783818
vt 0.715945 2.923592
vn -0.156696 -0.076489 -0.984681
v 1.195093 1.138079 -0.795273
vt 0.789946 2.929172
vn -0.104380 -0.091672 -0.990304
v 1.193986 1.136123 -0.794957
vt 0.789889 2.930274
vn -0.102491 -0.092076 -0.990463
v 0.725010 1.393132 -0.736213
vt 0.492660 2.896253
vn -0.152877 -0.045292 -0.987207
v 0.725895 1.395208 -0.736420
vt 0.492796 2.895158
vn -0.152688 -0.045098 -0.987245
v 0.583246 1.453504 -0.717439
vt 0.406946 2.885648
vn -0.147391 -0.059284 -0.987300
v 0.584031 1.455608 -0.717614
vt 0.407079 2.884553
vn -0.147375 -0.059475 -0.987291
v 0.863322 1.325828 -0.754746
vt 0.578184 2.906809
vn -0.165185 -0.063675 -0.984205
v 0.864311 1.327954 -0.755090
vt 0.578319 2.905714
vn -0.165073 -0.063475 -0.984237
v 0.725010 1.393132 -0.736213
vt 0.492660 2.896253
vn -0.152795 -0.045289 -0.987220
v -0.110435 1.630523 -0.434066
vt 0.007186 2.728777
vn -0.992730 0.118882 -0.018819
v -0.110066 1.632737 -0.434190
vt 0.008331 2.728747
vn -0.992754 0.118688 -0.018781
v -0.111679 1.638112 -0.294615
vt 0.005315 2.651385
vn -0.997446 0.070595 -0.010882
v -0.111558 1.640637 -0.294714
vt 0.006461 2.651362
vn -0.997461 0.070384 -0.010880
v -0.112526 1.643306 -0.140430
vt 0.003998 2.565766
vn -0.997648 0.068373 -0.004919
v -0.112425 1.645854 -0.140483
vt 0.005146 2.565753
vn -0.997640 0.068477 -0.004919
v -0.112462 1.647373 0.000000
vt 0.004701 2.487736
vn -0.995237 0.097486 -0.000117
v -0.108931 1.621382 -0.552230
vt 0.009279 2.794335
vn -0.990811 0.132977 -0.024692
v -0.108656 1.623713 -0.552399
vt 0.010423 2.794298
vn -0.990800 0.133081 -0.024587
v -0.103204 1.611740 -0.653447
vt 0.014702 2.851520
vn -0.075087 -0.024973 -0.996864
v -0.102892 1.613932 -0.653467
vt 0.014786 2.850385
vn -0.074488 -0.025097 -0.996906
v -0.106193 1.612117 -0.652116
vt 0.012186 2.849974
vn -0.400386 0.046987 -0.915141
v -0.105779 1.614300 -0.652189
vt 0.013224 2.849730
vn -0.400386 0.046987 -0.915141
v -0.106193 1.612117 -0.652116
vt 0.012186 2.849974
vn -0.985194 0.155177 -0.072886
v -0.105779 1.614300 -0.652189
vt 0.013224 2.849730
vn -0.985194 0.155177 -0.072886
v -0.107771 1.614864 -0.624080
vt 0.010752 2.834202
vn -0.990400 0.132290 -0.040081
v -0.107462 1.617155 -0.624261
vt 0.011897 2.834144
vn -0.990438 0.132096 -0.039781
v 0.437970 1.505213 -0.699690
vt 0.321191 2.875717
vn -0.147658 -0.115466 -0.982275
v 0.438687 1.507590 -0.700130
vt 0.321312 2.874621
vn -0.147691 -0.115386 -0.982280
v 0.290315 1.547287 -0.683888
vt 0.235886 2.867008
vn -0.131676 -0.134686 -0.982100
v 0.290905 1.549731 -0.684352
vt 0.235991 2.865910
vn -0.131769 -0.134779 -0.982075
v 0.290905 1.549731 -0.684352
vt 0.235991 2.865910
vn -0.131862 -0.134873 -0.982050
v 0.139158 1.579744 -0.670080
vt 0.150097 2.859636
vn -0.102593 -0.101682 -0.989513
v 0.139602 1.582051 -0.670342
vt 0.150180 2.858536
vn -0.102997 -0.102268 -0.989410
v 0.139602 1.582051 -0.670342
vt 0.150180 2.858536
vn -0.102990 -0.102188 -0.989419
v 0.002109 1.600546 -0.659924
vt 0.073294 2.854485
vn -0.076381 -0.053876 -0.995622
v 0.002444 1.602772 -0.660066
vt 0.073356 2.853383
vn -0.076760 -0.054578 -0.995555
v -0.107462 1.617155 -0.624261
vt 0.011897 2.834144
vn -0.990435 0.132075 -0.039927
v -0.108931 1.621382 -0.552230
vt 0.009279 2.794335
vn -0.990814 0.132968 -0.024621
v 0.002109 1.600546 -0.659924
vt 0.073294 2.854485
vn -0.076492 -0.053881 -0.995613
v 0.002444 1.602772 -0.660066
vt 0.073356 2.853383
vn -0.076797 -0.054579 -0.995552
v 1.539019 1.014719 -0.171457
vt 0.990973 2.582823
vn 0.994612 0.043819 -0.093946
v 1.513175 1.015191 -0.358193
vt 0.978182 2.686471
vn 0.983924 -0.034236 -0.175278
v 1.513349 1.018389 -0.358300
vt 0.977092 2.686294
vn 0.983710 -0.033034 -0.176699
v 1.475428 1.015994 -0.524695
vt 0.959530 2.779142
vn 0.960901 0.067030 -0.268656
v 1.475382 1.018747 -0.523859
vt 0.958458 2.778882
vn 0.965940 0.048032 -0.254267
v 1.430749 1.017166 -0.662593
vt 0.937574 2.856285
vn 0.925735 0.157803 -0.343677
v 1.430834 1.020407 -0.661026
vt 0.936524 2.855941
vn 0.934315 0.140327 -0.327665
v -1.408409 1.565679 0.000000
vt 1.529464 2.718073
vn -0.219707 0.975566 -0.000018
v -1.408686 1.564499 0.095968
vt 1.529384 2.759642
vn -0.220900 0.974862 0.029101
v -1.415455 1.563937 0.000000
vt 1.532032 2.718088
vn -0.303398 0.952864 0.000019
v -1.415659 1.562652 0.095931
vt 1.531936 2.759656
vn -0.306403 0.951478 0.028401
v -1.351850 1.576787 0.096255
vt 1.504418 2.759577
vn -0.212119 0.976811 0.029087
v -1.351847 1.577883 -0.000067
vt 1.504610 2.717931
vn -0.211196 0.977444 -0.000018
v -1.354772 1.559557 0.394100
vt 1.505801 2.888641
vn -0.218900 0.971948 0.086021
v -1.356724 1.547267 0.508845
vt 1.507006 2.938544
vn -0.224225 0.968031 0.112421
v -1.411544 1.546882 0.392703
vt 1.530783 2.888366
vn -0.227423 0.969992 0.085991
v -1.413528 1.534329 0.506994
vt 1.532037 2.938143
vn -0.232309 0.966137 0.112304
v -1.353091 1.570018 0.257906
vt 1.504865 2.829566
vn -0.214432 0.975190 0.054980
v -1.354772 1.559557 0.394100
vt 1.505801 2.888641
vn -0.218915 0.971937 0.086105
v -1.409893 1.557607 0.257023
vt 1.529830 2.829436
vn -0.223211 0.973217 0.055015
v -1.415584 1.521082 0.604389
vt 1.533423 2.980697
vn -0.232438 0.964584 0.124700
v -1.411364 1.521485 0.608896
vt 1.531566 2.982624
vn -0.227227 0.965798 0.124905
v -1.358874 1.533719 0.611186
vt 1.508446 2.983138
vn -0.227227 0.965798 0.124905
v -1.420859 1.532360 0.506728
vt 1.534755 2.938104
vn -0.308138 0.945038 0.109338
v -1.422971 1.519258 0.604049
vt 1.536145 2.980623
vn -0.305317 0.944490 0.121328
v -1.418840 1.544998 0.392486
vt 1.533473 2.888330
vn -0.307103 0.947954 0.084086
v -1.420859 1.532360 0.506728
vt 1.534755 2.938104
vn -0.308227 0.945013 0.109298
v -1.409893 1.557607 0.257023
vt 1.529830 2.829436
vn -0.223121 0.973237 0.055012
v -1.417122 1.555748 0.256871
vt 1.532490 2.829414
vn -0.306229 0.950440 0.053728
v -1.417122 1.555748 0.256871
vt 1.532490 2.829414
vn -0.306325 0.950409 0.053730
v -1.416511 1.520419 0.607557
vt 1.533843 2.982115
vn -0.282716 0.950887 0.126037
v -1.415584 1.521082 0.604389
vt 1.533423 2.980697
vn -0.232423 0.964599 0.124611
v -1.411364 1.521485 0.608896
vt 1.531566 2.982624
vn -0.227211 0.965814 0.124816
v -1.351388 1.574635 0.082919
vt 1.503325 2.753846
vn 0.965065 0.261962 0.005133
v -1.351850 1.576787 0.096255
vt 1.504418 2.759577
vn 0.997815 0.065294 0.010137
v -1.351104 1.575872 0.000000
vt 1.503491 2.717925
vn 0.975406 0.220416 -0.000347
v -1.351847 1.577883 -0.000067
vt 1.504610 2.717931
vn 0.975792 0.218699 -0.000675
v -1.356602 1.544814 0.508863
vt 1.505890 2.938623
vn 0.997489 0.065570 0.026757
v -1.356724 1.547267 0.508845
vt 1.507006 2.938544
vn 0.997627 0.063703 0.026135
v -1.354630 1.557137 0.394120
vt 1.504683 2.888700
vn 0.998033 0.059373 0.020142
v -1.354772 1.559557 0.394100
vt 1.505801 2.888641
vn 0.997998 0.060080 0.019752
v -1.352924 1.567638 0.257924
vt 1.503747 2.829601
vn 0.998150 0.059299 0.013415
v -1.353091 1.570018 0.257906
vt 1.504865 2.829566
vn 0.998179 0.058897 0.013014
v -1.352924 1.567638 0.257924
vt 1.503747 2.829601
vn 0.998156 0.059196 0.013414
v -1.353091 1.570018 0.257906
vt 1.504865 2.829566
vn 0.998185 0.058794 0.013013
v -1.351752 1.574297 0.096265
vt 1.503298 2.759593
vn 0.998491 0.053896 0.010526
v -1.351850 1.576787 0.096255
vt 1.504418 2.759577
vn 0.997821 0.065190 0.010136
v -1.358539 1.532034 0.606701
vt 1.507189 2.979167
vn 0.988223 0.152101 0.016720
v -1.358539 1.531502 0.611554
vt 1.508180 2.984082
vn 0.988223 0.152101 0.016720
v -1.358874 1.533719 0.611186
vt 1.508446 2.983138
vn 0.988223 0.152101 0.016720
v -1.358539 1.532034 0.606701
vt 1.507189 2.979167
vn 0.996574 0.076867 0.030541
v -1.358874 1.533719 0.611186
vt 1.508446 2.983138
vn 0.996574 0.076867 0.030541
v -1.356602 1.544814 0.508863
vt 1.505890 2.938623
vn 0.997502 0.065392 0.026719
v -1.356724 1.547267 0.508845
vt 1.507006 2.938544
vn 0.997633 0.063597 0.026133
v -1.422767 1.529095 0.506510
vt 1.536759 2.938151
vn -0.704862 0.705632 0.072480
v -1.420859 1.532360 0.506728
vt 1.534755 2.938104
vn -0.704751 0.705791 0.072007
v -1.424890 1.515979 0.603724
vt 1.538161 2.980641
vn -0.704887 0.705160 0.076703
v -1.422971 1.519258 0.604049
vt 1.536145 2.980623
vn -0.705310 0.704675 0.077273
v -1.420712 1.541817 0.392320
vt 1.535442 2.888367
vn -0.702346 0.709605 0.056302
v -1.418840 1.544998 0.392486
vt 1.533473 2.888330
vn -0.702300 0.709691 0.055791
v -1.422767 1.529095 0.506510
vt 1.536759 2.938151
vn -0.704908 0.705586 0.072480
v -1.417614 1.560746 0.000000
vt 1.534092 2.718100
vn -0.670153 0.742223 0.000022
v -1.415455 1.563937 0.000000
vt 1.532032 2.718088
vn -0.670221 0.742161 -0.000021
v -1.417828 1.559458 0.095841
vt 1.534001 2.759662
vn -0.680064 0.732903 0.019121
v -1.415659 1.562652 0.095931
vt 1.531936 2.759656
vn -0.679998 0.732966 0.019076
v -1.418943 1.552595 0.256773
vt 1.534433 2.829444
vn -0.693200 0.719861 0.035702
v -1.417122 1.555748 0.256871
vt 1.532490 2.829414
vn -0.692924 0.720151 0.035204
v -1.417828 1.559458 0.095841
vt 1.534001 2.759662
vn -0.679998 0.732966 0.019076
v -1.418943 1.552595 0.256773
vt 1.534433 2.829444
vn -0.693203 0.719862 0.035612
v -1.417122 1.555748 0.256871
vt 1.532490 2.829414
vn -0.692921 0.720149 0.035295
v -1.423036 1.518760 0.607361
vt 1.536203 2.982058
vn -0.301042 0.945604 0.123314
v -1.416511 1.520419 0.607557
vt 1.533843 2.982115
vn -0.282637 0.950899 0.126121
v -1.426006 1.515302 0.606642
vt 1.538605 2.981966
vn -0.662732 0.748695 0.015525
v -1.423036 1.518760 0.607361
vt 1.536203 2.982058
vn -0.662732 0.748695 0.015525
v -1.410918 1.519206 0.609060
vt 1.531633 2.983630
vn -0.076617 0.102269 0.991802
v -1.411364 1.521485 0.608896
vt 1.531566 2.982624
vn -0.077328 0.101478 0.991828
v -1.358539 1.531502 0.611554
vt 1.508180 2.984082
vn -0.069823 0.105189 0.991998
v -1.358874 1.533719 0.611186
vt 1.508446 2.983138
vn -0.069823 0.105189 0.991998
v -1.416511 1.519880 0.607676
vt 1.533920 2.982345
vn -0.202523 0.063574 0.977212
v -1.416511 1.520419 0.607557
vt 1.533843 2.982115
vn -0.206030 0.057797 0.976837
v -1.414165 1.518421 0.608145
vt 1.533193 2.983368
vn -0.240423 0.012000 0.970594
v -1.423036 1.518223 0.607479
vt 1.536318 2.982261
vn -0.106028 0.214282 0.971000
v -1.423036 1.518760 0.607361
vt 1.536203 2.982058
vn -0.106028 0.214282 0.971000
v -1.416511 1.520419 0.607557
vt 1.533843 2.982115
vn -0.206044 0.057877 0.976830
v -1.426006 1.515303 0.606642
vt 1.538605 2.981966
vn -0.316424 0.204963 0.926211
v -1.426006 1.515302 0.606642
vt 1.538605 2.981966
vn -0.316404 0.204862 0.926240
v -1.423036 1.518223 0.607479
vt 1.536318 2.982261
vn -0.316404 0.204862 0.926240
v -1.423036 1.518760 0.607361
vt 1.536203 2.982058
vn -0.316328 0.205003 0.926234
v -1.410918 1.519206 0.609060
vt 1.531633 2.983630
vn -0.076505 0.102298 0.991808
v -1.411364 1.521485 0.608896
vt 1.531566 2.982624
vn -0.077213 0.101468 0.991838
v -1.415659 1.562652 -0.095931
vt 1.532413 2.676522
vn -0.306427 0.951470 -0.028401
v -1.408686 1.564499 -0.095968
vt 1.529861 2.676508
vn -0.220921 0.974857 -0.029101
v -1.351847 1.577883 -0.000067
vt 1.504610 2.717931
vn -0.211112 0.977462 -0.000018
v -1.351850 1.576787 -0.096388
vt 1.504895 2.676284
vn -0.212141 0.976806 -0.029087
v -1.413528 1.534330 -0.506994
vt 1.534562 2.498049
vn -0.232520 0.966084 -0.112319
v -1.356724 1.547267 -0.508978
vt 1.509538 2.497360
vn -0.224519 0.967966 -0.112399
v -1.411544 1.546882 -0.392702
vt 1.532737 2.547809
vn -0.227630 0.969942 -0.086003
v -1.354772 1.559557 -0.394233
vt 1.507760 2.547247
vn -0.219120 0.971890 -0.086116
v -1.354772 1.559557 -0.394233
vt 1.507760 2.547247
vn -0.219142 0.971896 -0.085993
v -1.409893 1.557607 -0.257022
vt 1.531107 2.606722
vn -0.223322 0.973191 -0.055019
v -1.353091 1.570018 -0.258039
vt 1.506146 2.606307
vn -0.214631 0.975146 -0.054987
v -1.358874 1.533719 -0.611320
vt 1.511489 2.452787
vn -0.227532 0.965724 -0.124929
v -1.411364 1.521486 -0.608896
vt 1.534601 2.453566
vn -0.227532 0.965724 -0.124929
v -1.415584 1.521082 -0.604388
vt 1.536436 2.455514
vn -0.232737 0.964515 -0.124679
v -1.422971 1.519258 -0.604049
vt 1.539158 2.455618
vn -0.305332 0.944491 -0.121283
v -1.420859 1.532361 -0.506728
vt 1.537279 2.498119
vn -0.308251 0.945005 -0.109300
v -1.418840 1.544998 -0.392486
vt 1.535427 2.547874
vn -0.307127 0.947946 -0.084087
v -1.417122 1.555748 -0.256871
vt 1.533767 2.606777
vn -0.306242 0.950439 -0.053686
v -1.353091 1.570018 -0.258039
vt 1.506146 2.606307
vn -0.214506 0.975172 -0.055022
v -1.417122 1.555748 -0.256871
vt 1.533767 2.606777
vn -0.306338 0.950408 -0.053689
v -1.411364 1.521486 -0.608896
vt 1.534601 2.453566
vn -0.227509 0.965746 -0.124796
v -1.415584 1.521082 -0.604388
vt 1.536436 2.455514
vn -0.232722 0.964530 -0.124590
v -1.416511 1.520420 -0.607557
vt 1.536872 2.454101
vn -0.282731 0.950888 -0.125993
v -1.351735 1.574476 -0.082709
vt 1.503742 2.681266
vn 0.984424 0.175712 -0.005854
v -1.351850 1.576787 -0.096388
vt 1.504895 2.676284
vn 0.998144 0.060205 -0.009171
v -1.351752 1.574297 -0.096265
vt 1.503776 2.676257
vn 0.998523 0.053512 -0.009378
v -1.354772 1.559557 -0.394233
vt 1.507760 2.547247
vn 0.998076 0.058809 -0.019663
v -1.356724 1.547267 -0.508978
vt 1.509538 2.497360
vn 0.997694 0.062727 -0.025943
v -1.354630 1.557137 -0.394119
vt 1.506642 2.547175
vn 0.998089 0.058508 -0.019859
v -1.356602 1.544815 -0.508863
vt 1.508422 2.497268
vn 0.997621 0.063700 -0.026373
v -1.353091 1.570018 -0.258039
vt 1.506146 2.606307
vn 0.998208 0.058401 -0.013074
v -1.352924 1.567638 -0.257924
vt 1.505028 2.606260
vn 0.998206 0.058407 -0.013173
v -1.353091 1.570018 -0.258039
vt 1.506146 2.606307
vn 0.998212 0.058331 -0.013040
v -1.358874 1.533719 -0.611320
vt 1.511489 2.452787
vn 0.988361 0.151225 -0.016566
v -1.358539 1.531503 -0.611553
vt 1.511234 2.451839
vn 0.988361 0.151225 -0.016566
v -1.358539 1.532035 -0.606700
vt 1.510186 2.456744
vn 0.988361 0.151225 -0.016566
v -1.356724 1.547267 -0.508978
vt 1.509538 2.497360
vn 0.997699 0.062623 -0.025974
v -1.358874 1.533719 -0.611320
vt 1.511489 2.452787
vn 0.996700 0.075319 -0.030259
v -1.356602 1.544815 -0.508863
vt 1.508422 2.497268
vn 0.997625 0.063629 -0.026371
v -1.358539 1.532035 -0.606700
vt 1.510186 2.456744
vn 0.996700 0.075319 -0.030259
v -1.422971 1.519258 -0.604049
vt 1.539158 2.455618
vn -0.705308 0.704672 -0.077321
v -1.420859 1.532361 -0.506728
vt 1.537279 2.498119
vn -0.704728 0.705814 -0.072007
v -1.424890 1.515979 -0.603723
vt 1.541174 2.455624
vn -0.704865 0.705182 -0.076702
v -1.422767 1.529095 -0.506510
vt 1.539284 2.498095
vn -0.704814 0.705674 -0.072527
v -1.418840 1.544998 -0.392486
vt 1.535427 2.547874
vn -0.702323 0.709669 -0.055791
v -1.422767 1.529095 -0.506510
vt 1.539284 2.498095
vn -0.704930 0.705564 -0.072480
v -1.420712 1.541817 -0.392319
vt 1.537395 2.547861
vn -0.702369 0.709583 -0.056302
v -1.415659 1.562652 -0.095931
vt 1.532413 2.676522
vn -0.679996 0.732966 -0.019121
v -1.417828 1.559458 -0.095840
vt 1.534477 2.676540
vn -0.680042 0.732924 -0.019121
v -1.417122 1.555748 -0.256871
vt 1.533767 2.606777
vn -0.692899 0.720171 -0.035295
v -1.420712 1.541817 -0.392319
vt 1.537395 2.547861
vn -0.702414 0.709538 -0.056302
v -1.418943 1.552595 -0.256773
vt 1.535711 2.606769
vn -0.693223 0.719872 -0.035024
v -1.418943 1.552595 -0.256773
vt 1.535711 2.606769
vn -0.693205 0.719863 -0.035567
v -1.417828 1.559458 -0.095840
vt 1.534477 2.676540
vn -0.680005 0.732889 -0.021604
v -1.416511 1.520420 -0.607557
vt 1.536872 2.454101
vn -0.282612 0.950907 -0.126119
v -1.423036 1.518760 -0.607360
vt 1.539232 2.454186
vn -0.301017 0.945612 -0.123313
v -1.424890 1.515979 -0.603723
vt 1.541174 2.455624
vn -0.704910 0.705137 -0.076702
v -1.423036 1.518760 -0.607360
vt 1.539232 2.454186
vn -0.662734 0.748695 -0.015481
v -1.426006 1.515303 -0.606642
vt 1.541632 2.454304
vn -0.662738 0.748693 -0.015393
v -1.358874 1.533719 -0.611320
vt 1.511489 2.452787
vn -0.064607 0.076779 -0.994953
v -1.411364 1.521486 -0.608896
vt 1.534601 2.453566
vn -0.072301 0.074286 -0.994613
v -1.358539 1.531503 -0.611553
vt 1.511234 2.451839
vn -0.064607 0.076779 -0.994953
v -1.410918 1.519206 -0.609060
vt 1.534681 2.452561
vn -0.071519 0.074792 -0.994631
v -1.411364 1.521486 -0.608896
vt 1.534601 2.453566
vn -0.072331 0.074177 -0.994618
v -1.416511 1.520420 -0.607557
vt 1.536872 2.454101
vn -0.206048 0.057778 -0.976835
v -1.414165 1.518421 -0.608145
vt 1.536236 2.452841
vn -0.240528 0.011982 -0.970568
v -1.416511 1.519880 -0.607675
vt 1.536951 2.453871
vn -0.202504 0.063593 -0.977214
v -1.423036 1.518760 -0.607360
vt 1.539232 2.454186
vn -0.106042 0.214172 -0.971023
v -1.423036 1.518223 -0.607479
vt 1.539349 2.453982
vn -0.106042 0.214172 -0.971023
v -1.423036 1.518760 -0.607360
vt 1.539232 2.454186
vn -0.316330 0.204879 -0.926261
v -1.426006 1.515303 -0.606642
vt 1.541632 2.454304
vn -0.316330 0.204879 -0.926261
v -1.423036 1.518223 -0.607479
vt 1.539349 2.453982
vn -0.316330 0.204879 -0.926261
v -1.411364 1.521486 -0.608896
vt 1.534601 2.453566
vn -0.072220 0.074170 -0.994627
v -1.414165 1.518421 -0.608145
vt 1.536236 2.452841
vn -0.240397 0.011981 -0.970601
v -0.251381 1.649069 0.291557
vt 1.418251 2.577971
vn 0.058672 0.997327 0.043539
v -0.116961 1.641027 0.294501
vt 1.476526 2.576776
vn 0.058699 0.997304 0.044028
v -0.250035 1.641272 0.431650
vt 1.419093 2.517271
vn 0.058879 0.996233 0.063659
v -0.115585 1.633047 0.436017
vt 1.477385 2.515424
vn 0.058873 0.996197 0.064236
v -0.252268 1.654125 0.139181
vt 1.417623 2.643928
vn 0.058497 0.998035 0.022441
v -0.252469 1.655652 0.000000
vt 1.417351 2.704140
vn 0.058488 0.998288 0.000016
v -0.117893 1.646246 0.140588
vt 1.475877 2.643440
vn 0.058473 0.998032 0.022642
v -0.118396 1.647798 0.000000
vt 1.475478 2.704306
vn 0.058488 0.998288 0.000016
v -0.248694 1.632875 0.543581
vt 1.419913 2.468709
vn 0.059195 0.994881 0.081903
v -0.114441 1.624426 0.549071
vt 1.478125 2.466352
vn 0.059300 0.994822 0.082542
v -0.247112 1.623489 0.646649
vt 1.420847 2.423929
vn 0.059476 0.994124 0.090445
v -0.112919 1.614812 0.652877
vt 1.479042 2.421239
vn 0.059476 0.994124 0.090445
v -0.256928 1.647120 0.291670
vt 1.415708 2.577874
vn -0.328423 0.943502 0.044078
v -0.251381 1.649069 0.291557
vt 1.418251 2.577971
vn -0.328413 0.943523 0.043704
v -0.255653 1.639335 0.431260
vt 1.416518 2.517373
vn -0.329120 0.942137 0.063697
v -0.250035 1.641272 0.431650
vt 1.419093 2.517271
vn -0.329124 0.942087 0.064423
v -0.258081 1.652498 0.000000
vt 1.414565 2.704132
vn -0.416328 0.909215 0.000020
v -0.252469 1.655652 0.000000
vt 1.417351 2.704140
vn -0.416328 0.909215 0.000020
v -0.258040 1.652154 0.127513
vt 1.414948 2.648956
vn -0.415854 0.909407 0.006687
v -0.252268 1.654125 0.139181
vt 1.417623 2.643928
vn -0.343121 0.938859 0.028495
v -0.254282 1.630965 0.543148
vt 1.417353 2.468812
vn -0.312097 0.946556 0.081403
v -0.248694 1.632875 0.543581
vt 1.419913 2.468709
vn -0.310820 0.946933 0.081911
v -0.257980 1.652281 0.135912
vt 1.415007 2.645308
vn -0.326225 0.944780 0.031095
v -0.252268 1.654125 0.139181
vt 1.417623 2.643928
vn -0.343025 0.938894 0.028494
v -0.254282 1.630965 0.543148
vt 1.417353 2.468812
vn -0.312146 0.946540 0.081405
v -0.253212 1.621672 0.648421
vt 1.418118 2.423078
vn -0.293424 0.951819 0.089121
v -0.247112 1.623489 0.646649
vt 1.420847 2.423929
vn -0.293424 0.951819 0.089121
v -0.258040 1.652154 0.127513
vt 1.414948 2.648956
vn -0.415624 0.909512 0.006727
v -0.248887 1.624468 0.653210
vt 1.420052 2.421066
vn 0.070304 0.992751 -0.097487
v -0.247112 1.623489 0.646649
vt 1.420847 2.423929
vn 0.070304 0.992751 -0.097487
v -0.112817 1.615332 0.660370
vt 1.479071 2.417987
vn 0.070304 0.992751 -0.097487
v -0.112919 1.614812 0.652877
vt 1.479042 2.421239
vn 0.070304 0.992751 -0.097487
v -0.115585 1.633047 -0.436017
vt 1.476309 2.893195
vn 0.058923 0.996198 -0.064167
v -0.116961 1.641027 -0.294500
vt 1.475800 2.831839
vn 0.058713 0.997307 -0.043959
v -0.250035 1.641272 -0.431649
vt 1.418028 2.891016
vn 0.058928 0.996237 -0.063554
v -0.251381 1.649069 -0.291556
vt 1.417532 2.830312
vn 0.058722 0.997328 -0.043471
v -0.117893 1.646246 -0.140587
vt 1.475530 2.765172
vn 0.058522 0.998031 -0.022576
v -0.252268 1.654125 -0.139181
vt 1.417280 2.764352
vn 0.058510 0.998036 -0.022374
v -0.114441 1.624427 -0.549071
vt 1.476769 2.942271
vn 0.059315 0.994827 -0.082469
v -0.248694 1.632876 -0.543580
vt 1.418571 2.939580
vn 0.059212 0.994883 -0.081867
v -0.116961 1.641027 -0.294500
vt 1.475800 2.831839
vn 0.058709 0.997310 -0.043889
v -0.112919 1.614812 -0.652877
vt 1.477429 2.987389
vn 0.059528 0.994127 -0.090374
v -0.247112 1.623489 -0.646648
vt 1.419251 2.984366
vn 0.059528 0.994127 -0.090374
v -0.250035 1.641272 -0.431649
vt 1.418028 2.891016
vn -0.329137 0.942085 -0.064380
v -0.251381 1.649069 -0.291556
vt 1.417532 2.830312
vn -0.328437 0.943514 -0.043705
v -0.255653 1.639335 -0.431259
vt 1.415453 2.890899
vn -0.329144 0.942129 -0.063698
v -0.256928 1.647120 -0.291669
vt 1.414989 2.830394
vn -0.328411 0.943504 -0.044119
v -0.252268 1.654125 -0.139181
vt 1.417280 2.764352
vn -0.343120 0.938862 -0.028413
v -0.258040 1.652154 -0.127512
vt 1.414634 2.759309
vn -0.415829 0.909418 -0.006687
v -0.248694 1.632876 -0.543580
vt 1.418571 2.939580
vn -0.310844 0.946925 -0.081912
v -0.254282 1.630965 -0.543147
vt 1.416012 2.939463
vn -0.312122 0.946548 -0.081404
v -0.252268 1.654125 -0.139181
vt 1.417280 2.764352
vn -0.343013 0.938897 -0.028534
v -0.257980 1.652281 -0.135912
vt 1.414672 2.762958
vn -0.326202 0.944789 -0.031094
v -0.247112 1.623489 -0.646648
vt 1.419251 2.984366
vn -0.293437 0.951819 -0.089078
v -0.253212 1.621672 -0.648420
vt 1.416516 2.985201
vn -0.293437 0.951819 -0.089078
v -0.258040 1.652154 -0.127512
vt 1.414634 2.759309
vn -0.415633 0.909508 -0.006686
v -0.112919 1.614812 -0.652877
vt 1.477429 2.987389
vn 0.070287 0.992748 0.097523
v -0.247112 1.623489 -0.646648
vt 1.419251 2.984366
vn 0.070287 0.992748 0.097523
v -0.112817 1.615332 -0.660370
vt 1.477440 2.990640
vn 0.070287 0.992748 0.097523
v -0.248887 1.624468 -0.653209
vt 1.418439 2.987225
vn 0.070287 0.992748 0.097523
v -1.351752 1.574297 0.096265
vt 1.503298 2.759593
vn 0.998487 0.053993 0.010429
v -1.351388 1.574635 0.082919
vt 1.503325 2.753846
vn 0.965089 0.261873 0.005133
v -1.351847 1.577883 -0.000067
vt 1.504610 2.717931
vn 0.975807 0.218633 -0.000565
v -1.351850 1.576787 -0.096388
vt 1.504895 2.676284
vn 0.998150 0.060102 -0.009170
v -1.351104 1.575872 0.000000
vt 1.503491 2.717925
vn 0.975425 0.220330 -0.000347
v -0.262932 1.654984 -0.126146
vt 1.377487 2.516982
vn 0.027624 0.999572 -0.009667
v -0.263103 1.656073 0.000000
vt 1.323985 2.516909
vn 0.027572 0.999620 0.000047
v -0.371379 1.657837 -0.131603
vt 1.380014 2.564317
vn 0.014411 0.999845 -0.010082
v -0.372476 1.659137 0.000000
vt 1.323979 2.564321
vn 0.014786 0.999891 0.000015
v -0.498064 1.659685 0.000000
vt 1.323971 2.618665
vn -0.009100 0.999959 0.000015
v -0.639594 1.656809 0.000000
vt 1.323963 2.679918
vn -0.033705 0.999432 -0.000016
v -0.498053 1.658304 -0.136077
vt 1.382132 2.618844
vn -0.009306 0.999901 -0.010597
v -0.641167 1.655271 -0.137960
vt 1.382740 2.680285
vn -0.033810 0.999368 -0.011010
v -0.784032 1.650091 0.000000
vt 1.323954 2.742476
vn -0.059714 0.998216 0.000016
v -0.921776 1.639900 0.000000
vt 1.323946 2.802233
vn -0.090120 0.995931 -0.000017
v -0.783985 1.648566 -0.135739
vt 1.381610 2.743044
vn -0.059602 0.998159 -0.011206
v -0.925104 1.638105 -0.128943
vt 1.379047 2.802954
vn -0.089715 0.995903 -0.011298
v -1.073645 1.622398 -0.117772
vt 1.374023 2.868989
vn -0.121129 0.992576 -0.011001
v -1.073467 1.623735 0.000000
vt 1.323937 2.868229
vn -0.121820 0.992552 -0.000017
v -1.073467 1.623735 0.000000
vt 1.323937 2.868229
vn -0.121801 0.992554 0.000017
v -1.207599 1.604450 0.000000
vt 1.323929 2.926858
vn -0.158719 0.987324 -0.000017
v -1.207493 1.603491 -0.102567
vt 1.367220 2.927369
vn -0.157430 0.987478 -0.010170
v -1.207599 1.604450 0.000000
vt 1.323929 2.926858
vn -0.158620 0.987340 0.000018
v -1.339508 1.580430 0.000000
vt 1.323920 2.984900
vn -0.178720 0.983900 -0.000018
v -1.339632 1.579581 -0.083525
vt 1.358465 2.984945
vn -0.178616 0.983871 -0.009712
v -0.371379 1.657837 -0.131603
vt 1.380014 2.564317
vn 0.014506 0.999844 -0.010083
v -0.262932 1.654984 -0.126146
vt 1.377487 2.516982
vn 0.045619 0.673922 -0.737393
v -0.371379 1.657837 -0.131603
vt 1.380014 2.564317
vn 0.039423 0.588017 -0.807888
v -0.258040 1.652154 -0.127512
vt 1.379348 2.514627
vn 0.045619 0.673922 -0.737393
v -0.371618 1.652070 -0.133013
vt 1.382953 2.563896
vn 0.040030 0.596844 -0.801358
v -0.498053 1.658304 -0.136077
vt 1.382132 2.618844
vn 0.015329 0.535526 -0.844379
v -0.641167 1.655271 -0.137960
vt 1.382740 2.680285
vn -0.020819 0.552498 -0.833254
v -0.497929 1.652683 -0.137753
vt 1.384948 2.618636
vn 0.016533 0.535013 -0.844682
v -0.640687 1.649855 -0.139601
vt 1.385596 2.680514
vn -0.022699 0.553426 -0.832589
v -0.783985 1.648566 -0.135739
vt 1.381610 2.743044
vn -0.059409 0.551768 -0.831879
v -0.925104 1.638105 -0.128943
vt 1.379047 2.802954
vn -0.096027 0.550670 -0.829181
v -0.784418 1.642983 -0.136965
vt 1.384514 2.742875
vn -0.057505 0.552960 -0.831221
v -0.924378 1.632857 -0.130685
vt 1.381749 2.803714
vn -0.103239 0.553218 -0.826614
v -0.783985 1.648566 -0.135739
vt 1.381610 2.743044
vn -0.059547 0.551824 -0.831832
v -1.073645 1.622398 -0.117772
vt 1.374023 2.868989
vn -0.148124 0.583672 -0.798364
v -0.924378 1.632857 -0.130685
vt 1.381749 2.803714
vn -0.102039 0.553390 -0.826648
v -1.074340 1.617280 -0.119506
vt 1.376740 2.869050
vn -0.145537 0.581682 -0.800291
v -1.207493 1.603491 -0.102567
vt 1.367220 2.927369
vn -0.203699 0.640791 -0.740198
v -1.207503 1.598545 -0.104220
vt 1.369980 2.927340
vn -0.199005 0.634974 -0.746462
v -1.339669 1.575401 -0.084441
vt 1.361201 2.984846
vn -0.219514 0.671959 -0.707308
v -1.339632 1.579581 -0.083525
vt 1.358465 2.984945
vn -0.221932 0.670827 -0.707628
v -1.351388 1.574635 -0.084103
vt 1.360445 2.989796
vn -0.067314 0.730853 -0.679207
v -0.263103 1.656073 0.000000
vt 1.323985 2.516909
vn 0.535215 0.844716 0.000063
v -0.262932 1.654984 -0.126146
vt 1.377487 2.516982
vn 0.535198 0.844714 -0.004669
v -0.258081 1.652498 0.000000
vt 1.323986 2.514235
vn 0.535215 0.844716 0.000063
v -0.258040 1.652154 -0.127512
vt 1.379348 2.514627
vn 0.535198 0.844714 -0.004669
v -1.339632 1.579581 -0.083525
vt 1.358465 2.984945
vn -0.378532 0.925531 -0.010289
v -1.339508 1.580430 0.000000
vt 1.323920 2.984900
vn -0.378801 0.925478 0.000020
v -1.351388 1.574635 -0.084103
vt 1.360445 2.989796
vn -0.378628 0.925492 -0.010289
v -1.351104 1.575872 0.000000
vt 1.323920 2.989789
vn -0.378801 0.925478 0.000020
v -0.371379 1.657837 0.131603
vt 1.267943 2.564300
vn 0.014396 0.999845 0.010113
v -0.262932 1.654984 0.126146
vt 1.270483 2.516967
vn 0.027577 0.999572 0.009730
v -0.641167 1.655271 0.137961
vt 1.265185 2.680269
vn -0.033826 0.999367 0.010978
v -0.498053 1.658304 0.136077
vt 1.265810 2.618828
vn -0.009321 0.999900 0.010597
v -0.925104 1.638105 0.128944
vt 1.268845 2.802939
vn -0.089733 0.995902 0.011298
v -0.783985 1.648566 0.135740
vt 1.266297 2.743029
vn -0.059619 0.998158 0.011206
v -1.073645 1.622398 0.117773
vt 1.273849 2.868975
vn -0.121110 0.992578 0.011001
v -1.207493 1.603491 0.102568
vt 1.280636 2.927357
vn -0.157415 0.987480 0.010205
v -1.339632 1.579581 0.083526
vt 1.289375 2.984936
vn -0.178699 0.983857 0.009605
v -0.371379 1.657837 0.131603
vt 1.267943 2.564300
vn 0.014491 0.999844 0.010114
v -0.371618 1.652070 0.133014
vt 1.265003 2.563879
vn 0.039961 0.596740 0.801439
v -0.371379 1.657837 0.131603
vt 1.267943 2.564300
vn 0.039355 0.587962 0.807931
v -0.258040 1.652154 0.127513
vt 1.268623 2.514611
vn 0.045596 0.673889 0.737425
v -0.262932 1.654984 0.126146
vt 1.270483 2.516967
vn 0.045596 0.673889 0.737425
v -0.640687 1.649855 0.139602
vt 1.262329 2.680497
vn -0.022721 0.553460 0.832566
v -0.641167 1.655271 0.137961
vt 1.265185 2.680269
vn -0.020841 0.552532 0.833231
v -0.497929 1.652683 0.137754
vt 1.262993 2.618618
vn 0.016468 0.534960 0.844717
v -0.498053 1.658304 0.136077
vt 1.265810 2.618828
vn 0.015264 0.535473 0.844414
v -0.924378 1.632857 0.130686
vt 1.266142 2.803698
vn -0.102016 0.553407 0.826640
v -0.925104 1.638105 0.128944
vt 1.268845 2.802939
vn -0.096003 0.550635 0.829207
v -0.784418 1.642983 0.136966
vt 1.263393 2.742858
vn -0.057528 0.552994 0.831197
v -0.783985 1.648566 0.135740
vt 1.266297 2.743029
vn -0.059432 0.551752 0.831888
v -0.783985 1.648566 0.135740
vt 1.266297 2.743029
vn -0.059523 0.551738 0.831891
v -1.074340 1.617280 0.119506
vt 1.271133 2.869035
vn -0.145511 0.581647 0.800321
v -1.073645 1.622398 0.117773
vt 1.273849 2.868975
vn -0.148098 0.583637 0.798395
v -1.207503 1.598545 0.104221
vt 1.277876 2.927329
vn -0.199032 0.635008 0.746426
v -1.207493 1.603491 0.102568
vt 1.280636 2.927357
vn -0.203725 0.640774 0.740206
v -1.339669 1.575401 0.084441
vt 1.286703 2.985254
vn -0.222504 0.671419 0.706887
v -1.339632 1.579581 0.083526
vt 1.289375 2.984936
vn -0.223632 0.670701 0.707212
v -1.207503 1.598545 0.104221
vt 1.277876 2.927329
vn -0.199031 0.634956 0.746470
v -1.207493 1.603491 0.102568
vt 1.280636 2.927357
vn -0.203619 0.640792 0.740220
v -0.258040 1.652154 0.127513
vt 1.268623 2.514611
vn 0.535211 0.844705 0.004754
v -0.262932 1.654984 0.126146
vt 1.270483 2.516967
vn 0.535211 0.844705 0.004754
v -1.351388 1.574635 0.082919
vt 1.287394 2.989785
vn -0.379033 0.925324 0.010412
v -1.339632 1.579581 0.083526
vt 1.289375 2.984936
vn -0.379033 0.925324 0.010412
v -1.351388 1.574635 0.082919
vt 1.287394 2.989785
vn -0.135010 0.726447 0.673830
v -1.339669 1.575401 0.084441
vt 1.286703 2.985254
vn -0.222503 0.671369 0.706934
v -1.207493 1.603491 -0.102567
vt 1.367220 2.927369
vn -0.203645 0.640774 -0.740227
v -1.339632 1.579581 -0.083525
vt 1.358465 2.984945
vn -0.221933 0.670877 -0.707581
usemtl Glass_Interior_Fade
f 3/3/3 2/2/2 1/1/1
f 4/4/4 2/2/2 3/3/3
f 7/7/7 6/6/6 5/5/5
f 8/8/8 6/6/6 7/7/7
f 11/11/11 10/10/10 9/9/9
f 12/12/12 10/10/10 11/11/11
f 15/15/15 14/14/14 13/13/13
f 16/16/16 14/14/14 15/15/15
f 19/19/19 18/18/18 17/17/17
f 20/20/20 18/18/18 19/19/19
f 23/23/23 22/22/22 21/21/21
f 24/24/24 22/22/22 23/23/23
f 25/25/25 20/20/20 19/19/19
f 26/26/26 20/20/20 25/25/25
f 17/17/17 22/22/22 24/24/24
f 18/18/18 22/22/22 17/17/17
f 29/29/29 28/28/28 27/27/27
f 30/30/30 28/28/28 29/29/29
f 33/33/33 32/32/32 31/31/31
f 34/34/34 32/32/32 33/33/33
f 37/37/37 36/36/36 35/35/35
f 38/38/38 36/36/36 37/37/37
f 41/41/41 40/40/40 39/39/39
f 40/40/40 42/42/42 39/39/39
f 43/43/43 42/42/42 40/40/40
f 44/44/44 42/42/42 43/43/43
f 46/46/46 37/37/37 45/45/45
f 38/38/38 37/37/37 46/46/46
f 47/47/47 28/28/28 30/30/30
f 48/48/48 28/28/28 47/47/47
f 51/51/51 50/50/50 49/49/49
f 34/34/34 50/50/50 51/51/51
f 53/53/53 3/3/3 52/52/52
f 54/54/54 3/3/3 53/53/53
f 56/56/56 55/55/55 35/35/35
f 53/53/53 55/55/55 56/56/56
f 57/57/57 8/8/8 7/7/7
f 58/58/58 8/8/8 57/57/57
f 29/29/29 58/58/58 57/57/57
f 27/27/27 58/58/58 29/29/29
f 61/61/61 60/60/60 59/59/59
f 62/62/62 60/60/60 61/61/61
f 32/32/32 59/59/59 31/31/31
f 61/61/61 59/59/59 32/32/32
f 5/5/5 20/20/20 26/26/26
f 6/6/6 20/20/20 5/5/5
f 63/63/63 22/22/22 2/2/2
f 21/21/21 22/22/22 63/63/63
f 66/66/66 65/65/65 64/64/64
f 67/67/67 65/65/65 66/66/66
f 65/65/65 24/24/24 64/64/64
f 17/17/17 24/24/24 65/65/65
f 70/70/70 69/69/69 68/68/68
f 71/71/71 69/69/69 70/70/70
f 19/19/19 69/69/69 25/25/25
f 68/68/68 69/69/69 19/19/19
f 72/72/72 66/66/66 64/64/64
f 73/73/73 66/66/66 72/72/72
f 72/72/72 24/24/24 23/23/23
f 64/64/64 24/24/24 72/72/72
f 65/65/65 74/74/74 68/68/68
f 67/67/67 74/74/74 65/65/65
f 17/17/17 68/68/68 19/19/19
f 65/65/65 68/68/68 17/17/17
f 77/77/77 76/76/76 75/75/75
f 79/79/79 78/78/78 45/45/45
f 41/41/41 78/78/78 79/79/79
f 47/47/47 15/15/15 48/48/48
f 16/16/16 15/15/15 47/47/47
f 49/49/49 12/12/12 80/80/80
f 81/81/81 12/12/12 49/49/49
f 8/8/8 82/82/82 6/6/6
f 60/60/60 82/82/82 8/8/8
f 6/6/6 18/18/18 20/20/20
f 82/82/82 18/18/18 6/6/6
f 12/12/12 45/45/45 80/80/80
f 40/40/40 45/45/45 12/12/12
f 83/83/83 2/2/2 82/82/82
f 62/62/62 2/2/2 83/83/83
f 85/85/85 22/22/22 84/84/84
f 2/2/2 22/22/22 85/85/85
f 54/54/54 63/63/63 3/3/3
f 86/86/86 63/63/63 54/54/54
f 87/87/87 21/21/21 63/63/63
f 88/88/88 21/21/21 87/87/87
f 89/89/89 23/23/23 21/21/21
f 90/90/90 23/23/23 89/89/89
f 91/91/91 72/72/72 23/23/23
f 92/92/92 72/72/72 91/91/91
f 72/72/72 77/77/77 73/73/73
f 93/93/93 77/77/77 72/72/72
f 76/76/76 77/77/77 93/93/93
f 59/59/59 8/8/8 58/58/58
f 60/60/60 8/8/8 59/59/59
f 31/31/31 58/58/58 27/27/27
f 59/59/59 58/58/58 31/31/31
f 31/31/31 28/28/28 33/33/33
f 27/27/27 28/28/28 31/31/31
f 49/49/49 28/28/28 48/48/48
f 50/50/50 28/28/28 49/49/49
f 15/15/15 49/49/49 48/48/48
f 10/10/10 49/49/49 15/15/15
f 9/9/9 15/15/15 13/13/13
f 10/10/10 15/15/15 9/9/9
f 3/3/3 61/61/61 52/52/52
f 94/94/94 61/61/61 3/3/3
f 61/61/61 95/95/95 52/52/52
f 32/32/32 95/95/95 61/61/61
f 95/95/95 34/34/34 37/37/37
f 32/32/32 34/34/34 95/95/95
f 37/37/37 51/51/51 45/45/45
f 34/34/34 51/51/51 37/37/37
f 43/43/43 96/96/96 11/11/11
f 40/40/40 96/96/96 43/43/43
f 99/99/99 98/98/98 97/97/97
f 100/100/100 98/98/98 99/99/99
f 7/7/7 102/102/102 101/101/101
f 5/5/5 102/102/102 7/7/7
f 105/105/105 104/104/104 103/103/103
f 106/106/106 104/104/104 105/105/105
f 108/108/108 14/14/14 107/107/107
f 109/109/109 14/14/14 108/108/108
f 112/112/112 111/111/111 110/110/110
f 113/113/113 111/111/111 112/112/112
f 116/116/116 115/115/115 114/114/114
f 117/117/117 115/115/115 116/116/116
f 25/25/25 110/110/110 26/26/26
f 112/112/112 110/110/110 25/25/25
f 113/113/113 115/115/115 118/118/118
f 114/114/114 115/115/115 113/113/113
f 29/29/29 119/119/119 30/30/30
f 120/120/120 119/119/119 29/29/29
f 123/123/123 122/122/122 121/121/121
f 124/124/124 122/122/122 123/123/123
f 127/127/127 126/126/126 125/125/125
f 128/128/128 126/126/126 127/127/127
f 131/131/131 130/130/130 129/129/129
f 134/134/134 133/133/133 132/132/132
f 130/130/130 133/133/133 134/134/134
f 131/131/131 133/133/133 130/130/130
f 135/135/135 127/127/127 125/125/125
f 136/136/136 127/127/127 135/135/135
f 47/47/47 119/119/119 137/137/137
f 30/30/30 119/119/119 47/47/47
f 140/140/140 139/139/139 138/138/138
f 141/141/141 139/139/139 140/140/140
f 143/143/143 99/99/99 142/142/142
f 144/144/144 99/99/99 143/143/143
f 146/146/146 145/145/145 143/143/143
f 128/128/128 145/145/145 146/146/146
f 57/57/57 101/101/101 147/147/147
f 7/7/7 101/101/101 57/57/57
f 29/29/29 148/148/148 120/120/120
f 57/57/57 148/148/148 29/29/29
f 151/151/151 150/150/150 149/149/149
f 152/152/152 150/150/150 151/151/151
f 122/122/122 152/152/152 151/151/151
f 124/124/124 152/152/152 122/122/122
f 5/5/5 110/110/110 102/102/102
f 26/26/26 110/110/110 5/5/5
f 153/153/153 115/115/115 117/117/117
f 98/98/98 115/115/115 153/153/153
f 156/156/156 155/155/155 154/154/154
f 157/157/157 155/155/155 156/156/156
f 155/155/155 114/114/114 113/113/113
f 157/157/157 114/114/114 155/155/155
f 159/159/159 69/69/69 158/158/158
f 160/160/160 69/69/69 159/159/159
f 112/112/112 69/69/69 160/160/160
f 25/25/25 69/69/69 112/112/112
f 162/162/162 156/156/156 161/161/161
f 157/157/157 156/156/156 162/162/162
f 162/162/162 114/114/114 157/157/157
f 116/116/116 114/114/114 162/162/162
f 155/155/155 163/163/163 154/154/154
f 160/160/160 163/163/163 155/155/155
f 113/113/113 160/160/160 155/155/155
f 112/112/112 160/160/160 113/113/113
f 166/166/166 165/165/165 164/164/164
f 168/168/168 167/167/167 129/129/129
f 136/136/136 167/167/167 168/168/168
f 47/47/47 108/108/108 16/16/16
f 137/137/137 108/108/108 47/47/47
f 141/141/141 103/103/103 104/104/104
f 140/140/140 103/103/103 141/141/141
f 101/101/101 169/169/169 150/150/150
f 102/102/102 169/169/169 101/101/101
f 102/102/102 111/111/111 169/169/169
f 110/110/110 111/111/111 102/102/102
f 103/103/103 136/136/136 130/130/130
f 170/170/170 136/136/136 103/103/103
f 150/150/150 98/98/98 149/149/149
f 169/169/169 98/98/98 150/150/150
f 171/171/171 115/115/115 98/98/98
f 118/118/118 115/115/115 171/171/171
f 173/173/173 153/153/153 172/172/172
f 99/99/99 153/153/153 173/173/173
f 172/172/172 117/117/117 174/174/174
f 97/97/97 117/117/117 172/172/172
f 174/174/174 116/116/116 175/175/175
f 117/117/117 116/116/116 174/174/174
f 175/175/175 162/162/162 176/176/176
f 116/116/116 162/162/162 175/175/175
f 177/177/177 164/164/164 165/165/165
f 162/162/162 164/164/164 177/177/177
f 161/161/161 164/164/164 162/162/162
f 152/152/152 101/101/101 150/150/150
f 148/148/148 101/101/101 152/152/152
f 124/124/124 147/147/147 152/152/152
f 120/120/120 147/147/147 124/124/124
f 124/124/124 119/119/119 120/120/120
f 178/178/178 119/119/119 124/124/124
f 141/141/141 119/119/119 139/139/139
f 137/137/137 119/119/119 141/141/141
f 108/108/108 141/141/141 104/104/104
f 137/137/137 141/141/141 108/108/108
f 106/106/106 108/108/108 104/104/104
f 109/109/109 108/108/108 106/106/106
f 99/99/99 151/151/151 179/179/179
f 144/144/144 151/151/151 99/99/99
f 151/151/151 180/180/180 122/122/122
f 144/144/144 180/180/180 151/151/151
f 180/180/180 138/138/138 122/122/122
f 127/127/127 138/138/138 180/180/180
f 127/127/127 170/170/170 138/138/138
f 136/136/136 170/170/170 127/127/127
f 134/134/134 103/103/103 130/130/130
f 105/105/105 103/103/103 134/134/134
usemtl Glass_Fade
f 183/183/183 182/182/182 181/181/181
f 184/184/184 182/182/182 183/183/183
f 187/187/187 186/186/186 185/185/185
f 188/188/188 186/186/186 187/187/187
f 191/191/191 190/190/190 189/189/189
f 192/192/192 190/190/190 191/191/191
f 195/195/195 194/194/194 193/193/193
f 196/196/196 194/194/194 195/195/195
f 199/199/199 198/198/198 197/197/197
f 200/200/200 198/198/198 199/199/199
f 203/203/203 202/202/202 201/201/201
f 204/204/204 202/202/202 203/203/203
f 207/207/207 206/206/206 205/205/205
f 199/199/199 206/206/206 207/207/207
f 209/209/209 202/202/202 208/208/208
f 201/201/201 202/202/202 209/209/209
f 212/212/212 211/211/211 210/210/210
f 213/213/213 211/211/211 212/212/212
f 216/216/216 215/215/215 214/214/214
f 217/217/217 215/215/215 216/216/216
f 220/220/220 219/219/219 218/218/218
f 221/221/221 219/219/219 220/220/220
f 224/224/224 223/223/223 222/222/222
f 227/227/227 226/226/226 225/225/225
f 223/223/223 226/226/226 227/227/227
f 224/224/224 226/226/226 223/223/223
f 228/228/228 220/220/220 218/218/218
f 229/229/229 220/220/220 228/228/228
f 223/223/223 230/230/230 222/222/222
f 229/229/229 230/230/230 223/223/223
f 232/232/232 211/211/211 231/231/231
f 210/210/210 211/211/211 232/232/232
f 232/232/232 233/233/233 193/193/193
f 231/231/231 233/233/233 232/232/232
f 234/234/234 216/216/216 214/214/214
f 235/235/235 216/216/216 234/234/234
f 237/237/237 234/234/234 236/236/236
f 235/235/235 234/234/234 237/237/237
f 239/239/239 183/183/183 238/238/238
f 240/240/240 183/183/183 239/239/239
f 241/241/241 240/240/240 239/239/239
f 221/221/221 240/240/240 241/241/241
f 243/243/243 185/185/185 242/242/242
f 187/187/187 185/185/185 243/243/243
f 212/212/212 242/242/242 213/213/213
f 243/243/243 242/242/242 212/212/212
f 246/246/246 245/245/245 244/244/244
f 247/247/247 245/245/245 246/246/246
f 215/215/215 247/247/247 246/246/246
f 217/217/217 247/247/247 215/215/215
f 248/248/248 197/197/197 186/186/186
f 205/205/205 197/197/197 248/248/248
f 181/181/181 202/202/202 204/204/204
f 182/182/182 202/202/202 181/181/181
f 251/251/251 250/250/250 249/249/249
f 252/252/252 250/250/250 251/251/251
f 254/254/254 253/253/253 209/209/209
f 252/252/252 253/253/253 254/254/254
f 257/257/257 256/256/256 255/255/255
f 258/258/258 256/256/256 257/257/257
f 199/199/199 256/256/256 258/258/258
f 207/207/207 256/256/256 199/199/199
f 261/261/261 260/260/260 259/259/259
f 252/252/252 260/260/260 261/261/261
f 261/261/261 253/253/253 252/252/252
f 203/203/203 253/253/253 261/261/261
f 254/254/254 257/257/257 262/262/262
f 258/258/258 257/257/257 254/254/254
f 209/209/209 258/258/258 254/254/254
f 199/199/199 258/258/258 209/209/209
f 265/265/265 264/264/264 263/263/263
f 185/185/185 266/266/266 245/245/245
f 267/267/267 266/266/266 185/185/185
f 186/186/186 198/198/198 266/266/266
f 197/197/197 198/198/198 186/186/186
f 269/269/269 268/268/268 184/184/184
f 270/270/270 268/268/268 269/269/269
f 271/271/271 202/202/202 182/182/182
f 198/198/198 202/202/202 271/271/271
f 238/238/238 181/181/181 272/272/272
f 183/183/183 181/181/181 238/238/238
f 272/272/272 204/204/204 273/273/273
f 181/181/181 204/204/204 272/272/272
f 273/273/273 203/203/203 274/274/274
f 204/204/204 203/203/203 273/273/273
f 276/276/276 261/261/261 275/275/275
f 203/203/203 261/261/261 276/276/276
f 275/275/275 278/278/278 277/277/277
f 261/261/261 278/278/278 275/275/275
f 259/259/259 278/278/278 261/261/261
f 247/247/247 185/185/185 245/245/245
f 279/279/279 185/185/185 247/247/247
f 217/217/217 242/242/242 247/247/247
f 213/213/213 242/242/242 217/217/217
f 217/217/217 211/211/211 213/213/213
f 216/216/216 211/211/211 217/217/217
f 235/235/235 211/211/211 216/216/216
f 231/231/231 211/211/211 235/235/235
f 233/233/233 235/235/235 190/190/190
f 231/231/231 235/235/235 233/233/233
f 192/192/192 233/233/233 190/190/190
f 196/196/196 233/233/233 192/192/192
f 183/183/183 246/246/246 184/184/184
f 240/240/240 246/246/246 183/183/183
f 246/246/246 221/221/221 280/280/280
f 240/240/240 221/221/221 246/246/246
f 221/221/221 214/214/214 215/215/215
f 220/220/220 214/214/214 221/221/221
f 220/220/220 234/234/234 214/214/214
f 229/229/229 234/234/234 220/220/220
f 236/236/236 229/229/229 223/223/223
f 234/234/234 229/229/229 236/236/236
f 281/281/281 236/236/236 223/223/223
f 282/282/282 236/236/236 281/281/281
f 285/285/285 284/284/284 283/283/283
f 286/286/286 284/284/284 285/285/285
f 289/289/289 288/288/288 287/287/287
f 290/290/290 288/288/288 289/289/289
f 293/293/293 292/292/292 291/291/291
f 294/294/294 292/292/292 293/293/293
f 297/297/297 296/296/296 295/295/295
f 298/298/298 296/296/296 297/297/297
f 301/301/301 300/300/300 299/299/299
f 302/302/302 300/300/300 301/301/301
f 305/305/305 304/304/304 303/303/303
f 306/306/306 304/304/304 305/305/305
f 302/302/302 308/308/308 307/307/307
f 309/309/309 308/308/308 302/302/302
f 312/312/312 311/311/311 310/310/310
f 313/313/313 311/311/311 312/312/312
f 295/295/295 313/313/313 314/314/314
f 311/311/311 313/313/313 295/295/295
f 317/317/317 316/316/316 315/315/315
f 318/318/318 316/316/316 317/317/317
f 320/320/320 319/319/319 316/316/316
f 293/293/293 319/319/319 320/320/320
f 323/323/323 322/322/322 321/321/321
f 324/324/324 322/322/322 323/323/323
f 327/327/327 326/326/326 325/325/325
f 328/328/328 326/326/326 327/327/327
f 324/324/324 329/329/329 322/322/322
f 330/330/330 329/329/329 324/324/324
f 328/328/328 321/321/321 326/326/326
f 323/323/323 321/321/321 328/328/328
f 333/333/333 332/332/332 331/331/331
f 334/334/334 332/332/332 333/333/333
f 337/337/337 336/336/336 335/335/335
f 338/338/338 336/336/336 337/337/337
f 340/340/340 315/315/315 339/339/339
f 341/341/341 315/315/315 340/340/340
f 343/343/343 339/339/339 342/342/342
f 340/340/340 339/339/339 343/343/343
f 345/345/345 342/342/342 344/344/344
f 346/346/346 342/342/342 345/345/345
f 348/348/348 344/344/344 347/347/347
f 345/345/345 344/344/344 348/348/348
f 330/330/330 335/335/335 329/329/329
f 337/337/337 335/335/335 330/330/330
f 334/334/334 347/347/347 332/332/332
f 348/348/348 347/347/347 334/334/334
f 350/350/350 287/287/287 349/349/349
f 289/289/289 287/287/287 350/350/350
f 352/352/352 283/283/283 351/351/351
f 353/353/353 283/283/283 352/352/352
f 356/356/356 355/355/355 354/354/354
f 357/357/357 355/355/355 356/356/356
f 187/187/187 358/358/358 188/188/188
f 359/359/359 358/358/358 187/187/187
f 362/362/362 361/361/361 360/360/360
f 363/363/363 361/361/361 362/362/362
f 365/365/365 194/194/194 364/364/364
f 193/193/193 194/194/194 365/365/365
f 368/368/368 367/367/367 366/366/366
f 369/369/369 367/367/367 368/368/368
f 372/372/372 371/371/371 370/370/370
f 373/373/373 371/371/371 372/372/372
f 207/207/207 374/374/374 368/368/368
f 205/205/205 374/374/374 207/207/207
f 376/376/376 371/371/371 375/375/375
f 377/377/377 371/371/371 376/376/376
f 212/212/212 379/379/379 378/378/378
f 210/210/210 379/379/379 212/212/212
f 382/382/382 381/381/381 380/380/380
f 383/383/383 381/381/381 382/382/382
f 386/386/386 385/385/385 384/384/384
f 387/387/387 385/385/385 386/386/386
f 390/390/390 389/389/389 388/388/388
f 389/389/389 391/391/391 388/388/388
f 392/392/392 391/391/391 389/389/389
f 393/393/393 391/391/391 392/392/392
f 395/395/395 386/386/386 394/394/394
f 387/387/387 386/386/386 395/395/395
f 389/389/389 395/395/395 394/394/394
f 396/396/396 395/395/395 389/389/389
f 232/232/232 379/379/379 210/210/210
f 397/397/397 379/379/379 232/232/232
f 232/232/232 365/365/365 397/397/397
f 193/193/193 365/365/365 232/232/232
f 399/399/399 382/382/382 398/398/398
f 400/400/400 382/382/382 399/399/399
f 361/361/361 399/399/399 398/398/398
f 363/363/363 399/399/399 361/361/361
f 402/402/402 356/356/356 401/401/401
f 403/403/403 356/356/356 402/402/402
f 385/385/385 401/401/401 384/384/384
f 402/402/402 401/401/401 385/385/385
f 243/243/243 359/359/359 187/187/187
f 404/404/404 359/359/359 243/243/243
f 212/212/212 404/404/404 243/243/243
f 378/378/378 404/404/404 212/212/212
f 407/407/407 406/406/406 405/405/405
f 408/408/408 406/406/406 407/407/407
f 381/381/381 405/405/405 380/380/380
f 407/407/407 405/405/405 381/381/381
f 248/248/248 369/369/369 205/205/205
f 358/358/358 369/369/369 248/248/248
f 357/357/357 371/371/371 355/355/355
f 370/370/370 371/371/371 357/357/357
f 411/411/411 410/410/410 409/409/409
f 412/412/412 410/410/410 411/411/411
f 413/413/413 373/373/373 409/409/409
f 376/376/376 373/373/373 413/413/413
f 415/415/415 256/256/256 414/414/414
f 255/255/255 256/256/256 415/415/415
f 368/368/368 256/256/256 207/207/207
f 414/414/414 256/256/256 368/368/368
f 417/417/417 416/416/416 409/409/409
f 418/418/418 416/416/416 417/417/417
f 420/420/420 419/419/419 372/372/372
f 409/409/409 419/419/419 420/420/420
f 413/413/413 415/415/415 414/414/414
f 421/421/421 415/415/415 413/413/413
f 366/366/366 414/414/414 368/368/368
f 413/413/413 414/414/414 366/366/366
f 424/424/424 423/423/423 422/422/422
f 359/359/359 425/425/425 358/358/358
f 426/426/426 425/425/425 359/359/359
f 358/358/358 377/377/377 369/369/369
f 425/425/425 377/377/377 358/358/358
f 426/426/426 428/428/428 427/427/427
f 354/354/354 428/428/428 426/426/426
f 429/429/429 371/371/371 367/367/367
f 355/355/355 371/371/371 429/429/429
f 403/403/403 357/357/357 356/356/356
f 430/430/430 357/357/357 403/403/403
f 430/430/430 370/370/370 357/357/357
f 431/431/431 370/370/370 430/430/430
f 431/431/431 432/432/432 370/370/370
f 433/433/433 432/432/432 431/431/431
f 433/433/433 420/420/420 372/372/372
f 434/434/434 420/420/420 433/433/433
f 420/420/420 424/424/424 435/435/435
f 434/434/434 424/424/424 420/420/420
f 423/423/423 424/424/424 434/434/434
f 405/405/405 359/359/359 436/436/436
f 406/406/406 359/359/359 405/405/405
f 380/380/380 404/404/404 378/378/378
f 405/405/405 404/404/404 380/380/380
f 380/380/380 379/379/379 382/382/382
f 378/378/378 379/379/379 380/380/380
f 398/398/398 379/379/379 397/397/397
f 382/382/382 379/379/379 398/398/398
f 365/365/365 398/398/398 397/397/397
f 437/437/437 398/398/398 365/365/365
f 360/360/360 365/365/365 364/364/364
f 361/361/361 365/365/365 360/360/360
f 356/356/356 407/407/407 401/401/401
f 354/354/354 407/407/407 356/356/356
f 407/407/407 438/438/438 401/401/401
f 381/381/381 438/438/438 407/407/407
f 384/384/384 383/383/383 386/386/386
f 381/381/381 383/383/383 384/384/384
f 386/386/386 399/399/399 394/394/394
f 400/400/400 399/399/399 386/386/386
f 439/439/439 394/394/394 399/399/399
f 389/389/389 394/394/394 439/439/439
f 392/392/392 363/363/363 362/362/362
f 389/389/389 363/363/363 392/392/392
f 442/442/442 441/441/441 440/440/440
f 443/443/443 441/441/441 442/442/442
f 444/444/444 288/288/288 290/290/290
f 445/445/445 288/288/288 444/444/444
f 448/448/448 447/447/447 446/446/446
f 449/449/449 447/447/447 448/448/448
f 452/452/452 451/451/451 450/450/450
f 453/453/453 451/451/451 452/452/452
f 456/456/456 455/455/455 454/454/454
f 457/457/457 455/455/455 456/456/456
f 460/460/460 459/459/459 458/458/458
f 461/461/461 459/459/459 460/460/460
f 464/464/464 463/463/463 462/462/462
f 465/465/465 463/463/463 464/464/464
f 468/468/468 467/467/467 466/466/466
f 469/469/469 467/467/467 468/468/468
f 471/471/471 470/470/470 467/467/467
f 472/472/472 470/470/470 471/471/471
f 475/475/475 474/474/474 473/473/473
f 476/476/476 474/474/474 475/475/475
f 479/479/479 478/478/478 477/477/477
f 474/474/474 478/478/478 479/479/479
f 482/482/482 481/481/481 480/480/480
f 483/483/483 481/481/481 482/482/482
f 327/327/327 485/485/485 484/484/484
f 486/486/486 485/485/485 327/327/327
f 480/480/480 488/488/488 487/487/487
f 481/481/481 488/488/488 480/480/480
f 484/484/484 483/483/483 482/482/482
f 485/485/485 483/483/483 484/484/484
f 491/491/491 490/490/490 489/489/489
f 492/492/492 490/490/490 491/491/491
f 495/495/495 494/494/494 493/493/493
f 496/496/496 494/494/494 495/495/495
f 497/497/497 476/476/476 475/475/475
f 498/498/498 476/476/476 497/497/497
f 499/499/499 498/498/498 497/497/497
f 500/500/500 498/498/498 499/499/499
f 502/502/502 501/501/501 499/499/499
f 503/503/503 501/501/501 502/502/502
f 505/505/505 504/504/504 502/502/502
f 506/506/506 504/504/504 505/505/505
f 508/508/508 507/507/507 495/495/495
f 488/488/488 507/507/507 508/508/508
f 489/489/489 510/510/510 509/509/509
f 490/490/490 510/510/510 489/489/489
f 512/512/512 445/445/445 511/511/511
f 513/513/513 445/445/445 512/512/512
f 516/516/516 515/515/515 514/514/514
f 517/517/517 515/515/515 516/516/516
usemtl Glass_Tinted_Fade
f 520/520/520 519/519/519 518/518/518
f 521/521/521 519/519/519 520/520/520
f 522/522/522 518/518/518 519/519/519
f 523/523/523 518/518/518 522/522/522
f 526/526/526 525/525/525 524/524/524
f 527/527/527 525/525/525 526/526/526
f 530/530/530 529/529/529 528/528/528
f 526/526/526 529/529/529 530/530/530
f 532/532/532 527/527/527 531/531/531
f 533/533/533 527/527/527 532/532/532
f 525/525/525 527/527/527 533/533/533
f 534/534/534 531/531/531 527/527/527
f 535/535/535 531/531/531 534/534/534
f 536/536/536 527/527/527 526/526/526
f 537/537/537 527/527/527 536/536/536
f 539/539/539 526/526/526 538/538/538
f 536/536/536 526/526/526 539/539/539
f 519/519/519 528/528/528 522/522/522
f 530/530/530 528/528/528 519/519/519
f 521/521/521 538/538/538 519/519/519
f 540/540/540 538/538/538 521/521/521
f 543/543/543 542/542/542 541/541/541
f 546/546/546 545/545/545 544/544/544
f 547/547/547 545/545/545 546/546/546
f 550/550/550 549/549/549 548/548/548
f 551/551/551 549/549/549 550/550/550
f 552/552/552 551/551/551 550/550/550
f 553/553/553 551/551/551 552/552/552
f 556/556/556 555/555/555 554/554/554
f 557/557/557 555/555/555 556/556/556
f 560/560/560 559/559/559 558/558/558
f 563/563/563 562/562/562 561/561/561
f 564/564/564 562/562/562 563/563/563
f 567/567/567 566/566/566 565/565/565
f 568/568/568 566/566/566 567/567/567
f 571/571/571 570/570/570 569/569/569
f 566/566/566 570/570/570 571/571/571
f 574/574/574 573/573/573 572/572/572
f 575/575/575 573/573/573 574/574/574
f 569/569/569 577/577/577 576/576/576
f 570/570/570 577/577/577 569/569/569
f 579/579/579 575/575/575 578/578/578
f 580/580/580 575/575/575 579/579/579
f 582/582/582 535/535/535 581/581/581
f 531/531/531 535/535/535 582/582/582
f 584/584/584 567/567/567 583/583/583
f 568/568/568 567/567/567 584/584/584
f 587/587/587 586/586/586 585/585/585
f 588/588/588 586/586/586 587/587/587
f 591/591/591 590/590/590 589/589/589
f 586/586/586 590/590/590 591/591/591
f 589/589/589 593/593/593 592/592/592
f 594/594/594 593/593/593 589/589/589
f 597/597/597 596/596/596 595/595/595
f 598/598/598 596/596/596 597/597/597
f 600/600/600 591/591/591 599/599/599
f 520/520/520 602/602/602 601/601/601
f 518/518/518 602/602/602 520/520/520
f 604/604/604 518/518/518 603/603/603
f 602/602/602 518/518/518 604/604/604
f 607/607/607 606/606/606 605/605/605
f 608/608/608 606/606/606 607/607/607
f 610/610/610 609/609/609 607/607/607
f 611/611/611 609/609/609 610/610/610
f 612/612/612 605/605/605 606/606/606
f 613/613/613 605/605/605 612/612/612
f 614/614/614 605/605/605 613/613/613
f 616/616/616 614/614/614 615/615/615
f 605/605/605 614/614/614 616/616/616
f 617/617/617 605/605/605 616/616/616
f 607/607/607 605/605/605 617/617/617
f 618/618/618 607/607/607 617/617/617
f 610/610/610 607/607/607 618/618/618
f 602/602/602 619/619/619 610/610/610
f 604/604/604 619/619/619 602/602/602
f 601/601/601 610/610/610 620/620/620
f 602/602/602 610/610/610 601/601/601
f 623/623/623 622/622/622 621/621/621
f 626/626/626 625/625/625 624/624/624
f 629/629/629 628/628/628 627/627/627
f 630/630/630 628/628/628 629/629/629
f 632/632/632 627/627/627 631/631/631
f 629/629/629 627/627/627 632/632/632
f 626/626/626 633/633/633 625/625/625
f 632/632/632 633/633/633 626/626/626
f 636/636/636 635/635/635 634/634/634
f 639/639/639 638/638/638 637/637/637
f 640/640/640 638/638/638 639/639/639
f 643/643/643 642/642/642 641/641/641
f 644/644/644 642/642/642 643/643/643
f 646/646/646 645/645/645 642/642/642
f 647/647/647 645/645/645 646/646/646
f 649/649/649 573/573/573 648/648/648
f 572/572/572 573/573/573 649/649/649
f 651/651/651 650/650/650 645/645/645
f 652/652/652 650/650/650 651/651/651
f 653/653/653 648/648/648 650/650/650
f 654/654/654 648/648/648 653/653/653
f 655/655/655 615/615/615 614/614/614
f 656/656/656 615/615/615 655/655/655
f 658/658/658 657/657/657 641/641/641
f 659/659/659 657/657/657 658/658/658
f 662/662/662 661/661/661 660/660/660
f 663/663/663 661/661/661 662/662/662
f 666/666/666 665/665/665 664/664/664
f 667/667/667 665/665/665 666/666/666
f 667/667/667 668/668/668 665/665/665
f 669/669/669 668/668/668 667/667/667
f 672/672/672 671/671/671 670/670/670
f 671/671/671 671/671/671 672/672/672
f 663/663/663 674/674/674 673/673/673
f 677/677/677 676/676/676 675/675/675
f 678/678/678 676/676/676 677/677/677
f 681/681/681 680/680/680 679/679/679
f 682/682/682 680/680/680 681/681/681
f 684/684/684 677/677/677 683/683/683
f 678/678/678 677/677/677 684/684/684
f 675/675/675 681/681/681 679/679/679
f 676/676/676 681/681/681 675/675/675
f 686/686/686 683/683/683 685/685/685
f 684/684/684 683/683/683 686/686/686
f 689/689/689 688/688/688 687/687/687
f 690/690/690 688/688/688 689/689/689
f 693/693/693 692/692/692 691/691/691
f 694/694/694 692/692/692 693/693/693
f 695/695/695 690/690/690 689/689/689
f 696/696/696 690/690/690 695/695/695
f 687/687/687 698/698/698 697/697/697
f 688/688/688 698/698/698 687/687/687
f 700/700/700 696/696/696 699/699/699
f 701/701/701 696/696/696 700/700/700
f 698/698/698 702/702/702 697/697/697
f 705/705/705 704/704/704 703/703/703
f 706/706/706 704/704/704 705/705/705
f 709/709/709 708/708/708 707/707/707
f 710/710/710 708/708/708 709/709/709
f 711/711/711 680/680/680 682/682/682
f 712/712/712 680/680/680 711/711/711
f 713/713/713 709/709/709 707/707/707
f 714/714/714 709/709/709 713/713/713
f 710/710/710 711/711/711 715/715/715
f 712/712/712 711/711/711 710/710/710
f 716/716/716 714/714/714 713/713/713
f 717/717/717 714/714/714 716/716/716
f 720/720/720 719/719/719 718/718/718
f 721/721/721 719/719/719 720/720/720
f 723/723/723 692/692/692 722/722/722
f 691/691/691 692/692/692 723/723/723
f 725/725/725 718/718/718 724/724/724
f 720/720/720 718/718/718 725/725/725
f 721/721/721 726/726/726 719/719/719
f 727/727/727 726/726/726 721/721/721
f 729/729/729 724/724/724 728/728/728
f 725/725/725 724/724/724 729/729/729
f 727/727/727 730/730/730 726/726/726
f 733/733/733 732/732/732 731/731/731
f 734/734/734 732/732/732 733/733/733
f 736/736/736 557/557/557 735/735/735
f 739/739/739 738/738/738 737/737/737
f 624/624/624 738/738/738 739/739/739
f 742/742/742 741/741/741 740/740/740
f 743/743/743 741/741/741 742/742/742
f 746/746/746 745/745/745 744/744/744
f 747/747/747 745/745/745 746/746/746
f 750/750/750 749/749/749 748/748/748
f 751/751/751 749/749/749 750/750/750
f 747/747/747 748/748/748 745/745/745
f 750/750/750 748/748/748 747/747/747
f 753/753/753 751/751/751 752/752/752
f 749/749/749 751/751/751 753/753/753
f 752/752/752 755/755/755 754/754/754
f 756/756/756 755/755/755 752/752/752
f 756/756/756 758/758/758 757/757/757
f 759/759/759 758/758/758 756/756/756
f 743/743/743 746/746/746 744/744/744
f 760/760/760 746/746/746 743/743/743
f 763/763/763 762/762/762 761/761/761
f 764/764/764 762/762/762 763/763/763
f 767/767/767 766/766/766 765/765/765
f 768/768/768 766/766/766 767/767/767
f 771/771/771 770/770/770 769/769/769
f 772/772/772 770/770/770 771/771/771
f 768/768/768 773/773/773 766/766/766
f 771/771/771 773/773/773 768/768/768
f 775/775/775 774/774/774 770/770/770
f 776/776/776 774/774/774 775/775/775
f 776/776/776 777/777/777 774/774/774
f 778/778/778 777/777/777 776/776/776
f 781/781/781 780/780/780 779/779/779
f 764/764/764 765/765/765 762/762/762
f 767/767/767 765/765/765 764/764/764
f 784/784/784 783/783/783 782/782/782
f 785/785/785 783/783/783 784/784/784
f 788/788/788 787/787/787 786/786/786
f 789/789/789 787/787/787 788/788/788
f 790/790/790 741/741/741 743/743/743
f 791/791/791 741/741/741 790/790/790
f 793/793/793 745/745/745 792/792/792
f 744/744/744 745/745/745 793/793/793
f 795/795/795 749/749/749 794/794/794
f 748/748/748 749/749/749 795/795/795
f 792/792/792 748/748/748 795/795/795
f 745/745/745 748/748/748 792/792/792
f 753/753/753 794/794/794 749/749/749
f 796/796/796 794/794/794 753/753/753
f 796/796/796 755/755/755 797/797/797
f 754/754/754 755/755/755 796/796/796
f 797/797/797 758/758/758 798/798/798
f 757/757/757 758/758/758 797/797/797
f 743/743/743 793/793/793 799/799/799
f 744/744/744 793/793/793 743/743/743
f 802/802/802 801/801/801 800/800/800
f 803/803/803 801/801/801 802/802/802
f 806/806/806 805/805/805 804/804/804
f 807/807/807 805/805/805 806/806/806
f 810/810/810 809/809/809 808/808/808
f 811/811/811 809/809/809 810/810/810
f 804/804/804 812/812/812 810/810/810
f 805/805/805 812/812/812 804/804/804
f 808/808/808 814/814/814 813/813/813
f 809/809/809 814/814/814 808/808/808
f 813/813/813 816/816/816 815/815/815
f 814/814/814 816/816/816 813/813/813
f 819/819/819 818/818/818 817/817/817
f 820/820/820 818/818/818 819/819/819
f 800/800/800 807/807/807 806/806/806
f 801/801/801 807/807/807 800/800/800
f 784/784/784 822/822/822 821/821/821
f 782/782/782 822/822/822 784/784/784
f 823/823/823 787/787/787 789/789/789
f 824/824/824 787/787/787 823/823/823
f 826/826/826 818/818/818 825/825/825
f 778/778/778 828/828/828 827/827/827
f 779/779/779 828/828/828 778/778/778
