# Exported from Godot Engine
mtllib Caliper_Perf_R.mtl
o Caliper_Perf_R
v -0.123251 0.164335 0.059430
vt 0.285099 -1.343692
vn -0.934446 0.284482 0.214198
v -0.121334 0.169781 0.060585
vt 0.280876 -1.350378
vn -0.620397 0.675266 0.398902
v -0.122052 0.156646 0.074902
vt 0.265544 -1.327785
vn -0.934446 0.284482 0.214198
v -0.119935 0.160722 0.078698
vt 0.258830 -1.332852
vn -0.568950 0.710561 0.414005
v -0.155390 0.124067 0.074905
vt 0.267127 -1.256886
vn -0.267551 0.938656 0.217582
v -0.159566 0.121991 0.078698
vt 0.260632 -1.251395
vn -0.695452 0.587384 0.413916
v -0.163047 0.125466 0.059430
vt 0.287430 -1.241918
vn -0.267551 0.938656 0.217582
v -0.168586 0.123625 0.060585
vt 0.283490 -1.234939
vn -0.659315 0.637272 0.398984
v -0.120721 0.158852 0.080634
vt 0.256680 -1.329141
vn -0.621721 0.776101 0.105497
v -0.129691 0.151516 0.080557
vt 0.259586 -1.312379
vn -0.647829 0.761726 -0.009506
v -0.122603 0.155233 0.076329
vt 0.263993 -1.324892
vn -0.590592 0.726440 -0.351407
v -0.130144 0.149037 0.076177
vt 0.266221 -1.310249
vn -0.618949 0.709084 -0.337791
v -0.150109 0.131504 0.080557
vt 0.260467 -1.271878
vn -0.746622 0.665187 -0.009085
v -0.157676 0.122728 0.080634
vt 0.258320 -1.254991
vn -0.759471 0.641396 0.108700
v -0.147570 0.131958 0.076177
vt 0.267009 -1.274434
vn -0.695235 0.634475 -0.337771
v -0.153961 0.124581 0.076330
vt 0.265447 -1.259710
vn -0.711159 0.609470 -0.350429
v -0.119935 0.160722 0.078698
vt 0.258830 -1.332852
vn -0.808300 0.550878 0.207808
v -0.120721 0.158852 0.080634
vt 0.256680 -1.329141
vn -0.704328 0.632374 0.322529
v -0.122052 0.156646 0.074902
vt 0.265544 -1.327785
vn -0.906431 0.419513 0.048902
v -0.122603 0.155233 0.076329
vt 0.263993 -1.324892
vn -0.906431 0.419513 0.048902
v -0.157676 0.122728 0.080634
vt 0.258320 -1.254991
vn -0.614036 0.720189 0.322936
v -0.159566 0.121991 0.078698
vt 0.260632 -1.251395
vn -0.531825 0.820189 0.210836
v -0.153961 0.124581 0.076330
vt 0.265447 -1.259710
vn -0.400040 0.914906 0.053997
v -0.155390 0.124067 0.074905
vt 0.267127 -1.256886
vn -0.400040 0.914906 0.053997
v -0.140326 0.141947 0.080609
vt 0.261114 -1.292162
vn -0.699966 0.713981 -0.016700
v -0.139222 0.140871 0.076224
vt 0.267388 -1.292362
vn -0.660178 0.673854 -0.331792
v -0.121366 0.169079 0.037485
vt 0.308613 -1.365132
vn -0.720508 0.693169 -0.019618
v -0.121334 0.169781 0.060585
vt 0.280876 -1.350378
vn -0.731115 0.681984 -0.019211
v -0.123278 0.163738 0.039765
vt 0.309573 -1.356586
vn -0.942636 0.333705 -0.008884
v -0.123251 0.164335 0.059430
vt 0.285099 -1.343692
vn -0.942636 0.333705 -0.008884
v -0.168586 0.123625 0.060585
vt 0.283490 -1.234939
vn -0.663651 0.747792 -0.019321
v -0.167883 0.123639 0.037485
vt 0.311906 -1.221552
vn -0.674733 0.737801 -0.019602
v -0.163047 0.125466 0.059430
vt 0.287430 -1.241918
vn -0.317031 0.948372 -0.009082
v -0.162449 0.125477 0.039765
vt 0.312495 -1.230225
vn -0.317031 0.948372 -0.009082
v -0.077279 0.154695 0.067003
vt 0.195599 -1.374606
vn 0.961319 -0.269820 0.055338
v -0.079701 0.137419 0.069870
vt 0.185245 -1.352659
vn 0.961531 -0.269029 0.055517
v -0.077812 0.155399 0.079690
vt 0.209661 -1.363914
vn 0.961377 -0.269624 0.055291
v -0.080233 0.138123 0.082556
vt 0.200686 -1.344092
vn 0.961520 -0.269048 0.055599
v -0.094809 0.110246 0.083736
vt 0.190432 -1.304589
vn 0.334974 -0.309130 0.890074
v -0.102280 0.102927 0.083992
vt 0.190965 -1.290501
vn 0.317372 -0.323638 0.891366
v -0.095748 0.116077 0.086123
vt 0.198151 -1.308956
vn 0.342907 -0.304653 0.888595
v -0.106254 0.107005 0.086880
vt 0.199613 -1.290709
vn 0.317490 -0.323711 0.891297
v -0.075705 0.168921 0.064467
vt 0.205613 -1.391048
vn 0.961064 -0.270715 0.055408
v -0.075080 0.173413 0.075571
vt 0.220308 -1.384533
vn 0.972724 -0.225416 0.054734
v -0.074337 0.172431 0.057867
vt 0.203507 -1.401534
vn 0.988065 -0.144528 0.053291
v -0.115537 0.096678 0.086123
vt 0.198927 -1.272417
vn 0.296402 -0.349467 0.888830
v -0.109752 0.095606 0.083736
vt 0.191017 -1.276425
vn 0.301559 -0.340806 0.890457
v -0.082071 0.124603 0.071247
vt 0.177948 -1.334290
vn 0.865108 -0.496840 0.068838
v -0.082659 0.125169 0.083948
vt 0.194480 -1.329406
vn 0.863152 -0.500214 0.068955
v -0.093972 0.109408 0.069735
vt 0.171695 -1.306252
vn 0.732866 -0.677414 0.063390
v -0.101443 0.102089 0.069924
vt 0.171427 -1.290063
vn 0.700065 -0.712734 0.043808
v -0.094809 0.110246 0.083736
vt 0.190432 -1.304589
vn 0.733913 -0.676249 0.063714
v -0.102280 0.102927 0.083992
vt 0.190965 -1.290501
vn 0.700065 -0.712734 0.043808
v -0.090619 0.166765 0.081009
vt 0.229267 -1.362764
vn 0.179097 0.183396 0.966587
v -0.079758 0.177419 0.076373
vt 0.228607 -1.383853
vn 0.214103 0.218201 0.952128
v -0.077812 0.155399 0.079690
vt 0.209661 -1.363914
vn 0.224246 0.126684 0.966263
v -0.075080 0.173413 0.075571
vt 0.220308 -1.384533
vn 0.269395 0.159382 0.949749
v -0.101069 0.156603 0.084369
vt 0.230928 -1.342963
vn 0.132671 0.116484 0.984292
v -0.080233 0.138123 0.082556
vt 0.200686 -1.344092
vn 0.156890 0.071566 0.985020
v -0.075345 0.181105 0.036878
vt 0.195965 -1.432372
vn 0.935934 0.352030 -0.010162
v -0.073722 0.176658 0.037013
vt 0.190909 -1.428306
vn 0.935934 0.352030 -0.010162
v -0.075356 0.181585 0.057253
vt 0.213326 -1.410793
vn 0.935934 0.352030 -0.010162
v -0.073612 0.177079 0.057042
vt 0.207860 -1.406848
vn 0.935934 0.352030 -0.010162
v -0.114623 0.147472 0.086389
vt 0.236815 -1.321624
vn 0.116002 0.071802 0.990650
v -0.082659 0.125169 0.083948
vt 0.194480 -1.329406
vn 0.129992 0.054201 0.990033
v -0.119920 0.139243 0.087531
vt 0.234229 -1.308553
vn 0.099398 0.029293 0.994616
v -0.095748 0.116077 0.086123
vt 0.198151 -1.308956
vn 0.100890 0.030881 0.994418
v -0.074320 0.179267 0.074151
vt 0.225313 -1.391034
vn 0.993283 0.110187 0.035327
v -0.073612 0.177079 0.057042
vt 0.207860 -1.406848
vn 0.994885 0.094173 0.036532
v -0.073612 0.177079 0.057042
vt 0.207860 -1.406848
vn 0.994875 0.094285 0.036535
v -0.074320 0.179267 0.074151
vt 0.225313 -1.391034
vn 0.993294 0.110076 0.035360
v -0.075356 0.181585 0.057253
vt 0.213326 -1.410793
vn 0.895767 0.444484 0.006019
v -0.075890 0.181437 0.074237
vt 0.228713 -1.392844
vn 0.895767 0.444484 0.006019
v -0.075890 0.181437 0.074237
vt 0.228713 -1.392844
vn 0.279061 0.225052 0.933529
v -0.074320 0.179267 0.074151
vt 0.225313 -1.391034
vn 0.316443 0.186551 0.930087
v -0.082659 0.125169 0.083948
vt 0.194480 -1.329406
vn 0.354288 -0.298124 0.886342
v -0.106254 0.107005 0.086880
vt 0.199613 -1.290709
vn 0.034486 -0.035301 0.998782
v -0.128868 0.130187 0.088075
vt 0.234229 -1.291528
vn 0.034685 -0.035206 0.998778
v -0.137295 0.081186 0.069870
vt 0.188087 -1.228154
vn 0.243795 -0.968238 0.055490
v -0.154640 0.079204 0.067003
vt 0.199468 -1.206721
vn 0.244700 -0.968022 0.055278
v -0.137985 0.081737 0.082556
vt 0.203131 -1.237464
vn 0.243886 -0.968215 0.055493
v -0.155330 0.079755 0.079690
vt 0.213026 -1.218093
vn 0.244481 -0.968075 0.055311
v -0.172458 0.076713 0.057867
vt 0.208643 -1.180182
vn 0.118062 -0.991573 0.053326
v -0.173420 0.077481 0.075571
vt 0.224634 -1.197993
vn 0.198373 -0.978598 0.054710
v -0.168914 0.077989 0.064467
vt 0.210252 -1.190761
vn 0.245566 -0.967801 0.055308
v -0.124417 0.083228 0.071247
vt 0.179954 -1.246184
vn 0.474174 -0.877740 0.068786
v -0.124967 0.083830 0.083949
vt 0.196233 -1.251827
vn 0.477582 -0.875874 0.069001
v -0.108936 0.094747 0.069735
vt 0.172386 -1.273868
vn 0.660356 -0.748271 0.063410
v -0.109752 0.095606 0.083736
vt 0.191017 -1.276425
vn 0.659098 -0.749356 0.063684
v -0.177303 0.082262 0.076373
vt 0.232898 -1.199049
vn -0.223752 -0.208417 0.952102
v -0.166370 0.092842 0.081008
vt 0.232549 -1.220144
vn -0.188029 -0.174240 0.966585
v -0.173420 0.077481 0.075571
vt 0.224634 -1.197993
vn -0.166412 -0.265226 0.949717
v -0.155330 0.079755 0.079690
vt 0.213026 -1.218093
vn -0.132523 -0.220926 0.966245
v -0.155939 0.103025 0.084369
vt 0.233268 -1.239980
vn -0.120033 -0.129636 0.984270
v -0.137985 0.081737 0.082556
vt 0.203131 -1.237464
vn -0.075707 -0.155031 0.985004
v -0.181102 0.077946 0.036878
vt 0.202572 -1.149022
vn -0.376195 -0.926484 -0.010237
v -0.181582 0.077970 0.057253
vt 0.218883 -1.171390
vn -0.376195 -0.926484 -0.010237
v -0.176699 0.076209 0.037013
vt 0.197330 -1.152844
vn -0.376195 -0.926484 -0.010237
v -0.177123 0.076110 0.057042
vt 0.213238 -1.175076
vn -0.376195 -0.926484 -0.010237
v -0.115537 0.096678 0.086123
vt 0.198927 -1.272417
vn -0.033511 -0.100015 0.994421
v -0.124967 0.083830 0.083949
vt 0.196233 -1.251827
vn -0.057629 -0.128521 0.990031
v -0.138095 0.121417 0.087531
vt 0.234937 -1.274449
vn -0.031808 -0.098513 0.994627
v -0.146459 0.116335 0.086389
vt 0.238134 -1.261547
vn -0.074824 -0.114135 0.990643
v -0.177123 0.076110 0.057042
vt 0.213238 -1.175076
vn -0.120118 -0.992089 0.036475
v -0.179292 0.076874 0.074151
vt 0.229945 -1.191723
vn -0.135928 -0.990092 0.035245
v -0.181420 0.078500 0.074237
vt 0.233419 -1.190072
vn -0.467611 -0.883914 0.005945
v -0.181582 0.077970 0.057253
vt 0.218883 -1.171390
vn -0.467611 -0.883914 0.005945
v -0.179292 0.076874 0.074151
vt 0.229945 -1.191723
vn -0.194841 -0.311627 0.930014
v -0.181420 0.078500 0.074237
vt 0.233419 -1.190072
vn -0.232327 -0.273123 0.933503
v -0.124967 0.083830 0.083949
vt 0.196233 -1.251827
vn 0.288789 -0.361918 0.886350
v -0.110022 0.163855 0.083268
vt 0.246693 -1.342512
vn -0.442722 0.782117 0.438509
v -0.115474 0.173461 0.060621
vt 0.276589 -1.358506
vn -0.440709 0.783271 0.438477
v -0.097747 0.172194 0.080152
vt 0.241354 -1.361929
vn -0.394567 0.808624 0.436398
v -0.104038 0.179382 0.061044
vt 0.267533 -1.373107
vn -0.394924 0.808389 0.436511
v -0.116987 0.158790 0.084506
vt 0.249528 -1.331319
vn -0.460721 0.771490 0.438793
v -0.083641 0.180290 0.075824
vt 0.234951 -1.383103
vn 0.111261 0.308837 0.944585
v -0.097747 0.172194 0.080152
vt 0.241354 -1.361929
vn 0.086698 0.264778 0.960404
v -0.139418 0.141015 0.083847
vt 0.256385 -1.292051
vn -0.648960 0.662079 0.374836
v -0.128763 0.150599 0.083763
vt 0.254838 -1.311905
vn -0.593540 0.699392 0.398197
v -0.119874 0.157432 0.083651
vt 0.251975 -1.327530
vn -0.561621 0.708973 0.426544
v -0.128763 0.150599 0.083763
vt 0.254838 -1.311905
vn -0.092413 0.123873 0.987985
v -0.121768 0.140506 0.085659
vt 0.238215 -1.308177
vn -0.093799 0.123368 0.987918
v -0.139418 0.141015 0.083847
vt 0.256385 -1.292051
vn -0.108903 0.111077 0.987827
v -0.130387 0.131746 0.085929
vt 0.238391 -1.291617
vn -0.109024 0.111088 0.987812
v -0.115474 0.173461 0.060621
vt 0.276589 -1.358506
vn -0.485021 0.874170 -0.024126
v -0.115397 0.172862 0.037243
vt 0.304160 -1.374069
vn -0.485322 0.874002 -0.024129
v -0.116987 0.158790 0.084506
vt 0.249528 -1.331319
vn 0.032898 0.178088 0.983465
v -0.110022 0.163855 0.083268
vt 0.246693 -1.342512
vn 0.051871 0.207957 0.976762
v -0.083641 0.180290 0.075824
vt 0.234951 -1.383103
vn -0.295227 0.851789 0.432777
v -0.091451 0.184579 0.061513
vt 0.257074 -1.387970
vn -0.319206 0.842866 0.433227
v -0.075345 0.181105 0.036878
vt 0.270613 -1.427349
vn 0.450496 0.892604 -0.017670
v -0.075356 0.181585 0.057253
vt 0.246991 -1.410603
vn 0.450496 0.892604 -0.017670
v -0.084999 0.186038 0.036405
vt 0.279985 -1.414978
vn 0.163205 0.986371 -0.020878
v -0.085167 0.186564 0.062151
vt 0.251238 -1.394596
vn 0.108419 0.993878 -0.021242
v -0.091484 0.183986 0.036794
vt 0.285195 -1.406624
vn -0.354533 0.934773 -0.022479
v -0.091451 0.184579 0.061513
vt 0.257074 -1.387970
vn -0.353520 0.935157 -0.022468
v -0.104038 0.179382 0.061044
vt 0.267533 -1.373107
vn -0.419320 0.907537 -0.023385
v -0.103841 0.178845 0.037105
vt 0.295188 -1.390206
vn -0.419618 0.907400 -0.023388
v -0.139309 0.123297 0.085659
vt 0.238901 -1.275033
vn -0.458136 0.484250 0.745395
v -0.130387 0.131746 0.085929
vt 0.238391 -1.291617
vn -0.474456 0.483708 0.735472
v -0.138095 0.121417 0.087531
vt 0.234937 -1.274449
vn -0.456421 0.484897 0.746026
v -0.128868 0.130187 0.088075
vt 0.234229 -1.291528
vn -0.474443 0.483592 0.735556
v -0.116987 0.158790 0.084506
vt 0.249528 -1.331319
vn -0.491816 0.722508 0.485901
v -0.119874 0.157432 0.083651
vt 0.251975 -1.327530
vn -0.491816 0.722508 0.485901
v -0.119874 0.157432 0.083651
vt 0.251975 -1.327530
vn -0.372939 0.057998 0.926042
v -0.116987 0.158790 0.084506
vt 0.249528 -1.331319
vn -0.372939 0.057998 0.926042
v -0.116969 0.146750 0.085267
vt 0.239120 -1.318753
vn -0.439419 0.240401 0.865516
v -0.114623 0.147472 0.086389
vt 0.236815 -1.321624
vn -0.410236 0.155154 0.898685
v -0.075890 0.181437 0.074237
vt 0.228713 -1.392844
vn 0.051759 0.950257 0.307137
v -0.085167 0.186564 0.062151
vt 0.251238 -1.394596
vn 0.046094 0.949481 0.310422
v -0.119874 0.157432 0.083651
vt 0.251975 -1.327530
vn -0.084705 0.126700 0.988318
v -0.116969 0.146750 0.085267
vt 0.239120 -1.318753
vn -0.084705 0.126700 0.988318
v -0.075356 0.181585 0.057253
vt 0.246991 -1.410603
vn 0.461208 0.887010 0.022357
v -0.119920 0.139243 0.087531
vt 0.234229 -1.308553
vn -0.474746 0.466814 0.746124
v -0.121768 0.140506 0.085659
vt 0.238215 -1.308177
vn -0.474231 0.468307 0.745515
v -0.156279 0.121844 0.083650
vt 0.253549 -1.256369
vn -0.048342 0.374328 0.926035
v -0.145676 0.118663 0.085267
vt 0.240303 -1.264503
vn -0.228944 0.445504 0.865512
v -0.157711 0.118993 0.084506
vt 0.251277 -1.252469
vn -0.048342 0.374328 0.926035
v -0.146459 0.116335 0.086389
vt 0.238134 -1.261547
vn -0.144517 0.414071 0.898699
v -0.162957 0.112163 0.083268
vt 0.248977 -1.241162
vn -0.770355 0.462866 0.438530
v -0.171611 0.100109 0.080152
vt 0.244579 -1.221530
vn -0.798147 0.415274 0.436472
v -0.172417 0.117862 0.060621
vt 0.279603 -1.226611
vn -0.771523 0.460966 0.438477
v -0.178634 0.106585 0.061044
vt 0.271267 -1.211592
vn -0.797903 0.415734 0.436481
v -0.157711 0.118993 0.084506
vt 0.251277 -1.252469
vn -0.759290 0.480553 0.438802
v -0.171611 0.100109 0.080152
vt 0.244579 -1.221530
vn -0.266933 -0.079803 0.960405
v -0.180072 0.086218 0.075824
vt 0.239204 -1.200093
vn -0.311636 -0.103243 0.944576
v -0.149217 0.130553 0.083763
vt 0.255696 -1.272124
vn -0.685732 0.609255 0.398221
v -0.156279 0.121844 0.083650
vt 0.253549 -1.256369
vn -0.694146 0.579869 0.426514
v -0.149217 0.130553 0.083763
vt 0.255696 -1.272124
vn -0.121935 0.095198 0.987962
v -0.139309 0.123297 0.085659
vt 0.238901 -1.275033
vn -0.121416 0.096466 0.987903
v -0.171820 0.117770 0.037243
vt 0.307882 -1.212408
vn -0.861102 0.507851 -0.024300
v -0.172417 0.117862 0.060621
vt 0.279603 -1.226611
vn -0.861280 0.507560 -0.024081
v -0.157711 0.118993 0.084506
vt 0.251277 -1.252469
vn -0.178908 -0.028325 0.983458
v -0.162957 0.112163 0.083268
vt 0.248977 -1.241162
vn -0.209224 -0.046509 0.976761
v -0.180072 0.086218 0.075824
vt 0.239204 -1.200093
vn -0.843819 0.317268 0.432793
v -0.184157 0.094137 0.061513
vt 0.261538 -1.196264
vn -0.834319 0.340988 0.433174
v -0.181102 0.077946 0.036878
vt 0.276879 -1.157591
vn -0.904034 -0.427091 -0.017763
v -0.185782 0.087726 0.036405
vt 0.285680 -1.170385
vn -0.990283 -0.137488 -0.020911
v -0.181582 0.077970 0.057253
vt 0.252519 -1.173199
vn -0.904034 -0.427091 -0.017763
v -0.186304 0.087908 0.062151
vt 0.256027 -1.189381
vn -0.996364 -0.082493 -0.021303
v -0.184157 0.094137 0.061513
vt 0.261538 -1.196264
vn -0.925670 0.377664 -0.022476
v -0.183563 0.094155 0.036794
vt 0.290494 -1.178973
vn -0.925250 0.378690 -0.022487
v -0.178102 0.106374 0.037105
vt 0.299695 -1.195850
vn -0.896194 0.443045 -0.023392
v -0.178634 0.106585 0.061044
vt 0.271267 -1.211592
vn -0.896385 0.442663 -0.023304
v -0.157711 0.118993 0.084506
vt 0.251277 -1.252469
vn -0.709429 0.510461 0.485942
v -0.156279 0.121844 0.083650
vt 0.253549 -1.256369
vn -0.709429 0.510461 0.485942
v -0.181420 0.078500 0.074237
vt 0.233419 -1.190072
vn -0.951311 -0.027008 0.307048
v -0.186304 0.087908 0.062151
vt 0.256027 -1.189381
vn -0.950381 -0.021423 0.310350
v -0.145676 0.118663 0.085267
vt 0.240303 -1.264503
vn -0.124503 0.087968 0.988312
v -0.156279 0.121844 0.083650
vt 0.253549 -1.256369
vn -0.124503 0.087968 0.988312
v -0.181582 0.077970 0.057253
vt 0.252519 -1.173199
vn -0.898695 -0.438016 0.022124
v 0.189926 0.032991 0.079867
vt 0.758095 -1.105698
vn 0.999883 0.006273 0.013931
v 0.191985 0.055436 0.079332
vt 0.730282 -1.108669
vn 0.999679 0.013974 0.021143
v 0.192646 -0.000291 0.005420
vt 0.798170 -1.005453
vn 0.999885 -0.000015 0.015195
v 0.191689 0.069964 0.005420
vt 0.697138 -1.019346
vn 0.988242 0.152487 0.011232
v 0.187742 0.068744 0.074619
vt 0.713092 -1.109092
vn 0.923060 0.383378 0.031334
v 0.180477 0.083296 0.074426
vt 0.695150 -1.116784
vn 0.811965 0.497459 0.305365
v 0.184667 0.085662 0.059952
vt 0.689031 -1.097113
vn 0.894426 0.445902 0.034252
v 0.131952 0.081168 0.078982
vt 0.691201 -1.183784
vn -0.969030 0.241868 0.049805
v 0.129456 0.066845 0.078927
vt 0.709173 -1.191603
vn -0.990459 0.130956 0.042906
v 0.130691 0.081294 0.059952
vt 0.677898 -1.204583
vn -0.968905 0.242366 0.049820
v 0.128724 0.062435 0.059952
vt 0.703084 -1.216199
vn -0.989852 0.137978 0.033985
v 0.141345 0.110631 0.059952
vt 0.641837 -1.173082
vn -0.878618 0.461870 0.121273
v 0.143061 0.108627 0.075236
vt 0.657048 -1.160761
vn -0.890983 0.438748 0.116833
v 0.136506 0.096428 0.059952
vt 0.657972 -1.189653
vn -0.928783 0.361673 0.080965
v 0.137535 0.095969 0.078098
vt 0.672980 -1.171899
vn -0.929128 0.361173 0.079223
v 0.192971 -0.000291 0.080096
vt 0.799407 -1.102337
vn 0.999990 0.000000 -0.004399
v 0.127301 0.030258 0.071513
vt 0.756372 -1.215284
vn -0.994686 0.027568 0.099200
v 0.127926 0.059397 0.071513
vt 0.714921 -1.204033
vn -0.992071 0.085188 0.092398
v 0.128248 0.030281 0.082113
vt 0.759016 -1.201438
vn -0.994800 0.027368 0.098104
v 0.129012 0.053506 0.079112
vt 0.726700 -1.196387
vn -0.991586 0.033395 0.125069
v 0.147005 0.113425 0.074009
vt 0.651060 -1.154075
vn -0.522007 0.836175 0.168288
v 0.145763 0.115221 0.059952
vt 0.636438 -1.165172
vn -0.510219 0.843397 0.168401
v 0.165450 0.107060 0.074224
vt 0.662536 -1.130810
vn 0.784441 0.546807 0.292669
v 0.168988 0.109519 0.059952
vt 0.655196 -1.111486
vn 0.757820 0.648778 0.069249
v 0.154210 0.115573 0.073933
vt 0.647437 -1.143233
vn -0.113920 0.974186 0.194892
v 0.154560 0.118458 0.059952
vt 0.629863 -1.154151
vn 0.015072 0.994749 0.101229
v 0.126615 -0.000291 0.071513
vt 0.802951 -1.224558
vn -0.996427 -0.000016 0.084464
v 0.127651 -0.000291 0.084282
vt 0.802519 -1.208100
vn -0.996427 -0.000016 0.084464
v 0.159825 0.114329 0.073909
vt 0.651670 -1.136520
vn 0.546915 0.795706 0.260262
v 0.161570 0.117502 0.059952
vt 0.642046 -1.117023
vn 0.541321 0.840425 0.025620
v 0.154560 0.118458 0.059952
vt 0.633360 -1.120549
vn 0.015072 0.994749 0.101229
v 0.148263 0.051237 0.109447
vt 0.216837 -1.892425
vn -0.198710 0.158495 0.967158
v 0.157004 0.059636 0.103151
vt 0.230197 -1.903000
vn -0.011939 0.557973 0.829773
v 0.164900 0.051078 0.109540
vt 0.216266 -1.911866
vn 0.243953 0.184750 0.952026
v 0.162924 0.063555 0.101691
vt 0.234836 -1.910901
vn 0.352006 0.476997 0.805336
v 0.141626 0.029412 0.109410
vt 0.189159 -1.882477
vn -0.199011 0.019585 0.979802
v 0.170106 0.032439 0.109570
vt 0.192224 -1.919052
vn 0.254157 0.041297 0.966281
v 0.143916 -0.000291 0.109424
vt 0.149407 -1.882984
vn -0.142607 -0.000017 0.989779
v 0.133629 0.030237 0.103386
vt 0.191865 -1.869825
vn -0.690389 0.064080 0.720595
v 0.136392 -0.000291 0.104087
vt 0.149380 -1.869707
vn -0.681246 -0.000022 0.732055
v 0.140017 0.054677 0.102859
vt 0.224019 -1.880821
vn -0.566127 0.320247 0.759567
v 0.142466 0.063563 0.099668
vt 0.236175 -1.883810
vn -0.459314 0.469946 0.753778
v 0.153168 0.064495 0.101087
vt 0.237154 -1.897805
vn -0.288723 0.464573 0.837144
v 0.174682 0.054794 0.099612
vt 0.224385 -1.927586
vn 0.821238 0.353806 0.447649
v 0.166493 0.074036 0.095750
vt 0.250095 -1.915388
vn 0.883618 0.314704 0.346672
v 0.181708 0.033806 0.100016
vt 0.196379 -1.938182
vn 0.907897 0.094892 0.408312
v 0.173364 -0.000291 0.109590
vt 0.149407 -1.924707
vn 0.244283 -0.000019 0.969704
v 0.179249 -0.000291 0.102061
vt 0.149409 -1.937769
vn 0.906783 -0.000020 0.421598
v 0.181711 -0.000291 0.084023
vt 0.149452 -1.964118
vn 0.986076 -0.000018 0.166295
v 0.185159 0.032997 0.082607
vt 0.199884 -1.963038
vn 0.982648 0.071980 0.170946
v 0.178245 0.053663 0.082314
vt 0.232579 -1.951018
vn 0.918156 0.357778 0.170250
v 0.174006 0.065099 0.078385
vt 0.251697 -1.944977
vn 0.907240 0.376185 0.188149
v 0.135426 -0.000291 0.101474
vt 0.149368 -1.865588
vn -0.981307 -0.000018 0.192450
v 0.132695 0.030426 0.100997
vt 0.192701 -1.866557
vn -0.979765 0.096267 0.175481
v 0.138650 0.054652 0.099866
vt 0.225350 -1.876889
vn -0.953915 0.238694 0.181857
v 0.140760 0.063685 0.096285
vt 0.238583 -1.879346
vn -0.913461 0.307967 0.265979
v 0.144367 0.080898 0.086111
vt 0.267121 -1.884535
vn -0.890503 0.311546 0.331578
v 0.146071 0.079925 0.090288
vt 0.262384 -1.888909
vn -0.598024 0.446163 0.665813
v 0.137748 0.063206 0.082203
vt 0.247448 -1.860964
vn -0.939042 0.270507 0.212193
v 0.142302 0.081048 0.081969
vt 0.270458 -1.878645
vn -0.915613 0.282391 0.286196
v 0.135692 0.053406 0.082896
vt 0.232948 -1.853729
vn -0.964759 0.227472 0.132279
v 0.131640 0.030663 0.086584
vt 0.197427 -1.846617
vn -0.983935 0.125367 0.127102
v 0.133773 -0.000291 0.097289
vt 0.149346 -1.858837
vn -0.989673 -0.000017 0.143343
v 0.166441 0.079603 0.093848
vt 0.257637 -1.912722
vn 0.909307 0.302889 0.285340
v 0.167754 0.079131 0.081447
vt 0.267110 -1.926100
vn 0.902863 0.322394 0.284430
v 0.170295 0.078631 0.077162
vt 0.269469 -1.932837
vn 0.917375 0.292574 0.269859
v 0.151042 0.079801 0.095523
vt 0.257337 -1.897118
vn -0.430101 0.430757 0.793386
v 0.166493 0.074036 0.095750
vt 0.192938 -1.610395
vn 0.883618 0.314704 0.346672
v 0.162924 0.063555 0.101691
vt 0.182899 -1.624892
vn 0.262956 0.046367 0.963693
v 0.166441 0.079603 0.093848
vt 0.194941 -1.601635
vn 0.909307 0.302889 0.285340
v 0.163286 0.079430 0.101257
vt 0.184304 -1.603308
vn 0.479913 0.047300 0.876040
v 0.157004 0.059636 0.103151
vt 0.174185 -1.629906
vn -0.134624 0.057372 0.989234
v 0.155674 0.079623 0.102100
vt 0.174185 -1.602811
vn -0.272828 0.061693 0.960083
v 0.153168 0.064495 0.101087
vt 0.168749 -1.622849
vn -0.692841 0.066667 0.718002
v 0.151042 0.079801 0.095523
vt 0.163530 -1.601037
vn -0.692841 0.066667 0.718002
v 0.151333 0.083765 0.086599
vt 0.269261 -1.896166
vn -0.198636 0.588477 0.783733
v 0.151333 0.083765 0.086599
vt 0.217833 -1.592081
vn 0.143780 0.522993 0.840123
v 0.163063 0.082711 0.084660
vt 0.206779 -1.600254
vn 0.382286 0.505955 0.773218
v 0.154870 0.081443 0.088828
vt 0.211986 -1.589886
vn 0.164456 0.902864 0.397228
v 0.161619 0.081279 0.088101
vt 0.204109 -1.596249
vn 0.168087 0.909315 0.380648
v 0.165588 0.081268 0.093948
vt 0.194352 -1.599227
vn 0.573309 0.782743 0.242136
v 0.163063 0.082711 0.084660
vt 0.269411 -1.916313
vn 0.382286 0.505955 0.773218
v 0.189926 0.032991 0.079867
vt 0.758095 -1.105698
vn 0.386665 0.054591 0.920603
v 0.192971 -0.000291 0.080096
vt 0.799407 -1.102337
vn 0.384093 -0.000020 0.923295
v 0.185159 0.032997 0.082607
vt 0.758020 -1.113140
vn 0.408567 0.064362 0.910456
v 0.181711 -0.000291 0.084023
vt 0.799655 -1.116755
vn 0.384093 -0.000020 0.923295
v 0.183876 0.054590 0.079491
vt 0.730508 -1.116824
vn 0.210259 0.253046 0.944330
v 0.178245 0.053663 0.082314
vt 0.731753 -1.123103
vn 0.438449 0.281790 0.853438
v 0.191985 0.055436 0.079332
vt 0.730282 -1.108669
vn -0.022002 0.203868 0.978751
v 0.179115 0.065510 0.075011
vt 0.715748 -1.121695
vn 0.178759 0.252185 0.951025
v 0.174006 0.065099 0.078385
vt 0.716800 -1.130323
vn 0.454164 0.318882 0.831895
v 0.170295 0.078631 0.077162
vt 0.699744 -1.132565
vn 0.488788 0.156490 0.858252
v 0.174552 0.080398 0.074621
vt 0.698002 -1.125463
vn 0.299668 0.113354 0.947285
v 0.131640 0.030663 0.086584
vt 0.759600 -1.193847
vn -0.813272 0.109465 0.571495
v 0.133773 -0.000291 0.097289
vt 0.802066 -1.191490
vn -0.879031 -0.000021 0.476765
v 0.128248 0.030281 0.082113
vt 0.759016 -1.201438
vn -0.807967 0.111870 0.578511
v 0.127651 -0.000291 0.084282
vt 0.802519 -1.208100
vn -0.879031 -0.000021 0.476765
v 0.135692 0.053406 0.082896
vt 0.729465 -1.185908
vn -0.540640 0.136500 0.830106
v 0.129012 0.053506 0.079112
vt 0.726700 -1.196387
vn -0.545532 0.138660 0.826540
v 0.137748 0.063206 0.082203
vt 0.717051 -1.181377
vn -0.349892 0.074987 0.933784
v 0.129456 0.066845 0.078927
vt 0.709173 -1.191603
vn -0.334808 0.073997 0.939376
v 0.187742 0.068744 0.074619
vt 0.713092 -1.109092
vn -0.011525 0.183876 0.982882
v 0.180477 0.083296 0.074426
vt 0.695150 -1.116784
vn 0.226099 0.094302 0.969529
v 0.142302 0.081048 0.081969
vt 0.694980 -1.171458
vn -0.285620 0.120073 0.950791
v 0.131952 0.081168 0.078982
vt 0.691201 -1.183784
vn -0.290726 0.107378 0.950762
v 0.145980 0.097208 0.080247
vt 0.290412 -1.890272
vn -0.042000 0.441328 0.896362
v 0.137535 0.095969 0.078098
vt 0.672980 -1.171899
vn -0.271138 0.188103 0.943982
v 0.145980 0.097208 0.080247
vt 0.673671 -1.160609
vn -0.201944 0.271395 0.941044
v 0.143061 0.108627 0.075236
vt 0.657048 -1.160761
vn -0.115441 0.358374 0.926413
v 0.165450 0.107060 0.074224
vt 0.662536 -1.130810
vn 0.359775 0.206889 0.909813
v 0.162892 0.095319 0.079478
vt 0.677942 -1.138777
vn 0.317553 0.185974 0.929825
v 0.162892 0.095319 0.079478
vt 0.287634 -1.914451
vn 0.252949 0.358673 0.898538
v 0.151333 0.083765 0.086599
vt 0.269261 -1.896166
vn 0.143780 0.522993 0.840123
v 0.154681 0.099077 0.080097
vt 0.292268 -1.902505
vn 0.147270 0.388655 0.909538
v 0.147005 0.113425 0.074009
vt 0.651060 -1.154075
vn -0.091524 0.355610 0.930142
v 0.154681 0.099077 0.080097
vt 0.672329 -1.148799
vn 0.059890 0.341095 0.938119
v 0.154210 0.115573 0.073933
vt 0.647437 -1.143233
vn 0.076562 0.333789 0.939533
v 0.159825 0.114329 0.073909
vt 0.651670 -1.136520
vn 0.180074 0.323792 0.928834
v 0.155609 0.091460 0.089782
vt 0.165207 -1.577134
vn 0.027274 0.999573 0.010527
v 0.156554 0.091330 0.100207
vt 0.175635 -1.586832
vn 0.027371 0.999570 0.010528
v 0.153118 0.091460 0.095367
vt 0.167762 -1.585163
vn 0.023193 0.999677 0.010422
v 0.168988 0.109519 0.005851
vt 0.635373 -1.039767
vn 0.823276 0.567506 -0.012354
v 0.154560 0.118458 0.005851
vt 0.613650 -1.046585
vn 0.603128 0.797003 -0.031970
v 0.163286 0.079430 0.101257
vt 0.184304 -1.603308
vn 0.530274 0.470091 0.705566
v 0.155674 0.079623 0.102100
vt 0.174185 -1.602811
vn -0.348637 0.486094 0.801352
v 0.162796 0.081107 0.100506
vt 0.184201 -1.600830
vn 0.542870 0.469552 0.696285
v 0.156042 0.081280 0.101254
vt 0.174455 -1.600383
vn -0.365245 0.485997 0.793979
v 0.151042 0.079801 0.095523
vt 0.163530 -1.601037
vn -0.430101 0.430757 0.793386
v 0.151940 0.081438 0.095435
vt 0.164676 -1.598635
vn -0.406436 0.762422 0.503510
v 0.164618 0.091359 0.094100
vt 0.190610 -1.586223
vn 0.990658 0.096906 -0.095949
v 0.161277 0.091314 0.089172
vt 0.197530 -1.584122
vn 0.431820 0.110225 -0.895199
v 0.165588 0.081268 0.093948
vt 0.194352 -1.599227
vn 0.991128 0.096824 -0.091049
v 0.161619 0.081279 0.088101
vt 0.204109 -1.596249
vn 0.431151 0.110243 -0.895520
v 0.154870 0.081443 0.088828
vt 0.211986 -1.589886
vn -0.596318 0.119162 -0.793855
v 0.155609 0.091460 0.089782
vt 0.202429 -1.579997
vn -0.601627 0.119173 -0.789837
v 0.153118 0.091460 0.095367
vt 0.207177 -1.574066
vn -0.988859 0.117890 0.090880
v 0.151940 0.081438 0.095435
vt 0.217511 -1.581627
vn -0.988386 0.117896 0.095883
v 0.156042 0.081280 0.101254
vt 0.174455 -1.600383
vn -0.407506 0.114553 0.905989
v 0.151940 0.081438 0.095435
vt 0.164676 -1.598635
vn -0.988386 0.117896 0.095883
v 0.156554 0.091330 0.100207
vt 0.175635 -1.586832
vn -0.421703 0.114556 0.899468
v 0.153118 0.091460 0.095367
vt 0.167762 -1.585163
vn -0.988859 0.117890 0.090880
v 0.162796 0.081107 0.100506
vt 0.184201 -1.600830
vn 0.599560 0.103768 0.793574
v 0.162288 0.091172 0.099572
vt 0.183218 -1.587354
vn 0.607211 0.103561 0.787762
v 0.161277 0.091314 0.089172
vt 0.170452 -1.571308
vn 0.022884 0.999677 0.011024
v 0.162288 0.091172 0.099572
vt 0.180924 -1.580977
vn 0.022981 0.999675 0.011025
v 0.164618 0.091359 0.094100
vt 0.178343 -1.573279
vn -0.039128 0.999081 0.017478
v 0.145980 0.097208 0.080247
vt 0.290412 -1.890272
vn -0.042001 0.441379 0.896337
v 0.191689 -0.070545 0.005420
vt 0.900266 -1.015739
vn 0.988241 -0.152528 0.010700
v 0.191985 -0.056017 0.079332
vt 0.868481 -1.105652
vn 0.999679 -0.014006 0.021111
v 0.189926 -0.033572 0.079867
vt 0.840726 -1.103868
vn 0.999884 -0.006304 0.013900
v 0.184667 -0.086243 0.059952
vt 0.909357 -1.092503
vn 0.894411 -0.445936 0.034209
v 0.180477 -0.083878 0.074426
vt 0.903478 -1.111486
vn 0.811957 -0.497503 0.305313
v 0.187742 -0.069326 0.074619
vt 0.885580 -1.105269
vn 0.923046 -0.383414 0.031293
v 0.128724 -0.063016 0.059952
vt 0.904153 -1.210335
vn -0.989848 -0.138013 0.033949
v 0.129456 -0.067426 0.078927
vt 0.895335 -1.186602
vn -0.990467 -0.130912 0.042868
v 0.130691 -0.081875 0.059952
vt 0.929216 -1.196224
vn -0.968921 -0.242312 0.049779
v 0.131952 -0.081749 0.078982
vt 0.912839 -1.177481
vn -0.969023 -0.241905 0.049766
v 0.137535 -0.096551 0.078098
vt 0.929878 -1.164194
vn -0.929116 -0.361210 0.079180
v 0.143061 -0.109209 0.075236
vt 0.943770 -1.150550
vn -0.890957 -0.438824 0.116742
v 0.136506 -0.097009 0.059952
vt 0.948659 -1.177529
vn -0.928781 -0.361698 0.080877
v 0.141345 -0.111212 0.059952
vt 0.962523 -1.153897
vn -0.878604 -0.461908 0.121226
v 0.129012 -0.054087 0.079112
vt 0.877976 -1.192430
vn -0.991589 -0.033430 0.125034
v 0.127926 -0.059978 0.071513
vt 0.890622 -1.199343
vn -0.992082 -0.085108 0.092354
v 0.128248 -0.030862 0.082113
vt 0.845660 -1.199188
vn -0.994802 -0.027402 0.098070
v 0.127301 -0.030839 0.071513
vt 0.849042 -1.212898
vn -0.994688 -0.027602 0.099166
v 0.145763 -0.115802 0.059952
vt 0.965218 -1.141184
vn -0.510203 -0.843417 0.168349
v 0.147005 -0.114006 0.074009
vt 0.948061 -1.143195
vn -0.521990 -0.836195 0.168236
v 0.168988 -0.110100 0.059952
vt 0.942712 -1.107497
vn 0.757800 -0.648806 0.069202
v 0.165450 -0.107642 0.074224
vt 0.934514 -1.124537
vn 0.784431 -0.546849 0.292616
v 0.154560 -0.119039 0.059952
vt 0.963335 -1.121265
vn 0.015071 -0.994753 0.101193
v 0.154210 -0.116154 0.073933
vt 0.948021 -1.133789
vn -0.113917 -0.974196 0.194847
v 0.161570 -0.118083 0.059952
vt 0.955402 -1.115330
vn 0.541302 -0.840439 0.025576
v 0.159825 -0.114910 0.073909
vt 0.944285 -1.128650
vn 0.546901 -0.795734 0.260206
v 0.162924 -0.064136 0.101691
vt 0.063966 -1.910681
vn 0.352011 -0.477055 0.805299
v 0.157004 -0.060217 0.103151
vt 0.068977 -1.902981
vn -0.011810 -0.558013 0.829748
v 0.164900 -0.051659 0.109540
vt 0.082609 -1.911901
vn 0.243961 -0.184799 0.952015
v 0.148263 -0.051818 0.109446
vt 0.082234 -1.892585
vn -0.198716 -0.158541 0.967149
v 0.170106 -0.033020 0.109570
vt 0.106590 -1.919137
vn 0.254166 -0.041337 0.966277
v 0.141626 -0.029993 0.109410
vt 0.109735 -1.882658
vn -0.199039 -0.019511 0.979797
v 0.133629 -0.030818 0.103386
vt 0.106966 -1.870077
vn -0.690425 -0.063846 0.720581
v 0.140017 -0.055258 0.102859
vt 0.074988 -1.881106
vn -0.566127 -0.320247 0.759567
v 0.153168 -0.065076 0.101087
vt 0.062245 -1.898014
vn -0.288728 -0.464630 0.837111
v 0.142466 -0.064144 0.099668
vt 0.062763 -1.884110
vn -0.459321 -0.470004 0.753738
v 0.166493 -0.074617 0.095750
vt 0.048496 -1.914987
vn 0.883597 -0.314855 0.346588
v 0.174682 -0.055375 0.099612
vt 0.074235 -1.927570
vn 0.821212 -0.353915 0.447612
v 0.181708 -0.034388 0.100016
vt 0.102338 -1.938298
vn 0.907909 -0.094936 0.408274
v 0.185159 -0.033579 0.082607
vt 0.098827 -1.963270
vn 0.982651 -0.072018 0.170910
v 0.178245 -0.054244 0.082314
vt 0.065806 -1.951125
vn 0.918148 -0.357819 0.170204
v 0.174006 -0.065680 0.078385
vt 0.046485 -1.944868
vn 0.907233 -0.376227 0.188102
v 0.132695 -0.031007 0.100997
vt 0.106110 -1.866825
vn -0.979760 -0.096427 0.175418
v 0.138650 -0.055233 0.099866
vt 0.073620 -1.877209
vn -0.953912 -0.238735 0.181814
v 0.140760 -0.064267 0.096285
vt 0.060425 -1.879677
vn -0.913459 -0.308012 0.265933
v 0.146071 -0.080506 0.090288
vt 0.037159 -1.888911
vn -0.598030 -0.446220 0.665768
v 0.144367 -0.081479 0.086111
vt 0.032548 -1.884491
vn -0.890504 -0.311593 0.331531
v 0.142302 -0.081630 0.081969
vt 0.029459 -1.878635
vn -0.915613 -0.282436 0.286150
v 0.137748 -0.063787 0.082203
vt 0.051634 -1.861582
vn -0.939040 -0.270550 0.212149
v 0.135692 -0.053987 0.082896
vt 0.065905 -1.854269
vn -0.964755 -0.227511 0.132238
v 0.131640 -0.031244 0.086584
vt 0.101251 -1.846989
vn -0.983935 -0.125404 0.127065
v 0.170295 -0.079212 0.077162
vt 0.028670 -1.932482
vn 0.917374 -0.292619 0.269813
v 0.167754 -0.079713 0.081447
vt 0.031183 -1.925723
vn 0.902862 -0.322439 0.284383
v 0.166441 -0.080184 0.093848
vt 0.040486 -1.912318
vn 0.909306 -0.302935 0.285294
v 0.151042 -0.080382 0.095523
vt 0.041544 -1.897257
vn -0.430109 -0.430816 0.793350
v 0.163286 -0.080011 0.101257
vt 0.205825 -1.653598
vn 0.479930 -0.047344 0.876028
v 0.162924 -0.064136 0.101691
vt 0.204428 -1.632193
vn 0.262965 -0.046408 0.963688
v 0.166441 -0.080184 0.093848
vt 0.216439 -1.654343
vn 0.909306 -0.302935 0.285294
v 0.166493 -0.074617 0.095750
vt 0.214394 -1.646359
vn 0.883597 -0.314855 0.346588
v 0.155674 -0.080204 0.102100
vt 0.195758 -1.654521
vn -0.272837 -0.061735 0.960077
v 0.157004 -0.060217 0.103151
vt 0.195758 -1.627190
vn -0.134629 -0.057410 0.989232
v 0.151042 -0.080382 0.095523
vt 0.185362 -1.656845
vn -0.692862 -0.066714 0.717978
v 0.153168 -0.065076 0.101087
vt 0.190308 -1.634396
vn -0.692862 -0.066714 0.717978
v 0.151333 -0.084346 0.086599
vt 0.029455 -1.895838
vn 0.143782 -0.523046 0.840089
v 0.161619 -0.081860 0.088101
vt 0.168976 -1.671318
vn 0.168083 -0.909338 0.380595
v 0.163063 -0.083292 0.084660
vt 0.165528 -1.668171
vn 0.382292 -0.506012 0.773178
v 0.154870 -0.082024 0.088828
vt 0.176275 -1.664386
vn 0.164452 -0.902889 0.397175
v 0.151333 -0.084346 0.086599
vt 0.174428 -1.658802
vn 0.143782 -0.523046 0.840089
v 0.166441 -0.080184 0.093848
vt 0.162521 -1.679285
vn 0.909306 -0.302935 0.285294
v 0.165588 -0.081849 0.093948
vt 0.164571 -1.679801
vn 0.573294 -0.782771 0.242081
v 0.151333 -0.084346 0.086599
vt 0.029455 -1.895838
vn -0.198745 -0.588564 0.783641
v 0.163063 -0.083292 0.084660
vt 0.029161 -1.915905
vn 0.382292 -0.506012 0.773178
v 0.185159 -0.033579 0.082607
vt 0.841092 -1.111334
vn 0.408581 -0.064406 0.910447
v 0.189926 -0.033572 0.079867
vt 0.840726 -1.103868
vn 0.386679 -0.054634 0.920595
v 0.178245 -0.054244 0.082314
vt 0.867712 -1.120186
vn 0.438461 -0.281846 0.853414
v 0.183876 -0.055171 0.079491
vt 0.868634 -1.113832
vn 0.210265 -0.253096 0.944315
v 0.191985 -0.056017 0.079332
vt 0.868481 -1.105652
vn -0.022003 -0.203910 0.978742
v 0.174006 -0.065680 0.078385
vt 0.882956 -1.126773
vn 0.454175 -0.318939 0.831867
v 0.179115 -0.066091 0.075011
vt 0.883497 -1.118012
vn 0.178764 -0.252235 0.951011
v 0.174552 -0.080980 0.074621
vt 0.901012 -1.119906
vn 0.299679 -0.113399 0.947277
v 0.170295 -0.079212 0.077162
vt 0.899739 -1.126730
vn 0.488772 -0.156439 0.858271
v 0.128248 -0.030862 0.082113
vt 0.845660 -1.199188
vn -0.807984 -0.111918 0.578477
v 0.131640 -0.031244 0.086584
vt 0.844635 -1.191634
vn -0.813286 -0.109610 0.571446
v 0.129012 -0.054087 0.079112
vt 0.877976 -1.192430
vn -0.545550 -0.138710 0.826520
v 0.135692 -0.053987 0.082896
vt 0.874268 -1.182113
vn -0.540657 -0.136550 0.830087
v 0.129456 -0.067426 0.078927
vt 0.895335 -1.186602
vn -0.334820 -0.074041 0.939369
v 0.137748 -0.063787 0.082203
vt 0.886336 -1.176928
vn -0.349904 -0.075031 0.933776
v 0.180477 -0.083878 0.074426
vt 0.903478 -1.111486
vn 0.226107 -0.094344 0.969523
v 0.187742 -0.069326 0.074619
vt 0.885580 -1.105269
vn -0.011525 -0.183917 0.982874
v 0.131952 -0.081749 0.078982
vt 0.912839 -1.177481
vn -0.290736 -0.107423 0.950754
v 0.142302 -0.081630 0.081969
vt 0.907607 -1.165846
vn -0.285709 -0.120034 0.950769
v 0.145980 -0.097789 0.080247
vt 0.008970 -1.889104
vn -0.042000 -0.441328 0.896362
v 0.145980 -0.097789 0.080247
vt 0.926843 -1.154118
vn -0.201950 -0.271446 0.941028
v 0.137535 -0.096551 0.078098
vt 0.929878 -1.164194
vn -0.271146 -0.188152 0.943970
v 0.143061 -0.109209 0.075236
vt 0.943770 -1.150550
vn -0.115444 -0.358425 0.926393
v 0.162892 -0.095900 0.079478
vt 0.920716 -1.132886
vn 0.317563 -0.186023 0.929811
v 0.165450 -0.107642 0.074224
vt 0.934514 -1.124537
vn 0.359786 -0.206941 0.909796
v 0.162892 -0.095900 0.079478
vt 0.010689 -1.913564
vn 0.252955 -0.358728 0.898514
v 0.154681 -0.099658 0.080097
vt 0.006444 -1.901337
vn 0.147274 -0.388708 0.909514
v 0.154681 -0.099658 0.080097
vt 0.926955 -1.142213
vn 0.059892 -0.341144 0.938101
v 0.147005 -0.114006 0.074009
vt 0.948061 -1.143195
vn -0.091526 -0.355661 0.930123
v 0.154210 -0.116154 0.073933
vt 0.948021 -1.133789
vn 0.076564 -0.333839 0.939516
v 0.159825 -0.114910 0.073909
vt 0.944285 -1.128650
vn 0.180079 -0.323844 0.928815
v 0.153118 -0.092042 0.095367
vt 0.191858 -1.685578
vn 0.023193 -0.999677 0.010390
v 0.156554 -0.091912 0.100207
vt 0.188735 -1.693000
vn 0.027469 -0.999567 0.010528
v 0.155609 -0.092042 0.089782
vt 0.186868 -1.678984
vn 0.027370 -0.999570 0.010495
v 0.154560 -0.119039 0.005851
vt 0.985569 -1.044641
vn 0.603100 -0.797023 -0.032015
v 0.168988 -0.110100 0.005851
vt 0.963752 -1.036890
vn 0.823262 -0.567526 -0.012397
v 0.156042 -0.081861 0.101254
vt 0.196022 -1.656959
vn -0.365251 -0.486055 0.793941
v 0.155674 -0.080204 0.102100
vt 0.195758 -1.654521
vn -0.348642 -0.486151 0.801315
v 0.162796 -0.081688 0.100506
vt 0.205775 -1.656063
vn 0.542877 -0.469610 0.696241
v 0.163286 -0.080011 0.101257
vt 0.205825 -1.653598
vn 0.530281 -0.470149 0.705523
v 0.151940 -0.082019 0.095435
vt 0.185671 -1.659295
vn -0.406431 -0.762463 0.503452
v 0.151042 -0.080382 0.095523
vt 0.185362 -1.656845
vn -0.430109 -0.430816 0.793350
v 0.165588 -0.081849 0.093948
vt 0.215645 -1.656819
vn 0.573294 -0.782771 0.242081
v 0.161619 -0.081860 0.088101
vt 0.168976 -1.671318
vn 0.431098 -0.110241 -0.895545
v 0.161277 -0.091896 0.089172
vt 0.179228 -1.679909
vn 0.431768 -0.110223 -0.895225
v 0.165588 -0.081849 0.093948
vt 0.164571 -1.679801
vn 0.991113 -0.096837 -0.091205
v 0.164618 -0.091940 0.094100
vt 0.175975 -1.686813
vn 0.990654 -0.096909 -0.095988
v 0.155609 -0.092042 0.089782
vt 0.184429 -1.675542
vn -0.601562 -0.119270 -0.789872
v 0.154870 -0.082024 0.088828
vt 0.176275 -1.664386
vn -0.596266 -0.119161 -0.793893
v 0.151940 -0.082019 0.095435
vt 0.185671 -1.659295
vn -0.988385 -0.117933 0.095847
v 0.153118 -0.092042 0.095367
vt 0.191172 -1.672159
vn -0.988858 -0.117926 0.090843
v 0.156554 -0.091912 0.100207
vt 0.198450 -1.670389
vn -0.421718 -0.114604 0.899455
v 0.156042 -0.081861 0.101254
vt 0.196022 -1.656959
vn -0.407625 -0.114606 0.905929
v 0.164618 -0.091940 0.094100
vt 0.214183 -1.670484
vn 0.990654 -0.096909 -0.095988
v 0.162288 -0.091753 0.099572
vt 0.206150 -1.669779
vn 0.607230 -0.103610 0.787741
v 0.165588 -0.081849 0.093948
vt 0.215645 -1.656819
vn 0.991113 -0.096837 -0.091205
v 0.162796 -0.081688 0.100506
vt 0.205775 -1.656063
vn 0.599592 -0.103720 0.793556
v 0.162288 -0.091753 0.099572
vt 0.180809 -1.693729
vn 0.022981 -0.999675 0.010993
v 0.161277 -0.091896 0.089172
vt 0.179228 -1.679909
vn 0.022884 -0.999678 0.010992
v 0.164618 -0.091940 0.094100
vt 0.175975 -1.686813
vn -0.039127 -0.999082 0.017445
v 0.151042 0.079801 0.095523
vt 0.219971 -1.581033
vn -0.430101 0.430757 0.793386
v 0.151333 0.083765 0.086599
vt 0.217833 -1.592081
vn -0.198636 0.588477 0.783733
v 0.151940 0.081438 0.095435
vt 0.217511 -1.581627
vn -0.406436 0.762422 0.503510
v 0.177798 0.072487 0.075695
vt 0.910327 -1.233457
vn 0.164456 0.902864 0.397228
v 0.184741 0.072487 0.075095
vt 0.966261 -1.233463
vn -0.406436 0.762422 0.503510
v 0.181269 0.066474 0.077632
vt 0.938289 -1.281901
vn 0.153960 0.257155 0.954027
v 0.188213 0.066474 0.076002
vt 0.994223 -1.281907
vn 0.222190 0.234694 0.946335
v 0.184741 0.060461 0.078062
vt 0.966250 -1.330344
vn 0.192383 0.180101 0.964651
v 0.177798 0.060461 0.079210
vt 0.910316 -1.330338
vn 0.140286 0.174762 0.974565
v 0.174326 0.066474 0.078485
vt 0.882354 -1.281895
vn 0.117189 0.277267 0.953619
v 0.151166 0.112357 0.075338
vt 0.910327 -1.233457
vn -0.051617 0.390484 0.919161
v 0.158109 0.112357 0.075380
vt 0.966260 -1.233463
vn 0.085199 0.367793 0.925996
v 0.154637 0.106343 0.078087
vt 0.938288 -1.281901
vn 0.030598 0.349679 0.936370
v 0.161581 0.106343 0.076720
vt 0.994222 -1.281906
vn 0.182080 0.335188 0.924390
v 0.158109 0.100330 0.079757
vt 0.966250 -1.330344
vn 0.102759 0.320858 0.941536
v 0.151166 0.100330 0.079945
vt 0.910316 -1.330338
vn -0.037819 0.314798 0.948405
v 0.147694 0.106343 0.077316
vt 0.882354 -1.281895
vn -0.103114 0.355975 0.928789
v 0.181269 -0.067055 0.077632
vt 0.938288 -1.281901
vn 0.153964 -0.257205 0.954013
v 0.184741 -0.073068 0.075095
vt 0.966250 -1.330344
vn 0.150178 -0.309426 0.938990
v 0.177798 -0.073068 0.075695
vt 0.910316 -1.330338
vn 0.096391 -0.355148 0.929827
v 0.188213 -0.067055 0.076002
vt 0.994223 -1.281907
vn 0.222196 -0.234744 0.946321
v 0.184741 -0.061042 0.078062
vt 0.966260 -1.233463
vn 0.192689 -0.180321 0.964549
v 0.177798 -0.061042 0.079210
vt 0.910327 -1.233457
vn 0.140291 -0.174807 0.974557
v 0.174326 -0.067055 0.078485
vt 0.882354 -1.281895
vn 0.117199 -0.277414 0.953575
v 0.154637 -0.106925 0.078087
vt 0.938288 -1.281901
vn 0.030472 -0.349496 0.936442
v 0.158109 -0.112938 0.075380
vt 0.966250 -1.330344
vn 0.085197 -0.367743 0.926017
v 0.151166 -0.112938 0.075338
vt 0.910316 -1.330338
vn -0.051702 -0.390412 0.919187
v 0.161581 -0.106925 0.076720
vt 0.994224 -1.281906
vn 0.182084 -0.335240 0.924370
v 0.158109 -0.100912 0.079757
vt 0.966261 -1.233463
vn 0.102668 -0.320836 0.941554
v 0.151166 -0.100912 0.079945
vt 0.910327 -1.233457
vn -0.037821 -0.314941 0.948357
v 0.147694 -0.106925 0.077316
vt 0.882354 -1.281895
vn -0.103117 -0.356026 0.928769
usemtl Brakes
f 3/3/3 2/2/2 1/1/1
f 4/4/4 2/2/2 3/3/3
f 7/7/7 6/6/6 5/5/5
f 8/8/8 6/6/6 7/7/7
f 11/11/11 10/10/10 9/9/9
f 12/12/12 10/10/10 11/11/11
f 15/15/15 14/14/14 13/13/13
f 16/16/16 14/14/14 15/15/15
f 19/19/19 18/18/18 17/17/17
f 20/20/20 18/18/18 19/19/19
f 23/23/23 22/22/22 21/21/21
f 24/24/24 22/22/22 23/23/23
f 12/12/12 25/25/25 10/10/10
f 26/26/26 25/25/25 12/12/12
f 29/29/29 28/28/28 27/27/27
f 30/30/30 28/28/28 29/29/29
f 33/33/33 32/32/32 31/31/31
f 34/34/34 32/32/32 33/33/33
f 26/26/26 13/13/13 25/25/25
f 15/15/15 13/13/13 26/26/26
f 37/37/37 36/36/36 35/35/35
f 38/38/38 36/36/36 37/37/37
f 41/41/41 40/40/40 39/39/39
f 42/42/42 40/40/40 41/41/41
f 45/45/45 44/44/44 43/43/43
f 46/46/46 40/40/40 42/42/42
f 47/47/47 40/40/40 46/46/46
f 38/38/38 48/48/48 36/36/36
f 49/49/49 48/48/48 38/38/38
f 52/52/52 51/51/51 50/50/50
f 53/53/53 51/51/51 52/52/52
f 50/50/50 49/49/49 52/52/52
f 48/48/48 49/49/49 50/50/50
f 56/56/56 55/55/55 54/54/54
f 57/57/57 55/55/55 56/56/56
f 59/59/59 54/54/54 58/58/58
f 56/56/56 54/54/54 59/59/59
f 62/62/62 61/61/61 60/60/60
f 63/63/63 61/61/61 62/62/62
f 66/66/66 65/65/65 64/64/64
f 67/67/67 65/65/65 66/66/66
f 45/45/45 68/68/68 44/44/44
f 69/69/69 68/68/68 45/45/45
f 72/72/72 71/71/71 70/70/70
f 73/73/73 71/71/71 72/72/72
f 55/55/55 75/75/75 74/74/74
f 57/57/57 75/75/75 55/55/55
f 39/39/39 76/76/76 41/41/41
f 66/66/66 77/77/77 67/67/67
f 78/78/78 77/77/77 66/66/66
f 35/35/35 44/44/44 37/37/37
f 43/43/43 44/44/44 35/35/35
f 59/59/59 64/64/64 65/65/65
f 58/58/58 64/64/64 59/59/59
f 81/81/81 80/80/80 79/79/79
f 82/82/82 80/80/80 81/81/81
f 85/85/85 84/84/84 83/83/83
f 87/87/87 79/79/79 86/86/86
f 81/81/81 79/79/79 87/87/87
f 53/53/53 88/88/88 51/51/51
f 89/89/89 88/88/88 53/53/53
f 89/89/89 86/86/86 88/88/88
f 87/87/87 86/86/86 89/89/89
f 92/92/92 91/91/91 90/90/90
f 93/93/93 91/91/91 92/92/92
f 93/93/93 94/94/94 91/91/91
f 95/95/95 94/94/94 93/93/93
f 98/98/98 97/97/97 96/96/96
f 99/99/99 97/97/97 98/98/98
f 102/102/102 101/101/101 100/100/100
f 103/103/103 101/101/101 102/102/102
f 83/83/83 105/105/105 104/104/104
f 84/84/84 105/105/105 83/83/83
f 107/107/107 105/105/105 106/106/106
f 104/104/104 105/105/105 107/107/107
f 90/90/90 108/108/108 92/92/92
f 109/109/109 108/108/108 90/90/90
f 46/46/46 110/110/110 47/47/47
f 78/78/78 100/100/100 77/77/77
f 102/102/102 100/100/100 78/78/78
f 84/84/84 80/80/80 82/82/82
f 85/85/85 80/80/80 84/84/84
f 101/101/101 94/94/94 95/95/95
f 103/103/103 94/94/94 101/101/101
f 113/113/113 112/112/112 111/111/111
f 114/114/114 112/112/112 113/113/113
f 115/115/115 2/2/2 4/4/4
f 111/111/111 2/2/2 115/115/115
f 112/112/112 2/2/2 111/111/111
f 116/116/116 54/54/54 55/55/55
f 117/117/117 54/54/54 116/116/116
f 118/118/118 10/10/10 25/25/25
f 119/119/119 10/10/10 118/118/118
f 10/10/10 120/120/120 9/9/9
f 119/119/119 120/120/120 10/10/10
f 123/123/123 122/122/122 121/121/121
f 124/124/124 122/122/122 123/123/123
f 126/126/126 28/28/28 125/125/125
f 27/27/27 28/28/28 126/126/126
f 58/58/58 127/127/127 64/64/64
f 128/128/128 127/127/127 58/58/58
f 117/117/117 58/58/58 54/54/54
f 128/128/128 58/58/58 117/117/117
f 130/130/130 113/113/113 129/129/129
f 114/114/114 113/113/113 130/130/130
f 133/133/133 132/132/132 131/131/131
f 134/134/134 132/132/132 133/133/133
f 136/136/136 133/133/133 135/135/135
f 134/134/134 133/133/133 136/136/136
f 135/135/135 137/137/137 136/136/136
f 138/138/138 137/137/137 135/135/135
f 138/138/138 125/125/125 137/137/137
f 126/126/126 125/125/125 138/138/138
f 141/141/141 140/140/140 139/139/139
f 142/142/142 140/140/140 141/141/141
f 17/17/17 144/144/144 143/143/143
f 18/18/18 144/144/144 17/17/17
f 147/147/147 146/146/146 145/145/145
f 148/148/148 146/146/146 147/147/147
f 149/149/149 130/130/130 129/129/129
f 150/150/150 130/130/130 149/149/149
f 55/55/55 74/74/74 116/116/116
f 121/121/121 152/152/152 151/151/151
f 122/122/122 152/152/152 121/121/121
f 149/149/149 153/153/153 150/150/150
f 147/147/147 154/154/154 148/148/148
f 155/155/155 154/154/154 147/147/147
f 158/158/158 157/157/157 156/156/156
f 159/159/159 157/157/157 158/158/158
f 154/154/154 140/140/140 142/142/142
f 155/155/155 140/140/140 154/154/154
f 162/162/162 161/161/161 160/160/160
f 163/163/163 161/161/161 162/162/162
f 164/164/164 162/162/162 160/160/160
f 6/6/6 162/162/162 164/164/164
f 8/8/8 162/162/162 6/6/6
f 165/165/165 90/90/90 91/91/91
f 166/166/166 90/90/90 165/165/165
f 13/13/13 118/118/118 25/25/25
f 167/167/167 118/118/118 13/13/13
f 168/168/168 13/13/13 14/14/14
f 167/167/167 13/13/13 168/168/168
f 169/169/169 124/124/124 123/123/123
f 170/170/170 124/124/124 169/169/169
f 171/171/171 31/31/31 32/32/32
f 172/172/172 31/31/31 171/171/171
f 173/173/173 94/94/94 103/103/103
f 174/174/174 94/94/94 173/173/173
f 174/174/174 91/91/91 94/94/94
f 165/165/165 91/91/91 174/174/174
f 163/163/163 175/175/175 161/161/161
f 176/176/176 175/175/175 163/163/163
f 179/179/179 178/178/178 177/177/177
f 180/180/180 178/178/178 179/179/179
f 182/182/182 180/180/180 181/181/181
f 178/178/178 180/180/180 182/182/182
f 182/182/182 184/184/184 183/183/183
f 181/181/181 184/184/184 182/182/182
f 183/183/183 172/172/172 171/171/171
f 184/184/184 172/172/172 183/183/183
f 186/186/186 22/22/22 185/185/185
f 21/21/21 22/22/22 186/186/186
f 175/175/175 188/188/188 187/187/187
f 176/176/176 188/188/188 175/175/175
f 166/166/166 109/109/109 90/90/90
f 170/170/170 190/190/190 189/189/189
f 169/169/169 190/190/190 170/170/170
f 187/187/187 188/188/188 191/191/191
f 159/159/159 139/139/139 157/157/157
f 141/141/141 139/139/139 159/159/159
f 194/194/194 193/193/193 192/192/192
f 195/195/195 193/193/193 194/194/194
f 198/198/198 197/197/197 196/196/196
f 201/201/201 200/200/200 199/199/199
f 202/202/202 200/200/200 201/201/201
f 205/205/205 204/204/204 203/203/203
f 206/206/206 204/204/204 205/205/205
f 194/194/194 192/192/192 207/207/207
f 210/210/210 209/209/209 208/208/208
f 211/211/211 209/209/209 210/210/210
f 213/213/213 204/204/204 212/212/212
f 203/203/203 204/204/204 213/213/213
f 197/197/197 215/215/215 214/214/214
f 198/198/198 215/215/215 197/197/197
f 217/217/217 212/212/212 216/216/216
f 213/213/213 212/212/212 217/217/217
f 219/219/219 208/208/208 218/218/218
f 210/210/210 208/208/208 219/219/219
f 195/195/195 196/196/196 193/193/193
f 221/221/221 216/216/216 220/220/220
f 222/222/222 216/216/216 221/221/221
f 215/215/215 220/220/220 214/214/214
f 221/221/221 220/220/220 215/215/215
f 199/199/199 205/205/205 201/201/201
f 206/206/206 205/205/205 199/199/199
f 209/209/209 200/200/200 202/202/202
f 209/209/209 211/211/211 200/200/200
f 225/225/225 224/224/224 223/223/223
f 226/226/226 224/224/224 225/225/225
f 227/227/227 225/225/225 223/223/223
f 228/228/228 225/225/225 227/227/227
f 230/230/230 229/229/229 227/227/227
f 231/231/231 229/229/229 230/230/230
f 232/232/232 227/227/227 223/223/223
f 230/230/230 227/227/227 232/232/232
f 223/223/223 233/233/233 232/232/232
f 234/234/234 233/233/233 223/223/223
f 235/235/235 226/226/226 225/225/225
f 236/236/236 226/226/226 235/235/235
f 237/237/237 225/225/225 228/228/228
f 235/235/235 225/225/225 237/237/237
f 239/239/239 228/228/228 238/238/238
f 237/237/237 228/228/228 239/239/239
f 229/229/229 228/228/228 227/227/227
f 238/238/238 228/228/228 229/229/229
f 240/240/240 237/237/237 239/239/239
f 241/241/241 237/237/237 240/240/240
f 241/241/241 235/235/235 237/237/237
f 242/242/242 235/235/235 241/241/241
f 242/242/242 236/236/236 235/235/235
f 243/243/243 236/236/236 242/242/242
f 230/230/230 244/244/244 231/231/231
f 245/245/245 244/244/244 230/230/230
f 232/232/232 245/245/245 230/230/230
f 246/246/246 245/245/245 232/232/232
f 232/232/232 247/247/247 246/246/246
f 233/233/233 247/247/247 232/232/232
f 233/233/233 248/248/248 247/247/247
f 249/249/249 248/248/248 233/233/233
f 247/247/247 251/251/251 250/250/250
f 248/248/248 251/251/251 247/247/247
f 246/246/246 250/250/250 252/252/252
f 247/247/247 250/250/250 246/246/246
f 252/252/252 245/245/245 246/246/246
f 253/253/253 245/245/245 252/252/252
f 253/253/253 244/244/244 245/245/245
f 254/254/254 244/244/244 253/253/253
f 236/236/236 256/256/256 255/255/255
f 243/243/243 256/256/256 236/236/236
f 257/257/257 256/256/256 243/243/243
f 234/234/234 249/249/249 233/233/233
f 258/258/258 249/249/249 234/234/234
f 261/261/261 260/260/260 259/259/259
f 262/262/262 260/260/260 261/261/261
f 262/262/262 263/263/263 260/260/260
f 264/264/264 263/263/263 262/262/262
f 264/264/264 265/265/265 263/263/263
f 266/266/266 265/265/265 264/264/264
f 267/267/267 249/249/249 258/258/258
f 270/270/270 269/269/269 268/268/268
f 271/271/271 269/269/269 270/270/270
f 272/272/272 269/269/269 271/271/271
f 261/261/261 269/269/269 272/272/272
f 267/267/267 248/248/248 249/249/249
f 273/273/273 255/255/255 256/256/256
f 276/276/276 275/275/275 274/274/274
f 277/277/277 275/275/275 276/276/276
f 278/278/278 276/276/276 274/274/274
f 279/279/279 276/276/276 278/278/278
f 278/278/278 274/274/274 280/280/280
f 281/281/281 279/279/279 278/278/278
f 282/282/282 279/279/279 281/281/281
f 281/281/281 283/283/283 282/282/282
f 284/284/284 283/283/283 281/281/281
f 287/287/287 286/286/286 285/285/285
f 288/288/288 286/286/286 287/287/287
f 290/290/290 285/285/285 289/289/289
f 287/287/287 285/285/285 290/290/290
f 292/292/292 289/289/289 291/291/291
f 290/290/290 289/289/289 292/292/292
f 293/293/293 284/284/284 281/281/281
f 294/294/294 284/284/284 293/293/293
f 281/281/281 280/280/280 293/293/293
f 278/278/278 280/280/280 281/281/281
f 295/295/295 292/292/292 291/291/291
f 296/296/296 292/292/292 295/295/295
f 297/297/297 248/248/248 267/267/267
f 297/297/297 251/251/251 248/248/248
f 295/295/295 298/298/298 296/296/296
f 299/299/299 298/298/298 295/295/295
f 298/298/298 299/299/299 300/300/300
f 301/301/301 284/284/284 294/294/294
f 302/302/302 284/284/284 301/301/301
f 302/302/302 283/283/283 284/284/284
f 303/303/303 256/256/256 257/257/257
f 273/273/273 305/305/305 304/304/304
f 303/303/303 305/305/305 273/273/273
f 299/299/299 306/306/306 300/300/300
f 307/307/307 306/306/306 299/299/299
f 307/307/307 308/308/308 306/306/306
f 302/302/302 301/301/301 309/309/309
f 308/308/308 302/302/302 309/309/309
f 307/307/307 302/302/302 308/308/308
f 256/256/256 303/303/303 273/273/273
f 312/312/312 311/311/311 310/310/310
f 313/313/313 221/221/221 215/215/215
f 314/314/314 221/221/221 313/313/313
f 313/313/313 215/215/215 198/198/198
f 195/195/195 198/198/198 196/196/196
f 313/313/313 198/198/198 195/195/195
f 314/314/314 222/222/222 221/221/221
f 317/317/317 316/316/316 315/315/315
f 318/318/318 316/316/316 317/317/317
f 316/316/316 320/320/320 319/319/319
f 318/318/318 320/320/320 316/316/316
f 272/272/272 315/315/315 261/261/261
f 317/317/317 315/315/315 272/272/272
f 323/323/323 322/322/322 321/321/321
f 324/324/324 322/322/322 323/323/323
f 325/325/325 322/322/322 324/324/324
f 326/326/326 322/322/322 325/325/325
f 325/325/325 327/327/327 326/326/326
f 328/328/328 327/327/327 325/325/325
f 331/331/331 330/330/330 329/329/329
f 332/332/332 330/330/330 331/331/331
f 323/323/323 334/334/334 333/333/333
f 321/321/321 334/334/334 323/323/323
f 333/333/333 331/331/331 329/329/329
f 334/334/334 331/331/331 333/333/333
f 224/224/224 234/234/234 223/223/223
f 310/310/310 336/336/336 335/335/335
f 311/311/311 336/336/336 310/310/310
f 337/337/337 335/335/335 336/336/336
f 305/305/305 338/338/338 304/304/304
f 194/194/194 340/340/340 339/339/339
f 341/341/341 340/340/340 194/194/194
f 344/344/344 343/343/343 342/342/342
f 347/347/347 346/346/346 345/345/345
f 348/348/348 346/346/346 347/347/347
f 351/351/351 350/350/350 349/349/349
f 352/352/352 350/350/350 351/351/351
f 207/207/207 341/341/341 194/194/194
f 355/355/355 354/354/354 353/353/353
f 356/356/356 354/354/354 355/355/355
f 357/357/357 350/350/350 352/352/352
f 358/358/358 350/350/350 357/357/357
f 343/343/343 359/359/359 342/342/342
f 360/360/360 359/359/359 343/343/343
f 361/361/361 358/358/358 357/357/357
f 362/362/362 358/358/358 361/361/361
f 219/219/219 356/356/356 355/355/355
f 218/218/218 356/356/356 219/219/219
f 340/340/340 344/344/344 339/339/339
f 363/363/363 362/362/362 361/361/361
f 364/364/364 362/362/362 363/363/363
f 359/359/359 364/364/364 363/363/363
f 360/360/360 364/364/364 359/359/359
f 348/348/348 351/351/351 349/349/349
f 347/347/347 351/351/351 348/348/348
f 345/345/345 346/346/346 354/354/354
f 346/346/346 353/353/353 354/354/354
f 367/367/367 366/366/366 365/365/365
f 368/368/368 366/366/366 367/367/367
f 370/370/370 367/367/367 369/369/369
f 368/368/368 367/367/367 370/370/370
f 371/371/371 229/229/229 231/231/231
f 370/370/370 229/229/229 371/371/371
f 372/372/372 370/370/370 371/371/371
f 368/368/368 370/370/370 372/372/372
f 368/368/368 374/374/374 373/373/373
f 372/372/372 374/374/374 368/368/368
f 376/376/376 365/365/365 375/375/375
f 367/367/367 365/365/365 376/376/376
f 377/377/377 367/367/367 376/376/376
f 369/369/369 367/367/367 377/377/377
f 239/239/239 369/369/369 377/377/377
f 238/238/238 369/369/369 239/239/239
f 229/229/229 369/369/369 238/238/238
f 370/370/370 369/369/369 229/229/229
f 240/240/240 377/377/377 378/378/378
f 239/239/239 377/377/377 240/240/240
f 378/378/378 376/376/376 379/379/379
f 377/377/377 376/376/376 378/378/378
f 379/379/379 375/375/375 380/380/380
f 376/376/376 375/375/375 379/379/379
f 371/371/371 244/244/244 381/381/381
f 231/231/231 244/244/244 371/371/371
f 372/372/372 381/381/381 382/382/382
f 371/371/371 381/381/381 372/372/372
f 372/372/372 383/383/383 374/374/374
f 382/382/382 383/383/383 372/372/372
f 374/374/374 385/385/385 384/384/384
f 383/383/383 385/385/385 374/374/374
f 383/383/383 386/386/386 385/385/385
f 387/387/387 386/386/386 383/383/383
f 382/382/382 387/387/387 383/383/383
f 388/388/388 387/387/387 382/382/382
f 388/388/388 381/381/381 389/389/389
f 382/382/382 381/381/381 388/388/388
f 389/389/389 244/244/244 254/254/254
f 381/381/381 244/244/244 389/389/389
f 380/380/380 391/391/391 390/390/390
f 375/375/375 391/391/391 380/380/380
f 392/392/392 391/391/391 375/375/375
f 373/373/373 384/384/384 393/393/393
f 374/374/374 384/384/384 373/373/373
f 396/396/396 395/395/395 394/394/394
f 397/397/397 395/395/395 396/396/396
f 394/394/394 399/399/399 398/398/398
f 395/395/395 399/399/399 394/394/394
f 398/398/398 401/401/401 400/400/400
f 399/399/399 401/401/401 398/398/398
f 393/393/393 384/384/384 402/402/402
f 405/405/405 404/404/404 403/403/403
f 406/406/406 404/404/404 405/405/405
f 408/408/408 404/404/404 407/407/407
f 403/403/403 404/404/404 408/408/408
f 384/384/384 385/385/385 409/409/409
f 391/391/391 392/392/392 410/410/410
f 411/411/411 275/275/275 277/277/277
f 412/412/412 275/275/275 411/411/411
f 414/414/414 411/411/411 413/413/413
f 412/412/412 411/411/411 414/414/414
f 415/415/415 412/412/412 414/414/414
f 417/417/417 413/413/413 416/416/416
f 414/414/414 413/413/413 417/417/417
f 417/417/417 419/419/419 418/418/418
f 416/416/416 419/419/419 417/417/417
f 420/420/420 286/286/286 288/288/288
f 421/421/421 286/286/286 420/420/420
f 422/422/422 421/421/421 420/420/420
f 423/423/423 421/421/421 422/422/422
f 424/424/424 423/423/423 422/422/422
f 425/425/425 423/423/423 424/424/424
f 427/427/427 418/418/418 426/426/426
f 417/417/417 418/418/418 427/427/427
f 417/417/417 415/415/415 414/414/414
f 427/427/427 415/415/415 417/417/417
f 429/429/429 424/424/424 428/428/428
f 425/425/425 424/424/424 429/429/429
f 409/409/409 385/385/385 430/430/430
f 385/385/385 386/386/386 430/430/430
f 429/429/429 432/432/432 431/431/431
f 428/428/428 432/432/432 429/429/429
f 433/433/433 431/431/431 432/432/432
f 435/435/435 418/418/418 434/434/434
f 426/426/426 418/418/418 435/435/435
f 418/418/418 419/419/419 434/434/434
f 390/390/390 391/391/391 436/436/436
f 410/410/410 437/437/437 436/436/436
f 402/402/402 437/437/437 410/410/410
f 431/431/431 439/439/439 438/438/438
f 433/433/433 439/439/439 431/431/431
f 439/439/439 440/440/440 438/438/438
f 441/441/441 435/435/435 434/434/434
f 440/440/440 434/434/434 438/438/438
f 441/441/441 434/434/434 440/440/440
f 410/410/410 436/436/436 391/391/391
f 444/444/444 443/443/443 442/442/442
f 446/446/446 363/363/363 445/445/445
f 359/359/359 363/363/363 446/446/446
f 342/342/342 359/359/359 446/446/446
f 339/339/339 342/342/342 446/446/446
f 344/344/344 342/342/342 339/339/339
f 363/363/363 361/361/361 445/445/445
f 449/449/449 448/448/448 447/447/447
f 450/450/450 448/448/448 449/449/449
f 448/448/448 451/451/451 447/447/447
f 452/452/452 451/451/451 448/448/448
f 453/453/453 450/450/450 449/449/449
f 396/396/396 450/450/450 453/453/453
f 456/456/456 455/455/455 454/454/454
f 457/457/457 455/455/455 456/456/456
f 459/459/459 455/455/455 458/458/458
f 454/454/454 455/455/455 459/459/459
f 459/459/459 461/461/461 460/460/460
f 458/458/458 461/461/461 459/459/459
f 462/462/462 460/460/460 461/461/461
f 463/463/463 460/460/460 462/462/462
f 466/466/466 465/465/465 464/464/464
f 467/467/467 465/465/465 466/466/466
f 467/467/467 462/462/462 465/465/465
f 463/463/463 462/462/462 467/467/467
f 368/368/368 373/373/373 366/366/366
f 444/444/444 468/468/468 443/443/443
f 469/469/469 468/468/468 444/444/444
f 468/468/468 469/469/469 470/470/470
f 409/409/409 430/430/430 437/437/437
f 406/406/406 451/451/451 452/452/452
f 405/405/405 451/451/451 406/406/406
f 473/473/473 472/472/472 471/471/471
f 270/270/270 472/472/472 473/473/473
f 476/476/476 475/475/475 474/474/474
f 476/476/476 477/477/477 475/475/475
f 476/476/476 478/478/478 477/477/477
f 476/476/476 479/479/479 478/478/478
f 476/476/476 480/480/480 479/479/479
f 476/476/476 474/474/474 480/480/480
f 483/483/483 482/482/482 481/481/481
f 483/483/483 484/484/484 482/482/482
f 483/483/483 485/485/485 484/484/484
f 483/483/483 486/486/486 485/485/485
f 483/483/483 487/487/487 486/486/486
f 483/483/483 481/481/481 487/487/487
f 490/490/490 489/489/489 488/488/488
f 489/489/489 491/491/491 488/488/488
f 491/491/491 492/492/492 488/488/488
f 492/492/492 493/493/493 488/488/488
f 493/493/493 494/494/494 488/488/488
f 494/494/494 490/490/490 488/488/488
f 497/497/497 496/496/496 495/495/495
f 496/496/496 498/498/498 495/495/495
f 498/498/498 499/499/499 495/495/495
f 499/499/499 500/500/500 495/495/495
f 500/500/500 501/501/501 495/495/495
f 501/501/501 497/497/497 495/495/495
