# Exported from Godot Engine
mtllib Caliper_Perf_F.mtl
o Caliper_Perf_F
v 0.147424 -0.107309 0.089755
vt 0.202067 -1.494651
vn 0.097274 -0.162805 0.981851
v 0.147687 -0.093782 0.091980
vt 0.202067 -1.511897
vn 0.122569 -0.082095 0.989059
v 0.152826 -0.107292 0.085965
vt 0.191265 -1.494651
vn 0.881350 -0.197755 0.429087
v 0.154918 -0.093765 0.086877
vt 0.191265 -1.511897
vn 0.764876 -0.101108 0.636193
v 0.141315 -0.107472 0.087124
vt 0.210800 -1.494651
vn -0.775777 -0.197093 0.599437
v 0.139552 -0.093969 0.088468
vt 0.210800 -1.511897
vn -0.641855 -0.123447 0.756824
v 0.140741 -0.107612 0.080604
vt 0.220595 -1.494651
vn -0.909654 -0.229556 -0.346169
v 0.138262 -0.095499 0.079778
vt 0.220595 -1.511897
vn -0.937721 -0.229092 -0.261144
v 0.152108 -0.107457 0.079405
vt 0.181749 -1.494651
vn 0.820301 -0.233911 -0.521911
v 0.154235 -0.095819 0.077815
vt 0.181749 -1.511897
vn 0.937784 -0.294137 0.184514
v 0.146113 -0.107452 0.076710
vt 0.169323 -1.494651
vn -0.117988 -0.229003 -0.966249
v 0.145656 -0.096314 0.073959
vt 0.169323 -1.511897
vn -0.043612 -0.983994 0.172782
v 0.140741 -0.107612 0.080604
vt 0.159217 -1.494651
vn -0.909654 -0.229556 -0.346169
v 0.138262 -0.095499 0.079778
vt 0.159217 -1.511897
vn -0.937721 -0.229092 -0.261144
v 0.152108 -0.107457 0.079405
vt 0.181749 -1.494651
vn 0.820288 -0.234017 -0.521885
v 0.154235 -0.095819 0.077815
vt 0.181749 -1.511897
vn 0.800002 -0.450309 -0.396508
v 0.156546 -0.054254 0.099389
vt 0.462965 -1.080241
vn -0.004707 -0.072734 0.997340
v 0.151476 -0.066367 0.094044
vt 0.485219 -1.086615
vn -0.001506 -0.396414 0.918071
v 0.132235 -0.054174 0.099260
vt 0.463884 -1.118300
vn -0.004731 -0.070710 0.997486
v 0.138187 -0.066373 0.094136
vt 0.485938 -1.108864
vn -0.001626 -0.396118 0.918198
v 0.120391 -0.029799 0.094328
vt 0.425310 -1.141824
vn -0.866506 -0.061126 0.495410
v 0.124174 -0.001741 0.095056
vt 0.378011 -1.137537
vn -0.790864 -0.000021 0.611991
v 0.127671 -0.029923 0.099235
vt 0.424526 -1.127535
vn -0.563124 -0.030518 0.825809
v 0.130723 -0.001741 0.099251
vt 0.378012 -1.124271
vn -0.549456 -0.000021 0.835522
v 0.125939 -0.057377 0.094147
vt 0.470700 -1.130116
vn -0.834800 -0.253513 0.488713
v 0.132235 -0.054174 0.099260
vt 0.463884 -1.118300
vn -0.488655 -0.202931 0.848549
v 0.130772 -0.073300 0.090498
vt 0.497108 -1.122297
vn -0.765431 -0.398648 0.505168
v 0.138187 -0.066373 0.094136
vt 0.485938 -1.108864
vn -0.184750 -0.408047 0.894072
v 0.164384 -0.056471 0.093826
vt 0.467510 -1.065454
vn 0.571234 -0.234057 0.786707
v 0.159505 -0.072839 0.090426
vt 0.495122 -1.071445
vn 0.473295 -0.421314 0.773619
v 0.156546 -0.054254 0.099389
vt 0.462965 -1.080241
vn 0.460205 -0.211320 0.862296
v 0.151476 -0.066367 0.094044
vt 0.485219 -1.086615
vn 0.200958 -0.404087 0.892373
v 0.171378 -0.027779 0.094118
vt 0.420632 -1.054228
vn 0.665416 -0.079634 0.742213
v 0.162581 -0.027366 0.099420
vt 0.419275 -1.070818
vn 0.546600 -0.087545 0.832805
v 0.168131 -0.001741 0.096127
vt 0.378021 -1.058591
vn 0.677982 -0.000022 0.735079
v 0.164695 -0.001741 0.099431
vt 0.378020 -1.066743
vn 0.574975 -0.000021 0.818171
v 0.162581 -0.027366 0.099420
vt 0.419275 -1.070818
vn -0.005323 -0.000015 0.999986
v 0.127671 -0.029923 0.099235
vt 0.424526 -1.127535
vn -0.005323 -0.000015 0.999986
v 0.164695 -0.001741 0.099431
vt 0.378020 -1.066743
vn -0.005323 -0.000015 0.999986
v 0.130723 -0.001741 0.099251
vt 0.378012 -1.124271
vn -0.005323 -0.000015 0.999986
v 0.175039 -0.027633 0.089331
vt 0.421155 -1.044490
vn 0.971466 -0.062927 0.228677
v 0.171486 -0.001741 0.091253
vt 0.378022 -1.048480
vn 0.967719 -0.000019 0.252032
v 0.172531 -0.001741 0.076773
vt 0.378025 -1.023762
vn 0.927505 -0.000020 0.373810
v 0.176256 -0.026881 0.074503
vt 0.422863 -1.020503
vn 0.862737 -0.037615 0.504251
v 0.168244 -0.057298 0.089370
vt 0.469785 -1.056185
vn 0.929672 -0.264618 0.256296
v 0.169814 -0.056204 0.074788
vt 0.474333 -1.032369
vn 0.810378 -0.218316 0.543715
v 0.162738 -0.073632 0.085852
vt 0.497851 -1.062665
vn 0.895911 -0.362420 0.256896
v 0.164796 -0.071133 0.072215
vt 0.501033 -1.039391
vn 0.658429 -0.316705 0.682766
v 0.146579 -0.068845 0.092868
vt 0.490634 -1.094543
vn 0.006378 -0.439205 0.898364
v 0.155996 -0.081372 0.086483
vt 0.511758 -1.073200
vn 0.669498 -0.435022 0.602103
v 0.146579 -0.068845 0.092868
vt 0.490634 -1.094543
vn 0.032785 -0.441903 0.896464
v 0.139561 -0.074610 0.090063
vt 0.501324 -1.107356
vn -0.051506 -0.447750 0.892674
v 0.146579 -0.068845 0.092868
vt 0.490634 -1.094543
vn -0.009039 -0.444533 0.895717
v 0.154235 -0.095819 0.077815
vt 0.539110 -1.064293
vn 0.937784 -0.294137 0.184514
v 0.156644 -0.092653 0.076363
vt 0.533806 -1.059966
vn 0.877560 -0.450405 0.164390
v 0.120026 -0.029211 0.086207
vt 0.426106 -1.155191
vn -0.908022 -0.109410 0.404382
v 0.120928 -0.001741 0.088337
vt 0.378009 -1.150190
vn -0.901114 -0.000020 0.433582
v 0.124381 -0.057691 0.081765
vt 0.477481 -1.149108
vn -0.864710 -0.192738 0.463820
v 0.127486 -0.075272 0.077345
vt 0.508210 -1.142132
vn -0.744319 -0.252806 0.618125
v 0.134220 -0.090387 0.081397
vt 0.528749 -1.123002
vn -0.874790 -0.361814 0.322233
v 0.135190 -0.095178 0.071086
vt 0.544222 -1.133795
vn -0.393673 -0.307242 0.866386
v 0.115785 -0.095316 0.066188
vt 0.030862 -1.784041
vn -0.332162 -0.243625 0.911216
v 0.113107 -0.078759 0.066128
vt 0.021361 -1.763413
vn -0.558853 -0.204247 0.803720
v 0.135190 -0.095178 0.071086
vt 0.057881 -1.779285
vn -0.393673 -0.307242 0.866386
v 0.127486 -0.075272 0.077345
vt 0.043962 -1.752445
vn -0.744319 -0.252806 0.618125
v 0.112608 -0.050594 0.067186
vt 0.009779 -1.725862
vn -0.779728 -0.171648 0.602130
v 0.124381 -0.057691 0.081765
vt 0.036953 -1.728620
vn -0.864710 -0.192738 0.463820
v 0.112279 -0.025186 0.074832
vt 0.008913 -1.687924
vn -0.832024 -0.104113 0.544882
v 0.120026 -0.029211 0.086207
vt 0.028115 -1.690306
vn -0.908022 -0.109410 0.404382
v 0.113027 -0.001741 0.075984
vt 0.007805 -1.653445
vn -0.835490 -0.000021 0.549505
v 0.120928 -0.001741 0.088337
vt 0.027033 -1.653315
vn -0.901114 -0.000020 0.433582
v 0.157114 -0.093467 0.070538
vt 0.538182 -1.051162
vn 0.546703 -0.332447 0.768502
v 0.138262 -0.095499 0.079778
vt 0.539311 -1.118650
vn -0.698071 -0.311637 0.644655
v 0.154918 -0.093765 0.086877
vt 0.532642 -1.077261
vn 0.764876 -0.101108 0.636193
v 0.155996 -0.081372 0.086483
vt 0.511758 -1.073200
vn 0.576311 -0.012204 0.817139
v 0.147687 -0.093782 0.091980
vt 0.531977 -1.090690
vn 0.122569 -0.082095 0.989059
v 0.146579 -0.068845 0.092868
vt 0.490634 -1.094543
vn 0.034071 -0.044623 0.998423
v 0.139561 -0.074610 0.090063
vt 0.501324 -1.107356
vn -0.380225 -0.060835 0.922891
v 0.139552 -0.093969 0.088468
vt 0.533974 -1.104896
vn -0.641855 -0.123447 0.756824
v 0.138262 -0.095499 0.079778
vt 0.539311 -1.118650
vn -0.967047 -0.174312 0.185569
v 0.135251 -0.095026 0.078915
vt 0.537130 -1.123051
vn -0.602107 -0.784516 0.148331
v 0.145656 -0.096314 0.073959
vt 0.555021 -1.118634
vn -0.043612 -0.983994 0.172782
v 0.145656 -0.096314 0.073959
vt 0.554622 -1.062741
vn -0.043612 -0.983994 0.172782
v 0.154235 -0.095819 0.077815
vt 0.539110 -1.064293
vn 0.800002 -0.450309 -0.396508
v 0.183136 -0.001741 0.067398
vt 0.127742 -1.652662
vn 0.669159 -0.000022 0.743119
v 0.183898 -0.025869 0.067408
vt 0.127834 -1.685709
vn 0.590682 -0.011633 0.806820
v 0.172531 -0.001741 0.076773
vt 0.108611 -1.652772
vn 0.927505 -0.000020 0.373810
v 0.176256 -0.026881 0.074503
vt 0.113720 -1.686699
vn 0.862737 -0.037615 0.504251
v 0.169814 -0.056204 0.074788
vt 0.104517 -1.726078
vn 0.810378 -0.218316 0.543715
v 0.186340 -0.058616 0.066726
vt 0.129248 -1.730241
vn 0.463778 -0.130921 0.876225
v 0.164796 -0.071133 0.072215
vt 0.099043 -1.746660
vn 0.658429 -0.316705 0.682766
v 0.183785 -0.072580 0.064519
vt 0.126600 -1.749586
vn 0.386113 -0.250021 0.887922
v 0.157114 -0.093467 0.070538
vt 0.088153 -1.776370
vn 0.546703 -0.332447 0.768502
v 0.171732 -0.098449 0.061240
vt 0.111045 -1.785166
vn 0.411663 -0.266520 0.871493
v 0.138262 -0.095499 0.079778
vt 0.539311 -1.118650
vn -0.450837 -0.859113 0.242223
v 0.132700 -0.132735 0.060787
vt 0.058366 -1.833393
vn -0.168294 -0.273088 0.947154
v 0.128217 -0.127146 0.062119
vt 0.051618 -1.825999
vn -0.204108 -0.240426 0.948966
v 0.145998 -0.111390 0.069883
vt 0.074030 -1.801411
vn 0.099674 -0.290913 0.951543
v 0.154065 -0.125651 0.061020
vt 0.087671 -1.822319
vn 0.411863 -0.303641 0.859168
v 0.140981 -0.135314 0.060705
vt 0.069978 -1.835976
vn -0.031707 -0.352242 0.935372
v 0.147476 -0.133957 0.060679
vt 0.078750 -1.833644
vn 0.283189 -0.336219 0.898198
v 0.145656 -0.096314 0.073959
vt 0.072515 -1.781898
vn -0.043612 -0.983994 0.172782
v 0.185313 -0.076704 0.056213
vt 0.153502 -1.306010
vn 0.873721 -0.411250 0.259780
v 0.183785 -0.072580 0.064519
vt 0.144961 -1.296187
vn 0.913872 -0.278214 0.295694
v 0.188608 -0.058665 0.057970
vt 0.160333 -1.279119
vn 0.966521 -0.022737 0.255577
v 0.186340 -0.058616 0.066726
vt 0.148469 -1.277814
vn 0.966817 -0.013631 0.255104
v 0.176531 -0.101236 0.040834
vt 0.149347 -1.348308
vn 0.824571 -0.505735 0.253604
v 0.171732 -0.098449 0.061240
vt 0.128322 -1.329439
vn 0.820789 -0.514023 0.249169
v 0.184852 -0.083226 0.040834
vt 0.165588 -1.326380
vn 0.863802 -0.455240 0.215874
v 0.183898 -0.025869 0.067408
vt 0.145264 -1.234304
vn 0.966714 0.050401 0.250845
v 0.186261 -0.025903 0.058316
vt 0.157921 -1.234167
vn 0.966697 0.050563 0.250880
v 0.112608 -0.050594 0.067186
vt 0.046768 -1.267900
vn -0.991371 -0.024612 0.128753
v 0.111226 -0.050662 0.058674
vt 0.035287 -1.271380
vn -0.990928 -0.024319 0.132172
v 0.112279 -0.025186 0.074832
vt 0.036722 -1.234456
vn -0.994332 -0.006028 0.106151
v 0.111007 -0.024958 0.058688
vt 0.017225 -1.239483
vn -0.994311 -0.007626 0.106244
v 0.112324 -0.073661 0.040834
vt 0.014831 -1.312778
vn -0.991682 -0.125227 0.029762
v 0.113107 -0.078759 0.066128
vt 0.048828 -1.304602
vn -0.992591 -0.110527 0.050467
v 0.114330 -0.095443 0.040834
vt 0.024673 -1.342634
vn -0.961695 -0.265811 0.066981
v 0.115785 -0.095316 0.066188
vt 0.053558 -1.325530
vn -0.962537 -0.262922 0.066287
v 0.126209 -0.129434 0.040834
vt 0.056889 -1.386506
vn -0.909820 -0.403899 0.095357
v 0.128217 -0.127146 0.062119
vt 0.072111 -1.364783
vn -0.915407 -0.391511 0.093534
v 0.183136 -0.001741 0.067398
vt 0.143891 -1.202425
vn 0.967856 -0.000019 0.251504
v 0.185770 -0.001741 0.057262
vt 0.157950 -1.202290
vn 0.967856 -0.000019 0.251504
v 0.131241 -0.134790 0.040834
vt 0.068096 -1.392927
vn -0.522988 -0.841085 0.138053
v 0.132700 -0.132735 0.060787
vt 0.077998 -1.371157
vn -0.534496 -0.833841 0.137928
v 0.154065 -0.125651 0.061020
vt 0.103766 -1.363520
vn 0.789306 -0.564166 0.242307
v 0.158113 -0.128537 0.040834
vt 0.120028 -1.385062
vn 0.789226 -0.564276 0.242312
v 0.141344 -0.138647 0.040834
vt 0.086579 -1.397122
vn -0.115023 -0.980334 0.160358
v 0.140981 -0.135314 0.060705
vt 0.087285 -1.374572
vn -0.125723 -0.979181 0.159368
v 0.113027 -0.001741 0.075984
vt 0.035011 -1.203972
vn -0.994390 -0.000017 0.105780
v 0.110764 -0.001741 0.058891
vt 0.011782 -1.203940
vn -0.994390 -0.000017 0.105780
v 0.149445 -0.137642 0.040834
vt 0.100763 -1.395200
vn 0.539569 -0.814080 0.214799
v 0.147476 -0.133957 0.060679
vt 0.094979 -1.373574
vn 0.543173 -0.811899 0.213970
v 0.111446 -0.070146 0.058101
vt 0.036086 -1.297242
vn -0.990176 -0.071504 0.120159
v 0.147424 -0.107309 0.089755
vt 0.205729 -1.484602
vn 0.015974 -0.999780 0.013618
v 0.152826 -0.107292 0.085965
vt 0.211226 -1.476310
vn 0.002469 -0.999877 0.015516
v 0.146113 -0.107452 0.076710
vt 0.225476 -1.483920
vn 0.015879 -0.999781 0.013617
v 0.152108 -0.107457 0.079405
vt 0.220548 -1.476049
vn 0.002469 -0.999877 0.015516
v 0.141315 -0.107472 0.087124
vt 0.210800 -1.494651
vn 0.029293 -0.999502 0.011701
v 0.140741 -0.107612 0.080604
vt 0.220595 -1.494651
vn 0.029293 -0.999502 0.011701
v 0.154918 0.090283 0.086877
vt 0.201091 -1.558873
vn 0.764857 0.101060 0.636223
v 0.147687 0.090300 0.091980
vt 0.190149 -1.558873
vn 0.122565 0.082056 0.989062
v 0.152826 0.103810 0.085965
vt 0.201091 -1.542373
vn 0.881340 0.197707 0.429129
v 0.147424 0.103827 0.089755
vt 0.190149 -1.542373
vn 0.097394 0.162778 0.981844
v 0.139552 0.090487 0.088468
vt 0.179208 -1.558873
vn -0.641836 0.123397 0.756849
v 0.141315 0.103990 0.087124
vt 0.179208 -1.542373
vn -0.775735 0.197095 0.599490
v 0.138262 0.092017 0.079778
vt 0.170210 -1.558873
vn -0.967065 0.174179 0.185598
v 0.140741 0.104130 0.080604
vt 0.170210 -1.542373
vn -0.909676 0.229550 -0.346115
v 0.154235 0.092337 0.077815
vt 0.210197 -1.558873
vn 0.800036 0.450300 -0.396450
v 0.152108 0.103975 0.079405
vt 0.210197 -1.542373
vn 0.820337 0.233908 -0.521856
v 0.138262 0.092017 0.079778
vt 0.170210 -1.558873
vn -0.937737 0.229085 -0.261093
v 0.145656 0.092832 0.073959
vt 0.158973 -1.558873
vn -0.043613 0.983987 0.172824
v 0.146113 0.103970 0.076710
vt 0.158973 -1.542373
vn -0.118032 0.229011 -0.966241
v 0.145656 0.092832 0.073959
vt 0.221572 -1.558873
vn -0.043613 0.983987 0.172824
v 0.146113 0.103970 0.076710
vt 0.221572 -1.542373
vn -0.118032 0.229011 -0.966241
v 0.138187 0.062891 0.094136
vt 0.270091 -1.108837
vn -0.001626 0.396021 0.918240
v 0.151476 0.062885 0.094044
vt 0.270815 -1.086588
vn -0.001506 0.396365 0.918092
v 0.132235 0.050693 0.099260
vt 0.292142 -1.118278
vn -0.004731 0.070675 0.997488
v 0.156546 0.050772 0.099389
vt 0.293070 -1.080220
vn -0.004707 0.072700 0.997343
v 0.127671 0.026441 0.099235
vt 0.331498 -1.127523
vn -0.563065 0.030385 0.825854
v 0.120391 0.026317 0.094328
vt 0.330710 -1.141812
vn -0.866490 0.061081 0.495444
v 0.132235 0.050693 0.099260
vt 0.292142 -1.118278
vn -0.488640 0.202878 0.848570
v 0.125939 0.053895 0.094147
vt 0.285323 -1.130093
vn -0.834790 0.253462 0.488756
v 0.138187 0.062891 0.094136
vt 0.270091 -1.108837
vn -0.184746 0.407992 0.894098
v 0.130772 0.069818 0.090498
vt 0.258917 -1.122267
vn -0.765427 0.398595 0.505216
v 0.151476 0.062885 0.094044
vt 0.270815 -1.086588
vn 0.200954 0.404032 0.892399
v 0.159505 0.069357 0.090426
vt 0.260916 -1.071416
vn 0.473286 0.421256 0.773656
v 0.156546 0.050772 0.099389
vt 0.293070 -1.080220
vn 0.460191 0.211267 0.862317
v 0.164384 0.052989 0.093826
vt 0.288530 -1.065431
vn 0.571219 0.234002 0.786735
v 0.162581 0.023884 0.099420
vt 0.336763 -1.070808
vn 0.546582 0.087497 0.832822
v 0.171378 0.024297 0.094118
vt 0.335410 -1.054217
vn 0.665404 0.079491 0.742239
v 0.127671 0.026441 0.099235
vt 0.331498 -1.127523
vn -0.005323 -0.000015 0.999986
v 0.162581 0.023884 0.099420
vt 0.336763 -1.070808
vn -0.005323 -0.000015 0.999986
v 0.175039 0.024151 0.089331
vt 0.334890 -1.044479
vn 0.971451 0.062970 0.228730
v 0.176256 0.023399 0.074503
vt 0.333188 -1.020492
vn 0.862720 0.037571 0.504284
v 0.169814 0.052722 0.074788
vt 0.281715 -1.032345
vn 0.810365 0.218265 0.543754
v 0.168244 0.053816 0.089370
vt 0.286257 -1.056162
vn 0.929672 0.264574 0.256340
v 0.164796 0.067652 0.072215
vt 0.255013 -1.039360
vn 0.658366 0.316648 0.682854
v 0.162738 0.070150 0.085852
vt 0.258189 -1.062635
vn 0.895915 0.362375 0.256943
v 0.146579 0.065363 0.092868
vt 0.265398 -1.094515
vn 0.006378 0.439156 0.898388
v 0.146579 0.065363 0.092868
vt 0.265398 -1.094515
vn 0.032785 0.441852 0.896488
v 0.155996 0.077890 0.086483
vt 0.244279 -1.073166
vn 0.669492 0.434966 0.602150
v 0.146579 0.065363 0.092868
vt 0.265398 -1.094515
vn -0.009038 0.444484 0.895741
v 0.139561 0.071128 0.090063
vt 0.254704 -1.107325
vn -0.051505 0.447699 0.892700
v 0.156644 0.089171 0.076363
vt 0.222235 -1.059927
vn 0.877571 0.450365 0.164438
v 0.154235 0.092337 0.077815
vt 0.216929 -1.064253
vn 0.937788 0.294095 0.184558
v 0.120026 0.025729 0.086207
vt 0.329911 -1.155178
vn -0.908010 0.109366 0.404421
v 0.124381 0.054209 0.081765
vt 0.278537 -1.149083
vn -0.864699 0.192689 0.463861
v 0.127486 0.071790 0.077345
vt 0.247811 -1.142099
vn -0.744609 0.251981 0.618113
v 0.135190 0.091696 0.071086
vt 0.211801 -1.133753
vn -0.393626 0.307291 0.866389
v 0.134220 0.086905 0.081397
vt 0.227276 -1.122964
vn -0.874714 0.361889 0.322353
v 0.127486 0.071790 0.077345
vt 0.042629 -1.553966
vn -0.744609 0.251981 0.618113
v 0.113107 0.075277 0.066128
vt 0.019882 -1.543306
vn -0.558837 0.204194 0.803745
v 0.135190 0.091696 0.071086
vt 0.056188 -1.526939
vn -0.393626 0.307291 0.866389
v 0.115785 0.091834 0.066188
vt 0.029104 -1.522552
vn -0.332152 0.243572 0.911234
v 0.124381 0.054209 0.081765
vt 0.035941 -1.577883
vn -0.864699 0.192689 0.463861
v 0.112608 0.047112 0.067186
vt 0.008806 -1.581009
vn -0.779712 0.171597 0.602166
v 0.120026 0.025729 0.086207
vt 0.027618 -1.616313
vn -0.908010 0.109366 0.404421
v 0.112279 0.021704 0.074832
vt 0.008450 -1.618955
vn -0.832007 0.104066 0.544917
v 0.157114 0.089985 0.070538
vt 0.217862 -1.051122
vn 0.546691 0.332389 0.768535
v 0.138262 0.092017 0.079778
vt 0.216715 -1.118609
vn -0.698059 0.311581 0.644694
v 0.154235 0.092337 0.077815
vt 0.216929 -1.064253
vn 0.937767 0.294188 0.184519
v 0.155996 0.077890 0.086483
vt 0.244279 -1.073166
vn 0.576291 0.012161 0.817154
v 0.154918 0.090283 0.086877
vt 0.223394 -1.077222
vn 0.764857 0.101060 0.636223
v 0.146579 0.065363 0.092868
vt 0.265398 -1.094515
vn 0.034070 0.044589 0.998424
v 0.147687 0.090300 0.091980
vt 0.224056 -1.090652
vn 0.122565 0.082056 0.989062
v 0.139552 0.090487 0.088468
vt 0.222056 -1.104857
vn -0.641836 0.123397 0.756849
v 0.139561 0.071128 0.090063
vt 0.254704 -1.107325
vn -0.380211 0.060791 0.922900
v 0.138262 0.092017 0.079778
vt 0.216715 -1.118609
vn -0.967065 0.174179 0.185598
v 0.138262 0.092017 0.079778
vt 0.216715 -1.118609
vn -0.450850 0.859090 0.242277
v 0.135251 0.091544 0.078915
vt 0.218895 -1.123011
vn -0.602125 0.784493 0.148382
v 0.145656 0.092832 0.073959
vt 0.201005 -1.118590
vn -0.043613 0.983987 0.172824
v 0.154235 0.092337 0.077815
vt 0.216929 -1.064253
vn 0.800036 0.450300 -0.396450
v 0.145656 0.092832 0.073959
vt 0.201418 -1.062696
vn -0.043613 0.983987 0.172824
v 0.176256 0.023399 0.074503
vt 0.113304 -1.618787
vn 0.862720 0.037571 0.504284
v 0.183898 0.022387 0.067408
vt 0.127429 -1.619609
vn 0.590662 0.011589 0.806836
v 0.186340 0.055134 0.066726
vt 0.128285 -1.575017
vn 0.463762 0.130871 0.876240
v 0.169814 0.052722 0.074788
vt 0.103613 -1.579520
vn 0.810365 0.218265 0.543754
v 0.183785 0.069098 0.064519
vt 0.125350 -1.555683
vn 0.386101 0.249967 0.887943
v 0.164796 0.067652 0.072215
vt 0.097834 -1.559008
vn 0.658366 0.316648 0.682854
v 0.171732 0.094967 0.061240
vt 0.109266 -1.520315
vn 0.411651 0.266465 0.871516
v 0.157114 0.089985 0.070538
vt 0.086505 -1.529440
vn 0.546691 0.332389 0.768535
v 0.128217 0.123664 0.062119
vt 0.049278 -1.480319
vn -0.204101 0.240376 0.948979
v 0.145998 0.107908 0.069883
vt 0.072029 -1.504597
vn 0.099672 0.290864 0.951559
v 0.132700 0.129253 0.060787
vt 0.055920 -1.472833
vn -0.168332 0.272997 0.947173
v 0.154065 0.122170 0.061020
vt 0.085373 -1.483497
vn 0.411761 0.303685 0.859202
v 0.140981 0.131832 0.060705
vt 0.067494 -1.470090
vn -0.031706 0.352193 0.935390
v 0.147476 0.130475 0.060679
vt 0.076296 -1.472297
vn 0.283182 0.336164 0.898221
v 0.145656 0.092832 0.073959
vt 0.070787 -1.524127
vn -0.043613 0.983987 0.172824
v 0.186340 0.055134 0.066726
vt 0.146689 -1.126520
vn 0.966809 0.013593 0.255140
v 0.183785 0.069098 0.064519
vt 0.142842 -1.107984
vn 0.913871 0.278168 0.295740
v 0.188608 0.055184 0.057970
vt 0.158522 -1.124939
vn 0.966513 0.022699 0.255613
v 0.185313 0.073223 0.056213
vt 0.151167 -1.097865
vn 0.873727 0.411206 0.259829
v 0.184852 0.079744 0.040834
vt 0.162827 -1.077080
vn 0.863873 0.455088 0.215915
v 0.171732 0.094967 0.061240
vt 0.125613 -1.074628
vn 0.820800 0.513982 0.249220
v 0.176531 0.097754 0.040834
vt 0.146032 -1.055210
vn 0.824581 0.505692 0.253656
v 0.186261 0.022421 0.058316
vt 0.156990 -1.170436
vn 0.966703 -0.050722 0.250824
v 0.183898 0.022387 0.067408
vt 0.144303 -1.170644
vn 0.966722 -0.050440 0.250808
v 0.111007 0.021476 0.058688
vt 0.016794 -1.168424
vn -0.994308 0.007592 0.106277
v 0.111226 0.047180 0.058674
vt 0.034186 -1.136649
vn -0.990925 0.024284 0.132206
v 0.112279 0.021704 0.074832
vt 0.036249 -1.173460
vn -0.994330 0.005892 0.106174
v 0.112608 0.047112 0.067186
vt 0.045725 -1.139934
vn -0.991368 0.024577 0.128788
v 0.115785 0.091834 0.066188
vt 0.050475 -1.081322
vn -0.962545 0.262885 0.066327
v 0.113107 0.075277 0.066128
vt 0.046491 -1.102690
vn -0.992593 0.110491 0.050502
v 0.114330 0.091961 0.040834
vt 0.020952 -1.065293
vn -0.961703 0.265773 0.067021
v 0.112324 0.070179 0.040834
vt 0.012229 -1.095734
vn -0.991685 0.125192 0.029798
v 0.128217 0.123664 0.062119
vt 0.067631 -1.040824
vn -0.915419 0.391474 0.093578
v 0.126209 0.125952 0.040834
vt 0.051709 -1.019677
vn -0.909832 0.403861 0.095402
v 0.132700 0.129253 0.060787
vt 0.073296 -1.034106
vn -0.534513 0.833821 0.137978
v 0.131241 0.131308 0.040834
vt 0.062772 -1.012841
vn -0.523005 0.841067 0.138103
v 0.158113 0.125055 0.040834
vt 0.115091 -1.019050
vn 0.789238 0.564236 0.242365
v 0.154065 0.122170 0.061020
vt 0.099553 -1.041118
vn 0.789319 0.564126 0.242360
v 0.140981 0.131832 0.060705
vt 0.082542 -1.030484
vn -0.125727 0.979174 0.159411
v 0.141344 0.135165 0.040834
vt 0.081162 -1.008051
vn -0.115027 0.980327 0.160402
v 0.147476 0.130475 0.060679
vt 0.090312 -1.031277
vn 0.543189 0.811874 0.214024
v 0.149445 0.134160 0.040834
vt 0.095429 -1.009524
vn 0.539785 0.814187 0.213852
v 0.111446 0.066664 0.058101
vt 0.034047 -1.110594
vn -0.990175 0.071467 0.120194
v 0.152108 0.103975 0.079405
vt 0.154529 -1.532279
vn 0.002470 0.999876 0.015548
v 0.152826 0.103810 0.085965
vt 0.161785 -1.523661
vn 0.002470 0.999876 0.015548
v 0.146113 0.103970 0.076710
vt 0.158973 -1.542373
vn 0.015879 0.999781 0.013649
v 0.147424 0.103827 0.089755
vt 0.171151 -1.523820
vn 0.015975 0.999779 0.013650
v 0.140741 0.104130 0.080604
vt 0.170210 -1.542373
vn 0.029294 0.999502 0.011733
v 0.141315 0.103990 0.087124
vt 0.175970 -1.531943
vn 0.029294 0.999502 0.011733
v 0.166555 0.085249 0.067937
vt 0.910327 -1.233457
vn 0.392007 0.263800 0.881329
v 0.173499 0.085249 0.065018
vt 0.966260 -1.233463
vn 0.358341 0.265540 0.895031
v 0.170027 0.079236 0.068193
vt 0.938288 -1.281901
vn 0.370267 0.254574 0.893361
v 0.176970 0.079236 0.065536
vt 0.994223 -1.281906
vn 0.344043 0.269965 0.899307
v 0.173499 0.073223 0.068623
vt 0.966250 -1.330344
vn 0.338097 0.259872 0.904520
v 0.166555 0.073223 0.071160
vt 0.910316 -1.330338
vn 0.377771 0.224968 0.898153
v 0.163083 0.079236 0.071451
vt 0.882354 -1.281895
vn 0.413046 0.232570 0.880514
v 0.139315 0.121424 0.065922
vt 0.910327 -1.233457
vn -0.090218 0.347171 0.933452
v 0.146258 0.121424 0.066145
vt 0.966260 -1.233463
vn 0.086990 0.318375 0.943965
v 0.142786 0.115411 0.068494
vt 0.938288 -1.281901
vn -0.016211 0.331297 0.943387
v 0.149730 0.115411 0.066948
vt 0.994223 -1.281906
vn 0.202785 0.358497 0.911240
v 0.146258 0.109398 0.070941
vt 0.966250 -1.330344
vn 0.001095 0.377495 0.926011
v 0.139315 0.109398 0.069495
vt 0.910316 -1.330338
vn -0.177413 0.260501 0.949033
v 0.135843 0.115411 0.067351
vt 0.882354 -1.281895
vn -0.155705 0.282484 0.946551
v 0.170027 -0.082718 0.068193
vt 0.938288 -1.281901
vn 0.369946 -0.254591 0.893490
v 0.173499 -0.088731 0.065018
vt 0.966250 -1.330344
vn 0.358352 -0.265594 0.895010
v 0.166555 -0.088731 0.067937
vt 0.910316 -1.330338
vn 0.391615 -0.263758 0.881515
v 0.176970 -0.082718 0.065536
vt 0.994223 -1.281906
vn 0.344053 -0.270019 0.899287
v 0.173499 -0.076705 0.068623
vt 0.966260 -1.233463
vn 0.338107 -0.259926 0.904501
v 0.166555 -0.076705 0.071160
vt 0.910327 -1.233457
vn 0.377782 -0.225020 0.898135
v 0.163083 -0.082718 0.071451
vt 0.882354 -1.281895
vn 0.412961 -0.233139 0.880403
v 0.142786 -0.118893 0.068494
vt 0.938288 -1.281901
vn -0.016212 -0.331345 0.943370
v 0.146258 -0.124906 0.066145
vt 0.966250 -1.330344
vn 0.086993 -0.318424 0.943948
v 0.139315 -0.124906 0.065922
vt 0.910316 -1.330338
vn -0.090220 -0.347221 0.933433
v 0.149730 -0.118893 0.066948
vt 0.994223 -1.281906
vn 0.202790 -0.358551 0.911218
v 0.146258 -0.112880 0.070941
vt 0.966260 -1.233463
vn 0.001095 -0.377543 0.925991
v 0.139315 -0.112880 0.069495
vt 0.910327 -1.233457
vn -0.177418 -0.260551 0.949018
v 0.135843 -0.118893 0.067351
vt 0.882354 -1.281895
vn -0.155718 -0.282635 0.946504
usemtl Brakes
f 3/3/3 2/2/2 1/1/1
f 4/4/4 2/2/2 3/3/3
f 1/1/1 6/6/6 5/5/5
f 2/2/2 6/6/6 1/1/1
f 5/5/5 8/8/8 7/7/7
f 6/6/6 8/8/8 5/5/5
f 9/9/9 4/4/4 3/3/3
f 10/10/10 4/4/4 9/9/9
f 13/13/13 12/12/12 11/11/11
f 14/14/14 12/12/12 13/13/13
f 11/11/11 16/16/16 15/15/15
f 12/12/12 16/16/16 11/11/11
f 19/19/19 18/18/18 17/17/17
f 20/20/20 18/18/18 19/19/19
f 23/23/23 22/22/22 21/21/21
f 24/24/24 22/22/22 23/23/23
f 26/26/26 21/21/21 25/25/25
f 23/23/23 21/21/21 26/26/26
f 28/28/28 25/25/25 27/27/27
f 26/26/26 25/25/25 28/28/28
f 31/31/31 30/30/30 29/29/29
f 32/32/32 30/30/30 31/31/31
f 34/34/34 29/29/29 33/33/33
f 31/31/31 29/29/29 34/34/34
f 36/36/36 33/33/33 35/35/35
f 34/34/34 33/33/33 36/36/36
f 38/38/38 17/17/17 37/37/37
f 19/19/19 17/17/17 38/38/38
f 40/40/40 37/37/37 39/39/39
f 38/38/38 37/37/37 40/40/40
f 41/41/41 35/35/35 33/33/33
f 42/42/42 35/35/35 41/41/41
f 42/42/42 44/44/44 43/43/43
f 41/41/41 44/44/44 42/42/42
f 46/46/46 41/41/41 45/45/45
f 44/44/44 41/41/41 46/46/46
f 48/48/48 45/45/45 47/47/47
f 46/46/46 45/45/45 48/48/48
f 18/18/18 20/20/20 49/49/49
f 30/30/30 51/51/51 50/50/50
f 32/32/32 51/51/51 30/30/30
f 53/53/53 27/27/27 52/52/52
f 28/28/28 27/27/27 53/53/53
f 55/55/55 50/50/50 54/54/54
f 47/47/47 50/50/50 55/55/55
f 30/30/30 50/50/50 47/47/47
f 22/22/22 56/56/56 21/21/21
f 57/57/57 56/56/56 22/22/22
f 21/21/21 58/58/58 25/25/25
f 56/56/56 58/58/58 21/21/21
f 25/25/25 59/59/59 27/27/27
f 58/58/58 59/59/59 25/25/25
f 27/27/27 61/61/61 60/60/60
f 59/59/59 61/61/61 27/27/27
f 64/64/64 63/63/63 62/62/62
f 65/65/65 63/63/63 64/64/64
f 63/63/63 67/67/67 66/66/66
f 65/65/65 67/67/67 63/63/63
f 66/66/66 69/69/69 68/68/68
f 67/67/67 69/69/69 66/66/66
f 69/69/69 70/70/70 68/68/68
f 71/71/71 70/70/70 69/69/69
f 47/47/47 72/72/72 48/48/48
f 55/55/55 72/72/72 47/47/47
f 30/30/30 45/45/45 29/29/29
f 47/47/47 45/45/45 30/30/30
f 29/29/29 41/41/41 33/33/33
f 45/45/45 41/41/41 29/29/29
f 27/27/27 60/60/60 52/52/52
f 52/52/52 60/60/60 73/73/73
f 54/54/54 75/75/75 74/74/74
f 74/74/74 77/77/77 76/76/76
f 75/75/75 77/77/77 74/74/74
f 79/79/79 77/77/77 78/78/78
f 76/76/76 77/77/77 79/79/79
f 80/80/80 79/79/79 78/78/78
f 73/73/73 60/60/60 81/81/81
f 60/60/60 61/61/61 81/81/81
f 81/81/81 61/61/61 82/82/82
f 55/55/55 83/83/83 72/72/72
f 84/84/84 83/83/83 55/55/55
f 87/87/87 86/86/86 85/85/85
f 88/88/88 86/86/86 87/87/87
f 89/89/89 86/86/86 88/88/88
f 90/90/90 86/86/86 89/89/89
f 91/91/91 90/90/90 89/89/89
f 92/92/92 90/90/90 91/91/91
f 94/94/94 91/91/91 93/93/93
f 92/92/92 91/91/91 94/94/94
f 81/81/81 82/82/82 95/95/95
f 98/98/98 97/97/97 96/96/96
f 64/64/64 97/97/97 98/98/98
f 62/62/62 97/97/97 64/64/64
f 94/94/94 93/93/93 99/99/99
f 96/96/96 100/100/100 98/98/98
f 101/101/101 98/98/98 100/100/100
f 98/98/98 93/93/93 102/102/102
f 105/105/105 104/104/104 103/103/103
f 106/106/106 104/104/104 105/105/105
f 109/109/109 108/108/108 107/107/107
f 106/106/106 111/111/111 110/110/110
f 105/105/105 111/111/111 106/106/106
f 114/114/114 113/113/113 112/112/112
f 115/115/115 113/113/113 114/114/114
f 118/118/118 117/117/117 116/116/116
f 119/119/119 117/117/117 118/118/118
f 120/120/120 119/119/119 118/118/118
f 121/121/121 119/119/119 120/120/120
f 110/110/110 123/123/123 122/122/122
f 111/111/111 123/123/123 110/110/110
f 124/124/124 121/121/121 120/120/120
f 125/125/125 121/121/121 124/124/124
f 126/126/126 107/107/107 108/108/108
f 127/127/127 107/107/107 126/126/126
f 128/128/128 125/125/125 124/124/124
f 129/129/129 125/125/125 128/128/128
f 130/130/130 115/115/115 114/114/114
f 131/131/131 115/115/115 130/130/130
f 104/104/104 108/108/108 103/103/103
f 132/132/132 129/129/129 128/128/128
f 133/133/133 129/129/129 132/132/132
f 112/112/112 134/134/134 117/117/117
f 113/113/113 134/134/134 112/112/112
f 127/127/127 133/133/133 132/132/132
f 126/126/126 133/133/133 127/127/127
f 116/116/116 117/117/117 134/134/134
f 108/108/108 109/109/109 103/103/103
f 137/137/137 136/136/136 135/135/135
f 138/138/138 136/136/136 137/137/137
f 140/140/140 135/135/135 139/139/139
f 137/137/137 135/135/135 140/140/140
f 102/102/102 64/64/64 98/98/98
f 99/99/99 98/98/98 101/101/101
f 93/93/93 98/98/98 99/99/99
f 143/143/143 142/142/142 141/141/141
f 144/144/144 142/142/142 143/143/143
f 144/144/144 145/145/145 142/142/142
f 146/146/146 145/145/145 144/144/144
f 146/146/146 147/147/147 145/145/145
f 148/148/148 147/147/147 146/146/146
f 150/150/150 141/141/141 149/149/149
f 143/143/143 141/141/141 150/150/150
f 148/148/148 152/152/152 151/151/151
f 153/153/153 152/152/152 148/148/148
f 155/155/155 149/149/149 154/154/154
f 150/150/150 149/149/149 155/155/155
f 158/158/158 157/157/157 156/156/156
f 159/159/159 157/157/157 158/158/158
f 160/160/160 22/22/22 24/24/24
f 161/161/161 22/22/22 160/160/160
f 162/162/162 161/161/161 160/160/160
f 163/163/163 161/161/161 162/162/162
f 164/164/164 163/163/163 162/162/162
f 165/165/165 163/163/163 164/164/164
f 168/168/168 167/167/167 166/166/166
f 169/169/169 167/167/167 168/168/168
f 170/170/170 169/169/169 168/168/168
f 171/171/171 169/169/169 170/170/170
f 36/36/36 171/171/171 170/170/170
f 35/35/35 171/171/171 36/36/36
f 172/172/172 159/159/159 158/158/158
f 173/173/173 159/159/159 172/172/172
f 40/40/40 173/173/173 172/172/172
f 39/39/39 173/173/173 40/40/40
f 174/174/174 35/35/35 42/42/42
f 171/171/171 35/35/35 174/174/174
f 42/42/42 175/175/175 174/174/174
f 43/43/43 175/175/175 42/42/42
f 176/176/176 174/174/174 175/175/175
f 177/177/177 174/174/174 176/176/176
f 178/178/178 177/177/177 176/176/176
f 179/179/179 177/177/177 178/178/178
f 180/180/180 156/156/156 157/157/157
f 167/167/167 181/181/181 166/166/166
f 182/182/182 181/181/181 167/167/167
f 183/183/183 165/165/165 164/164/164
f 184/184/184 165/165/165 183/183/183
f 179/179/179 182/182/182 167/167/167
f 185/185/185 182/182/182 179/179/179
f 186/186/186 182/182/182 185/185/185
f 22/22/22 187/187/187 57/57/57
f 161/161/161 187/187/187 22/22/22
f 161/161/161 188/188/188 187/187/187
f 163/163/163 188/188/188 161/161/161
f 163/163/163 189/189/189 188/188/188
f 165/165/165 189/189/189 163/163/163
f 165/165/165 190/190/190 189/189/189
f 191/191/191 190/190/190 165/165/165
f 194/194/194 193/193/193 192/192/192
f 195/195/195 193/193/193 194/194/194
f 193/193/193 196/196/196 192/192/192
f 197/197/197 196/196/196 193/193/193
f 197/197/197 198/198/198 196/196/196
f 199/199/199 198/198/198 197/197/197
f 198/198/198 70/70/70 71/71/71
f 199/199/199 70/70/70 198/198/198
f 179/179/179 200/200/200 185/185/185
f 178/178/178 200/200/200 179/179/179
f 167/167/167 177/177/177 179/179/179
f 169/169/169 177/177/177 167/167/167
f 169/169/169 174/174/174 177/177/177
f 171/171/171 174/174/174 169/169/169
f 184/184/184 191/191/191 165/165/165
f 201/201/201 191/191/191 184/184/184
f 204/204/204 203/203/203 202/202/202
f 204/204/204 205/205/205 203/203/203
f 206/206/206 205/205/205 204/204/204
f 207/207/207 205/205/205 206/206/206
f 208/208/208 205/205/205 207/207/207
f 208/208/208 207/207/207 209/209/209
f 211/211/211 191/191/191 210/210/210
f 211/211/211 190/190/190 191/191/191
f 212/212/212 190/190/190 211/211/211
f 185/185/185 214/214/214 213/213/213
f 200/200/200 214/214/214 185/185/185
f 87/87/87 216/216/216 215/215/215
f 85/85/85 216/216/216 87/87/87
f 218/218/218 216/216/216 217/217/217
f 215/215/215 216/216/216 218/218/218
f 220/220/220 217/217/217 219/219/219
f 218/218/218 217/217/217 220/220/220
f 221/221/221 220/220/220 219/219/219
f 222/222/222 220/220/220 221/221/221
f 210/210/210 212/212/212 211/211/211
f 224/224/224 223/223/223 194/194/194
f 225/225/225 223/223/223 224/224/224
f 194/194/194 223/223/223 195/195/195
f 226/226/226 222/222/222 221/221/221
f 224/224/224 227/227/227 225/225/225
f 227/227/227 224/224/224 228/228/228
f 229/229/229 222/222/222 224/224/224
f 232/232/232 231/231/231 230/230/230
f 233/233/233 231/231/231 232/232/232
f 236/236/236 235/235/235 234/234/234
f 230/230/230 237/237/237 232/232/232
f 238/238/238 237/237/237 230/230/230
f 241/241/241 240/240/240 239/239/239
f 242/242/242 240/240/240 241/241/241
f 245/245/245 244/244/244 243/243/243
f 246/246/246 244/244/244 245/245/245
f 248/248/248 243/243/243 247/247/247
f 245/245/245 243/243/243 248/248/248
f 238/238/238 123/123/123 237/237/237
f 122/122/122 123/123/123 238/238/238
f 250/250/250 247/247/247 249/249/249
f 248/248/248 247/247/247 250/250/250
f 252/252/252 236/236/236 251/251/251
f 235/235/235 236/236/236 252/252/252
f 254/254/254 249/249/249 253/253/253
f 250/250/250 249/249/249 254/254/254
f 130/130/130 239/239/239 131/131/131
f 241/241/241 239/239/239 130/130/130
f 233/233/233 235/235/235 231/231/231
f 256/256/256 253/253/253 255/255/255
f 254/254/254 253/253/253 256/256/256
f 242/242/242 257/257/257 240/240/240
f 244/244/244 257/257/257 242/242/242
f 251/251/251 255/255/255 252/252/252
f 256/256/256 255/255/255 251/251/251
f 257/257/257 244/244/244 246/246/246
f 233/233/233 234/234/234 235/235/235
f 260/260/260 259/259/259 258/258/258
f 261/261/261 259/259/259 260/260/260
f 262/262/262 261/261/261 260/260/260
f 263/263/263 261/261/261 262/262/262
f 224/224/224 194/194/194 229/229/229
f 226/226/226 224/224/224 222/222/222
f 228/228/228 224/224/224 226/226/226
f 266/266/266 265/265/265 264/264/264
f 266/266/266 267/267/267 265/265/265
f 266/266/266 268/268/268 267/267/267
f 266/266/266 269/269/269 268/268/268
f 266/266/266 270/270/270 269/269/269
f 266/266/266 264/264/264 270/270/270
f 273/273/273 272/272/272 271/271/271
f 273/273/273 274/274/274 272/272/272
f 273/273/273 275/275/275 274/274/274
f 273/273/273 276/276/276 275/275/275
f 273/273/273 277/277/277 276/276/276
f 273/273/273 271/271/271 277/277/277
f 280/280/280 279/279/279 278/278/278
f 279/279/279 281/281/281 278/278/278
f 281/281/281 282/282/282 278/278/278
f 282/282/282 283/283/283 278/278/278
f 283/283/283 284/284/284 278/278/278
f 284/284/284 280/280/280 278/278/278
f 287/287/287 286/286/286 285/285/285
f 286/286/286 288/288/288 285/285/285
f 288/288/288 289/289/289 285/285/285
f 289/289/289 290/290/290 285/285/285
f 290/290/290 291/291/291 285/285/285
f 291/291/291 287/287/287 285/285/285
