# Exported from Godot Engine
mtllib Rotor_Perf_F.mtl
o Rotor_Perf_F
v -0.176735 -0.053610 0.056561
vt 0.971553 -1.705797
vn -0.000015 -0.000015 1.000000
v -0.183798 -0.018102 0.056561
vt 0.985583 -1.635260
vn -0.000015 -0.000015 1.000000
v -0.106543 -0.032317 0.056561
vt 0.832116 -1.663499
vn -0.000015 -0.000015 1.000000
v -0.110801 -0.010912 0.056560
vt 0.840574 -1.620977
vn -0.000015 -0.000015 1.000000
v 0.087049 -0.162873 0.056561
vt 0.447543 -1.922848
vn -0.000015 -0.000015 1.000000
v 0.053602 -0.176727 0.056561
vt 0.513988 -1.950370
vn -0.000015 -0.000015 1.000000
v 0.052472 -0.098184 0.056560
vt 0.516231 -1.794342
vn -0.000015 -0.000015 1.000000
v 0.032309 -0.106535 0.056560
vt 0.556285 -1.810933
vn -0.000015 -0.000015 1.000000
v 0.117151 0.142759 0.056561
vt 0.387746 -1.315709
vn -0.000015 -0.000015 1.000000
v 0.142751 0.117159 0.056561
vt 0.336892 -1.366563
vn -0.000015 -0.000015 1.000000
v 0.070618 0.086058 0.056561
vt 0.480184 -1.428345
vn -0.000015 -0.000015 1.000000
v 0.086050 0.070626 0.056561
vt 0.449528 -1.459001
vn -0.000015 -0.000015 1.000000
v -0.162881 0.087057 0.056561
vt 0.944031 -1.426361
vn -0.000015 -0.000015 1.000000
v -0.142767 0.117159 0.056561
vt 0.904075 -1.366563
vn -0.000015 -0.000015 1.000000
v -0.098192 0.052480 0.056561
vt 0.815525 -1.495048
vn -0.000015 -0.000015 1.000000
v -0.086067 0.070626 0.056561
vt 0.791439 -1.459001
vn -0.000015 -0.000015 1.000000
v -0.053618 -0.176727 0.056561
vt 0.726979 -1.950370
vn -0.000015 -0.000015 1.000000
v -0.087065 -0.162873 0.056561
vt 0.793423 -1.922848
vn -0.000015 -0.000015 1.000000
v -0.032325 -0.106535 0.056561
vt 0.684682 -1.810933
vn -0.000015 -0.000015 1.000000
v -0.052488 -0.098183 0.056561
vt 0.724735 -1.794342
vn -0.000015 -0.000015 1.000000
v 0.183782 -0.018102 0.056561
vt 0.255383 -1.635260
vn -0.000015 -0.000015 1.000000
v 0.176719 -0.053610 0.056561
vt 0.269414 -1.705797
vn -0.000015 -0.000015 1.000000
v 0.110785 -0.010912 0.056560
vt 0.400393 -1.620977
vn -0.000015 -0.000015 1.000000
v 0.106527 -0.032317 0.056561
vt 0.408851 -1.663499
vn -0.000015 -0.000015 1.000000
v -0.053618 0.176727 0.056561
vt 0.726979 -1.248231
vn -0.000015 -0.000015 1.000000
v -0.018110 0.183790 0.056561
vt 0.656443 -1.234200
vn -0.000015 -0.000015 1.000000
v -0.032325 0.106535 0.056561
vt 0.684682 -1.387668
vn -0.000015 -0.000015 1.000000
v -0.010920 0.110793 0.056561
vt 0.642161 -1.379210
vn -0.000015 -0.000015 1.000000
v -0.162881 -0.087057 0.056561
vt 0.944031 -1.772240
vn -0.000015 -0.000015 1.000000
v -0.098192 -0.052480 0.056560
vt 0.815525 -1.703553
vn -0.000015 -0.000015 1.000000
v 0.117151 -0.142759 0.056561
vt 0.387746 -1.882892
vn -0.000015 -0.000015 1.000000
v 0.070618 -0.086059 0.056560
vt 0.480184 -1.770256
vn -0.000015 -0.000015 1.000000
v 0.087049 0.162873 0.056561
vt 0.447543 -1.275753
vn -0.000015 -0.000015 1.000000
v 0.052472 0.098183 0.056561
vt 0.516231 -1.404259
vn -0.000015 -0.000015 1.000000
v -0.176735 0.053610 0.056561
vt 0.971553 -1.492805
vn -0.000015 -0.000015 1.000000
v -0.106543 0.032317 0.056561
vt 0.832116 -1.535103
vn -0.000015 -0.000015 1.000000
v -0.018110 -0.183790 0.056561
vt 0.656443 -1.964401
vn -0.000015 -0.000015 1.000000
v -0.010920 -0.110793 0.056561
vt 0.642161 -1.819392
vn -0.000015 -0.000015 1.000000
v 0.176719 0.053610 0.056561
vt 0.269414 -1.492805
vn -0.000015 -0.000015 1.000000
v 0.183782 0.018102 0.056561
vt 0.255383 -1.563342
vn -0.000015 -0.000015 1.000000
v 0.106527 0.032317 0.056561
vt 0.408851 -1.535103
vn -0.000015 -0.000015 1.000000
v 0.110785 0.010912 0.056560
vt 0.400393 -1.577624
vn -0.000015 -0.000015 1.000000
v -0.087065 0.162873 0.056561
vt 0.793423 -1.275753
vn -0.000015 -0.000015 1.000000
v -0.052488 0.098184 0.056561
vt 0.724735 -1.404259
vn -0.000015 -0.000015 1.000000
v -0.142767 -0.117159 0.056561
vt 0.904075 -1.832038
vn -0.000015 -0.000015 1.000000
v -0.086067 -0.070626 0.056560
vt 0.791439 -1.739600
vn -0.000015 -0.000015 1.000000
v 0.142751 -0.117160 0.056561
vt 0.336892 -1.832038
vn -0.000015 -0.000015 1.000000
v 0.086050 -0.070626 0.056561
vt 0.449528 -1.739600
vn -0.000015 -0.000015 1.000000
v 0.053602 0.176727 0.056561
vt 0.513988 -1.248231
vn -0.000015 -0.000015 1.000000
v 0.032309 0.106535 0.056561
vt 0.556285 -1.387668
vn -0.000015 -0.000015 1.000000
v -0.183798 0.018102 0.056561
vt 0.985583 -1.563342
vn -0.000015 -0.000015 1.000000
v -0.110801 0.010912 0.056560
vt 0.840574 -1.577624
vn -0.000015 -0.000015 1.000000
v 0.018094 -0.183790 0.056561
vt 0.584524 -1.964401
vn -0.000015 -0.000015 1.000000
v 0.010904 -0.110793 0.056560
vt 0.598807 -1.819392
vn -0.000015 -0.000015 1.000000
v 0.162865 0.087057 0.056561
vt 0.296936 -1.426361
vn -0.000015 -0.000015 1.000000
v 0.098175 0.052480 0.056561
vt 0.425442 -1.495048
vn -0.000015 -0.000015 1.000000
v -0.117167 0.142759 0.056561
vt 0.853221 -1.315709
vn -0.000015 -0.000015 1.000000
v -0.070634 0.086058 0.056561
vt 0.760783 -1.428345
vn -0.000015 -0.000015 1.000000
v -0.117167 -0.142759 0.056561
vt 0.853221 -1.882892
vn -0.000015 -0.000015 1.000000
v -0.070634 -0.086059 0.056561
vt 0.760783 -1.770256
vn -0.000015 -0.000015 1.000000
v 0.162865 -0.087057 0.056561
vt 0.296936 -1.772240
vn -0.000015 -0.000015 1.000000
v 0.098175 -0.052480 0.056561
vt 0.425442 -1.703553
vn -0.000015 -0.000015 1.000000
v 0.018094 0.183790 0.056561
vt 0.584524 -1.234200
vn -0.000015 -0.000015 1.000000
v 0.010904 0.110793 0.056561
vt 0.598807 -1.379210
vn -0.000015 -0.000015 1.000000
v 0.183782 0.018102 0.037508
vt 0.313873 -1.979930
vn 0.995189 0.097969 0.000050
v 0.183782 -0.018102 0.037508
vt 0.344833 -1.979929
vn 0.995186 -0.098002 0.000017
v 0.183782 0.018102 0.056561
vt 0.313873 -1.996199
vn 0.995189 0.097969 0.000050
v 0.183782 -0.018102 0.056561
vt 0.344833 -1.996199
vn 0.995186 -0.098002 0.000017
v 0.176719 0.053610 0.037508
vt 0.282913 -1.979929
vn 0.956935 0.290303 0.000057
v 0.176719 0.053610 0.056561
vt 0.282913 -1.996199
vn 0.956935 0.290303 0.000057
v 0.162865 0.087057 0.037508
vt 0.251953 -1.979929
vn 0.881915 0.471408 0.000062
v 0.162865 0.087057 0.056561
vt 0.251953 -1.996199
vn 0.881915 0.471408 0.000062
v 0.142751 0.117159 0.037508
vt 0.220992 -1.979929
vn 0.773007 0.634397 0.000064
v 0.142751 0.117159 0.056561
vt 0.220992 -1.996199
vn 0.773007 0.634397 0.000064
v 0.117151 0.142759 0.037508
vt 0.190032 -1.979929
vn 0.634397 0.773007 0.000064
v 0.117151 0.142759 0.056561
vt 0.190032 -1.996199
vn 0.634397 0.773007 0.000064
v 0.087049 0.162873 0.037508
vt 0.159072 -1.979929
vn 0.471408 0.881915 0.000062
v 0.087049 0.162873 0.056561
vt 0.159072 -1.996199
vn 0.471408 0.881915 0.000062
v 0.053602 0.176727 0.037508
vt 0.128112 -1.979929
vn 0.290303 0.956935 0.000057
v 0.053602 0.176727 0.056561
vt 0.128112 -1.996198
vn 0.290303 0.956935 0.000057
v 0.018094 0.183790 0.037508
vt 0.097152 -1.979929
vn 0.097969 0.995189 0.000050
v 0.018094 0.183790 0.056561
vt 0.097152 -1.996198
vn 0.097969 0.995189 0.000050
v -0.018110 0.183790 0.037508
vt 0.066192 -1.979928
vn -0.098002 0.995186 0.000017
v -0.018110 0.183790 0.056561
vt 0.066192 -1.996198
vn -0.098002 0.995186 0.000017
v -0.053618 0.176727 0.037508
vt 0.035232 -1.979928
vn -0.290338 0.956924 0.000019
v -0.053618 0.176727 0.056561
vt 0.035232 -1.996198
vn -0.290338 0.956924 0.000019
v -0.087065 0.162873 0.037508
vt 0.004272 -1.979928
vn -0.471440 0.881898 0.000021
v -0.087065 0.162873 0.056561
vt 0.004272 -1.996197
vn -0.471440 0.881898 0.000021
v -0.117167 0.142759 0.037508
vt 0.964036 -1.979927
vn -0.634423 0.772986 0.000022
v -0.087065 0.162873 0.037508
vt 0.994996 -1.979927
vn -0.471440 0.881898 0.000021
v -0.117167 0.142759 0.056561
vt 0.964036 -1.996196
vn -0.634423 0.772986 0.000022
v -0.087065 0.162873 0.056561
vt 0.994996 -1.996196
vn -0.471440 0.881898 0.000021
v -0.142767 0.117159 0.037508
vt 0.933076 -1.979927
vn -0.773024 0.634376 0.000021
v -0.142767 0.117159 0.056561
vt 0.933076 -1.996196
vn -0.773024 0.634376 0.000021
v -0.162881 0.087057 0.037508
vt 0.902116 -1.979927
vn -0.881924 0.471391 0.000021
v -0.162881 0.087057 0.056561
vt 0.902116 -1.996196
vn -0.881924 0.471391 0.000021
v -0.176735 0.053610 0.037508
vt 0.871156 -1.979927
vn -0.956938 0.290292 0.000019
v -0.176735 0.053610 0.056561
vt 0.871156 -1.996196
vn -0.956938 0.290292 0.000019
v -0.183798 0.018102 0.037508
vt 0.840195 -1.979927
vn -0.995190 0.097966 0.000017
v -0.183798 0.018102 0.056561
vt 0.840195 -1.996196
vn -0.995190 0.097966 0.000017
v -0.183798 -0.018102 0.037508
vt 0.809235 -1.979927
vn -0.995188 -0.097984 -0.000017
v -0.183798 -0.018102 0.056561
vt 0.809235 -1.996196
vn -0.995188 -0.097984 -0.000017
v -0.176735 -0.053610 0.037508
vt 0.778275 -1.979927
vn -0.956931 -0.290315 -0.000019
v -0.176735 -0.053610 0.056561
vt 0.778275 -1.996196
vn -0.956931 -0.290315 -0.000019
v -0.162881 -0.087057 0.037508
vt 0.747315 -1.979927
vn -0.881911 -0.471415 -0.000021
v -0.162881 -0.087057 0.056561
vt 0.747315 -1.996196
vn -0.881911 -0.471415 -0.000021
v -0.142767 -0.117159 0.037508
vt 0.716355 -1.979927
vn -0.773005 -0.634400 -0.000021
v -0.142767 -0.117159 0.056561
vt 0.716355 -1.996196
vn -0.773005 -0.634400 -0.000021
v -0.117168 -0.142759 0.037508
vt 0.685395 -1.979927
vn -0.634400 -0.773005 -0.000021
v -0.117167 -0.142759 0.056561
vt 0.685395 -1.996196
vn -0.634400 -0.773005 -0.000021
v -0.087065 -0.162873 0.037508
vt 0.654435 -1.979927
vn -0.471415 -0.881911 -0.000021
v -0.087065 -0.162873 0.056561
vt 0.654435 -1.996197
vn -0.471415 -0.881911 -0.000021
v -0.053618 -0.176727 0.037508
vt 0.623474 -1.979928
vn -0.290315 -0.956931 -0.000019
v -0.053618 -0.176727 0.056561
vt 0.623475 -1.996197
vn -0.290315 -0.956931 -0.000019
v -0.018110 -0.183790 0.037508
vt 0.592514 -1.979928
vn -0.097984 -0.995188 -0.000017
v -0.018110 -0.183790 0.056561
vt 0.592514 -1.996197
vn -0.097984 -0.995188 -0.000017
v 0.018094 -0.183790 0.037508
vt 0.561554 -1.979928
vn 0.097966 -0.995190 0.000017
v 0.018094 -0.183790 0.056561
vt 0.561554 -1.996197
vn 0.097966 -0.995190 0.000017
v 0.053602 -0.176727 0.037508
vt 0.530594 -1.979928
vn 0.290292 -0.956938 0.000019
v 0.053602 -0.176727 0.056561
vt 0.530594 -1.996198
vn 0.290292 -0.956938 0.000019
v 0.087049 -0.162873 0.037508
vt 0.499634 -1.979929
vn 0.471391 -0.881924 0.000021
v 0.087049 -0.162873 0.056561
vt 0.499634 -1.996198
vn 0.471391 -0.881924 0.000021
v 0.117151 -0.142759 0.037508
vt 0.468674 -1.979929
vn 0.634376 -0.773024 0.000021
v 0.117151 -0.142759 0.056561
vt 0.468674 -1.996198
vn 0.634376 -0.773024 0.000021
v 0.142751 -0.117160 0.037508
vt 0.437713 -1.979929
vn 0.772986 -0.634423 0.000022
v 0.142751 -0.117160 0.056561
vt 0.437713 -1.996199
vn 0.772986 -0.634423 0.000022
v 0.162865 -0.087057 0.037508
vt 0.406753 -1.979929
vn 0.881898 -0.471440 0.000021
v 0.162865 -0.087057 0.056561
vt 0.406753 -1.996199
vn 0.881898 -0.471440 0.000021
v 0.176719 -0.053610 0.037508
vt 0.375793 -1.979929
vn 0.956924 -0.290338 0.000019
v 0.176719 -0.053610 0.056561
vt 0.375793 -1.996199
vn 0.956924 -0.290338 0.000019
v -0.010920 0.110793 0.056561
vt 0.641202 -1.388947
vn -0.196944 0.894075 0.402296
v 0.010904 0.110793 0.056561
vt 0.599765 -1.388947
vn -0.123900 0.911356 0.392529
v -0.052435 0.063882 0.134417
vt 0.720022 -1.478013
vn -0.587489 0.691769 0.419894
v 0.008092 0.082243 0.134417
vt 0.605104 -1.443154
vn 0.073668 0.904563 0.419928
v 0.106527 -0.032317 0.056561
vt 0.418214 -1.660658
vn 0.881825 -0.280332 0.379208
v 0.098175 -0.052480 0.056561
vt 0.434071 -1.698941
vn 0.784174 -0.444307 0.433201
v 0.082235 -0.008100 0.134417
vt 0.464336 -1.614680
vn 0.904576 -0.073712 0.419891
v -0.052488 -0.098183 0.056561
vt 0.720123 -1.785713
vn -0.444299 -0.784211 0.433143
v -0.070634 -0.086059 0.056561
vt 0.754576 -1.762693
vn -0.493009 -0.771443 0.402266
v -0.008108 -0.082243 0.134417
vt 0.635863 -1.755448
vn -0.073710 -0.904600 0.419840
v -0.086067 0.070626 0.056561
vt 0.783876 -1.465208
vn -0.771447 0.492960 0.402318
v -0.070634 0.086058 0.056561
vt 0.754576 -1.435908
vn -0.732091 0.556758 0.392509
v -0.082251 0.008100 0.134417
vt 0.776631 -1.583921
vn -0.904587 0.073667 0.419876
v 0.086050 0.070626 0.056561
vt 0.457091 -1.465208
vn 0.556881 0.731963 0.392575
v 0.098175 0.052480 0.056561
vt 0.434071 -1.499661
vn 0.821739 0.425325 0.379266
v 0.063874 0.052427 0.134417
vt 0.499196 -1.499762
vn 0.691775 0.587443 0.419950
v 0.032309 -0.106535 0.056560
vt 0.559126 -1.801570
vn 0.240387 -0.868665 0.433168
v 0.010904 -0.110793 0.056560
vt 0.599765 -1.809654
vn 0.196892 -0.894093 0.402283
v 0.052419 -0.063882 0.134417
vt 0.520945 -1.720588
vn 0.587434 -0.691818 0.419892
v -0.110801 -0.010912 0.056560
vt 0.830837 -1.620019
vn -0.894101 -0.196940 0.402242
v -0.110801 0.010912 0.056560
vt 0.830837 -1.578583
vn -0.911379 -0.123898 0.392477
v -0.063890 -0.052427 0.134417
vt 0.741772 -1.698839
vn -0.691811 -0.587481 0.419837
v 0.032309 0.106535 0.056561
vt 0.559126 -1.397031
vn 0.280283 0.881821 0.379254
v 0.086050 -0.070626 0.056561
vt 0.457091 -1.733393
vn 0.771407 -0.493018 0.402324
v -0.086067 -0.070626 0.056560
vt 0.783876 -1.733393
vn -0.556918 -0.731995 0.392462
v -0.052488 0.098184 0.056561
vt 0.720123 -1.412888
vn -0.425374 0.821738 0.379216
v 0.106527 0.032317 0.056561
vt 0.418214 -1.537943
vn 0.868636 0.240392 0.433224
v -0.010920 -0.110793 0.056561
vt 0.641202 -1.809654
vn 0.123853 -0.911368 0.392516
v -0.106543 0.032317 0.056561
vt 0.822754 -1.537943
vn -0.881847 0.280277 0.379198
v 0.052472 0.098183 0.056561
vt 0.520844 -1.412888
vn 0.444256 0.784174 0.433252
v 0.070618 -0.086059 0.056560
vt 0.486391 -1.762693
vn 0.731956 -0.556927 0.392520
v -0.098192 -0.052480 0.056560
vt 0.806897 -1.698940
vn -0.821803 -0.425306 0.379150
v -0.032325 0.106535 0.056561
vt 0.681841 -1.397031
vn -0.240441 0.868644 0.433181
v 0.110785 0.010912 0.056560
vt 0.410130 -1.578583
vn 0.894067 0.196897 0.402338
v 0.110785 -0.010912 0.056560
vt 0.410130 -1.620019
vn 0.911345 0.123855 0.392568
v -0.032325 -0.106535 0.056561
vt 0.681841 -1.801570
vn -0.280325 -0.881851 0.379152
v -0.098192 0.052480 0.056561
vt 0.806897 -1.499661
vn -0.784211 0.444248 0.433194
v 0.070618 0.086058 0.056561
vt 0.486391 -1.435908
vn 0.492969 0.771411 0.402377
v 0.052472 -0.098184 0.056560
vt 0.520844 -1.785713
vn 0.425316 -0.821771 0.379208
v -0.106543 -0.032317 0.056561
vt 0.822754 -1.660658
vn -0.868673 -0.240437 0.433125
usemtl Brakes
f 3/3/3 2/2/2 1/1/1
f 4/4/4 2/2/2 3/3/3
f 7/7/7 6/6/6 5/5/5
f 8/8/8 6/6/6 7/7/7
f 11/11/11 10/10/10 9/9/9
f 12/12/12 10/10/10 11/11/11
f 15/15/15 14/14/14 13/13/13
f 16/16/16 14/14/14 15/15/15
f 19/19/19 18/18/18 17/17/17
f 20/20/20 18/18/18 19/19/19
f 23/23/23 22/22/22 21/21/21
f 24/24/24 22/22/22 23/23/23
f 27/27/27 26/26/26 25/25/25
f 28/28/28 26/26/26 27/27/27
f 30/30/30 1/1/1 29/29/29
f 3/3/3 1/1/1 30/30/30
f 32/32/32 5/5/5 31/31/31
f 7/7/7 5/5/5 32/32/32
f 34/34/34 9/9/9 33/33/33
f 11/11/11 9/9/9 34/34/34
f 36/36/36 13/13/13 35/35/35
f 15/15/15 13/13/13 36/36/36
f 38/38/38 17/17/17 37/37/37
f 19/19/19 17/17/17 38/38/38
f 41/41/41 40/40/40 39/39/39
f 42/42/42 40/40/40 41/41/41
f 42/42/42 21/21/21 40/40/40
f 23/23/23 21/21/21 42/42/42
f 44/44/44 25/25/25 43/43/43
f 27/27/27 25/25/25 44/44/44
f 46/46/46 29/29/29 45/45/45
f 30/30/30 29/29/29 46/46/46
f 48/48/48 31/31/31 47/47/47
f 32/32/32 31/31/31 48/48/48
f 50/50/50 33/33/33 49/49/49
f 34/34/34 33/33/33 50/50/50
f 52/52/52 35/35/35 51/51/51
f 36/36/36 35/35/35 52/52/52
f 54/54/54 37/37/37 53/53/53
f 38/38/38 37/37/37 54/54/54
f 56/56/56 39/39/39 55/55/55
f 41/41/41 39/39/39 56/56/56
f 58/58/58 43/43/43 57/57/57
f 44/44/44 43/43/43 58/58/58
f 60/60/60 45/45/45 59/59/59
f 46/46/46 45/45/45 60/60/60
f 62/62/62 47/47/47 61/61/61
f 48/48/48 47/47/47 62/62/62
f 64/64/64 49/49/49 63/63/63
f 50/50/50 49/49/49 64/64/64
f 4/4/4 51/51/51 2/2/2
f 52/52/52 51/51/51 4/4/4
f 8/8/8 53/53/53 6/6/6
f 54/54/54 53/53/53 8/8/8
f 12/12/12 55/55/55 10/10/10
f 56/56/56 55/55/55 12/12/12
f 16/16/16 57/57/57 14/14/14
f 58/58/58 57/57/57 16/16/16
f 20/20/20 59/59/59 18/18/18
f 60/60/60 59/59/59 20/20/20
f 24/24/24 61/61/61 22/22/22
f 62/62/62 61/61/61 24/24/24
f 28/28/28 63/63/63 26/26/26
f 64/64/64 63/63/63 28/28/28
f 67/67/67 66/66/66 65/65/65
f 68/68/68 66/66/66 67/67/67
f 70/70/70 65/65/65 69/69/69
f 67/67/67 65/65/65 70/70/70
f 72/72/72 69/69/69 71/71/71
f 70/70/70 69/69/69 72/72/72
f 74/74/74 71/71/71 73/73/73
f 72/72/72 71/71/71 74/74/74
f 76/76/76 73/73/73 75/75/75
f 74/74/74 73/73/73 76/76/76
f 78/78/78 75/75/75 77/77/77
f 76/76/76 75/75/75 78/78/78
f 80/80/80 77/77/77 79/79/79
f 78/78/78 77/77/77 80/80/80
f 82/82/82 79/79/79 81/81/81
f 80/80/80 79/79/79 82/82/82
f 84/84/84 81/81/81 83/83/83
f 82/82/82 81/81/81 84/84/84
f 86/86/86 83/83/83 85/85/85
f 84/84/84 83/83/83 86/86/86
f 88/88/88 85/85/85 87/87/87
f 86/86/86 85/85/85 88/88/88
f 91/91/91 90/90/90 89/89/89
f 92/92/92 90/90/90 91/91/91
f 94/94/94 89/89/89 93/93/93
f 91/91/91 89/89/89 94/94/94
f 96/96/96 93/93/93 95/95/95
f 94/94/94 93/93/93 96/96/96
f 98/98/98 95/95/95 97/97/97
f 96/96/96 95/95/95 98/98/98
f 100/100/100 97/97/97 99/99/99
f 98/98/98 97/97/97 100/100/100
f 102/102/102 99/99/99 101/101/101
f 100/100/100 99/99/99 102/102/102
f 104/104/104 101/101/101 103/103/103
f 102/102/102 101/101/101 104/104/104
f 106/106/106 103/103/103 105/105/105
f 104/104/104 103/103/103 106/106/106
f 108/108/108 105/105/105 107/107/107
f 106/106/106 105/105/105 108/108/108
f 110/110/110 107/107/107 109/109/109
f 108/108/108 107/107/107 110/110/110
f 112/112/112 109/109/109 111/111/111
f 110/110/110 109/109/109 112/112/112
f 114/114/114 111/111/111 113/113/113
f 112/112/112 111/111/111 114/114/114
f 116/116/116 113/113/113 115/115/115
f 114/114/114 113/113/113 116/116/116
f 118/118/118 115/115/115 117/117/117
f 116/116/116 115/115/115 118/118/118
f 120/120/120 117/117/117 119/119/119
f 118/118/118 117/117/117 120/120/120
f 122/122/122 119/119/119 121/121/121
f 120/120/120 119/119/119 122/122/122
f 124/124/124 121/121/121 123/123/123
f 122/122/122 121/121/121 124/124/124
f 126/126/126 123/123/123 125/125/125
f 124/124/124 123/123/123 126/126/126
f 128/128/128 125/125/125 127/127/127
f 126/126/126 125/125/125 128/128/128
f 130/130/130 127/127/127 129/129/129
f 128/128/128 127/127/127 130/130/130
f 68/68/68 129/129/129 66/66/66
f 130/130/130 129/129/129 68/68/68
f 133/133/133 132/132/132 131/131/131
f 134/134/134 132/132/132 133/133/133
f 137/137/137 136/136/136 135/135/135
f 140/140/140 139/139/139 138/138/138
f 143/143/143 142/142/142 141/141/141
f 133/133/133 142/142/142 143/143/143
f 146/146/146 145/145/145 144/144/144
f 149/149/149 148/148/148 147/147/147
f 152/152/152 151/151/151 150/150/150
f 143/143/143 151/151/151 152/152/152
f 134/134/134 153/153/153 132/132/132
f 137/137/137 154/154/154 136/136/136
f 140/140/140 155/155/155 139/139/139
f 152/152/152 155/155/155 140/140/140
f 133/133/133 156/156/156 142/142/142
f 146/146/146 157/157/157 145/145/145
f 149/149/149 158/158/158 148/148/148
f 140/140/140 158/158/158 149/149/149
f 143/143/143 159/159/159 151/151/151
f 134/134/134 160/160/160 153/153/153
f 137/137/137 161/161/161 154/154/154
f 149/149/149 161/161/161 137/137/137
f 152/152/152 162/162/162 155/155/155
f 133/133/133 163/163/163 156/156/156
f 146/146/146 165/165/165 164/164/164
f 137/137/137 165/165/165 146/146/146
f 146/146/146 164/164/164 157/157/157
f 140/140/140 166/166/166 158/158/158
f 143/143/143 167/167/167 159/159/159
f 134/134/134 168/168/168 160/160/160
f 149/149/149 169/169/169 161/161/161
f 152/152/152 170/170/170 162/162/162
f 133/133/133 131/131/131 163/163/163
f 137/137/137 135/135/135 165/165/165
f 140/140/140 138/138/138 166/166/166
f 143/143/143 141/141/141 167/167/167
f 134/134/134 144/144/144 168/168/168
f 146/146/146 144/144/144 134/134/134
f 149/149/149 147/147/147 169/169/169
f 152/152/152 150/150/150 170/170/170
