# Exported from Godot Engine
mtllib Caliper_Std_F.mtl
o Caliper_Std_F
v 0.168834 0.000000 0.064372
vt 0.770286 0.496252
vn -0.000022 0.707107 0.707107
v 0.168834 0.000000 0.056180
vt 0.761129 0.496252
vn -0.000022 0.707107 0.707107
v 0.163437 -0.037566 0.064372
vt 0.774979 0.540190
vn 0.010743 0.748587 0.662949
v 0.163437 -0.037566 0.056180
vt 0.765366 0.539577
vn 0.012312 0.754441 0.656252
v 0.163528 -0.065528 0.064372
vt 0.766794 0.572793
vn -0.000911 0.829001 0.559246
v 0.163437 -0.037566 0.064372
vt 0.774979 0.540190
vn -0.000912 0.827318 0.561733
v 0.163528 -0.065528 0.056180
vt 0.757715 0.570417
vn -0.000829 0.819875 0.572542
v 0.163437 -0.037566 0.056180
vt 0.765366 0.539577
vn -0.000323 0.750632 0.660721
v 0.140692 0.000000 0.066487
vt 0.802073 0.496252
vn -0.754942 0.108099 -0.646820
v 0.168834 0.000000 0.064372
vt 0.770286 0.496252
vn -0.754942 0.108099 -0.646820
v 0.137332 -0.032699 0.066487
vt 0.805932 0.533159
vn -0.782897 0.141903 -0.605752
v 0.163437 -0.037566 0.064372
vt 0.774979 0.540190
vn -0.799848 0.164062 -0.577344
v 0.137332 -0.032699 0.073331
vt 0.808637 0.540629
vn -0.740472 0.224547 -0.633467
v 0.163447 -0.040629 0.071216
vt 0.779283 0.547283
vn -0.733677 0.260479 -0.627590
v 0.135386 -0.065528 0.073331
vt 0.806878 0.579189
vn -0.733307 0.262348 -0.627243
v 0.163528 -0.065528 0.071216
vt 0.774638 0.574642
vn -0.724385 0.302354 -0.619555
v 0.163447 -0.040629 0.071216
vt 0.779283 0.547283
vn -0.001496 0.894077 0.447910
v 0.163528 -0.065528 0.071216
vt 0.774638 0.574642
vn -0.000993 0.838814 0.544417
v 0.137332 -0.032699 0.073331
vt 0.808637 0.540629
vn -0.729730 0.550011 -0.406180
v 0.137332 -0.032699 0.066487
vt 0.805932 0.533159
vn -0.730775 0.557245 -0.394266
v 0.163447 -0.040629 0.071216
vt 0.779283 0.547283
vn -0.733618 0.585371 -0.345174
v 0.163437 -0.037566 0.064372
vt 0.774979 0.540190
vn -0.733958 0.591461 -0.333886
v 0.165849 -0.066603 0.077159
vt 0.858564 0.857346
vn 0.795930 0.505018 0.333843
v 0.145723 -0.051847 0.095174
vt 0.832233 0.834647
vn 0.795930 0.505018 0.333843
v 0.174640 -0.072314 0.052718
vt 0.868344 0.883317
vn 0.795930 0.505018 0.333843
v 0.160234 -0.097190 0.061955
vt 0.897498 0.864977
vn -0.658323 0.223773 0.718705
v 0.153855 -0.089284 0.077159
vt 0.883671 0.845203
vn -0.440027 0.072354 0.895065
v 0.174640 -0.072314 0.052718
vt 0.868344 0.883317
vn -0.696791 0.207535 0.686595
v 0.165849 -0.066603 0.077159
vt 0.858564 0.857346
vn -0.433033 0.057813 0.899522
v 0.133486 -0.085537 0.095174
vt 0.871624 0.816077
vn 0.326158 0.006102 0.945295
v 0.145723 -0.051847 0.095174
vt 0.832233 0.834647
vn -0.307014 0.003293 0.951699
v 0.148376 -0.051854 0.039566
vt 0.832512 0.900599
vn 0.877703 0.407499 0.252156
v 0.152255 -0.051864 -0.041721
vt 0.849521 0.993287
vn 0.891437 0.382375 0.243166
v 0.174640 -0.072314 0.052718
vt 0.868344 0.883317
vn 0.884376 0.398827 0.242519
v 0.178447 -0.074787 -0.041721
vt 0.889039 0.987569
vn 0.895297 0.376088 0.238750
v 0.156487 -0.107124 0.053635
vt 0.911201 0.871988
vn -0.697914 0.244471 0.673164
v 0.178447 -0.074787 -0.041721
vt 0.889039 0.987569
vn -0.711169 0.247450 0.658033
v 0.150560 -0.117199 0.048120
vt 0.925545 0.875505
vn -0.765892 0.277842 0.579839
v 0.154324 -0.118165 -0.041721
vt 0.944708 0.976462
vn -0.777911 0.284310 0.560376
v 0.136116 -0.134078 0.043123
vt 0.951561 0.875853
vn -0.852495 0.322963 0.411032
v 0.139424 -0.134397 -0.041721
vt 0.969358 0.971282
vn -0.852097 0.323408 0.411507
v 0.129533 -0.096133 0.088424
vt 0.303758 0.625821
vn -0.969023 0.193363 0.153642
v 0.130555 -0.096348 0.094097
vt 0.298248 0.621904
vn -0.977051 0.087709 -0.194108
v 0.153855 -0.089284 0.077159
vt 0.303889 0.657929
vn -0.944470 0.118417 0.306521
v 0.128917 -0.100713 0.073219
vt 0.320138 0.631815
vn -0.900103 0.086156 0.427073
v 0.160234 -0.097190 0.061955
vt 0.323353 0.668846
vn -0.869293 0.060400 0.490593
v 0.128377 -0.106743 0.064899
vt 0.331499 0.632271
vn -0.720801 0.005523 0.693120
v 0.156487 -0.107124 0.053635
vt 0.339293 0.664978
vn -0.718652 0.005219 0.695350
v 0.126706 -0.117199 0.055300
vt 0.347035 0.629633
vn 0.711777 0.059511 0.699880
v 0.150560 -0.117199 0.048120
vt 0.353081 0.657326
vn 0.693247 0.041291 0.719517
v 0.125086 -0.134078 0.043123
vt 0.369494 0.623032
vn 0.689941 0.084087 0.718965
v 0.136116 -0.134078 0.043123
vt 0.371494 0.636310
vn 0.647234 0.061745 0.759787
v 0.098064 -0.028408 0.039356
vt 0.411923 0.393821
vn -0.001229 0.669080 0.743189
v 0.098517 0.000000 0.039356
vt 0.411344 0.427188
vn -0.000626 0.687550 0.726137
v 0.098064 -0.028408 0.068382
vt 0.444156 0.395740
vn -0.000626 0.688081 0.725633
v 0.098517 0.000000 0.068382
vt 0.444348 0.427188
vn -0.000022 0.707107 0.707107
v 0.138864 -0.031011 0.068382
vt 0.489691 0.390420
vn 0.705184 0.074778 -0.705070
v 0.098064 -0.028408 0.068382
vt 0.444156 0.395740
vn 0.706340 0.047547 -0.706274
v 0.136054 0.000000 0.068382
vt 0.487502 0.427188
vn 0.707139 0.000043 -0.707074
v 0.098517 0.000000 0.068382
vt 0.444348 0.427188
vn 0.707118 0.000000 -0.707096
v 0.106366 -0.057364 0.039356
vt 0.416029 0.358728
vn 0.052083 0.662045 0.747652
v 0.098064 -0.028408 0.039356
vt 0.411923 0.393821
vn 0.042945 0.674352 0.737160
v 0.106883 -0.057354 0.068382
vt 0.449941 0.362470
vn 0.043400 0.673727 0.737705
v 0.098064 -0.028408 0.068382
vt 0.444156 0.395740
vn 0.033841 0.686328 0.726504
v 0.105928 -0.085537 0.095174
vt 0.870338 0.784932
vn 0.070231 0.023966 0.997243
v 0.106801 -0.059904 0.095174
vt 0.841444 0.787360
vn 0.051104 0.022159 0.998447
v 0.133486 -0.085537 0.095174
vt 0.871624 0.816077
vn 0.078924 0.031046 0.996397
v 0.145723 -0.051847 0.095174
vt 0.832233 0.834647
vn -0.065607 0.026213 0.997501
v 0.105928 -0.085537 0.039356
vt 0.477358 0.904124
vn 0.007520 0.021586 0.999739
v 0.106209 -0.060208 0.039356
vt 0.448539 0.905164
vn -0.022269 0.029066 0.999329
v 0.105928 -0.085537 0.095174
vt 0.479650 0.967630
vn 0.006126 0.020917 0.999762
v 0.106801 -0.059904 0.095174
vt 0.450470 0.968686
vn -0.022268 0.029033 0.999330
v 0.116306 -0.039232 0.095897
vt 0.818686 0.798443
vn -0.091884 0.038412 0.995029
v 0.153008 -0.026609 0.095174
vt 0.802366 0.838029
vn -0.111555 0.054602 0.992257
v 0.106209 -0.060208 0.039356
vt 0.448539 0.905164
vn -0.349420 0.194533 0.916549
v 0.114559 -0.026609 0.039356
vt 0.409143 0.906395
vn -0.349546 0.194395 0.916530
v 0.106801 -0.059904 0.095174
vt 0.450470 0.968686
vn -0.349703 0.194161 0.916520
v 0.116306 -0.039232 0.095897
vt 0.424620 0.970539
vn -0.349818 0.193972 0.916516
v 0.122494 -0.017843 0.095488
vt 0.793624 0.803177
vn -0.068589 0.039225 0.996874
v 0.124368 0.000000 0.095174
vt 0.772397 0.804375
vn -0.000015 0.000015 1.000000
v 0.156012 0.000000 0.095174
vt 0.772397 0.839153
vn -0.000015 0.000015 1.000000
v 0.156012 0.000000 0.039356
vt 0.772397 0.902256
vn -0.000015 0.000015 1.000000
v 0.153008 -0.026609 0.095174
vt 0.802366 0.838029
vn -0.275750 0.090302 0.956978
v 0.145723 -0.051847 0.095174
vt 0.832233 0.834647
vn -0.258995 0.090787 0.961602
v 0.148376 -0.051854 0.039566
vt 0.832512 0.900599
vn -0.208713 0.092037 0.973637
v 0.114559 -0.026609 0.039356
vt 0.409143 0.906395
vn -0.137241 0.078562 0.987417
v 0.115198 0.000000 0.039356
vt 0.378841 0.906545
vn -0.000015 0.000015 1.000000
v 0.116306 -0.039232 0.095897
vt 0.424620 0.970539
vn -0.137773 0.077540 0.987424
v 0.122494 -0.017843 0.095488
vt 0.399270 0.970952
vn -0.137582 0.077997 0.987415
v 0.124368 0.000000 0.095174
vt 0.378841 0.970944
vn -0.000015 0.000015 1.000000
v 0.106785 -0.096348 0.094097
vt 0.882758 0.785306
vn 0.150390 0.024766 0.988317
v 0.130555 -0.096348 0.094097
vt 0.883921 0.812373
vn 0.136587 0.018050 0.990464
v 0.106785 -0.096348 0.039356
vt 0.489697 0.903679
vn 0.080566 0.058655 0.995022
v 0.106785 -0.096348 0.094097
vt 0.491945 0.965959
vn 0.080569 0.058691 0.995020
v 0.115346 -0.134078 0.043124
vt 0.955602 0.791920
vn 0.828180 0.021315 0.560057
v 0.106785 -0.096348 0.094097
vt 0.882758 0.785306
vn 0.827845 0.021012 0.560564
v 0.125086 -0.134078 0.043123
vt 0.956082 0.803042
vn 0.828075 0.021228 0.560216
v 0.130555 -0.096348 0.094097
vt 0.883921 0.812373
vn 0.827792 0.020968 0.560643
v 0.115346 -0.134078 0.043124
vt 0.533869 0.906376
vn 0.240786 0.140051 0.960421
v 0.106785 -0.096348 0.039356
vt 0.489697 0.903679
vn 0.240786 0.140051 0.960421
v 0.106785 -0.096348 0.094097
vt 0.491945 0.965959
vn 0.240786 0.140051 0.960421
v 0.136918 -0.057041 0.068382
vt 0.485099 0.360558
vn 0.704112 0.092462 -0.704043
v 0.106883 -0.057354 0.068382
vt 0.449941 0.362470
vn 0.704862 0.079823 -0.704839
v 0.115346 -0.134078 0.043124
vt 0.974711 0.870606
vn -0.824552 0.000934 -0.565786
v 0.136116 -0.134078 0.043123
vt 0.951561 0.875853
vn -0.824518 0.000934 -0.565835
v 0.115346 -0.134397 -0.041721
vt 0.996197 0.965206
vn -0.824485 0.000934 -0.565883
v 0.139424 -0.134397 -0.041721
vt 0.969358 0.971282
vn -0.824451 0.000934 -0.565932
v 0.130555 -0.096348 0.094097
vt 0.298248 0.621904
vn 0.544207 0.068930 0.836114
v 0.133486 -0.085537 0.095174
vt 0.287255 0.628670
vn 0.543041 0.071781 0.836632
v 0.153855 -0.089284 0.077159
vt 0.303889 0.657929
vn 0.540668 0.033173 0.840582
v 0.128917 -0.100713 0.073219
vt 0.320138 0.631815
vn -0.812357 0.023221 0.582698
v 0.130555 -0.096348 0.094097
vt 0.298248 0.621904
vn -0.833098 0.034863 0.552026
v 0.129533 -0.096133 0.088424
vt 0.303758 0.625821
vn 0.858706 0.054514 0.509561
v 0.126706 -0.117199 0.055300
vt 0.347035 0.629633
vn -0.841208 0.041504 0.539117
v 0.128377 -0.106743 0.064899
vt 0.331499 0.632271
vn -0.846239 0.047940 0.530642
v 0.125086 -0.134078 0.043123
vt 0.369494 0.623032
vn -0.840864 0.041064 0.539686
v 0.145723 -0.051847 0.095174
vt 0.832233 0.834647
vn 0.881749 0.418841 0.217004
v 0.148376 -0.051854 0.039566
vt 0.832512 0.900599
vn 0.873385 0.413994 0.256529
v 0.174640 -0.072314 0.052718
vt 0.868344 0.883317
vn 0.874149 0.414454 0.253161
v 0.126122 -0.028899 0.093979
vt 0.277664 0.355454
vn 0.020349 0.999587 -0.020302
v 0.115572 0.000000 0.093979
vt 0.312363 0.372054
vn -0.000015 1.000000 0.000015
v 0.124767 0.000000 0.093979
vt 0.312363 0.360607
vn -0.000015 1.000000 0.000015
v 0.096150 -0.030253 0.090630
vt 0.275884 0.388288
vn 0.005059 0.999752 0.021694
v 0.097198 -0.020925 0.090630
vt 0.285869 0.388203
vn 0.103172 0.981012 -0.164226
v 0.099537 -0.030100 0.093979
vt 0.276059 0.384475
vn 0.008786 0.999729 0.021581
v 0.100467 -0.021826 0.093979
vt 0.285228 0.384248
vn 0.098505 0.980785 -0.168395
v 0.103908 -0.014244 0.093979
vt 0.294197 0.382512
vn 0.201648 0.907348 -0.368861
v 0.101078 -0.012377 0.090630
vt 0.295854 0.387061
vn 0.211982 0.907583 -0.362432
v 0.110551 -0.006973 0.093979
vt 0.303880 0.377552
vn 0.177188 0.923832 -0.339321
v 0.107409 -0.005447 0.090630
vt 0.305865 0.385037
vn 0.186560 0.921753 -0.339951
v 0.112177 0.000000 0.093979
vt 0.312363 0.376790
vn 0.000000 1.000000 -0.000015
v 0.108782 0.000000 0.090630
vt 0.312363 0.384470
vn 0.000000 1.000000 -0.000015
v 0.152706 -0.027697 0.093979
vt 0.239138 0.586157
vn 0.978008 0.119619 -0.170853
v 0.151034 -0.019541 0.093979
vt 0.236120 0.595215
vn 0.978264 0.139386 -0.153527
v 0.156094 -0.027544 0.090630
vt 0.243968 0.587086
vn 0.978229 0.121824 -0.168011
v 0.154208 -0.018349 0.090630
vt 0.243116 0.597649
vn 0.978671 0.149188 -0.141229
v 0.151776 -0.035971 0.093979
vt 0.239923 0.576729
vn 0.980930 0.145988 -0.128310
v 0.155045 -0.036872 0.090630
vt 0.244312 0.576659
vn 0.980513 0.137555 -0.140262
v 0.148335 -0.043553 0.093979
vt 0.239079 0.567317
vn 0.980142 0.175733 -0.091864
v 0.151165 -0.045420 0.090630
vt 0.243915 0.566292
vn 0.980208 0.173343 -0.095631
v 0.142719 -0.049700 0.093979
vt 0.236025 0.558233
vn 0.979256 0.171545 -0.107840
v 0.144834 -0.052350 0.090630
vt 0.243013 0.555924
vn 0.979261 0.176104 -0.100179
v 0.105321 -0.045496 0.093979
vt 0.258056 0.380627
vn -0.255936 0.966513 -0.018692
v 0.111468 -0.051112 0.093979
vt 0.250027 0.375242
vn -0.358510 0.916636 -0.176774
v 0.102670 -0.047611 0.090630
vt 0.255957 0.385440
vn -0.276522 0.957375 -0.083483
v 0.109600 -0.053942 0.090630
vt 0.245904 0.383051
vn -0.392859 0.874725 -0.283756
v 0.101210 -0.038256 0.093979
vt 0.266918 0.383353
vn -0.144877 0.989430 0.006178
v 0.098035 -0.039448 0.090630
vt 0.265909 0.387335
vn -0.154546 0.987805 -0.018871
v 0.097198 -0.020925 0.090630
vt 0.285869 0.388203
vn 0.099973 0.982887 -0.154719
v 0.097198 -0.020925 0.033974
vt 0.282643 0.452186
vn 0.119556 0.990100 -0.073535
v 0.101078 -0.012377 0.090630
vt 0.295854 0.387061
vn 0.283626 0.856919 -0.430401
v 0.098517 -0.012377 0.033974
vt 0.292922 0.452652
vn 0.302707 0.911583 -0.278180
v 0.107409 -0.005447 0.090630
vt 0.305865 0.385037
vn 0.394346 0.721741 -0.568842
v 0.107409 -0.005447 0.033974
vt 0.306062 0.452887
vn 0.437176 0.797595 -0.415595
v 0.154208 -0.018349 0.090630
vt 0.243116 0.597649
vn 0.999947 0.001157 0.010263
v 0.154208 -0.018349 0.033974
vt 0.308189 0.598392
vn 0.999970 0.000846 0.007648
v 0.156094 -0.027544 0.090630
vt 0.243968 0.587086
vn 0.999954 0.000200 0.009630
v 0.156094 -0.027544 0.033974
vt 0.308318 0.587627
vn 0.999990 0.000077 0.004491
v 0.155045 -0.036872 0.090630
vt 0.244312 0.576659
vn -0.999995 0.000505 0.003139
v 0.155045 -0.036872 0.033974
vt 0.308378 0.576659
vn 0.000583 0.004201 -0.999991
v 0.151165 -0.045420 0.090630
vt 0.243915 0.566292
vn 0.001566 0.004729 -0.999988
v 0.151165 -0.045420 0.033974
vt 0.308312 0.565637
vn 0.003748 0.011369 -0.999928
v 0.144834 -0.052350 0.090630
vt 0.243013 0.555924
vn 0.003830 0.008340 -0.999958
v 0.144834 -0.052350 0.033974
vt 0.308134 0.554695
vn 0.006256 0.013663 -0.999887
v 0.109600 -0.053942 0.090630
vt 0.245904 0.383051
vn -0.457644 0.854320 -0.246371
v 0.109600 -0.053942 0.033974
vt 0.238472 0.448142
vn -0.450488 0.834525 -0.317219
v 0.102670 -0.047611 0.090630
vt 0.255957 0.385440
vn -0.379109 0.904132 -0.197031
v 0.102670 -0.047611 0.033974
vt 0.249176 0.449386
vn -0.368985 0.894956 -0.250805
v 0.098035 -0.039448 0.090630
vt 0.265909 0.387335
vn -0.219902 0.970448 -0.099363
v 0.098035 -0.039448 0.033974
vt 0.260194 0.450543
vn -0.211935 0.970278 -0.116810
v 0.096150 -0.030253 0.090630
vt 0.275884 0.388288
vn -0.041739 0.999127 -0.001575
v 0.096150 -0.030253 0.033974
vt 0.271396 0.451490
vn -0.042545 0.998994 0.014192
v 0.100467 -0.021826 0.093979
vt 0.285228 0.384248
vn 0.080023 0.993577 -0.080005
v 0.103908 -0.014244 0.093979
vt 0.294197 0.382512
vn 0.121828 0.985048 -0.121809
v 0.110551 -0.006973 0.093979
vt 0.303880 0.377552
vn 0.079375 0.993684 -0.079322
v 0.129501 -0.030093 0.093979
vt 0.213418 0.576567
vn 0.908446 0.319313 -0.269751
v 0.151034 -0.019541 0.093979
vt 0.236120 0.595215
vn 0.904503 0.301363 -0.301754
v 0.152706 -0.027697 0.093979
vt 0.239138 0.586157
vn 0.906517 0.309909 -0.286676
v 0.151776 -0.035971 0.093979
vt 0.239923 0.576729
vn 0.908353 0.318874 -0.270581
v 0.148335 -0.043553 0.093979
vt 0.239079 0.567317
vn 0.909968 0.328253 -0.253394
v 0.142719 -0.049700 0.093979
vt 0.236025 0.558233
vn 0.911145 0.336852 -0.237374
v 0.111468 -0.051112 0.093979
vt 0.250027 0.375242
vn -0.091809 0.991537 -0.091791
v 0.105321 -0.045496 0.093979
vt 0.258056 0.380627
vn -0.096778 0.990588 -0.096797
v 0.101210 -0.038256 0.093979
vt 0.266918 0.383353
vn -0.070476 0.995024 -0.070424
v 0.099537 -0.030100 0.093979
vt 0.276059 0.384475
vn 0.002176 0.999995 -0.002130
v 0.107409 -0.005447 0.090630
vt 0.305865 0.385037
vn 0.122554 0.972336 -0.198854
v 0.108782 0.000000 0.033974
vt 0.312363 0.453091
vn 0.000000 1.000000 -0.000015
v 0.107409 -0.005447 0.033974
vt 0.306062 0.452887
vn 0.135320 0.985179 -0.105409
v 0.163437 0.037566 0.056180
vt 0.765366 0.452928
vn 0.012325 0.669203 0.742977
v 0.163437 0.037566 0.064372
vt 0.774980 0.452315
vn 0.010751 0.674167 0.738501
v 0.163437 0.037566 0.056180
vt 0.765366 0.452928
vn -0.000323 0.660994 0.750391
v 0.163437 0.037566 0.064372
vt 0.774980 0.452315
vn -0.000912 0.562757 0.826622
v 0.163528 0.065528 0.056180
vt 0.757715 0.422088
vn -0.000829 0.573415 0.819265
v 0.163528 0.065528 0.064372
vt 0.766794 0.419712
vn -0.000912 0.560222 0.828342
v 0.163437 0.037566 0.064372
vt 0.774980 0.452315
vn -0.748641 0.165657 -0.641946
v 0.137332 0.032699 0.066487
vt 0.805932 0.459346
vn -0.751487 0.142617 -0.644148
v 0.163528 0.065528 0.071216
vt 0.774638 0.417863
vn -0.871353 0.285766 -0.398851
v 0.163447 0.040629 0.071216
vt 0.779283 0.445222
vn -0.854390 0.250594 -0.455216
v 0.135386 0.065528 0.073331
vt 0.806878 0.413316
vn -0.855264 0.252204 -0.452676
v 0.137332 0.032699 0.073331
vt 0.808637 0.451876
vn -0.836278 0.218839 -0.502741
v 0.163528 0.065528 0.071216
vt 0.774638 0.417863
vn -0.000993 0.545544 0.838082
v 0.163447 0.040629 0.071216
vt 0.779283 0.445222
vn -0.001497 0.449632 0.893213
v 0.163437 0.037566 0.064372
vt 0.774980 0.452315
vn -0.835610 0.534059 -0.128599
v 0.137332 0.032699 0.066487
vt 0.805932 0.459346
vn -0.852429 0.499205 -0.155432
v 0.163447 0.040629 0.071216
vt 0.779283 0.445222
vn -0.838866 0.527685 -0.133615
v 0.137332 0.032699 0.073331
vt 0.808637 0.451876
vn -0.855543 0.492150 -0.160728
v 0.174640 0.072313 0.052718
vt 0.676450 0.883317
vn -0.910751 0.358808 0.204426
v 0.145723 0.051847 0.095174
vt 0.712561 0.834647
vn -0.910751 0.358808 0.204426
v 0.165849 0.066603 0.077159
vt 0.686230 0.857346
vn -0.910751 0.358808 0.204426
v 0.165849 0.066603 0.077159
vt 0.686230 0.857346
vn 0.106498 0.199266 0.974141
v 0.153855 0.089284 0.077159
vt 0.661123 0.845203
vn 0.134528 0.204537 0.969570
v 0.174640 0.072313 0.052718
vt 0.676450 0.883317
vn 0.419712 0.352169 0.836552
v 0.160234 0.097190 0.061955
vt 0.647295 0.864978
vn 0.450390 0.331187 0.829135
v 0.145723 0.051847 0.095174
vt 0.712561 0.834647
vn 0.005937 0.137967 0.990419
v 0.133486 0.085537 0.095174
vt 0.673170 0.816077
vn -0.011004 0.146344 0.989173
v 0.178447 0.074787 -0.041721
vt 0.655756 0.987570
vn -0.809989 0.481974 0.334094
v 0.152255 0.051864 -0.041721
vt 0.695275 0.993287
vn -0.816424 0.475809 0.327197
v 0.174640 0.072313 0.052718
vt 0.676450 0.883317
vn -0.841615 0.455097 0.290809
v 0.148376 0.051854 0.039566
vt 0.712282 0.900599
vn -0.844169 0.450854 0.290016
v 0.154324 0.118165 -0.041721
vt 0.600087 0.976463
vn 0.593856 0.406135 0.694543
v 0.178447 0.074787 -0.041721
vt 0.655756 0.987570
vn 0.505370 0.363109 0.782785
v 0.150560 0.117199 0.048120
vt 0.619249 0.875506
vn 0.577920 0.398188 0.712359
v 0.156487 0.107124 0.053635
vt 0.633592 0.871988
vn 0.497608 0.355111 0.791380
v 0.139424 0.134397 -0.041721
vt 0.575437 0.971284
vn 0.695834 0.458220 0.553036
v 0.136116 0.134078 0.043123
vt 0.593233 0.875854
vn 0.695158 0.458706 0.553484
v 0.153855 0.089284 0.077159
vt 0.303921 0.657971
vn -0.126283 -0.453769 -0.882126
v 0.130555 0.096348 0.094097
vt 0.298268 0.621947
vn -0.300668 -0.093554 -0.949129
v 0.129533 0.096133 0.088424
vt 0.303780 0.625862
vn -0.221803 -0.398168 -0.890093
v 0.160234 0.097190 0.061955
vt 0.323389 0.668881
vn -0.061435 -0.561887 -0.824930
v 0.128917 0.100713 0.073219
vt 0.320162 0.631851
vn -0.089062 -0.531249 -0.842521
v 0.156487 0.107124 0.053635
vt 0.339329 0.665008
vn -0.005067 -0.700517 -0.713618
v 0.128377 0.106743 0.064899
vt 0.331523 0.632303
vn -0.005328 -0.698851 -0.715247
v 0.136116 0.134078 0.043123
vt 0.371520 0.636329
vn 0.061255 -0.812680 -0.579481
v 0.150560 0.117199 0.048120
vt 0.353113 0.657352
vn 0.041290 -0.758623 -0.650220
v 0.125086 0.134078 0.043123
vt 0.369516 0.623052
vn 0.083420 -0.795377 -0.600347
v 0.126706 0.117199 0.055300
vt 0.347058 0.629660
vn 0.059507 -0.757112 -0.650569
v 0.098517 0.000000 0.039356
vt 0.411344 0.427188
vn -0.000626 0.726724 0.686929
v 0.098064 0.028408 0.068382
vt 0.444156 0.458637
vn -0.000626 0.726221 0.687461
v 0.098064 0.028408 0.039356
vt 0.411923 0.460556
vn -0.001229 0.744289 0.667857
v 0.098064 0.028408 0.068382
vt 0.444156 0.458637
vn 0.752125 0.047394 -0.657314
v 0.138864 0.031011 0.068382
vt 0.489691 0.463956
vn 0.775571 0.074317 -0.626870
v 0.106883 0.057354 0.068382
vt 0.449941 0.491907
vn 0.779731 0.079319 -0.621070
v 0.136918 0.057041 0.068382
vt 0.485099 0.493819
vn 0.789806 0.091682 -0.606466
v 0.098064 0.028408 0.068382
vt 0.444156 0.458637
vn 0.033756 0.758387 0.650930
v 0.098064 0.028408 0.039356
vt 0.411923 0.460556
vn 0.042751 0.776527 0.628632
v 0.106883 0.057354 0.068382
vt 0.449941 0.491907
vn 0.043199 0.777431 0.627482
v 0.106366 0.057364 0.039356
vt 0.416029 0.495649
vn 0.051714 0.794005 0.605708
v 0.145723 0.051847 0.095174
vt 0.712561 0.834647
vn 0.052129 0.032566 0.998109
v 0.106801 0.059904 0.095174
vt 0.703350 0.787359
vn -0.044262 0.025449 0.998696
v 0.133486 0.085537 0.095174
vt 0.673170 0.816077
vn -0.061647 0.039160 0.997329
v 0.105928 0.085537 0.095174
vt 0.674456 0.784932
vn -0.047536 0.034774 0.998264
v 0.106801 0.059904 0.095174
vt 0.307213 0.968686
vn 0.059108 0.011300 0.998188
v 0.106209 0.060208 0.039356
vt 0.309144 0.905164
vn 0.059108 0.011300 0.998188
v 0.105928 0.085537 0.095174
vt 0.278032 0.967630
vn -0.042582 0.003109 0.999088
v 0.105928 0.085537 0.039356
vt 0.280324 0.904124
vn -0.044008 0.003818 0.999024
v 0.153008 0.026609 0.095174
vt 0.742428 0.838029
vn 0.109116 0.055715 0.992466
v 0.116306 0.039232 0.095897
vt 0.726108 0.798443
vn 0.076304 0.045598 0.996041
v 0.148376 0.051854 0.039566
vt 0.712282 0.900599
vn 0.182558 0.103456 0.977737
v 0.145723 0.051847 0.095174
vt 0.712561 0.834647
vn 0.177183 0.126303 0.976040
v 0.153008 0.026609 0.095174
vt 0.742428 0.838029
vn 0.175415 0.133820 0.975357
v 0.116306 0.039232 0.095897
vt 0.333062 0.970539
vn 0.390664 0.176094 0.903533
v 0.114559 0.026609 0.039356
vt 0.348539 0.906395
vn 0.391529 0.175960 0.903185
v 0.106801 0.059904 0.095174
vt 0.307213 0.968686
vn 0.391070 0.176025 0.903371
v 0.106209 0.060208 0.039356
vt 0.309144 0.905164
vn 0.391839 0.175934 0.903055
v 0.122494 0.017843 0.095488
vt 0.751170 0.803177
vn 0.078847 0.034420 0.996292
v 0.122494 0.017843 0.095488
vt 0.358413 0.970952
vn 0.157073 0.069229 0.985158
v 0.116306 0.039232 0.095897
vt 0.333062 0.970539
vn 0.156175 0.069339 0.985292
v 0.114559 0.026609 0.039356
vt 0.348539 0.906395
vn 0.158342 0.069098 0.984964
v 0.130555 0.096348 0.094097
vt 0.660873 0.812373
vn -0.034679 0.065457 0.997253
v 0.106785 0.096348 0.094097
vt 0.662036 0.785305
vn -0.047597 0.072153 0.996257
v 0.106785 0.096348 0.094097
vt 0.265738 0.965960
vn -0.119215 0.040910 0.992025
v 0.106785 0.096348 0.039356
vt 0.267985 0.903679
vn -0.119253 0.040912 0.992021
v 0.130555 0.096348 0.094097
vt 0.660873 0.812373
vn -0.040417 0.397860 0.916556
v 0.106785 0.096348 0.094097
vt 0.662036 0.785305
vn -0.040459 0.397874 0.916547
v 0.125086 0.134078 0.043123
vt 0.588712 0.803042
vn -0.040933 0.398183 0.916393
v 0.115346 0.134078 0.043124
vt 0.589192 0.791919
vn -0.041062 0.398226 0.916368
v 0.106785 0.096348 0.094097
vt 0.265738 0.965960
vn -0.283263 0.121753 0.951282
v 0.106785 0.096348 0.039356
vt 0.267985 0.903679
vn -0.283263 0.121753 0.951282
v 0.115346 0.134078 0.043124
vt 0.223813 0.906377
vn -0.283263 0.121753 0.951282
v 0.139424 0.134397 -0.041721
vt 0.575437 0.971284
vn 0.807958 0.299017 -0.507733
v 0.136116 0.134078 0.043123
vt 0.593233 0.875854
vn 0.807974 0.299122 -0.507645
v 0.115346 0.134397 -0.041721
vt 0.548598 0.965207
vn 0.807958 0.299017 -0.507733
v 0.115346 0.134078 0.043124
vt 0.570083 0.870607
vn 0.807983 0.299174 -0.507601
v 0.153855 0.089284 0.077159
vt 0.303921 0.657971
vn 0.032924 -0.864095 -0.502251
v 0.133486 0.085537 0.095174
vt 0.287278 0.628717
vn 0.070089 -0.885336 -0.459639
v 0.130555 0.096348 0.094097
vt 0.298268 0.621947
vn 0.067396 -0.883187 -0.464153
v 0.129533 0.096133 0.088424
vt 0.303780 0.625862
vn 0.055341 -0.573180 -0.817558
v 0.130555 0.096348 0.094097
vt 0.298268 0.621947
vn -0.035143 -0.591785 -0.805329
v 0.128917 0.100713 0.073219
vt 0.320162 0.631851
vn -0.023354 -0.608565 -0.793161
v 0.128377 0.106743 0.064899
vt 0.331523 0.632303
vn -0.048541 -0.585843 -0.808970
v 0.126706 0.117199 0.055300
vt 0.347058 0.629660
vn -0.041981 -0.586766 -0.808668
v 0.125086 0.134078 0.043123
vt 0.369516 0.623052
vn -0.041530 -0.586816 -0.808654
v 0.145723 0.051847 0.095174
vt 0.712561 0.834647
vn -0.858000 0.451567 0.244794
v 0.126122 0.028898 0.093979
vt 0.347062 0.355454
vn -0.020350 0.999586 -0.020334
v 0.100467 0.021826 0.093979
vt 0.339498 0.384248
vn -0.125822 0.990244 -0.059878
v 0.097198 0.020925 0.090630
vt 0.338857 0.388202
vn -0.126985 0.989504 -0.068973
v 0.099537 0.030100 0.093979
vt 0.348667 0.384475
vn -0.004499 0.998320 -0.057758
v 0.096150 0.030253 0.090630
vt 0.348842 0.388289
vn -0.002572 0.998637 -0.052124
v 0.101078 0.012377 0.090630
vt 0.328872 0.387062
vn -0.259992 0.957645 -0.123774
v 0.103908 0.014244 0.093979
vt 0.330528 0.382512
vn -0.255185 0.961119 -0.105507
v 0.107409 0.005447 0.090630
vt 0.318860 0.385037
vn -0.236692 0.966557 -0.098718
v 0.110551 0.006973 0.093979
vt 0.320846 0.377552
vn -0.230531 0.969280 -0.085743
v 0.154208 0.018349 0.090630
vt 0.243248 0.555493
vn 0.325816 0.167361 -0.930502
v 0.151034 0.019541 0.093979
vt 0.236252 0.557927
vn 0.325697 0.154977 -0.932686
v 0.156094 0.027544 0.090630
vt 0.244100 0.566056
vn 0.317776 0.133541 -0.938715
v 0.152706 0.027697 0.093979
vt 0.239270 0.566985
vn 0.317845 0.130823 -0.939074
v 0.155045 0.036872 0.090630
vt 0.244444 0.576484
vn 0.309366 0.153016 -0.938551
v 0.151776 0.035971 0.093979
vt 0.240055 0.576413
vn 0.307939 0.163730 -0.937212
v 0.151165 0.045420 0.090630
vt 0.244047 0.586850
vn 0.309924 0.199808 -0.929529
v 0.148335 0.043553 0.093979
vt 0.239211 0.585826
vn 0.309078 0.203076 -0.929102
v 0.144834 0.052350 0.090630
vt 0.243144 0.597218
vn 0.318603 0.203081 -0.925878
v 0.142719 0.049700 0.093979
vt 0.236157 0.594909
vn 0.320580 0.196798 -0.926552
v 0.109600 0.053942 0.090630
vt 0.378822 0.383051
vn 0.356394 0.806763 -0.471293
v 0.111468 0.051112 0.093979
vt 0.374698 0.375242
vn 0.296688 0.814810 -0.498057
v 0.102670 0.047611 0.090630
vt 0.368769 0.385441
vn 0.207128 0.879289 -0.428893
v 0.105321 0.045496 0.093979
vt 0.366670 0.380627
vn 0.165224 0.877335 -0.450538
v 0.098035 0.039448 0.090630
vt 0.358816 0.387334
vn 0.097906 0.962958 -0.251251
v 0.101210 0.038256 0.093979
vt 0.357808 0.383354
vn 0.082951 0.961137 -0.263316
v 0.098517 0.012377 0.033974
vt 0.331804 0.452652
vn -0.294889 0.900480 -0.319648
v 0.097198 0.020925 0.033974
vt 0.342082 0.452186
vn -0.100650 0.983778 -0.148492
v 0.101078 0.012377 0.090630
vt 0.328872 0.387062
vn -0.328804 0.924335 -0.193631
v 0.097198 0.020925 0.090630
vt 0.338857 0.388202
vn -0.121532 0.990166 -0.069290
v 0.107409 0.005447 0.033974
vt 0.318663 0.452887
vn -0.429693 0.782085 -0.451340
v 0.107409 0.005447 0.090630
vt 0.318860 0.385037
vn -0.453187 0.843333 -0.288811
v 0.156094 0.027544 0.033974
vt 0.308450 0.565515
vn 0.000123 0.004569 -0.999990
v 0.154208 0.018349 0.033974
vt 0.308320 0.554750
vn 0.000893 0.008502 -0.999963
v 0.156094 0.027544 0.090630
vt 0.244100 0.566056
vn 0.000247 0.009833 -0.999952
v 0.154208 0.018349 0.090630
vt 0.243248 0.555493
vn 0.001174 0.011402 -0.999934
v 0.155045 0.036872 0.033974
vt 0.308510 0.576484
vn 0.999993 0.000567 0.003662
v 0.155045 0.036872 0.090630
vt 0.244444 0.576484
vn -0.000521 0.003647 -0.999993
v 0.151165 0.045420 0.033974
vt 0.308444 0.587506
vn 0.999964 0.003719 0.007608
v 0.151165 0.045420 0.090630
vt 0.244047 0.586850
vn 0.999994 0.001548 0.003204
v 0.144834 0.052350 0.033974
vt 0.308266 0.598447
vn 0.999954 0.006171 0.007408
v 0.144834 0.052350 0.090630
vt 0.243144 0.597218
vn 0.999983 0.003769 0.004539
v 0.102670 0.047611 0.033974
vt 0.375549 0.449386
vn 0.329860 0.826814 -0.455599
v 0.109600 0.053942 0.033974
vt 0.386254 0.448142
vn 0.403140 0.736591 -0.543058
v 0.102670 0.047611 0.090630
vt 0.368769 0.385441
vn 0.317087 0.794830 -0.517398
v 0.109600 0.053942 0.090630
vt 0.378822 0.383051
vn 0.380709 0.695626 -0.609232
v 0.098035 0.039448 0.033974
vt 0.364532 0.450543
vn 0.177203 0.943588 -0.279717
v 0.098035 0.039448 0.090630
vt 0.358816 0.387334
vn 0.175617 0.934980 -0.308174
v 0.096150 0.030253 0.033974
vt 0.353330 0.451490
vn 0.022487 0.995006 -0.097245
v 0.096150 0.030253 0.090630
vt 0.348842 0.388289
vn 0.022538 0.997679 -0.064256
v 0.103908 0.014244 0.093979
vt 0.330528 0.382512
vn -0.121832 0.985043 -0.121851
v 0.100467 0.021826 0.093979
vt 0.339498 0.384248
vn -0.080025 0.993574 -0.080043
v 0.110551 0.006973 0.093979
vt 0.320846 0.377552
vn -0.079378 0.993681 -0.079360
v 0.152706 0.027697 0.093979
vt 0.239270 0.566985
vn 0.663759 0.344791 -0.663734
v 0.151034 0.019541 0.093979
vt 0.236252 0.557927
vn 0.666740 0.333192 -0.666664
v 0.129501 0.030093 0.093979
vt 0.213549 0.576576
vn 0.660319 0.357948 -0.660191
v 0.151776 0.035971 0.093979
vt 0.240055 0.576413
vn 0.660462 0.357324 -0.660386
v 0.148335 0.043553 0.093979
vt 0.239211 0.585826
vn 0.656789 0.370616 -0.656712
v 0.142719 0.049700 0.093979
vt 0.236157 0.594909
vn 0.653181 0.383071 -0.653155
v 0.105321 0.045496 0.093979
vt 0.366670 0.380627
vn 0.096769 0.990600 -0.096679
v 0.111468 0.051112 0.093979
vt 0.374698 0.375242
vn 0.091806 0.991541 -0.091752
v 0.101210 0.038256 0.093979
vt 0.357808 0.383354
vn 0.070474 0.995027 -0.070388
v 0.099537 0.030100 0.093979
vt 0.348667 0.384475
vn -0.002145 0.999995 -0.002130
v 0.107409 0.005447 0.033974
vt 0.318663 0.452887
vn -0.123548 0.980284 -0.154205
v 0.107409 0.005447 0.090630
vt 0.318860 0.385037
vn -0.151030 0.985346 -0.079262
v 0.141320 0.105586 0.069827
vt 0.197907 0.496365
vn -0.715016 0.252606 -0.651876
v 0.144698 0.105586 0.071226
vt 0.193946 0.497111
vn -0.343140 0.286214 -0.894615
v 0.141320 0.111727 0.071873
vt 0.199697 0.503726
vn -0.712287 0.286836 -0.640603
v 0.143252 0.111727 0.072673
vt 0.197205 0.504281
vn -0.344489 0.321155 -0.882149
v 0.137942 0.105586 0.071226
vt 0.201485 0.495988
vn -0.667400 0.744553 0.014738
v 0.139389 0.111727 0.072673
vt 0.202438 0.503491
vn -0.668167 0.743871 0.014431
v 0.136543 0.105586 0.074604
vt 0.204983 0.495816
vn 0.009490 0.725800 0.687841
v 0.138589 0.111727 0.074604
vt 0.205350 0.503417
vn 0.005523 0.718078 0.695941
v 0.137942 0.105586 0.077982
vt 0.208462 0.495803
vn 0.705210 0.708752 0.018691
v 0.139389 0.111727 0.076536
vt 0.208347 0.503441
vn 0.704001 0.709594 0.029305
v 0.141320 0.105586 0.079382
vt 0.211939 0.495936
vn 0.781605 0.094284 -0.616607
v 0.141320 0.111727 0.077336
vt 0.211350 0.503541
vn 0.790310 0.106831 -0.603322
v 0.144698 0.105586 0.077982
vt 0.215429 0.496225
vn 0.970067 0.079918 -0.229311
v 0.143252 0.111727 0.076536
vt 0.214277 0.503726
vn 0.971427 0.087836 -0.220488
v 0.146098 0.105586 0.074604
vt 0.218983 0.496711
vn 0.991517 0.025443 0.127461
v 0.144052 0.111727 0.074604
vt 0.217042 0.504043
vn 0.992253 0.024337 0.121823
v 0.144698 0.105586 0.071226
vt 0.222873 0.497563
vn -0.976148 0.215661 0.025010
v 0.143252 0.111727 0.072673
vt 0.219562 0.504458
vn -0.975997 0.217724 0.005214
v 0.143252 0.111727 0.072673
vt 0.219562 0.504458
vn -0.123211 0.000000 -0.992380
v 0.141320 0.111727 0.074604
vt 0.217686 0.507429
vn -0.144446 0.000000 -0.989513
v 0.141320 0.111727 0.071873
vt 0.220923 0.506394
vn -0.138799 0.000000 -0.990321
v 0.139389 0.111727 0.072673
vt 0.220742 0.508950
vn -0.139493 0.000000 -0.990223
v 0.138589 0.111727 0.074604
vt 0.218825 0.510644
vn -0.145651 0.000000 -0.989336
v 0.139389 0.111727 0.076536
vt 0.216267 0.510520
vn -0.153589 0.000000 -0.988135
v 0.141320 0.111727 0.077336
vt 0.214513 0.508625
vn -0.155911 0.000000 -0.987771
v 0.143252 0.111727 0.076536
vt 0.214601 0.506008
vn -0.160975 0.000000 -0.986958
v 0.144052 0.111727 0.074604
vt 0.217042 0.504043
vn -0.137298 0.000000 -0.990530
v 0.141320 0.102937 0.070884
vt 0.197375 0.492490
vn -0.696531 0.172210 -0.696555
v 0.143951 0.102937 0.071974
vt 0.193753 0.493002
vn -0.313582 0.129843 -0.940642
v 0.141320 0.104884 0.070884
vt 0.197731 0.495031
vn -0.696376 0.173461 -0.696400
v 0.143951 0.104884 0.071974
vt 0.194167 0.495524
vn -0.313621 0.128284 -0.940843
v 0.138690 0.102937 0.071974
vt 0.201127 0.492175
vn -0.672545 0.740056 0.000022
v 0.138690 0.104884 0.071974
vt 0.201351 0.494681
vn -0.671350 0.741140 -0.000022
v 0.137600 0.102937 0.074604
vt 0.204839 0.492017
vn -0.000022 0.724407 0.689372
v 0.137600 0.104884 0.074604
vt 0.204928 0.494510
vn -0.000022 0.725038 0.688709
v 0.138690 0.102937 0.077235
vt 0.208520 0.492006
vn 0.706988 0.706988 0.018293
v 0.138690 0.104884 0.077235
vt 0.208481 0.494495
vn 0.706990 0.706990 0.018204
v 0.141320 0.102937 0.078324
vt 0.212198 0.492138
vn 0.785692 0.086594 -0.612527
v 0.141320 0.104884 0.078324
vt 0.212032 0.494630
vn 0.786745 0.087864 -0.610993
v 0.143951 0.102937 0.077235
vt 0.215899 0.492417
vn 0.974588 0.089652 -0.205282
v 0.143951 0.104884 0.077235
vt 0.215600 0.494920
vn 0.974953 0.091809 -0.202579
v 0.145040 0.102937 0.074604
vt 0.219633 0.492850
vn 0.988513 0.000017 0.151138
v 0.145040 0.104884 0.074604
vt 0.219198 0.495382
vn 0.988332 0.000017 0.152315
v 0.143951 0.102937 0.071974
vt 0.223233 0.493469
vn -0.980338 0.143425 -0.135527
v 0.143951 0.104884 0.071974
vt 0.222722 0.495990
vn -0.980299 0.142305 -0.136981
v 0.141320 0.085807 0.069827
vt 0.196574 0.472669
vn -0.706555 0.039908 -0.706532
v 0.144698 0.085807 0.071226
vt 0.192410 0.472746
vn -0.316149 0.027561 -0.948309
v 0.141320 0.101818 0.069827
vt 0.197094 0.490724
vn -0.702484 0.114584 -0.702415
v 0.144698 0.101818 0.071226
vt 0.192980 0.491115
vn -0.314979 0.089876 -0.944834
v 0.137942 0.085807 0.071226
vt 0.200651 0.472553
vn -0.694482 0.719510 0.000022
v 0.137942 0.101818 0.071226
vt 0.200991 0.490446
vn -0.681201 0.732096 0.000022
v 0.136543 0.085807 0.074604
vt 0.204739 0.472487
vn -0.000022 0.711066 0.703125
v 0.136543 0.101818 0.074604
vt 0.204790 0.490301
vn -0.000022 0.719976 0.693999
v 0.137942 0.085807 0.077982
vt 0.208833 0.472515
vn 0.706961 0.706961 0.020331
v 0.137942 0.101818 0.077982
vt 0.208546 0.490294
vn 0.707003 0.707003 0.017143
v 0.141320 0.085807 0.079382
vt 0.212921 0.472638
vn 0.766475 0.063671 -0.639110
v 0.141320 0.101818 0.079382
vt 0.212299 0.490425
vn 0.775433 0.074177 -0.627057
v 0.144698 0.085807 0.077982
vt 0.216996 0.472848
vn 0.966798 0.054416 -0.249680
v 0.144698 0.101818 0.077982
vt 0.216089 0.490692
vn 0.971568 0.074259 -0.224812
v 0.146098 0.085807 0.074604
vt 0.221064 0.473096
vn 0.997873 0.000016 0.065195
v 0.146098 0.101818 0.074604
vt 0.219970 0.491093
vn 0.993061 0.000017 0.117601
v 0.144698 0.085807 0.071226
vt 0.225218 0.473307
vn -0.964832 0.047231 -0.258590
v 0.144698 0.101818 0.071226
vt 0.224066 0.491609
vn -0.976713 0.102965 -0.188227
v 0.141320 0.104884 0.070884
vt 0.197731 0.495031
vn -0.634753 0.088255 -0.767658
v 0.143951 0.104884 0.071974
vt 0.194167 0.495524
vn -0.959725 0.082317 -0.268610
v 0.141320 0.105586 0.069827
vt 0.197907 0.496365
vn -0.634228 0.088777 -0.768032
v 0.144698 0.105586 0.071226
vt 0.193946 0.497111
vn -0.959616 0.080998 -0.269399
v 0.138690 0.104884 0.071974
vt 0.201351 0.494681
vn -0.707787 0.704893 -0.046513
v 0.137942 0.105586 0.071226
vt 0.201485 0.495988
vn -0.707797 0.704995 -0.044771
v 0.137600 0.104884 0.074604
vt 0.204928 0.494510
vn -0.034278 0.734591 0.677644
v 0.136543 0.105586 0.074604
vt 0.204983 0.495816
vn -0.032342 0.733100 0.679351
v 0.138690 0.104884 0.077235
vt 0.208481 0.494495
vn 0.711647 0.702537 -0.000540
v 0.137942 0.105586 0.077982
vt 0.208462 0.495803
vn 0.711325 0.702863 -0.000496
v 0.141320 0.104884 0.078324
vt 0.212032 0.494630
vn 0.781454 0.045375 -0.622311
v 0.141320 0.105586 0.079382
vt 0.211939 0.495936
vn 0.777022 0.042498 -0.628037
v 0.143951 0.104884 0.077235
vt 0.215600 0.494920
vn 0.974656 0.052571 -0.217445
v 0.144698 0.105586 0.077982
vt 0.215429 0.496225
vn 0.973428 0.049373 -0.223606
v 0.145040 0.104884 0.074604
vt 0.219198 0.495382
vn -0.997723 0.064092 0.021000
v 0.146098 0.105586 0.074604
vt 0.218983 0.496711
vn -0.997794 0.063091 0.020645
v 0.143951 0.104884 0.071974
vt 0.222722 0.495990
vn -0.266240 0.076126 -0.960896
v 0.144698 0.105586 0.071226
vt 0.222873 0.497563
vn -0.268484 0.072782 -0.960531
v 0.141320 0.085807 0.070884
vt 0.196592 0.471456
vn -0.696203 0.000000 -0.717845
v 0.143951 0.085807 0.071974
vt 0.192923 0.471465
vn -0.473231 0.000000 -0.880938
v 0.141320 0.085807 0.069827
vt 0.196574 0.472669
vn -0.695984 0.000000 -0.718057
v 0.144698 0.085807 0.071226
vt 0.192410 0.472746
vn -0.472294 0.000000 -0.881441
v 0.143951 0.102937 0.071974
vt 0.193753 0.493002
vn -0.416817 0.291030 -0.861142
v 0.141320 0.102937 0.070884
vt 0.197375 0.492490
vn -0.739464 0.196679 -0.643825
v 0.144698 0.101818 0.071226
vt 0.192980 0.491115
vn -0.413526 0.279635 -0.866487
v 0.141320 0.101818 0.069827
vt 0.197094 0.490724
vn -0.737746 0.178088 -0.651165
v 0.138690 0.085807 0.071974
vt 0.200623 0.471291
vn -0.717487 0.696248 -0.021217
v 0.137942 0.085807 0.071226
vt 0.200651 0.472553
vn -0.716490 0.697335 -0.019132
v 0.138690 0.102937 0.071974
vt 0.201127 0.492175
vn -0.668763 0.742882 0.029713
v 0.137942 0.101818 0.071226
vt 0.200991 0.490446
vn -0.672053 0.740003 0.027211
v 0.137600 0.085807 0.074604
vt 0.204731 0.471206
vn -0.011946 0.712993 0.701069
v 0.136543 0.085807 0.074604
vt 0.204739 0.472487
vn -0.010499 0.712287 0.701810
v 0.137600 0.102937 0.074604
vt 0.204839 0.492017
vn 0.020323 0.727565 0.685738
v 0.136543 0.101818 0.074604
vt 0.204790 0.490301
vn 0.018596 0.725846 0.687606
v 0.138690 0.085807 0.077235
vt 0.208857 0.471230
vn 0.713036 0.701025 -0.011990
v 0.137942 0.085807 0.077982
vt 0.208833 0.472515
vn 0.712566 0.701519 -0.011025
v 0.138690 0.102937 0.077235
vt 0.208520 0.492006
vn 0.702009 0.711752 0.024336
v 0.137942 0.101818 0.077982
vt 0.208546 0.490294
vn 0.702350 0.711469 0.022731
v 0.141320 0.085807 0.078324
vt 0.212973 0.471365
vn 0.678173 0.000000 -0.734903
v 0.141320 0.085807 0.079382
vt 0.212921 0.472638
vn 0.680230 0.000000 -0.732998
v 0.141320 0.102937 0.078324
vt 0.212198 0.492138
vn 0.788649 0.123001 -0.602415
v 0.141320 0.101818 0.079382
vt 0.212299 0.490425
vn 0.782414 0.112135 -0.612579
v 0.143951 0.085807 0.077235
vt 0.217065 0.471597
vn 0.293357 0.000000 -0.956003
v 0.144698 0.085807 0.077982
vt 0.216996 0.472848
vn 0.295317 0.000000 -0.955399
v 0.143951 0.102937 0.077235
vt 0.215899 0.492417
vn 0.962795 0.066435 -0.261938
v 0.144698 0.101818 0.077982
vt 0.216089 0.490692
vn 0.961685 0.059673 -0.267583
v 0.145040 0.085807 0.074604
vt 0.221083 0.471887
vn -0.031398 0.000000 -0.999507
v 0.146098 0.085807 0.074604
vt 0.221064 0.473096
vn -0.029845 0.000000 -0.999555
v 0.145040 0.102937 0.074604
vt 0.219633 0.492850
vn 0.997468 0.047427 0.052989
v 0.146098 0.101818 0.074604
vt 0.219970 0.491093
vn 0.998048 0.041652 0.046525
v 0.143951 0.085807 0.071974
vt 0.224749 0.472015
vn -0.182255 0.000000 -0.983251
v 0.144698 0.085807 0.071226
vt 0.225218 0.473307
vn -0.183357 0.000000 -0.983046
v 0.143951 0.102937 0.071974
vt 0.223233 0.493469
vn -0.983876 0.172456 0.047408
v 0.144698 0.101818 0.071226
vt 0.224066 0.491609
vn -0.983807 0.176509 0.031106
usemtl Brakes
f 3/3/3 2/2/2 1/1/1
f 4/4/4 2/2/2 3/3/3
f 7/7/7 6/6/6 5/5/5
f 8/8/8 6/6/6 7/7/7
f 11/11/11 10/10/10 9/9/9
f 12/12/12 10/10/10 11/11/11
f 15/15/15 14/14/14 13/13/13
f 16/16/16 14/14/14 15/15/15
f 18/18/18 6/6/6 17/17/17
f 5/5/5 6/6/6 18/18/18
f 21/21/21 20/20/20 19/19/19
f 22/22/22 20/20/20 21/21/21
f 25/25/25 24/24/24 23/23/23
f 28/28/28 27/27/27 26/26/26
f 29/29/29 27/27/27 28/28/28
f 27/27/27 31/31/31 30/30/30
f 29/29/29 31/31/31 27/27/27
f 34/34/34 33/33/33 32/32/32
f 35/35/35 33/33/33 34/34/34
f 38/38/38 37/37/37 36/36/36
f 39/39/39 37/37/37 38/38/38
f 40/40/40 39/39/39 38/38/38
f 41/41/41 39/39/39 40/40/40
f 44/44/44 43/43/43 42/42/42
f 45/45/45 44/44/44 42/42/42
f 46/46/46 44/44/44 45/45/45
f 47/47/47 46/46/46 45/45/45
f 48/48/48 46/46/46 47/47/47
f 51/51/51 50/50/50 49/49/49
f 52/52/52 50/50/50 51/51/51
f 49/49/49 48/48/48 47/47/47
f 50/50/50 48/48/48 49/49/49
f 37/37/37 26/26/26 36/36/36
f 28/28/28 26/26/26 37/37/37
f 55/55/55 54/54/54 53/53/53
f 56/56/56 54/54/54 55/55/55
f 59/59/59 58/58/58 57/57/57
f 60/60/60 58/58/58 59/59/59
f 63/63/63 62/62/62 61/61/61
f 64/64/64 62/62/62 63/63/63
f 67/67/67 66/66/66 65/65/65
f 68/68/68 66/66/66 67/67/67
f 71/71/71 70/70/70 69/69/69
f 72/72/72 70/70/70 71/71/71
f 68/68/68 73/73/73 66/66/66
f 74/74/74 73/73/73 68/68/68
f 77/77/77 76/76/76 75/75/75
f 78/78/78 76/76/76 77/77/77
f 74/74/74 80/80/80 79/79/79
f 81/81/81 80/80/80 74/74/74
f 83/83/83 82/82/82 81/81/81
f 84/84/84 82/82/82 83/83/83
f 85/85/85 82/82/82 84/84/84
f 88/88/88 87/87/87 86/86/86
f 89/89/89 87/87/87 88/88/88
f 90/90/90 87/87/87 89/89/89
f 92/92/92 65/65/65 91/91/91
f 67/67/67 65/65/65 92/92/92
f 94/94/94 69/69/69 93/93/93
f 71/71/71 69/69/69 94/94/94
f 97/97/97 96/96/96 95/95/95
f 98/98/98 96/96/96 97/97/97
f 101/101/101 100/100/100 99/99/99
f 57/57/57 103/103/103 102/102/102
f 58/58/58 103/103/103 57/57/57
f 106/106/106 105/105/105 104/104/104
f 107/107/107 105/105/105 106/106/106
f 110/110/110 109/109/109 108/108/108
f 113/113/113 112/112/112 111/111/111
f 115/115/115 112/112/112 114/114/114
f 111/111/111 112/112/112 115/115/115
f 114/114/114 112/112/112 116/116/116
f 119/119/119 118/118/118 117/117/117
f 74/74/74 79/79/79 73/73/73
f 122/122/122 121/121/121 120/120/120
f 125/125/125 124/124/124 123/123/123
f 126/126/126 124/124/124 125/125/125
f 128/128/128 126/126/126 127/127/127
f 124/124/124 126/126/126 128/128/128
f 130/130/130 127/127/127 129/129/129
f 128/128/128 127/127/127 130/130/130
f 132/132/132 129/129/129 131/131/131
f 130/130/130 129/129/129 132/132/132
f 135/135/135 134/134/134 133/133/133
f 136/136/136 134/134/134 135/135/135
f 138/138/138 133/133/133 137/137/137
f 135/135/135 133/133/133 138/138/138
f 140/140/140 137/137/137 139/139/139
f 138/138/138 137/137/137 140/140/140
f 142/142/142 139/139/139 141/141/141
f 140/140/140 139/139/139 142/142/142
f 145/145/145 144/144/144 143/143/143
f 146/146/146 144/144/144 145/145/145
f 148/148/148 143/143/143 147/147/147
f 145/145/145 143/143/143 148/148/148
f 123/123/123 147/147/147 125/125/125
f 148/148/148 147/147/147 123/123/123
f 151/151/151 150/150/150 149/149/149
f 152/152/152 150/150/150 151/151/151
f 153/153/153 152/152/152 151/151/151
f 154/154/154 152/152/152 153/153/153
f 157/157/157 156/156/156 155/155/155
f 158/158/158 156/156/156 157/157/157
f 159/159/159 158/158/158 157/157/157
f 160/160/160 158/158/158 159/159/159
f 161/161/161 160/160/160 159/159/159
f 162/162/162 160/160/160 161/161/161
f 163/163/163 162/162/162 161/161/161
f 164/164/164 162/162/162 163/163/163
f 167/167/167 166/166/166 165/165/165
f 168/168/168 166/166/166 167/167/167
f 169/169/169 168/168/168 167/167/167
f 170/170/170 168/168/168 169/169/169
f 171/171/171 170/170/170 169/169/169
f 172/172/172 170/170/170 171/171/171
f 149/149/149 172/172/172 171/171/171
f 150/150/150 172/172/172 149/149/149
f 174/174/174 173/173/173 120/120/120
f 175/175/175 174/174/174 120/120/120
f 121/121/121 175/175/175 120/120/120
f 178/178/178 177/177/177 176/176/176
f 179/179/179 178/178/178 176/176/176
f 180/180/180 179/179/179 176/176/176
f 181/181/181 180/180/180 176/176/176
f 183/183/183 182/182/182 120/120/120
f 184/184/184 183/183/183 120/120/120
f 185/185/185 184/184/184 120/120/120
f 173/173/173 185/185/185 120/120/120
f 175/175/175 121/121/121 131/131/131
f 187/187/187 186/186/186 132/132/132
f 188/188/188 186/186/186 187/187/187
f 190/190/190 2/2/2 189/189/189
f 1/1/1 2/2/2 190/190/190
f 193/193/193 192/192/192 191/191/191
f 194/194/194 192/192/192 193/193/193
f 196/196/196 10/10/10 195/195/195
f 9/9/9 10/10/10 196/196/196
f 199/199/199 198/198/198 197/197/197
f 200/200/200 198/198/198 199/199/199
f 201/201/201 192/192/192 194/194/194
f 202/202/202 192/192/192 201/201/201
f 205/205/205 204/204/204 203/203/203
f 206/206/206 204/204/204 205/205/205
f 209/209/209 208/208/208 207/207/207
f 212/212/212 211/211/211 210/210/210
f 213/213/213 211/211/211 212/212/212
f 211/211/211 214/214/214 210/210/210
f 215/215/215 214/214/214 211/211/211
f 218/218/218 217/217/217 216/216/216
f 219/219/219 217/217/217 218/218/218
f 222/222/222 221/221/221 220/220/220
f 223/223/223 221/221/221 222/222/222
f 225/225/225 220/220/220 224/224/224
f 222/222/222 220/220/220 225/225/225
f 228/228/228 227/227/227 226/226/226
f 230/230/230 226/226/226 229/229/229
f 228/228/228 226/226/226 230/230/230
f 232/232/232 229/229/229 231/231/231
f 230/230/230 229/229/229 232/232/232
f 235/235/235 234/234/234 233/233/233
f 236/236/236 234/234/234 235/235/235
f 236/236/236 231/231/231 234/234/234
f 232/232/232 231/231/231 236/236/236
f 221/221/221 213/213/213 212/212/212
f 223/223/223 213/213/213 221/221/221
f 238/238/238 237/237/237 56/56/56
f 239/239/239 237/237/237 238/238/238
f 59/59/59 240/240/240 60/60/60
f 241/241/241 240/240/240 59/59/59
f 241/241/241 242/242/242 240/240/240
f 243/243/243 242/242/242 241/241/241
f 246/246/246 245/245/245 244/244/244
f 247/247/247 245/245/245 246/246/246
f 250/250/250 249/249/249 248/248/248
f 251/251/251 249/249/249 250/250/250
f 254/254/254 253/253/253 252/252/252
f 255/255/255 253/253/253 254/254/254
f 248/248/248 257/257/257 256/256/256
f 249/249/249 257/257/257 248/248/248
f 259/259/259 82/82/82 258/258/258
f 260/260/260 82/82/82 259/259/259
f 81/81/81 82/82/82 260/260/260
f 263/263/263 262/262/262 261/261/261
f 264/264/264 262/262/262 263/263/263
f 256/256/256 80/80/80 81/81/81
f 265/265/265 80/80/80 256/256/256
f 266/266/266 87/87/87 90/90/90
f 267/267/267 87/87/87 266/266/266
f 268/268/268 87/87/87 267/267/267
f 269/269/269 251/251/251 250/250/250
f 270/270/270 251/251/251 269/269/269
f 271/271/271 255/255/255 254/254/254
f 272/272/272 255/255/255 271/271/271
f 275/275/275 274/274/274 273/273/273
f 276/276/276 274/274/274 275/275/275
f 279/279/279 278/278/278 277/277/277
f 282/282/282 281/281/281 280/280/280
f 283/283/283 281/281/281 282/282/282
f 286/286/286 285/285/285 284/284/284
f 289/289/289 288/288/288 287/287/287
f 291/291/291 288/288/288 290/290/290
f 290/290/290 288/288/288 289/289/289
f 292/292/292 288/288/288 291/291/291
f 293/293/293 219/219/219 218/218/218
f 257/257/257 265/265/265 256/256/256
f 294/294/294 121/121/121 122/122/122
f 297/297/297 296/296/296 295/295/295
f 298/298/298 296/296/296 297/297/297
f 299/299/299 295/295/295 296/296/296
f 300/300/300 295/295/295 299/299/299
f 301/301/301 300/300/300 299/299/299
f 302/302/302 300/300/300 301/301/301
f 132/132/132 302/302/302 301/301/301
f 131/131/131 302/302/302 132/132/132
f 305/305/305 304/304/304 303/303/303
f 306/306/306 304/304/304 305/305/305
f 307/307/307 306/306/306 305/305/305
f 308/308/308 306/306/306 307/307/307
f 309/309/309 308/308/308 307/307/307
f 310/310/310 308/308/308 309/309/309
f 311/311/311 310/310/310 309/309/309
f 312/312/312 310/310/310 311/311/311
f 315/315/315 314/314/314 313/313/313
f 316/316/316 314/314/314 315/315/315
f 317/317/317 316/316/316 315/315/315
f 318/318/318 316/316/316 317/317/317
f 298/298/298 318/318/318 317/317/317
f 297/297/297 318/318/318 298/298/298
f 321/321/321 320/320/320 319/319/319
f 322/322/322 320/320/320 321/321/321
f 324/324/324 319/319/319 323/323/323
f 321/321/321 319/319/319 324/324/324
f 327/327/327 326/326/326 325/325/325
f 328/328/328 326/326/326 327/327/327
f 330/330/330 325/325/325 329/329/329
f 327/327/327 325/325/325 330/330/330
f 332/332/332 329/329/329 331/331/331
f 330/330/330 329/329/329 332/332/332
f 334/334/334 331/331/331 333/333/333
f 332/332/332 331/331/331 334/334/334
f 337/337/337 336/336/336 335/335/335
f 338/338/338 336/336/336 337/337/337
f 340/340/340 335/335/335 339/339/339
f 337/337/337 335/335/335 340/340/340
f 342/342/342 339/339/339 341/341/341
f 340/340/340 339/339/339 342/342/342
f 322/322/322 341/341/341 320/320/320
f 342/342/342 341/341/341 322/322/322
f 294/294/294 344/344/344 343/343/343
f 294/294/294 343/343/343 345/345/345
f 294/294/294 345/345/345 121/121/121
f 348/348/348 347/347/347 346/346/346
f 348/348/348 346/346/346 349/349/349
f 348/348/348 349/349/349 350/350/350
f 348/348/348 350/350/350 351/351/351
f 294/294/294 353/353/353 352/352/352
f 294/294/294 352/352/352 354/354/354
f 294/294/294 354/354/354 355/355/355
f 294/294/294 355/355/355 344/344/344
f 131/131/131 121/121/121 345/345/345
f 187/187/187 357/357/357 356/356/356
f 132/132/132 357/357/357 187/187/187
f 360/360/360 359/359/359 358/358/358
f 361/361/361 359/359/359 360/360/360
f 363/363/363 358/358/358 362/362/362
f 360/360/360 358/358/358 363/363/363
f 365/365/365 362/362/362 364/364/364
f 363/363/363 362/362/362 365/365/365
f 367/367/367 364/364/364 366/366/366
f 365/365/365 364/364/364 367/367/367
f 369/369/369 366/366/366 368/368/368
f 367/367/367 366/366/366 369/369/369
f 371/371/371 368/368/368 370/370/370
f 369/369/369 368/368/368 371/371/371
f 373/373/373 370/370/370 372/372/372
f 371/371/371 370/370/370 373/373/373
f 375/375/375 372/372/372 374/374/374
f 373/373/373 372/372/372 375/375/375
f 378/378/378 377/377/377 376/376/376
f 379/379/379 377/377/377 378/378/378
f 380/380/380 377/377/377 379/379/379
f 381/381/381 377/377/377 380/380/380
f 382/382/382 377/377/377 381/381/381
f 383/383/383 377/377/377 382/382/382
f 384/384/384 377/377/377 383/383/383
f 376/376/376 377/377/377 384/384/384
f 387/387/387 386/386/386 385/385/385
f 388/388/388 386/386/386 387/387/387
f 390/390/390 385/385/385 389/389/389
f 387/387/387 385/385/385 390/390/390
f 392/392/392 389/389/389 391/391/391
f 390/390/390 389/389/389 392/392/392
f 394/394/394 391/391/391 393/393/393
f 392/392/392 391/391/391 394/394/394
f 396/396/396 393/393/393 395/395/395
f 394/394/394 393/393/393 396/396/396
f 398/398/398 395/395/395 397/397/397
f 396/396/396 395/395/395 398/398/398
f 400/400/400 397/397/397 399/399/399
f 398/398/398 397/397/397 400/400/400
f 402/402/402 399/399/399 401/401/401
f 400/400/400 399/399/399 402/402/402
f 405/405/405 404/404/404 403/403/403
f 406/406/406 404/404/404 405/405/405
f 408/408/408 403/403/403 407/407/407
f 405/405/405 403/403/403 408/408/408
f 410/410/410 407/407/407 409/409/409
f 408/408/408 407/407/407 410/410/410
f 412/412/412 409/409/409 411/411/411
f 410/410/410 409/409/409 412/412/412
f 414/414/414 411/411/411 413/413/413
f 412/412/412 411/411/411 414/414/414
f 416/416/416 413/413/413 415/415/415
f 414/414/414 413/413/413 416/416/416
f 418/418/418 415/415/415 417/417/417
f 416/416/416 415/415/415 418/418/418
f 420/420/420 417/417/417 419/419/419
f 418/418/418 417/417/417 420/420/420
f 423/423/423 422/422/422 421/421/421
f 424/424/424 422/422/422 423/423/423
f 426/426/426 421/421/421 425/425/425
f 423/423/423 421/421/421 426/426/426
f 428/428/428 425/425/425 427/427/427
f 426/426/426 425/425/425 428/428/428
f 430/430/430 427/427/427 429/429/429
f 428/428/428 427/427/427 430/430/430
f 432/432/432 429/429/429 431/431/431
f 430/430/430 429/429/429 432/432/432
f 434/434/434 431/431/431 433/433/433
f 432/432/432 431/431/431 434/434/434
f 436/436/436 433/433/433 435/435/435
f 434/434/434 433/433/433 436/436/436
f 438/438/438 435/435/435 437/437/437
f 436/436/436 435/435/435 438/438/438
f 441/441/441 440/440/440 439/439/439
f 442/442/442 440/440/440 441/441/441
f 445/445/445 444/444/444 443/443/443
f 446/446/446 444/444/444 445/445/445
f 448/448/448 439/439/439 447/447/447
f 441/441/441 439/439/439 448/448/448
f 446/446/446 449/449/449 444/444/444
f 450/450/450 449/449/449 446/446/446
f 452/452/452 447/447/447 451/451/451
f 448/448/448 447/447/447 452/452/452
f 450/450/450 453/453/453 449/449/449
f 454/454/454 453/453/453 450/450/450
f 456/456/456 451/451/451 455/455/455
f 452/452/452 451/451/451 456/456/456
f 454/454/454 457/457/457 453/453/453
f 458/458/458 457/457/457 454/454/454
f 460/460/460 455/455/455 459/459/459
f 456/456/456 455/455/455 460/460/460
f 458/458/458 461/461/461 457/457/457
f 462/462/462 461/461/461 458/458/458
f 464/464/464 459/459/459 463/463/463
f 460/460/460 459/459/459 464/464/464
f 462/462/462 465/465/465 461/461/461
f 466/466/466 465/465/465 462/462/462
f 468/468/468 463/463/463 467/467/467
f 464/464/464 463/463/463 468/468/468
f 466/466/466 469/469/469 465/465/465
f 470/470/470 469/469/469 466/466/466
f 472/472/472 467/467/467 471/471/471
f 468/468/468 467/467/467 472/472/472
f 470/470/470 473/473/473 469/469/469
f 474/474/474 473/473/473 470/470/470
