# Exported from Godot Engine
mtllib Caliper_Std_R.mtl
o Caliper_Std_R
v 0.151363 -0.004326 0.049984
vt 0.761846 0.740663
vn -0.894105 0.244779 -0.375046
v 0.135234 -0.004968 0.049546
vt 0.779974 0.737810
vn -0.923950 0.172914 -0.341199
v 0.149652 0.012289 0.050229
vt 0.759674 0.721928
vn -0.898640 0.265325 -0.349356
v 0.135356 0.008109 0.050233
vt 0.776842 0.723139
vn -0.896529 0.253354 -0.363382
v 0.151462 -0.017732 0.049659
vt 0.764754 0.755547
vn -0.884689 0.400918 -0.237887
v 0.138883 -0.018515 0.049256
vt 0.778502 0.753754
vn -0.925644 0.160138 -0.342838
v 0.165807 0.016893 0.045086
vt 0.739546 0.721195
vn -0.798432 0.601795 0.018685
v 0.149652 0.012289 0.050229
vt 0.759674 0.721928
vn -0.846807 0.523409 -0.094663
v 0.165200 0.023771 0.045086
vt 0.738416 0.713395
vn -0.844617 0.528947 -0.082684
v 0.151363 -0.004326 0.049984
vt 0.761846 0.740663
vn -0.848683 0.520428 -0.094301
v 0.167014 0.003221 0.045086
vt 0.741890 0.736642
vn -0.793675 0.607479 0.032396
v 0.167582 -0.014699 0.045086
vt 0.746110 0.756493
vn -0.789028 0.611941 0.054432
v 0.138852 0.013763 0.050233
vt 0.771442 0.717635
vn -0.895685 0.272114 -0.351713
v 0.162735 0.034064 0.045086
vt 0.738471 0.701270
vn -0.847397 0.520971 -0.102502
v 0.146088 0.030138 0.050452
vt 0.758978 0.701270
vn -0.847094 0.522284 -0.098245
v 0.167048 0.022160 0.043656
vt 0.736122 0.715798
vn -0.729524 0.665446 0.158038
v 0.175541 -0.022132 0.034981
vt 0.753673 0.211896
vn 0.996779 -0.077364 0.021142
v 0.179607 -0.021426 0.018121
vt 0.773113 0.208420
vn 0.999630 -0.018486 0.019975
v 0.174049 -0.023564 0.035333
vt 0.753285 0.214402
vn 0.999661 -0.016794 -0.019877
v 0.177819 -0.022650 0.018849
vt 0.772279 0.210801
vn 0.999990 -0.004524 0.000475
v 0.176454 -0.018873 0.035023
vt 0.732770 0.765601
vn -0.420686 0.654305 0.628417
v 0.175541 -0.022132 0.034981
vt 0.734688 0.769170
vn -0.498833 0.644106 0.579908
v 0.175288 -0.019406 0.036717
vt 0.735289 0.765414
vn -0.703544 0.665104 0.250325
v 0.174391 -0.022227 0.036682
vt 0.736979 0.768415
vn -0.718756 0.663696 0.207116
v 0.168728 -0.024439 0.040922
vt 0.745701 0.768711
vn -0.741944 0.643265 0.189023
v 0.167793 -0.025284 0.039476
vt 0.746199 0.771011
vn -0.799565 0.600573 -0.002719
v 0.174049 -0.023564 0.035333
vt 0.736746 0.770637
vn -0.730445 0.663495 0.161939
v 0.106527 -0.003242 0.037140
vt 0.815348 0.731694
vn -0.980657 0.033483 -0.192849
v 0.109416 -0.017541 0.036466
vt 0.814570 0.748313
vn -0.238384 0.008325 -0.971135
v 0.105585 -0.003697 0.035452
vt 0.817571 0.732139
vn -0.979917 0.030135 -0.197114
v 0.108400 -0.017885 0.034801
vt 0.816818 0.748737
vn -0.239822 0.023688 -0.970528
v 0.109881 -0.020890 0.034877
vt 0.815503 0.752659
vn -0.953341 0.028251 -0.300570
v 0.110590 -0.019943 0.036573
vt 0.813633 0.751205
vn -0.955651 0.035648 -0.292336
v 0.134636 -0.029037 0.044158
vt 0.786650 0.765864
vn -0.389233 0.205641 -0.897892
v 0.134870 -0.027874 0.045793
vt 0.785351 0.763921
vn -0.928704 0.066404 -0.364829
v 0.140883 -0.026283 0.047686
vt 0.778106 0.763096
vn -0.918859 0.245023 -0.309291
v 0.136798 -0.028758 0.045371
vt 0.783574 0.765509
vn -0.925230 0.142833 -0.351494
v 0.140379 -0.024498 0.048625
vt 0.778133 0.760767
vn -0.910862 0.188079 -0.367365
v 0.142402 -0.030898 0.041358
vt 0.778105 0.772371
vn -0.801647 0.010325 -0.597708
v 0.142554 -0.030100 0.043254
vt 0.777533 0.770051
vn -0.913518 0.235666 -0.331582
v 0.154090 -0.028522 0.041344
vt 0.763445 0.772593
vn -0.891668 0.356183 -0.279395
v 0.154550 -0.027727 0.043191
vt 0.762951 0.770279
vn -0.882177 0.314898 -0.350146
v 0.157361 -0.022568 0.047875
vt 0.759391 0.762494
vn -0.879328 0.358615 -0.313332
v 0.149141 -0.023777 0.048506
vt 0.768487 0.762061
vn -0.887781 0.261666 -0.378649
v 0.157893 -0.020657 0.048460
vt 0.758522 0.760381
vn -0.862361 0.485232 -0.144509
v 0.149468 -0.021939 0.049410
vt 0.767767 0.759821
vn -0.890913 0.280752 -0.357004
v 0.166613 -0.025102 0.041568
vt 0.748279 0.769072
vn -0.854035 0.473245 -0.216017
v 0.165813 -0.024531 0.043167
vt 0.749595 0.767405
vn -0.863225 0.435075 -0.256031
v 0.167013 -0.022968 0.043612
vt 0.748256 0.765746
vn -0.769209 0.626983 0.123328
v 0.175771 0.023165 0.036683
vt 0.723287 0.717647
vn -0.713910 0.673116 0.192997
v 0.176769 0.023132 0.035050
vt 0.721165 0.718159
vn -0.274228 0.716589 0.641326
v 0.175968 0.019789 0.036722
vt 0.724029 0.721431
vn -0.710410 0.676134 0.195350
v 0.176981 0.020078 0.035044
vt 0.721765 0.721578
vn -0.303316 0.713758 0.631307
v 0.176810 0.007944 0.036720
vt 0.726313 0.734829
vn -0.702624 0.679378 0.211577
v 0.177857 0.008449 0.035052
vt 0.723969 0.734764
vn -0.334252 0.707641 0.622510
v 0.176844 -0.012956 0.036757
vt 0.731962 0.758355
vn -0.697035 0.675927 0.239299
v 0.177930 -0.012751 0.035088
vt 0.729661 0.758705
vn -0.357980 0.690191 0.628877
v 0.180615 0.021114 0.018121
vt 0.770483 0.159627
vn 0.998988 -0.043560 0.011240
v 0.176981 0.020078 0.035044
vt 0.750313 0.161764
vn 0.995464 -0.036673 -0.087786
v 0.176769 0.023132 0.035050
vt 0.750091 0.158184
vn 0.995818 -0.032873 -0.085243
v 0.182616 0.010744 0.018121
vt 0.771266 0.171665
vn 0.999067 -0.042562 0.007379
v 0.177857 0.008449 0.035052
vt 0.751134 0.175397
vn 0.995518 -0.053936 -0.077688
v 0.183497 -0.011704 0.018121
vt 0.772815 0.196826
vn 0.998861 -0.043632 0.019296
v 0.177930 -0.012751 0.035088
vt 0.752774 0.200142
vn 0.995049 -0.091922 -0.037775
v 0.182363 -0.017111 0.018121
vt 0.773061 0.202837
vn 0.999241 -0.033207 0.020387
v 0.176454 -0.018873 0.035023
vt 0.753309 0.207781
vn 0.994156 -0.107954 -0.000219
v 0.110590 -0.019943 0.036573
vt 0.813633 0.751205
vn -0.940192 0.110840 -0.322107
v 0.109416 -0.017541 0.036466
vt 0.814570 0.748313
vn -0.940134 0.108594 -0.323041
v 0.117502 0.000798 0.043737
vt 0.800276 0.728489
vn -0.937058 0.112899 -0.330418
v 0.124132 0.001293 0.046505
vt 0.792001 0.728895
vn -0.937643 0.115878 -0.327716
v 0.105585 -0.003697 0.029397
vt 0.760143 0.311477
vn 0.999991 -0.000475 0.004093
v 0.105585 -0.003697 0.035452
vt 0.753248 0.311445
vn 0.999991 -0.000475 0.004247
v 0.108400 -0.017885 0.029397
vt 0.760243 0.295033
vn 0.999990 -0.000629 0.004432
v 0.108400 -0.017885 0.034801
vt 0.754090 0.295000
vn 0.999992 -0.000567 0.003878
v 0.109881 -0.020890 0.029397
vt 0.760278 0.291210
vn 0.999995 -0.001027 0.003049
v 0.109881 -0.020890 0.034877
vt 0.754017 0.291191
vn 0.999998 -0.000689 0.002066
v 0.109881 -0.020890 0.029397
vt 0.760278 0.291210
vn 0.999999 -0.000947 -0.000504
v 0.109881 -0.020890 0.034877
vt 0.754017 0.291191
vn 1.000000 -0.000672 -0.000321
v 0.134404 -0.028961 0.029397
vt 0.760366 0.261657
vn -0.000031 -0.000214 -1.000000
v 0.134636 -0.029037 0.044158
vt 0.743447 0.261382
vn -0.996625 -0.017990 0.080097
v 0.142402 -0.030898 0.029397
vt 0.760379 0.252147
vn -0.999996 -0.000980 -0.002772
v 0.142402 -0.030898 0.041358
vt 0.746615 0.252254
vn -0.999321 -0.003665 0.036662
v 0.154166 -0.028506 0.029397
vt 0.760245 0.238398
vn -0.999994 -0.002054 -0.002683
v 0.154090 -0.028522 0.041344
vt 0.746445 0.238580
vn 0.999159 -0.004126 0.040801
v 0.168132 -0.025204 0.024668
vt 0.765592 0.221985
vn -1.000000 -0.000794 -0.000046
v 0.167793 -0.025284 0.039476
vt 0.748415 0.222145
vn 0.999837 -0.014904 0.010150
v 0.106527 -0.003242 0.037140
vt 0.815348 0.731694
vn -0.939740 0.105345 -0.325256
v 0.117502 0.000798 0.043737
vt 0.800276 0.728489
vn -0.940853 0.108303 -0.321040
v 0.130283 0.003812 0.049431
vt 0.783711 0.727001
vn -0.925631 0.154859 -0.345290
v 0.140430 0.020221 0.050233
vt 0.767926 0.710801
vn -0.897352 0.277160 -0.343427
v 0.139256 0.028527 0.050233
vt 0.767035 0.701270
vn -0.906303 0.277751 -0.318541
v 0.146088 0.030138 0.050452
vt 0.758978 0.701270
vn -0.908079 0.278853 -0.312462
v 0.138998 0.020338 0.049316
vt 0.769784 0.710211
vn -0.969810 0.199318 -0.140505
v 0.137875 0.028201 0.049316
vt 0.768950 0.701270
vn -0.970009 0.167254 -0.176374
v 0.140430 0.020221 0.050233
vt 0.767926 0.710801
vn -0.969712 0.194735 -0.147433
v 0.139256 0.028527 0.050233
vt 0.767035 0.701270
vn -0.969624 0.163176 -0.182218
v 0.137527 0.014317 0.049316
vt 0.773044 0.716497
vn -0.964032 0.230561 -0.132226
v 0.138852 0.013763 0.050233
vt 0.771442 0.717635
vn -0.964156 0.227990 -0.135736
v 0.134267 0.009045 0.049316
vt 0.778120 0.721639
vn -0.958887 0.212505 -0.188089
v 0.135356 0.008109 0.050233
vt 0.776842 0.723139
vn -0.959051 0.215762 -0.183491
v 0.129538 0.005039 0.048514
vt 0.784687 0.725328
vn -0.956929 0.147185 -0.250247
v 0.130283 0.003812 0.049431
vt 0.783711 0.727001
vn -0.956811 0.154104 -0.246504
v 0.123802 0.002690 0.045588
vt 0.792596 0.727025
vn -0.946514 0.120639 -0.299262
v 0.124132 0.001293 0.046505
vt 0.792001 0.728895
vn -0.950131 0.122817 -0.286649
v 0.117621 0.002229 0.042819
vt 0.800514 0.726569
vn -0.932959 0.112724 -0.341878
v 0.117502 0.000798 0.043737
vt 0.800276 0.728489
vn -0.933051 0.113069 -0.341514
v 0.138998 0.020338 0.029662
vt 0.759848 0.362722
vn 0.000000 -0.000031 -1.000000
v 0.137875 0.028201 0.029662
vt 0.759848 0.371803
vn 0.000000 0.000000 -1.000000
v 0.138998 0.020338 0.049316
vt 0.737379 0.362722
vn 0.000000 0.000000 -1.000000
v 0.137875 0.028201 0.049316
vt 0.737379 0.371803
vn 0.000000 0.000000 -1.000000
v 0.137527 0.014317 0.029662
vt 0.759849 0.355635
vn 0.000000 -0.000061 -1.000000
v 0.137527 0.014317 0.049316
vt 0.737378 0.355636
vn 0.000000 -0.000031 -1.000000
v 0.134267 0.009045 0.029662
vt 0.759848 0.348548
vn 0.000000 -0.000092 -1.000000
v 0.134267 0.009045 0.049316
vt 0.737377 0.348550
vn 0.000000 -0.000061 -1.000000
v 0.129538 0.005039 0.029662
vt 0.759847 0.341460
vn 0.000031 -0.000061 -1.000000
v 0.129538 0.005039 0.048514
vt 0.738293 0.341462
vn 0.000031 -0.000061 -1.000000
v 0.123802 0.002690 0.029662
vt 0.759845 0.334373
vn 0.000031 -0.000031 -1.000000
v 0.123802 0.002690 0.045588
vt 0.741637 0.334375
vn 0.000031 -0.000031 -1.000000
v 0.117621 0.002229 0.029662
vt 0.759842 0.327287
vn 0.000000 0.000000 -1.000000
v 0.117621 0.002229 0.042819
vt 0.744803 0.327287
vn 0.000031 -0.000031 -1.000000
v 0.165200 0.023771 0.020657
vt 0.439819 0.607616
vn 0.042878 0.666899 0.743914
v 0.165200 0.023771 0.045086
vt 0.468244 0.604539
vn 0.022585 0.682713 0.730337
v 0.162735 0.034064 0.020657
vt 0.440234 0.593481
vn -0.000022 0.707107 0.707107
v 0.162735 0.034064 0.045086
vt 0.467730 0.593481
vn -0.000022 0.707107 0.707107
v 0.167048 0.022160 0.020657
vt 0.440267 0.610933
vn 0.116138 0.709708 0.694857
v 0.167048 0.022160 0.043656
vt 0.466854 0.607254
vn 0.119216 0.709646 0.694399
v 0.175771 0.023165 0.020657
vt 0.446032 0.619416
vn 0.191285 0.791449 0.580533
v 0.175771 0.023165 0.036683
vt 0.460530 0.617092
vn 0.203343 0.796059 0.570037
v 0.167048 0.022160 0.020657
vt 0.440267 0.610933
vn 0.204713 0.796788 0.568525
v 0.167048 0.022160 0.043656
vt 0.466854 0.607254
vn 0.213712 0.799563 0.561273
v 0.176769 0.023132 0.020657
vt 0.446455 0.620412
vn 0.186372 0.778926 0.598782
v 0.176769 0.023132 0.035050
vt 0.459206 0.618460
vn 0.176267 0.775978 0.605630
v 0.176769 0.023132 0.020657
vt 0.766653 0.155158
vn 0.997581 -0.069435 0.003414
v 0.182616 0.010744 -0.019044
vt 0.813460 0.169638
vn 0.999106 -0.001958 0.042235
v 0.180615 0.021114 -0.019044
vt 0.812885 0.157574
vn 0.999106 -0.004515 0.042044
v 0.183497 -0.011704 -0.019044
vt 0.814590 0.195219
vn -0.999413 -0.000174 0.034248
v 0.182363 -0.017111 -0.019044
vt 0.814804 0.201530
vn -0.999784 -0.005083 0.020161
v 0.154166 -0.028506 -0.019044
vt 0.815534 0.237686
vn -0.999990 -0.002795 -0.003578
v 0.168132 -0.025204 -0.019044
vt 0.815284 0.221311
vn -0.999990 -0.003133 -0.003240
v 0.142402 -0.030898 -0.019044
vt 0.815721 0.251397
vn -0.999989 -0.002673 -0.003917
v 0.177819 -0.022649 -0.019044
vt 0.815039 0.209860
vn -0.999981 -0.005416 -0.002939
v 0.179607 -0.021426 -0.019044
vt 0.814974 0.207381
vn -0.999924 -0.007093 0.010104
v 0.153574 0.017492 -0.019044
vt 0.397973 0.642770
vn 0.698005 0.706636 -0.115994
v 0.180615 0.021114 -0.019044
vt 0.423881 0.661073
vn 0.700014 0.703507 -0.122709
v 0.154064 0.015411 0.018121
vt 0.423231 0.607471
vn 0.700953 0.701979 -0.126057
v 0.180615 0.021114 0.018121
vt 0.448021 0.625180
vn 0.702912 0.698744 -0.132935
v 0.152783 0.020843 0.020657
vt 0.426065 0.602891
vn 0.447127 0.774770 -0.447000
v 0.165200 0.023771 0.020657
vt 0.439819 0.607616
vn 0.581314 0.569421 -0.581235
v 0.150354 0.031144 0.020657
vt 0.427239 0.593481
vn 0.670821 0.316386 -0.670745
v 0.162735 0.034064 0.020657
vt 0.440234 0.593481
vn 0.670833 0.316442 -0.670707
v 0.176769 0.023132 0.020657
vt 0.446455 0.620412
vn 0.227826 0.960352 0.160686
v 0.175771 0.023165 0.020657
vt 0.446032 0.619416
vn 0.230234 0.960072 0.158917
v 0.180615 0.021114 0.018121
vt 0.448021 0.625180
vn 0.373637 0.927440 -0.015814
v 0.167048 0.022160 0.020657
vt 0.440267 0.610933
vn 0.490064 0.844638 -0.215464
v 0.153241 0.018904 0.020657
vt 0.425411 0.604260
vn 0.382891 0.840741 -0.382817
v 0.167048 0.022160 0.020657
vt 0.440267 0.610933
vn 0.539403 0.646663 -0.539325
v 0.153241 0.018904 0.020657
vt 0.425411 0.604260
vn 0.471861 0.861239 -0.188721
v 0.154064 0.015411 0.018121
vt 0.423231 0.607471
vn 0.480531 0.853273 -0.202523
v 0.117621 0.002229 0.042819
vt 0.800514 0.726569
vn -0.965429 0.104022 -0.239011
v 0.117502 0.000798 0.043737
vt 0.800276 0.728489
vn -0.965424 0.103982 -0.239050
v 0.106646 -0.001812 0.036222
vt 0.815731 0.729798
vn -0.965328 0.103337 -0.239715
v 0.106527 -0.003242 0.037140
vt 0.815348 0.731694
vn -0.965323 0.103296 -0.239754
v 0.117621 0.002229 0.042819
vt 0.744803 0.327287
vn -1.000000 -0.000183 -0.000107
v 0.106646 -0.001812 0.029662
vt 0.759840 0.313931
vn -1.000000 -0.000275 -0.000137
v 0.106646 -0.001812 0.036222
vt 0.752354 0.313917
vn -1.000000 -0.000611 -0.000260
v 0.106646 -0.001812 0.036222
vt 0.752354 0.313917
vn -0.999999 -0.000474 0.001116
v 0.105585 -0.003697 0.035452
vt 0.753248 0.311445
vn -0.999999 -0.000596 0.001453
v 0.106646 -0.001812 0.029662
vt 0.759840 0.313931
vn -0.999996 -0.000995 0.002527
v 0.105585 -0.003697 0.029397
vt 0.760143 0.311477
vn -0.999995 -0.001149 0.002896
v 0.106646 -0.001812 0.036222
vt 0.815731 0.729798
vn -0.989742 0.047645 -0.134690
v 0.106527 -0.003242 0.037140
vt 0.815348 0.731694
vn -0.989742 0.047645 -0.134690
v 0.105585 -0.003697 0.035452
vt 0.817571 0.732139
vn -0.989742 0.047645 -0.134690
v 0.126644 0.045050 0.050233
vt 0.776842 0.679401
vn -0.912112 0.308465 -0.270003
v 0.120692 0.056695 0.049546
vt 0.779974 0.664730
vn -0.944677 0.276707 -0.176119
v 0.141301 0.047698 0.050229
vt 0.759674 0.680612
vn -0.909019 0.301680 -0.287529
v 0.135408 0.063327 0.049984
vt 0.761846 0.661877
vn -0.913717 0.314320 -0.257535
v 0.117903 0.070445 0.049256
vt 0.778502 0.648786
vn -0.947736 0.275242 -0.161364
v 0.129506 0.075365 0.049659
vt 0.764755 0.646993
vn -0.886021 0.422370 -0.191231
v 0.160341 0.044374 0.045086
vt 0.738416 0.689145
vn -0.847300 0.518194 -0.116433
v 0.141301 0.047698 0.050229
vt 0.759674 0.680612
vn -0.848017 0.518355 -0.110345
v 0.157811 0.050798 0.045086
vt 0.739546 0.681345
vn -0.804167 0.593048 -0.040114
v 0.152782 0.063569 0.045086
vt 0.741890 0.665898
vn -0.799429 0.599725 -0.035261
v 0.135408 0.063327 0.049984
vt 0.761846 0.661877
vn -0.850674 0.511437 -0.121599
v 0.145283 0.079854 0.045086
vt 0.746111 0.646047
vn -0.796903 0.602553 -0.043304
v 0.132298 0.041554 0.050233
vt 0.771442 0.684905
vn -0.905356 0.305186 -0.295283
v 0.146088 0.030138 0.050452
vt 0.758978 0.701270
vn -0.847737 0.519608 -0.106535
v 0.162735 0.034064 0.045086
vt 0.738471 0.701270
vn -0.847399 0.521024 -0.102217
v 0.161275 0.046641 0.043656
vt 0.736122 0.686742
vn -0.742333 0.668052 0.051461
v 0.150889 0.091541 0.018849
vt 0.772240 0.210712
vn 0.002902 0.008643 -0.999958
v 0.153036 0.091246 0.018121
vt 0.773075 0.208332
vn 0.008178 0.052363 -0.998595
v 0.147108 0.090674 0.035333
vt 0.753246 0.214313
vn 0.029781 0.048944 -0.998357
v 0.149082 0.090060 0.034981
vt 0.753634 0.211807
vn 0.052228 0.173848 -0.983386
v 0.148011 0.089631 0.036682
vt 0.736979 0.634125
vn -0.743136 0.669055 0.010704
v 0.149082 0.090060 0.034981
vt 0.734688 0.633370
vn -0.586733 0.806900 0.068236
v 0.150074 0.087509 0.036717
vt 0.735290 0.637126
vn -0.738882 0.673763 -0.009876
v 0.151355 0.087552 0.035024
vt 0.732770 0.636939
vn -0.522843 0.837601 0.158306
v 0.147108 0.090674 0.035333
vt 0.736747 0.631903
vn -0.744612 0.666209 0.041462
v 0.140742 0.089418 0.039476
vt 0.746200 0.631529
vn -0.801628 0.597556 -0.017839
v 0.141956 0.089080 0.040922
vt 0.745701 0.633829
vn -0.767269 0.639272 -0.051274
v 0.090914 0.056261 0.034801
vt 0.816819 0.653803
vn -0.983569 0.179056 0.023031
v 0.091977 0.056408 0.036466
vt 0.814569 0.654228
vn -0.983650 0.179900 0.008279
v 0.094735 0.042311 0.035452
vt 0.817572 0.670402
vn -0.987191 0.156606 -0.030479
v 0.095781 0.042324 0.037140
vt 0.815348 0.670847
vn -0.987488 0.153974 -0.034063
v 0.091954 0.059081 0.036573
vt 0.813635 0.651336
vn -0.974741 0.220794 -0.033629
v 0.090896 0.059611 0.034877
vt 0.815502 0.649881
vn -0.974073 0.224682 -0.026454
v 0.110131 0.077024 0.045793
vt 0.785351 0.638619
vn -0.960730 0.270463 -0.062021
v 0.109403 0.077961 0.044158
vt 0.786650 0.636677
vn -0.946530 0.256922 0.195119
v 0.111461 0.078677 0.045371
vt 0.783575 0.637031
vn -0.950345 0.277132 -0.141574
v 0.116568 0.076467 0.048625
vt 0.778133 0.641773
vn -0.935697 0.296827 -0.190697
v 0.116221 0.078288 0.047686
vt 0.778106 0.639444
vn -0.924775 0.269789 -0.268338
v 0.116012 0.082450 0.043254
vt 0.777533 0.632489
vn -0.925137 0.283289 -0.252722
v 0.115519 0.083095 0.041358
vt 0.778106 0.630169
vn -0.921077 0.389278 -0.008877
v 0.127803 0.085686 0.043191
vt 0.762951 0.632261
vn -0.897438 0.405525 -0.173652
v 0.127037 0.086192 0.041344
vt 0.763445 0.629947
vn -0.895474 0.381614 -0.229120
v 0.125843 0.078238 0.049410
vt 0.767768 0.642720
vn -0.905801 0.338595 -0.254712
v 0.124729 0.079736 0.048506
vt 0.768487 0.640479
vn -0.908016 0.334633 -0.252047
v 0.133953 0.080855 0.048460
vt 0.758523 0.642159
vn -0.861804 0.489515 -0.132922
v 0.132623 0.082327 0.047875
vt 0.759392 0.640046
vn -0.886766 0.440900 -0.138755
v 0.141080 0.086997 0.043612
vt 0.748256 0.636794
vn -0.784974 0.616874 -0.057288
v 0.139308 0.087860 0.043167
vt 0.749595 0.635135
vn -0.856704 0.513198 -0.051828
v 0.139769 0.088728 0.041568
vt 0.748279 0.633468
vn -0.842359 0.538313 -0.025512
v 0.169230 0.052942 0.035044
vt 0.721765 0.680962
vn -0.382948 0.837097 0.390665
v 0.170405 0.050115 0.035050
vt 0.721165 0.684381
vn -0.347579 0.833723 0.429062
v 0.168196 0.052747 0.036722
vt 0.724029 0.681109
vn -0.729057 0.681510 0.063403
v 0.169527 0.049639 0.036683
vt 0.723287 0.684893
vn -0.732844 0.678251 0.053989
v 0.164819 0.063736 0.035052
vt 0.723969 0.667776
vn -0.420577 0.839661 0.343633
v 0.163656 0.063720 0.036720
vt 0.726313 0.667711
vn -0.724469 0.686293 0.064400
v 0.155411 0.082736 0.035089
vt 0.729661 0.643835
vn -0.453507 0.844271 0.285547
v 0.154348 0.082433 0.036757
vt 0.731962 0.644185
vn -0.727256 0.685445 0.035557
v 0.170405 0.050115 0.035050
vt 0.750053 0.158096
vn 0.102672 0.140944 -0.984679
v 0.169230 0.052942 0.035044
vt 0.750274 0.161675
vn 0.108108 0.150927 -0.982616
v 0.172945 0.053639 0.018121
vt 0.770444 0.159538
vn 0.028323 0.093251 -0.995240
v 0.164819 0.063736 0.035052
vt 0.751095 0.175309
vn 0.112848 0.177106 -0.977701
v 0.170101 0.063810 0.018121
vt 0.771228 0.171576
vn 0.028501 0.087539 -0.995753
v 0.155411 0.082736 0.035089
vt 0.752736 0.200053
vn 0.106556 0.221027 -0.969429
v 0.160860 0.084286 0.018121
vt 0.772776 0.196738
vn 0.026542 0.101132 -0.994519
v 0.151355 0.087552 0.035024
vt 0.753270 0.207692
vn 0.083034 0.220762 -0.971787
v 0.157429 0.088617 0.018121
vt 0.773022 0.202747
vn 0.018604 0.081310 -0.996515
v 0.091954 0.059081 0.036573
vt 0.813635 0.651336
vn -0.961477 0.252289 -0.109148
v 0.091977 0.056408 0.036466
vt 0.814569 0.654228
vn -0.961702 0.252468 -0.106724
v 0.113557 0.046133 0.046505
vt 0.792001 0.673645
vn -0.959687 0.256856 -0.114133
v 0.107405 0.043614 0.043737
vt 0.800276 0.674051
vn -0.959775 0.257986 -0.110789
v 0.090914 0.056261 0.034801
vt 0.754051 0.294911
vn -0.000521 0.004539 -0.999990
v 0.094735 0.042311 0.035452
vt 0.753210 0.311356
vn -0.000644 0.004663 -0.999989
v 0.090914 0.056261 0.029397
vt 0.760205 0.294945
vn -0.000614 0.005187 -0.999986
v 0.094735 0.042311 0.029397
vt 0.760104 0.311388
vn -0.000644 0.004478 -0.999990
v 0.090896 0.059611 0.034877
vt 0.753978 0.291103
vn -0.000031 0.003031 -0.999995
v 0.090896 0.059611 0.029397
vt 0.760239 0.291122
vn -0.000031 0.004630 -0.999989
v 0.109403 0.077961 0.044158
vt 0.743408 0.261293
vn -0.037946 0.071571 -0.996713
v 0.090896 0.059611 0.034877
vt 0.753978 0.291103
vn 0.000765 0.001468 -0.999999
v 0.109229 0.077789 0.029397
vt 0.760327 0.261569
vn 1.000000 0.000076 0.000290
v 0.090896 0.059611 0.029397
vt 0.760239 0.291122
vn 0.001102 0.002143 -0.999997
v 0.115519 0.083095 0.041358
vt 0.746576 0.252166
vn -0.012205 0.032567 -0.999395
v 0.115519 0.083095 0.029397
vt 0.760341 0.252059
vn -0.999996 0.002450 -0.001087
v 0.140742 0.089418 0.039476
vt 0.748376 0.222056
vn 0.007899 0.036469 -0.999304
v 0.127037 0.086192 0.041344
vt 0.746406 0.238491
vn -0.006373 0.043936 -0.999014
v 0.141081 0.089498 0.024668
vt 0.765553 0.221896
vn -1.000000 0.000000 -0.000901
v 0.127112 0.086212 0.029397
vt 0.760206 0.238309
vn -0.999995 0.002361 -0.002315
v 0.107405 0.043614 0.043737
vt 0.800276 0.674051
vn -0.962068 0.251160 -0.106509
v 0.095781 0.042324 0.037140
vt 0.815348 0.670847
vn -0.961874 0.253303 -0.103136
v 0.120186 0.046628 0.049431
vt 0.783711 0.675540
vn -0.948624 0.275649 -0.155339
v 0.136595 0.036482 0.050233
vt 0.767926 0.691739
vn -0.904229 0.300827 -0.303105
v 0.139256 0.028527 0.050233
vt 0.767035 0.701270
vn -0.907725 0.282946 -0.309802
v 0.139256 0.028527 0.050233
vt 0.767035 0.701270
vn -0.969602 0.163025 -0.182470
v 0.137875 0.028201 0.049316
vt 0.768950 0.701270
vn -0.969126 0.158990 -0.188461
v 0.136595 0.036482 0.050233
vt 0.767926 0.691739
vn -0.963340 0.138833 -0.229567
v 0.135366 0.035737 0.049316
vt 0.769784 0.692329
vn -0.962257 0.133462 -0.237168
v 0.132298 0.041554 0.050233
vt 0.771442 0.684905
vn -0.951009 0.132116 -0.279514
v 0.131360 0.040467 0.049316
vt 0.773044 0.686043
vn -0.950036 0.129323 -0.284091
v 0.126644 0.045050 0.050233
vt 0.776842 0.679401
vn -0.952455 0.170552 -0.252470
v 0.126088 0.043727 0.049316
vt 0.778120 0.680901
vn -0.953264 0.173835 -0.247123
v 0.120186 0.046628 0.049431
vt 0.783711 0.675540
vn -0.964064 0.209159 -0.163806
v 0.120067 0.045197 0.048514
vt 0.784687 0.677212
vn -0.965155 0.210661 -0.155233
v 0.113557 0.046133 0.046505
vt 0.792001 0.673645
vn -0.964885 0.231236 -0.124606
v 0.113886 0.044736 0.045588
vt 0.792596 0.675515
vn -0.963334 0.239419 -0.121104
v 0.107405 0.043614 0.043737
vt 0.800276 0.674051
vn -0.957904 0.265079 -0.110243
v 0.108151 0.042387 0.042819
vt 0.800514 0.675971
vn -0.957904 0.265237 -0.109858
v 0.137875 0.028201 0.049316
vt 0.737340 0.371715
vn 0.000000 0.000000 -1.000000
v 0.137875 0.028201 0.029662
vt 0.759809 0.371715
vn 0.000000 0.000000 -1.000000
v 0.135366 0.035737 0.049316
vt 0.737340 0.362634
vn 0.000000 0.000000 -1.000000
v 0.135366 0.035737 0.029662
vt 0.759810 0.362634
vn 1.000000 0.000015 0.000046
v 0.131360 0.040467 0.049316
vt 0.737339 0.355548
vn 1.000000 0.000015 0.000046
v 0.131360 0.040467 0.029662
vt 0.759810 0.355546
vn 1.000000 0.000015 0.000046
v 0.126088 0.043727 0.049316
vt 0.737338 0.348461
vn 1.000000 0.000015 0.000046
v 0.126088 0.043727 0.029662
vt 0.759810 0.348459
vn 1.000000 0.000015 0.000046
v 0.120067 0.045197 0.048514
vt 0.738254 0.341374
vn 1.000000 0.000015 0.000015
v 0.120067 0.045197 0.029662
vt 0.759808 0.341372
vn 1.000000 0.000031 -0.000015
v 0.113886 0.044736 0.045588
vt 0.741599 0.334287
vn 0.000061 0.000031 -1.000000
v 0.113886 0.044736 0.029662
vt 0.759806 0.334285
vn 0.000061 0.000031 -1.000000
v 0.108151 0.042387 0.042819
vt 0.744764 0.327199
vn 0.000061 0.000061 -1.000000
v 0.108151 0.042387 0.029662
vt 0.759803 0.327199
vn 0.000000 0.000000 -1.000000
v 0.160341 0.044374 0.045086
vt 0.468244 0.582422
vn -0.011094 0.747659 0.663990
v 0.160341 0.044374 0.020657
vt 0.439818 0.579345
vn -0.014950 0.773710 0.633363
v 0.161275 0.046641 0.043656
vt 0.466854 0.579707
vn 0.058226 0.798571 0.599078
v 0.161275 0.046641 0.020657
vt 0.440267 0.576029
vn 0.056780 0.796495 0.601973
v 0.161275 0.046641 0.043656
vt 0.466854 0.579707
vn 0.195201 0.813651 0.547603
v 0.169527 0.049639 0.036683
vt 0.460531 0.569869
vn 0.185531 0.809967 0.556356
v 0.161275 0.046641 0.020657
vt 0.440267 0.576029
vn 0.187206 0.810359 0.555222
v 0.169527 0.049639 0.020657
vt 0.446030 0.567546
vn 0.173714 0.805595 0.566428
v 0.170405 0.050115 0.035050
vt 0.459205 0.568501
vn 0.146599 0.803276 0.577284
v 0.170405 0.050115 0.020657
vt 0.446455 0.566549
vn 0.154421 0.807434 0.569389
v 0.170405 0.050115 0.020657
vt 0.766614 0.155070
vn 0.050125 0.139121 -0.989006
v 0.172945 0.053639 -0.019044
vt 0.812847 0.157486
vn -0.006415 0.045742 -0.998933
v 0.170101 0.063810 -0.019044
vt 0.813421 0.169549
vn -0.008126 0.041079 -0.999123
v 0.160860 0.084286 -0.019044
vt 0.814551 0.195130
vn -0.007790 0.030402 -0.999507
v 0.157429 0.088617 -0.019044
vt 0.814765 0.201442
vn -0.010165 0.018071 -0.999785
v 0.141081 0.089498 -0.019044
vt 0.815245 0.221223
vn -0.999990 0.002856 -0.003517
v 0.127112 0.086212 -0.019044
vt 0.815495 0.237598
vn -0.999990 0.003163 -0.003148
v 0.115519 0.083095 -0.019044
vt 0.815682 0.251308
vn -0.999990 0.003471 -0.002995
v 0.150889 0.091541 -0.019044
vt 0.815000 0.209771
vn -0.999978 0.002586 -0.006110
v 0.153036 0.091246 -0.019044
vt 0.814936 0.207293
vn -0.010234 0.009114 -0.999906
v 0.172945 0.053639 0.018121
vt 0.448020 0.561781
vn 0.635041 0.764811 -0.108571
v 0.172945 0.053639 -0.019044
vt 0.423879 0.525889
vn 0.632492 0.768174 -0.099312
v 0.146644 0.046877 0.018121
vt 0.423231 0.579491
vn 0.633313 0.767093 -0.102388
v 0.147134 0.044796 -0.019044
vt 0.397971 0.544194
vn 0.630740 0.770378 -0.093191
v 0.160341 0.044374 0.020657
vt 0.439818 0.579345
vn 0.707076 0.010872 -0.707054
v 0.147924 0.041445 0.020657
vt 0.426065 0.584071
vn 0.905827 0.306856 -0.292092
v 0.161275 0.046641 0.020657
vt 0.440267 0.576029
vn 0.849062 0.514131 -0.121499
v 0.169527 0.049639 0.020657
vt 0.446030 0.567546
vn 0.562624 0.615843 0.551536
v 0.172945 0.053639 0.018121
vt 0.448020 0.561781
vn 0.753796 0.600588 0.266618
v 0.170405 0.050115 0.020657
vt 0.446455 0.566549
vn 0.559193 0.614740 0.556236
v 0.161275 0.046641 0.020657
vt 0.440267 0.576029
vn 0.801920 0.107069 -0.587759
v 0.147467 0.043384 0.020657
vt 0.425411 0.582702
vn 0.910444 0.396814 -0.116750
v 0.146644 0.046877 0.018121
vt 0.423231 0.579491
vn 0.845194 0.526409 -0.092419
v 0.147467 0.043384 0.020657
vt 0.425411 0.582702
vn 0.840177 0.538414 -0.064912
v 0.095781 0.042324 0.037140
vt 0.815348 0.670847
vn -0.974762 0.196387 -0.106165
v 0.107405 0.043614 0.043737
vt 0.800276 0.674051
vn -0.974749 0.195987 -0.107021
v 0.096526 0.041098 0.036222
vt 0.815731 0.672742
vn -0.974760 0.196355 -0.106247
v 0.108151 0.042387 0.042819
vt 0.800514 0.675971
vn -0.974752 0.195949 -0.107060
v 0.096526 0.041098 0.036222
vt 0.752315 0.313828
vn -1.000000 0.000214 -0.000779
v 0.108151 0.042387 0.042819
vt 0.744764 0.327199
vn -1.000000 0.000061 -0.000229
v 0.096526 0.041098 0.029662
vt 0.759801 0.313843
vn -1.000000 0.000092 -0.000351
v 0.094735 0.042311 0.029397
vt 0.760104 0.311388
vn -0.001931 0.002575 -0.999995
v 0.094735 0.042311 0.035452
vt 0.753210 0.311356
vn -0.001040 0.001377 -0.999999
v 0.096526 0.041098 0.029662
vt 0.759801 0.313843
vn -0.001716 0.002267 -0.999996
v 0.096526 0.041098 0.036222
vt 0.752315 0.313828
vn -0.000856 0.001101 -0.999999
v 0.094735 0.042311 0.035452
vt 0.817572 0.670402
vn -0.992291 0.113140 -0.050572
v 0.095781 0.042324 0.037140
vt 0.815348 0.670847
vn -0.992291 0.113140 -0.050572
v 0.096526 0.041098 0.036222
vt 0.815731 0.672742
vn -0.992291 0.113140 -0.050572
v 0.098763 0.019375 0.034600
vt 0.121299 0.901351
vn 0.246971 0.123475 0.961124
v 0.087483 0.066220 0.034635
vt 0.066364 0.900670
vn 0.247075 0.123527 0.961091
v 0.111596 0.022298 0.033823
vt 0.121299 0.916385
vn 0.246971 0.123475 0.961124
v 0.100897 0.069275 0.033823
vt 0.066364 0.916385
vn 0.246971 0.123475 0.961124
v 0.147989 0.120894 0.030434
vt 0.020896 0.981929
vn 0.246819 0.123420 0.961170
v 0.151590 0.116392 0.030286
vt 0.026812 0.984799
vn 0.246819 0.123420 0.961170
v 0.151530 0.104852 0.030441
vt 0.039626 0.981806
vn 0.246867 0.123423 0.961157
v 0.153074 0.109875 0.030286
vt 0.034433 0.984800
vn 0.246819 0.123420 0.961170
v 0.087943 0.090106 0.034295
vt 0.039925 0.907241
vn 0.246971 0.123475 0.961124
v 0.096772 0.098729 0.033674
vt 0.032573 0.919261
vn 0.249535 0.123313 0.960482
v 0.109431 0.088502 0.033079
vt 0.047148 0.930766
vn 0.249671 0.123279 0.960451
v 0.132437 0.097504 0.032009
vt 0.042962 0.958648
vn 0.249065 0.123322 0.960603
v 0.127214 0.120436 0.032009
vt 0.016146 0.958647
vn 0.248738 0.123342 0.960685
v 0.147275 0.100884 0.030738
vt 0.042961 0.976061
vn 0.247010 0.123434 0.961119
v 0.142266 0.123864 0.030725
vt 0.016145 0.976309
vn 0.247010 0.123434 0.961119
v 0.103300 0.080395 0.033538
vt 0.054608 0.921881
vn 0.246971 0.123475 0.961124
v 0.085873 0.075611 0.034605
vt 0.055515 0.901260
vn 0.246971 0.123475 0.961124
v 0.085708 0.083290 0.034513
vt 0.046936 0.903023
vn 0.246923 0.123472 0.961137
v 0.122294 -0.024679 0.033823
vt 0.176235 0.916386
vn 0.247027 0.123524 0.961103
v 0.108880 -0.027734 0.034635
vt 0.176235 0.900671
vn 0.247019 0.123479 0.961111
v 0.186907 -0.038681 0.030286
vt 0.208166 0.984800
vn 0.246923 0.123472 0.961137
v 0.188391 -0.045199 0.030286
vt 0.215787 0.984800
vn 0.247027 0.123524 0.961103
v 0.183340 -0.034823 0.030441
vt 0.202972 0.981806
vn 0.247019 0.123479 0.961111
v 0.187094 -0.050815 0.030434
vt 0.221703 0.981930
vn 0.247027 0.123524 0.961103
v 0.138313 -0.038315 0.033079
vt 0.195451 0.930767
vn 0.246714 0.124872 0.961010
v 0.131330 -0.053015 0.033674
vt 0.210026 0.919262
vn 0.246753 0.124830 0.961005
v 0.119638 -0.049065 0.034295
vt 0.202674 0.907242
vn 0.246923 0.123472 0.961137
v 0.168170 -0.059399 0.032009
vt 0.226453 0.958647
vn 0.246917 0.124444 0.961013
v 0.162948 -0.036467 0.032009
vt 0.199636 0.958649
vn 0.246846 0.124572 0.961015
v 0.183221 -0.055971 0.030725
vt 0.226454 0.976309
vn 0.247027 0.123524 0.961103
v 0.177786 -0.033088 0.030738
vt 0.199637 0.976061
vn 0.247027 0.123524 0.961103
v 0.111496 -0.036896 0.034605
vt 0.187084 0.901260
vn 0.247019 0.123479 0.961111
v 0.129276 -0.033663 0.033538
vt 0.187990 0.921882
vn 0.246971 0.123475 0.961124
v 0.114672 -0.043889 0.034513
vt 0.195662 0.903024
vn 0.246923 0.123472 0.961137
v 0.142266 0.123864 0.030725
vt 0.915857 0.298053
vn -0.000022 0.707107 0.707107
v 0.127214 0.120436 0.032009
vt 0.917321 0.280452
vn -0.000022 0.707107 0.707107
v 0.142266 0.123864 0.021895
vt 0.905788 0.298053
vn -0.000022 0.707107 0.707107
v 0.127214 0.120436 0.023178
vt 0.907252 0.280452
vn -0.000022 0.707107 0.707107
v 0.147989 0.120894 0.030434
vt 0.915526 0.305405
vn -0.000065 0.707128 0.707085
v 0.147989 0.120894 0.021604
vt 0.905457 0.305405
vn -0.000022 0.707107 0.707107
v 0.096772 0.098729 0.033674
vt 0.919220 0.237820
vn -0.000022 0.707107 0.707107
v 0.096772 0.098729 0.024844
vt 0.909151 0.237820
vn -0.000022 0.707107 0.707107
v 0.153074 0.109875 0.030286
vt 0.915356 0.319599
vn -0.000022 0.707107 0.707107
v 0.151590 0.116392 0.030286
vt 0.915356 0.311979
vn -0.000065 0.707172 0.707042
v 0.153074 0.109875 0.021456
vt 0.905288 0.319599
vn -0.000022 0.707107 0.707107
v 0.151590 0.116392 0.021456
vt 0.905288 0.311978
vn -0.000022 0.707107 0.707107
v 0.087943 0.090106 0.034295
vt 0.919929 0.223748
vn -0.000022 0.707107 0.707107
v 0.087943 0.090106 0.025465
vt 0.909860 0.223748
vn -0.000022 0.707107 0.707107
v 0.151530 0.104852 0.030441
vt 0.915533 0.325592
vn -0.000022 0.707107 0.707107
v 0.151530 0.104852 0.021611
vt 0.905464 0.325592
vn -0.000022 0.707107 0.707107
v 0.085708 0.083290 0.034513
vt 0.920178 0.215569
vn -0.000022 0.707107 0.707107
v 0.085708 0.083290 0.025683
vt 0.910109 0.215569
vn 0.000108 0.707150 0.707064
v 0.109431 0.088502 0.033079
vt 0.918541 0.377746
vn -0.000022 0.707107 0.707107
v 0.132437 0.097504 0.032009
vt 0.917320 0.349578
vn -0.000022 0.707107 0.707107
v 0.109431 0.088502 0.024249
vt 0.908472 0.377746
vn -0.000022 0.707107 0.707107
v 0.132437 0.097504 0.023178
vt 0.907252 0.349578
vn -0.000022 0.707107 0.707107
v 0.085873 0.075611 0.034605
vt 0.920282 0.206811
vn -0.000022 0.707107 0.707107
v 0.085873 0.075611 0.025774
vt 0.910213 0.206811
vn -0.000022 0.707107 0.707107
v 0.147275 0.100884 0.030738
vt 0.915872 0.332226
vn -0.000022 0.707107 0.707107
v 0.147275 0.100884 0.021908
vt 0.905803 0.332226
vn -0.000022 0.707107 0.707107
v 0.111596 0.022298 0.033823
vt 0.919389 0.457244
vn -0.000022 0.707107 0.707107
v 0.100897 0.069275 0.033823
vt 0.919388 0.402309
vn 0.000108 0.707150 0.707064
v 0.111596 0.022298 0.024992
vt 0.909320 0.457244
vn -0.000022 0.707107 0.707107
v 0.100897 0.069275 0.024992
vt 0.909320 0.402309
vn -0.000022 0.707107 0.707107
v 0.103300 0.080395 0.033538
vt 0.919064 0.389335
vn -0.000022 0.707107 0.707107
v 0.103300 0.080395 0.024708
vt 0.908996 0.389335
vn -0.000022 0.707107 0.707107
v 0.087483 0.066220 0.034635
vt 0.920317 0.195947
vn -0.000022 0.707107 0.707107
v 0.098763 0.019375 0.034600
vt 0.920277 0.141007
vn -0.000022 0.707107 0.707107
v 0.087483 0.066220 0.025805
vt 0.910248 0.195947
vn -0.000022 0.707107 0.707107
v 0.098763 0.019375 0.025770
vt 0.910209 0.141007
vn -0.000022 0.707107 0.707107
v 0.168170 -0.059399 0.032009
vt 0.917320 0.634037
vn -0.000022 0.707107 0.707107
v 0.183221 -0.055971 0.030725
vt 0.915857 0.616435
vn -0.000022 0.707107 0.707107
v 0.168170 -0.059399 0.023178
vt 0.907252 0.634037
vn -0.000022 0.707107 0.707107
v 0.183221 -0.055971 0.021895
vt 0.905788 0.616435
vn -0.000022 0.707107 0.707107
v 0.187094 -0.050815 0.030434
vt 0.915525 0.609083
vn -0.000022 0.707107 0.707107
v 0.187094 -0.050815 0.021604
vt 0.905457 0.609083
vn -0.000022 0.707107 0.707107
v 0.131330 -0.053015 0.033674
vt 0.919219 0.676668
vn -0.000151 0.707172 0.707042
v 0.131330 -0.053015 0.024844
vt 0.909151 0.676669
vn -0.000151 0.707172 0.707042
v 0.188391 -0.045199 0.030286
vt 0.915356 0.602510
vn -0.000022 0.707107 0.707107
v 0.186907 -0.038681 0.030286
vt 0.915356 0.594889
vn -0.000022 0.707107 0.707107
v 0.188391 -0.045199 0.021456
vt 0.905288 0.602510
vn -0.000022 0.707107 0.707107
v 0.186907 -0.038681 0.021456
vt 0.905288 0.594889
vn -0.000022 0.707107 0.707107
v 0.119638 -0.049065 0.034295
vt 0.919928 0.690740
vn -0.000108 0.707150 0.707064
v 0.119638 -0.049065 0.025465
vt 0.909859 0.690741
vn -0.000151 0.707215 0.706999
v 0.183340 -0.034823 0.030441
vt 0.915533 0.588897
vn -0.000022 0.707107 0.707107
v 0.183340 -0.034823 0.021611
vt 0.905464 0.588897
vn -0.000022 0.707107 0.707107
v 0.114672 -0.043889 0.034513
vt 0.920177 0.698919
vn 0.000108 0.707193 0.707020
v 0.114672 -0.043889 0.025683
vt 0.910108 0.698919
vn -0.000065 0.707128 0.707085
v 0.162948 -0.036467 0.032009
vt 0.917320 0.564910
vn -0.000022 0.707107 0.707107
v 0.138313 -0.038315 0.033079
vt 0.918541 0.536742
vn -0.000022 0.707107 0.707107
v 0.162948 -0.036467 0.023178
vt 0.907252 0.564910
vn -0.000022 0.707107 0.707107
v 0.138313 -0.038315 0.024249
vt 0.908472 0.536742
vn -0.000022 0.707107 0.707107
v 0.111496 -0.036896 0.034605
vt 0.920281 0.707677
vn -0.000022 0.707107 0.707107
v 0.111496 -0.036896 0.025774
vt 0.910212 0.707677
vn -0.000022 0.707107 0.707107
v 0.177786 -0.033088 0.030738
vt 0.915871 0.582263
vn -0.000022 0.707107 0.707107
v 0.177786 -0.033088 0.021907
vt 0.905803 0.582263
vn -0.000022 0.707107 0.707107
v 0.122294 -0.024679 0.033823
vt 0.919389 0.512180
vn -0.000022 0.707107 0.707107
v 0.122294 -0.024679 0.024992
vt 0.909320 0.512180
vn -0.000022 0.707107 0.707107
v 0.129276 -0.033663 0.033538
vt 0.919064 0.525153
vn -0.000022 0.707107 0.707107
v 0.129276 -0.033663 0.024708
vt 0.908996 0.525153
vn -0.000022 0.707107 0.707107
v 0.098763 0.019375 0.034600
vt 0.920276 0.773481
vn -0.000022 0.707107 0.707107
v 0.108880 -0.027734 0.034635
vt 0.920316 0.718541
vn -0.000065 0.707172 0.707042
v 0.098763 0.019375 0.025770
vt 0.910207 0.773481
vn -0.000022 0.707107 0.707107
v 0.108880 -0.027734 0.025805
vt 0.910247 0.718542
vn -0.000065 0.707172 0.707042
v 0.142266 0.123864 -0.045331
vt 0.829136 0.298052
vn -0.000022 0.707107 0.707107
v 0.127214 0.120436 -0.044047
vt 0.830600 0.280451
vn -0.000022 0.707107 0.707107
v 0.147989 0.120894 -0.045621
vt 0.828805 0.305404
vn -0.000022 0.707107 0.707107
v 0.153074 0.109875 -0.045770
vt 0.828635 0.319599
vn -0.000022 0.707107 0.707107
v 0.151590 0.116392 -0.045770
vt 0.828635 0.311978
vn -0.000022 0.707107 0.707107
v 0.151530 0.104852 -0.045615
vt 0.828812 0.325591
vn -0.000022 0.707107 0.707107
v 0.132437 0.097504 -0.044047
vt 0.830599 0.349577
vn -0.000022 0.707107 0.707107
v 0.147275 0.100884 -0.045318
vt 0.829150 0.332225
vn -0.000022 0.707107 0.707107
v 0.168170 -0.059399 -0.044047
vt 0.830599 0.634037
vn -0.000022 0.707107 0.707107
v 0.183221 -0.055971 -0.045331
vt 0.829136 0.616435
vn -0.000022 0.707107 0.707107
v 0.187094 -0.050815 -0.045621
vt 0.828804 0.609083
vn -0.000022 0.707107 0.707107
v 0.188391 -0.045199 -0.045770
vt 0.828635 0.602510
vn -0.000022 0.707107 0.707107
v 0.186907 -0.038681 -0.045770
vt 0.828635 0.594889
vn -0.000022 0.707107 0.707107
v 0.183340 -0.034823 -0.045615
vt 0.828812 0.588897
vn -0.000022 0.707107 0.707107
v 0.177786 -0.033088 -0.045318
vt 0.829150 0.582263
vn -0.000022 0.707107 0.707107
v 0.162948 -0.036467 -0.044047
vt 0.830599 0.564911
vn -0.000022 0.707107 0.707107
v 0.127214 0.120436 -0.044047
vt 0.830599 0.376394
vn -0.000022 0.707107 0.707107
v 0.127214 0.120436 0.023178
vt 0.907251 0.376394
vn -0.000022 0.707107 0.707107
v 0.168170 -0.059399 0.023178
vt 0.907252 0.538094
vn -0.000022 0.707107 0.707107
v 0.168170 -0.059399 -0.044047
vt 0.830599 0.538094
vn -0.000022 0.707107 0.707107
v 0.110484 0.044320 0.029096
vt 0.339857 0.529279
vn -0.113431 0.987056 -0.113375
v 0.157408 0.055100 0.029096
vt 0.339857 0.474381
vn -0.113394 0.987056 -0.113412
v 0.115118 0.024148 0.029096
vt 0.316257 0.529279
vn -0.113394 0.987056 -0.113412
v 0.163316 0.035221 0.029096
vt 0.316257 0.472891
vn -0.113390 0.987061 -0.113372
v 0.107159 0.062669 0.029096
vt 0.361097 0.528288
vn -0.113435 0.987051 -0.113416
v 0.149559 0.072410 0.029096
vt 0.361097 0.478684
vn -0.113431 0.987056 -0.113375
v 0.117337 0.072652 0.029096
vt 0.369593 0.514429
vn -0.113394 0.987056 -0.113412
v 0.145627 0.079152 0.029096
vt 0.369593 0.481332
vn -0.113435 0.987051 -0.113416
v 0.124881 0.078591 0.029096
vt 0.374267 0.504529
vn -0.113435 0.987051 -0.113416
v 0.139757 0.082009 0.029096
vt 0.374267 0.487125
vn -0.113479 0.987041 -0.113460
v 0.166677 0.014757 0.029096
vt 0.292657 0.474380
vn -0.113390 0.987061 -0.113372
v 0.119753 0.003976 0.029096
vt 0.292657 0.529279
vn -0.113394 0.987056 -0.113412
v 0.167169 -0.004243 0.029096
vt 0.271418 0.478684
vn -0.113390 0.987061 -0.113372
v 0.124770 -0.013984 0.029096
vt 0.271418 0.528288
vn -0.113390 0.987061 -0.113372
v 0.166574 -0.012025 0.029096
vt 0.262922 0.481332
vn -0.113435 0.987051 -0.113416
v 0.138285 -0.018525 0.029096
vt 0.262922 0.514429
vn -0.113435 0.987051 -0.113416
v 0.162541 -0.017158 0.029096
vt 0.258248 0.487125
vn -0.113475 0.987046 -0.113420
v 0.147664 -0.020576 0.029096
vt 0.258248 0.504529
vn -0.113216 0.987097 -0.113235
v 0.139757 0.082009 0.029096
vt 0.347894 0.890062
vn -0.899387 0.283114 -0.333090
v 0.124881 0.078591 0.029096
vt 0.365299 0.890062
vn -0.899387 0.283114 -0.333090
v 0.139757 0.082009 0.021783
vt 0.347894 0.881723
vn -0.899387 0.283114 -0.333090
v 0.124881 0.078591 0.021783
vt 0.365298 0.881723
vn -0.899387 0.283114 -0.333090
v 0.145627 0.079152 0.029096
vt 0.340451 0.890062
vn -0.582458 0.567024 -0.582431
v 0.139757 0.082009 0.029096
vt 0.347894 0.890062
vn -0.582458 0.567024 -0.582431
v 0.145627 0.079152 0.021783
vt 0.340451 0.881723
vn -0.582458 0.567024 -0.582431
v 0.139757 0.082009 0.021783
vt 0.347894 0.881723
vn -0.582458 0.567024 -0.582431
v 0.124881 0.078591 0.029096
vt 0.365299 0.890062
vn -0.866284 0.433130 0.248897
v 0.117337 0.072652 0.029096
vt 0.376246 0.890062
vn -0.866284 0.433130 0.248897
v 0.124881 0.078591 0.021783
vt 0.365298 0.881723
vn -0.866284 0.433130 0.248897
v 0.117337 0.072652 0.021783
vt 0.376246 0.881723
vn -0.866284 0.433130 0.248897
v 0.163316 0.035221 0.029096
vt 0.286234 0.890061
vn -0.145442 0.978615 -0.145461
v 0.157408 0.055100 0.029096
vt 0.309881 0.890062
vn -0.145442 0.978615 -0.145461
v 0.163316 0.035221 0.021783
vt 0.286234 0.881723
vn -0.145442 0.978615 -0.145461
v 0.157408 0.055100 0.021783
vt 0.309881 0.881723
vn -0.145437 0.978622 -0.145418
v 0.110484 0.044320 0.029096
vt 0.413766 0.890062
vn 0.249263 0.124621 0.960384
v 0.115118 0.024148 0.029096
vt 0.437365 0.890062
vn 0.249263 0.124621 0.960384
v 0.110484 0.044320 0.021783
vt 0.413766 0.881723
vn 0.249263 0.124621 0.960384
v 0.115118 0.024148 0.021783
vt 0.437365 0.881723
vn 0.249263 0.124621 0.960384
v 0.157408 0.055100 0.029096
vt 0.309881 0.890062
vn -0.215969 0.952240 -0.215863
v 0.149559 0.072410 0.029096
vt 0.331552 0.890061
vn -0.215933 0.952227 -0.215954
v 0.157408 0.055100 0.021783
vt 0.309881 0.881723
vn -0.215969 0.952240 -0.215863
v 0.149559 0.072410 0.021783
vt 0.331552 0.881723
vn -0.215933 0.952227 -0.215954
v 0.107159 0.062669 0.029096
vt 0.392503 0.890062
vn 0.194473 0.097208 0.976079
v 0.110484 0.044320 0.029096
vt 0.413766 0.890062
vn 0.194473 0.097208 0.976079
v 0.107159 0.062669 0.021783
vt 0.392503 0.881723
vn 0.194473 0.097208 0.976079
v 0.110484 0.044320 0.021783
vt 0.413766 0.881723
vn 0.194473 0.097208 0.976079
v 0.149559 0.072410 0.029096
vt 0.331552 0.890061
vn -0.269635 0.924423 -0.269702
v 0.145627 0.079152 0.029096
vt 0.340451 0.890062
vn -0.269627 0.924441 -0.269649
v 0.149559 0.072410 0.021783
vt 0.331552 0.881723
vn -0.269627 0.924441 -0.269649
v 0.145627 0.079152 0.021783
vt 0.340451 0.881723
vn -0.269619 0.924458 -0.269596
v 0.117337 0.072652 0.029096
vt 0.376246 0.890062
vn -0.821669 0.410797 0.395102
v 0.107159 0.062669 0.029096
vt 0.392503 0.890062
vn -0.821669 0.410797 0.395102
v 0.117337 0.072652 0.021783
vt 0.376246 0.881723
vn -0.821669 0.410797 0.395102
v 0.107159 0.062669 0.021783
vt 0.392503 0.881723
vn -0.821669 0.410797 0.395102
v 0.147664 -0.020576 0.029096
vt 0.509432 0.890062
vn 0.672510 0.309022 -0.672485
v 0.162541 -0.017158 0.029096
vt 0.526836 0.890062
vn 0.672510 0.309022 -0.672485
v 0.147664 -0.020576 0.021783
vt 0.509432 0.881723
vn 0.672510 0.309022 -0.672485
v 0.162541 -0.017158 0.021783
vt 0.526836 0.881723
vn 0.672510 0.309022 -0.672485
v 0.162541 -0.017158 0.029096
vt 0.224574 0.890061
vn 0.343476 0.874126 -0.343405
v 0.166574 -0.012025 0.029096
vt 0.232017 0.890061
vn 0.343476 0.874126 -0.343405
v 0.162541 -0.017158 0.021783
vt 0.224574 0.881723
vn 0.343476 0.874126 -0.343405
v 0.166574 -0.012025 0.021783
vt 0.232017 0.881723
vn 0.343476 0.874126 -0.343405
v 0.138285 -0.018525 0.029096
vt 0.498484 0.890062
vn 0.895938 0.272620 -0.350674
v 0.147664 -0.020576 0.029096
vt 0.509432 0.890062
vn 0.895938 0.272620 -0.350674
v 0.138285 -0.018525 0.021783
vt 0.498484 0.881723
vn 0.895938 0.272620 -0.350674
v 0.147664 -0.020576 0.021783
vt 0.509432 0.881723
vn 0.895938 0.272620 -0.350674
v 0.166677 0.014757 0.029096
vt 0.262587 0.890062
vn -0.081636 0.993321 -0.081547
v 0.163316 0.035221 0.029096
vt 0.286234 0.890061
vn -0.081600 0.993321 -0.081583
v 0.166677 0.014757 0.021783
vt 0.262587 0.881723
vn -0.081600 0.993321 -0.081583
v 0.163316 0.035221 0.021783
vt 0.286234 0.881723
vn -0.081600 0.993321 -0.081583
v 0.119753 0.003976 0.029096
vt 0.460965 0.890062
vn 0.249263 0.124621 0.960384
v 0.119753 0.003976 0.021783
vt 0.460965 0.881723
vn 0.249263 0.124621 0.960384
v 0.167169 -0.004243 0.029096
vt 0.240916 0.890061
vn -0.012960 0.999831 -0.013007
v 0.166677 0.014757 0.029096
vt 0.262587 0.890062
vn -0.012960 0.999832 -0.012976
v 0.167169 -0.004243 0.021783
vt 0.240916 0.881723
vn -0.012960 0.999831 -0.013007
v 0.166677 0.014757 0.021783
vt 0.262587 0.881723
vn -0.012960 0.999832 -0.012944
v 0.119753 0.003976 0.029096
vt 0.460965 0.890062
vn 0.305245 0.152612 0.939965
v 0.124770 -0.013984 0.029096
vt 0.482228 0.890062
vn 0.305245 0.152612 0.939965
v 0.119753 0.003976 0.021783
vt 0.460965 0.881723
vn 0.305245 0.152612 0.939965
v 0.124770 -0.013984 0.021783
vt 0.482228 0.881723
vn 0.305245 0.152612 0.939965
v 0.166574 -0.012025 0.029096
vt 0.232017 0.890061
vn 0.038217 0.998540 -0.038168
v 0.167169 -0.004243 0.029096
vt 0.240916 0.890061
vn 0.038217 0.998540 -0.038168
v 0.166574 -0.012025 0.021783
vt 0.232017 0.881723
vn 0.038217 0.998540 -0.038168
v 0.167169 -0.004243 0.021783
vt 0.240916 0.881723
vn 0.038217 0.998540 -0.038168
v 0.124770 -0.013984 0.029096
vt 0.482228 0.890062
vn 0.912868 0.366857 -0.179132
v 0.138285 -0.018525 0.029096
vt 0.498484 0.890062
vn 0.912868 0.366857 -0.179132
v 0.124770 -0.013984 0.021783
vt 0.482228 0.881723
vn 0.912868 0.366857 -0.179132
v 0.138285 -0.018525 0.021783
vt 0.498484 0.881723
vn 0.912868 0.366857 -0.179132
usemtl Brakes
f 3/3/3 2/2/2 1/1/1
f 4/4/4 2/2/2 3/3/3
f 1/1/1 6/6/6 5/5/5
f 2/2/2 6/6/6 1/1/1
f 9/9/9 8/8/8 7/7/7
f 10/10/10 7/7/7 8/8/8
f 11/11/11 7/7/7 10/10/10
f 5/5/5 11/11/11 10/10/10
f 12/12/12 11/11/11 5/5/5
f 3/3/3 13/13/13 4/4/4
f 15/15/15 9/9/9 14/14/14
f 8/8/8 9/9/9 15/15/15
f 9/9/9 7/7/7 16/16/16
f 19/19/19 18/18/18 17/17/17
f 20/20/20 18/18/18 19/19/19
f 23/23/23 22/22/22 21/21/21
f 24/24/24 22/22/22 23/23/23
f 26/26/26 24/24/24 25/25/25
f 27/27/27 24/24/24 26/26/26
f 30/30/30 29/29/29 28/28/28
f 31/31/31 29/29/29 30/30/30
f 33/33/33 31/31/31 32/32/32
f 29/29/29 31/31/31 33/33/33
f 35/35/35 32/32/32 34/34/34
f 33/33/33 32/32/32 35/35/35
f 38/38/38 37/37/37 36/36/36
f 35/35/35 37/37/37 38/38/38
f 40/40/40 34/34/34 39/39/39
f 37/37/37 34/34/34 40/40/40
f 42/42/42 39/39/39 41/41/41
f 40/40/40 39/39/39 42/42/42
f 45/45/45 44/44/44 43/43/43
f 46/46/46 44/44/44 45/45/45
f 36/36/36 46/46/46 38/38/38
f 44/44/44 46/46/46 36/36/36
f 25/25/25 48/48/48 47/47/47
f 49/49/49 48/48/48 25/25/25
f 43/43/43 49/49/49 45/45/45
f 48/48/48 49/49/49 43/43/43
f 41/41/41 47/47/47 42/42/42
f 26/26/26 47/47/47 41/41/41
f 52/52/52 51/51/51 50/50/50
f 53/53/53 51/51/51 52/52/52
f 55/55/55 52/52/52 54/54/54
f 53/53/53 52/52/52 55/55/55
f 57/57/57 54/54/54 56/56/56
f 55/55/55 54/54/54 57/57/57
f 21/21/21 56/56/56 23/23/23
f 57/57/57 56/56/56 21/21/21
f 6/6/6 35/35/35 38/38/38
f 49/49/49 12/12/12 45/45/45
f 42/42/42 48/48/48 43/43/43
f 47/47/47 48/48/48 42/42/42
f 40/40/40 36/36/36 37/37/37
f 11/11/11 52/52/52 7/7/7
f 54/54/54 52/52/52 11/11/11
f 12/12/12 54/54/54 11/11/11
f 56/56/56 54/54/54 12/12/12
f 49/49/49 56/56/56 12/12/12
f 23/23/23 56/56/56 49/49/49
f 25/25/25 23/23/23 49/49/49
f 24/24/24 23/23/23 25/25/25
f 60/60/60 59/59/59 58/58/58
f 59/59/59 61/61/61 58/58/58
f 62/62/62 61/61/61 59/59/59
f 62/62/62 63/63/63 61/61/61
f 64/64/64 63/63/63 62/62/62
f 64/64/64 65/65/65 63/63/63
f 66/66/66 65/65/65 64/64/64
f 66/66/66 18/18/18 65/65/65
f 17/17/17 18/18/18 66/66/66
f 35/35/35 6/6/6 67/67/67
f 67/67/67 2/2/2 68/68/68
f 6/6/6 2/2/2 67/67/67
f 2/2/2 70/70/70 69/69/69
f 40/40/40 43/43/43 44/44/44
f 42/42/42 43/43/43 40/40/40
f 46/46/46 12/12/12 5/5/5
f 45/45/45 12/12/12 46/46/46
f 5/5/5 38/38/38 46/46/46
f 6/6/6 38/38/38 5/5/5
f 40/40/40 44/44/44 36/36/36
f 73/73/73 72/72/72 71/71/71
f 74/74/74 72/72/72 73/73/73
f 75/75/75 74/74/74 73/73/73
f 76/76/76 74/74/74 75/75/75
f 79/79/79 78/78/78 77/77/77
f 80/80/80 78/78/78 79/79/79
f 81/81/81 80/80/80 79/79/79
f 82/82/82 80/80/80 81/81/81
f 85/85/85 84/84/84 83/83/83
f 86/86/86 84/84/84 85/85/85
f 20/20/20 86/86/86 85/85/85
f 19/19/19 86/86/86 20/20/20
f 83/83/83 82/82/82 81/81/81
f 84/84/84 82/82/82 83/83/83
f 27/27/27 22/22/22 24/24/24
f 37/37/37 35/35/35 34/34/34
f 25/25/25 47/47/47 26/26/26
f 68/68/68 88/88/88 87/87/87
f 2/2/2 88/88/88 68/68/68
f 2/2/2 4/4/4 89/89/89
f 2/2/2 89/89/89 70/70/70
f 90/90/90 13/13/13 3/3/3
f 3/3/3 92/92/92 91/91/91
f 3/3/3 91/91/91 90/90/90
f 95/95/95 94/94/94 93/93/93
f 96/96/96 94/94/94 95/95/95
f 98/98/98 93/93/93 97/97/97
f 95/95/95 93/93/93 98/98/98
f 100/100/100 97/97/97 99/99/99
f 98/98/98 97/97/97 100/100/100
f 102/102/102 99/99/99 101/101/101
f 100/100/100 99/99/99 102/102/102
f 104/104/104 101/101/101 103/103/103
f 102/102/102 101/101/101 104/104/104
f 106/106/106 103/103/103 105/105/105
f 104/104/104 103/103/103 106/106/106
f 109/109/109 108/108/108 107/107/107
f 110/110/110 108/108/108 109/109/109
f 112/112/112 107/107/107 111/111/111
f 109/109/109 107/107/107 112/112/112
f 114/114/114 111/111/111 113/113/113
f 112/112/112 111/111/111 114/114/114
f 116/116/116 113/113/113 115/115/115
f 114/114/114 113/113/113 116/116/116
f 118/118/118 115/115/115 117/117/117
f 116/116/116 115/115/115 118/118/118
f 120/120/120 117/117/117 119/119/119
f 118/118/118 117/117/117 120/120/120
f 52/52/52 16/16/16 7/7/7
f 50/50/50 16/16/16 52/52/52
f 123/123/123 122/122/122 121/121/121
f 124/124/124 122/122/122 123/123/123
f 121/121/121 126/126/126 125/125/125
f 122/122/122 126/126/126 121/121/121
f 129/129/129 128/128/128 127/127/127
f 130/130/130 128/128/128 129/129/129
f 127/127/127 132/132/132 131/131/131
f 128/128/128 132/132/132 127/127/127
f 60/60/60 58/58/58 133/133/133
f 135/135/135 61/61/61 134/134/134
f 58/58/58 61/61/61 135/135/135
f 134/134/134 63/63/63 136/136/136
f 61/61/61 63/63/63 134/134/134
f 136/136/136 65/65/65 137/137/137
f 63/63/63 65/65/65 136/136/136
f 139/139/139 83/83/83 138/138/138
f 85/85/85 83/83/83 139/139/139
f 138/138/138 81/81/81 140/140/140
f 83/83/83 81/81/81 138/138/138
f 141/141/141 85/85/85 139/139/139
f 20/20/20 85/85/85 141/141/141
f 137/137/137 18/18/18 142/142/142
f 65/65/65 18/18/18 137/137/137
f 142/142/142 20/20/20 141/141/141
f 18/18/18 20/20/20 142/142/142
f 145/145/145 144/144/144 143/143/143
f 146/146/146 144/144/144 145/145/145
f 149/149/149 148/148/148 147/147/147
f 150/150/150 148/148/148 149/149/149
f 153/153/153 152/152/152 151/151/151
f 154/154/154 152/152/152 153/153/153
f 147/147/147 156/156/156 155/155/155
f 148/148/148 156/156/156 147/147/147
f 154/154/154 158/158/158 157/157/157
f 153/153/153 158/158/158 154/154/154
f 161/161/161 160/160/160 159/159/159
f 162/162/162 160/160/160 161/161/161
f 164/164/164 163/163/163 119/119/119
f 165/165/165 163/163/163 164/164/164
f 168/168/168 167/167/167 166/166/166
f 169/169/169 167/167/167 168/168/168
f 172/172/172 171/171/171 170/170/170
f 175/175/175 174/174/174 173/173/173
f 176/176/176 174/174/174 175/175/175
f 176/176/176 177/177/177 174/174/174
f 178/178/178 177/177/177 176/176/176
f 181/181/181 180/180/180 179/179/179
f 183/183/183 181/181/181 182/182/182
f 180/180/180 181/181/181 183/183/183
f 178/178/178 182/182/182 184/184/184
f 183/183/183 182/182/182 178/178/178
f 173/173/173 185/185/185 175/175/175
f 186/186/186 179/179/179 180/180/180
f 187/187/187 179/179/179 186/186/186
f 188/188/188 181/181/181 179/179/179
f 191/191/191 190/190/190 189/189/189
f 192/192/192 190/190/190 191/191/191
f 195/195/195 194/194/194 193/193/193
f 196/196/196 194/194/194 195/195/195
f 198/198/198 193/193/193 197/197/197
f 199/199/199 193/193/193 198/198/198
f 202/202/202 201/201/201 200/200/200
f 203/203/203 201/201/201 202/202/202
f 204/204/204 200/200/200 201/201/201
f 205/205/205 200/200/200 204/204/204
f 206/206/206 205/205/205 204/204/204
f 207/207/207 205/205/205 206/206/206
f 209/209/209 208/208/208 206/206/206
f 210/210/210 208/208/208 209/209/209
f 211/211/211 207/207/207 208/208/208
f 212/212/212 207/207/207 211/211/211
f 213/213/213 212/212/212 211/211/211
f 214/214/214 212/212/212 213/213/213
f 217/217/217 216/216/216 215/215/215
f 218/218/218 216/216/216 217/217/217
f 210/210/210 215/215/215 216/216/216
f 209/209/209 215/215/215 210/210/210
f 199/199/199 220/220/220 219/219/219
f 221/221/221 220/220/220 199/199/199
f 218/218/218 219/219/219 220/220/220
f 217/217/217 219/219/219 218/218/218
f 214/214/214 221/221/221 198/198/198
f 213/213/213 221/221/221 214/214/214
f 224/224/224 223/223/223 222/222/222
f 225/225/225 223/223/223 224/224/224
f 226/226/226 224/224/224 222/222/222
f 227/227/227 224/224/224 226/226/226
f 228/228/228 227/227/227 226/226/226
f 229/229/229 227/227/227 228/228/228
f 196/196/196 229/229/229 228/228/228
f 195/195/195 229/229/229 196/196/196
f 209/209/209 206/206/206 177/177/177
f 217/217/217 184/184/184 219/219/219
f 213/213/213 220/220/220 221/221/221
f 218/218/218 220/220/220 213/213/213
f 208/208/208 210/210/210 211/211/211
f 182/182/182 224/224/224 227/227/227
f 181/181/181 224/224/224 182/182/182
f 184/184/184 227/227/227 229/229/229
f 182/182/182 227/227/227 184/184/184
f 219/219/219 229/229/229 195/195/195
f 184/184/184 229/229/229 219/219/219
f 199/199/199 195/195/195 193/193/193
f 219/219/219 195/195/195 199/199/199
f 232/232/232 231/231/231 230/230/230
f 231/231/231 234/234/234 233/233/233
f 232/232/232 234/234/234 231/231/231
f 233/233/233 236/236/236 235/235/235
f 234/234/234 236/236/236 233/233/233
f 235/235/235 238/238/238 237/237/237
f 236/236/236 238/238/238 235/235/235
f 237/237/237 190/190/190 192/192/192
f 238/238/238 190/190/190 237/237/237
f 239/239/239 177/177/177 206/206/206
f 239/239/239 174/174/174 177/177/177
f 240/240/240 174/174/174 239/239/239
f 242/242/242 241/241/241 174/174/174
f 211/211/211 218/218/218 213/213/213
f 216/216/216 218/218/218 211/211/211
f 215/215/215 184/184/184 217/217/217
f 178/178/178 184/184/184 215/215/215
f 178/178/178 209/209/209 177/177/177
f 215/215/215 209/209/209 178/178/178
f 210/210/210 216/216/216 211/211/211
f 245/245/245 244/244/244 243/243/243
f 246/246/246 244/244/244 245/245/245
f 248/248/248 243/243/243 247/247/247
f 245/245/245 243/243/243 248/248/248
f 251/251/251 250/250/250 249/249/249
f 252/252/252 250/250/250 251/251/251
f 254/254/254 249/249/249 253/253/253
f 251/251/251 249/249/249 254/254/254
f 257/257/257 256/256/256 255/255/255
f 258/258/258 256/256/256 257/257/257
f 189/189/189 255/255/255 191/191/191
f 257/257/257 255/255/255 189/189/189
f 258/258/258 253/253/253 256/256/256
f 254/254/254 253/253/253 258/258/258
f 193/193/193 194/194/194 197/197/197
f 207/207/207 206/206/206 208/208/208
f 198/198/198 221/221/221 199/199/199
f 240/240/240 259/259/259 174/174/174
f 260/260/260 259/259/259 240/240/240
f 261/261/261 173/173/173 174/174/174
f 241/241/241 261/261/261 174/174/174
f 175/175/175 185/185/185 262/262/262
f 263/263/263 92/92/92 175/175/175
f 262/262/262 263/263/263 175/175/175
f 266/266/266 265/265/265 264/264/264
f 267/267/267 265/265/265 266/266/266
f 268/268/268 267/267/267 266/266/266
f 269/269/269 267/267/267 268/268/268
f 270/270/270 269/269/269 268/268/268
f 271/271/271 269/269/269 270/270/270
f 272/272/272 271/271/271 270/270/270
f 273/273/273 271/271/271 272/272/272
f 274/274/274 273/273/273 272/272/272
f 275/275/275 273/273/273 274/274/274
f 276/276/276 275/275/275 274/274/274
f 277/277/277 275/275/275 276/276/276
f 280/280/280 279/279/279 278/278/278
f 281/281/281 279/279/279 280/280/280
f 282/282/282 281/281/281 280/280/280
f 283/283/283 281/281/281 282/282/282
f 284/284/284 283/283/283 282/282/282
f 285/285/285 283/283/283 284/284/284
f 286/286/286 285/285/285 284/284/284
f 287/287/287 285/285/285 286/286/286
f 288/288/288 287/287/287 286/286/286
f 289/289/289 287/287/287 288/288/288
f 290/290/290 289/289/289 288/288/288
f 291/291/291 289/289/289 290/290/290
f 224/224/224 188/188/188 225/225/225
f 181/181/181 188/188/188 224/224/224
f 123/123/123 292/292/292 124/124/124
f 293/293/293 292/292/292 123/123/123
f 293/293/293 294/294/294 292/292/292
f 295/295/295 294/294/294 293/293/293
f 298/298/298 297/297/297 296/296/296
f 299/299/299 297/297/297 298/298/298
f 299/299/299 300/300/300 297/297/297
f 301/301/301 300/300/300 299/299/299
f 302/302/302 232/232/232 230/230/230
f 303/303/303 234/234/234 232/232/232
f 304/304/304 234/234/234 303/303/303
f 304/304/304 236/236/236 234/234/234
f 305/305/305 236/236/236 304/304/304
f 305/305/305 238/238/238 236/236/236
f 306/306/306 238/238/238 305/305/305
f 307/307/307 258/258/258 257/257/257
f 308/308/308 258/258/258 307/307/307
f 308/308/308 254/254/254 258/258/258
f 309/309/309 254/254/254 308/308/308
f 310/310/310 257/257/257 189/189/189
f 307/307/307 257/257/257 310/310/310
f 306/306/306 190/190/190 238/238/238
f 311/311/311 190/190/190 306/306/306
f 311/311/311 189/189/189 190/190/190
f 310/310/310 189/189/189 311/311/311
f 314/314/314 313/313/313 312/312/312
f 315/315/315 313/313/313 314/314/314
f 149/149/149 316/316/316 150/150/150
f 317/317/317 316/316/316 149/149/149
f 320/320/320 319/319/319 318/318/318
f 321/321/321 319/319/319 320/320/320
f 317/317/317 322/322/322 316/316/316
f 323/323/323 322/322/322 317/317/317
f 318/318/318 324/324/324 320/320/320
f 325/325/325 324/324/324 318/318/318
f 328/328/328 327/327/327 326/326/326
f 329/329/329 327/327/327 328/328/328
f 332/332/332 331/331/331 330/330/330
f 291/291/291 331/331/331 332/332/332
f 335/335/335 334/334/334 333/333/333
f 336/336/336 334/334/334 335/335/335
f 339/339/339 338/338/338 337/337/337
f 342/342/342 341/341/341 340/340/340
f 343/343/343 341/341/341 342/342/342
f 346/346/346 345/345/345 344/344/344
f 347/347/347 345/345/345 346/346/346
f 350/350/350 349/349/349 348/348/348
f 351/351/351 349/349/349 350/350/350
f 352/352/352 349/349/349 351/351/351
f 353/353/353 352/352/352 351/351/351
f 354/354/354 352/352/352 353/353/353
f 354/354/354 346/346/346 344/344/344
f 353/353/353 346/346/346 354/354/354
f 356/356/356 343/343/343 355/355/355
f 341/341/341 343/343/343 356/356/356
f 355/355/355 357/357/357 356/356/356
f 348/348/348 355/355/355 350/350/350
f 357/357/357 355/355/355 348/348/348
f 342/342/342 359/359/359 358/358/358
f 340/340/340 359/359/359 342/342/342
f 362/362/362 361/361/361 360/360/360
f 363/363/363 361/361/361 362/362/362
f 366/366/366 365/365/365 364/364/364
f 368/368/368 365/365/365 367/367/367
f 364/364/364 365/365/365 368/368/368
f 370/370/370 367/367/367 369/369/369
f 368/368/368 367/367/367 370/370/370
f 369/369/369 362/362/362 370/370/370
f 363/363/363 362/362/362 369/369/369
f 371/371/371 358/358/358 359/359/359
f 372/372/372 358/358/358 371/371/371
f 371/371/371 373/373/373 372/372/372
f 366/366/366 372/372/372 373/373/373
f 364/364/364 372/372/372 366/366/366
f 376/376/376 375/375/375 374/374/374
f 377/377/377 375/375/375 376/376/376
f 379/379/379 374/374/374 378/378/378
f 376/376/376 374/374/374 379/379/379
f 377/377/377 380/380/380 375/375/375
f 381/381/381 380/380/380 377/377/377
f 384/384/384 383/383/383 382/382/382
f 385/385/385 383/383/383 384/384/384
f 381/381/381 386/386/386 380/380/380
f 387/387/387 386/386/386 381/381/381
f 389/389/389 382/382/382 388/388/388
f 384/384/384 382/382/382 389/389/389
f 387/387/387 390/390/390 386/386/386
f 391/391/391 390/390/390 387/387/387
f 394/394/394 393/393/393 392/392/392
f 395/395/395 393/393/393 394/394/394
f 391/391/391 396/396/396 390/390/390
f 397/397/397 396/396/396 391/391/391
f 395/395/395 398/398/398 393/393/393
f 399/399/399 398/398/398 395/395/395
f 402/402/402 401/401/401 400/400/400
f 403/403/403 401/401/401 402/402/402
f 403/403/403 404/404/404 401/401/401
f 405/405/405 404/404/404 403/403/403
f 408/408/408 407/407/407 406/406/406
f 409/409/409 407/407/407 408/408/408
f 397/397/397 406/406/406 396/396/396
f 408/408/408 406/406/406 397/397/397
f 385/385/385 378/378/378 383/383/383
f 379/379/379 378/378/378 385/385/385
f 399/399/399 388/388/388 398/398/398
f 389/389/389 388/388/388 399/399/399
f 405/405/405 392/392/392 404/404/404
f 394/394/394 392/392/392 405/405/405
f 412/412/412 411/411/411 410/410/410
f 413/413/413 411/411/411 412/412/412
f 413/413/413 414/414/414 411/411/411
f 415/415/415 414/414/414 413/413/413
f 417/417/417 410/410/410 416/416/416
f 412/412/412 410/410/410 417/417/417
f 420/420/420 419/419/419 418/418/418
f 421/421/421 419/419/419 420/420/420
f 423/423/423 416/416/416 422/422/422
f 417/417/417 416/416/416 423/423/423
f 421/421/421 424/424/424 419/419/419
f 425/425/425 424/424/424 421/421/421
f 427/427/427 422/422/422 426/426/426
f 423/423/423 422/422/422 427/427/427
f 430/430/430 429/429/429 428/428/428
f 431/431/431 429/429/429 430/430/430
f 433/433/433 426/426/426 432/432/432
f 427/427/427 426/426/426 433/433/433
f 435/435/435 428/428/428 434/434/434
f 430/430/430 428/428/428 435/435/435
f 437/437/437 400/400/400 436/436/436
f 402/402/402 400/400/400 437/437/437
f 439/439/439 436/436/436 438/438/438
f 437/437/437 436/436/436 439/439/439
f 442/442/442 441/441/441 440/440/440
f 443/443/443 441/441/441 442/442/442
f 443/443/443 432/432/432 441/441/441
f 433/433/433 432/432/432 443/443/443
f 415/415/415 418/418/418 414/414/414
f 420/420/420 418/418/418 415/415/415
f 425/425/425 434/434/434 424/424/424
f 435/435/435 434/434/434 425/425/425
f 431/431/431 438/438/438 429/429/429
f 439/439/439 438/438/438 431/431/431
f 444/444/444 377/377/377 376/376/376
f 445/445/445 377/377/377 444/444/444
f 446/446/446 376/376/376 379/379/379
f 444/444/444 376/376/376 446/446/446
f 447/447/447 385/385/385 384/384/384
f 448/448/448 385/385/385 447/447/447
f 449/449/449 384/384/384 389/389/389
f 447/447/447 384/384/384 449/449/449
f 450/450/450 399/399/399 395/395/395
f 451/451/451 399/399/399 450/450/450
f 448/448/448 379/379/379 385/385/385
f 446/446/446 379/379/379 448/448/448
f 451/451/451 389/389/389 399/399/399
f 449/449/449 389/389/389 451/451/451
f 452/452/452 413/413/413 412/412/412
f 453/453/453 413/413/413 452/452/452
f 453/453/453 415/415/415 413/413/413
f 454/454/454 415/415/415 453/453/453
f 455/455/455 421/421/421 420/420/420
f 456/456/456 421/421/421 455/455/455
f 456/456/456 425/425/425 421/421/421
f 457/457/457 425/425/425 456/456/456
f 458/458/458 430/430/430 435/435/435
f 459/459/459 430/430/430 458/458/458
f 454/454/454 420/420/420 415/415/415
f 455/455/455 420/420/420 454/454/454
f 457/457/457 435/435/435 425/425/425
f 458/458/458 435/435/435 457/457/457
f 450/450/450 461/461/461 460/460/460
f 395/395/395 461/461/461 450/450/450
f 430/430/430 463/463/463 462/462/462
f 459/459/459 463/463/463 430/430/430
f 466/466/466 465/465/465 464/464/464
f 467/467/467 465/465/465 466/466/466
f 464/464/464 469/469/469 468/468/468
f 465/465/465 469/469/469 464/464/464
f 468/468/468 471/471/471 470/470/470
f 469/469/469 471/471/471 468/468/468
f 470/470/470 473/473/473 472/472/472
f 471/471/471 473/473/473 470/470/470
f 466/466/466 474/474/474 467/467/467
f 475/475/475 474/474/474 466/466/466
f 475/475/475 476/476/476 474/474/474
f 477/477/477 476/476/476 475/475/475
f 477/477/477 478/478/478 476/476/476
f 479/479/479 478/478/478 477/477/477
f 479/479/479 480/480/480 478/478/478
f 481/481/481 480/480/480 479/479/479
f 484/484/484 483/483/483 482/482/482
f 485/485/485 483/483/483 484/484/484
f 488/488/488 487/487/487 486/486/486
f 489/489/489 487/487/487 488/488/488
f 492/492/492 491/491/491 490/490/490
f 493/493/493 491/491/491 492/492/492
f 496/496/496 495/495/495 494/494/494
f 497/497/497 495/495/495 496/496/496
f 500/500/500 499/499/499 498/498/498
f 501/501/501 499/499/499 500/500/500
f 504/504/504 503/503/503 502/502/502
f 505/505/505 503/503/503 504/504/504
f 508/508/508 507/507/507 506/506/506
f 509/509/509 507/507/507 508/508/508
f 512/512/512 511/511/511 510/510/510
f 513/513/513 511/511/511 512/512/512
f 516/516/516 515/515/515 514/514/514
f 517/517/517 515/515/515 516/516/516
f 520/520/520 519/519/519 518/518/518
f 521/521/521 519/519/519 520/520/520
f 524/524/524 523/523/523 522/522/522
f 525/525/525 523/523/523 524/524/524
f 528/528/528 527/527/527 526/526/526
f 529/529/529 527/527/527 528/528/528
f 532/532/532 531/531/531 530/530/530
f 533/533/533 531/531/531 532/532/532
f 501/501/501 534/534/534 499/499/499
f 535/535/535 534/534/534 501/501/501
f 538/538/538 537/537/537 536/536/536
f 539/539/539 537/537/537 538/538/538
f 542/542/542 541/541/541 540/540/540
f 543/543/543 541/541/541 542/542/542
f 546/546/546 545/545/545 544/544/544
f 547/547/547 545/545/545 546/546/546
f 550/550/550 549/549/549 548/548/548
f 551/551/551 549/549/549 550/550/550
