<?xml version="1.0" encoding="UTF-8"?>
<!-- Generator: visioncortex VTracer 0.6.4 -->
<svg version="1.1" xmlns="http://www.w3.org/2000/svg" width="24" height="20">
<path d="M0,0 L3,0 L3,1 L4,1 L4,3 L5,3 L5,5 L6,5 L6,7 L7,7 L7,8 L8,8 L8,10 L9,10 L9,12 L10,12 L10,14 L11,14 L11,15 L12,15 L12,17 L10,17 L10,18 L-7,18 L-7,17 L-8,17 L-8,14 L-7,14 L-7,12 L-6,12 L-6,11 L-5,11 L-5,9 L-4,9 L-4,7 L-3,7 L-3,5 L-2,5 L-2,4 L-1,4 L-1,2 L0,2 Z " fill="#11E58E" transform="translate(9,1)"/>
<path d="M0,0 L1,0 L1,1 L0,1 Z " fill="#0EE28D" opacity="0.42745098" transform="translate(0,15)"/>
<path d="M0,0 L1,0 L1,1 L0,1 Z " fill="#0EE38C" opacity="0.43529412" transform="translate(18,11)"/>
<path d="M0,0 L1,0 L1,1 L0,1 Z " fill="#0DE48D" opacity="0.39215687" transform="translate(4,8)"/>
<path d="M0,0 L1,0 L1,1 L0,1 Z " fill="#10E18B" opacity="0.4" transform="translate(14,4)"/>
<path d="M0,0 L1,0 L1,1 L0,1 Z " fill="#0FE38D" opacity="0.36078432" transform="translate(8,1)"/>
<path d="M0,0 L1,0 L1,1 L0,1 Z " fill="#10E48D" opacity="0.8666667" transform="translate(1,18)"/>
<path d="M0,0 L1,0 L1,1 L0,1 Z " fill="#0EE48C" opacity="0.18431373" transform="translate(21,17)"/>
<path d="M0,0 L1,0 L1,1 L0,1 Z " fill="#11E58D" opacity="0.87058824" transform="translate(0,17)"/>
<path d="M0,0 L1,0 L1,1 L0,1 Z " fill="#10E38C" opacity="0.7372549" transform="translate(20,15)"/>
<path d="M0,0 L1,0 L1,1 L0,1 Z " fill="#11E58D" opacity="0.8352941" transform="translate(1,14)"/>
<path d="M0,0 L1,0 L1,1 L0,1 Z " fill="#0CE08A" opacity="0.58431375" transform="translate(19,13)"/>
<path d="M0,0 L1,0 L1,1 L0,1 Z " fill="#10E38D" opacity="0.69803923" transform="translate(2,12)"/>
<path d="M0,0 L1,0 L1,1 L0,1 Z " fill="#11E48D" opacity="0.8392157" transform="translate(17,10)"/>
<path d="M0,0 L1,0 L1,1 L0,1 Z " fill="#0CCB8A" opacity="0.54509807" transform="translate(3,10)"/>
<path d="M0,0 L1,0 L1,1 L0,1 Z " fill="#10E48D" opacity="0.7058824" transform="translate(16,8)"/>
<path d="M0,0 L1,0 L1,1 L0,1 Z " fill="#10E58E" opacity="0.80784315" transform="translate(5,7)"/>
<path d="M0,0 L1,0 L1,1 L0,1 Z " fill="#0CCA8A" opacity="0.5529412" transform="translate(15,6)"/>
<path d="M0,0 L1,0 L1,1 L0,1 Z " fill="#0FE38D" opacity="0.6627451" transform="translate(6,5)"/>
<path d="M0,0 L1,0 L1,1 L0,1 Z " fill="#11E48D" opacity="0.8117647" transform="translate(13,3)"/>
<path d="M0,0 L1,0 L1,1 L0,1 Z " fill="#10E38D" opacity="0.5137255" transform="translate(7,3)"/>
<path d="M0,0 L1,0 L1,1 L0,1 Z " fill="#0EE48D" opacity="0.67058825" transform="translate(12,1)"/>
<path d="M0,0 L1,0 L1,1 L0,1 Z " fill="#0CAB6A" opacity="0.5137255" transform="translate(20,18)"/>
<path d="M0,0 L1,0 L1,1 L0,1 Z " fill="#11E58E" opacity="0.9372549" transform="translate(19,18)"/>
<path d="M0,0 L1,0 L1,1 L0,1 Z " fill="#0EE189" opacity="0.27450982" transform="translate(0,18)"/>
<path d="M0,0 L1,0 L1,1 L0,1 Z " fill="#0FE38C" opacity="0.17254902" transform="translate(21,16)"/>
<path d="M0,0 L1,0 L1,1 L0,1 Z " fill="#11E48D" opacity="0.8627451" transform="translate(0,16)"/>
<path d="M0,0 L1,0 L1,1 L0,1 Z " fill="#0DE18B" opacity="0.1764706" transform="translate(20,14)"/>
<path d="M0,0 L1,0 L1,1 L0,1 Z " fill="#11E58E" opacity="0.9882353" transform="translate(19,14)"/>
<path d="M0,0 L1,0 L1,1 L0,1 Z " fill="#11E58D" opacity="0.015686275" transform="translate(0,14)"/>
<path d="M0,0 L1,0 L1,1 L0,1 Z " fill="#0ACE78" opacity="0.27450982" transform="translate(1,13)"/>
<path d="M0,0 L1,0 L1,1 L0,1 Z " fill="#0AA766" opacity="0.078431375" transform="translate(19,12)"/>
<path d="M0,0 L1,0 L1,1 L0,1 Z " fill="#11E58E" opacity="0.93333334" transform="translate(18,12)"/>
<path d="M0,0 L1,0 L1,1 L0,1 Z " fill="#11E58E" opacity="0.9764706" transform="translate(3,11)"/>
<path d="M0,0 L1,0 L1,1 L0,1 Z " fill="#08DD8B" opacity="0.14509805" transform="translate(2,11)"/>
<path d="M0,0 L1,0 L1,1 L0,1 Z " fill="#11E48D" opacity="0.019607844" transform="translate(18,10)"/>
<path d="M0,0 L1,0 L1,1 L0,1 Z " fill="#09D587" opacity="0.28235295" transform="translate(17,9)"/>
<path d="M0,0 L1,0 L1,1 L0,1 Z " fill="#11E58E" opacity="0.9137255" transform="translate(4,9)"/>
<path d="M0,0 L1,0 L1,1 L0,1 Z " fill="#11E58E" opacity="0.05882353" transform="translate(3,9)"/>
<path d="M0,0 L1,0 L1,1 L0,1 Z " fill="#08DE86" opacity="0.15294118" transform="translate(16,7)"/>
<path d="M0,0 L1,0 L1,1 L0,1 Z " fill="#11E58E" opacity="0.98039216" transform="translate(15,7)"/>
<path d="M0,0 L1,0 L1,1 L0,1 Z " fill="#10E58E" opacity="0.011764706" transform="translate(4,7)"/>
<path d="M0,0 L1,0 L1,1 L0,1 Z " fill="#0FE38B" opacity="0.24313726" transform="translate(5,6)"/>
<path d="M0,0 L1,0 L1,1 L0,1 Z " fill="#11E58E" opacity="0.05882353" transform="translate(15,5)"/>
<path d="M0,0 L1,0 L1,1 L0,1 Z " fill="#11E58E" opacity="0.91764706" transform="translate(14,5)"/>
<path d="M0,0 L1,0 L1,1 L0,1 Z " fill="#11E58E" opacity="0.9647059" transform="translate(7,4)"/>
<path d="M0,0 L1,0 L1,1 L0,1 Z " fill="#07DB86" opacity="0.12156863" transform="translate(6,4)"/>
<path d="M0,0 L1,0 L1,1 L0,1 Z " fill="#11E48D" opacity="0.011764706" transform="translate(14,3)"/>
<path d="M0,0 L1,0 L1,1 L0,1 Z " fill="#098E58" opacity="0.2509804" transform="translate(13,2)"/>
<path d="M0,0 L1,0 L1,1 L0,1 Z " fill="#10E48D" opacity="0.89411765" transform="translate(8,2)"/>
<path d="M0,0 L1,0 L1,1 L0,1 Z " fill="#10E48D" opacity="0.043137256" transform="translate(7,2)"/>
<path d="M0,0 L1,0 L1,1 L0,1 Z " fill="#11E58E" transform="translate(9,1)"/>
<path d="M0,0 L1,0 L1,1 L0,1 Z " fill="#10E38D" opacity="0.07058824" transform="translate(12,0)"/>
<path d="M0,0 L1,0 L1,1 L0,1 Z " fill="#10E38D" opacity="0.73333335" transform="translate(11,0)"/>
<path d="M0,0 L1,0 L1,1 L0,1 Z " fill="#11E58D" opacity="0.92941177" transform="translate(10,0)"/>
<path d="M0,0 L1,0 L1,1 L0,1 Z " fill="#0CCB8A" opacity="0.53333336" transform="translate(9,0)"/>
<path d="M0,0 L1,0 L1,1 L0,1 Z " fill="#0CCB8A" opacity="0.003921569" transform="translate(8,0)"/>
</svg>
